<?xml version="1.0" encoding="utf-8"?>
<!-- Generator: Adobe Illustrator 17.0.0, SVG Export Plug-In . SVG Version: 6.00 Build 0)  -->
<!DOCTYPE svg PUBLIC "-//W3C//DTD SVG 1.1//EN" "http://www.w3.org/Graphics/SVG/1.1/DTD/svg11.dtd">
<svg version="1.1" id="Layer_1" xmlns="http://www.w3.org/2000/svg" xmlns:xlink="http://www.w3.org/1999/xlink" x="0px" y="0px"
	 width="127px" height="134.1px" viewBox="0 0 127 134.1" style="enable-background:new 0 0 127 134.1;" xml:space="preserve">
<style type="text/css">
@-webkit-keyframes spin {
    0%{
        -webkit-transform: rotate(0deg);

    }
    100%{
        -webkit-transform: rotate(360deg);
    }
}

@keyframes spin {
    0%{
        transform: rotate(0deg);

    }
    100%{
        transform: rotate(360deg);
    }
}

.spin{
    -webkit-animation: spin 1s infinite linear;
    animation: spin 1s infinite linear;
    -webkit-transform-origin: 50% 50%;
    transform-origin: 50% 50%;
}

	.st0{opacity:0.8;fill:none;stroke:#B42627;stroke-width:8;stroke-linecap:round;stroke-miterlimit:10;}
	.st1{fill:#B21626;}
</style>
<g id="loading.svg">
	<path class="st0 spin" d="M63.5,59.5c-15.3,0-27.8-12.4-27.8-27.8S48.2,4,63.5,4s27.8,12.4,27.8,27.8c0,5.1-1.4,9.9-3.8,14"/>
	<g>
		<path class="st1" d="M11.2,115.3c0.5,1.2,0.8,1.8,0.8,1.9c-0.2,0.2-0.3,0.5-0.5,0.8c-0.2,0.3-0.3,0.6-0.5,0.8
			c-0.2,0.2-0.4,0.5-0.6,0.6c-0.3,0.2-0.6,0.3-0.9,0.5c-0.5,0.2-1,0.4-1.4,0.6c-0.4,0.2-0.8,0.4-1.2,0.5c-0.4,0.2-0.8,0.3-1.3,0.4
			c-0.5,0.1-0.9,0.1-1.3,0.2c-0.3,0.1-0.6,0.1-0.9,0.2c-0.3,0-0.6,0-0.8,0c-0.2,0-0.4,0-0.5,0s-0.3-0.1-0.3-0.1
			c-0.1-0.1-0.2-0.2-0.4-0.2c-0.1-0.1-0.2-0.2-0.3-0.2c-0.2-0.1-0.4-0.2-0.5-0.3c-0.2-0.1-0.3-0.4-0.4-0.8c-0.1-0.5-0.1-1.1-0.1-2
			c0-0.6,0.2-1.6,0.5-2.9S1,113,1,112.6c0-0.1,0-0.2,0-0.4c0-0.2,0-0.3,0-0.4c0-0.4,0.1-1.3,0.4-2.6c0.3-1.4,0.4-2.3,0.4-2.8
			c0-0.3-0.1-0.4-0.3-0.6c-0.2-0.1-0.3-0.3-0.3-0.5c0-0.3,0-0.7,0.1-1.1c0.1-0.4,0.2-0.9,0.3-1.4c0.1-0.4,0.2-0.8,0.3-1.2
			c0.1-0.4,0.2-0.8,0.3-1.2c0.1-0.5,0.2-0.9,0.3-1.4c0.1-0.5,0.2-0.9,0.3-1.4c0.1-0.3,0.2-0.7,0.4-1.1c0.2-0.4,0.4-0.9,0.6-1.5
			c0.1-0.3,0.2-0.5,0.3-0.8c0.1-0.2,0.2-0.5,0.3-0.8c0.1-0.2,0.3-0.4,0.5-0.6c0.2-0.2,0.5-0.3,0.8-0.5c0.2-0.1,0.5-0.2,0.7-0.2
			c0.2,0,0.3-0.1,0.4-0.1c0.4,0,0.6,0.1,0.8,0.4c0.2,0.3,0.3,0.6,0.3,1.2c0,0.2,0,0.4,0,0.6c0,0.2-0.1,0.5-0.2,0.7
			c-0.1,0.3-0.1,0.5-0.2,0.7c0,0.2-0.1,0.4-0.1,0.5c0,0.3,0,0.6-0.1,0.9c0,0.3-0.1,0.5-0.1,0.8C7,98,6.9,98.2,6.7,98.5
			c-0.1,0.6-0.2,1.2-0.2,1.6c-0.1,0.4-0.1,0.7-0.1,0.9c0,0.6-0.1,1.3-0.4,2.2c-0.3,0.9-0.4,1.5-0.4,2c0,0.2,0,0.4-0.1,0.8
			c-0.1,0.3-0.2,0.7-0.3,1.1c-0.2,0.6-0.3,1-0.4,1.3c-0.1,0.3-0.1,0.5-0.2,0.6c0,0.2-0.1,0.4-0.1,0.7c0,0.3-0.1,0.6-0.2,1
			c-0.3,1.5-0.6,2.7-0.7,3.7s-0.2,1.7-0.2,2.2c0,0.5,0,0.8,0.1,1c0.1,0.2,0.2,0.4,0.4,0.4c0.9,0,1.7-0.1,2.6-0.3
			c0.9-0.2,1.8-0.5,2.8-0.8c0.1,0,0.2,0,0.3-0.1c0.1,0,0.2-0.1,0.3-0.1c0.2-0.2,0.3-0.4,0.4-0.5c0.2-0.1,0.3-0.2,0.5-0.3
			C11,115.6,11.1,115.5,11.2,115.3z"/>
		<path class="st1" d="M11.2,115.3c0.1-0.1,0.2-0.2,0.3-0.4s0.2-0.3,0.4-0.5l1.6-1.1c0.2-0.2,0.5-0.5,0.9-0.9
			c0.4-0.4,0.9-0.8,1.5-1.3c0.1-0.2,0.2-0.3,0.3-0.5c0.2-0.2,0.3-0.4,0.6-0.6c0.2-0.2,0.4-0.3,0.6-0.5c0.2-0.2,0.4-0.3,0.5-0.5
			c0.2-0.2,0.4-0.4,0.6-0.6c0.2-0.2,0.4-0.4,0.6-0.6c0.2-0.2,0.4-0.3,0.7-0.5c0.2-0.1,0.5-0.2,0.8-0.2c0.3,0,0.5,0,0.7,0.1
			c0.2,0.1,0.2,0.2,0.3,0.3c-0.1,0.3-0.3,0.6-0.4,0.9l0.1,0.2c0.6-0.2,1.1-0.4,1.4-0.5c0.3-0.1,0.6-0.2,0.7-0.2c1,0,1.7,0.3,2.2,0.9
			c0.5,0.6,0.8,1.5,0.8,2.8c0,0.2,0,0.5-0.1,0.8c-0.1,0.3-0.1,0.7-0.3,1c-0.1,0.4-0.3,0.8-0.4,1c-0.2,0.3-0.3,0.5-0.4,0.6
			c0.1,0.2,0.1,0.3,0.2,0.4s0.2,0.1,0.3,0.1c0.1,0,0.2,0,0.3-0.1s0.3-0.2,0.4-0.3c0.1,0.3,0.3,0.6,0.4,0.9c0.1,0.3,0.3,0.6,0.4,1
			c-0.2,0.2-0.5,0.4-0.7,0.6c-0.2,0.2-0.5,0.4-0.7,0.6c-0.3,0.3-0.6,0.4-0.9,0.6c-0.3,0.1-0.6,0.2-0.8,0.2c-0.3,0-0.6-0.1-0.8-0.2
			c-0.2-0.2-0.4-0.4-0.5-0.6c-0.3,0.5-0.8,0.9-1.2,1.2c-0.5,0.4-1,0.7-1.6,0.9c-0.3,0.2-0.7,0.3-0.9,0.4c-0.3,0.1-0.5,0.1-0.8,0.1
			c-0.1,0-0.2,0-0.4,0.1c-0.2,0.1-0.4,0.1-0.5,0.1c-0.8,0-1.5-0.3-2.1-1s-0.9-1.4-0.9-2.2c0-0.3,0.1-0.8,0.2-1.3
			c0.2-0.5,0.2-0.9,0.2-1s0-0.2-0.1-0.2s-0.1-0.1-0.3-0.1c-0.1,0-0.2,0.1-0.5,0.3c-0.3,0.2-0.6,0.5-1.1,0.9c0,0.1-0.1,0.1-0.1,0.2
			c-0.1,0.1-0.1,0.2-0.3,0.4c-0.1-0.3-0.2-0.6-0.4-1C11.5,116,11.3,115.6,11.2,115.3z M21,111.6c-0.1,0-0.2,0.1-0.3,0.2
			c-0.1,0.1-0.3,0.3-0.4,0.5c-0.2,0.3-0.4,0.7-0.7,1c-0.2,0.2-0.3,0.3-0.5,0.4c-0.2,0.1-0.4,0.2-0.6,0.2c-0.1,0-0.3,0.1-0.4,0.4
			c-0.2,0.3-0.3,0.6-0.5,1.1c-0.2,0.4-0.3,0.8-0.3,1.1c-0.1,0.3-0.1,0.6-0.1,0.8c0,0.4,0.1,0.7,0.3,0.9c0.2,0.2,0.5,0.3,0.9,0.3
			c0.6,0,1.2-0.2,1.7-0.5s1-0.9,1.5-1.6c0.2-0.3,0.4-0.5,0.6-0.7c0.1-0.1,0.2-0.2,0.3-0.4c0.1-0.2,0.1-0.4,0.2-0.7l0.4-1.2
			c-0.1-0.4-0.2-0.7-0.3-1c-0.1-0.2-0.2-0.4-0.3-0.4c-0.1,0-0.2-0.1-0.5-0.1C21.8,111.7,21.5,111.6,21,111.6z"/>
		<path class="st1" d="M26.7,114.4l1.9-1.2c0.1-0.1,0.2-0.2,0.2-0.3c0.1-0.1,0.2-0.3,0.3-0.5c0.1-0.2,0.2-0.3,0.4-0.5
			s0.3-0.2,0.5-0.3c0.1-0.1,0.3-0.3,0.5-0.5c0.2-0.2,0.5-0.4,0.8-0.7c0.2-0.1,0.3-0.2,0.6-0.4c0.2-0.2,0.5-0.4,0.8-0.6
			c1.2-1.2,2.3-2.1,3.3-2.7c0.9-0.6,1.7-0.9,2.4-0.9c0.4,0,0.6,0.1,0.8,0.2c0.2,0.2,0.3,0.4,0.3,0.6c0,0.3-0.1,0.5-0.2,0.8
			c-0.1,0.2-0.3,0.4-0.5,0.6c-0.3,0.2-0.7,0.5-1.1,0.8c-0.2,0.3-0.5,0.6-0.8,0.9c-0.3,0.3-0.7,0.6-1.1,1c-0.1,0.2-0.3,0.3-0.3,0.5
			c-0.1,0.1-0.2,0.2-0.4,0.4c-0.2,0.2-0.4,0.4-0.8,0.6c-0.1,0.3-0.4,0.7-0.9,1.2s-1.1,1.1-1.8,1.7c-0.1,0.1-0.3,0.3-0.5,0.7
			c-0.2,0.3-0.6,0.8-1,1.4l0.1,0.2c0.3-0.1,0.6-0.3,0.9-0.5c0.3-0.2,0.7-0.5,1.1-0.9c0.5-0.4,0.8-0.8,1.1-1c0.3-0.3,0.5-0.4,0.6-0.5
			c0.1-0.1,0.2-0.1,0.3-0.2s0.2-0.1,0.3-0.2c0.6-0.8,1.2-1.3,1.8-1.7c0.5-0.4,1.1-0.5,1.5-0.5c0.3,0,0.5,0.1,0.7,0.3
			c0.2,0.2,0.2,0.6,0.3,1c0,0.7,0,1.3,0,2c0,0.4,0.1,0.8,0.4,1.2c0.3,0.3,0.6,0.5,1,0.5c0.1,0,0.2,0,0.4-0.1
			c0.1-0.1,0.2-0.2,0.4-0.3c0.1-0.1,0.2-0.2,0.3-0.3c0.1-0.1,0.2-0.2,0.3-0.3c0.1,0,0.1-0.1,0.2-0.1s0.2-0.2,0.3-0.2
			c0.2,0.4,0.4,0.8,0.5,1.1c0.1,0.3,0.2,0.6,0.3,0.8c-0.3,0.3-0.6,0.6-0.9,0.9c-0.3,0.3-0.6,0.6-1,0.9c-0.4,0.3-0.8,0.6-1.2,0.7
			c-0.4,0.2-0.8,0.2-1.2,0.2c-0.9,0-1.6-0.3-2.1-0.8s-0.8-1.3-0.8-2.3c0-0.1,0-0.2-0.1-0.4s-0.1-0.3-0.2-0.4
			c-0.1,0.1-0.1,0.1-0.2,0.2c-0.1,0.1-0.2,0.2-0.3,0.3c-0.2,0.1-0.4,0.3-0.7,0.5c-0.3,0.2-0.6,0.5-0.9,0.7c-0.5,0.5-0.9,0.9-1.2,1.2
			c-0.3,0.3-0.6,0.5-0.7,0.7c-0.3,0.2-0.6,0.5-1,0.7c-0.4,0.2-0.8,0.5-1.2,0.7c-0.3,0.2-0.5,0.3-0.7,0.4c-0.2,0.1-0.4,0.1-0.5,0.1
			c-0.7,0-1.1-0.2-1.5-0.5c-0.3-0.3-0.5-0.8-0.5-1.5c0-0.4,0.1-0.7,0.2-1.1c0.2-0.3,0.4-0.7,0.7-1c0-0.2,0-0.3,0-0.4
			c0-0.1,0-0.1-0.1-0.2c0-0.1-0.1-0.2-0.1-0.3c-0.1-0.2-0.2-0.4-0.3-0.6c-0.1-0.2-0.2-0.5-0.3-0.8c0.1-0.1,0.1-0.2,0.2-0.3
			S26.5,114.7,26.7,114.4z"/>
		<path class="st1" d="M41.8,115.3l0.1-0.1L42,115c0.2-0.3,0.5-0.5,0.6-0.7s0.3-0.3,0.4-0.4c0.1-0.1,0.2-0.2,0.5-0.3
			c0.2-0.1,0.5-0.2,0.9-0.4l0.3-0.2c0.1-0.2,0.3-0.4,0.5-0.7c0.2-0.3,0.5-0.6,0.9-1c0.1-0.1,0.2-0.2,0.3-0.3s0.3-0.2,0.4-0.4
			c0.3-0.3,0.7-0.6,1-1c0.3-0.3,0.6-0.7,0.9-1c0.1-0.1,0.4-0.3,0.8-0.7c0.4-0.3,0.9-0.8,1.6-1.3c0.1-0.1,0.3-0.2,0.5-0.3
			c0.2-0.1,0.6-0.3,1-0.5c0.2-0.1,0.3-0.2,0.4-0.4c0.1-0.2,0.1-0.4,0.1-0.7c0.1-0.2,0.2-0.4,0.3-0.6c0.1-0.3,0.2-0.6,0.3-0.9
			c0.1-0.4,0.2-0.8,0.3-1c0.1-0.3,0.1-0.4,0.2-0.5c0.2-0.6,0.5-1.3,0.9-2.2c0.4-0.8,0.9-1.8,1.4-2.8c0.3-0.6,0.6-1.2,1-1.9
			c0.2-0.3,0.5-0.6,0.8-0.8c0.3-0.2,0.6-0.3,0.9-0.3c0.2,0,0.4,0.1,0.5,0.3c0.1,0.2,0.2,0.5,0.2,0.8c0,0.6,0,1.2-0.1,1.7
			s-0.2,1-0.5,1.5c0,0.1-0.1,0.2-0.1,0.4c0,0.2-0.1,0.4-0.1,0.7c0,0.2-0.1,0.4-0.2,0.6c-0.1,0.2-0.2,0.3-0.3,0.5c0,0.1,0,0.2,0,0.3
			c0,0.1-0.1,0.3-0.1,0.5l-0.3,0.4c0,0.1,0,0.2,0,0.3s0,0.2,0,0.4c0,0.1,0,0.2-0.1,0.5c-0.1,0.2-0.2,0.6-0.4,1
			c-0.2,0.5-0.4,0.8-0.5,1.1c-0.1,0.3-0.2,0.4-0.2,0.5c-0.1,0.1-0.1,0.2-0.2,0.3c-0.1,0.2-0.2,0.3-0.3,0.5l0.1,0.5l-1.3,4.7
			c0,0.5,0,1,0,1.3c0,0.4,0.1,0.7,0.1,0.9c0.1,0.2,0.2,0.5,0.3,0.9c0.2,0.3,0.4,0.7,0.6,1.1c0.2,0.3,0.3,0.4,0.5,0.6
			c0.2,0.1,0.4,0.2,0.7,0.2c0.3,0,0.5-0.1,0.8-0.2c0.3-0.1,0.5-0.4,0.8-0.7c0.2,0.4,0.3,0.7,0.5,1c0.1,0.3,0.3,0.6,0.4,0.9
			c-0.1,0-0.2,0.2-0.4,0.4c-0.2,0.2-0.5,0.6-0.9,1c-0.2,0.3-0.5,0.4-0.8,0.6c-0.3,0.1-0.7,0.2-1.2,0.2c-1,0-1.9-0.3-2.5-0.8
			s-1.1-1.3-1.4-2.4c-0.1-0.2-0.1-0.4-0.1-0.6c0-0.2-0.1-0.3-0.1-0.5c-0.1-0.3-0.3-0.5-0.5-0.8c-0.1,0.1-0.2,0.2-0.2,0.3
			c-0.2,0.1-0.3,0.3-0.5,0.5c-0.2,0.2-0.4,0.5-0.6,0.8c0,0.1-0.1,0.3-0.2,0.5c-0.1,0.2-0.3,0.4-0.5,0.7c-0.4,0.5-0.9,1-1.3,1.5
			c-0.5,0.5-0.9,1-1.4,1.5c-0.6,0.7-1.2,1.2-1.7,1.5c-0.5,0.3-1,0.5-1.4,0.5c-0.7,0-1.2-0.2-1.5-0.5c-0.3-0.3-0.5-0.8-0.5-1.5
			c0-0.3,0.1-0.8,0.3-1.3c0.2-0.6,0.3-1,0.3-1.3l-0.1-0.3L41.8,115.3z M52.1,109.5c0-0.1,0-0.2-0.1-0.3c-0.2,0.2-0.5,0.4-0.8,0.7
			c-0.3,0.3-0.7,0.6-1.1,0.9c-0.1,0.2-0.3,0.6-0.7,1c-0.3,0.5-0.8,1.1-1.4,1.8c-0.2,0.2-0.4,0.6-0.7,1.1c-0.3,0.5-0.7,1.1-1.1,1.8
			c-0.2,0.3-0.3,0.6-0.5,1c0,0.1,0.1,0.2,0.2,0.3c0.4-0.1,0.9-0.5,1.5-1.1s1.3-1.4,2.1-2.5c0.8-1.1,1.5-2.1,1.9-2.9
			C51.9,110.6,52.1,109.9,52.1,109.5z"/>
		<path class="st1" d="M59,115.3l0.1-0.1l0.1-0.2c0.4-0.5,1-1.2,2-2c0.9-0.8,1.6-1.5,1.9-2c0.1-0.2,0.3-0.4,0.5-0.5
			c0.2-0.1,0.4-0.1,0.5-0.1c0.5,0,0.9,0.1,1.2,0.4c0.3,0.2,0.5,0.6,0.7,1.1c0.1,0.4,0.2,0.9,0.3,1.3c0.1,0.4,0.2,0.9,0.2,1.3
			c0.1,0.3,0.2,0.7,0.3,1.2c0.1,0.6,0.2,0.9,0.3,1c0.1,0.1,0.2,0.2,0.3,0.3c0.1,0.1,0.3,0.1,0.5,0.1c0.2,0,0.5,0,0.8-0.1
			c0.3-0.1,0.5-0.2,0.8-0.5c0.2-0.2,0.4-0.4,0.6-0.5c0.2-0.2,0.4-0.4,0.7-0.5l0.8,1.9c-0.2,0.2-0.5,0.5-0.9,0.8
			c-0.4,0.3-0.8,0.6-1.3,1c-0.6,0.4-1,0.7-1.4,0.9c-0.4,0.2-0.7,0.3-0.9,0.3c-1.2,0-2.1-0.1-2.4-0.4c-0.4-0.3-0.8-1.1-1.2-2.4
			c-0.1-0.1-0.1-0.2-0.2-0.4s-0.2-0.3-0.4-0.5c-0.2-0.3-0.3-0.6-0.4-0.7c-0.1-0.2-0.2-0.2-0.3-0.2c-0.2,0-0.5,0.1-0.9,0.4
			c-0.4,0.3-0.8,0.7-1.4,1.3c-0.1-0.2-0.2-0.4-0.3-0.6c-0.1-0.2-0.2-0.5-0.3-0.9c0-0.1-0.1-0.2-0.1-0.2
			C59.1,115.4,59,115.4,59,115.3z M67.6,99.1c0.3,0,0.6,0.1,0.8,0.2c0.2,0.1,0.2,0.3,0.2,0.6c-0.1,0.4-0.2,0.7-0.2,1
			c-0.1,0.5-0.3,0.9-0.4,1.2c-0.1,0.3-0.2,0.5-0.2,0.7c-0.1,0.3-0.3,0.6-0.5,0.8c-0.2,0.2-0.5,0.4-0.8,0.6c-0.3,0.2-0.6,0.4-0.8,0.5
			s-0.4,0.1-0.4,0.1c-0.2,0-0.5-0.1-0.7-0.1s-0.4,0-0.6,0c-0.2-0.1-0.3-0.3-0.4-0.6c-0.1-0.3-0.2-0.6-0.2-1.1c0-0.4,0.2-0.9,0.7-1.6
			s0.9-1,1.3-1c0.2-0.3,0.5-0.6,0.8-1c0.1-0.1,0.3-0.2,0.5-0.2C67,99.2,67.3,99.1,67.6,99.1z"/>
		<path class="st1" d="M70.7,115.3c0.1-0.1,0.1-0.2,0.2-0.3s0.2-0.3,0.3-0.4c0.1-0.1,0.3-0.3,0.5-0.5c0.2-0.2,0.5-0.4,0.7-0.7
			c0.2-0.3,0.5-0.6,0.9-1c0.4-0.4,0.8-0.9,1.3-1.5c0.2-0.2,0.5-0.5,0.8-0.9c0.3-0.4,0.7-0.8,1.2-1.3c0.4-0.5,0.8-0.8,1.2-1
			c0.4-0.2,0.9-0.3,1.4-0.3s0.9,0.2,1.1,0.5c0.2,0.3,0.3,0.8,0.3,1.3c0,0.3-0.1,0.9-0.3,1.8c-0.2,0.9-0.6,2.1-1.1,3.5
			c-0.1,0.3-0.2,0.5-0.3,0.8c-0.1,0.2-0.1,0.3-0.2,0.5s0,0.2,0,0.3c0,0.1,0,0.2,0.1,0.3c0.1,0,0.1-0.1,0.2-0.2s0.1-0.2,0.2-0.2
			c0.1-0.2,0.3-0.4,0.5-0.6c0.2-0.2,0.5-0.5,0.8-0.8c0.1-0.2,0.3-0.5,0.5-0.7c0.2-0.2,0.4-0.4,0.7-0.6c0.1-0.1,0.1-0.1,0.2-0.3
			s0.2-0.3,0.3-0.4c0.2-0.2,0.4-0.4,0.6-0.6c0.2-0.2,0.5-0.4,0.9-0.6c0.4-0.2,0.7-0.3,1-0.5c0.3-0.1,0.6-0.2,0.8-0.2
			c0.4,0,0.8,0.1,1.1,0.3c0.3,0.2,0.6,0.5,0.8,1c0.3,0.8,0.5,1.6,0.8,2.4c0.2,0.4,0.3,0.7,0.5,0.9c0.2,0.2,0.4,0.3,0.6,0.3
			c0.2,0,0.3,0,0.5-0.1c0.1-0.1,0.3-0.2,0.4-0.3l0.8,1.9c-0.2,0.2-0.5,0.4-0.7,0.6c-0.2,0.2-0.5,0.4-0.7,0.6
			c-0.3,0.3-0.6,0.5-0.9,0.6c-0.3,0.1-0.5,0.2-0.8,0.2c-0.3,0-0.6-0.1-0.9-0.2c-0.3-0.1-0.5-0.3-0.7-0.6c-0.1-0.1-0.2-0.3-0.4-0.6
			c-0.2-0.3-0.4-0.7-0.6-1.1c-0.2-0.2-0.4-0.4-0.6-0.7c-0.2-0.3-0.5-0.6-0.8-1l-0.2-0.1c-0.3,0.1-0.5,0.2-0.8,0.4s-0.5,0.4-0.8,0.6
			c-0.6,0.5-1.1,0.9-1.3,1s-0.5,0.3-0.6,0.5c-0.2,0.3-0.5,0.8-1,1.3c-0.5,0.5-1,1.1-1.7,1.8c-0.2,0.2-0.4,0.4-0.5,0.5
			s-0.4,0.3-0.5,0.5c-0.2,0.2-0.4,0.3-0.6,0.3s-0.5,0.1-0.7,0.1c-0.5,0-0.8-0.2-0.9-0.6c0-0.4-0.1-0.8-0.1-1.1
			c0.2-0.6,0.4-1.3,0.7-2.2c0.3-0.9,0.6-1.9,0.9-3c0-0.1,0-0.2,0.1-0.3s0.1-0.3,0.2-0.5c0.1-0.2,0.1-0.3,0.1-0.5c0-0.1,0-0.2,0-0.3
			s0-0.2-0.1-0.2c-0.1-0.1-0.2-0.1-0.3-0.1c-0.1,0-0.3,0.1-0.5,0.2c-0.2,0.2-0.5,0.4-0.8,0.8c-0.4,0.4-0.7,0.7-0.9,1
			c-0.2,0.2-0.4,0.4-0.5,0.4c-0.1,0.1-0.3,0.2-0.5,0.4c-0.2,0.2-0.4,0.4-0.6,0.6c0,0.1-0.1,0.1-0.1,0.2c-0.1,0.1-0.1,0.2-0.3,0.4
			c-0.1-0.2-0.2-0.5-0.3-0.8C71.1,116.2,71,115.8,70.7,115.3z"/>
		<path class="st1" d="M90.4,115.3c0.1-0.1,0.2-0.3,0.3-0.5c0.1-0.2,0.3-0.4,0.5-0.7c0.2-0.2,0.4-0.4,0.6-0.6c0.2-0.3,0.5-0.6,0.8-1
			c0.1-0.2,0.2-0.5,0.4-0.8c0.2-0.3,0.3-0.6,0.5-1c0.1-0.4,0.3-0.8,0.6-1.3c0.3-0.5,0.7-1,1.3-1.6c0.8-0.8,1.5-1.7,2.4-2.7
			c0.4-0.6,0.9-1.1,1.4-1.4s1-0.5,1.6-0.5c0.4,0,0.7,0.2,0.9,0.5c0.2,0.3,0.3,0.8,0.3,1.5c0,0.2-0.2,0.6-0.5,1.2
			c-0.3,0.5-0.8,1.2-1.5,2c-0.4,0.5-0.9,1-1.3,1.5c-0.5,0.5-0.9,1-1.4,1.5c-0.2,0.2-0.4,0.4-0.6,0.6c-0.2,0.2-0.5,0.5-0.7,0.8
			c-0.1,0.3-0.2,0.6-0.3,1c0,0.5,0,1,0.1,1.4c0.1,0.4,0.2,0.7,0.3,1c0.1,0.1,0.2,0.3,0.4,0.6s0.5,0.8,0.9,1.3
			c0.1,0.1,0.2,0.3,0.3,0.4c0.1,0.1,0.3,0.3,0.5,0.4c0.2-0.1,0.6-0.4,1.2-1.1c0.6-0.7,1.4-1.6,2.4-2.8l0.8,1.9
			c-0.1,0.1-0.3,0.3-0.5,0.7c-0.3,0.3-0.6,0.8-1,1.3c-0.4,0.6-0.9,1.2-1.3,1.8c0,0.1,0.1,0.3,0.2,0.5s0.3,0.4,0.5,0.6
			c0.4,0.4,0.7,0.9,0.9,1.6c0.3,0.7,0.4,1.5,0.6,2.4c0,0.1,0,0.2-0.1,0.3c0,0.2,0,0.3-0.1,0.5c-0.2,1.6-1.1,3.1-2.9,4.7
			s-3.4,2.4-5,2.4c-0.7,0-1.3-0.1-1.7-0.3c-0.4-0.2-0.7-0.5-0.9-0.8c-0.1-0.2-0.1-0.5-0.2-1c0-0.5-0.1-1.2-0.1-2.1
			c0-0.1,0-0.2,0.1-0.5c0.1-0.2,0.2-0.6,0.4-1c0.1-0.3,0.2-0.6,0.4-0.9c0.2-0.3,0.4-0.6,0.5-1c0.2-0.3,0.4-0.6,0.6-0.8
			c0.2-0.3,0.4-0.5,0.6-0.8c0.4-0.5,0.8-0.9,1.2-1.3c0.3-0.3,0.5-0.5,0.6-0.7c0.1-0.2,0.2-0.4,0.2-0.6c-0.5-0.6-0.9-1.3-1.4-1.8
			c-0.5-0.6-0.9-1.2-1.2-1.8c-0.3-0.6-0.5-1.2-0.6-1.9c0-0.1-0.1-0.2-0.2-0.4c-0.3,0.3-0.6,0.6-0.9,0.9c-0.1-0.2-0.2-0.5-0.3-0.8
			C90.8,116.2,90.6,115.8,90.4,115.3z M97.1,124c-0.1,0-0.3,0.2-0.6,0.6c-0.3,0.4-0.7,1-1.2,1.7c-0.3,0.5-0.6,0.9-0.9,1.4
			s-0.6,0.9-0.9,1.4c-0.1,0.2-0.3,0.5-0.5,1.1c-0.2,0.6-0.3,0.9-0.3,1.1c0,0.3,0.1,0.5,0.2,0.6s0.4,0.2,0.7,0.2
			c1.1,0,2.1-0.6,3.2-1.7s1.7-2.2,1.7-3.3c0-0.2,0-0.5-0.1-0.8c-0.1-0.3-0.2-0.6-0.3-1c-0.2-0.4-0.3-0.7-0.5-0.9
			C97.5,124.1,97.3,124,97.1,124z"/>
		<path class="st1" d="M108.4,120.1c0,0.2-0.1,0.4-0.2,0.6c-0.1,0.2-0.3,0.3-0.5,0.5c-0.1,0.2-0.2,0.4-0.3,0.5
			c-0.1,0.1-0.2,0.2-0.4,0.2c-0.6,0-1-0.2-1.4-0.6c-0.4-0.4-0.7-1-0.9-1.8l0.1-0.1l-0.2-0.5c0.1-0.2,0.1-0.4,0.2-0.6
			s0.1-0.4,0.2-0.6c0.1-0.3,0.2-0.4,0.3-0.6c0.2-0.1,0.3-0.2,0.5-0.2c0.4,0,0.7,0.1,1,0.3c0.3,0.2,0.6,0.5,0.8,0.9
			c0.2,0.4,0.4,0.7,0.5,1.1C108.3,119.4,108.4,119.7,108.4,120.1z"/>
		<path class="st1" d="M117.7,120.1c0,0.2-0.1,0.4-0.2,0.6c-0.1,0.2-0.3,0.3-0.5,0.5c-0.1,0.2-0.2,0.4-0.3,0.5
			c-0.1,0.1-0.2,0.2-0.4,0.2c-0.6,0-1-0.2-1.4-0.6c-0.4-0.4-0.7-1-0.9-1.8l0.1-0.1l-0.2-0.5c0.1-0.2,0.1-0.4,0.2-0.6
			s0.1-0.4,0.2-0.6c0.1-0.3,0.2-0.4,0.3-0.6c0.2-0.1,0.3-0.2,0.5-0.2c0.4,0,0.7,0.1,1,0.3c0.3,0.2,0.6,0.5,0.8,0.9
			c0.2,0.4,0.4,0.7,0.5,1.1C117.6,119.4,117.7,119.7,117.7,120.1z"/>
		<path class="st1" d="M127,120.1c0,0.2-0.1,0.4-0.2,0.6c-0.1,0.2-0.3,0.3-0.5,0.5c-0.1,0.2-0.2,0.4-0.3,0.5
			c-0.1,0.1-0.2,0.2-0.4,0.2c-0.6,0-1-0.2-1.4-0.6c-0.4-0.4-0.7-1-0.9-1.8l0.1-0.1l-0.2-0.5c0.1-0.2,0.1-0.4,0.2-0.6
			s0.1-0.4,0.2-0.6c0.1-0.3,0.2-0.4,0.3-0.6c0.2-0.1,0.3-0.2,0.5-0.2c0.4,0,0.7,0.1,1,0.3c0.3,0.2,0.6,0.5,0.8,0.9
			c0.2,0.4,0.4,0.7,0.5,1.1C126.9,119.4,127,119.7,127,120.1z"/>
	</g>
</g>
<g>
</g>
<g>
</g>
<g>
</g>
<g>
</g>
<g>
</g>
<g>
</g>
<g>
</g>
<g>
</g>
<g>
</g>
<g>
</g>
<g>
</g>
<g>
</g>
<g>
</g>
<g>
</g>
<g>
</g>
</svg>
