<?xml version="1.0" encoding="utf-8"?>
<!-- Generator: Adobe Illustrator 17.0.0, SVG Export Plug-In . SVG Version: 6.00 Build 0)  -->
<!DOCTYPE svg PUBLIC "-//W3C//DTD SVG 1.1//EN" "http://www.w3.org/Graphics/SVG/1.1/DTD/svg11.dtd">
<svg version="1.1" id="Layer_1" xmlns="http://www.w3.org/2000/svg" xmlns:xlink="http://www.w3.org/1999/xlink" x="0px" y="0px"
	 width="161.4px" height="45.7px" viewBox="0 0 161.4 45.7" style="enable-background:new 0 0 161.4 45.7;" xml:space="preserve">
<style type="text/css">
	.st0{fill:#FFFFFF;}
</style>
<path id="logo.svg" class="st0" d="M73.1,35.4h-3.7v-3.5h-2v8.8h2v-3.7h3.7v3.7h2v-8.8h-2V35.4z M59,32.9c-0.7,0.8-1.1,1.9-1.1,3.4
	c0,0.8,0.1,1.5,0.4,2.1c0.3,0.6,0.6,1,1.1,1.4c0.4,0.3,0.8,0.5,1.2,0.6c0.4,0.1,1,0.2,1.8,0.2h3.4V39h-3.3c-0.9,0-1.5-0.2-1.8-0.6
	c-0.3-0.4-0.5-1.1-0.5-2c0-1.1,0.2-1.9,0.6-2.4c0.4-0.5,1-0.7,1.8-0.7h3.3v-1.5h-3.4C60.9,31.8,59.8,32.2,59,32.9z M77.1,40.6h2.1
	v-8.8h-2.1V40.6z M22,0C22,0,22,0,22,0c0.2,0,0.4,0,0.6,0C22.4,0,22.2,0,22,0z M149,38.1l-4-6.3h-2.6v8.8h2.1l-0.1-6.6l4.2,6.6h2.3
	v-8.8h-2.1L149,38.1z M124.3,40.6h2.1v-8.8h-2.1V40.6z M24.1,0L24.1,0c0.5,0.7,0.6,2.4,0.8,2.7c0.5,0.8,3.3,2.2,4.5,2.7
	c1.4,0.6,2.8,1,4.1,1.6c0.6,0.3,1.2,1.2,0.5,1.6c-1.4,0.8-4,0.1-5.6-0.3c-0.6-0.2-1.3-0.4-2-0.6c1.7,1.4,3.6,2.6,5.5,3.6
	c1.4,0.8,2.7,1.4,4.1,2.1c0.6,0.4,1.1,1.1,0.5,1.9c-0.2,0.2-0.5,0.3-1,0.3c-2.2-0.1-4.6-1.4-6.6-2.4c-2-1-3.9-2.2-5.7-3.6
	c-0.1-0.1-0.1-0.1-0.1-0.1s-0.1,0-0.1,0.1c-1.8,1.4-3.7,2.7-5.7,3.6c-2.1,1-4.4,2.3-6.6,2.4c-0.5,0-0.8-0.1-1-0.3
	c-0.6-0.8-0.1-1.5,0.5-1.9c1.4-0.8,2.7-1.4,4.1-2.1c1.8-1,3.8-2.3,5.5-3.6c-0.6,0.2-1.3,0.4-2,0.6c-1.6,0.4-4.2,1-5.6,0.3
	c-0.8-0.5-0.2-1.3,0.5-1.6c1.3-0.6,2.7-1,4.1-1.6c1.2-0.5,4-1.8,4.5-2.7c0.2-0.3,0.3-2,0.8-2.7C9.8,0.6,0,10.7,0,23
	c0,11.2,8,20.5,18.6,22.6c0.3-5,0.7-10.8,0.9-15.7c-4,1.6-7.9,2.5-12.4,2.9c-0.8,0.1-2.1-0.2-2.4-0.8C4.2,31,5.5,30.2,6.3,30
	c4-1,7.4-2.1,10.9-3.8c0.8-0.5,2.2-1.4,2.4-1.9c0.2-0.5,0.3-2.5,0.3-3.6c-2.6,1.8-6.5,2.9-9.6,3c-1,0.1-3.3,0.1-3.5-0.7
	c-0.1-0.4,0.2-0.7,0.5-0.8c3.5-1.4,7-2.7,10.1-4.5c2.5-1.4,4.1-3.1,5.7-3.1c1.6,0,3.1,1.7,5.7,3.1c3.1,1.8,6.6,3.1,10.2,4.5
	c0.2,0.1,0.5,0.4,0.5,0.8c-0.2,0.8-2.5,0.8-3.5,0.7c-3.1-0.1-7-1.2-9.6-3c0,1.2,0.1,3.1,0.3,3.6c0.2,0.5,1.6,1.4,2.4,1.9
	c3.6,1.8,6.9,2.8,10.9,3.8c0.8,0.2,2.1,1,1.6,2.1c-0.3,0.6-1.5,0.8-2.4,0.8c-4.4-0.4-8.4-1.4-12.4-2.9c0.3,4.9,0.7,10.7,0.9,15.7
	C38.1,43.6,46.1,34.2,46.1,23C46.1,10.7,36.3,0.6,24.1,0z M9.1,25.9c0.1-0.5,0.5-0.7,1-0.8c2.3-0.3,4.1-0.8,6.1-1.8
	c0.8-0.4,1.6-0.1,1.4,0.7c-0.5,1.8-4.7,2.6-7.2,2.7C9.9,26.8,9,26.5,9.1,25.9z M24.9,13.5c-0.9,0.2-1.2,0.1-1.9,0.1
	c-0.6,0-1,0.1-1.9-0.1c-0.9-0.2-1.4-0.8-1-1.1c0.7-0.6,1.8-0.7,2.9-0.7c1,0,2.1,0.1,2.9,0.7C26.4,12.7,25.9,13.3,24.9,13.5z
	 M35.8,26.8c-2.5-0.1-6.8-1-7.2-2.7c-0.2-0.8,0.7-1.1,1.4-0.7c2,1,3.7,1.4,6.1,1.8c0.5,0.1,0.9,0.3,1,0.8
	C37.1,26.5,36.2,26.8,35.8,26.8z M161.1,18.5c-1.1-0.5-2.4-2.3-2.7-3.2l-2.1-5.7l-3.9-0.1l2.9,7.1c0.4,1,1.5,1.6,1.9,1.9H151V8.6
	l10.1,0V5.9h-23.6v2.6l10.1,0v9.9h-6.1c0.4-0.3,1.3-0.9,1.7-1.9l2.9-7.1l-3.9,0.1l-2.1,5.7c-0.4,1-1.7,2.7-2.8,3.2H137v2.7l10.5,0
	v4.7h3.5v-4.7l10.5,0v-2.7H161.1z M138.4,40.6h2.1v-8.8h-2.1V40.6z M153.5,32.9c-0.7,0.8-1.1,1.9-1.1,3.4c0,0.8,0.1,1.5,0.4,2.1
	c0.2,0.6,0.6,1,1.1,1.4c0.4,0.3,0.8,0.5,1.3,0.6c0.4,0.1,1,0.2,1.8,0.2h4.3v-5.2h-4.8v1.6h2.7V39h-2.3c-0.8,0-1.4-0.2-1.7-0.6
	c-0.4-0.4-0.6-1.1-0.6-2.1c0-1,0.2-1.8,0.6-2.3c0.4-0.5,1-0.7,1.7-0.7h4.3v-1.5h-4.3C155.3,31.8,154.2,32.2,153.5,32.9z M107.8,24.5
	c0.1-0.3,0.2-0.7,0.2-1.2V5.8H84.3V26h19.9c1.7,0,2.7-0.2,3.1-0.5C107.5,25.2,107.7,24.9,107.8,24.5z M105,22.8
	c0,0.3-0.1,0.5-0.2,0.6c-0.1,0.1-0.3,0.2-0.7,0.2H87.3V8.2H105V22.8z M113.9,31.8h-8.4v1.5h3.1l0,7.2h2.1v-7.2h3.2V31.8z
	 M121.5,17.9h-1.6l2.9-4.1l6.5,8.7c0.3,0.4,1,1.3,1.7,2.1c0.9,0.9,2.1,1.3,2.7,1.3c0.6,0.1,1,0,1.2,0v-2.7c-0.2,0-0.4,0-0.8-0.2
	c-0.7-0.3-1.6-1.5-2.1-2.1l-7-9.5h9.9V8.7h-10.5V5.8H121v2.9h-10.4v2.8h9.7l-6.9,10c-0.3,0.4-1,1-1,1c-0.4,0.3-0.8,0.6-1.4,0.7
	c-0.1,0-0.4,0-0.4,0V26c0,0,0.3,0,0.6,0c0.2,0,0.7,0,1-0.1c0.4-0.1,1.7-0.6,2.1-0.9c0.5-0.4,1.4-1.3,1.8-1.8l3.4-4.8v2.1
	c0.5,0,1,0,1.3,0.2c0.3,0.1,0.5,0.4,1,0.9l2.6,3.7l3.5,0.1l-3.7-5.3C122.8,18.2,122.5,18,121.5,17.9z M117,31.8l-4.1,8.8h2.2
	l0.9-2.1h4.2l0.9,2.1h2.2l-4.1-8.8H117z M116.6,36.9l1.4-3.4l1.5,3.4H116.6z M136.2,32.7c-0.2-0.2-0.4-0.3-0.6-0.4
	c-0.2-0.1-0.6-0.3-1-0.3c-0.5-0.1-1-0.1-1.8-0.1h-4.4v8.8h2v-3.1h2.5c0.8,0,1.4,0,1.8-0.1c0.4-0.1,0.8-0.2,1.1-0.4
	c0.4-0.2,0.6-0.5,0.8-0.9c0.2-0.4,0.3-0.8,0.3-1.3c0-0.5-0.1-1-0.3-1.4C136.5,33,136.4,32.8,136.2,32.7z M134.3,35.6
	c-0.2,0.1-0.3,0.2-0.6,0.2c-0.2,0.1-0.5,0.1-0.8,0.1h-2.5v-2.6h2.4c0.7,0,1.2,0.1,1.5,0.3c0.3,0.2,0.4,0.5,0.4,1
	C134.7,35.1,134.6,35.4,134.3,35.6z M87.7,38.1l-4-6.3h-2.6v8.8h2.1l-0.1-6.6l4.1,6.6h2.3v-8.8h-2.1L87.7,38.1z M81.8,21.6
	c0.1-0.3,0.2-0.6,0.2-1V8H71.5V5.5H68V8H57.6v14.8H68v3.5h3.5v-3.5h8.2c0.6,0,1.1-0.1,1.4-0.4C81.4,22.2,81.6,21.9,81.8,21.6z
	 M68,20.1h-7.4v-9.5H68V20.1z M78.9,19.4c0,0.3-0.1,0.5-0.2,0.6c-0.1,0.1-0.4,0.1-0.9,0.1h-6.4v-9.5h7.4V19.4z M94.4,31.8l-4.1,8.8
	h2.2l0.9-2.1h4.2l0.9,2.1h2.2l-4.1-8.8H94.4z M94,36.9l1.4-3.4l1.5,3.4H94z M103.4,19.8h-1.1l-0.5-1.7h-2.2l0.4,1.7h-2.6v-3.1h5.6
	v-2.4h-5.6V12h5.7V9.6h-14V12h5.3v2.3h-5.3v2.4h5.3v3.1h-5.3v2.4h14.4V19.8z"/>
<g>
</g>
<g>
</g>
<g>
</g>
<g>
</g>
<g>
</g>
<g>
</g>
<g>
</g>
<g>
</g>
<g>
</g>
<g>
</g>
<g>
</g>
<g>
</g>
<g>
</g>
<g>
</g>
<g>
</g>
</svg>
