<?xml version="1.0" encoding="utf-8"?>
<!-- Generator: Adobe Illustrator 17.0.0, SVG Export Plug-In . SVG Version: 6.00 Build 0)  -->
<!DOCTYPE svg PUBLIC "-//W3C//DTD SVG 1.1//EN" "http://www.w3.org/Graphics/SVG/1.1/DTD/svg11.dtd">
<svg version="1.1" id="Layer_1" xmlns="http://www.w3.org/2000/svg" xmlns:xlink="http://www.w3.org/1999/xlink" x="0px" y="0px"
	 width="600.6px" height="397.5px" viewBox="0 0 600.6 397.5" style="enable-background:new 0 0 600.6 397.5;" xml:space="preserve"
	>
<style type="text/css">
.animated {
  -webkit-animation-duration: 20s;
          animation-duration: 20s;
  -webkit-animation-fill-mode: both;
          animation-fill-mode: both;
}

.animated.infinite {
  -webkit-animation-iteration-count: infinite;
          animation-iteration-count: infinite;
}
@-webkit-keyframes shake {
  0%, 100% {
    -webkit-transform: translate3d(0, 0, 0);
            transform: translate3d(0, 0, 0);
  }

  10%, 30%, 50%, 70%, 90% {
    -webkit-transform: translate3d(-10px, 0, 0);
            transform: translate3d(-10px, 0, 0);
  }

  20%, 40%, 60%, 80% {
    -webkit-transform: translate3d(10px, 0, 0);
            transform: translate3d(10px, 0, 0);
  }
}

@keyframes shake {
  0%, 100% {
    -webkit-transform: translate3d(0, 0, 0);
            transform: translate3d(0, 0, 0);
  }

  10%, 30%, 50%, 70%, 90% {
    -webkit-transform: translate3d(-10px, 0, 0);
            transform: translate3d(-10px, 0, 0);
  }

  20%, 40%, 60%, 80% {
    -webkit-transform: translate3d(10px, 0, 0);
            transform: translate3d(10px, 0, 0);
  }
}

@-webkit-keyframes shake-large {
  0%, 100% {
    -webkit-transform: translate3d(0, 0, 0);
            transform: translate3d(0, 0, 0);
  }

  50% {
    -webkit-transform: translate3d(-100%, 0, 0);
            transform: translate3d(-100%, 0, 0);
  }
  50.001% {
      -webkit-transform: translate3d(100%, 0, 0);
              transform: translate3d(100%, 0, 0);
   }
}

@keyframes shake-large {
    0%, 100% {
      -webkit-transform: translate3d(0, 0, 0);
              transform: translate3d(0, 0, 0);
    }

    50% {
      -webkit-transform: translate3d(-100%, 0, 0);
              transform: translate3d(-100%, 0, 0);
    }
    50.001% {
          -webkit-transform: translate3d(100%, 0, 0);
                  transform: translate3d(100%, 0, 0);
       }
}

.shake {
  -webkit-animation-name: shake;
          animation-name: shake;
}
.shake-large {
  -webkit-animation-duration: 40s;
          animation-duration: 40s;
  -webkit-animation-name: shake-large;
          animation-name: shake-large;
  -webkit-animation-timing-function: linear; /* Chrome, Safari, Opera */
      animation-timing-function: linear;

}
	.st0{opacity:0.73;fill-rule:evenodd;clip-rule:evenodd;fill:#D9B670;}
	.st1{opacity:0.5;fill-rule:evenodd;clip-rule:evenodd;fill:#D9B670;}
	.st2{opacity:0.8;fill-rule:evenodd;clip-rule:evenodd;fill:#D9B670;}
</style>
<g id="mountain.svg" class="animated shake-large infinite">
	<path class="st0" d="M112.4,104.8c-2-16.5-2.3-32.1-2.6-47.9c-2-10.1-2.4-18.4-12.4-19.8c0.1-0.7,0.3-1.3,0.5-2
		c3.5-0.5,5.8-0.5,10.2-0.1c5.4,4.3,6.7,15.3,7.9,23.1c0,15.1-1.3,30-2.7,45.9C113.1,104.2,112.7,104.5,112.4,104.8 M137.9,114.4
		c-6.3-16.9-5.4-39.1-5.8-55.8c8.6,2.8,6.9,47.2,7,55.3C138.7,114,138.3,114.2,137.9,114.4z M40.4,143.2c0.4-4.6,2.8-8.6,4.6-12.5
		c4.3-21.5-1.3-42.6,7.7-61.9c4.4-5.4,3.8-6.5,10.6-7.4c0.8,0.7,2.8,1.7,3.8,4.6c-5,3.5-7.8,5.5-9.8,11.7
		C56.9,80.3,52.5,140.3,40.4,143.2z M158,158.9c-3.5-22.9-2.4-44.4-2-66.2c-1.6-13.2-0.3-15.2-10.9-19.8c-0.4-0.7-0.7-1.3-0.9-2
		c20.6-11.6,20.2,31.9,15.9,41.8c-0.5,10.8-0.5,10.8-0.3,46.1C159.1,158.9,158.6,158.9,158,158.9z M81.4,202c-1.9-4.4-2-7-2.6-10.4
		c-9.3-28.1-6.5-58.6-8.1-86.7c-2.4-9.1-2.4-9.1-2.8-13.4c0.5-0.1,1.1-0.3,1.7-0.4c14.3,9.7,10.4,40.5,9.3,56.3
		c3,41.3,3,41.3,3.4,53.9C81.9,201.4,81.7,201.7,81.4,202z M115.3,203.3c-0.9-1.2-1.7-2.3-2.6-3.4c-9.8-22.5-18.7-44.1-20.7-67
		c-0.4-0.7-0.7-1.3-0.9-2c-1.6-24.3,2-50.8-4.7-72.5c-2.2-2.8-8.7-10.1-9.1-12c13.9,0,15.7,13.2,17.1,25.8
		c-0.5,12.8-0.9,25.6-1.3,38.3c0.5,32,8.9,59.4,23.3,89.6c0.1,0.8,0.3,1.6,0.4,2.6C116.1,202.9,115.7,203,115.3,203.3z M155.3,384.9
		c-1.1-2-1.1-2-5.1-5.9c-5.4-11-8-180-10-191c-0.7-1.2-0.7-1.2-2.6-13.4c-0.9-17.5-0.4-45.6-20.6-48.7c0-0.4,0-0.8,0.1-1.1
		c24.7-19.8,27.8,49.5,29.2,61.2c2.6,13.7,2.6,13.7,4.3,19.4c2.4,5.2,4.4,172.8,6.1,179.6C156.2,384.9,155.7,384.9,155.3,384.9z
		 M196.3,397.2c-5.4-0.7-5.4,0.5-52.2,0c-40.6,0-81.2,0-121.8,0c-14.1,0.5-14.1,0.3-22.2,0c-1.1-5.5,6.5-181.6,8.4-186.6
		c0.3-0.1,0.5-0.3,0.9-0.4c3.2-11.8,6.6-23.7,10-35.4c5.4-27.4,8.1-55.3,8.1-81.6c2-14.3,2.6-26.9,9.3-38.9c7.1-8.2,7.1-8.2,11-11.6
		c3.8-1.9,3.8-1.9,8.2-5.6c4.4-1.2,9-2.3,13.6-3.4C80.4,16,82.2,3.2,104.6,0c16.9,5.1,18.4,16.9,23.9,34.4c0.3,7.5,0.3,7.5,0.9,11.2
		c0.9-0.1,2-0.1,3.1-0.1c4-6.7,13-8.2,21.2-7.4c9,3.2,14.3,8.9,17.6,20c3,33.2-0.4,66.8,0.8,101.4c1.5,10.5,3.8,20.3,6.9,31.6
		c3.4,5.8,4.2,16.3,9.5,22.7c1.1,6.9,6.3,176,9.9,183.4C197.8,397.3,197,396.9,196.3,397.2z"/>
	<path class="st1" d="M256.1,269.7c-2-16.5-2.3-32.1-2.6-47.9c-2-10.1-2.4-18.4-12.4-19.8c0.1-0.7,0.3-1.3,0.5-2
		c3.5-0.5,5.8-0.5,10.2-0.1c5.4,4.3,6.7,15.3,7.9,23.1c0,15.1-1.3,30-2.7,45.9C256.7,269.2,256.3,269.4,256.1,269.7 M281.5,279.4
		c-6.3-16.9-5.4-39.1-5.8-55.8c8.6,2.8,6.9,47.2,7,55.3C282.3,279,281.9,279.1,281.5,279.4z M184,308.1c0.4-4.6,2.8-8.6,4.6-12.5
		c4.3-21.5-1.3-42.6,7.7-61.9c4.4-5.4,3.8-6.5,10.6-7.4c0.8,0.7,2.8,1.7,3.8,4.6c-5,3.5-7.8,5.5-9.8,11.7
		C200.5,245.2,196.1,305.2,184,308.1z M301.7,323.9c-3.5-22.9-2.4-44.4-2-66.2c-1.6-13.2-0.3-15.2-10.9-19.8c-0.4-0.7-0.7-1.3-0.9-2
		c20.6-11.6,20.2,31.9,15.9,41.8c-0.5,10.8-0.5,10.8-0.3,46.1C302.7,323.9,302.2,323.9,301.7,323.9z M225,366.9
		c-1.9-4.4-2-7-2.6-10.4c-9.3-28.1-6.5-58.6-8.1-86.7c-2.4-9.1-2.4-9.1-2.8-13.4c0.5-0.1,1.1-0.3,1.7-0.4
		c14.3,9.7,10.4,40.5,9.3,56.3c3,41.3,3,41.3,3.4,53.9C225.5,366.4,225.3,366.6,225,366.9z M258.9,368.3c-0.9-1.2-1.7-2.3-2.6-3.4
		c-9.8-22.5-18.7-44.1-20.7-67c-0.4-0.7-0.7-1.3-0.9-2c-1.6-24.3,2-50.8-4.7-72.5c-2.2-2.8-8.7-10.1-9.1-12
		c13.9,0,15.7,13.2,17.1,25.8c-0.5,12.8-0.9,25.6-1.3,38.3c0.5,32,8.9,59.4,23.3,89.6c0.1,0.8,0.3,1.6,0.4,2.6
		C259.7,367.9,259.3,368,258.9,368.3z M299.9,387.6c-1.1-2-1.1-2-5.1-5.9c-5.4-11-9-17.7-11-28.8c-0.7-1.2-0.7-1.2-2.6-13.4
		c-0.9-17.5-0.4-45.6-20.6-48.7c0-0.4,0-0.8,0.1-1.1c24.7-19.8,27.8,49.5,29.2,61.2c2.6,13.7,2.6,13.7,4.3,19.4
		c2.4,5.2,5.4,10.6,7.1,17.3C300.8,387.6,300.3,387.6,299.9,387.6z M340.9,397.2c-5.4-0.7-5.4,0.5-52.2,0c-40.6,0-81.2,0-121.8,0
		c-14.1,0.5-14.1,0.3-22.2,0c-1.1-5.5,5.5-16.7,7.4-21.6c0.3-0.1,0.5-0.3,0.9-0.4c3.2-11.8,6.6-23.7,10-35.4
		c5.4-27.4,8.1-55.3,8.1-81.6c2-14.3,2.6-26.9,9.3-38.9c7.1-8.2,7.1-8.2,11-11.6c3.8-1.9,3.8-1.9,8.2-5.6c4.4-1.2,9-2.3,13.6-3.4
		c10.9-17.8,12.6-30.5,35.1-33.8c16.9,5.1,18.4,16.9,23.9,34.4c0.3,7.5,0.3,7.5,0.9,11.2c0.9-0.1,2-0.1,3.1-0.1
		c4-6.7,13-8.2,21.2-7.4c9,3.2,14.3,8.9,17.6,20c3,33.2-0.4,66.8,0.8,101.4c1.5,10.5,3.8,20.3,6.9,31.6c3.4,5.8,4.2,16.3,9.5,22.7
		c1.1,6.9,7.3,11,10.9,18.4C342.4,397.3,341.6,396.9,340.9,397.2z"/>
	<path id="mountain-2.svg" class="st2" d="M532.7,295.9c-1.6-12.9-1.8-25.1-2-37.3c-1.6-7.9-1.9-14.4-9.6-15.4
		c0.1-0.5,0.2-1,0.4-1.6c2.7-0.4,4.5-0.4,8-0.1c4.2,3.4,5.2,12,6.2,18c0,11.7-1,23.4-2.1,35.8C533.2,295.5,532.9,295.7,532.7,295.9
		 M552.5,303.5c-4.9-13.2-4.2-30.5-4.5-43.5c6.7,2.2,5.3,36.8,5.5,43.1C553.1,303.2,552.8,303.3,552.5,303.5z M476.5,325.9
		c0.3-3.6,2.2-6.7,3.6-9.8c3.4-16.8-1-33.2,6-48.2c3.5-4.2,2.9-5,8.3-5.8c0.6,0.5,2.2,1.4,2.9,3.6c-3.9,2.7-6.1,4.3-7.7,9.1
		C489.4,276.9,485.9,323.6,476.5,325.9z M568.2,338.2c-2.7-17.8-1.9-34.6-1.6-51.6c-1.3-10.3-0.2-11.8-8.5-15.4
		c-0.3-0.5-0.5-1-0.7-1.6c16-9,15.7,24.8,12.4,32.6c-0.4,8.4-0.4,8.4-0.2,36C569.1,338.2,568.7,338.2,568.2,338.2z M508.5,371.7
		c-1.5-3.5-1.6-5.5-2-8.1c-7.2-21.9-5-45.7-6.3-67.6c-1.9-7.1-1.9-7.1-2.2-10.5c0.4-0.1,0.8-0.2,1.4-0.3c11.1,7.6,8.1,31.6,7.2,43.9
		c2.3,32.2,2.3,32.2,2.6,42C508.9,371.3,508.7,371.5,508.5,371.7z M534.9,372.8c-0.7-0.9-1.4-1.8-2-2.6
		c-7.7-17.5-14.6-34.4-16.1-52.2c-0.3-0.5-0.5-1-0.7-1.6c-1.3-19,1.6-39.6-3.7-56.5c-1.7-2.2-6.8-7.9-7.1-9.3
		c10.8,0,12.3,10.3,13.3,20.1c-0.4,10-0.7,19.9-1,29.9c0.4,25,6.9,46.3,18.1,69.8c0.1,0.6,0.2,1.3,0.3,2
		C535.5,372.5,535.2,372.6,534.9,372.8z M566.9,387.9c-0.8-1.6-0.8-1.6-4-4.6c-4.2-8.6-7-13.8-8.6-22.4c-0.5-0.9-0.5-0.9-2-10.5
		c-0.7-13.6-0.3-35.5-16-38c0-0.3,0-0.6,0.1-0.8c19.3-15.4,21.7,38.6,22.8,47.7c2,10.7,2,10.7,3.4,15.1c1.9,4.1,4.2,8.3,5.6,13.5
		C567.6,387.9,567.2,387.9,566.9,387.9z M598.9,397.2c-4.2-0.5-4.2,0.4-40.7,0c-31.7,0-63.3,0-95,0c-11,0.4-11,0.2-17.3,0
		c-0.8-4.3,4.3-14.8,5.8-18.7c0.2-0.1,0.4-0.2,0.7-0.3c2.5-9.2,5.1-18.5,7.8-27.6c4.2-21.4,6.3-43.1,6.3-63.6
		c1.6-11.1,2-21,7.2-30.3c5.6-6.4,5.6-6.4,8.6-9c2.9-1.5,2.9-1.5,6.4-4.4c3.5-0.9,7-1.8,10.6-2.6c8.5-13.8,9.9-23.8,27.4-26.3
		c13.2,4,14.4,13.2,18.7,26.8c0.2,5.9,0.2,5.9,0.7,8.7c0.7-0.1,1.6-0.1,2.4-0.1c3.1-5.2,10.2-6.4,16.6-5.8c7,2.5,11.1,6.9,13.7,15.6
		c2.3,25.9-0.3,52.1,0.6,79.1c1.2,8.2,2.9,15.8,5.3,24.6c2.6,4.5,3.2,12.7,7.4,17.7c0.8,5.3,5.7,10.4,8.5,16.2
		C600,397.3,599.4,397,598.9,397.2z"/>
</g>
<g>
</g>
<g>
</g>
<g>
</g>
<g>
</g>
<g>
</g>
<g>
</g>
<g>
</g>
<g>
</g>
<g>
</g>
<g>
</g>
<g>
</g>
<g>
</g>
<g>
</g>
<g>
</g>
<g>
</g>
</svg>
