<?xml version="1.0" encoding="utf-8"?>
<!-- Generator: Adobe Illustrator 17.0.0, SVG Export Plug-In . SVG Version: 6.00 Build 0)  -->
<!DOCTYPE svg PUBLIC "-//W3C//DTD SVG 1.1//EN" "http://www.w3.org/Graphics/SVG/1.1/DTD/svg11.dtd">
<svg version="1.1" id="Layer_1" xmlns="http://www.w3.org/2000/svg" xmlns:xlink="http://www.w3.org/1999/xlink" x="0px" y="0px"
	 width="154.9px" height="183px" viewBox="0 0 154.9 183" style="enable-background:new 0 0 154.9 183;" xml:space="preserve">
<style type="text/css">
	.st0{opacity:0.8;fill-rule:evenodd;clip-rule:evenodd;fill:#D9B670;}
</style>
<path id="mountain-2.svg" class="st0" d="M86.9,81.7c-1.6-12.9-1.8-25.1-2-37.3C83.3,36.5,83,30,75.3,28.9c0.1-0.5,0.2-1,0.4-1.6
	c2.7-0.4,4.5-0.4,8-0.1c4.2,3.4,5.2,12,6.2,18c0,11.7-1,23.4-2.1,35.8C87.4,81.3,87.1,81.5,86.9,81.7 M106.7,89.2
	c-4.9-13.2-4.2-30.5-4.5-43.5c6.7,2.2,5.3,36.8,5.5,43.1C107.4,88.9,107,89,106.7,89.2z M30.7,111.7c0.3-3.6,2.2-6.7,3.6-9.8
	c3.4-16.8-1-33.2,6-48.2c3.5-4.2,2.9-5,8.3-5.8c0.6,0.5,2.2,1.4,2.9,3.6c-3.9,2.7-6.1,4.3-7.7,9.1C43.6,62.6,40.1,109.4,30.7,111.7z
	 M122.5,123.9c-2.7-17.8-1.9-34.6-1.6-51.6c-1.3-10.3-0.2-11.8-8.5-15.4c-0.3-0.5-0.5-1-0.7-1.6c16-9,15.7,24.8,12.4,32.6
	c-0.4,8.4-0.4,8.4-0.2,36C123.3,123.9,122.9,123.9,122.5,123.9z M62.7,157.5c-1.5-3.5-1.6-5.5-2-8.1c-7.2-21.9-5-45.7-6.3-67.6
	c-1.9-7.1-1.9-7.1-2.2-10.5c0.4-0.1,0.8-0.2,1.4-0.3c11.1,7.6,8.1,31.6,7.2,43.9c2.3,32.2,2.3,32.2,2.6,42
	C63.1,157.1,62.9,157.3,62.7,157.5z M89.1,158.5c-0.7-0.9-1.4-1.8-2-2.6c-7.7-17.5-14.6-34.4-16.1-52.2c-0.3-0.5-0.5-1-0.7-1.6
	c-1.3-19,1.6-39.6-3.7-56.5c-1.7-2.2-6.8-7.9-7.1-9.3c10.8,0,12.3,10.3,13.3,20.1c-0.4,10-0.7,19.9-1,29.9
	c0.4,25,6.9,46.3,18.1,69.8c0.1,0.6,0.2,1.3,0.3,2C89.7,158.2,89.4,158.3,89.1,158.5z M121.1,173.6c-0.8-1.6-0.8-1.6-4-4.6
	c-4.2-8.6-7-13.8-8.6-22.4c-0.5-0.9-0.5-0.9-2-10.5c-0.7-13.6-0.3-35.5-16-38c0-0.3,0-0.6,0.1-0.8c19.3-15.4,21.7,38.6,22.8,47.7
	c2,10.7,2,10.7,3.4,15.1c1.9,4.1,4.2,8.3,5.6,13.5C121.8,173.6,121.4,173.6,121.1,173.6z M153.1,183c-4.2-0.5-4.2-0.5-40.7-0.9
	c-31.7,0-63.3,0-95,0c-11,0.4-11,0.4-17.3,0.2c-0.8-4.3,4.3-14.2,5.8-18c0.2-0.1,0.4-0.2,0.7-0.3c2.5-9.2,5.1-18.5,7.8-27.6
	c4.2-21.4,6.3-43.1,6.3-63.6c1.6-11.1,2-21,7.2-30.3c5.6-6.4,5.6-6.4,8.6-9c2.9-1.5,2.9-1.5,6.4-4.4c3.5-0.9,7-1.8,10.6-2.6
	C62,12.5,63.3,2.5,80.8,0C94,4,95.2,13.2,99.5,26.8c0.2,5.9,0.2,5.9,0.7,8.7c0.7-0.1,1.6-0.1,2.4-0.1c3.1-5.2,10.2-6.4,16.6-5.8
	c7,2.5,11.1,6.9,13.7,15.6c2.3,25.9-0.3,52.1,0.6,79.1c1.2,8.2,2.9,15.8,5.3,24.6c2.6,4.5,3.2,12.7,7.4,17.7
	c0.8,5.3,5.7,10.1,8.5,15.8C154.2,182.7,153.6,182.8,153.1,183z"/>
<g>
</g>
<g>
</g>
<g>
</g>
<g>
</g>
<g>
</g>
<g>
</g>
<g>
</g>
<g>
</g>
<g>
</g>
<g>
</g>
<g>
</g>
<g>
</g>
<g>
</g>
<g>
</g>
<g>
</g>
</svg>
