<?xml version="1.0" encoding="utf-8"?>
<!-- Generator: Adobe Illustrator 17.0.0, SVG Export Plug-In . SVG Version: 6.00 Build 0)  -->
<!DOCTYPE svg PUBLIC "-//W3C//DTD SVG 1.1//EN" "http://www.w3.org/Graphics/SVG/1.1/DTD/svg11.dtd">
<svg version="1.1" id="Layer_1" xmlns="http://www.w3.org/2000/svg" xmlns:xlink="http://www.w3.org/1999/xlink" x="0px" y="0px"
	 width="640px" height="171.1px" viewBox="0 0 640 171.1" style="enable-background:new 0 0 640 171.1;" xml:space="preserve">
<style type="text/css">
	.st0{fill:#AA192A;}
	.st1{fill:#3E3A39;}
	.st2{fill:none;}
</style>
<g id="page-3-title.svg">
	<path id="shui" class="st0" d="M372.1,52.4l9.4-0.7l2-2.4l4.8,2.6c0.3,0.4,0.2,0.8-0.2,1.1l-1.3,1.7c-2.2,11.5-9.4,22.7-21.6,33.6
		c-0.3,0.1-0.4,0-0.4-0.4c9.3-10.2,14.9-21.8,16.8-34.9l-9.2,0.4c-0.3,0.1-0.5,0-0.7-0.4C371.6,52.7,371.8,52.4,372.1,52.4
		 M398.2,50.5c0.1,1.5,0.6,3.5,1.3,6.1c0.3,1,0.5,1.7,0.7,2.2c3.6-4.5,6.2-8.1,7.6-10.9l5,4.4c0.4,0.3,0.4,0.7-0.2,1.1
		c-2.2,0.7-6.2,2.8-12,6.3c2.5,7.1,8.4,14.4,17.6,21.8c0.3,0.1,0.4,0.4,0.4,0.7c-0.1,0.1-0.4,0.2-0.7,0.2c-2.5-0.1-4.9,0.7-7.4,2.4
		c-7.4-6.2-11.8-17.7-13.1-34.2H398.2z M389.7,37l7,2.8c0.3,0.1,0.3,0.4,0,0.7l-1.3,2L395,72.7v6.8c-0.1,4.1-2.8,7.3-7.8,9.8
		c-0.4,0.1-0.7,0-0.9-0.4c0.3-2.5-0.3-4-1.7-4.6c-0.4-0.4-0.4-0.7,0.2-0.9c3.3,0.3,4.9-0.7,4.6-2.8l0.7-36.4L389.7,37z"/>
	<path id="mu" class="st0" d="M234.9,45.2c4.6,2.3,6.9,4.4,6.8,6.1c-0.3,1.6-1.4,2.8-3.3,3.5c-1,0.1-1.6-0.2-1.7-1.1
		c-0.3-3.9-1-6.6-2.2-8.1C234.3,45.2,234.4,45.1,234.9,45.2 M234.2,62c5.2,2.8,7.8,4.8,7.6,6.1c0,1.6-1.1,3-3.3,4.1
		c-1.2,0.3-1.8-0.1-2-1.3c-0.3-3-1.2-5.9-2.8-8.5C233.7,62,233.8,61.9,234.2,62z M229,43.3l-1.1,15l19-0.4l0.4-15.3L229,43.3z
		 M227.7,59.6l-1.1,16.6l20.1-0.2l0.2-16.8L227.7,59.6z M220.7,59.8c-2.8,0-5,0.3-6.8,0.9l-2-2l10.9-0.2l0.9-12.6c0-0.4,0-1.6,0-3.5
		c0.1-2,0.2-3.3,0.2-3.9c-0.1-0.3,0.1-0.4,0.7-0.2L229,42l18.1-0.7l2.4-2.8l5.2,3.7c0.3,0,0.2,0.3-0.2,0.9l-1.5,2l-0.2,12.9l4.1-0.2
		l3.1-3.5l4.1,3.9c0.1,0.1,0.2,0.2,0.2,0.2c0,0.1-0.1,0.3-0.4,0.4L252.8,59l-0.4,17l2.4-0.2l3.1-3.3l3.9,3.7
		c0.3,0.1,0.4,0.3,0.2,0.4c0,0.1-0.1,0.2-0.4,0.2l-9.2,0.2v0.2c0,5.7-2.5,9.9-7.6,12.9c-0.4,0.1-0.7-0.1-0.7-0.7
		c-0.1-2.3-0.9-3.8-2.4-4.4c-0.3-0.4-0.2-0.7,0.2-0.7c3.3,0,4.9-1.2,4.6-3.7l0.2-3.5l-20.1,0.2c-1,2-2.4,3.5-4.1,4.4
		c-0.6,0.4-1,0.4-1.3-0.2L222,72l0.9-12.4L220.7,59.8z"/>
	<path id="ai_1_" class="st0" d="M278.9,44.6c2.6,2,4,3.8,4.1,5.4c-0.4,1.5-1.3,2.3-2.6,2.4c-0.9-0.1-1.4-0.7-1.5-1.5
		c0.3-2.8,0.1-4.7-0.4-5.9C278.5,44.6,278.7,44.4,278.9,44.6 M287.9,44.2c3.2,1.9,4.6,3.6,4.4,5.2c-0.4,1.2-1.3,2-2.6,2.4
		c-1,0-1.6-0.4-1.7-1.3c0.4-2.8,0.3-4.8-0.4-6.1C287.4,44.1,287.6,44,287.9,44.2z M298.8,69.4l-12.6,0.4c1.6,2.8,3.7,5.2,6.3,7.2
		C294.5,74.9,296.6,72.3,298.8,69.4z M298.3,36.3l3.1,4.4c0.1,0.4,0,0.7-0.4,0.7c-8,1-16.1,1.8-24.4,2.4c-0.3,0-0.4-0.1-0.4-0.2
		c-0.1-0.1-0.1-0.3,0.2-0.4C285.6,41.3,293,39.1,298.3,36.3z M299.9,42.9l4.8,3.1c0.4,0.3,0.4,0.6-0.2,0.9l-1.1,0.7l-7.4,5.2
		l8.9-0.4l2.6-1.7l5,5c0.3,0.3,0.4,0.6,0.2,0.9c0,0.3-0.3,0.4-0.9,0.4c-3.1-0.1-5.5,0.5-7.4,2c-0.4,0.1-0.7,0-0.7-0.4l1.3-4.8
		l-30.5,0.9c-0.6,3.2-2.3,5.7-5,7.6c-0.6,0.4-0.9,0.4-1.1-0.2c-0.4-1.9-0.4-3.3,0.2-4.1c1.9-1.3,2.8-3.3,2.6-6.1
		c0-0.4,0.1-0.7,0.2-0.7c0.1-0.1,0.4-0.1,0.9,0.2c0.9,0.6,1.5,1.3,2,2.2l20.5-0.7C297.3,48.4,299,45.2,299.9,42.9z M278.3,63.8
		c-2.3,0.1-4.4,0.4-6.1,0.7l-1.7-1.5l11.8-0.2c0.9-2.5,1.5-5.1,2-7.8l5,2.2c0.4,0.1,0.4,0.4,0,0.9l-0.9,1.5
		c-0.3,1.2-0.7,2.2-1.1,3.1l16.3-0.2l3.3-3.5l4.4,3.9c0.3,0.3,0.3,0.4,0,0.4l-24.4,0.4c-0.6,1.9-1.5,3.6-2.6,5.2l14.6-0.4l2.4-2.6
		l4.4,2.8c0.4,0.3,0.4,0.6-0.2,0.9l-1.5,1.3c-2.8,3.1-5.5,5.9-8.3,8.5c4.8,2.5,10.6,4.3,17.4,5.4c0.4,0.3,0.5,0.6,0.2,0.9
		c-2.3,0.1-4.7,1.7-7.2,4.6c-5.4-2.5-9.8-5.4-13.3-8.7c-4.6,2.9-11.9,5.7-21.8,8.3c-0.6,0.3-0.7,0.1-0.4-0.4
		c9.7-3.3,16.4-6.8,20.1-10.2c-1.9-2.6-3.6-5.7-5-9.2l-2,0.2c-3.3,6-9.8,12.1-19.4,18.5c-0.7,0.1-0.9,0-0.4-0.4
		c9.2-6.8,15.2-15,18.1-24.4H278.3z"/>
	<path id="shi" class="st0" d="M342,38.9c4.5,1.9,6.6,3.9,6.3,6.1c-0.1,1.6-1.1,2.7-2.8,3.3c-1,0.4-1.6,0.1-1.7-0.9
		c0,0.1,0,0.1,0-0.2c0-3.2-0.7-5.7-2.2-7.6c-0.1-0.1-0.1-0.4,0-0.7C341.5,38.8,341.7,38.8,342,38.9 M349.2,59.2
		c0.6-0.1,0.7,0,0.4,0.4L341.5,72c-1.5,1.9-4,5.8-7.6,11.8c-0.3,0.4-0.7,0.4-1.1,0c-0.7-1.3-1.3-2.8-1.7-4.4c0-0.1,0.1-0.4,0.2-0.9
		c0-0.3,0-0.4,0-0.4c1.3-1,2.5-2.2,3.7-3.5l-0.4-23.5c0-3.5-0.1-6-0.4-7.6l5.9,2.2c0.3,0.3,0.3,0.6,0,0.9l-0.9,1.3l-0.7,23.3
		c0.1-0.1,0.4-0.5,0.9-1.1c0.6-0.6,1-1,1.3-1.3L349.2,59.2z M314.1,67.7c-0.3,0.1-0.5,0.1-0.7,0c-0.1-0.1-0.1-0.3,0-0.4
		c6.8-8.7,11.8-18.6,15-29.6l4.1,2c0.3,0.1,0.3,0.4,0,0.7l-0.7,0.9c-1.2,2.9-2.5,5.7-4.1,8.3l-0.4,33.1c0,1.7-0.8,3.7-2.4,5.9
		c-0.9,0.7-1.4,0.7-1.5,0l0.4-14.6l0.4-18.7C321.4,59.3,318,63.5,314.1,67.7z M352,40l5.9,2.6c0.6,0.1,0.7,0.4,0.2,0.9l-1.1,1.7
		v16.3c-0.1,6.4-1,11.2-2.6,14.4c5.1,1.6,8.1,3.3,9.1,5.2c0.3,2.6-0.9,4.3-3.5,5c-0.9,0.1-1.6-0.4-2.2-1.7c-0.9-2.9-2.3-5.4-4.1-7.4
		c-2.2,4.2-8.6,8.1-19.4,11.6c-0.3,0.1-0.4,0.1-0.4-0.2c-0.1-0.1-0.1-0.3,0.2-0.4c8.1-3.1,13.1-6.2,14.8-9.4
		c2.2-2.8,3.3-8.6,3.3-17.6V48.5C352.2,44,352.1,41.2,352,40z"/>
	<g id="subtitle_2_">
		<path class="st1" d="M241.9,119.4c0.2,0.7,0.4,1.2,0.5,1.5c0.2,0,0.4-0.1,0.5-0.4c0.3-0.2,0.5-0.3,0.5-0.3c0.4-0.1,0.8-0.1,1.4,0
			c0.4,0,0.7,0,1,0c0.2-0.1,0.4-0.2,0.7-0.4c0.2-0.3,0.4-0.4,0.5-0.4c0.1-0.1,0.3-0.3,0.5-0.7c0.4-0.4,0.5-0.6,0.5-0.7
			c0.4-0.4,0.5-0.7,0.5-1.1c0.1-0.4,0-0.5-0.3-0.5C244.4,116.7,242.2,117.7,241.9,119.4 M241,122.5c-0.5-0.3-0.7-0.5-0.7-0.7
			c0-0.2,0.1-0.4,0.3-0.7c0.1-0.2,0.1-0.4,0.1-0.5c-0.3-2.3-0.7-3.7-1.2-4.2c0,0,0,0-0.1,0c-0.1,0-0.2,0-0.3,0.1
			c-0.2,0.2-0.3,0.3-0.4,0.3c-0.5-0.1-0.8-0.5-1-1.4c-0.1,0-0.8,1-2.1,2.9c-0.2,0.3-0.3,0.5-0.3,0.5c-0.6,0.8-1.4,1.6-2.2,2.3
			c0,0-0.4,0.4-1.2,1.2c-1.7,1.8-2.7,2.8-2.9,3c-0.5,0.4-0.9,0.8-1.2,1.2c-0.1,0-0.2,0-0.3,0c-0.8,0-1.2-0.5-1.1-1.6
			c0-0.3,0-0.6,0.1-1.1c0-0.4,0-0.6,0-0.8c0-0.4,0-0.7,0-1c-0.1-0.2-0.1-0.3,0-0.4l-0.7-5.5c-0.2-0.5-0.3-1.1-0.4-1.6
			c0,0,0-0.1,0-0.3c-0.1-0.2,0.1-0.3,0.5-0.4c0.4,0,0.6,0.2,0.7,0.5c0.5,1.5,0.8,3.8,1,7c0,0.3,0,0.6,0,1l0.1,0.3
			c0,0.2,0,0.5-0.1,0.8c-0.1,0.5-0.1,0.8-0.1,1c0,0.2,0,0.4,0.1,0.5c0.9-0.7,1.6-1.5,2.2-2.2c0-0.4,0-1,0.1-1.8
			c0.2-1.2,0.3-2.1,0.3-2.7c0-0.1,0-0.4,0-0.8c-0.1-0.5-0.1-0.7-0.1-0.8c-0.2-0.3-0.3-0.9-0.3-1.8c0-1.5-0.2-2.4-0.7-2.6
			c0,0-0.1,0-0.4-0.1c-0.5,0-0.7,0-0.7-0.1v-1c0.3,0,0.4-0.1,0.4-0.3c0-0.1,0-0.1,0-0.1l-0.1-0.3c-0.1-0.1-0.3-0.5-0.5-1.4
			c-0.2-0.5-0.3-0.9-0.3-1c0-0.1-0.2-0.6-0.5-1.5c-0.4-0.8-0.6-1.3-0.7-1.4c-0.1-0.3-0.1-0.5-0.1-0.7c0-0.5,0.2-0.8,0.7-0.8
			c0.3,0,0.4,0.3,0.4,0.8l1.2,2.6c0.1,0.8,0.5,1.8,1.1,3c1.6-0.9,2.9-2.4,4-4.4c-0.1-0.3-0.6-0.4-1.6-0.4c-0.4,0-0.9,0-1.6,0
			c-0.8,0.1-1.4,0.1-1.8,0.1c-0.1,0-0.2,0-0.4,0c-0.2-0.2-0.3-0.4-0.3-0.7c0-0.4,0.3-0.5,0.8-0.5h4.4c0.1,0,0.2,0,0.4,0.1
			c0.9,0.1,1.4,0.3,1.4,0.7c0,0.9-0.6,2.1-1.8,3.4c-0.3,0.3-0.5,0.5-0.5,0.7h0.1c1.1-0.3,1.7-0.5,1.9-0.7c0.2,0.1,0.3,0.3,0.4,0.5
			c0,0.4-0.2,0.6-0.7,0.8c0-0.1-0.1-0.1-0.3-0.1c-0.1,0-0.1,0-0.1,0.1l-2.3,1.1c-0.4-0.1-0.5,0.1-0.5,0.5c0,0.4,0,0.7,0.1,1
			c0,1,0,2.2,0.1,3.7c0.1,0.5,0.1,0.8,0.1,1.1c0.4-0.4,0.9-0.8,1.5-1.4c1-0.9,1.7-1.6,2.2-2.2c0.2,0.1,0.4,0,0.5-0.1
			c0.2-0.2,0.3-0.3,0.4-0.3c0.2,0,0.4,0.1,0.7,0.4c-0.2,0.3-0.3,0.5-0.4,0.8c-0.1,0.1-0.3,0.2-0.7,0.4c-0.2,0.1-0.7,0.5-1.5,1.4
			h-0.1c-0.7,0.6-1.2,1.1-1.4,1.4c-0.6,0.9-1,2-1.1,3.3c0,0.2,0,0.3,0,0.4c0.7-0.5,1.7-1.4,2.9-2.7c1.1-1.3,2-2.1,2.6-2.6
			c0.4-0.4,0.6-1.2,0.7-2.6c0.1-0.8,0.2-1.2,0.3-1.2c0.2,0.2,0.3,0.6,0.3,1.4c0.1,1,0.3,1.5,0.7,1.5c0.2-0.4,0.5-0.9,1.1-1.6
			c0.2-0.3,0.3-0.5,0.4-0.7c1-1.6,1.5-2.7,1.6-3.1c0-0.2-0.2-0.3-0.5-0.3c-0.1-0.2-0.3-0.3-0.7-0.4c-0.1-0.1-0.4-0.2-1-0.4
			c-0.6-0.3-1-0.4-1.1-0.4c-0.3,0.1-0.4,0.3-0.4,0.7c0,0.3,0,0.4-0.1,0.4l-0.1-0.1v-1.2c-0.1,0-0.1-0.1-0.1-0.4
			c0-0.5,0.3-0.7,0.8-0.7c0.3,0,0.6,0.2,1.1,0.5c0.3,0.1,0.5,0.2,0.5,0.3c0.5,0.2,1.2,0.5,2.2,1c0.5-0.3,1-1.3,1.5-3.1
			c0-0.4,0-0.5-0.1-0.5c0,0,0,0-0.1,0.1c-0.8,0.5-1.4,0.8-1.8,0.8c-0.8,0-1.2-0.4-1.1-1.1c0-0.2,0-0.4,0-0.5c0.3,0,0.7-0.5,1.2-1.4
			c0.7-1.2,1.3-1.7,1.8-1.5c0.3,0.2,0.4,0.4,0.4,0.5c0,0.3-0.2,0.6-0.5,1c-0.3,0.4-0.4,0.6-0.4,0.8c0.2,0,0.4-0.1,0.7-0.3
			c0.4-0.1,0.6-0.1,0.7-0.1c0.4,0,0.6,0.4,0.7,1.2c0.1,0.2,0.1,0.3,0.1,0.4c-0.4,1.5-0.9,2.9-1.6,4.2c0,0,0,0-0.1,0.1
			c0.3,0.3,1.5,1.1,3.6,2.3c0.1,0,0.2,0.1,0.4,0.3c0.8,0.3,1.3,0.5,1.4,0.7l2.3,1.1l0.3,0.1l1.8,0.4c0.1,0,0.1,0.1,0.1,0.3
			c0,0.5-0.4,0.8-1.1,0.8c-0.4,0-0.7-0.2-1.1-0.5c-0.3-0.3-0.5-0.5-0.7-0.5c-0.9-0.4-2.2-1-3.8-1.9c-0.8-0.5-1.5-0.8-1.9-1
			c-0.2-0.1-0.4-0.2-0.7-0.4c-0.4-0.4-0.7-0.5-1.1-0.5c-0.2,0-0.3,0.1-0.4,0.4c0,0.2,0,0.3-0.1,0.3l-1.9,3.1h-0.1
			c-0.2,0.4-0.3,0.6-0.3,0.8c0,0,0,0.1-0.1,0.3c0,0.5,0.3,1.2,1,2.2c0.1,0,0.1,0,0.1,0c0.1,0,0.2,0,0.4-0.1c2.6-1.3,4.6-1.9,6.2-1.8
			c1.4,0,2,0.2,2,0.7v1.1c0,0,0,0-0.1,0.1c-1.1,2.5-2.3,3.7-3.6,3.7c-0.5,0-0.9-0.1-1-0.4h-1.5c-0.2,0-0.5,0.2-0.8,0.5
			c0.8,0.2,1.6,0.3,2.5,0.3c1.4,0,2.7-0.1,4.1-0.4c0.2,0,0.4-0.1,0.5-0.3c0.3-0.1,0.5-0.1,0.5-0.1c0.4,0,0.5,0.1,0.5,0.4
			c-0.1,0.6-0.5,1.1-1.4,1.2c-0.1,0-0.4,0-1,0.1c-0.5,0.1-0.9,0.1-1,0.1h-5.5c0,0.3,0,0.7,0.1,1.2c0,0.5,0,1,0,1.2
			c0,0.7-0.1,1.3-0.4,1.8c0,0,0,0-0.1,0c-0.5,0-0.7-0.7-0.8-2.1c-0.1-0.3-0.1-0.5-0.1-0.5c0-0.1,0-0.4,0-0.8
			C241.1,122.9,241,122.6,241,122.5z"/>
		<path class="st1" d="M260.2,115.5c0-0.1,0-0.1,0-0.1c0.4-0.4,0.6-0.5,0.7-0.5c1.1-1.5,2-2.9,2.7-4.1l2.2-4.2
			c0.1-0.5,0.2-0.8,0.3-1.1c0-0.1,0-0.1,0-0.1c-0.3,0-0.6,0-1,0c0,0-0.3,0-0.8,0.1c-0.8,0.2-1.3,0.3-1.4,0.3
			c-0.4,0.1-0.9,0.1-1.6,0.1c-2.1,0.1-3.6,0.4-4.5,1c0,0.3-0.1,0.4-0.3,0.4c-0.2,0.1-0.4,0.1-0.5,0.1c-0.8-0.1-1.2-0.3-1.2-0.7
			c0-0.1,0.1-0.3,0.4-0.5c0.7-0.4,1.1-0.6,1.2-0.7h0.1c0.4-0.1,1.4-0.2,3-0.4c4.6-0.5,6.9-1.1,7-1.5c0-0.1,0-0.3,0.1-0.7
			c0.1-1.6,0.4-2.3,0.8-2.3c0.5,0,0.7,0.2,0.7,0.5c0,0.6,0,1-0.1,1h-0.1c0,0.5,0,0.9-0.1,1.1c0,0.2,0,0.3,0,0.3h0.4
			c0.1,0,0.7-0.1,1.9-0.3c1.4-0.2,2.2-0.3,2.6-0.3c0.3,0,0.7-0.1,1.2-0.3c1.6-0.3,2.9-0.4,3.8-0.4c0,0,0.2,0,0.5,0
			c0.5,0.1,0.9,0.1,1,0.1c0.3,0,0.4,0.1,0.4,0.4c-0.3,0.8-0.7,1.3-1.4,1.5c-0.2,0-0.3-0.1-0.4-0.4c-0.2-0.3-0.4-0.4-0.5-0.4
			c-0.3,0-0.5,0-0.8,0c-0.3,0-0.5,0-0.7,0c-1,0.2-2.4,0.4-4.2,0.5c-0.1,0-0.3,0-0.7,0.1c-1.6,0.2-2.6,0.4-3,0.7
			c-0.1,0.1-0.2,0.2-0.4,0.4c-0.1,0.3-0.2,0.5-0.4,0.5c-0.2,1.3-1,3.2-2.6,5.9c-0.1,0-0.1,0-0.1,0.1c-0.1,0.1-0.1,0.1-0.1,0.1
			c-0.1,0.1-0.4,0.5-0.8,1.2c-0.5,0.7-0.7,1.2-0.8,1.4c-0.2,0.1-0.4,0.3-0.5,0.5c-0.5,0.5-0.9,0.8-1.2,0.8
			C260.5,115.8,260.3,115.7,260.2,115.5 M269.1,114.8c0,0.4,0,1,0,1.8c-0.1,0.8-0.1,1.5-0.1,1.9c0,0,0,0,0,0.1l0.5-0.3l4.5-1.5
			c0.3-0.1,0.4-0.4,0.4-1c0-4.3-0.1-7.5-0.4-9.6c-0.1,0-0.2,0-0.3,0c-2.8,0.7-4.4,1.6-4.8,2.7v2.3c0.2,0.2,0.2,0.5,0.1,1.1
			c0,0.2,0,0.3,0,0.3c0.5-0.1,1-0.1,1.6-0.1c0.1,0,0.2,0,0.4,0c1.7-0.1,2.6,0.3,2.6,1.2c0,0.2,0,0.3,0,0.4c0,0,0,0-0.1,0.1
			c-0.1,0-0.3-0.1-0.5-0.3c-0.5-0.3-1-0.4-1.5-0.4c-0.6,0.1-1.2,0.2-1.8,0.4c-0.1,0.1-0.2,0.2-0.3,0.4
			C269.4,114.8,269.3,114.8,269.1,114.8z M265.8,127.7c0-0.4,0-0.6,0-0.8c0.1-0.1,0.1-0.2,0.1-0.3c0.1-0.5,0.2-1.1,0.4-1.5
			c0.2,0,0.3,0.1,0.3,0.4c0,0.4,0,0.8,0,1.2c0.1-0.3,0.2-0.7,0.3-1.2c0.1-0.4,0.1-0.6,0.1-0.7c0-0.3,0.1-1.1,0.3-2.5
			c0.1-1.5,0.1-2.3,0.1-2.5c0.3-0.3,0.4-0.8,0.3-1.5c0-0.3,0-0.5,0-0.5c0-0.1,0-0.5,0.1-1.4c0-0.5,0-0.8,0-0.8c0-0.4,0-0.9,0-1.5
			c0-1.2-0.1-2.2-0.3-3c-0.1,0-0.2,0.1-0.3,0.3c0,0.3-0.1,0.4-0.3,0.4c0,0,0,0,0-0.1c0-0.1,0-0.3-0.1-0.5c0-0.3,0-0.4-0.1-0.4
			c0-0.1,0-0.1,0-0.1c0-0.3,0.1-0.6,0.3-1.1c0.3-0.5,0.4-1.1,0.3-1.6c0.2-0.2,0.5-0.3,1-0.4c0.3,0,0.5,0,0.5-0.1
			c0.3-0.2,0.7-0.4,1.4-0.7c1.6-1,2.8-1.5,3.8-1.5c0.8,0,1.3,0.2,1.4,0.7c-0.1,1.7-0.1,4.3,0,7.7c0.1,2.3,0.1,4,0.1,5.1
			c0.1,0.5,0.1,1,0,1.6c0,0.5,0,0.8,0,1c0,0.7,0,1.9,0.1,3.6c0,1.5,0,2.6,0.1,3.3c0,0.3-0.1,0.5-0.3,0.5c-0.1,0.3-0.3,0.4-0.5,0.3
			c-0.2,0-0.4-0.2-0.7-0.7c-0.2-0.3-0.3-0.5-0.4-0.5c-0.1-0.1-0.2-0.2-0.3-0.4c-1.5-2.3-2.3-4.1-2.3-5.3c0-0.2,0-0.4,0-0.5l0.3,0.3
			l1.1,2.6c0.5,0.4,1,1,1.6,1.8h0.1c0.1-0.4,0.1-0.6,0.1-0.8c0-3.2-0.1-5.6-0.3-7.4l-2.1,1c-0.1,0.1-0.3,0.2-0.7,0.3
			c0,0-0.1,0-0.4,0.1c-1.2,0.6-1.9,1-2,1.1c0,0.2-0.1,0.3-0.4,0.3c-0.1,0.1-0.3,1.6-0.5,4.4c-0.2,1.2-0.3,1.9-0.3,2.1
			c-0.1,0.3-0.3,1-0.5,2.2l-0.7,0.8h-0.1c-0.5,0-0.8-0.6-0.7-1.9C265.8,127.8,265.8,127.7,265.8,127.7z"/>
		<path class="st1" d="M297.9,116.4c1.4,0.8,2.6,1.8,3.8,2.9c0-0.3,0.1-0.4,0.3-0.4c0.4-1.1,0.8-2.1,1.4-3.1l0.1-0.1l1.1-1.9
			l0.1-0.1c0-0.1,0.2-0.5,0.5-1.1c0.1-0.1,0.1-0.2,0.1-0.3c0,0,0,0-0.1,0c-0.4,0-1.3,0.5-2.9,1.4c-0.8,0.5-1.3,0.7-1.5,0.8
			c-0.8,0.5-1.4,0.9-1.8,1c0,0-0.1,0.1-0.3,0.3C298.3,116,298,116.3,297.9,116.4 M294.8,128.7c0.1-0.8,0.2-1.4,0.4-1.8
			c0,0.1,0,0.5,0.1,1.1c0.1,0.5,0.1,0.9,0.1,1c0,0.5,0.1,0.8,0.3,0.8c0.1,0,0.1,0,0.1,0c0.1-0.1,0.1-0.1,0.1-0.1
			c1.4-1.9,2.5-3.9,3.4-6l0.1-0.1l1.6-3c0-0.1-0.6-0.7-1.9-1.8c-0.4-0.4-0.6-0.6-0.7-0.7c-0.5-0.3-1.2-0.4-2-0.4l-0.1-0.1l-1.1,0.5
			c0,0,0,0-0.1,0c-0.3,0-0.4-0.2-0.4-0.7c0-0.1,0-0.2,0-0.3c1.8-1.2,3.5-2.5,5.1-3.8c0.2-0.2,0.5-0.5,1-0.8c0.5-0.6,1-1.1,1.4-1.2
			c0.2-0.1,0.3-0.1,0.3-0.1c0.5-0.4,1.1-1,1.8-1.8c0.5-0.5,0.8-1,1.1-1.2h-0.1c0,0,0,0-0.1,0c-0.1,0-0.2,0-0.4,0.1
			c-2,0.8-3.8,1.1-5.5,0.8c-0.2,0.2-0.5,0.5-0.8,1.1c-0.3,0.5-0.5,0.9-0.8,1.1l-1.9,3.1c0,0-0.1,0-0.3,0.1c-0.2,0.2-0.3,0.3-0.4,0.3
			c-0.3,0-0.4-0.2-0.4-0.5c0-0.6,0.2-1.2,0.7-1.8c0.3-0.4,0.5-0.7,0.5-1c0-0.7,0.1-1.1,0.4-1.1c-0.2,0.3-0.3,0.5-0.3,0.8
			c0,0.1,0,0.2,0,0.4c0.2-0.2,0.3-0.3,0.3-0.3c0.5-0.5,1.1-1.3,1.9-2.5v-0.1c-0.2-0.3-0.5-0.5-1-0.5c0,0,0,0-0.1,0.1l-0.4,0.7
			c0.1-0.4,0-0.8-0.1-1.2c-0.2-0.4-0.3-0.6-0.3-0.8c0.1-0.5,0.3-0.7,0.7-0.8c0,0,0.1,0,0.3,0.1c0.1,0,0.1,0,0.1,0.1
			c0.5,0.9,1,1.4,1.5,1.4c0.1,0,0.1,0,0.1-0.1c0.1-0.1,0.3-0.4,0.7-0.8c0.5-0.5,0.7-0.8,0.7-0.8c0-0.1,0.1-0.3,0.4-0.5
			c1.2-1.5,1.8-2.5,1.8-2.9c-0.3-0.1-0.5-0.1-0.8-0.1c-1.1,0-2.5,0.2-4.2,0.5c-0.8,0.2-1.4,0.3-1.8,0.4c-0.1,0-0.2,0-0.3,0
			c-0.4,0-0.5-0.2-0.5-0.7c0-0.3,0.2-0.5,0.7-0.7c0.4-0.2,0.6-0.4,0.7-0.5c0.7-0.5,1.6-1.1,2.7-1.9c1.7-1.5,3.1-2.2,4-2.2v1.1
			c0,0.1-0.3,0.2-1,0.4c-0.7,0.3-1.1,0.5-1.2,0.5c-0.3,0.2-0.6,0.5-1.1,1c-0.5,0.5-1,0.8-1.2,1c0,0-0.1,0-0.3,0.1
			c-0.4,0.2-0.6,0.3-0.7,0.4c0.2-0.1,0.3-0.1,0.4,0c0,0.1,0,0.1,0.1,0.1c1.2-0.5,2.4-0.7,3.6-0.7c0.2,0,0.6,0,1.2,0.1
			c0.6,0.1,1.1,0.1,1.2,0.1c0.1,0.1,0.1,0.2,0.1,0.4c0,0.5-0.4,1.3-1.1,2.2c-0.1,0.1-0.2,0.2-0.3,0.3c-0.2,0.4-0.8,1.1-1.8,2.2
			c-0.4,0.4-0.5,0.6-0.5,0.8c0,0.1,0,0.1-0.1,0.1c-0.1,0.1-0.1,0.2-0.1,0.3c0,0.1,0,0.2,0.1,0.3c1.9,0,3.3-0.2,4.2-0.5
			c0.7-0.1,1.2-0.2,1.4-0.3c0.4-0.3,0.5-0.5,0.5-0.5c0.1,0,0.1,0,0.1,0c0.5,0,0.7,0.1,0.7,0.4c0,0.5-0.4,1-1.2,1.6
			c-0.2,0.2-0.3,0.3-0.4,0.4c-0.5,0.5-1.6,1.5-3,2.9v0.1l4.2-1.9c0.1,0,0.1,0,0.1,0c0.5,0,0.8,0.2,0.8,0.5v0.1
			c-0.2,0.4-0.5,0.9-1,1.5c-0.5,0.6-0.9,1.1-1.1,1.5c-0.3,0.8-0.8,2-1.6,3.4c-0.5,0.9-1,1.6-1.2,2c0,0.1,0,0.1-0.1,0.1
			c-0.1,0.1-0.1,0.3-0.1,0.5c0,0.1,0,0.1,0,0.1c0.1,0,0.2,0.1,0.4,0.3c0.3,0.2,0.4,0.3,0.4,0.4c0.3,0.3,0.6,0.6,1,1.1
			c0.4,0.5,0.6,0.8,0.8,1c0.1,0.1,0.3,0.3,0.7,0.5c1.4,1.3,2.1,2.1,2.1,2.3h0.3c-0.2,0.5-0.5,0.9-0.8,1c-0.2,0-0.3,0-0.4,0
			c-0.6-1.1-1.8-2.5-3.4-4.1c-0.6-0.6-1.1-1.1-1.4-1.5l-0.3,0.3c-0.2,0.4-0.5,0.9-1,1.6c-1.6,2.8-3.1,5.3-4.2,7.4
			c-0.1,0.1-0.2,0.3-0.4,0.5c-0.3,0.5-0.5,0.7-0.7,0.7c-0.4-0.1-0.6-0.7-0.7-1.9C294.8,129.2,294.8,128.8,294.8,128.7z"/>
		<path class="st1" d="M333.1,109.9c0-0.1,0-0.3,0.1-0.7c0.1-0.2,0.3-0.7,0.7-1.6c0.4-0.9,0.5-1.5,0.5-1.6c0.1-0.1,0.2-0.3,0.3-0.5
			c0.6-1.5,1.3-2.2,1.9-2.2c0.3,0,0.4,0.1,0.4,0.3c0,0,0,0.1,0.1,0.3c0,0.1,0,0.2,0,0.3c0,0.1,0,0.2-0.1,0.4c0,0.1-0.3,0.5-0.8,1.1
			c-0.3,0.4-0.5,0.6-0.5,0.7c-0.1,0.2-0.3,0.5-0.5,1.1c-0.3,0.5-0.5,1-0.7,1.2c0,0,0,0,0,0.1l-0.5,1.8l-0.5,0.4
			c-0.1-0.2-0.2-0.5-0.3-0.8C333.1,110.1,333.1,110,333.1,109.9 M332.1,116.9v0.3c0.2,0.1,0.5,0.4,0.8,0.8c0,0,0,0,0.1,0.1
			c0.4,0.3,0.5,0.5,0.5,0.5c0.5,0.2,0.7,0.4,0.8,0.5c0.2,0.2,0.5,0.4,0.8,0.7c0.5,0.5,1.1,0.9,1.6,1c1.2-2,1.8-3.8,1.8-5.5
			c-0.1,0-0.2,0-0.4,0.1c-0.3,0.1-0.5,0.1-0.7,0l-4.4,1.4H332.1z M329.2,123.5v0.1c0,0.1,0,0.6,0.1,1.6c0.1,1,0.1,1.5,0.1,1.6
			c0.1,1.1,0.3,1.6,0.5,1.6c0.3,0,0.5-0.1,0.8-0.4c0.2-0.3,0.4-0.4,0.5-0.4l3.3-3l1.5-2.5V122c-0.5-0.4-1.1-0.9-1.9-1.6
			c-1.2-0.9-2.1-1.6-2.7-2.1c-0.7-0.4-1.3-0.8-1.6-1.2c0,0,0,0.2,0,0.5c-0.1,0.3-0.1,0.5-0.1,0.5c0,0.1,0,0.2-0.1,0.3
			c0,0.2,0,0.9-0.1,2.2c-0.1,1.2-0.1,1.9-0.1,2.2c0,0.2,0,0.4-0.1,0.5V123.5z M328.1,123.6c0-1.9,0.1-3.8,0.3-5.6
			c0-0.1,0-0.2,0.1-0.3c0.3-1.2,0.4-2.4,0.4-3.7c-0.8,0-2,0.2-3.4,0.5c-1.2,0.4-2.1,0.5-2.7,0.5c-1.2,0.2-1.8,0-1.8-0.7
			c0,0,0,0,0-0.1c-0.1-0.2,0-0.3,0.1-0.4c0.2-0.1,0.4-0.1,0.7-0.1c0.2,0,0.4,0,0.7,0c2.2-0.3,4.4-0.7,6.6-1.4c0,0,0-0.1,0-0.3
			c0.1-0.3,0.1-0.5,0.1-0.5c0.5-2.6,0.5-4.6,0.3-5.9c0,0,0-0.3-0.1-0.8c-0.3-0.8-0.4-1.3-0.4-1.4c0-0.2-0.1-0.5-0.3-1
			c-0.2-0.8-0.3-1.4-0.3-1.8c0-0.2,0-0.3,0-0.4c0.1-0.2,0.2-0.3,0.4-0.3c0.1,0,0.1,0,0.1,0c0.8,0.2,1.3,0.5,1.4,1.1
			c0,0.1,0,0.2,0,0.3c-0.1,0.2-0.1,0.4-0.1,0.5c0,0.4,0.1,0.8,0.3,1.4c0.1,0.4,0.1,0.6,0.1,0.8c0,0.5,0,0.8,0,1.1c0,0,0,0.1,0.1,0.4
			c0,0.2,0,0.3,0,0.4c0.1,2,0,3.7-0.1,5.1c0,0.5,0,0.8,0,1c0.1-0.1,0.4-0.2,0.8-0.3c0.5-0.2,0.7-0.3,0.8-0.3c0,0,0.1,0,0.3,0
			l4.9-1.6c0.7-0.7,1.5-1.1,2.3-1.1c0.5,0,0.7,0.1,0.7,0.4c0,0.4-0.2,0.7-0.5,1.1c-0.4-0.1-1,0.1-1.9,0.5c-0.2,0-0.8,0.2-1.8,0.5
			c-0.2,0.1-0.3,0.1-0.4,0.1c0,0,0,0-0.1,0c-0.3,0.1-0.5,0.2-0.5,0.3l-4.4,1.4c-0.4,0.3-0.6,0.9-0.7,1.9c0,0,0,0.1,0.1,0.4
			c0,0.3,0,0.5,0,0.5c0.1,0,0.2,0,0.4,0c0.2,0.1,0.3,0.1,0.4,0.1c1.5-0.1,2.3-0.3,2.6-0.5l3.7-1.5c0.1,0,0.2,0,0.4,0
			c0.1,0,0.2,0,0.4,0c0.2,0.1,0.4,0.1,0.5,0.1c0.2-0.1,0.4-0.1,0.5-0.1c0.2,0,0.3,0,0.3,0.1v2.2c0,0.1,0,0.2-0.1,0.3
			c0,0,0,0.2-0.1,0.5c-0.1,0.4-0.1,0.6-0.1,0.7c-0.1,0-0.3,0.6-0.7,1.9c-0.1,0.3-0.1,0.5-0.1,0.5c-0.1,0.4-0.2,0.7-0.4,1
			c1.4,0.9,3.1,1.5,5.3,1.6c0.2-0.1,0.3-0.2,0.4-0.3c0,0,0.1,0,0.3,0.1c0.6,0.3,1.1,0.5,1.2,0.7v0.1c-0.2,0.5-0.4,0.9-0.7,1
			c-0.9-0.2-1.4-0.4-1.5-0.5c-1.2-0.2-2.3-0.5-3.4-0.8c-0.1,0-0.4-0.1-1-0.4c-0.5-0.3-0.9-0.4-1.1-0.4c-0.1,0-0.5,0.5-1.2,1.6
			c-0.1,0.3-0.2,0.5-0.3,0.5c-0.5,0.6-1.1,1.4-2,2.2c-0.3,0.2-0.5,0.4-0.7,0.5c-0.1,0-0.1,0.1-0.1,0.3c-1.4,1.4-2.5,2-3.3,2
			c-1.2,0-1.7-2-1.6-5.9C328.1,123.7,328.1,123.6,328.1,123.6z"/>
		<path class="st1" d="M353.7,126.5l-0.1-0.1c0.6-0.4,1-1,1-1.9c0-0.2,0-0.3,0-0.4c-0.2,0.1-0.4,0.1-0.5,0.1
			c-0.8-0.3-1.5-0.9-1.9-1.9c0-0.2,0.1-0.5,0.4-0.8c0.2-0.3,0.3-0.5,0.3-0.5c0.1-0.1,0.3-0.2,0.5-0.3c0.4-0.1,0.5-0.1,0.5-0.1
			c0.4,0,0.8,0.3,1.4,0.8c0.5,0.3,0.7,1,0.7,2.2c0,1.2-0.4,2.3-1.1,3.3c-0.1,0-0.3,0.1-0.5,0.3c-0.5,0.4-0.8,0.5-1,0.5
			c-0.3,0-0.5-0.1-0.5-0.4c0-0.1,0.2-0.2,0.5-0.3C353.6,126.7,353.7,126.6,353.7,126.5"/>
		<path class="st1" d="M395,130c0-0.1,0.1-0.2,0.3-0.4c0.2-0.2,0.3-0.4,0.3-0.5c0.4-1.5,0.5-3.9,0.5-7.4c0-0.8,0-1.7-0.1-2.6
			c0,0,0-0.1-0.1-0.3c0-0.1,0-0.1-0.1-0.1l-3.1,1c-0.1,0-0.2,0-0.3,0.1c-3,1-5.4,1.5-7.2,1.5c-0.4,0-0.8,0-1.2,0
			c-0.2-0.1-0.3-0.3-0.3-0.7c0-0.1,0-0.1,0-0.1c0-0.2,0-0.3,0-0.4c0.8-0.1,1.7-0.1,2.6-0.1c4.2-0.7,7.3-1.5,9.4-2.3
			c0.2-0.1,0.2-0.2,0.1-0.3c0,0,0,0,0-0.1c-0.2-1.4-0.5-2.1-0.8-2.3c-0.1,0-0.1,0-0.1,0c-0.5,0.1-0.9,0.2-1.1,0.3
			c-0.6,0-1.3,0-2.1,0c-0.1,0-0.3,0-0.5,0.1c-1.4,0.3-2.5,0.4-3.4,0.4c-0.2,0-0.4,0-0.7,0c-0.2-0.1-0.3-0.3-0.3-0.5
			c0-0.5,0.8-0.7,2.3-0.8c1-0.1,1.6-0.2,1.9-0.4c-0.3-0.3-0.6-0.7-1-1.4c-0.3-0.5-0.5-0.9-0.7-1.1c-0.2-0.3-0.4-0.5-0.5-0.7
			c-0.3-0.4-0.5-0.8-0.5-1.2h-1.1l-0.1,0.1c-0.1,0-0.4,0.1-1,0.3c-0.5,0.2-0.8,0.3-1,0.3c-0.1,0-0.2,0-0.3,0c-0.5,0.1-0.6,0-0.5-0.4
			c0-0.3,0.1-0.5,0.4-0.8c1-0.3,2.4-0.5,4.2-0.8c1.6-0.3,2.7-0.5,3.4-0.7c0.2-1.3,0.2-2.2,0.1-2.9c0,0,0,0,0-0.1
			c0.1-0.4-0.2-0.5-0.8-0.5c-0.4,0-1,0-1.8,0.1c-0.9,0.1-1.6,0.1-2,0.1c-0.5,0-0.7-0.2-0.7-0.7c0-0.4,1.3-0.6,3.8-0.7
			c0.6-0.1,1.1-0.1,1.2-0.1c0,0,0-0.1,0-0.3c0-0.4-0.2-0.9-0.5-1.5c-0.4-0.6-0.5-1.1-0.5-1.5c0-0.5,0.2-0.8,0.7-0.7c0,0,0,0,0.1,0
			c0.2-0.1,0.3,0,0.3,0.1c0.7,1.4,1.2,2.6,1.4,3.8c0,0,0.1,0,0.3,0c2.2,0,4.1-0.3,5.7-1c0.1-0.1,0.1-0.1,0.1-0.1c0.2,0,0.4,0,0.5,0
			c0.9,0,1.4,0.2,1.4,0.5c0,0.6-1.6,1.1-4.9,1.4c-1.5,0.2-2.5,0.3-2.9,0.4c0,0.4,0,0.9-0.1,1.5c-0.2,0.7-0.3,1.3-0.3,1.6
			c0,0,0,0.1,0,0.3c0.4-0.1,1-0.2,1.8-0.4c2.6-0.5,4.5-0.9,5.9-1.4l0.5,0.1c0.1,0,0.1,0,0.1,0.1c-0.1,0.9-0.7,1.4-1.8,1.5l-3,0.4
			h-0.4l-5.7,1.2c-0.1,0.1-0.3,0.1-0.5,0.1c-0.2,0.1-0.3,0.1-0.4,0.1c0,0,0.1,0.3,0.3,0.8c0.2,0.5,0.3,0.9,0.4,1.1
			c0.4,0.7,0.5,1.1,0.5,1.2c0.2,0,0.3,0,0.3,0.1c0,0,0.1,0.1,0.3,0.4c0.2,0.3,0.3,0.5,0.3,0.5h0.4c0.1,0,0.7-0.3,1.8-0.8
			c0.5-0.3,0.8-0.5,1-0.5c1.6-0.8,2.8-1.9,3.4-3.1c0.1,0,0.1,0,0.1-0.1c0.1,0,0.1,0,0.1,0h0.8v0.7c-0.4,0.6-0.6,1.1-0.8,1.4
			c-0.2,0.3-0.8,0.7-1.8,1.2c-0.7,0.5-1.1,0.7-1.2,0.8l-1.5,0.7v0.1c0,0,0.1,0,0.3,0c2.1-0.5,4-1.1,5.7-1.9c0.1,0,0.2,0,0.4,0
			c0.4,0,0.5,0.1,0.5,0.4c0,0.1-0.1,0.2-0.3,0.4c-0.1,0.2-0.1,0.4-0.1,0.5c-0.8,0.5-1.5,0.9-2,1c0-0.1-0.1-0.1-0.3-0.1
			c-1.2,0.2-1.8,0.4-1.9,0.5c0.3,1.3,0.6,2.1,1,2.5c0.1,0,0.1,0,0.1,0l3.3-1.1c0,0,0.4-0.1,1.1-0.3c1.1-0.3,1.7-0.4,1.8-0.4
			c0.5-0.1,0.6,0,0.5,0.4c-0.2,0.9-0.8,1.5-1.9,1.6c-0.1,0-0.2,0-0.4-0.1c-0.2-0.1-0.4-0.1-0.5-0.1c-0.3,0-0.5,0-0.8,0.1
			c-2,0.5-3.1,0.9-3.1,1.1l-0.1,0.5c0,1.5,0,3,0,4.5c0,0,0,0.2,0,0.7c-0.1,0.5-0.1,0.7-0.1,0.8c0,0.5,0,1.1,0,1.8c0,0,0,0.2-0.1,0.5
			c-0.1,0.6-0.1,1-0.1,1.1c0,0.1,0,0.3-0.1,0.5c0,1.5-0.3,2.2-1,2.2C395.5,130.8,395.2,130.5,395,130"/>
		<path class="st1" d="M414.8,102.5v0.1V102.5z M430.6,103.1c-0.5,0-1.1,0-1.6,0c-0.1,0-0.2,0-0.4,0c-1.5-0.1-2.5,0.1-3,0.5
			c0-0.1-0.1-0.2-0.3-0.4c-0.1-0.1-0.1-0.2-0.1-0.4c0-0.5,0.4-0.8,1.2-1c0.3,0,0.5,0,0.5-0.1c0.3,0,0.6,0,1,0
			c2.1,0.1,3.7,0.3,4.9,0.7c0.2-0.1,0.3,0,0.3,0.3c0,0.7-0.4,1.1-1.1,1.1c-0.3,0-0.6-0.1-1-0.4C430.8,103.3,430.7,103.2,430.6,103.1
			z M414.6,102.8c0-0.5,0.3-0.7,0.8-0.7c0.1,0,0.1,0,0.1,0c0.1,0.1,0.4,0.4,1,0.8c0.2,0.2,0.3,0.3,0.3,0.3c0.2,0.1,0.5,0.3,0.8,0.5
			c0.6,0.4,1.1,0.6,1.2,0.8c0.3,0,0.4,0.1,0.3,0.3c0,0.3-0.1,0.4-0.3,0.4c-0.9-0.3-2.2-0.9-4-1.9C414.6,103.2,414.6,103,414.6,102.8
			z M428.1,108.7c0,0.1,0,0.2,0,0.3c0,0.3,0.1,0.7,0.3,1.2h0.1l2.1-2.1c0-0.2,0-0.3,0-0.3c0-0.1,0-0.1,0-0.1h-1.6c0,0,0,0,0,0.1
			C428.7,108.4,428.5,108.7,428.1,108.7z M425.9,112.4c0-0.3,0.2-0.5,0.7-0.8c0.4-0.2,0.5-0.4,0.5-0.5c0-0.1,0-0.2,0-0.3
			c0.1-0.6,0-1-0.3-1.2l-0.7-3.4c0,0,0-0.1,0-0.3c0-0.5,0.2-0.8,0.7-0.8c0.4,0,0.6,0.4,0.7,1.1c0.1,0.4,0.2,0.6,0.3,0.8
			c0,0,0,0,0.1,0c0.1,0,0.3-0.1,0.5-0.3c0.3-0.1,0.4-0.1,0.4-0.1s0.2,0,0.5,0c0.5-0.1,0.7-0.1,0.8-0.1c0,0.1,0.2,0.1,0.5,0.1
			c0.9,0,1.4,0.2,1.4,0.7c0,0.1,0,0.1,0,0.1c-0.5,1.1-1.1,2-1.6,2.6c0.3,0.1,0.5,0.2,0.8,0.4c0,0.1,0,0.2,0,0.4
			c0,0.5-0.1,0.8-0.3,0.8h-1c-0.1,0-0.1,0-0.1,0.1c-0.5,0.4-1.1,0.8-1.8,1.2c0,0,0,0-0.1,0c-0.4-0.1-0.6-0.1-0.7,0
			c-0.3,0.1-0.5,0.1-0.5,0.1c0,0,0,0-0.1,0.1C426.2,113.2,425.9,112.9,425.9,112.4z M425.8,118.5c0,0,0,0,0,0.1
			c-0.1,0.8,0.1,1.2,0.5,1.2c0.3,0,0.5-0.1,0.8-0.3l3.3-0.7l0.1-0.1c0.1-0.1,0.1-0.2,0.1-0.3c-0.2-1.5-0.5-2.4-1-2.5
			c-1.7,0.3-3.1,0.8-4,1.6C425.8,118,425.8,118.3,425.8,118.5z M426.9,121.4c0.1,0.5,0.3,1,0.5,1.5h0.1c0.4,0,1.1-0.1,2.1-0.3
			c0.5-0.2,1-0.3,1.2-0.3c0.2-0.2,0.3-0.4,0.3-0.7c0-0.1,0-0.1,0-0.1c0-0.1,0-0.3-0.1-0.7c0-0.5,0-0.7-0.1-0.7h-0.3l-2.3,0.5
			C427.4,120.8,427,121,426.9,121.4z M434.4,123.2c0,0.5,0.3,1,1,1.6h0.1c0.4,0,0.9-1.1,1.6-3.3c0.1-0.2,0.3-0.7,0.5-1.5
			c0.3-0.9,0.4-1.4,0.4-1.5c-0.1-0.3,0-0.7,0.1-1.4c0.1-0.5,0.1-0.8,0.1-1.1c-0.1-1.1-0.6-1.7-1.5-1.8c-0.2,0-0.5,0-0.8,0.1
			c-0.5,0.2-1,0.2-1.2,0.1l-3.3,1c0,0,0,0,0,0.1c0.2,1.5,0.4,2.4,0.5,2.9c0.5-0.1,1.1-0.2,1.8-0.4c0.3-0.3,0.4-0.5,0.4-0.5
			c0.2,0,0.3,0,0.3,0c0.4,0,0.5,0.2,0.5,0.5c0,0.7-0.8,1.2-2.5,1.5c-0.3,0.1-0.4,0.1-0.4,0.1v2.2h0.8v-0.4c0.2-0.1,0.3-0.1,0.4-0.1
			c0.1,0.1,0.2,0.2,0.3,0.4h1.6c0.3,0,0.4,0.1,0.3,0.3c0,0.3,0,0.4-0.1,0.4l-1,0.5C434.5,123.1,434.5,123.1,434.4,123.2z
			 M417.3,118.7c-0.3,0.2-0.5,0.5-0.8,1c-0.3,0.5-0.5,0.8-0.7,1c-0.1,0.1-0.4,0.4-0.8,0.8c-0.1,0.1-0.1,0.1-0.1,0.1
			c-0.2,0-0.3,0-0.3,0c-0.3,0.1-0.5,0-0.5-0.4c0-0.1,0-0.3,0-0.5c0-1,0.6-2.3,1.8-4c0.1-0.2,0.3-0.4,0.5-0.7c0.5-0.7,0.9-1.3,1-1.8
			c0-0.6,0.1-1.5,0.3-2.6c0.1-1.2,0.1-2.1,0.1-2.6c-0.5,0-1.1,0.1-1.9,0.3c-0.9,0.2-1.6,0.3-2,0.3c-0.8,0-1.5-0.1-2.1-0.4
			c-0.2-0.2-0.3-0.4-0.3-0.7c0.2,0,0.4,0,0.5-0.1c0.2-0.1,0.3-0.1,0.4-0.1c0.2,0,0.5,0,0.8,0.1c0.3,0.1,0.5,0.1,0.7,0.1
			c1.3-0.1,2.5-0.3,3.7-0.5c0.2,0,0.4-0.1,0.7-0.3c0.4-0.2,0.6-0.3,0.8-0.3c0.5,0,0.7,0.2,0.7,0.7c0,0.2-0.1,0.5-0.4,1.1
			c-0.4,0.8-0.5,1.4-0.5,1.8c0,0.2,0,0.3,0,0.4c0.3-0.1,0.5-0.4,0.5-1c0.1-0.6,0.4-1,0.8-1c0.4,0,0.5,0.3,0.5,0.8
			c0,0.4-0.2,1-0.7,1.8c-0.2,0.3-0.3,0.5-0.4,0.7c-0.2,0.3-0.5,0.9-1,1.8v0.7c0.3-0.3,0.7-0.8,1.2-1.5c0.7-1,1.3-1.7,1.8-2.1
			c0,0.3-0.2,0.7-0.5,1.4c-0.3,0.5-0.4,0.8-0.4,1l-1.6,2.3c0,0.2-0.1,0.4-0.3,0.7c-0.1,0.2-0.1,0.3-0.1,0.3v4.7h0.1l0.1-2.7
			c0.1-0.1,0.1-0.2,0.1-0.3c0.1-0.2,0.1-0.3,0.1-0.3c0.4,0.3,0.5,1.1,0.5,2.5c0,0.1,0,0.2,0,0.3c0,0.5,0,0.8,0,1.1
			c0,0,0,0.2-0.1,0.7c-0.1,0.4-0.1,0.6-0.1,0.7c0,0.3,0,0.6,0,1c0,0,0,0.2,0,0.5c-0.1,0.3-0.1,0.5-0.1,0.5c0.1-0.3,0-0.3-0.3-0.1
			c0,0,0,0,0,0.1c0.1,0.6-0.1,1-0.5,1c-0.6-0.1-1-2.1-1.1-6.2c0-0.1,0-0.4,0-1C417.3,119.1,417.3,118.8,417.3,118.7z M433.6,123.2
			c-0.4,0-0.9,0.1-1.5,0.3c-0.8,0.3-1.4,0.4-1.8,0.3c-0.2,0-0.7,0.1-1.6,0.4c-1,0.3-1.6,0.5-1.8,0.5c0,0.1-0.1,0.1-0.3,0.1
			c-0.3,0-0.4,0-0.4-0.1c-0.1-0.1-0.1-0.3-0.1-0.7c-0.1-0.7-0.5-1.9-1.2-3.4c-0.4-0.7-0.6-1.3-0.7-1.6c0-0.1,0-0.3,0-0.5
			c-0.1-0.4-0.1-0.5-0.1-0.5c0-0.4-0.1-0.8-0.4-1.4c-0.4-0.7-0.5-1.3-0.5-1.6c0-0.3,0-0.5,0.1-0.7c0.2,0,0.3,0,0.4,0
			c0.5,0,0.8,0.5,1,1.4c0.2,0.6,0.4,1,0.5,1l0.1-0.1l1.2-0.5l5.6-1.8h0.1c0.3-0.1,0.7-0.2,1.4-0.3c1.3-0.4,2.2-0.5,2.9-0.5
			c1.6-0.2,2.6,0.3,2.9,1.5c0,0,0,0.1,0.1,0.4c0.2,0.5,0.3,0.7,0.3,0.8v0.1c0,0.5-0.2,1.7-0.7,3.6c0,0,0,0.2-0.1,0.5
			c-0.1,0.4-0.1,0.6-0.1,0.7c-0.3,0.1-0.4,0.5-0.4,1.1c-0.1,0.2-0.1,0.3-0.1,0.4c-0.4,0.6-0.6,1.2-0.7,1.8c0,0.1-0.2,0.5-0.5,1.1
			c-0.4,0.6-0.6,1-0.7,1.1c-0.2,0.4-0.4,0.5-0.7,0.5C434.9,126.6,434.2,125.4,433.6,123.2z"/>
		<path class="st1" d="M448.7,102.5c0-0.1,0-0.2,0-0.3c-0.1-0.2-0.1-0.3-0.1-0.3c0.1-0.1,0.1-0.2,0.1-0.3c0-0.2,0-0.3,0-0.4
			c1.5,0.5,3,1.6,4.4,3c0,0.3-0.1,0.4-0.3,0.4s-0.8-0.4-1.9-1.1c-0.5-0.4-0.9-0.5-1-0.5C449.2,102.7,448.8,102.5,448.7,102.5
			 M444,105.7c-0.1-0.2-0.1-0.3-0.1-0.4c0.1-0.4,0.3-0.5,0.5-0.5c0.4,0,0.8,0.1,1.4,0.4c0.5,0.3,1,0.4,1.2,0.4
			c0.9,0.1,2,0.1,3.3,0.1c0.5,0,1.3,0,2.2,0.1c0.9,0,1.6,0,2.1,0c0.3,0,0.7-0.1,1.2-0.3c0.5-0.1,1-0.1,1.2-0.1
			c0.3,0.1,0.5,0.3,0.5,0.7c0.1,0.5-0.1,0.7-0.5,0.7h-9.3C446.5,106.6,445.2,106.2,444,105.7z M467.2,106.4c0.1-0.3,0.2-0.5,0.4-0.8
			c0.1,0,0.2,0,0.3,0c0.3,0,0.7,0.2,1.4,0.7c0.2,0.1,0.3,0.1,0.3,0.1c0.1,0,0.4,0.2,1,0.5c0.5,0.3,0.9,0.5,1,0.5
			c0.4-0.1,0.6,0,0.7,0.4c0,0.4-0.2,0.5-0.5,0.5c-0.1,0-0.2,0-0.3,0l-3.7-1.4C467.3,106.8,467.2,106.6,467.2,106.4z M448.7,117.4
			c0,0.3,0.1,0.5,0.3,0.5c0.3,0,0.4-0.2,0.4-0.5c0-0.3-0.1-0.4-0.4-0.3C448.8,117.1,448.7,117.2,448.7,117.4z M452.2,118.8
			c0-0.3,0.1-0.5,0.4-0.5c0.2-0.1,0.4-0.1,0.5-0.1c0.5,0,1.2,0.5,1.9,1.5c0.4,0.5,0.6,0.8,0.8,0.8c0.2-0.1,0.3-0.1,0.3-0.1
			c0.2,0,0.3,0,0.3,0.1c0.2,0,0.3,0,0.4,0c-0.1,0.6-0.4,1-0.8,1.1c-0.7,0-1.4-0.5-2.1-1.4c-0.3-0.3-0.5-0.5-0.5-0.7
			c-0.1-0.2-0.3-0.3-0.7-0.4C452.4,119,452.3,118.9,452.2,118.8z M463.2,121.7c0-0.1,0-0.4-0.1-0.8c0-0.3,0-0.4,0-0.4
			c0-1.2,0-2.3,0-3.3c0,0-0.1,0.1-0.3,0.3c-0.1,0.2-0.2,0.3-0.3,0.3c-0.1,0.3-0.3,0.6-0.5,1.1c-1.1,1.9-2.1,3.3-3,4.2
			c-0.1,0-0.2,0-0.3,0c-0.3,0-0.4-0.2-0.4-0.7c0-0.8,0.2-1.4,0.7-1.6c0.1-0.1,0.1-0.1,0.1-0.1v0.7c0.2-0.1,0.3-0.3,0.4-0.5
			c0.1-0.1,0.1-0.2,0.1-0.3c0.5-0.5,0.7-0.9,0.8-1.2c0.2-0.3,0.8-1.4,1.8-3.4c0-0.2,0-0.4,0.1-0.5c0.2-0.4,0.3-0.6,0.3-0.8
			c0.1-0.2,0-0.3-0.3-0.3c-1.8,0.7-3.5,1.1-4.9,1.1c-0.3-0.1-0.4-0.3-0.4-0.5c0-0.2,0.1-0.4,0.4-0.7c0.2-0.1,0.4-0.1,0.5-0.1
			c0.2,0,0.4,0,0.5,0c1.6-0.2,3.1-0.6,4.4-1.2c0.2-0.1,0.3-0.4,0.3-1c0.1-0.8,0.4-1.2,0.8-1.2c0.3,0,0.5,0.1,0.8,0.4
			c0.4,0.3,0.6,0.4,0.8,0.4c0.2,0,0.4,0,0.7-0.1c0.3,0,0.5,0,0.5,0c0.4,0,0.5,0.1,0.5,0.4c-0.1,0.5-0.3,0.8-0.5,1l-2.2,1
			c-0.2,0.2-0.4,0.6-0.5,1.4c-0.1,0.8,0,2,0.1,3.4c0.1,1.3,0.1,2.2,0.1,2.9c0.1,1.3,1.1,2,3.1,2.2c1.8-0.1,2.9-0.5,3.1-1.1
			c0-0.4,0-0.7,0-1c0-0.4,0-0.9,0-1.6c-0.1-0.7-0.1-1.3-0.1-1.6c0-0.7,0.1-1.1,0.3-1.2c0.3,0.3,0.4,0.7,0.4,1.2
			c0.1,0.3,0.1,0.5,0.1,0.5c0,0.1,0,0.3,0.1,0.5c0.5,1.4,0.7,2.5,0.7,3.4c0.1,0.5-0.1,0.9-0.7,1.1l-2.7,0.8c-0.1,0-0.1,0-0.1,0
			s-0.2,0-0.5,0c-0.4,0.1-0.6,0.1-0.7,0.1c-2-0.1-3.3-0.8-3.8-2.1c-0.1-0.3-0.2-0.5-0.3-0.7C463.4,121.7,463.3,121.7,463.2,121.7z
			 M447.2,120.7c-0.2,0.8-0.3,1.7-0.3,2.7c0,0,0,0-0.1,0.1c0,0,0,0.1,0.1,0.4c0,0.2,0,0.3,0,0.4c0.2-0.1,0.3-0.1,0.3-0.1
			c0.1,0.2,0.1,0.4,0.1,0.5c-0.1,0.9-0.6,1.4-1.5,1.5c-0.3,0-0.4-0.3-0.4-0.8c0-0.1,0-0.1,0-0.1c0.1-1.3,0.2-2.1,0.4-2.6
			c0-1.3,0-2.5,0-3.7c0.1-0.3,0.2-0.5,0.3-0.5c0.1,0,0.1,0,0.1,0c0.2,0,0.4,0,0.5,0.1c0,0.1,0,0.1,0.1,0.1c0.7,1.4,1.5,2.6,2.3,3.7
			c0.1,0.2,0.2,0.4,0.4,0.5h0.1v-2.5c-0.1,0-0.1-0.1-0.1-0.3c0-0.5,0-0.9,0-1.2c-0.1,0-0.2,0-0.4,0c-0.2,0.1-0.4,0.1-0.5,0.1
			c-0.4,0-0.7-0.3-1.1-1c-0.1-0.3-0.2-0.5-0.3-0.5c-0.1-0.1-0.2-0.2-0.4-0.3c-0.2-0.1-0.3-0.3-0.3-0.5c0-0.2,0.1-0.4,0.4-0.7
			c0-0.4,0-0.7,0-1c0-0.6-0.1-1.6-0.4-2.7c-0.3-1.2-0.4-2.1-0.4-2.7c0-0.2,0-0.4,0.1-0.7c0-0.3,0-0.5,0-0.7c0.1-0.2,0.3-0.3,0.7-0.3
			c0.5,0.1,0.9,0.3,1,0.5c0,0.1-0.1,0.2-0.3,0.4c-0.2,0.2-0.3,0.4-0.3,0.5c0,0.6,0.1,1.5,0.4,2.7c0.4,1.5,0.5,2.5,0.4,3.1
			c0.2-0.1,1.2-0.5,3-1.2c1.3-1.1,2.1-2.1,2.5-2.9h0.1l0.7-1c0-0.1,0-0.1,0-0.1c0-0.2-0.3-0.3-1-0.3c-1.1,0-2.2,0.2-3.3,0.7
			c-0.1,0-0.2,0.1-0.4,0.3c-0.1,0.1-0.2,0.1-0.4,0.1c-0.5,0-0.8-0.1-0.8-0.4c0-0.3,0-0.5,0.1-0.7c1.7-0.7,3.5-1.1,5.3-1.1
			c1.2,0.1,1.8,0.4,1.8,0.8c0,0.5-0.4,1.2-1.2,2.1c-0.5,0.6-0.9,1.1-1,1.4c0,0,0,0,0.1,0.1c0.4,0.1,0.6,0.2,0.7,0.4
			c-0.2,0.1-0.3,0.3-0.4,0.7c-0.1,0.2-0.2,0.3-0.3,0.4c-0.2,0.1-0.6,0.2-1.2,0.4c-1.4,0.3-2,0.7-2,1.4c0,0.1,0,0.4,0.1,1
			c0.1,0.5,0.1,0.8,0.1,1c0,0.6,0,1.6,0,2.7c0.1,2.1,0.1,3.7,0,4.8c0,0.5-0.3,0.8-0.8,0.7c-0.2,0-0.5-0.8-1.1-2.3
			C448.3,122.2,447.7,121,447.2,120.7z"/>
		<path class="st1" d="M479.4,115.5c0-0.1,0-0.1,0-0.1c0.4-0.4,0.6-0.5,0.7-0.5c1.1-1.5,2-2.9,2.7-4.1l2.2-4.2
			c0.1-0.5,0.2-0.8,0.3-1.1c0-0.1,0-0.1,0-0.1c-0.3,0-0.6,0-1,0c0,0-0.3,0-0.8,0.1c-0.8,0.2-1.3,0.3-1.4,0.3
			c-0.4,0.1-0.9,0.1-1.6,0.1c-2.1,0.1-3.6,0.4-4.5,1c0,0.3-0.1,0.4-0.3,0.4c-0.2,0.1-0.4,0.1-0.5,0.1c-0.8-0.1-1.2-0.3-1.2-0.7
			c0-0.1,0.1-0.3,0.4-0.5c0.7-0.4,1.1-0.6,1.2-0.7h0.1c0.4-0.1,1.4-0.2,3-0.4c4.6-0.5,6.9-1.1,7-1.5c0-0.1,0-0.3,0.1-0.7
			c0.1-1.6,0.4-2.3,0.8-2.3c0.5,0,0.7,0.2,0.7,0.5c0,0.6,0,1-0.1,1H487c0,0.5,0,0.9-0.1,1.1c0,0.2,0,0.3,0,0.3h0.4
			c0.1,0,0.7-0.1,1.9-0.3c1.4-0.2,2.2-0.3,2.6-0.3c0.3,0,0.7-0.1,1.2-0.3c1.6-0.3,2.9-0.4,3.8-0.4c0,0,0.2,0,0.5,0
			c0.5,0.1,0.9,0.1,1,0.1c0.3,0,0.4,0.1,0.4,0.4c-0.3,0.8-0.7,1.3-1.4,1.5c-0.2,0-0.3-0.1-0.4-0.4c-0.2-0.3-0.4-0.4-0.5-0.4
			c-0.3,0-0.5,0-0.8,0c-0.3,0-0.5,0-0.7,0c-1,0.2-2.4,0.4-4.2,0.5c-0.1,0-0.3,0-0.7,0.1c-1.6,0.2-2.6,0.4-3,0.7
			c-0.1,0.1-0.2,0.2-0.4,0.4c-0.1,0.3-0.2,0.5-0.4,0.5c-0.2,1.3-1,3.2-2.6,5.9c-0.1,0-0.1,0-0.1,0.1c-0.1,0.1-0.1,0.1-0.1,0.1
			c-0.1,0.1-0.4,0.5-0.8,1.2c-0.5,0.7-0.7,1.2-0.8,1.4c-0.2,0.1-0.4,0.3-0.5,0.5c-0.5,0.5-0.9,0.8-1.2,0.8
			C479.6,115.8,479.5,115.7,479.4,115.5 M488.3,114.8c0,0.4,0,1,0,1.8c-0.1,0.8-0.1,1.5-0.1,1.9c0,0,0,0,0,0.1l0.5-0.3l4.5-1.5
			c0.3-0.1,0.4-0.4,0.4-1c0-4.3-0.1-7.5-0.4-9.6c-0.1,0-0.2,0-0.3,0c-2.8,0.7-4.4,1.6-4.8,2.7v2.3c0.2,0.2,0.2,0.5,0.1,1.1
			c0,0.2,0,0.3,0,0.3c0.5-0.1,1-0.1,1.6-0.1c0.1,0,0.2,0,0.4,0c1.7-0.1,2.6,0.3,2.6,1.2c0,0.2,0,0.3,0,0.4c0,0,0,0-0.1,0.1
			c-0.1,0-0.3-0.1-0.5-0.3c-0.5-0.3-1-0.4-1.5-0.4c-0.6,0.1-1.2,0.2-1.8,0.4c-0.1,0.1-0.2,0.2-0.3,0.4
			C488.6,114.8,488.4,114.8,488.3,114.8z M485,127.7c0-0.4,0-0.6,0-0.8c0.1-0.1,0.1-0.2,0.1-0.3c0.1-0.5,0.2-1.1,0.4-1.5
			c0.2,0,0.3,0.1,0.3,0.4c0,0.4,0,0.8,0,1.2c0.1-0.3,0.2-0.7,0.3-1.2c0.1-0.4,0.1-0.6,0.1-0.7c0-0.3,0.1-1.1,0.3-2.5
			c0.1-1.5,0.1-2.3,0.1-2.5c0.3-0.3,0.4-0.8,0.3-1.5c0-0.3,0-0.5,0-0.5c0-0.1,0-0.5,0.1-1.4c0-0.5,0-0.8,0-0.8c0-0.4,0-0.9,0-1.5
			c0-1.2-0.1-2.2-0.3-3c-0.1,0-0.2,0.1-0.3,0.3c0,0.3-0.1,0.4-0.3,0.4c0,0,0,0,0-0.1c0-0.1,0-0.3-0.1-0.5c0-0.3,0-0.4-0.1-0.4
			c0-0.1,0-0.1,0-0.1c0-0.3,0.1-0.6,0.3-1.1c0.3-0.5,0.4-1.1,0.3-1.6c0.2-0.2,0.5-0.3,1-0.4c0.3,0,0.5,0,0.5-0.1
			c0.3-0.2,0.7-0.4,1.4-0.7c1.6-1,2.8-1.5,3.8-1.5c0.8,0,1.3,0.2,1.4,0.7c-0.1,1.7-0.1,4.3,0,7.7c0.1,2.3,0.1,4,0.1,5.1
			c0.1,0.5,0.1,1,0,1.6c0,0.5,0,0.8,0,1c0,0.7,0,1.9,0.1,3.6c0,1.5,0,2.6,0.1,3.3c0,0.3-0.1,0.5-0.3,0.5c-0.1,0.3-0.3,0.4-0.5,0.3
			c-0.2,0-0.4-0.2-0.7-0.7c-0.2-0.3-0.3-0.5-0.4-0.5c-0.1-0.1-0.2-0.2-0.3-0.4c-1.5-2.3-2.3-4.1-2.3-5.3c0-0.2,0-0.4,0-0.5l0.3,0.3
			l1.1,2.6c0.5,0.4,1,1,1.6,1.8h0.1c0.1-0.4,0.1-0.6,0.1-0.8c0-3.2-0.1-5.6-0.3-7.4l-2.1,1c-0.1,0.1-0.3,0.2-0.7,0.3
			c0,0-0.1,0-0.4,0.1c-1.2,0.6-1.9,1-2,1.1c0,0.2-0.1,0.3-0.4,0.3c-0.1,0.1-0.3,1.6-0.5,4.4c-0.2,1.2-0.3,1.9-0.3,2.1
			c-0.1,0.3-0.3,1-0.5,2.2l-0.7,0.8h-0.1c-0.5,0-0.8-0.6-0.7-1.9C485,127.8,485,127.7,485,127.7z"/>
		<path class="st1" d="M517.1,116.4c1.4,0.8,2.6,1.8,3.8,2.9c0-0.3,0.1-0.4,0.3-0.4c0.4-1.1,0.8-2.1,1.4-3.1l0.1-0.1l1.1-1.9
			l0.1-0.1c0-0.1,0.2-0.5,0.5-1.1c0.1-0.1,0.1-0.2,0.1-0.3c0,0,0,0-0.1,0c-0.4,0-1.3,0.5-2.9,1.4c-0.8,0.5-1.3,0.7-1.5,0.8
			c-0.8,0.5-1.4,0.9-1.8,1c0,0-0.1,0.1-0.3,0.3C517.5,116,517.2,116.3,517.1,116.4 M514,128.7c0.1-0.8,0.2-1.4,0.4-1.8
			c0,0.1,0,0.5,0.1,1.1c0.1,0.5,0.1,0.9,0.1,1c0,0.5,0.1,0.8,0.3,0.8c0.1,0,0.1,0,0.1,0c0.1-0.1,0.1-0.1,0.1-0.1
			c1.4-1.9,2.5-3.9,3.4-6l0.1-0.1l1.6-3c0-0.1-0.6-0.7-1.9-1.8c-0.4-0.4-0.6-0.6-0.7-0.7c-0.5-0.3-1.2-0.4-2-0.4l-0.1-0.1l-1.1,0.5
			c0,0,0,0-0.1,0c-0.3,0-0.4-0.2-0.4-0.7c0-0.1,0-0.2,0-0.3c1.8-1.2,3.5-2.5,5.1-3.8c0.2-0.2,0.5-0.5,1-0.8c0.5-0.6,1-1.1,1.4-1.2
			c0.2-0.1,0.3-0.1,0.3-0.1c0.5-0.4,1.1-1,1.8-1.8c0.5-0.5,0.8-1,1.1-1.2h-0.1c0,0,0,0-0.1,0c-0.1,0-0.2,0-0.4,0.1
			c-2,0.8-3.8,1.1-5.5,0.8c-0.2,0.2-0.5,0.5-0.8,1.1c-0.3,0.5-0.5,0.9-0.8,1.1l-1.9,3.1c0,0-0.1,0-0.3,0.1c-0.2,0.2-0.3,0.3-0.4,0.3
			c-0.3,0-0.4-0.2-0.4-0.5c0-0.6,0.2-1.2,0.7-1.8c0.3-0.4,0.5-0.7,0.5-1c0-0.7,0.1-1.1,0.4-1.1c-0.2,0.3-0.3,0.5-0.3,0.8
			c0,0.1,0,0.2,0,0.4c0.2-0.2,0.3-0.3,0.3-0.3c0.5-0.5,1.1-1.3,1.9-2.5v-0.1c-0.2-0.3-0.5-0.5-1-0.5c0,0,0,0-0.1,0.1l-0.4,0.7
			c0.1-0.4,0-0.8-0.1-1.2c-0.2-0.4-0.3-0.6-0.3-0.8c0.1-0.5,0.3-0.7,0.7-0.8c0,0,0.1,0,0.3,0.1c0.1,0,0.1,0,0.1,0.1
			c0.5,0.9,1,1.4,1.5,1.4c0.1,0,0.1,0,0.1-0.1c0.1-0.1,0.3-0.4,0.7-0.8c0.5-0.5,0.7-0.8,0.7-0.8c0-0.1,0.1-0.3,0.4-0.5
			c1.2-1.5,1.8-2.5,1.8-2.9c-0.3-0.1-0.5-0.1-0.8-0.1c-1.1,0-2.5,0.2-4.2,0.5c-0.8,0.2-1.4,0.3-1.8,0.4c-0.1,0-0.2,0-0.3,0
			c-0.4,0-0.5-0.2-0.5-0.7c0-0.3,0.2-0.5,0.7-0.7c0.4-0.2,0.6-0.4,0.7-0.5c0.7-0.5,1.6-1.1,2.7-1.9c1.7-1.5,3.1-2.2,4-2.2v1.1
			c0,0.1-0.3,0.2-1,0.4c-0.7,0.3-1.1,0.5-1.2,0.5c-0.3,0.2-0.6,0.5-1.1,1c-0.5,0.5-1,0.8-1.2,1c0,0-0.1,0-0.3,0.1
			c-0.4,0.2-0.6,0.3-0.7,0.4c0.2-0.1,0.3-0.1,0.4,0c0,0.1,0,0.1,0.1,0.1c1.2-0.5,2.4-0.7,3.6-0.7c0.2,0,0.6,0,1.2,0.1
			c0.6,0.1,1.1,0.1,1.2,0.1c0.1,0.1,0.1,0.2,0.1,0.4c0,0.5-0.4,1.3-1.1,2.2c-0.1,0.1-0.2,0.2-0.3,0.3c-0.2,0.4-0.8,1.1-1.8,2.2
			c-0.4,0.4-0.5,0.6-0.5,0.8c0,0.1,0,0.1-0.1,0.1c-0.1,0.1-0.1,0.2-0.1,0.3c0,0.1,0,0.2,0.1,0.3c1.9,0,3.3-0.2,4.2-0.5
			c0.7-0.1,1.2-0.2,1.4-0.3c0.4-0.3,0.5-0.5,0.5-0.5c0.1,0,0.1,0,0.1,0c0.5,0,0.7,0.1,0.7,0.4c0,0.5-0.4,1-1.2,1.6
			c-0.2,0.2-0.3,0.3-0.4,0.4c-0.5,0.5-1.6,1.5-3,2.9v0.1l4.2-1.9c0.1,0,0.1,0,0.1,0c0.5,0,0.8,0.2,0.8,0.5v0.1
			c-0.2,0.4-0.5,0.9-1,1.5c-0.5,0.6-0.9,1.1-1.1,1.5c-0.3,0.8-0.8,2-1.6,3.4c-0.5,0.9-1,1.6-1.2,2c0,0.1,0,0.1-0.1,0.1
			c-0.1,0.1-0.1,0.3-0.1,0.5c0,0.1,0,0.1,0,0.1c0.1,0,0.2,0.1,0.4,0.3c0.3,0.2,0.4,0.3,0.4,0.4c0.3,0.3,0.6,0.6,1,1.1
			c0.4,0.5,0.6,0.8,0.8,1c0.1,0.1,0.3,0.3,0.7,0.5c1.4,1.3,2.1,2.1,2.1,2.3h0.3c-0.2,0.5-0.5,0.9-0.8,1c-0.2,0-0.3,0-0.4,0
			c-0.6-1.1-1.8-2.5-3.4-4.1c-0.6-0.6-1.1-1.1-1.4-1.5l-0.3,0.3c-0.2,0.4-0.5,0.9-1,1.6c-1.6,2.8-3.1,5.3-4.2,7.4
			c-0.1,0.1-0.2,0.3-0.4,0.5c-0.3,0.5-0.5,0.7-0.7,0.7c-0.4-0.1-0.6-0.7-0.7-1.9C514,129.2,514,128.8,514,128.7z"/>
		<path class="st1" d="M552.3,109.9c0-0.1,0-0.3,0.1-0.7c0.1-0.2,0.3-0.7,0.7-1.6c0.4-0.9,0.5-1.5,0.5-1.6c0.1-0.1,0.2-0.3,0.3-0.5
			c0.6-1.5,1.3-2.2,1.9-2.2c0.3,0,0.4,0.1,0.4,0.3c0,0,0,0.1,0.1,0.3c0,0.1,0,0.2,0,0.3c0,0.1,0,0.2-0.1,0.4c0,0.1-0.3,0.5-0.8,1.1
			c-0.3,0.4-0.5,0.6-0.5,0.7c-0.1,0.2-0.3,0.5-0.5,1.1c-0.3,0.5-0.5,1-0.7,1.2c0,0,0,0,0,0.1l-0.5,1.8l-0.5,0.4
			c-0.1-0.2-0.2-0.5-0.3-0.8C552.3,110.1,552.3,110,552.3,109.9 M551.3,116.9v0.3c0.2,0.1,0.5,0.4,0.8,0.8c0,0,0,0,0.1,0.1
			c0.4,0.3,0.5,0.5,0.5,0.5c0.5,0.2,0.7,0.4,0.8,0.5c0.2,0.2,0.5,0.4,0.8,0.7c0.5,0.5,1.1,0.9,1.6,1c1.2-2,1.8-3.8,1.8-5.5
			c-0.1,0-0.2,0-0.4,0.1c-0.3,0.1-0.5,0.1-0.7,0l-4.4,1.4H551.3z M548.4,123.5v0.1c0,0.1,0,0.6,0.1,1.6c0.1,1,0.1,1.5,0.1,1.6
			c0.1,1.1,0.3,1.6,0.5,1.6c0.3,0,0.5-0.1,0.8-0.4c0.2-0.3,0.4-0.4,0.5-0.4l3.3-3l1.5-2.5V122c-0.5-0.4-1.1-0.9-1.9-1.6
			c-1.2-0.9-2.1-1.6-2.7-2.1c-0.7-0.4-1.3-0.8-1.6-1.2c0,0,0,0.2,0,0.5c-0.1,0.3-0.1,0.5-0.1,0.5c0,0.1,0,0.2-0.1,0.3
			c0,0.2,0,0.9-0.1,2.2c-0.1,1.2-0.1,1.9-0.1,2.2c0,0.2,0,0.4-0.1,0.5V123.5z M547.3,123.6c0-1.9,0.1-3.8,0.3-5.6
			c0-0.1,0-0.2,0.1-0.3c0.3-1.2,0.4-2.4,0.4-3.7c-0.8,0-2,0.2-3.4,0.5c-1.2,0.4-2.1,0.5-2.7,0.5c-1.2,0.2-1.8,0-1.8-0.7
			c0,0,0,0,0-0.1c-0.1-0.2,0-0.3,0.1-0.4c0.2-0.1,0.4-0.1,0.7-0.1c0.2,0,0.4,0,0.7,0c2.2-0.3,4.4-0.7,6.6-1.4c0,0,0-0.1,0-0.3
			c0.1-0.3,0.1-0.5,0.1-0.5c0.5-2.6,0.5-4.6,0.3-5.9c0,0,0-0.3-0.1-0.8c-0.3-0.8-0.4-1.3-0.4-1.4c0-0.2-0.1-0.5-0.3-1
			c-0.2-0.8-0.3-1.4-0.3-1.8c0-0.2,0-0.3,0-0.4c0.1-0.2,0.2-0.3,0.4-0.3c0.1,0,0.1,0,0.1,0c0.8,0.2,1.3,0.5,1.4,1.1
			c0,0.1,0,0.2,0,0.3c-0.1,0.2-0.1,0.4-0.1,0.5c0,0.4,0.1,0.8,0.3,1.4c0.1,0.4,0.1,0.6,0.1,0.8c0,0.5,0,0.8,0,1.1c0,0,0,0.1,0.1,0.4
			c0,0.2,0,0.3,0,0.4c0.1,2,0,3.7-0.1,5.1c0,0.5,0,0.8,0,1c0.1-0.1,0.4-0.2,0.8-0.3c0.5-0.2,0.7-0.3,0.8-0.3c0,0,0.1,0,0.3,0
			l4.9-1.6c0.7-0.7,1.5-1.1,2.3-1.1c0.5,0,0.7,0.1,0.7,0.4c0,0.4-0.2,0.7-0.5,1.1c-0.4-0.1-1,0.1-1.9,0.5c-0.2,0-0.8,0.2-1.8,0.5
			c-0.2,0.1-0.3,0.1-0.4,0.1c0,0,0,0-0.1,0c-0.3,0.1-0.5,0.2-0.5,0.3l-4.4,1.4c-0.4,0.3-0.6,0.9-0.7,1.9c0,0,0,0.1,0.1,0.4
			c0,0.3,0,0.5,0,0.5c0.1,0,0.2,0,0.4,0c0.2,0.1,0.3,0.1,0.4,0.1c1.5-0.1,2.3-0.3,2.6-0.5l3.7-1.5c0.1,0,0.2,0,0.4,0
			c0.1,0,0.2,0,0.4,0c0.2,0.1,0.4,0.1,0.5,0.1c0.2-0.1,0.4-0.1,0.5-0.1c0.2,0,0.3,0,0.3,0.1v2.2c0,0.1,0,0.2-0.1,0.3
			c0,0,0,0.2-0.1,0.5c-0.1,0.4-0.1,0.6-0.1,0.7c-0.1,0-0.3,0.6-0.7,1.9c-0.1,0.3-0.1,0.5-0.1,0.5c-0.1,0.4-0.2,0.7-0.4,1
			c1.4,0.9,3.1,1.5,5.3,1.6c0.2-0.1,0.3-0.2,0.4-0.3c0,0,0.1,0,0.3,0.1c0.6,0.3,1.1,0.5,1.2,0.7v0.1c-0.2,0.5-0.4,0.9-0.7,1
			c-0.9-0.2-1.4-0.4-1.5-0.5c-1.2-0.2-2.3-0.5-3.4-0.8c-0.1,0-0.4-0.1-1-0.4c-0.5-0.3-0.9-0.4-1.1-0.4c-0.1,0-0.5,0.5-1.2,1.6
			c-0.1,0.3-0.2,0.5-0.3,0.5c-0.5,0.6-1.1,1.4-2,2.2c-0.3,0.2-0.5,0.4-0.7,0.5c-0.1,0-0.1,0.1-0.1,0.3c-1.4,1.4-2.5,2-3.3,2
			c-1.2,0-1.7-2-1.6-5.9C547.3,123.7,547.3,123.6,547.3,123.6z"/>
	</g>
	<path id="subtitle-2_1_" class="st0" d="M576.7,128.4c3.1,1.7,6.1,1.6,9.1-0.2c3-1.9,4.3-4.6,4.2-8.2c-0.2-3.6-1.8-6.1-4.9-7.7
		c-3.1-1.6-6.1-1.4-8.9,0.5c-2.8,1.9-4.2,4.5-4.2,8C572,124.1,573.6,126.7,576.7,128.4 M586.3,108.6c3.3,1.3,5.5,3.4,6.5,6.5
		c1.1,3.1,1.3,6.2,0.5,9.1c-0.8,3-2.4,5.2-4.7,6.8c-2.3,1.6-5.1,2.3-8.2,2.3c-3.1,0-5.9-1.2-8.4-3.7c-2.5-2.5-3.8-5.2-4-8.2
		c-0.2-3,0.5-5.6,1.9-8c1.4-2.3,3.6-4,6.8-5.1C579.8,107.2,583,107.3,586.3,108.6z"/>
	<rect y="0" class="st2" width="640" height="171.1"/>
</g>
<g>
</g>
<g>
</g>
<g>
</g>
<g>
</g>
<g>
</g>
<g>
</g>
<g>
</g>
<g>
</g>
<g>
</g>
<g>
</g>
<g>
</g>
<g>
</g>
<g>
</g>
<g>
</g>
<g>
</g>
</svg>
