<?xml version="1.0" encoding="utf-8"?>
<!-- Generator: Adobe Illustrator 17.0.0, SVG Export Plug-In . SVG Version: 6.00 Build 0)  -->
<!DOCTYPE svg PUBLIC "-//W3C//DTD SVG 1.1//EN" "http://www.w3.org/Graphics/SVG/1.1/DTD/svg11.dtd">
<svg version="1.1" id="Layer_1" xmlns="http://www.w3.org/2000/svg" xmlns:xlink="http://www.w3.org/1999/xlink" x="0px" y="0px"
	 width="640px" height="164.3px" viewBox="0 0 640 164.3" style="enable-background:new 0 0 640 164.3;" xml:space="preserve">
<style type="text/css">
	.st0{fill:#595857;}
	.st1{fill:none;}
</style>
<g id="page-8-text.svg">
	<path class="st0" d="M249.6,83.3c0.6,0.1,1.2,0.2,1.5,0.3c0.4-2.1,0.7-4.1,0.8-6l-1.5-0.2C250.3,79.8,250,81.8,249.6,83.3z
		 M230.5,91.2V80.1H226v1.7h2.8v9.2c0,0.9-0.3,1.6-0.8,2l1.1,1.6c0.9-0.8,2.4-1.8,4.6-3.2c-0.1-0.8-0.1-1.5-0.2-2
		C232.4,90,231.5,90.7,230.5,91.2z M196.4,77.9l-1.8-1.1c-0.8,1.5-1.8,3.1-2.8,4.6h-11v3.2c0,2.3-0.2,4.1-0.5,5.3
		c-0.4,1.3-1,2.5-1.9,3.4c0.4,0.6,0.9,1.1,1.3,1.6c1.2-1.3,2-2.7,2.5-4.2c0.4-1.3,0.6-3.4,0.6-6.1V83h18v-1.6h-6.9
		C194.7,80.2,195.6,79.1,196.4,77.9z M279.5,76.2c-1-1.1-2.1-2.2-3.4-3.5l-1.4,1.2c1,1.1,2.1,2.3,3.1,3.7L279.5,76.2z M255.3,76.3
		l-0.9,0.6v-4.7h-1.6v22.6h1.6V77.4c0.6,0.9,1.2,1.6,1.7,2.3l1.3-0.9C256.8,78,256.1,77.2,255.3,76.3z M238.9,75.2
		c-0.8-1-1.7-2.1-2.7-3.2l-1.4,1c0.9,1,1.7,2.1,2.5,3.2L238.9,75.2z M215.2,94.9h1.8v-1.6h5.3v1.6h1.8V84.2h-8.9V94.9z M216.9,85.8
		h5.3v6h-5.3V85.8z M366.2,76.5c-1.4-1.3-2.8-2.4-4.2-3.5l-1.2,1.2c1.4,1.2,2.7,2.4,4,3.7L366.2,76.5z M437,76.3
		c-1.4-1.3-2.8-2.4-4.2-3.5l-1.2,1.2c1.3,1.1,2.7,2.3,4,3.7L437,76.3z M241.5,83.3h6.2v-1.7h-6.2v-3.4h6.9v-1.7h-4.9
		c1.1-1.3,2.1-2.4,2.8-3.3l-1.9-1.1c-0.7,1.3-1.7,2.8-3,4.5H233v1.7h6.6v3.4h-5.9v1.7h5.9v3.5h-7.2v1.7h7.2v6.4h1.9v-6.4h7.5v-1.7
		h-7.5V83.3z M307.4,76.1h9.5c-0.5,0.9-1,1.8-1.6,2.6c0.6,0.1,1.2,0.3,1.8,0.6c0.7-1.2,1.3-2.2,1.9-3.2v-1.6h-10.8
		c0.3-0.8,0.6-1.6,0.8-2.4H307c-0.7,2.5-1.9,4.6-3.6,6.4c0.7,0.4,1.2,0.8,1.6,1.2C305.9,78.6,306.7,77.5,307.4,76.1z M326.9,76.3
		c-0.8-0.8-2-2.1-3.7-3.8l-1.4,1.2c1.3,1.4,2.5,2.7,3.5,4L326.9,76.3z M190.1,71.9l-1.7,0.9c0.4,0.7,0.8,1.3,1.1,1.9H179v1.6h22.3
		v-1.6h-9.6C191.2,73.7,190.6,72.8,190.1,71.9z M301.6,76.8c0.4-0.4,0.9-0.9,1.4-1.4c-1.1-1.1-2.3-2.1-3.6-3.2l-1.3,1.2
		C299.4,74.5,300.5,75.6,301.6,76.8z M185.3,76.7l-1.5,1c1,1.3,1.8,2.5,2.4,3.5l1.6-1.1C187.2,79,186.3,77.9,185.3,76.7z
		 M207.6,81.5h12.3v0.7h1.9v-9.2h-16v9.2h1.9V81.5z M207.6,74.7h12.3v5.2h-12.3V74.7z M203.4,94.9h1.8v-1.6h5.3v1.6h1.8V84.2h-8.8
		V94.9z M205.2,85.8h5.3v6h-5.3V85.8z M231.8,76.3c-1.1-1.2-2.3-2.5-3.7-3.8l-1.3,1.2c1.1,1.2,2.3,2.5,3.4,4L231.8,76.3z
		 M337.8,79.4h-8.5v11.9h1.7v-1.4h6.8V79.4z M336.2,88.4H331v-3h5.1V88.4z M336.2,83.8H331v-2.9h5.1V83.8z M408,72.5l-2-0.5
		c-1,3.4-2.2,6.3-3.7,8.6c0.6,0.3,1.2,0.6,1.6,0.9c0.7-1.1,1.4-2.4,2.1-3.9h6.2c-0.1,6.2-0.2,10.5-0.4,12.8
		c-0.1,1.5-0.9,2.2-2.3,2.2c-1.3,0-2.7-0.1-4.2-0.3h-0.1c0.2,0.6,0.3,1.3,0.4,2.1c1.5,0.1,2.9,0.1,4.3,0.1c2.4,0,3.7-1.2,3.8-3.6
		c0.1-2.1,0.3-7.1,0.5-15h-7.5C407.2,74.8,407.6,73.7,408,72.5z M398.8,72.6l-1.9-0.6c-0.4,1.2-0.8,2.4-1.4,3.8h-2.3v18.6h1.9v-2
		h5.2v1.8h1.9V75.9h-4.6C397.8,74.9,398.3,73.8,398.8,72.6z M400.1,90.8h-5.2v-5.9h5.2V90.8z M400.1,77.6v5.6h-5.2v-5.6H400.1z
		 M376.6,94.6h1.9v-17h-1.9V94.6z M376.7,73.2c1.2,1.5,2.1,2.8,2.7,3.7l1.6-1.1c-0.6-0.7-1.5-1.9-2.9-3.6L376.7,73.2z M382.3,76h6
		v14.8c0,0.7-0.1,1.2-0.3,1.5c-0.3,0.4-0.8,0.6-1.5,0.6c-1.1,0-2.3,0-3.5-0.1c0.2,0.8,0.3,1.4,0.4,1.9c1.5,0.1,2.6,0.1,3.6,0
		c1.2,0,2.1-0.3,2.6-0.9c0.5-0.5,0.7-1.5,0.7-2.8V74.1h-7.9V76z M409.9,86.4c-1-1.5-2.4-3.2-4.1-5.3l-1.4,1c1.4,1.8,2.7,3.6,3.8,5.4
		L409.9,86.4z M421.3,72.1c-1.4,4.2-3.3,7.9-5.7,11.1c0.3,0.8,0.6,1.5,0.8,2.1c0.9-1.2,1.9-2.5,2.7-4v13.6h1.9V77.7
		c0.8-1.5,1.5-3.2,2.2-5L421.3,72.1z M475.6,77.2c0.2-1.5,0.4-3.1,0.5-4.7h-2c-0.4,9.8-3.9,16.6-10.7,20.5c0.6,0.6,1,1.2,1.5,1.8
		c5-3,8.4-7.7,10-14c2,6.6,5.2,11.2,9.8,13.8c0.5-0.6,1.1-1.3,1.7-2C481.1,90,477.5,84.9,475.6,77.2z M455.7,89.1h5.9v-1.6h-5.9
		v-3.1h3.7v0.9h1.7v-12h-12.6v12h1.7v-0.9h3.7v3.1h-5.9v1.6h5.9v3.3h-7.3V94h15.9v-1.6h-6.9V89.1z M455.7,74.9h3.7v3.2h-3.7V74.9z
		 M455.7,79.6h3.7v3.2h-3.7V79.6z M454,82.8h-3.7v-3.2h3.7V82.8z M454,78.1h-3.7v-3.2h3.7V78.1z M436.3,91.9c-0.2,0.7-0.6,1-1.3,0.7
		c-2.5-1.3-4.2-5.1-5-11.5l8.5-0.9l-0.2-1.7l-8.5,0.9c-0.2-2.5-0.3-4.8-0.3-7.1h-2c0.1,2.9,0.2,5.4,0.4,7.3l-5.5,0.6l0.3,1.7
		l5.4-0.6c0.7,5.3,2,9.1,3.7,11.1c1.2,1.5,2.5,2.3,3.8,2.4c1.2,0,2.1-0.6,2.5-2c0.3-1.2,0.6-2.5,0.8-4c-0.6-0.2-1.2-0.4-1.9-0.7
		C436.8,89.6,436.6,90.8,436.3,91.9z M447.5,88.9c-1,0.3-2,0.6-3,0.9v-6.6h2.9v-1.6h-2.9v-5.8h3.1v-1.6h-8v1.6h3.1v5.8h-2.9v1.6h2.9
		v7c-1.1,0.3-2.3,0.6-3.5,0.9l0.6,1.9c2.5-0.8,5.1-1.5,7.8-2.2C447.7,90.2,447.6,89.6,447.5,88.9z M301.7,77.8
		c-1.5,2.4-2.9,4.6-4.4,6.5l1.6,1.2c1.5-2.3,2.9-4.5,4.3-6.5C302.7,78.7,302.2,78.2,301.7,77.8z M281.6,94.7h1.8v-4.2h9.3v1.2
		c0,0.8-0.4,1.2-1.3,1.2c-0.9,0-1.9,0-3.3-0.1c0.2,0.7,0.3,1.3,0.3,1.8c1.4,0,2.6,0,3.5,0c1.7,0,2.6-0.9,2.6-2.5v-9h-12.9V94.7z
		 M283.4,84.5h9.3v1.6h-9.3V84.5z M283.4,87.5h9.3v1.6h-9.3V87.5z M288.9,78.5h6.5V77h-6.5v-1.6h7.1V74h-7.1v-2.1H287V74h-6.7v1.5
		h6.7V77h-5.9v1.5h5.9v1.6h-7.5v1.5h16.9v-1.5h-7.5V78.5z M278.1,90.8V80h-4.6v1.7h2.8v8.8c0,0.9-0.3,1.5-0.8,2l1.1,1.5
		c1.2-0.9,2.6-1.9,4.2-3c-0.1-0.6-0.1-1.2-0.2-2C279.8,89.6,279,90.2,278.1,90.8z M368.3,83.4c0.3,0.8,0.6,1.5,0.7,2.2
		c0.9-1.2,1.6-2.5,2.4-3.8v13.1h1.8V78.1c0.7-1.6,1.4-3.3,2-5.1l-1.8-0.7C372.4,76.1,370.7,79.8,368.3,83.4z M265.3,78.5h6.3v-1.5
		h-6.3v-1.6h7v-1.5h-7V72h-1.8v2.1h-6.5v1.5h6.5v1.6h-5.8v1.5h5.8v1.6h-7.1v1.5h16.3v-1.5h-7.4V78.5z M258,94.7h1.8v-4.2h9.5v1.3
		c0,0.7-0.4,1.1-1.3,1.1c-0.9,0-2.1,0-3.6-0.1c0.2,0.7,0.3,1.3,0.3,1.8c1.6,0,2.9,0,3.9,0c1.6,0,2.3-0.9,2.3-2.6V83h-13V94.7z
		 M259.7,84.5h9.5v1.6h-9.5V84.5z M259.7,87.5h9.5v1.6h-9.5V87.5z M300.5,95h1.8v-1.3h12.7V95h1.8v-9h-16.4V95z M302.3,87.6h12.7
		v4.5h-12.7V87.6z M333,72.6l-1.8-0.7c-1.3,2.9-2.9,5.5-4.8,7.7c0.6,0.4,1.1,0.7,1.5,1c1-1.2,1.9-2.5,2.9-4.1h10.4
		c-0.1,5.4-0.2,9.9-0.4,13.3c-0.1,1.8-0.9,2.7-2.2,2.7c-1.1,0-2.4-0.1-3.7-0.3c0.2,0.7,0.3,1.4,0.4,2c1.1,0.1,2.4,0.1,3.8,0.1
		c2.3,0,3.5-1.4,3.6-4.2c0.1-3.2,0.3-8.3,0.5-15.3h-11.3C332.2,74.2,332.6,73.4,333,72.6z M359,72.2H357c0.1,2.7,0.2,5,0.3,6.9h-5.9
		v-3.8c1.5-0.2,2.8-0.4,4-0.6l-0.6-1.9c-2.7,0.6-6,1-9.8,1.4c0.2,0.6,0.4,1.3,0.5,1.9c1.4-0.2,2.7-0.3,3.9-0.5V79h-5v1.7h5v4.2
		c-1.7,0.3-3.4,0.6-5,0.8l0.5,2c1.5-0.3,3-0.6,4.5-0.9v4.8c0,0.8-0.4,1.1-1.1,1.1c-0.9,0-1.9-0.1-3-0.2c0.2,0.6,0.3,1.3,0.4,2
		c1,0.1,2.1,0.1,3.1,0.1c1.7,0,2.5-0.9,2.5-2.7v-5.4c1.6-0.3,3.2-0.6,4.8-0.9c0-0.5,0-1.1-0.1-1.8c-1.6,0.3-3.2,0.6-4.8,0.9v-3.8h6
		c0.2,2.9,0.6,5.4,1.2,7.4c-1.8,1.4-3.8,2.6-6,3.6c0.4,0.4,0.8,0.9,1.2,1.5c2-0.9,3.8-2.1,5.5-3.3c0.4,0.9,0.9,1.7,1.4,2.4
		c1.2,1.6,2.4,2.4,3.8,2.4c1.2,0,1.9-0.6,2.3-1.9c0.3-1,0.6-2.3,0.8-4c-0.5-0.2-1.1-0.4-1.8-0.7c-0.2,1.8-0.5,3.1-0.7,3.9
		c-0.1,0.5-0.4,0.8-0.7,0.8c-0.6,0-1.3-0.5-2.1-1.4c-0.6-0.7-1.1-1.6-1.6-2.7c2-1.7,3.9-3.6,5.5-5.8l-1.7-1.1
		c-1.2,1.9-2.7,3.5-4.4,5.1c-0.5-1.7-0.8-3.8-0.9-6.2h8.4V79h-8.5C359.1,76.9,359,74.6,359,72.2z M325.4,91.2V80.1h-4.5v1.7h2.7v9.2
		c0,0.9-0.3,1.5-0.8,2l1.1,1.6c0.9-0.8,2.4-1.8,4.3-3.1c-0.1-0.5-0.1-1.2-0.2-2C327.2,90,326.3,90.7,325.4,91.2z M311.8,77.5
		c0.1-0.4,0.1-0.8,0.1-0.9h-1.6c-0.5,3.8-3.2,6.2-8.3,7.3c0.5,0.7,0.8,1.2,1.1,1.7c4.2-1.1,6.9-3.1,8.2-6c1.4,2.8,4,4.8,8,6
		c0.4-0.6,0.7-1.2,1.1-1.8C316.1,83,313.2,80.9,311.8,77.5z"/>
	<rect y="0" class="st1" width="640" height="164.3"/>
</g>
<g>
</g>
<g>
</g>
<g>
</g>
<g>
</g>
<g>
</g>
<g>
</g>
<g>
</g>
<g>
</g>
<g>
</g>
<g>
</g>
<g>
</g>
<g>
</g>
<g>
</g>
<g>
</g>
<g>
</g>
</svg>
