<?xml version="1.0" encoding="utf-8"?>
<!-- Generator: Adobe Illustrator 17.0.0, SVG Export Plug-In . SVG Version: 6.00 Build 0)  -->
<!DOCTYPE svg PUBLIC "-//W3C//DTD SVG 1.1//EN" "http://www.w3.org/Graphics/SVG/1.1/DTD/svg11.dtd">
<svg version="1.1" id="Layer_1" xmlns="http://www.w3.org/2000/svg" xmlns:xlink="http://www.w3.org/1999/xlink" x="0px" y="0px"
	 width="640px" height="102.1px" viewBox="0 0 640 102.1" style="enable-background:new 0 0 640 102.1;" xml:space="preserve">
<style type="text/css">
	.st0{fill:none;stroke:#FFFFFF;stroke-width:0.9434;stroke-miterlimit:22.9256;}
	.st1{fill:#AA192A;}
	.st2{fill:none;}
</style>
<g id="page-7-title.svg">
	<path class="st0" d="M191.4,30.9c0.3,0.6,0.4,1.2,0.5,2c0.1,0.7,0.1,1.3-0.2,1.9c-0.2,0.5-0.7,1-1.3,1.3c-0.7,0.4-1.4,0.5-2.1,0.2
		c-0.6-0.1-1.1-0.5-1.5-0.9l-1.1-2l-1-1.6c-0.5-0.8-0.6-1.6-0.4-2.4c0.3-1.1,1.1-1.8,2.4-2c1.3-0.2,2.4,0.3,3.2,1.3
		C190.7,29.8,191.2,30.5,191.4,30.9z M220.6,67.8h-6v3.9h4.5c1,0,1.5-0.6,1.5-1.7V67.8z M220.6,62.2v-1.9c0-0.6-0.1-1.1-0.3-1.5
		c-0.2-0.3-0.6-0.5-1.2-0.5h-4.6v3.9H220.6z M208.7,67.8h-6v2.4c0,0.5,0.1,0.9,0.3,1.2c0.2,0.2,0.6,0.3,1.3,0.3h4.4V67.8z
		 M202.7,62.2h6v-3.9h-4.4c-0.7,0-1.1,0.2-1.3,0.6c-0.2,0.4-0.3,0.9-0.3,1.5V62.2z M196.5,71.5V59.9c0-1.2,0.1-2.2,0.4-3.2
		c0.3-0.9,0.9-1.8,1.8-2.7c0.9-0.9,2.9-1.3,6-1.3h14.5c4.2,0,6.5,0.9,7,2.6c0.5,1.8,0.7,3.2,0.7,4.3v9.5c0,1.5-0.1,3.2-0.4,5.2
		c-0.3,2-2.8,3-7.6,3h-14.6c-2,0-3.7-0.4-5-1.1c-1.3-0.7-2.1-1.5-2.4-2.2C196.6,73.4,196.5,72.5,196.5,71.5z M207.6,45.1h8.1
		c1.1,0,1.7-0.4,1.7-1.2V43c0-0.8-0.4-1.2-1.3-1.2h-9.3c-1,0-1.5,0.5-1.5,1.6V44C205.3,44.8,206,45.1,207.6,45.1z M206.4,36.6h9.7
		c2.5,0,4.4,0.4,5.5,1.2c1.2,0.8,1.7,2,1.7,3.8v3.5c0,0.7-0.3,1.8-0.9,3.2c-0.6,1.4-2.7,2.1-6.4,2.1h-9.9c-2.7,0-4.3-0.3-5-1
		c-0.7-0.6-1.1-1.4-1.3-2.2c-0.2-0.8-0.3-1.6-0.3-2.2v-3c0-0.5,0.1-1.2,0.3-2.1c0.2-0.9,0.8-1.7,1.6-2.4
		C202.2,37,203.9,36.6,206.4,36.6z M197.5,28.7h27.6c0.7,0,1.3,0.2,1.9,0.7c0.6,0.5,0.8,1.2,0.8,2.2c0,1-0.3,1.7-0.9,2.1
		c-0.6,0.4-1.2,0.6-1.7,0.6l-27.6,0.1c-0.4,0-0.9-0.2-1.6-0.7c-0.6-0.5-0.9-1.4-0.7-2.6c0.1-0.8,0.4-1.4,0.9-1.8
		C196.5,28.9,197,28.7,197.5,28.7z M190.1,50.2v1.4c0.7-0.6,1.4-0.9,2.1-0.9c1,0.1,1.9,0.7,2.6,1.8c0.7,1.2,1.2,2.3,1.4,3.3
		c0.2,1.1,0.1,1.9-0.4,2.6c-0.5,0.6-1,1-1.6,1.2c-0.6,0.2-1.1,0.2-1.5,0c-0.5-0.1-0.9-0.4-1.1-0.7c-0.2-0.3-0.7-1.4-1.6-3.2v20.3
		c0,1.7-1,2.6-3,2.7c-2,0.1-3-0.8-3-2.7V56.8c-2.2,2-3.9,2.9-5.3,2.6c-0.6-0.1-1.2-0.4-1.8-0.9c-0.6-0.5-0.9-1.3-0.9-2.2
		c0-0.9,0.4-1.8,1.3-2.6c0.2-0.1,0.8-0.5,1.8-1.1c1-0.6,2.1-1.5,3.3-2.7c1.2-1.2,2.1-2.2,2.8-3.1l1.5-2.1c0.5-0.7,0.7-1.1,0.6-1.4
		c-0.2-0.3-0.5-0.4-0.9-0.4h-6.9c-0.4,0-1.1-0.2-1.9-0.5c-0.8-0.3-1.2-1.2-1-2.5c0-0.9,0.4-1.6,1.1-2c0.7-0.4,1.3-0.6,1.8-0.6h10.1
		c2.6,0,4.1,0.7,4.7,1.9c0.6,1.3,0.6,2.7,0.1,4.1C194,44.4,192.6,46.7,190.1,50.2z"/>
	<path class="st0" d="M251.4,55.7c0.1-0.8,0.5-1.5,1.4-2c0.8-0.5,1.8-0.6,2.7-0.2c1,0.5,1.9,1.7,2.7,3.6c0.8,1.9,1.2,3.2,1.1,3.8
		c0,0.6-0.5,1.2-1.4,1.8c-0.9,0.6-1.8,0.6-2.7,0.2c-0.4-0.1-0.7-0.4-0.9-0.7c-0.2-0.3-0.7-1.2-1.4-2.6c-0.7-1.4-1.2-2.4-1.3-2.8
		C251.4,56.3,251.3,55.9,251.4,55.7z M269.7,44.8l0.3-2.6h-14.3c-0.9,0-1.6-0.2-2-0.7c-0.5-0.5-0.7-1.1-0.7-1.8
		c0-0.7,0.2-1.4,0.7-1.9c0.5-0.5,1.2-0.8,2.1-0.8l14.5-0.1l0.1-0.9c0.1-1.2-0.4-1.8-1.6-1.8h-14.1c-0.8,0-1.6-0.3-2.1-0.8
		c-0.6-0.5-0.9-1.2-0.8-2.1c0-0.7,0.3-1.3,0.9-1.8c0.6-0.6,1.3-0.9,2.1-0.9h16.1c1.5,0,2.8,0.1,3.8,0.4c1,0.3,1.6,0.9,1.7,2
		c0.2,1,0.2,2,0.2,2.8l-0.7,10.8h2.6c0.9,0,1.6,0.3,2,0.9c0.4,0.6,0.7,1.2,0.7,1.9c0.1,0.7-0.2,1.3-0.6,1.9
		c-0.5,0.6-1.2,0.9-2.1,0.9h-10.6V55c0.4,1.3,0.7,2.1,0.9,2.4l1,1.6c0.6-0.6,1.1-1.1,1.3-1.3c0.3-0.3,0.8-0.9,1.6-2
		c0.8-1.1,1.4-1.7,1.8-1.9c0.4-0.2,0.9-0.3,1.6-0.2c0.7,0.1,1.3,0.4,1.9,1c0.6,0.6,0.9,1.2,0.9,1.9c0,0.7-0.3,1.5-0.9,2.4
		c-0.6,0.9-2.2,2.5-4.9,4.9c0.6,0.8,1.3,1.6,1.9,2.2c0.7,0.6,1.9,1.4,3.8,2.4c1.9,1,3,1.8,3.5,2.5c0.5,0.7,0.3,1.7-0.4,3
		c-0.8,1.3-1.8,1.9-3.1,1.8c-0.9,0-2.4-0.9-4.6-2.7c-2.1-1.8-3.4-2.9-3.7-3.4l-2.5-3v6.1c0,1.6-0.2,2.8-0.6,3.8
		c-0.4,1-1.5,1.6-3.2,2c-1.7,0.4-3,0.5-4,0.4c-1.8-0.1-2.9-0.9-3.2-2.1c-0.3-1.3-0.2-2.3,0.2-3c0.2-0.4,0.5-0.7,0.9-0.9
		c0.4-0.2,1-0.4,1.8-0.4c0.8,0,1.3-0.1,1.4-0.3c0.2-0.2,0.3-0.7,0.3-1.7V50.3h-9.9c-0.8,0-1.5-0.2-2-0.7c-0.5-0.5-0.8-1.1-0.9-1.9
		c-0.1-0.8,0.2-1.5,0.7-2.1c0.5-0.6,1.3-0.9,2.2-0.9H269.7z M257.8,64.4c1.4,0.2,2.2,0.8,2.4,1.9c0.3,1,0.1,1.9-0.6,2.6
		c-0.7,0.7-2.6,1.8-5.7,3.3c-3.1,1.6-5.2,2.3-6.1,2c-1-0.2-1.6-0.6-1.9-1.3c-0.3-0.7-0.4-1.3-0.3-1.8c0.1-0.9,0.3-1.6,0.8-1.9
		c0.5-0.4,1.3-0.7,2.4-1c1.1-0.3,2.2-0.8,3.3-1.3c1.1-0.5,2-1.1,3-1.7C256,64.6,256.9,64.3,257.8,64.4z M243.4,50.3V52
		c1.4-1,2.7-1,4-0.1c0.9,0.7,1.6,1.9,2.1,3.6c0.5,1.7,0.8,2.8,0.7,3.3c-0.3,1.5-1.3,2.3-3.1,2.4c-1,0.1-1.7-0.3-2.2-1.1l-1-2.9
		l-0.5-1.1v20c0,0.7-0.3,1.2-0.8,1.7c-0.5,0.5-1.3,0.8-2.3,0.8c-1,0-1.7-0.3-2.2-0.9c-0.4-0.6-0.7-1.2-0.7-1.6V56.6
		c-2.7,2.6-4.6,4-5.6,4.1c-1,0.1-1.8-0.2-2.5-0.9c-0.6-0.7-1-1.7-1-2.7c0-1,0.3-1.7,0.8-2.1c0.5-0.4,1.4-1,2.6-1.7
		c1.2-0.7,2.7-1.9,4.5-3.6c1.7-1.7,3-3.2,3.6-4.4c0.7-1.2,1-1.9,0.9-2.1c-0.1-0.2-0.4-0.3-1.1-0.3h-6.3c-0.8,0-1.5-0.3-2.1-0.8
		c-0.6-0.5-0.9-1.2-1-1.9c0-0.8,0.3-1.4,0.9-2c0.6-0.6,1.3-0.9,2.1-0.9h10.1c2.8,0,4.3,0.8,4.6,2.4c0.3,1.6,0.1,3-0.4,4.2
		C247.2,44.8,245.8,46.9,243.4,50.3z M236.9,27.9c0.2-0.4,0.7-0.9,1.5-1.3c0.8-0.5,1.8-0.5,2.8,0c0.8,0.4,1.6,1.4,2.6,3.1
		c1,1.6,1.5,2.8,1.7,3.6c0.1,0.7,0,1.4-0.3,2c-0.3,0.5-0.7,0.9-1.2,1.3c-0.6,0.4-1.2,0.5-1.9,0.5c-1.2,0-2.1-0.6-2.8-1.8l-1.1-2
		c-0.9-1.4-1.5-2.5-1.7-3.1C236.4,29.4,236.5,28.7,236.9,27.9z"/>
	<path class="st0" d="M284.6,70.6c0.9-2.5,1.6-4.4,2.1-6c0.5-1.5,0.8-2.9,1.1-4.2c0.3-1.3,0.5-2.4,0.7-3.2c0.2-0.8,0.9-1.4,2-1.6
		c1.6-0.3,2.7,0,3.1,1c0.4,1,0.6,1.6,0.7,2c0,0.4,0,0.8-0.1,1.3c-0.1,0.8-0.5,2.3-1,4.3c-0.5,2-0.9,3.9-1.3,5.7
		c-0.4,1.8-1.1,3.4-2.1,5c-1,1.6-2.4,1.7-4.1,0.5c-0.6-0.4-1-1-1.3-1.8C284.1,72.8,284.1,71.8,284.6,70.6z M294.7,48
		c0.2,0.6,0.3,1.2,0.1,1.8c-0.1,0.6-0.5,1.2-1.1,1.7c-0.6,0.5-1.2,0.7-1.7,0.7c-0.6,0-1.6-0.3-3-1.2c-1.4-0.8-2.4-1.5-3.2-1.9
		c-0.7-0.5-1.1-0.9-1.3-1.3c-0.1-0.4-0.1-0.8-0.1-1.2c0-0.4,0.3-1.1,0.8-2.2c0.5-1.1,1.8-1.2,3.8-0.5c0.1,0.1,0.8,0.4,2,1.1
		c1.2,0.7,2.1,1.2,2.5,1.6C294.1,47,294.5,47.5,294.7,48z M322.5,60c0.6-0.3,1.2-0.2,1.9,0.3c0.7,0.6,1.6,1.9,2.7,3.9v-6.2
		c0-0.3-0.1-0.7-0.2-1.2c-0.1-0.5-0.8-0.7-2-0.7h-2c-0.1,1-0.2,1.6-0.2,1.8L322.5,60z M317.3,50.7v-3H312l-0.1,3H317.3z M316.3,63.1
		c0.3-0.8,0.4-1.5,0.5-1.9l0.2-2l0.2-2.2V56h-5.4c-0.1,1-0.2,1.9-0.3,2.8c0.7-0.5,1.3-0.5,1.9,0.1c0.6,0.5,1.2,1.3,1.7,2.3
		C315.7,62.1,316.1,62.8,316.3,63.1z M306.2,56h-2.1c-1,0-1.5,0.7-1.5,2v7.8c1.2-1.4,2-2.9,2.6-4.5c0.5-1.6,0.9-2.9,0.9-3.6
		L306.2,56z M327.1,66.9c-0.8,1.2-1.7,1.7-2.7,1.4c-0.6-0.2-1.5-1.3-2.7-3.4c-0.2,0.8-0.4,1.5-0.6,2.1c-0.2,0.6-0.8,1.9-1.9,3.8
		c-1.1,1.9-2.2,3.1-3.2,3.6c-1.1,0.5-2.2,0.6-3.3,0.2c-1.2-0.3-1.7-1.1-1.6-2.2c0.1-1.1,0.3-1.9,0.8-2.5l1.4-1.2
		c0.7-0.7,1.6-1.8,2.5-3.6c-1.2,1.4-2.1,1.9-2.7,1.4c-0.7-0.5-1.1-0.9-1.3-1.3l-0.4-0.9l-0.7-1c-1.5,3.7-2.7,6.1-3.6,7.2
		c-1,1.1-1.8,1.5-2.6,1.2c-0.8-0.3-1.4-0.9-1.8-1.7v5.3c0,0.7-0.3,1.2-0.9,1.7c-0.6,0.5-1.3,0.8-2.1,0.9c-0.8,0.1-1.5-0.1-2.2-0.7
		c-0.6-0.6-1-1.2-1-2v-18c0-0.6,0.1-1.4,0.2-2.5c0.1-1.1,0.7-2,1.8-2.8c1.1-0.8,2.9-1.2,5.5-1.2h2.4v-3h-8.1c-0.6,0-1.2-0.2-1.9-0.6
		c-0.7-0.4-1-1.1-0.9-2.1c0-0.7,0.3-1.3,0.9-1.9c0.6-0.5,1.3-0.8,2.1-0.8h33.9c0.7,0,1.3,0.3,1.8,0.9c0.5,0.6,0.7,1.2,0.7,1.8
		c0,1.1-0.4,1.9-1,2.2c-0.6,0.3-1.1,0.5-1.5,0.5h-9.1l-0.2,3h3.2c2.8,0,4.5,0.4,5.2,1.1c0.7,0.7,1.2,1.6,1.4,2.5
		c0.3,0.9,0.4,1.9,0.4,3v14.7c0,1.1-0.2,2.3-0.5,3.5c-0.3,1.2-1,1.9-2.1,2.2c-1.1,0.3-2.5,0.6-4.2,0.9c-1.7,0.3-2.9,0.1-3.5-0.3
		c-0.4-0.3-0.8-0.8-1-1.4c-0.2-0.6-0.3-1.2-0.2-1.8c0-0.8,0.2-1.5,0.5-1.9c0.3-0.4,0.7-0.7,1.1-0.7c0.4-0.1,1-0.1,1.8-0.1
		c0.8,0,1.4-0.2,1.6-0.4c0.2-0.3,0.4-0.7,0.4-1.5V66.9z M286.3,33.1c-0.4-0.6-0.5-1.2-0.4-1.9c0.1-0.7,0.5-1.4,1.2-2
		c0.7-0.6,1.6-0.8,2.7-0.6c0.8,0.2,1.9,0.9,3.1,1.9c1.2,1.1,2,1.8,2.3,2.2c0.3,0.4,0.5,0.9,0.6,1.7c0.1,0.7-0.3,1.5-1.1,2.2
		c-0.8,0.7-1.6,1-2.5,0.9c-0.5,0-1-0.3-1.5-0.7l-2.1-1.7C287.2,34.1,286.4,33.4,286.3,33.1z M304.7,31.7v-2.6c0-0.6,0.4-1.2,1.1-1.6
		c0.7-0.5,1.4-0.7,2.2-0.7c1.2,0.1,1.9,0.4,2.3,1c0.4,0.6,0.5,1,0.5,1.3v2.6h7.1v-2.5c0-0.5,0.3-1,0.9-1.4c0.6-0.4,1.3-0.7,2.2-0.7
		c0.8-0.1,1.5,0.1,2.1,0.6c0.6,0.4,0.8,1,0.8,1.7v2.4h7.5c0.7,0,1.3,0.3,1.8,0.9c0.5,0.6,0.7,1.6,0.8,2.8c0,1.2-0.8,1.9-2.4,1.9H324
		v1.6c0,0.7-0.3,1.3-1,1.8c-0.6,0.5-1.4,0.8-2.3,0.9c-0.9,0.1-1.6-0.2-2.1-0.9c-0.5-0.7-0.7-1.3-0.7-1.9v-1.6h-7.1v1.8
		c0,0.7-0.4,1.2-1.1,1.7c-0.7,0.5-1.5,0.7-2.4,0.8c-0.9,0-1.5-0.2-2-0.8c-0.4-0.6-0.7-1.1-0.7-1.6v-1.9h-6.3c-0.6,0-1.2-0.2-1.7-0.7
		c-0.5-0.5-0.7-1.2-0.7-2c0-1.1,0.3-1.8,0.9-2.2c0.6-0.4,1.1-0.6,1.6-0.6H304.7z"/>
	<path class="st0" d="M354,36.9c-0.5,0.5-1.2,0.8-2,0.9c-0.9,0.1-1.6-0.1-2.1-0.4c-0.3-0.1-0.6-0.5-1-1.1c-0.4-0.6-1-1.2-1.8-1.9
		c-0.8-0.7-1.3-1.2-1.5-1.6c-0.3-0.4-0.3-0.9-0.3-1.7c0.1-0.7,0.4-1.4,1.1-1.9c0.6-0.5,1.4-0.8,2.3-0.7c1.1,0.1,2.2,0.9,3.5,2.1
		c1.2,1.3,2,2.1,2.2,2.6c0.3,0.5,0.4,1.1,0.4,1.8C354.7,35.8,354.4,36.4,354,36.9z M367.8,51.3h-10.9c-1,0-1.5,0.4-1.5,1V53
		c0,0.6,0.5,0.8,1.5,0.8h10.9c0.8,0,1.3-0.1,1.5-0.2c0.2-0.1,0.3-0.4,0.3-0.8v-0.6C369.7,51.6,369.1,51.3,367.8,51.3z M360.8,59.2
		h-4.3c-2.6,0-4.4-0.4-5.5-1.3c-1.1-0.8-1.6-2.1-1.6-3.8v-2.5c0-2,0.5-3.4,1.6-4.3c1.1-0.9,2.9-1.4,5.5-1.4h12.7
		c3.9,0,6,0.8,6.4,2.3c0.4,1.5,0.6,2.6,0.6,3.5v2.5c0,0.8-0.2,1.5-0.5,2.2c-0.3,0.7-0.9,1.4-1.7,2c-0.8,0.6-2.6,0.9-5.3,0.9h-3.7
		c0.7,0.6,1.1,1.3,1.2,2.2l0.1,1.6h11.9c0.8,0,1.5,0.3,2.2,0.8c0.7,0.6,1,1.3,1,2.1c0,0.8-0.4,1.5-1,2c-0.7,0.5-1.4,0.8-2.1,0.8
		h-11.9v3.2H384c0.8,0,1.5,0.3,2.2,0.8c0.7,0.5,1,1.2,1,2.1c0,0.8-0.4,1.4-1,2c-0.6,0.6-1.3,0.9-2.2,0.9h-42.7c-1,0-1.7-0.3-2.2-0.9
		c-0.5-0.6-0.8-1.2-0.8-2c0-0.8,0.3-1.5,0.9-2c0.6-0.5,1.3-0.8,2.1-0.8h18.4v-3.2h-12.5c-0.9,0-1.7-0.3-2.3-0.9
		c-0.7-0.6-1-1.3-1-2.2c0-0.8,0.3-1.4,1-1.9c0.7-0.5,1.4-0.8,2.3-0.8h12.6v-1.6C359.8,60.6,360.1,59.8,360.8,59.2z M374.3,38l4.1,0
		c3.4,0.1,5.5,0.4,6.4,1.1c0.9,0.7,1.3,2.2,1.3,4.6V49c0,0.6-0.2,1.2-0.7,1.8c-0.5,0.6-1.2,0.9-2.3,1c-1.1,0.1-1.9-0.2-2.5-0.9
		c-0.6-0.6-0.9-1.3-0.9-1.8l0.1-2.8c0-0.8-0.1-1.3-0.2-1.5c-0.1-0.3-0.3-0.4-0.5-0.6c-0.2-0.1-0.8-0.2-1.8-0.2H348
		c-1,0-1.6,0.1-1.8,0.2c-0.2,0.1-0.3,0.3-0.4,0.5c-0.1,0.2-0.1,0.7-0.1,1.4l0,3c0,0.7-0.4,1.4-1,2c-0.6,0.6-1.5,0.9-2.5,0.8
		c-0.9-0.1-1.6-0.4-2.1-1c-0.5-0.6-0.7-1.2-0.7-1.8v-5.3c0-2.3,0.5-3.8,1.4-4.6c0.9-0.7,2.8-1.1,5.5-1.2l13.1,0v-8.7
		c0-0.8,0.3-1.5,0.9-2.2c0.6-0.6,1.5-1,2.6-1c1.1,0,2,0.3,2.5,1.1c0.6,0.7,0.9,1.4,0.9,2.1V38h4.4c-0.7-0.5-1.1-1.2-1.1-1.9
		c0-0.8,0.2-1.4,0.7-2c0.1-0.1,0.5-0.4,1.2-1.1c0.7-0.6,1.3-1.5,2-2.6c0.6-1.1,1.1-1.8,1.5-2.1c0.4-0.3,0.9-0.5,1.6-0.6
		c0.7-0.1,1.4,0.1,2.2,0.5c0.7,0.4,1.2,1.1,1.2,1.9c0.1,0.9,0,1.6-0.3,2.2c-0.2,0.4-0.7,1.2-1.6,2.4c-0.9,1.2-1.6,2-2,2.4
		C375.4,37.3,374.9,37.6,374.3,38z"/>
	<path class="st1" d="M100.2,79c-0.6,0.3-1.1,0.4-1.5,0.2c-0.3-0.2-0.6-0.4-0.8-0.7c-0.2-0.3-0.6-1.1-1.2-2.4
		c-0.6-1.4-1.3-2.6-2-3.7c-0.7-1.1-1.6-2.6-2.8-4.4c-1.2-1.8-2-3-2.5-3.6c-0.5-0.6-0.8-1-0.9-1.3c-0.1-0.2-0.2-0.5-0.2-0.8
		c0-0.3,0.2-0.6,0.6-1c0.4-0.4,0.9-0.5,1.4-0.5c0.3,0,0.6,0.1,0.8,0.3c0.3,0.1,0.6,0.5,1,1.1l1.8,2.5c0.2,0.3,0.9,1.3,2.1,3.2
		c1.2,1.9,1.9,3,2.1,3.3l1.8,3.5c0.4,0.7,0.7,1.4,0.9,1.9c0.2,0.5,0.2,1,0,1.4C100.8,78.5,100.6,78.8,100.2,79 M96.1,41.4
		c0.1,0.3,0.2,1,0.5,2c0.3,1,0.7,2.4,1.3,4.2c0.6,1.8,1.7,3.9,3.2,6.4c1.5,2.4,2.9,4.7,4.4,6.6c1.4,2,3.1,3.9,5,5.8
		c1.9,1.9,3.8,3.6,5.7,5.1c1.9,1.5,3.1,2.4,3.6,2.8c0.5,0.3,0.9,0.6,1,0.8c0.2,0.2,0.3,0.5,0.3,1c0,0.4-0.2,0.9-0.6,1.3
		c-0.4,0.4-0.9,0.6-1.3,0.6c-0.3,0-0.6-0.1-1.1-0.4c-0.5-0.3-2.1-1.4-4.7-3.6c-2.7-2.1-4.8-4.1-6.4-5.8c-1.6-1.7-3.3-3.8-5.1-6.2
		c-1.8-2.4-3.3-4.7-4.3-6.9c-1.1-2.2-1.7-3.6-2-4.4l-1.1-3c-0.2,1-0.5,2-0.7,2.7c-0.2,0.8-0.6,1.9-1.1,3.3c-0.5,1.4-1.2,2.8-2,4.3
		c-0.8,1.5-1.7,2.9-2.6,4.2c-0.9,1.3-1.8,2.5-2.7,3.4c-0.9,1-2.1,2.2-3.8,3.8c-1.7,1.6-3.8,3.4-6.4,5.5c-2.6,2.1-4.4,3.1-5.2,2.9
		c-0.8-0.1-1.4-0.4-1.6-0.8c-0.3-0.4-0.3-0.9-0.1-1.4c0.2-0.6,1-1.3,2.3-2.1c1.4-0.8,2.5-1.5,3.4-2.2c0.9-0.7,2.3-1.8,4.2-3.5
		c1.9-1.6,3.5-3.2,4.7-4.7c1.2-1.5,2.5-3.3,3.9-5.3c1.3-2,2.4-4,3.1-5.9c0.7-1.9,1.3-3.8,1.7-5.5c0.5-1.8,0.7-3.1,0.8-3.8l0.1-1.2
		h-22c-0.6,0-1-0.2-1.3-0.5c-0.3-0.3-0.4-0.7-0.4-1.2c0-0.5,0.1-0.9,0.4-1.2c0.3-0.3,0.7-0.5,1.2-0.5h22l0.1-10.3
		c0-0.4,0.1-0.8,0.4-1.2c0.3-0.4,0.8-0.6,1.7-0.6c0.9,0,1.3,0.6,1.3,1.9l0,10.2h23.2c0.4,0,0.8,0.1,1.1,0.4c0.3,0.3,0.5,0.7,0.5,1.3
		c0,0.5-0.2,0.8-0.5,1.1c-0.3,0.3-0.7,0.4-1.1,0.4H96.1z"/>
	<path class="st1" d="M149.9,31.6v20.5h22.3c0.4,0,0.7,0.1,1,0.4c0.3,0.3,0.4,0.7,0.4,1.2c0,0.5-0.2,0.9-0.5,1.2
		c-0.3,0.3-0.6,0.4-0.9,0.4h-22.3v21.9c0,0.4-0.2,0.7-0.5,1.1c-0.3,0.3-0.7,0.5-1.3,0.5c-0.5,0-0.8-0.1-1.1-0.4
		c-0.3-0.3-0.4-0.7-0.4-1.1V55.4h-22.7c-0.5,0-0.8-0.1-1.2-0.4c-0.3-0.3-0.5-0.7-0.4-1.3c0-0.5,0.1-0.9,0.5-1.2
		c0.3-0.3,0.7-0.4,1.1-0.4h22.7V31.6h-19.8c-0.5,0-0.8-0.1-1.2-0.4c-0.3-0.3-0.5-0.7-0.4-1.3c0.1-1,0.6-1.5,1.6-1.5H170
		c0.3,0,0.7,0.1,1,0.4c0.3,0.3,0.4,0.7,0.4,1.2c0,0.6-0.2,1-0.5,1.3c-0.3,0.3-0.6,0.4-0.9,0.4H149.9z M138.5,48.2
		c-0.1,0.4-0.3,0.8-0.7,1.2c-0.4,0.4-0.9,0.5-1.4,0.4c-0.4-0.1-0.7-0.3-1-0.7c-0.3-0.4-0.7-1-1.2-2c-0.5-0.9-1.2-2.2-2.2-3.8
		c-1-1.6-1.8-2.8-2.4-3.5l-1.6-2c-0.4-0.5-0.7-1.1-0.7-1.6c-0.1-0.5,0.1-0.9,0.5-1.3c0.4-0.3,0.9-0.5,1.3-0.4
		c0.7,0.1,1.5,0.7,2.4,1.9c0.9,1.2,2,2.8,3.2,4.8l2.4,3.8C138.2,46.5,138.6,47.5,138.5,48.2z M166,34.7c0.3,0,0.8,0.1,1.5,0.4
		c0.7,0.3,0.8,1.2,0.1,2.7c-0.4,0.9-1.1,2.2-2,4c-0.9,1.7-2,3.4-3,4.8c-1.1,1.5-2,2.6-2.7,3.3c-0.7,0.7-1.5,0.8-2.1,0.4
		c-0.6-0.4-1-1-0.9-1.6c0-0.4,0.4-1.1,1.1-2c0.8-0.9,1.4-1.7,1.9-2.3c0.5-0.7,1.2-1.8,2.2-3.5c1-1.7,1.7-3,2.1-4
		c0.4-1,0.7-1.6,1.1-1.9C165.5,34.9,165.8,34.8,166,34.7z"/>
	<path class="st1" d="M398.4,42.4l0,36c0,0.4-0.2,0.8-0.4,1.2c-0.3,0.4-0.8,0.5-1.5,0.6c-0.8,0-1.1-0.6-1.1-1.7V49.9
		c-0.1,0.3-0.2,0.5-0.3,0.6l-1.2,2.7c-0.7,1.4-1.4,2.3-2.1,2.5c-0.7,0.2-1.3,0.1-1.6-0.4c-0.3-0.5-0.4-1-0.3-1.6c0.1-0.3,0.4-1,1-2
		c0.6-1,1.2-2.2,2-3.5c0.7-1.3,1.4-2.9,2-4.6c0.6-1.7,1.1-3.5,1.6-5.3c0.4-1.8,0.7-3.3,0.9-4.4c0.2-1.1,0.3-2.2,0.4-3.1l0.2-2.3
		c0-0.5,0.1-0.9,0.3-1.2c0.2-0.3,0.5-0.5,1.1-0.6c0.6-0.1,1,0,1.2,0.4c0.3,0.3,0.5,0.9,0.5,1.8c0.1,0.9-0.1,2.4-0.4,4.3
		c-0.3,1.7-0.7,3.3-1,4.9C399.2,39.7,398.8,41.1,398.4,42.4 M435.9,42.7v-9.3c0-0.6-0.1-1.1-0.3-1.6c-0.2-0.5-0.8-0.7-1.8-0.7h-24.5
		c-0.9,0-1.5,0.3-1.7,0.7c-0.2,0.5-0.3,1-0.3,1.6v9.3c0,0.6,0.1,1.1,0.3,1.6c0.2,0.5,0.8,0.8,1.9,0.8h24.3c1.1,0,1.7-0.3,1.9-0.8
		C435.8,43.7,435.9,43.1,435.9,42.7z M419.3,53v-4.8h-10.8c-1.6,0-2.6-0.3-3.1-0.8c-0.5-0.5-0.8-1.1-1-1.7c-0.2-0.6-0.3-1.3-0.3-2
		v-11c0-0.9,0.1-1.6,0.3-2.2c0.2-0.6,0.6-1.1,1-1.6c0.5-0.5,1.5-0.7,2.9-0.7h26.4c0.8,0,1.5,0.1,2.1,0.3c0.6,0.2,1.1,0.4,1.3,0.7
		c0.3,0.3,0.5,0.7,0.7,1.3c0.2,0.6,0.3,1.3,0.3,2.3v10.9c0,0.8-0.1,1.5-0.3,2.1c-0.2,0.6-0.5,1.2-1,1.7c-0.4,0.5-1.5,0.8-3.2,0.8
		h-12.3V53h18.9c0.4,0,0.7,0.1,1,0.4c0.2,0.3,0.4,0.6,0.4,1.1c0,0.4-0.1,0.8-0.4,1.1c-0.3,0.3-0.7,0.4-1.1,0.4h-17.8
		c1.6,2.3,3.1,4.1,4.4,5.5c1.3,1.4,2.8,2.8,4.6,4.3c1.7,1.5,3.7,2.9,6,4.3l3.7,2.2c0.7,0.4,1.1,0.9,1.2,1.4c0,0.5-0.1,0.9-0.5,1.2
		c-0.4,0.3-0.9,0.4-1.6,0.4c-0.7-0.1-2.4-1-5.2-2.9c-2.8-1.8-5.4-3.9-7.8-6.2c-2.4-2.3-4.3-4.4-5.7-6.5v18.4c0,1.2-0.6,1.8-1.7,1.7
		c-0.5,0-0.8-0.1-1-0.4c-0.2-0.3-0.4-0.7-0.4-1.4V60.9c-0.6,0.7-1.2,1.5-2,2.4c-0.8,0.9-1.6,1.9-2.7,2.9c-1,1-1.9,1.9-2.8,2.6
		c-0.8,0.7-1.8,1.4-3,2.3c-1.2,0.9-2.5,1.7-3.8,2.6c-1.4,0.9-2.3,1.3-2.9,1.3c-0.6,0-1-0.2-1.3-0.5c-0.3-0.4-0.4-0.8-0.3-1.2
		c0.1-0.4,0.4-0.8,0.7-1c0.3-0.2,1-0.6,2-1.1c1-0.5,3.2-1.9,6.5-4.3c3.3-2.4,6.3-6,9.1-10.8H402c-0.3,0-0.7-0.1-1-0.4
		c-0.3-0.3-0.5-0.7-0.4-1.3c0-0.4,0.2-0.8,0.4-1c0.3-0.3,0.6-0.4,1-0.4H419.3z"/>
	<path class="st1" d="M490.8,54.4v-2c0-0.5-0.2-0.9-0.6-1.4c-0.4-0.5-1.2-0.7-2.5-0.7h-18.3c-1.2,0-1.9,0.1-2.4,0.4
		c-0.4,0.3-0.7,0.6-0.8,1c-0.1,0.3-0.1,0.7-0.1,1.1v1.7H490.8z M490.8,57.3H466v1.9c0,0.3,0.1,0.7,0.2,1.1c0.1,0.4,0.3,0.7,0.6,0.9
		c0.2,0.2,0.6,0.4,1.2,0.6c0.5,0.1,1,0.2,1.3,0.2h18.3c1.6,0,2.5-0.4,2.8-1.1c0.3-0.7,0.4-1.3,0.4-1.7V57.3z M479.8,65v3.4h15.5
		c0.4,0,0.8,0.1,1.1,0.4c0.3,0.3,0.5,0.7,0.4,1.2c0,0.4-0.2,0.7-0.5,1c-0.3,0.3-0.6,0.4-1,0.4h-15.5v6.5c0,0.3-0.1,0.6-0.4,0.9
		c-0.3,0.3-0.7,0.5-1.3,0.5c-0.6,0-1-0.2-1.2-0.5c-0.3-0.3-0.4-0.7-0.4-1v-6.4h-15.1c-0.3,0-0.7-0.1-1-0.4c-0.3-0.2-0.5-0.7-0.4-1.3
		c0-0.4,0.2-0.7,0.5-1c0.3-0.3,0.6-0.4,1-0.4h15V65h-7.5c-2.2,0-3.8-0.4-4.8-1.3c-0.9-0.9-1.4-2.2-1.4-3.9v-7.7c0-0.8,0.2-1.8,0.7-3
		c0.5-1.2,1.9-1.8,4.2-1.8h20.4c1.7,0,3,0.3,3.8,0.9c0.8,0.6,1.3,1.3,1.5,2c0.2,0.7,0.3,1.7,0.3,2.9v6.6c0,0.9-0.2,2-0.7,3.2
		c-0.5,1.3-2.1,1.9-4.9,1.9H479.8z M446,77.2V32c0-0.8,0-1.4,0.1-2c0.1-0.5,0.4-1.1,1-1.7c0.6-0.6,1.7-0.9,3.4-0.9l6,0
		c2.7,0,4,1,3.9,3c0,0.4-0.1,1.1-0.3,1.9c-0.2,0.8-0.5,1.8-0.8,3c-0.3,1.1-0.7,2.6-1.3,4.4c-0.5,1.8-0.9,3.1-1.1,3.9
		c-0.2,0.8-0.3,1.4-0.2,1.7c0,0.3,0.4,1,1.1,2.1c0.7,1.1,1.2,2,1.6,2.9c0.4,0.8,0.7,1.8,0.9,2.8c0.2,1,0.3,2.1,0.3,3.2
		c0,1.1-0.2,2.4-0.6,4c-0.4,1.6-1.3,2.7-2.7,3.4c-1.4,0.7-3.1,1-4.9,0.9c-1.9-0.1-2.7-0.9-2.6-2.4c0.1-1,0.7-1.6,1.6-1.6l1.7,0.3
		c0.6,0.1,1.1,0,1.7-0.2c0.6-0.2,1-0.6,1.4-1.1c0.4-0.5,0.7-1.3,0.7-2.3c0.1-1,0-2-0.1-2.9c-0.1-0.9-0.3-1.7-0.6-2.3
		c-0.3-0.6-0.6-1.4-1.2-2.3c-0.5-0.9-1-1.7-1.4-2.5c-0.4-0.7-0.6-1.3-0.7-1.7c0-0.4,0-0.9,0.2-1.6c0.1-0.6,0.5-1.8,1.1-3.7
		c0.6-1.9,1.1-3.6,1.4-5c0.3-1.4,0.6-2.3,0.8-2.8c0.2-0.5,0.2-0.9,0.2-1.1c-0.1-0.4-0.6-0.7-1.3-0.7h-4c-1,0-1.6,0.2-1.8,0.5
		c-0.2,0.3-0.3,0.8-0.3,1.5V77c0,0.4-0.1,0.7-0.4,1.1c-0.3,0.3-0.7,0.5-1.3,0.5c-0.5,0-0.9-0.1-1.1-0.4
		C446.2,77.9,446,77.6,446,77.2z M471,33.7c1.2,2.7,2.2,5.2,3.1,7.5h8.6c1.2-3.1,1.8-5,1.9-5.7l0.3-1.7H471z M467.5,33.7h-4.6
		c-0.3,0-0.6-0.1-1-0.4c-0.3-0.2-0.5-0.6-0.4-1.2c0-0.5,0.2-0.9,0.5-1.2c0.3-0.2,0.6-0.4,1-0.4l14.3,0c-0.1-0.5-0.1-0.9-0.2-1.1
		l-0.6-1.9c0-0.5,0.1-0.9,0.5-1.2c0.3-0.4,0.9-0.5,1.6-0.5c0.7,0,1.3,0.5,1.6,1.4l0.4,1.5c0.2,0.8,0.3,1.2,0.3,1.2l0.1,0.7l12.7,0
		c0.9,0,1.4,0.4,1.4,1.1c0,0.7-0.1,1.2-0.4,1.5c-0.3,0.3-0.6,0.4-1.1,0.4h-5.2c-0.4,1.3-0.7,2.5-1,3.6c-0.3,1.1-0.8,2.4-1.4,3.9h8.4
		c0.4,0,0.8,0.1,1.1,0.4c0.3,0.3,0.5,0.7,0.4,1.3c0,0.4-0.2,0.7-0.5,1c-0.3,0.3-0.6,0.4-1.1,0.4h-33c-0.3,0-0.7-0.1-1-0.4
		c-0.3-0.2-0.5-0.7-0.4-1.3c0-0.4,0.2-0.8,0.5-1c0.3-0.3,0.6-0.4,1-0.4h8.9c-0.3-1-0.7-2.1-1.2-3.5c-0.5-1.3-0.8-2.1-1-2.4
		L467.5,33.7z"/>
	<path class="st1" d="M534.6,42.6h13.5c0.3,0,0.7,0.1,1,0.4c0.3,0.3,0.4,0.7,0.4,1.3c-0.1,1-0.5,1.5-1.4,1.5h-13.5v31.5
		c0,0.3-0.1,0.6-0.4,1c-0.3,0.3-0.7,0.5-1.3,0.5c-0.6,0-1-0.1-1.2-0.4c-0.2-0.3-0.3-0.6-0.3-1V45.9h-14.8c-0.9,0-1.4-0.4-1.5-1.1
		c-0.1-0.7,0-1.3,0.3-1.6c0.3-0.3,0.7-0.5,1.2-0.5h14.8V28.2c0-0.4,0.2-0.7,0.5-1c0.3-0.3,0.7-0.4,1.2-0.4c0.6,0,1,0.2,1.2,0.5
		c0.2,0.3,0.3,0.6,0.3,0.9V42.6z M506.6,31.2l2.4,2.7c2.6,3.1,3.9,5.2,3.9,6.1c0,0.5-0.3,1-0.9,1.5c-0.6,0.6-1.3,0.4-2.2-0.4
		c-0.2-0.2-0.6-0.7-1.2-1.6c-0.6-0.9-1.3-1.9-2.2-2.9l-2.6-3c-0.7-0.9-1.4-1.5-1.9-2c-0.5-0.5-0.9-0.8-1-1.1
		c-0.2-0.3-0.3-0.6-0.3-1.1c0-0.4,0.2-0.8,0.6-1.2c0.4-0.3,0.8-0.5,1.3-0.4c0.7,0.1,1.5,0.7,2.6,1.8L506.6,31.2z M507.2,72.8
		c1-1,2-1.9,3-2.9c1-0.9,1.8-1.8,2.5-2.7c0.7-0.9,1.3-1.5,1.6-1.8c0.3-0.3,0.8-0.6,1.4-0.7c0.6-0.1,1.1,0,1.5,0.4
		c0.4,0.4,0.5,1,0.3,1.6c-0.1,0.5-0.5,1-1.3,1.8l-2.2,2.3c-0.7,0.8-2,2-3.8,3.8c-1.8,1.7-3,2.8-3.6,3.2c-0.6,0.4-1.2,0.6-1.7,0.6
		c-0.6,0-1-0.1-1.5-0.5c-0.4-0.4-0.5-1-0.3-1.8l0.6-1.7l0.5-23c0-1.7-0.7-2.6-2.4-2.6h-2.5c-0.5,0-0.8-0.1-1.1-0.4
		c-0.2-0.3-0.4-0.7-0.4-1.2c0-0.5,0.2-1,0.5-1.3c0.4-0.3,0.7-0.5,0.9-0.5h3.8c2.1,0,3.4,0.6,3.8,1.8c0.4,1.2,0.6,2.3,0.6,3.2
		L507.2,72.8z"/>
	<path class="st1" d="M589,31.3v36.5c0,1.1-0.5,1.7-1.5,1.7c-0.5,0-0.8-0.2-1.1-0.5c-0.3-0.3-0.4-0.7-0.4-1.2V31.3
		c0-0.4,0.1-0.8,0.4-1.1c0.3-0.3,0.7-0.5,1.2-0.5c0.3,0,0.7,0.2,1,0.5C588.9,30.5,589,30.9,589,31.3 M597,28.6
		c0.1-0.4,0.2-0.7,0.4-0.9c0.2-0.2,0.5-0.4,1.1-0.4c0.5-0.1,1,0.1,1.3,0.4c0.3,0.3,0.4,0.6,0.4,0.9l0,43.7c0,1.1-0.3,2.4-0.9,3.8
		c-0.6,1.4-2.2,2.1-4.9,2.2c-0.8,0-1.7,0-2.9-0.3c-1.2-0.2-2.1-0.4-2.8-0.7c-0.7-0.3-1.2-0.6-1.6-0.9c-0.3-0.3-0.5-0.7-0.5-1.2
		c0-0.4,0.2-0.8,0.5-1.1c0.4-0.3,0.8-0.4,1.4-0.4c0.2,0,0.7,0.2,1.6,0.5c0.8,0.3,1.4,0.5,1.9,0.6c0.4,0.1,1.1,0.2,1.9,0.2
		c0.8,0,1.4-0.1,1.9-0.5c0.4-0.3,0.7-0.8,0.9-1.5c0.2-0.7,0.3-1.5,0.3-2.3L597,28.6z M567.5,28.9c0.3-0.3,0.6-0.4,1.1-0.5
		c0.4-0.1,1.2,0.2,2.2,0.7l2.2,1.3c1.6,1,2.8,1.8,3.7,2.4c0.9,0.7,1.4,1.3,1.5,1.9c0.1,0.6,0,1.1-0.4,1.4c-0.4,0.4-0.8,0.5-1.3,0.5
		c-0.3,0-0.6-0.1-1-0.3l-1.9-1.5c-0.2-0.1-0.9-0.6-2-1.3c-1.1-0.7-2.1-1.2-2.8-1.6c-0.7-0.3-1.2-0.6-1.4-0.9
		c-0.3-0.3-0.4-0.7-0.4-1.1C567.1,29.6,567.2,29.2,567.5,28.9z M561,42.8l-6.8,0.7c-0.5,0.1-0.8,0-1.1-0.2c-0.3-0.2-0.5-0.5-0.5-1
		c-0.1-0.5,0-0.9,0.3-1.3c0.3-0.4,0.6-0.6,0.9-0.6l6.8-0.8c-0.3-1.5-0.5-2.6-0.6-3.4l-0.5-2.7l-0.5-2.7c-0.1-0.7-0.2-1.2-0.3-1.6
		c0-0.3-0.1-0.7-0.1-1.1c0-0.4,0.1-0.7,0.2-0.9c0.2-0.2,0.5-0.4,1-0.5c0.5-0.1,0.9-0.1,1.2,0.1c0.3,0.2,0.5,0.5,0.6,0.9
		c0.1,0.4,0.3,1,0.4,1.8c0.1,0.8,0.3,2.2,0.7,4.1l0.6,3.6l0.4,1.9l17.5-2c0.4,0,0.8,0.1,1.2,0.3c0.4,0.2,0.5,0.7,0.5,1.3
		c-0.1,0.9-0.5,1.4-1.4,1.5l-17.2,1.9c0.4,2,0.8,3.9,1.3,5.9c0.4,1.9,0.8,3.2,0.9,3.8c0.2,0.6,0.7,2.5,1.8,5.6c1-1.2,1.8-2,2.2-2.7
		l2.1-3.3c0.8-1.3,1.6-2.6,2.4-3.9c0.8-1.3,1.3-2.3,1.5-2.8c0.2-0.5,0.4-0.9,0.6-1.1c0.2-0.2,0.6-0.3,1.2-0.5
		c0.7-0.1,1.1,0.1,1.3,0.7c0.2,0.6,0.3,1,0.2,1.4c-0.1,0.3-0.6,1.4-1.6,3.2c-0.9,1.8-2,3.6-3.3,5.5c-1.3,1.9-2.2,3.2-2.7,3.8
		l-2.7,3.3c1.2,2.7,2,4.5,2.4,5.3c0.5,0.8,1.2,2,2.3,3.5c1,1.5,2,2.1,2.9,2c0.3,0,0.6-0.2,0.9-0.5c0.3-0.3,0.5-0.8,0.7-1.5
		c0.2-0.7,0.4-1.6,0.6-2.9l0.7-4.1c0.2-1.3,0.4-2.2,0.4-2.5c0.1-0.4,0.2-0.7,0.4-1.1c0.2-0.3,0.7-0.6,1.6-0.7
		c0.9-0.2,1.3,0.5,1.2,2.1c0,0.6-0.2,1.8-0.5,3.6c-0.3,1.8-0.5,3.1-0.6,3.9c-0.1,0.8-0.4,1.9-0.8,3.2c-0.4,1.3-0.9,2.4-1.4,3.2
		c-0.5,0.8-1.4,1.2-2.6,1.2c-1.5,0-2.9-0.7-4.4-2.1c-1.4-1.4-2.6-2.8-3.5-4.2c-0.9-1.4-1.8-3.2-2.9-5.5c-2.5,2.5-4.3,4.3-5.4,5.3
		c-1.1,1-2.6,2.1-4.2,3.3c-1.7,1.2-2.9,1.8-3.6,1.8c-0.4,0-0.7-0.1-1-0.4c-0.3-0.2-0.4-0.7-0.4-1.2c0.1-0.6,0.9-1.4,2.4-2.4
		c1.6-1,3.4-2.4,5.4-4.2c2-1.8,3.9-3.8,5.8-6c-0.5-1.4-1-2.7-1.4-4.1c-0.4-1.3-0.9-3-1.4-5C562.4,49.3,561.8,46.5,561,42.8z"/>
	<path class="st1" d="M191.4,30.9c0.3,0.6,0.4,1.2,0.5,2c0.1,0.7,0.1,1.3-0.2,1.9c-0.2,0.5-0.7,1-1.3,1.3c-0.7,0.4-1.4,0.5-2.1,0.2
		c-0.6-0.1-1.1-0.5-1.5-0.9l-1.1-2l-1-1.6c-0.5-0.8-0.6-1.6-0.4-2.4c0.3-1.1,1.1-1.8,2.4-2c1.3-0.2,2.4,0.3,3.2,1.3
		C190.7,29.8,191.2,30.5,191.4,30.9 M220.6,67.8h-6v3.9h4.5c1,0,1.5-0.6,1.5-1.7V67.8z M220.6,62.2v-1.9c0-0.6-0.1-1.1-0.3-1.5
		c-0.2-0.3-0.6-0.5-1.2-0.5h-4.6v3.9H220.6z M208.7,67.8h-6v2.4c0,0.5,0.1,0.9,0.3,1.2c0.2,0.2,0.6,0.3,1.3,0.3h4.4V67.8z
		 M202.7,62.2h6v-3.9h-4.4c-0.7,0-1.1,0.2-1.3,0.6c-0.2,0.4-0.3,0.9-0.3,1.5V62.2z M196.5,71.5V59.9c0-1.2,0.1-2.2,0.4-3.2
		c0.3-0.9,0.9-1.8,1.8-2.7c0.9-0.9,2.9-1.3,6-1.3h14.5c4.2,0,6.5,0.9,7,2.6c0.5,1.8,0.7,3.2,0.7,4.3v9.5c0,1.5-0.1,3.2-0.4,5.2
		c-0.3,2-2.8,3-7.6,3h-14.6c-2,0-3.7-0.4-5-1.1c-1.3-0.7-2.1-1.5-2.4-2.2C196.6,73.4,196.5,72.5,196.5,71.5z M207.6,45.1h8.1
		c1.1,0,1.7-0.4,1.7-1.2V43c0-0.8-0.4-1.2-1.3-1.2h-9.3c-1,0-1.5,0.5-1.5,1.6V44C205.3,44.8,206,45.1,207.6,45.1z M206.4,36.6h9.7
		c2.5,0,4.4,0.4,5.5,1.2c1.2,0.8,1.7,2,1.7,3.8v3.5c0,0.7-0.3,1.8-0.9,3.2c-0.6,1.4-2.7,2.1-6.4,2.1h-9.9c-2.7,0-4.3-0.3-5-1
		c-0.7-0.6-1.1-1.4-1.3-2.2c-0.2-0.8-0.3-1.6-0.3-2.2v-3c0-0.5,0.1-1.2,0.3-2.1c0.2-0.9,0.8-1.7,1.6-2.4
		C202.2,37,203.9,36.6,206.4,36.6z M197.5,28.7h27.6c0.7,0,1.3,0.2,1.9,0.7c0.6,0.5,0.8,1.2,0.8,2.2c0,1-0.3,1.7-0.9,2.1
		c-0.6,0.4-1.2,0.6-1.7,0.6l-27.6,0.1c-0.4,0-0.9-0.2-1.6-0.7c-0.6-0.5-0.9-1.4-0.7-2.6c0.1-0.8,0.4-1.4,0.9-1.8
		C196.5,28.9,197,28.7,197.5,28.7z M190.1,50.2v1.4c0.7-0.6,1.4-0.9,2.1-0.9c1,0.1,1.9,0.7,2.6,1.8c0.7,1.2,1.2,2.3,1.4,3.3
		c0.2,1.1,0.1,1.9-0.4,2.6c-0.5,0.6-1,1-1.6,1.2c-0.6,0.2-1.1,0.2-1.5,0c-0.5-0.1-0.9-0.4-1.1-0.7c-0.2-0.3-0.7-1.4-1.6-3.2v20.3
		c0,1.7-1,2.6-3,2.7c-2,0.1-3-0.8-3-2.7V56.8c-2.2,2-3.9,2.9-5.3,2.6c-0.6-0.1-1.2-0.4-1.8-0.9c-0.6-0.5-0.9-1.3-0.9-2.2
		c0-0.9,0.4-1.8,1.3-2.6c0.2-0.1,0.8-0.5,1.8-1.1c1-0.6,2.1-1.5,3.3-2.7c1.2-1.2,2.1-2.2,2.8-3.1l1.5-2.1c0.5-0.7,0.7-1.1,0.6-1.4
		c-0.2-0.3-0.5-0.4-0.9-0.4h-6.9c-0.4,0-1.1-0.2-1.9-0.5c-0.8-0.3-1.2-1.2-1-2.5c0-0.9,0.4-1.6,1.1-2c0.7-0.4,1.3-0.6,1.8-0.6h10.1
		c2.6,0,4.1,0.7,4.7,1.9c0.6,1.3,0.6,2.7,0.1,4.1C194,44.4,192.6,46.7,190.1,50.2z"/>
	<path class="st1" d="M251.4,55.7c0.1-0.8,0.5-1.5,1.4-2c0.8-0.5,1.8-0.6,2.7-0.2c1,0.5,1.9,1.7,2.7,3.6c0.8,1.9,1.2,3.2,1.1,3.8
		c0,0.6-0.5,1.2-1.4,1.8c-0.9,0.6-1.8,0.6-2.7,0.2c-0.4-0.1-0.7-0.4-0.9-0.7c-0.2-0.3-0.7-1.2-1.4-2.6c-0.7-1.4-1.2-2.4-1.3-2.8
		C251.4,56.3,251.3,55.9,251.4,55.7 M269.7,44.8l0.3-2.6h-14.3c-0.9,0-1.6-0.2-2-0.7c-0.5-0.5-0.7-1.1-0.7-1.8
		c0-0.7,0.2-1.4,0.7-1.9c0.5-0.5,1.2-0.8,2.1-0.8l14.5-0.1l0.1-0.9c0.1-1.2-0.4-1.8-1.6-1.8h-14.1c-0.8,0-1.6-0.3-2.1-0.8
		c-0.6-0.5-0.9-1.2-0.8-2.1c0-0.7,0.3-1.3,0.9-1.8c0.6-0.6,1.3-0.9,2.1-0.9h16.1c1.5,0,2.8,0.1,3.8,0.4c1,0.3,1.6,0.9,1.7,2
		c0.2,1,0.2,2,0.2,2.8l-0.7,10.8h2.6c0.9,0,1.6,0.3,2,0.9c0.4,0.6,0.7,1.2,0.7,1.9c0.1,0.7-0.2,1.3-0.6,1.9
		c-0.5,0.6-1.2,0.9-2.1,0.9h-10.6V55c0.4,1.3,0.7,2.1,0.9,2.4l1,1.6c0.6-0.6,1.1-1.1,1.3-1.3c0.3-0.3,0.8-0.9,1.6-2
		c0.8-1.1,1.4-1.7,1.8-1.9c0.4-0.2,0.9-0.3,1.6-0.2c0.7,0.1,1.3,0.4,1.9,1c0.6,0.6,0.9,1.2,0.9,1.9c0,0.7-0.3,1.5-0.9,2.4
		c-0.6,0.9-2.2,2.5-4.9,4.9c0.6,0.8,1.3,1.6,1.9,2.2c0.7,0.6,1.9,1.4,3.8,2.4c1.9,1,3,1.8,3.5,2.5c0.5,0.7,0.3,1.7-0.4,3
		c-0.8,1.3-1.8,1.9-3.1,1.8c-0.9,0-2.4-0.9-4.6-2.7c-2.1-1.8-3.4-2.9-3.7-3.4l-2.5-3v6.1c0,1.6-0.2,2.8-0.6,3.8
		c-0.4,1-1.5,1.6-3.2,2c-1.7,0.4-3,0.5-4,0.4c-1.8-0.1-2.9-0.9-3.2-2.1c-0.3-1.3-0.2-2.3,0.2-3c0.2-0.4,0.5-0.7,0.9-0.9
		c0.4-0.2,1-0.4,1.8-0.4c0.8,0,1.3-0.1,1.4-0.3c0.2-0.2,0.3-0.7,0.3-1.7V50.3h-9.9c-0.8,0-1.5-0.2-2-0.7c-0.5-0.5-0.8-1.1-0.9-1.9
		c-0.1-0.8,0.2-1.5,0.7-2.1c0.5-0.6,1.3-0.9,2.2-0.9H269.7z M257.8,64.4c1.4,0.2,2.2,0.8,2.4,1.9c0.3,1,0.1,1.9-0.6,2.6
		c-0.7,0.7-2.6,1.8-5.7,3.3c-3.1,1.6-5.2,2.3-6.1,2c-1-0.2-1.6-0.6-1.9-1.3c-0.3-0.7-0.4-1.3-0.3-1.8c0.1-0.9,0.3-1.6,0.8-1.9
		c0.5-0.4,1.3-0.7,2.4-1c1.1-0.3,2.2-0.8,3.3-1.3c1.1-0.5,2-1.1,3-1.7C256,64.6,256.9,64.3,257.8,64.4z M243.4,50.3V52
		c1.4-1,2.7-1,4-0.1c0.9,0.7,1.6,1.9,2.1,3.6c0.5,1.7,0.8,2.8,0.7,3.3c-0.3,1.5-1.3,2.3-3.1,2.4c-1,0.1-1.7-0.3-2.2-1.1l-1-2.9
		l-0.5-1.1v20c0,0.7-0.3,1.2-0.8,1.7c-0.5,0.5-1.3,0.8-2.3,0.8c-1,0-1.7-0.3-2.2-0.9c-0.4-0.6-0.7-1.2-0.7-1.6V56.6
		c-2.7,2.6-4.6,4-5.6,4.1c-1,0.1-1.8-0.2-2.5-0.9c-0.6-0.7-1-1.7-1-2.7c0-1,0.3-1.7,0.8-2.1c0.5-0.4,1.4-1,2.6-1.7
		c1.2-0.7,2.7-1.9,4.5-3.6c1.7-1.7,3-3.2,3.6-4.4c0.7-1.2,1-1.9,0.9-2.1c-0.1-0.2-0.4-0.3-1.1-0.3h-6.3c-0.8,0-1.5-0.3-2.1-0.8
		c-0.6-0.5-0.9-1.2-1-1.9c0-0.8,0.3-1.4,0.9-2c0.6-0.6,1.3-0.9,2.1-0.9h10.1c2.8,0,4.3,0.8,4.6,2.4c0.3,1.6,0.1,3-0.4,4.2
		C247.2,44.8,245.8,46.9,243.4,50.3z M236.9,27.9c0.2-0.4,0.7-0.9,1.5-1.3c0.8-0.5,1.8-0.5,2.8,0c0.8,0.4,1.6,1.4,2.6,3.1
		c1,1.6,1.5,2.8,1.7,3.6c0.1,0.7,0,1.4-0.3,2c-0.3,0.5-0.7,0.9-1.2,1.3c-0.6,0.4-1.2,0.5-1.9,0.5c-1.2,0-2.1-0.6-2.8-1.8l-1.1-2
		c-0.9-1.4-1.5-2.5-1.7-3.1C236.4,29.4,236.5,28.7,236.9,27.9z"/>
	<path class="st1" d="M284.6,70.6c0.9-2.5,1.6-4.4,2.1-6c0.5-1.5,0.8-2.9,1.1-4.2c0.3-1.3,0.5-2.4,0.7-3.2c0.2-0.8,0.9-1.4,2-1.6
		c1.6-0.3,2.7,0,3.1,1c0.4,1,0.6,1.6,0.7,2c0,0.4,0,0.8-0.1,1.3c-0.1,0.8-0.5,2.3-1,4.3c-0.5,2-0.9,3.9-1.3,5.7
		c-0.4,1.8-1.1,3.4-2.1,5c-1,1.6-2.4,1.7-4.1,0.5c-0.6-0.4-1-1-1.3-1.8C284.1,72.8,284.1,71.8,284.6,70.6 M294.7,48
		c0.2,0.6,0.3,1.2,0.1,1.8c-0.1,0.6-0.5,1.2-1.1,1.7c-0.6,0.5-1.2,0.7-1.7,0.7c-0.6,0-1.6-0.3-3-1.2c-1.4-0.8-2.4-1.5-3.2-1.9
		c-0.7-0.5-1.1-0.9-1.3-1.3c-0.1-0.4-0.1-0.8-0.1-1.2c0-0.4,0.3-1.1,0.8-2.2c0.5-1.1,1.8-1.2,3.8-0.5c0.1,0.1,0.8,0.4,2,1.1
		c1.2,0.7,2.1,1.2,2.5,1.6C294.1,47,294.5,47.5,294.7,48z M322.5,60c0.6-0.3,1.2-0.2,1.9,0.3c0.7,0.6,1.6,1.9,2.7,3.9v-6.2
		c0-0.3-0.1-0.7-0.2-1.2c-0.1-0.5-0.8-0.7-2-0.7h-2c-0.1,1-0.2,1.6-0.2,1.8L322.5,60z M317.3,50.7v-3H312l-0.1,3H317.3z M316.3,63.1
		c0.3-0.8,0.4-1.5,0.5-1.9l0.2-2l0.2-2.2V56h-5.4c-0.1,1-0.2,1.9-0.3,2.8c0.7-0.5,1.3-0.5,1.9,0.1c0.6,0.5,1.2,1.3,1.7,2.3
		C315.7,62.1,316.1,62.8,316.3,63.1z M306.2,56h-2.1c-1,0-1.5,0.7-1.5,2v7.8c1.2-1.4,2-2.9,2.6-4.5c0.5-1.6,0.9-2.9,0.9-3.6
		L306.2,56z M327.1,66.9c-0.8,1.2-1.7,1.7-2.7,1.4c-0.6-0.2-1.5-1.3-2.7-3.4c-0.2,0.8-0.4,1.5-0.6,2.1c-0.2,0.6-0.8,1.9-1.9,3.8
		c-1.1,1.9-2.2,3.1-3.2,3.6c-1.1,0.5-2.2,0.6-3.3,0.2c-1.2-0.3-1.7-1.1-1.6-2.2c0.1-1.1,0.3-1.9,0.8-2.5l1.4-1.2
		c0.7-0.7,1.6-1.8,2.5-3.6c-1.2,1.4-2.1,1.9-2.7,1.4c-0.7-0.5-1.1-0.9-1.3-1.3l-0.4-0.9l-0.7-1c-1.5,3.7-2.7,6.1-3.6,7.2
		c-1,1.1-1.8,1.5-2.6,1.2c-0.8-0.3-1.4-0.9-1.8-1.7v5.3c0,0.7-0.3,1.2-0.9,1.7c-0.6,0.5-1.3,0.8-2.1,0.9c-0.8,0.1-1.5-0.1-2.2-0.7
		c-0.6-0.6-1-1.2-1-2v-18c0-0.6,0.1-1.4,0.2-2.5c0.1-1.1,0.7-2,1.8-2.8c1.1-0.8,2.9-1.2,5.5-1.2h2.4v-3h-8.1c-0.6,0-1.2-0.2-1.9-0.6
		c-0.7-0.4-1-1.1-0.9-2.1c0-0.7,0.3-1.3,0.9-1.9c0.6-0.5,1.3-0.8,2.1-0.8h33.9c0.7,0,1.3,0.3,1.8,0.9c0.5,0.6,0.7,1.2,0.7,1.8
		c0,1.1-0.4,1.9-1,2.2c-0.6,0.3-1.1,0.5-1.5,0.5h-9.1l-0.2,3h3.2c2.8,0,4.5,0.4,5.2,1.1c0.7,0.7,1.2,1.6,1.4,2.5
		c0.3,0.9,0.4,1.9,0.4,3v14.7c0,1.1-0.2,2.3-0.5,3.5c-0.3,1.2-1,1.9-2.1,2.2c-1.1,0.3-2.5,0.6-4.2,0.9c-1.7,0.3-2.9,0.1-3.5-0.3
		c-0.4-0.3-0.8-0.8-1-1.4c-0.2-0.6-0.3-1.2-0.2-1.8c0-0.8,0.2-1.5,0.5-1.9c0.3-0.4,0.7-0.7,1.1-0.7c0.4-0.1,1-0.1,1.8-0.1
		c0.8,0,1.4-0.2,1.6-0.4c0.2-0.3,0.4-0.7,0.4-1.5V66.9z M286.3,33.1c-0.4-0.6-0.5-1.2-0.4-1.9c0.1-0.7,0.5-1.4,1.2-2
		c0.7-0.6,1.6-0.8,2.7-0.6c0.8,0.2,1.9,0.9,3.1,1.9c1.2,1.1,2,1.8,2.3,2.2c0.3,0.4,0.5,0.9,0.6,1.7c0.1,0.7-0.3,1.5-1.1,2.2
		c-0.8,0.7-1.6,1-2.5,0.9c-0.5,0-1-0.3-1.5-0.7l-2.1-1.7C287.2,34.1,286.4,33.4,286.3,33.1z M304.7,31.7v-2.6c0-0.6,0.4-1.2,1.1-1.6
		c0.7-0.5,1.4-0.7,2.2-0.7c1.2,0.1,1.9,0.4,2.3,1c0.4,0.6,0.5,1,0.5,1.3v2.6h7.1v-2.5c0-0.5,0.3-1,0.9-1.4c0.6-0.4,1.3-0.7,2.2-0.7
		c0.8-0.1,1.5,0.1,2.1,0.6c0.6,0.4,0.8,1,0.8,1.7v2.4h7.5c0.7,0,1.3,0.3,1.8,0.9c0.5,0.6,0.7,1.6,0.8,2.8c0,1.2-0.8,1.9-2.4,1.9H324
		v1.6c0,0.7-0.3,1.3-1,1.8c-0.6,0.5-1.4,0.8-2.3,0.9c-0.9,0.1-1.6-0.2-2.1-0.9c-0.5-0.7-0.7-1.3-0.7-1.9v-1.6h-7.1v1.8
		c0,0.7-0.4,1.2-1.1,1.7c-0.7,0.5-1.5,0.7-2.4,0.8c-0.9,0-1.5-0.2-2-0.8c-0.4-0.6-0.7-1.1-0.7-1.6v-1.9h-6.3c-0.6,0-1.2-0.2-1.7-0.7
		c-0.5-0.5-0.7-1.2-0.7-2c0-1.1,0.3-1.8,0.9-2.2c0.6-0.4,1.1-0.6,1.6-0.6H304.7z"/>
	<path class="st1" d="M354,36.9c-0.5,0.5-1.2,0.8-2,0.9c-0.9,0.1-1.6-0.1-2.1-0.4c-0.3-0.1-0.6-0.5-1-1.1c-0.4-0.6-1-1.2-1.8-1.9
		c-0.8-0.7-1.3-1.2-1.5-1.6c-0.3-0.4-0.3-0.9-0.3-1.7c0.1-0.7,0.4-1.4,1.1-1.9c0.6-0.5,1.4-0.8,2.3-0.7c1.1,0.1,2.2,0.9,3.5,2.1
		c1.2,1.3,2,2.1,2.2,2.6c0.3,0.5,0.4,1.1,0.4,1.8C354.7,35.8,354.4,36.4,354,36.9 M367.8,51.3h-10.9c-1,0-1.5,0.4-1.5,1V53
		c0,0.6,0.5,0.8,1.5,0.8h10.9c0.8,0,1.3-0.1,1.5-0.2c0.2-0.1,0.3-0.4,0.3-0.8v-0.6C369.7,51.6,369.1,51.3,367.8,51.3z M360.8,59.2
		h-4.3c-2.6,0-4.4-0.4-5.5-1.3c-1.1-0.8-1.6-2.1-1.6-3.8v-2.5c0-2,0.5-3.4,1.6-4.3c1.1-0.9,2.9-1.4,5.5-1.4h12.7
		c3.9,0,6,0.8,6.4,2.3c0.4,1.5,0.6,2.6,0.6,3.5v2.5c0,0.8-0.2,1.5-0.5,2.2c-0.3,0.7-0.9,1.4-1.7,2c-0.8,0.6-2.6,0.9-5.3,0.9h-3.7
		c0.7,0.6,1.1,1.3,1.2,2.2l0.1,1.6h11.9c0.8,0,1.5,0.3,2.2,0.8c0.7,0.6,1,1.3,1,2.1c0,0.8-0.4,1.5-1,2c-0.7,0.5-1.4,0.8-2.1,0.8
		h-11.9v3.2H384c0.8,0,1.5,0.3,2.2,0.8c0.7,0.5,1,1.2,1,2.1c0,0.8-0.4,1.4-1,2c-0.6,0.6-1.3,0.9-2.2,0.9h-42.7c-1,0-1.7-0.3-2.2-0.9
		c-0.5-0.6-0.8-1.2-0.8-2c0-0.8,0.3-1.5,0.9-2c0.6-0.5,1.3-0.8,2.1-0.8h18.4v-3.2h-12.5c-0.9,0-1.7-0.3-2.3-0.9
		c-0.7-0.6-1-1.3-1-2.2c0-0.8,0.3-1.4,1-1.9c0.7-0.5,1.4-0.8,2.3-0.8h12.6v-1.6C359.8,60.6,360.1,59.8,360.8,59.2z M374.3,38l4.1,0
		c3.4,0.1,5.5,0.4,6.4,1.1c0.9,0.7,1.3,2.2,1.3,4.6V49c0,0.6-0.2,1.2-0.7,1.8c-0.5,0.6-1.2,0.9-2.3,1c-1.1,0.1-1.9-0.2-2.5-0.9
		c-0.6-0.6-0.9-1.3-0.9-1.8l0.1-2.8c0-0.8-0.1-1.3-0.2-1.5c-0.1-0.3-0.3-0.4-0.5-0.6c-0.2-0.1-0.8-0.2-1.8-0.2H348
		c-1,0-1.6,0.1-1.8,0.2c-0.2,0.1-0.3,0.3-0.4,0.5c-0.1,0.2-0.1,0.7-0.1,1.4l0,3c0,0.7-0.4,1.4-1,2c-0.6,0.6-1.5,0.9-2.5,0.8
		c-0.9-0.1-1.6-0.4-2.1-1c-0.5-0.6-0.7-1.2-0.7-1.8v-5.3c0-2.3,0.5-3.8,1.4-4.6c0.9-0.7,2.8-1.1,5.5-1.2l13.1,0v-8.7
		c0-0.8,0.3-1.5,0.9-2.2c0.6-0.6,1.5-1,2.6-1c1.1,0,2,0.3,2.5,1.1c0.6,0.7,0.9,1.4,0.9,2.1V38h4.4c-0.7-0.5-1.1-1.2-1.1-1.9
		c0-0.8,0.2-1.4,0.7-2c0.1-0.1,0.5-0.4,1.2-1.1c0.7-0.6,1.3-1.5,2-2.6c0.6-1.1,1.1-1.8,1.5-2.1c0.4-0.3,0.9-0.5,1.6-0.6
		c0.7-0.1,1.4,0.1,2.2,0.5c0.7,0.4,1.2,1.1,1.2,1.9c0.1,0.9,0,1.6-0.3,2.2c-0.2,0.4-0.7,1.2-1.6,2.4c-0.9,1.2-1.6,2-2,2.4
		C375.4,37.3,374.9,37.6,374.3,38z"/>
	<rect y="0" class="st2" width="640" height="102.1"/>
</g>
<g>
</g>
<g>
</g>
<g>
</g>
<g>
</g>
<g>
</g>
<g>
</g>
<g>
</g>
<g>
</g>
<g>
</g>
<g>
</g>
<g>
</g>
<g>
</g>
<g>
</g>
<g>
</g>
<g>
</g>
</svg>
