<?xml version="1.0" encoding="utf-8"?>
<!-- Generator: Adobe Illustrator 17.0.0, SVG Export Plug-In . SVG Version: 6.00 Build 0)  -->
<!DOCTYPE svg PUBLIC "-//W3C//DTD SVG 1.1//EN" "http://www.w3.org/Graphics/SVG/1.1/DTD/svg11.dtd">
<svg version="1.1" id="Layer_1" xmlns="http://www.w3.org/2000/svg" xmlns:xlink="http://www.w3.org/1999/xlink" x="0px" y="0px"
	 width="640px" height="210px" viewBox="0 0 640 210" style="enable-background:new 0 0 640 210;" xml:space="preserve">
<style type="text/css">
	.st0{fill:#3E3A39;}
	.st1{fill:#AA192A;}
	.st2{fill:none;}
</style>
<g id="page-4-title.svg">
	<path class="st0" d="M332.2,143.9c1.4,0.8,2.6,1.8,3.8,2.9c0-0.3,0.1-0.4,0.3-0.4c0.4-1.1,0.8-2.1,1.4-3.1l0.1-0.1l1.1-1.9l0.1-0.1
		c0-0.1,0.2-0.5,0.5-1.1c0.1-0.1,0.1-0.2,0.1-0.3c0,0,0,0-0.1,0c-0.4,0-1.3,0.5-2.9,1.4c-0.8,0.5-1.3,0.7-1.5,0.8
		c-0.8,0.5-1.4,0.9-1.8,1c0,0-0.1,0.1-0.3,0.3C332.6,143.5,332.3,143.8,332.2,143.9 M329.1,156.2c0.1-0.8,0.2-1.4,0.4-1.8
		c0,0.1,0,0.5,0.1,1.1c0.1,0.5,0.1,0.9,0.1,1c0,0.5,0.1,0.8,0.3,0.8c0.1,0,0.1,0,0.1,0c0.1-0.1,0.1-0.1,0.1-0.1
		c1.4-1.9,2.5-3.9,3.4-6l0.1-0.1l1.6-3c0-0.1-0.6-0.7-1.9-1.8c-0.4-0.4-0.6-0.6-0.7-0.7c-0.5-0.3-1.2-0.4-2-0.4l-0.1-0.1l-1.1,0.5
		c0,0,0,0-0.1,0c-0.3,0-0.4-0.2-0.4-0.7c0-0.1,0-0.2,0-0.3c1.8-1.2,3.5-2.5,5.1-3.8c0.2-0.2,0.5-0.5,1-0.8c0.5-0.6,1-1.1,1.4-1.2
		c0.2-0.1,0.3-0.1,0.3-0.1c0.5-0.4,1.1-1,1.8-1.8c0.5-0.5,0.8-1,1.1-1.2h-0.1c0,0,0,0-0.1,0c-0.1,0-0.2,0-0.4,0.1
		c-2,0.8-3.8,1.1-5.5,0.8c-0.2,0.2-0.5,0.5-0.8,1.1c-0.3,0.5-0.5,0.9-0.8,1.1l-1.9,3.1c0,0-0.1,0-0.3,0.1c-0.2,0.2-0.3,0.3-0.4,0.3
		c-0.3,0-0.4-0.2-0.4-0.5c0-0.6,0.2-1.2,0.7-1.8c0.3-0.4,0.5-0.7,0.5-1c0-0.7,0.1-1.1,0.4-1.1c-0.2,0.3-0.3,0.5-0.3,0.8
		c0,0.1,0,0.2,0,0.4c0.2-0.2,0.3-0.3,0.3-0.3c0.5-0.5,1.1-1.3,1.9-2.5v-0.1c-0.2-0.3-0.5-0.5-1-0.5c0,0,0,0-0.1,0.1l-0.4,0.7
		c0.1-0.4,0-0.8-0.1-1.2c-0.2-0.4-0.3-0.6-0.3-0.8c0.1-0.5,0.3-0.7,0.7-0.8c0,0,0.1,0,0.3,0.1c0.1,0,0.1,0,0.1,0.1
		c0.5,0.9,1,1.4,1.5,1.4c0.1,0,0.1,0,0.1-0.1c0.1-0.1,0.3-0.4,0.7-0.8c0.5-0.5,0.7-0.8,0.7-0.8c0-0.1,0.1-0.3,0.4-0.5
		c1.2-1.5,1.8-2.5,1.8-2.9c-0.3-0.1-0.5-0.1-0.8-0.1c-1.1,0-2.5,0.2-4.2,0.5c-0.8,0.2-1.4,0.3-1.8,0.4c-0.1,0-0.2,0-0.3,0
		c-0.4,0-0.5-0.2-0.5-0.7c0-0.3,0.2-0.5,0.7-0.7c0.4-0.2,0.6-0.4,0.7-0.5c0.7-0.5,1.6-1.1,2.7-1.9c1.7-1.5,3.1-2.2,4-2.2v1.1
		c0,0.1-0.3,0.2-1,0.4c-0.7,0.3-1.1,0.5-1.2,0.5c-0.3,0.2-0.6,0.5-1.1,1c-0.5,0.5-1,0.8-1.2,1c0,0-0.1,0-0.3,0.1
		c-0.4,0.2-0.6,0.3-0.7,0.4c0.2-0.1,0.3-0.1,0.4,0c0,0.1,0,0.1,0.1,0.1c1.2-0.5,2.4-0.7,3.6-0.7c0.2,0,0.6,0,1.2,0.1
		c0.6,0.1,1.1,0.1,1.2,0.1c0.1,0.1,0.1,0.2,0.1,0.4c0,0.5-0.4,1.3-1.1,2.2c-0.1,0.1-0.2,0.2-0.3,0.3c-0.2,0.4-0.8,1.1-1.8,2.2
		c-0.4,0.4-0.5,0.6-0.5,0.8c0,0.1,0,0.1-0.1,0.1c-0.1,0.1-0.1,0.2-0.1,0.3c0,0.1,0,0.2,0.1,0.3c1.9,0,3.3-0.2,4.2-0.5
		c0.7-0.1,1.2-0.2,1.4-0.3c0.4-0.3,0.5-0.5,0.5-0.5c0.1,0,0.1,0,0.1,0c0.5,0,0.7,0.1,0.7,0.4c0,0.5-0.4,1-1.2,1.6
		c-0.2,0.2-0.3,0.3-0.4,0.4c-0.5,0.5-1.6,1.5-3,2.9v0.1l4.2-1.9c0.1,0,0.1,0,0.1,0c0.5,0,0.8,0.2,0.8,0.5v0.1
		c-0.2,0.4-0.5,0.9-1,1.5c-0.5,0.6-0.9,1.1-1.1,1.5c-0.3,0.8-0.8,2-1.6,3.4c-0.5,0.9-1,1.6-1.2,2c0,0.1,0,0.1-0.1,0.1
		c-0.1,0.1-0.1,0.3-0.1,0.5c0,0.1,0,0.1,0,0.1c0.1,0,0.2,0.1,0.4,0.3c0.3,0.2,0.4,0.3,0.4,0.4c0.3,0.3,0.6,0.6,1,1.1
		c0.4,0.5,0.6,0.8,0.8,1c0.1,0.1,0.3,0.3,0.7,0.5c1.4,1.3,2.1,2.1,2.1,2.3h0.3c-0.2,0.5-0.5,0.9-0.8,1c-0.2,0-0.3,0-0.4,0
		c-0.6-1.1-1.8-2.5-3.4-4.1c-0.6-0.6-1.1-1.1-1.4-1.5l-0.3,0.3c-0.2,0.4-0.5,0.9-1,1.6c-1.6,2.8-3.1,5.3-4.2,7.4
		c-0.1,0.1-0.2,0.3-0.4,0.5c-0.3,0.5-0.5,0.7-0.7,0.7c-0.4-0.1-0.6-0.7-0.7-1.9C329.1,156.7,329.1,156.3,329.1,156.2z"/>
	<path class="st0" d="M362.6,134.2l-2.7-0.8c-0.1,0-0.1,0-0.1,0c-0.1,0-0.4-0.1-0.8-0.3c-0.5-0.1-0.7-0.1-0.8-0.1
		c0-0.2,0-0.3-0.1-0.3c0-0.1-0.1-0.2-0.3-0.4c0-0.2,0.3-0.3,0.8-0.4c0.4,0,0.8,0.1,1.2,0.4c0.1,0.1,0.1,0.1,0.1,0.1
		c0.3,0.1,0.5,0.1,0.7,0.1c1,0.2,2,0.5,3,1.1c0,0.1,0,0.2,0.1,0.4v0.1c0,0.2-0.1,0.3-0.4,0.3C363.1,134.4,362.9,134.3,362.6,134.2
		 M372.9,135.1c0.1,0,0.1,0,0.1,0s0,0-0.1,0.1c0,0.1,0,0.2-0.1,0.4c0,0,0,0,0-0.1C372.7,135.3,372.8,135.2,372.9,135.1z
		 M372.4,142.6v4c0.1,0,0.2,0,0.4,0c0.6,0.1,1-0.1,1-0.5c0-0.2,0-0.4-0.1-0.7c-0.1-0.3-0.1-0.5-0.1-0.7h0.1c0,0,0.1,0.2,0.3,0.5
		c0.4,0.8,0.6,1.2,0.7,1.1l0.8-0.1c0.1-1.6,0.1-2.6,0.1-3.3c0-0.5,0-1,0-1.8c0-0.7,0-1.2,0-1.5c0-0.2,0-0.7-0.1-1.5
		c-0.1-0.8-0.1-1.3-0.1-1.4c-0.1,0-0.2,0-0.3,0c-2.1,0.5-3.2,0.9-3.4,1.2c0,1.1,0.1,1.8,0.4,2.1c0.2,0,0.5,0,0.8,0
		c1,0,1.8,0.2,2.3,0.7c0,0,0,0,0,0.1c0,0.3,0,0.5-0.1,0.8c0,0,0,0-0.1,0.1c-0.2-0.1-0.3-0.1-0.3-0.1c-0.3-0.1-0.5-0.1-0.5-0.1
		c-0.2-0.1-0.7-0.1-1.5-0.1c0,0.4,0,0.5,0.1,0.5c0,0.3,0,0.5,0,0.5C372.7,142.6,372.6,142.6,372.4,142.6z M374.5,147.8
		c-0.2,0-0.4,0-0.5,0c-1.1,0-1.8,0.2-2,0.5c0,0.1,0,0.2-0.1,0.3c0,0.1-0.1,0.1-0.3,0.1c-0.5,0-0.6-0.3-0.5-1c0-0.4,0-0.9,0.1-1.6
		c0.1-0.6,0.1-1.1,0.1-1.5c0-2.5-0.4-4.7-1.1-6.6c-0.1,0-0.2,0-0.4,0c-1.4,0.2-2.1,0.5-2.2,0.8v1.8c-0.6,0-1-0.6-1.1-1.8
		c0-1.1,0.6-1.7,1.8-1.9c0.3,0,0.7,0,1.4-0.1l0.3-0.3c0-0.5,0-0.8-0.1-1c0-0.3-0.1-0.8-0.4-1.5c-0.4-1-0.5-1.7-0.5-2
		c0-0.2,0-0.3,0-0.3c0.1-0.1,0.3-0.2,0.5-0.3c0.2,0.1,0.3,0.2,0.4,0.3c0.1,0,0.1,0,0.1,0.1l1,2.1c0,0.1,0.2,0.3,0.7,0.5
		c0.5,0.3,0.7,0.5,0.7,0.7c-0.6,0-1-0.1-1.1-0.3v0.1c0,0.1,0,0.2,0,0.3c-0.1,0.5,0,1,0.3,1.2c0.1,0,0.2,0,0.3-0.1
		c0.7-0.1,1.1-0.3,1.1-0.7c0.2,0.1,0.4,0.1,0.5,0.1c1.2-0.1,1.8-0.4,1.9-0.8c0-0.1,0-0.1,0-0.1l-0.7-3.1c0.1-0.2,0-0.3-0.1-0.3
		l-1,2.3l-0.1,0.1c-0.2-0.1-0.3-0.3-0.3-0.5c0.2-3,0.7-4.4,1.5-4.1c0.6,0.2,1.1,1.4,1.5,3.6c0.2,1.3,0.4,2,0.5,2.1
		c0.2-0.1,0.5-0.2,0.8-0.3c1-0.4,1.8-0.5,2.3-0.5c0.3,0,0.5,0,0.8,0.1c0,0.2,0,0.3,0,0.4c0,0.5-0.4,1-1.1,1.8
		c-0.2-0.1-0.3-0.1-0.4,0c-0.2,0.2-0.4,0.3-0.5,0.3c0,0-0.1,0-0.3-0.1c-0.2,0-0.3,0-0.4,0c0.1-0.1,0.3-0.3,0.5-0.5
		c0.4-0.2,0.6-0.4,0.7-0.5c0,0,0,0-0.1,0c-1.5,0.3-2.2,0.5-2.2,0.8v10.1c0.6,0.1,1,0.4,1,0.8c0,0.3-0.3,0.4-0.8,0.4
		c0.2,0.3,0.2,0.5,0,0.8c-0.3,0.3-0.5,0.5-0.8,0.8c0,0.1,0,0.1-0.1,0.1C375.6,149.5,375.1,148.9,374.5,147.8z M358.8,148.1
		c0.2,1,0.5,1.5,0.8,1.6c0.3,0,0.6-0.1,1-0.4c1.4-1.3,2.3-2.5,2.9-3.7c0-0.3-0.2-0.4-0.5-0.3C360.5,145.9,359.1,146.8,358.8,148.1z
		 M358.2,153.4l-0.1-0.1c-0.1-0.9-0.2-1.5-0.3-1.9v-0.3c-0.2-0.7-0.3-1.8-0.3-3.1c0-1.2,0-2.1-0.1-2.7c0,0,0-0.2-0.1-0.7
		c-0.1-0.8-0.1-1.3-0.1-1.5c-0.1-0.1-0.2-0.3-0.3-0.7c0.2-0.5,0.6-0.5,1.2-0.3c0.3,0.5,0.5,1.2,0.5,2.3c0,0.6,0,1.1,0.1,1.4l1.4-0.8
		c0.1,0.1,0.1,0.1,0.1,0c0.2-0.1,0.3-0.2,0.3-0.3c0-0.3,0-0.6,0.1-1c0.3-1.4,0.4-2.5,0.4-3.3c0-0.3,0-0.5,0-0.7
		c-0.2-0.1-0.2-0.2-0.1-0.4c0-0.2,0-0.3-0.1-0.3c-0.7,0-2,0.4-4,1.1c-0.3,0.1-0.7,0.1-1.4,0.1c-0.8,0.1-1.5,0.2-1.9,0.4
		c-0.1,0-0.2,0-0.4,0c-1.5-0.2-2.2-0.6-2.2-1.4c0,0,0.2,0,0.7-0.1c0.6-0.2,1.1-0.3,1.2-0.4c0,0.1,0,0.2,0,0.3c0,0,0,0.1,0,0.3
		c0.3,0.1,0.6,0.1,1,0.1c0.2,0,0.3,0,0.3,0c1.9-0.3,4.1-0.8,6.4-1.6c0-0.4-0.1-0.9-0.4-1.5c-0.3-0.6-0.4-1.1-0.4-1.5
		c0.1-0.3,0.3-0.4,0.5-0.3c0.5,0,1,0.6,1.5,1.9c0.2,0.5,0.3,0.8,0.4,0.8c0.3,0,0.7-0.1,1.4-0.3c0.1-0.2,0.2-0.3,0.4-0.4
		c0.1-0.1,0.1-0.1,0.1-0.1c0.5,0.1,0.9,0.3,1,0.5c0,0.4-0.2,0.6-0.5,0.8c-0.7,0.3-1.3,0.5-1.8,0.5c-0.3,0.2-0.5,0.3-0.5,0.3
		c0.2,1.5-0.1,3.4-0.8,5.7h0.1c0.2,0,0.4,0,0.7,0c0.4-0.1,0.7-0.1,1-0.1c1-0.1,1.5,0.2,1.5,1c0,0.5-0.3,1.1-0.8,1.9
		c-0.1,0.2-0.2,0.3-0.3,0.4c-0.4,0.5-0.6,0.8-0.7,1v0.1c0.1,0,0.1,0,0.1,0c0.5-0.2,0.9-0.3,1.2-0.4c0.1-0.1,0.4-0.3,1-0.7
		c0.5-0.4,0.9-0.5,1-0.5c0.1,0,0.2,0,0.3,0c0.1-0.1,0.2-0.1,0.3-0.1c0.1,0,0.2,0.1,0.3,0.3c0,0.2-0.2,0.5-0.7,0.8
		c-0.2,0.1-0.3,0.2-0.4,0.3c-1.9,1.2-4,2.2-6.2,3.1c0,0,0,0,0,0.1c0,2.3-0.3,3.4-1,3.4c-0.2-0.1-0.3-0.3-0.4-0.5c0,0,0-0.1,0-0.3
		C358.3,153.8,358.2,153.5,358.2,153.4z"/>
	<path class="st0" d="M388,154l-0.1-0.1c0.6-0.4,1-1,1-1.9c0-0.2,0-0.3,0-0.4c-0.2,0.1-0.4,0.1-0.5,0.1c-0.8-0.3-1.5-0.9-1.9-1.9
		c0-0.2,0.1-0.5,0.4-0.8c0.2-0.3,0.3-0.5,0.3-0.5c0.1-0.1,0.3-0.2,0.5-0.3c0.4-0.1,0.5-0.1,0.5-0.1c0.4,0,0.8,0.3,1.4,0.8
		c0.5,0.3,0.7,1,0.7,2.2c0,1.2-0.4,2.3-1.1,3.3c-0.1,0-0.3,0.1-0.5,0.3c-0.5,0.4-0.8,0.5-1,0.5c-0.3,0-0.5-0.1-0.5-0.4
		c0-0.1,0.2-0.2,0.5-0.3C387.9,154.2,388,154.1,388,154"/>
	<path class="st0" d="M429.3,157.5c0-0.1,0.1-0.2,0.3-0.4c0.2-0.2,0.3-0.4,0.3-0.5c0.4-1.5,0.5-3.9,0.5-7.4c0-0.8,0-1.7-0.1-2.6
		c0,0,0-0.1-0.1-0.3c0-0.1,0-0.1-0.1-0.1l-3.1,1c-0.1,0-0.2,0-0.3,0.1c-3,1-5.4,1.5-7.2,1.5c-0.4,0-0.8,0-1.2,0
		c-0.2-0.1-0.3-0.3-0.3-0.7c0-0.1,0-0.1,0-0.1c0-0.2,0-0.3,0-0.4c0.8-0.1,1.7-0.1,2.6-0.1c4.2-0.7,7.3-1.5,9.4-2.3
		c0.2-0.1,0.2-0.2,0.1-0.3c0,0,0,0,0-0.1c-0.2-1.4-0.5-2.1-0.8-2.3c-0.1,0-0.1,0-0.1,0c-0.5,0.1-0.9,0.2-1.1,0.3c-0.6,0-1.3,0-2.1,0
		c-0.1,0-0.3,0-0.5,0.1c-1.4,0.3-2.5,0.4-3.4,0.4c-0.2,0-0.4,0-0.7,0c-0.2-0.1-0.3-0.3-0.3-0.5c0-0.5,0.8-0.7,2.3-0.8
		c1-0.1,1.6-0.2,1.9-0.4c-0.3-0.3-0.6-0.7-1-1.4c-0.3-0.5-0.5-0.9-0.7-1.1c-0.2-0.3-0.4-0.5-0.5-0.7c-0.3-0.4-0.5-0.8-0.5-1.2h-1.1
		l-0.1,0.1c-0.1,0-0.4,0.1-1,0.3c-0.5,0.2-0.8,0.3-1,0.3c-0.1,0-0.2,0-0.3,0c-0.5,0.1-0.6,0-0.5-0.4c0-0.3,0.1-0.5,0.4-0.8
		c1-0.3,2.4-0.5,4.2-0.8c1.6-0.3,2.7-0.5,3.4-0.7c0.2-1.3,0.2-2.2,0.1-2.9c0,0,0,0,0-0.1c0.1-0.4-0.2-0.5-0.8-0.5
		c-0.4,0-1,0-1.8,0.1c-0.9,0.1-1.6,0.1-2,0.1c-0.5,0-0.7-0.2-0.7-0.7c0-0.4,1.3-0.6,3.8-0.7c0.6-0.1,1.1-0.1,1.2-0.1
		c0,0,0-0.1,0-0.3c0-0.4-0.2-0.9-0.5-1.5c-0.4-0.6-0.5-1.1-0.5-1.5c0-0.5,0.2-0.8,0.7-0.7c0,0,0,0,0.1,0c0.2-0.1,0.3,0,0.3,0.1
		c0.7,1.4,1.2,2.6,1.4,3.8c0,0,0.1,0,0.3,0c2.2,0,4.1-0.3,5.7-1c0.1-0.1,0.1-0.1,0.1-0.1c0.2,0,0.4,0,0.5,0c0.9,0,1.4,0.2,1.4,0.5
		c0,0.6-1.6,1.1-4.9,1.4c-1.5,0.2-2.5,0.3-2.9,0.4c0,0.4,0,0.9-0.1,1.5c-0.2,0.7-0.3,1.3-0.3,1.6c0,0,0,0.1,0,0.3
		c0.4-0.1,1-0.2,1.8-0.4c2.6-0.5,4.5-0.9,5.9-1.4l0.5,0.1c0.1,0,0.1,0,0.1,0.1c-0.1,0.9-0.7,1.4-1.8,1.5l-3,0.4h-0.4l-5.7,1.2
		c-0.1,0.1-0.3,0.1-0.5,0.1c-0.2,0.1-0.3,0.1-0.4,0.1c0,0,0.1,0.3,0.3,0.8c0.2,0.5,0.3,0.9,0.4,1.1c0.4,0.7,0.5,1.1,0.5,1.2
		c0.2,0,0.3,0,0.3,0.1c0,0,0.1,0.1,0.3,0.4c0.2,0.3,0.3,0.5,0.3,0.5h0.4c0.1,0,0.7-0.3,1.8-0.8c0.5-0.3,0.8-0.5,1-0.5
		c1.6-0.8,2.8-1.9,3.4-3.1c0.1,0,0.1,0,0.1-0.1c0.1,0,0.1,0,0.1,0h0.8v0.7c-0.4,0.6-0.6,1.1-0.8,1.4c-0.2,0.3-0.8,0.7-1.8,1.2
		c-0.7,0.5-1.1,0.7-1.2,0.8l-1.5,0.7v0.1c0,0,0.1,0,0.3,0c2.1-0.5,4-1.1,5.7-1.9c0.1,0,0.2,0,0.4,0c0.4,0,0.5,0.1,0.5,0.4
		c0,0.1-0.1,0.2-0.3,0.4c-0.1,0.2-0.1,0.4-0.1,0.5c-0.8,0.5-1.5,0.9-2,1c0-0.1-0.1-0.1-0.3-0.1c-1.2,0.2-1.8,0.4-1.9,0.5
		c0.3,1.3,0.6,2.1,1,2.5c0.1,0,0.1,0,0.1,0l3.3-1.1c0,0,0.4-0.1,1.1-0.3c1.1-0.3,1.7-0.4,1.8-0.4c0.5-0.1,0.6,0,0.5,0.4
		c-0.2,0.9-0.8,1.5-1.9,1.6c-0.1,0-0.2,0-0.4-0.1c-0.2-0.1-0.4-0.1-0.5-0.1c-0.3,0-0.5,0-0.8,0.1c-2,0.5-3.1,0.9-3.1,1.1l-0.1,0.5
		c0,1.5,0,3,0,4.5c0,0,0,0.2,0,0.7c-0.1,0.5-0.1,0.7-0.1,0.8c0,0.5,0,1.1,0,1.8c0,0,0,0.2-0.1,0.5c-0.1,0.6-0.1,1-0.1,1.1
		c0,0.1,0,0.3-0.1,0.5c0,1.5-0.3,2.2-1,2.2C429.8,158.3,429.5,158,429.3,157.5"/>
	<path class="st0" d="M449.1,130v0.1V130z M464.9,130.6c-0.5,0-1.1,0-1.6,0c-0.1,0-0.2,0-0.4,0c-1.5-0.1-2.5,0.1-3,0.5
		c0-0.1-0.1-0.2-0.3-0.4c-0.1-0.1-0.1-0.2-0.1-0.4c0-0.5,0.4-0.8,1.2-1c0.3,0,0.5,0,0.5-0.1c0.3,0,0.6,0,1,0
		c2.1,0.1,3.7,0.3,4.9,0.7c0.2-0.1,0.3,0,0.3,0.3c0,0.7-0.4,1.1-1.1,1.1c-0.3,0-0.6-0.1-1-0.4C465.1,130.8,465,130.7,464.9,130.6z
		 M448.9,130.3c0-0.5,0.3-0.7,0.8-0.7c0.1,0,0.1,0,0.1,0c0.1,0.1,0.4,0.4,1,0.8c0.2,0.2,0.3,0.3,0.3,0.3c0.2,0.1,0.5,0.3,0.8,0.5
		c0.6,0.4,1.1,0.6,1.2,0.8c0.3,0,0.4,0.1,0.3,0.3c0,0.3-0.1,0.4-0.3,0.4c-0.9-0.3-2.2-0.9-4-1.9C449,130.7,448.9,130.5,448.9,130.3z
		 M462.4,136.2c0,0.1,0,0.2,0,0.3c0,0.3,0.1,0.7,0.3,1.2h0.1l2.1-2.1c0-0.2,0-0.3,0-0.3c0-0.1,0-0.1,0-0.1h-1.6c0,0,0,0,0,0.1
		C463.1,135.9,462.8,136.2,462.4,136.2z M460.2,139.9c0-0.3,0.2-0.5,0.7-0.8c0.4-0.2,0.5-0.4,0.5-0.5c0-0.1,0-0.2,0-0.3
		c0.1-0.6,0-1-0.3-1.2l-0.7-3.4c0,0,0-0.1,0-0.3c0-0.5,0.2-0.8,0.7-0.8c0.4,0,0.6,0.4,0.7,1.1c0.1,0.4,0.2,0.6,0.3,0.8
		c0,0,0,0,0.1,0c0.1,0,0.3-0.1,0.5-0.3c0.3-0.1,0.4-0.1,0.4-0.1s0.2,0,0.5,0c0.5-0.1,0.7-0.1,0.8-0.1c0,0.1,0.2,0.1,0.5,0.1
		c0.9,0,1.4,0.2,1.4,0.7c0,0.1,0,0.1,0,0.1c-0.5,1.1-1.1,2-1.6,2.6c0.3,0.1,0.5,0.2,0.8,0.4c0,0.1,0,0.2,0,0.4
		c0,0.5-0.1,0.8-0.3,0.8h-1c-0.1,0-0.1,0-0.1,0.1c-0.5,0.4-1.1,0.8-1.8,1.2c0,0,0,0-0.1,0c-0.4-0.1-0.6-0.1-0.7,0
		c-0.3,0.1-0.5,0.1-0.5,0.1c0,0,0,0-0.1,0.1C460.5,140.7,460.2,140.4,460.2,139.9z M460.1,146.1c0,0,0,0,0,0.1
		c-0.1,0.8,0.1,1.2,0.5,1.2c0.3,0,0.5-0.1,0.8-0.3l3.3-0.7l0.1-0.1c0.1-0.1,0.1-0.2,0.1-0.3c-0.2-1.5-0.5-2.4-1-2.5
		c-1.7,0.3-3.1,0.8-4,1.6C460.1,145.5,460.1,145.8,460.1,146.1z M461.2,148.9c0.1,0.5,0.3,1.1,0.5,1.5h0.1c0.4,0,1.1-0.1,2.1-0.3
		c0.5-0.2,1-0.3,1.2-0.3c0.2-0.2,0.3-0.4,0.3-0.7c0-0.1,0-0.1,0-0.1c0-0.1,0-0.3-0.1-0.7c0-0.5,0-0.7-0.1-0.7h-0.3l-2.3,0.5
		C461.7,148.3,461.3,148.6,461.2,148.9z M468.7,150.7c0,0.5,0.3,1,1,1.6h0.1c0.4,0,0.9-1.1,1.6-3.3c0.1-0.2,0.3-0.7,0.5-1.5
		c0.3-0.9,0.4-1.4,0.4-1.5c-0.1-0.3,0-0.7,0.1-1.4c0.1-0.5,0.1-0.8,0.1-1.1c-0.1-1.1-0.6-1.7-1.5-1.8c-0.2,0-0.5,0-0.8,0.1
		c-0.5,0.2-1,0.2-1.2,0.1l-3.3,1c0,0,0,0,0,0.1c0.2,1.5,0.4,2.4,0.5,2.9c0.5-0.1,1.1-0.2,1.8-0.4c0.3-0.3,0.4-0.5,0.4-0.5
		c0.2,0,0.3,0,0.3,0c0.4,0,0.5,0.2,0.5,0.5c0,0.7-0.8,1.2-2.5,1.5c-0.3,0.1-0.4,0.1-0.4,0.1v2.2h0.8v-0.4c0.2-0.1,0.3-0.1,0.4-0.1
		c0.1,0.1,0.2,0.2,0.3,0.4h1.6c0.3,0,0.4,0.1,0.3,0.3c0,0.3,0,0.4-0.1,0.4l-1,0.5C468.8,150.6,468.8,150.6,468.7,150.7z
		 M451.6,146.2c-0.3,0.2-0.5,0.5-0.8,1c-0.3,0.5-0.5,0.8-0.7,1c-0.1,0.1-0.4,0.4-0.8,0.8c-0.1,0.1-0.1,0.1-0.1,0.1
		c-0.2,0-0.3,0-0.3,0c-0.3,0.1-0.5,0-0.5-0.4c0-0.1,0-0.3,0-0.5c0-1,0.6-2.3,1.8-4c0.1-0.2,0.3-0.4,0.5-0.7c0.5-0.7,0.9-1.3,1-1.8
		c0-0.6,0.1-1.5,0.3-2.6c0.1-1.2,0.1-2.1,0.1-2.6c-0.5,0-1.1,0.1-1.9,0.3c-0.9,0.2-1.6,0.3-2,0.3c-0.8,0-1.5-0.1-2.1-0.4
		c-0.2-0.2-0.3-0.4-0.3-0.7c0.2,0,0.4,0,0.5-0.1c0.2-0.1,0.3-0.1,0.4-0.1c0.2,0,0.5,0,0.8,0.1c0.3,0.1,0.5,0.1,0.7,0.1
		c1.3-0.1,2.5-0.3,3.7-0.5c0.2,0,0.4-0.1,0.7-0.3c0.4-0.2,0.6-0.3,0.8-0.3c0.5,0,0.7,0.2,0.7,0.7c0,0.2-0.1,0.5-0.4,1.1
		c-0.4,0.8-0.5,1.4-0.5,1.8c0,0.2,0,0.3,0,0.4c0.3-0.1,0.5-0.4,0.5-1c0.1-0.6,0.4-1,0.8-1c0.4,0,0.5,0.3,0.5,0.8
		c0,0.4-0.2,1-0.7,1.8c-0.2,0.3-0.3,0.5-0.4,0.7c-0.2,0.3-0.5,0.9-1,1.8v0.7c0.3-0.3,0.7-0.8,1.2-1.5c0.7-1,1.3-1.7,1.8-2.1
		c0,0.3-0.2,0.7-0.5,1.4c-0.3,0.5-0.4,0.8-0.4,1l-1.6,2.3c0,0.2-0.1,0.4-0.3,0.7c-0.1,0.2-0.1,0.3-0.1,0.3v4.7h0.1l0.1-2.7
		c0.1-0.1,0.1-0.2,0.1-0.3c0.1-0.2,0.1-0.3,0.1-0.3c0.4,0.3,0.5,1.1,0.5,2.5c0,0.1,0,0.2,0,0.3c0,0.5,0,0.8,0,1.1c0,0,0,0.2-0.1,0.7
		c-0.1,0.4-0.1,0.6-0.1,0.7c0,0.3,0,0.6,0,1c0,0,0,0.2,0,0.5c-0.1,0.3-0.1,0.5-0.1,0.5c0.1-0.3,0-0.3-0.3-0.1c0,0,0,0,0,0.1
		c0.1,0.6-0.1,1-0.5,1c-0.6-0.1-1-2.1-1.1-6.2c0-0.1,0-0.4,0-1C451.7,146.6,451.6,146.3,451.6,146.2z M467.9,150.7
		c-0.4,0-0.9,0.1-1.5,0.3c-0.8,0.3-1.4,0.4-1.8,0.3c-0.2,0-0.7,0.1-1.6,0.4c-1,0.3-1.6,0.5-1.8,0.5c0,0.1-0.1,0.1-0.3,0.1
		c-0.3,0-0.4,0-0.4-0.1c-0.1-0.1-0.1-0.3-0.1-0.7c-0.1-0.7-0.5-1.9-1.2-3.4c-0.4-0.7-0.6-1.3-0.7-1.6c0-0.1,0-0.3,0-0.5
		c-0.1-0.4-0.1-0.5-0.1-0.5c0-0.4-0.1-0.8-0.4-1.4c-0.4-0.7-0.5-1.3-0.5-1.6c0-0.3,0-0.5,0.1-0.7c0.2,0,0.3,0,0.4,0
		c0.5,0,0.8,0.5,1,1.4c0.2,0.6,0.4,1,0.5,1l0.1-0.1l1.2-0.5l5.6-1.8h0.1c0.3-0.1,0.7-0.2,1.4-0.3c1.3-0.4,2.2-0.5,2.9-0.5
		c1.6-0.2,2.6,0.3,2.9,1.5c0,0,0,0.1,0.1,0.4c0.2,0.5,0.3,0.7,0.3,0.8v0.1c0,0.5-0.2,1.7-0.7,3.6c0,0,0,0.2-0.1,0.5
		c-0.1,0.4-0.1,0.6-0.1,0.7c-0.3,0.1-0.4,0.5-0.4,1.1c-0.1,0.2-0.1,0.3-0.1,0.4c-0.4,0.6-0.6,1.2-0.7,1.8c0,0.1-0.2,0.5-0.5,1.1
		c-0.4,0.6-0.6,1-0.7,1.1c-0.2,0.4-0.4,0.5-0.7,0.5C469.2,154.1,468.5,152.9,467.9,150.7z"/>
	<path class="st0" d="M483.1,130c0-0.1,0-0.2,0-0.3c-0.1-0.2-0.1-0.3-0.1-0.3c0.1-0.1,0.1-0.2,0.1-0.3c0-0.2,0-0.3,0-0.4
		c1.5,0.5,3,1.6,4.4,3c0,0.3-0.1,0.4-0.3,0.4c-0.2,0-0.8-0.4-1.9-1.1c-0.5-0.4-0.9-0.5-1-0.5C483.6,130.2,483.2,130,483.1,130
		 M478.3,133.2c-0.1-0.2-0.1-0.3-0.1-0.4c0.1-0.4,0.3-0.5,0.5-0.5c0.4,0,0.8,0.1,1.4,0.4c0.5,0.3,1,0.4,1.2,0.4
		c0.9,0.1,2,0.1,3.3,0.1c0.5,0,1.3,0,2.2,0.1c0.9,0,1.6,0,2.1,0c0.3,0,0.7-0.1,1.2-0.3c0.5-0.1,1-0.1,1.2-0.1
		c0.3,0.1,0.5,0.3,0.5,0.7c0.1,0.5-0.1,0.7-0.5,0.7H482C480.8,134.1,479.6,133.7,478.3,133.2z M501.5,133.9c0.1-0.3,0.2-0.5,0.4-0.8
		c0.1,0,0.2,0,0.3,0c0.3,0,0.7,0.2,1.4,0.7c0.2,0.1,0.3,0.1,0.3,0.1c0.1,0,0.4,0.2,1,0.5c0.5,0.3,0.9,0.5,1,0.5
		c0.4-0.1,0.6,0,0.7,0.4c0,0.4-0.2,0.5-0.5,0.5c-0.1,0-0.2,0-0.3,0l-3.7-1.4C501.7,134.3,501.5,134.1,501.5,133.9z M483.1,145
		c0,0.3,0.1,0.5,0.3,0.5c0.3,0,0.4-0.2,0.4-0.5c0-0.3-0.1-0.4-0.4-0.3C483.2,144.6,483.1,144.7,483.1,145z M486.5,146.3
		c0-0.3,0.1-0.5,0.4-0.5c0.2-0.1,0.4-0.1,0.5-0.1c0.5,0,1.2,0.5,1.9,1.5c0.4,0.5,0.6,0.8,0.8,0.8c0.2-0.1,0.3-0.1,0.3-0.1
		c0.2,0,0.3,0,0.3,0.1c0.2,0,0.3,0,0.4,0c-0.1,0.6-0.4,1-0.8,1.1c-0.7,0-1.4-0.5-2.1-1.4c-0.3-0.3-0.5-0.5-0.5-0.7
		c-0.1-0.2-0.3-0.3-0.7-0.4C486.8,146.5,486.6,146.4,486.5,146.3z M497.6,149.2c0-0.1,0-0.4-0.1-0.8c0-0.3,0-0.4,0-0.4
		c0-1.2,0-2.3,0-3.3c0,0-0.1,0.1-0.3,0.3c-0.1,0.2-0.2,0.3-0.3,0.3c-0.1,0.3-0.3,0.6-0.5,1.1c-1.1,1.9-2.1,3.3-3,4.2
		c-0.1,0-0.2,0-0.3,0c-0.3,0-0.4-0.2-0.4-0.7c0-0.8,0.2-1.4,0.7-1.6c0.1-0.1,0.1-0.1,0.1-0.1v0.7c0.2-0.1,0.3-0.3,0.4-0.5
		c0.1-0.1,0.1-0.2,0.1-0.3c0.5-0.5,0.7-0.9,0.8-1.2c0.2-0.3,0.8-1.4,1.8-3.4c0-0.2,0-0.4,0.1-0.5c0.2-0.4,0.3-0.6,0.3-0.8
		c0.1-0.2,0-0.3-0.3-0.3c-1.8,0.7-3.5,1.1-4.9,1.1c-0.3-0.1-0.4-0.3-0.4-0.5c0-0.2,0.1-0.4,0.4-0.7c0.2-0.1,0.4-0.1,0.5-0.1
		c0.2,0,0.4,0,0.5,0c1.6-0.2,3.1-0.6,4.4-1.2c0.2-0.1,0.3-0.4,0.3-1c0.1-0.8,0.4-1.2,0.8-1.2c0.3,0,0.5,0.1,0.8,0.4
		c0.4,0.3,0.6,0.4,0.8,0.4c0.2,0,0.4,0,0.7-0.1c0.3,0,0.5,0,0.5,0c0.4,0,0.5,0.1,0.5,0.4c-0.1,0.5-0.3,0.8-0.5,1l-2.2,1
		c-0.2,0.2-0.4,0.6-0.5,1.4c-0.1,0.8,0,2,0.1,3.4c0.1,1.3,0.1,2.2,0.1,2.9c0.1,1.3,1.1,2,3.1,2.2c1.8-0.1,2.9-0.5,3.1-1.1
		c0-0.4,0-0.7,0-1c0-0.4,0-0.9,0-1.6c-0.1-0.7-0.1-1.3-0.1-1.6c0-0.7,0.1-1.1,0.3-1.2c0.3,0.3,0.4,0.7,0.4,1.2
		c0.1,0.3,0.1,0.5,0.1,0.5c0,0.1,0,0.3,0.1,0.5c0.5,1.4,0.7,2.5,0.7,3.4c0.1,0.5-0.1,0.9-0.7,1.1l-2.7,0.8c-0.1,0-0.1,0-0.1,0
		s-0.2,0-0.5,0c-0.4,0.1-0.6,0.1-0.7,0.1c-2-0.1-3.3-0.8-3.8-2.1c-0.1-0.3-0.2-0.5-0.3-0.7C497.7,149.2,497.7,149.2,497.6,149.2z
		 M481.6,148.2c-0.2,0.8-0.3,1.7-0.3,2.7c0,0,0,0-0.1,0.1c0,0,0,0.1,0.1,0.4c0,0.2,0,0.3,0,0.4c0.2-0.1,0.3-0.1,0.3-0.1
		c0.1,0.2,0.1,0.4,0.1,0.5c-0.1,0.9-0.6,1.4-1.5,1.5c-0.3,0-0.4-0.3-0.4-0.8c0-0.1,0-0.1,0-0.1c0.1-1.3,0.2-2.1,0.4-2.6
		c0-1.3,0-2.5,0-3.7c0.1-0.3,0.2-0.5,0.3-0.5c0.1,0,0.1,0,0.1,0c0.2,0,0.4,0,0.5,0.1c0,0.1,0,0.1,0.1,0.1c0.7,1.4,1.5,2.6,2.3,3.7
		c0.1,0.2,0.2,0.4,0.4,0.5h0.1v-2.5c-0.1,0-0.1-0.1-0.1-0.3c0-0.5,0-0.9,0-1.2c-0.1,0-0.2,0-0.4,0c-0.2,0.1-0.4,0.1-0.5,0.1
		c-0.4,0-0.7-0.3-1.1-1c-0.1-0.3-0.2-0.5-0.3-0.5c-0.1-0.1-0.2-0.2-0.4-0.3c-0.2-0.1-0.3-0.3-0.3-0.5c0-0.2,0.1-0.4,0.4-0.7
		c0-0.4,0-0.7,0-1c0-0.6-0.1-1.6-0.4-2.7c-0.3-1.2-0.4-2.1-0.4-2.7c0-0.2,0-0.4,0.1-0.7c0-0.3,0-0.5,0-0.7c0.1-0.2,0.3-0.3,0.7-0.3
		c0.5,0.1,0.9,0.3,1,0.5c0,0.1-0.1,0.2-0.3,0.4c-0.2,0.2-0.3,0.4-0.3,0.5c0,0.6,0.1,1.5,0.4,2.7c0.4,1.5,0.5,2.5,0.4,3.1
		c0.2-0.1,1.2-0.5,3-1.2c1.3-1.1,2.1-2.1,2.5-2.9h0.1l0.7-1c0-0.1,0-0.1,0-0.1c0-0.2-0.3-0.3-1-0.3c-1.1,0-2.2,0.2-3.3,0.7
		c-0.1,0-0.2,0.1-0.4,0.3c-0.1,0.1-0.2,0.1-0.4,0.1c-0.5,0-0.8-0.1-0.8-0.4c0-0.3,0-0.5,0.1-0.7c1.7-0.7,3.5-1.1,5.3-1.1
		c1.2,0.1,1.8,0.4,1.8,0.8c0,0.5-0.4,1.2-1.2,2.1c-0.5,0.6-0.9,1.1-1,1.4c0,0,0,0,0.1,0.1c0.4,0.1,0.6,0.2,0.7,0.4
		c-0.2,0.1-0.3,0.3-0.4,0.7c-0.1,0.2-0.2,0.3-0.3,0.4c-0.2,0.1-0.6,0.2-1.2,0.4c-1.4,0.3-2,0.7-2,1.4c0,0.1,0,0.4,0.1,1
		c0.1,0.5,0.1,0.8,0.1,1c0,0.6,0,1.6,0,2.7c0.1,2.1,0.1,3.7,0,4.8c0,0.5-0.3,0.8-0.8,0.7c-0.2,0-0.5-0.8-1.1-2.3
		C482.6,149.7,482,148.5,481.6,148.2z"/>
	<path class="st0" d="M520.1,143.9c1.4,0.8,2.6,1.8,3.8,2.9c0-0.3,0.1-0.4,0.3-0.4c0.4-1.1,0.8-2.1,1.4-3.1l0.1-0.1l1.1-1.9l0.1-0.1
		c0-0.1,0.2-0.5,0.5-1.1c0.1-0.1,0.1-0.2,0.1-0.3c0,0,0,0-0.1,0c-0.4,0-1.3,0.5-2.9,1.4c-0.8,0.5-1.3,0.7-1.5,0.8
		c-0.8,0.5-1.4,0.9-1.8,1c0,0-0.1,0.1-0.3,0.3C520.5,143.5,520.2,143.8,520.1,143.9 M517,156.2c0.1-0.8,0.2-1.4,0.4-1.8
		c0,0.1,0,0.5,0.1,1.1c0.1,0.5,0.1,0.9,0.1,1c0,0.5,0.1,0.8,0.3,0.8c0.1,0,0.1,0,0.1,0c0.1-0.1,0.1-0.1,0.1-0.1
		c1.4-1.9,2.5-3.9,3.4-6l0.1-0.1l1.6-3c0-0.1-0.6-0.7-1.9-1.8c-0.4-0.4-0.6-0.6-0.7-0.7c-0.5-0.3-1.2-0.4-2-0.4l-0.1-0.1l-1.1,0.5
		c0,0,0,0-0.1,0c-0.3,0-0.4-0.2-0.4-0.7c0-0.1,0-0.2,0-0.3c1.8-1.2,3.5-2.5,5.1-3.8c0.2-0.2,0.5-0.5,1-0.8c0.5-0.6,1-1.1,1.4-1.2
		c0.2-0.1,0.3-0.1,0.3-0.1c0.5-0.4,1.1-1,1.8-1.8c0.5-0.5,0.8-1,1.1-1.2h-0.1c0,0,0,0-0.1,0c-0.1,0-0.2,0-0.4,0.1
		c-2,0.8-3.8,1.1-5.5,0.8c-0.2,0.2-0.5,0.5-0.8,1.1c-0.3,0.5-0.5,0.9-0.8,1.1l-1.9,3.1c0,0-0.1,0-0.3,0.1c-0.2,0.2-0.3,0.3-0.4,0.3
		c-0.3,0-0.4-0.2-0.4-0.5c0-0.6,0.2-1.2,0.7-1.8c0.3-0.4,0.5-0.7,0.5-1c0-0.7,0.1-1.1,0.4-1.1c-0.2,0.3-0.3,0.5-0.3,0.8
		c0,0.1,0,0.2,0,0.4c0.2-0.2,0.3-0.3,0.3-0.3c0.5-0.5,1.1-1.3,1.9-2.5v-0.1c-0.2-0.3-0.5-0.5-1-0.5c0,0,0,0-0.1,0.1l-0.4,0.7
		c0.1-0.4,0-0.8-0.1-1.2c-0.2-0.4-0.3-0.6-0.3-0.8c0.1-0.5,0.3-0.7,0.7-0.8c0,0,0.1,0,0.3,0.1c0.1,0,0.1,0,0.1,0.1
		c0.5,0.9,1,1.4,1.5,1.4c0.1,0,0.1,0,0.1-0.1c0.1-0.1,0.3-0.4,0.7-0.8c0.5-0.5,0.7-0.8,0.7-0.8c0-0.1,0.1-0.3,0.4-0.5
		c1.2-1.5,1.8-2.5,1.8-2.9c-0.3-0.1-0.5-0.1-0.8-0.1c-1.1,0-2.5,0.2-4.2,0.5c-0.8,0.2-1.4,0.3-1.8,0.4c-0.1,0-0.2,0-0.3,0
		c-0.4,0-0.5-0.2-0.5-0.7c0-0.3,0.2-0.5,0.7-0.7c0.4-0.2,0.6-0.4,0.7-0.5c0.7-0.5,1.6-1.1,2.7-1.9c1.7-1.5,3.1-2.2,4-2.2v1.1
		c0,0.1-0.3,0.2-1,0.4c-0.7,0.3-1.1,0.5-1.2,0.5c-0.3,0.2-0.6,0.5-1.1,1c-0.5,0.5-1,0.8-1.2,1c0,0-0.1,0-0.3,0.1
		c-0.4,0.2-0.6,0.3-0.7,0.4c0.2-0.1,0.3-0.1,0.4,0c0,0.1,0,0.1,0.1,0.1c1.2-0.5,2.4-0.7,3.6-0.7c0.2,0,0.6,0,1.2,0.1
		c0.6,0.1,1,0.1,1.2,0.1c0.1,0.1,0.1,0.2,0.1,0.4c0,0.5-0.4,1.3-1.1,2.2c-0.1,0.1-0.2,0.2-0.3,0.3c-0.2,0.4-0.8,1.1-1.8,2.2
		c-0.4,0.4-0.5,0.6-0.5,0.8c0,0.1,0,0.1-0.1,0.1c-0.1,0.1-0.1,0.2-0.1,0.3c0,0.1,0,0.2,0.1,0.3c1.9,0,3.3-0.2,4.2-0.5
		c0.7-0.1,1.2-0.2,1.4-0.3c0.4-0.3,0.5-0.5,0.5-0.5c0.1,0,0.1,0,0.1,0c0.5,0,0.7,0.1,0.7,0.4c0,0.5-0.4,1-1.2,1.6
		c-0.2,0.2-0.3,0.3-0.4,0.4c-0.5,0.5-1.6,1.5-3,2.9v0.1l4.2-1.9c0.1,0,0.1,0,0.1,0c0.5,0,0.8,0.2,0.8,0.5v0.1
		c-0.2,0.4-0.5,0.9-1,1.5c-0.5,0.6-0.9,1.1-1.1,1.5c-0.3,0.8-0.8,2-1.6,3.4c-0.5,0.9-1,1.6-1.2,2c0,0.1,0,0.1-0.1,0.1
		c-0.1,0.1-0.1,0.3-0.1,0.5c0,0.1,0,0.1,0,0.1c0.1,0,0.2,0.1,0.4,0.3c0.3,0.2,0.4,0.3,0.4,0.4c0.3,0.3,0.6,0.6,1,1.1
		c0.4,0.5,0.6,0.8,0.8,1c0.1,0.1,0.3,0.3,0.7,0.5c1.4,1.3,2.1,2.1,2.1,2.3h0.3c-0.2,0.5-0.5,0.9-0.8,1c-0.2,0-0.3,0-0.4,0
		c-0.6-1.1-1.8-2.5-3.4-4.1c-0.6-0.6-1.1-1.1-1.4-1.5l-0.3,0.3c-0.2,0.4-0.5,0.9-1,1.6c-1.6,2.8-3.1,5.3-4.2,7.4
		c-0.1,0.1-0.2,0.3-0.4,0.5c-0.3,0.5-0.5,0.7-0.7,0.7c-0.4-0.1-0.6-0.7-0.7-1.9C517,156.7,517,156.3,517,156.2z"/>
	<path class="st0" d="M550.5,134.2l-2.7-0.8c-0.1,0-0.1,0-0.1,0c-0.1,0-0.4-0.1-0.8-0.3c-0.5-0.1-0.7-0.1-0.8-0.1
		c0-0.2,0-0.3-0.1-0.3c0-0.1-0.1-0.2-0.3-0.4c0-0.2,0.3-0.3,0.8-0.4c0.4,0,0.8,0.1,1.2,0.4c0.1,0.1,0.1,0.1,0.1,0.1
		c0.3,0.1,0.5,0.1,0.7,0.1c1,0.2,2,0.5,3,1.1c0,0.1,0,0.2,0.1,0.4v0.1c0,0.2-0.1,0.3-0.4,0.3C551,134.4,550.8,134.3,550.5,134.2
		 M560.7,135.1c0.1,0,0.1,0,0.1,0s0,0-0.1,0.1c0,0.1,0,0.2-0.1,0.4c0,0,0,0,0-0.1C560.6,135.3,560.6,135.2,560.7,135.1z
		 M560.3,142.6v4c0.1,0,0.2,0,0.4,0c0.6,0.1,1-0.1,1-0.5c0-0.2,0-0.4-0.1-0.7c-0.1-0.3-0.1-0.5-0.1-0.7h0.1c0,0,0.1,0.2,0.3,0.5
		c0.4,0.8,0.6,1.2,0.7,1.1l0.8-0.1c0.1-1.6,0.1-2.6,0.1-3.3c0-0.5,0-1,0-1.8c0-0.7,0-1.2,0-1.5c0-0.2,0-0.7-0.1-1.5
		c-0.1-0.8-0.1-1.3-0.1-1.4c-0.1,0-0.2,0-0.3,0c-2.1,0.5-3.2,0.9-3.4,1.2c0,1.1,0.1,1.8,0.4,2.1c0.2,0,0.5,0,0.8,0
		c1,0,1.8,0.2,2.3,0.7c0,0,0,0,0,0.1c0,0.3,0,0.5-0.1,0.8c0,0,0,0-0.1,0.1c-0.2-0.1-0.3-0.1-0.3-0.1c-0.3-0.1-0.5-0.1-0.5-0.1
		c-0.2-0.1-0.7-0.1-1.5-0.1c0,0.4,0,0.5,0.1,0.5c0,0.3,0,0.5,0,0.5C560.6,142.6,560.5,142.6,560.3,142.6z M562.4,147.8
		c-0.2,0-0.4,0-0.5,0c-1.1,0-1.8,0.2-2,0.5c0,0.1,0,0.2-0.1,0.3c0,0.1-0.1,0.1-0.3,0.1c-0.5,0-0.6-0.3-0.5-1c0-0.4,0-0.9,0.1-1.6
		c0.1-0.6,0.1-1.1,0.1-1.5c0-2.5-0.4-4.7-1.1-6.6c-0.1,0-0.2,0-0.4,0c-1.4,0.2-2.1,0.5-2.2,0.8v1.8c-0.6,0-1-0.6-1.1-1.8
		c0-1.1,0.6-1.7,1.8-1.9c0.3,0,0.7,0,1.4-0.1l0.3-0.3c0-0.5,0-0.8-0.1-1c0-0.3-0.1-0.8-0.4-1.5c-0.4-1-0.5-1.7-0.5-2
		c0-0.2,0-0.3,0-0.3c0.1-0.1,0.3-0.2,0.5-0.3c0.2,0.1,0.3,0.2,0.4,0.3c0.1,0,0.1,0,0.1,0.1l1,2.1c0,0.1,0.2,0.3,0.7,0.5
		c0.5,0.3,0.7,0.5,0.7,0.7c-0.6,0-1-0.1-1.1-0.3v0.1c0,0.1,0,0.2,0,0.3c-0.1,0.5,0,1,0.3,1.2c0.1,0,0.2,0,0.3-0.1
		c0.7-0.1,1.1-0.3,1.1-0.7c0.2,0.1,0.4,0.1,0.5,0.1c1.2-0.1,1.8-0.4,1.9-0.8c0-0.1,0-0.1,0-0.1l-0.7-3.1c0.1-0.2,0-0.3-0.1-0.3
		l-1,2.3l-0.1,0.1c-0.2-0.1-0.3-0.3-0.3-0.5c0.2-3,0.7-4.4,1.5-4.1c0.6,0.2,1.1,1.4,1.5,3.6c0.2,1.3,0.4,2,0.5,2.1
		c0.2-0.1,0.5-0.2,0.8-0.3c1-0.4,1.8-0.5,2.3-0.5c0.3,0,0.5,0,0.8,0.1c0,0.2,0,0.3,0,0.4c0,0.5-0.4,1-1.1,1.8
		c-0.2-0.1-0.3-0.1-0.4,0c-0.2,0.2-0.4,0.3-0.5,0.3c0,0-0.1,0-0.3-0.1c-0.2,0-0.3,0-0.4,0c0.1-0.1,0.3-0.3,0.5-0.5
		c0.4-0.2,0.6-0.4,0.7-0.5c0,0,0,0-0.1,0c-1.5,0.3-2.2,0.5-2.2,0.8v10.1c0.6,0.1,1,0.4,1,0.8c0,0.3-0.3,0.4-0.8,0.4
		c0.2,0.3,0.2,0.5,0,0.8c-0.3,0.3-0.5,0.5-0.8,0.8c0,0.1,0,0.1-0.1,0.1C563.5,149.5,563,148.9,562.4,147.8z M546.6,148.1
		c0.2,1,0.5,1.5,0.8,1.6c0.3,0,0.6-0.1,1-0.4c1.4-1.3,2.3-2.5,2.9-3.7c0-0.3-0.2-0.4-0.5-0.3C548.4,145.9,547,146.8,546.6,148.1z
		 M546.1,153.4l-0.1-0.1c-0.1-0.9-0.2-1.5-0.3-1.9v-0.3c-0.2-0.7-0.3-1.8-0.3-3.1c0-1.2,0-2.1-0.1-2.7c0,0,0-0.2-0.1-0.7
		c-0.1-0.8-0.1-1.3-0.1-1.5c-0.1-0.1-0.2-0.3-0.3-0.7c0.2-0.5,0.6-0.5,1.2-0.3c0.3,0.5,0.5,1.2,0.5,2.3c0,0.6,0,1.1,0.1,1.4l1.4-0.8
		c0.1,0.1,0.1,0.1,0.1,0c0.2-0.1,0.3-0.2,0.3-0.3c0-0.3,0-0.6,0.1-1c0.3-1.4,0.4-2.5,0.4-3.3c0-0.3,0-0.5,0-0.7
		c-0.2-0.1-0.2-0.2-0.1-0.4c0-0.2,0-0.3-0.1-0.3c-0.7,0-2,0.4-4,1.1c-0.3,0.1-0.7,0.1-1.4,0.1c-0.8,0.1-1.5,0.2-1.9,0.4
		c-0.1,0-0.2,0-0.4,0c-1.5-0.2-2.2-0.6-2.2-1.4c0,0,0.2,0,0.7-0.1c0.6-0.2,1-0.3,1.2-0.4c0,0.1,0,0.2,0,0.3c0,0,0,0.1,0,0.3
		c0.3,0.1,0.6,0.1,1,0.1c0.2,0,0.3,0,0.3,0c1.9-0.3,4.1-0.8,6.4-1.6c0-0.4-0.1-0.9-0.4-1.5c-0.3-0.6-0.4-1.1-0.4-1.5
		c0.1-0.3,0.3-0.4,0.5-0.3c0.5,0,1,0.6,1.5,1.9c0.2,0.5,0.3,0.8,0.4,0.8c0.3,0,0.7-0.1,1.4-0.3c0.1-0.2,0.2-0.3,0.4-0.4
		c0.1-0.1,0.1-0.1,0.1-0.1c0.5,0.1,0.9,0.3,1,0.5c0,0.4-0.2,0.6-0.5,0.8c-0.7,0.3-1.3,0.5-1.8,0.5c-0.3,0.2-0.5,0.3-0.5,0.3
		c0.2,1.5-0.1,3.4-0.8,5.7h0.1c0.2,0,0.4,0,0.7,0c0.4-0.1,0.7-0.1,1-0.1c1-0.1,1.5,0.2,1.5,1c0,0.5-0.3,1.1-0.8,1.9
		c-0.1,0.2-0.2,0.3-0.3,0.4c-0.4,0.5-0.6,0.8-0.7,1v0.1c0.1,0,0.1,0,0.1,0c0.5-0.2,0.9-0.3,1.2-0.4c0.1-0.1,0.4-0.3,1-0.7
		c0.5-0.4,0.9-0.5,1-0.5c0.1,0,0.2,0,0.3,0c0.1-0.1,0.2-0.1,0.3-0.1c0.1,0,0.2,0.1,0.3,0.3c0,0.2-0.2,0.5-0.7,0.8
		c-0.2,0.1-0.3,0.2-0.4,0.3c-1.9,1.2-4,2.2-6.2,3.1c0,0,0,0,0,0.1c0,2.3-0.3,3.4-1,3.4c-0.2-0.1-0.3-0.3-0.4-0.5c0,0,0-0.1,0-0.3
		C546.1,153.8,546.1,153.5,546.1,153.4z"/>
	<path class="st1" d="M338.7,76.2c-0.4,0.1-0.7,0-0.9-0.4c0-0.4,0.2-0.7,0.7-0.7l14.4-0.2l2.6-2.8l3.5,3.1c0.1,0.1,0.2,0.3,0.2,0.4
		c0,0.1-0.1,0.2-0.4,0.2L338.7,76.2z M344.4,85.6v11.3l7.4-0.2l0.2-11.3L344.4,85.6z M353.5,81.7l4.8,2.4c0.3,0.1,0.3,0.3,0,0.4
		l-1.1,2L357,96.7l0.4,0.9c0,0.3-0.1,0.4-0.2,0.4c-1.3,0-5.7,0-13.1,0c0,1.3-0.9,2.9-2.8,4.8c-0.4,0.3-0.7,0.4-0.9,0.2
		c-0.1,0-0.2-0.1-0.2-0.4l0.2-8.1l-0.2-6.5c0-2.3,0-4.1,0-5.4c0-0.4,0.1-0.5,0.4-0.2l3.9,2.2l7.2-0.4L353.5,81.7z M363.3,63.8
		l5.2,2.6c0.3,0.4,0.3,0.7,0,0.9l-1.5,2.2V98l0.2,7.8c0,3.5-2.4,6.4-7.2,8.7c-0.4,0-0.7-0.1-0.7-0.4c0.3-2.5-0.4-4-2.2-4.6
		c-0.1,0-0.2-0.1-0.2-0.2c0.1-0.3,0.3-0.4,0.4-0.4c2.6,0.3,3.9,0.1,3.9-0.4l-0.2-40.5l-25.5,0.2l0.2,38.4c-0.3,2.5-1.4,4.9-3.3,7.4
		c-0.4,0.4-0.8,0.6-1.1,0.4c-0.4,0-0.7-0.3-0.7-0.9l0.4-12.4V72.5l-0.2-7.6c0-0.4,0.1-0.5,0.4-0.2l4.6,2.4l25.1-0.2L363.3,63.8z"/>
	<path class="st1" d="M396.9,61.8l5,3.3c0.3,0.1,0.2,0.3-0.2,0.4l-1.3,0.7c-0.3,0.1-0.7,0.4-1.3,0.7c-2.3,1.5-4.5,2.7-6.5,3.7
		l-0.2-0.2C394.9,66.4,396.5,63.6,396.9,61.8 M396.7,74.7c4.1,2.3,6.1,4.6,6.1,6.8c-0.4,1.7-1.6,2.8-3.5,3.1
		c-0.9,0.3-1.4-0.1-1.5-1.3c0.3-3.5-0.2-6.2-1.5-8.1C395.8,74.6,396,74.4,396.7,74.7z M396.9,91.1c4.5,2.8,6.7,5,6.5,6.8
		c-0.3,1.9-1.3,3.1-3.1,3.7c-1,0.1-1.7-0.4-2-1.5c-0.1-3.8-0.8-6.6-2-8.5C396.5,91.1,396.6,90.9,396.9,91.1z M407.6,72.1l-15.7,0.4
		v13.7l15.7-0.2V72.1z M381.9,87.8c-2.2,0.1-4.2,0.4-6.1,0.7l-1.5-1.7l13.1-0.2V72.1l-0.2-3.5c0-0.3,0.1-0.4,0.4-0.2l4.4,2.8
		l15.3-0.4l2.4-3.1l5,3.1c0.3,0.1,0.2,0.4-0.2,0.9l-1.3,2V86h4.6l3.5-3.5l4.1,3.9c0.3,0.1,0.2,0.4-0.2,0.7l-12,0.2l-0.2,7.6l0.2,8.9
		c0.4,3.9-1.9,7.4-7,10.5c-0.6,0.1-0.9,0-0.9-0.4c0-1.9-0.6-3.3-1.7-4.1c-0.1,0-0.2-0.1-0.2-0.2c0.1-0.3,0.3-0.4,0.4-0.4
		c2.9,0.1,4.2-0.4,3.9-1.5V87.3l-15.7,0.2v1.5c0.9,10.7-4.8,19.7-17,26.8c-0.7,0.1-0.9,0-0.4-0.4c5.2-4.2,8.6-8,10.2-11.3
		c1.9-3.9,2.8-9.1,2.6-15.5v-0.9H381.9z"/>
	<path class="st1" d="M583.7,157.1c3.1,1.7,6.1,1.6,9.1-0.2c3-1.9,4.3-4.6,4.2-8.2c-0.2-3.6-1.8-6.1-4.9-7.7
		c-3.1-1.6-6.1-1.4-8.9,0.5c-2.8,1.9-4.2,4.5-4.2,8C579,152.8,580.6,155.4,583.7,157.1 M593.3,137.2c3.3,1.3,5.5,3.4,6.5,6.5
		c1.1,3.1,1.3,6.2,0.5,9.1c-0.8,3-2.4,5.2-4.7,6.8c-2.3,1.6-5.1,2.3-8.2,2.3c-3.1,0-5.9-1.2-8.4-3.7c-2.5-2.5-3.8-5.2-4-8.2
		c-0.2-3,0.5-5.6,1.9-8c1.4-2.3,3.6-4,6.8-5.1C586.8,135.9,590,136,593.3,137.2z"/>
	<rect x="0" y="0" class="st2" width="640" height="210"/>
	<path class="st0" d="M242,135.4c0-0.4,0.1-1,0.3-1.8c0.1-0.7,0.1-1.3,0.1-1.6c0-0.4-0.1-0.9-0.3-1.5c-0.3-0.6-0.4-1.1-0.4-1.5
		c0-0.2,0.2-0.3,0.7-0.3c0.3,0,0.5,0.4,0.8,1.1c0.1,0.2,0.1,0.3,0.1,0.3c0.3-0.4,0.9-0.6,1.8-0.7l4.7,0.7c0.2-0.1,0.4-0.1,0.7-0.1
		c0.5,0,0.7,0.1,0.7,0.4c0,0.3-0.2,0.5-0.7,0.8c-0.2,0-0.4,0-0.7,0c-0.5,0-1.3-0.1-2.3-0.3c-1-0.2-1.8-0.3-2.3-0.3c-0.3,0-0.6,0-1,0
		c-0.3,0-0.4,0.2-0.4,0.7c0.2-0.1,0.3-0.1,0.4-0.1c1,0.3,2.4,1.3,4.1,3c0,0.2-0.1,0.4-0.4,0.5c-0.1,0.1-0.1,0.1-0.1,0.1
		c-1.5-1.1-2.9-2-4.1-2.6c-0.1,0.1-0.1,0.3-0.1,0.5c0,0,0,0,0,0.1c0,0.1,0,0.4-0.1,0.8c-0.1,0.5-0.1,0.9-0.1,1
		c-0.1,0.1-0.2,0.4-0.4,1c0,0,0,0-0.1,0c0,0.1,0,0.1-0.1,0.1C242.3,135.8,242.1,135.7,242,135.4 M227.6,140.2
		c0.2-0.2,0.4-0.5,0.7-1.1c1.7-2.4,2.9-4.1,3.4-5.2c0.4-0.6,0.5-1.4,0.4-2.3c0-0.3,0-0.6,0-1c-0.1,0-0.1-0.1-0.1-0.4
		c0-0.5,0.2-0.7,0.5-0.7c0.3,0,0.4,0,0.4,0.1l0.5,1c0.1,0,0.1,0,0.1,0.1c0.1,0,0.2,0,0.4,0c0.3-0.1,0.5-0.1,0.7-0.1
		c2.2,0.5,3.4,1.3,3.7,2.2c0,0.1,0,0.2,0,0.3c0,0,0,0-0.1,0.1c-0.2,0-0.3,0-0.3,0c-0.1,0-0.1,0.1-0.1,0.3c-0.3,0.1-0.4,0-0.4-0.4
		c-0.1-0.3-0.2-0.4-0.3-0.4c-0.1-0.1-0.4-0.2-0.8-0.3c-0.5-0.2-0.9-0.3-1-0.3c-0.2,0.1-0.3,0.1-0.4,0.1c1.2,2.4,2.1,3.8,2.7,4.4
		c0.1,0,0.2,0,0.3-0.1c0.1,0,0.2,0,0.3,0c0.1,0,0.1,0.1,0.1,0.3c0,0.1,0,0.2,0,0.3c0.1,0.5-0.1,0.7-0.7,0.7c-0.5,0-1.1-0.5-1.8-1.5
		c-0.1-0.3-0.2-0.5-0.3-0.5c-0.1-0.2-0.4-0.6-0.8-1.2c-0.5-0.7-0.9-1.1-1-1.2c0-0.3,0-0.5,0-0.8c0,0,0,0,0-0.1
		c0.2-0.3,0.3-0.5,0.3-0.5c-0.1-0.1-0.2-0.1-0.4-0.1c0,0,0,0-0.1,0c0,0.1,0,0.4-0.1,0.8c-0.1,0.5-0.1,0.7-0.1,0.8
		c0,0.1-0.2,0.4-0.5,1c-0.2,0.3-0.3,0.5-0.3,0.5c-0.3,0.5-0.8,1.4-1.6,2.5c-0.2,0.3-0.3,0.5-0.4,0.5v0.1c-0.3,0.3-0.9,1.1-1.8,2.5
		c0,0,0,0,0,0.1c-0.2,0.4-0.4,0.5-0.7,0.5c-0.3,0-0.4,0-0.4-0.1V140.2z M246.5,151.8c-1-0.7-1.9-1.6-2.7-2.7c-0.2,0-0.6-0.5-1.4-1.5
		c-0.8-1.1-1.4-1.7-1.8-1.8c-0.2,0.2-0.5,0.7-0.8,1.5c-0.2,0.4-0.3,0.5-0.3,0.5l-2.2,3.6c-0.1,0-0.1,0-0.1,0.1c0,0.1,0,0.2-0.1,0.3
		c-1.4,1.7-2.6,2.6-3.8,2.6c-1.4-0.1-2.1-0.6-2.1-1.5c0.2,0,0.4,0.1,0.5,0.3c0.3,0.3,0.6,0.4,1,0.4c0.9,0,1.9-0.6,2.9-1.8
		c0.4-0.5,0.6-0.8,0.8-1c0.1-0.2,0.4-0.6,0.8-1.4c0.5-0.7,0.7-1.1,0.8-1.2c0.6-1.3,1-2.1,1-2.6v-0.1c-0.8,0.3-2.2,0.6-4.1,1
		c-0.9,0.2-1.6,0.3-1.9,0.4l-1.1,0.5l-0.3-0.1c0-0.1,0-0.2,0-0.3c0-0.9,0.9-1.5,2.7-1.8c0.1,0,0.2,0,0.3,0c0.1-0.1,0.3-0.1,0.7-0.1
		c0.5-0.1,0.7-0.1,0.7-0.1c0.7-0.1,1.5-0.2,2.3-0.4c0.3-0.2,0.4-0.4,0.4-0.7c0.1-0.2,0.2-0.3,0.4-0.4c0.1,0,0.3-0.1,0.5-0.3v-1.8
		l-0.1-0.1l-0.4,0.3c-1.2,0.2-2,0.3-2.5,0.3c-0.1,0-0.3,0-0.5,0c0,0,0,0-0.1,0c-0.7,0.1-1.1,0-1.1-0.4c0-0.5,0.2-0.8,0.5-0.8
		c0.1,0,0.2,0,0.4,0.1c0,0,0.1,0,0.3,0c1.4,0,3.3-0.5,5.7-1.6c1.1-0.5,1.9-0.8,2.5-1c0.3,0,0.4,0.1,0.4,0.4c0,0.8-0.7,1.4-2.2,1.6
		c-0.7,0.2-1.1,0.4-1.1,0.5s0,0.4-0.1,0.7c-0.2,1-0.3,1.7-0.3,2.2c0,0.2,0,0.3,0.1,0.3c0,0,0,0,0.1,0c0.2-0.1,0.5-0.2,1-0.3
		c1.7-0.4,3-0.8,3.8-1.4c0.3-0.2,0.3-0.3,0.1-0.4c0.2-0.2,0.4-0.3,0.7-0.3c0.5,0,0.8,0.2,0.8,0.7c0,0.5-0.3,0.8-1,1.1l-4.4,1.5
		c-0.2-0.1-0.3,0-0.3,0.3c0.3,0.9,2,2.9,5.2,6c0.9,0.6,1.7,1.2,2.3,1.6c0.1,0.1,0.3,0.2,0.5,0.4c0.4,0.5,0.8,0.7,1.2,0.8
		c0.1,0,0.2,0,0.4,0.1c0.8,0,1.2,0.1,1.2,0.4c-0.1,0.4-0.4,0.7-0.8,1c-0.1,0-0.2,0-0.3,0c0,0-0.1-0.1-0.4-0.3
		c-0.3-0.2-0.5-0.3-0.5-0.4C248.1,153.2,246.6,152.2,246.5,151.8z"/>
	<path class="st0" d="M273.3,129.9c0.2,0.9,0.4,1.4,0.5,1.5c0.4-0.5,0.8-0.8,1.2-0.8c0.5,0,1.3,0.1,2.3,0.3c1,0.2,1.7,0.3,2.2,0.3
		c1.7,0.2,2.9-0.4,3.6-1.6c0,0,0,0,0-0.1c-0.3-0.6-1.9-1.2-4.9-1.6c0,0,0,0-0.1,0c-0.1,0-0.5,0-1.1,0c-0.7,0.1-1.1,0.1-1.2,0.1
		c-1.6,0.1-2.5,0.4-2.6,1c0.1,0.2,0.1,0.4,0.1,0.5c0.1,0.1,0.2,0.2,0.3,0.4C273.6,129.8,273.5,129.8,273.3,129.9v-0.1V129.9z
		 M275.8,132.4c0.2,1,0.6,1.6,1.4,1.8c0.2,0,0.6-0.2,1.4-0.5c0.4-0.2,0.5-0.3,0.5-0.3c0.1-0.1,0.3-0.2,0.5-0.4
		c0.3-0.3,0.4-0.4,0.4-0.4c0.2,0,0.3-0.1,0.3-0.3c0,0,0,0-0.1,0c-0.1,0-0.2,0-0.3,0c-1,0-2,0-3,0c0,0,0,0-0.1,0c-0.3,0-0.6,0-1,0
		V132.4z M275.8,134.2v0.7c0.2,0,0.3,0,0.4-0.1C276.2,134.6,276,134.4,275.8,134.2z M274.5,135c0,0.1,0.1,0.1,0.4,0.1
		c0.3,0,0.4-0.4,0.4-1.1h0.3c0-0.1,0-0.1-0.1-0.1c0-0.1,0-0.2-0.1-0.3c-0.1-0.4-0.1-0.6-0.1-0.7c-0.2-0.5-0.6-1-1.4-1.2
		c0,0,0,0,0,0.1c0,0.4,0.1,1,0.4,1.9C274.4,134.3,274.5,134.7,274.5,135z M279.3,142.1c0,0.9,0.2,1.4,0.5,1.4c0.4,0,1-0.1,1.9-0.4
		c0.4-0.2,0.6-0.3,0.7-0.3C281.9,142.4,280.9,142.2,279.3,142.1z M261.8,154.7c0-0.1,0-0.2,0-0.3c0.1-0.9,0.2-2.3,0.3-4.2
		c0.1-1,0.1-1.7,0.1-2.2c0-0.4,0.1-0.9,0.3-1.5c0.3-2.3,0.4-4,0.4-5.2c-0.1-0.7-0.3-1.1-0.7-1.2c-0.4,0-0.8,0.2-1.4,0.7
		c-0.5,0.5-1,0.7-1.4,0.7c-0.4,0-0.5-0.2-0.5-0.7c0-0.4,0.2-0.7,0.7-1c0.1-0.1,0.3-0.3,0.7-0.5c0.4-0.3,0.5-0.4,0.5-0.4
		c0.5-0.5,0.8-1.1,1-1.5v-0.4c-0.1-0.1-0.4-0.2-1-0.3c-0.2,0-0.4,0-0.7,0c-0.4,0-0.9,0.1-1.6,0.3c-0.7,0.3-1.3,0.4-1.8,0.4
		c-0.3,0-0.4-0.2-0.4-0.7c0-0.4,0.5-0.8,1.4-1.2c0.4-0.2,0.6-0.3,0.7-0.4c0.2-0.2,0.6-0.5,1.2-1c0.9-0.5,1.4-0.9,1.4-1
		c0.3-0.2,1-0.9,2.2-2.1c0.2,0,0.3-0.1,0.4-0.4c0.1-0.2,0.2-0.2,0.4-0.1c0.4,0.1,0.6,0.3,0.7,0.5c0,0,0,0,0,0.1
		c-0.5,0.7-1.3,1.6-2.6,2.6c-0.7,0.5-1.3,1-1.6,1.4c0,0,0,0,0,0.1c1.7,0.3,2.6,0.8,2.6,1.6c-0.1,0.6-0.3,1.1-0.5,1.5
		c1.3,0.5,1.9,1.6,1.9,3.6c0,0.4-0.1,1-0.3,1.8c-0.1,0.3-0.1,0.5-0.1,0.5c-0.3,1.9-0.5,3.8-0.5,5.6c0,0.4,0,0.7,0,1.1
		c0.1-0.1,0.1-0.1,0.1-0.1c0.5-0.6,0.9-1.7,1.2-3.1c0.3-0.2,0.5-0.5,0.5-1.1c0.1-0.4,0.2-0.6,0.4-0.8v1.2l-0.8,2.6
		c0.1,0.7-0.2,1.9-1,3.6c-0.4,0.7-0.6,1.2-0.7,1.4c-0.1,0.1-0.2,0.2-0.3,0.3c-0.2,0.4-0.4,0.5-0.5,0.5
		C262,155.4,261.8,155.1,261.8,154.7z M275.5,155.1c-0.6-0.9-1.5-2.5-2.5-4.7v-0.3c0.3,0.3,0.9,1.1,1.9,2.6c1.7,2.5,2.9,3.7,3.4,3.7
		c0,0,0,0,0.1,0c0-0.3,0-0.7,0.1-1.4c0-0.5,0-0.8,0.1-1.1v-8.3c0,0,0-0.1-0.1-0.3c0-0.2,0-0.3-0.1-0.3c-0.1,0-0.1,0-0.1,0l-4.5,1.5
		c-0.2,0-0.3,0-0.3,0.1c0,0.1,0.1,0.3,0.3,0.5c0.1,0.1,0.3,0.3,0.5,0.5c1.2,1.3,1.8,2.3,1.8,3.1c-0.1,0.4-0.2,0.5-0.3,0.5
		c-0.4,0-0.7-0.5-1.1-1.5l-2.2-2.1c-0.3-0.3-0.4-0.5-0.4-0.8l-3,1.1c0,0,0,0-0.1,0c-0.4-0.1-0.6-0.3-0.7-0.5c0.1-0.6,0.4-1,1-1.1
		c0.2,0,0.3,0,0.4,0.1c0.2,0,0.4-0.1,0.7-0.4c0.3-0.3,0.5-0.4,0.8-0.4v0.1c-0.2,0-0.3,0-0.3,0.1c0.1,0,0.1,0,0.1,0
		c0.3,0,0.5-0.1,0.8-0.3l4.1-1.4c0.3-0.2,0.6-0.3,1.1-0.4c0.5-0.2,0.9-0.3,1.1-0.4c-0.3-1.1-0.7-1.7-1.4-1.9c-0.6,0-1.5,0.2-2.7,0.5
		c-1.1,0.4-1.9,0.5-2.5,0.5c-0.7,0.1-1.1-0.1-1.1-0.7c0-0.6,0.3-1,0.8-1l5.7-3.4c0.2-0.2,0.5-0.4,0.8-0.7c0.4-0.2,0.6-0.4,0.8-0.5
		c-0.1-0.1-0.3-0.1-0.7-0.1c-0.5,0-1.1,0.1-1.9,0.3c-0.3,0.1-0.5,0.1-0.5,0.1c-0.1,0-0.3,0.1-0.5,0.3c-0.4,0.3-0.6,0.4-0.8,0.4
		c-0.4-0.4-0.7-0.5-1-0.5c0-0.3,0-0.5,0-0.8c0-0.1,0-0.1,0-0.1s0,0,0.1-0.1c0.1-0.1,0.1-0.2,0.1-0.3c0-0.2,0-0.5-0.1-0.8
		c-0.2-0.3-0.3-0.5-0.3-0.7c-0.1,0-0.1-0.2,0-0.5c0-0.1,0-0.1,0-0.1c-0.2-0.4-0.3-0.9-0.4-1.5c-0.1,0-0.3-0.3-0.5-1
		c-0.3-0.8-0.5-1.3-0.7-1.4c-0.1,0.1-0.2,0.2-0.3,0.4c-0.1,0.1-0.1,0.1-0.1,0.1c-0.2-0.2-0.3-0.5-0.3-1c0-0.1,0-0.2,0-0.3
		c0-0.3,0-0.5,0-0.7c0.1-0.3,0.3-0.5,0.5-0.5c0.2,0,0.5,0,0.8,0c0.6-0.4,1-0.5,1.1-0.5c1.1-0.2,1.7-0.3,1.9-0.4c0.1,0,0.2,0,0.4-0.1
		c0.5,0,1.1,0,1.6,0c1.2,0,2,0,2.6,0.1c0.2,0,0.7,0.1,1.5,0.4c0.8,0.2,1.3,0.3,1.4,0.4c0.5,0.2,0.9,0.4,1.4,0.7
		c0.1,0.1,0.3,0.3,0.5,0.7v0.3l-0.7,1.5c-1.1,1.1-1.8,1.8-2.2,2.1c0,0-0.3,0.2-0.8,0.7c-0.5,0.4-0.9,0.6-1,0.7
		c-0.1,0.1-0.3,0.2-0.5,0.3c-0.4,0.2-0.6,0.4-0.7,0.5h0.1c0,0,0,0,0.1,0c0,0,0.2,0,0.5-0.1c0.6-0.1,1-0.1,1.1-0.1
		c0.5,0.2,0.7,0.4,0.8,0.5c-0.2,1.1-1.6,2.2-4.1,3.4c-1,0.5-2.1,1.3-3.4,2.2c0.3,0,0.5,0,0.5,0c0.6,0,1.2-0.1,1.6-0.4
		c0.1-0.1,0.1-0.2,0.1-0.3c0.2-0.2,0.4-0.3,0.5-0.3c0.1,0,0.2,0,0.3,0c0.2,0.1,0.4,0.1,0.5,0.1c0.5,0,1.1-0.1,1.9-0.4
		c0.8-0.3,1.4-0.4,1.8-0.4c0.5,0,0.7,0.2,0.7,0.5c0,0.5-0.6,1.1-1.8,1.5v0.1c2.1,0.3,3.6,0.5,4.4,0.5c0.1,0,0.1,0,0.1,0h0.1
		c0.1,0,0.4,0,1-0.1c0.5,0,0.7,0,0.8,0c0.4,0.1,0.6,0.3,0.7,0.7c-0.4,0.6-1.1,1-2.1,1c0,0-0.2,0-0.5,0c-0.4,0.1-0.6,0.1-0.7,0.1H284
		l-4,1.1c0,0,0,0,0,0.1c0,0.5,0,1.4,0.1,2.6c0,1.2,0,2.1,0,2.7c0,1,0,2.1,0,3.3c0,0.2,0,0.5,0,1c0.1,2.8-0.5,4.2-1.8,4.2
		c-0.1-0.1-0.2-0.3-0.4-0.7c0,0-0.3-0.3-0.8-0.8c-0.5-0.5-0.7-0.9-0.8-1c-0.1-0.1-0.2-0.2-0.3-0.4
		C275.9,155.4,275.7,155.2,275.5,155.1z"/>
	<path class="st0" d="M294.5,143c0-0.1,0-0.1,0-0.1c0.4-0.4,0.6-0.5,0.7-0.5c1.1-1.5,2-2.9,2.7-4.1l2.2-4.2c0.1-0.5,0.2-0.8,0.3-1.1
		c0-0.1,0-0.1,0-0.1c-0.3,0-0.6,0-1,0c0,0-0.3,0-0.8,0.1c-0.8,0.2-1.3,0.3-1.4,0.3c-0.4,0.1-0.9,0.1-1.6,0.1c-2.1,0.1-3.6,0.4-4.5,1
		c0,0.3-0.1,0.4-0.3,0.4c-0.2,0.1-0.4,0.1-0.5,0.1c-0.8-0.1-1.2-0.3-1.2-0.7c0-0.1,0.1-0.3,0.4-0.5c0.7-0.4,1.1-0.6,1.2-0.7h0.1
		c0.4-0.1,1.4-0.2,3-0.4c4.6-0.5,6.9-1.1,7-1.5c0-0.1,0-0.3,0.1-0.7c0.1-1.6,0.4-2.3,0.8-2.3c0.5,0,0.7,0.2,0.7,0.5c0,0.6,0,1-0.1,1
		h-0.1c0,0.5,0,0.9-0.1,1.1c0,0.2,0,0.3,0,0.3h0.4c0.1,0,0.7-0.1,1.9-0.3c1.4-0.2,2.2-0.3,2.6-0.3c0.3,0,0.7-0.1,1.2-0.3
		c1.6-0.3,2.9-0.4,3.8-0.4c0,0,0.2,0,0.5,0c0.5,0.1,0.9,0.1,1,0.1c0.3,0,0.4,0.1,0.4,0.4c-0.3,0.8-0.7,1.3-1.4,1.5
		c-0.2,0-0.3-0.1-0.4-0.4c-0.2-0.3-0.4-0.4-0.5-0.4c-0.3,0-0.5,0-0.8,0c-0.3,0-0.5,0-0.7,0c-1,0.2-2.4,0.4-4.2,0.5
		c-0.1,0-0.3,0-0.7,0.1c-1.6,0.2-2.6,0.4-3,0.7c-0.1,0.1-0.2,0.2-0.4,0.4c-0.1,0.3-0.2,0.5-0.4,0.5c-0.2,1.3-1,3.2-2.6,5.9
		c-0.1,0-0.1,0-0.1,0.1c-0.1,0.1-0.1,0.1-0.1,0.1c-0.1,0.1-0.4,0.5-0.8,1.2c-0.5,0.7-0.7,1.2-0.8,1.4c-0.2,0.1-0.4,0.3-0.5,0.5
		c-0.5,0.5-0.9,0.8-1.2,0.8C294.8,143.3,294.6,143.2,294.5,143 M303.4,142.4c0,0.4,0,1,0,1.8c-0.1,0.8-0.1,1.5-0.1,1.9
		c0,0,0,0,0,0.1l0.5-0.3l4.5-1.5c0.3-0.1,0.4-0.4,0.4-1c0-4.3-0.1-7.5-0.4-9.6c-0.1,0-0.2,0-0.3,0c-2.8,0.7-4.4,1.6-4.8,2.7v2.3
		c0.2,0.2,0.2,0.5,0.1,1.1c0,0.2,0,0.3,0,0.3c0.5-0.1,1-0.1,1.6-0.1c0.1,0,0.2,0,0.4,0c1.7-0.1,2.6,0.3,2.6,1.2c0,0.2,0,0.3,0,0.4
		c0,0,0,0-0.1,0.1c-0.1,0-0.3-0.1-0.5-0.3c-0.5-0.3-1-0.4-1.5-0.4c-0.6,0.1-1.2,0.2-1.8,0.4c-0.1,0.1-0.2,0.2-0.3,0.4
		C303.7,142.3,303.6,142.4,303.4,142.4z M300.1,155.2c0-0.4,0-0.6,0-0.8c0.1-0.1,0.1-0.2,0.1-0.3c0.1-0.5,0.2-1,0.4-1.5
		c0.2,0,0.3,0.1,0.3,0.4c0,0.4,0,0.8,0,1.2c0.1-0.3,0.2-0.7,0.3-1.2c0.1-0.4,0.1-0.6,0.1-0.7c0-0.3,0.1-1.1,0.3-2.5
		c0.1-1.5,0.1-2.3,0.1-2.5c0.3-0.3,0.4-0.8,0.3-1.5c0-0.3,0-0.5,0-0.5c0-0.1,0-0.5,0.1-1.4c0-0.5,0-0.8,0-0.8c0-0.4,0-0.9,0-1.5
		c0-1.2-0.1-2.2-0.3-3c-0.1,0-0.2,0.1-0.3,0.3c0,0.3-0.1,0.4-0.3,0.4c0,0,0,0,0-0.1c0-0.1,0-0.3-0.1-0.5c0-0.3,0-0.4-0.1-0.4
		c0-0.1,0-0.1,0-0.1c0-0.3,0.1-0.6,0.3-1.1c0.3-0.5,0.4-1.1,0.3-1.6c0.2-0.2,0.5-0.3,1-0.4c0.3,0,0.5,0,0.5-0.1
		c0.3-0.2,0.7-0.4,1.4-0.7c1.6-1,2.8-1.5,3.8-1.5c0.8,0,1.3,0.2,1.4,0.7c-0.1,1.7-0.1,4.3,0,7.7c0.1,2.3,0.1,4,0.1,5.1
		c0.1,0.5,0.1,1,0,1.6c0,0.5,0,0.8,0,1c0,0.7,0,1.9,0.1,3.6c0,1.5,0,2.6,0.1,3.3c0,0.3-0.1,0.5-0.3,0.5c-0.1,0.3-0.3,0.4-0.5,0.3
		c-0.2,0-0.4-0.2-0.7-0.7c-0.2-0.3-0.3-0.5-0.4-0.5c-0.1-0.1-0.2-0.2-0.3-0.4c-1.5-2.3-2.3-4.1-2.3-5.3c0-0.2,0-0.4,0-0.5l0.3,0.3
		l1.1,2.6c0.5,0.4,1,1,1.6,1.8h0.1c0.1-0.4,0.1-0.6,0.1-0.8c0-3.2-0.1-5.6-0.3-7.4l-2.1,1c-0.1,0.1-0.3,0.2-0.7,0.3
		c0,0-0.1,0-0.4,0.1c-1.2,0.6-1.9,1-2,1.1c0,0.2-0.1,0.3-0.4,0.3c-0.1,0.1-0.3,1.6-0.5,4.4c-0.2,1.2-0.3,1.9-0.3,2.1
		c-0.1,0.3-0.3,1-0.5,2.2l-0.7,0.8h-0.1c-0.5,0-0.8-0.6-0.7-1.9C300.1,155.3,300.1,155.2,300.1,155.2z"/>
	<path class="st1" d="M254.9,98.2c-0.7,1.3-1.7,2.3-2.8,3.1c-0.6,0.3-1.1,0.1-1.5-0.7c-1-3.3-2.2-6.4-3.5-9.2
		c-3.5,5.5-7.9,10.7-13.3,15.5c-0.4,0.1-0.7,0.1-0.9,0c-0.1,0-0.1-0.2,0-0.7c5.8-6,9.9-12.1,12.4-18.3c-1.7-3.8-3.7-7.3-5.9-10.5
		l0.4-0.2c0.4,0.6,1.2,1.4,2.2,2.4c2,2.2,3.6,3.8,4.6,5c1.3-3.5,2.5-7.6,3.5-12.4l4.8,2.4c0.3,0.3,0.2,0.7-0.2,1.1l-0.9,1.1
		c-1.3,4.1-2.8,7.7-4.6,10.9c2.5,2.9,4.5,5.6,6.1,8.1C255.7,96.6,255.5,97.4,254.9,98.2 M232.5,63.8c0-0.4,0.1-0.6,0.4-0.4l4.6,2.2
		v1.1l19.8-0.4l2-3.3l5,2.6c0.4,0.1,0.5,0.4,0.2,0.9l-1.5,2c-1.9,22.4-0.2,35.2,5,38.6c0.4,0.3,0.8,0.2,1.1-0.2l1.3-2.4
		c0.3-0.1,0.5,0,0.7,0.4c-0.6,2.3-0.4,4,0.7,5c0.9,1.3,0.8,2.5-0.2,3.5c-1.2,0.6-2.7,0.5-4.6-0.2c-8.1-2.8-11.3-18-9.6-45.8
		l-19.8,0.7v13.3c0.3,13.8-5.7,25.4-17.9,34.9c-0.3,0-0.4-0.1-0.4-0.4c-0.1-0.1-0.1-0.3,0.2-0.4c9.4-8.6,13.9-20.3,13.5-35.1v-8.9
		L232.5,63.8z"/>
	<path class="st1" d="M302.3,81.5c3.9,1.6,5.8,3.1,5.7,4.4c0,1.5-0.7,2.5-2.2,3c-1.2,0.6-1.8,0.4-2-0.7c-0.4-2.8-1.2-4.9-2.2-6.3
		C301.6,81.5,301.8,81.3,302.3,81.5 M286.8,81.7c3.9,1.5,5.8,2.9,5.7,4.4c0,1.5-0.7,2.5-2.2,3.1c-1.3,0.3-2,0-2-0.9
		c-0.1-2.2-0.9-4.2-2.2-6.1c0-0.3,0-0.4,0-0.4C286.3,81.5,286.5,81.5,286.8,81.7z M302.3,92.4c4.1,1.9,6.2,3.6,6.3,5.2
		c-0.3,1.7-1.2,2.8-2.6,3.3c-1.3,0.6-2,0.3-2-0.9c-0.4-3.2-1.2-5.5-2.4-7C301.6,92.4,301.8,92.2,302.3,92.4z M286.8,93
		c4.1,1.9,6.1,3.7,6.1,5.4c-0.1,1.5-0.9,2.5-2.4,3.3c-1.3,0.3-2,0-2.2-0.9c-0.3-2.8-1-5.2-2.2-7.2c-0.1-0.3-0.1-0.5,0-0.7
		C286.3,92.9,286.5,92.9,286.8,93z M282.2,68.4c-2.6,0.1-4.6,0.4-5.9,0.7l-1.7-2l38.8-0.4l3.5-3.5l3.9,4.1c0.3,0.1,0.2,0.4-0.2,0.7
		l-24.6,0.2l3.7,1.5c0.1,0,0.2,0.2,0.2,0.7l-0.2,2.4v4.6l10-0.2l2.2-2.6l5.2,3.1c0.3,0.1,0.3,0.4,0,0.9l-1.5,2l0.7,23.1
		c0.4,4.1-1.7,7.5-6.3,10.2c-0.6,0.1-0.9,0-0.9-0.4c0-1.9-0.7-3.2-2-3.9c-0.3,0-0.4-0.1-0.4-0.2c0-0.3,0.1-0.4,0.4-0.4
		c2.3,0.1,3.3-0.3,3.1-1.3l-0.2-29l-10.2,0.4v17.4l0.2,10.2c-0.4,2-1.9,4.1-4.4,6.1c-0.6,0.1-0.9-0.2-0.9-1.1l0.2-14.2V78.8
		l-10.7,0.4v28.5c-0.1,1.5-1.2,3.3-3.1,5.7c-0.6,0.6-1,0.8-1.3,0.7c-0.3,0-0.4-0.3-0.2-0.9l0.2-9.8V85.2v-9.8l4.8,2.6l10.2-0.4v-3.3
		l-0.2-6.1L282.2,68.4z"/>
</g>
<g>
</g>
<g>
</g>
<g>
</g>
<g>
</g>
<g>
</g>
<g>
</g>
<g>
</g>
<g>
</g>
<g>
</g>
<g>
</g>
<g>
</g>
<g>
</g>
<g>
</g>
<g>
</g>
<g>
</g>
</svg>
