<?xml version="1.0" encoding="utf-8"?>
<!-- Generator: Adobe Illustrator 17.0.0, SVG Export Plug-In . SVG Version: 6.00 Build 0)  -->
<!DOCTYPE svg PUBLIC "-//W3C//DTD SVG 1.1//EN" "http://www.w3.org/Graphics/SVG/1.1/DTD/svg11.dtd">
<svg version="1.1" id="Layer_1" xmlns="http://www.w3.org/2000/svg" xmlns:xlink="http://www.w3.org/1999/xlink" x="0px" y="0px"
	 width="381.8px" height="97px" viewBox="0 0 381.8 97" style="enable-background:new 0 0 381.8 97;" xml:space="preserve">
<style type="text/css">
	.st0{fill:#AA192A;}
	.st1{fill:#3E3A39;}
</style>
<g id="page-3.svg">
	<path id="shui" class="st0" d="M160.1,16.1l9.4-0.7l2-2.4l4.8,2.6c0.3,0.4,0.2,0.8-0.2,1.1l-1.3,1.7c-2.2,11.5-9.4,22.7-21.6,33.6
		c-0.3,0.1-0.4,0-0.4-0.4c9.3-10.2,14.9-21.8,16.8-34.9l-9.2,0.4c-0.3,0.1-0.5,0-0.7-0.4C159.6,16.3,159.8,16.1,160.1,16.1
		 M186.2,14.2c0.1,1.5,0.6,3.5,1.3,6.1c0.3,1,0.5,1.7,0.7,2.2c3.6-4.5,6.2-8.1,7.6-10.9l5,4.4c0.4,0.3,0.4,0.7-0.2,1.1
		c-2.2,0.7-6.2,2.8-12,6.3c2.5,7.1,8.4,14.4,17.6,21.8c0.3,0.1,0.4,0.4,0.4,0.7c-0.1,0.1-0.4,0.2-0.7,0.2c-2.5-0.1-4.9,0.7-7.4,2.4
		c-7.4-6.2-11.8-17.7-13.1-34.2H186.2z M177.7,0.7l7,2.8c0.3,0.1,0.3,0.4,0,0.7l-1.3,2L183,36.4v6.8c-0.1,4.1-2.8,7.3-7.8,9.8
		c-0.4,0.1-0.7,0-0.9-0.4c0.3-2.5-0.3-4-1.7-4.6c-0.4-0.4-0.4-0.7,0.2-0.9c3.3,0.3,4.9-0.7,4.6-2.8l0.7-36.4L177.7,0.7z"/>
	<path id="mu" class="st0" d="M22.9,8.9c4.6,2.3,6.9,4.4,6.8,6.1c-0.3,1.6-1.4,2.8-3.3,3.5c-1,0.1-1.6-0.2-1.7-1.1
		c-0.3-3.9-1-6.6-2.2-8.1C22.3,8.9,22.4,8.8,22.9,8.9 M22.2,25.7c5.2,2.8,7.8,4.8,7.6,6.1c0,1.6-1.1,3-3.3,4.1
		c-1.2,0.3-1.8-0.1-2-1.3c-0.3-3-1.2-5.9-2.8-8.5C21.6,25.7,21.8,25.6,22.2,25.7z M17,7l-1.1,15l19-0.4l0.4-15.3L17,7z M15.7,23.3
		l-1.1,16.6l20.1-0.2l0.2-16.8L15.7,23.3z M8.7,23.5c-2.8,0-5,0.3-6.8,0.9l-2-2l10.9-0.2l0.9-12.6c0-0.4,0-1.6,0-3.5
		c0.1-2,0.2-3.3,0.2-3.9c-0.1-0.3,0.1-0.4,0.7-0.2L17,5.7L35.1,5l2.4-2.8l5.2,3.7c0.3,0,0.2,0.3-0.2,0.9l-1.5,2l-0.2,12.9l4.1-0.2
		l3.1-3.5l4.1,3.9c0.1,0.1,0.2,0.2,0.2,0.2c0,0.1-0.1,0.3-0.4,0.4l-11.1,0.2l-0.4,17l2.4-0.2l3.1-3.3l3.9,3.7
		c0.3,0.1,0.4,0.3,0.2,0.4c0,0.1-0.1,0.2-0.4,0.2l-9.2,0.2V41c0,5.7-2.5,9.9-7.6,12.9C32.3,54,32,53.8,32,53.2
		c-0.1-2.3-0.9-3.8-2.4-4.4c-0.3-0.4-0.2-0.7,0.2-0.7c3.3,0,4.9-1.2,4.6-3.7l0.2-3.5l-20.1,0.2c-1,2-2.4,3.5-4.1,4.4
		c-0.6,0.4-1,0.4-1.3-0.2l0.9-9.6l0.9-12.4L8.7,23.5z"/>
	<path id="ai_1_" class="st0" d="M66.9,8.3c2.6,2,4,3.8,4.1,5.4c-0.4,1.5-1.3,2.3-2.6,2.4c-0.9-0.1-1.4-0.7-1.5-1.5
		c0.3-2.8,0.1-4.7-0.4-5.9C66.5,8.3,66.6,8.1,66.9,8.3 M75.9,7.8c3.2,1.9,4.6,3.6,4.4,5.2c-0.4,1.2-1.3,2-2.6,2.4
		c-1,0-1.6-0.4-1.7-1.3c0.4-2.8,0.3-4.8-0.4-6.1C75.4,7.8,75.6,7.7,75.9,7.8z M86.8,33.1l-12.6,0.4c1.6,2.8,3.7,5.2,6.3,7.2
		C82.5,38.6,84.6,36,86.8,33.1z M86.3,0l3.1,4.4C89.5,4.8,89.4,5,89,5c-8,1-16.1,1.8-24.4,2.4c-0.3,0-0.4-0.1-0.4-0.2
		C64,7,64,6.9,64.3,6.8C73.6,5,81,2.8,86.3,0z M87.9,6.5l4.8,3.1c0.4,0.3,0.4,0.6-0.2,0.9l-1.1,0.7l-7.4,5.2l8.9-0.4l2.6-1.7l5,5
		c0.3,0.3,0.4,0.6,0.2,0.9c0,0.3-0.3,0.4-0.9,0.4c-3.1-0.1-5.5,0.5-7.4,2c-0.4,0.1-0.7,0-0.7-0.4l1.3-4.8l-30.5,0.9
		c-0.6,3.2-2.3,5.7-5,7.6c-0.6,0.4-0.9,0.4-1.1-0.2c-0.4-1.9-0.4-3.3,0.2-4.1c1.9-1.3,2.8-3.3,2.6-6.1c0-0.4,0.1-0.7,0.2-0.7
		c0.1-0.1,0.4-0.1,0.9,0.2c0.9,0.6,1.5,1.3,2,2.2l20.5-0.7C85.3,12.1,87,8.9,87.9,6.5z M66.3,27.5c-2.3,0.1-4.4,0.4-6.1,0.7
		l-1.7-1.5l11.8-0.2c0.9-2.5,1.5-5.1,2-7.8l5,2.2c0.4,0.1,0.4,0.4,0,0.9l-0.9,1.5c-0.3,1.2-0.7,2.2-1.1,3.1l16.3-0.2l3.3-3.5
		l4.4,3.9c0.3,0.3,0.3,0.4,0,0.4l-24.4,0.4c-0.6,1.9-1.5,3.6-2.6,5.2L86.8,32l2.4-2.6l4.4,2.8c0.4,0.3,0.4,0.6-0.2,0.9l-1.5,1.3
		c-2.8,3.1-5.5,5.9-8.3,8.5c4.8,2.5,10.6,4.3,17.4,5.4c0.4,0.3,0.5,0.6,0.2,0.9c-2.3,0.1-4.7,1.7-7.2,4.6c-5.4-2.5-9.8-5.4-13.3-8.7
		C76,48,68.8,50.8,58.9,53.4c-0.6,0.3-0.7,0.1-0.4-0.4c9.7-3.3,16.4-6.8,20.1-10.2c-1.9-2.6-3.6-5.7-5-9.2l-2,0.2
		c-3.3,6-9.8,12.1-19.4,18.5c-0.7,0.1-0.9,0-0.4-0.4c9.2-6.8,15.2-15,18.1-24.4H66.3z"/>
	<path id="shi" class="st0" d="M130,2.6c4.5,1.9,6.6,3.9,6.3,6.1c-0.1,1.6-1.1,2.7-2.8,3.3c-1,0.4-1.6,0.1-1.7-0.9
		c0,0.1,0,0.1,0-0.2c0-3.2-0.7-5.7-2.2-7.6c-0.1-0.1-0.1-0.4,0-0.7C129.5,2.5,129.7,2.5,130,2.6 M137.2,22.9c0.6-0.1,0.7,0,0.4,0.4
		l-8.1,12.4c-1.5,1.9-4,5.8-7.6,11.8c-0.3,0.4-0.7,0.4-1.1,0c-0.7-1.3-1.3-2.8-1.7-4.4c0-0.1,0.1-0.4,0.2-0.9c0-0.3,0-0.4,0-0.4
		c1.3-1,2.5-2.2,3.7-3.5l-0.4-23.5c0-3.5-0.1-6-0.4-7.6l5.9,2.2c0.3,0.3,0.3,0.6,0,0.9l-0.9,1.3l-0.7,23.3c0.1-0.1,0.4-0.5,0.9-1.1
		c0.6-0.6,1-1,1.3-1.3L137.2,22.9z M102.1,31.4c-0.3,0.1-0.5,0.1-0.7,0c-0.1-0.1-0.1-0.3,0-0.4c6.8-8.7,11.8-18.6,15-29.6l4.1,2
		c0.3,0.1,0.3,0.4,0,0.7l-0.7,0.9c-1.2,2.9-2.5,5.7-4.1,8.3l-0.4,33.1c0,1.7-0.8,3.7-2.4,5.9c-0.9,0.7-1.4,0.7-1.5,0l0.4-14.6
		l0.4-18.7C109.4,23,106,27.2,102.1,31.4z M140,3.7l5.9,2.6c0.6,0.1,0.7,0.4,0.2,0.9L145,8.9v16.3c-0.1,6.4-1,11.2-2.6,14.4
		c5.1,1.6,8.1,3.3,9.1,5.2c0.3,2.6-0.9,4.3-3.5,5c-0.9,0.1-1.6-0.4-2.2-1.7c-0.9-2.9-2.3-5.4-4.1-7.4c-2.2,4.2-8.6,8.1-19.4,11.6
		c-0.3,0.1-0.4,0.1-0.4-0.2c-0.1-0.1-0.1-0.3,0.2-0.4c8.1-3.1,13.1-6.2,14.8-9.4c2.2-2.8,3.3-8.6,3.3-17.6V12.2
		C140.2,7.7,140.1,4.9,140,3.7z"/>
	<g id="subtitle_2_">
		<path class="st1" d="M29.9,83.1c0.2,0.7,0.4,1.2,0.5,1.5c0.2,0,0.4-0.1,0.5-0.4c0.3-0.2,0.5-0.3,0.5-0.3c0.4-0.1,0.8-0.1,1.4,0
			c0.4,0,0.7,0,1,0c0.2-0.1,0.4-0.2,0.7-0.4c0.2-0.3,0.4-0.4,0.5-0.4c0.1-0.1,0.3-0.3,0.5-0.7c0.4-0.4,0.5-0.6,0.5-0.7
			c0.4-0.4,0.5-0.7,0.5-1.1c0.1-0.4,0-0.5-0.3-0.5C32.4,80.4,30.2,81.4,29.9,83.1 M29,86.2c-0.5-0.3-0.7-0.5-0.7-0.7
			c0-0.2,0.1-0.4,0.3-0.7c0.1-0.2,0.1-0.4,0.1-0.5c-0.3-2.3-0.7-3.7-1.2-4.2c0,0,0,0-0.1,0c-0.1,0-0.2,0-0.3,0.1
			c-0.2,0.2-0.3,0.3-0.4,0.3c-0.5-0.1-0.8-0.5-1-1.4c-0.1,0-0.8,1-2.1,2.9c-0.2,0.3-0.3,0.5-0.3,0.5c-0.6,0.8-1.4,1.6-2.2,2.3
			c0,0-0.4,0.4-1.2,1.2c-1.7,1.8-2.7,2.8-2.9,3c-0.5,0.4-0.9,0.8-1.2,1.2c-0.1,0-0.2,0-0.3,0c-0.8,0-1.2-0.5-1.1-1.6
			c0-0.3,0-0.6,0.1-1.1c0-0.4,0-0.6,0-0.8c0-0.4,0-0.7,0-1c-0.1-0.2-0.1-0.3,0-0.4L14,79.9c-0.2-0.5-0.3-1.1-0.4-1.6
			c0,0,0-0.1,0-0.3c-0.1-0.2,0.1-0.3,0.5-0.4c0.4,0,0.6,0.2,0.7,0.5c0.5,1.5,0.8,3.8,1,7c0,0.3,0,0.6,0,1l0.1,0.3
			c0,0.2,0,0.5-0.1,0.8c-0.1,0.5-0.1,0.8-0.1,1c0,0.2,0,0.4,0.1,0.5c0.9-0.7,1.6-1.5,2.2-2.2c0-0.4,0-1,0.1-1.8
			c0.2-1.2,0.3-2.1,0.3-2.7c0-0.1,0-0.4,0-0.8c-0.1-0.5-0.1-0.7-0.1-0.8C18.1,80,18,79.5,18,78.5c0-1.5-0.2-2.4-0.7-2.6
			c0,0-0.1,0-0.4-0.1c-0.5,0-0.7,0-0.7-0.1v-1c0.3,0,0.4-0.1,0.4-0.3c0-0.1,0-0.1,0-0.1L16.5,74c-0.1-0.1-0.3-0.5-0.5-1.4
			c-0.2-0.5-0.3-0.9-0.3-1c0-0.1-0.2-0.6-0.5-1.5c-0.4-0.8-0.6-1.3-0.7-1.4c-0.1-0.3-0.1-0.5-0.1-0.7c0-0.5,0.2-0.8,0.7-0.8
			c0.3,0,0.4,0.3,0.4,0.8l1.2,2.6c0.1,0.8,0.5,1.8,1.1,3c1.6-0.9,2.9-2.4,4-4.4C21.6,69.1,21,69,20,69c-0.4,0-0.9,0-1.6,0
			c-0.8,0.1-1.4,0.1-1.8,0.1c-0.1,0-0.2,0-0.4,0c-0.2-0.2-0.3-0.4-0.3-0.7c0-0.4,0.3-0.5,0.8-0.5h4.4c0.1,0,0.2,0,0.4,0.1
			c0.9,0.1,1.4,0.3,1.4,0.7c0,0.9-0.6,2.1-1.8,3.4c-0.3,0.3-0.5,0.5-0.5,0.7h0.1c1.1-0.3,1.7-0.5,1.9-0.7c0.2,0.1,0.3,0.3,0.4,0.5
			c0,0.4-0.2,0.6-0.7,0.8c0-0.1-0.1-0.1-0.3-0.1c-0.1,0-0.1,0-0.1,0.1l-2.3,1.1c-0.4-0.1-0.5,0.1-0.5,0.5c0,0.4,0,0.7,0.1,1
			c0,1,0,2.2,0.1,3.7c0.1,0.5,0.1,0.8,0.1,1.1c0.4-0.4,0.9-0.8,1.5-1.4c1-0.9,1.7-1.6,2.2-2.2c0.2,0.1,0.4,0,0.5-0.1
			c0.2-0.2,0.3-0.3,0.4-0.3c0.2,0,0.4,0.1,0.7,0.4c-0.2,0.3-0.3,0.5-0.4,0.8c-0.1,0.1-0.3,0.2-0.7,0.4c-0.2,0.1-0.7,0.5-1.5,1.4
			h-0.1c-0.7,0.6-1.2,1.1-1.4,1.4c-0.6,0.9-1,2-1.1,3.3c0,0.2,0,0.3,0,0.4c0.7-0.5,1.7-1.4,2.9-2.7c1.1-1.3,2-2.1,2.6-2.6
			c0.4-0.4,0.6-1.2,0.7-2.6c0.1-0.8,0.2-1.2,0.3-1.2c0.2,0.2,0.3,0.6,0.3,1.4c0.1,1,0.3,1.5,0.7,1.5c0.2-0.4,0.5-0.9,1.1-1.6
			c0.2-0.3,0.3-0.5,0.4-0.7c1-1.6,1.5-2.7,1.6-3.1c0-0.2-0.2-0.3-0.5-0.3c-0.1-0.2-0.3-0.3-0.7-0.4c-0.1-0.1-0.4-0.2-1-0.4
			c-0.6-0.3-1-0.4-1.1-0.4c-0.3,0.1-0.4,0.3-0.4,0.7c0,0.3,0,0.4-0.1,0.4l-0.1-0.1v-1.2c-0.1,0-0.1-0.1-0.1-0.4
			c0-0.5,0.3-0.7,0.8-0.7c0.3,0,0.6,0.2,1.1,0.5c0.3,0.1,0.5,0.2,0.5,0.3c0.5,0.2,1.2,0.5,2.2,1c0.5-0.3,1-1.3,1.5-3.1
			c0-0.4,0-0.5-0.1-0.5c0,0,0,0-0.1,0.1c-0.8,0.5-1.4,0.8-1.8,0.8c-0.8,0-1.2-0.4-1.1-1.1c0-0.2,0-0.4,0-0.5c0.3,0,0.7-0.5,1.2-1.4
			c0.7-1.2,1.3-1.7,1.8-1.5c0.3,0.2,0.4,0.4,0.4,0.5c0,0.3-0.2,0.6-0.5,1c-0.3,0.4-0.4,0.6-0.4,0.8c0.2,0,0.4-0.1,0.7-0.3
			c0.4-0.1,0.6-0.1,0.7-0.1c0.4,0,0.6,0.4,0.7,1.2c0.1,0.2,0.1,0.3,0.1,0.4c-0.4,1.5-0.9,2.9-1.6,4.2c0,0,0,0-0.1,0.1
			c0.3,0.3,1.5,1.1,3.6,2.3c0.1,0,0.2,0.1,0.4,0.3c0.8,0.3,1.3,0.5,1.4,0.7l2.3,1.1l0.3,0.1l1.8,0.4c0.1,0,0.1,0.1,0.1,0.3
			c0,0.5-0.4,0.8-1.1,0.8c-0.4,0-0.7-0.2-1.1-0.5c-0.3-0.3-0.5-0.5-0.7-0.5c-0.9-0.4-2.2-1-3.8-1.9c-0.8-0.5-1.5-0.8-1.9-1
			c-0.2-0.1-0.4-0.2-0.7-0.4c-0.4-0.4-0.7-0.5-1.1-0.5c-0.2,0-0.3,0.1-0.4,0.4c0,0.2,0,0.3-0.1,0.3l-1.9,3.1h-0.1
			c-0.2,0.4-0.3,0.6-0.3,0.8c0,0,0,0.1-0.1,0.3c0,0.5,0.3,1.2,1,2.2c0.1,0,0.1,0,0.1,0c0.1,0,0.2,0,0.4-0.1c2.6-1.3,4.6-1.9,6.2-1.8
			c1.4,0,2,0.2,2,0.7v1.1c0,0,0,0-0.1,0.1c-1.1,2.5-2.3,3.7-3.6,3.7c-0.5,0-0.9-0.1-1-0.4h-1.5c-0.2,0-0.5,0.2-0.8,0.5
			c0.8,0.2,1.6,0.3,2.5,0.3c1.4,0,2.7-0.1,4.1-0.4c0.2,0,0.4-0.1,0.5-0.3c0.3-0.1,0.5-0.1,0.5-0.1c0.4,0,0.5,0.1,0.5,0.4
			c-0.1,0.6-0.5,1.1-1.4,1.2c-0.1,0-0.4,0-1,0.1c-0.5,0.1-0.9,0.1-1,0.1h-5.5c0,0.3,0,0.7,0.1,1.2c0,0.5,0,1,0,1.2
			c0,0.7-0.1,1.3-0.4,1.8c0,0,0,0-0.1,0c-0.5,0-0.7-0.7-0.8-2.1c-0.1-0.3-0.1-0.5-0.1-0.5c0-0.1,0-0.4,0-0.8
			C29.1,86.6,29,86.3,29,86.2z"/>
		<path class="st1" d="M48.2,79.2c0-0.1,0-0.1,0-0.1c0.4-0.4,0.6-0.5,0.7-0.5c1.1-1.5,2-2.9,2.7-4.1l2.2-4.2
			c0.1-0.5,0.2-0.8,0.3-1.1c0-0.1,0-0.1,0-0.1c-0.3,0-0.6,0-1,0c0,0-0.3,0-0.8,0.1c-0.8,0.2-1.3,0.3-1.4,0.3
			c-0.4,0.1-0.9,0.1-1.6,0.1c-2.1,0.1-3.6,0.4-4.5,1c0,0.3-0.1,0.4-0.3,0.4C44.3,71,44.1,71,43.9,71c-0.8-0.1-1.2-0.3-1.2-0.7
			c0-0.1,0.1-0.3,0.4-0.5c0.7-0.4,1.1-0.6,1.2-0.7h0.1c0.4-0.1,1.4-0.2,3-0.4c4.6-0.5,6.9-1.1,7-1.5c0-0.1,0-0.3,0.1-0.7
			c0.1-1.6,0.4-2.3,0.8-2.3c0.5,0,0.7,0.2,0.7,0.5c0,0.6,0,1-0.1,1h-0.1c0,0.5,0,0.9-0.1,1.1c0,0.2,0,0.3,0,0.3h0.4
			c0.1,0,0.7-0.1,1.9-0.3c1.4-0.2,2.2-0.3,2.6-0.3c0.3,0,0.7-0.1,1.2-0.3c1.6-0.3,2.9-0.4,3.8-0.4c0,0,0.2,0,0.5,0
			c0.5,0.1,0.9,0.1,1,0.1c0.3,0,0.4,0.1,0.4,0.4c-0.3,0.8-0.7,1.3-1.4,1.5c-0.2,0-0.3-0.1-0.4-0.4c-0.2-0.3-0.4-0.4-0.5-0.4
			c-0.3,0-0.5,0-0.8,0c-0.3,0-0.5,0-0.7,0c-1,0.2-2.4,0.4-4.2,0.5c-0.1,0-0.3,0-0.7,0.1c-1.6,0.2-2.6,0.4-3,0.7
			c-0.1,0.1-0.2,0.2-0.4,0.4c-0.1,0.3-0.2,0.5-0.4,0.5c-0.2,1.3-1,3.2-2.6,5.9c-0.1,0-0.1,0-0.1,0.1c-0.1,0.1-0.1,0.1-0.1,0.1
			c-0.1,0.1-0.4,0.5-0.8,1.2c-0.5,0.7-0.7,1.2-0.8,1.4c-0.2,0.1-0.4,0.3-0.5,0.5c-0.5,0.5-0.9,0.8-1.2,0.8
			C48.4,79.5,48.3,79.4,48.2,79.2 M57.1,78.5c0,0.4,0,1,0,1.8c-0.1,0.8-0.1,1.5-0.1,1.9c0,0,0,0,0,0.1l0.5-0.3l4.5-1.5
			c0.3-0.1,0.4-0.4,0.4-1c0-4.3-0.1-7.5-0.4-9.6c-0.1,0-0.2,0-0.3,0c-2.8,0.7-4.4,1.6-4.8,2.7v2.3c0.2,0.2,0.2,0.5,0.1,1.1
			c0,0.2,0,0.3,0,0.3c0.5-0.1,1-0.1,1.6-0.1c0.1,0,0.2,0,0.4,0c1.7-0.1,2.6,0.3,2.6,1.2c0,0.2,0,0.3,0,0.4c0,0,0,0-0.1,0.1
			c-0.1,0-0.3-0.1-0.5-0.3c-0.5-0.3-1-0.4-1.5-0.4c-0.6,0.1-1.2,0.2-1.8,0.4c-0.1,0.1-0.2,0.2-0.3,0.4
			C57.4,78.5,57.2,78.5,57.1,78.5z M53.8,91.4c0-0.4,0-0.6,0-0.8c0.1-0.1,0.1-0.2,0.1-0.3c0.1-0.5,0.2-1.1,0.4-1.5
			c0.2,0,0.3,0.1,0.3,0.4c0,0.4,0,0.8,0,1.2c0.1-0.3,0.2-0.7,0.3-1.2c0.1-0.4,0.1-0.6,0.1-0.7c0-0.3,0.1-1.1,0.3-2.5
			c0.1-1.5,0.1-2.3,0.1-2.5c0.3-0.3,0.4-0.8,0.3-1.5c0-0.3,0-0.5,0-0.5c0-0.1,0-0.5,0.1-1.4c0-0.5,0-0.8,0-0.8c0-0.4,0-0.9,0-1.5
			c0-1.2-0.1-2.2-0.3-3c-0.1,0-0.2,0.1-0.3,0.3c0,0.3-0.1,0.4-0.3,0.4c0,0,0,0,0-0.1c0-0.1,0-0.3-0.1-0.5c0-0.3,0-0.4-0.1-0.4
			c0-0.1,0-0.1,0-0.1c0-0.3,0.1-0.6,0.3-1.1c0.3-0.5,0.4-1.1,0.3-1.6c0.2-0.2,0.5-0.3,1-0.4c0.3,0,0.5,0,0.5-0.1
			c0.3-0.2,0.7-0.4,1.4-0.7c1.6-1,2.8-1.5,3.8-1.5c0.8,0,1.3,0.2,1.4,0.7c-0.1,1.7-0.1,4.3,0,7.7c0.1,2.3,0.1,4,0.1,5.1
			c0.1,0.5,0.1,1,0,1.6c0,0.5,0,0.8,0,1c0,0.7,0,1.9,0.1,3.6c0,1.5,0,2.6,0.1,3.3c0,0.3-0.1,0.5-0.3,0.5c-0.1,0.3-0.3,0.4-0.5,0.3
			c-0.2,0-0.4-0.2-0.7-0.7c-0.2-0.3-0.3-0.5-0.4-0.5c-0.1-0.1-0.2-0.2-0.3-0.4c-1.5-2.3-2.3-4.1-2.3-5.3c0-0.2,0-0.4,0-0.5l0.3,0.3
			l1.1,2.6c0.5,0.4,1,1,1.6,1.8h0.1c0.1-0.4,0.1-0.6,0.1-0.8c0-3.2-0.1-5.6-0.3-7.4l-2.1,1c-0.1,0.1-0.3,0.2-0.7,0.3
			c0,0-0.1,0-0.4,0.1c-1.2,0.6-1.9,1-2,1.1c0,0.2-0.1,0.3-0.4,0.3c-0.1,0.1-0.3,1.6-0.5,4.4c-0.2,1.2-0.3,1.9-0.3,2.1
			c-0.1,0.3-0.3,1-0.5,2.2l-0.7,0.8h-0.1c-0.5,0-0.8-0.6-0.7-1.9C53.8,91.5,53.8,91.4,53.8,91.4z"/>
		<path class="st1" d="M85.9,80c1.4,0.8,2.6,1.8,3.8,2.9c0-0.3,0.1-0.4,0.3-0.4c0.4-1.1,0.8-2.1,1.4-3.1l0.1-0.1l1.1-1.9l0.1-0.1
			c0-0.1,0.2-0.5,0.5-1.1c0.1-0.1,0.1-0.2,0.1-0.3c0,0,0,0-0.1,0c-0.4,0-1.3,0.5-2.9,1.4c-0.8,0.5-1.3,0.7-1.5,0.8
			c-0.8,0.5-1.4,0.9-1.8,1c0,0-0.1,0.1-0.3,0.3C86.3,79.7,86,80,85.9,80 M82.8,92.4c0.1-0.8,0.2-1.4,0.4-1.8c0,0.1,0,0.5,0.1,1.1
			c0.1,0.5,0.1,0.9,0.1,1c0,0.5,0.1,0.8,0.3,0.8c0.1,0,0.1,0,0.1,0c0.1-0.1,0.1-0.1,0.1-0.1c1.4-1.9,2.5-3.9,3.4-6l0.1-0.1l1.6-3
			c0-0.1-0.6-0.7-1.9-1.8c-0.4-0.4-0.6-0.6-0.7-0.7c-0.5-0.3-1.2-0.4-2-0.4l-0.1-0.1l-1.1,0.5c0,0,0,0-0.1,0c-0.3,0-0.4-0.2-0.4-0.7
			c0-0.1,0-0.2,0-0.3c1.8-1.2,3.5-2.5,5.1-3.8c0.2-0.2,0.5-0.5,1-0.8c0.5-0.6,1-1.1,1.4-1.2c0.2-0.1,0.3-0.1,0.3-0.1
			c0.5-0.4,1.1-1,1.8-1.8c0.5-0.5,0.8-1,1.1-1.2h-0.1c0,0,0,0-0.1,0c-0.1,0-0.2,0-0.4,0.1c-2,0.8-3.8,1.1-5.5,0.8
			c-0.2,0.2-0.5,0.5-0.8,1.1c-0.3,0.5-0.5,0.9-0.8,1.1L83.6,78c0,0-0.1,0-0.3,0.1c-0.2,0.2-0.3,0.3-0.4,0.3c-0.3,0-0.4-0.2-0.4-0.5
			c0-0.6,0.2-1.2,0.7-1.8c0.3-0.4,0.5-0.7,0.5-1c0-0.7,0.1-1.1,0.4-1.1c-0.2,0.3-0.3,0.5-0.3,0.8c0,0.1,0,0.2,0,0.4
			c0.2-0.2,0.3-0.3,0.3-0.3c0.5-0.5,1.1-1.3,1.9-2.5v-0.1c-0.2-0.3-0.5-0.5-1-0.5c0,0,0,0-0.1,0.1l-0.4,0.7c0.1-0.4,0-0.8-0.1-1.2
			c-0.2-0.4-0.3-0.6-0.3-0.8c0.1-0.5,0.3-0.7,0.7-0.8c0,0,0.1,0,0.3,0.1c0.1,0,0.1,0,0.1,0.1c0.5,0.9,1,1.4,1.5,1.4
			c0.1,0,0.1,0,0.1-0.1c0.1-0.1,0.3-0.4,0.7-0.8c0.5-0.5,0.7-0.8,0.7-0.8c0-0.1,0.1-0.3,0.4-0.5c1.2-1.5,1.8-2.5,1.8-2.9
			c-0.3-0.1-0.5-0.1-0.8-0.1c-1.1,0-2.5,0.2-4.2,0.5c-0.8,0.2-1.4,0.3-1.8,0.4c-0.1,0-0.2,0-0.3,0c-0.4,0-0.5-0.2-0.5-0.7
			c0-0.3,0.2-0.5,0.7-0.7c0.4-0.2,0.6-0.4,0.7-0.5c0.7-0.5,1.6-1.1,2.7-1.9c1.7-1.5,3.1-2.2,4-2.2v1.1c0,0.1-0.3,0.2-1,0.4
			c-0.7,0.3-1.1,0.5-1.2,0.5c-0.3,0.2-0.6,0.5-1.1,1c-0.5,0.5-1,0.8-1.2,1c0,0-0.1,0-0.3,0.1c-0.4,0.2-0.6,0.3-0.7,0.4
			c0.2-0.1,0.3-0.1,0.4,0c0,0.1,0,0.1,0.1,0.1c1.2-0.5,2.4-0.7,3.6-0.7c0.2,0,0.6,0,1.2,0.1c0.6,0.1,1.1,0.1,1.2,0.1
			c0.1,0.1,0.1,0.2,0.1,0.4c0,0.5-0.4,1.3-1.1,2.2c-0.1,0.1-0.2,0.2-0.3,0.3c-0.2,0.4-0.8,1.1-1.8,2.2c-0.4,0.4-0.5,0.6-0.5,0.8
			c0,0.1,0,0.1-0.1,0.1c-0.1,0.1-0.1,0.2-0.1,0.3c0,0.1,0,0.2,0.1,0.3c1.9,0,3.3-0.2,4.2-0.5c0.7-0.1,1.2-0.2,1.4-0.3
			c0.4-0.3,0.5-0.5,0.5-0.5c0.1,0,0.1,0,0.1,0c0.5,0,0.7,0.1,0.7,0.4c0,0.5-0.4,1-1.2,1.6c-0.2,0.2-0.3,0.3-0.4,0.4
			c-0.5,0.5-1.6,1.5-3,2.9v0.1l4.2-1.9c0.1,0,0.1,0,0.1,0c0.5,0,0.8,0.2,0.8,0.5v0.1c-0.2,0.4-0.5,0.9-1,1.5
			c-0.5,0.6-0.9,1.1-1.1,1.5c-0.3,0.8-0.8,2-1.6,3.4c-0.5,0.9-1,1.6-1.2,2c0,0.1,0,0.1-0.1,0.1c-0.1,0.1-0.1,0.3-0.1,0.5
			c0,0.1,0,0.1,0,0.1c0.1,0,0.2,0.1,0.4,0.3c0.3,0.2,0.4,0.3,0.4,0.4c0.3,0.3,0.6,0.6,1,1.1c0.4,0.5,0.6,0.8,0.8,1
			c0.1,0.1,0.3,0.3,0.7,0.5c1.4,1.3,2.1,2.1,2.1,2.3h0.3c-0.2,0.5-0.5,0.9-0.8,1c-0.2,0-0.3,0-0.4,0c-0.6-1.1-1.8-2.5-3.4-4.1
			c-0.6-0.6-1.1-1.1-1.4-1.5l-0.3,0.3c-0.2,0.4-0.5,0.9-1,1.6c-1.6,2.8-3.1,5.3-4.2,7.4c-0.1,0.1-0.2,0.3-0.4,0.5
			c-0.3,0.5-0.5,0.7-0.7,0.7c-0.4-0.1-0.6-0.7-0.7-1.9C82.8,92.9,82.8,92.4,82.8,92.4z"/>
		<path class="st1" d="M121.1,73.6c0-0.1,0-0.3,0.1-0.7c0.1-0.2,0.3-0.7,0.7-1.6c0.4-0.9,0.5-1.5,0.5-1.6c0.1-0.1,0.2-0.3,0.3-0.5
			c0.6-1.5,1.3-2.2,1.9-2.2c0.3,0,0.4,0.1,0.4,0.3c0,0,0,0.1,0.1,0.3c0,0.1,0,0.2,0,0.3c0,0.1,0,0.2-0.1,0.4c0,0.1-0.3,0.5-0.8,1.1
			c-0.3,0.4-0.5,0.6-0.5,0.7c-0.1,0.2-0.3,0.5-0.5,1.1c-0.3,0.5-0.5,1-0.7,1.2c0,0,0,0,0,0.1l-0.5,1.8l-0.5,0.4
			c-0.1-0.2-0.2-0.5-0.3-0.8C121.1,73.8,121.1,73.7,121.1,73.6 M120.1,80.6v0.3c0.2,0.1,0.5,0.4,0.8,0.8c0,0,0,0,0.1,0.1
			c0.4,0.3,0.5,0.5,0.5,0.5c0.5,0.2,0.7,0.4,0.8,0.5c0.2,0.2,0.5,0.4,0.8,0.7c0.5,0.5,1.1,0.9,1.6,1c1.2-2,1.8-3.8,1.8-5.5
			c-0.1,0-0.2,0-0.4,0.1c-0.3,0.1-0.5,0.1-0.7,0l-4.4,1.4H120.1z M117.2,87.2v0.1c0,0.1,0,0.6,0.1,1.6c0.1,1,0.1,1.5,0.1,1.6
			c0.1,1.1,0.3,1.6,0.5,1.6c0.3,0,0.5-0.1,0.8-0.4c0.2-0.3,0.4-0.4,0.5-0.4l3.3-3l1.5-2.5v-0.3c-0.5-0.4-1.1-0.9-1.9-1.6
			c-1.2-0.9-2.1-1.6-2.7-2.1c-0.7-0.4-1.3-0.8-1.6-1.2c0,0,0,0.2,0,0.5c-0.1,0.3-0.1,0.5-0.1,0.5c0,0.1,0,0.2-0.1,0.3
			c0,0.2,0,0.9-0.1,2.2c-0.1,1.2-0.1,1.9-0.1,2.2c0,0.2,0,0.4-0.1,0.5V87.2z M116.1,87.3c0-1.9,0.1-3.8,0.3-5.6c0-0.1,0-0.2,0.1-0.3
			c0.3-1.2,0.4-2.4,0.4-3.7c-0.8,0-2,0.2-3.4,0.5c-1.2,0.4-2.1,0.5-2.7,0.5c-1.2,0.2-1.8,0-1.8-0.7c0,0,0,0,0-0.1
			c-0.1-0.2,0-0.3,0.1-0.4c0.2-0.1,0.4-0.1,0.7-0.1c0.2,0,0.4,0,0.7,0c2.2-0.3,4.4-0.7,6.6-1.4c0,0,0-0.1,0-0.3
			c0.1-0.3,0.1-0.5,0.1-0.5c0.5-2.6,0.5-4.6,0.3-5.9c0,0,0-0.3-0.1-0.8c-0.3-0.8-0.4-1.3-0.4-1.4c0-0.2-0.1-0.5-0.3-1
			c-0.2-0.8-0.3-1.4-0.3-1.8c0-0.2,0-0.3,0-0.4c0.1-0.2,0.2-0.3,0.4-0.3c0.1,0,0.1,0,0.1,0c0.8,0.2,1.3,0.5,1.4,1.1
			c0,0.1,0,0.2,0,0.3c-0.1,0.2-0.1,0.4-0.1,0.5c0,0.4,0.1,0.8,0.3,1.4c0.1,0.4,0.1,0.6,0.1,0.8c0,0.5,0,0.8,0,1.1c0,0,0,0.1,0.1,0.4
			c0,0.2,0,0.3,0,0.4c0.1,2,0,3.7-0.1,5.1c0,0.5,0,0.8,0,1c0.1-0.1,0.4-0.2,0.8-0.3c0.5-0.2,0.7-0.3,0.8-0.3c0,0,0.1,0,0.3,0
			l4.9-1.6c0.7-0.7,1.5-1.1,2.3-1.1c0.5,0,0.7,0.1,0.7,0.4c0,0.4-0.2,0.7-0.5,1.1c-0.4-0.1-1,0.1-1.9,0.5c-0.2,0-0.8,0.2-1.8,0.5
			c-0.2,0.1-0.3,0.1-0.4,0.1c0,0,0,0-0.1,0c-0.3,0.1-0.5,0.2-0.5,0.3l-4.4,1.4c-0.4,0.3-0.6,0.9-0.7,1.9c0,0,0,0.1,0.1,0.4
			c0,0.3,0,0.5,0,0.5c0.1,0,0.2,0,0.4,0c0.2,0.1,0.3,0.1,0.4,0.1c1.5-0.1,2.3-0.3,2.6-0.5l3.7-1.5c0.1,0,0.2,0,0.4,0
			c0.1,0,0.2,0,0.4,0c0.2,0.1,0.4,0.1,0.5,0.1c0.2-0.1,0.4-0.1,0.5-0.1c0.2,0,0.3,0,0.3,0.1v2.2c0,0.1,0,0.2-0.1,0.3
			c0,0,0,0.2-0.1,0.5c-0.1,0.4-0.1,0.6-0.1,0.7c-0.1,0-0.3,0.6-0.7,1.9c-0.1,0.3-0.1,0.5-0.1,0.5c-0.1,0.4-0.2,0.7-0.4,1
			c1.4,0.9,3.1,1.5,5.3,1.6c0.2-0.1,0.3-0.2,0.4-0.3c0,0,0.1,0,0.3,0.1c0.6,0.3,1.1,0.5,1.2,0.7v0.1c-0.2,0.5-0.4,0.9-0.7,1
			c-0.9-0.2-1.4-0.4-1.5-0.5c-1.2-0.2-2.3-0.5-3.4-0.8c-0.1,0-0.4-0.1-1-0.4c-0.5-0.3-0.9-0.4-1.1-0.4c-0.1,0-0.5,0.5-1.2,1.6
			c-0.1,0.3-0.2,0.5-0.3,0.5c-0.5,0.6-1.1,1.4-2,2.2c-0.3,0.2-0.5,0.4-0.7,0.5c-0.1,0-0.1,0.1-0.1,0.3c-1.4,1.4-2.5,2-3.3,2
			c-1.2,0-1.7-2-1.6-5.9C116.1,87.4,116.1,87.3,116.1,87.3z"/>
		<path class="st1" d="M141.7,90.2l-0.1-0.1c0.6-0.4,1-1,1-1.9c0-0.2,0-0.3,0-0.4c-0.2,0.1-0.4,0.1-0.5,0.1
			c-0.8-0.3-1.5-0.9-1.9-1.9c0-0.2,0.1-0.5,0.4-0.8c0.2-0.3,0.3-0.5,0.3-0.5c0.1-0.1,0.3-0.2,0.5-0.3c0.4-0.1,0.5-0.1,0.5-0.1
			c0.4,0,0.8,0.3,1.4,0.8c0.5,0.3,0.7,1,0.7,2.2c0,1.2-0.4,2.3-1.1,3.3c-0.1,0-0.3,0.1-0.5,0.3c-0.5,0.4-0.8,0.5-1,0.5
			c-0.3,0-0.5-0.1-0.5-0.4c0-0.1,0.2-0.2,0.5-0.3C141.6,90.4,141.7,90.3,141.7,90.2"/>
		<path class="st1" d="M183,93.7c0-0.1,0.1-0.2,0.3-0.4c0.2-0.2,0.3-0.4,0.3-0.5c0.4-1.5,0.5-3.9,0.5-7.4c0-0.8,0-1.7-0.1-2.6
			c0,0,0-0.1-0.1-0.3c0-0.1,0-0.1-0.1-0.1l-3.1,1c-0.1,0-0.2,0-0.3,0.1c-3,1-5.4,1.5-7.2,1.5c-0.4,0-0.8,0-1.2,0
			c-0.2-0.1-0.3-0.3-0.3-0.7c0-0.1,0-0.1,0-0.1c0-0.2,0-0.3,0-0.4c0.8-0.1,1.7-0.1,2.6-0.1c4.2-0.7,7.3-1.5,9.4-2.3
			c0.2-0.1,0.2-0.2,0.1-0.3c0,0,0,0,0-0.1c-0.2-1.4-0.5-2.1-0.8-2.3c-0.1,0-0.1,0-0.1,0c-0.5,0.1-0.9,0.2-1.1,0.3
			c-0.6,0-1.3,0-2.1,0c-0.1,0-0.3,0-0.5,0.1c-1.4,0.3-2.5,0.4-3.4,0.4c-0.2,0-0.4,0-0.7,0c-0.2-0.1-0.3-0.3-0.3-0.5
			c0-0.5,0.8-0.7,2.3-0.8c1-0.1,1.6-0.2,1.9-0.4c-0.3-0.3-0.6-0.7-1-1.4c-0.3-0.5-0.5-0.9-0.7-1.1c-0.2-0.3-0.4-0.5-0.5-0.7
			c-0.3-0.4-0.5-0.8-0.5-1.2h-1.1l-0.1,0.1c-0.1,0-0.4,0.1-1,0.3c-0.5,0.2-0.8,0.3-1,0.3c-0.1,0-0.2,0-0.3,0c-0.5,0.1-0.6,0-0.5-0.4
			c0-0.3,0.1-0.5,0.4-0.8c1-0.3,2.4-0.5,4.2-0.8c1.6-0.3,2.7-0.5,3.4-0.7c0.2-1.3,0.2-2.2,0.1-2.9c0,0,0,0,0-0.1
			c0.1-0.4-0.2-0.5-0.8-0.5c-0.4,0-1,0-1.8,0.1c-0.9,0.1-1.6,0.1-2,0.1c-0.5,0-0.7-0.2-0.7-0.7c0-0.4,1.3-0.6,3.8-0.7
			c0.6-0.1,1.1-0.1,1.2-0.1c0,0,0-0.1,0-0.3c0-0.4-0.2-0.9-0.5-1.5c-0.4-0.6-0.5-1.1-0.5-1.5c0-0.5,0.2-0.8,0.7-0.7c0,0,0,0,0.1,0
			c0.2-0.1,0.3,0,0.3,0.1c0.7,1.4,1.2,2.6,1.4,3.8c0,0,0.1,0,0.3,0c2.2,0,4.1-0.3,5.7-1c0.1-0.1,0.1-0.1,0.1-0.1c0.2,0,0.4,0,0.5,0
			c0.9,0,1.4,0.2,1.4,0.5c0,0.6-1.6,1.1-4.9,1.4c-1.5,0.2-2.5,0.3-2.9,0.4c0,0.4,0,0.9-0.1,1.5c-0.2,0.7-0.3,1.3-0.3,1.6
			c0,0,0,0.1,0,0.3c0.4-0.1,1-0.2,1.8-0.4c2.6-0.5,4.5-0.9,5.9-1.4l0.5,0.1c0.1,0,0.1,0,0.1,0.1c-0.1,0.9-0.7,1.4-1.8,1.5l-3,0.4
			h-0.4l-5.7,1.2c-0.1,0.1-0.3,0.1-0.5,0.1c-0.2,0.1-0.3,0.1-0.4,0.1c0,0,0.1,0.3,0.3,0.8c0.2,0.5,0.3,0.9,0.4,1.1
			c0.4,0.7,0.5,1.1,0.5,1.2c0.2,0,0.3,0,0.3,0.1c0,0,0.1,0.1,0.3,0.4c0.2,0.3,0.3,0.5,0.3,0.5h0.4c0.1,0,0.7-0.3,1.8-0.8
			c0.5-0.3,0.8-0.5,1-0.5c1.6-0.8,2.8-1.9,3.4-3.1c0.1,0,0.1,0,0.1-0.1c0.1,0,0.1,0,0.1,0h0.8v0.7c-0.4,0.6-0.6,1.1-0.8,1.4
			c-0.2,0.3-0.8,0.7-1.8,1.2c-0.7,0.5-1.1,0.7-1.2,0.8l-1.5,0.7v0.1c0,0,0.1,0,0.3,0c2.1-0.5,4-1.1,5.7-1.9c0.1,0,0.2,0,0.4,0
			c0.4,0,0.5,0.1,0.5,0.4c0,0.1-0.1,0.2-0.3,0.4c-0.1,0.2-0.1,0.4-0.1,0.5c-0.8,0.5-1.5,0.9-2,1c0-0.1-0.1-0.1-0.3-0.1
			c-1.2,0.2-1.8,0.4-1.9,0.5c0.3,1.3,0.6,2.1,1,2.5c0.1,0,0.1,0,0.1,0l3.3-1.1c0,0,0.4-0.1,1.1-0.3c1.1-0.3,1.7-0.4,1.8-0.4
			c0.5-0.1,0.6,0,0.5,0.4c-0.2,0.9-0.8,1.5-1.9,1.6c-0.1,0-0.2,0-0.4-0.1c-0.2-0.1-0.4-0.1-0.5-0.1c-0.3,0-0.5,0-0.8,0.1
			c-2,0.5-3.1,0.9-3.1,1.1l-0.1,0.5c0,1.5,0,3,0,4.5c0,0,0,0.2,0,0.7c-0.1,0.5-0.1,0.7-0.1,0.8c0,0.5,0,1.1,0,1.8c0,0,0,0.2-0.1,0.5
			c-0.1,0.6-0.1,1-0.1,1.1c0,0.1,0,0.3-0.1,0.5c0,1.5-0.3,2.2-1,2.2C183.5,94.5,183.2,94.2,183,93.7"/>
		<path class="st1" d="M202.8,66.2v0.1V66.2z M218.6,66.8c-0.5,0-1.1,0-1.6,0c-0.1,0-0.2,0-0.4,0c-1.5-0.1-2.5,0.1-3,0.5
			c0-0.1-0.1-0.2-0.3-0.4c-0.1-0.1-0.1-0.2-0.1-0.4c0-0.5,0.4-0.8,1.2-1c0.3,0,0.5,0,0.5-0.1c0.3,0,0.6,0,1,0
			c2.1,0.1,3.7,0.3,4.9,0.7c0.2-0.1,0.3,0,0.3,0.3c0,0.7-0.4,1.1-1.1,1.1c-0.3,0-0.6-0.1-1-0.4C218.8,67,218.6,66.9,218.6,66.8z
			 M202.6,66.5c0-0.5,0.3-0.7,0.8-0.7c0.1,0,0.1,0,0.1,0c0.1,0.1,0.4,0.4,1,0.8c0.2,0.2,0.3,0.3,0.3,0.3c0.2,0.1,0.5,0.3,0.8,0.5
			c0.6,0.4,1.1,0.6,1.2,0.8c0.3,0,0.4,0.1,0.3,0.3c0,0.3-0.1,0.4-0.3,0.4c-0.9-0.3-2.2-0.9-4-1.9C202.6,66.9,202.6,66.7,202.6,66.5z
			 M216.1,72.4c0,0.1,0,0.2,0,0.3c0,0.3,0.1,0.7,0.3,1.2h0.1l2.1-2.1c0-0.2,0-0.3,0-0.3c0-0.1,0-0.1,0-0.1h-1.6c0,0,0,0,0,0.1
			C216.7,72.1,216.5,72.4,216.1,72.4z M213.9,76.1c0-0.3,0.2-0.5,0.7-0.8c0.4-0.2,0.5-0.4,0.5-0.5c0-0.1,0-0.2,0-0.3
			c0.1-0.6,0-1-0.3-1.2l-0.7-3.4c0,0,0-0.1,0-0.3c0-0.5,0.2-0.8,0.7-0.8c0.4,0,0.6,0.4,0.7,1.1c0.1,0.4,0.2,0.6,0.3,0.8
			c0,0,0,0,0.1,0c0.1,0,0.3-0.1,0.5-0.3c0.3-0.1,0.4-0.1,0.4-0.1s0.2,0,0.5,0c0.5-0.1,0.7-0.1,0.8-0.1c0,0.1,0.2,0.1,0.5,0.1
			c0.9,0,1.4,0.2,1.4,0.7c0,0.1,0,0.1,0,0.1c-0.5,1.1-1.1,2-1.6,2.6c0.3,0.1,0.5,0.2,0.8,0.4c0,0.1,0,0.2,0,0.4
			c0,0.5-0.1,0.8-0.3,0.8h-1c-0.1,0-0.1,0-0.1,0.1c-0.5,0.4-1.1,0.8-1.8,1.2c0,0,0,0-0.1,0c-0.4-0.1-0.6-0.1-0.7,0
			c-0.3,0.1-0.5,0.1-0.5,0.1c0,0,0,0-0.1,0.1C214.2,76.9,213.9,76.6,213.9,76.1z M213.8,82.2c0,0,0,0,0,0.1
			c-0.1,0.8,0.1,1.2,0.5,1.2c0.3,0,0.5-0.1,0.8-0.3l3.3-0.7l0.1-0.1c0.1-0.1,0.1-0.2,0.1-0.3c-0.2-1.5-0.5-2.4-1-2.5
			c-1.7,0.3-3.1,0.8-4,1.6C213.8,81.7,213.8,82,213.8,82.2z M214.9,85.1c0.1,0.5,0.3,1,0.5,1.5h0.1c0.4,0,1.1-0.1,2.1-0.3
			c0.5-0.2,1-0.3,1.2-0.3c0.2-0.2,0.3-0.4,0.3-0.7c0-0.1,0-0.1,0-0.1c0-0.1,0-0.3-0.1-0.7c0-0.5,0-0.7-0.1-0.7h-0.3l-2.3,0.5
			C215.4,84.5,215,84.7,214.9,85.1z M222.4,86.9c0,0.5,0.3,1,1,1.6h0.1c0.4,0,0.9-1.1,1.6-3.3c0.1-0.2,0.3-0.7,0.5-1.5
			c0.3-0.9,0.4-1.4,0.4-1.5c-0.1-0.3,0-0.7,0.1-1.4c0.1-0.5,0.1-0.8,0.1-1.1c-0.1-1.1-0.6-1.7-1.5-1.8c-0.2,0-0.5,0-0.8,0.1
			c-0.5,0.2-1,0.2-1.2,0.1l-3.3,1c0,0,0,0,0,0.1c0.2,1.5,0.4,2.4,0.5,2.9c0.5-0.1,1.1-0.2,1.8-0.4c0.3-0.3,0.4-0.5,0.4-0.5
			c0.2,0,0.3,0,0.3,0c0.4,0,0.5,0.2,0.5,0.5c0,0.7-0.8,1.2-2.5,1.5c-0.3,0.1-0.4,0.1-0.4,0.1v2.2h0.8v-0.4c0.2-0.1,0.3-0.1,0.4-0.1
			c0.1,0.1,0.2,0.2,0.3,0.4h1.6c0.3,0,0.4,0.1,0.3,0.3c0,0.3,0,0.4-0.1,0.4l-1,0.5C222.5,86.8,222.5,86.8,222.4,86.9z M205.3,82.4
			c-0.3,0.2-0.5,0.5-0.8,1c-0.3,0.5-0.5,0.8-0.7,1c-0.1,0.1-0.4,0.4-0.8,0.8c-0.1,0.1-0.1,0.1-0.1,0.1c-0.2,0-0.3,0-0.3,0
			c-0.3,0.1-0.5,0-0.5-0.4c0-0.1,0-0.3,0-0.5c0-1,0.6-2.3,1.8-4c0.1-0.2,0.3-0.4,0.5-0.7c0.5-0.7,0.9-1.3,1-1.8
			c0-0.6,0.1-1.5,0.3-2.6c0.1-1.2,0.1-2.1,0.1-2.6c-0.5,0-1.1,0.1-1.9,0.3c-0.9,0.2-1.6,0.3-2,0.3c-0.8,0-1.5-0.1-2.1-0.4
			c-0.2-0.2-0.3-0.4-0.3-0.7c0.2,0,0.4,0,0.5-0.1c0.2-0.1,0.3-0.1,0.4-0.1c0.2,0,0.5,0,0.8,0.1c0.3,0.1,0.5,0.1,0.7,0.1
			c1.3-0.1,2.5-0.3,3.7-0.5c0.2,0,0.4-0.1,0.7-0.3c0.4-0.2,0.6-0.3,0.8-0.3c0.5,0,0.7,0.2,0.7,0.7c0,0.2-0.1,0.5-0.4,1.1
			c-0.4,0.8-0.5,1.4-0.5,1.8c0,0.2,0,0.3,0,0.4c0.3-0.1,0.5-0.4,0.5-1c0.1-0.6,0.4-1,0.8-1c0.4,0,0.5,0.3,0.5,0.8
			c0,0.4-0.2,1-0.7,1.8c-0.2,0.3-0.3,0.5-0.4,0.7c-0.2,0.3-0.5,0.9-1,1.8v0.7c0.3-0.3,0.7-0.8,1.2-1.5c0.7-1,1.3-1.7,1.8-2.1
			c0,0.3-0.2,0.7-0.5,1.4c-0.3,0.5-0.4,0.8-0.4,1l-1.6,2.3c0,0.2-0.1,0.4-0.3,0.7c-0.1,0.2-0.1,0.3-0.1,0.3v4.7h0.1l0.1-2.7
			c0.1-0.1,0.1-0.2,0.1-0.3c0.1-0.2,0.1-0.3,0.1-0.3c0.4,0.3,0.5,1.1,0.5,2.5c0,0.1,0,0.2,0,0.3c0,0.5,0,0.8,0,1.1
			c0,0,0,0.2-0.1,0.7c-0.1,0.4-0.1,0.6-0.1,0.7c0,0.3,0,0.6,0,1c0,0,0,0.2,0,0.5c-0.1,0.3-0.1,0.5-0.1,0.5c0.1-0.3,0-0.3-0.3-0.1
			c0,0,0,0,0,0.1c0.1,0.6-0.1,1-0.5,1c-0.6-0.1-1-2.1-1.1-6.2c0-0.1,0-0.4,0-1C205.3,82.8,205.3,82.5,205.3,82.4z M221.6,86.9
			c-0.4,0-0.9,0.1-1.5,0.3c-0.8,0.3-1.4,0.4-1.8,0.3c-0.2,0-0.7,0.1-1.6,0.4c-1,0.3-1.6,0.5-1.8,0.5c0,0.1-0.1,0.1-0.3,0.1
			c-0.3,0-0.4,0-0.4-0.1c-0.1-0.1-0.1-0.3-0.1-0.7c-0.1-0.7-0.5-1.9-1.2-3.4c-0.4-0.7-0.6-1.3-0.7-1.6c0-0.1,0-0.3,0-0.5
			c-0.1-0.4-0.1-0.5-0.1-0.5c0-0.4-0.1-0.8-0.4-1.4c-0.4-0.7-0.5-1.3-0.5-1.6c0-0.3,0-0.5,0.1-0.7c0.2,0,0.3,0,0.4,0
			c0.5,0,0.8,0.5,1,1.4c0.2,0.6,0.4,1,0.5,1l0.1-0.1l1.2-0.5l5.6-1.8h0.1c0.3-0.1,0.7-0.2,1.4-0.3c1.3-0.4,2.2-0.5,2.9-0.5
			c1.6-0.2,2.6,0.3,2.9,1.5c0,0,0,0.1,0.1,0.4c0.2,0.5,0.3,0.7,0.3,0.8v0.1c0,0.5-0.2,1.7-0.7,3.6c0,0,0,0.2-0.1,0.5
			c-0.1,0.4-0.1,0.6-0.1,0.7c-0.3,0.1-0.4,0.5-0.4,1.1c-0.1,0.2-0.1,0.3-0.1,0.4c-0.4,0.6-0.6,1.2-0.7,1.8c0,0.1-0.2,0.5-0.5,1.1
			c-0.4,0.6-0.6,1-0.7,1.1c-0.2,0.4-0.4,0.5-0.7,0.5C222.9,90.3,222.2,89.1,221.6,86.9z"/>
		<path class="st1" d="M236.7,66.2c0-0.1,0-0.2,0-0.3c-0.1-0.2-0.1-0.3-0.1-0.3c0.1-0.1,0.1-0.2,0.1-0.3c0-0.2,0-0.3,0-0.4
			c1.5,0.5,3,1.6,4.4,3c0,0.3-0.1,0.4-0.3,0.4s-0.8-0.4-1.9-1.1c-0.5-0.4-0.9-0.5-1-0.5C237.2,66.4,236.8,66.2,236.7,66.2 M232,69.4
			c-0.1-0.2-0.1-0.3-0.1-0.4c0.1-0.4,0.3-0.5,0.5-0.5c0.4,0,0.8,0.1,1.4,0.4c0.5,0.3,1,0.4,1.2,0.4c0.9,0.1,2,0.1,3.3,0.1
			c0.5,0,1.3,0,2.2,0.1c0.9,0,1.6,0,2.1,0c0.3,0,0.7-0.1,1.2-0.3c0.5-0.1,1-0.1,1.2-0.1c0.3,0.1,0.5,0.3,0.5,0.7
			c0.1,0.5-0.1,0.7-0.5,0.7h-9.3C234.5,70.3,233.2,69.9,232,69.4z M255.2,70.1c0.1-0.3,0.2-0.5,0.4-0.8c0.1,0,0.2,0,0.3,0
			c0.3,0,0.7,0.2,1.4,0.7c0.2,0.1,0.3,0.1,0.3,0.1c0.1,0,0.4,0.2,1,0.5c0.5,0.3,0.9,0.5,1,0.5c0.4-0.1,0.6,0,0.7,0.4
			c0,0.4-0.2,0.5-0.5,0.5c-0.1,0-0.2,0-0.3,0l-3.7-1.4C255.3,70.5,255.2,70.2,255.2,70.1z M236.7,81.1c0,0.3,0.1,0.5,0.3,0.5
			c0.3,0,0.4-0.2,0.4-0.5c0-0.3-0.1-0.4-0.4-0.3C236.8,80.8,236.7,80.9,236.7,81.1z M240.2,82.5c0-0.3,0.1-0.5,0.4-0.5
			c0.2-0.1,0.4-0.1,0.5-0.1c0.5,0,1.2,0.5,1.9,1.5c0.4,0.5,0.6,0.8,0.8,0.8c0.2-0.1,0.3-0.1,0.3-0.1c0.2,0,0.3,0,0.3,0.1
			c0.2,0,0.3,0,0.4,0c-0.1,0.6-0.4,1-0.8,1.1c-0.7,0-1.4-0.5-2.1-1.4c-0.3-0.3-0.5-0.5-0.5-0.7c-0.1-0.2-0.3-0.3-0.7-0.4
			C240.4,82.7,240.3,82.6,240.2,82.5z M251.2,85.4c0-0.1,0-0.4-0.1-0.8c0-0.3,0-0.4,0-0.4c0-1.2,0-2.3,0-3.3c0,0-0.1,0.1-0.3,0.3
			c-0.1,0.2-0.2,0.3-0.3,0.3c-0.1,0.3-0.3,0.6-0.5,1.1c-1.1,1.9-2.1,3.3-3,4.2c-0.1,0-0.2,0-0.3,0c-0.3,0-0.4-0.2-0.4-0.7
			c0-0.8,0.2-1.4,0.7-1.6c0.1-0.1,0.1-0.1,0.1-0.1V85c0.2-0.1,0.3-0.3,0.4-0.5c0.1-0.1,0.1-0.2,0.1-0.3c0.5-0.5,0.7-0.9,0.8-1.2
			c0.2-0.3,0.8-1.4,1.8-3.4c0-0.2,0-0.4,0.1-0.5c0.2-0.4,0.3-0.6,0.3-0.8c0.1-0.2,0-0.3-0.3-0.3c-1.8,0.7-3.5,1.1-4.9,1.1
			c-0.3-0.1-0.4-0.3-0.4-0.5c0-0.2,0.1-0.4,0.4-0.7c0.2-0.1,0.4-0.1,0.5-0.1c0.2,0,0.4,0,0.5,0c1.6-0.2,3.1-0.6,4.4-1.2
			c0.2-0.1,0.3-0.4,0.3-1c0.1-0.8,0.4-1.2,0.8-1.2c0.3,0,0.5,0.1,0.8,0.4c0.4,0.3,0.6,0.4,0.8,0.4c0.2,0,0.4,0,0.7-0.1
			c0.3,0,0.5,0,0.5,0c0.4,0,0.5,0.1,0.5,0.4c-0.1,0.5-0.3,0.8-0.5,1l-2.2,1c-0.2,0.2-0.4,0.6-0.5,1.4c-0.1,0.8,0,2,0.1,3.4
			c0.1,1.3,0.1,2.2,0.1,2.9c0.1,1.3,1.1,2,3.1,2.2c1.8-0.1,2.9-0.5,3.1-1.1c0-0.4,0-0.7,0-1c0-0.4,0-0.9,0-1.6
			c-0.1-0.7-0.1-1.3-0.1-1.6c0-0.7,0.1-1.1,0.3-1.2c0.3,0.3,0.4,0.7,0.4,1.2c0.1,0.3,0.1,0.5,0.1,0.5c0,0.1,0,0.3,0.1,0.5
			c0.5,1.4,0.7,2.5,0.7,3.4c0.1,0.5-0.1,0.9-0.7,1.1l-2.7,0.8c-0.1,0-0.1,0-0.1,0s-0.2,0-0.5,0c-0.4,0.1-0.6,0.1-0.7,0.1
			c-2-0.1-3.3-0.8-3.8-2.1c-0.1-0.3-0.2-0.5-0.3-0.7C251.4,85.4,251.3,85.4,251.2,85.4z M235.2,84.4c-0.2,0.8-0.3,1.7-0.3,2.7
			c0,0,0,0-0.1,0.1c0,0,0,0.1,0.1,0.4c0,0.2,0,0.3,0,0.4c0.2-0.1,0.3-0.1,0.3-0.1c0.1,0.2,0.1,0.4,0.1,0.5c-0.1,0.9-0.6,1.4-1.5,1.5
			c-0.3,0-0.4-0.3-0.4-0.8c0-0.1,0-0.1,0-0.1c0.1-1.3,0.2-2.1,0.4-2.6c0-1.3,0-2.5,0-3.7c0.1-0.3,0.2-0.5,0.3-0.5c0.1,0,0.1,0,0.1,0
			c0.2,0,0.4,0,0.5,0.1c0,0.1,0,0.1,0.1,0.1c0.7,1.4,1.5,2.6,2.3,3.7c0.1,0.2,0.2,0.4,0.4,0.5h0.1v-2.5c-0.1,0-0.1-0.1-0.1-0.3
			c0-0.5,0-0.9,0-1.2c-0.1,0-0.2,0-0.4,0c-0.2,0.1-0.4,0.1-0.5,0.1c-0.4,0-0.7-0.3-1.1-1c-0.1-0.3-0.2-0.5-0.3-0.5
			c-0.1-0.1-0.2-0.2-0.4-0.3c-0.2-0.1-0.3-0.3-0.3-0.5c0-0.2,0.1-0.4,0.4-0.7c0-0.4,0-0.7,0-1c0-0.6-0.1-1.6-0.4-2.7
			c-0.3-1.2-0.4-2.1-0.4-2.7c0-0.2,0-0.4,0.1-0.7c0-0.3,0-0.5,0-0.7c0.1-0.2,0.3-0.3,0.7-0.3c0.5,0.1,0.9,0.3,1,0.5
			c0,0.1-0.1,0.2-0.3,0.4c-0.2,0.2-0.3,0.4-0.3,0.5c0,0.6,0.1,1.5,0.4,2.7c0.4,1.5,0.5,2.5,0.4,3.1c0.2-0.1,1.2-0.5,3-1.2
			c1.3-1.1,2.1-2.1,2.5-2.9h0.1l0.7-1c0-0.1,0-0.1,0-0.1c0-0.2-0.3-0.3-1-0.3c-1.1,0-2.2,0.2-3.3,0.7c-0.1,0-0.2,0.1-0.4,0.3
			c-0.1,0.1-0.2,0.1-0.4,0.1c-0.5,0-0.8-0.1-0.8-0.4c0-0.3,0-0.5,0.1-0.7c1.7-0.7,3.5-1.1,5.3-1.1c1.2,0.1,1.8,0.4,1.8,0.8
			c0,0.5-0.4,1.2-1.2,2.1c-0.5,0.6-0.9,1.1-1,1.4c0,0,0,0,0.1,0.1c0.4,0.1,0.6,0.2,0.7,0.4c-0.2,0.1-0.3,0.3-0.4,0.7
			c-0.1,0.2-0.2,0.3-0.3,0.4c-0.2,0.1-0.6,0.2-1.2,0.4c-1.4,0.3-2,0.7-2,1.4c0,0.1,0,0.4,0.1,1c0.1,0.5,0.1,0.8,0.1,1
			c0,0.6,0,1.6,0,2.7c0.1,2.1,0.1,3.7,0,4.8c0,0.5-0.3,0.8-0.8,0.7c-0.2,0-0.5-0.8-1.1-2.3C236.3,85.9,235.7,84.7,235.2,84.4z"/>
		<path class="st1" d="M267.4,79.2c0-0.1,0-0.1,0-0.1c0.4-0.4,0.6-0.5,0.7-0.5c1.1-1.5,2-2.9,2.7-4.1l2.2-4.2
			c0.1-0.5,0.2-0.8,0.3-1.1c0-0.1,0-0.1,0-0.1c-0.3,0-0.6,0-1,0c0,0-0.3,0-0.8,0.1c-0.8,0.2-1.3,0.3-1.4,0.3
			c-0.4,0.1-0.9,0.1-1.6,0.1c-2.1,0.1-3.6,0.4-4.5,1c0,0.3-0.1,0.4-0.3,0.4c-0.2,0.1-0.4,0.1-0.5,0.1c-0.8-0.1-1.2-0.3-1.2-0.7
			c0-0.1,0.1-0.3,0.4-0.5c0.7-0.4,1.1-0.6,1.2-0.7h0.1c0.4-0.1,1.4-0.2,3-0.4c4.6-0.5,6.9-1.1,7-1.5c0-0.1,0-0.3,0.1-0.7
			c0.1-1.6,0.4-2.3,0.8-2.3c0.5,0,0.7,0.2,0.7,0.5c0,0.6,0,1-0.1,1H275c0,0.5,0,0.9-0.1,1.1c0,0.2,0,0.3,0,0.3h0.4
			c0.1,0,0.7-0.1,1.9-0.3c1.4-0.2,2.2-0.3,2.6-0.3c0.3,0,0.7-0.1,1.2-0.3c1.6-0.3,2.9-0.4,3.8-0.4c0,0,0.2,0,0.5,0
			c0.5,0.1,0.9,0.1,1,0.1c0.3,0,0.4,0.1,0.4,0.4c-0.3,0.8-0.7,1.3-1.4,1.5c-0.2,0-0.3-0.1-0.4-0.4c-0.2-0.3-0.4-0.4-0.5-0.4
			c-0.3,0-0.5,0-0.8,0c-0.3,0-0.5,0-0.7,0c-1,0.2-2.4,0.4-4.2,0.5c-0.1,0-0.3,0-0.7,0.1c-1.6,0.2-2.6,0.4-3,0.7
			c-0.1,0.1-0.2,0.2-0.4,0.4c-0.1,0.3-0.2,0.5-0.4,0.5c-0.2,1.3-1,3.2-2.6,5.9c-0.1,0-0.1,0-0.1,0.1c-0.1,0.1-0.1,0.1-0.1,0.1
			c-0.1,0.1-0.4,0.5-0.8,1.2c-0.5,0.7-0.7,1.2-0.8,1.4c-0.2,0.1-0.4,0.3-0.5,0.5c-0.5,0.5-0.9,0.8-1.2,0.8
			C267.6,79.5,267.5,79.4,267.4,79.2 M276.3,78.5c0,0.4,0,1,0,1.8c-0.1,0.8-0.1,1.5-0.1,1.9c0,0,0,0,0,0.1l0.5-0.3l4.5-1.5
			c0.3-0.1,0.4-0.4,0.4-1c0-4.3-0.1-7.5-0.4-9.6c-0.1,0-0.2,0-0.3,0c-2.8,0.7-4.4,1.6-4.8,2.7v2.3c0.2,0.2,0.2,0.5,0.1,1.1
			c0,0.2,0,0.3,0,0.3c0.5-0.1,1-0.1,1.6-0.1c0.1,0,0.2,0,0.4,0c1.7-0.1,2.6,0.3,2.6,1.2c0,0.2,0,0.3,0,0.4c0,0,0,0-0.1,0.1
			c-0.1,0-0.3-0.1-0.5-0.3c-0.5-0.3-1-0.4-1.5-0.4c-0.6,0.1-1.2,0.2-1.8,0.4c-0.1,0.1-0.2,0.2-0.3,0.4
			C276.6,78.5,276.4,78.5,276.3,78.5z M273,91.4c0-0.4,0-0.6,0-0.8c0.1-0.1,0.1-0.2,0.1-0.3c0.1-0.5,0.2-1.1,0.4-1.5
			c0.2,0,0.3,0.1,0.3,0.4c0,0.4,0,0.8,0,1.2c0.1-0.3,0.2-0.7,0.3-1.2c0.1-0.4,0.1-0.6,0.1-0.7c0-0.3,0.1-1.1,0.3-2.5
			c0.1-1.5,0.1-2.3,0.1-2.5c0.3-0.3,0.4-0.8,0.3-1.5c0-0.3,0-0.5,0-0.5c0-0.1,0-0.5,0.1-1.4c0-0.5,0-0.8,0-0.8c0-0.4,0-0.9,0-1.5
			c0-1.2-0.1-2.2-0.3-3c-0.1,0-0.2,0.1-0.3,0.3c0,0.3-0.1,0.4-0.3,0.4c0,0,0,0,0-0.1c0-0.1,0-0.3-0.1-0.5c0-0.3,0-0.4-0.1-0.4
			c0-0.1,0-0.1,0-0.1c0-0.3,0.1-0.6,0.3-1.1c0.3-0.5,0.4-1.1,0.3-1.6c0.2-0.2,0.5-0.3,1-0.4c0.3,0,0.5,0,0.5-0.1
			c0.3-0.2,0.7-0.4,1.4-0.7c1.6-1,2.8-1.5,3.8-1.5c0.8,0,1.3,0.2,1.4,0.7c-0.1,1.7-0.1,4.3,0,7.7c0.1,2.3,0.1,4,0.1,5.1
			c0.1,0.5,0.1,1,0,1.6c0,0.5,0,0.8,0,1c0,0.7,0,1.9,0.1,3.6c0,1.5,0,2.6,0.1,3.3c0,0.3-0.1,0.5-0.3,0.5c-0.1,0.3-0.3,0.4-0.5,0.3
			c-0.2,0-0.4-0.2-0.7-0.7c-0.2-0.3-0.3-0.5-0.4-0.5c-0.1-0.1-0.2-0.2-0.3-0.4c-1.5-2.3-2.3-4.1-2.3-5.3c0-0.2,0-0.4,0-0.5l0.3,0.3
			l1.1,2.6c0.5,0.4,1,1,1.6,1.8h0.1c0.1-0.4,0.1-0.6,0.1-0.8c0-3.2-0.1-5.6-0.3-7.4l-2.1,1c-0.1,0.1-0.3,0.2-0.7,0.3
			c0,0-0.1,0-0.4,0.1c-1.2,0.6-1.9,1-2,1.1c0,0.2-0.1,0.3-0.4,0.3c-0.1,0.1-0.3,1.6-0.5,4.4c-0.2,1.2-0.3,1.9-0.3,2.1
			c-0.1,0.3-0.3,1-0.5,2.2l-0.7,0.8h-0.1c-0.5,0-0.8-0.6-0.7-1.9C273,91.5,273,91.4,273,91.4z"/>
		<path class="st1" d="M305.1,80c1.4,0.8,2.6,1.8,3.8,2.9c0-0.3,0.1-0.4,0.3-0.4c0.4-1.1,0.8-2.1,1.4-3.1l0.1-0.1l1.1-1.9l0.1-0.1
			c0-0.1,0.2-0.5,0.5-1.1c0.1-0.1,0.1-0.2,0.1-0.3c0,0,0,0-0.1,0c-0.4,0-1.3,0.5-2.9,1.4c-0.8,0.5-1.3,0.7-1.5,0.8
			c-0.8,0.5-1.4,0.9-1.8,1c0,0-0.1,0.1-0.3,0.3C305.5,79.7,305.2,80,305.1,80 M302,92.4c0.1-0.8,0.2-1.4,0.4-1.8
			c0,0.1,0,0.5,0.1,1.1c0.1,0.5,0.1,0.9,0.1,1c0,0.5,0.1,0.8,0.3,0.8c0.1,0,0.1,0,0.1,0c0.1-0.1,0.1-0.1,0.1-0.1
			c1.4-1.9,2.5-3.9,3.4-6l0.1-0.1l1.6-3c0-0.1-0.6-0.7-1.9-1.8c-0.4-0.4-0.6-0.6-0.7-0.7c-0.5-0.3-1.2-0.4-2-0.4l-0.1-0.1l-1.1,0.5
			c0,0,0,0-0.1,0c-0.3,0-0.4-0.2-0.4-0.7c0-0.1,0-0.2,0-0.3c1.8-1.2,3.5-2.5,5.1-3.8c0.2-0.2,0.5-0.5,1-0.8c0.5-0.6,1-1.1,1.4-1.2
			c0.2-0.1,0.3-0.1,0.3-0.1c0.5-0.4,1.1-1,1.8-1.8c0.5-0.5,0.8-1,1.1-1.2h-0.1c0,0,0,0-0.1,0c-0.1,0-0.2,0-0.4,0.1
			c-2,0.8-3.8,1.1-5.5,0.8c-0.2,0.2-0.5,0.5-0.8,1.1c-0.3,0.5-0.5,0.9-0.8,1.1l-1.9,3.1c0,0-0.1,0-0.3,0.1c-0.2,0.2-0.3,0.3-0.4,0.3
			c-0.3,0-0.4-0.2-0.4-0.5c0-0.6,0.2-1.2,0.7-1.8c0.3-0.4,0.5-0.7,0.5-1c0-0.7,0.1-1.1,0.4-1.1c-0.2,0.3-0.3,0.5-0.3,0.8
			c0,0.1,0,0.2,0,0.4c0.2-0.2,0.3-0.3,0.3-0.3c0.5-0.5,1.1-1.3,1.9-2.5v-0.1c-0.2-0.3-0.5-0.5-1-0.5c0,0,0,0-0.1,0.1l-0.4,0.7
			c0.1-0.4,0-0.8-0.1-1.2c-0.2-0.4-0.3-0.6-0.3-0.8c0.1-0.5,0.3-0.7,0.7-0.8c0,0,0.1,0,0.3,0.1c0.1,0,0.1,0,0.1,0.1
			c0.5,0.9,1,1.4,1.5,1.4c0.1,0,0.1,0,0.1-0.1c0.1-0.1,0.3-0.4,0.7-0.8c0.5-0.5,0.7-0.8,0.7-0.8c0-0.1,0.1-0.3,0.4-0.5
			c1.2-1.5,1.8-2.5,1.8-2.9c-0.3-0.1-0.5-0.1-0.8-0.1c-1.1,0-2.5,0.2-4.2,0.5c-0.8,0.2-1.4,0.3-1.8,0.4c-0.1,0-0.2,0-0.3,0
			c-0.4,0-0.5-0.2-0.5-0.7c0-0.3,0.2-0.5,0.7-0.7c0.4-0.2,0.6-0.4,0.7-0.5c0.7-0.5,1.6-1.1,2.7-1.9c1.7-1.5,3.1-2.2,4-2.2v1.1
			c0,0.1-0.3,0.2-1,0.4c-0.7,0.3-1.1,0.5-1.2,0.5c-0.3,0.2-0.6,0.5-1.1,1c-0.5,0.5-1,0.8-1.2,1c0,0-0.1,0-0.3,0.1
			c-0.4,0.2-0.6,0.3-0.7,0.4c0.2-0.1,0.3-0.1,0.4,0c0,0.1,0,0.1,0.1,0.1c1.2-0.5,2.4-0.7,3.6-0.7c0.2,0,0.6,0,1.2,0.1
			c0.6,0.1,1.1,0.1,1.2,0.1c0.1,0.1,0.1,0.2,0.1,0.4c0,0.5-0.4,1.3-1.1,2.2c-0.1,0.1-0.2,0.2-0.3,0.3c-0.2,0.4-0.8,1.1-1.8,2.2
			c-0.4,0.4-0.5,0.6-0.5,0.8c0,0.1,0,0.1-0.1,0.1c-0.1,0.1-0.1,0.2-0.1,0.3c0,0.1,0,0.2,0.1,0.3c1.9,0,3.3-0.2,4.2-0.5
			c0.7-0.1,1.2-0.2,1.4-0.3c0.4-0.3,0.5-0.5,0.5-0.5c0.1,0,0.1,0,0.1,0c0.5,0,0.7,0.1,0.7,0.4c0,0.5-0.4,1-1.2,1.6
			c-0.2,0.2-0.3,0.3-0.4,0.4c-0.5,0.5-1.6,1.5-3,2.9v0.1L314,74c0.1,0,0.1,0,0.1,0c0.5,0,0.8,0.2,0.8,0.5v0.1
			c-0.2,0.4-0.5,0.9-1,1.5c-0.5,0.6-0.9,1.1-1.1,1.5c-0.3,0.8-0.8,2-1.6,3.4c-0.5,0.9-1,1.6-1.2,2c0,0.1,0,0.1-0.1,0.1
			c-0.1,0.1-0.1,0.3-0.1,0.5c0,0.1,0,0.1,0,0.1c0.1,0,0.2,0.1,0.4,0.3c0.3,0.2,0.4,0.3,0.4,0.4c0.3,0.3,0.6,0.6,1,1.1
			c0.4,0.5,0.6,0.8,0.8,1c0.1,0.1,0.3,0.3,0.7,0.5c1.4,1.3,2.1,2.1,2.1,2.3h0.3c-0.2,0.5-0.5,0.9-0.8,1c-0.2,0-0.3,0-0.4,0
			c-0.6-1.1-1.8-2.5-3.4-4.1c-0.6-0.6-1.1-1.1-1.4-1.5l-0.3,0.3c-0.2,0.4-0.5,0.9-1,1.6c-1.6,2.8-3.1,5.3-4.2,7.4
			c-0.1,0.1-0.2,0.3-0.4,0.5c-0.3,0.5-0.5,0.7-0.7,0.7c-0.4-0.1-0.6-0.7-0.7-1.9C302,92.9,302,92.4,302,92.4z"/>
		<path class="st1" d="M340.3,73.6c0-0.1,0-0.3,0.1-0.7c0.1-0.2,0.3-0.7,0.7-1.6c0.4-0.9,0.5-1.5,0.5-1.6c0.1-0.1,0.2-0.3,0.3-0.5
			c0.6-1.5,1.3-2.2,1.9-2.2c0.3,0,0.4,0.1,0.4,0.3c0,0,0,0.1,0.1,0.3c0,0.1,0,0.2,0,0.3c0,0.1,0,0.2-0.1,0.4c0,0.1-0.3,0.5-0.8,1.1
			c-0.3,0.4-0.5,0.6-0.5,0.7c-0.1,0.2-0.3,0.5-0.5,1.1c-0.3,0.5-0.5,1-0.7,1.2c0,0,0,0,0,0.1l-0.5,1.8l-0.5,0.4
			c-0.1-0.2-0.2-0.5-0.3-0.8C340.3,73.8,340.3,73.7,340.3,73.6 M339.3,80.6v0.3c0.2,0.1,0.5,0.4,0.8,0.8c0,0,0,0,0.1,0.1
			c0.4,0.3,0.5,0.5,0.5,0.5c0.5,0.2,0.7,0.4,0.8,0.5c0.2,0.2,0.5,0.4,0.8,0.7c0.5,0.5,1.1,0.9,1.6,1c1.2-2,1.8-3.8,1.8-5.5
			c-0.1,0-0.2,0-0.4,0.1c-0.3,0.1-0.5,0.1-0.7,0l-4.4,1.4H339.3z M336.4,87.2v0.1c0,0.1,0,0.6,0.1,1.6c0.1,1,0.1,1.5,0.1,1.6
			c0.1,1.1,0.3,1.6,0.5,1.6c0.3,0,0.5-0.1,0.8-0.4c0.2-0.3,0.4-0.4,0.5-0.4l3.3-3l1.5-2.5v-0.3c-0.5-0.4-1.1-0.9-1.9-1.6
			c-1.2-0.9-2.1-1.6-2.7-2.1c-0.7-0.4-1.3-0.8-1.6-1.2c0,0,0,0.2,0,0.5c-0.1,0.3-0.1,0.5-0.1,0.5c0,0.1,0,0.2-0.1,0.3
			c0,0.2,0,0.9-0.1,2.2c-0.1,1.2-0.1,1.9-0.1,2.2c0,0.2,0,0.4-0.1,0.5V87.2z M335.3,87.3c0-1.9,0.1-3.8,0.3-5.6c0-0.1,0-0.2,0.1-0.3
			c0.3-1.2,0.4-2.4,0.4-3.7c-0.8,0-2,0.2-3.4,0.5c-1.2,0.4-2.1,0.5-2.7,0.5c-1.2,0.2-1.8,0-1.8-0.7c0,0,0,0,0-0.1
			c-0.1-0.2,0-0.3,0.1-0.4c0.2-0.1,0.4-0.1,0.7-0.1c0.2,0,0.4,0,0.7,0c2.2-0.3,4.4-0.7,6.6-1.4c0,0,0-0.1,0-0.3
			c0.1-0.3,0.1-0.5,0.1-0.5c0.5-2.6,0.5-4.6,0.3-5.9c0,0,0-0.3-0.1-0.8c-0.3-0.8-0.4-1.3-0.4-1.4c0-0.2-0.1-0.5-0.3-1
			c-0.2-0.8-0.3-1.4-0.3-1.8c0-0.2,0-0.3,0-0.4c0.1-0.2,0.2-0.3,0.4-0.3c0.1,0,0.1,0,0.1,0c0.8,0.2,1.3,0.5,1.4,1.1
			c0,0.1,0,0.2,0,0.3c-0.1,0.2-0.1,0.4-0.1,0.5c0,0.4,0.1,0.8,0.3,1.4c0.1,0.4,0.1,0.6,0.1,0.8c0,0.5,0,0.8,0,1.1c0,0,0,0.1,0.1,0.4
			c0,0.2,0,0.3,0,0.4c0.1,2,0,3.7-0.1,5.1c0,0.5,0,0.8,0,1c0.1-0.1,0.4-0.2,0.8-0.3c0.5-0.2,0.7-0.3,0.8-0.3c0,0,0.1,0,0.3,0
			l4.9-1.6c0.7-0.7,1.5-1.1,2.3-1.1c0.5,0,0.7,0.1,0.7,0.4c0,0.4-0.2,0.7-0.5,1.1c-0.4-0.1-1,0.1-1.9,0.5c-0.2,0-0.8,0.2-1.8,0.5
			c-0.2,0.1-0.3,0.1-0.4,0.1c0,0,0,0-0.1,0c-0.3,0.1-0.5,0.2-0.5,0.3l-4.4,1.4c-0.4,0.3-0.6,0.9-0.7,1.9c0,0,0,0.1,0.1,0.4
			c0,0.3,0,0.5,0,0.5c0.1,0,0.2,0,0.4,0c0.2,0.1,0.3,0.1,0.4,0.1c1.5-0.1,2.3-0.3,2.6-0.5l3.7-1.5c0.1,0,0.2,0,0.4,0
			c0.1,0,0.2,0,0.4,0c0.2,0.1,0.4,0.1,0.5,0.1c0.2-0.1,0.4-0.1,0.5-0.1c0.2,0,0.3,0,0.3,0.1v2.2c0,0.1,0,0.2-0.1,0.3
			c0,0,0,0.2-0.1,0.5c-0.1,0.4-0.1,0.6-0.1,0.7c-0.1,0-0.3,0.6-0.7,1.9c-0.1,0.3-0.1,0.5-0.1,0.5c-0.1,0.4-0.2,0.7-0.4,1
			c1.4,0.9,3.1,1.5,5.3,1.6c0.2-0.1,0.3-0.2,0.4-0.3c0,0,0.1,0,0.3,0.1c0.6,0.3,1.1,0.5,1.2,0.7v0.1c-0.2,0.5-0.4,0.9-0.7,1
			c-0.9-0.2-1.4-0.4-1.5-0.5c-1.2-0.2-2.3-0.5-3.4-0.8c-0.1,0-0.4-0.1-1-0.4c-0.5-0.3-0.9-0.4-1.1-0.4c-0.1,0-0.5,0.5-1.2,1.6
			c-0.1,0.3-0.2,0.5-0.3,0.5c-0.5,0.6-1.1,1.4-2,2.2c-0.3,0.2-0.5,0.4-0.7,0.5c-0.1,0-0.1,0.1-0.1,0.3c-1.4,1.4-2.5,2-3.3,2
			c-1.2,0-1.7-2-1.6-5.9C335.3,87.4,335.3,87.3,335.3,87.3z"/>
	</g>
	<path id="subtitle-2_1_" class="st0" d="M364.7,92.1c3.1,1.7,6.1,1.6,9.1-0.2c3-1.9,4.3-4.6,4.2-8.2c-0.2-3.6-1.8-6.1-4.9-7.7
		c-3.1-1.6-6.1-1.4-8.9,0.5c-2.8,1.9-4.2,4.5-4.2,8C360,87.8,361.6,90.4,364.7,92.1 M374.3,72.3c3.3,1.3,5.5,3.4,6.5,6.5
		c1.1,3.1,1.3,6.2,0.5,9.1c-0.8,3-2.4,5.2-4.7,6.8c-2.3,1.6-5.1,2.3-8.2,2.3c-3.1,0-5.9-1.2-8.4-3.7c-2.5-2.5-3.8-5.2-4-8.2
		c-0.2-3,0.5-5.6,1.9-8c1.4-2.3,3.6-4,6.8-5.1C367.8,70.9,371,71,374.3,72.3z"/>
</g>
<g>
</g>
<g>
</g>
<g>
</g>
<g>
</g>
<g>
</g>
<g>
</g>
<g>
</g>
<g>
</g>
<g>
</g>
<g>
</g>
<g>
</g>
<g>
</g>
<g>
</g>
<g>
</g>
<g>
</g>
</svg>
