<?xml version="1.0" encoding="utf-8"?>
<!-- Generator: Adobe Illustrator 17.0.0, SVG Export Plug-In . SVG Version: 6.00 Build 0)  -->
<!DOCTYPE svg PUBLIC "-//W3C//DTD SVG 1.1//EN" "http://www.w3.org/Graphics/SVG/1.1/DTD/svg11.dtd">
<svg version="1.1" id="Layer_1" xmlns="http://www.w3.org/2000/svg" xmlns:xlink="http://www.w3.org/1999/xlink" x="0px" y="0px"
	 width="640px" height="51.8px" viewBox="0 0 640 51.8" style="enable-background:new 0 0 640 51.8;" xml:space="preserve">
<style type="text/css">
	.st0{fill-rule:evenodd;clip-rule:evenodd;fill:#AA192A;}
	.st1{fill:#FFFFFF;}
	.st2{fill:none;}
</style>
<g id="page-8-title-3.svg">
	<rect x="169.1" y="1.6" class="st0" width="314.9" height="46.3"/>
	<path class="st1" d="M228.5,23.4c0.3,0.1,0.3,0.3,0,0.6l-4.3,0.3v10c0.6-0.2,1.7-0.5,3.1-0.8c1.4-0.3,2.4-0.5,3.1-0.6V10.1
		l-5.5,0.3l-0.8,1V17l4.5-0.3c0.4,0.3,0.4,0.6,0,0.8l-4.5,0.3l0.2,5.8L228.5,23.4z M248.6,12.8l3.4,1.9c0.3,0,0.4,0.1,0.2,0.3
		l-1,1.4c0,0.5-0.1,1.5-0.2,2.9c-0.2,7.5-0.5,12.7-0.8,15.5c-0.4,3.6-2.3,6.3-5.6,8.1c-0.4,0-0.6-0.1-0.5-0.3
		c0.2-1.6-0.3-2.6-1.4-3.1c-0.1-0.1-0.2-0.2-0.2-0.3c0,0,0,0,0.2,0c2.6,0.3,3.9-1.1,3.9-4.3c0.4-5.5,0.6-11.8,0.6-19l-4.3,0.2v3.5
		c0.4,9.9-4.1,18.3-13.5,25.3c-0.2,0-0.4-0.1-0.5-0.2c0-0.1,0.1-0.2,0.2-0.3c4.1-3.6,6.8-7.3,8.2-10.9c1.5-3.2,2.3-7.9,2.4-14
		l0.2-3.2h-0.5c-1.3,0-2.5,0.1-3.5,0.3l-1.4-1.1l5.5-0.3V9.4l-0.2-4.2c-0.1-0.3-0.1-0.5,0.2-0.5l3.4,1.3c0.2,0.1,0.2,0.3,0,0.6
		l-0.2,1l-0.2,7.4l4.3-0.2L248.6,12.8z M236.3,31.5l0.2,0.3c-5.4,2.3-10.8,4.7-16.3,7.4c-0.3,0.3-0.5,0.3-0.6,0l-1.6-3.1
		c-0.1-0.3-0.1-0.5,0-0.6c0.4,0,1-0.1,1.8-0.3c0.5-0.1,1-0.2,1.3-0.2l0.2-19.6c0-3.4-0.1-6-0.3-7.7c0-0.2,0.2-0.3,0.5-0.2l3.4,1.9
		c0.1,0.1,0.2,0.2,0.2,0.2l5.5-0.3l1.3-1.8l3.1,1.6c0.2,0.1,0.3,0.2,0.3,0.2c0,0.1-0.1,0.2-0.3,0.3l-1.1,1.4v21.1
		c0.3-0.1,0.9-0.2,1.6-0.3C235.7,31.6,236.1,31.5,236.3,31.5z"/>
	<path class="st1" d="M272.1,29.2c2.7,1,4.1,1.9,4.2,2.7c0.1,1-0.3,1.8-1.3,2.6c-1,0.3-1.5,0.2-1.6-0.5c-0.2-2-0.8-3.5-1.6-4.3
		c-0.1-0.1-0.1-0.2,0-0.3C271.8,29.3,271.9,29.2,272.1,29.2 M259.7,31.2c0-0.2,0-0.3,0.2-0.3c0.1,0,0.2,0.1,0.3,0.2
		c1.5,3.6,1.9,6.3,1.3,7.9c-1,1-2,1.4-3.2,1.4c-0.6,0-1-0.2-1.1-0.5c-0.1-0.3,0-0.7,0.5-1.1C259,36.7,259.7,34.2,259.7,31.2z
		 M282.9,17.6c4.1,2.4,6.4,4.1,6.9,5.2c0.2,1-0.4,2-1.8,3.1c-0.4,0.3-0.8,0.4-1,0.3c-0.3-0.1-0.5-0.5-0.6-1.1
		c-0.6-2.6-1.9-4.9-3.9-7.1C282.5,17.6,282.6,17.5,282.9,17.6z M283.2,31c4.7,0.9,7.2,1.9,7.6,3.2c0,1.3-0.4,2.4-1.3,3.4
		c-0.8,0.5-1.4,0.3-1.9-0.6c-1.5-2.6-3-4.4-4.5-5.5c-0.2-0.1-0.3-0.2-0.2-0.3C282.9,31.1,283,31,283.2,31z M272.4,16.2l2.9,1.6
		c0.2,0.1,0.3,0.2,0.3,0.3c0.1,0,0.1,0.1-0.2,0.3c-1.9,2.9-4.8,6-8.7,9.3c-0.4,0.1-0.5,0-0.3-0.3C269.3,24.1,271.2,20.4,272.4,16.2z
		 M281.3,24.1c0,2.6-1.6,4.8-4.7,6.6c-0.2,0.1-0.3,0.1-0.3-0.2c0-1.5-0.5-2.5-1.4-2.9c-0.2,0-0.2-0.2,0-0.5c1.9,0.2,2.8-0.2,2.6-1.1
		l0.2-8.4l-0.3-4.5c0-0.3,0.1-0.4,0.3-0.3l3.9,1.4c0.3,0,0.4,0.2,0.2,0.5l-0.5,1.1v4.2L281.3,24.1z M285.3,9.4l1.6-1.6l4,3.4
		c0.1,0.1,0.2,0.3,0.2,0.5c-0.1,0.1-0.3,0.2-0.5,0.2c-1.6,0.1-3.7,1-6.3,2.6c-0.3,0.1-0.4,0-0.3-0.3l1.3-3.7l-10.1,0.2
		c-1.5,1.8-4.1,4.2-7.7,7.1c-0.1,0.1-0.3,0.1-0.5,0c-0.1-0.1-0.1-0.2,0-0.3c3.5-4,6.1-8.2,7.7-12.7l3.7,1.8c0.2,0.1,0.2,0.3-0.2,0.5
		l-0.5,0.6c-0.2,0.2-0.5,0.6-0.8,1.1c-0.4,0.4-0.7,0.8-1,1.1L285.3,9.4z M252.9,23.6c-0.2,0.1-0.4,0.1-0.5,0c0-0.2,0.1-0.4,0.2-0.5
		c6.8-5.4,11.5-11.5,14.2-18.5l3.4,2.1c0.2,0.1,0.2,0.4-0.2,0.8c-1.6,2.4-3.3,4.5-5,6.3v13c-0.2,1.5-0.9,2.8-2.1,4
		c-0.3,0.2-0.5,0.3-0.6,0.3c-0.2-0.1-0.3-0.3-0.3-0.5l0.2-9.7l0.2-4.5C260.3,18.3,257.2,20.7,252.9,23.6z M265.7,30.4l2.9,1.4
		c0.2,0.1,0.2,0.3-0.2,0.5l-0.3,0.6c-0.4,1.4-0.6,2.7-0.5,4c0.2,1,1,1.6,2.3,1.9c2.6,0.2,5.2,0.2,7.7-0.2c1.1-0.2,1.6-0.8,1.4-1.6
		v-3.2c0-0.2,0.1-0.3,0.2-0.3c0.1,0,0.2,0.1,0.3,0.3c0.8,2,2.2,3.4,4.2,4c1,0.3,1.4,0.8,1.4,1.4c-0.1,0.6-0.6,1.2-1.6,1.8
		c-4.2,1.7-9.1,2-14.8,0.8c-2-0.7-3.2-2.1-3.5-4c-0.1-1.8-0.1-4.2,0-7.2C265.2,30.4,265.3,30.3,265.7,30.4z"/>
	<path class="st1" d="M315.4,8.6c-0.3,0-0.9,0.1-1.6,0.2c-1.6,0-2.6,0.1-3.1,0.3L309.5,8l13.8-0.5l1.9-1.8l2.6,2.1
		c0.2,0.1,0.3,0.2,0.3,0.2c0,0.1-0.1,0.2-0.3,0.3L315.4,8.6z M312.4,26.7v5h4v-5H312.4z M324.1,26.5l-4.3,0.2v4.8h4.2L324.1,26.5z
		 M312.4,32.5v6.3l4-0.2v-6.1H312.4z M319.8,38.6l4.2-0.2v-6.1l-4.2,0.2V38.6z M322.4,13.9l-8.4,0.2v6.4l8.2-0.5L322.4,13.9z
		 M314,21.2c-0.2,0.6-0.8,1.3-1.8,1.9c-0.4,0.3-0.7,0.3-0.8-0.2v-4.7v-2.9c0.1-0.5,0.1-1.3,0-2.4c0-0.3,0-0.5,0-0.6
		c0-0.3,0.1-0.4,0.3-0.2l2.3,1.1l8.2-0.2l1.3-1.9l3.4,1.9c0.2,0,0.2,0.2,0,0.5l-0.6,1.1v4.2c0,1.2-0.6,2.4-1.9,3.7
		c-0.5,0.4-0.9,0.5-1.1,0.2c-0.1-0.1-0.3-0.3-0.5-0.6c-0.3-0.4-0.6-0.8-1-1.1L314,21.2z M294.2,11.7l6.4-0.3V5.1l3.9,1
		c0.2,0.1,0.2,0.3,0,0.6c-0.4,0.6-0.6,2.1-0.6,4.5h1.1l1.3-1.4l3.1,2.3c0.2,0.1,0.2,0.3,0,0.5l-1.1,1.1c-1.5,2.3-3.1,4.3-4.7,6.3
		v0.3c0.1,0.1,0.3,0.2,0.6,0.3c2.7,1.3,4.1,2.3,4.3,2.9c0,1.1-0.5,2-1.6,2.7c-0.6,0.4-1.1,0.3-1.3-0.5c-0.3-1.9-1-3.5-2.1-4.7v11.9
		l0.2,5.5c-0.3,1.9-1.2,3.6-2.7,5.2c-0.2,0.2-0.4,0.3-0.6,0.3c-0.2-0.1-0.3-0.3-0.3-0.6l0.3-10.6l0.2-9.5c-2.7,2.7-6,5.4-9.8,8.2
		c-0.2,0-0.3-0.2-0.2-0.5c5.9-5.3,10.7-11.5,14.3-18.7l-6.1,0.3c-1.2,0-2.3,0.2-3.2,0.5L294.2,11.7z M324,25.7l1.4-1.8l3.2,1.9
		c0.2,0,0.2,0.2,0,0.5l-0.8,1.3v6.4l0.2,3.7c0.1,1.4-0.7,3.1-2.4,5.2c-0.6,0.4-1,0.4-1.1-0.2c-0.4-1.7-0.8-2.9-1.1-3.5h-10.9v1
		c-0.2,1.4-0.9,2.5-2.1,3.4c-0.5,0.4-0.9,0.4-1-0.2l0.2-7.1v-7.7v-3.9c0-0.3,0.1-0.4,0.3-0.3l2.7,1.6L324,25.7z"/>
	<path class="st1" d="M352.3,9c-1.3,0-2.6,0.1-4,0.3l-1.1-1.1l10-0.2v0.8L352.3,9z M347.2,23c2.5,1.1,3.8,2.1,3.9,3.1
		c0.1,1.1-0.3,1.8-1.3,2.3c-1,0.2-1.4,0-1.4-0.6c-0.1-2-0.6-3.5-1.4-4.3C346.6,23,346.7,22.9,347.2,23z M331.6,11.5l6.4-0.3V4.8
		l3.7,1.1c0.3,0,0.4,0.2,0.2,0.5c-0.5,0.3-0.7,1.9-0.6,4.7h1l1.4-1.4l2.9,2.3c0.2,0.1,0.2,0.3,0,0.5l-1.1,1.1
		c-1.4,2.3-2.9,4.3-4.5,6.1v1.1c2.5,1,4,1.9,4.7,2.9c0,1.1-0.5,1.9-1.4,2.6c-0.9,0.3-1.3,0.2-1.3-0.5c-0.3-1.6-1-3.1-1.9-4.3v11.6
		v6.3c-0.3,1.5-1.2,3-2.6,4.5c-0.3,0.2-0.5,0.3-0.6,0.3c-0.2-0.1-0.3-0.3-0.3-0.6l0.3-9.7l0.2-10.6c-2.1,2.3-5.3,5-9.5,8.2
		c-0.3-0.1-0.4-0.3-0.2-0.5c5.6-5.4,10.2-11.6,13.8-18.8l-6,0.3c-1.2,0-2.3,0.2-3.2,0.5L331.6,11.5z M351.7,20.5
		c-1.1,0.1-2.3,0.2-3.7,0.3c0.2,0,0,0.1-0.6,0.2l-1.1-1.1l11.6-0.3l0.3-5.2h-3.1c-2,0.1-3.7,0.3-5,0.5l-1.3-1l9.3-0.3l0.2-4.5
		l-0.5-0.8l1.6-2.1l3.4,1.6c0.2,0,0.2,0.2,0,0.5l-1,1.1l-0.5,10.1l1-0.2l1.9-2.1l2.6,2.4c0.1,0.2,0.1,0.4-0.2,0.5l-10.1,0.3v4
		c0.2,0.3,0.4,0.8,0.6,1.4c0.3,0.6,0.5,1.1,0.6,1.4c1.6-1.5,3.3-3.2,5-5.2l2.4,2.6c0.2,0.2,0.2,0.4,0,0.5c0-0.1-0.1-0.1-0.2,0
		c-0.9,0.2-2.8,1-5.8,2.3c-0.5,0.2-0.9,0.4-1.1,0.5c1.5,2.9,4.9,5.7,10.3,8.4c0.3,0.3,0.3,0.5-0.2,0.6c-1.4-0.1-2.9,0.7-4.5,2.4
		c-3.4-2.7-5.9-7.2-7.2-13.5l0.2,12.6c-0.1,1.9-1.6,3.6-4.5,5.2c-0.4,0.2-0.6,0.1-0.6-0.5c0.2-1.5-0.2-2.5-1.1-2.9
		c-0.2-0.2-0.3-0.3-0.2-0.3c0-0.1,0.1-0.2,0.3-0.2c1.8,0.3,2.7,0.1,2.7-0.6v-9c-3,3.3-5.3,6-6.8,8.1c-0.5,0.6-1.1,0.9-1.8,0.8
		c-0.7-0.2-1-0.6-0.6-1.3c0.8-1.6,1-3.1,0.8-4.3c0.5,1.1,3.3-0.4,8.4-4.5l0.2-8.4H351.7z"/>
	<path class="st1" d="M368.9,16.4c3,1.4,4.5,2.8,4.3,4.3c-0.1,1.1-0.7,1.8-1.8,2.3c-0.9,0.1-1.3-0.3-1.4-1.1c-0.1-2.3-0.6-4-1.4-5.2
		C368.5,16.4,368.6,16.3,368.9,16.4 M371.2,6.4c3.8,1,5.6,2,5.6,3.2c0.1,1.2-0.5,2.1-1.8,2.7c-0.6,0.4-1.1,0.3-1.4-0.5
		C373,9.7,372,8,370.9,6.7C370.7,6.5,370.8,6.4,371.2,6.4z M382.5,34.2c1.7-3.1,2.8-6.6,3.2-10.6l-3.2,0.2V34.2z M389.1,18.1
		c-0.1,1.7-0.3,3.2-0.5,4.5h3.9v-0.5l0.2-5.2l-5.6,0.2L389.1,18.1z M378.9,15.6l-4.5,17.9c-0.6,2.4-0.7,4.3-0.2,5.8
		c0.3,1,0.2,1.8-0.5,2.6c-0.5,0.5-1.4,0.9-2.6,1.1c-0.9,0.1-1.1-0.5-0.8-1.8c0-0.3,0.1-1.2,0.3-2.6c0.1-0.6,0.2-1.1,0.2-1.3
		c0.1-0.8-0.4-1.4-1.6-2.1c-0.1-0.2-0.1-0.4,0.2-0.5c1.1,0.2,1.8-0.1,2.1-1l6.9-18.4c0.1-0.2,0.2-0.3,0.3-0.2
		C378.9,15.2,378.9,15.3,378.9,15.6z M392.3,14.1v-3.2h-4l-0.6,3.4c-0.6,1-1.2,1.1-1.8,0.3l-0.3-3.5h-2.1c-0.3,0-0.8,0.1-1.4,0.2
		c-1.5,0-2.5,0.1-3.1,0.3l-1.3-1.3l7.9-0.2L385,4.9l4.2,1.3c0.1,0,0.2,0.1,0.3,0.2c0,0-0.1,0.1-0.2,0.3l-0.6,1l-0.3,2.3h3.9l0.2-5.3
		l4.3,1.6c0.2,0.1,0.2,0.3,0,0.6l-0.6,1l-0.6,1.9l4.3-0.2l1.9-1.9l2.7,2.4c0.2,0.3,0.2,0.5-0.2,0.5l-9.2,0.2l-1.1,3.4
		c-0.3,0.5-0.7,0.8-1.3,0.8C392.3,14.9,392.2,14.6,392.3,14.1z M384.7,17.2c-1.9,0.1-3.4,0.3-4.3,0.5l-1.3-1.3l19.6-0.3l2.3-2.4
		l2.7,2.7c0.2,0.2,0.2,0.3,0,0.3L393.6,17l2.3,1.1c0.4,0.1,0.5,0.3,0.2,0.6l-0.3,0.8l-0.3,3.1l3.1-0.2l1.4-1.9l3.4,2.3
		c0.2,0,0.3,0.2,0.2,0.5l-1,1.3l0.2,9.2l0.2,3.9c-0.3,2.6-1.9,4.6-4.7,6.1c-0.2,0-0.3-0.1-0.3-0.3c0.1-1.5-0.3-2.5-1.3-3.1
		c-0.3-0.2-0.3-0.3,0-0.3c1.6,0,2.4-0.3,2.3-0.8l-0.2-15.8h-3.4c-0.2,1.5-0.5,2.9-0.8,4.2c1.5,0.5,2.6,1.2,3.4,1.9
		c0.5,1.2,0.3,2.2-0.6,3.1c-0.9,0.4-1.4,0.3-1.6-0.5c-0.2-1.6-0.7-2.8-1.4-3.7c-1.2,3.4-3.4,6.6-6.6,9.5c-0.2,0.1-0.4,0.1-0.5-0.2
		c0-0.1,0.1-0.2,0.3-0.3c3.1-3.6,4.8-8.3,5.2-14l-4,0.2c-0.1,0.5-0.3,1.2-0.6,2.1c-0.1,0.3-0.2,0.5-0.2,0.6c1.2,0.4,2.2,1,3.1,1.6
		c0.6,0.4,0.7,1.1,0.2,1.9c-0.1,0.1-0.3,0.3-0.5,0.5c-0.1,0.1-0.2,0.2-0.3,0.3c-0.6,0.4-1.1,0.3-1.3-0.5c-0.2-1.3-0.6-2.4-1.3-3.4
		c-0.7,2.4-2.4,5.1-4.8,8.2c0,0.1-0.1,0.2-0.2,0.2l0.2,4c-0.4,1.4-1.2,2.8-2.4,4.3c-0.3,0.2-0.5,0.3-0.6,0.2
		c-0.2-0.1-0.3-0.3-0.3-0.6l0.3-7.6v-9.3v-4.7c0-0.2,0.1-0.3,0.3-0.2l2.7,1.4h3.2c0.1-0.5,0.2-1.4,0.2-2.7c0.1-1.3,0.2-2.3,0.2-2.9
		H384.7z"/>
	<path class="st1" d="M415,7.7c3.9,1.7,5.6,3.1,5.3,4.2c-0.3,1.1-1.1,1.9-2.3,2.4c-1.1,0.1-1.6-0.2-1.6-1c0-2.3-0.5-4-1.6-5.3
		C414.6,7.7,414.7,7.6,415,7.7 M418.1,20.2l-0.2,6.3l11.3-0.2l0.2-6.4L418.1,20.2z M416.9,34.5c-1.9,0.1-3.4,0.3-4.5,0.5l-1.1-1.3
		l10.5-0.2v-5.8l4.8,1.1c0.3,0.1,0.4,0.3,0.2,0.6c-0.5,0.5-0.9,1.1-1,1.6v2.3l5.6-0.2l2.3-2.3l3.1,2.6c0.2,0.3,0.2,0.5-0.2,0.5
		l-10.8,0.3v6.4h11.1l2.4-2.3l3.2,2.6c0.1,0.2,0.1,0.4-0.2,0.5l-30.7,0.5c-1.1,0-2.3,0.1-3.5,0.3c-0.3,0.1-0.6,0.2-0.8,0.2l-1.1-1.4
		l15.8-0.2v-6.6L416.9,34.5z M436.1,14.3l1.9-1.4l4.2,4.2c0.3,0.3,0.2,0.6-0.5,0.8c-1.9,0-4,0.6-6.3,1.8c-0.2,0.1-0.3,0-0.3-0.3
		l1.3-4.2l-23.5,0.8c-0.6,3.1-2.3,5.5-4.8,7.1c-0.5,0.2-0.8,0.2-0.8-0.2c-0.6-1.3-0.6-2.2,0-2.7c1.9-1.8,3-3.9,3.1-6.1
		c0-0.4,0.3-0.5,0.8-0.3c0.6,0.4,1.2,0.9,1.6,1.4l9.5-0.3l-0.2-10l4.7,1.1c0.2,0.1,0.2,0.3,0,0.5l-0.3,1l-0.5,7.2h1
		c2-2.9,3.7-5.5,5-7.9l3.5,2.3c0.1,0.1,0.1,0.2,0,0.3c0,0.1,0,0.2,0,0.2c-2.7,1.6-5.2,3.3-7.6,5.2L436.1,14.3z M433.5,27.6
		c-4.7-0.2-10-0.3-15.8-0.2c-0.1,0.3-0.7,0.9-1.8,1.8c-0.8,0.4-1.1,0.4-1.1-0.2l0.2-4v-3.4v-3.9l3.4,1.6l10.6-0.3l1.6-1.9l3.7,1.8
		c0,0,0,0.1,0,0.2c0.1,0.1,0.1,0.2,0,0.2l-0.6,1.3l-0.2,6l0.5,0.6C434.1,27.5,433.9,27.6,433.5,27.6z"/>
	<rect y="0" class="st2" width="640" height="51.8"/>
</g>
<g>
</g>
<g>
</g>
<g>
</g>
<g>
</g>
<g>
</g>
<g>
</g>
<g>
</g>
<g>
</g>
<g>
</g>
<g>
</g>
<g>
</g>
<g>
</g>
<g>
</g>
<g>
</g>
<g>
</g>
</svg>
