<?xml version="1.0" encoding="utf-8"?>
<!-- Generator: Adobe Illustrator 17.0.0, SVG Export Plug-In . SVG Version: 6.00 Build 0)  -->
<!DOCTYPE svg PUBLIC "-//W3C//DTD SVG 1.1//EN" "http://www.w3.org/Graphics/SVG/1.1/DTD/svg11.dtd">
<svg version="1.1" id="Layer_1" xmlns="http://www.w3.org/2000/svg" xmlns:xlink="http://www.w3.org/1999/xlink" x="0px" y="0px"
	 width="640px" height="159.2px" viewBox="0 0 640 159.2" style="enable-background:new 0 0 640 159.2;" xml:space="preserve">
<style type="text/css">
	.st0{fill:#0064AC;}
	.st1{clip-path:url(#SVGID_2_);fill:url(#SVGID_3_);}
	.st2{fill:#FFFFFF;}
	.st3{fill:none;}
	.st4{fill:#AB1929;}
</style>
<g id="page-8-logo.svg">
	<polygon class="st0" points="347.8,94.1 346.2,94.1 345.4,91.6 342.2,91.6 342.8,94.1 339,94.1 339,89.6 347.1,89.6 347.1,86.2 
		339,86.2 339,82.8 347.2,82.8 347.2,79.4 327,79.4 327,82.8 334.7,82.8 334.7,86.2 327,86.2 327,89.6 334.7,89.6 334.7,94.1 
		327,94.1 327,97.5 347.8,97.5 	"/>
	<path class="st0" d="M350.1,98.4L350.1,98.4c0,0.5-0.2,0.7-0.3,0.9c-0.1,0.2-0.5,0.3-1,0.3h-24.2V77.4h25.5V98.4z M320.3,73.9v29
		h28.6c2.5,0,3.9-0.2,4.4-0.7c0.5-0.5,0.8-0.9,0.9-1.4c0.2-0.5,0.2-1.1,0.2-1.7V73.9H320.3z"/>
	<path class="st0" d="M427,87.5l-3.1-8.3l-5.6-0.1l4.1,10.3c0.6,1.5,2.1,2.3,2.8,2.7h-8.8V77.9l14.5,0v-3.8h-34v3.8l14.5,0v14.3
		h-8.8c0.6-0.4,1.9-1.3,2.5-2.7l4.1-10.3l-5.6,0.1l-3.1,8.3c-0.5,1.4-2.4,3.9-4,4.6h-0.2v3.9l15.1,0v6.7h5v-6.7l15.1,0v-3.9h-0.5
		C429.3,91.4,427.5,88.8,427,87.5"/>
	<path class="st0" d="M301.8,94.5L301.8,94.5h9.2c0.7,0,1.2-0.1,1.3-0.2c0.2-0.1,0.2-0.4,0.2-0.8V80.9h-10.7V94.5z M286.2,94.5
		L286.2,94.5h10.6V80.9h-10.6V94.5z M281.9,77.1h14.9v-3.6h5v3.6h15.1v18.2c0,0.5-0.1,1-0.3,1.4c-0.2,0.4-0.5,0.8-1,1.2
		c-0.5,0.3-1.2,0.5-2,0.5h-11.8v5h-5v-5h-14.9V77.1z"/>
	<path class="st0" d="M378.1,73.9h-5v4.2h-15v4h14l-9.9,14.5c-0.4,0.6-1.4,1.4-1.5,1.5c-0.6,0.4-1.2,0.8-2,0.9c-0.2,0-0.6,0.1-0.6,0
		v4c-0.1,0,0.5,0,0.9,0c0.3,0,1,0,1.4-0.1c0.6-0.1,2.4-0.8,3.1-1.4c0.7-0.6,2-1.8,2.6-2.6l5-6.9v3.1c0.7,0,1.4,0,1.9,0.3
		c0.4,0.1,0.7,0.5,1.4,1.3l3.8,5.4l5.1,0.1l-5.4-7.6c-2.1-2.7-2.5-3.1-4-3.2h-2.3l4.2-5.9l9.3,12.6c0.4,0.5,1.4,1.9,2.4,3.1
		c1.3,1.3,3.1,1.9,3.9,1.9c0.9,0.1,1.4,0,1.8,0v-3.9c-0.3,0-0.6,0-1.1-0.2c-1.1-0.4-2.3-2.2-3.1-3.1l-10-13.7h14.2v-4h-15.1V73.9z"
		/>
	<path class="st0" d="M288.9,113.5c-1.2,0-2.1,0.3-2.6,1c-0.5,0.7-0.8,1.8-0.8,3.5c0,1.4,0.2,2.3,0.7,2.9c0.5,0.6,1.4,0.9,2.7,0.9
		h4.8v2.2h-5c-1.1,0-2-0.1-2.6-0.3c-0.6-0.2-1.2-0.4-1.8-0.9c-0.7-0.5-1.2-1.2-1.6-2c-0.4-0.8-0.5-1.8-0.5-3c0-2.2,0.5-3.9,1.6-4.9
		c1.1-1.1,2.7-1.6,5-1.6h4.9v2.1H288.9z"/>
	<polygon class="st0" points="298.8,111.4 298.8,116.5 304.1,116.5 304.1,111.4 307.1,111.4 307.1,124 304.1,124 304.1,118.7 
		298.8,118.7 298.8,124 295.9,124 295.9,111.4 	"/>
	<rect x="309.9" y="111.4" class="st0" width="3.1" height="12.6"/>
	<polygon class="st0" points="315.9,111.4 319.6,111.4 325.3,120.4 325.1,111.4 328.1,111.4 328.1,124 324.7,124 318.7,114.4 
		318.9,124 315.9,124 	"/>
	<path class="st0" d="M336.3,113.9L336.3,113.9l-2,4.9h4.1L336.3,113.9z M334.9,111.4h3.1l5.9,12.6h-3.2l-1.3-3h-6l-1.2,3H329
		L334.9,111.4z"/>
	<polygon class="st0" points="355.4,113.6 350.9,113.6 350.9,111.4 363,111.4 363,113.6 358.4,113.6 358.4,124 355.4,124 	"/>
	<path class="st0" d="M368.9,113.9L368.9,113.9l-2,4.9h4.1L368.9,113.9z M367.4,111.4h3.1l5.9,12.6h-3.2l-1.3-3h-6l-1.2,3h-3.1
		L367.4,111.4z"/>
	<rect x="377.9" y="111.4" class="st0" width="3.1" height="12.6"/>
	<path class="st0" d="M390.2,113.6L390.2,113.6h-3.4v3.7h3.6c0.5,0,0.9,0,1.2-0.1c0.3-0.1,0.6-0.2,0.8-0.3c0.4-0.3,0.6-0.8,0.6-1.4
		c0-0.7-0.2-1.1-0.6-1.4C391.9,113.8,391.2,113.6,390.2,113.6 M383.9,111.4h6.4c1.1,0,1.9,0.1,2.6,0.2c0.7,0.1,1.2,0.3,1.5,0.5
		c0.3,0.2,0.6,0.4,0.8,0.6c0.2,0.2,0.4,0.5,0.6,0.8c0.3,0.6,0.5,1.3,0.5,2c0,0.7-0.1,1.4-0.4,1.9c-0.3,0.6-0.7,1-1.2,1.3
		c-0.5,0.3-1,0.5-1.6,0.6c-0.6,0.1-1.5,0.2-2.7,0.2h-3.6v4.4h-2.9V111.4z"/>
	<rect x="398.2" y="111.4" class="st0" width="3.1" height="12.6"/>
	<polygon class="st0" points="404.2,111.4 407.9,111.4 413.6,120.4 413.4,111.4 416.4,111.4 416.4,124 413,124 407,114.4 407.2,124 
		404.2,124 	"/>
	<path class="st0" d="M424.2,118.7v-2.2h6.9v7.5h-6.3c-1.1,0-2-0.1-2.6-0.3c-0.6-0.2-1.2-0.4-1.8-0.9c-0.7-0.5-1.2-1.2-1.6-2
		c-0.4-0.8-0.5-1.8-0.5-3c0-2.2,0.5-3.9,1.6-4.9c1.1-1.1,2.7-1.6,4.9-1.6h6.3v2.1h-6.3c-1.1,0-2,0.3-2.5,1c-0.5,0.7-0.8,1.8-0.8,3.2
		c0,1.4,0.3,2.4,0.8,3c0.5,0.6,1.4,0.9,2.5,0.9h3.3v-3H424.2z"/>
	<g>
		<defs>
			<path id="SVGID_1_" d="M232.1,65.5c18.3,0,33.2,14.9,33.2,33.2c0,18.4-14.9,33.3-33.2,33.3c-18.3,0-33.2-14.9-33.2-33.3
				C198.8,80.4,213.8,65.5,232.1,65.5"/>
		</defs>
		<clipPath id="SVGID_2_">
			<use xlink:href="#SVGID_1_"  style="overflow:visible;"/>
		</clipPath>
		
			<linearGradient id="SVGID_3_" gradientUnits="userSpaceOnUse" x1="-2471.071" y1="152.0668" x2="-2469.0784" y2="152.0668" gradientTransform="matrix(0 -33.3405 33.3414 0 -4838.0645 -82254.8828)">
			<stop  offset="0" style="stop-color:#00A34C"/>
			<stop  offset="0.2" style="stop-color:#00A34C"/>
			<stop  offset="0.8" style="stop-color:#0064AC"/>
			<stop  offset="1" style="stop-color:#0064AC"/>
		</linearGradient>
		<rect x="198.8" y="65.5" class="st1" width="66.4" height="66.4"/>
	</g>
	<path class="st2" d="M250.7,101.7L250.7,101.7c-3.4-0.5-5.9-1.1-8.7-2.5c-1.1-0.6-2.3-0.1-2.1,1c0.7,2.5,6.8,3.8,10.4,3.9
		c0.7,0,2-0.4,1.8-1.3C252,102.2,251.5,101.8,250.7,101.7 M224.2,100.2L224.2,100.2c0.3-1.1-0.9-1.6-2.1-1c-2.8,1.4-5.3,2.1-8.7,2.5
		c-0.8,0.1-1.3,0.5-1.4,1.1c-0.2,0.9,1.1,1.3,1.8,1.3C217.4,104,223.5,102.8,224.2,100.2z M214.1,88.1L214.1,88.1
		c3.2-0.2,6.6-2,9.6-3.5c2.8-1.4,5.6-3.2,8.2-5.2c0.1-0.1,0.2-0.1,0.2-0.1s0.1,0,0.2,0.1c2.5,2.1,5.3,3.8,8.2,5.2
		c3,1.5,6.4,3.3,9.6,3.5c0.7,0,1.1-0.2,1.4-0.5c0.8-1.1,0.2-2.2-0.7-2.7c-2.1-1.1-3.8-2-5.9-3.1c-2.6-1.5-5.4-3.3-7.9-5.2
		c0.9,0.3,1.9,0.6,2.8,0.8c2.3,0.6,6,1.5,8.1,0.4c1.1-0.7,0.3-1.9-0.7-2.3c-1.9-0.8-3.9-1.4-5.9-2.2c-1.7-0.7-5.8-2.6-6.5-3.8
		c-0.3-0.4-0.5-2.9-1.1-3.8v0c-0.5,0-1,0-1.5,0c-0.5,0-1,0-1.5,0c-0.7,0.9-0.8,3.5-1.1,3.8c-0.7,1.2-4.8,3.2-6.5,3.8
		c-2,0.8-4,1.4-5.9,2.2c-0.9,0.5-1.8,1.7-0.7,2.3c2.1,1.1,5.8,0.2,8.1-0.4c0.9-0.3,1.9-0.6,2.8-0.8c-2.3,2-5.3,3.7-7.9,5.2
		c-2.1,1.1-3.8,2-5.9,3.1c-0.9,0.6-1.6,1.6-0.7,2.7C213,88,213.5,88.1,214.1,88.1z M232.1,82.4L232.1,82.4c-1.5,0-3.1,0.1-4.1,0.9
		c-0.7,0.5,0.1,1.3,1.4,1.6c1.3,0.3,1.8,0.2,2.7,0.2c0.9,0,1.4,0.1,2.7-0.2c1.3-0.3,2.1-1.1,1.4-1.6
		C235.1,82.5,233.6,82.4,232.1,82.4z M256.2,108.8c-5.8-1.5-10.6-3-15.8-5.5c-1.1-0.7-3.2-2-3.5-2.7c-0.3-0.7-0.4-3.6-0.4-5.2
		c3.7,2.5,9.4,4.1,13.9,4.3c1.5,0.1,4.8,0.1,5.1-1c0.1-0.6-0.4-0.9-0.7-1.1c-5.2-2.1-10.1-3.9-14.6-6.5c-3.7-2-5.9-4.4-8.2-4.4
		c-2.3,0-4.5,2.4-8.2,4.4c-4.5,2.5-9.5,4.4-14.5,6.5c-0.4,0.2-0.8,0.6-0.7,1.1c0.2,1.1,3.5,1.1,5,1c4.5-0.2,10.1-1.8,13.9-4.3
		c0,1.7-0.1,4.5-0.4,5.2c-0.3,0.8-2.3,2-3.5,2.7c-5.2,2.5-9.9,4-15.8,5.5c-1.2,0.3-3.1,1.4-2.3,3c0.5,0.8,2.3,1.2,3.5,1.1
		c6.4-0.6,12.1-2,17.8-4.2c-0.4,7.1-0.9,15.5-1.3,22.7c4.2,0.8,8.7,0.8,12.9,0c-0.4-7.2-0.9-15.5-1.3-22.7
		c5.7,2.2,11.4,3.7,17.8,4.2c1.3,0.1,3-0.3,3.5-1.1C259.3,110.2,257.4,109,256.2,108.8z"/>
	<rect y="0" class="st3" width="640" height="159.2"/>
	<path class="st4" d="M248.3,35.4v-6.7l0.8-0.4c0.1-0.1,0.1-0.1,0.1-0.1c0,0,0-0.1-0.1-0.2l-1.2-0.9l-0.6,0.8l-1.4,0.1
		c-0.6,0-0.9,0-1.3,0l0.5,0.5c0.3-0.1,0.5-0.1,0.9-0.2l1.4-0.1v6.6c0,0.7-0.1,0.9-0.9,1.5l0.7,1c0,0.1,0.1,0.1,0.1,0.1
		s0.1,0,0.1-0.1c0.4-0.7,0.6-0.9,3.5-3.3l-0.1-0.2L248.3,35.4z M242.2,29.9l-0.6,0.8h-3.3l-1.1-1c0,0.3,0.1,0.8,0.1,1v5.1
		c0,0.6,0,1.5-0.1,2.1V38c0,0.2,0,0.3,0.2,0.3c0.1,0,0.2,0,0.3-0.1c0.3-0.1,0.4-0.2,0.4-0.3v-1.7h3.8v1.4c0,0.2,0,0.3,0.1,0.3
		c0,0,0.8-0.2,0.8-0.5v-0.1c-0.1-0.5-0.1-1-0.1-1.7v-4.1l0.7-0.4c0.1-0.1,0.1-0.1,0.1-0.1c0-0.1,0-0.1-0.1-0.1L242.2,29.9z
		 M241.9,35.8h-3.8v-4.7h3.8V35.8z M234,29.9l-0.5,0.8h-3l-1.1-1c0,0.3,0.1,0.8,0.1,1v5.1c0,0.6,0,1.4-0.1,2V38c0,0.2,0,0.3,0.2,0.3
		c0.1,0,0.2,0,0.3-0.1c0.4-0.1,0.4-0.2,0.4-0.3v-1.7h3.5v1.2c0,0.2,0,0.3,0.1,0.3c0.1,0,0.2,0,0.3-0.1c0.4-0.2,0.5-0.2,0.5-0.4v-0.1
		c-0.1-0.5-0.1-1-0.1-1.7v-4l0.6-0.3c0.1-0.1,0.1-0.1,0.1-0.1c0,0,0-0.1-0.1-0.1L234,29.9z M233.7,35.8h-3.5v-4.7h3.5V35.8z
		 M262.8,25.7c-0.1,1.6-0.4,2.3-1.1,3.1c-0.2,0.2-0.2,0.3-0.2,0.5c0,0.2,0.2,0.3,0.5,0.3c1.1,0,1.2-1.4,1.2-2.7c0-0.4,0-0.8-0.1-1.2
		H262.8z M260.1,31.8l-0.8,1h-3.5v-3.2h4.1c0.1,0,0.2,0,0.2-0.1c0,0,0-0.1-0.1-0.2l-1-1.2l-0.8,1h-2.3v-3h5c0.1,0,0.1,0,0.1-0.1
		s0-0.1-0.1-0.2l-1.1-1.2l-0.8,1h-2.4c1.5-2,2.3-2.6,2.8-2.8c0.1,0,0.1,0,0.1-0.1c0,0,0-0.1-0.1-0.1l-1.2-0.9
		c-0.3,0.8-1.1,2.3-2.1,3.8h-4.7c-0.4,0-0.8,0-1.2-0.1l0.5,0.6c0.3-0.1,0.8-0.2,1.1-0.2h3.2v3h-2.8c-0.4,0-0.8,0-1.2-0.1l0.5,0.6
		c0.3-0.1,0.8-0.2,1.1-0.2h2.5v3.2H251c-0.4,0-0.8,0-1.2-0.1l0.5,0.6c0.3-0.1,0.8-0.2,1.1-0.2h3.6v1.2c0,1,0,2.5-0.1,3.5v0.2
		c0,0.3,0,0.4,0.2,0.4c0.1,0,0.2,0,0.4-0.1c0.4-0.1,0.4-0.2,0.4-0.5v-0.1c-0.1-0.8-0.1-2.1-0.1-3.3v-1.2h5.3c0.1,0,0.2,0,0.2-0.1
		s0-0.1-0.1-0.1L260.1,31.8z M266.4,27.1c0.1,0.2,0.2,0.3,0.4,0.3c0.2,0,0.4-0.3,0.4-0.6c0-1-1.3-1.3-2.3-1.5v-2.4
		c0.5-0.3,0.6-0.3,0.6-0.4c0-0.1-0.1-0.1-0.3-0.2l-1.2-0.6c0,0.7,0.1,1.9,0.1,2.6v10.1c0,1,0,2.6-0.1,3.7v0.2c0,0.3,0,0.4,0.2,0.4
		c0.1,0,0.2-0.1,0.4-0.1c0.3-0.2,0.4-0.2,0.4-0.5v-0.1c0-0.7-0.1-2.2-0.1-3.5v-8.8C265.7,26.1,266.1,26.6,266.4,27.1z M300.3,28.5
		c0.9-1.2,2-2.7,2.8-4h6l-1.2,1.9l0.2,0.1c1.4-1.5,1.9-1.8,2.5-1.9c0.1,0,0.2,0,0.2-0.1c0,0,0-0.1-0.1-0.1l-1.2-1.1l-0.6,0.8h-5.6
		c0.3-0.4,0.5-0.8,0.6-1.1c0.1-0.3,0.3-0.4,0.7-0.5c0.1,0,0.2-0.1,0.2-0.1c0-0.1-0.1-0.1-0.1-0.1l-1.3-0.5c-0.3,1.2-2,4.5-3.4,6.6
		L300.3,28.5z M226.3,23.1l-0.7,1.1h-13c-0.4,0-0.9,0-1.3-0.1l0.5,0.7c0.3-0.1,0.8-0.2,1.2-0.2h14.6c0.1,0,0.1,0,0.1-0.1
		s0-0.1-0.1-0.2L226.3,23.1z M298.1,24.7c0.2,0.3,0.3,0.3,0.4,0.3c0.2,0,0.4-0.3,0.4-0.6c0-0.8-0.5-1.3-2.8-1.8l-0.1,0.2
		C297.1,23.3,297.5,23.8,298.1,24.7z M392.8,25.6c0.1,0.3,0.2,0.4,0.3,0.4c0.3,0,0.6-0.5,0.6-0.9c0-0.8-0.8-1.3-2.6-2.1l-0.1,0.2
		C391.9,23.9,392.5,24.7,392.8,25.6z M282.2,25.7c0.2,0,0.6-0.5,0.6-1c0-0.6-0.6-1.3-2.4-2.5l-0.2,0.2c1.2,1.3,1.5,2.2,1.5,2.8
		C281.8,25.6,281.9,25.7,282.2,25.7z M342.5,25.3c0.2,0.4,0.3,0.6,0.6,0.6c0.2,0,0.4-0.4,0.4-0.8c0-1-1.2-1.4-3-1.9l-0.1,0.2
		C341.5,23.9,342.3,24.8,342.5,25.3z M315.5,25.1c0.2,0.7,0.2,0.8,0.4,0.8c0.3,0,0.7-0.6,0.7-1.1c0-0.1,0-0.2-0.1-0.3
		c-0.2-0.5-0.8-1.1-2.3-1.9l-0.2,0.2C315.1,23.9,315.4,24.6,315.5,25.1z M219.5,23.7c0.1,0.2,0.2,0.5,0.3,0.5c0.2,0,0.7-0.3,0.7-0.8
		c0-0.8-0.7-1.2-2.3-1.7l-0.1,0.2C218.7,22.3,219.3,23.1,219.5,23.7z M226,27.4l-0.7,1h-4.4c1.9-2.4,2.2-2.6,2.6-2.7
		c0.1,0,0.2-0.1,0.2-0.1c0,0-0.1-0.1-0.2-0.1l-1.2-0.7c-0.7,1.4-1.1,2.3-1.8,3.6h-5.8l-1.2-1c0,1.3,0.1,2.5,0.1,3.4
		c0,4.1-0.5,5.1-2.9,7.5l0.2,0.2c3.1-2.5,3.6-3.2,3.6-9.8h12.7c0.1,0,0.1,0,0.1-0.1c0,0,0-0.1-0.1-0.1L226,27.4z M218,28.1
		c0.2,0,0.5-0.3,0.5-0.9c0-0.5-0.8-1.4-2.5-2.1l-0.1,0.2c0.8,0.6,1.5,1.8,1.6,2.4C217.6,28,217.8,28.1,218,28.1z M248.4,25.5
		c0.3,0,0.6-0.5,0.6-1c0-0.1,0-0.3-0.1-0.4c-0.2-0.5-0.9-1.2-2.5-2l-0.1,0.1c1,0.9,1.5,1.9,1.6,2.5C248,25.4,248.2,25.5,248.4,25.5z
		 M253.6,24.8c0.1,0.3,0.2,0.5,0.4,0.5c0.4,0,0.6-0.5,0.6-0.9c0-0.9-1.4-1.6-2.5-2.1l-0.1,0.1C252.9,23.1,253.4,24,253.6,24.8z
		 M232.1,29.2c0.1,0,0.2,0,0.3-0.1c0.4-0.1,0.4-0.2,0.4-0.4v-1h6.4v0.9c0,0.2,0,0.3,0.2,0.3c0.1,0,0.2,0,0.3-0.1
		c0.4-0.1,0.5-0.2,0.5-0.4c0-0.1-0.1-1.5-0.1-1.7v-3.2l0.7-0.4c0.1-0.1,0.1-0.1,0.1-0.1c0,0,0-0.1-0.1-0.1l-1.3-1l-0.6,0.9h-5.8
		l-1.2-1c0,0.3,0.1,0.8,0.1,1v3.9c0,0.6,0,1.5-0.1,2.1V29C232,29.2,232,29.2,232.1,29.2z M232.9,23.3h6.4v4.1h-6.4V23.3z
		 M353.2,26.3l-1.3-0.7c0,0.7,0.1,1.9,0.1,2.6v5.5c0,1,0,2.6-0.1,3.7v0.2c0,0.3,0,0.4,0.2,0.4c0.1,0,0.2,0,0.4-0.1
		c0.3-0.1,0.4-0.2,0.4-0.5v-0.1c0-0.7-0.1-2-0.1-3.5V27l0.4-0.3c0.1-0.1,0.1-0.1,0.1-0.2S353.3,26.4,353.2,26.3z M378.2,25.5
		l-1.1-0.9l-0.5,0.8h-3.8c0.3-0.6,0.6-1.3,0.9-2c0.2-0.5,0.4-0.6,0.6-0.7s0.3-0.1,0.3-0.2s-0.1-0.1-0.3-0.2l-1.1-0.5
		c-0.7,2.5-1.9,5.8-3.1,8l0.2,0.1c0.9-1.2,1.5-2.4,2.3-4.1h4.2c-0.1,4.3-0.3,8-0.4,9.8c-0.1,1.1-0.2,1.5-1.1,1.5
		c-0.5,0-1.2-0.1-2.2-0.4l0,0.3c1.6,0.4,2.1,0.7,2.2,1.3c0.1,0.1,0.1,0.2,0.2,0.2c0,0,0.1,0,0.1,0c1.4-0.8,1.5-1.3,1.7-3
		c0.1-1.5,0.3-4.7,0.4-9.3l0.6-0.3c0.1-0.1,0.1-0.1,0.1-0.2C378.3,25.6,378.3,25.6,378.2,25.5z M369.6,26l0.6-0.4
		c0.1-0.1,0.1-0.1,0.1-0.1c0,0-0.1-0.1-0.1-0.1l-1.1-0.9l-0.6,0.8h-2.2l1.4-2.3c0.2-0.3,0.3-0.4,0.6-0.4c0.1,0,0.2-0.1,0.2-0.1
		c0-0.1-0.1-0.1-0.2-0.2l-1.1-0.6c-0.3,1.1-0.7,2.4-1.2,3.6H365l-1.1-0.9c0,0.5,0.1,0.8,0.1,1.8v7.5c0,1,0,2.5-0.1,3.5v0.1
		c0,0.3,0,0.4,0.2,0.4c0.1,0,0.2,0,0.4-0.1c0.3-0.1,0.4-0.2,0.4-0.4v-1.7h3.9v1.3c0,0.1,0,0.2,0.1,0.2c0.1,0,0.2,0,0.3-0.1
		c0.4-0.2,0.5-0.2,0.5-0.5v-0.1c-0.1-0.8-0.1-1.9-0.1-3.3V26z M368.7,35.1h-3.9v-4.7h3.9V35.1z M368.7,30h-3.9v-4.3h3.9V30z
		 M352.8,22.3l-0.2,0.2c1,1.1,1.2,1.5,1.3,2.2c0.2,0.6,0.2,0.7,0.4,0.7c0.3,0,0.6-0.4,0.6-1C355,23.7,354.4,23.2,352.8,22.3z
		 M360.6,23.2l-0.6,0.9h-3.1c-0.4,0-0.8,0-1.3-0.1l0.5,0.7c0.3-0.1,0.8-0.2,1.2-0.2h3v11.7c0,0.4-0.1,0.6-0.6,0.6
		c-0.4,0-1.2-0.1-2.6-0.4l0,0.2c2.1,0.6,2.4,1,2.5,1.7c0,0.1,0,0.2,0.1,0.2c0,0,0.1,0,0.2-0.1c1.3-0.6,1.4-0.8,1.4-2.4V24.9l0.7-0.5
		c0.1-0.1,0.1-0.1,0.1-0.2c0-0.1,0-0.1-0.1-0.2L360.6,23.2z M373.9,32.1c0.3,0,0.5-0.4,0.5-0.9c0-0.2,0-0.3-0.1-0.5
		c-0.2-0.5-0.9-1.2-2.4-2l-0.1,0.2c0.9,0.9,1.4,1.9,1.6,2.8C373.5,32,373.6,32.1,373.9,32.1z M351.4,22.6l-1.2-0.7
		c-1,3.3-2.7,6.7-4.4,9.4l0.2,0.1c0.8-1,1.7-2.4,2.6-3.8v7.3c0,0.9,0,2-0.1,3v0.2c0,0.3,0,0.4,0.1,0.4c0.1,0,0.2,0,0.4-0.1
		c0.4-0.2,0.4-0.2,0.4-0.5v-0.1c0-0.6-0.1-1.4-0.1-2.8v-7.5c0.4-0.3,0.5-0.4,0.5-0.4c0-0.1,0-0.1-0.1-0.1l-0.6-0.2
		c0.7-1.2,1.3-2.4,1.7-3.2c0.1-0.3,0.2-0.4,0.6-0.5c0.1-0.1,0.2-0.1,0.2-0.2S351.5,22.6,351.4,22.6z M421.8,23.2
		c0.5-0.3,0.5-0.3,0.5-0.4c0-0.1-0.1-0.1-0.3-0.3l-1.4-0.6c0,4.5-0.6,7.5-1.6,9.9c-0.9,2.3-3.4,4.9-6.3,6.3l0.1,0.3
		c7.3-3.2,8-8,8.6-14.7c0.1,7.3,2.7,11.2,5.8,13.7c0.1,0.1,0.1,0.1,0.2,0.1c0,0,0.1,0,0.1-0.1c0.3-0.3,0.6-0.5,1.4-0.5
		c0.2,0,0.4,0,0.6,0v-0.3C425.9,36,422.3,31.4,421.8,23.2z M411.4,36.1l-0.7,1h-3v-3.2h4.1c0.2,0,0.3-0.1,0.3-0.1
		c0-0.1-0.1-0.1-0.1-0.2l-1.1-1l-0.7,1h-2.4v-2.8h2.6c0,0.7,0,0.8,0.1,0.8c0,0,0.8-0.3,0.8-0.7c0,0,0-0.1,0-0.1
		c-0.1-0.6-0.1-1.4-0.1-2.1V24l0.5-0.3c0.1-0.1,0.1-0.1,0.1-0.2s0-0.1-0.1-0.2l-1.1-0.8l-0.5,0.8h-5.5l-1-0.7c0,0.6,0.1,1.2,0.1,1.9
		v4.2c0,0.9,0,1.7-0.1,2.4v0.1c0,0.2,0,0.3,0.1,0.3c0.1,0,0.2-0.1,0.3-0.1c0.4-0.2,0.4-0.3,0.4-0.7h2.6v2.8h-2.5
		c-0.4,0-0.9,0-1.3-0.1l0.5,0.7c0.3-0.1,0.8-0.2,1.2-0.2h2.1v3.2h-4.6c-0.4,0-0.9,0-1.3-0.1l0.5,0.7c0.3-0.1,0.8-0.2,1.2-0.2h9.7
		c0.1,0,0.2-0.1,0.2-0.1c0-0.1,0-0.1-0.1-0.2L411.4,36.1z M407.7,23.8h2.6v3.3h-2.6V23.8z M407.7,27.5h2.6v2.8h-2.6V27.5z
		 M406.9,30.3h-2.6v-2.8h2.6V30.3z M406.9,27.1h-2.6v-3.3h2.6V27.1z M383.7,26.9l-0.5-0.2c0.5-1,0.9-1.9,1.3-2.8
		c0.2-0.4,0.3-0.5,0.7-0.6c0.1-0.1,0.2-0.1,0.2-0.1s-0.1-0.1-0.1-0.2l-1.2-0.8c-1,3.5-2.8,7.3-4.9,10l0.2,0.2
		c1.3-1.3,2.3-2.8,3.3-4.4v6.6c0,0.9,0,2-0.1,3v0.2c0,0.3,0,0.4,0.2,0.4c0.1,0,0.2,0,0.4-0.1c0.4-0.2,0.4-0.2,0.4-0.5v-0.1
		c-0.1-0.8-0.1-1.7-0.1-2.8v-7.1l0.4-0.4c0.1-0.1,0.1-0.1,0.1-0.1C383.9,27,383.8,26.9,383.7,26.9z M402.9,32.8l-3.1,1.1v-4.4h2.6
		c0.1,0,0.2,0,0.2-0.1c0-0.1,0-0.1-0.1-0.2l-0.9-0.9L401,29h-1.1v-4.6h2.8c0.1,0,0.2,0,0.2-0.1c0-0.1,0-0.1-0.1-0.2l-1-0.9L401,24
		h-3.4c-0.4,0-0.9,0-1.3-0.1l0.5,0.7c0.3-0.1,0.8-0.2,1.2-0.2h1V29h-1.4c-0.4,0-0.8,0-1.3-0.1l0.5,0.6c0.3-0.1,0.8-0.2,1.1-0.2h1
		v4.7l-2.9,1l0.6,0.9c0.1,0.1,0.1,0.1,0.1,0.1c0,0,0.1,0,0.1-0.1c0.2-0.2,0.8-0.6,1.4-0.9L403,33L402.9,32.8z M395.3,35.2
		c0-0.5,0-1,0.1-1.6l-0.3-0.1l-0.5,3.7c-3.2-1.4-4.8-3.9-5.1-9l6-0.6c0.1,0,0.2-0.1,0.2-0.1c0,0,0-0.1-0.1-0.2l-1.4-1l-0.6,1.1
		l-4.1,0.4c0-0.6,0-1.2,0-1.9c0-0.8,0-1.7,0.1-2.5l0.4-0.3c0.1-0.1,0.1-0.1,0.1-0.2c0-0.1-0.1-0.1-0.2-0.1l-1.4-0.7
		c0,1.4,0.1,4.1,0.1,5.9l-3.3,0.3c-0.4,0-0.9,0-1.3,0l0.6,0.6c0.3-0.2,0.8-0.2,1.2-0.3l2.8-0.3c0.2,2.5,0.5,8,5.6,9.9
		c0.6,0.2,1.1,0.3,1.5,0.3c0.1,0,0.2-0.1,0.2-0.2c0-0.1,0-0.1-0.1-0.2C395.5,37.6,395.3,36.8,395.3,35.2z M293.3,30.4l-1.1-0.8
		l-0.5,0.8h-5.2l-1.2-0.9c0,0.7,0.1,1.9,0.1,2.6v3.5c0,0.1-0.1,2.1-0.1,2.5c0,0.3,0,0.4,0.1,0.4c0.1,0,0.2,0,0.3-0.1
		c0.4-0.2,0.4-0.3,0.4-0.5v-3.2h5.8v1.9c0,0.4-0.1,0.7-0.9,0.7c-0.4,0-1.1-0.1-2-0.3l0,0.3c1.6,0.4,2,0.8,2.1,1.3
		c0,0.1,0.1,0.2,0.1,0.2c0,0,0.1,0,0.1-0.1c1.2-0.7,1.4-1,1.4-1.6v-5.9l0.5-0.3c0.1-0.1,0.2-0.1,0.2-0.2
		C293.4,30.5,293.4,30.5,293.3,30.4z M291.9,34.3h-5.8v-1.6h5.8V34.3z M291.9,32.3h-5.8v-1.6h5.8V32.3z M293.8,27.4l-0.8,1h-3.4
		v-1.7h3.7c0.2,0,0.3,0,0.3-0.1c0-0.1-0.1-0.1-0.2-0.3l-0.9-1l-0.7,0.9h-2.3v-1.7h4.7c0.2,0,0.2,0,0.2-0.1s-0.1-0.2-0.2-0.3
		l-0.8-0.9l-0.7,0.9h-3.3V23c0.5-0.4,0.6-0.5,0.6-0.5s-0.1-0.1-0.2-0.2l-1.3-0.6c0,0.6,0.1,1.9,0.1,2.6h-3.5c-0.4,0-0.9,0-1.3-0.1
		l0.5,0.7c0.3-0.1,0.8-0.2,1.2-0.2h3.1v1.7h-2.6c-0.4,0-0.9,0-1.3-0.1l0.5,0.7c0.3-0.1,0.8-0.2,1.2-0.2h2.2v1.7h-3.9
		c-0.4,0-0.9,0-1.3-0.1L284,29c0.3-0.1,0.8-0.2,1.2-0.2h9.4c0.2,0,0.3,0,0.3-0.1c0-0.1-0.1-0.1-0.2-0.3L293.8,27.4z M275,29.3
		l-0.5,0.8h-5.4l-1-0.8c0,0.7,0.1,1.9,0.1,2.6v3.7c0,0.1-0.1,2.1-0.1,2.5c0,0.3,0,0.5,0.1,0.5c0.1,0,0.2-0.1,0.3-0.1
		c0.4-0.2,0.4-0.3,0.4-0.5v-3.2h5.6v2.1c0,0.3,0,0.5-0.5,0.5c-0.3,0-1-0.1-2-0.2l-0.1,0.2c1.5,0.4,1.9,0.7,2.1,1.3
		c0,0.1,0.1,0.2,0.1,0.2c0,0,0.1,0,0.1,0c1-0.5,1-0.6,1-1.7v-6.3l0.6-0.4c0.1,0,0.1-0.1,0.1-0.1c0-0.1,0-0.1-0.1-0.1L275,29.3z
		 M274.7,34.2h-5.6v-1.7h5.6V34.2z M274.7,32.1h-5.6v-1.7h5.6V32.1z M282,35v-6.3l0.6-0.4c0.1-0.1,0.2-0.1,0.2-0.2
		c0-0.1-0.1-0.1-0.1-0.2l-1-0.8l-0.5,0.8l-1.8,0.2c-0.3,0-0.6,0.1-1,0.1l0.6,0.5c0.3-0.1,0.5-0.2,0.8-0.2l1.6-0.2v6.6
		c0,0.4-0.3,1-0.9,1.5l0.7,0.7c0.1,0.1,0.1,0.1,0.2,0.1c0.1,0,0.1-0.1,0.2-0.2c0.3-0.5,0.9-1.2,3.3-3.9l-0.2-0.3L282,35z
		 M276.7,27.2l-0.7,1h-3.5v-1.7h3.6c0.2,0,0.3,0,0.3-0.1c0-0.1-0.1-0.1-0.2-0.3l-0.8-0.8l-0.7,0.8h-2.2v-1.7h4.5
		c0.2,0,0.3,0,0.3-0.1s-0.1-0.2-0.2-0.3l-0.9-0.9l-0.6,0.9h-3v-1.2l0.5-0.3c0.1-0.1,0.1-0.1,0.1-0.1c0,0,0-0.1-0.1-0.1l-1.4-0.6
		c0,0.6,0.1,1.6,0.1,2.3h-3c-0.4,0-0.9,0-1.3-0.1l0.5,0.7c0.3-0.1,0.8-0.2,1.2-0.2h2.6v1.7h-2.3c-0.4,0-0.9,0-1.3-0.1l0.5,0.7
		c0.3-0.1,0.8-0.2,1.2-0.2h1.9v1.7h-3.9c-0.4,0-0.9,0-1.3-0.1l0.5,0.7c0.3-0.1,0.8-0.2,1.2-0.2h9.6c0.2,0,0.3,0,0.3-0.1
		c0-0.1-0.1-0.1-0.2-0.3L276.7,27.2z M297.1,29.2c0,0.2-0.1,1-0.1,1.2c0,0.5,0.1,0.7,0.3,0.7c0.4,0,0.7-0.3,0.7-0.8
		c0-0.2-0.2-1.1-0.2-1.3c0-0.5,0.2-1,0.9-2l2.3-3.4l-0.2-0.2l-2.6,3.3c-0.6,0.8-0.8,1-1.6,1c-0.3,0-0.7,0-1.2-0.1l0,0.3
		C296.7,28.2,297.1,28.4,297.1,29.2z M326.7,24.2l-0.6,0.8H320l1-1.5c0.2-0.4,0.4-0.5,0.7-0.6c0.1,0,0.1,0,0.1-0.1s0-0.1-0.1-0.1
		l-1.2-0.8c-1,2.6-2.3,5-4,7.6l0.2,0.1c1-1.3,1.9-2.4,3-4.2h6.6c0,4.9-0.1,8.9-0.2,10.2c-0.1,0.9-0.3,1.3-1.3,1.3
		c-0.5,0-1.2-0.1-2.3-0.4l0,0.2c1.7,0.5,2.2,0.7,2.4,1.5c0,0.1,0.1,0.2,0.1,0.2c0,0,0.1,0,0.2-0.1c1.3-0.7,1.7-1.3,1.8-2.7
		c0.1-1.9,0.2-5.9,0.2-9.7l0.7-0.4c0.1-0.1,0.1-0.1,0.1-0.2c0-0.1-0.1-0.1-0.1-0.2L326.7,24.2z M323.1,35.4c0,0.2,0,0.3,0.1,0.3
		c0.1,0,0.2,0,0.3-0.1c0.3-0.2,0.4-0.3,0.4-0.6v-0.1c0-0.8-0.1-1.7-0.1-2.7v-3.5l0.4-0.3c0.1-0.1,0.1-0.1,0.1-0.2
		c0-0.1,0-0.1-0.1-0.2l-1.1-0.8l-0.6,0.8h-2.8l-0.9-0.8c0,0.6,0.1,1.4,0.1,1.9v3.3c0,1,0,2.2-0.1,3.3v0.1c0,0.2,0,0.3,0.1,0.3
		c0.1,0,0.7-0.2,0.7-0.6v-1h3.3V35.4z M319.8,28.3h3.3v2.6h-3.3V28.3z M319.8,34.1v-2.8h3.3v2.8H319.8z M344.7,35.1
		c0-0.3,0-0.7,0-1.1h-0.3l-0.5,3.2c-1.2-0.3-2.9-1.7-3.7-3.8c0.8-0.8,1.5-1.7,2.4-2.9c0.2-0.3,0.3-0.3,0.7-0.4
		c0.2,0,0.2-0.1,0.2-0.1s-0.1-0.1-0.1-0.2l-1.1-0.9c-0.7,1.4-1.5,2.5-2.5,3.6c-0.4-1.3-0.6-2.8-0.7-4.8h5.9c0.1,0,0.2,0,0.2-0.1
		c0-0.1,0-0.1-0.1-0.2l-1.2-1.2l-0.7,1h-4.1c-0.1-1.5-0.1-2.8-0.1-4.2l0.5-0.4c0.1-0.1,0.1-0.1,0.1-0.1c0-0.1-0.1-0.1-0.1-0.1
		l-1.4-0.7c0,1.8,0.1,3.6,0.2,5.6h-4.1v-3.1c0.5-0.1,0.8-0.2,1.1-0.3c0.4-0.1,0.7-0.2,0.9-0.2c0.1,0,0.3,0,0.4,0
		c0.1,0,0.1,0,0.1-0.1c0,0,0-0.1-0.1-0.1l-0.7-0.9c-0.9,0.4-3.4,1.3-6.4,2.1l0,0.3c1.2-0.1,2.6-0.4,3.7-0.6v2.9h-3
		c-0.4,0-0.9,0-1.3-0.1l0.5,0.7c0.3-0.1,0.8-0.2,1.2-0.2h2.6v3.5l-4.5,1.3l0.9,1c0,0,0.1,0.1,0.1,0.1c0,0,0.1,0,0.1-0.1
		c0.3-0.3,0.4-0.4,3.4-1.6v4.1c0,0.5-0.1,0.7-0.8,0.7c-0.5,0-1.2-0.1-2.4-0.3l-0.1,0.3c2,0.6,2.3,0.8,2.4,1.5c0,0.1,0.1,0.1,0.1,0.1
		c0,0,0.1,0,0.1,0c1.2-0.6,1.4-1,1.4-2.1v-4.5l3.3-1.3l-0.1-0.2l-3.2,0.9v-3.3h4.1c0.1,2.2,0.5,4.2,0.9,5.4
		c-1.2,1.3-2.6,2.4-4.3,3.4l0.1,0.3c1.9-0.9,3.2-1.8,4.5-3c2,4.2,5.5,4.6,5.6,4.6c0.3,0,0.4-0.1,0.4-0.2c0-0.1-0.1-0.2-0.3-0.5
		C345,37.7,344.7,37,344.7,35.1z M315.5,35.5v-6.6l0.6-0.5c0.1-0.1,0.1-0.1,0.1-0.2c0-0.1,0-0.1-0.1-0.2l-1.1-0.8l-0.5,0.8l-1.4,0.1
		c-0.3,0-0.6,0-1,0l0.3,0.6c0.3-0.1,0.7-0.1,1-0.2l1.4-0.1v6.6c0,0.7-0.2,1.1-0.8,1.5l0.9,0.8c0,0,0.1,0.1,0.1,0.1s0.1,0,0.1-0.1
		c0.3-0.7,0.8-1.3,2.8-3.6l-0.2-0.2L315.5,35.5z M305.4,26.5l0.5-0.3c0.1-0.1,0.1-0.1,0.1-0.1c0,0,0-0.1-0.1-0.1l-1.3-0.5
		c-0.9,3.5-2.8,5.2-7.8,7.1l0.1,0.3c0.7-0.2,1.3-0.4,1.9-0.6c0,0.3,0,0.7,0,1.1v2c0,0.9,0,1.8-0.1,2.7c0,0.4,0,0.5,0.2,0.5
		c0.1,0,0.2-0.1,0.3-0.1c0.3-0.1,0.3-0.2,0.3-0.4v-1.1h7.3v1.2c0,0.1,0,0.2,0.1,0.2c0.1,0,0.2,0,0.3-0.1c0.3-0.1,0.4-0.2,0.4-0.5
		v-0.1c0-0.7-0.1-1.3-0.1-2.5v-2l0.6-0.3c0.1-0.1,0.2-0.1,0.2-0.1c0-0.1-0.1-0.1-0.2-0.2l-1.1-0.9l-0.6,0.8h-7l-0.5-0.3
		c3.4-1.3,4.8-2.7,6-5.3c1.1,2.4,2.1,3.4,4.7,4.7c0,0,0.1,0,0.1,0s0.1,0,0.1-0.1c0.2-0.4,0.6-0.6,1.6-0.7v-0.2
		C308.4,30,307,29.2,305.4,26.5z M299.6,32.7h7.3v3.8h-7.3V32.7z"/>
</g>
<g>
</g>
<g>
</g>
<g>
</g>
<g>
</g>
<g>
</g>
<g>
</g>
<g>
</g>
<g>
</g>
<g>
</g>
<g>
</g>
<g>
</g>
<g>
</g>
<g>
</g>
<g>
</g>
<g>
</g>
</svg>
