<?xml version="1.0" encoding="utf-8"?>
<!-- Generator: Adobe Illustrator 17.0.0, SVG Export Plug-In . SVG Version: 6.00 Build 0)  -->
<!DOCTYPE svg PUBLIC "-//W3C//DTD SVG 1.1//EN" "http://www.w3.org/Graphics/SVG/1.1/DTD/svg11.dtd">
<svg version="1.1" id="Layer_1" xmlns="http://www.w3.org/2000/svg" xmlns:xlink="http://www.w3.org/1999/xlink" x="0px" y="0px"
	 width="640px" height="123px" viewBox="0 0 640 123" style="enable-background:new 0 0 640 123;" xml:space="preserve">
<style type="text/css">
	.st0{fill:#0064AC;}
	.st1{clip-path:url(#SVGID_2_);fill:url(#SVGID_3_);}
	.st2{fill:#FFFFFF;}
	.st3{fill:none;}
</style>
<g id="page-8-logo.svg">
	<polygon class="st0" points="347.8,57.9 346.2,57.9 345.4,55.4 342.2,55.4 342.8,57.9 339,57.9 339,53.4 347.1,53.4 347.1,50 
		339,50 339,46.6 347.2,46.6 347.2,43.2 327,43.2 327,46.6 334.7,46.6 334.7,50 327,50 327,53.4 334.7,53.4 334.7,57.9 327,57.9 
		327,61.3 347.8,61.3 	"/>
	<path class="st0" d="M350.1,62.2L350.1,62.2c0,0.5-0.2,0.7-0.3,0.9c-0.1,0.2-0.5,0.3-1,0.3h-24.2V41.2h25.5V62.2z M320.3,37.7v29
		h28.6c2.5,0,3.9-0.2,4.4-0.7c0.5-0.5,0.8-0.9,0.9-1.4c0.2-0.5,0.2-1.1,0.2-1.7V37.7H320.3z"/>
	<path class="st0" d="M427,51.3l-3.1-8.3l-5.6-0.1l4.1,10.3c0.6,1.5,2.1,2.3,2.8,2.7h-8.8V41.7l14.5,0v-3.8h-34v3.8l14.5,0V56h-8.8
		c0.6-0.4,1.9-1.3,2.5-2.7l4.1-10.3l-5.6,0.1l-3.1,8.3c-0.5,1.4-2.4,3.9-4,4.6h-0.2v3.9l15.1,0v6.7h5v-6.7l15.1,0V56h-0.5
		C429.3,55.2,427.5,52.6,427,51.3"/>
	<path class="st0" d="M301.8,58.3L301.8,58.3h9.2c0.7,0,1.2-0.1,1.3-0.2c0.2-0.1,0.2-0.4,0.2-0.8V44.7h-10.7V58.3z M286.2,58.3
		L286.2,58.3h10.6V44.7h-10.6V58.3z M281.9,40.9h14.9v-3.6h5v3.6h15.1v18.2c0,0.5-0.1,1-0.3,1.4c-0.2,0.4-0.5,0.8-1,1.2
		c-0.5,0.3-1.2,0.5-2,0.5h-11.8v5h-5v-5h-14.9V40.9z"/>
	<path class="st0" d="M378.1,37.7h-5v4.2h-15v4h14l-9.9,14.5c-0.4,0.6-1.4,1.4-1.5,1.5c-0.6,0.4-1.2,0.8-2,0.9c-0.2,0-0.6,0.1-0.6,0
		v4c-0.1,0,0.5,0,0.9,0c0.3,0,1,0,1.4-0.1c0.6-0.1,2.4-0.8,3.1-1.4c0.7-0.6,2-1.8,2.6-2.6l5-6.9v3.1c0.7,0,1.4,0,1.9,0.3
		c0.4,0.1,0.7,0.5,1.4,1.3l3.8,5.4l5.1,0.1l-5.4-7.6c-2.1-2.7-2.5-3.1-4-3.2h-2.3l4.2-5.9l9.3,12.6c0.4,0.5,1.4,1.9,2.4,3.1
		c1.3,1.3,3.1,1.9,3.9,1.9c0.9,0.1,1.4,0,1.8,0v-3.9c-0.3,0-0.6,0-1.1-0.2c-1.1-0.4-2.3-2.2-3.1-3.1l-10-13.7h14.2v-4h-15.1V37.7z"
		/>
	<path class="st0" d="M288.9,77.3c-1.2,0-2.1,0.3-2.6,1c-0.5,0.7-0.8,1.8-0.8,3.5c0,1.4,0.2,2.3,0.7,2.9c0.5,0.6,1.4,0.9,2.7,0.9
		h4.8v2.2h-5c-1.1,0-2-0.1-2.6-0.3c-0.6-0.2-1.2-0.4-1.8-0.9c-0.7-0.5-1.2-1.2-1.6-2c-0.4-0.8-0.5-1.8-0.5-3c0-2.2,0.5-3.9,1.6-4.9
		c1.1-1.1,2.7-1.6,5-1.6h4.9v2.1H288.9z"/>
	<polygon class="st0" points="298.8,75.2 298.8,80.3 304.1,80.3 304.1,75.2 307.1,75.2 307.1,87.8 304.1,87.8 304.1,82.5 
		298.8,82.5 298.8,87.8 295.9,87.8 295.9,75.2 	"/>
	<rect x="309.9" y="75.2" class="st0" width="3.1" height="12.6"/>
	<polygon class="st0" points="315.9,75.2 319.6,75.2 325.3,84.2 325.1,75.2 328.1,75.2 328.1,87.8 324.7,87.8 318.7,78.2 
		318.9,87.8 315.9,87.8 	"/>
	<path class="st0" d="M336.3,77.7L336.3,77.7l-2,4.9h4.1L336.3,77.7z M334.9,75.2h3.1l5.9,12.6h-3.2l-1.3-3h-6l-1.2,3H329
		L334.9,75.2z"/>
	<polygon class="st0" points="355.4,77.4 350.9,77.4 350.9,75.2 363,75.2 363,77.4 358.4,77.4 358.4,87.8 355.4,87.8 	"/>
	<path class="st0" d="M368.9,77.7L368.9,77.7l-2,4.9h4.1L368.9,77.7z M367.4,75.2h3.1l5.9,12.6h-3.2l-1.3-3h-6l-1.2,3h-3.1
		L367.4,75.2z"/>
	<rect x="377.9" y="75.2" class="st0" width="3.1" height="12.6"/>
	<path class="st0" d="M390.2,77.4L390.2,77.4h-3.4v3.7h3.6c0.5,0,0.9,0,1.2-0.1c0.3-0.1,0.6-0.2,0.8-0.3c0.4-0.3,0.6-0.8,0.6-1.4
		c0-0.7-0.2-1.1-0.6-1.4C391.9,77.6,391.2,77.4,390.2,77.4 M383.9,75.2h6.4c1.1,0,1.9,0.1,2.6,0.2c0.7,0.1,1.2,0.3,1.5,0.5
		c0.3,0.2,0.6,0.4,0.8,0.6c0.2,0.2,0.4,0.5,0.6,0.8c0.3,0.6,0.5,1.3,0.5,2c0,0.7-0.1,1.4-0.4,1.9c-0.3,0.6-0.7,1-1.2,1.3
		c-0.5,0.3-1,0.5-1.6,0.6c-0.6,0.1-1.5,0.2-2.7,0.2h-3.6v4.4h-2.9V75.2z"/>
	<rect x="398.2" y="75.2" class="st0" width="3.1" height="12.6"/>
	<polygon class="st0" points="404.2,75.2 407.9,75.2 413.6,84.2 413.4,75.2 416.4,75.2 416.4,87.8 413,87.8 407,78.2 407.2,87.8 
		404.2,87.8 	"/>
	<path class="st0" d="M424.2,82.5v-2.2h6.9v7.5h-6.3c-1.1,0-2-0.1-2.6-0.3c-0.6-0.2-1.2-0.4-1.8-0.9c-0.7-0.5-1.2-1.2-1.6-2
		c-0.4-0.8-0.5-1.8-0.5-3c0-2.2,0.5-3.9,1.6-4.9c1.1-1.1,2.7-1.6,4.9-1.6h6.3v2.1h-6.3c-1.1,0-2,0.3-2.5,1c-0.5,0.7-0.8,1.8-0.8,3.2
		c0,1.4,0.3,2.4,0.8,3c0.5,0.6,1.4,0.9,2.5,0.9h3.3v-3H424.2z"/>
	<g>
		<defs>
			<path id="SVGID_1_" d="M232.1,29.3c18.3,0,33.2,14.9,33.2,33.2c0,18.4-14.9,33.3-33.2,33.3c-18.3,0-33.2-14.9-33.2-33.3
				C198.8,44.2,213.8,29.3,232.1,29.3"/>
		</defs>
		<clipPath id="SVGID_2_">
			<use xlink:href="#SVGID_1_"  style="overflow:visible;"/>
		</clipPath>
		
			<linearGradient id="SVGID_3_" gradientUnits="userSpaceOnUse" x1="-2470.4709" y1="135.8709" x2="-2468.4785" y2="135.8709" gradientTransform="matrix(0 -33.3405 33.3414 0 -4298.0703 -82271.0781)">
			<stop  offset="0" style="stop-color:#00A34C"/>
			<stop  offset="0.2" style="stop-color:#00A34C"/>
			<stop  offset="0.8" style="stop-color:#0064AC"/>
			<stop  offset="1" style="stop-color:#0064AC"/>
		</linearGradient>
		<rect x="198.8" y="29.3" class="st1" width="66.4" height="66.4"/>
	</g>
	<path class="st2" d="M250.7,65.5L250.7,65.5c-3.4-0.5-5.9-1.1-8.7-2.5c-1.1-0.6-2.3-0.1-2.1,1c0.7,2.5,6.8,3.8,10.4,3.9
		c0.7,0,2-0.4,1.8-1.3C252,66,251.5,65.6,250.7,65.5 M224.2,64L224.2,64c0.3-1.1-0.9-1.6-2.1-1c-2.8,1.4-5.3,2.1-8.7,2.5
		c-0.8,0.1-1.3,0.5-1.4,1.1c-0.2,0.9,1.1,1.3,1.8,1.3C217.4,67.8,223.5,66.6,224.2,64z M214.1,51.9L214.1,51.9
		c3.2-0.2,6.6-2,9.6-3.5c2.8-1.4,5.6-3.2,8.2-5.2c0.1-0.1,0.2-0.1,0.2-0.1s0.1,0,0.2,0.1c2.5,2.1,5.3,3.8,8.2,5.2
		c3,1.5,6.4,3.3,9.6,3.5c0.7,0,1.1-0.2,1.4-0.5c0.8-1.1,0.2-2.2-0.7-2.7c-2.1-1.1-3.8-2-5.9-3.1c-2.6-1.5-5.4-3.3-7.9-5.2
		c0.9,0.3,1.9,0.6,2.8,0.8c2.3,0.6,6,1.5,8.1,0.4c1.1-0.7,0.3-1.9-0.7-2.3c-1.9-0.8-3.9-1.4-5.9-2.2c-1.7-0.7-5.8-2.6-6.5-3.8
		c-0.3-0.4-0.5-2.9-1.1-3.8v0c-0.5,0-1,0-1.5,0c-0.5,0-1,0-1.5,0c-0.7,0.9-0.8,3.5-1.1,3.8c-0.7,1.2-4.8,3.2-6.5,3.8
		c-2,0.8-4,1.4-5.9,2.2c-0.9,0.5-1.8,1.7-0.7,2.3c2.1,1.1,5.8,0.2,8.1-0.4c0.9-0.3,1.9-0.6,2.8-0.8c-2.3,2-5.3,3.7-7.9,5.2
		c-2.1,1.1-3.8,2-5.9,3.1c-0.9,0.6-1.6,1.6-0.7,2.7C213,51.8,213.5,51.9,214.1,51.9z M232.1,46.2L232.1,46.2c-1.5,0-3.1,0.1-4.1,0.9
		c-0.7,0.5,0.1,1.3,1.4,1.6c1.3,0.3,1.8,0.2,2.7,0.2c0.9,0,1.4,0.1,2.7-0.2c1.3-0.3,2.1-1.1,1.4-1.6
		C235.1,46.3,233.6,46.2,232.1,46.2z M256.2,72.6c-5.8-1.5-10.6-3-15.8-5.5c-1.1-0.7-3.2-2-3.5-2.7c-0.3-0.7-0.4-3.6-0.4-5.2
		c3.7,2.5,9.4,4.1,13.9,4.3c1.5,0.1,4.8,0.1,5.1-1c0.1-0.6-0.4-0.9-0.7-1.1c-5.2-2.1-10.1-3.9-14.6-6.5c-3.7-2-5.9-4.4-8.2-4.4
		c-2.3,0-4.5,2.4-8.2,4.4c-4.5,2.5-9.5,4.4-14.5,6.5c-0.4,0.2-0.8,0.6-0.7,1.1c0.2,1.1,3.5,1.1,5,1c4.5-0.2,10.1-1.8,13.9-4.3
		c0,1.7-0.1,4.5-0.4,5.2c-0.3,0.8-2.3,2-3.5,2.7c-5.2,2.5-9.9,4-15.8,5.5c-1.2,0.3-3.1,1.4-2.3,3c0.5,0.8,2.3,1.2,3.5,1.1
		c6.4-0.6,12.1-2,17.8-4.2c-0.4,7.1-0.9,15.5-1.3,22.7c4.2,0.8,8.7,0.8,12.9,0c-0.4-7.2-0.9-15.5-1.3-22.7
		c5.7,2.2,11.4,3.7,17.8,4.2c1.3,0.1,3-0.3,3.5-1.1C259.3,74,257.4,72.8,256.2,72.6z"/>
	<rect y="0" class="st3" width="640" height="123"/>
</g>
<g>
</g>
<g>
</g>
<g>
</g>
<g>
</g>
<g>
</g>
<g>
</g>
<g>
</g>
<g>
</g>
<g>
</g>
<g>
</g>
<g>
</g>
<g>
</g>
<g>
</g>
<g>
</g>
<g>
</g>
</svg>
