<?xml version="1.0" encoding="utf-8"?>
<!-- Generator: Adobe Illustrator 17.0.0, SVG Export Plug-In . SVG Version: 6.00 Build 0)  -->
<!DOCTYPE svg PUBLIC "-//W3C//DTD SVG 1.1//EN" "http://www.w3.org/Graphics/SVG/1.1/DTD/svg11.dtd">
<svg version="1.1" id="Layer_1" xmlns="http://www.w3.org/2000/svg" xmlns:xlink="http://www.w3.org/1999/xlink" x="0px" y="0px"
	 width="640px" height="177.9px" viewBox="0 0 640 177.9" style="enable-background:new 0 0 640 177.9;" xml:space="preserve">
<style type="text/css">
	.st0{fill:#AA192A;}
	.st1{fill:#3E3A39;}
	.st2{fill:none;}
</style>
<g id="page-5-title.svg">
	<path class="st0" d="M223,67.3c-2.9,0.3-4.8,0.5-5.7,0.7l-1.5-1.5L226,66l2.2-2.2l2.8,2.6c0.4,0.3,0.4,0.4-0.2,0.4L223,67.3z
		 M211,86.2c0.4-0.1,0.7-0.1,0.7,0c0.1,0.1,0.1,0.4-0.2,0.7l-8.3,5.2c-3.6,1.7-6,3.1-7.2,4.1c-0.1,0.3-0.4,0.3-0.7,0l-2.2-5.4
		c2-0.1,4.3-0.7,6.8-1.5L211,86.2z M228.4,77.1L218,77.5v12.6l10.7-0.4L228.4,77.1z M208.6,72.7c-0.6,0-0.8-0.2-0.7-0.7
		c6-6.8,10.3-15.3,13.1-25.5l5.4,2.4c0.3,0,0.4,0.2,0.2,0.7l-0.9,0.4c1.6,6.5,7.8,13,18.7,19.4c0.1,0.1,0.2,0.3,0.2,0.4
		c-0.1,0.3-0.3,0.4-0.4,0.2c-2.2-0.3-4.4,0.7-6.5,2.8c-6.5-6.1-10.7-13.6-12.4-22.4C220.9,59.1,215.3,66.5,208.6,72.7z M207.9,58.1
		l4.8,3.9c0.1,0.1,0,0.4-0.4,0.9c-4.6,5.7-9.4,10.7-14.4,15.2l12.2-0.9c0.3,0.1,0.3,0.4,0,0.7c-7.4,2.5-12.3,4.4-14.6,5.7
		c-0.3,0.3-0.5,0.4-0.7,0.2c-0.1,0-0.2-0.1-0.2-0.4l-1.5-5c1.5,0.1,2.8-0.4,3.9-1.5c1.9-2,4.4-6,7.6-11.8c-3.6,1-6.9,2.3-9.8,3.7
		c-0.6,0.3-0.9,0.2-1.1-0.2l-1.1-4.1c1.7,0.1,3-0.4,3.7-1.7c2.3-3.2,4.4-8.3,6.3-15.3l5.2,3.5c0.4,0.1,0.4,0.6-0.2,1.3
		c-2.8,3.5-6.2,7.4-10.2,11.8l7.8-0.2C206.6,61.3,207.5,59.4,207.9,58.1z M230.6,73.4l5,2.8c0.3,0.1,0.3,0.4,0,0.7l-1.5,2l0.2,11.1
		l0.2,0.9c0,0-0.1,0.1-0.2,0.2c-2.2-0.1-6.2-0.1-12.2,0c-1.7,0.1-3.1,0.2-4.1,0.2V93c-0.1,2.3-1.2,4.4-3.1,6.1
		c-0.7,0.4-1.2,0.4-1.3-0.2l0.2-9.6v-9.4c0-3.2-0.1-5.1-0.2-5.7c0-0.3,0.2-0.4,0.7-0.2l3.7,2.2l10.5-0.4L230.6,73.4z"/>
	<path class="st0" d="M244.4,62.2c4.4,2,6.5,4.1,6.5,6.3c-0.1,1.6-1,2.6-2.6,3c-1.3,0.1-2.1-0.4-2.4-1.5c-0.1-2.9-0.9-5.3-2.2-7.2
		C243.7,62.3,243.9,62.1,244.4,62.2 M248.1,49.4c4.9,1.3,7.6,2.8,7.8,4.6c0.1,1.9-0.6,3.2-2.2,3.9c-1,0.4-1.8,0.1-2.4-0.9
		c-1-3.3-2.2-5.7-3.5-7.2C247.6,49.4,247.6,49.3,248.1,49.4z M271.2,75.3L271,93.6l3.5-0.2l-0.2-18.1H271.2z M281,75.1h-3.3
		l-0.2,18.3h3.5V75.1z M264.4,75.5v18.1h3.7l-0.4-18.3L264.4,75.5z M257.2,62.5l-6.1,25.3c-0.3,1.5-0.4,2.7-0.4,3.7
		c0.1,0.6,0.3,1.2,0.4,1.7c0.3,0.3,0.4,0.6,0.4,0.9c0.6,1,0.5,1.8-0.2,2.4c-0.6,0.9-1.7,1.5-3.5,1.7c-1,0-1.5-0.5-1.3-1.5
		c0-0.1,0-0.4,0-0.7c0.3-2.8,0.4-4.4,0.2-5c0-1.7-0.9-2.9-2.8-3.5c-0.1-0.1-0.2-0.3-0.2-0.4c0-0.1,0.1-0.2,0.2-0.2
		c2,0.3,3.2-0.1,3.5-1.1l9.4-23.5C256.9,61.8,257.1,61.9,257.2,62.5z M278.6,52.2l-12.9,0.2v6.3l10.5-0.4c0.4,0,0.7,0.1,0.7,0.4
		c0,0.3-0.2,0.4-0.7,0.4l-10.5,0.4v6.5l12.9-0.4V52.2z M265.9,67c-0.4,0.9-1.4,1.8-2.8,2.8c-0.3,0.1-0.5,0.2-0.7,0.2
		c-0.1-0.1-0.2-0.4-0.2-0.7V54c0-0.4-0.1-1.2-0.2-2.4c0-0.7,0-1.2,0-1.5c0-0.3,0.1-0.4,0.4-0.2l3.3,1.7l12.9-0.4l1.7-2.4l4.4,2.2
		c0.3,0,0.3,0.2,0,0.7l-1.1,1.5l0.2,11.1c-0.3,1.7-1.2,3.4-2.8,5c-0.6,0.9-1.2,0.9-1.7,0.2c-0.9-1.5-1.4-2.3-1.5-2.6L265.9,67z
		 M262.7,94.9c-0.4,0-1,0-1.7,0c-2.6,0.1-4.5,0.4-5.7,0.9l-2-1.7l7.4-0.2l-0.4-15l-0.2-6.1c0-0.3,0.1-0.4,0.4-0.2l3.9,2l16.3-0.7
		l2-2.6l4.4,2.6c0.4,0.1,0.5,0.4,0.2,0.9l-1.3,1.5l-0.2,17h2.2l2.8-2.8l4.1,3.3c0.1,0.4,0.1,0.7-0.2,0.7L262.7,94.9z"/>
	<path class="st0" d="M316.1,55.7c3.3,2.2,4.9,3.9,4.8,5.2c-0.3,1.2-1.1,2-2.4,2.6c-1-0.1-1.6-0.7-1.7-1.5c0.1-2.6-0.2-4.6-1.1-6.1
		C315.7,55.6,315.8,55.6,316.1,55.7 M325,54.2c3.3,2.3,4.9,4.1,4.8,5.4c-0.1,0.9-1.1,1.7-2.8,2.4c-0.9,0-1.5-0.4-1.7-1.3
		c0.3-3.1,0.1-5.1-0.7-6.1C324.6,54.3,324.7,54.2,325,54.2z M322.2,78.8l-1.3,1.5c1.6,2.6,3.3,4.9,5.2,6.8c2.5-2.6,4.6-5.5,6.5-8.7
		L322.2,78.8z M334.4,45.9l3.9,4.6c0.1,0.1,0.1,0.3,0,0.4c0,0.1-0.1,0.2-0.4,0.2c-4.4,0.3-11.9,1.1-22.7,2.4c-0.3,0-0.4-0.1-0.4-0.2
		c-0.1-0.1-0.1-0.3,0.2-0.4C325,50.4,331.5,48.1,334.4,45.9z M299.8,56.1l-0.2,10.5l4.8-0.2c0.4,0,0.7,0.1,0.7,0.4
		c0,0.4-0.2,0.7-0.7,0.7l-4.8,0.2v13.5l6.1-0.2c0.1-0.3,0.2-0.7,0.2-1.1l0.7-25.3l-6.1,0.2L299.8,56.1z M312.4,54c0,0.1,0,0.3,0,0.4
		l-1.3,2l-0.4,18.1l0.2,6.5c-0.3,2.9-1.1,5.2-2.4,7c-0.6,0.6-1,0.9-1.3,0.9c-0.3,0-0.5-0.4-0.7-1.1c-0.1-1.7-0.6-3.4-1.3-5
		c-0.1-0.3-0.2-0.5-0.2-0.7h0.2h-5.7v0.2c-0.1,2.9-1,5.3-2.6,7.2c-0.3,0.3-0.6,0.4-0.9,0.4c-0.1-0.1-0.2-0.4-0.2-0.7l0.4-28.3
		c0-3.6-0.1-6.7-0.4-9.2c0-0.4,0.2-0.6,0.7-0.4l3.7,2.4l6.3-0.2l1.7-2.2L312.4,54z M321.3,66c-0.4,0-1.1,0.1-2,0.2
		c-2,0-3.4,0.1-4.1,0.4l-1.7-1.7l16.8-0.2c2.8-3.5,5.2-7.4,7.2-11.8l4.4,3.5c0.3,0.1,0.3,0.3,0,0.4c-0.3,0.1-0.8,0.5-1.5,1.1
		c-3.6,2.9-6.5,5.2-8.7,6.8h4.8L339,62l3.3,3.1c0.3,0.1,0.2,0.4-0.2,0.7L325,66l2.8,1.1c0.4,0.1,0.5,0.4,0.2,0.9l-0.9,1.5
		c-0.1,0.3-0.3,0.7-0.4,1.3c-0.3,0.6-0.5,1-0.7,1.3l12.2-0.4l3.1-2.8l3.5,3.3c0.3,0.3,0.3,0.5,0,0.7l-19.4,0.4
		c-0.4,0.7-1,1.7-1.7,3.1c-0.4,0.7-0.7,1.2-0.9,1.5l9.8-0.4l2.6-2.4l4.1,3.1c0.1,0.1,0.3,0.3,0.4,0.4c-0.1,0.1-0.3,0.2-0.4,0.2
		l-1.7,1.5c-2.6,3.5-5.5,6.5-8.7,9.2c2.8,1.9,7.8,3.8,15,5.7c0.4,0.3,0.4,0.6,0,0.9c-2.2,0-4.5,1.4-7,4.1c-4.6-2.6-8.3-5.4-10.9-8.5
		c-5.1,3.2-10.9,6-17.4,8.3c-0.3,0.1-0.4,0.1-0.4-0.2c-0.1-0.1-0.1-0.3,0.2-0.4c6.2-2.9,11.5-6.2,15.9-10c-1.5-2.3-2.8-5-3.9-8.1
		c-3.6,4.5-8.6,8.8-14.8,12.9c-0.6,0.1-0.7,0-0.4-0.4c7.4-5.7,12.6-12.3,15.5-20h-1.1c-2.3,0-4.4,0.1-6.1,0.4l-1.7-1.5l9.4-0.2
		c0.7-1.9,1.4-3.9,2-6.1H321.3z"/>
	<path class="st0" d="M380.4,78.2c3.6,2.5,5.5,4.3,5.7,5.4c-0.1,1.3-0.9,2.3-2.2,3.1c-1,0.4-1.7,0.1-2-1.1c-0.1-2.9-0.8-5.2-2-7
		C379.8,78.3,380,78.2,380.4,78.2 M351,48.3c5.2,1.2,7.8,2.5,7.8,3.9c-0.1,1.7-0.9,3-2.4,3.7c-0.7,0.4-1.2,0.3-1.5-0.4
		c-0.1-0.1-0.2-0.2-0.2-0.2c-0.9-3.1-2.2-5.2-3.9-6.3c-0.1-0.3-0.2-0.4-0.2-0.4C350.7,48.4,350.9,48.3,351,48.3z M346.4,61.6
		c4.9,1.6,7.3,3.3,7.2,5c-0.1,1.3-0.9,2.4-2.4,3.3c-1.3,0.4-2,0.1-2.2-0.9c-0.4-3-1.4-5.4-2.8-7C345.9,61.6,346,61.4,346.4,61.6z
		 M366.5,76.2c0-0.1,0.1-0.3,0.4-0.4c0.1,0.1,0.2,0.3,0.2,0.4c0.9,5.5,0.7,9.2-0.4,11.1c-0.9,1.3-2.3,1.8-4.1,1.5
		c-1.3-0.4-1.5-1.4-0.4-2.8C364.9,83.4,366.3,80.1,366.5,76.2z M386.1,77.5c5.7,2.9,8.6,5.2,8.7,6.8c-0.3,2-1.2,3.4-2.8,4.1
		c-0.9,0.3-1.5,0-1.7-0.9c-0.9-4.5-2.4-7.7-4.6-9.6C385.5,77.5,385.7,77.4,386.1,77.5z M381.3,62.9c0.9,3.5,6.4,7.1,16.6,10.9
		c0.4,0.4,0.4,0.7,0,0.9c-2-0.1-4.3,1-6.8,3.5c-5.4-4.1-8.8-9.1-10.2-15L381.3,62.9z M360.8,58.3l-6.5,27.5c-0.4,2.5-0.1,5,0.9,7.6
		c0.3,1,0.1,1.8-0.7,2.4c-1,1-2.5,1.7-4.4,2c-0.7,0-1-0.5-0.9-1.5c0-0.4,0.1-1.1,0.4-2c0.3-1.3,0.4-2.3,0.2-3.1c0-1.2-0.9-2-2.6-2.6
		c-0.1-0.4,0-0.7,0.4-0.7c1.5,0.3,2.4-0.1,2.8-1.3l9.6-28.3c0.1-0.1,0.3-0.3,0.4-0.4C360.7,58,360.8,58.2,360.8,58.3z M378.5,90.4
		c0,3.3-2.2,6.2-6.5,8.7c-0.3,0.1-0.5,0.1-0.7-0.2c0.1-2-0.4-3.4-1.7-4.1c-0.1,0-0.2-0.1-0.2-0.2c0-0.3,0.1-0.4,0.2-0.4
		c2.6,0.1,3.8-0.2,3.5-1.1l0.4-23.1l5.2,2.4l-0.4,1.7l-0.2,9.6L378.5,90.4z M371.5,51.6c-2.2,0-4.1,0.2-5.7,0.7l-2-1.7l21.6-0.2
		l2.4-2.6l3.5,2.8c0.1,0.3,0,0.4-0.4,0.4l-14.2,0.4l3.9,1.7c0.3,0.1,0.3,0.4,0,0.7l-0.7,0.9c-0.4,1-1.3,2.5-2.6,4.4
		c-0.6,1-1,1.7-1.3,2.2l13.1-0.2l3.1-3.1l3.5,3.5c0.3,0.3,0.2,0.4-0.2,0.4l-20.3,0.4c-4.8,7-10.5,13.1-17.2,18.3
		c-0.3,0.1-0.5,0.1-0.7,0c0-0.1,0.1-0.4,0.2-0.7c4.8-4.4,9.2-10.2,13.1-17.7l-2.2,0.2c-1.3,0.1-2.8,0.3-4.4,0.4
		c-0.6,0.1-1,0.2-1.3,0.2l-2-1.7l10.2-0.2c1.2-2.3,2.5-5.5,3.9-9.6H371.5z"/>
	<path class="st0" d="M413.8,86.7c-1.6,0.1-3.4,0.4-5.4,0.7c0.3-0.1,0.1-0.1-0.7,0l-2-2l24.6-0.4l3-2.8l3.7,3.5
		c0.3,0.3,0.3,0.5,0,0.7L413.8,86.7z M406.2,96.9c-2.3,0.1-4.4,0.4-6.3,0.7l-1.7-1.7l39.4-0.4l3.5-3.3l4.8,3.7
		c0.1,0.3,0.1,0.4-0.2,0.4L406.2,96.9z M439.3,54l2.8,3.3c0.1,0.1,0.2,0.3,0.2,0.4c0,0.1-0.1,0.2-0.4,0.2c-1.5,0.4-4.4,1.2-8.7,2.2
		c-1.7,0.4-3,0.7-3.7,0.9l-0.7,11.1c-0.1,2.6,0.8,3.8,2.8,3.5c3.6,0,6.6-0.2,8.9-0.7c1.9-0.3,3.2-2,3.9-5.2c0-0.3,0.1-0.4,0.4-0.2
		c0.3,0,0.4,0.1,0.4,0.4c-0.3,2.6,0.1,4.3,1.3,5c2,2,1.8,3.6-0.7,4.8c-3.5,1.2-8.1,1.5-13.7,0.9c-4.8-0.6-7.1-3.9-7-10v-15
		c0-1.3-0.1-3-0.2-5c0-1.6,0-2.8,0-3.5l5.7,2.6c0.3,0.1,0.3,0.4,0,0.7l-1.1,1.3l-0.2,8.5C433.6,58,436.8,56,439.3,54z M421.6,59.6
		c0.3,0,0.4,0.1,0.4,0.4c0,0.4-0.1,0.7-0.4,0.7l-5.2,0.4l-0.2,13.9l7-1.5c0.3-0.1,0.4-0.1,0.4,0c0.1,0.1,0.1,0.4,0,0.7l-15.7,6.5
		c-2.6,1.2-4.7,2.2-6.3,3.1c-0.4,0.3-0.8,0.3-1.1,0c0,0.1-0.1,0.1-0.2,0l-2.6-3.9c-0.3-0.4-0.2-0.8,0.2-1.1c0.3,0,0.7-0.1,1.1-0.2
		c1.2,0,2.8-0.2,5-0.7V63.6c0-2.9-0.1-5.6-0.4-8.1l5.2,2.2c0.3,0.3,0.3,0.6,0,0.9l-1.1,1.5l-0.4,17.2l5.4-1.3l-0.2-20.5
		c0-1-0.1-2.3-0.2-3.9c0-2-0.1-3.4-0.2-4.1l5.4,2.4c0.3,0.1,0.3,0.4,0,0.7l-1.1,1.7v7.8L421.6,59.6z"/>
	<path class="st0" d="M473.3,62l-0.2,15.9l5.2-0.2V62H473.3z M455.3,55.5L455,77.7l5.2-0.2l0.2-22.2L455.3,55.5z M480.1,58.5
		l4.1,2.4c0.3,0,0.3,0.1,0,0.4l-1.1,1.5l-0.2,15l0.4,0.7c0.1,0.3,0.1,0.4-0.2,0.4c-1-0.1-3-0.1-6.1,0c-1.6,0.1-2.9,0.2-3.9,0.2v0.9
		c-0.3,2.2-1.1,4.2-2.4,6.1c-0.4,0.3-0.7,0.4-0.9,0.4c-0.3-0.1-0.4-0.4-0.4-0.7l0.2-10.7V65.1c0-2.5,0-4.4,0-5.7
		c0-0.3,0.1-0.4,0.4-0.2l3.5,2l4.6-0.2L480.1,58.5z M474.2,52.9c-2.2,0-4.1,0.2-5.9,0.7l-2.2-1.7l26.6-0.9l2.8-3.1l3.9,3.3
		c0.1,0.4,0,0.7-0.4,0.9l-10.9,0.4l4.4,1.7c0.3,0.1,0.3,0.4,0,0.7l-0.7,1.7l-0.2,23.1l0.4,9.4c0,4.5-2.4,7.8-7.2,10
		c-0.6,0.3-0.9,0.1-0.9-0.7c0.3-2-0.4-3.5-2-4.4c-0.1-0.1-0.1-0.3,0-0.4c0-0.1,0.1-0.2,0.4-0.2c3.2,0.1,4.6-0.3,4.1-1.3l0.2-29.2
		c0-5.7-0.1-9.2-0.2-10.5L474.2,52.9z M462.2,51.8l4.6,2.6c0.3,0,0.3,0.1,0,0.4l-1.3,1.7l-0.2,21.4l0.4,0.4c0.1,0.3,0.1,0.5-0.2,0.7
		c-2.2-0.3-5.7-0.3-10.5,0v3.3c-0.1,2.2-1.1,4.2-2.8,6.1c-0.7,0.4-1.2,0.4-1.3-0.2l0.2-10.5l0.2-19.8c0-0.7-0.1-1.9-0.2-3.5
		c0-1,0-1.7,0-2c0-0.4,0.1-0.5,0.4-0.2l3.9,2.2l4.8-0.2L462.2,51.8z"/>
	<path class="st0" d="M527.6,69.4v2l13.7-0.2V57.5l-13.7,0.4v0.4V69.4z M509.8,46.3l5.2,1.7c0.4,0,0.4,0.3,0,0.9l-0.9,1.5l-0.2,7.8
		l2-0.2l2.2-2.6l3,2.8c0.3,0.4,0.2,0.7-0.2,0.9l-7,0.4v9.6c1.7-0.7,3.6-1.5,5.7-2.4c0.1-0.1,0.3-0.1,0.4,0.2c0,0.1-0.1,0.3-0.4,0.4
		c-0.4,0.3-1.1,0.7-2,1.3c-0.9,0.6-2.2,1.5-3.9,2.8v5.4V88c0.1,4.1-2,7.3-6.3,9.6c-0.3,0.1-0.5,0.2-0.7,0.2
		c-0.1-0.1-0.2-0.4-0.2-0.9c0.3-1.9-0.3-3.3-1.7-4.1c-0.1-0.1-0.2-0.3-0.2-0.4c0-0.1,0.1-0.2,0.4-0.2c3,0,4.5-0.7,4.4-2v-15
		c-0.4,0.4-1.1,0.9-2,1.5c-1.3,1-2.6,2.2-3.9,3.5c-0.3,0.4-0.6,0.4-0.9,0l-1.7-5.9c0-0.3,0.1-0.4,0.2-0.4c1.2-0.3,3.6-1.2,7.4-2.6
		c-2.9,1.2-2.6,1.1,0.9-0.2l0.2-11.1h-2c-2.5,0.1-4.4,0.4-5.7,0.9l-1.5-1.7l9.2-0.4v-1.1c0-1.9-0.1-4.4-0.2-7.4c0-1.6,0-2.7,0-3.3
		C509.3,46.3,509.5,46.2,509.8,46.3z M522.6,53.8l5.4,3l4.1-0.2l0.2-9.8c0-0.4,0.1-0.6,0.4-0.4l5.4,1.7c0.3,0,0.3,0.2,0,0.7
		c0,0-0.1,0.1-0.2,0.2c-0.1,0.3-0.4,0.9-0.7,2l-0.4,5.4h4.1l2.6-3.1l4.6,3.3c0.4,0.1,0.5,0.4,0.2,0.7l-1.3,1.7l0.2,12.2l0.2,0.7
		c0.1,0.4,0.1,0.7-0.2,0.7c-2-0.1-8.6-0.1-19.8,0.2c0.7,12.2-5.2,21.4-17.6,27.7c-0.4,0.1-0.7,0.1-0.9-0.2c0-0.3,0.1-0.5,0.4-0.7
		c5.7-3.6,9.3-7.5,10.9-11.5c1.9-3.6,2.7-10.2,2.4-19.6v-7.8L522.6,53.8z"/>
	<path class="st0" d="M552.9,144.7c3.1,1.7,6.1,1.6,9.1-0.2c3-1.9,4.3-4.6,4.2-8.2c-0.2-3.6-1.8-6.1-4.9-7.7
		c-3.1-1.6-6.1-1.4-8.9,0.5c-2.8,1.9-4.2,4.5-4.2,8C548.2,140.4,549.8,143,552.9,144.7 M562.5,124.8c3.3,1.3,5.5,3.4,6.5,6.5
		c1.1,3.1,1.3,6.2,0.5,9.1c-0.8,3-2.4,5.2-4.7,6.8c-2.3,1.6-5.1,2.3-8.2,2.3c-3.1,0-5.9-1.2-8.4-3.7c-2.5-2.5-3.8-5.2-4-8.2
		c-0.2-3,0.5-5.6,1.9-8c1.4-2.3,3.6-4,6.8-5.1C556,123.5,559.2,123.6,562.5,124.8z"/>
	<path class="st1" d="M218.1,124.3c0.2,1.2,0.5,1.9,0.8,2.1c0.1,0,0.1,0,0.1,0l2.2-0.7c0.2-0.1,0.3-0.4,0.3-0.8
		c0-1.1-0.2-1.6-0.7-1.6c-0.4,0-0.9,0.1-1.6,0.4c-0.5,0.2-0.8,0.3-1,0.3c-0.2,0-0.2,0.1-0.1,0.3
		C218.1,124.3,218.1,124.3,218.1,124.3 M218.9,128.7c0,1.3,0.1,1.9,0.4,1.9c1.3-1.3,1.9-2.5,1.9-3.6c-1.3,0.2-2,0.5-2.2,0.8
		c0,0,0,0.1,0,0.4C218.9,128.5,218.9,128.6,218.9,128.7z M214.1,129.4c0,0.5,0.2,1.4,0.7,2.7c0.3,0.6,0.7,1,1.2,1
		c0.7-0.1,1.4-0.5,1.9-1.1c0-0.3,0-0.5,0-0.8c0-2.1-0.2-3.1-0.7-3.1c-1.9,0.5-3,0.9-3.3,1.2C214.1,129.3,214.1,129.3,214.1,129.4z
		 M205.6,136.5c0.1,0.9,0.3,1.4,0.7,1.4v-2.2C205.8,135.7,205.6,136,205.6,136.5z M211.6,139.1c0-0.1,0-0.2,0-0.4
		c0.1-0.1,0.4-0.2,1-0.3c0.5-0.2,0.7-0.3,0.8-0.3c0.1,0,0.4,0,0.8-0.1c2-0.2,3.1-0.5,3.4-0.8c0-0.1,0-0.4,0.1-1
		c0.1-0.5,0.1-0.7,0.1-0.8c0-0.1,0-0.3,0-0.7c-0.1-0.4-0.1-0.6-0.1-0.7h-0.3l-2.9,0.7h-0.1l-4.7,1.2c0,0-0.1,0-0.3,0.1
		c-0.8-0.1-1.3-0.4-1.4-1c0-0.2,0-0.3,0.1-0.4c0.1,0,0.3,0,0.7-0.1c0.4,0,0.5,0,0.5,0c1.8-0.2,3.3-0.5,4.5-1c0,0,0,0,0.1-0.1
		c0.1,0,0.1,0,0.1-0.1c0-0.3-0.2-0.6-0.7-1.1c-0.2-0.4-0.4-0.9-0.5-1.5c0-0.1,0-0.2,0-0.3c-0.1-0.6-0.4-1-0.8-1
		c-0.3,0-0.7,0.1-1.4,0.3c-0.5,0.2-1,0.3-1.4,0.3c-0.5,0-0.8-0.2-0.8-0.7c0-0.1,0-0.2,0-0.3c-0.1-0.2,0-0.3,0.1-0.4
		c0.1-0.1,0.3-0.1,0.7-0.1c0.9-0.1,1.8-0.2,2.6-0.4c0-0.1,0-0.1,0-0.1s0-0.2-0.1-0.7c-0.3-0.7-0.4-1.1-0.4-1.2
		c0.1-0.4,0.3-0.5,0.5-0.5c0.8,0.2,1.3,0.5,1.4,0.8c0,0.1,0,0.2-0.1,0.3c0,0.1,0,0.1,0,0.1c0,0.6,0.1,1,0.4,1
		c0.5-0.1,1.1-0.3,1.6-0.5c0.5-0.1,1.2-0.3,1.9-0.5v-0.8c0-0.1,0-0.1-0.1-0.1c0-0.1-0.1-0.4-0.3-0.8c-0.3-0.3-0.5-0.5-0.5-0.5
		l-3.3,0.7c-0.5-0.1-1.2,0.1-2.1,0.7c-0.2,0.1-0.3,0.2-0.4,0.3c-0.4,0-0.5-0.2-0.5-0.7c0-0.8,1.4-1.4,4.2-1.8
		c1.2-0.2,1.8-0.3,1.8-0.4c-0.5-0.5-0.8-1.1-0.7-1.6c0-0.2,0-0.4,0.1-0.5c0.1-0.1,0.1-0.2,0.1-0.3c0,0,0,0-0.1,0
		c-0.5-0.1-0.9-0.1-1.1,0c-0.4,0.1-0.8,0.5-1.2,1.2c-0.3,0.4-0.5,0.5-0.5,0.5c-0.2,0-0.3-0.1-0.3-0.3c0-0.3,0-0.5,0-0.5
		c0,0,0-0.1,0-0.3c0.1-1.2,0.8-1.8,2.2-1.9c0.4,0,0.7,0,1,0.1c0.5,0,0.9,0,1.4,0c0.4,0,0.9,0,1.6-0.1c0.7,0,1.3,0,1.6,0
		c0.1,0,0.3,0,0.5,0c0.2,0,0.3,0.1,0.3,0.4c0,0.1,0,0.1,0,0.1c0,0.1,0,0.2,0,0.4c-0.2,0.1-0.3,0.1-0.4,0.1h-0.1
		c-0.2-0.1-0.3-0.1-0.4-0.1c-1.7,0-3,0.1-3.7,0.4c0.3,0.1,0.5,0.4,0.5,1c0.2,0.6,0.5,1,0.8,1c0.3,0,0.7-0.1,1.2-0.3
		c0.3-0.1,0.5-0.1,0.5-0.1c0.2,0,0.5,0,1-0.1c1.6-0.4,2.9-0.5,3.8-0.5c0.5,0,0.9,0.1,1,0.3c-0.1,0.4-0.3,0.7-0.5,1.1
		c0,0.1-0.5,0.4-1.6,1c-0.2,0-0.3-0.1-0.3-0.4c0-0.1,0-0.3,0.1-0.5c-0.1,0.1,0,0,0.1-0.1c-0.1,0-0.2,0-0.3,0c-0.4,0-0.5,0.1-0.5,0.3
		c0.1,0.2,0.2,0.4,0.3,0.5c0,0,0,0.2,0.1,0.5c0,0.4,0,0.6,0,0.7c0,0,0,0,0.1,0.1c0.5,0.1,0.7,0.3,0.7,0.5c0,0.2-0.1,0.4-0.4,0.7
		c-0.2,0.2-0.3,0.3-0.3,0.4c-0.2,0.3-0.4,0.7-0.5,1.2c-0.4,0.8-0.7,1.4-1,1.8l-0.1,0.1c0,0-0.2,0.2-0.5,0.7
		c-0.3,0.5-0.5,0.7-0.5,0.8c-0.1,0.1-0.2,0.2-0.3,0.3c-0.4,0.2-0.5,0.4-0.5,0.5c0,0.1,0,0.1,0,0.1l0.7,0.1c0.9-0.1,1.9-0.3,3-0.5
		c0.2,0,0.5-0.1,1.1-0.3c1-0.3,1.7-0.4,2.2-0.4c0.2,0,0.3,0,0.4,0.1c0.2,0,0.3,0.1,0.3,0.4c0,0.1,0,0.2-0.1,0.3
		c-0.2,0.2-0.3,0.4-0.3,0.5c-0.4,0-0.9,0.1-1.6,0.3c-0.9,0.2-1.5,0.2-1.9,0.1l-3.6,0.7l-0.1,0.1c-0.1,0-0.1,0.1-0.1,0.4
		c-0.1,0.2-0.1,0.3-0.1,0.4c0,0.3,0,0.7,0,1.2c-0.1,0.5-0.1,1-0.1,1.4c0.5,0,0.9,0,1.4,0c0.3,0,0.8,0,1.5-0.1
		c0.7-0.2,1.3-0.3,1.6-0.3c0.5,0,0.7,0.2,0.7,0.5c-0.1,0.6-0.4,1-0.8,1.1l-0.1-0.1c-0.2-0.1-0.3-0.1-0.3-0.1c-0.1,0-0.4,0-0.8,0.1
		c-0.2,0-0.4,0-0.5,0c-1,0.1-1.8,0.2-2.5,0.4c-0.1,0.1-0.3,0.2-0.5,0.4c-0.1,0-0.2,0.1-0.3,0.3c0,0,0,0-0.1,0
		c-0.1,0-0.2-0.1-0.4-0.3c-0.2-0.2-0.4-0.3-0.5-0.3c-0.1,0-0.2,0-0.3,0l-4.2,1c0,0-0.1,0-0.3,0C211.9,139.8,211.6,139.6,211.6,139.1
		z M200.1,138.3c0-0.2,0.1-0.3,0.3-0.4c0.2-0.2,0.3-0.3,0.3-0.4c0.2-0.2,0.3-0.9,0.3-2c0.2-1.9,0.4-4.3,0.5-7.2c0-0.2,0-0.4,0-0.7
		c0-1.1-0.1-2.3-0.4-3.6c0-0.2-0.1-0.4-0.3-0.7c-0.2-0.5-0.3-0.9-0.3-1.1c0-0.7,0.2-1.1,0.7-1.1c0.5,0,1,1.7,1.4,5.2
		c0,0.4,0,0.6,0,0.7c0,0.1,0,0.3,0.1,0.7h2.7c0.3,0,0.4,0.2,0.4,0.7c0,0.1,0,0.2,0,0.3c0,0-0.1,0-0.3,0.1c-0.3,0-0.6,0-1.1,0
		c-0.2,0-0.5,0.1-1,0.3v0.8c0,0,0,0-0.1-0.1c-0.3-0.4-0.5-0.5-0.8-0.5c-0.1,0.5-0.1,1.1-0.1,1.6c0,0.3,0,0.6,0,1
		c0.6-0.5,1.3-0.7,2-0.7c0.1,0,0.3,0,0.5,0c0.3,0.3,0.4,0.5,0.4,0.7c0,0-0.2,0.1-0.7,0.3c-1.6,0.6-2.5,1.1-2.7,1.5
		c-0.1,0.2-0.1,1.3-0.1,3.3h0.4c0.4-0.2,1-0.5,1.9-1c0.2-0.2,0.4-0.3,0.5-0.3c0-0.1,0.1-0.2,0.3-0.3l-0.3-1c0.2,0,0.3,0.1,0.4,0.3
		c0.1,0.2,0.2,0.3,0.3,0.3c0.5,0,0.9-0.4,1-1.2c0-0.8,0-1.6,0-2.2c0.2-0.6,0.2-1.2,0-1.8v-3c0.2-0.8,0.3-2.2,0.4-4.1
		c-0.2,0-0.5,0-0.8,0c-1-0.2-1.6-0.2-1.9,0c-0.1,0.1-0.3,0.2-0.7,0.4h-0.1c-0.4,0-0.5-0.2-0.5-0.7c0.1-0.5,1.4-0.9,3.8-1
		c0.1,0,0.2,0,0.4,0c1.1-0.1,1.6,0,1.6,0.4c0,0.1,0,0.2,0,0.4c-0.1,0.2-0.2,0.5-0.3,1c-0.5,1.5-0.8,2.6-0.8,3.6c0,0.1,0,0.5,0.1,1.2
		c0,0.8,0,1.3,0,1.4c0,0.2,0,0.5,0,0.8c0,0.5,0,0.9-0.1,1.4c0,1.2,0,2.5,0,3.8c0,0.1,0,0.4,0,1c-0.1,0.5-0.1,0.9-0.1,1
		c0,0.4,0,0.6,0,0.8c0,0.3,0,0.6,0,1c0,0.2,0,0.4,0,0.7c0,0.3,0,0.5,0,0.8c-0.1,0-0.3,0.1-0.5,0.4c-0.1,0.1-0.1,0.2-0.1,0.3
		c0,0.1,0,0.1-0.1,0.1c-0.4,0-0.6-0.2-0.7-0.5c-0.1-0.3-0.2-0.4-0.3-0.4c0-0.5-0.2-1.4-0.5-2.5c0-0.2,0-0.4,0-0.7c0-0.2,0-0.4,0-0.7
		c-0.1,0-0.1,0-0.1,0c-0.3,0.1-0.8,0.4-1.5,1c0,0-0.2,0.2-0.7,0.5c-0.5,0.4-0.7,0.6-0.8,0.7c0,0,0,0-0.1,0.1c0,0.6,0,1.2,0,1.8
		c-0.1,0.5-0.3,0.9-0.7,1.1C200.6,141.6,200.2,140.5,200.1,138.3z"/>
	<path class="st1" d="M245.1,118.2c0.2,0.9,0.4,1.4,0.5,1.5c0.4-0.5,0.8-0.8,1.2-0.8c0.5,0,1.3,0.1,2.3,0.3c1,0.2,1.7,0.3,2.2,0.3
		c1.7,0.2,2.9-0.4,3.6-1.6c0,0,0,0,0-0.1c-0.3-0.6-1.9-1.2-4.9-1.6c0,0,0,0-0.1,0c-0.1,0-0.5,0-1.1,0c-0.7,0.1-1.1,0.1-1.2,0.1
		c-1.6,0.1-2.5,0.4-2.6,1c0.1,0.2,0.1,0.4,0.1,0.5c0.1,0.1,0.2,0.2,0.3,0.4C245.4,118,245.3,118.1,245.1,118.2V118V118.2z
		 M247.6,120.6c0.2,1,0.6,1.6,1.4,1.8c0.2,0,0.6-0.2,1.4-0.5c0.4-0.2,0.5-0.3,0.5-0.3c0.1-0.1,0.3-0.2,0.5-0.4
		c0.3-0.3,0.4-0.4,0.4-0.4c0.2,0,0.3-0.1,0.3-0.3c0,0,0,0-0.1,0c-0.1,0-0.2,0-0.3,0c-1,0-2,0-3,0c0,0,0,0-0.1,0c-0.3,0-0.6,0-1,0
		V120.6z M247.6,122.4v0.7c0.2,0,0.3,0,0.4-0.1C248,122.9,247.9,122.7,247.6,122.4z M246.4,123.2c0,0.1,0.1,0.1,0.4,0.1
		c0.3,0,0.4-0.4,0.4-1.1h0.3c0-0.1,0-0.1-0.1-0.1c0-0.1,0-0.2-0.1-0.3c-0.1-0.4-0.1-0.6-0.1-0.7c-0.2-0.5-0.6-1-1.4-1.2
		c0,0,0,0,0,0.1c0,0.4,0.1,1,0.4,1.9C246.3,122.6,246.4,123,246.4,123.2z M251.2,130.4c0,0.9,0.2,1.4,0.5,1.4c0.4,0,1-0.1,1.9-0.4
		c0.4-0.2,0.6-0.3,0.7-0.3C253.8,130.7,252.7,130.4,251.2,130.4z M233.6,142.9c0-0.1,0-0.2,0-0.3c0.1-0.9,0.2-2.3,0.3-4.2
		c0.1-1,0.1-1.7,0.1-2.2c0-0.4,0.1-0.9,0.3-1.5c0.3-2.3,0.4-4,0.4-5.2c-0.1-0.7-0.3-1.1-0.7-1.2c-0.4,0-0.8,0.2-1.4,0.7
		c-0.5,0.5-1,0.7-1.4,0.7c-0.4,0-0.5-0.2-0.5-0.7c0-0.4,0.2-0.7,0.7-1c0.1-0.1,0.3-0.3,0.7-0.5c0.4-0.3,0.5-0.4,0.5-0.4
		c0.5-0.5,0.8-1.1,1-1.5v-0.4c-0.1-0.1-0.4-0.2-1-0.3c-0.2,0-0.4,0-0.7,0c-0.4,0-0.9,0.1-1.6,0.3c-0.7,0.3-1.3,0.4-1.8,0.4
		c-0.3,0-0.4-0.2-0.4-0.7c0-0.4,0.5-0.8,1.4-1.2c0.4-0.2,0.6-0.3,0.7-0.4c0.2-0.2,0.6-0.5,1.2-1c0.9-0.5,1.4-0.9,1.4-1
		c0.3-0.2,1-0.9,2.2-2.1c0.2,0,0.3-0.1,0.4-0.4c0.1-0.2,0.2-0.2,0.4-0.1c0.4,0.1,0.6,0.3,0.7,0.5c0,0,0,0,0,0.1
		c-0.5,0.7-1.3,1.6-2.6,2.6c-0.7,0.5-1.3,1-1.6,1.4c0,0,0,0,0,0.1c1.7,0.3,2.6,0.8,2.6,1.6c-0.1,0.6-0.3,1.1-0.5,1.5
		c1.3,0.5,1.9,1.6,1.9,3.6c0,0.4-0.1,1-0.3,1.8c-0.1,0.3-0.1,0.5-0.1,0.5c-0.3,1.9-0.5,3.8-0.5,5.6c0,0.4,0,0.7,0,1.1
		c0.1-0.1,0.1-0.1,0.1-0.1c0.5-0.6,0.9-1.7,1.2-3.1c0.3-0.2,0.5-0.5,0.5-1.1c0.1-0.4,0.2-0.6,0.4-0.8v1.2l-0.8,2.6
		c0.1,0.7-0.2,1.9-1,3.6c-0.4,0.7-0.6,1.2-0.7,1.4c-0.1,0.1-0.2,0.2-0.3,0.3c-0.2,0.4-0.4,0.5-0.5,0.5
		C233.9,143.6,233.6,143.4,233.6,142.9z M247.3,143.3c-0.6-0.9-1.5-2.5-2.5-4.7v-0.3c0.3,0.3,0.9,1.1,1.9,2.6
		c1.7,2.5,2.9,3.7,3.4,3.7c0,0,0,0,0.1,0c0-0.3,0-0.7,0.1-1.4c0-0.5,0-0.8,0.1-1.1v-8.3c0,0,0-0.1-0.1-0.3c0-0.2,0-0.3-0.1-0.3
		c-0.1,0-0.1,0-0.1,0l-4.5,1.5c-0.2,0-0.3,0-0.3,0.1c0,0.1,0.1,0.3,0.3,0.5c0.1,0.1,0.3,0.3,0.5,0.5c1.2,1.3,1.8,2.3,1.8,3.1
		c-0.1,0.4-0.2,0.5-0.3,0.5c-0.4,0-0.7-0.5-1.1-1.5l-2.2-2.1c-0.3-0.3-0.4-0.5-0.4-0.8l-3,1.1c0,0,0,0-0.1,0
		c-0.4-0.1-0.6-0.3-0.7-0.5c0.1-0.6,0.4-1,1-1.1c0.2,0,0.3,0,0.4,0.1c0.2,0,0.4-0.1,0.7-0.4c0.3-0.3,0.5-0.4,0.8-0.4v0.1
		c-0.2,0-0.3,0-0.3,0.1c0.1,0,0.1,0,0.1,0c0.3,0,0.5-0.1,0.8-0.3l4.1-1.4c0.3-0.2,0.6-0.3,1.1-0.4c0.5-0.2,0.9-0.3,1.1-0.4
		c-0.3-1.1-0.7-1.7-1.4-1.9c-0.6,0-1.5,0.2-2.7,0.5c-1.1,0.4-1.9,0.5-2.5,0.5c-0.7,0.1-1.1-0.1-1.1-0.7c0-0.6,0.3-1,0.8-1l5.7-3.4
		c0.2-0.2,0.5-0.4,0.8-0.7c0.4-0.2,0.6-0.4,0.8-0.5c-0.1-0.1-0.3-0.1-0.7-0.1c-0.5,0-1.1,0.1-1.9,0.3c-0.3,0.1-0.5,0.1-0.5,0.1
		c-0.1,0-0.3,0.1-0.5,0.3c-0.4,0.3-0.6,0.4-0.8,0.4c-0.4-0.4-0.7-0.5-1-0.5c0-0.3,0-0.5,0-0.8c0-0.1,0-0.1,0-0.1s0,0,0.1-0.1
		c0.1-0.1,0.1-0.2,0.1-0.3c0-0.2,0-0.5-0.1-0.8c-0.2-0.3-0.3-0.5-0.3-0.7c-0.1,0-0.1-0.2,0-0.5c0-0.1,0-0.1,0-0.1
		c-0.2-0.4-0.3-0.9-0.4-1.5c-0.1,0-0.3-0.3-0.5-1c-0.3-0.8-0.5-1.3-0.7-1.4c-0.1,0.1-0.2,0.2-0.3,0.4c-0.1,0.1-0.1,0.1-0.1,0.1
		c-0.2-0.2-0.3-0.5-0.3-1c0-0.1,0-0.2,0-0.3c0-0.3,0-0.5,0-0.7c0.1-0.3,0.3-0.5,0.5-0.5c0.2,0,0.5,0,0.8,0c0.6-0.4,1-0.5,1.1-0.5
		c1.1-0.2,1.7-0.3,1.9-0.4c0.1,0,0.2,0,0.4-0.1c0.5,0,1.1,0,1.6,0c1.2,0,2,0,2.6,0.1c0.2,0,0.7,0.1,1.5,0.4c0.8,0.2,1.3,0.3,1.4,0.4
		c0.5,0.2,0.9,0.4,1.4,0.7c0.1,0.1,0.3,0.3,0.5,0.7v0.3l-0.7,1.5c-1.1,1.1-1.8,1.8-2.2,2.1c0,0-0.3,0.2-0.8,0.7
		c-0.5,0.4-0.9,0.6-1,0.7c-0.1,0.1-0.3,0.2-0.5,0.3c-0.4,0.2-0.6,0.4-0.7,0.5h0.1c0,0,0,0,0.1,0c0,0,0.2,0,0.5-0.1
		c0.6-0.1,1-0.1,1.1-0.1c0.5,0.2,0.7,0.4,0.8,0.5c-0.2,1.1-1.6,2.2-4.1,3.4c-1,0.5-2.1,1.3-3.4,2.2c0.3,0,0.5,0,0.5,0
		c0.6,0,1.2-0.1,1.6-0.4c0.1-0.1,0.1-0.2,0.1-0.3c0.2-0.2,0.4-0.3,0.5-0.3c0.1,0,0.2,0,0.3,0c0.2,0.1,0.4,0.1,0.5,0.1
		c0.5,0,1.1-0.1,1.9-0.4c0.8-0.3,1.4-0.4,1.8-0.4c0.5,0,0.7,0.2,0.7,0.5c0,0.5-0.6,1.1-1.8,1.5v0.1c2.1,0.3,3.6,0.5,4.4,0.5
		c0.1,0,0.1,0,0.1,0h0.1c0.1,0,0.4,0,1-0.1c0.5,0,0.7,0,0.8,0c0.4,0.1,0.6,0.3,0.7,0.7c-0.4,0.6-1.1,1-2.1,1c0,0-0.2,0-0.5,0
		c-0.4,0.1-0.6,0.1-0.7,0.1h-0.1l-4,1.1c0,0,0,0,0,0.1c0,0.5,0,1.4,0.1,2.6c0,1.2,0,2.1,0,2.7c0,1,0,2.1,0,3.3c0,0.2,0,0.5,0,1
		c0.1,2.8-0.5,4.2-1.8,4.2c-0.1-0.1-0.2-0.3-0.4-0.7c0,0-0.3-0.3-0.8-0.8c-0.5-0.5-0.7-0.9-0.8-1c-0.1-0.1-0.2-0.2-0.3-0.4
		C247.7,143.7,247.5,143.4,247.3,143.3z"/>
	<path class="st1" d="M272.8,132.1c1.4,0.8,2.6,1.8,3.8,2.9c0-0.3,0.1-0.4,0.3-0.4c0.4-1.1,0.8-2.1,1.4-3.1l0.1-0.1l1.1-1.9l0.1-0.1
		c0-0.1,0.2-0.5,0.5-1.1c0.1-0.1,0.1-0.2,0.1-0.3c0,0,0,0-0.1,0c-0.4,0-1.3,0.5-2.9,1.4c-0.8,0.5-1.3,0.7-1.5,0.8
		c-0.8,0.5-1.4,0.9-1.8,1c0,0-0.1,0.1-0.3,0.3C273.2,131.8,272.8,132,272.8,132.1 M269.6,144.4c0.1-0.8,0.2-1.4,0.4-1.8
		c0,0.1,0,0.5,0.1,1.1c0.1,0.5,0.1,0.9,0.1,1c0,0.5,0.1,0.8,0.3,0.8c0.1,0,0.1,0,0.1,0c0.1-0.1,0.1-0.1,0.1-0.1
		c1.4-1.9,2.5-3.9,3.4-6l0.1-0.1l1.6-3c0-0.1-0.6-0.7-1.9-1.8c-0.4-0.4-0.6-0.6-0.7-0.7c-0.5-0.3-1.2-0.4-2-0.4l-0.1-0.1l-1.1,0.5
		c0,0,0,0-0.1,0c-0.3,0-0.4-0.2-0.4-0.7c0-0.1,0-0.2,0-0.3c1.8-1.2,3.5-2.5,5.1-3.8c0.2-0.2,0.5-0.5,1-0.8c0.5-0.6,1-1.1,1.4-1.2
		c0.2-0.1,0.3-0.1,0.3-0.1c0.5-0.4,1.1-1,1.8-1.8c0.5-0.5,0.8-1,1.1-1.2H280c0,0,0,0-0.1,0c-0.1,0-0.2,0-0.4,0.1
		c-2,0.8-3.8,1.1-5.5,0.8c-0.2,0.2-0.5,0.5-0.8,1.1c-0.3,0.5-0.5,0.9-0.8,1.1l-1.9,3.1c0,0-0.1,0-0.3,0.1c-0.2,0.2-0.3,0.3-0.4,0.3
		c-0.3,0-0.4-0.2-0.4-0.5c0-0.6,0.2-1.2,0.7-1.8c0.3-0.4,0.5-0.7,0.5-1c0-0.7,0.1-1.1,0.4-1.1c-0.2,0.3-0.3,0.5-0.3,0.8
		c0,0.1,0,0.2,0,0.4c0.2-0.2,0.3-0.3,0.3-0.3c0.5-0.5,1.1-1.3,1.9-2.5v-0.1c-0.2-0.3-0.5-0.5-1-0.5c0,0,0,0-0.1,0.1l-0.4,0.7
		c0.1-0.4,0-0.8-0.1-1.2c-0.2-0.4-0.3-0.6-0.3-0.8c0.1-0.5,0.3-0.7,0.7-0.8c0,0,0.1,0,0.3,0.1c0.1,0,0.1,0,0.1,0.1
		c0.5,0.9,1,1.4,1.5,1.4c0.1,0,0.1,0,0.1-0.1c0.1-0.1,0.3-0.4,0.7-0.8c0.5-0.5,0.7-0.8,0.7-0.8c0-0.1,0.1-0.3,0.4-0.5
		c1.2-1.5,1.8-2.5,1.8-2.9c-0.3-0.1-0.5-0.1-0.8-0.1c-1.1,0-2.5,0.2-4.2,0.5c-0.8,0.2-1.4,0.3-1.8,0.4c-0.1,0-0.2,0-0.3,0
		c-0.4,0-0.5-0.2-0.5-0.7c0-0.3,0.2-0.5,0.7-0.7c0.4-0.2,0.6-0.4,0.7-0.5c0.7-0.5,1.6-1.1,2.7-1.9c1.7-1.5,3.1-2.2,4-2.2v1.1
		c0,0.1-0.3,0.2-1,0.4c-0.7,0.3-1.1,0.5-1.2,0.5c-0.3,0.2-0.6,0.5-1.1,1c-0.5,0.5-1,0.8-1.2,1c0,0-0.1,0-0.3,0.1
		c-0.4,0.2-0.6,0.3-0.7,0.4c0.2-0.1,0.3-0.1,0.4,0c0,0.1,0,0.1,0.1,0.1c1.2-0.5,2.4-0.7,3.6-0.7c0.2,0,0.6,0,1.2,0.1
		c0.6,0.1,1,0.1,1.2,0.1c0.1,0.1,0.1,0.2,0.1,0.4c0,0.5-0.4,1.3-1.1,2.2c-0.1,0.1-0.2,0.2-0.3,0.3c-0.2,0.4-0.8,1.1-1.8,2.2
		c-0.4,0.4-0.5,0.6-0.5,0.8c0,0.1,0,0.1-0.1,0.1c-0.1,0.1-0.1,0.2-0.1,0.3c0,0.1,0,0.2,0.1,0.3c1.9,0,3.3-0.2,4.2-0.5
		c0.7-0.1,1.2-0.2,1.4-0.3c0.4-0.3,0.5-0.5,0.5-0.5c0.1,0,0.1,0,0.1,0c0.5,0,0.7,0.1,0.7,0.4c0,0.5-0.4,1-1.2,1.6
		c-0.2,0.2-0.3,0.3-0.4,0.4c-0.5,0.5-1.6,1.5-3,2.9v0.1l4.2-1.9c0.1,0,0.1,0,0.1,0c0.5,0,0.8,0.2,0.8,0.5v0.1
		c-0.2,0.4-0.5,0.9-1,1.5c-0.5,0.6-0.9,1.1-1.1,1.5c-0.3,0.8-0.8,2-1.6,3.4c-0.5,0.9-1,1.6-1.2,2c0,0.1,0,0.1-0.1,0.1
		c-0.1,0.1-0.1,0.3-0.1,0.5c0,0.1,0,0.1,0,0.1c0.1,0,0.2,0.1,0.4,0.3c0.3,0.2,0.4,0.3,0.4,0.4c0.3,0.3,0.6,0.6,1,1.1
		c0.4,0.5,0.6,0.8,0.8,1c0.1,0.1,0.3,0.3,0.7,0.5c1.4,1.3,2.1,2.1,2.1,2.3h0.3c-0.2,0.5-0.5,0.9-0.8,1c-0.2,0-0.3,0-0.4,0
		c-0.6-1.1-1.8-2.5-3.4-4.1c-0.6-0.6-1.1-1.1-1.4-1.5l-0.3,0.3c-0.2,0.4-0.5,0.9-1,1.6c-1.6,2.8-3.1,5.3-4.2,7.4
		c-0.1,0.1-0.2,0.3-0.4,0.5c-0.3,0.5-0.5,0.7-0.7,0.7c-0.4-0.1-0.6-0.7-0.7-1.9C269.7,144.9,269.6,144.5,269.6,144.4z"/>
	<path class="st1" d="M305.8,120c0,0.2,0.1,0.3,0.3,0.3c0.1-0.1,0.1-0.1,0.1-0.1l0.1,0.1c0.1,0,0.2,0,0.4-0.1c0.2,0,0.3,0,0.3,0
		c0.1-0.1,0.1-0.1,0.1-0.1l-1.2-0.5C305.9,119.7,305.8,119.9,305.8,120 M305.7,136.6c0-0.2,0-0.3,0.1-0.4l3.1-0.8
		c0.1,0.1,0.3,0.1,0.7,0.1c0.5,0,0.9,0.1,1,0.3c0,0.4,0,0.6-0.1,0.7c-0.4,0-0.8,0-1.2,0c-0.5,0.1-0.7,0.2-0.8,0.3
		c-0.1,0-0.2,0-0.4,0.1c-0.5,0.1-0.7,0.2-0.8,0.4H306C305.8,137.2,305.7,137,305.7,136.6z M310.5,140.7c0.5,0.8,1,1.5,1.6,1.9
		c0-0.1,0-0.3,0-0.5c0-0.1,0-0.2,0-0.4c0.1-1.5,0-2.3-0.3-2.6v-4.5c0.1-0.3,0.1-0.5,0.1-0.7c-0.1-1.3-0.5-2-1.1-2.1
		c-0.2,0-0.5,0-0.8,0.1c0.2-0.1,0.1,0-0.3,0.1l-3.4,2.1l-1.1,1c0,0.1,0,0.2,0,0.3c-0.1,0.6-0.1,1.3,0,1.9c-0.1,0.2-0.1,0.4,0,0.7
		c0,0.3,0,0.7-0.1,1.4c-0.1,0.6-0.1,1.1-0.1,1.5c0,0.2,0,0.4,0,0.7l0.3,0.1c0.2-0.3,1-0.6,2.5-1.1c0.8-0.3,1.2-0.5,1.2-0.5
		c0-0.2,0-0.4-0.1-0.5c-0.1-0.2-0.1-0.3-0.1-0.4c0,0,0-0.1,0-0.3c0,0.1,0.1,0.2,0.3,0.3c0.1,0.1,0.2,0.2,0.3,0.4
		c0.1,0.2,0.2,0.3,0.3,0.3c0.2,0,0.5-0.1,0.8-0.3c0.4-0.1,0.6-0.1,0.8-0.1c0.3,0,0.4,0.2,0.4,0.5c0,0,0,0,0,0.1L310.5,140.7z
		 M309.5,141.2c-0.1,0-0.4,0.1-0.8,0.4c-0.1,0.1-0.2,0.1-0.3,0.1c-0.2,0.1-0.7,0.3-1.5,0.5c-0.5,0.1-0.9,0.2-1.1,0.3
		c-0.2,0-0.3-0.1-0.4-0.4c-0.1-0.1-0.1-0.1-0.1-0.1c-0.1-0.1-0.2-0.1-0.3,0v0.7c-0.1,0-0.2,0-0.3,0.1c-0.1,0.2-0.2,0.3-0.4,0.3
		c-0.3,0-0.4,0-0.4-0.1c-0.5-1.3-0.7-3.3-0.8-6c0-0.5,0.1-1,0.4-1.6c0.3-0.5,0.4-0.8,0.4-1.1c0-0.2,0-0.5-0.1-0.8
		c-0.2-0.8-0.3-1.4-0.3-1.8c0-0.3,0-0.5,0-0.5c0.1-0.1,0.1-0.1,0.1-0.1c0.1,0,0.2,0,0.4-0.1c0.3,0,0.4,0,0.4,0
		c0.2-1.6,0.3-3.1,0.3-4.7c-0.8,0-1.5,0.3-2,0.8l-7,6.8c-0.1-0.1-0.2,0-0.4,0.3c-0.3,0.2-0.5,0.3-0.5,0.3c-0.5,0-0.8-0.2-0.8-0.5
		c0-0.3,0.3-0.5,0.8-0.7c0.1,0,0.2,0,0.3,0l6-5.9c0.3-0.5,0.5-0.8,0.8-1c0.8-0.9,1.7-1.8,2.6-2.6c0.1-0.4,0.2-0.7,0.4-1
		c0,0,0-0.1-0.1-0.4c-0.1-0.4-0.1-0.6-0.1-0.7c-0.4,0.1-1,0.2-1.8,0.3c-0.2,0-0.5,0-0.8,0.1c-1.1,0-1.8,0.1-2,0.4l-2.5,0.4
		c-0.7,0.1-1.1-0.1-1.2-0.7c0-0.3,0-0.5,0.1-0.7c0.1,0,0.2,0,0.4,0s0.4,0,0.5,0c0.3,0.1,0.5,0.1,0.5,0.1c0.8,0,3.1-0.4,6.7-1.2v-1.9
		c-2.5-0.5-3.6-1-3.6-1.6c0.1,0,0.2,0,0.3,0c0,0,0-0.1,0.1-0.3c0-0.1,0-0.1,0.1-0.1c1.1,0.7,2.8,1.1,5.1,1c0.1,0.1,0.2,0.2,0.4,0.3
		c0.2,0,0.3,0.2,0.3,0.5c0,0.3-0.1,0.5-0.4,0.5c-0.2,0-0.4,0-0.5-0.1c-0.1-0.1-0.2-0.1-0.3-0.1c0,0,0,0,0,0.1c-0.1,0-0.1,0,0,0.1
		l1.8,0.8c0.2-0.1,0.5-0.1,1,0c0.3,0.1,0.5,0.1,0.7,0.1c0.3,0,0.5,0,0.7-0.1l3,0.3c0.3,0,0.4,0.1,0.3,0.4c-0.1,0.4-0.3,0.6-0.7,0.7
		c-0.9,0-1.8,0-2.7,0c-0.3,0.1-1.3,0.2-3,0.3c-0.3,0-0.5,0-0.8,0c0,0,0,0-0.1,0.1l-0.1,1.1c0.2,0.1,0.3,0.2,0.4,0.4
		c0.1,0.1,0,0.2-0.1,0.3c-0.1,0.1-0.1,0.1-0.1,0.1c0,0.1,0,0.2,0,0.4c-0.1,0.3-0.1,0.5-0.1,0.5c0,0.2,0,0.3,0,0.4
		c0.1,0.2,0.1,0.3,0.1,0.3h0.7c0.3,0,1,0,2.2-0.1c1,0,1.6,0,1.8,0c0.1,0,0.3,0,0.7,0c0.5,0.1,0.7,0.1,0.7,0.1c0.2,0,0.6,0,1.2,0.1
		c4.3,0.3,6.4,0.6,6.4,1.1c0,0,0,0-0.1,0c0,0.2,0,0.4,0,0.5c-0.8,0.5-1.7,0.8-2.7,0.8c-0.3,0-0.4-0.1-0.4-0.3c0-0.1,0-0.2,0.1-0.4
		c0.1-0.1,0.1-0.2,0.1-0.3c-0.2-0.2-1.7-0.4-4.5-0.5c-0.1,0-0.5,0-1.4-0.1c-0.8,0-1.3,0-1.4,0c-0.3,0-0.7,0-1.4,0c-0.5,0-1,0-1.5,0
		c-0.2,0.1-0.3,0.1-0.3,0.1c-0.1,0-0.2,0-0.3,0c-0.2,0.2-0.3,0.4-0.3,0.5c0,0.2,0,0.5-0.1,1.1c0,0.5,0.1,1,0.3,1.6
		c0.1,0.5,0.1,1,0.1,1.4c0,0.1,0,0.3,0,0.5c0,0.1,0,0.4,0.1,0.8c0,0.5,0,0.7,0,0.8l2.2-1.1l2.6-1.2c0.1,0,0.1,0,0.1,0
		c0.1,0,0.1,0,0.1,0c0.1,0,0.3,0,0.7,0.1l1.1,1.6c0.1,0.1,0.1,0.4,0.1,1c0,0.4,0,0.9-0.1,1.6c-0.1,0.7-0.1,1.2-0.1,1.5
		c0,1,0.1,2.5,0.3,4.5c0.1,0.8,0.1,1.4,0.1,1.8c0.2,0.6,0.3,1,0.3,1.1c0,0.1,0,0.2,0,0.3c0,0.5-0.3,0.9-0.8,1.1
		c-0.5-0.3-1-1-1.8-2.2C310.4,141.8,309.9,141.3,309.5,141.2z"/>
	<path class="st1" d="M328.5,142.3l-0.1-0.1c0.6-0.4,1-1,1-1.9c0-0.2,0-0.3,0-0.4c-0.2,0.1-0.4,0.1-0.5,0.1
		c-0.8-0.3-1.5-0.9-1.9-1.9c0-0.2,0.1-0.5,0.4-0.8c0.2-0.3,0.3-0.5,0.3-0.5c0.1-0.1,0.3-0.2,0.5-0.3c0.4-0.1,0.5-0.1,0.5-0.1
		c0.4,0,0.8,0.3,1.4,0.8c0.5,0.3,0.7,1,0.7,2.2c0,1.2-0.4,2.3-1.1,3.3c-0.1,0-0.3,0.1-0.5,0.3c-0.5,0.4-0.8,0.5-1,0.5
		c-0.3,0-0.5-0.1-0.5-0.4c0-0.1,0.2-0.2,0.5-0.3C328.4,142.5,328.5,142.3,328.5,142.3"/>
	<path class="st1" d="M369.8,145.8c0-0.1,0.1-0.2,0.3-0.4c0.2-0.2,0.3-0.4,0.3-0.5c0.4-1.5,0.5-3.9,0.5-7.4c0-0.8,0-1.7-0.1-2.6
		c0,0,0-0.1-0.1-0.3c0-0.1,0-0.1-0.1-0.1l-3.1,1c-0.1,0-0.2,0-0.3,0.1c-3,1-5.4,1.5-7.2,1.5c-0.4,0-0.8,0-1.2,0
		c-0.2-0.1-0.3-0.3-0.3-0.7c0-0.1,0-0.1,0-0.1c0-0.2,0-0.3,0-0.4c0.8-0.1,1.7-0.1,2.6-0.1c4.2-0.7,7.3-1.5,9.4-2.3
		c0.2-0.1,0.2-0.2,0.1-0.3c0,0,0,0,0-0.1c-0.2-1.4-0.5-2.1-0.8-2.3c-0.1,0-0.1,0-0.1,0c-0.5,0.1-0.9,0.2-1.1,0.3c-0.6,0-1.3,0-2.1,0
		c-0.1,0-0.3,0-0.5,0.1c-1.4,0.3-2.5,0.4-3.4,0.4c-0.2,0-0.4,0-0.7,0c-0.2-0.1-0.3-0.3-0.3-0.5c0-0.5,0.8-0.7,2.3-0.8
		c1-0.1,1.6-0.2,1.9-0.4c-0.3-0.3-0.6-0.7-1-1.4c-0.3-0.5-0.5-0.9-0.7-1.1c-0.2-0.3-0.4-0.5-0.5-0.7c-0.3-0.4-0.5-0.8-0.5-1.2h-1.1
		l-0.1,0.1c-0.1,0-0.4,0.1-1,0.3c-0.5,0.2-0.8,0.3-1,0.3c-0.1,0-0.2,0-0.3,0c-0.5,0.1-0.6,0-0.5-0.4c0-0.3,0.1-0.5,0.4-0.8
		c1-0.3,2.4-0.5,4.2-0.8c1.6-0.3,2.7-0.5,3.4-0.7c0.2-1.3,0.2-2.2,0.1-2.9c0,0,0,0,0-0.1c0.1-0.4-0.2-0.5-0.8-0.5
		c-0.4,0-1,0-1.8,0.1c-0.9,0.1-1.6,0.1-2,0.1c-0.5,0-0.7-0.2-0.7-0.7c0-0.4,1.3-0.6,3.8-0.7c0.6-0.1,1.1-0.1,1.2-0.1
		c0,0,0-0.1,0-0.3c0-0.4-0.2-0.9-0.5-1.5c-0.4-0.6-0.5-1.1-0.5-1.5c0-0.5,0.2-0.8,0.7-0.7c0,0,0,0,0.1,0c0.2-0.1,0.3,0,0.3,0.1
		c0.7,1.4,1.2,2.6,1.4,3.8c0,0,0.1,0,0.3,0c2.2,0,4.1-0.3,5.7-1c0.1-0.1,0.1-0.1,0.1-0.1c0.2,0,0.4,0,0.5,0c0.9,0,1.4,0.2,1.4,0.5
		c0,0.6-1.6,1.1-4.9,1.4c-1.5,0.2-2.5,0.3-2.9,0.4c0,0.4,0,0.9-0.1,1.5c-0.2,0.7-0.3,1.3-0.3,1.6c0,0,0,0.1,0,0.3
		c0.4-0.1,1-0.2,1.8-0.4c2.6-0.5,4.5-0.9,5.9-1.4l0.5,0.1c0.1,0,0.1,0,0.1,0.1c-0.1,0.9-0.7,1.4-1.8,1.5l-3,0.4h-0.4l-5.7,1.2
		c-0.1,0.1-0.3,0.1-0.5,0.1c-0.2,0.1-0.3,0.1-0.4,0.1c0,0,0.1,0.3,0.3,0.8c0.2,0.5,0.3,0.9,0.4,1.1c0.4,0.7,0.5,1.1,0.5,1.2
		c0.2,0,0.3,0,0.3,0.1c0,0,0.1,0.1,0.3,0.4c0.2,0.3,0.3,0.5,0.3,0.5h0.4c0.1,0,0.7-0.3,1.8-0.8c0.5-0.3,0.8-0.5,1-0.5
		c1.6-0.8,2.8-1.9,3.4-3.1c0.1,0,0.1,0,0.1-0.1c0.1,0,0.1,0,0.1,0h0.8v0.7c-0.4,0.6-0.6,1.1-0.8,1.4c-0.2,0.3-0.8,0.7-1.8,1.2
		c-0.7,0.5-1.1,0.7-1.2,0.8l-1.5,0.7v0.1c0,0,0.1,0,0.3,0c2.1-0.5,4-1.1,5.7-1.9c0.1,0,0.2,0,0.4,0c0.4,0,0.5,0.1,0.5,0.4
		c0,0.1-0.1,0.2-0.3,0.4c-0.1,0.2-0.1,0.4-0.1,0.5c-0.8,0.5-1.5,0.9-2,1c0-0.1-0.1-0.1-0.3-0.1c-1.2,0.2-1.8,0.4-1.9,0.5
		c0.3,1.3,0.6,2.1,1,2.5c0.1,0,0.1,0,0.1,0l3.3-1.1c0,0,0.4-0.1,1.1-0.3c1.1-0.3,1.7-0.4,1.8-0.4c0.5-0.1,0.6,0,0.5,0.4
		c-0.2,0.9-0.8,1.5-1.9,1.6c-0.1,0-0.2,0-0.4-0.1c-0.2-0.1-0.4-0.1-0.5-0.1c-0.3,0-0.5,0-0.8,0.1c-2,0.5-3.1,0.9-3.1,1.1l-0.1,0.5
		c0,1.5,0,3,0,4.5c0,0,0,0.2,0,0.7c-0.1,0.5-0.1,0.7-0.1,0.8c0,0.5,0,1.1,0,1.8c0,0,0,0.2-0.1,0.5c-0.1,0.6-0.1,1-0.1,1.1
		c0,0.1,0,0.3-0.1,0.5c0,1.5-0.3,2.2-1,2.2C370.3,146.6,370,146.3,369.8,145.8"/>
	<path class="st1" d="M389.7,118.3v0.1V118.3z M405.4,118.9c-0.5,0-1.1,0-1.6,0c-0.1,0-0.2,0-0.4,0c-1.5-0.1-2.5,0.1-3,0.5
		c0-0.1-0.1-0.2-0.3-0.4c-0.1-0.1-0.1-0.2-0.1-0.4c0-0.5,0.4-0.8,1.2-1c0.3,0,0.5,0,0.5-0.1c0.3,0,0.6,0,1,0
		c2.1,0.1,3.7,0.3,4.9,0.7c0.2-0.1,0.3,0,0.3,0.3c0,0.7-0.4,1.1-1.1,1.1c-0.3,0-0.6-0.1-1-0.4C405.6,119,405.5,119,405.4,118.9z
		 M389.4,118.6c0-0.5,0.3-0.7,0.8-0.7c0.1,0,0.1,0,0.1,0c0.1,0.1,0.4,0.4,1,0.8c0.2,0.2,0.3,0.3,0.3,0.3c0.2,0.1,0.5,0.3,0.8,0.5
		c0.6,0.4,1.1,0.6,1.2,0.8c0.3,0,0.4,0.1,0.3,0.3c0,0.3-0.1,0.4-0.3,0.4c-0.9-0.3-2.2-0.9-4-1.9C389.5,119,389.4,118.8,389.4,118.6z
		 M402.9,124.5c0,0.1,0,0.2,0,0.3c0,0.3,0.1,0.7,0.3,1.2h0.1l2.1-2.1c0-0.2,0-0.3,0-0.3c0-0.1,0-0.1,0-0.1h-1.6c0,0,0,0,0,0.1
		C403.6,124.2,403.3,124.5,402.9,124.5z M400.7,128.2c0-0.3,0.2-0.5,0.7-0.8c0.4-0.2,0.5-0.4,0.5-0.5c0-0.1,0-0.2,0-0.3
		c0.1-0.6,0-1-0.3-1.2l-0.7-3.4c0,0,0-0.1,0-0.3c0-0.5,0.2-0.8,0.7-0.8c0.4,0,0.6,0.4,0.7,1.1c0.1,0.4,0.2,0.6,0.3,0.8
		c0,0,0,0,0.1,0c0.1,0,0.3-0.1,0.5-0.3c0.3-0.1,0.4-0.1,0.4-0.1s0.2,0,0.5,0c0.5-0.1,0.7-0.1,0.8-0.1c0,0.1,0.2,0.1,0.5,0.1
		c0.9,0,1.4,0.2,1.4,0.7c0,0.1,0,0.1,0,0.1c-0.5,1.1-1.1,2-1.6,2.6c0.3,0.1,0.5,0.2,0.8,0.4c0,0.1,0,0.2,0,0.4
		c0,0.5-0.1,0.8-0.3,0.8h-1c-0.1,0-0.1,0-0.1,0.1c-0.5,0.4-1.1,0.8-1.8,1.2c0,0,0,0-0.1,0c-0.4-0.1-0.6-0.1-0.7,0
		c-0.3,0.1-0.5,0.1-0.5,0.1c0,0,0,0-0.1,0.1C401,129,400.7,128.7,400.7,128.2z M400.6,134.3c0,0,0,0,0,0.1c-0.1,0.8,0.1,1.2,0.5,1.2
		c0.3,0,0.5-0.1,0.8-0.3l3.3-0.7l0.1-0.1c0.1-0.1,0.1-0.2,0.1-0.3c-0.2-1.5-0.5-2.4-1-2.5c-1.7,0.3-3.1,0.8-4,1.6
		C400.6,133.8,400.6,134,400.6,134.3z M401.7,137.2c0.1,0.5,0.3,1,0.5,1.5h0.1c0.4,0,1.1-0.1,2.1-0.3c0.5-0.2,1-0.3,1.2-0.3
		c0.2-0.2,0.3-0.4,0.3-0.7c0-0.1,0-0.1,0-0.1c0-0.1,0-0.3-0.1-0.7c0-0.5,0-0.7-0.1-0.7h-0.3l-2.3,0.5
		C402.3,136.6,401.8,136.8,401.7,137.2z M409.2,139c0,0.5,0.3,1,1,1.6h0.1c0.4,0,0.9-1.1,1.6-3.3c0.1-0.2,0.3-0.7,0.5-1.5
		c0.3-0.9,0.4-1.4,0.4-1.5c-0.1-0.3,0-0.7,0.1-1.4c0.1-0.5,0.1-0.8,0.1-1.1c-0.1-1.1-0.6-1.7-1.5-1.8c-0.2,0-0.5,0-0.8,0.1
		c-0.5,0.2-1,0.2-1.2,0.1l-3.3,1c0,0,0,0,0,0.1c0.2,1.5,0.4,2.4,0.5,2.9c0.5-0.1,1.1-0.2,1.8-0.4c0.3-0.3,0.4-0.5,0.4-0.5
		c0.2,0,0.3,0,0.3,0c0.4,0,0.5,0.2,0.5,0.5c0,0.7-0.8,1.2-2.5,1.5c-0.3,0.1-0.4,0.1-0.4,0.1v2.2h0.8v-0.4c0.2-0.1,0.3-0.1,0.4-0.1
		c0.1,0.1,0.2,0.2,0.3,0.4h1.6c0.3,0,0.4,0.1,0.3,0.3c0,0.3,0,0.4-0.1,0.4l-1,0.5C409.4,138.8,409.3,138.9,409.2,139z M392.1,134.5
		c-0.3,0.2-0.5,0.5-0.8,1c-0.3,0.5-0.5,0.8-0.7,1c-0.1,0.1-0.4,0.4-0.8,0.8c-0.1,0.1-0.1,0.1-0.1,0.1c-0.2,0-0.3,0-0.3,0
		c-0.3,0.1-0.5,0-0.5-0.4c0-0.1,0-0.3,0-0.5c0-1,0.6-2.3,1.8-4c0.1-0.2,0.3-0.4,0.5-0.7c0.5-0.7,0.9-1.3,1-1.8
		c0-0.6,0.1-1.5,0.3-2.6c0.1-1.2,0.1-2.1,0.1-2.6c-0.5,0-1.1,0.1-1.9,0.3c-0.9,0.2-1.6,0.3-2,0.3c-0.8,0-1.5-0.1-2.1-0.4
		c-0.2-0.2-0.3-0.4-0.3-0.7c0.2,0,0.4,0,0.5-0.1c0.2-0.1,0.3-0.1,0.4-0.1c0.2,0,0.5,0,0.8,0.1c0.3,0.1,0.5,0.1,0.7,0.1
		c1.3-0.1,2.5-0.3,3.7-0.5c0.2,0,0.4-0.1,0.7-0.3c0.4-0.2,0.6-0.3,0.8-0.3c0.5,0,0.7,0.2,0.7,0.7c0,0.2-0.1,0.5-0.4,1.1
		c-0.4,0.8-0.5,1.4-0.5,1.8c0,0.2,0,0.3,0,0.4c0.3-0.1,0.5-0.4,0.5-1c0.1-0.6,0.4-1,0.8-1c0.4,0,0.5,0.3,0.5,0.8
		c0,0.4-0.2,1-0.7,1.8c-0.2,0.3-0.3,0.5-0.4,0.7c-0.2,0.3-0.5,0.9-1,1.8v0.7c0.3-0.3,0.7-0.8,1.2-1.5c0.7-1,1.3-1.7,1.8-2.1
		c0,0.3-0.2,0.7-0.5,1.4c-0.3,0.5-0.4,0.8-0.4,1l-1.6,2.3c0,0.2-0.1,0.4-0.3,0.7c-0.1,0.2-0.1,0.3-0.1,0.3v4.7h0.1l0.1-2.7
		c0.1-0.1,0.1-0.2,0.1-0.3c0.1-0.2,0.1-0.3,0.1-0.3c0.4,0.3,0.5,1.1,0.5,2.5c0,0.1,0,0.2,0,0.3c0,0.5,0,0.8,0,1.1c0,0,0,0.2-0.1,0.7
		c-0.1,0.4-0.1,0.6-0.1,0.7c0,0.3,0,0.6,0,1c0,0,0,0.2,0,0.5c-0.1,0.3-0.1,0.5-0.1,0.5c0.1-0.3,0-0.3-0.3-0.1c0,0,0,0,0,0.1
		c0.1,0.6-0.1,1-0.5,1c-0.6-0.1-1-2.1-1.1-6.2c0-0.1,0-0.4,0-1C392.2,134.9,392.1,134.5,392.1,134.5z M408.4,139
		c-0.4,0-0.9,0.1-1.5,0.3c-0.8,0.3-1.4,0.4-1.8,0.3c-0.2,0-0.7,0.1-1.6,0.4c-1,0.3-1.6,0.5-1.8,0.5c0,0.1-0.1,0.1-0.3,0.1
		c-0.3,0-0.4,0-0.4-0.1c-0.1-0.1-0.1-0.3-0.1-0.7c-0.1-0.7-0.5-1.9-1.2-3.4c-0.4-0.7-0.6-1.3-0.7-1.6c0-0.1,0-0.3,0-0.5
		c-0.1-0.4-0.1-0.5-0.1-0.5c0-0.4-0.1-0.8-0.4-1.4c-0.4-0.7-0.5-1.3-0.5-1.6c0-0.3,0-0.5,0.1-0.7c0.2,0,0.3,0,0.4,0
		c0.5,0,0.8,0.5,1,1.4c0.2,0.6,0.4,1,0.5,1l0.1-0.1l1.2-0.5l5.6-1.8h0.1c0.3-0.1,0.7-0.2,1.4-0.3c1.3-0.4,2.2-0.5,2.9-0.5
		c1.6-0.2,2.6,0.3,2.9,1.5c0,0,0,0.1,0.1,0.4c0.2,0.5,0.3,0.7,0.3,0.8v0.1c0,0.5-0.2,1.7-0.7,3.6c0,0,0,0.2-0.1,0.5
		c-0.1,0.4-0.1,0.6-0.1,0.7c-0.3,0.1-0.4,0.5-0.4,1.1c-0.1,0.2-0.1,0.3-0.1,0.4c-0.4,0.6-0.6,1.2-0.7,1.8c0,0.1-0.2,0.5-0.5,1.1
		c-0.4,0.6-0.6,1-0.7,1.1c-0.2,0.4-0.4,0.5-0.7,0.5C409.7,142.4,409,141.2,408.4,139z"/>
	<path class="st1" d="M423.6,118.3c0-0.1,0-0.2,0-0.3c-0.1-0.2-0.1-0.3-0.1-0.3c0.1-0.1,0.1-0.2,0.1-0.3c0-0.2,0-0.3,0-0.4
		c1.5,0.5,3,1.6,4.4,3c0,0.3-0.1,0.4-0.3,0.4c-0.2,0-0.8-0.4-1.9-1.1c-0.5-0.4-0.9-0.5-1-0.5C424.1,118.5,423.7,118.3,423.6,118.3
		 M418.8,121.5c-0.1-0.2-0.1-0.3-0.1-0.4c0.1-0.4,0.3-0.5,0.5-0.5c0.4,0,0.8,0.1,1.4,0.4c0.5,0.3,1,0.4,1.2,0.4
		c0.9,0.1,2,0.1,3.3,0.1c0.5,0,1.3,0,2.2,0.1c0.9,0,1.6,0,2.1,0c0.3,0,0.7-0.1,1.2-0.3c0.5-0.1,1-0.1,1.2-0.1
		c0.3,0.1,0.5,0.3,0.5,0.7c0.1,0.5-0.1,0.7-0.5,0.7h-9.3C421.3,122.4,420.1,122,418.8,121.5z M442,122.1c0.1-0.3,0.2-0.5,0.4-0.8
		c0.1,0,0.2,0,0.3,0c0.3,0,0.7,0.2,1.4,0.7c0.2,0.1,0.3,0.1,0.3,0.1c0.1,0,0.4,0.2,1,0.5c0.5,0.3,0.9,0.5,1,0.5
		c0.4-0.1,0.6,0,0.7,0.4c0,0.4-0.2,0.5-0.5,0.5c-0.1,0-0.2,0-0.3,0l-3.7-1.4C442.2,122.6,442,122.3,442,122.1z M423.6,133.2
		c0,0.3,0.1,0.5,0.3,0.5c0.3,0,0.4-0.2,0.4-0.5c0-0.3-0.1-0.4-0.4-0.3C423.7,132.9,423.6,133,423.6,133.2z M427,134.6
		c0-0.3,0.1-0.5,0.4-0.5c0.2-0.1,0.4-0.1,0.5-0.1c0.5,0,1.2,0.5,1.9,1.5c0.4,0.5,0.6,0.8,0.8,0.8c0.2-0.1,0.3-0.1,0.3-0.1
		c0.2,0,0.3,0,0.3,0.1c0.2,0,0.3,0,0.4,0c-0.1,0.6-0.4,1-0.8,1.1c-0.7,0-1.4-0.5-2.1-1.4c-0.3-0.3-0.5-0.5-0.5-0.7
		c-0.1-0.2-0.3-0.3-0.7-0.4C427.3,134.8,427.1,134.7,427,134.6z M438.1,137.5c0-0.1,0-0.4-0.1-0.8c0-0.3,0-0.4,0-0.4
		c0-1.2,0-2.3,0-3.3c0,0-0.1,0.1-0.3,0.3c-0.1,0.2-0.2,0.3-0.3,0.3c-0.1,0.3-0.3,0.6-0.5,1.1c-1.1,1.9-2.1,3.3-3,4.2
		c-0.1,0-0.2,0-0.3,0c-0.3,0-0.4-0.2-0.4-0.7c0-0.8,0.2-1.4,0.7-1.6c0.1-0.1,0.1-0.1,0.1-0.1v0.7c0.2-0.1,0.3-0.3,0.4-0.5
		c0.1-0.1,0.1-0.2,0.1-0.3c0.5-0.5,0.7-0.9,0.8-1.2c0.2-0.3,0.8-1.4,1.8-3.4c0-0.2,0-0.4,0.1-0.5c0.2-0.4,0.3-0.6,0.3-0.8
		c0.1-0.2,0-0.3-0.3-0.3c-1.8,0.7-3.5,1.1-4.9,1.1c-0.3-0.1-0.4-0.3-0.4-0.5c0-0.2,0.1-0.4,0.4-0.7c0.2-0.1,0.4-0.1,0.5-0.1
		c0.2,0,0.4,0,0.5,0c1.6-0.2,3.1-0.6,4.4-1.2c0.2-0.1,0.3-0.4,0.3-1c0.1-0.8,0.4-1.2,0.8-1.2c0.3,0,0.5,0.1,0.8,0.4
		c0.4,0.3,0.6,0.4,0.8,0.4c0.2,0,0.4,0,0.7-0.1c0.3,0,0.5,0,0.5,0c0.4,0,0.5,0.1,0.5,0.4c-0.1,0.5-0.3,0.8-0.5,1l-2.2,1
		c-0.2,0.2-0.4,0.6-0.5,1.4c-0.1,0.8,0,2,0.1,3.4c0.1,1.3,0.1,2.2,0.1,2.9c0.1,1.3,1.1,2,3.1,2.2c1.8-0.1,2.9-0.5,3.1-1.1
		c0-0.4,0-0.7,0-1c0-0.4,0-0.9,0-1.6c-0.1-0.7-0.1-1.3-0.1-1.6c0-0.7,0.1-1.1,0.3-1.2c0.3,0.3,0.4,0.7,0.4,1.2
		c0.1,0.3,0.1,0.5,0.1,0.5c0,0.1,0,0.3,0.1,0.5c0.5,1.4,0.7,2.5,0.7,3.4c0.1,0.5-0.1,0.9-0.7,1.1l-2.7,0.8c-0.1,0-0.1,0-0.1,0
		s-0.2,0-0.5,0c-0.4,0.1-0.6,0.1-0.7,0.1c-2-0.1-3.3-0.8-3.8-2.1c-0.1-0.3-0.2-0.5-0.3-0.7C438.2,137.5,438.2,137.5,438.1,137.5z
		 M422.1,136.5c-0.2,0.8-0.3,1.7-0.3,2.7c0,0,0,0-0.1,0.1c0,0,0,0.1,0.1,0.4c0,0.2,0,0.3,0,0.4c0.2-0.1,0.3-0.1,0.3-0.1
		c0.1,0.2,0.1,0.4,0.1,0.5c-0.1,0.9-0.6,1.4-1.5,1.5c-0.3,0-0.4-0.3-0.4-0.8c0-0.1,0-0.1,0-0.1c0.1-1.3,0.2-2.1,0.4-2.6
		c0-1.3,0-2.5,0-3.7c0.1-0.3,0.2-0.5,0.3-0.5c0.1,0,0.1,0,0.1,0c0.2,0,0.4,0,0.5,0.1c0,0.1,0,0.1,0.1,0.1c0.7,1.4,1.5,2.6,2.3,3.7
		c0.1,0.2,0.2,0.4,0.4,0.5h0.1v-2.5c-0.1,0-0.1-0.1-0.1-0.3c0-0.5,0-0.9,0-1.2c-0.1,0-0.2,0-0.4,0c-0.2,0.1-0.4,0.1-0.5,0.1
		c-0.4,0-0.7-0.3-1.1-1c-0.1-0.3-0.2-0.5-0.3-0.5c-0.1-0.1-0.2-0.2-0.4-0.3c-0.2-0.1-0.3-0.3-0.3-0.5c0-0.2,0.1-0.4,0.4-0.7
		c0-0.4,0-0.7,0-1c0-0.6-0.1-1.6-0.4-2.7c-0.3-1.2-0.4-2.1-0.4-2.7c0-0.2,0-0.4,0.1-0.7c0-0.3,0-0.5,0-0.7c0.1-0.2,0.3-0.3,0.7-0.3
		c0.5,0.1,0.9,0.3,1,0.5c0,0.1-0.1,0.2-0.3,0.4c-0.2,0.2-0.3,0.4-0.3,0.5c0,0.6,0.1,1.5,0.4,2.7c0.4,1.5,0.5,2.5,0.4,3.1
		c0.2-0.1,1.2-0.5,3-1.2c1.3-1.1,2.1-2.1,2.5-2.9h0.1l0.7-1c0-0.1,0-0.1,0-0.1c0-0.2-0.3-0.3-1-0.3c-1.1,0-2.2,0.2-3.3,0.7
		c-0.1,0-0.2,0.1-0.4,0.3c-0.1,0.1-0.2,0.1-0.4,0.1c-0.5,0-0.8-0.1-0.8-0.4c0-0.3,0-0.5,0.1-0.7c1.7-0.7,3.5-1.1,5.3-1.1
		c1.2,0.1,1.8,0.4,1.8,0.8c0,0.5-0.4,1.2-1.2,2.1c-0.5,0.6-0.9,1.1-1,1.4c0,0,0,0,0.1,0.1c0.4,0.1,0.6,0.2,0.7,0.4
		c-0.2,0.1-0.3,0.3-0.4,0.7c-0.1,0.2-0.2,0.3-0.3,0.4c-0.2,0.1-0.6,0.2-1.2,0.4c-1.4,0.3-2,0.7-2,1.4c0,0.1,0,0.4,0.1,1
		c0.1,0.5,0.1,0.8,0.1,1c0,0.6,0,1.6,0,2.7c0.1,2.1,0.1,3.7,0,4.8c0,0.5-0.3,0.8-0.8,0.7c-0.2,0-0.5-0.8-1.1-2.3
		C423.1,138,422.5,136.8,422.1,136.5z"/>
	<path class="st1" d="M454.2,131.3c0-0.1,0-0.1,0-0.1c0.4-0.4,0.6-0.5,0.7-0.5c1.1-1.5,2-2.9,2.7-4.1l2.2-4.2
		c0.1-0.5,0.2-0.8,0.3-1.1c0-0.1,0-0.1,0-0.1c-0.3,0-0.6,0-1,0c0,0-0.3,0-0.8,0.1c-0.8,0.2-1.3,0.3-1.4,0.3
		c-0.4,0.1-0.9,0.1-1.6,0.1c-2.1,0.1-3.6,0.4-4.5,1c0,0.3-0.1,0.4-0.3,0.4c-0.2,0.1-0.4,0.1-0.5,0.1c-0.8-0.1-1.2-0.3-1.2-0.7
		c0-0.1,0.1-0.3,0.4-0.5c0.7-0.4,1.1-0.6,1.2-0.7h0.1c0.4-0.1,1.4-0.2,3-0.4c4.6-0.5,6.9-1.1,7-1.5c0-0.1,0-0.3,0.1-0.7
		c0.1-1.6,0.4-2.3,0.8-2.3c0.5,0,0.7,0.2,0.7,0.5c0,0.6,0,1-0.1,1h-0.1c0,0.5,0,0.9-0.1,1.1c0,0.2,0,0.3,0,0.3h0.4
		c0.1,0,0.7-0.1,1.9-0.3c1.4-0.2,2.2-0.3,2.6-0.3c0.3,0,0.7-0.1,1.2-0.3c1.6-0.3,2.9-0.4,3.8-0.4c0,0,0.2,0,0.5,0
		c0.5,0.1,0.9,0.1,1,0.1c0.3,0,0.4,0.1,0.4,0.4c-0.3,0.8-0.7,1.3-1.4,1.5c-0.2,0-0.3-0.1-0.4-0.4c-0.2-0.3-0.4-0.4-0.5-0.4
		c-0.3,0-0.5,0-0.8,0c-0.3,0-0.5,0-0.7,0c-1,0.2-2.4,0.4-4.2,0.5c-0.1,0-0.3,0-0.7,0.1c-1.6,0.2-2.6,0.4-3,0.7
		c-0.1,0.1-0.2,0.2-0.4,0.4c-0.1,0.3-0.2,0.5-0.4,0.5c-0.2,1.3-1,3.2-2.6,5.9c-0.1,0-0.1,0-0.1,0.1c-0.1,0.1-0.1,0.1-0.1,0.1
		c-0.1,0.1-0.4,0.5-0.8,1.2c-0.5,0.7-0.7,1.2-0.8,1.4c-0.2,0.1-0.4,0.3-0.5,0.5c-0.5,0.5-0.9,0.8-1.2,0.8
		C454.5,131.6,454.3,131.5,454.2,131.3 M463.1,130.6c0,0.4,0,1,0,1.8c-0.1,0.8-0.1,1.5-0.1,1.9c0,0,0,0,0,0.1l0.5-0.3l4.5-1.5
		c0.3-0.1,0.4-0.4,0.4-1c0-4.3-0.1-7.5-0.4-9.6c-0.1,0-0.2,0-0.3,0c-2.8,0.7-4.4,1.6-4.8,2.7v2.3c0.2,0.2,0.2,0.5,0.1,1.1
		c0,0.2,0,0.3,0,0.3c0.5-0.1,1-0.1,1.6-0.1c0.1,0,0.2,0,0.4,0c1.7-0.1,2.6,0.3,2.6,1.2c0,0.2,0,0.3,0,0.4c0,0,0,0-0.1,0.1
		c-0.1,0-0.3-0.1-0.5-0.3c-0.5-0.3-1-0.4-1.5-0.4c-0.6,0.1-1.2,0.2-1.8,0.4c-0.1,0.1-0.2,0.2-0.3,0.4
		C463.4,130.5,463.3,130.6,463.1,130.6z M459.8,143.5c0-0.4,0-0.6,0-0.8c0.1-0.1,0.1-0.2,0.1-0.3c0.1-0.5,0.2-1,0.4-1.5
		c0.2,0,0.3,0.1,0.3,0.4c0,0.4,0,0.8,0,1.2c0.1-0.3,0.2-0.7,0.3-1.2c0.1-0.4,0.1-0.6,0.1-0.7c0-0.3,0.1-1.1,0.3-2.5
		c0.1-1.5,0.1-2.3,0.1-2.5c0.3-0.3,0.4-0.8,0.3-1.5c0-0.3,0-0.5,0-0.5c0-0.1,0-0.5,0.1-1.4c0-0.5,0-0.8,0-0.8c0-0.4,0-0.9,0-1.5
		c0-1.2-0.1-2.2-0.3-3c-0.1,0-0.2,0.1-0.3,0.3c0,0.3-0.1,0.4-0.3,0.4c0,0,0,0,0-0.1c0-0.1,0-0.3-0.1-0.5c0-0.3,0-0.4-0.1-0.4
		c0-0.1,0-0.1,0-0.1c0-0.3,0.1-0.6,0.3-1.1c0.3-0.5,0.4-1.1,0.3-1.6c0.2-0.2,0.5-0.3,1-0.4c0.3,0,0.5,0,0.5-0.1
		c0.3-0.2,0.7-0.4,1.4-0.7c1.6-1,2.8-1.5,3.8-1.5c0.8,0,1.3,0.2,1.4,0.7c-0.1,1.7-0.1,4.3,0,7.7c0.1,2.3,0.1,4,0.1,5.1
		c0.1,0.5,0.1,1,0,1.6c0,0.5,0,0.8,0,1c0,0.7,0,1.9,0.1,3.6c0,1.5,0,2.6,0.1,3.3c0,0.3-0.1,0.5-0.3,0.5c-0.1,0.3-0.3,0.4-0.5,0.3
		c-0.2,0-0.4-0.2-0.7-0.7c-0.2-0.3-0.3-0.5-0.4-0.5c-0.1-0.1-0.2-0.2-0.3-0.4c-1.5-2.3-2.3-4.1-2.3-5.3c0-0.2,0-0.4,0-0.5l0.3,0.3
		l1.1,2.6c0.5,0.4,1,1,1.6,1.8h0.1c0.1-0.4,0.1-0.6,0.1-0.8c0-3.2-0.1-5.6-0.3-7.4l-2.1,1c-0.1,0.1-0.3,0.2-0.7,0.3
		c0,0-0.1,0-0.4,0.1c-1.2,0.6-1.9,1-2,1.1c0,0.2-0.1,0.3-0.4,0.3c-0.1,0.1-0.3,1.6-0.5,4.4c-0.2,1.2-0.3,1.9-0.3,2.1
		c-0.1,0.3-0.3,1-0.5,2.2l-0.7,0.8h-0.1c-0.5,0-0.8-0.6-0.7-1.9C459.8,143.6,459.8,143.5,459.8,143.5z"/>
	<path class="st1" d="M491.9,132.1c1.4,0.8,2.6,1.8,3.8,2.9c0-0.3,0.1-0.4,0.3-0.4c0.4-1.1,0.8-2.1,1.4-3.1l0.1-0.1l1.1-1.9l0.1-0.1
		c0-0.1,0.2-0.5,0.5-1.1c0.1-0.1,0.1-0.2,0.1-0.3c0,0,0,0-0.1,0c-0.4,0-1.3,0.5-2.9,1.4c-0.8,0.5-1.3,0.7-1.5,0.8
		c-0.8,0.5-1.4,0.9-1.8,1c0,0-0.1,0.1-0.3,0.3C492.4,131.8,492,132,491.9,132.1 M488.8,144.4c0.1-0.8,0.2-1.4,0.4-1.8
		c0,0.1,0,0.5,0.1,1.1c0.1,0.5,0.1,0.9,0.1,1c0,0.5,0.1,0.8,0.3,0.8c0.1,0,0.1,0,0.1,0c0.1-0.1,0.1-0.1,0.1-0.1
		c1.4-1.9,2.5-3.9,3.4-6l0.1-0.1l1.6-3c0-0.1-0.6-0.7-1.9-1.8c-0.4-0.4-0.6-0.6-0.7-0.7c-0.5-0.3-1.2-0.4-2-0.4l-0.1-0.1l-1.1,0.5
		c0,0,0,0-0.1,0c-0.3,0-0.4-0.2-0.4-0.7c0-0.1,0-0.2,0-0.3c1.8-1.2,3.5-2.5,5.1-3.8c0.2-0.2,0.5-0.5,1-0.8c0.5-0.6,1-1.1,1.4-1.2
		c0.2-0.1,0.3-0.1,0.3-0.1c0.5-0.4,1.1-1,1.8-1.8c0.5-0.5,0.8-1,1.1-1.2h-0.1c0,0,0,0-0.1,0c-0.1,0-0.2,0-0.4,0.1
		c-2,0.8-3.8,1.1-5.5,0.8c-0.2,0.2-0.5,0.5-0.8,1.1c-0.3,0.5-0.5,0.9-0.8,1.1l-1.9,3.1c0,0-0.1,0-0.3,0.1c-0.2,0.2-0.3,0.3-0.4,0.3
		c-0.3,0-0.4-0.2-0.4-0.5c0-0.6,0.2-1.2,0.7-1.8c0.3-0.4,0.5-0.7,0.5-1c0-0.7,0.1-1.1,0.4-1.1c-0.2,0.3-0.3,0.5-0.3,0.8
		c0,0.1,0,0.2,0,0.4c0.2-0.2,0.3-0.3,0.3-0.3c0.5-0.5,1.1-1.3,1.9-2.5v-0.1c-0.2-0.3-0.5-0.5-1-0.5c0,0,0,0-0.1,0.1l-0.4,0.7
		c0.1-0.4,0-0.8-0.1-1.2c-0.2-0.4-0.3-0.6-0.3-0.8c0.1-0.5,0.3-0.7,0.7-0.8c0,0,0.1,0,0.3,0.1c0.1,0,0.1,0,0.1,0.1
		c0.5,0.9,1,1.4,1.5,1.4c0.1,0,0.1,0,0.1-0.1c0.1-0.1,0.3-0.4,0.7-0.8c0.5-0.5,0.7-0.8,0.7-0.8c0-0.1,0.1-0.3,0.4-0.5
		c1.2-1.5,1.8-2.5,1.8-2.9c-0.3-0.1-0.5-0.1-0.8-0.1c-1.1,0-2.5,0.2-4.2,0.5c-0.8,0.2-1.4,0.3-1.8,0.4c-0.1,0-0.2,0-0.3,0
		c-0.4,0-0.5-0.2-0.5-0.7c0-0.3,0.2-0.5,0.7-0.7c0.4-0.2,0.6-0.4,0.7-0.5c0.7-0.5,1.6-1.1,2.7-1.9c1.7-1.5,3.1-2.2,4-2.2v1.1
		c0,0.1-0.3,0.2-1,0.4c-0.7,0.3-1.1,0.5-1.2,0.5c-0.3,0.2-0.6,0.5-1.1,1c-0.5,0.5-1,0.8-1.2,1c0,0-0.1,0-0.3,0.1
		c-0.4,0.2-0.6,0.3-0.7,0.4c0.2-0.1,0.3-0.1,0.4,0c0,0.1,0,0.1,0.1,0.1c1.2-0.5,2.4-0.7,3.6-0.7c0.2,0,0.6,0,1.2,0.1
		c0.6,0.1,1.1,0.1,1.2,0.1c0.1,0.1,0.1,0.2,0.1,0.4c0,0.5-0.4,1.3-1.1,2.2c-0.1,0.1-0.2,0.2-0.3,0.3c-0.2,0.4-0.8,1.1-1.8,2.2
		c-0.4,0.4-0.5,0.6-0.5,0.8c0,0.1,0,0.1-0.1,0.1c-0.1,0.1-0.1,0.2-0.1,0.3c0,0.1,0,0.2,0.1,0.3c1.9,0,3.3-0.2,4.2-0.5
		c0.7-0.1,1.2-0.2,1.4-0.3c0.4-0.3,0.5-0.5,0.5-0.5c0.1,0,0.1,0,0.1,0c0.5,0,0.7,0.1,0.7,0.4c0,0.5-0.4,1-1.2,1.6
		c-0.2,0.2-0.3,0.3-0.4,0.4c-0.5,0.5-1.6,1.5-3,2.9v0.1l4.2-1.9c0.1,0,0.1,0,0.1,0c0.5,0,0.8,0.2,0.8,0.5v0.1
		c-0.2,0.4-0.5,0.9-1,1.5c-0.5,0.6-0.9,1.1-1.1,1.5c-0.3,0.8-0.8,2-1.6,3.4c-0.5,0.9-1,1.6-1.2,2c0,0.1,0,0.1-0.1,0.1
		c-0.1,0.1-0.1,0.3-0.1,0.5c0,0.1,0,0.1,0,0.1c0.1,0,0.2,0.1,0.4,0.3c0.3,0.2,0.4,0.3,0.4,0.4c0.3,0.3,0.6,0.6,1,1.1
		c0.4,0.5,0.6,0.8,0.8,1c0.1,0.1,0.3,0.3,0.7,0.5c1.4,1.3,2.1,2.1,2.1,2.3h0.3c-0.2,0.5-0.5,0.9-0.8,1c-0.2,0-0.3,0-0.4,0
		c-0.6-1.1-1.8-2.5-3.4-4.1c-0.6-0.6-1.1-1.1-1.4-1.5l-0.3,0.3c-0.2,0.4-0.5,0.9-1,1.6c-1.6,2.8-3.1,5.3-4.2,7.4
		c-0.1,0.1-0.2,0.3-0.4,0.5c-0.3,0.5-0.5,0.7-0.7,0.7c-0.4-0.1-0.6-0.7-0.7-1.9C488.8,144.9,488.8,144.5,488.8,144.4z"/>
	<path class="st1" d="M525,120c0,0.2,0.1,0.3,0.3,0.3c0.1-0.1,0.1-0.1,0.1-0.1l0.1,0.1c0.1,0,0.2,0,0.4-0.1c0.2,0,0.3,0,0.3,0
		c0.1-0.1,0.1-0.1,0.1-0.1l-1.2-0.5C525.1,119.7,525,119.9,525,120 M524.9,136.6c0-0.2,0-0.3,0.1-0.4l3.1-0.8
		c0.1,0.1,0.3,0.1,0.7,0.1c0.5,0,0.9,0.1,1,0.3c0,0.4,0,0.6-0.1,0.7c-0.4,0-0.8,0-1.2,0c-0.5,0.1-0.7,0.2-0.8,0.3
		c-0.1,0-0.2,0-0.4,0.1c-0.5,0.1-0.7,0.2-0.8,0.4h-1.2C525,137.2,524.9,137,524.9,136.6z M529.7,140.7c0.5,0.8,1,1.5,1.6,1.9
		c0-0.1,0-0.3,0-0.5c0-0.1,0-0.2,0-0.4c0.1-1.5,0-2.3-0.3-2.6v-4.5c0.1-0.3,0.1-0.5,0.1-0.7c-0.1-1.3-0.5-2-1.1-2.1
		c-0.2,0-0.5,0-0.8,0.1c0.2-0.1,0.1,0-0.3,0.1l-3.4,2.1l-1.1,1c0,0.1,0,0.2,0,0.3c-0.1,0.6-0.1,1.3,0,1.9c-0.1,0.2-0.1,0.4,0,0.7
		c0,0.3,0,0.7-0.1,1.4c-0.1,0.6-0.1,1.1-0.1,1.5c0,0.2,0,0.4,0,0.7l0.3,0.1c0.2-0.3,1-0.6,2.5-1.1c0.8-0.3,1.2-0.5,1.2-0.5
		c0-0.2,0-0.4-0.1-0.5c-0.1-0.2-0.1-0.3-0.1-0.4c0,0,0-0.1,0-0.3c0,0.1,0.1,0.2,0.3,0.3c0.1,0.1,0.2,0.2,0.3,0.4
		c0.1,0.2,0.2,0.3,0.3,0.3c0.2,0,0.5-0.1,0.8-0.3c0.4-0.1,0.6-0.1,0.8-0.1c0.3,0,0.4,0.2,0.4,0.5c0,0,0,0,0,0.1L529.7,140.7z
		 M528.7,141.2c-0.1,0-0.4,0.1-0.8,0.4c-0.1,0.1-0.2,0.1-0.3,0.1c-0.2,0.1-0.7,0.3-1.5,0.5c-0.5,0.1-0.9,0.2-1.1,0.3
		c-0.2,0-0.3-0.1-0.4-0.4c-0.1-0.1-0.1-0.1-0.1-0.1c-0.1-0.1-0.2-0.1-0.3,0v0.7c-0.1,0-0.2,0-0.3,0.1c-0.1,0.2-0.2,0.3-0.4,0.3
		c-0.3,0-0.4,0-0.4-0.1c-0.5-1.3-0.7-3.3-0.8-6c0-0.5,0.1-1,0.4-1.6c0.3-0.5,0.4-0.8,0.4-1.1c0-0.2,0-0.5-0.1-0.8
		c-0.2-0.8-0.3-1.4-0.3-1.8c0-0.3,0-0.5,0-0.5c0.1-0.1,0.1-0.1,0.1-0.1c0.1,0,0.2,0,0.4-0.1c0.3,0,0.4,0,0.4,0
		c0.2-1.6,0.3-3.1,0.3-4.7c-0.8,0-1.5,0.3-2,0.8l-7,6.8c-0.1-0.1-0.2,0-0.4,0.3c-0.3,0.2-0.5,0.3-0.5,0.3c-0.5,0-0.8-0.2-0.8-0.5
		c0-0.3,0.3-0.5,0.8-0.7c0.1,0,0.2,0,0.3,0l6-5.9c0.3-0.5,0.5-0.8,0.8-1c0.8-0.9,1.7-1.8,2.6-2.6c0.1-0.4,0.2-0.7,0.4-1
		c0,0,0-0.1-0.1-0.4c-0.1-0.4-0.1-0.6-0.1-0.7c-0.4,0.1-1,0.2-1.8,0.3c-0.2,0-0.5,0-0.8,0.1c-1.1,0-1.8,0.1-2,0.4l-2.5,0.4
		c-0.7,0.1-1.1-0.1-1.2-0.7c0-0.3,0-0.5,0.1-0.7c0.1,0,0.2,0,0.4,0c0.2,0,0.4,0,0.5,0c0.3,0.1,0.5,0.1,0.5,0.1
		c0.8,0,3.1-0.4,6.7-1.2v-1.9c-2.5-0.5-3.6-1-3.6-1.6c0.1,0,0.2,0,0.3,0c0,0,0-0.1,0.1-0.3c0-0.1,0-0.1,0.1-0.1
		c1.1,0.7,2.8,1.1,5.1,1c0.1,0.1,0.2,0.2,0.4,0.3c0.2,0,0.3,0.2,0.3,0.5c0,0.3-0.1,0.5-0.4,0.5c-0.2,0-0.4,0-0.5-0.1
		c-0.1-0.1-0.2-0.1-0.3-0.1c0,0,0,0,0,0.1c-0.1,0-0.1,0,0,0.1l1.8,0.8c0.2-0.1,0.5-0.1,1,0c0.3,0.1,0.5,0.1,0.7,0.1
		c0.3,0,0.5,0,0.7-0.1l3,0.3c0.3,0,0.4,0.1,0.3,0.4c-0.1,0.4-0.3,0.6-0.7,0.7c-0.9,0-1.8,0-2.7,0c-0.3,0.1-1.3,0.2-3,0.3
		c-0.3,0-0.5,0-0.8,0c0,0,0,0-0.1,0.1l-0.1,1.1c0.2,0.1,0.3,0.2,0.4,0.4c0.1,0.1,0,0.2-0.1,0.3c-0.1,0.1-0.1,0.1-0.1,0.1
		c0,0.1,0,0.2,0,0.4c-0.1,0.3-0.1,0.5-0.1,0.5c0,0.2,0,0.3,0,0.4c0.1,0.2,0.1,0.3,0.1,0.3h0.7c0.3,0,1,0,2.2-0.1c1,0,1.6,0,1.8,0
		c0.1,0,0.3,0,0.7,0c0.5,0.1,0.7,0.1,0.7,0.1c0.2,0,0.6,0,1.2,0.1c4.3,0.3,6.4,0.6,6.4,1.1c0,0,0,0-0.1,0c0,0.2,0,0.4,0,0.5
		c-0.8,0.5-1.7,0.8-2.7,0.8c-0.3,0-0.4-0.1-0.4-0.3c0-0.1,0-0.2,0.1-0.4c0.1-0.1,0.1-0.2,0.1-0.3c-0.2-0.2-1.7-0.4-4.5-0.5
		c-0.1,0-0.5,0-1.4-0.1c-0.8,0-1.3,0-1.4,0c-0.3,0-0.7,0-1.4,0c-0.5,0-1,0-1.5,0c-0.2,0.1-0.3,0.1-0.3,0.1c-0.1,0-0.2,0-0.3,0
		c-0.2,0.2-0.3,0.4-0.3,0.5c0,0.2,0,0.5-0.1,1.1c0,0.5,0.1,1,0.3,1.6c0.1,0.5,0.1,1,0.1,1.4c0,0.1,0,0.3,0,0.5c0,0.1,0,0.4,0.1,0.8
		c0,0.5,0,0.7,0,0.8l2.2-1.1l2.6-1.2c0.1,0,0.1,0,0.1,0c0.1,0,0.1,0,0.1,0c0.1,0,0.3,0,0.7,0.1l1.1,1.6c0.1,0.1,0.1,0.4,0.1,1
		c0,0.4,0,0.9-0.1,1.6c-0.1,0.7-0.1,1.2-0.1,1.5c0,1,0.1,2.5,0.3,4.5c0.1,0.8,0.1,1.4,0.1,1.8c0.2,0.6,0.3,1,0.3,1.1
		c0,0.1,0,0.2,0,0.3c0,0.5-0.3,0.9-0.8,1.1c-0.5-0.3-1.1-1-1.8-2.2C529.6,141.8,529.1,141.3,528.7,141.2z"/>
	<rect y="0" class="st2" width="640" height="177.9"/>
</g>
<g>
</g>
<g>
</g>
<g>
</g>
<g>
</g>
<g>
</g>
<g>
</g>
<g>
</g>
<g>
</g>
<g>
</g>
<g>
</g>
<g>
</g>
<g>
</g>
<g>
</g>
<g>
</g>
<g>
</g>
</svg>
