<?xml version="1.0" encoding="utf-8"?>
<!-- Generator: Adobe Illustrator 17.0.0, SVG Export Plug-In . SVG Version: 6.00 Build 0)  -->
<!DOCTYPE svg PUBLIC "-//W3C//DTD SVG 1.1//EN" "http://www.w3.org/Graphics/SVG/1.1/DTD/svg11.dtd">
<svg version="1.1" id="Layer_1" xmlns="http://www.w3.org/2000/svg" xmlns:xlink="http://www.w3.org/1999/xlink" x="0px" y="0px"
	 width="582.8px" height="135.7px" viewBox="0 0 582.8 135.7" style="enable-background:new 0 0 582.8 135.7;" xml:space="preserve"
	>
<style type="text/css">
	.st0{fill-rule:evenodd;clip-rule:evenodd;fill:#C5AE87;}
	.st1{fill:#AA192A;}
	.st2{fill:#3E3A39;}
</style>
<g id="page-2.svg">
	<path id="cloud" class="st0" d="M137.5,47.5c-2.8-6-5.1-7.8-9.3-11.6c0.2-0.4,0.3-0.9,0.5-1.2c8.7,0,10.2,1.8,10.5,11
		C138.2,47.3,138.2,47.3,137.5,47.5 M127.5,59.4c2.4-10.8-1.9-12-4.2-20.1c3.5,0,6.1,4.8,7.9,8.2c0.5,4.3,0.1,7.1-2,11.6
		C128.6,59.2,128,59.3,127.5,59.4z M110.6,70.7c-0.3-0.3-0.7-0.5-0.9-0.8c0-4.5,1.9-9.7,2.5-14.1c-0.3-2.5-0.7-4.8-1-7.2
		c-3.1-5.6-3.1-5.6-4.6-9.4c12.7,1.4,17.9,3.7,17.9,18.2C122,63.9,116.7,68.1,110.6,70.7z M41.7,81.7c-7.3-1.4-10.4-9-15-10.8
		c-3.6,7-3.1,7.5-9.9,8.5c-7.2-3.1-8-9-7-15.1c0.6,0,3.1-4.8,3.6-5.4c7.6-5.1,8.8-6.5,18.4-3.7c-4.2-12.7-2.5-14.4,3.6-25.8
		c5-3.2,8.1-5.1,14.4-6.3c14.5,0,21.9,3.9,21.2,20.3c11.7-5.7,22.1-6.4,30.7,5.4c0.6,2.3,1.3,4.6,2,6.9
		c-0.6,11.1-6.8,23.1-18.8,25.1c-10.7,0-15.9-1.4-16.7-11.7c1.5-6.9,3.6-7.9,10.1-9.2c8.5,3.6,6.3,7.3,4,14.8
		c6.2-1.3,6.8-7,7.3-11.9c-2.9-11.7-14-11.2-21.3-5.7c-0.6,0-1.2,0-1.7,0.1c-4.9-7.6-8.2-11.3-16.5-11.3c-11,5-13.3,8.5-11.6,20.9
		c1.2,1.4,2.4,2.7,3.6,4.2c0.5,0,1,0,1.6,0.1c-1.3-2.5-0.6-4.8-0.5-6.9c4.8-15.5,21.2-8.2,16.6,7.6C54.3,79,50.5,81.1,41.7,81.7z
		 M177.2,95.2c-4-1.7-5.1-1.4-6.1-5.2c3.7-5.4,8.8-11.8,5.3-18.1c0-0.7,0.1-1.3,0.2-1.9c5.4-2.7,11.5,1.5,15,6.3
		C196,87.9,188.2,93.8,177.2,95.2z M194.5,96.1c0.6-2.5,2-4.8,2.6-7.1c5.3-7.6-1.3-17.1-5.5-21.8c-0.1-0.4-0.2-0.8-0.2-1.2
		c7.8-3.5,8.2-2.6,16.4,0.4c5.1,5.6,8.3,11.5,3.7,19.5C206.2,92,202.3,95,194.5,96.1z M122.3,119.8c-5.3-1.2-12.3-4.8-4.5-7.6
		c8.2-7.3,8.8-11.3,4.6-20.9c-14.8-14.8-29,9.3-18.1,11.4c-0.6-5.8,2.7-10.7,8.8-9.3c2.5,1.5,4.1,2.6,6,5.9c0,5.1-4.1,8.7-8,11.4
		c-10.3,1.2-19.9-0.9-22.4-10.8c0-7-1-10.7,5.8-13.2c1.8-1.4,3.6-2.6,5.4-3.9c5.3-5.6,5-7.2,13.8-5.6c3.7,2,7.5,5,10.8,9
		c0.4-0.2,0.8-0.3,1.3-0.3c2-9.8,5.1-16.5,12.1-23.5c7.6-4.5,13.8-3.5,22.7-0.7c4.6,4.3,9.3,9.4,8.8,17.3
		c-3.2,10.5-5.8,12.2-15.2,16.8c-10.1,0.4-12.3-2-12.3-10.9c2.7-8.2,13.1-8.2,12.4,2.4c0.3,0,0.7,0,1,0.1c4.1-7.3,1.7-12.8-5.4-15.3
		c-13.2,0-16.2,6.5-16.7,18.2c4.8,12.4,11.6,14.8,25.2,12.1c9.4-5.9,10.2-6.9,11-7c1.4,5.1-1.2,11.6-4.4,15.9
		c-7.8,5.6-12.1,5.3-19.7,1.9c-2-1.4-3.1-2.7-5-2.7C134.2,116.9,130.6,119.5,122.3,119.8z M150.4,129.2c-3.7-0.5-7.6-1.3-10.6-2.3
		c-8.6-4.6-0.4-3.1,2.5-7c2.9-0.4,6.9,1.2,10.7,1.8c10.9-1.4,15.8-4.9,21.2-15c0.3-2.3,0.7-4.6,1.1-6.9c3.7-0.9,12.2-0.4,16.5,0.3
		c1.3,0.8,2.9-0.1,5.2,1c-0.4,6.7-8,11.7-12.3,15.6c3.8,5.1,18.3,8,25.8,8.9c0,0.3,0.1,0.5,0.2,0.9c-13.3,3.6-26.2,3.1-36.3-5.4
		c-4.5,3-8.8,4.9-13.3,6.9C157.4,128.4,153.9,128.8,150.4,129.2z M196.5,135.7c-1.2-1.2-13-1.3-14.7-1.4c-3.1-1.2-6.2-2.4-9.3-3.5
		c-15.6,6.4-32.9,6.2-45.8-4.1c-8.8-1-13.4-7.4-19.7-8.9c-2,0.2-4.1,0.4-6.1,0.7c-15.7-2.5-22.8-11.1-21.2-26.9
		c-0.2-0.8-0.3-1.5-0.3-2.2c-3.1-1-6.1-2-9.1-3c-6.8-4.8-4.8-4.1-10.8,1.4c-8.8,4.8-18,3.3-25.9-1.4c-3.1,0-3.7,0.7-5.9,1.8
		c-13.6,2.9-16.4,2.5-25.5-6.6c-4-9.7-2-16.1,1.9-24.8c2.5-2.2,5.1-4.4,7.6-6.6c2.4-1.4,4.2-2.2,7.1-3.5c0.5-2,0.5-2,1.3-11.8
		c1.2-2.5,2.5-4.9,3.7-7.4c4.7-3.9,9.7-7.4,14.4-11.2c10-4.2,18.5-6,29,0.3c4.3,4.2,8.4,8,12,13.9c3.1,0.2,5.2-0.3,9.7-0.3
		c4,0.6,8.3,3.7,13.1,3.7c6.8-4.1,11.7,0.1,18.9,0.4c11.6-7.1,20.8-5.9,25.3,8.7c0.1,2.9,0.2,5.8,0.3,8.7c1.8,0.7,5.2,0.5,7.8,0.6
		c7.6,1.5,11.9,5.9,16.8,12.6c2.6,0.3,7.4-1.3,10.9-2c4.2-8.3,17.1-8.7,25.1-6.3c2.5,1.8,5.2,3.6,7.8,5.4c6.1,9.3,9.1,14.5,4,26
		c-1.6,2.4-5.7,7-8.1,7.4c0,0.2,0,0.3,0,0.6c-6.3,3.1-4.3,4.7-6.3,11.1c-1.4,2-2.6,5.1-4.3,7.6c0,4.8,14.8,4.8,19.4,4.8
		c4.7-0.6,9.2-3.3,13.3-5.9c2.2-2.1,2.2-2.1,3-2.4c-6.4,17.8-18.5,21-35.6,24C198.7,135.3,197.6,135.2,196.5,135.7z"/>
	<path id="fu_1_" class="st1" d="M237.9,3.1c8.7,3.4,14,6.1,15.8,8.1c0.7,1.5,0.3,3.4-1.3,5.9c-0.9,1-1.5,1.5-2,1.3
		c-0.6-0.1-1.2-0.8-1.8-2c-2.3-4.7-6.1-8.9-11.2-12.7c-0.1-0.1-0.1-0.3,0-0.4C237.4,3.1,237.6,3.1,237.9,3.1 M224.7,1.8l5.7,3.7
		c0.3,0.3,0.3,0.5,0,0.7l-1.5,1.3c-6.4,6.9-12.9,12.6-19.5,17.3c-0.4,0.1-0.6,0-0.4-0.4c7.4-6.6,12.5-13.9,15.1-22.1
		C224.4,1.8,224.6,1.6,224.7,1.8z M239.8,15.5l6.8,3.3c0.3,0.1,0.2,0.4-0.2,0.7l-1.3,1.3c-2.5,5.5-5.5,10.3-9,14.2
		c5.8,4.1,13.6,7.6,23.2,10.5c0.4,0.1,0.5,0.4,0.2,0.7c-2.8,0.1-5.6,1.8-8.5,5c-8.8-4.2-14.8-8.5-18.2-12.7
		c-5.7,5.4-14.2,10.2-25.6,14.4c-0.3,0.1-0.4,0.1-0.4-0.2c-0.1-0.3-0.1-0.5,0.2-0.7c10.5-4.7,18.2-10.2,23.2-16.6
		c-3.5-4.8-6-10.8-7.4-17.9l0.7-0.4c1.3,5.7,4.4,10.7,9.2,15.1C236,27.2,238.4,21.7,239.8,15.5z"/>
	<path id="ai" class="st1" d="M274.2,8.3c2.6,2,4,3.9,4.2,5.5c-0.4,1.5-1.3,2.3-2.6,2.4c-0.9-0.1-1.4-0.7-1.5-1.5
		c0.3-2.8,0.1-4.7-0.4-5.9C273.8,8.3,273.9,8.2,274.2,8.3 M283.2,7.9c3.2,1.9,4.7,3.7,4.4,5.3c-0.4,1.2-1.3,2-2.6,2.4
		c-1,0-1.6-0.4-1.8-1.3c0.4-2.8,0.3-4.8-0.4-6.1C282.7,7.8,282.9,7.7,283.2,7.9z M294.1,33.3l-12.7,0.4c1.6,2.8,3.7,5.2,6.3,7.2
		C289.8,38.7,291.9,36.2,294.1,33.3z M293.7,0l3.1,4.4c0.1,0.4,0,0.7-0.4,0.7c-8,1-16.2,1.8-24.5,2.4c-0.3,0-0.4-0.1-0.4-0.2
		c-0.1-0.1-0.1-0.3,0.2-0.4C280.9,5,288.3,2.8,293.7,0z M295.2,6.6l4.8,3.1c0.4,0.3,0.4,0.6-0.2,0.9l-1.1,0.7l-7.4,5.2l9-0.4
		l2.6-1.7l5,5c0.3,0.3,0.4,0.6,0.2,0.9c0,0.3-0.3,0.4-0.9,0.4c-3.1-0.1-5.5,0.5-7.4,2c-0.4,0.1-0.7,0-0.7-0.4l1.3-4.8l-30.6,0.9
		c-0.6,3.2-2.3,5.8-5,7.7c-0.6,0.4-1,0.4-1.1-0.2c-0.4-1.9-0.4-3.3,0.2-4.2c1.9-1.3,2.8-3.4,2.6-6.1c0-0.4,0.1-0.7,0.2-0.7
		c0.1-0.1,0.4-0.1,0.9,0.2c0.9,0.6,1.5,1.3,2,2.2l20.6-0.7C292.7,12.2,294.3,8.9,295.2,6.6z M273.6,27.6c-2.3,0.1-4.4,0.4-6.1,0.7
		l-1.8-1.5l11.8-0.2c0.9-2.5,1.5-5.1,2-7.9l5,2.2c0.4,0.1,0.4,0.4,0,0.9l-0.9,1.5c-0.3,1.2-0.7,2.2-1.1,3.1l16.4-0.2l3.3-3.5
		l4.4,3.9c0.3,0.3,0.3,0.4,0,0.4l-24.5,0.4c-0.6,1.9-1.5,3.7-2.6,5.3l14.7-0.4l2.4-2.6l4.4,2.8c0.4,0.3,0.4,0.6-0.2,0.9l-1.5,1.3
		c-2.8,3.1-5.5,5.9-8.3,8.5c4.8,2.5,10.6,4.3,17.5,5.5c0.4,0.3,0.5,0.6,0.2,0.9c-2.3,0.1-4.7,1.7-7.2,4.6c-5.4-2.5-9.9-5.4-13.4-8.8
		c-4.7,2.9-12,5.7-21.9,8.3c-0.6,0.3-0.7,0.1-0.4-0.4c9.8-3.4,16.5-6.8,20.1-10.3c-1.9-2.6-3.6-5.7-5-9.2l-2,0.2
		c-3.4,6-9.9,12.2-19.5,18.6c-0.7,0.1-0.9,0-0.4-0.4c9.2-6.9,15.2-15,18.2-24.5H273.6z"/>
	<path id="ru" class="st1" d="M320.2,33.3c0.4,0.1,1.2,0.4,2.4,0.9c1.5,0.6,2.6,1,3.3,1.3c2.3-5.5,3.8-12.3,4.4-20.1l-6.3,0.2
		L320.2,33.3z M343.8,12.5v26.3l7.9-0.2l-0.4-26H343.8z M332,11.4l4.6,2.4c0.4,0.1,0.5,0.4,0.2,0.7l-1.5,1.8
		c-0.9,8.7-2.9,15.7-6.1,20.8c3.5,1.9,5.8,3.4,7,4.6c0.7,2.2,0.3,4.1-1.3,5.7c-0.9,0.6-1.6,0.5-2.2-0.2c-1.3-2.6-3.1-5-5.5-7
		c-3.1,4.4-9,9.1-17.7,14.2c-0.4,0-0.6-0.2-0.4-0.7c7.9-5.3,13.1-10.4,15.8-15.5c-2.5-2-5-3.5-7.4-4.4l2.6-18.2h-0.9
		c-0.6,0-1.5,0.1-2.6,0.2c-1.2,0.1-2.1,0.3-2.8,0.4l-1.5-1.8h7.9l0.9-5.9c0.4-3.8,0.7-6.3,0.7-7.7l5.7,2c0.3,0,0.3,0.2,0,0.7
		l-0.9,1.1l-2.2,9.6L330,14L332,11.4z M352.8,8.5l5.2,3.1c0.3,0,0.3,0.1,0,0.4l-1.3,2l0.2,24.7l0.2,0.7c0.1,0,0.1,0.1,0,0.2
		c-3.2,0-7.7,0.1-13.3,0.2v4.4c-0.1,2.2-1.2,4.2-3.3,6.1c-0.7,0.6-1.2,0.5-1.3-0.2l0.2-12l0.2-23.6c0-0.7-0.1-2-0.2-3.9
		c0-0.9,0-1.5,0-1.7c0-0.1,0.1-0.2,0.4-0.2l4.2,3.1l6.8-0.2L352.8,8.5z"/>
	<path id="shan" class="st1" d="M372.8,47.3c-0.4,2-1.5,3.9-3.3,5.5c-0.7,0.3-1.2,0.1-1.3-0.4l0.2-11.8v-16l-0.2-10.7l5.9,2
		c0.3,0.1,0.3,0.4,0,0.7l-0.9,1.5l-0.4,27.1h11.6l0.2-34.4c0-3.8-0.1-7.1-0.4-9.9l7.2,2.2c0.4,0,0.5,0.3,0.2,0.9
		c-0.7,0.4-1.1,1.2-1.1,2.2l-0.2,39l10.7-0.2l0.2-24.5v-7.7l6.1,2.6c0.4,0.1,0.4,0.4,0,0.9l-0.7,1.5v17.1l0.2,8.5
		c-0.1,2.8-1.6,5.4-4.4,7.9c-0.6,0.4-1,0.3-1.3-0.4c-0.1-2-0.6-3.6-1.3-4.6l-27.1,0.2V47.3z"/>
	<g id="subtitle">
		<path class="st2" d="M224.3,81.8c0-0.1,0-0.1,0.1-0.1c0,0,0-0.1,0.1-0.3c0.2-0.2,0.4-0.6,0.7-1.4c0.1-0.4,0.2-1.2,0.3-2.5
			c0.1-1.6-0.3-3.5-1.2-5.8c-0.1,0-0.2,0-0.3,0c-0.1,0-0.2,0-0.3,0c-0.2,0.1-0.3,0.1-0.4,0.1c0.1-0.9,0.5-1.4,1.2-1.5
			c0.3,0,0.5,0.2,0.5,0.6c0.1,0.2,0.1,0.3,0.1,0.3c1.1,2.1,1.6,4.4,1.5,6.9c-0.3,2.6-0.9,3.9-1.8,4C224.5,82,224.3,81.9,224.3,81.8
			 M215.2,85.1c0-0.4,0.3-0.7,1-1c0.5-0.3,0.8-0.5,1-0.7c1.3-1.7,1.9-3.3,1.9-5.1c0-0.1,0-0.2,0-0.4c-0.1-0.2-0.1-0.3-0.1-0.4
			c0-0.3,0.2-0.4,0.7-0.4c0.6,0,0.8,0.3,0.8,0.8c0,0.2,0,0.3,0,0.4c-0.3,1.6-1,3.3-2.1,5.2c0,0.1,0.1,0.1,0.4,0.1
			c1.1,0,2.9-0.4,5.5-1.2c0.1-0.1,0.2-0.1,0.3-0.1c0.4-0.2,1.1-0.4,2.2-0.6c2.6-0.5,4-1,4.4-1.8l0.1-0.1c0.3,0,0.4,0.3,0.4,0.8
			c0,0.2,0,0.4-0.1,0.6c-0.1,0.1-0.1,0.2-0.1,0.3l-8.6,2.5c-0.1,0.1-0.2,0.1-0.4,0.1c-0.1,0-0.2,0-0.3,0c-0.8,0.2-2,0.5-3.6,1
			c-1.1,0.4-2,0.6-2.6,0.8c-0.2,0-0.3,0-0.3,0C215.4,85.9,215.2,85.6,215.2,85.1z M232,88.1c0.2-0.2,0.3-0.3,0.3-0.4
			c0.3-0.6,0.4-1.7,0.4-3.2c0-1.6-0.2-3.3-0.5-5.1c0-0.2-0.2-0.6-0.6-1.2c-0.4-0.7-0.6-1.2-0.6-1.4c0-0.4,0.2-0.6,0.6-0.6
			c0.7,0,1.3,0.7,1.6,2.1c0.1,0.2,0.1,0.3,0.1,0.4c0.5,1.3,0.6,3.3,0.5,6c0,0.6,0,1.2,0,1.6c0,1.6-0.4,2.3-1.2,2.3
			C232.3,88.7,232.1,88.4,232,88.1z"/>
		<path class="st2" d="M247.5,80.9c0-0.1,0-0.1,0-0.1c0.4-0.4,0.6-0.6,0.7-0.6c1.1-1.6,2-2.9,2.7-4.1l2.2-4.3
			c0.1-0.5,0.2-0.8,0.3-1.1c0-0.1,0-0.1,0-0.1c-0.3,0-0.6,0-1,0c0,0-0.3,0-0.8,0.1c-0.8,0.2-1.3,0.3-1.4,0.3
			c-0.4,0.1-0.9,0.1-1.6,0.1c-2.1,0.1-3.6,0.4-4.5,1c0,0.3-0.1,0.4-0.3,0.4c-0.2,0.1-0.4,0.1-0.6,0.1c-0.8-0.1-1.2-0.3-1.2-0.7
			c0-0.1,0.1-0.3,0.4-0.6c0.7-0.4,1.1-0.6,1.2-0.7h0.1c0.4-0.1,1.4-0.2,3-0.4c4.6-0.6,6.9-1.1,7-1.5c0-0.1,0-0.3,0.1-0.7
			c0.1-1.6,0.4-2.3,0.8-2.3c0.5,0,0.7,0.2,0.7,0.5c0,0.6,0,1-0.1,1h-0.1c0,0.6,0,0.9-0.1,1.1c0,0.2,0,0.3,0,0.3h0.4
			c0.1,0,0.7-0.1,1.9-0.3c1.4-0.2,2.2-0.3,2.6-0.3c0.3,0,0.7-0.1,1.2-0.3c1.6-0.3,2.9-0.4,3.8-0.4c0,0,0.2,0,0.6,0
			c0.6,0.1,0.9,0.1,1,0.1c0.3,0,0.4,0.1,0.4,0.4c-0.3,0.8-0.7,1.3-1.4,1.5c-0.2,0-0.3-0.1-0.4-0.4c-0.2-0.3-0.4-0.4-0.6-0.4
			c-0.3,0-0.6,0-0.8,0c-0.3,0-0.5,0-0.7,0c-1,0.2-2.4,0.4-4.3,0.5c-0.1,0-0.3,0-0.7,0.1c-1.6,0.2-2.6,0.4-3,0.7
			c-0.1,0.1-0.2,0.2-0.4,0.4c-0.1,0.3-0.2,0.5-0.4,0.6c-0.2,1.3-1,3.3-2.6,5.9c-0.1,0-0.1,0-0.1,0.1c-0.1,0.1-0.1,0.1-0.1,0.1
			c-0.1,0.1-0.4,0.5-0.8,1.2c-0.5,0.7-0.7,1.2-0.8,1.4c-0.2,0.1-0.4,0.3-0.6,0.6c-0.5,0.6-0.9,0.8-1.2,0.8
			C247.8,81.2,247.6,81.1,247.5,80.9 M256.4,80.2c0,0.4,0,1,0,1.8c-0.1,0.8-0.1,1.5-0.1,1.9c0,0,0,0,0,0.1l0.6-0.3l4.5-1.5
			c0.3-0.1,0.4-0.4,0.4-1c0-4.3-0.1-7.5-0.4-9.6c-0.1,0-0.2,0-0.3,0c-2.8,0.7-4.4,1.7-4.8,2.7v2.3c0.2,0.2,0.2,0.5,0.1,1.1
			c0,0.2,0,0.3,0,0.3c0.5-0.1,1-0.1,1.6-0.1c0.1,0,0.2,0,0.4,0c1.7-0.1,2.6,0.3,2.6,1.2c0,0.2,0,0.3,0,0.4c0,0,0,0-0.1,0.1
			c-0.1,0-0.3-0.1-0.5-0.3c-0.5-0.3-1-0.4-1.5-0.4c-0.6,0.1-1.2,0.2-1.8,0.4c-0.1,0.1-0.2,0.2-0.3,0.4
			C256.8,80.2,256.6,80.2,256.4,80.2z M253.1,93.2c0-0.4,0-0.6,0-0.8c0.1-0.1,0.1-0.2,0.1-0.3c0.1-0.6,0.2-1.1,0.4-1.5
			c0.2,0,0.3,0.1,0.3,0.4c0,0.4,0,0.8,0,1.2c0.1-0.3,0.2-0.7,0.3-1.2c0.1-0.4,0.1-0.6,0.1-0.7c0-0.3,0.1-1.1,0.3-2.5
			c0.1-1.5,0.1-2.3,0.1-2.5c0.3-0.3,0.4-0.8,0.3-1.5c0-0.3,0-0.5,0-0.6c0-0.1,0-0.6,0.1-1.4c0-0.6,0-0.8,0-0.8c0-0.4,0-0.9,0-1.5
			c0-1.2-0.1-2.2-0.3-3c-0.1,0-0.2,0.1-0.3,0.3c0,0.3-0.1,0.4-0.3,0.4c0,0,0,0,0-0.1c0-0.1,0-0.3-0.1-0.5c0-0.3,0-0.4-0.1-0.4
			c0-0.1,0-0.1,0-0.1c0-0.3,0.1-0.6,0.3-1.1c0.3-0.5,0.4-1.1,0.3-1.6c0.2-0.2,0.5-0.3,1-0.4c0.3,0,0.5,0,0.6-0.1
			c0.3-0.2,0.7-0.4,1.4-0.7c1.6-1,2.8-1.5,3.8-1.5c0.8,0,1.3,0.2,1.4,0.7c-0.1,1.7-0.1,4.3,0,7.7c0.1,2.3,0.1,4,0.1,5.1
			c0.1,0.5,0.1,1,0,1.7c0,0.5,0,0.8,0,1c0,0.7,0,1.9,0.1,3.6c0,1.5,0,2.6,0.1,3.3c0,0.3-0.1,0.5-0.3,0.5c-0.1,0.3-0.3,0.4-0.5,0.3
			c-0.2,0-0.4-0.2-0.7-0.7c-0.2-0.3-0.3-0.5-0.4-0.6c-0.1-0.1-0.2-0.2-0.3-0.4c-1.6-2.3-2.3-4.1-2.3-5.4c0-0.2,0-0.4,0-0.6l0.3,0.3
			l1.1,2.6c0.5,0.4,1,1,1.7,1.8h0.1c0.1-0.4,0.1-0.6,0.1-0.8c0-3.2-0.1-5.7-0.3-7.4l-2.1,1c-0.1,0.1-0.3,0.2-0.7,0.3
			c0,0-0.1,0-0.4,0.1c-1.2,0.6-1.9,1-2.1,1.1c0,0.2-0.1,0.3-0.4,0.3c-0.1,0.1-0.3,1.6-0.6,4.4c-0.2,1.2-0.3,1.9-0.3,2.1
			c-0.1,0.3-0.3,1-0.6,2.2l-0.7,0.8h-0.1c-0.6,0-0.8-0.6-0.7-1.9C253.1,93.2,253.1,93.2,253.1,93.2z"/>
		<path class="st2" d="M285.4,81.8c1.4,0.8,2.7,1.8,3.8,2.9c0-0.3,0.1-0.4,0.3-0.4c0.4-1.1,0.8-2.2,1.4-3.2l0.1-0.1l1.1-1.9l0.1-0.1
			c0-0.1,0.2-0.5,0.6-1.1c0.1-0.1,0.1-0.2,0.1-0.3c0,0,0,0-0.1,0c-0.4,0-1.3,0.5-2.9,1.4c-0.8,0.5-1.3,0.7-1.5,0.8
			c-0.8,0.5-1.4,0.9-1.8,1c0,0-0.1,0.1-0.3,0.3C285.8,81.4,285.5,81.7,285.4,81.8 M282.3,94.1c0.1-0.8,0.2-1.4,0.4-1.8
			c0,0.1,0,0.5,0.1,1.1c0.1,0.5,0.1,0.9,0.1,1c0,0.5,0.1,0.8,0.3,0.8c0.1,0,0.1,0,0.1,0c0.1-0.1,0.1-0.1,0.1-0.1
			c1.4-1.9,2.5-3.9,3.4-6l0.1-0.1l1.7-3c0-0.1-0.6-0.7-1.9-1.8c-0.4-0.4-0.6-0.6-0.7-0.7c-0.6-0.3-1.2-0.4-2.1-0.4l-0.1-0.1
			l-1.1,0.6c0,0,0,0-0.1,0c-0.3,0-0.4-0.2-0.4-0.7c0-0.1,0-0.2,0-0.3c1.8-1.2,3.5-2.5,5.1-3.8c0.2-0.2,0.5-0.5,1-0.8
			c0.6-0.6,1-1.1,1.4-1.2c0.2-0.1,0.3-0.1,0.3-0.1c0.5-0.4,1.1-1,1.8-1.8c0.5-0.6,0.8-1,1.1-1.2h-0.1c0,0,0,0-0.1,0
			c-0.1,0-0.2,0-0.4,0.1c-2,0.8-3.8,1.1-5.5,0.8c-0.2,0.2-0.5,0.5-0.8,1.1c-0.3,0.6-0.5,0.9-0.8,1.1l-1.9,3.2c0,0-0.1,0-0.3,0.1
			c-0.2,0.2-0.3,0.3-0.4,0.3c-0.3,0-0.4-0.2-0.4-0.6c0-0.6,0.2-1.2,0.7-1.8c0.3-0.4,0.5-0.7,0.6-1c0-0.7,0.1-1.1,0.4-1.1
			c-0.2,0.3-0.3,0.6-0.3,0.8c0,0.1,0,0.2,0,0.4c0.2-0.2,0.3-0.3,0.3-0.3c0.5-0.5,1.1-1.3,1.9-2.5v-0.1c-0.2-0.3-0.5-0.5-1-0.6
			c0,0,0,0-0.1,0.1l-0.4,0.7c0.1-0.4,0-0.8-0.1-1.2c-0.2-0.4-0.3-0.6-0.3-0.8c0.1-0.5,0.3-0.7,0.7-0.8c0,0,0.1,0,0.3,0.1
			c0.1,0,0.1,0,0.1,0.1c0.5,0.9,1,1.4,1.5,1.4c0.1,0,0.1,0,0.1-0.1c0.1-0.1,0.3-0.4,0.7-0.8c0.5-0.6,0.7-0.8,0.7-0.8
			c0-0.1,0.1-0.3,0.4-0.6c1.2-1.6,1.8-2.5,1.8-2.9c-0.3-0.1-0.5-0.1-0.8-0.1c-1.1,0-2.5,0.2-4.3,0.5c-0.8,0.2-1.4,0.3-1.8,0.4
			c-0.1,0-0.2,0-0.3,0c-0.4,0-0.6-0.2-0.6-0.7c0-0.3,0.2-0.5,0.7-0.7c0.4-0.2,0.6-0.4,0.7-0.5c0.7-0.5,1.7-1.1,2.7-1.9
			c1.7-1.5,3.1-2.2,4-2.2v1.1c0,0.1-0.3,0.2-1,0.4c-0.7,0.3-1.1,0.5-1.2,0.6c-0.3,0.2-0.6,0.5-1.1,1c-0.5,0.5-1,0.8-1.2,1
			c0,0-0.1,0-0.3,0.1c-0.4,0.2-0.6,0.3-0.7,0.4c0.2-0.1,0.3-0.1,0.4,0c0,0.1,0,0.1,0.1,0.1c1.2-0.5,2.4-0.7,3.6-0.7
			c0.2,0,0.6,0,1.2,0.1c0.6,0.1,1.1,0.1,1.2,0.1c0.1,0.1,0.1,0.2,0.1,0.4c0,0.6-0.4,1.3-1.1,2.2c-0.1,0.1-0.2,0.2-0.3,0.3
			c-0.2,0.4-0.8,1.1-1.8,2.2c-0.4,0.4-0.6,0.6-0.6,0.8c0,0.1,0,0.1-0.1,0.1c-0.1,0.1-0.1,0.2-0.1,0.3c0,0.1,0,0.2,0.1,0.3
			c1.9,0,3.3-0.2,4.3-0.6c0.7-0.1,1.2-0.2,1.4-0.3c0.4-0.3,0.6-0.5,0.6-0.5c0.1,0,0.1,0,0.1,0c0.5,0,0.7,0.1,0.7,0.4
			c0,0.5-0.4,1-1.2,1.6c-0.2,0.2-0.3,0.3-0.4,0.4c-0.6,0.5-1.6,1.5-3,2.9v0.1l4.3-1.9c0.1,0,0.1,0,0.1,0c0.6,0,0.8,0.2,0.8,0.6v0.1
			c-0.2,0.4-0.5,0.9-1,1.5c-0.5,0.6-0.9,1.1-1.1,1.5c-0.3,0.8-0.8,2-1.6,3.4c-0.6,0.9-1,1.6-1.2,2.1c0,0.1,0,0.1-0.1,0.1
			c-0.1,0.1-0.1,0.3-0.1,0.6c0,0.1,0,0.1,0,0.1c0.1,0,0.2,0.1,0.4,0.3c0.3,0.2,0.4,0.3,0.4,0.4c0.3,0.3,0.6,0.6,1,1.1
			c0.4,0.5,0.6,0.8,0.8,1c0.1,0.1,0.3,0.3,0.7,0.5c1.4,1.3,2.1,2.1,2.1,2.3h0.3c-0.2,0.6-0.5,0.9-0.8,1c-0.2,0-0.3,0-0.4,0
			c-0.6-1.1-1.8-2.5-3.4-4.1c-0.6-0.6-1.1-1.1-1.4-1.5l-0.3,0.3c-0.2,0.4-0.5,0.9-1,1.6c-1.7,2.8-3.1,5.3-4.3,7.4
			c-0.1,0.1-0.2,0.3-0.4,0.6c-0.3,0.5-0.5,0.7-0.7,0.7c-0.4-0.1-0.6-0.7-0.7-1.9C282.3,94.6,282.3,94.2,282.3,94.1z"/>
		<path class="st2" d="M309.8,69.3c0.1-0.5,0.4-0.7,0.8-0.8c0.3,0,0.7,0.1,1.2,0.3c0.7,0.2,1.3,0.3,1.8,0.3c1.9,0,3.4-0.2,4.4-0.7
			c-0.2-0.3-0.6-0.5-1.2-0.8c-1.1-0.5-1.6-1-1.6-1.5c0.2-0.5,0.4-0.6,0.7-0.6c0.2,0.2,0.5,0.4,1,0.7c1.1,0.8,2.1,1.4,2.9,1.8
			c0,0,0.1,0,0.3,0c0.4,0,1-0.1,1.8-0.4c0.6-0.2,1-0.3,1.2-0.3c1.4-0.4,2.7-0.6,4.1-0.6c0.4,0,0.7,0,1.1,0c0,0,0,0,0.1,0.1
			c0.3,0.2,0.4,0.3,0.4,0.4v0.1c-0.1,0-0.2,0-0.3,0.1c-0.5,0.5-0.9,0.7-1.4,0.7c-0.3,0-0.6,0-0.8-0.1c-0.3,0-0.5,0-0.7,0
			c-0.3,0-0.5,0-0.6,0l-5.1,1c-0.2,0-0.4,0-0.7,0.1c-2.4,0.6-4.3,1-5.8,1c-0.6,0-1,0-1.4,0c0,0-0.2,0-0.7-0.1
			c-0.6-0.2-1-0.3-1.1-0.3C310,69.7,309.8,69.5,309.8,69.3 M320.6,71.9c-2.1,0.6-3.4,1.1-3.8,1.8l-0.1,1.9
			C319,74.3,320.3,73.1,320.6,71.9z M315.3,77.4c-0.2-0.1-0.3-0.8-0.4-2.1c-0.1-0.9-0.2-1.5-0.3-1.7c-0.1-0.2-0.2-0.5-0.3-0.8
			c-0.3-0.8-0.4-1.5-0.4-1.9c0-0.2,0.2-0.3,0.7-0.4c0.6,0,1.1,0.6,1.2,1.7c0,0.1,0,0.1,0,0.1c0.1,0.2,0.1,0.3,0.1,0.3
			c0.1,0,0.2-0.1,0.4-0.3c0.2-0.2,0.4-0.3,0.5-0.3c0.1-0.1,0.2-0.1,0.3-0.1c0.3-0.1,1.1-0.5,2.3-1.1c0.2,0,0.3,0,0.4,0
			c1.2,0,1.8,0.3,1.8,1c0,0.6-0.4,1.3-1.2,2.2c-0.5,0.4-0.7,0.6-0.7,0.8c0,0.1,0,0.2,0.1,0.3c0.2,0.2,0.3,0.4,0.3,0.6
			c0,0.3-0.5,0.5-1.4,0.7c-0.4,0.1-0.6,0.2-0.7,0.3c-0.5,0.2-0.9,0.4-1.4,0.7c0,0,0,0,0,0.1c0,0.1,0,0.3,0.1,0.7
			c0.2,0.5,0.3,0.8,0.3,1c0,0.3-0.2,0.5-0.7,0.5c-0.2,0-0.3,0-0.3-0.1L315.3,77.4z M317.8,84.9c0,0.1,0,0.2,0.1,0.3
			c0.2,0.7,0.4,1.2,0.7,1.4c1.7-0.8,3.1-1.9,4.1-3.2c-1.2,0-2.3,0.4-3.4,1.1C318.6,84.7,318.1,84.8,317.8,84.9z M310.8,84.9
			c0,0.4,0.3,1.1,0.8,2.1c0.3,0.6,0.5,1.1,0.6,1.2h0.1c-0.4-1.5-0.9-2.6-1.5-3.4V84.9z M323.2,88.8c0.4,0,1.2,0.9,2.6,2.6
			c0.9,0.9,1.4,1.4,1.5,1.4c0.2,0,0.6-0.9,1.1-2.7c0.2-0.7,0.3-1.1,0.4-1.2c0.1-0.4,0.3-1,0.6-1.8c1-2.7,1.5-4.9,1.5-6.3
			c0.1-0.2,0-0.3-0.3-0.4c-0.6-0.5-1.2-0.9-1.9-1.4c-0.3,0-0.5,0-0.7,0c-1.3,0-2.1,0.1-2.3,0.4c-0.3,0.1-1.2,0.3-2.9,0.7
			c-1.1,0.4-1.7,0.5-1.9,0.5c-0.3,0.1-0.7,0.2-1.2,0.4c-1.3,0.3-2.2,0.5-2.7,0.8c0,0.1,0,0.1,0,0.1c0.1,0.3,0.2,0.4,0.3,0.4
			c0,0,0,0.1,0.1,0.4c0.2,0.5,0.3,0.7,0.3,0.8h0.3l3.7-1.2c0.2,0,0.5,0,0.8,0c0.5-0.1,0.8-0.1,1.1-0.1c0,0,0.1,0,0.3,0
			c0.6-0.1,0.8,0,0.8,0.4c0,0.4-0.2,0.9-0.6,1.5c-0.3,0.4-0.4,0.6-0.4,0.8c0,0.1,0.1,0.3,0.4,0.6l-0.6,0.7c-0.1-0.1-0.2-0.1-0.3-0.1
			c-0.1,0-0.3,0.1-0.6,0.4l-2.9,1.5c-0.3,0.3-0.6,0.5-1.1,0.6c-1.2,0-1.8-0.3-1.8-0.8c0-0.1,0.1-0.2,0.3-0.4
			c0.1-0.2,0.1-0.3,0.1-0.4c0-0.2-0.1-0.4-0.3-0.7c-0.2-0.2-0.3-0.3-0.3-0.4c-0.1-0.3-0.2-0.7-0.4-1.4c-0.3-1.1-0.5-1.8-0.8-2.2
			c0,0,0,0-0.1,0c-0.9,0.3-1.9,0.6-2.9,1c-0.9,0.4-1.4,0.7-1.4,1c0,0,0,0,0,0.1c0.1,0.4,0.4,1,1,1.8c0.8,1.4,1.2,2.4,1.2,3.2
			c0,0.9-0.2,1.4-0.7,1.4c-0.5,0-1.2-0.9-1.9-2.7c-0.3-0.9-0.5-1.4-0.7-1.4l-2.1-6.2c0-0.1,0-0.1,0-0.1c0-0.3,0.2-0.4,0.5-0.4
			c0.7,0,1.3,1,1.7,2.9c0,0.1,0,0.1,0,0.1h0.1c0.3,0,0.6-0.1,1.1-0.4c0.3-0.2,0.5-0.3,0.5-0.3c0.1,0,0.3,0,0.6-0.1
			c1.2-0.4,1.8-0.6,1.9-0.7c0.5,0.1,1,0,1.6-0.3c0.3-0.2,0.5-0.3,0.7-0.4c0.6-0.1,1-0.2,1.2-0.3c0.1,0,0.1,0,0.1,0
			c0.1,0.1,0.2,0.1,0.3,0l5.6-1.6h0.1l2.6-0.8c0.4,0.1,0.7,0.1,1.1,0c0.3-0.1,0.5-0.1,0.7-0.1c0.6,0,1.3,0.3,1.9,1
			c0.2,0.1,0.3,0.2,0.4,0.3c0.6-0.2,1.1,0.2,1.4,1.1c-0.4,1.9-0.6,3.2-0.6,3.8c-0.2,1.2-0.7,2.7-1.6,4.7c-0.1,0.5-0.2,0.8-0.4,1.1
			l-1,3.8c-0.3,0.9-0.6,1.4-1,1.4C326.3,93.7,324.8,91.7,323.2,88.8z"/>
		<path class="st2" d="M341.4,91.9l-0.1-0.1c0.6-0.4,1-1,1-1.9c0-0.2,0-0.3,0-0.4c-0.2,0.1-0.4,0.1-0.6,0.1
			c-0.8-0.3-1.5-0.9-1.9-1.9c0-0.2,0.1-0.5,0.4-0.8c0.2-0.3,0.3-0.5,0.3-0.5c0.1-0.1,0.3-0.2,0.6-0.3c0.4-0.1,0.6-0.1,0.6-0.1
			c0.4,0,0.8,0.3,1.4,0.8c0.5,0.3,0.7,1,0.7,2.2c0,1.2-0.4,2.3-1.1,3.3c-0.1,0-0.3,0.1-0.6,0.3c-0.5,0.4-0.8,0.6-1,0.6
			c-0.3,0-0.5-0.1-0.6-0.4c0-0.1,0.2-0.2,0.6-0.3C341.3,92.2,341.4,92,341.4,91.9"/>
		<path class="st2" d="M382.9,95.5c0-0.1,0.1-0.2,0.3-0.4c0.2-0.2,0.3-0.4,0.3-0.6c0.4-1.5,0.6-3.9,0.6-7.4c0-0.8,0-1.7-0.1-2.6
			c0,0,0-0.1-0.1-0.3c0-0.1,0-0.1-0.1-0.1l-3.2,1c-0.1,0-0.2,0-0.3,0.1c-3,1-5.4,1.5-7.3,1.5c-0.4,0-0.8,0-1.2,0
			c-0.2-0.1-0.3-0.3-0.3-0.7c0-0.1,0-0.1,0-0.1c0-0.2,0-0.3,0-0.4c0.8-0.1,1.7-0.1,2.6-0.1c4.2-0.7,7.4-1.5,9.5-2.3
			c0.2-0.1,0.2-0.2,0.1-0.3c0,0,0,0,0-0.1c-0.2-1.4-0.5-2.2-0.8-2.3c-0.1,0-0.1,0-0.1,0c-0.6,0.1-0.9,0.2-1.1,0.3
			c-0.6,0-1.3,0-2.1,0c-0.1,0-0.3,0-0.6,0.1c-1.4,0.3-2.5,0.4-3.4,0.4c-0.2,0-0.4,0-0.7,0c-0.2-0.1-0.3-0.3-0.3-0.6
			c0-0.5,0.8-0.7,2.3-0.8c1-0.1,1.6-0.2,1.9-0.4c-0.3-0.3-0.6-0.7-1-1.4c-0.3-0.6-0.5-0.9-0.7-1.1c-0.2-0.3-0.4-0.5-0.6-0.7
			c-0.3-0.4-0.5-0.8-0.6-1.2h-1.1l-0.1,0.1c-0.1,0-0.4,0.1-1,0.3c-0.5,0.2-0.8,0.3-1,0.3c-0.1,0-0.2,0-0.3,0c-0.5,0.1-0.6,0-0.5-0.4
			c0-0.3,0.1-0.5,0.4-0.8c1-0.3,2.4-0.6,4.3-0.8c1.6-0.3,2.7-0.5,3.4-0.7c0.2-1.3,0.2-2.2,0.1-2.9c0,0,0,0,0-0.1
			c0.1-0.4-0.2-0.6-0.8-0.6c-0.4,0-1,0-1.8,0.1c-0.9,0.1-1.6,0.1-2.1,0.1c-0.5,0-0.7-0.2-0.7-0.7c0-0.4,1.3-0.6,3.8-0.7
			c0.6-0.1,1.1-0.1,1.2-0.1c0,0,0-0.1,0-0.3c0-0.4-0.2-0.9-0.6-1.5c-0.4-0.6-0.6-1.1-0.6-1.5c0-0.6,0.2-0.8,0.7-0.7c0,0,0,0,0.1,0
			c0.2-0.1,0.3,0,0.3,0.1c0.7,1.4,1.2,2.7,1.4,3.8c0,0,0.1,0,0.3,0c2.2,0,4.1-0.3,5.8-1c0.1-0.1,0.1-0.1,0.1-0.1c0.2,0,0.4,0,0.6,0
			c0.9,0,1.4,0.2,1.4,0.6c0,0.6-1.6,1.1-4.9,1.4c-1.6,0.2-2.5,0.3-2.9,0.4c0,0.4,0,0.9-0.1,1.5c-0.2,0.7-0.3,1.3-0.3,1.7
			c0,0,0,0.1,0,0.3c0.4-0.1,1-0.2,1.8-0.4c2.6-0.5,4.5-0.9,5.9-1.4l0.6,0.1c0.1,0,0.1,0,0.1,0.1c-0.1,0.9-0.7,1.4-1.8,1.5l-3,0.4
			h-0.4l-5.8,1.2c-0.1,0.1-0.3,0.1-0.6,0.1c-0.2,0.1-0.3,0.1-0.4,0.1c0,0,0.1,0.3,0.3,0.8c0.2,0.6,0.3,0.9,0.4,1.1
			c0.4,0.7,0.5,1.1,0.5,1.2c0.2,0,0.3,0,0.3,0.1c0,0,0.1,0.1,0.3,0.4c0.2,0.3,0.3,0.5,0.3,0.6h0.4c0.1,0,0.7-0.3,1.8-0.8
			c0.5-0.3,0.8-0.5,1-0.5c1.6-0.8,2.8-1.9,3.4-3.2c0.1,0,0.1,0,0.1-0.1c0.1,0,0.1,0,0.1,0h0.8v0.7c-0.4,0.6-0.6,1.1-0.8,1.4
			c-0.2,0.3-0.8,0.7-1.8,1.2c-0.7,0.5-1.1,0.7-1.2,0.8l-1.5,0.7v0.1c0,0,0.1,0,0.3,0c2.1-0.5,4-1.1,5.8-1.9c0.1,0,0.2,0,0.4,0
			c0.4,0,0.6,0.1,0.6,0.4c0,0.1-0.1,0.2-0.3,0.4c-0.1,0.2-0.1,0.4-0.1,0.6c-0.8,0.6-1.5,0.9-2.1,1c0-0.1-0.1-0.1-0.3-0.1
			c-1.2,0.2-1.8,0.4-1.9,0.6c0.3,1.3,0.6,2.1,1,2.5c0.1,0,0.1,0,0.1,0l3.3-1.1c0,0,0.4-0.1,1.1-0.3c1.1-0.3,1.7-0.4,1.8-0.4
			c0.5-0.1,0.6,0,0.6,0.4c-0.2,0.9-0.8,1.5-1.9,1.6c-0.1,0-0.2,0-0.4-0.1c-0.2-0.1-0.4-0.1-0.5-0.1c-0.3,0-0.6,0-0.8,0.1
			c-2,0.6-3.1,0.9-3.2,1.1l-0.1,0.6c0,1.5,0,3,0,4.5c0,0,0,0.2,0,0.7c-0.1,0.5-0.1,0.7-0.1,0.8c0,0.6,0,1.1,0,1.8c0,0,0,0.2-0.1,0.6
			c-0.1,0.6-0.1,1-0.1,1.1c0,0.1,0,0.3-0.1,0.6c0,1.5-0.3,2.2-1,2.2C383.4,96.3,383.1,95.9,382.9,95.5"/>
		<path class="st2" d="M402.8,67.9V68V67.9z M418.6,68.4c-0.6,0-1.1,0-1.7,0c-0.1,0-0.2,0-0.4,0c-1.5-0.1-2.5,0.1-3,0.6
			c0-0.1-0.1-0.2-0.3-0.4c-0.1-0.1-0.1-0.2-0.1-0.4c0-0.5,0.4-0.8,1.2-1c0.3,0,0.5,0,0.6-0.1c0.3,0,0.6,0,1,0
			c2.1,0.1,3.8,0.3,4.9,0.7c0.2-0.1,0.3,0,0.3,0.3c0,0.7-0.4,1.1-1.1,1.1c-0.3,0-0.6-0.1-1-0.4C418.8,68.6,418.7,68.5,418.6,68.4z
			 M402.5,68.2c0-0.5,0.3-0.7,0.8-0.7c0.1,0,0.1,0,0.1,0c0.1,0.1,0.4,0.4,1,0.8c0.2,0.2,0.3,0.3,0.3,0.3c0.2,0.1,0.5,0.3,0.8,0.6
			c0.6,0.4,1.1,0.6,1.2,0.8c0.3,0,0.4,0.1,0.3,0.3c0,0.3-0.1,0.4-0.3,0.4c-0.9-0.3-2.2-0.9-4-1.9C402.6,68.5,402.5,68.3,402.5,68.2z
			 M416.1,74.1c0,0.1,0,0.2,0,0.3c0,0.3,0.1,0.7,0.3,1.2h0.1l2.1-2.1c0-0.2,0-0.3,0-0.3c0-0.1,0-0.1,0-0.1h-1.7c0,0,0,0,0,0.1
			C416.8,73.8,416.5,74.1,416.1,74.1z M413.9,77.8c0-0.3,0.2-0.6,0.7-0.8c0.4-0.2,0.6-0.4,0.6-0.6c0-0.1,0-0.2,0-0.3
			c0.1-0.6,0-1-0.3-1.2l-0.7-3.4c0,0,0-0.1,0-0.3c0-0.6,0.2-0.8,0.7-0.8c0.4,0,0.6,0.4,0.7,1.1c0.1,0.4,0.2,0.6,0.3,0.8
			c0,0,0,0,0.1,0c0.1,0,0.3-0.1,0.6-0.3c0.3-0.1,0.4-0.1,0.4-0.1s0.2,0,0.6,0c0.5-0.1,0.7-0.1,0.8-0.1c0,0.1,0.2,0.1,0.6,0.1
			c0.9,0,1.4,0.2,1.4,0.7c0,0.1,0,0.1,0,0.1c-0.6,1.1-1.1,2-1.6,2.6c0.3,0.1,0.5,0.2,0.8,0.4c0,0.1,0,0.2,0,0.4
			c0,0.6-0.1,0.8-0.3,0.8h-1c-0.1,0-0.1,0-0.1,0.1c-0.6,0.4-1.1,0.8-1.8,1.2c0,0,0,0-0.1,0c-0.4-0.1-0.6-0.1-0.7,0
			c-0.3,0.1-0.5,0.1-0.6,0.1c0,0,0,0-0.1,0.1C414.2,78.6,413.9,78.3,413.9,77.8z M413.8,84c0,0,0,0,0,0.1c-0.1,0.8,0.1,1.2,0.6,1.2
			c0.3,0,0.6-0.1,0.8-0.3l3.3-0.7l0.1-0.1c0.1-0.1,0.1-0.2,0.1-0.3c-0.2-1.6-0.5-2.4-1-2.5c-1.7,0.3-3.1,0.8-4,1.7
			C413.8,83.4,413.8,83.7,413.8,84z M414.9,86.8c0.1,0.6,0.3,1.1,0.6,1.5h0.1c0.4,0,1.1-0.1,2.1-0.3c0.5-0.2,1-0.3,1.2-0.3
			c0.2-0.2,0.3-0.4,0.3-0.7c0-0.1,0-0.1,0-0.1c0-0.1,0-0.3-0.1-0.7c0-0.5,0-0.7-0.1-0.7h-0.3l-2.3,0.5
			C415.4,86.2,415,86.5,414.9,86.8z M422.4,88.6c0,0.5,0.3,1,1,1.6h0.1c0.4,0,0.9-1.1,1.7-3.3c0.1-0.2,0.3-0.7,0.5-1.5
			c0.3-0.9,0.4-1.4,0.4-1.5c-0.1-0.3,0-0.7,0.1-1.4c0.1-0.5,0.1-0.8,0.1-1.1c-0.1-1.1-0.6-1.7-1.5-1.8c-0.2,0-0.5,0-0.8,0.1
			c-0.6,0.2-1,0.2-1.2,0.1l-3.3,1c0,0,0,0,0,0.1c0.2,1.5,0.4,2.4,0.5,2.9c0.6-0.1,1.1-0.2,1.8-0.4c0.3-0.3,0.4-0.5,0.4-0.6
			c0.2,0,0.3,0,0.3,0c0.4,0,0.6,0.2,0.6,0.6c0,0.7-0.8,1.2-2.5,1.5c-0.3,0.1-0.4,0.1-0.4,0.1v2.2h0.8V87c0.2-0.1,0.3-0.1,0.4-0.1
			c0.1,0.1,0.2,0.2,0.3,0.4h1.6c0.3,0,0.4,0.1,0.3,0.3c0,0.3,0,0.4-0.1,0.4l-1,0.6C422.6,88.5,422.5,88.5,422.4,88.6z M405.3,84.1
			c-0.3,0.2-0.6,0.5-0.8,1c-0.3,0.5-0.5,0.8-0.7,1c-0.1,0.1-0.4,0.4-0.8,0.8c-0.1,0.1-0.1,0.1-0.1,0.1c-0.2,0-0.3,0-0.3,0
			c-0.3,0.1-0.5,0-0.5-0.4c0-0.1,0-0.3,0-0.6c0-1,0.6-2.3,1.8-4c0.1-0.2,0.3-0.4,0.6-0.7c0.6-0.7,0.9-1.3,1-1.8
			c0-0.6,0.1-1.5,0.3-2.6c0.1-1.2,0.1-2.1,0.1-2.6c-0.5,0-1.1,0.1-1.9,0.3c-0.9,0.2-1.6,0.3-2.1,0.3c-0.8,0-1.5-0.1-2.1-0.4
			c-0.2-0.2-0.3-0.4-0.3-0.7c0.2,0,0.4,0,0.6-0.1c0.2-0.1,0.3-0.1,0.4-0.1c0.2,0,0.5,0,0.8,0.1c0.3,0.1,0.5,0.1,0.7,0.1
			c1.3-0.1,2.5-0.3,3.7-0.6c0.2,0,0.4-0.1,0.7-0.3c0.4-0.2,0.6-0.3,0.8-0.3c0.5,0,0.7,0.2,0.7,0.7c0,0.2-0.1,0.5-0.4,1.1
			c-0.4,0.8-0.6,1.4-0.6,1.8c0,0.2,0,0.3,0,0.4c0.3-0.1,0.5-0.4,0.6-1c0.1-0.6,0.4-1,0.8-1c0.4,0,0.6,0.3,0.6,0.8
			c0,0.4-0.2,1-0.7,1.8c-0.2,0.3-0.3,0.5-0.4,0.7c-0.2,0.3-0.5,0.9-1,1.8v0.7c0.3-0.3,0.7-0.8,1.2-1.5c0.7-1,1.3-1.7,1.8-2.1
			c0,0.3-0.2,0.7-0.6,1.4c-0.3,0.5-0.4,0.8-0.4,1l-1.6,2.3c0,0.2-0.1,0.4-0.3,0.7c-0.1,0.2-0.1,0.3-0.1,0.3v4.7h0.1l0.1-2.7
			c0.1-0.1,0.1-0.2,0.1-0.3c0.1-0.2,0.1-0.3,0.1-0.3c0.4,0.3,0.6,1.1,0.6,2.5c0,0.1,0,0.2,0,0.3c0,0.5,0,0.8,0,1.1
			c0,0,0,0.2-0.1,0.7c-0.1,0.4-0.1,0.6-0.1,0.7c0,0.3,0,0.6,0,1c0,0,0,0.2,0,0.6c-0.1,0.3-0.1,0.5-0.1,0.5c0.1-0.3,0-0.3-0.3-0.1
			c0,0,0,0,0,0.1c0.1,0.6-0.1,1-0.6,1c-0.6-0.1-1-2.2-1.1-6.2c0-0.1,0-0.4,0-1C405.3,84.5,405.3,84.2,405.3,84.1z M421.6,88.6
			c-0.4,0-0.9,0.1-1.5,0.3c-0.8,0.3-1.4,0.4-1.8,0.3c-0.2,0-0.7,0.1-1.6,0.4c-1,0.3-1.6,0.5-1.8,0.6c0,0.1-0.1,0.1-0.3,0.1
			c-0.3,0-0.4,0-0.4-0.1c-0.1-0.1-0.1-0.3-0.1-0.7c-0.1-0.7-0.5-1.9-1.2-3.4c-0.4-0.7-0.6-1.3-0.7-1.6c0-0.1,0-0.3,0-0.6
			c-0.1-0.4-0.1-0.6-0.1-0.6c0-0.4-0.1-0.8-0.4-1.4c-0.4-0.7-0.5-1.3-0.5-1.7c0-0.3,0-0.5,0.1-0.7c0.2,0,0.3,0,0.4,0
			c0.5,0,0.8,0.5,1,1.4c0.2,0.6,0.4,1,0.6,1l0.1-0.1l1.2-0.5l5.6-1.8h0.1c0.3-0.1,0.7-0.2,1.4-0.3c1.3-0.4,2.2-0.6,2.9-0.6
			c1.7-0.2,2.6,0.3,2.9,1.5c0,0,0,0.1,0.1,0.4c0.2,0.5,0.3,0.7,0.3,0.8v0.1c0,0.6-0.2,1.7-0.7,3.6c0,0,0,0.2-0.1,0.6
			c-0.1,0.4-0.1,0.6-0.1,0.7c-0.3,0.1-0.4,0.5-0.4,1.1c-0.1,0.2-0.1,0.3-0.1,0.4c-0.4,0.6-0.6,1.2-0.7,1.8c0,0.1-0.2,0.5-0.6,1.1
			c-0.4,0.6-0.6,1-0.7,1.1c-0.2,0.4-0.4,0.6-0.7,0.6C422.9,92.1,422.3,90.8,421.6,88.6z"/>
		<path class="st2" d="M436.9,67.9c0-0.1,0-0.2,0-0.3c-0.1-0.2-0.1-0.3-0.1-0.3c0.1-0.1,0.1-0.2,0.1-0.3c0-0.2,0-0.3,0-0.4
			c1.6,0.6,3,1.6,4.4,3c0,0.3-0.1,0.4-0.3,0.4s-0.8-0.4-1.9-1.1c-0.6-0.4-0.9-0.6-1-0.6C437.4,68.1,436.9,67.9,436.9,67.9 M432,71
			c-0.1-0.2-0.1-0.3-0.1-0.4c0.1-0.4,0.3-0.6,0.6-0.6c0.4,0,0.8,0.1,1.4,0.4c0.6,0.3,1,0.4,1.2,0.4c0.9,0.1,2,0.1,3.3,0.1
			c0.6,0,1.3,0,2.2,0.1c0.9,0,1.6,0,2.1,0c0.3,0,0.7-0.1,1.2-0.3c0.6-0.1,1-0.1,1.2-0.1c0.3,0.1,0.5,0.3,0.6,0.7
			c0.1,0.5-0.1,0.7-0.6,0.7h-9.3C434.6,72,433.3,71.6,432,71z M455.4,71.7c0.1-0.3,0.2-0.5,0.4-0.8c0.1,0,0.2,0,0.3,0
			c0.3,0,0.7,0.2,1.4,0.7c0.2,0.1,0.3,0.1,0.3,0.1c0.1,0,0.4,0.2,1,0.6c0.6,0.3,0.9,0.5,1,0.6c0.4-0.1,0.6,0,0.7,0.4
			c0,0.4-0.2,0.6-0.5,0.6c-0.1,0-0.2,0-0.3,0l-3.7-1.4C455.5,72.1,455.4,71.9,455.4,71.7z M436.9,82.9c0,0.3,0.1,0.5,0.3,0.6
			c0.3,0,0.4-0.2,0.4-0.6c0-0.3-0.1-0.4-0.4-0.3C436.9,82.5,436.9,82.6,436.9,82.9z M440.3,84.2c0-0.3,0.1-0.5,0.4-0.6
			c0.2-0.1,0.4-0.1,0.6-0.1c0.5,0,1.2,0.5,1.9,1.5c0.4,0.6,0.6,0.8,0.8,0.8c0.2-0.1,0.3-0.1,0.3-0.1c0.2,0,0.3,0,0.3,0.1
			c0.2,0,0.3,0,0.4,0c-0.1,0.6-0.4,1-0.8,1.1c-0.7,0-1.4-0.5-2.1-1.4c-0.3-0.3-0.5-0.5-0.5-0.7c-0.1-0.2-0.3-0.3-0.7-0.4
			C440.6,84.4,440.4,84.3,440.3,84.2z M451.4,87.1c0-0.1,0-0.4-0.1-0.8c0-0.3,0-0.4,0-0.4c0-1.2,0-2.3,0-3.3c0,0-0.1,0.1-0.3,0.3
			c-0.1,0.2-0.2,0.3-0.3,0.3c-0.1,0.3-0.3,0.6-0.6,1.1c-1.1,1.9-2.1,3.3-3,4.3c-0.1,0-0.2,0-0.3,0c-0.3,0-0.4-0.2-0.4-0.7
			c0-0.8,0.2-1.4,0.7-1.7c0.1-0.1,0.1-0.1,0.1-0.1v0.7c0.2-0.1,0.3-0.3,0.4-0.6c0.1-0.1,0.1-0.2,0.1-0.3c0.5-0.5,0.7-0.9,0.8-1.2
			c0.2-0.3,0.8-1.4,1.8-3.4c0-0.2,0-0.4,0.1-0.6c0.2-0.4,0.3-0.6,0.3-0.8c0.1-0.2,0-0.3-0.3-0.3c-1.8,0.7-3.5,1.1-4.9,1.1
			c-0.3-0.1-0.4-0.3-0.4-0.6c0-0.2,0.1-0.4,0.4-0.7c0.2-0.1,0.4-0.1,0.5-0.1c0.2,0,0.4,0,0.6,0c1.6-0.2,3.1-0.6,4.4-1.2
			c0.2-0.1,0.3-0.4,0.3-1c0.1-0.8,0.4-1.2,0.8-1.2c0.3,0,0.5,0.1,0.8,0.4c0.4,0.3,0.6,0.4,0.8,0.4c0.2,0,0.4,0,0.7-0.1
			c0.3,0,0.5,0,0.6,0c0.4,0,0.6,0.1,0.6,0.4c-0.1,0.5-0.3,0.8-0.6,1l-2.2,1c-0.2,0.2-0.4,0.6-0.6,1.4c-0.1,0.8,0,2,0.1,3.4
			c0.1,1.3,0.1,2.2,0.1,2.9c0.1,1.3,1.1,2,3.2,2.2c1.8-0.1,2.9-0.5,3.2-1.1c0-0.4,0-0.7,0-1c0-0.4,0-0.9,0-1.6
			c-0.1-0.7-0.1-1.3-0.1-1.6c0-0.7,0.1-1.1,0.3-1.2c0.3,0.3,0.4,0.7,0.4,1.2c0.1,0.3,0.1,0.5,0.1,0.5c0,0.1,0,0.3,0.1,0.6
			c0.5,1.4,0.7,2.5,0.7,3.4c0.1,0.6-0.1,0.9-0.7,1.1l-2.7,0.8c-0.1,0-0.1,0-0.1,0s-0.2,0-0.6,0c-0.4,0.1-0.6,0.1-0.7,0.1
			c-2-0.1-3.3-0.8-3.8-2.1c-0.1-0.3-0.2-0.5-0.3-0.7C451.5,87.2,451.5,87.1,451.4,87.1z M435.3,86.2c-0.2,0.8-0.3,1.7-0.3,2.7
			c0,0,0,0-0.1,0.1c0,0,0,0.1,0.1,0.4c0,0.2,0,0.3,0,0.4c0.2-0.1,0.3-0.1,0.3-0.1c0.1,0.2,0.1,0.4,0.1,0.5c-0.1,0.9-0.6,1.4-1.5,1.5
			c-0.3,0-0.4-0.3-0.4-0.8c0-0.1,0-0.1,0-0.1c0.1-1.3,0.2-2.2,0.4-2.6c0-1.3,0-2.5,0-3.7c0.1-0.3,0.2-0.5,0.3-0.6c0.1,0,0.1,0,0.1,0
			c0.2,0,0.4,0,0.6,0.1c0,0.1,0,0.1,0.1,0.1c0.7,1.4,1.5,2.6,2.3,3.7c0.1,0.2,0.2,0.4,0.4,0.6h0.1V86c-0.1,0-0.1-0.1-0.1-0.3
			c0-0.5,0-0.9,0-1.2c-0.1,0-0.2,0-0.4,0c-0.2,0.1-0.4,0.1-0.5,0.1c-0.4,0-0.7-0.3-1.1-1c-0.1-0.3-0.2-0.5-0.3-0.5
			c-0.1-0.1-0.2-0.2-0.4-0.3c-0.2-0.1-0.3-0.3-0.3-0.6c0-0.2,0.1-0.4,0.4-0.7c0-0.4,0-0.7,0-1c0-0.6-0.1-1.6-0.4-2.7
			c-0.3-1.2-0.4-2.1-0.4-2.7c0-0.2,0-0.4,0.1-0.7c0-0.3,0-0.5,0-0.7c0.1-0.2,0.3-0.3,0.7-0.3c0.6,0.1,0.9,0.3,1,0.6
			c0,0.1-0.1,0.2-0.3,0.4c-0.2,0.2-0.3,0.4-0.3,0.6c0,0.6,0.1,1.6,0.4,2.7c0.4,1.5,0.5,2.5,0.4,3.2c0.2-0.1,1.2-0.5,3-1.2
			c1.3-1.1,2.1-2.1,2.5-2.9h0.1l0.7-1c0-0.1,0-0.1,0-0.1c0-0.2-0.3-0.3-1-0.3c-1.1,0-2.2,0.2-3.3,0.7c-0.1,0-0.2,0.1-0.4,0.3
			c-0.1,0.1-0.2,0.1-0.4,0.1c-0.5,0-0.8-0.1-0.8-0.4c0-0.3,0-0.5,0.1-0.7c1.7-0.7,3.5-1.1,5.4-1.1c1.2,0.1,1.8,0.4,1.8,0.8
			c0,0.6-0.4,1.2-1.2,2.1c-0.6,0.6-0.9,1.1-1,1.4c0,0,0,0,0.1,0.1c0.4,0.1,0.6,0.2,0.7,0.4c-0.2,0.1-0.3,0.3-0.4,0.7
			c-0.1,0.2-0.2,0.3-0.3,0.4c-0.2,0.1-0.6,0.2-1.2,0.4c-1.4,0.3-2.1,0.7-2.1,1.4c0,0.1,0,0.4,0.1,1c0.1,0.5,0.1,0.8,0.1,1
			c0,0.6,0,1.6,0,2.7c0.1,2.1,0.1,3.7,0,4.8c0,0.6-0.3,0.8-0.8,0.7c-0.2,0-0.6-0.8-1.1-2.3C436.4,87.7,435.8,86.4,435.3,86.2z"/>
		<path class="st2" d="M467.6,80.9c0-0.1,0-0.1,0-0.1c0.4-0.4,0.6-0.6,0.7-0.6c1.1-1.6,2-2.9,2.7-4.1l2.2-4.3
			c0.1-0.5,0.2-0.8,0.3-1.1c0-0.1,0-0.1,0-0.1c-0.3,0-0.6,0-1,0c0,0-0.3,0-0.8,0.1c-0.8,0.2-1.3,0.3-1.4,0.3
			c-0.4,0.1-0.9,0.1-1.6,0.1c-2.1,0.1-3.6,0.4-4.5,1c0,0.3-0.1,0.4-0.3,0.4c-0.2,0.1-0.4,0.1-0.6,0.1c-0.8-0.1-1.2-0.3-1.2-0.7
			c0-0.1,0.1-0.3,0.4-0.6c0.7-0.4,1.1-0.6,1.2-0.7h0.1c0.4-0.1,1.4-0.2,3-0.4c4.6-0.6,6.9-1.1,7-1.5c0-0.1,0-0.3,0.1-0.7
			c0.1-1.6,0.4-2.3,0.8-2.3c0.5,0,0.7,0.2,0.7,0.5c0,0.6,0,1-0.1,1h-0.1c0,0.6,0,0.9-0.1,1.1c0,0.2,0,0.3,0,0.3h0.4
			c0.1,0,0.7-0.1,1.9-0.3c1.4-0.2,2.2-0.3,2.6-0.3c0.3,0,0.7-0.1,1.2-0.3c1.6-0.3,2.9-0.4,3.8-0.4c0,0,0.2,0,0.6,0
			c0.6,0.1,0.9,0.1,1,0.1c0.3,0,0.4,0.1,0.4,0.4c-0.3,0.8-0.7,1.3-1.4,1.5c-0.2,0-0.3-0.1-0.4-0.4c-0.2-0.3-0.4-0.4-0.6-0.4
			c-0.3,0-0.6,0-0.8,0c-0.3,0-0.5,0-0.7,0c-1,0.2-2.4,0.4-4.3,0.5c-0.1,0-0.3,0-0.7,0.1c-1.6,0.2-2.6,0.4-3,0.7
			c-0.1,0.1-0.2,0.2-0.4,0.4c-0.1,0.3-0.2,0.5-0.4,0.6c-0.2,1.3-1,3.3-2.6,5.9c-0.1,0-0.1,0-0.1,0.1c-0.1,0.1-0.1,0.1-0.1,0.1
			c-0.1,0.1-0.4,0.5-0.8,1.2c-0.5,0.7-0.7,1.2-0.8,1.4c-0.2,0.1-0.4,0.3-0.6,0.6c-0.5,0.6-0.9,0.8-1.2,0.8
			C467.9,81.2,467.7,81.1,467.6,80.9 M476.5,80.2c0,0.4,0,1,0,1.8c-0.1,0.8-0.1,1.5-0.1,1.9c0,0,0,0,0,0.1l0.6-0.3l4.5-1.5
			c0.3-0.1,0.4-0.4,0.4-1c0-4.3-0.1-7.5-0.4-9.6c-0.1,0-0.2,0-0.3,0c-2.8,0.7-4.4,1.7-4.8,2.7v2.3c0.2,0.2,0.2,0.5,0.1,1.1
			c0,0.2,0,0.3,0,0.3c0.5-0.1,1-0.1,1.6-0.1c0.1,0,0.2,0,0.4,0c1.7-0.1,2.6,0.3,2.6,1.2c0,0.2,0,0.3,0,0.4c0,0,0,0-0.1,0.1
			c-0.1,0-0.3-0.1-0.5-0.3c-0.5-0.3-1-0.4-1.5-0.4c-0.6,0.1-1.2,0.2-1.8,0.4c-0.1,0.1-0.2,0.2-0.3,0.4
			C476.9,80.2,476.7,80.2,476.5,80.2z M473.2,93.2c0-0.4,0-0.6,0-0.8c0.1-0.1,0.1-0.2,0.1-0.3c0.1-0.6,0.2-1.1,0.4-1.5
			c0.2,0,0.3,0.1,0.3,0.4c0,0.4,0,0.8,0,1.2c0.1-0.3,0.2-0.7,0.3-1.2c0.1-0.4,0.1-0.6,0.1-0.7c0-0.3,0.1-1.1,0.3-2.5
			c0.1-1.5,0.1-2.3,0.1-2.5c0.3-0.3,0.4-0.8,0.3-1.5c0-0.3,0-0.5,0-0.6c0-0.1,0-0.6,0.1-1.4c0-0.6,0-0.8,0-0.8c0-0.4,0-0.9,0-1.5
			c0-1.2-0.1-2.2-0.3-3c-0.1,0-0.2,0.1-0.3,0.3c0,0.3-0.1,0.4-0.3,0.4c0,0,0,0,0-0.1c0-0.1,0-0.3-0.1-0.5c0-0.3,0-0.4-0.1-0.4
			c0-0.1,0-0.1,0-0.1c0-0.3,0.1-0.6,0.3-1.1c0.3-0.5,0.4-1.1,0.3-1.6c0.2-0.2,0.5-0.3,1-0.4c0.3,0,0.5,0,0.6-0.1
			c0.3-0.2,0.7-0.4,1.4-0.7c1.6-1,2.8-1.5,3.8-1.5c0.8,0,1.3,0.2,1.4,0.7c-0.1,1.7-0.1,4.3,0,7.7c0.1,2.3,0.1,4,0.1,5.1
			c0.1,0.5,0.1,1,0,1.7c0,0.5,0,0.8,0,1c0,0.7,0,1.9,0.1,3.6c0,1.5,0,2.6,0.1,3.3c0,0.3-0.1,0.5-0.3,0.5c-0.1,0.3-0.3,0.4-0.5,0.3
			c-0.2,0-0.4-0.2-0.7-0.7c-0.2-0.3-0.3-0.5-0.4-0.6c-0.1-0.1-0.2-0.2-0.3-0.4c-1.6-2.3-2.3-4.1-2.3-5.4c0-0.2,0-0.4,0-0.6L479,87
			l1.1,2.6c0.5,0.4,1,1,1.7,1.8h0.1c0.1-0.4,0.1-0.6,0.1-0.8c0-3.2-0.1-5.7-0.3-7.4l-2.1,1c-0.1,0.1-0.3,0.2-0.7,0.3
			c0,0-0.1,0-0.4,0.1c-1.2,0.6-1.9,1-2.1,1.1c0,0.2-0.1,0.3-0.4,0.3c-0.1,0.1-0.3,1.6-0.6,4.4c-0.2,1.2-0.3,1.9-0.3,2.1
			c-0.1,0.3-0.3,1-0.6,2.2l-0.7,0.8h-0.1c-0.6,0-0.8-0.6-0.7-1.9C473.2,93.2,473.2,93.2,473.2,93.2z"/>
		<path class="st2" d="M505.5,81.8c1.4,0.8,2.7,1.8,3.8,2.9c0-0.3,0.1-0.4,0.3-0.4c0.4-1.1,0.8-2.2,1.4-3.2l0.1-0.1l1.1-1.9l0.1-0.1
			c0-0.1,0.2-0.5,0.6-1.1c0.1-0.1,0.1-0.2,0.1-0.3c0,0,0,0-0.1,0c-0.4,0-1.3,0.5-2.9,1.4c-0.8,0.5-1.3,0.7-1.5,0.8
			c-0.8,0.5-1.4,0.9-1.8,1c0,0-0.1,0.1-0.3,0.3C505.9,81.4,505.6,81.7,505.5,81.8 M502.3,94.1c0.1-0.8,0.2-1.4,0.4-1.8
			c0,0.1,0,0.5,0.1,1.1c0.1,0.5,0.1,0.9,0.1,1c0,0.5,0.1,0.8,0.3,0.8c0.1,0,0.1,0,0.1,0c0.1-0.1,0.1-0.1,0.1-0.1
			c1.4-1.9,2.5-3.9,3.4-6l0.1-0.1l1.7-3c0-0.1-0.6-0.7-1.9-1.8c-0.4-0.4-0.6-0.6-0.7-0.7c-0.6-0.3-1.2-0.4-2.1-0.4l-0.1-0.1
			l-1.1,0.6c0,0,0,0-0.1,0c-0.3,0-0.4-0.2-0.4-0.7c0-0.1,0-0.2,0-0.3c1.8-1.2,3.5-2.5,5.1-3.8c0.2-0.2,0.5-0.5,1-0.8
			c0.6-0.6,1-1.1,1.4-1.2c0.2-0.1,0.3-0.1,0.3-0.1c0.5-0.4,1.1-1,1.8-1.8c0.5-0.6,0.8-1,1.1-1.2h-0.1c0,0,0,0-0.1,0
			c-0.1,0-0.2,0-0.4,0.1c-2,0.8-3.8,1.1-5.5,0.8c-0.2,0.2-0.5,0.5-0.8,1.1c-0.3,0.6-0.5,0.9-0.8,1.1l-1.9,3.2c0,0-0.1,0-0.3,0.1
			c-0.2,0.2-0.3,0.3-0.4,0.3c-0.3,0-0.4-0.2-0.4-0.6c0-0.6,0.2-1.2,0.7-1.8c0.3-0.4,0.5-0.7,0.6-1c0-0.7,0.1-1.1,0.4-1.1
			c-0.2,0.3-0.3,0.6-0.3,0.8c0,0.1,0,0.2,0,0.4c0.2-0.2,0.3-0.3,0.3-0.3c0.5-0.5,1.1-1.3,1.9-2.5v-0.1c-0.2-0.3-0.5-0.5-1-0.6
			c0,0,0,0-0.1,0.1l-0.4,0.7c0.1-0.4,0-0.8-0.1-1.2c-0.2-0.4-0.3-0.6-0.3-0.8c0.1-0.5,0.3-0.7,0.7-0.8c0,0,0.1,0,0.3,0.1
			c0.1,0,0.1,0,0.1,0.1c0.5,0.9,1,1.4,1.5,1.4c0.1,0,0.1,0,0.1-0.1c0.1-0.1,0.3-0.4,0.7-0.8c0.5-0.6,0.7-0.8,0.7-0.8
			c0-0.1,0.1-0.3,0.4-0.6c1.2-1.6,1.8-2.5,1.8-2.9c-0.3-0.1-0.5-0.1-0.8-0.1c-1.1,0-2.5,0.2-4.3,0.5c-0.8,0.2-1.4,0.3-1.8,0.4
			c-0.1,0-0.2,0-0.3,0c-0.4,0-0.6-0.2-0.6-0.7c0-0.3,0.2-0.5,0.7-0.7c0.4-0.2,0.6-0.4,0.7-0.5c0.7-0.5,1.7-1.1,2.7-1.9
			c1.7-1.5,3.1-2.2,4-2.2v1.1c0,0.1-0.3,0.2-1,0.4c-0.7,0.3-1.1,0.5-1.2,0.6c-0.3,0.2-0.6,0.5-1.1,1c-0.5,0.5-1,0.8-1.2,1
			c0,0-0.1,0-0.3,0.1c-0.4,0.2-0.6,0.3-0.7,0.4c0.2-0.1,0.3-0.1,0.4,0c0,0.1,0,0.1,0.1,0.1c1.2-0.5,2.4-0.7,3.6-0.7
			c0.2,0,0.6,0,1.2,0.1c0.6,0.1,1.1,0.1,1.2,0.1c0.1,0.1,0.1,0.2,0.1,0.4c0,0.6-0.4,1.3-1.1,2.2c-0.1,0.1-0.2,0.2-0.3,0.3
			c-0.2,0.4-0.8,1.1-1.8,2.2c-0.4,0.4-0.6,0.6-0.6,0.8c0,0.1,0,0.1-0.1,0.1c-0.1,0.1-0.1,0.2-0.1,0.3c0,0.1,0,0.2,0.1,0.3
			c1.9,0,3.3-0.2,4.3-0.6c0.7-0.1,1.2-0.2,1.4-0.3c0.4-0.3,0.6-0.5,0.6-0.5c0.1,0,0.1,0,0.1,0c0.5,0,0.7,0.1,0.7,0.4
			c0,0.5-0.4,1-1.2,1.6c-0.2,0.2-0.3,0.3-0.4,0.4c-0.6,0.5-1.6,1.5-3,2.9v0.1l4.3-1.9c0.1,0,0.1,0,0.1,0c0.6,0,0.8,0.2,0.8,0.6v0.1
			c-0.2,0.4-0.5,0.9-1,1.5c-0.5,0.6-0.9,1.1-1.1,1.5c-0.3,0.8-0.8,2-1.6,3.4c-0.6,0.9-1,1.6-1.2,2.1c0,0.1,0,0.1-0.1,0.1
			c-0.1,0.1-0.1,0.3-0.1,0.6c0,0.1,0,0.1,0,0.1c0.1,0,0.2,0.1,0.4,0.3c0.3,0.2,0.4,0.3,0.4,0.4c0.3,0.3,0.6,0.6,1,1.1
			c0.4,0.5,0.6,0.8,0.8,1c0.1,0.1,0.3,0.3,0.7,0.5c1.4,1.3,2.1,2.1,2.1,2.3h0.3c-0.2,0.6-0.5,0.9-0.8,1c-0.2,0-0.3,0-0.4,0
			c-0.6-1.1-1.8-2.5-3.4-4.1c-0.6-0.6-1.1-1.1-1.4-1.5l-0.3,0.3c-0.2,0.4-0.5,0.9-1,1.6c-1.7,2.8-3.1,5.3-4.3,7.4
			c-0.1,0.1-0.2,0.3-0.4,0.6c-0.3,0.5-0.5,0.7-0.7,0.7c-0.4-0.1-0.6-0.7-0.7-1.9C502.4,94.6,502.3,94.2,502.3,94.1z"/>
		<path class="st2" d="M529.9,69.3c0.1-0.5,0.4-0.7,0.8-0.8c0.3,0,0.7,0.1,1.2,0.3c0.7,0.2,1.3,0.3,1.8,0.3c1.9,0,3.4-0.2,4.4-0.7
			c-0.2-0.3-0.6-0.5-1.2-0.8c-1.1-0.5-1.6-1-1.6-1.5c0.2-0.5,0.4-0.6,0.7-0.6c0.2,0.2,0.5,0.4,1,0.7c1.1,0.8,2.1,1.4,2.9,1.8
			c0,0,0.1,0,0.3,0c0.4,0,1-0.1,1.8-0.4c0.6-0.2,1-0.3,1.2-0.3c1.4-0.4,2.7-0.6,4.1-0.6c0.4,0,0.7,0,1.1,0c0,0,0,0,0.1,0.1
			c0.3,0.2,0.4,0.3,0.4,0.4v0.1c-0.1,0-0.2,0-0.3,0.1c-0.5,0.5-0.9,0.7-1.4,0.7c-0.3,0-0.6,0-0.8-0.1c-0.3,0-0.5,0-0.7,0
			c-0.3,0-0.5,0-0.6,0l-5.1,1c-0.2,0-0.4,0-0.7,0.1c-2.4,0.6-4.3,1-5.8,1c-0.6,0-1,0-1.4,0c0,0-0.2,0-0.7-0.1
			c-0.6-0.2-1-0.3-1.1-0.3C530.1,69.7,529.9,69.5,529.9,69.3 M540.7,71.9c-2.1,0.6-3.4,1.1-3.8,1.8l-0.1,1.9
			C539,74.3,540.4,73.1,540.7,71.9z M535.4,77.4c-0.2-0.1-0.3-0.8-0.4-2.1c-0.1-0.9-0.2-1.5-0.3-1.7c-0.1-0.2-0.2-0.5-0.3-0.8
			c-0.3-0.8-0.4-1.5-0.4-1.9c0-0.2,0.2-0.3,0.7-0.4c0.6,0,1.1,0.6,1.2,1.7c0,0.1,0,0.1,0,0.1c0.1,0.2,0.1,0.3,0.1,0.3
			c0.1,0,0.2-0.1,0.4-0.3c0.2-0.2,0.4-0.3,0.5-0.3c0.1-0.1,0.2-0.1,0.3-0.1c0.3-0.1,1.1-0.5,2.3-1.1c0.2,0,0.3,0,0.4,0
			c1.2,0,1.8,0.3,1.8,1c0,0.6-0.4,1.3-1.2,2.2c-0.5,0.4-0.7,0.6-0.7,0.8c0,0.1,0,0.2,0.1,0.3c0.2,0.2,0.3,0.4,0.3,0.6
			c0,0.3-0.5,0.5-1.4,0.7c-0.4,0.1-0.6,0.2-0.7,0.3c-0.5,0.2-0.9,0.4-1.4,0.7c0,0,0,0,0,0.1c0,0.1,0,0.3,0.1,0.7
			c0.2,0.5,0.3,0.8,0.3,1c0,0.3-0.2,0.5-0.7,0.5c-0.2,0-0.3,0-0.3-0.1L535.4,77.4z M537.9,84.9c0,0.1,0,0.2,0.1,0.3
			c0.2,0.7,0.4,1.2,0.7,1.4c1.7-0.8,3.1-1.9,4.1-3.2c-1.2,0-2.3,0.4-3.4,1.1C538.7,84.7,538.2,84.8,537.9,84.9z M530.9,84.9
			c0,0.4,0.3,1.1,0.8,2.1c0.3,0.6,0.5,1.1,0.6,1.2h0.1c-0.4-1.5-0.9-2.6-1.5-3.4V84.9z M543.3,88.8c0.4,0,1.2,0.9,2.6,2.6
			c0.9,0.9,1.4,1.4,1.5,1.4c0.2,0,0.6-0.9,1.1-2.7c0.2-0.7,0.3-1.1,0.4-1.2c0.1-0.4,0.3-1,0.6-1.8c1-2.7,1.5-4.9,1.5-6.3
			c0.1-0.2,0-0.3-0.3-0.4c-0.6-0.5-1.2-0.9-1.9-1.4c-0.3,0-0.5,0-0.7,0c-1.3,0-2.1,0.1-2.3,0.4c-0.3,0.1-1.2,0.3-2.9,0.7
			c-1.1,0.4-1.7,0.5-1.9,0.5c-0.3,0.1-0.7,0.2-1.2,0.4c-1.3,0.3-2.2,0.5-2.7,0.8c0,0.1,0,0.1,0,0.1c0.1,0.3,0.2,0.4,0.3,0.4
			c0,0,0,0.1,0.1,0.4c0.2,0.5,0.3,0.7,0.3,0.8h0.3l3.7-1.2c0.2,0,0.5,0,0.8,0c0.5-0.1,0.8-0.1,1.1-0.1c0,0,0.1,0,0.3,0
			c0.6-0.1,0.8,0,0.8,0.4c0,0.4-0.2,0.9-0.6,1.5c-0.3,0.4-0.4,0.6-0.4,0.8c0,0.1,0.1,0.3,0.4,0.6l-0.6,0.7c-0.1-0.1-0.2-0.1-0.3-0.1
			c-0.1,0-0.3,0.1-0.6,0.4l-2.9,1.5c-0.3,0.3-0.6,0.5-1.1,0.6c-1.2,0-1.8-0.3-1.8-0.8c0-0.1,0.1-0.2,0.3-0.4
			c0.1-0.2,0.1-0.3,0.1-0.4c0-0.2-0.1-0.4-0.3-0.7c-0.2-0.2-0.3-0.3-0.3-0.4c-0.1-0.3-0.2-0.7-0.4-1.4c-0.3-1.1-0.5-1.8-0.8-2.2
			c0,0,0,0-0.1,0c-0.9,0.3-1.9,0.6-2.9,1c-0.9,0.4-1.4,0.7-1.4,1c0,0,0,0,0,0.1c0.1,0.4,0.4,1,1,1.8c0.8,1.4,1.2,2.4,1.2,3.2
			c0,0.9-0.2,1.4-0.7,1.4c-0.5,0-1.2-0.9-1.9-2.7c-0.3-0.9-0.5-1.4-0.7-1.4l-2.1-6.2c0-0.1,0-0.1,0-0.1c0-0.3,0.2-0.4,0.5-0.4
			c0.7,0,1.3,1,1.7,2.9c0,0.1,0,0.1,0,0.1h0.1c0.3,0,0.6-0.1,1.1-0.4c0.3-0.2,0.5-0.3,0.5-0.3c0.1,0,0.3,0,0.6-0.1
			c1.2-0.4,1.8-0.6,1.9-0.7c0.5,0.1,1,0,1.6-0.3c0.3-0.2,0.5-0.3,0.7-0.4c0.6-0.1,1-0.2,1.2-0.3c0.1,0,0.1,0,0.1,0
			c0.1,0.1,0.2,0.1,0.3,0l5.6-1.6h0.1l2.6-0.8c0.4,0.1,0.7,0.1,1.1,0c0.3-0.1,0.5-0.1,0.7-0.1c0.6,0,1.3,0.3,1.9,1
			c0.2,0.1,0.3,0.2,0.4,0.3c0.6-0.2,1.1,0.2,1.4,1.1c-0.4,1.9-0.6,3.2-0.6,3.8c-0.2,1.2-0.7,2.7-1.6,4.7c-0.1,0.5-0.2,0.8-0.4,1.1
			l-1,3.8c-0.3,0.9-0.6,1.4-1,1.4C546.4,93.7,544.9,91.7,543.3,88.8z"/>
	</g>
	<path id="subtitle-2" class="st1" d="M565.6,98.5c3.1,1.7,6.2,1.6,9.1-0.2c3-1.9,4.4-4.6,4.2-8.2c-0.2-3.6-1.8-6.2-4.9-7.7
		c-3.1-1.6-6.1-1.4-8.9,0.5c-2.8,1.9-4.2,4.5-4.2,8C560.9,94.2,562.5,96.8,565.6,98.5 M575.2,78.6c3.3,1.3,5.5,3.4,6.6,6.6
		c1.1,3.1,1.3,6.2,0.5,9.1c-0.8,3-2.4,5.2-4.7,6.8s-5.1,2.3-8.2,2.3c-3.1,0-5.9-1.2-8.4-3.7c-2.5-2.5-3.8-5.2-4-8.2
		c-0.2-3,0.5-5.6,1.9-8c1.4-2.3,3.7-4.1,6.8-5.1C568.7,77.3,571.9,77.3,575.2,78.6z"/>
</g>
<g>
</g>
<g>
</g>
<g>
</g>
<g>
</g>
<g>
</g>
<g>
</g>
<g>
</g>
<g>
</g>
<g>
</g>
<g>
</g>
<g>
</g>
<g>
</g>
<g>
</g>
<g>
</g>
<g>
</g>
</svg>
