<?xml version="1.0" encoding="utf-8"?>
<!-- Generator: Adobe Illustrator 17.0.0, SVG Export Plug-In . SVG Version: 6.00 Build 0)  -->
<!DOCTYPE svg PUBLIC "-//W3C//DTD SVG 1.1//EN" "http://www.w3.org/Graphics/SVG/1.1/DTD/svg11.dtd">
<svg version="1.1" id="Layer_1" xmlns="http://www.w3.org/2000/svg" xmlns:xlink="http://www.w3.org/1999/xlink" x="0px" y="0px"
	 width="640px" height="140.1px" viewBox="0 0 640 140.1" style="enable-background:new 0 0 640 140.1;" xml:space="preserve">
<style type="text/css">
	.st0{fill:#888888;}
	.st1{fill:none;}
</style>
<g id="page-8-title.svg">
	<path class="st0" d="M249.6,42v12.1h19.1V42H249.6z M269.2,61.1l-0.5-4.7l-19.1,0.5v14l19.1-0.5C269.1,67.6,269.2,64.5,269.2,61.1z
		 M293,53.6c0.9,0,1.4,0.3,1.4,0.9c0,0.6-0.5,1.3-1.4,1.9h-14.5v1.9c0,1.6-0.2,3.6-0.5,6.1c0,2.8-0.2,4.8-0.5,6.1l19.6-0.5
		l-0.5-28.5h-18.2v12.6L293,53.6z M246.8,26.1c-4.7-0.3-10.3,0-16.8,0.9l-4.7-3.3l81.7-0.9l7-7.9l8.9,8.9c0.3,0.3,0.5,0.6,0.5,0.9
		c0,0.3-0.3,0.5-0.9,0.5l-49.9,0.5l6.5,6.1v7.5l17.7-0.5l4.7-5.6l9.8,6.1c0.3,0.3,0.5,0.8,0.5,1.4l-3.3,3.7l0.5,20
		c0.3,6.2-1.9,11.5-6.6,15.9c-1.6,1.3-2.6,1.3-3.3,0c-2.2-3.4-3.4-5.9-3.7-7.5l-17.7,0.5c-1.2,13.1-4.8,22.5-10.7,28.4
		c12.4,6.5,33.1,9.8,62.1,9.8c0.6,0.3,0.8,0.5,0.5,0.5c0,0.3-0.3,0.5-0.9,0.5c-6.2,0.9-12.1,5.1-17.7,12.6
		c-24-2.5-40.6-8.2-49.9-17.3c-6.5,4.7-20.4,11.5-41.5,20.5c-1.3,0-1.9-0.2-1.9-0.5c0-0.3,0.5-0.8,1.4-1.4
		c19.3-8.7,32-16.2,38.3-22.4c-5-5.3-9.3-13.5-13.1-24.7l1.9-0.5c2.5,8.4,7.6,15.1,15.4,20.1c4-5.9,6.5-14.5,7.5-25.7l-19.1,0.5
		c-2.5,4-5.4,5.6-8.9,4.7V35.4c0-0.9,0.3-1.1,0.9-0.5c0-0.3,0.1-0.3,0.5,0l7.5,4.7l19.1-0.5V35v-9.3L246.8,26.1z"/>
	<path class="st0" d="M332.7,36.9c-5,0-9.3,0.5-13.1,1.4l-3.3-4.2h41.5c3.1-7.5,5.8-15.1,7.9-22.9l12.1,7.9c1.3,0.9,1.3,1.7,0,2.3
		l-4.2,2.3c-1.6,3.1-3.3,6.4-5.1,9.8h36.9l7.5-7.5l8.9,7.9c0.3,0.6,0,1.1-0.9,1.4l-53.2,0.9c-3.7,6.5-7.6,12.8-11.7,18.7l35-0.9
		l4.2-4.7l9.8,7c0.6,0.3,0.5,0.8-0.5,1.4l-2.8,3.3l0.9,43.4c0.9,9.6-2.9,16.8-11.6,21.5c-0.9,0.6-1.6,0.5-1.9-0.5
		c-0.3-4-1.6-6.5-3.7-7.5c-0.3,0-0.5-0.2-0.5-0.5c0.3-0.6,0.6-0.9,0.9-0.9c4.3,0.6,6.2-0.9,5.6-4.7l-0.9-55.5l-36.4,1.4
		c-0.3,0.3-0.5,0.5-0.5,0.5v16.3l30.8-0.9c0.9,0.3,1.6,0.6,1.9,0.9c0,0.6-0.5,1.1-1.4,1.4l-31.3,1.4l-0.5,16.3l32.2-1.4
		c1.3,0.3,1.9,0.8,1.9,1.4c0,0.3-0.5,0.6-1.4,0.9l-32.7,1.4v13.1c0,4.4-1.9,9-5.6,14c-0.9,1.2-1.7,2-2.3,2.3
		c-0.6-0.3-0.9-1.1-0.9-2.3l1.4-54.6c-10.9,12.8-23.6,23.8-38.3,33.1c-0.6,0.3-0.9,0.2-0.9-0.5c-0.3-0.3-0.1-0.6,0.5-0.9
		c20.8-14.9,37.3-36.2,49.5-63.9L332.7,36.9z"/>
	<rect y="0" class="st1" width="640" height="140.1"/>
</g>
<g>
</g>
<g>
</g>
<g>
</g>
<g>
</g>
<g>
</g>
<g>
</g>
<g>
</g>
<g>
</g>
<g>
</g>
<g>
</g>
<g>
</g>
<g>
</g>
<g>
</g>
<g>
</g>
<g>
</g>
</svg>
