<?xml version="1.0" encoding="utf-8"?>
<!-- Generator: Adobe Illustrator 17.0.0, SVG Export Plug-In . SVG Version: 6.00 Build 0)  -->
<!DOCTYPE svg PUBLIC "-//W3C//DTD SVG 1.1//EN" "http://www.w3.org/Graphics/SVG/1.1/DTD/svg11.dtd">
<svg version="1.1" id="Layer_1" xmlns="http://www.w3.org/2000/svg" xmlns:xlink="http://www.w3.org/1999/xlink" x="0px" y="0px"
	 width="640px" height="421.8px" viewBox="0 0 640 421.8" style="enable-background:new 0 0 640 421.8;" xml:space="preserve">
<style type="text/css">
	.st0{fill:#888888;}
	.st1{fill:#AA192A;}
	.st2{fill:none;stroke:#AA192A;stroke-width:0.5669;stroke-miterlimit:22.9256;}
	.st3{fill:none;}
</style>
<g id="page-7-content.svg">
	<polygon class="st0" points="211.9,62.4 198.5,62.4 198.5,58.8 203,58.8 203,45 198.4,46.1 198.4,42.4 207.5,40.5 207.5,58.8 
		211.9,58.8 	"/>
	<path class="st0" d="M220.8,51.9c0,5,1.1,7.4,3.2,7.4c2.1,0,3.1-2.6,3.1-7.7c0-5.1-1-7.7-3-7.7C221.9,43.9,220.8,46.6,220.8,51.9
		 M216.3,52c0-3.7,0.7-6.6,2.1-8.5c1.4-2,3.4-2.9,5.9-2.9c4.9,0,7.4,3.7,7.4,11c0,3.6-0.7,6.4-2,8.3c-1.3,2-3.3,2.9-5.8,2.9
		C218.8,62.7,216.3,59.2,216.3,52z"/>
	<path class="st0" d="M248.2,53.6h2.4v-5.9h-2.4V53.6z M256.7,47.6h-2.4v5.9h2.4V47.6z M254.3,66.1h-3.6V57h-2.4v1.8h-3.4v-3.5
		l-2.1,2.1l-2.1-2.3v11.1h-3.5v-9.1c-0.8,1.8-1.8,3.4-2.8,4.9c-0.3-1.2-0.7-2.7-1.3-4.4c1.7-2,3-4.4,4-7h-3.7v-3.6h3.8v-3.1
		l-3.1,0.3c-0.2-1.3-0.4-2.4-0.6-3.3c3.1-0.3,6.4-0.7,9.8-1.2l0.8,3.2c-1,0.2-2.1,0.3-3.4,0.5v3.5h3.3v3.6h-3.3v2.5l0.9-0.9
		c1.3,1.1,2.4,2.2,3.3,3.1V44.2h5.9v-5.4h3.6v5.4h5.9v14.6h-3.4V57h-2.4V66.1z"/>
	<path class="st0" d="M273.9,61.9h6.5V57h-5.2v-3.4h14.4V57h-5.3v4.9h6.6v3.4h-17V61.9z M288.7,40v3c-0.9,1.4-2,2.8-3.3,4
		c1.7,0.9,3.6,1.9,5.6,3l-2.2,3.2c-2.1-1.4-4.1-2.7-6.2-3.9c-2,1.5-4.4,2.8-7.1,3.9c-0.6-1.1-1.4-2.3-2.2-3.4
		c4.7-1.6,8.2-3.8,10.7-6.4h-9V40H288.7z M263.4,61.6l-0.1-3.5l5.1-0.2v-2.5h-4.9v-3.8c0.5-1.4,1-3.5,1.6-6.1h-1.8v-3.3h2.5l0.7-3.4
		l3.5,0.2l-0.7,3.2h5.2v3.3h-6c-0.6,2.5-1.2,4.7-1.7,6.6h1.6V47h3.3v5.1h2.4v3.3h-2.4v2.4l2.7-0.1c-0.1,1.2-0.1,2.3-0.1,3.3
		l-2.6,0.1v5.1h-3.3v-4.9L263.4,61.6z"/>
	<path class="st0" d="M300,61.6h3.2v-9.1h3.5v9.1h3.1V50.3h-7.9V47H320v3.3h-6.6v3.6h5.8v3.2h-5.8v4.6h7.5V65H300V61.6z M306.5,39.5
		l4.4-1c0.5,1.1,0.9,2.1,1.3,3.1h8.8V45h-20.3v6.2c0,2.3-0.1,4.2-0.3,5.8c-0.2,1.6-0.6,3.2-1.2,4.8c-0.6,1.6-1.4,3.1-2.3,4.5
		c-1-0.9-2-1.7-3.1-2.6c1.6-2,2.6-4.5,3.1-7.5c-1.2,0.7-2.1,1.2-2.8,1.6l-0.7-3.6c0.8-0.3,2.1-1,3.8-1.9l0-2.4l-2,0.8
		c-0.6-1.9-1.2-3.7-1.9-5.4l2.3-1c0.5,1.1,1,2.4,1.5,3.8v-6.6h10.3C307.1,40.9,306.8,40.2,306.5,39.5z"/>
	<path class="st0" d="M343.7,59.1c-1.7-1.8-3.1-3.9-4.2-6.2c-0.7,3.6-1.8,6.9-3.5,9.9C338.9,61.8,341.5,60.5,343.7,59.1 M345.7,47.9
		l2.3-3.9h-7.9c0,0.7,0,1.4,0,1.9c2,4.7,4.2,8.3,6.7,10.8c1.7-1.6,3-3.3,3.9-5.2h-5V47.9z M331.7,40.3h21.1v2.9l-2.7,4.7h5.5v2.7
		c-1.3,3.3-3.1,6.1-5.4,8.5c2.2,1.4,4.9,2.4,7.9,3.1c-0.8,1.3-1.6,2.6-2.3,3.9c-3.4-1-6.3-2.3-8.8-4.2c-2.4,1.8-5.1,3.2-8.3,4.4
		c-0.5-0.7-1.4-1.8-2.7-3.4c-0.7,1.2-1.5,2.4-2.3,3.6c-1.2-1.1-2.4-2.1-3.4-2.9c4.1-4.7,6.1-11,6.1-18.8V44h-4.6V40.3z"/>
	<path class="st0" d="M381.4,51v-2.4h-14.2V51H381.4z M381.4,43h-14.2v2.4h14.2V43z M360.9,57.1h11.4v-2.7h-8.9V39.7h22v14.7h-8.9
		v2.7h11.4v3.5h-11.4v5.4h-4.2v-5.4h-11.4V57.1z"/>
	<polygon class="st0" points="390.7,50.2 402.3,50.2 402.3,44.2 392.5,44.2 392.5,40.4 416.4,40.4 416.4,44.2 406.7,44.2 
		406.7,50.2 418.4,50.2 418.4,54.1 406.7,54.1 406.7,66 402.3,66 402.3,54.1 390.7,54.1 	"/>
	<path class="st0" d="M438.7,50.8h3.5v0.8c0,2.9-0.2,5.2-0.7,6.9c2.5,1.8,4.8,3.5,6.9,5.2l-2.6,2.7c-1.7-1.6-3.5-3.2-5.7-4.9
		c-1.2,1.7-3.3,3.3-6.4,4.9c-0.8-1.2-1.5-2.3-2.3-3.3c3.3-1.5,5.4-3,6.2-4.7c0.7-1.4,1.1-3.7,1.1-6.9V50.8z M433.4,59.2V45.9h4.3
		l0.4-2.4h-5.3v-3.4h15v3.4H442l-0.5,2.4h6v13.3h-3.6v-9.9H437v9.9H433.4z M432.5,49.1l-0.9,9.3h-2.5l0.6-5.8h-1.9v10.1
		c0,2.1-1,3.2-3,3.4c-0.6,0.1-1.7,0.1-3.1,0.1c-0.2-1.1-0.5-2.3-0.8-3.6c0.6,0,1.2,0.1,1.7,0.1c1,0,1.5-0.5,1.5-1.6v-8.4h-3.4v-3.4
		h3.8c-1.2-0.8-2.3-1.6-3.4-2.3l2-2.5c1,0.8,2,1.6,2.9,2.4l2.3-3.3h-7.2v-3.3h10.9v3.6l-3.7,5.4H432.5z"/>
	<path class="st0" d="M198.4,109.2c1.5,0.9,3,1.4,4.7,1.4c1.3,0,2.3-0.3,3-0.9c0.7-0.6,1.1-1.5,1.1-2.6c0-2.2-1.5-3.3-4.6-3.3
		c-0.9,0-2.1,0.1-3.5,0.3V92.1h11.7v3.7h-7.9v4.5c0.5-0.1,1.1-0.1,1.8-0.1c2.2,0,3.9,0.6,5.2,1.7c1.3,1.1,1.9,2.7,1.9,4.7
		c0,2.2-0.7,4-2.2,5.3c-1.5,1.3-3.5,2-6,2c-2.1,0-3.8-0.3-5.1-0.9V109.2z"/>
	<path class="st0" d="M217.6,109.2c1.5,0.9,3,1.4,4.7,1.4c1.3,0,2.3-0.3,3-0.9c0.7-0.6,1.1-1.5,1.1-2.6c0-2.2-1.5-3.3-4.6-3.3
		c-0.9,0-2.1,0.1-3.5,0.3V92.1H230v3.7h-7.9v4.5c0.5-0.1,1.1-0.1,1.8-0.1c2.2,0,3.9,0.6,5.2,1.7c1.3,1.1,1.9,2.7,1.9,4.7
		c0,2.2-0.7,4-2.2,5.3c-1.5,1.3-3.5,2-6,2c-2.1,0-3.8-0.3-5.1-0.9V109.2z"/>
	<path class="st0" d="M248.2,104.8h2.4v-5.9h-2.4V104.8z M256.7,98.9h-2.4v5.9h2.4V98.9z M254.3,117.4h-3.6v-9.1h-2.4v1.8h-3.4v-3.5
		l-2.1,2.1l-2.1-2.3v11.1h-3.5v-9.1c-0.8,1.8-1.8,3.4-2.8,4.9c-0.3-1.2-0.7-2.7-1.3-4.4c1.7-2,3-4.4,4-7h-3.7V98h3.8v-3.1l-3.1,0.3
		c-0.2-1.3-0.4-2.4-0.6-3.3c3.1-0.3,6.4-0.7,9.8-1.2l0.8,3.2c-1,0.2-2.1,0.3-3.4,0.5V98h3.3v3.6h-3.3v2.5l0.9-0.9
		c1.3,1.1,2.4,2.2,3.3,3.1V95.5h5.9v-5.4h3.6v5.4h5.9V110h-3.4v-1.8h-2.4V117.4z"/>
	<path class="st0" d="M269.7,106.6h5.6V105h-5.6V106.6z M284.6,106.6V105h-5.7v1.6H284.6z M269.7,103h5.6v-1.6h-5.6V103z
		 M284.6,101.4h-5.7v1.6h5.7V101.4z M263.3,114h11.9v-1.4h-10.1v-2.3h10.1v-1.4h-9.1v-9.8h9.1v-1.4h-11.8v-2.5h11.8v-1.4l-9.4,0.2
		c-0.1-0.8-0.3-1.6-0.5-2.5c7.9-0.1,15.6-0.3,23.1-0.6c0,0.1,0.2,0.9,0.5,2.6l-9.9,0.3v1.5h12v2.5h-12v1.4h9.3v9.8h-9.3v1.4h10.3
		v2.3h-10.3v1.4h12v2.5h-27.6V114z"/>
	<path class="st0" d="M295.7,95.6c0.6,1.8,1.3,3.7,1.9,5.9l-2.5,0.9c-0.5-1.8-1.1-3.8-1.8-5.9L295.7,95.6z M304.1,105.1h4.7
		c0.1-1,0.1-2.1,0.2-3.3h-2.8C305.6,103.1,304.9,104.2,304.1,105.1z M301.2,95.9c0,4.1,0,6.4,0,7c1.5-2,2.8-4.3,3.8-7H301.2z
		 M319.2,101.9h-6.5c0,1.2-0.1,2.3-0.2,3.3h7.6v3.3h-7.1c1.9,2.5,4.6,4.2,8.1,5.3c-0.9,1.2-1.7,2.4-2.6,3.7c-3.4-1.5-6-3.8-7.8-6.7
		c-1.5,2.9-4.2,5.2-7.9,6.8c-1-1.4-1.9-2.5-2.7-3.3c4.2-1.3,6.8-3.2,7.9-5.8h-6.3v-3.3h2.1c-1-0.7-2-1.3-2.8-1.8
		c-0.2,5.9-1.7,10.6-4.6,14.2c-1.2-1.2-2.1-2.1-2.9-2.7c1.8-2.4,3-5,3.6-8c-1.2,0.7-2.3,1.4-3.3,1.9l-0.6-3.6
		c1.5-0.6,2.9-1.3,4.3-1.9c0-0.4,0-3.9,0-10.5h9.3l-1-2.1l4.5-0.7l1.1,2.8h9.1v3.2h-15.3l3.1,1c-0.2,0.5-0.4,1.1-0.6,1.6h11.4V101.9
		z"/>
	<path class="st0" d="M341.8,107.8c1.1,1,2,2,2.9,3c2.7-1.3,5.1-2.8,7.2-4.6h-7.6C343.4,106.8,342.6,107.3,341.8,107.8 M339.7,95.4
		c1.1,1,2.2,2.1,3.2,3.1c2.2-0.9,4.5-2.1,6.8-3.6h-9.4C340.1,95.1,339.9,95.2,339.7,95.4z M355.1,91.8v2.9c-2.5,2.4-5.6,4.5-9.4,6.4
		h4.6c-0.7,0.7-1.4,1.4-2.1,2.1h8.8v2.8c-5.3,6.6-13.5,10.5-24.4,11.9c-0.5-1.3-1.1-2.5-1.7-3.6c3.9-0.3,7.4-1,10.6-2.1
		c-0.7-0.9-1.5-1.8-2.4-2.8c-1.6,0.8-3.3,1.5-5.1,2.1c-0.7-1.2-1.4-2.3-2.2-3.4c5.8-1.6,10.5-3.9,14.1-7.1
		c-3.8,1.8-8.2,3.3-13.3,4.6c-0.5-1.4-1.1-2.6-1.7-3.6c3.2-0.5,6.1-1.2,8.9-2.1c-0.7-0.9-1.6-1.7-2.5-2.6c-1.1,0.7-2.2,1.3-3.4,1.9
		c-0.7-1-1.5-2.1-2.5-3.1c3.8-1.4,7-3.4,9.7-6.1h4.6c-0.5,0.6-1,1.2-1.6,1.8H355.1z"/>
	<path class="st0" d="M366.9,106.6h5.6V105h-5.6V106.6z M381.8,106.6V105h-5.7v1.6H381.8z M366.9,103h5.6v-1.6h-5.6V103z
		 M381.8,101.4h-5.7v1.6h5.7V101.4z M360.6,114h11.9v-1.4h-10.1v-2.3h10.1v-1.4h-9.1v-9.8h9.1v-1.4h-11.8v-2.5h11.8v-1.4L363,94
		c-0.1-0.8-0.3-1.6-0.5-2.5c7.9-0.1,15.6-0.3,23.1-0.6c0,0.1,0.2,0.9,0.5,2.6l-9.9,0.3v1.5h12v2.5h-12v1.4h9.3v9.8h-9.3v1.4h10.3
		v2.3h-10.3v1.4h12v2.5h-27.6V114z"/>
	<path class="st0" d="M390.7,101.3h17.5V98h4.1v3.3h5.9v3.7h-5.9v7c0,1.7-0.4,3-1.2,3.8c-0.8,0.8-1.9,1.3-3.3,1.3l-5.5,0.1
		c-0.3-1.6-0.7-3-1-4.1c1.5,0.1,2.9,0.1,4.2,0.1c1.7,0,2.6-0.8,2.6-2.6V105h-11.3c1.9,1.3,3.8,2.7,5.9,4.2l-2.7,3.5
		c-2.1-1.9-4.2-3.6-6.1-4.9l2.3-2.8h-5.6V101.3z M391.9,99.6v-6.2h10.5c-0.3-1.2-0.6-2.2-0.8-3l4.6-0.6c0.2,0.8,0.5,2,0.9,3.6h10
		v6.2h-4v-2.8h-17.1v2.8H391.9z"/>
	<path class="st0" d="M421.2,94.9h3V90h3.6v4.9h2.9v3.6h-2.9v4.2l2.8-0.6c-0.1,1.6-0.1,2.8-0.1,3.6l-2.6,0.6v7.3
		c0,1-0.3,1.8-0.8,2.5c-0.5,0.7-2.2,1-5,1.1c-0.2-0.9-0.5-2.2-0.9-3.8c0.6,0,1.1,0.1,1.6,0.1c0.6,0,1.1-0.1,1.3-0.3
		c0.2-0.2,0.3-0.5,0.3-1.1v-5l-3,0.7l-0.4-4l3.4-0.6v-4.9h-3V94.9z M435.3,97.1v5.1h8v-5.1H435.3z M436.6,90.6l4.2-0.7l1,3.7h5.3
		v14.1h-3.8v-1.9h-8.1c-0.2,4.6-1.5,8.4-3.8,11.6c-0.8-1.1-1.8-2.1-3-3.2c1.9-2.3,2.9-5.7,3-10.3V93.6h6L436.6,90.6z"/>
	<path class="st0" d="M207.8,159.1c1.1,1,2,2,2.9,3c2.7-1.3,5.1-2.8,7.2-4.6h-7.6C209.4,158,208.6,158.6,207.8,159.1 M205.7,146.7
		c1.1,1,2.2,2.1,3.2,3.1c2.2-0.9,4.5-2.1,6.8-3.6h-9.4C206.1,146.3,205.9,146.5,205.7,146.7z M221.1,143.1v2.9
		c-2.5,2.4-5.6,4.5-9.4,6.4h4.6c-0.7,0.7-1.4,1.4-2.1,2.1h8.8v2.8c-5.3,6.6-13.5,10.5-24.4,11.9c-0.5-1.3-1.1-2.5-1.7-3.6
		c3.9-0.3,7.4-1,10.6-2.1c-0.7-0.9-1.5-1.8-2.4-2.8c-1.6,0.8-3.3,1.5-5.1,2.1c-0.7-1.2-1.4-2.3-2.2-3.4c5.8-1.6,10.5-3.9,14.1-7.1
		c-3.8,1.8-8.2,3.3-13.3,4.6c-0.5-1.4-1.1-2.6-1.7-3.6c3.2-0.5,6.1-1.2,8.9-2.1c-0.7-0.9-1.6-1.7-2.5-2.6c-1.1,0.7-2.2,1.3-3.4,1.9
		c-0.7-1-1.5-2.1-2.5-3.1c3.8-1.4,7-3.4,9.7-6.1h4.6c-0.5,0.6-1,1.2-1.6,1.8H221.1z"/>
	<path class="st0" d="M241.6,156.1h2.4v-5.9h-2.4V156.1z M250.1,150.2h-2.4v5.9h2.4V150.2z M247.6,168.6h-3.6v-9.1h-2.4v1.8h-3.4
		v-3.5l-2.1,2.1l-2.1-2.3v11.1h-3.5v-9.1c-0.8,1.8-1.8,3.4-2.8,4.9c-0.3-1.2-0.7-2.7-1.3-4.4c1.7-2,3-4.4,4-7h-3.7v-3.6h3.8v-3.1
		l-3.1,0.3c-0.2-1.3-0.4-2.4-0.6-3.3c3.1-0.3,6.4-0.7,9.8-1.2l0.8,3.2c-1,0.2-2.1,0.3-3.4,0.5v3.5h3.3v3.6H234v2.5l0.9-0.9
		c1.3,1.1,2.4,2.2,3.3,3.1v-10.9h5.9v-5.4h3.6v5.4h5.9v14.6h-3.4v-1.8h-2.4V168.6z"/>
	<path class="st0" d="M273.4,162.8v-1.6h-5.8v1.6H273.4z M264.3,166v-7.2h12.5v6.3h-9.2v0.9H264.3z M258.2,154.8h24.7v9.2
		c0,1.3-0.3,2.3-0.8,3.1c-0.5,0.7-1.2,1.2-2.1,1.3c-0.9,0.2-2.6,0.2-5.3,0.2c-0.2-1.1-0.4-2.2-0.7-3.3c1.1,0.1,2.2,0.1,3.4,0.1
		c1.2,0,1.9-0.6,1.9-1.8v-6.1h-17.4v10.9h-3.7V154.8z M276.5,151.2v-1.4h-11.9v1.4H276.5z M260.8,153.6v-6.2h19.4v6.2H260.8z
		 M256.8,143.4h11.5c-0.3-0.6-0.5-1.2-0.7-1.7l4.5-0.7c0.3,0.8,0.6,1.6,0.9,2.4h11.1v2.8h-27.3V143.4z"/>
	<path class="st0" d="M302.4,160.3c1.9-1.4,3.4-2.8,4.5-4.3h-8.4C299.5,157.6,300.8,159,302.4,160.3 M311.5,155.8
		c-1.4,2.5-3.3,4.6-5.6,6.5c2.1,0.9,4.9,1.7,8.5,2.2c-0.8,1.3-1.6,2.7-2.4,4.1c-3.8-0.9-7-2.1-9.6-3.8c-2.7,1.6-5.9,3-9.7,4.1
		c-0.7-1.2-1.4-2.4-2.1-3.6c3.1-0.9,5.9-1.9,8.4-3c-1.4-1.3-2.6-2.7-3.7-4.3c-2.1,3.4-4.6,6.3-7.4,8.7c-0.4-1.7-0.8-3.3-1.2-4.6
		c3.6-3.4,6.3-7.3,8.1-11.8h-7v-3.3c0.5-1.5,1-3.1,1.4-4.8l3.8,0.4c-0.3,1.1-0.7,2.6-1.1,4.3h4c0.4-1.6,0.8-3.4,1.3-5.5l4,0.3
		l-1.2,5.2h7.8c-1-1-2.1-2-3.2-3.1l2.4-2.3c1.7,1.3,3.1,2.5,4.3,3.6l-1.7,1.8h4.7v3.4H299c-0.3,0.8-0.6,1.6-1,2.6h13.5V155.8z"/>
	<path class="st0" d="M341.3,161.7h-3.9v2.4h3.9V161.7z M336.2,158.6h7.4c-1.2-0.7-2.5-1.4-3.6-2.1
		C338.9,157.4,337.6,158.1,336.2,158.6z M334.2,168.3v-8.9c-0.3,0.1-0.6,0.2-0.8,0.2c-0.4-1-0.7-1.9-1.1-2.7
		c1.9-0.5,3.5-1.1,4.8-1.9l-1.4-0.7l1.6-2.2l2.2,1c0.7-0.7,1.2-1.4,1.7-2.2h-3.6c-0.7,1.1-1.6,2.2-2.5,3.2c-0.6-0.4-1.5-0.9-2.6-1.5
		c2-2,3.3-4.1,4.1-6.2l2.9,1.1c-0.1,0.3-0.2,0.6-0.4,0.8h5.8v2.6c-0.7,1.4-1.5,2.6-2.4,3.7c1.2,0.6,2.5,1.3,3.7,1.9l-1.5,2.7l-0.1,0
		v6.8c2.5-0.9,4.2-2,5.1-3.3c0.8-1.3,1.3-3.4,1.3-6.4v-4.1h3.3v4.5c0,1.8-0.1,3.3-0.4,4.6c2.3,1.5,4.4,2.9,6.1,4.3l-2,3.3
		c-1.5-1.3-3.3-2.8-5.4-4.4c-1.2,1.9-3.3,3.3-6.2,4.4c-0.6-0.9-1.1-1.8-1.7-2.5v1.8h-3.2v-0.9h-3.9v1.1H334.2z M332.7,148.3v-4.7
		h4.7c-0.2-0.6-0.4-1.2-0.6-1.8l3.9-0.6l0.8,2.4h4.1v-1.4h14v3.3h-5.7c-0.1,0.9-0.2,1.7-0.4,2.4h5.3v14.3h-3.3v-11.1h-6.1v11.1h-3.3
		V148h3.8c0.1-0.8,0.2-1.6,0.3-2.4h-4.6v2.3h-2.9v-1.5h-7.1v2H332.7z"/>
	<path class="st0" d="M384,148.9c2.5,2.8,4.6,5.3,6.2,7.5l-3.1,2.5c-1.6-2.2-3.1-4.3-4.6-6.2v15.9h-3.9v-27.3h3.9v8.7L384,148.9z
		 M377.1,145.6v3.5c-1.1,8.5-5,15.2-11.5,19.8c-1.1-1.4-2.1-2.4-2.8-3.1c2.7-1.9,5-4.2,6.7-6.7c-1-0.9-2.1-1.9-3.3-3l2.2-2.8
		c1.1,0.9,2.1,1.7,2.9,2.4c0.9-2,1.6-4.2,1.9-6.5h-4.2c-1.4,3.3-3.1,6.3-5.1,8.9c-0.8-1.8-1.4-3.1-1.9-4c2.6-3.6,4.4-7.9,5.5-13.1
		l3.9,0.7c-0.3,1.3-0.6,2.6-1,3.8H377.1z"/>
	<path class="st0" d="M410.7,150.9l-1.9,1h3.6c0.9-1.6,1.6-3.1,2.3-4.4h-5.9C409.3,148.4,410,149.6,410.7,150.9 M415.3,160.3h-7.1
		v3.6h7.1V160.3z M397.1,147.3h2.4v7.3c0,2-0.1,3.8-0.3,5.2c1.7,2,3.4,4,5.2,6.2l-2.9,2.3c-0.6-0.9-1.6-2.5-3.1-4.8
		c-0.7,1.7-2.1,3.5-4.1,5.4c-0.6-1.3-1.1-2.6-1.8-3.7c3.1-2.4,4.6-5.5,4.6-9.6V147.3z M393.5,160.6v-18h9.8v18h-2.6v-14.8h-4.6v14.8
		H393.5z M404.7,168.6V157h14.1v11.6h-3.5v-1.4h-7.1v1.4H404.7z M403.7,151.9h3.3c-0.6-1.3-1.2-2.3-1.6-3.1l2.5-1.3h-3.5v-3.3h5.3
		c-0.3-0.8-0.6-1.6-0.9-2.3l4.1-0.7c0.2,0.8,0.5,1.8,0.8,3h5.7v3.3h-4l2.8,1.4c-0.6,1-1.3,2-1.9,3h3.7v3.3h-16.3V151.9z"/>
	<path class="st0" d="M435.3,151.7c1.8,2.3,3.5,4.6,5,6.8l-3.3,2.2c-1.3-2.3-2.9-4.6-4.6-7L435.3,151.7z M431.3,146.4h11.3v-4.9h3.9
		v4.9h3.8v3.7h-3.8v13.5c0,1.4-0.3,2.6-0.8,3.3c-0.6,0.8-1.4,1.2-2.4,1.3c-1,0.1-3.1,0.2-6,0.1c-0.2-1.2-0.5-2.6-0.9-4.1
		c1.6,0.1,3.1,0.2,4.4,0.2c1.2,0,1.9-0.7,1.9-2.1v-12.3h-11.3V146.4z M428.3,141.1l3.7,0.9c-0.6,1.8-1.2,3.5-1.9,5.1v21.5h-3.8
		v-14.1c-0.7,1.2-1.5,2.3-2.3,3.5c-0.3-1.1-0.7-2.8-1.3-5.1C425.2,149,427.1,145.1,428.3,141.1z"/>
	<path class="st0" d="M218.1,197h-8.9v3.8h8.9V197z M205.5,193.7h16.3v10.4h-6.3v2.5h8.1v3.2h-6.4c1.5,2,3.7,3.7,6.7,5
		c-0.9,1.5-1.7,2.7-2.2,3.6c-2.7-1.7-4.8-3.8-6.2-6.4v8h-3.9v-7.8c-1.8,2.6-4,4.8-6.5,6.5c-0.6-1.1-1.3-2.2-2.1-3.3
		c2.5-1.4,4.7-3.3,6.6-5.6h-5.8v-3.2h7.9v-2.5h-6.1V193.7z M201.2,192.5l3.7,1.1c-0.6,2.3-1.4,4.6-2.2,6.6V220h-3.5v-12.4
		c-0.6,1.1-1.3,2.1-1.9,3.1c-0.2-1.8-0.5-3.6-0.9-5.3C198.3,202.1,199.9,197.8,201.2,192.5z"/>
	<path class="st0" d="M238.9,210.8h3.6c-0.1,1-0.2,1.9-0.5,2.8c3.4,0.9,7.3,2.1,11.6,3.5l-1.7,3c-3.4-1.3-7.2-2.6-11.3-3.9
		c-1.6,2-5.5,3.3-11.6,3.9c-0.4-1-0.9-2.1-1.5-3.3c4-0.2,6.9-0.7,8.6-1.5C237.9,214.5,238.8,213,238.9,210.8 M247.3,206.7
		c1.4,0,2.2,0,2.3-0.1c0.2-0.1,0.3-0.3,0.4-0.5c0.1-0.2,0.1-0.6,0.1-1h-4.3v2.1h-3.4v-2.1h-5c-0.7,1.2-1.4,2-2.1,2.6h12.3
		L247.3,206.7z M231.9,201l-0.3,1.6h3.3c0.1-0.5,0.3-1,0.4-1.6H231.9z M238.3,202.5h4V201h-3.7C238.6,201.5,238.5,202.1,238.3,202.5
		z M249.1,198.4v-1.6h-3.3v1.6H249.1z M238.9,198.4h3.5v-1.6h-3.5C238.9,197.2,238.9,197.7,238.9,198.4z M230.9,214.9v-4.7
		c-0.8,0.4-1.7,0.7-2.7,1c-0.4-0.9-1-1.9-1.7-2.9c3.3-0.8,5.6-1.9,6.9-3.3h-5.4l1.1-6.7h6.4c0-0.4,0-0.9,0-1.6H228v-2.6h7.4v-1.8
		h3.4v1.8h3.5v-1.8h3.4v1.8h6.6v6.7h-6.6v1.6h7.6c0,1.5-0.1,2.7-0.2,3.7c-0.1,1-0.4,1.8-0.8,2.3c-0.5,0.5-1.1,0.7-2.1,0.8v5.1h-3.5
		v-4.3h-12.4v4.9H230.9z"/>
	<path class="st0" d="M266.2,213.9h-5.3v2.1h5.3V213.9z M277.1,202.8c-0.8,1.5-1.8,3.1-3.2,4.7h6.3
		C279.1,206.1,278.1,204.6,277.1,202.8z M279.2,210.8h-4.4v4.2h4.4V210.8z M280,192.5c1.6,2.1,3.1,4.2,4.5,6.3l-2.9,2.1
		c-1.4-2.5-2.8-4.7-4.2-6.8L280,192.5z M261,192.9l3.9-0.4c0.1,0.6,0.3,1.3,0.5,2.2h4.6v4.2c1.6-1.9,2.9-4,4-6.2l2.8,1.3
		c-1.3,2.4-2.8,4.9-4.6,7.4c-0.7-0.6-1.5-1.3-2.5-2.1l0.3-0.4h-2.7v-1.3h-7.3v1.4h-2.8v-4.3h4.3C261.3,194,261.2,193.4,261,192.9z
		 M257.1,207.2h4.8v-1.2h-3.7v-2.6h3.7v-1.2h-4.3v-2.7h4.3v-1.1h3.2v1.1h4.3v2.7h-4.3v1.2h3.7v2.6h-3.7v1.2h4.6
		c2.6-2,4.5-4.8,5.9-8.5h3.8l-0.4,0.9c1.5,3.2,3.4,5.6,5.7,7.4c-0.4,1-0.9,2.2-1.5,3.6c-0.3-0.2-0.5-0.5-0.8-0.7v10.1h-3.2v-1.7
		h-4.4v1.7h-3.2V210c-0.3,0.2-0.5,0.5-0.8,0.7c-0.3-0.9-0.7-1.8-1.1-2.8v1.9h-4.6v1.3h4.2v8.7h-3.1v-1h-5.3v1h-3.1v-8.7h4.1v-1.3
		h-4.8V207.2z"/>
	<path class="st0" d="M300.6,211.4h3.7v2.9c0,1.2,0.5,1.8,1.6,1.8h2.3c1.4,0,2.1-0.4,2.2-1.3c0.1-0.5,0.2-1.8,0.3-3.8
		c1.4,0.5,2.6,0.9,3.8,1.2c-0.3,2.2-0.5,3.7-0.8,4.6c-0.4,1.7-2.1,2.6-5.1,2.6h-4.2c-2.5,0-3.8-1.4-3.8-4.1V211.4z M298.8,203.5
		h-5.2v3.9h4.4C298.3,206.3,298.6,205,298.8,203.5z M293.5,200.4h7.7l2.2-2.5h-7.6C295.2,198.7,294.4,199.6,293.5,200.4z
		 M307.7,207.4v-3.9h-5.3c-0.2,1.5-0.4,2.8-0.6,3.9H307.7z M308.2,194.7v3.1l-2.4,2.6h5.7v10.1H301c-2.1,3.9-5.9,7.1-11.5,9.6
		c-0.7-0.9-1.6-2.1-2.7-3.4c4.8-1.8,8-3.8,9.7-6.2h-2.9v1.2h-3.9v-8c-0.4,0.3-0.7,0.5-1.1,0.8c-0.6-1.2-1.2-2.3-1.9-3.5
		c3.4-2.2,6.2-5,8.3-8.4l4.3,0.3c-0.4,0.7-0.7,1.3-1.1,1.9H308.2z"/>
	<path class="st0" d="M334.9,208c1.2,0.5,2.4,0.9,3.5,1.2l-2.2,10.9c-1.3-0.4-2.5-0.8-3.7-1.1C333.4,215.5,334.2,211.8,334.9,208
		 M354.8,210.3h-2v5.6h2V210.3z M343.2,215.9h2v-5.6h-2V215.9z M348,215.9h2v-5.6h-2V215.9z M337.7,215.9h2.1v-8.5h18.5v8.5h1.6v2.9
		h-22.2V215.9z M334.4,200.1c1.7,1.3,3.2,2.5,4.4,3.5l-2.5,3c-1.5-1.4-2.9-2.7-4.2-3.9L334.4,200.1z M353.7,202.9v-1.8h-9.3v1.8
		H353.7z M353.7,196.6h-9.3v1.8h9.3V196.6z M341,193.7h16.1v12.1H341V193.7z M335.2,192.9c1.5,1.1,3,2.2,4.5,3.4l-2.6,2.8
		c-1.3-1.3-2.8-2.6-4.3-3.8L335.2,192.9z"/>
	<path class="st0" d="M374.1,216.9c1.8-0.4,3.4-0.8,4.7-1.4c-0.8-0.8-1.6-1.6-2.3-2.5C375.8,214.4,375,215.7,374.1,216.9
		 M381.8,213.9c1.1-0.8,2-1.7,2.6-2.8h-5.6C379.7,212.2,380.7,213.2,381.8,213.9z M368.5,213.3V207h-1.9v6.2H368.5z M368.5,197.8
		h-1.9v6h1.9V197.8z M388.3,208.3v2.6c-0.9,1.7-2,3.2-3.4,4.5c1.6,0.5,3.3,0.9,5.2,1.1c-0.6,1-1.3,2.1-1.8,3.3
		c-2.5-0.5-4.6-1.2-6.5-2.2c-1.8,1-3.9,1.8-6.4,2.5c-0.5-1-1-1.9-1.6-2.8c-0.7,0.9-1.5,1.7-2.3,2.4c-0.5-1.2-0.9-2.3-1.4-3.3h-3.5
		v1.6h-3.1v-23.6h8.1v20.1c1.8-2.2,3-4.8,3.6-7.7h-3.2V204h3.7c0-0.5,0.1-0.9,0.1-1.4h-3.3v-2.8h1.8c-0.3-0.6-0.6-1.2-0.8-1.7l2.8-1
		l1.2,2.7h2c-0.3-0.8-0.5-1.6-0.8-2.5l3-0.6c0.3,1,0.6,2,0.9,3.1h1.1c0.6-1.1,1.2-2.2,1.8-3.4l3.1,1.2c-0.5,0.8-1,1.6-1.5,2.3h2.3
		v2.8h-10c0,0.5-0.1,0.9-0.1,1.4h10.6v2.8h-11c-0.1,0.5-0.2,1-0.3,1.4H388.3z M372.1,194c5.3-0.1,10.8-0.5,16.4-1l0.6,3l-16.4,1.1
		C372.6,196,372.4,194.9,372.1,194z"/>
	<path class="st0" d="M407,203.7v5.8h2.6v-5.8H407z M398.7,198.4h-1.9v12.1h1.9V198.4z M412.8,200.5v12.2H407v1.5h-3.3v-13.7H412.8z
		 M403.2,194H420v3.5h-1.7v16.7c0,3.3-1.3,5.1-4,5.3c-1.1,0.1-2.9,0.1-5.3,0.1c-0.2-1.3-0.5-2.5-0.8-3.8c1.5,0.1,2.9,0.1,4.1,0.1
		c1.6,0,2.4-0.8,2.4-2.5v-16h-11.4V194z M393.6,194.9h8.3v21h-3.2v-1.8h-1.9v2.5h-3.2V194.9z"/>
	<path class="st0" d="M423,197.5h3v-4.9h3.6v4.9h2.9v3.6h-2.9v4.2l2.8-0.6c-0.1,1.6-0.1,2.8-0.1,3.6l-2.6,0.6v7.3
		c0,1-0.3,1.8-0.8,2.5c-0.5,0.7-2.2,1-5,1.1c-0.2-0.9-0.5-2.2-0.9-3.8c0.6,0,1.1,0.1,1.6,0.1c0.6,0,1.1-0.1,1.3-0.3
		c0.2-0.2,0.3-0.5,0.3-1.1v-5l-3,0.7l-0.4-4l3.4-0.6v-4.9h-3V197.5z M437.1,199.7v5.1h8v-5.1H437.1z M438.4,193.2l4.2-0.7l1,3.7h5.3
		v14.1h-3.8v-1.9h-8.1c-0.2,4.6-1.5,8.4-3.8,11.6c-0.8-1.1-1.8-2.1-3-3.2c1.9-2.3,2.9-5.7,3-10.3v-10.4h6L438.4,193.2z"/>
	<path class="st0" d="M218.1,248.3h-8.9v3.8h8.9V248.3z M205.5,245h16.3v10.4h-6.3v2.5h8.1v3.2h-6.4c1.5,2,3.7,3.7,6.7,5
		c-0.9,1.5-1.7,2.7-2.2,3.6c-2.7-1.7-4.8-3.8-6.2-6.4v8h-3.9v-7.8c-1.8,2.6-4,4.8-6.5,6.5c-0.6-1.1-1.3-2.2-2.1-3.3
		c2.5-1.4,4.7-3.3,6.6-5.6h-5.8v-3.2h7.9v-2.5h-6.1V245z M201.2,243.8l3.7,1.1c-0.6,2.3-1.4,4.6-2.2,6.6v19.7h-3.5v-12.4
		c-0.6,1.1-1.3,2.1-1.9,3.1c-0.2-1.8-0.5-3.6-0.9-5.3C198.3,253.3,199.9,249,201.2,243.8z"/>
	<path class="st0" d="M249,261.6v-1.1h-8.7v1.1H249z M249,257.2h-8.7v1.1h8.7V257.2z M236.9,254.7h15.4v9.4h-5.9v1.2h7.4v2.9h-7.4
		v3.1h-3.7v-3.1h-7.5v-2.9h7.5v-1.2h-5.9V254.7z M231.1,255.2l1.8-6.8h-2.1v14.3c0.5,0,0.9,0.1,1.2,0.1c0.7,0,1.1-0.5,1.1-1.4
		C233.1,259,232.5,256.9,231.1,255.2z M227.6,245h8.6v3.3l-2,6.7c1.3,2.5,2,4.7,2,6.6c0,1.1-0.2,2.1-0.5,2.8
		c-0.3,0.7-0.8,1.2-1.4,1.4c-0.6,0.2-1.6,0.4-3.1,0.3c-0.1-1-0.3-1.9-0.4-3v8.1h-3.2V245z M243.7,250.6l-1,0.4h3.7
		c0.6-0.9,1.2-1.7,1.7-2.5h-6C242.4,249,243,249.7,243.7,250.6z M253.3,248.4H249l2.7,1l-1.3,1.5h3.4v2.7h-17.9v-2.7h3.7
		c-0.4-0.7-0.9-1.2-1.2-1.6l2.3-0.9h-3.7v-2.7h5.8c-0.2-0.5-0.4-1-0.7-1.4l4-0.6c0.3,0.6,0.5,1.2,0.8,2.1h6.4V248.4z"/>
	<path class="st0" d="M259.5,258.4c0.6,1.2,1.3,2.2,2,3.1c0.6-1.3,1-2.6,1.3-4.1h-5.2v-3.6l3.9-4.7h-4.6v-3.4h8.9v3.2l-4.2,5.1h4.7
		v3.3c-0.4,2.5-1.1,4.8-2.1,6.8c0.9,0.7,1.9,1.3,3,1.7c1.1,0.5,2.2,0.8,3.3,0.9s2.7,0.3,4.8,0.3c3.2,0,6.2,0,9-0.1
		c-0.3,1.2-0.6,2.4-0.9,3.6l-9.9-0.1c-4.4,0-8-1.1-11-3.4c-1.2,1.7-2.6,3.1-4.3,4.3c-0.5-1.4-1.1-2.6-1.6-3.6c1.2-1,2.3-2.1,3.2-3.3
		c-1.1-1.3-2.1-2.9-3.1-4.6L259.5,258.4z M268.2,251.7h3.6v9.8h2.5V249c-2,0.1-4.1,0.2-6.3,0.3c-0.3-1.6-0.5-2.8-0.7-3.7
		c5-0.1,10.2-0.4,15.5-1l0.7,3.5c-1.7,0.2-3.5,0.4-5.4,0.6v4.2h4.9v3.2h-4.9v5.4h5.4v3.3h-15.2V251.7z"/>
	<path class="st0" d="M314.3,264.8h-7.2c2.3,1.1,4.7,2.2,7.3,3.5l-1.9,3.1c-2.2-1.3-4.7-2.7-7.5-4.1c-1.7,1.7-4.2,3.1-7.5,4.2
		c-0.7-1.3-1.4-2.5-2-3.4c-2.7,0.4-5.4,0.9-8.2,1.4l-0.6-3.7c3.6-0.4,6.7-0.9,9.3-1.3c0,1.2,0,2.2,0,3.1c3.2-0.6,5.4-1.6,6.7-2.8
		h-6.4v-3.1h5.2c-1.7-0.9-3.5-1.7-5.5-2.5l1.3-2.2c2,0.8,3.9,1.6,5.6,2.4l-1.3,2.3h2.8c0.4-1.7,0.6-4.1,0.6-7.2h3.7
		c0,2.8-0.2,5.2-0.7,7.2h6.4V264.8z M314.3,250.9v3l-0.9,4l-3.4-0.6l1.1-3.3h-11.6c1.8,0.7,3.4,1.3,4.9,2l-1.4,2.2
		c-1.6-0.8-3.3-1.6-5.2-2.4l1.1-1.8h-2.3v-2.2c-1.4,2.5-3.1,5.2-5.1,7.9c1.4-0.1,2.8-0.3,4.2-0.5c-0.2,1.2-0.3,2.3-0.2,3.3
		c-3.1,0.2-5.6,0.5-7.5,0.9l-0.9-3.2c1-1,2.2-2.6,3.5-4.8c-1.2,0.1-2.2,0.2-2.9,0.3l-1-3.2c1.4-1.9,2.7-4.9,4.2-8.9l3.5,1
		c-1.3,2.8-2.6,5.3-4.1,7.6c0.6,0,1.3,0,2.1-0.1c0.6-1.1,1.2-2.3,1.8-3.6l3.3,1.4c-0.1,0.3-0.3,0.5-0.4,0.7h6.3v-1.7h-5.9v-3.1h5.9
		v-2.3h3.8v2.3h5.7v3.1h-5.7v1.7H314.3z"/>
	<path class="st0" d="M332.5,256.6h11.4c0-0.1,0-1.3,0.1-3.6h-10v-3.6h6c-1.1-1.4-2-2.5-2.7-3.4l3.1-2.2c0.8,0.9,2.1,2.3,3.9,4.4
		l-1.8,1.2h4.8c1.4-2,2.7-3.9,3.8-5.7l4,2.1l-3,3.6h6.2v3.6h-10.1c0,0.8,0,2,0,3.6h11.5v3.6h-10.8c1.8,3.6,5.4,6,11,7.1
		c-1.3,1.7-2.3,3-2.8,3.9c-5.2-1.5-8.9-4.2-10.9-8.1c-1.8,3.4-5.4,6.2-10.8,8.4c-0.9-1.1-1.9-2.2-3.1-3.5c5.8-1.8,9.5-4.4,10.9-7.7
		h-10.7V256.6z"/>
	<path class="st0" d="M370.2,263.9c-1.1,1.5-2.4,2.9-3.8,4.2c2.6-0.4,5-1,7.1-1.6C372.3,265.7,371.2,264.8,370.2,263.9 M377.5,265
		c1.7-0.8,3.2-1.6,4.5-2.6h-8.7C374.5,263.4,376,264.3,377.5,265z M362.9,255.6h7.5c0.2-0.5,0.4-1,0.5-1.6h3.8
		c-0.1,0.5-0.3,1.1-0.4,1.6h15.4v2.9h-16.4c-0.2,0.5-0.4,1-0.7,1.4h14.7v2.4c-1.6,1.5-3.4,2.9-5.5,4.1c2.4,0.6,5.1,0.9,8.1,1
		c-0.7,1.2-1.3,2.4-1.8,3.6c-4-0.4-7.5-1.2-10.6-2.5c-2.9,1.2-6.1,2.1-9.7,2.8c-0.6-1-1.2-2-1.8-2.9c-0.6,0.5-1.1,1-1.7,1.4
		c-0.6-1.2-1.3-2.3-1.9-3.3c3-2.2,5.3-4.9,6.9-8.1h-6.3V255.6z M369.6,247.8c0.6,0.8,1.1,1.7,1.8,2.8h3.7c-0.3-0.7-0.7-1.3-1.1-2
		l2.6-0.9L369.6,247.8z M377.5,247.6c0.6,0.9,1.1,1.9,1.7,2.9h2.1c0.8-0.9,1.5-1.9,2.2-3.1L377.5,247.6z M363.3,244.9
		c6.5,0,14.7-0.1,24.8-0.5l0.9,2.9l-3.9,0.1l2,1.2c-0.5,0.6-1.1,1.2-1.7,1.9h3.5v4.4H385v-1.5h-17.5v1.5h-3.8v-4.4h3.6
		c-0.4-0.6-0.7-1.2-1-1.7l2.6-1.1l-4.7,0.1C364,247.1,363.7,246.1,363.3,244.9z"/>
	<path class="st0" d="M414.6,262.8h-8.8v3.7h8.8V262.8z M402,271.1v-11.4h16.4v11.4h-3.8v-1.4h-8.8v1.4H402z M398.1,243.8l3.6,1.1
		c-0.7,2.3-1.5,4.4-2.4,6.5v19.8h-3.7v-12.4c-0.6,1.1-1.3,2.1-1.9,3.1c-0.3-1.5-0.7-3.3-1.3-5.2
		C394.9,252.7,396.8,248.4,398.1,243.8z M408.8,253.5l-1.3,0.8h4.6l-0.8-0.5c0.8-1,1.7-2.2,2.6-3.5h-7.5
		C407.3,251.5,408.2,252.5,408.8,253.5z M400.5,254.3h4.3c-0.9-1.3-1.6-2.3-2.1-3l1.7-1.1h-3V247h6.6c-0.3-0.8-0.7-1.7-1.2-2.6
		l4.1-0.8c0.5,0.9,1,2,1.5,3.3h6.5v3.2h-3.3l1.9,1.1c-0.7,0.9-1.5,1.9-2.3,3h4.8v3.3h-19.6V254.3z"/>
	<path class="st0" d="M438.9,251.1l2.6-2.3H436c-1.5,1.7-3.1,3.2-4.7,4.5l9.8-0.4L438.9,251.1z M422.8,265.9h11.6v-2.8h-9.6v-3.6
		h9.6v-2.9l-4.1,0.2c-1.6,0.1-2.9,0.2-3.9,0.5l-1.5-3.4c1.9-0.9,4-2.6,6.3-5.1h-7.4V245h25.8v3.8h-7.8c3.3,2.6,6,4.9,8.2,7l-3,2.7
		c-0.7-0.8-1.5-1.5-2.3-2.3l-5.9,0.2v3.1h9.6v3.6h-9.6v2.8h11.6v3.8h-27.4V265.9z"/>
	<path class="st1" d="M236.8,361.5l-2.5,5.3l-24.5,5.5l-2.4-10.9l26.3-5.9c1-0.2,1.4-0.4,1.3-0.8c0-0.2-0.5-0.6-1.4-1.1l-4.9-2.9
		l-2.4,4.7l-15.3,3.4c5.1-9.4,5.9-10.5,7.4-11.4c0.6-0.4,0.9-0.6,0.8-0.8c-0.1-0.2-0.3-0.3-0.8-0.6l-4.6-1.7l-4.5,14.9l-26.5,5.9
		c-1.7,0.4-3.6,0.7-5.4,0.9l2.7,2.3c1-0.7,3.2-1.5,4.7-1.9l18.8-4.2l2.4,10.9l-27.5,6.2c-1.7,0.4-3.6,0.6-5.4,0.9l2.7,2.3
		c1-0.7,3.2-1.5,4.7-1.8l25.9-5.8l0.6,2.7c0.8,3.6,1.7,7.8,2.5,12.3l0.1,0.7c0.3,1.3,0.5,1.7,1.1,1.6c0.4-0.1,0.9-0.4,1.5-0.8
		c1.4-1,1.7-1.4,1.4-2.5l-0.1-0.5c-1-3.3-1.9-6.8-2.9-11.4l-0.7-2.9l31.5-7.1c0.9-0.2,1.4-0.5,1.3-0.8c-0.1-0.3-0.5-0.7-1.2-1.2
		L236.8,361.5z M186.1,351.8c3.4,1.5,7,4.8,8.7,7.7c0.5,0.9,1.3,1.7,2.2,1.5c1.1-0.3,1.9-1.9,1.5-3.5c-0.4-1.8-1.6-4-12.1-6.6
		L186.1,351.8z M229.4,333.4l-2.5,5l-23.3,5.2l-2.4-10.4l23.4-5.3c0.9-0.2,1.3-0.4,1.2-0.8c-0.1-0.2-0.5-0.6-1.3-1.1l-5-3l-2.1,4.8
		l-16.6,3.7l-1.4-6.2l1.7-1.7c0.4-0.4,0.6-0.6,0.5-0.8c-0.1-0.3-0.5-0.5-1.3-0.7l-6-1.3c0.7,2.6,1.2,4.4,1.9,7.4l0.9,4.2l-18.4,4.1
		c-1.7,0.4-3.6,0.7-5.4,0.9l2.7,2.3c1-0.7,3.2-1.5,4.7-1.9l16.8-3.8l2.3,10.4l-27,6.1c-1.7,0.4-3.6,0.6-5.4,0.9l2.7,2.3
		c1-0.7,3.2-1.5,4.7-1.8l59.6-13.4c1-0.2,1.4-0.5,1.3-0.9c-0.1-0.3-0.5-0.6-1.2-1.1L229.4,333.4z"/>
	<path class="st1" d="M262.3,322.4l-1.5,3.8l-13.4,3c-1.7,0.4-3.7,0.7-5.6,0.9l2.8,2.5c1.2-0.8,3.3-1.6,4.9-2l11.9-2.7
		c-2.8,13.3-5.7,22.9-12.8,34.3l0.8,0.8c4.3-5.6,7.5-10.9,9.9-16.4l4,17.7c0.9,4,2.5,11.5,2.8,13.4c0.1,0.6,0.2,1.1,0.3,1.5
		c0.2,0.8,0.4,1.2,0.8,1.1c0.3-0.1,0.6-0.4,1.2-0.8c1.6-1.4,1.8-1.8,1.6-2.8l-0.1-0.4c-0.8-2.8-1.3-4.9-3.1-12.6l-5.1-22.8
		c3.8,1.2,6.4,3.6,8,6c1.4,2,1.6,2.2,2.3,2c1.2-0.3,2-2.3,1.6-4c-0.2-0.8-0.5-1.4-1.1-1.9c-1.7-1.3-6.2-2.7-10.4-3.1
		c1.3-3.6,2.5-7.4,3.6-11.5c0.2-0.8,1-1.6,2.3-2.6c0.4-0.3,0.6-0.5,0.6-0.7c0-0.2-0.3-0.3-0.8-0.6L262.3,322.4z M302,302.1l-1.7,4.3
		l-28.6,6.4c-1.7,0.4-3.7,0.7-5.6,0.9l2.7,2.3c1.2-0.8,3.3-1.6,4.9-2l33.4-7.5c0.8-0.2,1.3-0.4,1.2-0.6c-0.1-0.2-0.5-0.5-1.2-0.9
		L302,302.1z M248.2,311.2c4.7,2.9,6.1,4.7,7.7,8.2c0.8,1.8,1.2,2.1,2.2,1.9c1.7-0.4,2.3-2.8,1.9-4.6c-0.8-3.6-8.2-5.6-11.5-6.4
		L248.2,311.2z M282.1,331.6L280,322l19.5-4.4l2.2,9.6L282.1,331.6z M299.4,312.7l-1.2,3.4l-17.9,4l-4.9-2.3
		c0.6,2.2,1.5,5.7,1.9,7.4l1.2,5.2c0.5,2.4,1,5.2,1.1,6.4c0.1,0.2,0,0.5,0.1,0.6c0.1,0.5,0.3,0.6,0.6,0.6c0.3-0.1,0.8-0.4,1.5-1
		c1.3-1.1,1.3-1.4,1.2-2.1l-0.4-1.8l19.5-4.4l0.5,2.4c0.2,0.8,0.3,1.2,0.7,1.1c0.3-0.1,0.7-0.4,1.4-0.9c1.3-1.1,1.4-1.4,1.3-2.1
		l-0.1-0.5c-0.5-1.7-1.2-4.3-1.7-6.4l-1-4.4l1.8-1.7c0.3-0.3,0.5-0.6,0.4-0.8c0-0.1-0.3-0.3-0.8-0.6L299.4,312.7z M284.6,368.7
		l-2.7-11.8l12.9-2.9l2.6,11.8L284.6,368.7z M300.8,365l-2.6-11.8l12.9-2.9l2.6,11.8L300.8,365z M281.5,355.2L279,344l12.9-2.9
		l2.5,11.2L281.5,355.2z M297.7,351.6l-2.5-11.2l12.9-2.9l2.5,11.2L297.7,351.6z M308.2,332.6l-1.5,3.5l-27.4,6.1l-4.8-2.3
		c0.6,2.1,1.4,5.3,1.8,7l4.3,19.4c0.3,1.5,1.5,8.3,1.8,9.7c0.2,0.7,0.4,1,0.8,0.9c0.3-0.1,0.8-0.3,1.4-0.9c1.3-1,1.4-1.3,1.2-2.1
		l-0.8-3.5l29-6.5l1,4.6c0.1,0.6,0.3,0.9,0.7,0.8c0.3-0.1,0.7-0.3,1.4-0.9c1.4-1.1,1.5-1.4,1.4-2.1l-0.1-0.4
		c-0.9-2.8-2-7.4-2.7-10.7l-3.8-16.9l2-1.9c0.4-0.4,0.5-0.6,0.4-0.8c0-0.2-0.2-0.3-0.8-0.6L308.2,332.6z"/>
	<path class="st1" d="M328.3,293.9c-0.4-0.3-0.7-0.4-1.1-0.3c-0.3,0.1-0.5,0.2-0.8,0.6c-4.3,5.2-7.2,10.5-6.2,14.8
		c0.9,4.1,4.3,5.2,6.5,4.6c2.9-0.7,2.9-3.5,2.6-4.5c-0.3-1.3-1.3-2.4-3.1-2.6c-1.2-0.2-2.1-0.8-2.3-1.9c-0.4-1.8,0.8-4.8,4.2-8.6
		c0.6-0.7,0.9-1.1,0.9-1.5C328.9,294.3,328.7,294.1,328.3,293.9 M338.9,291c-0.3,0.1-0.5,0.2-0.8,0.6c-4.3,5.2-7.2,10.5-6.2,14.8
		c0.9,4.1,4.3,5.2,6.5,4.6c2.9-0.7,2.9-3.5,2.6-4.5c-0.3-1.3-1.3-2.4-3.1-2.6c-1.2-0.2-2.1-0.8-2.3-1.9c-0.4-1.8,0.8-4.8,4.2-8.6
		c0.6-0.7,0.9-1.1,0.9-1.5C340.6,291.5,339.6,290.8,338.9,291z"/>
	<path class="st1" d="M408.2,319.6l-2.6,5.2l-24.4,5.5l-3.3-14.5l24.2-5.4c0.5-0.1,0.7-0.2,0.6-0.4c0-0.1-0.2-0.3-0.6-0.5l-6.6-3.8
		l-2.4,4.9l-15.7,3.5l-3.2-14.4l28.1-6.3c0.4-0.1,0.6-0.2,0.6-0.4c0-0.2-0.2-0.3-0.5-0.5l-6-3.9l-2.3,4.9l-16.1,3.6
		c3.9-7.9,6.3-12.4,8.4-13c0.4-0.2,0.6-0.3,0.5-0.4c0-0.1-0.2-0.2-0.6-0.4l-5.7-2.4c-0.8,4-2.4,10.4-4.2,16.5l-29.9,6.7
		c-1.6,0.4-3.4,0.6-5.1,0.8l2.5,2.3c1-0.7,3-1.5,4.4-1.8l22.2-5l3.2,14.4l-21,4.7c-1.6,0.4-3.4,0.6-5.1,0.8l2.5,2.3
		c1-0.7,3-1.5,4.4-1.8l19.5-4.4l3.3,14.5l-29.1,6.5c-1.6,0.4-3.4,0.6-5.1,0.8l2.5,2.3c1-0.7,3-1.5,4.4-1.8l27.6-6.2l1.1,4.9
		c0.9,4.1,2.3,10.6,3.1,14.9l0.1,0.5c0.3,1.3,0.5,1.7,1.1,1.6c0.4-0.1,0.9-0.4,1.5-0.8c1.4-0.9,1.6-1.3,1.4-2.4l-0.1-0.5
		c-1-3.2-2.3-8.6-3.5-14l-1.1-5.1l32.8-7.4c0.4-0.1,0.6-0.2,0.6-0.4c0-0.2-0.2-0.3-0.6-0.6L408.2,319.6z M351.3,289
		c3.7,1.8,7.8,5.9,9.2,8.2c1,1.7,1.5,1.9,2.5,1.7c1.3-0.3,1.8-2.4,1.4-4.2c-0.1-0.7-0.4-1.3-0.9-1.8c-1.9-2-5.5-3.4-11.9-4.6
		L351.3,289z"/>
	<path class="st1" d="M409.7,278.7c-1.5-2.2-3.7-2.9-5.3-2.5c-2.8,0.6-3.2,3.6-2.9,4.9c0.3,1.3,1.2,2.3,3,2.6
		c1.1,0.2,1.9,0.8,2.1,1.8c0.4,2-0.9,5.2-4.5,9.5c-0.6,0.8-0.7,1.3-0.6,1.6c0.1,0.5,0.8,0.9,1.2,0.8c1.2-0.3,9.5-9.8,7.9-16.7
		C410.4,279.9,410.1,279.3,409.7,278.7 M416,273.6c-2,0.5-3.3,2.5-2.8,4.7c0.3,1.4,1.3,2.4,3,2.7c1.1,0.2,1.8,0.8,2,1.8
		c0.4,1.9-0.9,5.2-4.5,9.5c-0.5,0.8-0.7,1.3-0.6,1.7c0.1,0.6,0.8,0.8,1.2,0.8c1.4-0.3,9.4-9.7,7.9-16.5
		C421.5,275.6,418.9,272.9,416,273.6z"/>
	<path class="st1" d="M509.4,303.8c2.9,13.8,2,14.3-1.8,15.1c-3.8,0.9-4.2,0.6-5.1-3.3L491.7,268l2.6-2.3c0.3-0.3,0.5-0.6,0.5-0.8
		c-0.1-0.2-0.3-0.4-0.9-0.7l-5.6-2.6l-1.5,4.1l-12.2,2.7l-5.5-3.1c2.1,8.1,4,16,5.5,22.7c5.2,23.3,6.4,32.3-7.7,48.4l0.8,0.6
		c17.7-15.7,14.8-28.7,10.5-48.5c4.2,2.5,6.9,5.4,8.1,7.9c1.4,2.9,1.6,3.1,2.3,3c1.4-0.3,2.1-2.3,1.7-4.3c-0.2-1-0.7-1.9-1.5-2.7
		c-1.9-1.9-5.1-3.7-10.8-5.1c-1-4.9-2.3-10.5-3.8-17.1l13.7-3.1l11,49.1c1.6,7.3,2.8,7.5,9.1,6.1c6.4-1.4,7.7-2.7,8.4-7.3
		c0-0.2,0-0.3,0-0.4c-0.1-0.3-0.2-0.4-0.7-0.6c-2.1-0.5-3.2-2.8-5.1-10.5L509.4,303.8z M459.8,275.8l-1.3,3.6l-5.6,1.3l-2.1-9.2
		c1.8-1.5,2.1-1.7,2-2c-0.1-0.2-0.4-0.4-1.1-0.5l-5.7-1.7c0.7,2.5,1.8,7.1,2.5,9.9l1,4.4l-5.5,1.2l-5.3-3c0.6,2.4,1.6,6.3,2.3,9.4
		l4,17.7c0.8,3.7,2,9.4,2.7,13.2l0.2,0.8c0.2,0.9,0.4,1.3,0.8,1.2c0.3-0.1,0.7-0.3,1.3-0.7c1.4-1,1.7-1.3,1.5-2.2l-0.1-0.4
		c-0.8-2.9-1.9-7.5-3.1-12.5l-4.8-21.6l6.4-1.4l8.6,38.1c0.5,2.3,2.6,12.4,3.1,14.6c0.2,1.1,0.5,1.5,1,1.4c0.4-0.1,0.8-0.3,1.3-0.8
		c1.3-1,1.5-1.4,1.3-2.4l-0.1-0.5c-0.9-2.9-2.1-7.9-3.2-13l-8.6-38.3l7.1-1.6l6.3,28.2c0.4,1.7,0.4,2.5-1.9,3
		c-0.9,0.2-2.3,0.4-4.2,0.5l0.1,1.1c3.6-0.1,5.1,0.6,6,2.4c0.2,0.4,0.4,0.6,0.7,0.6c0.2,0,0.4-0.2,0.6-0.4c2.7-2.2,3-3.1,2.3-6.3
		l-6.5-28.9l1.6-1.7c0.2-0.3,0.3-0.5,0.3-0.6c0-0.2-0.2-0.4-0.5-0.4L459.8,275.8z"/>
	<path class="st2" d="M217.8,397.3c583.6-122.3,277.7-119,277.7-119"/>
	<rect x="0" y="0" class="st3" width="640" height="421.8"/>
</g>
<g>
</g>
<g>
</g>
<g>
</g>
<g>
</g>
<g>
</g>
<g>
</g>
<g>
</g>
<g>
</g>
<g>
</g>
<g>
</g>
<g>
</g>
<g>
</g>
<g>
</g>
<g>
</g>
<g>
</g>
</svg>
