<?xml version="1.0" encoding="utf-8"?>
<!-- Generator: Adobe Illustrator 17.0.0, SVG Export Plug-In . SVG Version: 6.00 Build 0)  -->
<!DOCTYPE svg PUBLIC "-//W3C//DTD SVG 1.1//EN" "http://www.w3.org/Graphics/SVG/1.1/DTD/svg11.dtd">
<svg version="1.1" id="Layer_1" xmlns="http://www.w3.org/2000/svg" xmlns:xlink="http://www.w3.org/1999/xlink" x="0px" y="0px"
	 width="640px" height="238.8px" viewBox="0 0 640 238.8" style="enable-background:new 0 0 640 238.8;" xml:space="preserve">
<style type="text/css">
	.st0{fill:#FFFFFF;}
	.st1{fill:none;stroke:#FFFFFF;stroke-width:0.216;stroke-miterlimit:22.9256;}
	.st2{fill:#AB1929;}
	.st3{fill:#AF7A37;}
	.st4{fill:none;}
</style>
<g id="page-6-logo.svg">
	<path class="st0" d="M156.5,59.5L156.5,59.5v-5.6h4v5.6H156.5z M148.5,53.9L148.5,53.9h4v5.6h-4V53.9z M156.5,52.5L156.5,52.5v-4.9
		h4v4.9H156.5z M148.5,47.6L148.5,47.6h4v4.9h-4V47.6z M150.1,40.6L150.1,40.6h8.8v-4.5h-8.8V40.6z M138.2,38L138.2,38
		c-1.5,3.9-3.9,7.5-7.2,10.7h1c1.5-1.1,2.7-2.2,3.8-3.2v17.4h4V43.7c0.8,1.3,1.7,2.6,2.8,3.9c0.9-0.5,1.6-1.2,2-2.2v17.6h4v-2h11.9
		v2h4V44.8h-4v1.4h-11.9v-1.4h-4c-1.3-0.6-2.9-1.3-4.6-2.2v-0.7c1.6-2.4,2.6-4.7,3-6.9h-4.2l-0.2,1.7h-7.2V38H138.2z M146.2,43.4
		L146.2,43.4v-9.8h4v1.1h8.8v-1.1h4v9.8h-4V42h-8.8v1.4H146.2z M165.7,29.3L165.7,29.3v1.4h-22.3v-1.4H165.7z M135.4,28.1l0.2-0.1
		c1.7,0.8,3.6,1.9,5.8,3.1c-0.3,1.1-0.8,2.2-1.6,3.1C137.9,32.7,136.5,30.7,135.4,28.1z"/>
	<path class="st1" d="M156.5,59.5L156.5,59.5v-5.6h4v5.6H156.5z M148.5,53.9L148.5,53.9h4v5.6h-4V53.9z M156.5,52.5L156.5,52.5v-4.9
		h4v4.9H156.5z M148.5,47.6L148.5,47.6h4v4.9h-4V47.6z M150.1,40.6L150.1,40.6h8.8v-4.5h-8.8V40.6z M138.2,38L138.2,38
		c-1.5,3.9-3.9,7.5-7.2,10.7h1c1.5-1.1,2.7-2.2,3.8-3.2v17.4h4V43.7c0.8,1.3,1.7,2.6,2.8,3.9c0.9-0.5,1.6-1.2,2-2.2v17.6h4v-2h11.9
		v2h4V44.8h-4v1.4h-11.9v-1.4h-4c-1.3-0.6-2.9-1.3-4.6-2.2v-0.7c1.6-2.4,2.6-4.7,3-6.9h-4.2l-0.2,1.7h-7.2V38H138.2z M146.2,43.4
		L146.2,43.4v-9.8h4v1.1h8.8v-1.1h4v9.8h-4V42h-8.8v1.4H146.2z M165.7,29.3L165.7,29.3v1.4h-22.3v-1.4H165.7z M135.4,28.1l0.2-0.1
		c1.7,0.8,3.6,1.9,5.8,3.1c-0.3,1.1-0.8,2.2-1.6,3.1C137.9,32.7,136.5,30.7,135.4,28.1z"/>
	<path class="st0" d="M145,84.3L145,84.3c1.7,4.2,2.9,6.6,3.4,7c0.8-0.5,1.5-1.4,2.2-2.7c-1.6-1.5-3.4-3-5.4-4.5L145,84.3z
		 M157.7,83.3L157.7,83.3c-0.4,8.9,2.1,14.6,7.6,17c0.1,0,0.1-0.3,0-1c-0.1-1.7,0.3-2.9,1.2-3.7c-2.9-0.9-4.8-2.5-5.8-4.6l3.4-6.6
		l-1.6-0.6l-2.6,5.3c-0.7-1.1-1.2-2.7-1.6-4.8c-0.1-0.5-0.2-0.8-0.2-1.1H157.7z M131,77.7L131,77.7h8c-0.7,4-3.2,8.5-7.6,13.5h1.2
		c0.4-0.4,1.1-1,2-2c0.8-0.8,1.5-1.5,2-2v15.6h4V85c1.2,2.2,2.2,3.7,3.2,4.8c0.4-0.2,0.8-1.1,1.2-2.8c-0.4-0.3-1.7-1.5-4-3.7
		c1.7-2.9,2.6-5.6,2.8-8.1H139v1.1h-8V77.7z M158.1,71.5L158.1,71.5H145v-1.4h13.1v-1.7h4v7.9c-0.3,1.9-1.5,3.5-3.6,4.8h7.2v1.4
		h-8.8v16.7c0.3,2.1-2,3.4-6.8,3.9c-0.1-0.4-0.8-0.5-2-0.3l-2.2,0.4l-0.4-0.6c5.6-0.9,8-2.1,7.4-3.5v-8.3c-2.3,4.5-5.3,7.4-9.2,8.6
		c0.7-1.9,0.4-3.3-0.8-4.4c5.3-0.8,8.6-2.6,10-5.3v-7.3h-9.2v-1.4h13.3c0.8-1.3,1.1-2.7,1-4.2h-11.9v-1.4h11.9V71.5z M135.6,68.7
		v-0.1c2.1,0.7,4.2,1.5,6.2,2.7c-0.7,1.2-1.3,2.2-2,2.8C138.5,72.9,137.1,71.1,135.6,68.7z"/>
	<path class="st1" d="M145,84.3L145,84.3c1.7,4.2,2.9,6.6,3.4,7c0.8-0.5,1.5-1.4,2.2-2.7c-1.6-1.5-3.4-3-5.4-4.5L145,84.3z
		 M157.7,83.3L157.7,83.3c-0.4,8.9,2.1,14.6,7.6,17c0.1,0,0.1-0.3,0-1c-0.1-1.7,0.3-2.9,1.2-3.7c-2.9-0.9-4.8-2.5-5.8-4.6l3.4-6.6
		l-1.6-0.6l-2.6,5.3c-0.7-1.1-1.2-2.7-1.6-4.8c-0.1-0.5-0.2-0.8-0.2-1.1H157.7z M131,77.7L131,77.7h8c-0.7,4-3.2,8.5-7.6,13.5h1.2
		c0.4-0.4,1.1-1,2-2c0.8-0.8,1.5-1.5,2-2v15.6h4V85c1.2,2.2,2.2,3.7,3.2,4.8c0.4-0.2,0.8-1.1,1.2-2.8c-0.4-0.3-1.7-1.5-4-3.7
		c1.7-2.9,2.6-5.6,2.8-8.1H139v1.1h-8V77.7z M158.1,71.5L158.1,71.5H145v-1.4h13.1v-1.7h4v7.9c-0.3,1.9-1.5,3.5-3.6,4.8h7.2v1.4
		h-8.8v16.7c0.3,2.1-2,3.4-6.8,3.9c-0.1-0.4-0.8-0.5-2-0.3l-2.2,0.4l-0.4-0.6c5.6-0.9,8-2.1,7.4-3.5v-8.3c-2.3,4.5-5.3,7.4-9.2,8.6
		c0.7-1.9,0.4-3.3-0.8-4.4c5.3-0.8,8.6-2.6,10-5.3v-7.3h-9.2v-1.4h13.3c0.8-1.3,1.1-2.7,1-4.2h-11.9v-1.4h11.9V71.5z M135.6,68.7
		v-0.1c2.1,0.7,4.2,1.5,6.2,2.7c-0.7,1.2-1.3,2.2-2,2.8C138.5,72.9,137.1,71.1,135.6,68.7z"/>
	<path class="st2" d="M149.6,144.1L149.6,144.1l-0.5,1.8h0.8v-1.8H149.6z M151.1,143.8L151.1,143.8v0.8h0.5l0.3-1.5h-0.3
		L151.1,143.8z M153.2,153.7L153.2,153.7v0.5h0.3c2.6-1.7,3.9-2.9,3.9-3.6l-0.3-1c0-1,0.8-3.4,2.3-7l0.5-1.3h-0.5
		c-2.6,0-4.2,3.2-4.9,9.6L153.2,153.7z M162,148L162,148l1,4.7c-1.4,1.4-3,2.3-4.9,2.8l-0.8-0.3l-2.6,0.5c1.9,3.1,4,4.7,6.2,4.7h0.8
		c1.9-7.8,2.8-13.2,2.8-16.3V142c0-1-0.3-1.6-1-1.8C163.2,140.2,162.7,142.8,162,148z M140.8,144.9L140.8,144.9
		c5-2.9,9.1-5,12.4-6.2l0.8-2.8l-0.5-1h-0.3c-4.5,0.9-8.1,3-10.9,6.5C141.3,142.8,140.8,144,140.8,144.9z M127.6,123.4L127.6,123.4
		v1.3l-0.5,2.3c-2.8,6.9-5.1,13.6-7,20.2c-3.5,0.5-5.2,1.2-5.2,2.1v0.3l0.3,0.3c-0.7,0-1.1,0.8-1.3,2.3c0.9,1.4,1.4,2.8,1.6,4.1
		l-1,2.8l3.1,5.4c4-0.9,5.9-1.9,5.9-3.1v-2.3l-0.3-3.9l3.9-3.1l8-9.6V142l-0.3-0.3c1.2-1.4,2.2-2.7,2.8-3.9v-0.5h-0.3
		c-3.6,2.9-6.1,4.4-7.5,4.4l-5.9,3.4h-0.5l2.1-4.4c2.4-0.2,4.7-1,6.7-2.6l-4.4-12.9l0.5-0.3v-1.6H127.6z M149.8,122.6L149.8,122.6
		l-0.3,3.4h0.5l1.8-3.4v-0.3L149.8,122.6z M126.3,107.9L126.3,107.9v0.3c1.6,1.4,2.3,3.2,2.3,5.4l-0.3,1.5l0.5,1.6l-1,5.9h0.8
		c0-1,0.4-1.8,1.3-2.3h1l0.5,1c1,0,1.7,0.2,2.1,0.5h0.3l3.1-3.4v-1.6C132.7,110.9,129.2,107.9,126.3,107.9z M166.1,100.1h0.3
		c2.2,2.2,3.4,4.1,3.4,5.7v1.3c0,3.1-3.5,8.7-10.6,16.8v0.5c0.7,0,1,0.2,1,0.5l1.5-0.3c3.1,1.6,4.7,2.6,4.7,3.1v0.3
		c0,0.7-0.4,1-1.3,1v0.5l0.3,0.5v0.3c-1,0.7-3.2,1.4-6.5,2.1c0,0.3-0.6,0.5-1.8,0.5l-0.5,1l0.8,2.1l-0.3,1.8c3.5-0.7,5.8-1.6,7-2.6
		l6.5,2.8l0.5,1.3c-1,17.9-3.1,26.9-6.2,26.9c-1.7,0-4.3-1.6-7.8-4.9l-2.6-2.6c-0.7,0-1.2-1-1.6-3.1h-1.5v-0.5h0.5v-0.5
		c0-0.5-0.4-0.8-1-0.8l-0.8-1.3l0.3-4.4l-0.3-0.3h-0.3c-1.2,1.2-1.8,2.9-1.8,5.2c-0.7,0.7-1.7,1.2-3.1,1.5c-0.9-1.2-1.3-2.1-1.3-2.6
		c0-0.9,0.8-3.1,2.3-6.7c-3.4,1.9-5.2,4.3-5.2,7.2l-1.8,4.1h0.5v2.1c-0.9,2.8-2.3,4.1-4.1,4.1h-0.5c-0.7-0.3-1.3-1.3-1.8-2.8
		l0.8-3.1l-1.3-3.4h0.5l-0.5-0.5v-1c4.3-3.3,7.1-6.6,8.5-10.1l2.3-2.8h-0.8v-0.8h0.8v-0.3h-0.5l-3.1,1l-1.6-2.3l1.8-5.7l5.2-0.8
		v-0.8l-1.5-1.8l0.3-3.1v-0.3h-1.6l-1.5-1.8v-1.6c3.4,0,5.2-1.1,5.2-3.4l2.1-10.1h0.5c0.3,0,0.9,3.5,1.5,10.6l1-0.3v0.3
		c4.3-1,7.2-3,8.8-6c3.5-4.8,5.2-7.8,5.2-8.8v-0.8h-1v-0.5L166.1,100.1z"/>
	<path class="st0" d="M132.8,213L132.8,213h14.7v-7.1h-10.7v-2.2h10.7v-5.1h4.4v5.1h10.3v2.2h-10.3v7.1H166v2.2h-33.3V213z
		 M156.1,194.4L156.1,194.4h-13.5v-6.7h13.5V194.4z M142.7,198.6L142.7,198.6v-2h13.5v2h4v-14.6h-4v1.6h-13.5v-1.6h-4v14.6H142.7z
		 M142.7,178.4h5.1v-11.1h4v11.1h2l5.6-9.5l1.8,1.2l-5,8.3h5.9v-1.6h4v8.7c-0.3,0-0.5-0.1-0.8-0.2c-0.3-0.4-0.5-0.6-0.8-0.6
		c-0.8,0-1.5,0.8-2,2.4h-0.4v-6.5h-24.9v4.6h-4v-8.7h4v2h4.4c-0.7-1.2-2-4.4-4-9.7l0.2-0.2c1.9,1.3,4,2.9,6.3,4.7
		C143.9,174.4,143.5,176.1,142.7,178.4z"/>
	<path class="st1" d="M132.8,213L132.8,213h14.7v-7.1h-10.7v-2.2h10.7v-5.1h4.4v5.1h10.3v2.2h-10.3v7.1H166v2.2h-33.3V213z
		 M156.1,194.4L156.1,194.4h-13.5v-6.7h13.5V194.4z M142.7,198.6L142.7,198.6v-2h13.5v2h4v-14.6h-4v1.6h-13.5v-1.6h-4v14.6H142.7z
		 M142.7,178.4h5.1v-11.1h4v11.1h2l5.6-9.5l1.8,1.2l-5,8.3h5.9v-1.6h4v8.7c-0.3,0-0.5-0.1-0.8-0.2c-0.3-0.4-0.5-0.6-0.8-0.6
		c-0.8,0-1.5,0.8-2,2.4h-0.4v-6.5h-24.9v4.6h-4v-8.7h4v2h4.4c-0.7-1.2-2-4.4-4-9.7l0.2-0.2c1.9,1.3,4,2.9,6.3,4.7
		C143.9,174.4,143.5,176.1,142.7,178.4z"/>
	<path class="st3" d="M187.5,105.8L187.5,105.8c0-0.4-0.3-0.9-0.9-1.2c-0.6-0.4-1.6-0.6-2.8-0.6c-0.8,0-1.6,0.1-2.4,0.4
		c-0.8,0.3-1.1,0.8-1.1,1.4c0,0.3,0.1,0.6,0.2,0.8c0.1,0.2,0.3,0.3,0.6,0.3h1.5c0.2,0,0.3,0,0.4-0.1c0.1-0.1,0.1-0.2,0.1-0.4v-0.3
		h0.3v2.3h-0.3v-0.2c0-0.2,0-0.3-0.1-0.4c-0.1-0.1-0.2-0.1-0.4-0.1h-2.3c0-0.1,0.1-0.1,0.1-0.2c0,0,0-0.1,0-0.2c0-0.1,0-0.1,0-0.2
		c0-0.1-0.1-0.1-0.1-0.2c-0.1-0.2-0.3-0.4-0.3-0.6c-0.1-0.2-0.1-0.4-0.1-0.7c0-0.9,0.4-1.6,1.2-2c0.8-0.4,1.7-0.6,2.6-0.6
		c1.1,0,2.1,0.2,2.9,0.7c0.8,0.5,1.2,1.1,1.2,1.9c0,0.2,0,0.4-0.1,0.6c-0.1,0.2-0.1,0.4-0.1,0.5c0,0.1,0,0.2,0.1,0.3
		c0,0.1,0.1,0.2,0.2,0.2l-2,0.4l-0.1-0.3c0.6-0.2,1.1-0.4,1.4-0.7C187.3,106.5,187.5,106.2,187.5,105.8z M181.8,100.5L181.8,100.5
		L181.8,100.5l5.3,0.1c0.1,0,0.2,0,0.3-0.1c0.1-0.1,0.1-0.2,0.1-0.3v-0.4h0.3v1.8h-0.3v-0.4c0-0.1,0-0.2-0.1-0.3
		c-0.1-0.1-0.1-0.1-0.3-0.1H180v-0.3v0l6.7-3.4v-0.1h-6.1c-0.1,0-0.2,0-0.3,0.1c-0.1,0.1-0.1,0.2-0.1,0.3v0.4H180v-1.8h0.3v0.4
		c0,0.1,0,0.3,0.1,0.3c0.1,0.1,0.2,0.1,0.3,0.1h6.4c0.1,0,0.2,0,0.3-0.1c0.1-0.1,0.1-0.2,0.1-0.4v-0.3h0.3v1.4L181.8,100.5z
		 M186.9,91.8L186.9,91.8L186.9,91.8l-3.7-1v1.9L186.9,91.8z M182.9,92.7L182.9,92.7v-2l-1.7-0.4c-0.3-0.1-0.5-0.1-0.7,0
		c-0.2,0.1-0.2,0.2-0.2,0.4v0.1H180v-1.7h0.3v0.1c0,0.1,0,0.2,0.1,0.3c0.1,0.1,0.2,0.2,0.4,0.2l6.9,1.8l0.2,0.7l-7.1,1.7
		c-0.2,0.1-0.3,0.1-0.4,0.2c-0.1,0.1-0.1,0.2-0.1,0.3v0.1H180v-1.9h0.3v0.2c0,0.2,0.1,0.3,0.2,0.3c0.1,0,0.3,0,0.5,0L182.9,92.7z
		 M180,86.1L180,86.1v-2.3h0.3v0.4c0,0.2,0,0.3,0.1,0.3c0.1,0.1,0.2,0.1,0.3,0.1h6.3c0.2,0,0.4,0,0.4,0c0,0,0-0.2,0-0.4
		c0-0.4-0.1-0.7-0.2-0.9c-0.2-0.2-0.6-0.4-1.2-0.6l0-0.3l1.7,0.4v4.3l-1.7,0.4l0-0.2c0.6-0.2,1-0.4,1.2-0.6c0.2-0.1,0.2-0.4,0.2-0.8
		c0-0.3,0-0.5,0-0.5c0,0-0.2,0-0.5,0h-6.3c-0.1,0-0.2,0-0.3,0.1c-0.1,0.1-0.1,0.2-0.1,0.3v0.4H180z M181.8,79.8L181.8,79.8
		L181.8,79.8l5.3,0.1c0.1,0,0.2,0,0.3-0.1c0.1-0.1,0.1-0.2,0.1-0.3v-0.4h0.3v1.8h-0.3v-0.4c0-0.1,0-0.2-0.1-0.3
		c-0.1-0.1-0.1-0.1-0.3-0.1H180v-0.3v0l6.7-3.4v-0.1h-6.1c-0.1,0-0.2,0-0.3,0.1c-0.1,0.1-0.1,0.2-0.1,0.3v0.4H180v-1.8h0.3v0.4
		c0,0.2,0,0.3,0.1,0.3c0.1,0.1,0.2,0.1,0.3,0.1h6.4c0.1,0,0.2,0,0.3-0.1c0.1-0.1,0.1-0.2,0.1-0.4v-0.3h0.3v1.4L181.8,79.8z
		 M186.9,71L186.9,71L186.9,71l-3.7-1v1.9L186.9,71z M182.9,71.9L182.9,71.9v-2l-1.7-0.4c-0.3-0.1-0.5-0.1-0.7,0
		c-0.2,0.1-0.2,0.2-0.2,0.4v0.1H180v-1.7h0.3v0.1c0,0.1,0,0.2,0.1,0.3c0.1,0.1,0.2,0.2,0.4,0.2l6.9,1.8l0.2,0.7l-7.1,1.7
		c-0.2,0.1-0.3,0.1-0.4,0.2c-0.1,0.1-0.1,0.2-0.1,0.3v0.1H180v-1.9h0.3v0.2c0,0.2,0.1,0.3,0.2,0.3c0.1,0,0.3,0,0.5,0L182.9,71.9z
		 M180.6,66.4L180.6,66.4c-0.1,0-0.2,0-0.3,0.1c-0.1,0.1-0.1,0.2-0.1,0.3V67H180v-1.9h0.3v0.2c0,0.2,0,0.3,0.1,0.3
		c0.1,0.1,0.2,0.1,0.3,0.1h5.9v-0.1l-6.5-1.5v-0.3l6.4-1.4v-0.1h-5.8c-0.1,0-0.2,0-0.3,0.1c-0.1,0.1-0.1,0.2-0.1,0.3v0.1H180v-1.4
		h0.3v0.1c0,0.1,0,0.3,0.1,0.3c0.1,0.1,0.2,0.1,0.3,0.1h6.4c0.1,0,0.2,0,0.3-0.1c0.1-0.1,0.1-0.2,0.1-0.3v-0.2h0.3v1.3l-5.9,1.3v0.1
		l5.9,1.4V67h-0.3v-0.2c0-0.1,0-0.2-0.1-0.3c-0.1-0.1-0.1-0.1-0.3-0.1H180.6z M180.3,52.8L180.3,52.8c0,0.5,0.2,0.8,0.4,1.1
		c0.3,0.3,0.7,0.5,1.1,0.5h5.2c0.1,0,0.2,0,0.3-0.1c0.1-0.1,0.1-0.2,0.1-0.3v-0.3h0.3v1.6h-0.3v-0.3c0-0.1,0-0.2-0.1-0.3
		c-0.1-0.1-0.1-0.1-0.3-0.1h-5.2c-0.6,0-1.1-0.2-1.4-0.6c-0.3-0.4-0.5-0.9-0.5-1.4c0-0.5,0.1-1,0.4-1.4c0.3-0.4,0.8-0.6,1.4-0.6h5.3
		c0.1,0,0.2,0,0.3-0.1c0.1-0.1,0.1-0.2,0.1-0.3V50h0.3v2h-0.3v-0.2c0-0.1,0-0.2-0.1-0.3c-0.1-0.1-0.1-0.1-0.3-0.1h-5.3
		c-0.6,0-1,0.1-1.2,0.4C180.4,52,180.3,52.4,180.3,52.8z M180.6,44.8L180.6,44.8c-0.1,0-0.2,0-0.3,0.1c-0.1,0.1-0.1,0.2-0.1,0.3v1.2
		c0,0.4,0.1,0.8,0.4,1.1c0.3,0.3,0.7,0.5,1.2,0.7l-0.1,0.2L180,48v-4.6h0.3v0.3c0,0.2,0,0.3,0.1,0.3c0.1,0.1,0.2,0.1,0.3,0.1h6.4
		c0.1,0,0.2,0,0.3-0.1c0.1-0.1,0.1-0.2,0.1-0.3v-0.3h0.3v2.2h-0.3v-0.3c0-0.1,0-0.2-0.1-0.3c-0.1-0.1-0.1-0.1-0.3-0.1H180.6z
		 M180.3,39L180.3,39c0,0.5,0.2,0.8,0.4,1.1c0.3,0.3,0.7,0.5,1.1,0.5h5.2c0.1,0,0.2,0,0.3-0.1c0.1-0.1,0.1-0.2,0.1-0.3v-0.3h0.3v1.6
		h-0.3v-0.3c0-0.1,0-0.2-0.1-0.3c-0.1-0.1-0.1-0.1-0.3-0.1h-5.2c-0.6,0-1.1-0.2-1.4-0.6c-0.3-0.4-0.5-0.9-0.5-1.4
		c0-0.5,0.1-1,0.4-1.4c0.3-0.4,0.8-0.6,1.4-0.6h5.3c0.1,0,0.2,0,0.3-0.1c0.1-0.1,0.1-0.2,0.1-0.3v-0.2h0.3v2h-0.3V38
		c0-0.1,0-0.2-0.1-0.3c-0.1-0.1-0.1-0.1-0.3-0.1h-5.3c-0.6,0-1,0.1-1.2,0.4C180.4,38.2,180.3,38.5,180.3,39z M180.3,31.6H180v-2.2
		h0.3v0.3c0,0.2,0,0.3,0.1,0.3c0.1,0.1,0.2,0.1,0.3,0.1h6.4c0.1,0,0.2,0,0.3-0.1c0.1-0.1,0.1-0.2,0.1-0.3v-0.3h0.3v4.7l-1.6,0.5
		l-0.1-0.2c0.5-0.2,0.8-0.5,1.1-0.9c0.2-0.3,0.4-0.7,0.4-1.1v-1.3c0-0.1,0-0.2-0.1-0.3c-0.1-0.1-0.1-0.1-0.3-0.1h-2.9v1.5
		c0,0.3,0.1,0.5,0.2,0.7c0.1,0.1,0.4,0.2,0.7,0.2h0.2v0.3h-2.6v-0.3h0.2c0.4,0,0.6-0.1,0.8-0.2c0.2-0.1,0.3-0.4,0.3-0.7v-1.5h-3.3
		c-0.1,0-0.2,0-0.3,0.1c-0.1,0.1-0.1,0.2-0.1,0.3V31.6z"/>
	<path class="st1" d="M187.5,105.8L187.5,105.8c0-0.4-0.3-0.9-0.9-1.2c-0.6-0.4-1.6-0.6-2.8-0.6c-0.8,0-1.6,0.1-2.4,0.4
		c-0.8,0.3-1.1,0.8-1.1,1.4c0,0.3,0.1,0.6,0.2,0.8c0.1,0.2,0.3,0.3,0.6,0.3h1.5c0.2,0,0.3,0,0.4-0.1c0.1-0.1,0.1-0.2,0.1-0.4v-0.3
		h0.3v2.3h-0.3v-0.2c0-0.2,0-0.3-0.1-0.4c-0.1-0.1-0.2-0.1-0.4-0.1h-2.3c0-0.1,0.1-0.1,0.1-0.2c0,0,0-0.1,0-0.2c0-0.1,0-0.1,0-0.2
		c0-0.1-0.1-0.1-0.1-0.2c-0.1-0.2-0.3-0.4-0.3-0.6c-0.1-0.2-0.1-0.4-0.1-0.7c0-0.9,0.4-1.6,1.2-2c0.8-0.4,1.7-0.6,2.6-0.6
		c1.1,0,2.1,0.2,2.9,0.7c0.8,0.5,1.2,1.1,1.2,1.9c0,0.2,0,0.4-0.1,0.6c-0.1,0.2-0.1,0.4-0.1,0.5c0,0.1,0,0.2,0.1,0.3
		c0,0.1,0.1,0.2,0.2,0.2l-2,0.4l-0.1-0.3c0.6-0.2,1.1-0.4,1.4-0.7C187.3,106.5,187.5,106.2,187.5,105.8z M181.8,100.5L181.8,100.5
		L181.8,100.5l5.3,0.1c0.1,0,0.2,0,0.3-0.1c0.1-0.1,0.1-0.2,0.1-0.3v-0.4h0.3v1.8h-0.3v-0.4c0-0.1,0-0.2-0.1-0.3
		c-0.1-0.1-0.1-0.1-0.3-0.1H180v-0.3v0l6.7-3.4v-0.1h-6.1c-0.1,0-0.2,0-0.3,0.1c-0.1,0.1-0.1,0.2-0.1,0.3v0.4H180v-1.8h0.3v0.4
		c0,0.1,0,0.3,0.1,0.3c0.1,0.1,0.2,0.1,0.3,0.1h6.4c0.1,0,0.2,0,0.3-0.1c0.1-0.1,0.1-0.2,0.1-0.4v-0.3h0.3v1.4L181.8,100.5z
		 M186.9,91.8L186.9,91.8L186.9,91.8l-3.7-1v1.9L186.9,91.8z M182.9,92.7L182.9,92.7v-2l-1.7-0.4c-0.3-0.1-0.5-0.1-0.7,0
		c-0.2,0.1-0.2,0.2-0.2,0.4v0.1H180v-1.7h0.3v0.1c0,0.1,0,0.2,0.1,0.3c0.1,0.1,0.2,0.2,0.4,0.2l6.9,1.8l0.2,0.7l-7.1,1.7
		c-0.2,0.1-0.3,0.1-0.4,0.2c-0.1,0.1-0.1,0.2-0.1,0.3v0.1H180v-1.9h0.3v0.2c0,0.2,0.1,0.3,0.2,0.3c0.1,0,0.3,0,0.5,0L182.9,92.7z
		 M180,86.1L180,86.1v-2.3h0.3v0.4c0,0.2,0,0.3,0.1,0.3c0.1,0.1,0.2,0.1,0.3,0.1h6.3c0.2,0,0.4,0,0.4,0c0,0,0-0.2,0-0.4
		c0-0.4-0.1-0.7-0.2-0.9c-0.2-0.2-0.6-0.4-1.2-0.6l0-0.3l1.7,0.4v4.3l-1.7,0.4l0-0.2c0.6-0.2,1-0.4,1.2-0.6c0.2-0.1,0.2-0.4,0.2-0.8
		c0-0.3,0-0.5,0-0.5c0,0-0.2,0-0.5,0h-6.3c-0.1,0-0.2,0-0.3,0.1c-0.1,0.1-0.1,0.2-0.1,0.3v0.4H180z M181.8,79.8L181.8,79.8
		L181.8,79.8l5.3,0.1c0.1,0,0.2,0,0.3-0.1c0.1-0.1,0.1-0.2,0.1-0.3v-0.4h0.3v1.8h-0.3v-0.4c0-0.1,0-0.2-0.1-0.3
		c-0.1-0.1-0.1-0.1-0.3-0.1H180v-0.3v0l6.7-3.4v-0.1h-6.1c-0.1,0-0.2,0-0.3,0.1c-0.1,0.1-0.1,0.2-0.1,0.3v0.4H180v-1.8h0.3v0.4
		c0,0.2,0,0.3,0.1,0.3c0.1,0.1,0.2,0.1,0.3,0.1h6.4c0.1,0,0.2,0,0.3-0.1c0.1-0.1,0.1-0.2,0.1-0.4v-0.3h0.3v1.4L181.8,79.8z
		 M186.9,71L186.9,71L186.9,71l-3.7-1v1.9L186.9,71z M182.9,71.9L182.9,71.9v-2l-1.7-0.4c-0.3-0.1-0.5-0.1-0.7,0
		c-0.2,0.1-0.2,0.2-0.2,0.4v0.1H180v-1.7h0.3v0.1c0,0.1,0,0.2,0.1,0.3c0.1,0.1,0.2,0.2,0.4,0.2l6.9,1.8l0.2,0.7l-7.1,1.7
		c-0.2,0.1-0.3,0.1-0.4,0.2c-0.1,0.1-0.1,0.2-0.1,0.3v0.1H180v-1.9h0.3v0.2c0,0.2,0.1,0.3,0.2,0.3c0.1,0,0.3,0,0.5,0L182.9,71.9z
		 M180.6,66.4L180.6,66.4c-0.1,0-0.2,0-0.3,0.1c-0.1,0.1-0.1,0.2-0.1,0.3V67H180v-1.9h0.3v0.2c0,0.2,0,0.3,0.1,0.3
		c0.1,0.1,0.2,0.1,0.3,0.1h5.9v-0.1l-6.5-1.5v-0.3l6.4-1.4v-0.1h-5.8c-0.1,0-0.2,0-0.3,0.1c-0.1,0.1-0.1,0.2-0.1,0.3v0.1H180v-1.4
		h0.3v0.1c0,0.1,0,0.3,0.1,0.3c0.1,0.1,0.2,0.1,0.3,0.1h6.4c0.1,0,0.2,0,0.3-0.1c0.1-0.1,0.1-0.2,0.1-0.3v-0.2h0.3v1.3l-5.9,1.3v0.1
		l5.9,1.4V67h-0.3v-0.2c0-0.1,0-0.2-0.1-0.3c-0.1-0.1-0.1-0.1-0.3-0.1H180.6z M180.3,52.8L180.3,52.8c0,0.5,0.2,0.8,0.4,1.1
		c0.3,0.3,0.7,0.5,1.1,0.5h5.2c0.1,0,0.2,0,0.3-0.1c0.1-0.1,0.1-0.2,0.1-0.3v-0.3h0.3v1.6h-0.3v-0.3c0-0.1,0-0.2-0.1-0.3
		c-0.1-0.1-0.1-0.1-0.3-0.1h-5.2c-0.6,0-1.1-0.2-1.4-0.6c-0.3-0.4-0.5-0.9-0.5-1.4c0-0.5,0.1-1,0.4-1.4c0.3-0.4,0.8-0.6,1.4-0.6h5.3
		c0.1,0,0.2,0,0.3-0.1c0.1-0.1,0.1-0.2,0.1-0.3V50h0.3v2h-0.3v-0.2c0-0.1,0-0.2-0.1-0.3c-0.1-0.1-0.1-0.1-0.3-0.1h-5.3
		c-0.6,0-1,0.1-1.2,0.4C180.4,52,180.3,52.4,180.3,52.8z M180.6,44.8L180.6,44.8c-0.1,0-0.2,0-0.3,0.1c-0.1,0.1-0.1,0.2-0.1,0.3v1.2
		c0,0.4,0.1,0.8,0.4,1.1c0.3,0.3,0.7,0.5,1.2,0.7l-0.1,0.2L180,48v-4.6h0.3v0.3c0,0.2,0,0.3,0.1,0.3c0.1,0.1,0.2,0.1,0.3,0.1h6.4
		c0.1,0,0.2,0,0.3-0.1c0.1-0.1,0.1-0.2,0.1-0.3v-0.3h0.3v2.2h-0.3v-0.3c0-0.1,0-0.2-0.1-0.3c-0.1-0.1-0.1-0.1-0.3-0.1H180.6z
		 M180.3,39L180.3,39c0,0.5,0.2,0.8,0.4,1.1c0.3,0.3,0.7,0.5,1.1,0.5h5.2c0.1,0,0.2,0,0.3-0.1c0.1-0.1,0.1-0.2,0.1-0.3v-0.3h0.3v1.6
		h-0.3v-0.3c0-0.1,0-0.2-0.1-0.3c-0.1-0.1-0.1-0.1-0.3-0.1h-5.2c-0.6,0-1.1-0.2-1.4-0.6c-0.3-0.4-0.5-0.9-0.5-1.4
		c0-0.5,0.1-1,0.4-1.4c0.3-0.4,0.8-0.6,1.4-0.6h5.3c0.1,0,0.2,0,0.3-0.1c0.1-0.1,0.1-0.2,0.1-0.3v-0.2h0.3v2h-0.3V38
		c0-0.1,0-0.2-0.1-0.3c-0.1-0.1-0.1-0.1-0.3-0.1h-5.3c-0.6,0-1,0.1-1.2,0.4C180.4,38.2,180.3,38.5,180.3,39z M180.3,31.6H180v-2.2
		h0.3v0.3c0,0.2,0,0.3,0.1,0.3c0.1,0.1,0.2,0.1,0.3,0.1h6.4c0.1,0,0.2,0,0.3-0.1c0.1-0.1,0.1-0.2,0.1-0.3v-0.3h0.3v4.7l-1.6,0.5
		l-0.1-0.2c0.5-0.2,0.8-0.5,1.1-0.9c0.2-0.3,0.4-0.7,0.4-1.1v-1.3c0-0.1,0-0.2-0.1-0.3c-0.1-0.1-0.1-0.1-0.3-0.1h-2.9v1.5
		c0,0.3,0.1,0.5,0.2,0.7c0.1,0.1,0.4,0.2,0.7,0.2h0.2v0.3h-2.6v-0.3h0.2c0.4,0,0.6-0.1,0.8-0.2c0.2-0.1,0.3-0.4,0.3-0.7v-1.5h-3.3
		c-0.1,0-0.2,0-0.3,0.1c-0.1,0.1-0.1,0.2-0.1,0.3V31.6z"/>
	<rect y="0" class="st4" width="640" height="238.8"/>
</g>
<g>
</g>
<g>
</g>
<g>
</g>
<g>
</g>
<g>
</g>
<g>
</g>
<g>
</g>
<g>
</g>
<g>
</g>
<g>
</g>
<g>
</g>
<g>
</g>
<g>
</g>
<g>
</g>
<g>
</g>
</svg>
