<?xml version="1.0" encoding="utf-8"?>
<!-- Generator: Adobe Illustrator 17.0.0, SVG Export Plug-In . SVG Version: 6.00 Build 0)  -->
<!DOCTYPE svg PUBLIC "-//W3C//DTD SVG 1.1//EN" "http://www.w3.org/Graphics/SVG/1.1/DTD/svg11.dtd">
<svg version="1.1" id="Layer_1" xmlns="http://www.w3.org/2000/svg" xmlns:xlink="http://www.w3.org/1999/xlink" x="0px" y="0px"
	 width="640px" height="200px" viewBox="0 0 640 200" style="enable-background:new 0 0 640 200;" xml:space="preserve">
<style type="text/css">
	.st0{fill-rule:evenodd;clip-rule:evenodd;fill:#C5AE87;}
	.st1{fill:#AA192A;}
	.st2{fill:#3E3A39;}
	.st3{fill:none;}
</style>
<g id="page-2.svg">
	<path id="cloud" class="st0" d="M149.3,76.2c-2.8-6-5.1-7.8-9.3-11.6c0.2-0.4,0.3-0.9,0.5-1.2c8.7,0,10.2,1.8,10.5,11
		C150,76,150,76,149.3,76.2 M139.4,88.1c2.4-10.8-1.9-12-4.2-20.1c3.5,0,6.1,4.8,7.9,8.2c0.5,4.3,0.1,7.1-2,11.6
		C140.5,87.9,139.9,88,139.4,88.1z M122.5,99.4c-0.3-0.3-0.7-0.5-0.9-0.8c0-4.5,1.9-9.7,2.5-14.1c-0.3-2.5-0.7-4.8-1-7.2
		c-3.1-5.6-3.1-5.6-4.6-9.4c12.7,1.4,17.9,3.7,17.9,18.2C133.8,92.6,128.6,96.8,122.5,99.4z M53.5,110.4c-7.3-1.4-10.4-9-15-10.8
		c-3.6,7-3.1,7.5-9.9,8.5c-7.2-3.1-8-9-7-15.1c0.6,0,3.1-4.8,3.6-5.4c7.6-5.1,8.8-6.5,18.4-3.7c-4.2-12.7-2.5-14.4,3.6-25.8
		c5-3.2,8.1-5.1,14.4-6.3c14.5,0,21.9,3.9,21.2,20.3c11.7-5.7,22.1-6.4,30.7,5.4c0.6,2.3,1.3,4.6,2,6.9
		c-0.6,11.1-6.8,23.1-18.8,25.1c-10.7,0-15.9-1.4-16.7-11.7c1.5-6.9,3.6-7.9,10.1-9.2c8.5,3.6,6.3,7.3,4,14.8
		c6.2-1.3,6.8-7,7.3-11.9c-2.9-11.7-14-11.2-21.3-5.7c-0.6,0-1.2,0-1.7,0.1c-4.9-7.6-8.2-11.3-16.5-11.3c-11,5-13.3,8.5-11.6,20.9
		c1.2,1.4,2.4,2.7,3.6,4.2c0.5,0,1,0,1.6,0.1c-1.3-2.5-0.6-4.8-0.5-6.9c4.8-15.5,21.2-8.2,16.6,7.6
		C66.1,107.7,62.4,109.8,53.5,110.4z M189.1,123.9c-4-1.7-5.1-1.4-6.1-5.2c3.7-5.4,8.8-11.8,5.3-18.1c0-0.7,0.1-1.3,0.2-1.9
		c5.4-2.7,11.5,1.5,15,6.3C207.9,116.6,200,122.5,189.1,123.9z M206.3,124.8c0.6-2.5,2-4.8,2.6-7.1c5.3-7.6-1.3-17.1-5.5-21.8
		c-0.1-0.4-0.2-0.8-0.2-1.2c7.8-3.5,8.2-2.6,16.4,0.4c5.1,5.6,8.3,11.5,3.7,19.5C218.1,120.6,214.2,123.7,206.3,124.8z M134.2,148.5
		c-5.3-1.2-12.3-4.8-4.5-7.6c8.2-7.3,8.8-11.3,4.6-20.9c-14.8-14.8-29,9.3-18.1,11.4c-0.6-5.8,2.7-10.7,8.8-9.3
		c2.5,1.5,4.1,2.6,6,5.9c0,5.1-4.1,8.7-8,11.4c-10.3,1.2-19.9-0.9-22.4-10.8c0-7-1-10.7,5.8-13.2c1.8-1.4,3.6-2.6,5.4-3.9
		c5.3-5.6,5-7.2,13.8-5.6c3.7,2,7.5,5,10.8,9c0.4-0.2,0.8-0.3,1.3-0.3c2-9.8,5.1-16.5,12.1-23.5c7.6-4.5,13.8-3.5,22.7-0.7
		c4.6,4.3,9.3,9.4,8.8,17.3c-3.2,10.5-5.8,12.2-15.2,16.8c-10.1,0.4-12.3-2-12.3-10.9c2.7-8.2,13.1-8.2,12.4,2.4c0.3,0,0.7,0,1,0.1
		c4.1-7.3,1.7-12.8-5.4-15.3c-13.2,0-16.2,6.5-16.7,18.2c4.8,12.4,11.6,14.8,25.2,12.1c9.4-5.9,10.2-6.9,11-7
		c1.4,5.1-1.2,11.6-4.4,15.9c-7.8,5.6-12.1,5.3-19.7,1.9c-2-1.4-3.1-2.7-5-2.7C146.1,145.5,142.4,148.2,134.2,148.5z M162.2,157.9
		c-3.7-0.5-7.6-1.3-10.6-2.3c-8.6-4.6-0.4-3.1,2.5-7c2.9-0.4,6.9,1.2,10.7,1.8c10.9-1.4,15.8-4.9,21.2-15c0.3-2.3,0.7-4.6,1.1-6.9
		c3.7-0.9,12.2-0.4,16.5,0.3c1.3,0.8,2.9-0.1,5.2,1c-0.4,6.7-8,11.7-12.3,15.6c3.8,5.1,18.3,8,25.8,8.9c0,0.3,0.1,0.5,0.2,0.9
		c-13.3,3.6-26.2,3.1-36.3-5.4c-4.5,3-8.8,4.9-13.3,6.9C169.2,157.1,165.7,157.4,162.2,157.9z M208.4,164.4
		c-1.2-1.2-13-1.3-14.7-1.4c-3.1-1.2-6.2-2.4-9.3-3.5c-15.6,6.4-32.9,6.2-45.8-4.1c-8.8-1-13.4-7.4-19.7-8.9c-2,0.2-4.1,0.4-6.1,0.7
		C97,144.7,90,136.1,91.6,120.4c-0.2-0.8-0.3-1.5-0.3-2.2c-3.1-1-6.1-2-9.1-3c-6.8-4.8-4.8-4.1-10.8,1.4c-8.8,4.8-18,3.3-25.9-1.4
		c-3.1,0-3.7,0.7-5.9,1.8c-13.6,2.9-16.4,2.5-25.5-6.6c-4-9.7-2-16.1,1.9-24.8c2.5-2.2,5.1-4.4,7.6-6.6c2.4-1.4,4.2-2.2,7.1-3.5
		c0.5-2,0.5-2,1.3-11.8c1.2-2.5,2.5-4.9,3.7-7.4c4.7-3.9,9.7-7.4,14.4-11.2c10-4.2,18.5-6,29,0.3c4.3,4.2,8.4,8,12,13.9
		c3.1,0.2,5.2-0.3,9.7-0.3c4,0.6,8.3,3.7,13.1,3.7c6.8-4.1,11.7,0.1,18.9,0.4c11.6-7.1,20.8-5.9,25.3,8.7c0.1,2.9,0.2,5.8,0.3,8.7
		c1.8,0.7,5.2,0.5,7.8,0.6c7.6,1.5,11.9,5.9,16.8,12.6c2.6,0.3,7.4-1.3,10.9-2c4.2-8.3,17.1-8.7,25.1-6.3c2.5,1.8,5.2,3.6,7.8,5.4
		c6.1,9.3,9.1,14.5,4,26c-1.6,2.4-5.7,7-8.1,7.4c0,0.2,0,0.3,0,0.6c-6.3,3.1-4.3,4.7-6.3,11.1c-1.4,2-2.6,5.1-4.3,7.6
		c0,4.8,14.8,4.8,19.4,4.8c4.7-0.6,9.2-3.3,13.3-5.9c2.2-2.1,2.2-2.1,3-2.4c-6.4,17.8-18.5,21-35.6,24
		C210.5,164,209.4,163.9,208.4,164.4z"/>
	<path id="fu_1_" class="st1" d="M249.7,31.7c8.7,3.4,14,6.1,15.8,8.1c0.7,1.5,0.3,3.4-1.3,5.9c-0.9,1-1.5,1.5-2,1.3
		c-0.6-0.1-1.2-0.8-1.8-2c-2.3-4.7-6.1-8.9-11.2-12.7c-0.1-0.1-0.1-0.3,0-0.4C249.3,31.8,249.4,31.7,249.7,31.7 M236.6,30.4l5.7,3.7
		c0.3,0.3,0.3,0.5,0,0.7l-1.5,1.3c-6.4,6.9-12.9,12.6-19.5,17.3c-0.4,0.1-0.6,0-0.4-0.4c7.4-6.6,12.5-13.9,15.1-22.1
		C236.2,30.4,236.4,30.3,236.6,30.4z M251.7,44.2l6.8,3.3c0.3,0.1,0.2,0.4-0.2,0.7l-1.3,1.3c-2.5,5.5-5.5,10.3-9,14.2
		c5.8,4.1,13.6,7.6,23.2,10.5c0.4,0.1,0.5,0.4,0.2,0.7c-2.8,0.1-5.6,1.8-8.5,5c-8.8-4.2-14.8-8.5-18.2-12.7
		c-5.7,5.4-14.2,10.2-25.6,14.4c-0.3,0.1-0.4,0.1-0.4-0.2c-0.1-0.3-0.1-0.5,0.2-0.7c10.5-4.7,18.2-10.2,23.2-16.6
		c-3.5-4.8-6-10.8-7.4-17.9l0.7-0.4c1.3,5.7,4.4,10.7,9.2,15.1C247.8,55.9,250.2,50.3,251.7,44.2z"/>
	<path id="ai" class="st1" d="M286,37c2.6,2,4,3.9,4.2,5.5c-0.4,1.5-1.3,2.3-2.6,2.4c-0.9-0.1-1.4-0.7-1.5-1.5
		c0.3-2.8,0.1-4.7-0.4-5.9C285.6,37,285.8,36.8,286,37 M295,36.6c3.2,1.9,4.7,3.7,4.4,5.3c-0.4,1.2-1.3,2-2.6,2.4
		c-1,0-1.6-0.4-1.8-1.3c0.4-2.8,0.3-4.8-0.4-6.1C294.6,36.5,294.7,36.4,295,36.6z M306,61.9l-12.7,0.4c1.6,2.8,3.7,5.2,6.3,7.2
		C301.7,67.4,303.8,64.9,306,61.9z M305.5,28.7l3.1,4.4c0.1,0.4,0,0.7-0.4,0.7c-8,1-16.2,1.8-24.5,2.4c-0.3,0-0.4-0.1-0.4-0.2
		c-0.1-0.1-0.1-0.3,0.2-0.4C292.8,33.7,300.1,31.5,305.5,28.7z M307.1,35.3l4.8,3.1c0.4,0.3,0.4,0.6-0.2,0.9l-1.1,0.7l-7.4,5.2
		l9-0.4l2.6-1.7l5,5c0.3,0.3,0.4,0.6,0.2,0.9c0,0.3-0.3,0.4-0.9,0.4c-3.1-0.1-5.5,0.5-7.4,2c-0.4,0.1-0.7,0-0.7-0.4l1.3-4.8
		l-30.6,0.9c-0.6,3.2-2.3,5.8-5,7.7c-0.6,0.4-1,0.4-1.1-0.2c-0.4-1.9-0.4-3.3,0.2-4.2c1.9-1.3,2.8-3.4,2.6-6.1
		c0-0.4,0.1-0.7,0.2-0.7c0.1-0.1,0.4-0.1,0.9,0.2c0.9,0.6,1.5,1.3,2,2.2l20.6-0.7C304.5,40.9,306.2,37.6,307.1,35.3z M285.4,56.3
		c-2.3,0.1-4.4,0.4-6.1,0.7l-1.8-1.5l11.8-0.2c0.9-2.5,1.5-5.1,2-7.9l5,2.2c0.4,0.1,0.4,0.4,0,0.9l-0.9,1.5
		c-0.3,1.2-0.7,2.2-1.1,3.1l16.4-0.2l3.3-3.5l4.4,3.9c0.3,0.3,0.3,0.4,0,0.4L293.9,56c-0.6,1.9-1.5,3.7-2.6,5.3l14.7-0.4l2.4-2.6
		l4.4,2.8c0.4,0.3,0.4,0.6-0.2,0.9l-1.5,1.3c-2.8,3.1-5.5,5.9-8.3,8.5c4.8,2.5,10.6,4.3,17.5,5.5c0.4,0.3,0.5,0.6,0.2,0.9
		c-2.3,0.1-4.7,1.7-7.2,4.6c-5.4-2.5-9.9-5.4-13.4-8.8c-4.7,2.9-12,5.7-21.9,8.3c-0.6,0.3-0.7,0.1-0.4-0.4
		c9.8-3.4,16.5-6.8,20.1-10.3c-1.9-2.6-3.6-5.7-5-9.2l-2,0.2c-3.4,6-9.9,12.2-19.5,18.6c-0.7,0.1-0.9,0-0.4-0.4
		c9.2-6.9,15.2-15,18.2-24.5H285.4z"/>
	<path id="ru" class="st1" d="M332,61.9c0.4,0.1,1.2,0.4,2.4,0.9c1.5,0.6,2.6,1,3.3,1.3c2.3-5.5,3.8-12.3,4.4-20.1l-6.3,0.2
		L332,61.9z M355.7,41.2v26.3l7.9-0.2l-0.4-26H355.7z M343.9,40.1l4.6,2.4c0.4,0.1,0.5,0.4,0.2,0.7l-1.5,1.8
		c-0.9,8.7-2.9,15.7-6.1,20.8c3.5,1.9,5.8,3.4,7,4.6c0.7,2.2,0.3,4.1-1.3,5.7c-0.9,0.6-1.6,0.5-2.2-0.2c-1.3-2.6-3.1-5-5.5-7
		c-3.1,4.4-9,9.1-17.7,14.2c-0.4,0-0.6-0.2-0.4-0.7c7.9-5.3,13.1-10.4,15.8-15.5c-2.5-2-5-3.5-7.4-4.4l2.6-18.2h-0.9
		c-0.6,0-1.5,0.1-2.6,0.2c-1.2,0.1-2.1,0.3-2.8,0.4l-1.5-1.8h7.9l0.9-5.9c0.4-3.8,0.7-6.3,0.7-7.7l5.7,2c0.3,0,0.3,0.2,0,0.7
		l-0.9,1.1l-2.2,9.6l5.9-0.2L343.9,40.1z M364.6,37.2l5.2,3.1c0.3,0,0.3,0.1,0,0.4l-1.3,2l0.2,24.7l0.2,0.7c0.1,0,0.1,0.1,0,0.2
		c-3.2,0-7.7,0.1-13.3,0.2v4.4c-0.1,2.2-1.2,4.2-3.3,6.1c-0.7,0.6-1.2,0.5-1.3-0.2l0.2-12l0.2-23.6c0-0.7-0.1-2-0.2-3.9
		c0-0.9,0-1.5,0-1.7c0-0.1,0.1-0.2,0.4-0.2l4.2,3.1l6.8-0.2L364.6,37.2z"/>
	<path id="shan" class="st1" d="M384.6,76c-0.4,2-1.5,3.9-3.3,5.5c-0.7,0.3-1.2,0.1-1.3-0.4l0.2-11.8v-16L380,42.5l5.9,2
		c0.3,0.1,0.3,0.4,0,0.7l-0.9,1.5l-0.4,27.1h11.6l0.2-34.4c0-3.8-0.1-7.1-0.4-9.9l7.2,2.2c0.4,0,0.5,0.3,0.2,0.9
		c-0.7,0.4-1.1,1.2-1.1,2.2l-0.2,39l10.7-0.2L413,49v-7.7l6.1,2.6c0.4,0.1,0.4,0.4,0,0.9l-0.7,1.5v17.1l0.2,8.5
		c-0.1,2.8-1.6,5.4-4.4,7.9c-0.6,0.4-1,0.3-1.3-0.4c-0.1-2-0.6-3.6-1.3-4.6l-27.1,0.2V76z"/>
	<g id="subtitle">
		<path class="st2" d="M236.2,110.4c0-0.1,0-0.1,0.1-0.1c0,0,0-0.1,0.1-0.3c0.2-0.2,0.4-0.6,0.7-1.4c0.1-0.4,0.2-1.2,0.3-2.5
			c0.1-1.6-0.3-3.5-1.2-5.8c-0.1,0-0.2,0-0.3,0c-0.1,0-0.2,0-0.3,0c-0.2,0.1-0.3,0.1-0.4,0.1c0.1-0.9,0.5-1.4,1.2-1.5
			c0.3,0,0.5,0.2,0.5,0.6c0.1,0.2,0.1,0.3,0.1,0.3c1.1,2.1,1.6,4.4,1.5,6.9c-0.3,2.6-0.9,3.9-1.8,4
			C236.4,110.7,236.2,110.6,236.2,110.4 M227.1,113.7c0-0.4,0.3-0.7,1-1c0.5-0.3,0.8-0.5,1-0.7c1.3-1.7,1.9-3.3,1.9-5.1
			c0-0.1,0-0.2,0-0.4c-0.1-0.2-0.1-0.3-0.1-0.4c0-0.3,0.2-0.4,0.7-0.4c0.6,0,0.8,0.3,0.8,0.8c0,0.2,0,0.3,0,0.4
			c-0.3,1.6-1,3.3-2.1,5.2c0,0.1,0.1,0.1,0.4,0.1c1.1,0,2.9-0.4,5.5-1.2c0.1-0.1,0.2-0.1,0.3-0.1c0.4-0.2,1.1-0.4,2.2-0.6
			c2.6-0.5,4-1,4.4-1.8l0.1-0.1c0.3,0,0.4,0.3,0.4,0.8c0,0.2,0,0.4-0.1,0.6c-0.1,0.1-0.1,0.2-0.1,0.3l-8.6,2.5
			c-0.1,0.1-0.2,0.1-0.4,0.1c-0.1,0-0.2,0-0.3,0c-0.8,0.2-2,0.5-3.6,1c-1.1,0.4-2,0.6-2.6,0.8c-0.2,0-0.3,0-0.3,0
			C227.2,114.6,227.1,114.3,227.1,113.7z M243.8,116.8c0.2-0.2,0.3-0.3,0.3-0.4c0.3-0.6,0.4-1.7,0.4-3.2c0-1.6-0.2-3.3-0.5-5.1
			c0-0.2-0.2-0.6-0.6-1.2c-0.4-0.7-0.6-1.2-0.6-1.4c0-0.4,0.2-0.6,0.6-0.6c0.7,0,1.3,0.7,1.6,2.1c0.1,0.2,0.1,0.3,0.1,0.4
			c0.5,1.3,0.6,3.3,0.5,6c0,0.6,0,1.2,0,1.6c0,1.6-0.4,2.3-1.2,2.3C244.2,117.3,243.9,117.1,243.8,116.8z"/>
		<path class="st2" d="M259.3,109.6c0-0.1,0-0.1,0-0.1c0.4-0.4,0.6-0.6,0.7-0.6c1.1-1.6,2-2.9,2.7-4.1l2.2-4.3
			c0.1-0.5,0.2-0.8,0.3-1.1c0-0.1,0-0.1,0-0.1c-0.3,0-0.6,0-1,0c0,0-0.3,0-0.8,0.1c-0.8,0.2-1.3,0.3-1.4,0.3
			c-0.4,0.1-0.9,0.1-1.6,0.1c-2.1,0.1-3.6,0.4-4.5,1c0,0.3-0.1,0.4-0.3,0.4c-0.2,0.1-0.4,0.1-0.6,0.1c-0.8-0.1-1.2-0.3-1.2-0.7
			c0-0.1,0.1-0.3,0.4-0.6c0.7-0.4,1.1-0.6,1.2-0.7h0.1c0.4-0.1,1.4-0.2,3-0.4c4.6-0.6,6.9-1.1,7-1.5c0-0.1,0-0.3,0.1-0.7
			c0.1-1.6,0.4-2.3,0.8-2.3c0.5,0,0.7,0.2,0.7,0.5c0,0.6,0,1-0.1,1H267c0,0.6,0,0.9-0.1,1.1c0,0.2,0,0.3,0,0.3h0.4
			c0.1,0,0.7-0.1,1.9-0.3c1.4-0.2,2.2-0.3,2.6-0.3c0.3,0,0.7-0.1,1.2-0.3c1.6-0.3,2.9-0.4,3.8-0.4c0,0,0.2,0,0.6,0
			c0.6,0.1,0.9,0.1,1,0.1c0.3,0,0.4,0.1,0.4,0.4c-0.3,0.8-0.7,1.3-1.4,1.5c-0.2,0-0.3-0.1-0.4-0.4c-0.2-0.3-0.4-0.4-0.6-0.4
			c-0.3,0-0.6,0-0.8,0c-0.3,0-0.5,0-0.7,0c-1,0.2-2.4,0.4-4.3,0.5c-0.1,0-0.3,0-0.7,0.1c-1.6,0.2-2.6,0.4-3,0.7
			c-0.1,0.1-0.2,0.2-0.4,0.4c-0.1,0.3-0.2,0.5-0.4,0.6c-0.2,1.3-1,3.3-2.6,5.9c-0.1,0-0.1,0-0.1,0.1c-0.1,0.1-0.1,0.1-0.1,0.1
			c-0.1,0.1-0.4,0.5-0.8,1.2c-0.5,0.7-0.7,1.2-0.8,1.4c-0.2,0.1-0.4,0.3-0.6,0.6c-0.5,0.6-0.9,0.8-1.2,0.8
			C259.6,109.9,259.4,109.8,259.3,109.6 M268.3,108.9c0,0.4,0,1,0,1.8c-0.1,0.8-0.1,1.5-0.1,1.9c0,0,0,0,0,0.1l0.6-0.3l4.5-1.5
			c0.3-0.1,0.4-0.4,0.4-1c0-4.3-0.1-7.5-0.4-9.6c-0.1,0-0.2,0-0.3,0c-2.8,0.7-4.4,1.7-4.8,2.7v2.3c0.2,0.2,0.2,0.5,0.1,1.1
			c0,0.2,0,0.3,0,0.3c0.5-0.1,1-0.1,1.6-0.1c0.1,0,0.2,0,0.4,0c1.7-0.1,2.6,0.3,2.6,1.2c0,0.2,0,0.3,0,0.4c0,0,0,0-0.1,0.1
			c-0.1,0-0.3-0.1-0.5-0.3c-0.5-0.3-1-0.4-1.5-0.4c-0.6,0.1-1.2,0.2-1.8,0.4c-0.1,0.1-0.2,0.2-0.3,0.4
			C268.6,108.8,268.5,108.9,268.3,108.9z M265,121.8c0-0.4,0-0.6,0-0.8c0.1-0.1,0.1-0.2,0.1-0.3c0.1-0.6,0.2-1.1,0.4-1.5
			c0.2,0,0.3,0.1,0.3,0.4c0,0.4,0,0.8,0,1.2c0.1-0.3,0.2-0.7,0.3-1.2c0.1-0.4,0.1-0.6,0.1-0.7c0-0.3,0.1-1.1,0.3-2.5
			c0.1-1.5,0.1-2.3,0.1-2.5c0.3-0.3,0.4-0.8,0.3-1.5c0-0.3,0-0.5,0-0.6c0-0.1,0-0.6,0.1-1.4c0-0.6,0-0.8,0-0.8c0-0.4,0-0.9,0-1.5
			c0-1.2-0.1-2.2-0.3-3c-0.1,0-0.2,0.1-0.3,0.3c0,0.3-0.1,0.4-0.3,0.4c0,0,0,0,0-0.1c0-0.1,0-0.3-0.1-0.5c0-0.3,0-0.4-0.1-0.4
			c0-0.1,0-0.1,0-0.1c0-0.3,0.1-0.6,0.3-1.1c0.3-0.5,0.4-1.1,0.3-1.6c0.2-0.2,0.5-0.3,1-0.4c0.3,0,0.5,0,0.6-0.1
			c0.3-0.2,0.7-0.4,1.4-0.7c1.6-1,2.8-1.5,3.8-1.5c0.8,0,1.3,0.2,1.4,0.7c-0.1,1.7-0.1,4.3,0,7.7c0.1,2.3,0.1,4,0.1,5.1
			c0.1,0.5,0.1,1,0,1.7c0,0.5,0,0.8,0,1c0,0.7,0,1.9,0.1,3.6c0,1.5,0,2.6,0.1,3.3c0,0.3-0.1,0.5-0.3,0.5c-0.1,0.3-0.3,0.4-0.5,0.3
			c-0.2,0-0.4-0.2-0.7-0.7c-0.2-0.3-0.3-0.5-0.4-0.6c-0.1-0.1-0.2-0.2-0.3-0.4c-1.6-2.3-2.3-4.1-2.3-5.4c0-0.2,0-0.4,0-0.6l0.3,0.3
			l1.1,2.6c0.5,0.4,1,1,1.7,1.8h0.1c0.1-0.4,0.1-0.6,0.1-0.8c0-3.2-0.1-5.7-0.3-7.4l-2.1,1c-0.1,0.1-0.3,0.2-0.7,0.3
			c0,0-0.1,0-0.4,0.1c-1.2,0.6-1.9,1-2.1,1.1c0,0.2-0.1,0.3-0.4,0.3c-0.1,0.1-0.3,1.6-0.6,4.4c-0.2,1.2-0.3,1.9-0.3,2.1
			c-0.1,0.3-0.3,1-0.6,2.2l-0.7,0.8h-0.1c-0.6,0-0.8-0.6-0.7-1.9C265,121.9,265,121.8,265,121.8z"/>
		<path class="st2" d="M297.2,110.4c1.4,0.8,2.7,1.8,3.8,2.9c0-0.3,0.1-0.4,0.3-0.4c0.4-1.1,0.8-2.2,1.4-3.2l0.1-0.1l1.1-1.9
			l0.1-0.1c0-0.1,0.2-0.5,0.6-1.1c0.1-0.1,0.1-0.2,0.1-0.3c0,0,0,0-0.1,0c-0.4,0-1.3,0.5-2.9,1.4c-0.8,0.5-1.3,0.7-1.5,0.8
			c-0.8,0.5-1.4,0.9-1.8,1c0,0-0.1,0.1-0.3,0.3C297.7,110.1,297.3,110.3,297.2,110.4 M294.1,122.8c0.1-0.8,0.2-1.4,0.4-1.8
			c0,0.1,0,0.5,0.1,1.1c0.1,0.5,0.1,0.9,0.1,1c0,0.5,0.1,0.8,0.3,0.8c0.1,0,0.1,0,0.1,0c0.1-0.1,0.1-0.1,0.1-0.1
			c1.4-1.9,2.5-3.9,3.4-6l0.1-0.1l1.7-3c0-0.1-0.6-0.7-1.9-1.8c-0.4-0.4-0.6-0.6-0.7-0.7c-0.6-0.3-1.2-0.4-2.1-0.4l-0.1-0.1
			l-1.1,0.6c0,0,0,0-0.1,0c-0.3,0-0.4-0.2-0.4-0.7c0-0.1,0-0.2,0-0.3c1.8-1.2,3.5-2.5,5.1-3.8c0.2-0.2,0.5-0.5,1-0.8
			c0.6-0.6,1-1.1,1.4-1.2c0.2-0.1,0.3-0.1,0.3-0.1c0.5-0.4,1.1-1,1.8-1.8c0.5-0.6,0.8-1,1.1-1.2h-0.1c0,0,0,0-0.1,0
			c-0.1,0-0.2,0-0.4,0.1c-2,0.8-3.8,1.1-5.5,0.8c-0.2,0.2-0.5,0.5-0.8,1.1c-0.3,0.6-0.5,0.9-0.8,1.1l-1.9,3.2c0,0-0.1,0-0.3,0.1
			c-0.2,0.2-0.3,0.3-0.4,0.3c-0.3,0-0.4-0.2-0.4-0.6c0-0.6,0.2-1.2,0.7-1.8c0.3-0.4,0.5-0.7,0.6-1c0-0.7,0.1-1.1,0.4-1.1
			c-0.2,0.3-0.3,0.6-0.3,0.8c0,0.1,0,0.2,0,0.4c0.2-0.2,0.3-0.3,0.3-0.3c0.5-0.5,1.1-1.3,1.9-2.5v-0.1c-0.2-0.3-0.5-0.5-1-0.6
			c0,0,0,0-0.1,0.1l-0.4,0.7c0.1-0.4,0-0.8-0.1-1.2c-0.2-0.4-0.3-0.6-0.3-0.8c0.1-0.5,0.3-0.7,0.7-0.8c0,0,0.1,0,0.3,0.1
			c0.1,0,0.1,0,0.1,0.1c0.5,0.9,1,1.4,1.5,1.4c0.1,0,0.1,0,0.1-0.1c0.1-0.1,0.3-0.4,0.7-0.8c0.5-0.6,0.7-0.8,0.7-0.8
			c0-0.1,0.1-0.3,0.4-0.6c1.2-1.6,1.8-2.5,1.8-2.9c-0.3-0.1-0.5-0.1-0.8-0.1c-1.1,0-2.5,0.2-4.3,0.5c-0.8,0.2-1.4,0.3-1.8,0.4
			c-0.1,0-0.2,0-0.3,0c-0.4,0-0.6-0.2-0.6-0.7c0-0.3,0.2-0.5,0.7-0.7c0.4-0.2,0.6-0.4,0.7-0.5c0.7-0.5,1.7-1.1,2.7-1.9
			c1.7-1.5,3.1-2.2,4-2.2v1.1c0,0.1-0.3,0.2-1,0.4c-0.7,0.3-1.1,0.5-1.2,0.6c-0.3,0.2-0.6,0.5-1.1,1c-0.5,0.5-1,0.8-1.2,1
			c0,0-0.1,0-0.3,0.1c-0.4,0.2-0.6,0.3-0.7,0.4c0.2-0.1,0.3-0.1,0.4,0c0,0.1,0,0.1,0.1,0.1c1.2-0.5,2.4-0.7,3.6-0.7
			c0.2,0,0.6,0,1.2,0.1c0.6,0.1,1.1,0.1,1.2,0.1c0.1,0.1,0.1,0.2,0.1,0.4c0,0.6-0.4,1.3-1.1,2.2c-0.1,0.1-0.2,0.2-0.3,0.3
			c-0.2,0.4-0.8,1.1-1.8,2.2c-0.4,0.4-0.6,0.6-0.6,0.8c0,0.1,0,0.1-0.1,0.1c-0.1,0.1-0.1,0.2-0.1,0.3c0,0.1,0,0.2,0.1,0.3
			c1.9,0,3.3-0.2,4.3-0.6c0.7-0.1,1.2-0.2,1.4-0.3c0.4-0.3,0.6-0.5,0.6-0.5c0.1,0,0.1,0,0.1,0c0.5,0,0.7,0.1,0.7,0.4
			c0,0.5-0.4,1-1.2,1.6c-0.2,0.2-0.3,0.3-0.4,0.4c-0.6,0.5-1.6,1.5-3,2.9v0.1l4.3-1.9c0.1,0,0.1,0,0.1,0c0.6,0,0.8,0.2,0.8,0.6v0.1
			c-0.2,0.4-0.5,0.9-1,1.5c-0.5,0.6-0.9,1.1-1.1,1.5c-0.3,0.8-0.8,2-1.6,3.4c-0.6,0.9-1,1.6-1.2,2.1c0,0.1,0,0.1-0.1,0.1
			c-0.1,0.1-0.1,0.3-0.1,0.6c0,0.1,0,0.1,0,0.1c0.1,0,0.2,0.1,0.4,0.3c0.3,0.2,0.4,0.3,0.4,0.4c0.3,0.3,0.6,0.6,1,1.1
			c0.4,0.5,0.6,0.8,0.8,1c0.1,0.1,0.3,0.3,0.7,0.5c1.4,1.3,2.1,2.1,2.1,2.3h0.3c-0.2,0.6-0.5,0.9-0.8,1c-0.2,0-0.3,0-0.4,0
			c-0.6-1.1-1.8-2.5-3.4-4.1c-0.6-0.6-1.1-1.1-1.4-1.5l-0.3,0.3c-0.2,0.4-0.5,0.9-1,1.6c-1.7,2.8-3.1,5.3-4.3,7.4
			c-0.1,0.1-0.2,0.3-0.4,0.6c-0.3,0.5-0.5,0.7-0.7,0.7c-0.4-0.1-0.6-0.7-0.7-1.9C294.1,123.3,294.1,122.9,294.1,122.8z"/>
		<path class="st2" d="M321.7,97.9c0.1-0.5,0.4-0.7,0.8-0.8c0.3,0,0.7,0.1,1.2,0.3c0.7,0.2,1.3,0.3,1.8,0.3c1.9,0,3.4-0.2,4.4-0.7
			c-0.2-0.3-0.6-0.5-1.2-0.8c-1.1-0.5-1.6-1-1.6-1.5c0.2-0.5,0.4-0.6,0.7-0.6c0.2,0.2,0.5,0.4,1,0.7c1.1,0.8,2.1,1.4,2.9,1.8
			c0,0,0.1,0,0.3,0c0.4,0,1-0.1,1.8-0.4c0.6-0.2,1-0.3,1.2-0.3c1.4-0.4,2.7-0.6,4.1-0.6c0.4,0,0.7,0,1.1,0c0,0,0,0,0.1,0.1
			c0.3,0.2,0.4,0.3,0.4,0.4V96c-0.1,0-0.2,0-0.3,0.1c-0.5,0.5-0.9,0.7-1.4,0.7c-0.3,0-0.6,0-0.8-0.1c-0.3,0-0.5,0-0.7,0
			c-0.3,0-0.5,0-0.6,0l-5.1,1c-0.2,0-0.4,0-0.7,0.1c-2.4,0.6-4.3,1-5.8,1c-0.6,0-1,0-1.4,0c0,0-0.2,0-0.7-0.1
			c-0.6-0.2-1-0.3-1.1-0.3C321.9,98.4,321.7,98.2,321.7,97.9 M332.4,100.5c-2.1,0.6-3.4,1.1-3.8,1.8l-0.1,1.9
			C330.8,103,332.1,101.7,332.4,100.5z M327.2,106c-0.2-0.1-0.3-0.8-0.4-2.1c-0.1-0.9-0.2-1.5-0.3-1.7c-0.1-0.2-0.2-0.5-0.3-0.8
			c-0.3-0.8-0.4-1.5-0.4-1.9c0-0.2,0.2-0.3,0.7-0.4c0.6,0,1.1,0.6,1.2,1.7c0,0.1,0,0.1,0,0.1c0.1,0.2,0.1,0.3,0.1,0.3
			c0.1,0,0.2-0.1,0.4-0.3c0.2-0.2,0.4-0.3,0.5-0.3c0.1-0.1,0.2-0.1,0.3-0.1c0.3-0.1,1.1-0.5,2.3-1.1c0.2,0,0.3,0,0.4,0
			c1.2,0,1.8,0.3,1.8,1c0,0.6-0.4,1.3-1.2,2.2c-0.5,0.4-0.7,0.6-0.7,0.8c0,0.1,0,0.2,0.1,0.3c0.2,0.2,0.3,0.4,0.3,0.6
			c0,0.3-0.5,0.5-1.4,0.7c-0.4,0.1-0.6,0.2-0.7,0.3c-0.5,0.2-0.9,0.4-1.4,0.7c0,0,0,0,0,0.1c0,0.1,0,0.3,0.1,0.7
			c0.2,0.5,0.3,0.8,0.3,1c0,0.3-0.2,0.5-0.7,0.5c-0.2,0-0.3,0-0.3-0.1L327.2,106z M329.6,113.6c0,0.1,0,0.2,0.1,0.3
			c0.2,0.7,0.4,1.2,0.7,1.4c1.7-0.8,3.1-1.9,4.1-3.2c-1.2,0-2.3,0.4-3.4,1.1C330.4,113.4,329.9,113.5,329.6,113.6z M322.6,113.6
			c0,0.4,0.3,1.1,0.8,2.1c0.3,0.6,0.5,1.1,0.6,1.2h0.1c-0.4-1.5-0.9-2.6-1.5-3.4V113.6z M335,117.4c0.4,0,1.2,0.9,2.6,2.6
			c0.9,0.9,1.4,1.4,1.5,1.4c0.2,0,0.6-0.9,1.1-2.7c0.2-0.7,0.3-1.1,0.4-1.2c0.1-0.4,0.3-1,0.6-1.8c1-2.7,1.5-4.9,1.5-6.3
			c0.1-0.2,0-0.3-0.3-0.4c-0.6-0.5-1.2-0.9-1.9-1.4c-0.3,0-0.5,0-0.7,0c-1.3,0-2.1,0.1-2.3,0.4c-0.3,0.1-1.2,0.3-2.9,0.7
			c-1.1,0.4-1.7,0.5-1.9,0.5c-0.3,0.1-0.7,0.2-1.2,0.4c-1.3,0.3-2.2,0.5-2.7,0.8c0,0.1,0,0.1,0,0.1c0.1,0.3,0.2,0.4,0.3,0.4
			c0,0,0,0.1,0.1,0.4c0.2,0.5,0.3,0.7,0.3,0.8h0.3l3.7-1.2c0.2,0,0.5,0,0.8,0c0.5-0.1,0.8-0.1,1.1-0.1c0,0,0.1,0,0.3,0
			c0.6-0.1,0.8,0,0.8,0.4c0,0.4-0.2,0.9-0.6,1.5c-0.3,0.4-0.4,0.6-0.4,0.8c0,0.1,0.1,0.3,0.4,0.6l-0.6,0.7c-0.1-0.1-0.2-0.1-0.3-0.1
			c-0.1,0-0.3,0.1-0.6,0.4l-2.9,1.5c-0.3,0.3-0.6,0.5-1.1,0.6c-1.2,0-1.8-0.3-1.8-0.8c0-0.1,0.1-0.2,0.3-0.4
			c0.1-0.2,0.1-0.3,0.1-0.4c0-0.2-0.1-0.4-0.3-0.7c-0.2-0.2-0.3-0.3-0.3-0.4c-0.1-0.3-0.2-0.7-0.4-1.4c-0.3-1.1-0.5-1.8-0.8-2.2
			c0,0,0,0-0.1,0c-0.9,0.3-1.9,0.6-2.9,1c-0.9,0.4-1.4,0.7-1.4,1c0,0,0,0,0,0.1c0.1,0.4,0.4,1,1,1.8c0.8,1.4,1.2,2.4,1.2,3.2
			c0,0.9-0.2,1.4-0.7,1.4c-0.5,0-1.2-0.9-1.9-2.7c-0.3-0.9-0.5-1.4-0.7-1.4l-2.1-6.2c0-0.1,0-0.1,0-0.1c0-0.3,0.2-0.4,0.5-0.4
			c0.7,0,1.3,1,1.7,2.9c0,0.1,0,0.1,0,0.1h0.1c0.3,0,0.6-0.1,1.1-0.4c0.3-0.2,0.5-0.3,0.5-0.3c0.1,0,0.3,0,0.6-0.1
			c1.2-0.4,1.8-0.6,1.9-0.7c0.5,0.1,1,0,1.6-0.3c0.3-0.2,0.5-0.3,0.7-0.4c0.6-0.1,1-0.2,1.2-0.3c0.1,0,0.1,0,0.1,0
			c0.1,0.1,0.2,0.1,0.3,0l5.6-1.6h0.1l2.6-0.8c0.4,0.1,0.7,0.1,1.1,0c0.3-0.1,0.5-0.1,0.7-0.1c0.6,0,1.3,0.3,1.9,1
			c0.2,0.1,0.3,0.2,0.4,0.3c0.6-0.2,1.1,0.2,1.4,1.1c-0.4,1.9-0.6,3.2-0.6,3.8c-0.2,1.2-0.7,2.7-1.6,4.7c-0.1,0.5-0.2,0.8-0.4,1.1
			l-1,3.8c-0.3,0.9-0.6,1.4-1,1.4C338.2,122.4,336.7,120.4,335,117.4z"/>
		<path class="st2" d="M353.3,120.6l-0.1-0.1c0.6-0.4,1-1,1-1.9c0-0.2,0-0.3,0-0.4c-0.2,0.1-0.4,0.1-0.6,0.1
			c-0.8-0.3-1.5-0.9-1.9-1.9c0-0.2,0.1-0.5,0.4-0.8c0.2-0.3,0.3-0.5,0.3-0.5c0.1-0.1,0.3-0.2,0.6-0.3c0.4-0.1,0.6-0.1,0.6-0.1
			c0.4,0,0.8,0.3,1.4,0.8c0.5,0.3,0.7,1,0.7,2.2c0,1.2-0.4,2.3-1.1,3.3c-0.1,0-0.3,0.1-0.6,0.3c-0.5,0.4-0.8,0.6-1,0.6
			c-0.3,0-0.5-0.1-0.6-0.4c0-0.1,0.2-0.2,0.6-0.3C353.1,120.8,353.3,120.7,353.3,120.6"/>
		<path class="st2" d="M394.7,124.2c0-0.1,0.1-0.2,0.3-0.4c0.2-0.2,0.3-0.4,0.3-0.6c0.4-1.5,0.6-3.9,0.6-7.4c0-0.8,0-1.7-0.1-2.6
			c0,0,0-0.1-0.1-0.3c0-0.1,0-0.1-0.1-0.1l-3.2,1c-0.1,0-0.2,0-0.3,0.1c-3,1-5.4,1.5-7.3,1.5c-0.4,0-0.8,0-1.2,0
			c-0.2-0.1-0.3-0.3-0.3-0.7c0-0.1,0-0.1,0-0.1c0-0.2,0-0.3,0-0.4c0.8-0.1,1.7-0.1,2.6-0.1c4.2-0.7,7.4-1.5,9.5-2.3
			c0.2-0.1,0.2-0.2,0.1-0.3c0,0,0,0,0-0.1c-0.2-1.4-0.5-2.2-0.8-2.3c-0.1,0-0.1,0-0.1,0c-0.6,0.1-0.9,0.2-1.1,0.3
			c-0.6,0-1.3,0-2.1,0c-0.1,0-0.3,0-0.6,0.1c-1.4,0.3-2.5,0.4-3.4,0.4c-0.2,0-0.4,0-0.7,0c-0.2-0.1-0.3-0.3-0.3-0.6
			c0-0.5,0.8-0.7,2.3-0.8c1-0.1,1.6-0.2,1.9-0.4c-0.3-0.3-0.6-0.7-1-1.4c-0.3-0.6-0.5-0.9-0.7-1.1c-0.2-0.3-0.4-0.5-0.6-0.7
			c-0.3-0.4-0.5-0.8-0.6-1.2h-1.1l-0.1,0.1c-0.1,0-0.4,0.1-1,0.3c-0.5,0.2-0.8,0.3-1,0.3c-0.1,0-0.2,0-0.3,0c-0.5,0.1-0.6,0-0.5-0.4
			c0-0.3,0.1-0.5,0.4-0.8c1-0.3,2.4-0.6,4.3-0.8c1.6-0.3,2.7-0.5,3.4-0.7c0.2-1.3,0.2-2.2,0.1-2.9c0,0,0,0,0-0.1
			c0.1-0.4-0.2-0.6-0.8-0.6c-0.4,0-1,0-1.8,0.1c-0.9,0.1-1.6,0.1-2.1,0.1c-0.5,0-0.7-0.2-0.7-0.7c0-0.4,1.3-0.6,3.8-0.7
			c0.6-0.1,1.1-0.1,1.2-0.1c0,0,0-0.1,0-0.3c0-0.4-0.2-0.9-0.6-1.5c-0.4-0.6-0.6-1.1-0.6-1.5c0-0.6,0.2-0.8,0.7-0.7c0,0,0,0,0.1,0
			c0.2-0.1,0.3,0,0.3,0.1c0.7,1.4,1.2,2.7,1.4,3.8c0,0,0.1,0,0.3,0c2.2,0,4.1-0.3,5.8-1c0.1-0.1,0.1-0.1,0.1-0.1c0.2,0,0.4,0,0.6,0
			c0.9,0,1.4,0.2,1.4,0.6c0,0.6-1.6,1.1-4.9,1.4c-1.6,0.2-2.5,0.3-2.9,0.4c0,0.4,0,0.9-0.1,1.5c-0.2,0.7-0.3,1.3-0.3,1.7
			c0,0,0,0.1,0,0.3c0.4-0.1,1-0.2,1.8-0.4c2.6-0.5,4.5-0.9,5.9-1.4l0.6,0.1c0.1,0,0.1,0,0.1,0.1c-0.1,0.9-0.7,1.4-1.8,1.5l-3,0.4
			h-0.4l-5.8,1.2c-0.1,0.1-0.3,0.1-0.6,0.1c-0.2,0.1-0.3,0.1-0.4,0.1c0,0,0.1,0.3,0.3,0.8c0.2,0.6,0.3,0.9,0.4,1.1
			c0.4,0.7,0.5,1.1,0.5,1.2c0.2,0,0.3,0,0.3,0.1c0,0,0.1,0.1,0.3,0.4c0.2,0.3,0.3,0.5,0.3,0.6h0.4c0.1,0,0.7-0.3,1.8-0.8
			c0.5-0.3,0.8-0.5,1-0.5c1.6-0.8,2.8-1.9,3.4-3.2c0.1,0,0.1,0,0.1-0.1c0.1,0,0.1,0,0.1,0h0.8v0.7c-0.4,0.6-0.6,1.1-0.8,1.4
			c-0.2,0.3-0.8,0.7-1.8,1.2c-0.7,0.5-1.1,0.7-1.2,0.8l-1.5,0.7v0.1c0,0,0.1,0,0.3,0c2.1-0.5,4-1.1,5.8-1.9c0.1,0,0.2,0,0.4,0
			c0.4,0,0.6,0.1,0.6,0.4c0,0.1-0.1,0.2-0.3,0.4c-0.1,0.2-0.1,0.4-0.1,0.6c-0.8,0.6-1.5,0.9-2.1,1c0-0.1-0.1-0.1-0.3-0.1
			c-1.2,0.2-1.8,0.4-1.9,0.6c0.3,1.3,0.6,2.1,1,2.5c0.1,0,0.1,0,0.1,0l3.3-1.1c0,0,0.4-0.1,1.1-0.3c1.1-0.3,1.7-0.4,1.8-0.4
			c0.5-0.1,0.6,0,0.6,0.4c-0.2,0.9-0.8,1.5-1.9,1.6c-0.1,0-0.2,0-0.4-0.1c-0.2-0.1-0.4-0.1-0.5-0.1c-0.3,0-0.6,0-0.8,0.1
			c-2,0.6-3.1,0.9-3.2,1.1l-0.1,0.6c0,1.5,0,3,0,4.5c0,0,0,0.2,0,0.7c-0.1,0.5-0.1,0.7-0.1,0.8c0,0.6,0,1.1,0,1.8c0,0,0,0.2-0.1,0.6
			c-0.1,0.6-0.1,1-0.1,1.1c0,0.1,0,0.3-0.1,0.6c0,1.5-0.3,2.2-1,2.2C395.2,124.9,394.9,124.6,394.7,124.2"/>
		<path class="st2" d="M414.6,96.6v0.1V96.6z M430.4,97.1c-0.6,0-1.1,0-1.7,0c-0.1,0-0.2,0-0.4,0c-1.5-0.1-2.5,0.1-3,0.6
			c0-0.1-0.1-0.2-0.3-0.4c-0.1-0.1-0.1-0.2-0.1-0.4c0-0.5,0.4-0.8,1.2-1c0.3,0,0.5,0,0.6-0.1c0.3,0,0.6,0,1,0
			c2.1,0.1,3.8,0.3,4.9,0.7c0.2-0.1,0.3,0,0.3,0.3c0,0.7-0.4,1.1-1.1,1.1c-0.3,0-0.6-0.1-1-0.4C430.7,97.3,430.5,97.2,430.4,97.1z
			 M414.4,96.8c0-0.5,0.3-0.7,0.8-0.7c0.1,0,0.1,0,0.1,0c0.1,0.1,0.4,0.4,1,0.8c0.2,0.2,0.3,0.3,0.3,0.3c0.2,0.1,0.5,0.3,0.8,0.6
			c0.6,0.4,1.1,0.6,1.2,0.8c0.3,0,0.4,0.1,0.3,0.3c0,0.3-0.1,0.4-0.3,0.4c-0.9-0.3-2.2-0.9-4-1.9C414.5,97.2,414.4,97,414.4,96.8z
			 M428,102.7c0,0.1,0,0.2,0,0.3c0,0.3,0.1,0.7,0.3,1.2h0.1l2.1-2.1c0-0.2,0-0.3,0-0.3c0-0.1,0-0.1,0-0.1h-1.7c0,0,0,0,0,0.1
			C428.6,102.5,428.3,102.7,428,102.7z M425.8,106.5c0-0.3,0.2-0.6,0.7-0.8c0.4-0.2,0.6-0.4,0.6-0.6c0-0.1,0-0.2,0-0.3
			c0.1-0.6,0-1-0.3-1.2l-0.7-3.4c0,0,0-0.1,0-0.3c0-0.6,0.2-0.8,0.7-0.8c0.4,0,0.6,0.4,0.7,1.1c0.1,0.4,0.2,0.6,0.3,0.8
			c0,0,0,0,0.1,0c0.1,0,0.3-0.1,0.6-0.3c0.3-0.1,0.4-0.1,0.4-0.1s0.2,0,0.6,0c0.5-0.1,0.7-0.1,0.8-0.1c0,0.1,0.2,0.1,0.6,0.1
			c0.9,0,1.4,0.2,1.4,0.7c0,0.1,0,0.1,0,0.1c-0.6,1.1-1.1,2-1.6,2.6c0.3,0.1,0.5,0.2,0.8,0.4c0,0.1,0,0.2,0,0.4
			c0,0.6-0.1,0.8-0.3,0.8h-1c-0.1,0-0.1,0-0.1,0.1c-0.6,0.4-1.1,0.8-1.8,1.2c0,0,0,0-0.1,0c-0.4-0.1-0.6-0.1-0.7,0
			c-0.3,0.1-0.5,0.1-0.6,0.1c0,0,0,0-0.1,0.1C426,107.3,425.8,107,425.8,106.5z M425.6,112.6c0,0,0,0,0,0.1
			c-0.1,0.8,0.1,1.2,0.6,1.2c0.3,0,0.6-0.1,0.8-0.3l3.3-0.7l0.1-0.1c0.1-0.1,0.1-0.2,0.1-0.3c-0.2-1.6-0.5-2.4-1-2.5
			c-1.7,0.3-3.1,0.8-4,1.7C425.6,112.1,425.6,112.4,425.6,112.6z M426.7,115.5c0.1,0.6,0.3,1.1,0.6,1.5h0.1c0.4,0,1.1-0.1,2.1-0.3
			c0.5-0.2,1-0.3,1.2-0.3c0.2-0.2,0.3-0.4,0.3-0.7c0-0.1,0-0.1,0-0.1c0-0.1,0-0.3-0.1-0.7c0-0.5,0-0.7-0.1-0.7h-0.3l-2.3,0.5
			C427.3,114.9,426.8,115.2,426.7,115.5z M434.3,117.3c0,0.5,0.3,1,1,1.6h0.1c0.4,0,0.9-1.1,1.7-3.3c0.1-0.2,0.3-0.7,0.5-1.5
			c0.3-0.9,0.4-1.4,0.4-1.5c-0.1-0.3,0-0.7,0.1-1.4c0.1-0.5,0.1-0.8,0.1-1.1c-0.1-1.1-0.6-1.7-1.5-1.8c-0.2,0-0.5,0-0.8,0.1
			c-0.6,0.2-1,0.2-1.2,0.1l-3.3,1c0,0,0,0,0,0.1c0.2,1.5,0.4,2.4,0.5,2.9c0.6-0.1,1.1-0.2,1.8-0.4c0.3-0.3,0.4-0.5,0.4-0.6
			c0.2,0,0.3,0,0.3,0c0.4,0,0.6,0.2,0.6,0.6c0,0.7-0.8,1.2-2.5,1.5c-0.3,0.1-0.4,0.1-0.4,0.1v2.2h0.8v-0.4c0.2-0.1,0.3-0.1,0.4-0.1
			c0.1,0.1,0.2,0.2,0.3,0.4h1.6c0.3,0,0.4,0.1,0.3,0.3c0,0.3,0,0.4-0.1,0.4l-1,0.6C434.4,117.2,434.4,117.2,434.3,117.3z
			 M417.1,112.8c-0.3,0.2-0.6,0.5-0.8,1c-0.3,0.5-0.5,0.8-0.7,1c-0.1,0.1-0.4,0.4-0.8,0.8c-0.1,0.1-0.1,0.1-0.1,0.1
			c-0.2,0-0.3,0-0.3,0c-0.3,0.1-0.5,0-0.5-0.4c0-0.1,0-0.3,0-0.6c0-1,0.6-2.3,1.8-4c0.1-0.2,0.3-0.4,0.6-0.7c0.6-0.7,0.9-1.3,1-1.8
			c0-0.6,0.1-1.5,0.3-2.6c0.1-1.2,0.1-2.1,0.1-2.6c-0.5,0-1.1,0.1-1.9,0.3c-0.9,0.2-1.6,0.3-2.1,0.3c-0.8,0-1.5-0.1-2.1-0.4
			c-0.2-0.2-0.3-0.4-0.3-0.7c0.2,0,0.4,0,0.6-0.1c0.2-0.1,0.3-0.1,0.4-0.1c0.2,0,0.5,0,0.8,0.1c0.3,0.1,0.5,0.1,0.7,0.1
			c1.3-0.1,2.5-0.3,3.7-0.6c0.2,0,0.4-0.1,0.7-0.3c0.4-0.2,0.6-0.3,0.8-0.3c0.5,0,0.7,0.2,0.7,0.7c0,0.2-0.1,0.5-0.4,1.1
			c-0.4,0.8-0.6,1.4-0.6,1.8c0,0.2,0,0.3,0,0.4c0.3-0.1,0.5-0.4,0.6-1c0.1-0.6,0.4-1,0.8-1c0.4,0,0.6,0.3,0.6,0.8
			c0,0.4-0.2,1-0.7,1.8c-0.2,0.3-0.3,0.5-0.4,0.7c-0.2,0.3-0.5,0.9-1,1.8v0.7c0.3-0.3,0.7-0.8,1.2-1.5c0.7-1,1.3-1.7,1.8-2.1
			c0,0.3-0.2,0.7-0.6,1.4c-0.3,0.5-0.4,0.8-0.4,1l-1.6,2.3c0,0.2-0.1,0.4-0.3,0.7c-0.1,0.2-0.1,0.3-0.1,0.3v4.7h0.1l0.1-2.7
			c0.1-0.1,0.1-0.2,0.1-0.3c0.1-0.2,0.1-0.3,0.1-0.3c0.4,0.3,0.6,1.1,0.6,2.5c0,0.1,0,0.2,0,0.3c0,0.5,0,0.8,0,1.1
			c0,0,0,0.2-0.1,0.7c-0.1,0.4-0.1,0.6-0.1,0.7c0,0.3,0,0.6,0,1c0,0,0,0.2,0,0.6c-0.1,0.3-0.1,0.5-0.1,0.5c0.1-0.3,0-0.3-0.3-0.1
			c0,0,0,0,0,0.1c0.1,0.6-0.1,1-0.6,1c-0.6-0.1-1-2.2-1.1-6.2c0-0.1,0-0.4,0-1C417.2,113.2,417.1,112.9,417.1,112.8z M433.5,117.3
			c-0.4,0-0.9,0.1-1.5,0.3c-0.8,0.3-1.4,0.4-1.8,0.3c-0.2,0-0.7,0.1-1.6,0.4c-1,0.3-1.6,0.5-1.8,0.6c0,0.1-0.1,0.1-0.3,0.1
			c-0.3,0-0.4,0-0.4-0.1c-0.1-0.1-0.1-0.3-0.1-0.7c-0.1-0.7-0.5-1.9-1.2-3.4c-0.4-0.7-0.6-1.3-0.7-1.6c0-0.1,0-0.3,0-0.6
			c-0.1-0.4-0.1-0.6-0.1-0.6c0-0.4-0.1-0.8-0.4-1.4c-0.4-0.7-0.5-1.3-0.5-1.7c0-0.3,0-0.5,0.1-0.7c0.2,0,0.3,0,0.4,0
			c0.5,0,0.8,0.5,1,1.4c0.2,0.6,0.4,1,0.6,1l0.1-0.1l1.2-0.5l5.6-1.8h0.1c0.3-0.1,0.7-0.2,1.4-0.3c1.3-0.4,2.2-0.6,2.9-0.6
			c1.7-0.2,2.6,0.3,2.9,1.5c0,0,0,0.1,0.1,0.4c0.2,0.5,0.3,0.7,0.3,0.8v0.1c0,0.6-0.2,1.7-0.7,3.6c0,0,0,0.2-0.1,0.6
			c-0.1,0.4-0.1,0.6-0.1,0.7c-0.3,0.1-0.4,0.5-0.4,1.1c-0.1,0.2-0.1,0.3-0.1,0.4c-0.4,0.6-0.6,1.2-0.7,1.8c0,0.1-0.2,0.5-0.6,1.1
			c-0.4,0.6-0.6,1-0.7,1.1c-0.2,0.4-0.4,0.6-0.7,0.6C434.8,120.7,434.1,119.5,433.5,117.3z"/>
		<path class="st2" d="M448.7,96.6c0-0.1,0-0.2,0-0.3c-0.1-0.2-0.1-0.3-0.1-0.3c0.1-0.1,0.1-0.2,0.1-0.3c0-0.2,0-0.3,0-0.4
			c1.6,0.6,3,1.6,4.4,3c0,0.3-0.1,0.4-0.3,0.4s-0.8-0.4-1.9-1.1c-0.6-0.4-0.9-0.6-1-0.6C449.2,96.7,448.8,96.6,448.7,96.6
			 M443.9,99.7c-0.1-0.2-0.1-0.3-0.1-0.4c0.1-0.4,0.3-0.6,0.6-0.6c0.4,0,0.8,0.1,1.4,0.4c0.6,0.3,1,0.4,1.2,0.4
			c0.9,0.1,2,0.1,3.3,0.1c0.6,0,1.3,0,2.2,0.1c0.9,0,1.6,0,2.1,0c0.3,0,0.7-0.1,1.2-0.3c0.6-0.1,1-0.1,1.2-0.1
			c0.3,0.1,0.5,0.3,0.6,0.7c0.1,0.5-0.1,0.7-0.6,0.7h-9.3C446.4,100.6,445.2,100.3,443.9,99.7z M467.2,100.4
			c0.1-0.3,0.2-0.5,0.4-0.8c0.1,0,0.2,0,0.3,0c0.3,0,0.7,0.2,1.4,0.7c0.2,0.1,0.3,0.1,0.3,0.1c0.1,0,0.4,0.2,1,0.6
			c0.6,0.3,0.9,0.5,1,0.6c0.4-0.1,0.6,0,0.7,0.4c0,0.4-0.2,0.6-0.5,0.6c-0.1,0-0.2,0-0.3,0l-3.7-1.4
			C467.4,100.8,467.2,100.6,467.2,100.4z M448.7,111.5c0,0.3,0.1,0.5,0.3,0.6c0.3,0,0.4-0.2,0.4-0.6c0-0.3-0.1-0.4-0.4-0.3
			C448.8,111.2,448.7,111.3,448.7,111.5z M452.1,112.9c0-0.3,0.1-0.5,0.4-0.6c0.2-0.1,0.4-0.1,0.6-0.1c0.5,0,1.2,0.5,1.9,1.5
			c0.4,0.6,0.6,0.8,0.8,0.8c0.2-0.1,0.3-0.1,0.3-0.1c0.2,0,0.3,0,0.3,0.1c0.2,0,0.3,0,0.4,0c-0.1,0.6-0.4,1-0.8,1.1
			c-0.7,0-1.4-0.5-2.1-1.4c-0.3-0.3-0.5-0.5-0.5-0.7c-0.1-0.2-0.3-0.3-0.7-0.4C452.4,113.1,452.2,113,452.1,112.9z M463.2,115.8
			c0-0.1,0-0.4-0.1-0.8c0-0.3,0-0.4,0-0.4c0-1.2,0-2.3,0-3.3c0,0-0.1,0.1-0.3,0.3c-0.1,0.2-0.2,0.3-0.3,0.3
			c-0.1,0.3-0.3,0.6-0.6,1.1c-1.1,1.9-2.1,3.3-3,4.3c-0.1,0-0.2,0-0.3,0c-0.3,0-0.4-0.2-0.4-0.7c0-0.8,0.2-1.4,0.7-1.7
			c0.1-0.1,0.1-0.1,0.1-0.1v0.7c0.2-0.1,0.3-0.3,0.4-0.6c0.1-0.1,0.1-0.2,0.1-0.3c0.5-0.5,0.7-0.9,0.8-1.2c0.2-0.3,0.8-1.4,1.8-3.4
			c0-0.2,0-0.4,0.1-0.6c0.2-0.4,0.3-0.6,0.3-0.8c0.1-0.2,0-0.3-0.3-0.3c-1.8,0.7-3.5,1.1-4.9,1.1c-0.3-0.1-0.4-0.3-0.4-0.6
			c0-0.2,0.1-0.4,0.4-0.7c0.2-0.1,0.4-0.1,0.5-0.1c0.2,0,0.4,0,0.6,0c1.6-0.2,3.1-0.6,4.4-1.2c0.2-0.1,0.3-0.4,0.3-1
			c0.1-0.8,0.4-1.2,0.8-1.2c0.3,0,0.5,0.1,0.8,0.4c0.4,0.3,0.6,0.4,0.8,0.4c0.2,0,0.4,0,0.7-0.1c0.3,0,0.5,0,0.6,0
			c0.4,0,0.6,0.1,0.6,0.4c-0.1,0.5-0.3,0.8-0.6,1l-2.2,1c-0.2,0.2-0.4,0.6-0.6,1.4c-0.1,0.8,0,2,0.1,3.4c0.1,1.3,0.1,2.2,0.1,2.9
			c0.1,1.3,1.1,2,3.2,2.2c1.8-0.1,2.9-0.5,3.2-1.1c0-0.4,0-0.7,0-1c0-0.4,0-0.9,0-1.6c-0.1-0.7-0.1-1.3-0.1-1.6
			c0-0.7,0.1-1.1,0.3-1.2c0.3,0.3,0.4,0.7,0.4,1.2c0.1,0.3,0.1,0.5,0.1,0.5c0,0.1,0,0.3,0.1,0.6c0.5,1.4,0.7,2.5,0.7,3.4
			c0.1,0.6-0.1,0.9-0.7,1.1l-2.7,0.8c-0.1,0-0.1,0-0.1,0s-0.2,0-0.6,0c-0.4,0.1-0.6,0.1-0.7,0.1c-2-0.1-3.3-0.8-3.8-2.1
			c-0.1-0.3-0.2-0.5-0.3-0.7C463.4,115.8,463.3,115.8,463.2,115.8z M447.2,114.8c-0.2,0.8-0.3,1.7-0.3,2.7c0,0,0,0-0.1,0.1
			c0,0,0,0.1,0.1,0.4c0,0.2,0,0.3,0,0.4c0.2-0.1,0.3-0.1,0.3-0.1c0.1,0.2,0.1,0.4,0.1,0.5c-0.1,0.9-0.6,1.4-1.5,1.5
			c-0.3,0-0.4-0.3-0.4-0.8c0-0.1,0-0.1,0-0.1c0.1-1.3,0.2-2.2,0.4-2.6c0-1.3,0-2.5,0-3.7c0.1-0.3,0.2-0.5,0.3-0.6c0.1,0,0.1,0,0.1,0
			c0.2,0,0.4,0,0.6,0.1c0,0.1,0,0.1,0.1,0.1c0.7,1.4,1.5,2.6,2.3,3.7c0.1,0.2,0.2,0.4,0.4,0.6h0.1v-2.5c-0.1,0-0.1-0.1-0.1-0.3
			c0-0.5,0-0.9,0-1.2c-0.1,0-0.2,0-0.4,0c-0.2,0.1-0.4,0.1-0.5,0.1c-0.4,0-0.7-0.3-1.1-1c-0.1-0.3-0.2-0.5-0.3-0.5
			c-0.1-0.1-0.2-0.2-0.4-0.3c-0.2-0.1-0.3-0.3-0.3-0.6c0-0.2,0.1-0.4,0.4-0.7c0-0.4,0-0.7,0-1c0-0.6-0.1-1.6-0.4-2.7
			c-0.3-1.2-0.4-2.1-0.4-2.7c0-0.2,0-0.4,0.1-0.7c0-0.3,0-0.5,0-0.7c0.1-0.2,0.3-0.3,0.7-0.3c0.6,0.1,0.9,0.3,1,0.6
			c0,0.1-0.1,0.2-0.3,0.4c-0.2,0.2-0.3,0.4-0.3,0.6c0,0.6,0.1,1.6,0.4,2.7c0.4,1.5,0.5,2.5,0.4,3.2c0.2-0.1,1.2-0.5,3-1.2
			c1.3-1.1,2.1-2.1,2.5-2.9h0.1l0.7-1c0-0.1,0-0.1,0-0.1c0-0.2-0.3-0.3-1-0.3c-1.1,0-2.2,0.2-3.3,0.7c-0.1,0-0.2,0.1-0.4,0.3
			c-0.1,0.1-0.2,0.1-0.4,0.1c-0.5,0-0.8-0.1-0.8-0.4c0-0.3,0-0.5,0.1-0.7c1.7-0.7,3.5-1.1,5.4-1.1c1.2,0.1,1.8,0.4,1.8,0.8
			c0,0.6-0.4,1.2-1.2,2.1c-0.6,0.6-0.9,1.1-1,1.4c0,0,0,0,0.1,0.1c0.4,0.1,0.6,0.2,0.7,0.4c-0.2,0.1-0.3,0.3-0.4,0.7
			c-0.1,0.2-0.2,0.3-0.3,0.4c-0.2,0.1-0.6,0.2-1.2,0.4c-1.4,0.3-2.1,0.7-2.1,1.4c0,0.1,0,0.4,0.1,1c0.1,0.5,0.1,0.8,0.1,1
			c0,0.6,0,1.6,0,2.7c0.1,2.1,0.1,3.7,0,4.8c0,0.6-0.3,0.8-0.8,0.7c-0.2,0-0.6-0.8-1.1-2.3C448.2,116.3,447.6,115.1,447.2,114.8z"/>
		<path class="st2" d="M479.4,109.6c0-0.1,0-0.1,0-0.1c0.4-0.4,0.6-0.6,0.7-0.6c1.1-1.6,2-2.9,2.7-4.1l2.2-4.3
			c0.1-0.5,0.2-0.8,0.3-1.1c0-0.1,0-0.1,0-0.1c-0.3,0-0.6,0-1,0c0,0-0.3,0-0.8,0.1c-0.8,0.2-1.3,0.3-1.4,0.3
			c-0.4,0.1-0.9,0.1-1.6,0.1c-2.1,0.1-3.6,0.4-4.5,1c0,0.3-0.1,0.4-0.3,0.4c-0.2,0.1-0.4,0.1-0.6,0.1c-0.8-0.1-1.2-0.3-1.2-0.7
			c0-0.1,0.1-0.3,0.4-0.6c0.7-0.4,1.1-0.6,1.2-0.7h0.1c0.4-0.1,1.4-0.2,3-0.4c4.6-0.6,6.9-1.1,7-1.5c0-0.1,0-0.3,0.1-0.7
			c0.1-1.6,0.4-2.3,0.8-2.3c0.5,0,0.7,0.2,0.7,0.5c0,0.6,0,1-0.1,1h-0.1c0,0.6,0,0.9-0.1,1.1c0,0.2,0,0.3,0,0.3h0.4
			c0.1,0,0.7-0.1,1.9-0.3c1.4-0.2,2.2-0.3,2.6-0.3c0.3,0,0.7-0.1,1.2-0.3c1.6-0.3,2.9-0.4,3.8-0.4c0,0,0.2,0,0.6,0
			c0.6,0.1,0.9,0.1,1,0.1c0.3,0,0.4,0.1,0.4,0.4c-0.3,0.8-0.7,1.3-1.4,1.5c-0.2,0-0.3-0.1-0.4-0.4c-0.2-0.3-0.4-0.4-0.6-0.4
			c-0.3,0-0.6,0-0.8,0c-0.3,0-0.5,0-0.7,0c-1,0.2-2.4,0.4-4.3,0.5c-0.1,0-0.3,0-0.7,0.1c-1.6,0.2-2.6,0.4-3,0.7
			c-0.1,0.1-0.2,0.2-0.4,0.4c-0.1,0.3-0.2,0.5-0.4,0.6c-0.2,1.3-1,3.3-2.6,5.9c-0.1,0-0.1,0-0.1,0.1c-0.1,0.1-0.1,0.1-0.1,0.1
			c-0.1,0.1-0.4,0.5-0.8,1.2c-0.5,0.7-0.7,1.2-0.8,1.4c-0.2,0.1-0.4,0.3-0.6,0.6c-0.5,0.6-0.9,0.8-1.2,0.8
			C479.7,109.9,479.5,109.8,479.4,109.6 M488.4,108.9c0,0.4,0,1,0,1.8c-0.1,0.8-0.1,1.5-0.1,1.9c0,0,0,0,0,0.1l0.6-0.3l4.5-1.5
			c0.3-0.1,0.4-0.4,0.4-1c0-4.3-0.1-7.5-0.4-9.6c-0.1,0-0.2,0-0.3,0c-2.8,0.7-4.4,1.7-4.8,2.7v2.3c0.2,0.2,0.2,0.5,0.1,1.1
			c0,0.2,0,0.3,0,0.3c0.5-0.1,1-0.1,1.6-0.1c0.1,0,0.2,0,0.4,0c1.7-0.1,2.6,0.3,2.6,1.2c0,0.2,0,0.3,0,0.4c0,0,0,0-0.1,0.1
			c-0.1,0-0.3-0.1-0.5-0.3c-0.5-0.3-1-0.4-1.5-0.4c-0.6,0.1-1.2,0.2-1.8,0.4c-0.1,0.1-0.2,0.2-0.3,0.4
			C488.7,108.8,488.6,108.9,488.4,108.9z M485.1,121.8c0-0.4,0-0.6,0-0.8c0.1-0.1,0.1-0.2,0.1-0.3c0.1-0.6,0.2-1.1,0.4-1.5
			c0.2,0,0.3,0.1,0.3,0.4c0,0.4,0,0.8,0,1.2c0.1-0.3,0.2-0.7,0.3-1.2c0.1-0.4,0.1-0.6,0.1-0.7c0-0.3,0.1-1.1,0.3-2.5
			c0.1-1.5,0.1-2.3,0.1-2.5c0.3-0.3,0.4-0.8,0.3-1.5c0-0.3,0-0.5,0-0.6c0-0.1,0-0.6,0.1-1.4c0-0.6,0-0.8,0-0.8c0-0.4,0-0.9,0-1.5
			c0-1.2-0.1-2.2-0.3-3c-0.1,0-0.2,0.1-0.3,0.3c0,0.3-0.1,0.4-0.3,0.4c0,0,0,0,0-0.1c0-0.1,0-0.3-0.1-0.5c0-0.3,0-0.4-0.1-0.4
			c0-0.1,0-0.1,0-0.1c0-0.3,0.1-0.6,0.3-1.1c0.3-0.5,0.4-1.1,0.3-1.6c0.2-0.2,0.5-0.3,1-0.4c0.3,0,0.5,0,0.6-0.1
			c0.3-0.2,0.7-0.4,1.4-0.7c1.6-1,2.8-1.5,3.8-1.5c0.8,0,1.3,0.2,1.4,0.7c-0.1,1.7-0.1,4.3,0,7.7c0.1,2.3,0.1,4,0.1,5.1
			c0.1,0.5,0.1,1,0,1.7c0,0.5,0,0.8,0,1c0,0.7,0,1.9,0.1,3.6c0,1.5,0,2.6,0.1,3.3c0,0.3-0.1,0.5-0.3,0.5c-0.1,0.3-0.3,0.4-0.5,0.3
			c-0.2,0-0.4-0.2-0.7-0.7c-0.2-0.3-0.3-0.5-0.4-0.6c-0.1-0.1-0.2-0.2-0.3-0.4c-1.6-2.3-2.3-4.1-2.3-5.4c0-0.2,0-0.4,0-0.6l0.3,0.3
			l1.1,2.6c0.5,0.4,1,1,1.7,1.8h0.1c0.1-0.4,0.1-0.6,0.1-0.8c0-3.2-0.1-5.7-0.3-7.4l-2.1,1c-0.1,0.1-0.3,0.2-0.7,0.3
			c0,0-0.1,0-0.4,0.1c-1.2,0.6-1.9,1-2.1,1.1c0,0.2-0.1,0.3-0.4,0.3c-0.1,0.1-0.3,1.6-0.6,4.4c-0.2,1.2-0.3,1.9-0.3,2.1
			c-0.1,0.3-0.3,1-0.6,2.2l-0.7,0.8h-0.1c-0.6,0-0.8-0.6-0.7-1.9C485.1,121.9,485.1,121.8,485.1,121.8z"/>
		<path class="st2" d="M517.3,110.4c1.4,0.8,2.7,1.8,3.8,2.9c0-0.3,0.1-0.4,0.3-0.4c0.4-1.1,0.8-2.2,1.4-3.2l0.1-0.1l1.1-1.9
			l0.1-0.1c0-0.1,0.2-0.5,0.6-1.1c0.1-0.1,0.1-0.2,0.1-0.3c0,0,0,0-0.1,0c-0.4,0-1.3,0.5-2.9,1.4c-0.8,0.5-1.3,0.7-1.5,0.8
			c-0.8,0.5-1.4,0.9-1.8,1c0,0-0.1,0.1-0.3,0.3C517.7,110.1,517.4,110.3,517.3,110.4 M514.2,122.8c0.1-0.8,0.2-1.4,0.4-1.8
			c0,0.1,0,0.5,0.1,1.1c0.1,0.5,0.1,0.9,0.1,1c0,0.5,0.1,0.8,0.3,0.8c0.1,0,0.1,0,0.1,0c0.1-0.1,0.1-0.1,0.1-0.1
			c1.4-1.9,2.5-3.9,3.4-6l0.1-0.1l1.7-3c0-0.1-0.6-0.7-1.9-1.8c-0.4-0.4-0.6-0.6-0.7-0.7c-0.6-0.3-1.2-0.4-2.1-0.4l-0.1-0.1
			l-1.1,0.6c0,0,0,0-0.1,0c-0.3,0-0.4-0.2-0.4-0.7c0-0.1,0-0.2,0-0.3c1.8-1.2,3.5-2.5,5.1-3.8c0.2-0.2,0.5-0.5,1-0.8
			c0.6-0.6,1-1.1,1.4-1.2c0.2-0.1,0.3-0.1,0.3-0.1c0.5-0.4,1.1-1,1.8-1.8c0.5-0.6,0.8-1,1.1-1.2h-0.1c0,0,0,0-0.1,0
			c-0.1,0-0.2,0-0.4,0.1c-2,0.8-3.8,1.1-5.5,0.8c-0.2,0.2-0.5,0.5-0.8,1.1c-0.3,0.6-0.5,0.9-0.8,1.1l-1.9,3.2c0,0-0.1,0-0.3,0.1
			c-0.2,0.2-0.3,0.3-0.4,0.3c-0.3,0-0.4-0.2-0.4-0.6c0-0.6,0.2-1.2,0.7-1.8c0.3-0.4,0.5-0.7,0.6-1c0-0.7,0.1-1.1,0.4-1.1
			c-0.2,0.3-0.3,0.6-0.3,0.8c0,0.1,0,0.2,0,0.4c0.2-0.2,0.3-0.3,0.3-0.3c0.5-0.5,1.1-1.3,1.9-2.5v-0.1c-0.2-0.3-0.5-0.5-1-0.6
			c0,0,0,0-0.1,0.1L516,103c0.1-0.4,0-0.8-0.1-1.2c-0.2-0.4-0.3-0.6-0.3-0.8c0.1-0.5,0.3-0.7,0.7-0.8c0,0,0.1,0,0.3,0.1
			c0.1,0,0.1,0,0.1,0.1c0.5,0.9,1,1.4,1.5,1.4c0.1,0,0.1,0,0.1-0.1c0.1-0.1,0.3-0.4,0.7-0.8c0.5-0.6,0.7-0.8,0.7-0.8
			c0-0.1,0.1-0.3,0.4-0.6c1.2-1.6,1.8-2.5,1.8-2.9c-0.3-0.1-0.5-0.1-0.8-0.1c-1.1,0-2.5,0.2-4.3,0.5c-0.8,0.2-1.4,0.3-1.8,0.4
			c-0.1,0-0.2,0-0.3,0c-0.4,0-0.6-0.2-0.6-0.7c0-0.3,0.2-0.5,0.7-0.7c0.4-0.2,0.6-0.4,0.7-0.5c0.7-0.5,1.7-1.1,2.7-1.9
			c1.7-1.5,3.1-2.2,4-2.2v1.1c0,0.1-0.3,0.2-1,0.4c-0.7,0.3-1.1,0.5-1.2,0.6c-0.3,0.2-0.6,0.5-1.1,1c-0.5,0.5-1,0.8-1.2,1
			c0,0-0.1,0-0.3,0.1c-0.4,0.2-0.6,0.3-0.7,0.4c0.2-0.1,0.3-0.1,0.4,0c0,0.1,0,0.1,0.1,0.1c1.2-0.5,2.4-0.7,3.6-0.7
			c0.2,0,0.6,0,1.2,0.1c0.6,0.1,1.1,0.1,1.2,0.1c0.1,0.1,0.1,0.2,0.1,0.4c0,0.6-0.4,1.3-1.1,2.2c-0.1,0.1-0.2,0.2-0.3,0.3
			c-0.2,0.4-0.8,1.1-1.8,2.2c-0.4,0.4-0.6,0.6-0.6,0.8c0,0.1,0,0.1-0.1,0.1c-0.1,0.1-0.1,0.2-0.1,0.3c0,0.1,0,0.2,0.1,0.3
			c1.9,0,3.3-0.2,4.3-0.6c0.7-0.1,1.2-0.2,1.4-0.3c0.4-0.3,0.6-0.5,0.6-0.5c0.1,0,0.1,0,0.1,0c0.5,0,0.7,0.1,0.7,0.4
			c0,0.5-0.4,1-1.2,1.6c-0.2,0.2-0.3,0.3-0.4,0.4c-0.6,0.5-1.6,1.5-3,2.9v0.1l4.3-1.9c0.1,0,0.1,0,0.1,0c0.6,0,0.8,0.2,0.8,0.6v0.1
			c-0.2,0.4-0.5,0.9-1,1.5c-0.5,0.6-0.9,1.1-1.1,1.5c-0.3,0.8-0.8,2-1.6,3.4c-0.6,0.9-1,1.6-1.2,2.1c0,0.1,0,0.1-0.1,0.1
			c-0.1,0.1-0.1,0.3-0.1,0.6c0,0.1,0,0.1,0,0.1c0.1,0,0.2,0.1,0.4,0.3c0.3,0.2,0.4,0.3,0.4,0.4c0.3,0.3,0.6,0.6,1,1.1
			c0.4,0.5,0.6,0.8,0.8,1c0.1,0.1,0.3,0.3,0.7,0.5c1.4,1.3,2.1,2.1,2.1,2.3h0.3c-0.2,0.6-0.5,0.9-0.8,1c-0.2,0-0.3,0-0.4,0
			c-0.6-1.1-1.8-2.5-3.4-4.1c-0.6-0.6-1.1-1.1-1.4-1.5l-0.3,0.3c-0.2,0.4-0.5,0.9-1,1.6c-1.7,2.8-3.1,5.3-4.3,7.4
			c-0.1,0.1-0.2,0.3-0.4,0.6c-0.3,0.5-0.5,0.7-0.7,0.7c-0.4-0.1-0.6-0.7-0.7-1.9C514.2,123.3,514.2,122.9,514.2,122.8z"/>
		<path class="st2" d="M541.8,97.9c0.1-0.5,0.4-0.7,0.8-0.8c0.3,0,0.7,0.1,1.2,0.3c0.7,0.2,1.3,0.3,1.8,0.3c1.9,0,3.4-0.2,4.4-0.7
			c-0.2-0.3-0.6-0.5-1.2-0.8c-1.1-0.5-1.6-1-1.6-1.5c0.2-0.5,0.4-0.6,0.7-0.6c0.2,0.2,0.5,0.4,1,0.7c1.1,0.8,2.1,1.4,2.9,1.8
			c0,0,0.1,0,0.3,0c0.4,0,1-0.1,1.8-0.4c0.6-0.2,1-0.3,1.2-0.3c1.4-0.4,2.7-0.6,4.1-0.6c0.4,0,0.7,0,1.1,0c0,0,0,0,0.1,0.1
			c0.3,0.2,0.4,0.3,0.4,0.4V96c-0.1,0-0.2,0-0.3,0.1c-0.5,0.5-0.9,0.7-1.4,0.7c-0.3,0-0.6,0-0.8-0.1c-0.3,0-0.5,0-0.7,0
			c-0.3,0-0.5,0-0.6,0l-5.1,1c-0.2,0-0.4,0-0.7,0.1c-2.4,0.6-4.3,1-5.8,1c-0.6,0-1,0-1.4,0c0,0-0.2,0-0.7-0.1
			c-0.6-0.2-1-0.3-1.1-0.3C542,98.4,541.8,98.2,541.8,97.9 M552.5,100.5c-2.1,0.6-3.4,1.1-3.8,1.8l-0.1,1.9
			C550.9,103,552.2,101.7,552.5,100.5z M547.3,106c-0.2-0.1-0.3-0.8-0.4-2.1c-0.1-0.9-0.2-1.5-0.3-1.7c-0.1-0.2-0.2-0.5-0.3-0.8
			c-0.3-0.8-0.4-1.5-0.4-1.9c0-0.2,0.2-0.3,0.7-0.4c0.6,0,1.1,0.6,1.2,1.7c0,0.1,0,0.1,0,0.1c0.1,0.2,0.1,0.3,0.1,0.3
			c0.1,0,0.2-0.1,0.4-0.3c0.2-0.2,0.4-0.3,0.5-0.3c0.1-0.1,0.2-0.1,0.3-0.1c0.3-0.1,1.1-0.5,2.3-1.1c0.2,0,0.3,0,0.4,0
			c1.2,0,1.8,0.3,1.8,1c0,0.6-0.4,1.3-1.2,2.2c-0.5,0.4-0.7,0.6-0.7,0.8c0,0.1,0,0.2,0.1,0.3c0.2,0.2,0.3,0.4,0.3,0.6
			c0,0.3-0.5,0.5-1.4,0.7c-0.4,0.1-0.6,0.2-0.7,0.3c-0.5,0.2-0.9,0.4-1.4,0.7c0,0,0,0,0,0.1c0,0.1,0,0.3,0.1,0.7
			c0.2,0.5,0.3,0.8,0.3,1c0,0.3-0.2,0.5-0.7,0.5c-0.2,0-0.3,0-0.3-0.1L547.3,106z M549.7,113.6c0,0.1,0,0.2,0.1,0.3
			c0.2,0.7,0.4,1.2,0.7,1.4c1.7-0.8,3.1-1.9,4.1-3.2c-1.2,0-2.3,0.4-3.4,1.1C550.5,113.4,550,113.5,549.7,113.6z M542.7,113.6
			c0,0.4,0.3,1.1,0.8,2.1c0.3,0.6,0.5,1.1,0.6,1.2h0.1c-0.4-1.5-0.9-2.6-1.5-3.4V113.6z M555.1,117.4c0.4,0,1.2,0.9,2.6,2.6
			c0.9,0.9,1.4,1.4,1.5,1.4c0.2,0,0.6-0.9,1.1-2.7c0.2-0.7,0.3-1.1,0.4-1.2c0.1-0.4,0.3-1,0.6-1.8c1-2.7,1.5-4.9,1.5-6.3
			c0.1-0.2,0-0.3-0.3-0.4c-0.6-0.5-1.2-0.9-1.9-1.4c-0.3,0-0.5,0-0.7,0c-1.3,0-2.1,0.1-2.3,0.4c-0.3,0.1-1.2,0.3-2.9,0.7
			c-1.1,0.4-1.7,0.5-1.9,0.5c-0.3,0.1-0.7,0.2-1.2,0.4c-1.3,0.3-2.2,0.5-2.7,0.8c0,0.1,0,0.1,0,0.1c0.1,0.3,0.2,0.4,0.3,0.4
			c0,0,0,0.1,0.1,0.4c0.2,0.5,0.3,0.7,0.3,0.8h0.3l3.7-1.2c0.2,0,0.5,0,0.8,0c0.5-0.1,0.8-0.1,1.1-0.1c0,0,0.1,0,0.3,0
			c0.6-0.1,0.8,0,0.8,0.4c0,0.4-0.2,0.9-0.6,1.5c-0.3,0.4-0.4,0.6-0.4,0.8c0,0.1,0.1,0.3,0.4,0.6l-0.6,0.7c-0.1-0.1-0.2-0.1-0.3-0.1
			c-0.1,0-0.3,0.1-0.6,0.4l-2.9,1.5c-0.3,0.3-0.6,0.5-1.1,0.6c-1.2,0-1.8-0.3-1.8-0.8c0-0.1,0.1-0.2,0.3-0.4
			c0.1-0.2,0.1-0.3,0.1-0.4c0-0.2-0.1-0.4-0.3-0.7c-0.2-0.2-0.3-0.3-0.3-0.4c-0.1-0.3-0.2-0.7-0.4-1.4c-0.3-1.1-0.5-1.8-0.8-2.2
			c0,0,0,0-0.1,0c-0.9,0.3-1.9,0.6-2.9,1c-0.9,0.4-1.4,0.7-1.4,1c0,0,0,0,0,0.1c0.1,0.4,0.4,1,1,1.8c0.8,1.4,1.2,2.4,1.2,3.2
			c0,0.9-0.2,1.4-0.7,1.4c-0.5,0-1.2-0.9-1.9-2.7c-0.3-0.9-0.5-1.4-0.7-1.4l-2.1-6.2c0-0.1,0-0.1,0-0.1c0-0.3,0.2-0.4,0.5-0.4
			c0.7,0,1.3,1,1.7,2.9c0,0.1,0,0.1,0,0.1h0.1c0.3,0,0.6-0.1,1.1-0.4c0.3-0.2,0.5-0.3,0.5-0.3c0.1,0,0.3,0,0.6-0.1
			c1.2-0.4,1.8-0.6,1.9-0.7c0.5,0.1,1,0,1.6-0.3c0.3-0.2,0.5-0.3,0.7-0.4c0.6-0.1,1-0.2,1.2-0.3c0.1,0,0.1,0,0.1,0
			c0.1,0.1,0.2,0.1,0.3,0l5.6-1.6h0.1l2.6-0.8c0.4,0.1,0.7,0.1,1.1,0c0.3-0.1,0.5-0.1,0.7-0.1c0.6,0,1.3,0.3,1.9,1
			c0.2,0.1,0.3,0.2,0.4,0.3c0.6-0.2,1.1,0.2,1.4,1.1c-0.4,1.9-0.6,3.2-0.6,3.8c-0.2,1.2-0.7,2.7-1.6,4.7c-0.1,0.5-0.2,0.8-0.4,1.1
			l-1,3.8c-0.3,0.9-0.6,1.4-1,1.4C558.3,122.4,556.7,120.4,555.1,117.4z"/>
	</g>
	<path id="subtitle-2" class="st1" d="M577.5,127.2c3.1,1.7,6.2,1.6,9.1-0.2c3-1.9,4.4-4.6,4.2-8.2c-0.2-3.6-1.8-6.2-4.9-7.7
		c-3.1-1.6-6.1-1.4-8.9,0.5c-2.8,1.9-4.2,4.5-4.2,8C572.7,122.9,574.3,125.5,577.5,127.2 M587.1,107.3c3.3,1.3,5.5,3.4,6.6,6.6
		c1.1,3.1,1.3,6.2,0.5,9.1c-0.8,3-2.4,5.2-4.7,6.8c-2.3,1.6-5.1,2.3-8.2,2.3c-3.1,0-5.9-1.2-8.4-3.7c-2.5-2.5-3.8-5.2-4-8.2
		c-0.2-3,0.5-5.6,1.9-8c1.4-2.3,3.7-4.1,6.8-5.1C580.6,105.9,583.8,106,587.1,107.3z"/>
	<rect y="0" class="st3" width="640" height="200"/>
</g>
<g>
</g>
<g>
</g>
<g>
</g>
<g>
</g>
<g>
</g>
<g>
</g>
<g>
</g>
<g>
</g>
<g>
</g>
<g>
</g>
<g>
</g>
<g>
</g>
<g>
</g>
<g>
</g>
<g>
</g>
</svg>
