<?xml version="1.0" encoding="utf-8"?>
<!-- Generator: Adobe Illustrator 17.0.0, SVG Export Plug-In . SVG Version: 6.00 Build 0)  -->
<!DOCTYPE svg PUBLIC "-//W3C//DTD SVG 1.1//EN" "http://www.w3.org/Graphics/SVG/1.1/DTD/svg11.dtd">
<svg version="1.1" id="Layer_1" xmlns="http://www.w3.org/2000/svg" xmlns:xlink="http://www.w3.org/1999/xlink" x="0px" y="0px"
	 width="640px" height="186.6px" viewBox="0 0 640 186.6" style="enable-background:new 0 0 640 186.6;" xml:space="preserve">
<style type="text/css">
	.st0{fill:none;}
	.st1{fill:#231916;}
</style>
<g id="page-8-logo.svg">
	<rect y="0" class="st0" width="640" height="186.6"/>
	<path class="st1" d="M152.4,157.1c-0.6-0.9-1.3-1.8-2-2.7c-0.3,0.2-0.7,0.5-1,0.7c0.7,0.9,1.3,1.8,1.8,2.9
		C151.6,157.6,152,157.4,152.4,157.1z M200.2,101.2h1.7V88.3h-1.7V101.2z M189.6,95.9h3.9c1.3,0,2.3-0.3,3-1c0.7-0.7,1-1.6,1-2.8
		c0-1.2-0.3-2.1-1-2.8c-0.7-0.7-1.7-1-3-1h-5.7v12.9h1.7V95.9z M189.6,89.7h3.4c1,0,1.7,0.2,2.1,0.6c0.5,0.4,0.7,1,0.7,1.8
		c0,0.8-0.2,1.4-0.7,1.8c-0.4,0.4-1.2,0.6-2.1,0.6h-3.4V89.7z M152.6,153.1c-0.7-1-1.3-1.9-2-2.8c-0.3,0.3-0.6,0.5-1,0.7
		c0.7,1,1.2,1.9,1.8,2.9C151.8,153.6,152.2,153.3,152.6,153.1z M143.9,153.2c-0.5-1.4-0.8-2.2-0.9-2.4c-0.4,0.1-0.8,0.3-1.1,0.4
		c0.5,1.3,0.8,2.2,0.9,2.6C143.1,153.5,143.5,153.4,143.9,153.2z M146.2,153.3c0.4,0.1,0.7,0.3,1,0.4c0.6-1.5,0.9-2.4,1.1-2.7
		c-0.4-0.1-0.9-0.2-1.3-0.4C146.8,151.6,146.6,152.5,146.2,153.3z M156.7,159.2l-0.1-1.2c-0.7,0.2-1.3,0.3-1.8,0.5v-7.3
		c0-0.7,0-1.4,0.1-1.9h-1.4c0,0.5,0.1,1.2,0.1,1.9v7.5c-1.9,0.4-3.5,0.6-4.8,0.8l0.2,1.2c0.9-0.2,2.4-0.5,4.6-0.9c0,1.6,0,3-0.1,4.3
		h1.4c0-1-0.1-1.8-0.1-2.4v-2C155.4,159.4,156,159.3,156.7,159.2z M145.8,157.2c0.4,0.9,0.8,1.8,1.1,2.7c0.4-0.2,0.8-0.4,1.2-0.6
		c-0.4-0.9-0.8-1.7-1.2-2.6C146.6,156.9,146.2,157,145.8,157.2z M157.7,76.9c0.8,0.8,1.9,2.1,3.3,3.8c6-4.8,9.7-9.6,11.1-14.4
		c2.1,6.4,5.8,11.1,10.8,14.3c1.3-1.6,2.4-3,3.4-4.2c-6-2.4-9.9-6.9-11.9-13.4h11.2v-3.9h-11.8c0.1-2.2,0.2-4.4,0.3-6.4h-4.4
		c0,2.4-0.1,4.5-0.3,6.4h-11.2v3.9H169C168.1,68.3,164.3,73,157.7,76.9z M165.8,101.2V89.7h4.3v-1.4h-10.3v1.4h4.3v11.5H165.8z
		 M182.7,101.2h1.7V88.3h-1.7V101.2z M172.1,97.3h5.5l1.4,3.9h1.9l-5-12.9h-1.9l-5,12.9h1.8L172.1,97.3z M174.8,89.8L174.8,89.8
		l2.2,6h-4.4L174.8,89.8z M145.7,155.6c0.7,0,1.4,0,2.2,0.1v-1.1c-0.8,0-1.5,0.1-2.2,0.1v-3.5c0-0.8,0-1.5,0.1-1.9h-1.3
		c0,0.5,0.1,1.1,0.1,1.8v3.5c-1,0-1.9,0-2.6-0.1v1.1c0.7,0,1.5-0.1,2.3-0.1c-0.3,0.9-0.7,1.7-1.2,2.5c-0.5,0.8-1,1.5-1.6,2.1
		c0.4,0.3,0.7,0.5,1,0.9c1-1.1,1.6-2.3,2-3.4v4c0,0.7,0,1.4-0.1,2.2h1.3c0-0.8-0.1-1.5-0.1-2.2V155.6z M133.9,160.7
		c-0.1,0.4-0.3,0.8-0.5,1.1c0.9,0.3,1.8,0.6,2.5,1c0.8,0.3,1.5,0.7,2.3,1.2c0.2-0.5,0.5-0.9,0.7-1.2c-1-0.5-2-0.9-2.7-1.2
		C135.5,161.2,134.7,161,133.9,160.7z M117.2,153.4h2.8c0.7,0,1.6,0,2.6,0.1v-1.3c-1,0-1.9,0.1-2.6,0.1h-3.7v-1.3c0-0.8,0-1.4,0.1-2
		h-1.6c0.1,0.7,0.1,1.4,0.1,2.1v1.2h-4.1c-0.7,0-1.4,0-2.2-0.1v1.4c0.8-0.1,1.6-0.1,2.3-0.1h2.8c-0.6,1.7-1.3,3.1-2.3,4.5
		c-1,1.3-2.1,2.4-3.5,3.3c0.5,0.3,1,0.7,1.4,1.1c1.4-1.2,2.5-2.4,3.3-3.6c0.9-1.2,1.6-2.9,2.4-4.8v6.2H114c-0.7,0-1.3,0-2-0.1v1.3
		c0.7,0,1.3-0.1,2-0.1h0.9c0,1,0,2-0.1,3h1.4c0-1-0.1-2-0.1-3h0.9c0.7,0,1.4,0,2.2,0.1v-1.3c-0.7,0-1.5,0.1-2.2,0.1h-0.9v-6.2
		c0.4,1.9,1.1,3.4,1.9,4.5c0.9,1.2,2.1,2.3,3.8,3.5c0.4-0.6,0.8-1,1.3-1.4c-1.1-0.4-2.3-1.2-3.4-2.3
		C118.6,157,117.8,155.4,117.2,153.4z M128.1,152.2c0.2-0.3,0.5-0.6,0.9-0.9c-1.2-0.7-2-1.2-2.4-1.4c-0.2,0.3-0.5,0.5-0.9,0.9
		c0.4,0.2,0.8,0.4,1.1,0.7C127.3,151.6,127.7,151.9,128.1,152.2z M129.5,153.9c-0.3-0.3-0.5-0.6-0.7-0.9c-0.7,0.7-1.5,1.2-2.1,1.6
		c-0.7,0.4-1.3,0.8-1.9,1.1c0.3,0.3,0.7,0.7,1,1.1C126.8,156.1,128,155.1,129.5,153.9z M127.3,157c0,0.7,0.1,1.3,0.1,2
		c0,0.7,0,1.4-0.1,2.2h1.2V158h7.9v2.7h1.2c0-0.7-0.1-1.3-0.1-1.9c0-0.6,0-1.2,0.1-1.8H127.3z M135.9,154.4c-0.4-0.3-0.8-0.7-1-1.1
		c-0.2-0.5-0.2-1-0.1-1.7h2.6c-0.2,0.4-0.4,0.7-0.6,1.2c0.3,0,0.8,0.1,1.3,0.3c0.6-1.4,1-2.2,1.1-2.5h-6.4c0.3-0.3,0.5-0.6,0.8-1
		c-0.5-0.1-1-0.2-1.4-0.4c-0.3,0.6-0.6,1.2-1,1.8c-0.4,0.6-0.9,1-1.4,1.3c0.3,0.3,0.7,0.5,1,0.9c0.5-0.4,1-0.9,1.4-1.5h1.3
		c0,1-0.3,1.8-0.9,2.5c-0.5,0.7-1.7,1.2-3.4,1.5c0.3,0.3,0.7,0.7,1,1c0.9-0.3,1.7-0.6,2.4-1c0.7-0.4,1.2-1.1,1.6-2
		c0.5,0.9,1.2,1.6,2,2c0.8,0.4,1.8,0.8,2.8,1c0.2-0.4,0.4-0.9,0.8-1.4c-0.8,0-1.6-0.1-2.2-0.3C136.8,154.9,136.3,154.7,135.9,154.4z
		 M221.3,153.4c-0.3,0-0.7,0.1-1.1,0.1c0.2,0.4,0.4,0.9,0.5,1.3c0.6,0,1.1-0.1,1.5-0.3c0.4-0.2,0.7-0.4,0.8-0.9
		c0.1-0.4,0.2-1.7,0.4-3.8h-4.9c-0.6,0-1.2,0-1.9-0.1v1.1c0.7,0,1.4-0.1,1.9-0.1c-0.1,0.8-0.4,1.5-0.7,2.1c-0.3,0.5-0.7,1-1.2,1.3
		c0.4,0.3,0.8,0.6,1,0.9c0.6-0.6,1-1.2,1.2-1.7c0.3-0.5,0.5-1.4,0.8-2.6h2.4c-0.1,1.3-0.2,2-0.2,2.2
		C221.7,153.3,221.6,153.4,221.3,153.4z M131.3,160.4c-0.2,0.5-0.5,0.9-0.9,1.2c-0.5,0.4-1.1,0.6-1.9,0.9c-0.8,0.2-1.8,0.3-3,0.4
		c0.3,0.4,0.5,0.9,0.8,1.4c1.6-0.3,2.8-0.6,3.6-1c0.9-0.4,1.5-0.9,1.9-1.4c0.4-0.5,0.7-1,0.9-1.5c0.1-0.5,0.3-1,0.5-1.5h-1.6
		C131.6,159.4,131.5,159.9,131.3,160.4z M175.2,77.1c-1.6-1.6-3-3.1-4.3-4.5l-2.7,2.2c1.4,1.7,2.7,3.4,3.8,4.9L175.2,77.1z
		 M439.8,67.1c0.8-0.9,1.9-2,3.3-3.4c-3.4-2.8-6.1-6.4-8.3-10.8l-3.7,1.8C433.5,59.8,436.4,63.9,439.8,67.1z M431.5,102.2
		c-0.1,0.2-0.2,0.3-0.3,0.4c-0.1,0.1-0.3,0.3-0.5,0.3v0.9c0.7-0.2,1.2-0.6,1.5-1c0.3-0.5,0.5-1.1,0.5-1.8v-1.8h-2v2h1.1
		c0,0.1,0,0.3,0,0.5C431.6,101.8,431.6,102,431.5,102.2z M416.8,75.7l1.8,3.9c1-0.2,2-0.4,3-0.5l14.9-0.8c0.5,0.8,1,1.7,1.5,2.4
		l3.7-2.6c-2.4-3.6-5.1-7.2-8.1-10.8l-3.4,2.1c1.3,1.7,2.5,3.4,3.6,5c-3.4,0.1-7,0.3-10.8,0.3c2.1-2.3,4.7-6,8-11l-4.2-1.9
		c-1.1,2.1-2.7,4.8-4.9,8C419.8,73,418.1,74.9,416.8,75.7z M436.1,88.3v12.9h8.6v-1.5h-6.8V88.3H436.1z M350.4,67.1
		c0.3,1.4,0.7,2.9,1,4.5c1.4-1.1,2.8-2.4,4.1-3.7v12.6h4.1v-5.8h12.2v0.5c0,1.1-0.5,1.6-1.6,1.6c-1.4,0-2.9,0-4.6-0.1
		c0.5,1.3,0.8,2.6,1.1,3.9c3,0,4.9,0,6-0.1c1-0.1,1.8-0.5,2.4-1.1c0.6-0.6,0.9-1.6,0.9-2.8V61h-15.1c0.4-0.7,0.8-1.4,1.2-2.1h16.6
		v-3.6h-14.8c0.4-0.8,0.7-1.6,1-2.5l-4.5-0.7c-0.3,1.1-0.7,2.1-1.1,3.1h-8.5v3.6h6.7C355.5,61.9,353.2,64.6,350.4,67.1z M359.5,64.4
		h12.2v2.1h-12.2V64.4z M359.5,69.5h12.2v2.1h-12.2V69.5z M426.6,54.8l-3.9-1.7c-1.8,4.2-4.5,7.8-8,10.9c1.3,1.4,2.2,2.5,2.9,3.3
		C421.5,63.7,424.5,59.5,426.6,54.8z M367.1,153.9c0.4-0.4,0.8-0.7,1.2-1c-0.4-0.6-0.9-1.1-1.3-1.7c-0.4-0.5-0.9-1-1.3-1.5
		c-0.4,0.3-0.7,0.6-1,0.9C365.8,152.2,366.7,153.2,367.1,153.9z M448,101.2h1.7V89.7h4.3v-1.4h-10.3v1.4h4.3V101.2z M409.9,94.7
		c0,0.9,0.1,1.7,0.4,2.5c0.3,0.8,0.6,1.5,1.2,2.2c0.5,0.6,1.2,1.1,1.9,1.5c0.8,0.4,1.7,0.6,2.7,0.6c1,0,1.9-0.2,2.7-0.6
		c0.8-0.4,1.4-0.9,1.9-1.5c0.5-0.6,0.9-1.3,1.2-2.2c0.3-0.8,0.4-1.7,0.4-2.5c0-0.9-0.1-1.7-0.4-2.5c-0.3-0.8-0.6-1.5-1.2-2.2
		c-0.5-0.6-1.2-1.1-1.9-1.5c-0.8-0.4-1.7-0.6-2.7-0.6c-1,0-1.9,0.2-2.7,0.6c-0.8,0.4-1.4,0.9-1.9,1.5c-0.5,0.6-0.9,1.3-1.2,2.2
		C410.1,93,409.9,93.9,409.9,94.7z M411.9,92.8c0.2-0.6,0.4-1.2,0.8-1.7c0.4-0.5,0.8-0.9,1.4-1.2c0.6-0.3,1.2-0.5,2-0.5
		c0.8,0,1.5,0.1,2,0.5c0.6,0.3,1,0.7,1.4,1.2c0.4,0.5,0.6,1.1,0.8,1.7c0.2,0.6,0.3,1.3,0.3,1.9c0,0.6-0.1,1.3-0.3,1.9
		c-0.2,0.6-0.4,1.2-0.8,1.7c-0.4,0.5-0.8,0.9-1.4,1.2c-0.6,0.3-1.2,0.5-2,0.5c-0.8,0-1.5-0.1-2-0.5c-0.6-0.3-1-0.7-1.4-1.2
		c-0.4-0.5-0.6-1.1-0.8-1.7c-0.2-0.6-0.2-1.3-0.2-1.9C411.7,94.1,411.7,93.4,411.9,92.8z M388.9,99.7h-7.3v-4.5h6.7v-1.4h-6.7v-4.1
		h7.2v-1.4h-8.9v12.9h9V99.7z M467.6,59.4h-20.5v3.6h20.5V59.4z M469.3,73.8c0,1.8-0.8,2.7-2.4,2.7c-1.2,0-2.6,0-4.1-0.1
		c0.5,1.3,0.9,2.6,1,4c3.3,0,5.4-0.1,6.4-0.3c1-0.2,1.7-0.8,2.3-1.7c0.6-0.9,0.9-2,0.9-3.5V53.5h-24.9v3.6h20.9V73.8z M499.4,152.2
		c-0.2-0.6-0.6-1.5-1.2-2.6c-0.3,0.2-0.7,0.4-1.2,0.6c0.6,1.1,1,1.9,1.2,2.6C498.5,152.5,499,152.3,499.4,152.2z M522.2,150.9
		c-0.2-0.6-0.4-1.2-0.7-2c-0.4,0.2-0.9,0.4-1.3,0.5c0.3,0.7,0.5,1.4,0.7,2C521.2,151.2,521.7,151.1,522.2,150.9z M514.4,153
		c-0.4-0.6-0.8-1.2-1.3-1.8c-0.5-0.6-0.8-1-1-1.3c-0.4,0.3-0.9,0.6-1.2,0.8c1.2,1.4,1.9,2.5,2.3,3.3
		C513.4,153.7,513.9,153.4,514.4,153z M465,65.2h-15.5v12.2h4v-1.7H465V65.2z M461,72h-7.5v-3.2h7.5V72z M207.5,64.9l2.9,2.4
		c2.2-2.3,4.4-4.7,6.4-7.1l-3.4-2.3C211.7,60.3,209.7,62.6,207.5,64.9z M469.2,100.6c0,0.4,0.3,0.8,0.8,0.8c0.5,0,0.8-0.3,0.8-0.8
		c0-0.5-0.3-0.8-0.8-0.8C469.6,99.7,469.2,100.1,469.2,100.6z M463.2,100.7c0.8-0.3,1.4-0.7,1.9-1.3c0.5-0.6,0.9-1.3,1.1-2.1
		c0.2-0.8,0.4-1.8,0.4-2.9c0-2.1-0.5-3.6-1.6-4.6c-1.1-1-2.6-1.5-4.6-1.5H456v12.9h4.4C461.5,101.2,462.4,101,463.2,100.7z
		 M457.7,89.7h2.9c0.8,0,1.5,0.1,2,0.3c0.5,0.2,1,0.5,1.3,1c0.3,0.4,0.6,1,0.7,1.6c0.1,0.6,0.2,1.3,0.2,2.1c0,0.8-0.1,1.5-0.2,2
		c-0.2,0.6-0.4,1-0.6,1.4c-0.3,0.4-0.6,0.7-0.9,0.9c-0.3,0.2-0.6,0.4-1,0.5c-0.3,0.1-0.6,0.2-0.9,0.2c-0.3,0-0.5,0-0.7,0h-2.9V89.7z
		 M239.9,152.2V151c-0.7,0-1.4,0.1-2.2,0.1h-3.5c-0.1-0.7-0.2-1.4-0.4-2c-0.5,0.1-1.1,0.2-1.7,0.2c0.2,0.7,0.4,1.3,0.5,1.8h-3.3
		c-1.1,0-2.1,0-3.1-0.1v1.2c0.9,0,1.9-0.1,3.1-0.1h8.3C238.4,152.2,239.2,152.2,239.9,152.2z M247.4,99.7h-6.8V88.3h-1.7v12.9h8.6
		V99.7z M230.5,155.1c0.4-0.1,0.9-0.3,1.3-0.5c-0.2-0.7-0.5-1.4-0.8-2c-0.4,0.2-0.9,0.4-1.3,0.5
		C230.1,153.7,230.3,154.4,230.5,155.1z M245.1,150c0,0.7,0.1,1.6,0.1,2.6c0,1,0,1.9-0.1,2.6h9c0-0.7-0.1-1.6-0.1-2.6
		c0-1,0-1.9,0.1-2.7H245.1z M252.9,154.1h-6.5v-3h6.5V154.1z M194.9,57.8l-3,2c1.6,2,3.3,4.4,5.2,7.3l3.5-2.3
		C198.6,62.3,196.7,59.9,194.9,57.8z M284.6,88.3h-1.7v12.9h1.7V88.3z M201.9,80.4h4.3v-8.9H218v-3.8h-11.8V57.3h10.6v-3.8h-25.3
		v3.8h10.4v10.5h-11.6v3.8h11.6V80.4z M236.2,66.9c2.1,6.3,5.7,10.7,10.9,13.3c0.7-1,1.8-2.4,3.3-4.1c-6.9-2.8-11-8.7-12.4-17.6
		c0.2-1.9,0.3-3.9,0.3-6H234c0,6.6-0.9,11.6-2.8,15.1c-1.9,3.5-5,6.4-9.3,8.9c1.3,1.7,2.3,3,2.9,4.1C230.4,77,234.2,72.5,236.2,66.9
		z M249.5,101.2h1.7V88.3h-1.7V101.2z M313.8,88.3v8.3c0,1.7,0.5,3,1.4,3.8c0.9,0.8,2.2,1.2,3.9,1.2c1.6,0,2.9-0.4,3.8-1.2
		c0.9-0.8,1.3-2.1,1.3-3.7v-8.3h-1.7v8.3c0,1.2-0.3,2-0.9,2.6c-0.6,0.6-1.4,0.9-2.5,0.9c-1.2,0-2-0.3-2.7-0.9
		c-0.6-0.6-0.9-1.5-0.9-2.6v-8.3H313.8z M346.1,76.2h-3.8c1-3,2-6.1,2.9-9.1l-3.8-0.9c-0.6,3.3-1.6,6.6-2.7,10h-10.9v3.5h18.3V76.2z
		 M336.9,93.7c0.4-0.6,0.5-1.3,0.5-2.1c0-1.1-0.3-1.9-1-2.5c-0.7-0.6-1.7-0.9-2.9-0.9h-6.1v12.9h1.7v-5.5h4.2c0.4,0,0.8,0.1,1,0.2
		c0.3,0.1,0.5,0.3,0.6,0.5c0.2,0.2,0.3,0.5,0.3,0.7c0.1,0.3,0.1,0.6,0.2,0.9c0.1,0.3,0.1,0.6,0.1,1c0,0.3,0,0.6,0,0.9
		c0,0.3,0,0.5,0.1,0.8c0,0.2,0.1,0.4,0.2,0.6h1.9c-0.2-0.2-0.3-0.5-0.4-0.8c-0.1-0.3-0.2-0.6-0.2-0.9c0-0.3-0.1-0.6-0.1-1
		c0-0.3,0-0.6-0.1-1c0-0.3-0.1-0.6-0.2-0.9c-0.1-0.3-0.2-0.6-0.3-0.8c-0.1-0.2-0.3-0.4-0.6-0.6c-0.2-0.2-0.5-0.3-0.9-0.4v0
		C336,94.7,336.6,94.3,336.9,93.7z M334.9,93.8c-0.3,0.2-0.6,0.3-1,0.4c-0.4,0.1-0.7,0.1-1.1,0.1h-3.6v-4.5h4.3
		c0.8,0,1.4,0.2,1.8,0.6c0.4,0.4,0.5,0.9,0.5,1.6c0,0.5-0.1,0.9-0.2,1.2C335.4,93.4,335.1,93.6,334.9,93.8z M329.2,64.8
		c0.7-0.5,1.4-1,2-1.6v1.4h11.5v-1.7c0.7,0.5,1.4,1,2.1,1.5c0.8-1.4,1.5-2.5,2.1-3.6c-2.9-1.6-5.4-4-7.7-7.4l0.5-0.9h-4.2
		c-2.3,3.6-5.1,6.5-8.2,8.7C328,62.4,328.7,63.6,329.2,64.8z M337.2,56.6c1,1.6,2.3,3.2,3.7,4.6h-7.5
		C334.7,59.8,335.9,58.2,337.2,56.6z M328.9,67.4c0.8,2.7,1.5,5.3,2.1,8.1l3.4-1c-0.8-3-1.5-5.6-2.2-8L328.9,67.4z M322.7,57h2.1
		c-0.6,2.6-1.2,5.1-2,7.6c1.5,1.7,2.2,3.5,2.2,5.3c0,1.2-0.4,1.8-1.2,1.8c-0.3,0-0.6-0.1-1.1-0.1c0.3,1.5,0.6,2.8,0.7,4
		c1.9,0,3.2-0.4,3.9-1.1c0.7-0.7,1.1-1.9,1.1-3.5c0-2.5-0.8-4.7-2.3-6.6c0.8-2.3,1.6-4.9,2.5-7.8v-2.7h-9.3v26.9h3.3V57z
		 M361.3,98.8l-6.8-10.5h-1.8v12.9h1.6V90.8h0l6.7,10.4h1.9V88.3h-1.6L361.3,98.8L361.3,98.8z M339.3,73.3c-0.5-2.3-1.1-4.9-1.8-7.7
		l-3.2,0.7c0.7,2.6,1.2,5.2,1.7,7.8L339.3,73.3z M289.1,67.9v12.7h3.6V60.3c0.8-2.1,1.6-4.4,2.3-6.8l-3.8-1.1c-1.3,5.4-3,9.8-5,13.2
		c0.4,1.8,0.7,3.6,0.9,5.4C287.8,70,288.5,69,289.1,67.9z M348.4,160.4c0.5-0.2,0.9-0.4,1.3-0.5c-0.4-1.2-1-2.7-1.7-4.5
		c-0.4,0.2-0.8,0.4-1.2,0.5C347.4,157.2,347.9,158.8,348.4,160.4z M395.9,155.5c-0.6,0-1.2,0-1.9-0.1v1c0.7-0.1,1.3-0.1,1.9-0.1h2.7
		c0.6,0,1.3,0,2,0.1v-1c-0.7,0-1.4,0.1-2,0.1H395.9z M400.2,160.6c-0.2-0.4-0.4-0.7-0.6-1c-0.4,0.2-0.7,0.4-1,0.7
		c0.3,0.4,0.5,0.8,0.7,1.1c0.2,0.4,0.4,0.7,0.5,1c0.4-0.3,0.8-0.5,1.1-0.7C400.6,161.3,400.4,160.9,400.2,160.6z M393.4,150.9v1
		c0.8-0.1,1.5-0.1,2-0.1h1.4v1.6H396c-0.6,0-1.3,0-2.1-0.1v1c0.8-0.1,1.5-0.1,2.1-0.1h2.6c0.6,0,1.2,0,2,0.1v-1
		c-0.8,0-1.5,0.1-2,0.1H398v-1.6h1c0.7,0,1.4,0,2.2,0.1v-1c-0.8,0-1.5,0.1-2.2,0.1h-1c0-0.7,0-1.4,0.1-1.9h-1.3
		c0,0.6,0.1,1.2,0.1,1.9h-1.4C394.9,150.9,394.2,150.9,393.4,150.9z M407.3,155.5c0.1-0.5,0.3-1,0.4-1.5c0.1-0.5,0.3-1,0.5-1.5h-4.6
		c0.3-0.9,0.6-1.8,1-2.7c-0.5-0.2-1.1-0.4-1.6-0.5c0,0.6-0.1,1.2-0.3,1.9c-0.1,0.7-0.3,1.3-0.6,2c-0.3,0.7-0.7,1.3-1.2,1.9
		c0.4,0.2,0.8,0.4,1.3,0.7c0.5-0.8,0.9-1.6,1.2-2.4h3.4c-0.2,0.7-0.4,1.3-0.7,2C406.4,155.4,406.8,155.5,407.3,155.5z M406.2,161.2
		c-0.6-0.7-1-1.5-1.2-2.5c-0.2-1-0.3-1.6-0.2-2.1c0.1-0.4,0.2-0.8,0.3-1.1c-0.5-0.1-1-0.2-1.7-0.3c0,0.7,0,1.3,0,1.8
		c0,0.5-0.1,1.1-0.2,1.6c-0.1,0.5-0.3,1.1-0.5,1.6c-0.2,0.5-0.6,1-1,1.5c-0.4,0.5-0.9,0.9-1.6,1.2c0.3,0.3,0.7,0.6,1.2,1.1
		c0.8-0.7,1.4-1.5,1.8-2.2c0.4-0.7,0.8-1.5,1.1-2.4c0.3,0.8,0.6,1.6,1,2.2c0.4,0.7,1,1.4,1.9,2.2c0.1-0.3,0.3-0.5,0.5-0.8
		c0.2-0.3,0.4-0.4,0.7-0.5C407.5,162.4,406.8,161.9,406.2,161.2z M427.1,99.2h-2v2h2V99.2z M429.9,152.8c0.3-0.6,0.5-1.1,0.7-1.6
		c0.2-0.5,0.5-1,0.8-1.3c-0.6-0.2-1.2-0.4-1.7-0.7c-0.3,1.2-0.7,2.4-1.3,3.6c-0.5,1.2-1.3,2.3-2.2,3.4c0.3,0.4,0.6,0.7,0.9,1.2
		c0.5-0.7,1-1.5,1.6-2.4v5.9c0,1.4,0,2.4-0.1,3h1.4c0-0.7-0.1-1.7-0.1-3.1V152.8z M419.8,160.8c0.3-0.4,0.6-0.7,0.9-1.1
		c0.3-0.4,0.6-0.8,0.8-1.3c0.3-0.5,0.5-1,0.8-1.6c0.3-0.6,0.5-1.2,0.8-1.8h-3c0.3-0.8,0.6-1.6,0.9-2.4c0.3-0.8,0.6-1.5,0.9-2h-8.4
		c-0.7,0-1.4,0-2.2-0.1v1.2c0.8,0,1.5-0.1,2.2-0.1h0.7c0,0.6,0,1.3-0.1,2.2c-0.1,0.9-0.3,1.9-0.6,2.9c-0.3,1-0.8,2-1.3,3
		c-0.6,1-1.4,1.9-2.3,2.7c0.5,0.3,1,0.6,1.3,0.9c0.4-0.4,0.8-0.8,1.1-1.3c0.4-0.5,0.7-1.1,1.1-1.7c0.3-0.6,0.7-1.3,0.9-1.9
		c0.3-0.7,0.5-1.5,0.7-2.4c0.5,1.1,0.9,2,1.4,2.8c0.4,0.7,0.9,1.4,1.4,2.1c-0.3,0.2-0.6,0.4-1,0.6c-0.4,0.2-0.8,0.4-1.2,0.6
		c-0.4,0.2-0.9,0.4-1.4,0.5c-0.5,0.1-1.1,0.3-1.7,0.4c0.5,0.4,0.9,0.9,1,1.3c1-0.4,1.9-0.7,2.7-1.1c0.8-0.4,1.7-0.8,2.6-1.4
		c0.5,0.4,1.1,0.8,1.8,1.2c0.7,0.4,1.8,0.8,3.2,1.2c0.2-0.6,0.5-1,0.9-1.4c-1-0.2-2-0.4-2.8-0.8
		C420.9,161.6,420.2,161.2,419.8,160.8z M417.1,157.5c-0.6-1-1.2-2.3-1.7-3.7c0-0.7,0.1-1.5,0.1-2.3h4.4c-0.4,1.1-0.7,2-0.9,2.6
		c-0.3,0.7-0.5,1.3-0.8,1.8h3.1c-0.4,0.9-0.7,1.7-1.1,2.3c-0.4,0.6-0.8,1.1-1.3,1.7C418.3,159.3,417.7,158.5,417.1,157.5z M406.4,74
		l4.4-2.6l-2.4-3h0.7V53.6h-15v21.1c0,1.4-0.3,2.4-1,3l1.6,3c1.2-0.5,3.7-1.3,7.5-2.2c0-0.8,0-1.8,0.1-3.2c1.5,2,3.6,3.6,6.5,4.9
		c0.6-1.5,1.3-2.8,2.1-3.9C409,75.8,407.5,75,406.4,74z M397.8,57h7.7v2.3h-7.7V57z M397.8,75.8v-7.4h1.3c0.6,2.5,1.5,4.7,2.7,6.4
		C400.5,75.1,399.1,75.5,397.8,75.8z M397.8,64.9v-2.3h7.7v2.3H397.8z M402.7,68.4h5.4c-1.2,1.1-2.5,2.2-3.8,3.1
		C403.7,70.6,403.2,69.5,402.7,68.4z M385.7,160.8c0.8,0.4,1.5,0.9,2.2,1.3c0.6,0.4,1.2,0.9,1.6,1.3c0.3-0.5,0.5-0.9,0.9-1.2
		c-1.3-0.9-2.6-1.7-3.9-2.4C386.3,160.2,386,160.5,385.7,160.8z M389.7,159.1v-1.2c-0.9,0-1.8,0.1-2.7,0.1h-2.6c0-0.4,0-0.9,0.1-1.6
		H383c0,0.7,0.1,1.2,0.1,1.6h-2.8c-0.9,0-1.7,0-2.6-0.1v1.2c0.9,0,1.7-0.1,2.6-0.1h2.8v2.9c0,0.6-0.6,0.9-1.8,0.7
		c0.3,0.5,0.5,1,0.6,1.4c1.7-0.1,2.6-0.6,2.6-1.5v-3.6h2.7C388,159.1,388.8,159.1,389.7,159.1z M399.2,91c0.4-0.5,0.8-0.9,1.4-1.2
		c0.5-0.3,1.2-0.4,2-0.4c0.9,0,1.7,0.2,2.3,0.7c0.7,0.5,1.1,1.2,1.3,2.1h1.7c-0.1-0.7-0.3-1.3-0.6-1.8c-0.3-0.5-0.7-1-1.2-1.3
		c-0.5-0.3-1-0.6-1.6-0.8c-0.6-0.2-1.2-0.3-1.9-0.3c-1,0-1.9,0.2-2.6,0.5c-0.8,0.4-1.4,0.8-1.9,1.4c-0.5,0.6-0.9,1.3-1.2,2.2
		c-0.3,0.8-0.4,1.7-0.4,2.6c0,0.9,0.1,1.8,0.4,2.6c0.2,0.8,0.6,1.5,1.1,2.1c0.5,0.6,1.1,1.1,1.9,1.4c0.8,0.3,1.6,0.5,2.6,0.5
		c1.7,0,3-0.5,3.9-1.4c0.9-0.9,1.5-2.2,1.7-3.8h-1.7c0,0.5-0.1,1-0.3,1.5c-0.2,0.5-0.4,0.8-0.8,1.2c-0.3,0.3-0.7,0.6-1.1,0.8
		c-0.4,0.2-0.9,0.3-1.5,0.3c-0.8,0-1.4-0.1-2-0.4c-0.6-0.3-1-0.7-1.4-1.2c-0.4-0.5-0.6-1.1-0.8-1.7c-0.2-0.7-0.3-1.4-0.3-2.1
		c0-0.7,0.1-1.3,0.3-1.9C398.6,92.1,398.8,91.5,399.2,91z M385.2,154.5c0.9-0.7,1.6-1.4,2.2-2.1c0.5-0.7,1-1.3,1.5-2h-7.1
		c0.3-0.5,0.7-0.8,0.9-1c-0.4-0.1-0.9-0.3-1.6-0.6c-0.2,0.7-0.6,1.5-1.3,2.5c-0.7,1-1.4,1.8-2.3,2.6c0.4,0.1,0.8,0.4,1.1,0.8
		c0.8-0.8,1.5-1.7,2.1-2.6c0.8,1,1.6,1.9,2.4,2.4c-0.4,0.3-1.3,0.6-2.5,1.1c-1.2,0.5-2.6,0.8-4.2,1c0.4,0.4,0.7,0.8,0.8,1.2
		c1-0.2,2.1-0.5,3.2-0.9c1.1-0.4,2.3-0.9,3.7-1.7c0.8,0.6,1.7,1,2.8,1.4c1,0.4,2.4,0.6,3.9,0.8c0-0.5,0.3-1,0.7-1.4
		c-1.4,0-2.5-0.1-3.4-0.3C387,155.4,386.1,155,385.2,154.5z M382.8,152.7c-0.4-0.3-0.7-0.7-1-1.2h4.8c-0.4,0.5-0.8,0.9-1.1,1.2
		c-0.4,0.4-0.8,0.7-1.2,1C383.6,153.4,383.2,153,382.8,152.7z M380.6,159.8c-0.4,0.5-1,1-1.7,1.5c-0.8,0.5-1.5,1-2.1,1.3
		c0.4,0.3,0.8,0.6,1,0.9c0.8-0.5,1.6-1.1,2.4-1.7c0.8-0.6,1.4-1,1.8-1.1L380.6,159.8z M401.1,158.8v-1c-0.7,0-1.3,0.1-2,0.1h-3.7
		c-0.6,0-1.3,0-2-0.1v1c0.7-0.1,1.4-0.1,2-0.1h1.6v2.9c0,0.4-0.1,0.7-0.2,0.9c-0.1,0.2-0.6,0.3-1.4,0.2c0.2,0.4,0.4,0.9,0.5,1.4
		c0.7,0,1.3-0.2,1.7-0.5c0.4-0.4,0.6-0.9,0.6-1.8v-3.1h1C399.8,158.7,400.5,158.7,401.1,158.8z M394.8,159.4
		c-0.3,0.6-0.6,1.1-0.9,1.5c-0.3,0.4-0.5,0.9-0.8,1.2c0.3,0.2,0.7,0.5,1,0.7c0.3-0.5,0.6-1,0.9-1.6c0.3-0.5,0.6-1,0.8-1.4
		C395.5,159.8,395.1,159.6,394.8,159.4z M390.7,64c0.9-2.8,1.7-5.4,2.4-7.7v-2.7h-9.6v27.1h3.5V56.9h2.3c-0.6,2.5-1.3,5.1-2.1,7.6
		c1.7,1.9,2.5,3.9,2.5,5.8c0,0.9-0.6,1.3-1.6,1.3c-0.3,0-0.6,0-1-0.1c0.3,1.3,0.6,2.8,0.7,4.4c3.7,0,5.6-1.5,5.6-4.5
		C393.6,68.5,392.6,66,390.7,64z M478,152.4v9.6c0,0.7-0.1,1.4-0.1,2h1.4v-12.8h10v10.8c0,0.4-0.2,0.7-0.4,0.7c-0.2,0-0.7,0-1.4,0
		c0.3,0.6,0.5,1,0.5,1.4c0.9-0.1,1.6-0.2,2-0.4c0.4-0.2,0.6-0.5,0.6-1.1v-10.2c0-1,0-1.8,0.1-2.4h-12.8
		C478,150.5,478,151.3,478,152.4z M375.5,96.3c0,0.5-0.1,1-0.3,1.5c-0.2,0.5-0.4,0.8-0.8,1.2c-0.3,0.3-0.7,0.6-1.1,0.8
		c-0.4,0.2-0.9,0.3-1.5,0.3c-0.8,0-1.4-0.1-2-0.4c-0.5-0.3-1-0.7-1.4-1.2c-0.4-0.5-0.6-1.1-0.8-1.7c-0.2-0.7-0.3-1.4-0.3-2.1
		c0-0.7,0.1-1.3,0.3-1.9c0.2-0.6,0.4-1.2,0.8-1.7c0.4-0.5,0.8-0.9,1.4-1.2c0.5-0.3,1.2-0.4,2-0.4c0.9,0,1.7,0.2,2.3,0.7
		c0.7,0.5,1.1,1.2,1.3,2.1h1.7c-0.1-0.7-0.3-1.3-0.6-1.8c-0.3-0.5-0.7-1-1.2-1.3c-0.5-0.3-1-0.6-1.6-0.8c-0.6-0.2-1.2-0.3-1.9-0.3
		c-1,0-1.9,0.2-2.6,0.5c-0.8,0.4-1.4,0.8-1.9,1.4c-0.5,0.6-0.9,1.3-1.2,2.2c-0.3,0.8-0.4,1.7-0.4,2.6c0,0.9,0.1,1.8,0.4,2.6
		c0.2,0.8,0.6,1.5,1.1,2.1c0.5,0.6,1.1,1.1,1.9,1.4c0.7,0.3,1.6,0.5,2.6,0.5c1.7,0,3-0.5,3.9-1.4c1-0.9,1.5-2.2,1.7-3.8H375.5z
		 M481.4,155.9v4.5h5.8c0-0.6-0.1-1.4-0.1-2.3c0-0.9,0-1.7,0.1-2.2H481.4z M485.8,159.3h-3.2V157h3.2V159.3z M503.8,159.9
		c-0.4-0.7-0.8-1.6-1.4-2.6c-0.4,0.3-0.7,0.5-1.2,0.7c0.7,1,1.2,1.9,1.4,2.6C503,160.3,503.4,160,503.8,159.9z M486.4,154.1
		c0.8,0,1.4,0,1.8,0.1v-1.2c-0.4,0-0.9,0.1-1.7,0.1h-4c-1,0-1.7,0-2.1-0.1v1.2c0.4,0,1.1-0.1,2-0.1H486.4z M502.2,150.8
		c0.1-0.8,0.3-1.3,0.5-1.5c-0.6,0-1.2-0.1-1.9-0.3c0,1.6-0.2,3.1-0.3,4.5h-2.9c-0.8,0-1.8,0-2.9-0.1v1.2c1.1,0,2.1-0.1,2.9-0.1h2.8
		c-0.6,2.3-1.5,4-2.7,5.3c-1.2,1.3-2.5,2.2-4,2.9c0.3,0.2,0.8,0.6,1.3,1.2c1.8-1.2,3.3-2.5,4.3-3.9c1-1.4,1.8-3.2,2.4-5.4h4.1
		l-0.6,6.5c-0.1,0.6-0.3,1-0.6,1.2c-0.3,0.2-1.2,0.2-2.6,0.1c0.3,0.3,0.6,0.9,0.7,1.6c1,0,1.8-0.2,2.5-0.4c0.7-0.2,1.1-0.7,1.2-1.6
		l0.7-6.4c0.1-0.7,0.2-1.4,0.3-2.2h-5.4C502,152.6,502.1,151.6,502.2,150.8z M532,160.1c-0.2-0.4-0.5-0.7-0.9-0.9
		c-0.5-0.2-0.9-0.2-1.3,0c-0.4,0.2-0.8,0.4-0.9,0.7c-0.2,0.3-0.3,0.7-0.3,1.1c0,0.4,0.2,0.8,0.6,1.1c0.3,0.4,0.7,0.5,1.2,0.5
		c0.4,0,0.8-0.1,1.1-0.3c0.3-0.2,0.5-0.5,0.7-0.9C532.2,161,532.2,160.5,532,160.1z M531,161.9c-0.4,0.3-0.8,0.3-1.3,0
		c-0.4-0.2-0.7-0.6-0.7-1.1c0-0.5,0.2-0.9,0.6-1.1c0.4-0.3,0.8-0.3,1.2-0.1c0.4,0.2,0.7,0.6,0.7,1.1
		C531.7,161.3,531.5,161.7,531,161.9z M511.9,159.1c-0.4,0.8-1,1.6-1.6,2.4c0.4,0.4,0.8,0.8,1.3,1.3c0.3-0.7,0.7-1.6,1.2-2.7
		c0.5-1.1,1-2.1,1.5-3c-0.4-0.4-0.8-0.7-1.1-1.1C512.8,157.3,512.3,158.3,511.9,159.1z M437.7,157.7h1.1c1,0,1.9,0,2.6,0.1v-1.2
		c-0.7,0-1.6,0.1-2.7,0.1h-1.9v-2h3.1c0-0.6-0.1-1.3-0.1-2.3c0-1,0-1.8,0.1-2.5h-7.4c0,0.6,0.1,1.4,0.1,2.4c0,1,0,1.8-0.1,2.5h3.1v2
		h-2.5c-0.8,0-1.6,0-2.2-0.1v1.2c0.7,0,1.4-0.1,2.4-0.1h1c-1,2-2.4,3.4-4,4.3c0.6,0.3,1,0.6,1.3,1c1.7-1.4,3-3.2,4-5.3v4
		c0,0.8,0,1.5-0.1,2.1h1.4c0-0.5-0.1-1.3-0.1-2.2v-3.5c0.3,0.9,0.8,1.8,1.4,2.5s1.5,1.5,2.7,2.1c0.3-0.5,0.6-1,0.9-1.4
		c-0.9-0.2-1.7-0.6-2.5-1.3C438.7,159.4,438.1,158.7,437.7,157.7z M433.8,153.6v-2.6h4.7v2.6H433.8z M521.5,159.4c1.3,0,2.3,0,3,0.1
		v-1.2c-0.7,0-1.7,0.1-3,0.1v-2.2c1.2,0,2.2,0,3,0.1v-1.2c-0.8,0-1.8,0.1-3,0.1v-2.2h0.8c0.9,0,1.8,0,2.7,0.1v-1.2
		c-0.8,0-1.7,0.1-2.7,0.1h-4.6c0.4-1.2,0.8-1.9,1-2.2c-0.6-0.2-1.1-0.4-1.7-0.6c-0.2,1.1-0.6,2.3-1.3,3.6c-0.6,1.3-1.2,2.2-1.7,2.7
		c0.5,0.3,0.9,0.6,1.3,0.9c0.4-0.6,0.7-1.2,1-1.7v6.2c0,1.4,0,2.6-0.1,3.3h1.3v-1.4h5.2c1,0,1.9,0,2.7,0.1v-1.2
		c-0.8,0-2.1,0.1-3.9,0.1V159.4z M520.2,161.7h-2.8v-2.2h2.8V161.7z M520.2,158.4h-2.8v-2.2h2.8V158.4z M520.2,155.1h-2.8v-2.2h2.8
		V155.1z M455.7,158.9c0.3-1,0.7-1.7,1-2.1c-0.7-0.1-1.2-0.3-1.7-0.5c0,0.6-0.2,1.4-0.4,2.2c-0.2,0.9-0.5,2-1,3.5h-3.1
		c-1,0-1.9,0-2.6-0.1v1c0.7,0,1.6-0.1,2.6-0.1h5.1c0.7,0,1.4,0,1.9,0.1v-1c-0.7,0-1.6,0.1-2.8,0.1C455,161,455.3,159.9,455.7,158.9z
		 M471.3,153c-0.7-0.4-1.8-1.4-3.2-3l0.4-0.4c-0.5-0.2-1-0.5-1.6-0.8c-0.7,1.3-1.4,2.3-2.1,3c-0.7,0.8-1.5,1.4-2.4,2
		c-0.8,0.6-1.7,1-2.6,1.4c0.6,0.6,1,1,1.1,1.2c0.6-0.4,1.2-0.9,1.8-1.3c0.2-0.2,0.5-0.3,0.7-0.5v1.1c0.6,0,1.4-0.1,2.4-0.1h3.7
		c0.7,0,1.3,0,1.9,0.1v-1.2c-0.5,0-1.2,0.1-2,0.1h-3.6c-1,0-1.8,0-2.3-0.1c0.4-0.3,0.8-0.7,1.3-1.1c0.8-0.7,1.6-1.6,2.6-2.8
		c1.1,1.4,2,2.3,2.5,2.8c0.5,0.4,1.2,0.9,1.9,1.3c0.7,0.4,1.6,0.8,2.6,1.3c0.1-0.5,0.4-1,0.8-1.6c-0.7-0.1-1.3-0.3-1.9-0.5
		C472.7,153.7,472,153.4,471.3,153z M448.4,159.5c0-0.5-0.1-1.1-0.3-1.7c-0.2-0.6-0.6-1.4-1.2-2.2c0.3-1,0.7-1.9,0.9-2.9
		c0.3-1,0.5-1.7,0.8-2.2H444c0,1,0.1,1.9,0.1,2.8v8.2c0,1,0,1.9-0.1,2.7h1.2v-12.8h1.8c-0.2,1-0.6,2.4-1.2,4.5
		c0.7,1.1,1.2,1.9,1.3,2.5c0.1,0.6,0.1,1,0,1.3c-0.1,0.3-0.6,0.4-1.4,0.4c0.3,0.4,0.5,0.9,0.6,1.4c0.6-0.1,1.1-0.3,1.6-0.7
		C448.2,160.5,448.4,160,448.4,159.5z M450.2,156.8c-0.4,0.1-0.7,0.2-1.1,0.3c0.5,1.6,0.9,2.9,1,3.9c0.3-0.2,0.7-0.3,1.1-0.3
		C450.8,159.2,450.5,157.9,450.2,156.8z M462.4,158c0,0.7,0.1,1.7,0.1,3.2c0,1.5,0,2.5-0.1,3h1.3v-1.4h7.4v1.2h1.4
		c0-0.5-0.1-1.5-0.1-3c0-1.5,0-2.5,0.1-3H462.4z M471.1,161.7h-7.4v-2.7h7.4V161.7z M453.4,150.1l0.3-0.4c-0.5-0.1-1.1-0.3-1.7-0.6
		c-0.5,1.5-1.2,2.8-2.1,3.9c-0.9,1.1-1.7,1.9-2.5,2.3c0.5,0.3,0.9,0.6,1.2,1c0.5-0.5,1-1.1,1.7-1.8v0.7c0.4,0,1-0.1,1.7-0.1h1.7
		c0.6,0,1,0,1.4,0.1v-1c0.9,0.8,1.7,1.4,2.4,1.8c0.2-0.4,0.6-0.8,1-1.2c-1.1-0.5-2-1.1-2.8-1.7C455,152.3,454.2,151.4,453.4,150.1z
		 M450.7,154c0.8-1,1.5-2.1,2-3.1c0.8,1.5,1.6,2.5,2.4,3.1H450.7z M452.6,156.2c-0.4,0.1-0.7,0.2-1.1,0.3c0.2,0.7,0.5,1.9,0.8,3.6
		c0.3-0.1,0.7-0.1,1.1-0.1C453.2,158.5,452.9,157.3,452.6,156.2z M301.9,80.6h4.1v-8.2c1.5,2.6,3.7,4.8,6.4,6.6
		c0.6-1,1.3-2.2,2.3-3.7c-3.1-1.4-5.4-3.1-6.9-5.2h6.6v-3.3h-8.3v-2.6h6.5V53.6h-16.8v10.7h6.2v2.6h-8.1v3.3h6
		c-1.9,2.4-4.2,4.3-6.8,5.8c0.8,1.2,1.6,2.3,2.2,3.4c2.6-1.8,4.8-4,6.7-6.7V80.6z M299.4,60.8V57h9.2v3.9H299.4z M242.8,156.8
		c0,0.7,0.1,1.9,0.1,3.5c0,1.6,0,2.8-0.1,3.6h1.2v-1.2h3.5v1.1h1.2c0-1.3-0.1-2.6-0.1-4c0-1.4,0-2.4,0.1-3.1H242.8z M247.6,161.6
		H244v-3.7h3.5V161.6z M235.6,155.5c0.2-0.4,0.4-0.9,0.6-1.2c0.2-0.4,0.5-0.7,0.8-1c-0.7-0.3-1.2-0.5-1.8-0.8c-0.2,0.9-0.6,1.9-1,3
		h-7c0.1,0.8,0,2-0.2,3.6c-0.2,1.6-0.9,2.9-1.9,3.9c0.5,0.3,0.9,0.6,1.2,1c1.6-1.8,2.3-4.2,2.3-7.3h9.8c0.7,0,1.3,0,2,0.1v-1.2
		c-0.7,0-1.4,0.1-2.1,0.1H235.6z M228.6,99.6l0.4,1.6h1.1v-6.8h-5.7v1.4h4.1c0,0.6-0.1,1.1-0.2,1.7c-0.2,0.5-0.4,1-0.8,1.3
		c-0.4,0.4-0.8,0.7-1.3,0.9c-0.5,0.2-1.1,0.3-1.8,0.3c-0.7,0-1.4-0.1-1.9-0.4c-0.5-0.3-1-0.7-1.4-1.1c-0.4-0.5-0.7-1-0.9-1.6
		c-0.2-0.6-0.3-1.3-0.3-2c0-0.7,0.1-1.4,0.3-2c0.2-0.7,0.4-1.2,0.8-1.8c0.4-0.5,0.8-0.9,1.4-1.2c0.6-0.3,1.2-0.5,2-0.5
		c0.5,0,0.9,0.1,1.4,0.2c0.4,0.1,0.8,0.3,1.2,0.5c0.3,0.2,0.6,0.5,0.8,0.9c0.2,0.4,0.4,0.8,0.5,1.3h1.7c-0.1-0.8-0.4-1.4-0.7-1.9
		c-0.3-0.5-0.7-1-1.2-1.3c-0.5-0.3-1-0.6-1.7-0.8c-0.6-0.2-1.3-0.3-2-0.3c-1,0-1.9,0.2-2.7,0.6c-0.8,0.4-1.4,0.9-1.9,1.5
		c-0.5,0.6-0.9,1.4-1.2,2.2c-0.3,0.8-0.4,1.7-0.4,2.7c0,0.8,0.1,1.7,0.4,2.4c0.3,0.8,0.7,1.5,1.2,2.1c0.5,0.6,1.2,1.1,1.9,1.4
		c0.8,0.4,1.6,0.5,2.6,0.5c0.8,0,1.5-0.1,2.3-0.4C227.5,100.7,228.1,100.3,228.6,99.6z M250.4,156.8c0,0.7,0.1,1.9,0.1,3.5
		c0,1.6,0,2.8-0.1,3.6h1.2v-1.2h3.7v0.9h1.2c0-0.7-0.1-1.8-0.1-3.4c0-1.6,0-2.8,0.1-3.5H250.4z M255.4,161.6h-3.7v-3.7h3.7V161.6z
		 M266.9,150.2c-0.2-0.4-0.4-0.8-0.6-1.2c-0.3,0.1-0.8,0.3-1.4,0.6c0.7,1.2,1.1,2,1.3,2.6c0.3-0.1,0.7-0.3,1.4-0.6
		C267.3,151.1,267.1,150.6,266.9,150.2z M220.9,159.8V158h0.8c0.6,0,1.1,0,1.7,0.1V157c-0.4,0-0.9,0.1-1.6,0.1h-0.9
		c0-0.8,0-1.4,0.1-1.8h-1.3c0,0.3,0.1,0.9,0.1,1.8h-1.1c0.1-0.4,0.2-0.6,0.5-0.8c-0.4-0.2-0.9-0.4-1.3-0.7c-0.1,0.5-0.3,1.1-0.5,1.6
		c-0.2,0.6-0.5,1-0.8,1.4c0.4,0.3,0.7,0.5,1,0.7c0.3-0.5,0.5-0.9,0.6-1.2h1.6v1.8h-1.4c-0.6,0-1.2,0-1.8-0.1v1.1
		c0.7,0,1.4-0.1,1.8-0.1h1.4v0.7c0,0.6,0,1.4-0.1,2.2h1.2c0-0.9-0.1-1.6-0.1-2.2v-0.7h0.5c0.9,0,1.7,0,2.6,0.1v-1.1
		c-0.9,0-1.7,0.1-2.6,0.1H220.9z M263.1,89.7v-1.4h-8.5v12.9h1.7v-5.9h5.9v-1.4h-5.9v-4.1H263.1z M267.6,161.9
		c-1.9-0.2-3.2-0.7-4-1.3c2.7-2.3,4.5-3.8,5.4-4.6c0.9-0.7,2.1-1.4,3.4-1.9v-1.2h-9.8c-0.7,0-1.5,0-2.3-0.1v1.2
		c0.9,0,1.7-0.1,2.4-0.1h6.8c-3.4,2.8-5.8,4.7-7.2,5.9c-1,0.3-2.1,1-3.5,2.4c0.4,0.1,0.9,0.5,1.4,1c1.3-1.4,2.1-2.1,2.5-1.9
		c0.3,0.2,0.9,0.5,1.7,0.9c0.8,0.5,1.9,0.8,3.2,1c1.3,0.2,3.2,0.2,5.8,0.2c0.1-0.7,0.3-1.2,0.5-1.6
		C271.6,162.1,269.5,162.1,267.6,161.9z M215.6,101.2V88.3H214v10.5h0l-6.8-10.5h-1.8v12.9h1.6V90.8h0l6.7,10.4H215.6z M214.6,151.9
		c0.3-0.5,0.6-0.9,0.9-1.2H212c0.2-0.6,0.4-0.9,0.8-1.1c-0.6-0.3-1-0.5-1.4-0.7c-0.4,1-0.8,1.9-1.3,2.7c-0.5,0.8-1.1,1.4-1.8,1.9
		c0.3,0.3,0.7,0.6,0.9,0.9c0.2-0.2,0.5-0.5,0.9-0.9c0,1.4,0,2.7,0,4.1c0,1.4-0.2,2.5-0.4,3.4c-0.2,0.9-0.5,1.6-1,2.2
		c0.4,0.2,0.9,0.4,1.2,0.7c0.4-0.8,0.7-1.5,0.8-2.2c0.2-0.7,0.3-1.4,0.3-2h1.4v3.1h1.1v-3.1h1.4v2.2c0,0.4-0.1,0.6-0.3,0.6
		c-0.2,0-0.4,0-0.8,0c0.2,0.4,0.3,0.8,0.4,1.3c0.6-0.1,1.1-0.2,1.3-0.4c0.3-0.2,0.4-0.5,0.4-0.9v-6.7c0-0.8,0-1.7,0.1-2.6h-2.4
		C214,152.8,214.2,152.4,214.6,151.9z M212.5,158.5h-1.3l0.1-1.8h1.2V158.5z M212.5,155.8h-1.2v-1.7h1.2V155.8z M212.5,153.1h-2.2
		c0.3-0.4,0.7-0.9,1-1.4h2.1C213.2,152.2,212.9,152.7,212.5,153.1z M215,158.5h-1.4v-1.8h1.4V158.5z M215,154.1v1.7h-1.4v-1.7H215z
		 M179.6,163.2c0.4,0.2,0.8,0.5,1.1,0.8c0.7-0.6,1.2-1.2,1.8-1.8c0.5-0.6,1.1-1.2,1.6-1.6c-0.4-0.3-0.9-0.5-1.3-0.9
		C181.8,161.3,180.7,162.5,179.6,163.2z M178.6,152.7c0.6-1.7,1.1-2.7,1.4-3c-0.5-0.2-1-0.4-1.6-0.7c-0.4,1.7-0.9,3.2-1.6,4.4
		c-0.7,1.2-1.2,2.1-1.7,2.6c0.4,0.3,0.7,0.6,1,0.8c0.5-0.7,0.9-1.4,1.2-2v6.9c0,0.7,0,1.4-0.1,2.2h1.4c0-0.7-0.1-1.5-0.1-2.4V152.7z
		 M172,150.9h-6c-0.9,0-1.7,0-2.4-0.1v1.3c0.2,0,0.5,0,0.8,0c0.4,3.2,1.3,5.7,2.5,7.7c-1.3,1.3-2.9,2.3-4.8,3c0.6,0.4,1,0.8,1.2,1.2
		c1.4-0.7,2.9-1.8,4.6-3.2c1.4,1.3,2.9,2.2,4.4,2.9c0.1-0.5,0.5-1,1.1-1.7c-1.7-0.2-3.2-1-4.6-2.2
		C170.3,157.6,171.4,154.6,172,150.9z M165.9,152c0,0,0.1,0,0.1,0h4.4c-0.4,2.8-1.2,5-2.4,6.7C166.9,157.2,166.2,154.9,165.9,152z
		 M186.8,159.7c-0.3,0.3-0.6,0.6-1,0.9c1.2,1.3,2.2,2.4,2.8,3.3c0.4-0.4,0.8-0.6,1.1-0.9c-0.4-0.5-1-1.1-1.5-1.8
		C187.6,160.6,187.2,160.1,186.8,159.7z M267.3,95.3h6.7v-1.4h-6.7v-4.1h7.2v-1.4h-8.9v12.9h9v-1.5h-7.3V95.3z M193.1,150.2v1.3
		c0.9,0,1.8-0.1,2.7-0.1h7.7c-2.6,1.7-4.3,2.6-4.9,2.9c0.1,0.4,0.1,1,0.1,2v5.1c0,0.5-0.1,0.8-0.4,0.8c-0.2,0.1-0.9,0.1-1.9,0.1
		c0.2,0.3,0.4,0.8,0.7,1.7c0.7-0.1,1.4-0.2,2-0.4c0.6-0.2,0.9-0.6,1-1.3V155c0.5-0.4,1.5-1,2.9-1.9c1.4-0.8,2.3-1.4,2.8-1.5v-1.4
		h-10C194.8,150.2,194,150.2,193.1,150.2z M187.1,157.8V154h0.9c0.8,0,1.3,0,1.6,0.1v-1.2c-0.5,0-1,0.1-1.6,0.1h-0.9v-1.9
		c0-0.6,0-1.1,0.1-1.6h-1.4c0,0.6,0.1,1.1,0.1,1.6v2h-2.4v-1.7c0-1,0-1.6,0.1-1.9h-1.4c0,0.4,0.1,1,0.1,1.8v1.8h-0.5
		c-0.6,0-1.2,0-1.6-0.1v1.2c0.4,0,1-0.1,1.6-0.1h0.5v3.8h-0.6c-0.8,0-1.4,0-2-0.1v1.1c0.5,0,1.2-0.1,2-0.1h6.5c0.6,0,1.2,0,1.8,0.1
		v-1.1c-0.6,0-1.1,0.1-1.5,0.1H187.1z M185.8,157.8h-2.4V154h2.4V157.8z M365.6,156.5c-1,1-2.1,1.9-3.3,2.8v-6.9
		c0-0.8,0-1.5,0.1-2.2H361c0,0.7,0.1,1.5,0.1,2.2v7c0,0.5-0.2,1.1-0.7,1.7c0.3,0.2,0.7,0.6,1.1,1.2c2-2.1,3.7-3.6,5.1-4.5
		C366.2,157.5,365.9,157,365.6,156.5z M336.8,153.6h2c0.8,0,1.4,0,1.8,0.1v-1.2c-0.4,0-1,0.1-1.9,0.1h-2.9c0-1.6,0-2.7,0.1-3.3h-1.3
		c0,0.7,0.1,1.8,0.1,3.3h-2.6c-0.7,0-1.3,0-1.8-0.1v1.2c0.5,0,1.1-0.1,1.8-0.1h1.3c-0.7,3.1-2,5.5-4.1,7.1c0.5,0.2,0.9,0.5,1.1,0.9
		c2-1.9,3.4-4.5,4.1-8h0.1v6.5c-0.6,0-1.4,0-2.2-0.1v1.2c0.9,0,1.6-0.1,2.2-0.1c0,0.8,0,1.8-0.1,3h1.3c0-1.1-0.1-2.1-0.1-3
		c1.1,0,1.8,0,2.2,0.1V160c-0.4,0-1.1,0.1-2.2,0.1v-6.4c0.6,3.4,2,5.9,4.4,7.7c0.2-0.5,0.6-0.9,1-1.1
		C338.9,158.7,337.4,156.4,336.8,153.6z M354.1,152.2c0.9,0,1.8,0,2.9,0.1v-1.2c-1,0-2,0.1-2.9,0.1h-2.4c-0.2-0.7-0.4-1.4-0.5-2.1
		c-0.5,0.1-1,0.2-1.6,0.3c0.2,0.6,0.4,1.2,0.5,1.8h-5.9c0.1,1.6,0.1,3.2,0.1,4.6c0,1.5-0.2,2.9-0.5,4.2c-0.3,1.3-0.7,2.3-1.2,3
		c0.3,0.3,0.7,0.7,1.1,1c0.6-1,1-2.1,1.3-3.2c0.3-1.1,0.4-2.2,0.5-3.3c0.1-1.1,0.1-2.8,0.1-5.3H354.1z M349,101.2h1.9l-5.1-12.9
		h-1.9l-5,12.9h1.8l1.5-3.9h5.5L349,101.2z M342.6,95.8l2.2-6h0l2.2,6H342.6z M329.1,152.7c0.5-1.6,0.9-2.6,1.2-2.9
		c-0.5-0.2-1-0.4-1.5-0.6c-0.2,1.1-0.6,2.4-1.3,4c-0.7,1.5-1.3,2.6-1.8,3.1c0.4,0.3,0.7,0.6,0.9,1c0.7-1,1.1-1.7,1.3-2.2v6.2
		c0,1.4,0,2.3-0.1,2.9h1.3c0-0.6-0.1-1.6-0.1-2.9V152.7z M370.9,158.8c0.6-1.4,1-3.2,1.2-5.1c0.2-2,0.4-3.2,0.7-3.7
		c-0.5-0.1-1.1-0.2-1.9-0.4c0,1.5-0.1,3.3-0.3,5.4c-0.3,2.1-1.1,3.8-2.4,5c-1.4,1.2-2.9,2.1-4.8,2.6c0.4,0.2,0.8,0.7,1.2,1.3
		c2-0.9,3.9-2.2,5.6-3.9c1.4,1.3,2.2,2.4,2.7,3.1c0.4-0.4,0.8-0.7,1.3-1C373.4,161.3,372.3,160.2,370.9,158.8z M321.4,159.1v-7.2
		c0-0.9,0-1.6,0.1-2.2h-9.7c0,0.6,0.1,1.4,0.1,2.3v7.1h-0.7c-0.9,0-1.6-0.1-2.1-0.1v1.2c0.5-0.1,1.3-0.1,2.2-0.1h11.1
		c0.7,0,1.3,0,1.8,0.1v-1.2c-0.6,0.1-1.2,0.1-1.9,0.1H321.4z M320.1,159.1h-6.8v-1.3h6.8V159.1z M320.1,156.8h-6.8v-1.4h6.8V156.8z
		 M320.1,154.4h-6.8V153h6.8V154.4z M320.1,152h-6.8v-1.4h6.8V152z M353.4,162.2c0.9-2.2,1.6-3.8,1.9-4.7c0.4-0.9,0.8-1.8,1.2-2.8
		c-0.6-0.1-1.2-0.4-1.8-0.7c-0.2,1.1-0.6,2.4-1,3.9c-0.5,1.5-1,2.9-1.6,4.2h-3.9c-0.8,0-1.7,0-2.6-0.1v1.3c1,0,1.9-0.1,2.6-0.1h6.9
		c0.7,0,1.4,0,2.1,0.1v-1.3c-0.7,0-1.4,0.1-2.1,0.1H353.4z M351.1,158.7c0.4-0.1,0.9-0.3,1.3-0.4c-0.4-1.6-0.7-3.1-1.2-4.5
		c-0.4,0.1-0.9,0.2-1.3,0.3C350.4,155.7,350.8,157.2,351.1,158.7z M310.8,99.4c0.3-0.5,0.5-1.1,0.5-1.8c0-0.6-0.1-1.2-0.4-1.6
		c-0.2-0.4-0.5-0.8-0.9-1.1c-0.4-0.3-0.8-0.5-1.3-0.7c-0.5-0.2-1-0.3-1.5-0.4c-0.5-0.1-1-0.2-1.5-0.3c-0.5-0.1-0.9-0.2-1.3-0.4
		c-0.4-0.2-0.7-0.4-0.9-0.6c-0.2-0.3-0.4-0.6-0.4-1c0-0.4,0.1-0.8,0.2-1.1c0.2-0.3,0.4-0.5,0.7-0.7c0.3-0.2,0.6-0.3,0.9-0.4
		c0.3-0.1,0.7-0.1,1.1-0.1c0.9,0,1.6,0.2,2.2,0.6c0.6,0.4,0.9,1.1,1,2h1.6c0-0.7-0.2-1.3-0.4-1.8c-0.2-0.5-0.6-0.9-1-1.3
		c-0.4-0.3-0.9-0.6-1.5-0.7c-0.6-0.1-1.2-0.2-1.8-0.2c-0.6,0-1.2,0.1-1.7,0.2c-0.6,0.1-1.1,0.4-1.5,0.7c-0.4,0.3-0.8,0.7-1.1,1.2
		c-0.3,0.5-0.4,1-0.4,1.7c0,0.6,0.1,1.1,0.4,1.5c0.2,0.4,0.5,0.7,0.9,1c0.4,0.2,0.8,0.4,1.3,0.6c0.5,0.2,1,0.3,1.5,0.4
		c0.5,0.1,1,0.2,1.5,0.3c0.5,0.1,0.9,0.2,1.3,0.4c0.4,0.2,0.7,0.4,0.9,0.7c0.2,0.3,0.4,0.6,0.4,1.1c0,0.5-0.1,0.9-0.3,1.2
		c-0.2,0.3-0.4,0.5-0.8,0.7c-0.3,0.2-0.7,0.3-1.1,0.4c-0.4,0.1-0.8,0.1-1.2,0.1c-0.5,0-1-0.1-1.4-0.2c-0.5-0.1-0.9-0.3-1.2-0.6
		c-0.3-0.3-0.6-0.6-0.8-1c-0.2-0.4-0.3-0.9-0.3-1.4h-1.6c0,0.8,0.1,1.5,0.4,2c0.3,0.6,0.7,1,1.2,1.4c0.5,0.4,1.1,0.6,1.7,0.8
		c0.6,0.2,1.3,0.3,2.1,0.3c0.6,0,1.2-0.1,1.8-0.2c0.6-0.1,1.1-0.4,1.6-0.7C310.1,100.3,310.5,99.9,310.8,99.4z M295.4,158.8
		c-0.4-0.1-0.7,0-1,0.2c-0.3,0.2-0.4,0.4-0.5,0.6c0,0.2,0,0.4,0,0.6c0.1,0.2,0.2,0.4,0.4,0.5c0.2,0.1,0.5,0.2,0.9,0.2
		c-0.2,0.6-0.4,1-0.6,1.3c-0.2,0.3-0.5,0.6-0.8,0.8c-0.3,0.2-0.2,0.3,0.1,0.2c0.3,0,0.8-0.3,1.2-0.8c0.5-0.5,0.8-1,0.9-1.6
		c0.2-0.5,0.2-1,0.1-1.3C296,159.1,295.8,158.9,295.4,158.8z M277.6,154.5c0,2,0,3.4-0.1,4.3c-0.1,0.9-0.3,1.7-0.5,2.5
		c-0.3,0.8-0.7,1.5-1.2,2.2c0.4,0.2,0.9,0.4,1.3,0.7c0.3-0.5,0.6-1,0.8-1.5c0.2-0.5,0.4-1.1,0.6-1.8c0.2-0.7,0.3-1.5,0.4-2.5h3.7
		v2.6c0,1,0,1.8-0.1,2.5h1.4c0-0.7-0.1-1.5-0.1-2.6v-2.6h4v3.3c0,0.3-0.1,0.5-0.3,0.6c-0.1,0.1-0.6,0.1-1.5,0.1
		c0.2,0.4,0.4,0.9,0.5,1.6c0.7-0.1,1.3-0.2,1.8-0.5c0.5-0.2,0.8-0.8,0.8-1.7v-8.8c0-1,0-2.1,0.1-3.4h-11.7
		C277.6,150.9,277.6,152.5,277.6,154.5z M283.9,150.7h4v2.9h-4V150.7z M283.9,154.7h4v2.8h-4V154.7z M278.9,150.7h3.7v2.9h-3.7
		V150.7z M278.9,154.7h3.7v2.8h-3.7V154.7z M296.6,98.8L296.6,98.8l-6.8-10.5H288v12.9h1.6V90.8h0l6.7,10.4h1.9V88.3h-1.6V98.8z
		 M318.8,160.3c-0.3,0.4-0.6,0.8-0.9,1.2c2.3,1,3.8,1.9,4.7,2.6c0.3-0.4,0.6-0.8,1-1.2c-0.8-0.5-1.7-1-2.7-1.4
		C320.1,160.9,319.3,160.6,318.8,160.3z M314.3,160.3c-1.3,1.2-2.9,2.1-4.6,2.8c0.3,0.4,0.6,0.8,0.9,1.2c1.2-0.6,2.2-1.1,3-1.6
		c0.8-0.5,1.4-0.9,1.9-1.1C315,161.2,314.6,160.8,314.3,160.3z M277.5,78.8c0.4-0.6,0.6-1.5,0.6-2.6v-3.7h4v-3.1h-4v-2.1h4.1v-3.1
		h-14.8c0.2-0.6,0.4-1.2,0.6-1.8h11.9v-3h-11.1c0.1-0.6,0.3-1.2,0.4-1.8h12v-3.1h-11.5l0.3-2.2h-4c-0.1,0.8-0.2,1.5-0.3,2.2h-10.6
		v3.1h10c-0.1,0.6-0.3,1.2-0.5,1.8h-8.3v3h7.4c-0.2,0.6-0.5,1.3-0.8,1.8h-8.7v3.1h6.8c-1.9,2.6-4.3,4.9-7.2,6.9
		c0.9,1.2,1.7,2.3,2.4,3.5c2.2-1.6,4.1-3.4,5.8-5.2h2.1l-1.8,1.9c1.4,1.2,2.9,2.4,4.2,3.8l2.7-2.9c-1.2-1-2.4-1.9-3.6-2.8h8.5V75
		c0,0.6-0.2,1-0.5,1.3c-0.3,0.3-0.9,0.4-1.7,0.4c-1.1,0-2.3,0-3.6-0.1c0.3,1.2,0.6,2.5,0.9,3.9c3.5,0,5.6-0.1,6.3-0.3
		C276.5,79.9,277.1,79.5,277.5,78.8z M274.2,69.5h-9.6c0.5-0.7,0.9-1.4,1.3-2.1h8.3V69.5z M161.7,152.7c0.7-1.7,1.2-2.8,1.5-3.2
		c-0.6-0.2-1.1-0.4-1.7-0.6c-0.3,1.3-0.8,2.6-1.5,4c-0.7,1.4-1.4,2.4-1.9,3c0.4,0.3,0.8,0.6,1.1,1c0.3-0.5,0.7-1.1,1.2-2v6.2
		c0,1.1,0,2.1-0.1,2.9h1.5c0-0.7-0.1-1.7-0.1-2.9V152.7z"/>
</g>
<g>
</g>
<g>
</g>
<g>
</g>
<g>
</g>
<g>
</g>
<g>
</g>
<g>
</g>
<g>
</g>
<g>
</g>
<g>
</g>
<g>
</g>
<g>
</g>
<g>
</g>
<g>
</g>
<g>
</g>
</svg>
