<?xml version="1.0" encoding="utf-8"?>
<!-- Generator: Adobe Illustrator 17.0.0, SVG Export Plug-In . SVG Version: 6.00 Build 0)  -->
<!DOCTYPE svg PUBLIC "-//W3C//DTD SVG 1.1//EN" "http://www.w3.org/Graphics/SVG/1.1/DTD/svg11.dtd">
<svg version="1.1" id="Layer_1" xmlns="http://www.w3.org/2000/svg" xmlns:xlink="http://www.w3.org/1999/xlink" x="0px" y="0px"
	 width="640px" height="220.9px" viewBox="0 0 640 220.9" style="enable-background:new 0 0 640 220.9;" xml:space="preserve">
<style type="text/css">
	.st0{fill:#AF7A37;}
	.st1{fill:none;stroke:#D9B670;stroke-width:0.216;stroke-miterlimit:22.9256;}
	.st2{fill:#AB1929;}
	.st3{fill:none;}
</style>
<g id="page-7-logo.svg">
	<path class="st0" d="M429,51.8L429,51.8v-5.6h4v5.6H429z M421.1,46.2L421.1,46.2h4v5.6h-4V46.2z M429,44.8L429,44.8v-4.9h4v4.9H429
		z M421.1,39.8L421.1,39.8h4v4.9h-4V39.8z M422.7,32.8L422.7,32.8h8.8v-4.5h-8.8V32.8z M410.7,30.3L410.7,30.3
		c-1.5,3.9-3.9,7.5-7.2,10.7h1c1.5-1.1,2.7-2.2,3.8-3.2v17.4h4V35.9c0.8,1.3,1.7,2.6,2.8,3.9c0.9-0.5,1.6-1.2,2-2.3v17.6h4v-2h12v2
		h4V37h-4v1.4h-12V37h-4c-1.3-0.6-2.9-1.3-4.6-2.3v-0.7c1.6-2.4,2.6-4.7,3-6.9h-4.2l-0.2,1.7h-7.2v1.4H410.7z M418.7,35.6
		L418.7,35.6v-9.8h4v1.1h8.8v-1.1h4v9.8h-4v-1.4h-8.8v1.4H418.7z M438.2,21.5L438.2,21.5V23h-22.3v-1.4H438.2z M407.9,20.3l0.2-0.1
		c1.7,0.8,3.7,1.9,5.8,3.1c-0.3,1.1-0.8,2.2-1.6,3.1C410.4,24.9,409,22.9,407.9,20.3z"/>
	<path class="st1" d="M429,51.8L429,51.8v-5.6h4v5.6H429z M421.1,46.2L421.1,46.2h4v5.6h-4V46.2z M429,44.8L429,44.8v-4.9h4v4.9H429
		z M421.1,39.8L421.1,39.8h4v4.9h-4V39.8z M422.7,32.8L422.7,32.8h8.8v-4.5h-8.8V32.8z M410.7,30.3L410.7,30.3
		c-1.5,3.9-3.9,7.5-7.2,10.7h1c1.5-1.1,2.7-2.2,3.8-3.2v17.4h4V35.9c0.8,1.3,1.7,2.6,2.8,3.9c0.9-0.5,1.6-1.2,2-2.3v17.6h4v-2h12v2
		h4V37h-4v1.4h-12V37h-4c-1.3-0.6-2.9-1.3-4.6-2.3v-0.7c1.6-2.4,2.6-4.7,3-6.9h-4.2l-0.2,1.7h-7.2v1.4H410.7z M418.7,35.6
		L418.7,35.6v-9.8h4v1.1h8.8v-1.1h4v9.8h-4v-1.4h-8.8v1.4H418.7z M438.2,21.5L438.2,21.5V23h-22.3v-1.4H438.2z M407.9,20.3l0.2-0.1
		c1.7,0.8,3.7,1.9,5.8,3.1c-0.3,1.1-0.8,2.2-1.6,3.1C410.4,24.9,409,22.9,407.9,20.3z"/>
	<path class="st0" d="M417.5,76.6L417.5,76.6c1.7,4.2,2.9,6.6,3.4,7c0.8-0.5,1.5-1.4,2.2-2.7c-1.6-1.5-3.4-3-5.4-4.5L417.5,76.6z
		 M430.2,75.6L430.2,75.6c-0.4,8.9,2.1,14.6,7.6,17c0.1,0,0.1-0.3,0-1c-0.1-1.7,0.3-2.9,1.2-3.7c-2.9-0.9-4.9-2.5-5.8-4.6l3.4-6.6
		l-1.6-0.6l-2.6,5.3c-0.7-1.1-1.2-2.7-1.6-4.8c-0.1-0.5-0.2-0.8-0.2-1.1H430.2z M403.5,70L403.5,70h8c-0.7,4-3.2,8.5-7.6,13.5h1.2
		c0.4-0.4,1.1-1,2-2c0.8-0.8,1.5-1.5,2-2v15.6h4V77.3c1.2,2.2,2.3,3.8,3.2,4.8c0.4-0.2,0.8-1.1,1.2-2.8c-0.4-0.3-1.7-1.5-4-3.7
		c1.7-2.9,2.7-5.6,2.8-8.2h-4.8v1.1h-8V70z M430.6,63.8L430.6,63.8h-13.2v-1.4h13.2v-1.7h4v7.9c-0.3,1.9-1.5,3.5-3.6,4.8h7.2v1.4
		h-8.8v16.7c0.3,2.1-2,3.4-6.8,3.9c-0.1-0.4-0.8-0.5-2-0.3l-2.2,0.4l-0.4-0.6c5.6-0.9,8-2.1,7.4-3.5v-8.3c-2.3,4.5-5.3,7.4-9.2,8.6
		c0.7-1.9,0.4-3.3-0.8-4.4c5.3-0.8,8.6-2.6,10-5.3v-7.3h-9.2v-1.4h13.3c0.8-1.3,1.1-2.7,1-4.2h-12v-1.4h12V63.8z M408.1,61v-0.1
		c2.1,0.7,4.2,1.5,6.2,2.7c-0.7,1.2-1.3,2.2-2,2.8C411,65.1,409.6,63.3,408.1,61z"/>
	<path class="st1" d="M417.5,76.6L417.5,76.6c1.7,4.2,2.9,6.6,3.4,7c0.8-0.5,1.5-1.4,2.2-2.7c-1.6-1.5-3.4-3-5.4-4.5L417.5,76.6z
		 M430.2,75.6L430.2,75.6c-0.4,8.9,2.1,14.6,7.6,17c0.1,0,0.1-0.3,0-1c-0.1-1.7,0.3-2.9,1.2-3.7c-2.9-0.9-4.9-2.5-5.8-4.6l3.4-6.6
		l-1.6-0.6l-2.6,5.3c-0.7-1.1-1.2-2.7-1.6-4.8c-0.1-0.5-0.2-0.8-0.2-1.1H430.2z M403.5,70L403.5,70h8c-0.7,4-3.2,8.5-7.6,13.5h1.2
		c0.4-0.4,1.1-1,2-2c0.8-0.8,1.5-1.5,2-2v15.6h4V77.3c1.2,2.2,2.3,3.8,3.2,4.8c0.4-0.2,0.8-1.1,1.2-2.8c-0.4-0.3-1.7-1.5-4-3.7
		c1.7-2.9,2.7-5.6,2.8-8.2h-4.8v1.1h-8V70z M430.6,63.8L430.6,63.8h-13.2v-1.4h13.2v-1.7h4v7.9c-0.3,1.9-1.5,3.5-3.6,4.8h7.2v1.4
		h-8.8v16.7c0.3,2.1-2,3.4-6.8,3.9c-0.1-0.4-0.8-0.5-2-0.3l-2.2,0.4l-0.4-0.6c5.6-0.9,8-2.1,7.4-3.5v-8.3c-2.3,4.5-5.3,7.4-9.2,8.6
		c0.7-1.9,0.4-3.3-0.8-4.4c5.3-0.8,8.6-2.6,10-5.3v-7.3h-9.2v-1.4h13.3c0.8-1.3,1.1-2.7,1-4.2h-12v-1.4h12V63.8z M408.1,61v-0.1
		c2.1,0.7,4.2,1.5,6.2,2.7c-0.7,1.2-1.3,2.2-2,2.8C411,65.1,409.6,63.3,408.1,61z"/>
	<path class="st2" d="M422.1,136.5L422.1,136.5l-0.5,1.8h0.8v-1.8H422.1z M423.6,136.2L423.6,136.2v0.8h0.5l0.3-1.5h-0.3
		L423.6,136.2z M425.7,146L425.7,146v0.5h0.3c2.6-1.7,3.9-2.9,3.9-3.6l-0.3-1c0-1,0.8-3.4,2.3-7l0.5-1.3h-0.5
		c-2.6,0-4.2,3.2-4.9,9.6L425.7,146z M434.5,140.4L434.5,140.4l1,4.7c-1.4,1.4-3,2.3-4.9,2.8l-0.8-0.3l-2.6,0.5
		c1.9,3.1,4,4.7,6.2,4.7h0.8c1.9-7.8,2.8-13.2,2.8-16.3v-2.1c0-1-0.3-1.6-1-1.8C435.7,132.6,435.2,135.2,434.5,140.4z M413.3,137.3
		L413.3,137.3c5-2.9,9.1-5,12.4-6.2l0.8-2.8l-0.5-1h-0.3c-4.5,0.9-8.1,3-10.9,6.5C413.8,135.2,413.3,136.4,413.3,137.3z M400,115.8
		L400,115.8v1.3l-0.5,2.3c-2.8,6.9-5.1,13.6-7,20.2c-3.5,0.5-5.2,1.2-5.2,2.1v0.3l0.3,0.3c-0.7,0-1.1,0.8-1.3,2.3
		c0.9,1.4,1.4,2.8,1.6,4.1l-1,2.8l3.1,5.4c4-0.9,6-1.9,6-3.1v-2.3l-0.3-3.9l3.9-3.1l8-9.6v-0.5l-0.3-0.3c1.2-1.4,2.2-2.7,2.8-3.9
		v-0.5h-0.3c-3.6,2.9-6.1,4.4-7.5,4.4l-6,3.4h-0.5l2.1-4.4c2.4-0.2,4.7-1,6.7-2.6l-4.4-12.9l0.5-0.3v-1.6H400z M422.3,115L422.3,115
		l-0.3,3.4h0.5l1.8-3.4v-0.3L422.3,115z M398.8,100.2L398.8,100.2v0.3c1.6,1.4,2.3,3.2,2.3,5.4l-0.3,1.5l0.5,1.6l-1,6h0.8
		c0-1,0.4-1.8,1.3-2.3h1l0.5,1c1,0,1.7,0.2,2.1,0.5h0.3l3.1-3.4v-1.6C405.2,103.2,401.7,100.2,398.8,100.2z M438.6,92.5h0.3
		c2.2,2.2,3.4,4.1,3.4,5.7v1.3c0,3.1-3.5,8.7-10.6,16.8v0.5c0.7,0,1,0.2,1,0.5l1.5-0.3c3.1,1.6,4.7,2.6,4.7,3.1v0.3
		c0,0.7-0.4,1-1.3,1v0.5l0.3,0.5v0.3c-1,0.7-3.2,1.4-6.5,2.1c0,0.3-0.6,0.5-1.8,0.5l-0.5,1l0.8,2.1l-0.3,1.8c3.5-0.7,5.8-1.6,7-2.6
		l6.5,2.8l0.5,1.3c-1,18-3.1,26.9-6.2,26.9c-1.7,0-4.3-1.6-7.8-4.9l-2.6-2.6c-0.7,0-1.2-1-1.6-3.1h-1.5v-0.5h0.5v-0.5
		c0-0.5-0.4-0.8-1-0.8l-0.8-1.3l0.3-4.4l-0.3-0.3h-0.3c-1.2,1.2-1.8,2.9-1.8,5.2c-0.7,0.7-1.7,1.2-3.1,1.5c-0.9-1.2-1.3-2.1-1.3-2.6
		c0-0.9,0.8-3.1,2.3-6.7c-3.4,1.9-5.2,4.3-5.2,7.3l-1.8,4.1h0.5v2.1c-0.9,2.8-2.3,4.1-4.1,4.1h-0.5c-0.7-0.3-1.3-1.3-1.8-2.8
		l0.8-3.1L405,146h0.5l-0.5-0.5v-1c4.3-3.3,7.2-6.7,8.5-10.1l2.3-2.9h-0.8v-0.8h0.8v-0.3h-0.5l-3.1,1l-1.6-2.3l1.8-5.7l5.2-0.8V122
		l-1.5-1.8l0.3-3.1v-0.3h-1.6l-1.5-1.8v-1.6c3.4,0,5.2-1.1,5.2-3.4l2.1-10.1h0.5c0.3,0,0.9,3.5,1.5,10.6l1-0.3v0.3
		c4.3-1,7.2-3,8.8-6c3.5-4.8,5.2-7.8,5.2-8.8V95h-1v-0.5L438.6,92.5z"/>
	<path class="st0" d="M405.2,205.5L405.2,205.5h14.7v-7.1h-10.7v-2.2h10.7V191h4.4v5.2h10.3v2.2h-10.3v7.1h14.3v2.2h-33.3V205.5z
		 M428.6,186.9L428.6,186.9h-13.5v-6.7h13.5V186.9z M415.2,191L415.2,191v-2h13.5v2h4v-14.7h-4v1.6h-13.5v-1.6h-4V191H415.2z
		 M415.2,170.8h5.2v-11.1h4v11.1h2l5.6-9.5l1.8,1.2l-5,8.3h5.9v-1.6h4v8.7c-0.3,0-0.5-0.1-0.8-0.2c-0.3-0.4-0.5-0.6-0.8-0.6
		c-0.8,0-1.5,0.8-2,2.4h-0.4V173h-25v4.6h-4v-8.7h4v2h4.4c-0.7-1.2-2-4.4-4-9.7l0.2-0.2c1.9,1.3,4,2.9,6.3,4.8
		C416.4,166.8,416,168.5,415.2,170.8z"/>
	<path class="st1" d="M405.2,205.5L405.2,205.5h14.7v-7.1h-10.7v-2.2h10.7V191h4.4v5.2h10.3v2.2h-10.3v7.1h14.3v2.2h-33.3V205.5z
		 M428.6,186.9L428.6,186.9h-13.5v-6.7h13.5V186.9z M415.2,191L415.2,191v-2h13.5v2h4v-14.7h-4v1.6h-13.5v-1.6h-4V191H415.2z
		 M415.2,170.8h5.2v-11.1h4v11.1h2l5.6-9.5l1.8,1.2l-5,8.3h5.9v-1.6h4v8.7c-0.3,0-0.5-0.1-0.8-0.2c-0.3-0.4-0.5-0.6-0.8-0.6
		c-0.8,0-1.5,0.8-2,2.4h-0.4V173h-25v4.6h-4v-8.7h4v2h4.4c-0.7-1.2-2-4.4-4-9.7l0.2-0.2c1.9,1.3,4,2.9,6.3,4.8
		C416.4,166.8,416,168.5,415.2,170.8z"/>
	<path class="st0" d="M460,98.1L460,98.1c0-0.5-0.3-0.9-0.9-1.2c-0.6-0.4-1.6-0.6-2.8-0.6c-0.8,0-1.6,0.1-2.4,0.4
		c-0.8,0.3-1.1,0.8-1.1,1.4c0,0.3,0.1,0.6,0.2,0.8c0.1,0.2,0.3,0.3,0.6,0.3h1.5c0.2,0,0.3,0,0.4-0.1c0.1-0.1,0.1-0.2,0.1-0.4v-0.3
		h0.3v2.3h-0.3v-0.2c0-0.2,0-0.3-0.1-0.4c-0.1-0.1-0.2-0.1-0.4-0.1h-2.3c0-0.1,0.1-0.1,0.1-0.2c0,0,0-0.1,0-0.2c0-0.1,0-0.1,0-0.2
		c0-0.1-0.1-0.1-0.1-0.2c-0.1-0.2-0.3-0.4-0.3-0.6c-0.1-0.2-0.1-0.4-0.1-0.7c0-0.9,0.4-1.6,1.2-2c0.8-0.4,1.7-0.6,2.6-0.6
		c1.1,0,2.1,0.2,2.9,0.7c0.8,0.5,1.2,1.1,1.2,1.9c0,0.2,0,0.4-0.1,0.6c-0.1,0.2-0.1,0.4-0.1,0.5c0,0.1,0,0.2,0.1,0.3
		c0,0.1,0.1,0.2,0.2,0.2l-2,0.4l-0.1-0.3c0.6-0.2,1.1-0.4,1.4-0.7C459.9,98.8,460,98.5,460,98.1z M454.4,92.8L454.4,92.8L454.4,92.8
		l5.3,0.1c0.1,0,0.2,0,0.3-0.1c0.1-0.1,0.1-0.2,0.1-0.3v-0.4h0.3v1.8H460v-0.4c0-0.1,0-0.2-0.1-0.3c-0.1-0.1-0.1-0.1-0.3-0.1h-7.1
		v-0.3v0l6.7-3.4v-0.1h-6.1c-0.1,0-0.2,0-0.3,0.1c-0.1,0.1-0.1,0.2-0.1,0.3v0.4h-0.3v-1.8h0.3v0.4c0,0.2,0,0.3,0.1,0.3
		c0.1,0.1,0.2,0.1,0.3,0.1h6.4c0.1,0,0.2,0,0.3-0.1c0.1-0.1,0.1-0.2,0.1-0.4v-0.3h0.3v1.4L454.4,92.8z M459.5,84.1L459.5,84.1
		L459.5,84.1l-3.7-1V85L459.5,84.1z M455.4,85L455.4,85v-2l-1.7-0.4c-0.3-0.1-0.5-0.1-0.7,0c-0.2,0.1-0.2,0.2-0.2,0.4v0.1h-0.3v-1.7
		h0.3v0.1c0,0.1,0,0.2,0.1,0.3c0.1,0.1,0.2,0.2,0.4,0.2l6.9,1.8l0.2,0.7l-7.1,1.7c-0.2,0.1-0.3,0.1-0.4,0.2
		c-0.1,0.1-0.1,0.2-0.1,0.3v0.1h-0.3V85h0.3v0.2c0,0.2,0.1,0.3,0.2,0.3c0.1,0,0.3,0,0.5,0L455.4,85z M452.6,78.4L452.6,78.4v-2.3
		h0.3v0.4c0,0.2,0,0.3,0.1,0.3c0.1,0.1,0.2,0.1,0.3,0.1h6.3c0.2,0,0.4,0,0.4,0c0,0,0-0.2,0-0.4c0-0.4-0.1-0.7-0.2-0.9
		c-0.2-0.2-0.6-0.4-1.2-0.6l0-0.3l1.7,0.4v4.3l-1.7,0.4l0-0.2c0.6-0.2,1-0.4,1.2-0.6c0.2-0.1,0.2-0.4,0.2-0.8c0-0.3,0-0.5,0-0.5
		c0,0-0.2,0-0.5,0h-6.3c-0.1,0-0.2,0-0.3,0.1c-0.1,0.1-0.1,0.2-0.1,0.3v0.4H452.6z M454.4,72L454.4,72L454.4,72l5.3,0.1
		c0.1,0,0.2,0,0.3-0.1c0.1-0.1,0.1-0.2,0.1-0.3v-0.4h0.3v1.8H460v-0.4c0-0.1,0-0.2-0.1-0.3c-0.1-0.1-0.1-0.1-0.3-0.1h-7.1v-0.3v0
		l6.7-3.4v-0.1h-6.1c-0.1,0-0.2,0-0.3,0.1c-0.1,0.1-0.1,0.2-0.1,0.3v0.4h-0.3v-1.8h0.3v0.4c0,0.2,0,0.3,0.1,0.3
		c0.1,0.1,0.2,0.1,0.3,0.1h6.4c0.1,0,0.2,0,0.3-0.1c0.1-0.1,0.1-0.2,0.1-0.4v-0.3h0.3V69L454.4,72z M459.5,63.3L459.5,63.3
		L459.5,63.3l-3.7-1v1.9L459.5,63.3z M455.4,64.2L455.4,64.2v-2l-1.7-0.4c-0.3-0.1-0.5-0.1-0.7,0c-0.2,0.1-0.2,0.2-0.2,0.4v0.1h-0.3
		v-1.7h0.3v0.1c0,0.1,0,0.2,0.1,0.3c0.1,0.1,0.2,0.2,0.4,0.2l6.9,1.8l0.2,0.7l-7.1,1.7c-0.2,0.1-0.3,0.1-0.4,0.2
		c-0.1,0.1-0.1,0.2-0.1,0.3v0.1h-0.3v-1.9h0.3v0.2c0,0.2,0.1,0.3,0.2,0.3c0.1,0,0.3,0,0.5,0L455.4,64.2z M453.2,58.7L453.2,58.7
		c-0.1,0-0.2,0-0.3,0.1c-0.1,0.1-0.1,0.2-0.1,0.3v0.2h-0.3v-1.9h0.3v0.2c0,0.2,0,0.3,0.1,0.3c0.1,0.1,0.2,0.1,0.3,0.1h5.9v-0.1
		l-6.5-1.5v-0.3l6.4-1.4v-0.1h-5.8c-0.1,0-0.2,0-0.3,0.1c-0.1,0.1-0.1,0.2-0.1,0.3v0.1h-0.3v-1.4h0.3v0.1c0,0.1,0,0.3,0.1,0.3
		c0.1,0.1,0.2,0.1,0.3,0.1h6.4c0.1,0,0.2,0,0.3-0.1c0.1-0.1,0.1-0.2,0.1-0.3v-0.2h0.3v1.3l-5.9,1.3v0.1l5.9,1.4v1.4H460v-0.2
		c0-0.1,0-0.2-0.1-0.3c-0.1-0.1-0.1-0.1-0.3-0.1H453.2z M452.8,45L452.8,45c0,0.5,0.2,0.8,0.4,1.1c0.3,0.3,0.7,0.5,1.1,0.5h5.2
		c0.1,0,0.2,0,0.3-0.1c0.1-0.1,0.1-0.2,0.1-0.3V46h0.3v1.6H460v-0.3c0-0.1,0-0.2-0.1-0.3c-0.1-0.1-0.1-0.1-0.3-0.1h-5.2
		c-0.6,0-1.1-0.2-1.4-0.6c-0.3-0.4-0.5-0.9-0.5-1.4c0-0.5,0.1-1,0.5-1.4c0.3-0.4,0.8-0.6,1.4-0.6h5.3c0.1,0,0.2,0,0.3-0.1
		c0.1-0.1,0.1-0.2,0.1-0.3v-0.2h0.3v2H460v-0.2c0-0.1,0-0.2-0.1-0.3c-0.1-0.1-0.1-0.1-0.3-0.1h-5.3c-0.6,0-1,0.1-1.2,0.4
		C452.9,44.3,452.8,44.6,452.8,45z M453.2,37L453.2,37c-0.1,0-0.2,0-0.3,0.1c-0.1,0.1-0.1,0.2-0.1,0.3v1.2c0,0.4,0.1,0.8,0.4,1.1
		c0.3,0.3,0.7,0.5,1.2,0.7l-0.1,0.2l-1.8-0.4v-4.6h0.3v0.3c0,0.2,0,0.3,0.1,0.3c0.1,0.1,0.2,0.1,0.3,0.1h6.4c0.1,0,0.2,0,0.3-0.1
		c0.1-0.1,0.1-0.2,0.1-0.3v-0.3h0.3v2.2H460v-0.3c0-0.1,0-0.2-0.1-0.3c-0.1-0.1-0.1-0.1-0.3-0.1H453.2z M452.8,31.2L452.8,31.2
		c0,0.5,0.2,0.8,0.4,1.1c0.3,0.3,0.7,0.5,1.1,0.5h5.2c0.1,0,0.2,0,0.3-0.1c0.1-0.1,0.1-0.2,0.1-0.3v-0.3h0.3v1.6H460v-0.3
		c0-0.1,0-0.2-0.1-0.3c-0.1-0.1-0.1-0.1-0.3-0.1h-5.2c-0.6,0-1.1-0.2-1.4-0.6c-0.3-0.4-0.5-0.9-0.5-1.4c0-0.5,0.1-1,0.5-1.4
		c0.3-0.4,0.8-0.6,1.4-0.6h5.3c0.1,0,0.2,0,0.3-0.1c0.1-0.1,0.1-0.2,0.1-0.3v-0.2h0.3v2H460v-0.2c0-0.1,0-0.2-0.1-0.3
		c-0.1-0.1-0.1-0.1-0.3-0.1h-5.3c-0.6,0-1,0.1-1.2,0.4C452.9,30.4,452.8,30.8,452.8,31.2z M452.8,23.8h-0.3v-2.2h0.3v0.3
		c0,0.2,0,0.3,0.1,0.3c0.1,0.1,0.2,0.1,0.3,0.1h6.4c0.1,0,0.2,0,0.3-0.1c0.1-0.1,0.1-0.2,0.1-0.3v-0.3h0.3v4.7l-1.6,0.5l-0.1-0.2
		c0.5-0.2,0.8-0.5,1.1-0.9c0.2-0.3,0.4-0.7,0.4-1.1v-1.3c0-0.1,0-0.2-0.1-0.3c-0.1-0.1-0.1-0.1-0.3-0.1h-2.9v1.5
		c0,0.3,0.1,0.5,0.2,0.7c0.1,0.1,0.4,0.2,0.7,0.2h0.2v0.3h-2.6v-0.3h0.2c0.4,0,0.6-0.1,0.8-0.2c0.2-0.1,0.3-0.4,0.3-0.7v-1.5h-3.3
		c-0.1,0-0.2,0-0.3,0.1c-0.1,0.1-0.1,0.2-0.1,0.3V23.8z"/>
	<path class="st1" d="M460,98.1L460,98.1c0-0.5-0.3-0.9-0.9-1.2c-0.6-0.4-1.6-0.6-2.8-0.6c-0.8,0-1.6,0.1-2.4,0.4
		c-0.8,0.3-1.1,0.8-1.1,1.4c0,0.3,0.1,0.6,0.2,0.8c0.1,0.2,0.3,0.3,0.6,0.3h1.5c0.2,0,0.3,0,0.4-0.1c0.1-0.1,0.1-0.2,0.1-0.4v-0.3
		h0.3v2.3h-0.3v-0.2c0-0.2,0-0.3-0.1-0.4c-0.1-0.1-0.2-0.1-0.4-0.1h-2.3c0-0.1,0.1-0.1,0.1-0.2c0,0,0-0.1,0-0.2c0-0.1,0-0.1,0-0.2
		c0-0.1-0.1-0.1-0.1-0.2c-0.1-0.2-0.3-0.4-0.3-0.6c-0.1-0.2-0.1-0.4-0.1-0.7c0-0.9,0.4-1.6,1.2-2c0.8-0.4,1.7-0.6,2.6-0.6
		c1.1,0,2.1,0.2,2.9,0.7c0.8,0.5,1.2,1.1,1.2,1.9c0,0.2,0,0.4-0.1,0.6c-0.1,0.2-0.1,0.4-0.1,0.5c0,0.1,0,0.2,0.1,0.3
		c0,0.1,0.1,0.2,0.2,0.2l-2,0.4l-0.1-0.3c0.6-0.2,1.1-0.4,1.4-0.7C459.9,98.8,460,98.5,460,98.1z M454.4,92.8L454.4,92.8L454.4,92.8
		l5.3,0.1c0.1,0,0.2,0,0.3-0.1c0.1-0.1,0.1-0.2,0.1-0.3v-0.4h0.3v1.8H460v-0.4c0-0.1,0-0.2-0.1-0.3c-0.1-0.1-0.1-0.1-0.3-0.1h-7.1
		v-0.3v0l6.7-3.4v-0.1h-6.1c-0.1,0-0.2,0-0.3,0.1c-0.1,0.1-0.1,0.2-0.1,0.3v0.4h-0.3v-1.8h0.3v0.4c0,0.2,0,0.3,0.1,0.3
		c0.1,0.1,0.2,0.1,0.3,0.1h6.4c0.1,0,0.2,0,0.3-0.1c0.1-0.1,0.1-0.2,0.1-0.4v-0.3h0.3v1.4L454.4,92.8z M459.5,84.1L459.5,84.1
		L459.5,84.1l-3.7-1V85L459.5,84.1z M455.4,85L455.4,85v-2l-1.7-0.4c-0.3-0.1-0.5-0.1-0.7,0c-0.2,0.1-0.2,0.2-0.2,0.4v0.1h-0.3v-1.7
		h0.3v0.1c0,0.1,0,0.2,0.1,0.3c0.1,0.1,0.2,0.2,0.4,0.2l6.9,1.8l0.2,0.7l-7.1,1.7c-0.2,0.1-0.3,0.1-0.4,0.2
		c-0.1,0.1-0.1,0.2-0.1,0.3v0.1h-0.3V85h0.3v0.2c0,0.2,0.1,0.3,0.2,0.3c0.1,0,0.3,0,0.5,0L455.4,85z M452.6,78.4L452.6,78.4v-2.3
		h0.3v0.4c0,0.2,0,0.3,0.1,0.3c0.1,0.1,0.2,0.1,0.3,0.1h6.3c0.2,0,0.4,0,0.4,0c0,0,0-0.2,0-0.4c0-0.4-0.1-0.7-0.2-0.9
		c-0.2-0.2-0.6-0.4-1.2-0.6l0-0.3l1.7,0.4v4.3l-1.7,0.4l0-0.2c0.6-0.2,1-0.4,1.2-0.6c0.2-0.1,0.2-0.4,0.2-0.8c0-0.3,0-0.5,0-0.5
		c0,0-0.2,0-0.5,0h-6.3c-0.1,0-0.2,0-0.3,0.1c-0.1,0.1-0.1,0.2-0.1,0.3v0.4H452.6z M454.4,72L454.4,72L454.4,72l5.3,0.1
		c0.1,0,0.2,0,0.3-0.1c0.1-0.1,0.1-0.2,0.1-0.3v-0.4h0.3v1.8H460v-0.4c0-0.1,0-0.2-0.1-0.3c-0.1-0.1-0.1-0.1-0.3-0.1h-7.1v-0.3v0
		l6.7-3.4v-0.1h-6.1c-0.1,0-0.2,0-0.3,0.1c-0.1,0.1-0.1,0.2-0.1,0.3v0.4h-0.3v-1.8h0.3v0.4c0,0.2,0,0.3,0.1,0.3
		c0.1,0.1,0.2,0.1,0.3,0.1h6.4c0.1,0,0.2,0,0.3-0.1c0.1-0.1,0.1-0.2,0.1-0.4v-0.3h0.3V69L454.4,72z M459.5,63.3L459.5,63.3
		L459.5,63.3l-3.7-1v1.9L459.5,63.3z M455.4,64.2L455.4,64.2v-2l-1.7-0.4c-0.3-0.1-0.5-0.1-0.7,0c-0.2,0.1-0.2,0.2-0.2,0.4v0.1h-0.3
		v-1.7h0.3v0.1c0,0.1,0,0.2,0.1,0.3c0.1,0.1,0.2,0.2,0.4,0.2l6.9,1.8l0.2,0.7l-7.1,1.7c-0.2,0.1-0.3,0.1-0.4,0.2
		c-0.1,0.1-0.1,0.2-0.1,0.3v0.1h-0.3v-1.9h0.3v0.2c0,0.2,0.1,0.3,0.2,0.3c0.1,0,0.3,0,0.5,0L455.4,64.2z M453.2,58.7L453.2,58.7
		c-0.1,0-0.2,0-0.3,0.1c-0.1,0.1-0.1,0.2-0.1,0.3v0.2h-0.3v-1.9h0.3v0.2c0,0.2,0,0.3,0.1,0.3c0.1,0.1,0.2,0.1,0.3,0.1h5.9v-0.1
		l-6.5-1.5v-0.3l6.4-1.4v-0.1h-5.8c-0.1,0-0.2,0-0.3,0.1c-0.1,0.1-0.1,0.2-0.1,0.3v0.1h-0.3v-1.4h0.3v0.1c0,0.1,0,0.3,0.1,0.3
		c0.1,0.1,0.2,0.1,0.3,0.1h6.4c0.1,0,0.2,0,0.3-0.1c0.1-0.1,0.1-0.2,0.1-0.3v-0.2h0.3v1.3l-5.9,1.3v0.1l5.9,1.4v1.4H460v-0.2
		c0-0.1,0-0.2-0.1-0.3c-0.1-0.1-0.1-0.1-0.3-0.1H453.2z M452.8,45L452.8,45c0,0.5,0.2,0.8,0.4,1.1c0.3,0.3,0.7,0.5,1.1,0.5h5.2
		c0.1,0,0.2,0,0.3-0.1c0.1-0.1,0.1-0.2,0.1-0.3V46h0.3v1.6H460v-0.3c0-0.1,0-0.2-0.1-0.3c-0.1-0.1-0.1-0.1-0.3-0.1h-5.2
		c-0.6,0-1.1-0.2-1.4-0.6c-0.3-0.4-0.5-0.9-0.5-1.4c0-0.5,0.1-1,0.5-1.4c0.3-0.4,0.8-0.6,1.4-0.6h5.3c0.1,0,0.2,0,0.3-0.1
		c0.1-0.1,0.1-0.2,0.1-0.3v-0.2h0.3v2H460v-0.2c0-0.1,0-0.2-0.1-0.3c-0.1-0.1-0.1-0.1-0.3-0.1h-5.3c-0.6,0-1,0.1-1.2,0.4
		C452.9,44.3,452.8,44.6,452.8,45z M453.2,37L453.2,37c-0.1,0-0.2,0-0.3,0.1c-0.1,0.1-0.1,0.2-0.1,0.3v1.2c0,0.4,0.1,0.8,0.4,1.1
		c0.3,0.3,0.7,0.5,1.2,0.7l-0.1,0.2l-1.8-0.4v-4.6h0.3v0.3c0,0.2,0,0.3,0.1,0.3c0.1,0.1,0.2,0.1,0.3,0.1h6.4c0.1,0,0.2,0,0.3-0.1
		c0.1-0.1,0.1-0.2,0.1-0.3v-0.3h0.3v2.2H460v-0.3c0-0.1,0-0.2-0.1-0.3c-0.1-0.1-0.1-0.1-0.3-0.1H453.2z M452.8,31.2L452.8,31.2
		c0,0.5,0.2,0.8,0.4,1.1c0.3,0.3,0.7,0.5,1.1,0.5h5.2c0.1,0,0.2,0,0.3-0.1c0.1-0.1,0.1-0.2,0.1-0.3v-0.3h0.3v1.6H460v-0.3
		c0-0.1,0-0.2-0.1-0.3c-0.1-0.1-0.1-0.1-0.3-0.1h-5.2c-0.6,0-1.1-0.2-1.4-0.6c-0.3-0.4-0.5-0.9-0.5-1.4c0-0.5,0.1-1,0.5-1.4
		c0.3-0.4,0.8-0.6,1.4-0.6h5.3c0.1,0,0.2,0,0.3-0.1c0.1-0.1,0.1-0.2,0.1-0.3v-0.2h0.3v2H460v-0.2c0-0.1,0-0.2-0.1-0.3
		c-0.1-0.1-0.1-0.1-0.3-0.1h-5.3c-0.6,0-1,0.1-1.2,0.4C452.9,30.4,452.8,30.8,452.8,31.2z M452.8,23.8h-0.3v-2.2h0.3v0.3
		c0,0.2,0,0.3,0.1,0.3c0.1,0.1,0.2,0.1,0.3,0.1h6.4c0.1,0,0.2,0,0.3-0.1c0.1-0.1,0.1-0.2,0.1-0.3v-0.3h0.3v4.7l-1.6,0.5l-0.1-0.2
		c0.5-0.2,0.8-0.5,1.1-0.9c0.2-0.3,0.4-0.7,0.4-1.1v-1.3c0-0.1,0-0.2-0.1-0.3c-0.1-0.1-0.1-0.1-0.3-0.1h-2.9v1.5
		c0,0.3,0.1,0.5,0.2,0.7c0.1,0.1,0.4,0.2,0.7,0.2h0.2v0.3h-2.6v-0.3h0.2c0.4,0,0.6-0.1,0.8-0.2c0.2-0.1,0.3-0.4,0.3-0.7v-1.5h-3.3
		c-0.1,0-0.2,0-0.3,0.1c-0.1,0.1-0.1,0.2-0.1,0.3V23.8z"/>
	<rect y="0" class="st3" width="640" height="220.9"/>
</g>
<g>
</g>
<g>
</g>
<g>
</g>
<g>
</g>
<g>
</g>
<g>
</g>
<g>
</g>
<g>
</g>
<g>
</g>
<g>
</g>
<g>
</g>
<g>
</g>
<g>
</g>
<g>
</g>
<g>
</g>
</svg>
