<?xml version="1.0" encoding="utf-8"?>
<!-- Generator: Adobe Illustrator 17.0.0, SVG Export Plug-In . SVG Version: 6.00 Build 0)  -->
<!DOCTYPE svg PUBLIC "-//W3C//DTD SVG 1.1//EN" "http://www.w3.org/Graphics/SVG/1.1/DTD/svg11.dtd">
<svg version="1.1" id="Layer_1" xmlns="http://www.w3.org/2000/svg" xmlns:xlink="http://www.w3.org/1999/xlink" x="0px" y="0px"
	 width="640px" height="100px" viewBox="0 0 640 100" style="enable-background:new 0 0 640 100;" xml:space="preserve">
<style type="text/css">
	.st0{fill-rule:evenodd;clip-rule:evenodd;fill:#AB192A;}
	.st1{fill:#FFFFFF;}
	.st2{fill:#F9F2C7;}
	.st3{fill:none;}
</style>
<g id="page-1-subtitle.svg">
	<rect id="subtitle-bg" x="118.8" y="29.4" class="st0" width="434.3" height="37.8"/>
	<g id="subtitle_1_">
		<path class="st1" d="M209,60.9c-6.4-1.1-12.4-8.8-13.2-22.6c0.8-0.5,0.9-0.5,0.9-0.6c0-0.1-0.2-0.2-0.6-0.4l-2.3-1.1
			c0,7.5-1,12.6-2.6,16.6c-1.6,3.9-5.7,8.2-10.5,10.5l0.2,0.4c12.3-5.3,13.4-13.5,14.5-24.6c0.2,12.3,4.5,18.8,9.7,23
			c0.2,0.1,0.2,0.2,0.3,0.2c0.1,0,0.1,0,0.2-0.1c0.5-0.5,1-0.9,2.4-0.9c0.3,0,0.7,0,1.1,0.1V60.9z"/>
		<path class="st1" d="M232.7,60.5l-1.4,1.9h-8.8v-8.6h9.2c0.2,0,0.4,0,0.4-0.1c0,0-0.1-0.1-0.2-0.2l-2.2-2.2l-1.5,1.9h-5.7v-7.1
			H233c0.2,0,0.3,0,0.3-0.1c0-0.1,0-0.1-0.2-0.2l-2.2-2.3l-1.5,2h-7v-6.3l1-0.6c0.2-0.1,0.3-0.2,0.3-0.2c0-0.1-0.1-0.1-0.2-0.2
			l-2.7-1.5c0.1,1.2,0.1,2.1,0.1,4.5v4.3h-7.2c1.7-3.4,1.9-3.8,2.5-3.9c0.3-0.1,0.5-0.2,0.5-0.2c0-0.1-0.1-0.1-0.2-0.2l-2-1.5
			c-1.6,5.3-3.8,10-6.2,13.9l0.4,0.3c1.4-1.7,2.7-3.7,4.7-7.6h7.6v7.1h-7.2c-0.8,0-1.5-0.1-2.2-0.2l0.9,1c0.5-0.2,0.8-0.2,2-0.2h6.5
			v8.6h-11c-0.9,0-1.6,0-2.3-0.1l1.1,1.1c0.5-0.2,1.1-0.3,1.9-0.3h24.1c0.2,0,0.3,0,0.3-0.1c0-0.1-0.1-0.1-0.2-0.2L232.7,60.5z"/>
		<path class="st1" d="M262,59.8c-4,0.5-7.8,0.8-10.9,0.8c-4.9,0-5.4-0.1-9.9-2.9c-0.4-0.2-0.7-0.4-1.1-0.6
			c5.4-3.4,9.9-6.9,15.2-11.9c0.8-0.8,1.6-1.2,2.4-1.4c0.5-0.1,0.6-0.2,0.6-0.3c0-0.1-0.1-0.2-0.2-0.4l-1.8-2.1l-1.8,1.7l-16.4,0.1
			c-0.7,0-1.5,0-2.2,0l0.9,1.1c0.5-0.2,1.4-0.4,2-0.4l15.8-0.2c-4,4.8-10.3,10.3-15.2,13.5c-0.9,0.1-2.2,0.7-5.2,2.8l1.2,1.4
			c0.1,0.1,0.2,0.2,0.3,0.2c0.1,0,0.2-0.1,0.2-0.3c0.6-1.1,2.9-3.3,3.8-3.3c0.7,0,1.5,0.5,3,1.8c1.4,1.2,3.4,2.2,5.5,2.4
			c3.1,0.2,6.4,0.3,10.6,0.3c0.4,0,0.5-0.1,0.5-0.3c0.2-0.7,1-1.4,3-1.7L262,59.8z M245.4,36.6c1.8,1.7,2.3,2.8,2.3,3.6
			c0.1,1.2,0.3,1.5,0.8,1.5c0.5,0,1.2-0.6,1.2-1.5c0-1.5-1.7-2.8-4.2-3.9L245.4,36.6z"/>
		<path class="st1" d="M264.8,45.3v-5.9h5v5.9H264.8z M272.4,57.5l-4.3,0.9v-6.1h4c0.2,0,0.3-0.1,0.3-0.2c0-0.1-0.1-0.2-0.2-0.4
			l-1.2-1.4l-1,1.4h-1.9V46h1.6c0,0.9,0,1,0.2,1c0.1,0,0.3-0.1,0.6-0.2c0.6-0.2,0.7-0.3,0.7-0.8c0-0.4-0.1-2.3-0.1-2.7v-3.5l0.8-0.5
			c0.2-0.1,0.2-0.2,0.2-0.3c0-0.1-0.1-0.2-0.2-0.3l-1.7-1.3l-0.8,1.2h-4.5l-1.7-1.5c0.1,0.9,0.1,2.4,0.1,3.1v3.4
			c0,0.5-0.1,2.7-0.1,3.1c0,0.4,0.1,0.5,0.3,0.5c0.2,0,1.3-0.3,1.3-0.9V46h2v12.7l-2.7,0.6v-8.4c0.8-0.5,0.9-0.5,0.9-0.7
			c0-0.1-0.1-0.2-0.3-0.3l-2.1-1.1c0.1,1.1,0.1,3.2,0.1,4.4v6.4l-2.5,0.5l1.2,1.7c0.1,0.1,0.1,0.2,0.2,0.2c0.1,0,0.2-0.1,0.2-0.2
			c0.3-0.4,0.8-0.7,2.3-1.2l8.3-2.7L272.4,57.5z M276,60.7v-6.9h7.2v6.9H276z M283.6,40.7c-1.1,2.2-2.3,4.1-3.7,5.8
			c-1.4-1.4-2.5-3.2-3.5-5.5c0.1-0.1,0.1-0.2,0.2-0.3H283.6z M288.9,50.5c-3.5-0.6-6-1.6-8-3.2c1.5-1.7,2.9-3.6,4.2-5.8l1.2-0.5
			c0.2-0.1,0.3-0.2,0.3-0.3c0-0.1-0.1-0.2-0.3-0.3l-1.8-1.4l-0.8,1.1H277c0.4-0.6,0.8-1.3,1.2-2.1c1.1-0.3,1.2-0.4,1.2-0.5
			c0-0.1-0.1-0.2-0.2-0.3l-1.9-1.2c-1.4,3.9-2.9,7.2-4.8,10.4l0.4,0.2c1-1.2,2-2.6,3.4-5c0.9,2.5,1.8,4.3,3,5.8
			c-2.5,2.7-5.5,4.9-9.3,7.1l0.2,0.5c1.6-0.7,3-1.5,4.5-2.3c0,0.8,0.1,1.7,0.1,2.3v4.6c0,1.1,0,2.9-0.1,3.7c0,0.2,0,0.3,0,0.5
			c0,0.4,0.1,0.5,0.3,0.5c0.2,0,1.3-0.3,1.3-0.9v-1.8h7.2v2.2c0,0.2,0.1,0.4,0.3,0.4c0.1,0,0.3-0.1,0.6-0.2c0.6-0.2,0.7-0.4,0.7-0.8
			v-0.2c-0.1-1.3-0.2-2.4-0.2-4v-4.4l0.7-0.5c0.2-0.1,0.2-0.2,0.2-0.3c0-0.1-0.1-0.2-0.2-0.3l-1.8-1.3l-0.8,1.2h-6.6l-1.1-1
			c1.8-1.1,3.4-2.4,5-3.9c2.2,2.1,5.8,3.9,5.9,3.9c0.1,0,0.2-0.1,0.2-0.2c0.5-0.6,1.1-0.9,2.7-1.1V50.5z"/>
		<path class="st1" d="M295.3,59.2c-0.9-0.9-2.5-1.1-3.1,0c-0.7,1.1,0.2,2.5,1.8,2.3c0.5-0.1,0.8,0.3,0.7,0.8
			c-0.2,1.5-0.5,2.1-2.9,4.1l0.5,0.7C295.8,65.1,297.5,61.4,295.3,59.2"/>
		<path class="st1" d="M323.6,55.4v-4.1h11.8v4.1H323.6z M323.6,50.7v-4.1h11.8v4.1H323.6z M339.8,39l-1.4,1.8h-11.9
			c0.6-1,1.1-1.8,1.4-2.4c0.3-0.6,0.6-0.8,1.3-1c0.3-0.1,0.4-0.1,0.4-0.2c0-0.1-0.1-0.2-0.3-0.3l-2-1.2c-0.5,1.4-1.1,2.8-2.3,5.2
			h-8.2c-0.7,0-1.4-0.1-2.2-0.1l0.8,1.1c0.5-0.2,1.4-0.3,2-0.3h7.2c-2.5,4.8-6.2,10.5-10.5,14.4l0.3,0.4c2.6-2.1,5.4-5.3,7.8-8.5V57
			c0,1.7,0,4.4-0.1,6.2v0.3c0,0.4,0,0.6,0.2,0.6c0.2,0,0.3-0.1,0.6-0.2c0.6-0.3,0.7-0.5,0.7-0.9c0-0.5-0.1-3.6-0.1-4.2v-2.6h11.8
			v4.6c0,0.6-0.1,0.8-1,0.8c-0.7,0-1.7-0.1-3.4-0.3l-0.1,0.4c2.8,0.8,3.4,1.2,3.6,2.2c0.1,0.3,0.1,0.4,0.2,0.4c0.1,0,0.2,0,0.3-0.1
			c1.7-0.8,1.8-1.2,1.8-3.3V46.9l0.8-0.6c0.2-0.2,0.3-0.2,0.3-0.3c0-0.1-0.1-0.2-0.4-0.4l-1.8-1.1l-0.9,1.4h-11.3
			c0.7-1.1,1.7-2.8,2.6-4.4h15.4c0.3,0,0.5,0,0.5-0.2c0-0.1-0.1-0.3-0.4-0.5L339.8,39z"/>
		<path class="st1" d="M389.2,47.8c4.1,2.9,7,6,7.6,7.5c0.4,0.9,0.6,1.2,1,1.2c0.5,0,0.8-0.9,0.8-1.7c0-0.5-0.1-1-0.3-1.2
			c-1-1.3-2.8-2.8-9-6.1L389.2,47.8z M397.3,37.2l-1.3,1.9h-21.7c-0.7,0-1.4-0.1-2.2-0.1l0.8,1.1c0.5-0.2,1.4-0.3,2-0.3h11.2
			c-3,7.2-8.6,13.9-14.6,18.7l0.3,0.4c5.1-3.1,9.6-8,13.6-14.1v12.6c0,1.9-0.1,4.3-0.2,5.6v0.4c0,0.3,0,0.5,0.2,0.5
			c0.2,0,0.4-0.1,0.7-0.2c0.6-0.3,0.8-0.4,0.8-0.8v-0.2c-0.1-1.4-0.1-3.2-0.1-5.5V46l0.7-0.6c0.1-0.1,0.2-0.2,0.2-0.2
			c0-0.1-0.1-0.2-0.3-0.2l-1.6-0.8c0.8-1.3,1.7-3,2.3-4.3h11.1c0.2,0,0.4,0,0.4-0.1c0-0.1-0.1-0.2-0.3-0.4L397.3,37.2z"/>
		<path class="st1" d="M423.8,38.4l-1.1,1.4h-13.9c-0.7,0-1.4-0.1-2.2-0.1l0.8,1.1c0.5-0.2,1.4-0.3,2-0.3h16c0.3,0,0.5-0.1,0.5-0.2
			c0-0.1-0.1-0.3-0.3-0.5L423.8,38.4z M413,36.1c1.3,0.8,2.3,2.1,2.4,2.9c0.1,0.4,0.4,0.8,0.7,0.8c0.7,0,1-0.5,1-1.1
			c0-1.1-1.7-2.3-4-2.8L413,36.1z M424.6,48.9l-0.9,1.1h-15.2c0-0.6-0.1-1.2-0.3-1.8l-0.4,0.1c0.1,2.1-0.4,3.3-1.5,4.2
			c-0.6,0.5-0.8,0.7-0.8,1c0,0.4,0.3,0.7,0.8,0.7c1,0,2.2-0.9,2.2-3.5h15.3l-1.3,2.3l-0.5-0.5l-1,1.4h-10.2c-0.7,0-1.4-0.1-2.2-0.1
			l0.8,1.1c0.5-0.2,1.4-0.3,2-0.3h4.3v6.3c0,0.8-0.1,1.1-1,1.1c-0.7,0-2-0.2-4.2-0.7l-0.1,0.4c3.3,1,3.9,1.4,4.1,2.4
			c0,0.2,0.2,0.3,0.3,0.3c0.1,0,0.1,0,0.2-0.1c2-0.9,2.1-1.3,2.1-3.7v-6.1h6.2c0.3,0,0.5-0.1,0.5-0.2c0-0.2-0.1-0.3-1-1.1
			c1.6-1.7,2.4-2.3,3.5-2.4c0.2,0,0.3-0.1,0.3-0.2c0-0.1-0.1-0.2-0.3-0.4L424.6,48.9z M405.1,36c-1.5,5.8-4.2,11.9-6.8,15.9l0.3,0.2
			c1.7-2,3.1-4.2,4.5-6.9V58c0,0.9-0.2,5.4-0.2,5.4c0,0.5,0,0.6,0.2,0.6c0.1,0,0.3-0.1,0.6-0.2c0.6-0.3,0.7-0.4,0.7-0.8
			c0-0.5-0.1-2.5-0.1-2.9V45.3c0.9-0.8,0.9-0.8,0.9-0.8c0-0.1-0.1-0.2-0.2-0.2l-1.2-0.6c0.6-1.4,1.3-3,1.9-4.7
			c0.3-0.7,0.5-1,1.2-1.2c0.2-0.1,0.4-0.2,0.4-0.2c0-0.1-0.1-0.2-0.4-0.4L405.1,36z M411.5,46.7v-3.1h8.8v3.1H411.5z M420.7,41.8
			l-0.8,1.2h-8l-1.8-1.2c0.1,0.8,0.1,1.4,0.1,2.2v1.5c0,0.9,0,1.7-0.1,2.4v0.2c0,0.2,0,0.3,0.2,0.3c0.1,0,0.3-0.1,0.6-0.2
			c0.5-0.2,0.6-0.4,0.6-0.9h8.8v0.9c0,0.3,0,0.4,0.2,0.4c0.1,0,0.3-0.1,0.6-0.2c0.5-0.2,0.6-0.4,0.6-0.8c0-0.4-0.1-2-0.1-2.4v-1.2
			l0.7-0.4c0.2-0.1,0.2-0.2,0.2-0.3c0-0.1-0.1-0.2-0.2-0.3L420.7,41.8z"/>
		<path class="st1" d="M448.5,52.2c-5.3,6.3-12.8,9.9-22.6,11.4l0.1,0.4c10.3-1.1,15.2-3.2,22.8-9.7c0.3-0.2,0.9-0.4,1.4-0.5
			c0.2,0,0.3-0.1,0.3-0.2c0-0.1-0.1-0.1-0.1-0.2L448.5,52.2z M433.5,51.2c-1.6,2.5-4.4,5.7-6.7,7.9l0.3,0.3c2.4-1.9,5.2-4.3,6.7-5.8
			c0.3-0.3,0.8-0.5,1.3-0.6c0.2-0.1,0.3-0.1,0.3-0.2c0,0-0.1-0.1-0.2-0.2L433.5,51.2z M438.8,49.3c0,0.8,0.1,2,0.1,3.1v2.7
			c0,0.4,0,2.3,0,2.7c0,0.4,0,0.6,0.2,0.6c0.1,0,0.3-0.1,0.7-0.2c0.5-0.2,0.6-0.3,0.6-0.6c0,0-0.1-2-0.1-2.4v-3.9l0.8-0.5
			c0.1-0.1,0.1-0.1,0.1-0.2c0-0.1-0.1-0.1-0.2-0.2L438.8,49.3z M450.7,46.6l-1.2,1.7h-8.9v-5.7h9c0.2,0,0.3,0,0.3-0.1
			c0-0.1-0.1-0.2-0.2-0.3l-1.9-2l-1.3,1.7h-5.9v-3.6c1-0.5,1.1-0.5,1.1-0.6c0-0.1-0.1-0.2-0.3-0.2l-2.4-1.3c0.1,1.1,0.1,3.2,0.1,4.4
			v7.7h-5.5v-7.1l0.8-0.5c0.2-0.1,0.3-0.2,0.3-0.2c0-0.1-0.1-0.2-0.3-0.3l-2.2-1.2c0.1,1.1,0.1,3.2,0.1,4.4v4.9h-4.5
			c-0.7,0-1.4-0.1-2.2-0.1l0.8,1.1c0.5-0.2,1.4-0.3,2-0.3h24c0.2,0,0.3,0,0.3-0.1s-0.1-0.2-0.2-0.4L450.7,46.6z"/>
		<path class="st2" d="M349.8,35.6c1.8,1.4,2.7,2.6,2.8,3.7c-0.3,1-0.9,1.5-1.8,1.6c-0.6-0.1-0.9-0.4-1-1c0.2-1.9,0.1-3.2-0.3-4
			C349.5,35.6,349.6,35.5,349.8,35.6 M355.8,35.3c2.2,1.3,3.1,2.5,3,3.5c-0.3,0.8-0.9,1.3-1.8,1.6c-0.7,0-1.1-0.3-1.2-0.9
			c0.3-1.9,0.2-3.2-0.3-4.1C355.5,35.3,355.6,35.2,355.8,35.3z M363.2,52.4l-8.5,0.3c1.1,1.9,2.5,3.5,4.3,4.9
			C360.3,56.1,361.7,54.4,363.2,52.4z M362.9,30l2.1,3c0.1,0.3,0,0.4-0.3,0.4c-5.4,0.7-10.9,1.2-16.5,1.6c-0.2,0-0.3,0-0.3-0.1
			c-0.1-0.1-0.1-0.2,0.1-0.3C354.3,33.4,359.3,31.9,362.9,30z M363.9,34.4l3.2,2.1c0.3,0.2,0.2,0.4-0.1,0.6l-0.7,0.4l-5,3.5l6-0.3
			l1.8-1.2l3.4,3.4c0.2,0.2,0.2,0.4,0.1,0.6c0,0.2-0.2,0.3-0.6,0.3c-2.1-0.1-3.7,0.3-5,1.3c-0.3,0.1-0.4,0-0.4-0.3l0.9-3.2
			l-20.6,0.6c-0.4,2.2-1.5,3.9-3.4,5.2c-0.4,0.3-0.6,0.2-0.7-0.1c-0.3-1.3-0.2-2.2,0.2-2.8c1.3-0.9,1.9-2.3,1.8-4.1
			c0-0.3,0.1-0.4,0.2-0.4c0.1-0.1,0.3-0.1,0.6,0.1c0.6,0.4,1,0.9,1.3,1.5l13.9-0.4C362.2,38.2,363.4,36,363.9,34.4z M349.4,48.6
			c-1.6,0.1-2.9,0.2-4.1,0.4l-1.2-1l8-0.2c0.6-1.7,1-3.4,1.3-5.3l3.4,1.5c0.3,0.1,0.3,0.3,0,0.6l-0.6,1c-0.2,0.8-0.4,1.5-0.7,2.1
			l11.1-0.1l2.2-2.4l2.9,2.6c0.2,0.2,0.2,0.3,0,0.3l-16.5,0.3c-0.4,1.3-1,2.5-1.8,3.5l9.9-0.3l1.6-1.8l3,1.9
			c0.3,0.2,0.2,0.4-0.2,0.6l-1,0.9c-1.9,2.1-3.7,4-5.6,5.7c3.2,1.7,7.2,2.9,11.8,3.7c0.3,0.2,0.3,0.4,0.1,0.6
			c-1.6,0.1-3.2,1.1-4.9,3.1c-3.6-1.7-6.6-3.6-9-5.9c-3.1,2-8.1,3.8-14.7,5.6c-0.4,0.2-0.5,0.1-0.3-0.3c6.6-2.3,11.1-4.6,13.6-6.9
			c-1.3-1.8-2.4-3.8-3.4-6.2l-1.3,0.1c-2.3,4-6.6,8.2-13.1,12.5c-0.5,0.1-0.6,0-0.3-0.3c6.2-4.6,10.3-10.1,12.2-16.5H349.4z"/>
	</g>
	<rect x="0" y="0" class="st3" width="640" height="100"/>
</g>
<g>
</g>
<g>
</g>
<g>
</g>
<g>
</g>
<g>
</g>
<g>
</g>
<g>
</g>
<g>
</g>
<g>
</g>
<g>
</g>
<g>
</g>
<g>
</g>
<g>
</g>
<g>
</g>
<g>
</g>
</svg>
