<?xml version="1.0" encoding="utf-8"?>
<!-- Generator: Adobe Illustrator 17.0.0, SVG Export Plug-In . SVG Version: 6.00 Build 0)  -->
<!DOCTYPE svg PUBLIC "-//W3C//DTD SVG 1.1//EN" "http://www.w3.org/Graphics/SVG/1.1/DTD/svg11.dtd">
<svg version="1.1" id="Layer_1" xmlns="http://www.w3.org/2000/svg" xmlns:xlink="http://www.w3.org/1999/xlink" x="0px" y="0px"
	 width="640px" height="92.4px" viewBox="0 0 640 92.4" style="enable-background:new 0 0 640 92.4;" xml:space="preserve">
<style type="text/css">
	.st0{fill-rule:evenodd;clip-rule:evenodd;fill:#6A2528;}
	.st1{fill-rule:evenodd;clip-rule:evenodd;fill:#AA192A;}
	.st2{fill-rule:evenodd;clip-rule:evenodd;fill:#82242A;}
	.st3{fill:#FFFFFF;}
	.st4{fill:none;}
</style>
<g id="page-8-title-2.svg">
	<polygon class="st0" points="539.5,72 566.3,72 566.3,86.9 	"/>
	<polygon class="st0" points="115.9,72 89.1,72 89.1,86.9 	"/>
	<rect x="89.3" y="8.2" class="st1" width="477.7" height="64.2"/>
	<polygon class="st2" points="566.4,87.5 601.3,87.5 566.4,56.4 603.2,23.6 566.5,23.6 	"/>
	<polygon class="st2" points="89,88.1 54.1,88.1 89,56.9 52.3,24.1 89,24.1 	"/>
	<path class="st3" d="M188.5,51.6c-0.2-0.4-0.3-0.8-0.3-1.2c0-0.4,0.2-0.8,0.7-1.1c0.4-0.3,0.9-0.5,1.3-0.4c0.7,0,1.2,0.4,1.7,1
		c0.4,0.6,0.9,1.4,1.4,2.3c0.5,0.9,0.7,1.6,0.7,2.1c-0.1,0.7-0.4,1.2-0.8,1.5c-0.5,0.3-0.8,0.4-1.2,0.4c-0.7,0-1.2-0.2-1.5-0.7
		c-0.3-0.5-0.6-1.2-1.1-2.2L188.5,51.6z M188.5,36.4h-10.8c-0.6,0-1-0.2-1.4-0.6c-0.4-0.4-0.5-0.9-0.5-1.5c0-0.4,0.1-0.9,0.5-1.3
		c0.3-0.4,0.8-0.7,1.5-0.7h11.1c0-1.3-0.1-2.3,0-3l0-1.9c0-0.9,0.1-1.6,0.4-2.3c0.3-0.7,1-1,2.1-0.9c0.9,0.1,1.5,0.4,1.8,1
		c0.3,0.6,0.4,1.4,0.4,2.5v2.7v1.9H205c0.6,0,1.1,0.2,1.5,0.6c0.4,0.4,0.6,0.9,0.6,1.4c0,0.6-0.2,1-0.6,1.4
		c-0.4,0.4-0.9,0.6-1.5,0.6h-11.5c0.3,1,0.6,1.9,0.9,2.7c0.3,0.9,0.7,1.8,1.3,2.8c0.5,1,1.2,2,2.1,3.1c0.9,1.1,1.9,2.2,3,3.3
		c1.1,1.1,2.5,2,4,2.8c1.6,0.8,2.5,1.4,2.9,1.8c0.4,0.4,0.5,0.8,0.6,1.4c0,0.5-0.1,1.1-0.5,1.6c-0.4,0.5-0.9,0.8-1.6,0.8
		c-0.7,0-2-0.5-3.8-1.4c-1.9-1-3.7-2.5-5.6-4.7c-1.9-2.1-3.1-3.8-3.7-5.1l-1.4-2.5c-0.4,1-0.9,1.9-1.3,2.7c-0.4,0.8-1.2,1.9-2.5,3.5
		c-1.2,1.6-2.9,3.2-5.1,4.9c-2.1,1.7-3.7,2.5-4.7,2.4c-0.7,0-1.2-0.3-1.6-0.8c-0.4-0.5-0.6-1-0.6-1.5c0-0.5,0.2-1,0.6-1.5
		c0.2-0.2,0.9-0.6,2.1-1.2c1.2-0.6,2.7-1.7,4.5-3.4c1.8-1.7,3.1-3.6,3.9-5.9c0.8-2.2,1.3-3.7,1.4-4.3L188.5,36.4z"/>
	<path class="st3" d="M218.4,34.4c0-0.6,0.2-1.1,0.6-1.5c0.4-0.4,1-0.6,1.6-0.6c0.6,0,1.1,0.2,1.5,0.5c0.4,0.3,1.1,1,2,2
		c0.9,1,1.7,1.8,2.1,2.5c0.5,0.7,0.4,1.4-0.3,2.2c-0.7,0.8-1.3,1.2-2,1.1c-0.5,0-1-0.3-1.5-0.8l-1.2-1.4l-2.4-2.6
		C218.6,35.1,218.4,34.7,218.4,34.4 M236.4,40.4c-0.4-0.4-0.7-0.8-0.6-1.3c0-0.5,0.2-1,0.5-1.5l1.4-2.1l1.2-2.1
		c0.5-0.8,1.1-1.3,1.9-1.3c0.8,0,1.4,0.3,1.8,0.7c0.3,0.5,0.5,0.9,0.5,1.3c0,0.4-0.1,1-0.5,1.6c-0.1,0.2-0.5,0.9-1.2,2
		c-0.7,1.2-1.4,2.1-2.2,2.9C238.3,41.4,237.4,41.3,236.4,40.4z M228.8,41.7V30.5H219c-0.5,0-0.9-0.2-1.3-0.6
		c-0.4-0.4-0.5-0.9-0.5-1.5c0-0.5,0.2-1,0.6-1.4c0.4-0.4,0.8-0.6,1.2-0.6h24.2c0.4,0,0.8,0.2,1.2,0.6c0.4,0.4,0.6,0.9,0.6,1.4
		c0,0.6-0.2,1-0.5,1.4c-0.4,0.4-0.8,0.6-1.3,0.6h-9.8v11.2h12.1c0.4,0,0.8,0.2,1.1,0.6c0.3,0.4,0.5,0.9,0.6,1.5
		c0,0.6-0.1,1.1-0.5,1.5c-0.4,0.4-0.8,0.6-1.2,0.6h-12.1v9c0,0.5-0.2,1-0.6,1.4c-0.4,0.4-1,0.6-1.7,0.6c-0.8,0-1.3-0.2-1.7-0.6
		c-0.3-0.4-0.5-0.8-0.5-1.3v-9h-12.2c-0.5,0-0.9-0.2-1.2-0.6c-0.3-0.4-0.5-0.9-0.5-1.6c0-0.6,0.2-1.1,0.5-1.4
		c0.3-0.4,0.7-0.5,1.2-0.5H228.8z"/>
	<path class="st3" d="M258.6,25.3c0,0,3,0,9,0.1c6,0.1,9.8-0.1,11.3-0.5c1.6-0.4,2.7-0.6,3.5-0.4c0.7,0.1,1.2,0.7,1.2,1.5
		c0.1,0.9,0,1.5-0.2,1.8c-0.2,0.3-0.8,0.5-1.6,0.6c-5.2,0.7-10,1-14.3,0.9c-4.3-0.1-6.8-0.1-7.5-0.1c-0.7,0-1.4,0-2-0.2
		c-0.6-0.1-1-0.5-1.1-1.1c-0.1-0.6-0.1-1.1-0.1-1.3C257.1,25.8,257.7,25.4,258.6,25.3 M261.6,33.5c-0.2-0.3-0.3-0.5-0.4-0.6
		l-0.5-0.5c-0.3-0.3-0.4-0.6-0.4-1c0-0.4,0.1-0.7,0.3-1.1c0.2-0.2,0.5-0.5,1.1-0.8c0.6-0.3,1.2-0.1,2,0.5c0.3,0.3,0.6,0.6,0.8,1
		c0.3,0.4,0.5,0.7,0.5,0.9c0.1,0.5,0.1,0.9,0,1.1l-0.4,0.5h5.1c-0.1-0.2-0.4-0.7-0.8-1.4c-0.4-0.7-0.6-1.2-0.5-1.5
		c0-0.3,0.2-0.6,0.5-0.9c0.3-0.3,0.7-0.5,1.1-0.5c0.7-0.1,1.3,0.1,1.8,0.7c0.5,0.6,0.8,1,0.9,1.2c0.1,0.2,0.2,0.5,0.2,0.8
		c0,0.3,0,0.6,0,0.8c-0.1,0.4-0.4,0.7-0.9,0.8h5.4c-0.2-0.1-0.5-0.3-0.7-0.4c-0.2-0.2-0.4-0.4-0.4-0.6c-0.1-0.3,0.1-0.7,0.4-1.2
		c0.7-1.1,1-1.7,1.2-1.9c0.1-0.2,0.5-0.3,1-0.4c0.5-0.1,1,0,1.5,0.2c0.5,0.2,0.8,0.5,0.9,0.9c0.1,0.3,0.1,0.7,0,1.2
		c-0.2,0.5-0.7,1.3-1.4,2.3h0.9c2,0,3.3,0.2,3.9,0.7c0.6,0.5,0.9,1.1,1.1,1.8c0.2,0.7,0.2,1.4,0.2,1.9v0.8c0,0.5-0.2,0.9-0.6,1.3
		c-0.4,0.4-0.9,0.6-1.5,0.5c-0.5,0-1-0.2-1.3-0.6c-0.4-0.4-0.6-0.8-0.6-1.2v-0.5c0-0.7-0.4-1-1.3-1h-20.1c-0.9,0-1.4,0.3-1.4,0.9
		v0.6c0,0.4-0.2,0.8-0.6,1.1c-0.4,0.3-0.9,0.4-1.3,0.4c-0.5,0-1.1-0.1-1.6-0.5c-0.5-0.3-0.8-0.7-0.8-1.3V38c0-0.5,0.1-1.1,0.3-1.8
		c0.2-0.7,0.6-1.4,1.2-1.8c0.6-0.5,2.1-0.7,4.3-0.7H261.6z M269.2,48.3c0.7,0.8,1.5,1.4,2.3,2c0.3-0.2,0.7-0.4,0.9-0.6
		c0.3-0.2,0.5-0.3,0.7-0.5c0.2-0.1,0.4-0.3,0.5-0.5c0.1-0.2,0.1-0.3,0.1-0.4c0-0.1-0.3-0.1-0.9-0.1H269.2z M264.5,43.6l-4.3,0
		c-1.2,0-1.8-0.6-1.9-1.8c0-1.2,0.7-1.8,2.1-1.8h6.2c0.2-0.3,0.3-0.5,0.4-0.7l0.3-0.7c0.5-1.1,1.4-1.3,2.7-0.9
		c1.3,0.5,1.8,1,1.6,1.7l-0.2,0.6h9.2c0.3,0,0.8,0.2,1.3,0.5c0.6,0.3,0.8,0.8,0.8,1.5c0,0.4-0.2,0.7-0.5,1.1
		c-0.3,0.4-0.8,0.5-1.3,0.5l-11.4,0l-1.1,1.3l6.3,0c1.9,0,3.3,0.2,4.1,0.4c0.8,0.3,1.2,0.7,1.3,1.3c0.1,0.6-0.1,1.3-0.6,2
		c-0.7,1.1-2,2.2-3.9,3.5c0.7,0.2,1.5,0.4,2.2,0.5c0.7,0.2,2.2,0.3,4.3,0.4c2.2,0.1,3.3,0.6,3.3,1.5c0.1,0.9-0.1,1.6-0.5,2
		c-0.4,0.4-1.2,0.6-2.4,0.6c-0.9,0-2.4-0.2-4.6-0.5c-2.2-0.3-4.4-1-6.7-2.1c-1.7,0.7-3.8,1.4-6.4,2.1c-2.6,0.7-4.2,0.8-4.8,0.3
		c-0.3-0.2-0.5-0.4-0.7-0.8c-0.2-0.4-0.2-0.8-0.2-1.2c0-0.5,0.2-0.9,0.4-1c0.2-0.2,1.2-0.4,2.8-0.6c1.7-0.2,3.4-0.6,5.2-1.3
		c-1.1-1-2-2.1-2.8-3.1c-1,0.8-2.3,1.9-4,3.1c-1.7,1.2-2.9,1.9-3.7,2.1c-0.8,0.1-1.4,0.1-1.7-0.1c-0.3-0.2-0.5-0.5-0.7-1
		c-0.2-0.5-0.2-1-0.2-1.4c0.1-0.3,0.2-0.6,0.4-0.9c0.2-0.3,1.1-0.7,2.6-1.5c1.5-0.7,2.9-1.6,3.9-2.5
		C262.6,45.7,263.6,44.7,264.5,43.6z"/>
	<path class="st3" d="M308.1,27.6c-0.2-0.3-0.4-0.7-0.6-1c-0.2-0.3-0.4-0.6-0.5-0.8c-0.1-0.2-0.2-0.6-0.2-1c0-0.4,0.2-0.8,0.7-1.2
		c0.5-0.3,1-0.5,1.6-0.5c0.7,0.1,1.2,0.3,1.6,0.8c0.4,0.4,0.9,1,1.3,1.7s0.7,1.3,0.7,1.7v0.3h7.7c1.8,0,3,0.3,3.7,0.8
		c0.6,0.5,1,1.1,1.2,1.7c0.2,0.6,0.3,1.1,0.3,1.5v2.3c0,0.5-0.2,0.9-0.6,1.2c-0.4,0.4-0.9,0.5-1.7,0.5c-0.6,0-1.1-0.2-1.5-0.5
		c-0.4-0.3-0.6-0.7-0.6-1.2v-1.4c0-0.7-0.4-1.1-1.2-1.1h-19.7c-1,0-1.4,0.4-1.4,1.2v1.3c0,0.4-0.2,0.8-0.6,1.2
		c-0.4,0.4-1,0.5-1.7,0.5c-0.7,0-1.2-0.2-1.5-0.5c-0.3-0.3-0.5-0.7-0.5-1.2v-2.3c0-1.5,0.4-2.6,1.1-3.2c0.7-0.6,2.1-0.8,4.1-0.8
		H308.1z M309.4,45.4c-0.1-0.3-0.2-0.5-0.3-0.7c-0.3,0.2-1,0.6-2.1,1.2c-1.1,0.6-1.8,1-2.1,1.2c-0.3,0.2-1.5,0.7-3.5,1.5
		c-2,0.9-3.4,1.3-4,1.3c-1.2,0-1.9-0.5-1.9-1.3c-0.1-0.9,0-1.4,0.3-1.8c0.2-0.2,0.4-0.3,0.6-0.4c0.2-0.1,1.3-0.4,3.1-0.9
		c1.8-0.5,4.3-1.7,7.3-3.6l-0.4-0.4c-0.8,0.3-1.3,0.5-1.5,0.6c-0.2,0.1-1.1,0.4-2.6,0.8c-1.5,0.5-2.6,0.8-3.3,0.9
		c-0.7,0.1-1.3,0-1.9-0.3c-0.6-0.3-0.8-0.9-0.7-1.8c0.1-0.9,1.1-1.6,3-1.9c1.9-0.4,3.4-0.8,4.5-1.1c1-0.3,2.3-0.9,3.9-1.7h-6.4
		c-0.5,0-0.9-0.2-1.3-0.5c-0.4-0.3-0.5-0.8-0.5-1.3c0-0.6,0.2-1,0.6-1.3c0.4-0.2,0.8-0.4,1.1-0.4h17.3c0.5,0,0.9,0.2,1.2,0.5
		c0.3,0.3,0.5,0.8,0.5,1.3c0,0.5-0.1,0.9-0.5,1.3c-0.4,0.3-0.8,0.5-1.2,0.5h-5.6c0.1,0.3,0.1,0.5,0.1,0.6c0,0.2-0.1,0.4-0.3,0.6
		c-0.2,0.2-1.2,0.8-3.1,1.9c1,0.7,1.7,1.2,1.9,1.6l0.7,0.9c0.5-0.3,1.1-0.7,1.7-1.1c0.6-0.4,1.1-0.7,1.5-1c0.4-0.3,0.8-0.7,1.4-1.2
		c0.5-0.5,1-0.9,1.3-1.1c0.3-0.2,0.8-0.4,1.4-0.4c0.6,0,1.1,0.2,1.5,0.8c0.5,0.5,0.6,1.1,0.5,1.6c-0.1,0.6-0.5,1.1-1.1,1.5l-1.5,1
		l-0.9,0.6c0.2,0.7,0.6,1.7,1.1,3.1c0.5,1.3,1.4,2.5,2.6,3.5c1.2,1,2.2,1.7,2.9,2.2c0.7,0.4,1.1,0.8,1.3,1c0.2,0.3,0.3,0.7,0.3,1.3
		c0,0.6-0.3,1.2-0.9,1.8c-0.6,0.6-1.5,0.6-2.8,0c-1.2-0.6-2.4-1.6-3.5-2.8c-1.1-1.3-2-2.5-2.6-3.6c-0.6-1.1-1.2-2.6-1.8-4.4
		l-1.3,0.7c0.1,0.6,0.1,1.1,0.2,1.6c0,0.5,0.1,1.4,0.1,2.8c0,1.4-0.1,2.4-0.2,3.1c-0.2,1-0.7,1.9-1.4,2.6c-0.7,0.7-1.9,1-3.8,1.1
		c-2.1,0.1-3.2-0.8-3-2.5c0-0.9,0.5-1.4,1.4-1.5c0,0,0.4,0,1,0c0.7,0,1.1-0.1,1.5-0.4c0.4-0.4,0.5-1,0.6-2v-0.9v-0.4
		c-2.4,1.7-5.2,3.2-8.2,4.4c-3,1.2-4.9,1.9-5.6,1.9c-0.5,0-1-0.1-1.5-0.5c-0.5-0.3-0.7-0.9-0.7-1.6c0-0.6,0.2-1,0.6-1.3
		c0.4-0.3,1.5-0.6,3.2-1c1.8-0.4,3.8-1.3,6.2-2.6C306.5,47.4,308.3,46.3,309.4,45.4z"/>
	<path class="st3" d="M340.3,33.9c0.5,0,0.7,0.2,0.8,0.5c0.1,0.3,0.1,0.7,0.1,1V55c0,0.5-0.2,0.9-0.5,1.3c-0.4,0.4-0.8,0.5-1.5,0.5
		c-0.6,0-1.1-0.2-1.4-0.5c-0.3-0.4-0.5-0.8-0.5-1.3V38.8c-0.8,1.2-1.5,2-2.2,2.4c-0.6,0.4-1.3,0.4-1.9-0.1c-0.6-0.5-0.9-1.1-0.9-1.7
		c0-0.4,0.2-0.9,0.6-1.5l1.6-2.1c0.8-1.1,1.6-2.5,2.2-4c0.7-1.5,1.2-2.8,1.5-3.8c0.3-1,0.7-1.9,1-2.6c0.3-0.7,0.9-1.1,1.6-1.1
		c0.8,0,1.3,0.2,1.7,0.7c0.4,0.5,0.6,0.9,0.6,1.4c0,0.2-0.2,0.8-0.5,1.8C342.4,29.2,341.6,31.1,340.3,33.9 M350.7,33.7h6.2
		c0.6,0,1-0.1,1.1-0.3c0.1-0.2,0.2-0.5,0.2-1v-1.7c0-0.5-0.1-0.9-0.2-1.1c-0.1-0.3-0.5-0.4-1.2-0.4h-6.2c-0.7,0-1.2,0.1-1.3,0.3
		c-0.1,0.2-0.2,0.6-0.2,1.2v1.7c0,0.3,0.1,0.7,0.2,0.9C349.5,33.6,350,33.7,350.7,33.7z M349.6,43.7H344c-0.5,0-0.9-0.2-1.4-0.5
		c-0.4-0.4-0.6-0.8-0.6-1.4c0-0.6,0.2-1,0.6-1.4c0.4-0.3,0.9-0.5,1.4-0.5h7.5v-2.4h-1.4c-2.2,0-3.5-0.2-4-0.7
		c-0.5-0.5-0.8-1-0.8-1.7c-0.1-0.7-0.1-1.3-0.1-2V30c0-1,0.1-1.9,0.2-2.5c0.1-0.6,0.5-1.1,1.1-1.5c0.6-0.4,1.8-0.6,3.7-0.6h7.7
		c1.8,0,3,0.2,3.5,0.7c0.6,0.5,0.9,1,1,1.6c0.1,0.6,0.1,1.3,0.1,2.3v3.2c0,0.7,0,1.3-0.1,1.9c-0.1,0.6-0.4,1.1-0.9,1.6
		c-0.5,0.5-1.7,0.8-3.6,0.8h-2.1v2.4h8.4c0.5,0,1,0.2,1.3,0.6c0.4,0.4,0.6,0.8,0.6,1.3c0,0.5-0.1,0.9-0.5,1.4
		c-0.4,0.4-0.9,0.6-1.5,0.6h-5.9c0.9,1.7,1.6,2.9,2.1,3.5c0.5,0.6,1,1.2,1.8,1.8c0.7,0.6,1.5,1.2,2.3,1.7c0.9,0.5,1.4,0.9,1.8,1.2
		c0.3,0.3,0.5,0.8,0.5,1.4c0,0.6-0.3,1.3-0.9,2.1c-0.6,0.8-1.7,0.7-3.2-0.5c-1.5-1.1-2.7-2.2-3.8-3.1c-1.1-1-2.1-2.6-3-4.7v8.2
		c0,0.3-0.2,0.7-0.5,1.2c-0.3,0.5-0.9,0.8-1.8,0.7c-0.6,0-1.1-0.2-1.4-0.6c-0.3-0.4-0.5-0.8-0.5-1.3v-6.8c-1.3,1.8-2.4,3-3.2,3.7
		c-0.8,0.7-1.4,1.3-2,1.8c-0.6,0.4-1.1,0.8-1.6,1c-0.5,0.2-1,0.3-1.5,0.3c-0.5,0-0.9-0.3-1.3-0.7c-0.4-0.4-0.6-0.9-0.6-1.5
		c0-0.6,0.2-1,0.6-1.3c0.4-0.3,1.1-0.7,2.1-1.3c1-0.6,1.9-1.5,2.9-2.6C347.9,46.7,348.8,45.3,349.6,43.7z"/>
	<path class="st3" d="M388.9,42.2h9.6v-0.5c0-0.2-0.1-0.4-0.2-0.5c-0.1-0.1-0.3-0.1-0.6-0.1h-8.1c-0.4,0-0.6,0-0.7,0.1
		c-0.1,0.1-0.1,0.3-0.1,0.6V42.2z M398.6,45h-9.7v0.7c0,0.3,0.3,0.5,1,0.5h7.8c0.6,0,0.8-0.2,0.8-0.5V45z M391.5,50.2v-1h-2.8
		c-2.4,0-3.6-1.1-3.6-3.2v-4.3c0-0.3,0.1-1,0.3-2.1c0.2-1.1,1.4-1.7,3.5-1.7h9.6c2.2,0,3.4,0.6,3.6,1.7c0.2,1.1,0.3,1.8,0.3,2v4.2
		c0,1-0.3,1.8-1,2.4c-0.6,0.6-1.5,0.9-2.5,0.9h-3.4v1h8.3c0.9,0,1.4,0.4,1.5,1.3c0.1,0.9-0.1,1.4-0.5,1.6c-0.4,0.2-0.7,0.3-1,0.3
		h-8.3v2.2c0,0.3-0.1,0.7-0.5,1.1c-0.3,0.4-0.9,0.6-1.8,0.5c-0.7,0-1.1-0.3-1.4-0.6c-0.3-0.4-0.4-0.7-0.4-1v-2.2h-8.1
		c-0.4,0-0.8-0.1-1.2-0.4c-0.4-0.3-0.6-0.7-0.5-1.5c0.1-1,0.7-1.4,1.8-1.4H391.5z M390.9,31c0.7,0.7,1,1.3,1.1,1.8
		c0,0.3-0.1,0.6-0.3,0.8h4.2c-0.1-0.1-0.2-0.3-0.2-0.3c0-0.1,0-0.2,0-0.4c0-0.1,0.1-0.3,0.2-0.5l0.3-0.6l0.3-0.7H390.9z M395.7,27.5
		h6.2c0.3,0,0.6,0.1,1,0.4c0.4,0.3,0.6,0.7,0.6,1.3c0.1,0.6-0.1,1-0.5,1.3c-0.4,0.3-0.8,0.4-1.1,0.4h-2.2c0.1,0.1,0.1,0.2,0.2,0.3
		c0.1,0.1,0.1,0.4,0,0.8c0,0.4-0.3,0.9-0.7,1.5h4.2c0.3,0,0.6,0.1,1,0.4c0.3,0.3,0.5,0.7,0.5,1.3c0,0.6-0.2,1-0.6,1.2
		c-0.4,0.3-0.7,0.4-1,0.4h-19.2c-0.3,0-0.6-0.1-0.9-0.4c-0.4-0.3-0.5-0.8-0.4-1.5c0-0.4,0.2-0.7,0.5-1c0.3-0.3,0.6-0.5,0.9-0.5h4.4
		c-0.2-0.2-0.4-0.5-0.5-0.7c-0.1-0.2-0.2-0.6-0.2-0.9c0-0.4,0.2-0.7,0.6-0.9h-2.9c-0.3,0-0.6-0.1-0.9-0.4c-0.3-0.2-0.4-0.7-0.4-1.4
		c0-0.6,0.2-1,0.5-1.3c0.3-0.3,0.6-0.4,0.9-0.4h6.3c-0.4-0.5-0.7-0.9-0.9-1.4c-0.2-0.4-0.2-0.8-0.1-1.2c0.1-0.4,0.4-0.7,1-1
		c0.5-0.3,1-0.3,1.5-0.2c0.6,0.2,1.1,0.6,1.7,1.3c0.5,0.7,0.8,1.2,0.8,1.6C396.1,26.9,395.9,27.2,395.7,27.5z M378.5,29.1h-0.2
		c-0.6,0-0.9,0.1-1.1,0.4c-0.1,0.3-0.2,0.6-0.2,1.1v24.9c0,0.3-0.2,0.6-0.6,1c-0.4,0.4-0.9,0.6-1.6,0.5c-1.2,0-1.8-0.5-1.8-1.5V30.7
		c0-0.7,0-1.4,0.1-2.1c0.1-0.7,0.4-1.4,0.9-2.1c0.5-0.7,1.7-1,3.5-1h2.1c1.4,0,2.4,0.3,2.9,1c0.5,0.7,0.8,1.3,0.8,1.9
		c0,0.6-0.1,1.2-0.3,1.9c-0.2,0.7-0.4,1.4-0.7,2l-1.2,2.7c-0.2,0.5-0.2,0.9-0.1,1.2c0,0.1,0.4,0.5,0.9,1.1c0.6,0.6,1.1,1.5,1.6,2.7
		c0.5,1.2,0.7,2.5,0.6,3.8c-0.1,0.7-0.4,1.5-0.8,2.6c-0.4,1-1.2,1.7-2.3,2.1c-1.1,0.3-1.9,0.4-2.5,0.1c-0.9-0.3-1.3-0.8-1.5-1.6
		c-0.1-0.7-0.1-1.3,0.2-1.7c0.1-0.3,0.3-0.4,0.5-0.5c0.2-0.1,0.6-0.1,1.3-0.2c0.7-0.1,1.1-0.5,1.2-1.3c0.1-0.8,0.1-1.5-0.2-2.2
		c-0.2-0.5-0.4-0.9-0.7-1.2c-0.3-0.3-0.7-0.8-1.2-1.4c-0.6-0.6-0.9-1.1-1-1.5c-0.1-0.4,0-1.2,0.3-2.2c0.1-0.2,0.4-1,0.9-2.5
		c0.5-1.4,0.7-2.3,0.7-2.6C379.2,29.3,378.9,29.1,378.5,29.1z"/>
	<path class="st3" d="M432.8,34.4v-8.4c0-0.6,0.2-1,0.7-1.4c0.5-0.3,1-0.5,1.6-0.5c0.6,0,1,0.2,1.4,0.6c0.3,0.4,0.5,0.8,0.5,1.2v8.5
		h5.8c0.5,0,0.9,0.2,1.3,0.6c0.4,0.4,0.6,0.9,0.6,1.5c0,0.6-0.2,1-0.7,1.4c-0.4,0.3-0.9,0.5-1.3,0.5h-5.7v16.6c0,0.5-0.2,1-0.5,1.4
		c-0.4,0.5-0.9,0.7-1.6,0.6c-0.7,0-1.2-0.3-1.5-0.8c-0.3-0.5-0.5-0.9-0.5-1.3V38.2h-7.3c-0.3,0-0.7-0.1-1.1-0.4
		c-0.4-0.3-0.6-0.8-0.6-1.6c0-0.8,0.2-1.3,0.6-1.6c0.4-0.3,0.8-0.4,1.1-0.4H432.8z M416.6,27.1c-0.2-0.6-0.1-1.1,0.2-1.5
		c0.4-0.4,0.7-0.7,1.2-0.8c0.4-0.2,0.9-0.2,1.4,0c0.3,0.1,1,0.7,2,1.6c1,0.9,1.5,1.6,1.7,2.1c0.2,0.5,0.2,0.9,0.1,1.4
		c-0.1,0.5-0.4,0.9-0.8,1.2c-0.5,0.3-0.9,0.5-1.4,0.5c-0.4,0-0.8-0.2-1.2-0.6l-1.2-1.3l-1.2-1.2C416.9,27.7,416.7,27.3,416.6,27.1z
		 M422.1,48.1c0.9-0.6,1.7-1.2,2.4-1.9c0.7-0.7,1.5-0.9,2.2-0.6c0.7,0.3,1.1,0.6,1.3,1.1c0.1,0.5,0.2,0.9,0.1,1.2
		c-0.2,1.1-1.5,2.6-3.9,4.6c-2.4,2-3.9,3-4.6,3c-0.5,0-0.9-0.2-1.4-0.6c-0.4-0.4-0.7-0.8-0.7-1.2c0-0.4,0-0.8,0.1-1.3
		c0-0.4,0.1-0.8,0.2-1.1c0.1-0.3,0.2-0.5,0.2-0.6V38.8c0-0.5-0.1-0.9-0.3-1c-0.2-0.2-0.5-0.2-1-0.2h-3.3c-0.4,0-0.7-0.2-1.1-0.5
		c-0.3-0.3-0.5-0.8-0.4-1.5c0-0.6,0.3-1.1,0.7-1.4c0.4-0.3,0.8-0.5,1.2-0.5h3.4c1.8,0,3,0.3,3.5,0.9c0.6,0.6,0.9,1.3,1.1,2
		c0.1,0.7,0.2,1.3,0.2,1.9V48.1z"/>
	<path class="st3" d="M472.1,46.2V30.5c0-0.5,0.2-0.9,0.5-1.2c0.3-0.3,0.8-0.5,1.3-0.5c0.6,0,1.1,0.1,1.5,0.4
		c0.4,0.3,0.6,0.8,0.6,1.3v15.6c0,0.5-0.2,0.9-0.6,1.2c-0.4,0.3-0.9,0.5-1.5,0.5c-0.6,0-1.1-0.2-1.4-0.5
		C472.3,47,472.1,46.6,472.1,46.2 M478.4,50.1V27c0-0.5,0.2-1,0.5-1.4c0.3-0.4,0.8-0.6,1.4-0.6c0.6,0,1.1,0.2,1.5,0.6
		c0.4,0.4,0.6,0.9,0.6,1.4l-0.1,25.6c0,1-0.3,1.8-0.8,2.5c-0.5,0.7-1.7,1.2-3.5,1.3c-1,0.1-1.9-0.1-2.6-0.5c-0.7-0.4-1.1-1-1.1-1.7
		c0-0.7,0.2-1.3,0.6-1.6c0.2-0.2,0.5-0.3,0.9-0.4l1.3,0c0.5,0,0.8-0.1,0.9-0.3c0.1-0.2,0.2-0.4,0.2-0.7
		C478.4,50.9,478.4,50.6,478.4,50.1z M469.1,28.9c0,0.6-0.2,1.1-0.6,1.5c-0.4,0.4-0.9,0.5-1.3,0.5c-0.4,0-0.7-0.1-1-0.3
		c-0.3-0.2-0.7-0.7-1.2-1.4l-0.9-1.2c-0.3-0.5-0.5-0.9-0.6-1.4c0-0.5,0.1-0.9,0.5-1.2c0.4-0.3,0.8-0.5,1.2-0.5
		c0.7,0,1.5,0.6,2.4,1.6C468.5,27.5,469,28.3,469.1,28.9z M459.6,46.8c-0.4-1.3-0.8-2.4-1-3.2c-0.2-0.8-0.4-1.9-0.7-3.3
		c-0.2-1.4-0.3-2.6-0.4-3.5l-0.1-1.3h-3.4c-0.5,0-0.9-0.2-1.2-0.5c-0.3-0.3-0.5-0.8-0.5-1.4c0-0.6,0.2-1.1,0.5-1.4
		c0.3-0.3,0.7-0.5,1.3-0.5h3.2c0-0.6-0.1-1.5-0.1-2.7c0-1.2-0.1-1.9,0-2c0-0.7,0.1-1.3,0.4-1.8c0.3-0.5,0.8-0.7,1.7-0.7
		c0.9,0,1.4,0.3,1.8,0.7c0.3,0.5,0.5,1.3,0.5,2.4v2.5v1.7h7.5c0.5,0,0.9,0.2,1.3,0.5c0.3,0.3,0.5,0.8,0.5,1.4c0,0.7-0.2,1.1-0.6,1.5
		c-0.4,0.3-0.8,0.5-1.2,0.5h-7.3c0,0.9,0.1,1.9,0.2,3.1c0.1,1.1,0.2,2,0.3,2.4l0.6,2.3c0.5-0.6,0.8-1.2,1.1-1.6c0.3-0.4,0.6-1,1-1.7
		c0.4-0.7,0.7-1.2,0.9-1.5c0.2-0.3,0.4-0.6,0.7-0.7c0.3-0.2,0.7-0.2,1.1-0.2c0.5,0,0.9,0.2,1.4,0.6c0.4,0.4,0.7,1,0.7,1.7
		c0,0.7-1.7,3.3-5.1,7.8c0.4,0.8,0.9,1.6,1.5,2.3c0.6,0.7,1.2,1,1.8,1c0.3,0,0.5-0.2,0.8-0.4l0.9-1.4c0.3-0.3,0.8-0.5,1.3-0.5
		c0.6,0,1.1,0.2,1.5,0.6c0.4,0.5,0.6,0.9,0.6,1.4c0,0.4-0.1,1-0.5,1.6c-0.3,0.5-0.8,1.3-1.6,2.4c-0.8,1-1.8,1.5-2.9,1.5
		c-0.6,0-1.2-0.2-1.8-0.5c-0.6-0.3-1.2-0.8-2-1.5c-0.7-0.6-1.7-1.8-2.9-3.5c-3.4,2.8-5.8,4.1-7,4.1c-0.5,0-1-0.2-1.4-0.5
		c-0.4-0.3-0.6-0.8-0.7-1.3c0-0.6,0-1,0.2-1.3c0.1-0.2,0.4-0.4,0.7-0.7c0.3-0.2,1-0.6,1.8-1c0.9-0.4,1.6-0.8,2.1-1.2
		C457.7,48.4,458.5,47.8,459.6,46.8z"/>
	<rect y="0" class="st4" width="640" height="92.4"/>
</g>
<g>
</g>
<g>
</g>
<g>
</g>
<g>
</g>
<g>
</g>
<g>
</g>
<g>
</g>
<g>
</g>
<g>
</g>
<g>
</g>
<g>
</g>
<g>
</g>
<g>
</g>
<g>
</g>
<g>
</g>
</svg>
