<?xml version="1.0" encoding="utf-8"?>
<!-- Generator: Adobe Illustrator 17.0.0, SVG Export Plug-In . SVG Version: 6.00 Build 0)  -->
<!DOCTYPE svg PUBLIC "-//W3C//DTD SVG 1.1//EN" "http://www.w3.org/Graphics/SVG/1.1/DTD/svg11.dtd">
<svg version="1.1" id="Layer_1" xmlns="http://www.w3.org/2000/svg" xmlns:xlink="http://www.w3.org/1999/xlink" x="0px" y="0px"
	 width="640px" height="404px" viewBox="0 0 640 404" style="enable-background:new 0 0 640 404;" xml:space="preserve">
<style type="text/css">
	.st0{fill:#AF7A37;}
	.st1{fill:#AB1929;}
	.st2{fill:none;}
</style>
<g id="page-1-title.svg">
	<path id="fu" class="st0" d="M344,91.1L344,91.1V80.4h7.6v10.7H344z M328.8,80.4L328.8,80.4h7.6v10.7h-7.6V80.4z M344,77.7
		L344,77.7v-9.4h7.6v9.4H344z M328.8,68.4L328.8,68.4h7.6v9.4h-7.6V68.4z M331.8,55L331.8,55h16.7v-8.6h-16.7V55z M309.1,50.2
		L309.1,50.2c-2.8,7.5-7.3,14.3-13.6,20.3h1.9c2.8-2.1,5.2-4.2,7.2-6.1v33.1h7.6V60.9c1.5,2.5,3.3,5,5.3,7.5c1.8-0.9,3-2.3,3.8-4.3
		v33.4h7.6v-3.7h22.7v3.7h7.6V63h-7.6v2.7h-22.7V63h-7.6c-2.5-1.1-5.4-2.5-8.7-4.3v-1.3c3-4.6,4.9-9,5.7-13.1h-7.9l-0.4,3.2h-13.6
		v2.7H309.1z M324.3,60.3L324.3,60.3V41.6h7.6v2.1h16.7v-2.1h7.6v18.7h-7.6v-2.7h-16.7v2.7H324.3z M361.4,33.6L361.4,33.6v2.7H319
		v-2.7H361.4z M303.8,31.2l0.4-0.3c3.3,1.6,6.9,3.6,11,5.9c-0.5,2.1-1.5,4.1-3,5.9C308.6,40,305.8,36.2,303.8,31.2z"/>
	<path id="lu" class="st0" d="M322,138.3L322,138.3c3.3,8,5.4,12.5,6.4,13.4c1.5-0.9,2.9-2.6,4.2-5.1c-3-2.9-6.4-5.7-10.2-8.6
		L322,138.3z M346.2,136.4L346.2,136.4c-0.8,16.9,4,27.7,14.4,32.3c0.3,0,0.3-0.6,0-1.9c-0.3-3.2,0.5-5.5,2.3-6.9
		c-5.6-1.8-9.2-4.7-11-8.8l6.4-12.6l-3-1.1l-4.9,10.2c-1.3-2.1-2.3-5.2-3-9.1c-0.3-0.9-0.4-1.6-0.4-2.1H346.2z M295.5,125.7
		L295.5,125.7h15.1c-1.3,7.7-6.1,16.2-14.4,25.7h2.3c0.8-0.7,2-2,3.8-3.7c1.5-1.6,2.8-2.9,3.8-3.7v29.7h7.6v-33.9
		c2.3,4.1,4.3,7.1,6.1,9.1c0.8-0.4,1.5-2.1,2.3-5.3c-0.8-0.5-3.3-2.8-7.6-7c3.3-5.5,5-10.7,5.3-15.5h-9.1v2.1h-15.1V125.7z
		 M347,113.9L347,113.9h-25v-2.7h25v-3.2h7.6v15c-0.5,3.6-2.8,6.6-6.8,9.1h13.6v2.7h-16.7v31.8c0.5,3.9-3.8,6.4-12.9,7.5
		c-0.3-0.7-1.5-0.9-3.8-0.5l-4.2,0.8l-0.7-1.1c10.6-1.8,15.3-4,14-6.7v-15.8c-4.3,8.6-10.1,14-17.4,16.3c1.3-3.6,0.8-6.3-1.5-8.3
		c10.1-1.6,16.4-5,18.9-10.2v-13.9h-17.4v-2.7h25.4c1.5-2.5,2.1-5.2,1.9-8h-22.7v-2.7H347V113.9z M304.2,108.6v-0.3
		c4,1.3,7.9,2.9,11.7,5.1c-1.3,2.3-2.5,4.1-3.8,5.3C309.6,116.4,307,113,304.2,108.6z"/>
	<path id="man" class="st1" d="M330.7,252L330.7,252l-1,3.4h1.5V252H330.7z M333.7,251.5L333.7,251.5v1.5h1l0.5-2.9h-0.5
		L333.7,251.5z M337.6,270.2L337.6,270.2v1h0.5c4.9-3.3,7.4-5.6,7.4-6.9l-0.5-2c0-2,1.5-6.4,4.4-13.3l1-2.5h-1
		c-4.9,0-8,6.1-9.3,18.2L337.6,270.2z M354.3,259.4L354.3,259.4l2,8.9c-2.6,2.6-5.7,4.4-9.3,5.4l-1.5-0.5l-4.9,1
		c3.6,5.9,7.6,8.9,11.8,8.9h1.5c3.6-14.8,5.4-25.1,5.4-31v-3.9c0-2-0.7-3.1-2-3.4C356.6,244.6,355.6,249.5,354.3,259.4z M314,253.5
		L314,253.5c9.5-5.6,17.4-9.5,23.6-11.8l1.5-5.4l-1-2h-0.5c-8.5,1.6-15.4,5.7-20.7,12.3C315,249.5,314,251.8,314,253.5z
		 M288.9,212.6L288.9,212.6v2.5l-1,4.4c-5.2,13.1-9.7,25.9-13.3,38.4c-6.6,1-9.8,2.3-9.8,3.9v0.5l0.5,0.5c-1.3,0-2.1,1.5-2.5,4.4
		c1.6,2.6,2.6,5.2,3,7.9l-2,5.4l5.9,10.3c7.6-1.6,11.3-3.6,11.3-5.9v-4.4l-0.5-7.4l7.4-5.9l15.2-18.2v-1l-0.5-0.5
		c2.3-2.6,4.1-5.1,5.4-7.4v-1h-0.5c-6.9,5.6-11.7,8.4-14.3,8.4L282,254h-1l3.9-8.4c4.6-0.3,8.9-2,12.8-4.9l-8.4-24.6l1-0.5v-3H288.9
		z M331.2,211.2L331.2,211.2l-0.5,6.4h1l3.5-6.4v-0.5L331.2,211.2z M286.4,183.1L286.4,183.1v0.5c3,2.6,4.4,6.1,4.4,10.3l-0.5,2.9
		l1,3l-2,11.3h1.5c0-2,0.8-3.4,2.5-4.4h2l1,2c2,0,3.3,0.3,3.9,1h0.5l5.9-6.4v-3C298.7,188.8,292,183.1,286.4,183.1z M362.2,168.4
		h0.5c4.3,4.3,6.4,7.9,6.4,10.8v2.5c0,5.9-6.7,16.6-20.2,32v1c1.3,0,2,0.3,2,1l2.9-0.5c5.9,3,8.9,4.9,8.9,5.9v0.5c0,1.3-0.8,2-2.5,2
		v1l0.5,1v0.5c-2,1.3-6.1,2.6-12.3,3.9c0,0.7-1.1,1-3.4,1l-1,2l1.5,3.9l-0.5,3.4c6.6-1.3,11-3,13.3-4.9l12.3,5.4l1,2.5
		c-2,34.1-5.9,51.2-11.8,51.2c-3.3,0-8.2-3.1-14.8-9.3l-4.9-4.9c-1.3,0-2.3-2-3-5.9h-2.9v-1h1v-1c0-1-0.7-1.5-2-1.5l-1.5-2.5
		l0.5-8.4l-0.5-0.5h-0.5c-2.3,2.3-3.4,5.6-3.4,9.8c-1.3,1.3-3.3,2.3-5.9,2.9c-1.6-2.3-2.5-3.9-2.5-4.9c0-1.6,1.5-5.9,4.4-12.8
		c-6.5,3.6-9.8,8.2-9.8,13.8l-3.4,7.9h1v3.9c-1.7,5.2-4.3,7.9-7.9,7.9h-1c-1.3-0.7-2.5-2.5-3.4-5.4l1.5-5.9l-2.5-6.4h1l-1-1v-2
		c8.2-6.2,13.6-12.6,16.2-19.2l4.4-5.4h-1.5v-1.5h1.5v-0.5h-1l-5.9,2l-3-4.4l3.4-10.8l9.8-1.5v-1.5l-2.9-3.4l0.5-5.9v-0.5h-3
		l-2.9-3.4v-3c6.5,0,9.8-2.1,9.8-6.4l3.9-19.2h1c0.7,0,1.6,6.7,2.9,20.2l2-0.5v0.5c8.2-2,13.8-5.8,16.7-11.3
		c6.6-9.2,9.8-14.8,9.8-16.7v-1.5h-2v-1L362.2,168.4z"/>
	<path id="tang" class="st0" d="M298.8,383.2L298.8,383.2h27.9v-13.6h-20.3v-4.1h20.3v-9.8h8.3v9.8h19.6v4.1h-19.6v13.6h27.1v4.1
		h-63.3V383.2z M343.2,347.7L343.2,347.7h-25.6v-12.8h25.6V347.7z M317.6,355.7L317.6,355.7v-3.8h25.6v3.8h7.5v-27.9h-7.5v3h-25.6
		v-3h-7.5v27.9H317.6z M317.6,317.2h9.8v-21.1h7.5v21.1h3.8l10.6-18.1l3.4,2.3l-9.4,15.8h11.3v-3h7.5v16.6c-0.5,0-1-0.1-1.5-0.4
		c-0.5-0.8-1-1.1-1.5-1.1c-1.5,0-2.8,1.5-3.8,4.5h-0.8v-12.4h-47.5v8.7h-7.5v-16.6h7.5v3.8h8.3c-1.3-2.2-3.8-8.4-7.5-18.5l0.4-0.4
		c3.5,2.5,7.5,5.5,12.1,9C320,309.7,319.1,313,317.6,317.2z"/>
	<path id="flmt" class="st0" d="M402.9,179.1L402.9,179.1c0-0.9-0.6-1.6-1.8-2.4c-1.2-0.7-3-1.1-5.4-1.1c-1.6,0-3.1,0.3-4.5,0.8
		c-1.4,0.5-2.1,1.4-2.1,2.7c0,0.6,0.1,1.1,0.4,1.5c0.3,0.4,0.6,0.6,1.2,0.6h2.9c0.3,0,0.6-0.1,0.8-0.3c0.2-0.2,0.3-0.4,0.3-0.8v-0.5
		h0.5v4.3h-0.5v-0.4c0-0.3-0.1-0.5-0.3-0.7c-0.2-0.2-0.4-0.3-0.7-0.3h-4.3c0.1-0.1,0.1-0.2,0.1-0.3c0-0.1,0-0.2,0-0.3
		c0-0.1,0-0.2,0-0.3c0-0.1-0.1-0.2-0.2-0.3c-0.3-0.3-0.5-0.7-0.6-1.1c-0.1-0.4-0.2-0.8-0.2-1.2c0-1.7,0.8-3,2.3-3.8
		c1.5-0.8,3.2-1.2,5-1.2c2.1,0,3.9,0.5,5.4,1.4c1.5,0.9,2.3,2.1,2.3,3.6c0,0.3-0.1,0.7-0.3,1.2c-0.2,0.5-0.3,0.7-0.3,0.9
		c0,0.2,0,0.3,0.1,0.5c0.1,0.2,0.2,0.3,0.4,0.4l-3.9,0.7l-0.2-0.5c1.2-0.3,2.1-0.8,2.6-1.3C402.6,180.5,402.9,179.9,402.9,179.1z
		 M392.1,169.1L392.1,169.1v0.2h10c0.2,0,0.4-0.1,0.5-0.2c0.1-0.1,0.2-0.3,0.2-0.6v-0.7h0.5v3.4h-0.5v-0.7c0-0.2-0.1-0.4-0.2-0.6
		c-0.1-0.1-0.3-0.2-0.5-0.2h-13.4v-0.5v0l12.8-6.6v-0.2h-11.6c-0.2,0-0.4,0.1-0.5,0.2c-0.1,0.1-0.2,0.3-0.2,0.6v0.7h-0.5v-3.4h0.5
		v0.7c0,0.3,0.1,0.5,0.2,0.6c0.1,0.1,0.3,0.2,0.5,0.2h12.3c0.2,0,0.4-0.1,0.5-0.2c0.1-0.1,0.2-0.4,0.2-0.7v-0.6h0.5v2.7L392.1,169.1
		z M401.8,152.4L401.8,152.4L401.8,152.4l-7.1-1.9v3.6L401.8,152.4z M394.2,154.1L394.2,154.1v-3.7l-3.3-0.8c-0.5-0.1-0.9-0.1-1.2,0
		c-0.3,0.1-0.5,0.4-0.5,0.8v0.3h-0.5v-3.2h0.5v0.3c0,0.2,0.1,0.4,0.2,0.6c0.1,0.2,0.4,0.3,0.7,0.3l13.1,3.3l0.4,1.3l-13.5,3.3
		c-0.3,0.1-0.6,0.3-0.7,0.4c-0.1,0.2-0.2,0.4-0.2,0.6v0.3h-0.5v-3.7h0.5v0.3c0,0.3,0.1,0.6,0.3,0.6c0.2,0.1,0.5,0.1,0.9,0
		L394.2,154.1z M388.7,141.7L388.7,141.7v-4.5h0.5v0.8c0,0.3,0.1,0.5,0.2,0.6c0.1,0.1,0.3,0.2,0.5,0.2h12c0.5,0,0.7,0,0.8-0.1
		c0.1-0.1,0.1-0.3,0.1-0.7c0-0.8-0.1-1.4-0.4-1.7c-0.3-0.3-1.1-0.7-2.3-1.2l0.1-0.5l3.3,0.8v8.1l-3.3,0.7l-0.1-0.4
		c1.2-0.5,2-0.8,2.3-1.1c0.3-0.3,0.5-0.8,0.5-1.6c0-0.6,0-0.9-0.1-0.9c-0.1-0.1-0.3-0.1-0.9-0.1h-11.9c-0.2,0-0.4,0.1-0.5,0.2
		c-0.1,0.1-0.2,0.3-0.2,0.6v0.8H388.7z M392.1,129.6L392.1,129.6v0.2h10c0.2,0,0.4-0.1,0.5-0.2c0.1-0.1,0.2-0.3,0.2-0.6v-0.7h0.5
		v3.4h-0.5V131c0-0.2-0.1-0.4-0.2-0.6c-0.1-0.1-0.3-0.2-0.5-0.2h-13.4v-0.5v0l12.8-6.6v-0.2h-11.6c-0.2,0-0.4,0.1-0.5,0.2
		c-0.1,0.1-0.2,0.3-0.2,0.6v0.7h-0.5v-3.4h0.5v0.7c0,0.3,0.1,0.5,0.2,0.6c0.1,0.1,0.3,0.2,0.5,0.2h12.3c0.2,0,0.4-0.1,0.5-0.2
		c0.1-0.1,0.2-0.4,0.2-0.7v-0.6h0.5v2.7L392.1,129.6z M401.8,112.9L401.8,112.9L401.8,112.9l-7.1-1.9v3.6L401.8,112.9z M394.2,114.7
		L394.2,114.7v-3.7l-3.3-0.8c-0.5-0.1-0.9-0.1-1.2,0c-0.3,0.1-0.5,0.4-0.5,0.8v0.3h-0.5v-3.2h0.5v0.3c0,0.2,0.1,0.4,0.2,0.6
		c0.1,0.2,0.4,0.3,0.7,0.3l13.1,3.3l0.4,1.3l-13.5,3.3c-0.3,0.1-0.6,0.3-0.7,0.4c-0.1,0.2-0.2,0.4-0.2,0.6v0.3h-0.5v-3.7h0.5v0.3
		c0,0.3,0.1,0.6,0.3,0.6c0.2,0.1,0.5,0.1,0.9,0L394.2,114.7z M389.9,104.2L389.9,104.2c-0.2,0-0.4,0.1-0.5,0.2
		c-0.1,0.1-0.2,0.3-0.2,0.6v0.3h-0.5v-3.7h0.5v0.4c0,0.3,0.1,0.5,0.2,0.6c0.1,0.1,0.3,0.2,0.5,0.2h11.2v-0.2l-12.4-2.9v-0.5
		l12.2-2.7v-0.2h-11c-0.2,0-0.4,0.1-0.5,0.2c-0.1,0.1-0.2,0.3-0.2,0.6v0.3h-0.5v-2.6h0.5v0.3c0,0.3,0.1,0.5,0.2,0.6
		c0.1,0.1,0.3,0.2,0.5,0.2h12.3c0.2,0,0.4-0.1,0.5-0.2c0.1-0.1,0.2-0.3,0.2-0.6v-0.3h0.5v2.4l-11.2,2.4v0.2l11.2,2.7v2.7h-0.5V105
		c0-0.2-0.1-0.4-0.2-0.6c-0.1-0.1-0.3-0.2-0.5-0.2H389.9z M389.2,78.3L389.2,78.3c0,0.9,0.3,1.6,0.9,2.2c0.6,0.6,1.3,0.9,2.1,0.9
		h9.9c0.2,0,0.4-0.1,0.5-0.2c0.1-0.1,0.2-0.3,0.2-0.6v-0.5h0.5v3.1h-0.5v-0.5c0-0.2-0.1-0.4-0.2-0.6c-0.1-0.1-0.3-0.2-0.5-0.2h-9.9
		c-1.1,0-2-0.4-2.7-1.2c-0.7-0.8-1-1.6-1-2.6c0-1,0.3-1.9,0.9-2.7c0.6-0.8,1.5-1.2,2.7-1.2h10c0.2,0,0.4-0.1,0.5-0.2
		c0.1-0.1,0.2-0.3,0.2-0.6V73h0.5v3.8h-0.5v-0.4c0-0.2-0.1-0.4-0.2-0.6c-0.1-0.1-0.3-0.2-0.5-0.2h-10c-1.1,0-1.9,0.2-2.3,0.7
		C389.4,76.8,389.2,77.5,389.2,78.3z M389.9,63L389.9,63c-0.2,0-0.4,0.1-0.5,0.2c-0.1,0.1-0.2,0.3-0.2,0.6V66c0,0.8,0.2,1.5,0.7,2.1
		c0.5,0.6,1.2,1,2.3,1.3l-0.2,0.4l-3.3-0.8v-8.8h0.5v0.6c0,0.3,0.1,0.5,0.2,0.6c0.1,0.1,0.3,0.2,0.5,0.2h12.3c0.2,0,0.4-0.1,0.5-0.2
		c0.1-0.1,0.2-0.3,0.2-0.6v-0.5h0.5v4.1h-0.5v-0.6c0-0.2-0.1-0.4-0.2-0.6c-0.1-0.1-0.3-0.2-0.5-0.2H389.9z M389.2,51.9L389.2,51.9
		c0,0.9,0.3,1.6,0.9,2.2c0.6,0.6,1.3,0.9,2.1,0.9h9.9c0.2,0,0.4-0.1,0.5-0.2c0.1-0.1,0.2-0.3,0.2-0.6v-0.5h0.5v3.1h-0.5v-0.5
		c0-0.2-0.1-0.4-0.2-0.6c-0.1-0.1-0.3-0.2-0.5-0.2h-9.9c-1.1,0-2-0.4-2.7-1.2c-0.7-0.8-1-1.6-1-2.6c0-1,0.3-1.9,0.9-2.7
		c0.6-0.8,1.5-1.2,2.7-1.2h10c0.2,0,0.4-0.1,0.5-0.2c0.1-0.1,0.2-0.3,0.2-0.6v-0.4h0.5v3.8h-0.5v-0.4c0-0.2-0.1-0.4-0.2-0.6
		c-0.1-0.1-0.3-0.2-0.5-0.2h-10c-1.1,0-1.9,0.2-2.3,0.7C389.4,50.5,389.2,51.1,389.2,51.9z M389.2,37.8h-0.5v-4.1h0.5v0.6
		c0,0.3,0.1,0.5,0.2,0.6c0.1,0.1,0.3,0.2,0.5,0.2h12.3c0.2,0,0.4-0.1,0.5-0.2c0.1-0.1,0.2-0.3,0.2-0.6v-0.5h0.5v9l-3.1,1l-0.2-0.4
		c0.9-0.5,1.6-1,2.1-1.6c0.5-0.6,0.7-1.3,0.7-2.1v-2.4c0-0.2-0.1-0.4-0.2-0.6c-0.1-0.1-0.3-0.2-0.5-0.2h-5.5v2.8
		c0,0.6,0.1,1,0.4,1.2c0.3,0.3,0.7,0.4,1.2,0.4h0.4v0.5h-5v-0.5h0.3c0.7,0,1.2-0.1,1.5-0.4c0.3-0.3,0.5-0.7,0.5-1.2v-2.8h-6.3
		c-0.2,0-0.4,0.1-0.5,0.2c-0.1,0.1-0.2,0.3-0.2,0.6V37.8z"/>
	<rect x="0" class="st2" width="640" height="404"/>
</g>
<g>
</g>
<g>
</g>
<g>
</g>
<g>
</g>
<g>
</g>
<g>
</g>
<g>
</g>
<g>
</g>
<g>
</g>
<g>
</g>
<g>
</g>
<g>
</g>
<g>
</g>
<g>
</g>
<g>
</g>
</svg>
