<?xml version="1.0" encoding="utf-8"?>
<!-- Generator: Adobe Illustrator 17.0.0, SVG Export Plug-In . SVG Version: 6.00 Build 0)  -->
<!DOCTYPE svg PUBLIC "-//W3C//DTD SVG 1.1//EN" "http://www.w3.org/Graphics/SVG/1.1/DTD/svg11.dtd">
<svg version="1.1" id="Layer_1" xmlns="http://www.w3.org/2000/svg" xmlns:xlink="http://www.w3.org/1999/xlink" x="0px" y="0px"
	 width="161.8px" height="88.9px" viewBox="0 0 161.8 88.9" style="enable-background:new 0 0 161.8 88.9;" xml:space="preserve">
<style type="text/css">
	.st0{fill:#C30D23;stroke:#C89F63;stroke-width:2;stroke-linecap:round;stroke-linejoin:round;stroke-miterlimit:10;}
	.st1{fill:#C89F63;}
	.st2{fill:#C30D23;}
</style>
<g id="sound-icon.svg">
	<g>
		<circle class="st0" cx="34.4" cy="34.7" r="29.5"/>
		<g>
			<path class="st0" d="M69.6,1c-2.2,0-11.6,2.1-15.3,3.9s-6.3,5.4-6.3,5.4c-1,0-2.5,0.2-3.6,0.4c-2.2-0.9-4.9-1.2-8-1.2
				c-5.1,0-9.5,1.5-12.6,5.1c-0.8-1.1-2.4-2.9-5.6-5.4C11.9,4.3,1,4,1,4s5.2,5.3,9.1,8.6c3.1,2.6,8.2,6.6,10.3,8.1
				c-1.5,4.7-1.8,11.1-0.5,19.4c2.5,15.3,8.6,29.1,18.3,28.9c12.1-0.3,15.3-16.4,15.4-32.9c0-8.5-0.8-14.5-2.5-18.6
				c2.3-1.4,5.8-4.2,8.1-6.1C61.9,9.3,71.9,1,69.6,1z"/>
			<path class="st1" d="M58.8,6.5c-3.9,2-10,7.4-10,7.4l2.5,3.4c2.3-1.4,5.6-4.2,7.9-6c2.3-1.8,9.8-8,10.6-9.9
				C66.4,2.9,61.5,5.1,58.8,6.5z"/>
			<path class="st1" d="M21.7,26.9c0,0,5.4-1.3,8.2,3s2.1,9.4,2.1,9.4s-4.5,1.2-8.1-4C20.5,30.2,21.7,26.9,21.7,26.9z"/>
			<path class="st1" d="M51.8,25.3c0,0-5.6-0.6-8.6,3.4s-2.1,9.4-2.1,9.4s6.1,0,8.1-3.9C52.1,28.2,51.8,25.3,51.8,25.3z"/>
			<path class="st2" d="M23.7,34.8c0,0-0.8-2.2,1.6-3.9c2.4-1.7,4.1-1.5,4.7-0.5c0.6,0.9-0.1,3-1.9,4.1S24.9,36,23.7,34.8z"/>
			<path class="st2" d="M43.2,28.7c-0.8,1.3,0,3.2,1.9,4.4c1.9,1.2,4.3,1,4.6,0.3c0.3-0.6,0.1-2.6-1.9-4.1
				C46.1,28,43.9,27.6,43.2,28.7z"/>
			<path class="st1" d="M52.7,49.8c-3.9-2.2-8.7-3.5-15.6-2.8c-6.2,0.6-10.6,4-13.5,7.2C26.8,63,31.7,69.2,38.3,69
				C46.8,68.8,51,60.5,52.7,49.8z"/>
			<circle class="st2" cx="45.3" cy="59.3" r="1.6"/>
			<circle class="st2" cx="30.5" cy="60.5" r="1.6"/>
			<path class="st1" d="M21.9,17.5c0,0-6-5.5-8.9-7.4C10.7,8.5,5,5.7,1.3,4.3c1.2,1.2,5.5,5.5,8.8,8.3c3.1,2.6,10.3,8.1,10.3,8.1
				l0.1,0.1C20.5,20.8,21.6,18.1,21.9,17.5z"/>
		</g>
	</g>
	<circle class="st0" cx="131.3" cy="34.7" r="29.5"/>
	<g>
		<path class="st0" d="M157.5,9.9c-1.6,0-8.5,1.6-11.3,2.9s-4.6,4-4.6,4c-0.8,0-1.8,0.1-2.7,0.3c-1.6-0.6-3.6-0.9-5.9-0.9
			c-3.7,0-7,1.1-9.3,3.7c-0.6-0.8-1.8-2.1-4.1-4c-4.6-3.6-12.7-3.8-12.7-3.8s3.8,3.9,6.7,6.3c2.3,1.9,6.1,4.8,7.6,6
			c-1.1,3.5-1.4,8.2-0.4,14.3c1.8,11.3,6.3,21.5,13.5,21.3c8.9-0.2,11.3-12.1,11.3-24.2c0-6.3-0.6-10.7-1.8-13.7
			c1.7-1,4.2-3.1,6-4.5C151.8,16.1,159.2,9.9,157.5,9.9z"/>
		<path class="st1" d="M149.5,14c-2.9,1.5-7.4,5.5-7.4,5.5L144,22c1.7-1,4.1-3.1,5.8-4.4c1.7-1.3,7.2-5.9,7.8-7.3
			C155.1,11.3,151.5,13,149.5,14z"/>
		<path class="st1" d="M122.2,29.1c0,0,4-0.9,6,2.2s1.6,6.9,1.6,6.9s-3.3,0.9-6-3C121.3,31.5,122.2,29.1,122.2,29.1z"/>
		<path class="st1" d="M144.4,27.9c0,0-4.1-0.5-6.3,2.5c-2.2,3-1.6,6.9-1.6,6.9s4.5,0,6-2.9C144.6,30,144.4,27.9,144.4,27.9z"/>
		<path class="st2" d="M123.7,34.9c0,0-0.6-1.6,1.2-2.9c1.8-1.3,3-1.1,3.5-0.4c0.4,0.7,0,2.2-1.4,3
			C125.7,35.4,124.5,35.7,123.7,34.9z"/>
		<path class="st2" d="M138,30.4c-0.6,0.9,0,2.3,1.4,3.2c1.4,0.9,3.1,0.7,3.4,0.2c0.2-0.5,0.1-1.9-1.4-3.1
			C140.2,29.8,138.5,29.6,138,30.4z"/>
		<path class="st1" d="M145,45.9c-2.9-1.6-6.4-2.6-11.5-2.1c-4.6,0.5-7.8,2.9-9.9,5.3c2.4,6.4,6,11,10.8,10.9
			C140.7,59.9,143.8,53.8,145,45.9z"/>
		<circle class="st2" cx="139.6" cy="52.9" r="1.2"/>
		<circle class="st2" cx="128.7" cy="53.8" r="1.2"/>
		<path class="st1" d="M122.4,22.1c0,0-4.4-4.1-6.6-5.5c-1.7-1.1-5.9-3.2-8.6-4.2c0.9,0.9,4,4,6.5,6.1c2.3,1.9,7.6,6,7.6,6l0.1,0
			C121.3,24.5,122.1,22.5,122.4,22.1z"/>
	</g>
	<path class="st1" d="M21.1,81.4l-8.3,0.1V83l3.9,0l-4.9,6h9.4l0-0.7h-5.7L21.1,81.4z M21.8,88.9h2.3l1.2-8.7h-2.4L21.8,88.9z
		 M20.9,78.4v-0.8h-6.5l0.8-2.1h-2l-1.5,2.3H6.8l0,0.5h4L5.4,88.9h2.5l5.9-10.6L20.9,78.4z M64.9,75.5h-5.1v5.8h5.3L64.9,75.5z
		 M58.1,75.5h-5.9l0.1,5.9h5.8L58.1,75.5z M55.8,80.6h-1.3V77h1.3V80.6z M27.3,75.9v13h2.1l0-13H27.3z M59.7,88.2l2-3.1l1.8-2.8
		h-8.2L53,88.9h2.3l2.3-5.8l2.6,0l-3.5,5.8h8.2l-0.1-0.7H59.7z M50.6,75.5H44l0,12.5h-1.2l0,0.9l9.2,0l0.3-0.9h-1.6V75.5z M46.2,77
		h2.1v3.1l-2.1,0V77z M48.3,88.2h-2.1v-3.7h2.1V88.2z M48.3,83.6h-2.1v-2.8h2.1L48.3,83.6z M42.2,77.7H40l-0.5-2.3l-1.3,0l0.2,2.2
		h-2.8l0,1.5h4.2l-4.3,8.6h-0.7l-1.4-7.7h-2.4l1.2,8.7l5.1,0l0.3-0.7l0.6,0l-0.1,0.8h2.8v-5.3h1.4L41,81.2L42.2,77.7z"/>
	<path class="st1" d="M116.6,81.4l-8.3,0.1V83l3.9,0l-4.9,6h9.4l0-0.7H111L116.6,81.4z M117.3,88.9h2.3l1.2-8.7h-2.4L117.3,88.9z
		 M116.4,78.4v-0.8h-6.5l0.8-2.1h-2l-1.5,2.3h-4.9l0,0.5h4l-5.4,10.6h2.5l5.9-10.6L116.4,78.4z M160.4,75.5h-5.1v5.8h5.3L160.4,75.5
		z M153.6,75.5h-5.9l0.1,5.9h5.8L153.6,75.5z M151.3,80.6h-1.3V77h1.3V80.6z M122.8,75.9v13h2.1l0-13H122.8z M155.2,88.2l2-3.1
		l1.8-2.8h-8.2l-2.3,6.7h2.3l2.3-5.8l2.6,0l-3.5,5.8h8.2l-0.1-0.7H155.2z M146.1,75.5h-6.7l0,12.5h-1.2l0,0.9l9.2,0l0.3-0.9h-1.6
		V75.5z M141.7,77h2.1v3.1l-2.1,0V77z M143.8,88.2h-2.1v-3.7h2.1V88.2z M143.8,83.6h-2.1v-2.8h2.1L143.8,83.6z M137.7,77.7h-2.2
		l-0.5-2.3l-1.3,0l0.2,2.2H131l0,1.5h4.2l-4.3,8.6h-0.7l-1.4-7.7h-2.4l1.2,8.7l5.1,0l0.3-0.7l0.6,0l-0.1,0.8h2.8v-5.3h1.4l-1.3-2.5
		L137.7,77.7z"/>
</g>
<g>
</g>
<g>
</g>
<g>
</g>
<g>
</g>
<g>
</g>
<g>
</g>
<g>
</g>
<g>
</g>
<g>
</g>
<g>
</g>
<g>
</g>
<g>
</g>
<g>
</g>
<g>
</g>
<g>
</g>
</svg>
