<svg xmlns="http://www.w3.org/2000/svg" width="161.8" height="88.9" viewBox="0 0 161.8 88.9"><style type="text/css">.st0{fill:#C30D23;stroke:#C89F63;stroke-width:2;stroke-linecap:round;stroke-linejoin:round;stroke-miterlimit:10;} .st1{fill:#C89F63;} .st2{fill:#C30D23;}</style><g id="sound-icon.svg"><circle class="st0" cx="34.4" cy="34.7" r="29.5"/><path class="st0" d="M69.6 1c-2.2 0-11.6 2.1-15.3 3.9l-6.3 5.4c-1 0-2.5.2-3.6.4-2.2-.9-4.9-1.2-8-1.2-5.1 0-9.5 1.5-12.6 5.1-.8-1.1-2.4-2.9-5.6-5.4-6.3-4.9-17.2-5.2-17.2-5.2s5.2 5.3 9.1 8.6c3.1 2.6 8.2 6.6 10.3 8.1-1.5 4.7-1.8 11.1-.5 19.4 2.5 15.3 8.6 29.1 18.3 28.9 12.1-.3 15.3-16.4 15.4-32.9 0-8.5-.8-14.5-2.5-18.6 2.3-1.4 5.8-4.2 8.1-6.1 2.7-2.1 12.7-10.4 10.4-10.4z"/><path class="st1" d="M58.8 6.5c-3.9 2-10 7.4-10 7.4l2.5 3.4c2.3-1.4 5.6-4.2 7.9-6 2.3-1.8 9.8-8 10.6-9.9-3.4 1.5-8.3 3.7-11 5.1zM21.7 26.9s5.4-1.3 8.2 3l2.1 9.4s-4.5 1.2-8.1-4c-3.4-5.1-2.2-8.4-2.2-8.4zM51.8 25.3s-5.6-.6-8.6 3.4l-2.1 9.4s6.1 0 8.1-3.9c2.9-6 2.6-8.9 2.6-8.9z"/><path class="st2" d="M23.7 34.8s-.8-2.2 1.6-3.9c2.4-1.7 4.1-1.5 4.7-.5.6.9-.1 3-1.9 4.1s-3.2 1.5-4.4.3zM43.2 28.7c-.8 1.3 0 3.2 1.9 4.4 1.9 1.2 4.3 1 4.6.3.3-.6.1-2.6-1.9-4.1-1.7-1.3-3.9-1.7-4.6-.6z"/><path class="st1" d="M52.7 49.8c-3.9-2.2-8.7-3.5-15.6-2.8-6.2.6-10.6 4-13.5 7.2 3.2 8.8 8.1 15 14.7 14.8 8.5-.2 12.7-8.5 14.4-19.2z"/><circle class="st2" cx="45.3" cy="59.3" r="1.6"/><circle class="st2" cx="30.5" cy="60.5" r="1.6"/><path class="st1" d="M21.9 17.5s-6-5.5-8.9-7.4c-2.3-1.6-8-4.4-11.7-5.8 1.2 1.2 5.5 5.5 8.8 8.3 3.1 2.6 10.3 8.1 10.3 8.1l.1.1s1.1-2.7 1.4-3.3z"/><circle class="st0" cx="131.3" cy="34.7" r="29.5"/><path class="st0" d="M157.5 9.9c-1.6 0-8.5 1.6-11.3 2.9l-4.6 4c-.8 0-1.8.1-2.7.3-1.6-.6-3.6-.9-5.9-.9-3.7 0-7 1.1-9.3 3.7-.6-.8-1.8-2.1-4.1-4-4.6-3.6-12.7-3.8-12.7-3.8s3.8 3.9 6.7 6.3c2.3 1.9 6.1 4.8 7.6 6-1.1 3.5-1.4 8.2-.4 14.3 1.8 11.3 6.3 21.5 13.5 21.3 8.9-.2 11.3-12.1 11.3-24.2 0-6.3-.6-10.7-1.8-13.7 1.7-1 4.2-3.1 6-4.5 2-1.5 9.4-7.7 7.7-7.7z"/><path class="st1" d="M149.5 14c-2.9 1.5-7.4 5.5-7.4 5.5l1.9 2.5c1.7-1 4.1-3.1 5.8-4.4 1.7-1.3 7.2-5.9 7.8-7.3-2.5 1-6.1 2.7-8.1 3.7zM122.2 29.1s4-.9 6 2.2l1.6 6.9s-3.3.9-6-3c-2.5-3.7-1.6-6.1-1.6-6.1zM144.4 27.9s-4.1-.5-6.3 2.5-1.6 6.9-1.6 6.9 4.5 0 6-2.9c2.1-4.4 1.9-6.5 1.9-6.5z"/><path class="st2" d="M123.7 34.9s-.6-1.6 1.2-2.9c1.8-1.3 3-1.1 3.5-.4.4.7 0 2.2-1.4 3-1.3.8-2.5 1.1-3.3.3zM138 30.4c-.6.9 0 2.3 1.4 3.2 1.4.9 3.1.7 3.4.2.2-.5.1-1.9-1.4-3.1-1.2-.9-2.9-1.1-3.4-.3z"/><path class="st1" d="M145 45.9c-2.9-1.6-6.4-2.6-11.5-2.1-4.6.5-7.8 2.9-9.9 5.3 2.4 6.4 6 11 10.8 10.9 6.3-.1 9.4-6.2 10.6-14.1z"/><circle class="st2" cx="139.6" cy="52.9" r="1.2"/><circle class="st2" cx="128.7" cy="53.8" r="1.2"/><path class="st1" d="M122.4 22.1s-4.4-4.1-6.6-5.5c-1.7-1.1-5.9-3.2-8.6-4.2.9.9 4 4 6.5 6.1 2.3 1.9 7.6 6 7.6 6h.1c-.1 0 .7-2 1-2.4zM21.1 81.4l-8.3.1v1.5h3.9l-4.9 6h9.4v-.7h-5.7l5.6-6.9zm.7 7.5h2.3l1.2-8.7h-2.4l-1.1 8.7zm-.9-10.5v-.8h-6.5l.8-2.1h-2l-1.5 2.3h-4.9v.5h4l-5.4 10.6h2.5l5.9-10.6 7.1.1zm44-2.9h-5.1v5.8h5.3l-.2-5.8zm-6.8 0h-5.9l.1 5.9h5.8v-5.9zm-2.3 5.1h-1.3v-3.6h1.3v3.6zm-28.5-4.7v13h2.1v-13h-2.1zm32.4 12.3l2-3.1 1.8-2.8h-8.2l-2.3 6.6h2.3l2.3-5.8h2.6l-3.5 5.8h8.2l-.1-.7h-5.1zm-9.1-12.7h-6.6v12.5h-1.2v.9h9.2l.3-.9h-1.6v-12.5zm-4.4 1.5h2.1v3.1h-2.1v-3.1zm2.1 11.2h-2.1v-3.7h2.1v3.7zm0-4.6h-2.1v-2.8h2.1v2.8zm-6.1-5.9h-2.2l-.5-2.3h-1.3l.2 2.2h-2.8v1.5h4.2l-4.3 8.6h-.7l-1.4-7.7h-2.4l1.2 8.7h5.1l.3-.7h.6l-.1.8h2.8v-5.3h1.4l-1.3-2.3 1.2-3.5zM116.6 81.4l-8.3.1v1.5h3.9l-4.9 6h9.4v-.7h-5.7l5.6-6.9zm.7 7.5h2.3l1.2-8.7h-2.4l-1.1 8.7zm-.9-10.5v-.8h-6.5l.8-2.1h-2l-1.5 2.3h-4.9v.5h4l-5.4 10.6h2.5l5.9-10.6 7.1.1zm44-2.9h-5.1v5.8h5.3l-.2-5.8zm-6.8 0h-5.9l.1 5.9h5.8v-5.9zm-2.3 5.1h-1.3v-3.6h1.3v3.6zm-28.5-4.7v13h2.1v-13h-2.1zm32.4 12.3l2-3.1 1.8-2.8h-8.2l-2.3 6.7h2.3l2.3-5.8h2.6l-3.5 5.8h8.2l-.1-.7h-5.1zm-9.1-12.7h-6.7v12.5h-1.2v.9h9.2l.3-.9h-1.6v-12.5zm-4.4 1.5h2.1v3.1h-2.1v-3.1zm2.1 11.2h-2.1v-3.7h2.1v3.7zm0-4.6h-2.1v-2.8h2.1v2.8zm-6.1-5.9h-2.2l-.5-2.3h-1.3l.2 2.2h-2.9v1.5h4.2l-4.3 8.6h-.7l-1.4-7.7h-2.4l1.2 8.7h5.1l.3-.7h.6l-.1.8h2.8v-5.3h1.4l-1.3-2.5 1.3-3.3z"/></g></svg>