<svg xmlns="http://www.w3.org/2000/svg" width="102.3" height="52.1" viewBox="0 0 102.3 52.1"><style type="text/css">.st0{fill:none;stroke:#C89F63;stroke-width:3;stroke-miterlimit:10;} .st1{fill:none;stroke:#C89F63;stroke-width:3;stroke-linejoin:bevel;stroke-miterlimit:10;}</style><g id="sound-icon.svg"><path class="st0" d="M15.9 36.9h-14.4v-22.7M1.6 15.2h14.3"/><path class="st1" d="M15 15.5l14.6-14.4v50l-14.4-14.5"/><path class="st0" d="M5.7 15.8v20.1M9.3 36.6v-20.7M45.3 10.9s16.8 14 .1 30.7M37 18.8s8.7 7.3 0 15.9M41.6 15s12.3 10.2.1 22.4M87.1 36.9h-14.4v-22.7M72.8 15.2h14.3"/><path class="st1" d="M86.2 15.5l14.6-14.4v50l-14.4-14.5"/><path class="st0" d="M76.9 15.8v20.1M80.5 36.6v-20.7"/></g></svg>