<?xml version="1.0" encoding="utf-8"?>
<!-- Generator: Adobe Illustrator 17.0.0, SVG Export Plug-In . SVG Version: 6.00 Build 0)  -->
<!DOCTYPE svg PUBLIC "-//W3C//DTD SVG 1.1//EN" "http://www.w3.org/Graphics/SVG/1.1/DTD/svg11.dtd">
<svg version="1.1" id="Layer_1" xmlns="http://www.w3.org/2000/svg" xmlns:xlink="http://www.w3.org/1999/xlink" x="0px" y="0px"
	 width="143.5px" height="92.5px" viewBox="0 0 143.5 92.5" style="enable-background:new 0 0 143.5 92.5;" xml:space="preserve">
<style type="text/css">
	.st0{fill:#FFF8B8;}
	.st1{fill:none;stroke:#FFF8B8;stroke-width:4;stroke-linecap:round;stroke-miterlimit:10;}
</style>
<g id="begin-button.svg">
	<g id="cover02.png_1_">
		<path class="st0" d="M45.4,25.7H34.7V46h-3.6V25.7H17.6c-0.7,7.5-3.1,14.9-11.9,20.5c-0.7-0.8-2-2.1-2.8-2.6
			c8-4.9,10.4-11.3,11.1-17.8H2.7v-3.5h11.4c0-0.7,0-1.3,0-2.1V8.6H4.5V5.2h39.4v3.4h-9.2v13.6h10.7V25.7z M31.1,22.2V8.6H17.7v11.6
			c0,0.7,0,1.3,0,2H31.1z"/>
		<path class="st0" d="M66.7,12.1c-0.6,8.7-1.9,15.5-4.1,20.8c2.1,1.8,3.9,3.7,5.1,5.3l-2.2,2.9c-1.1-1.5-2.6-3.2-4.4-4.9
			c-2.3,4.3-5.3,7.4-8.9,9.6c-0.5-0.8-1.4-2.2-2.1-2.8c3.4-1.9,6.2-4.9,8.4-9.2c-2.4-2-4.9-4-7.2-5.6c1.1-3.4,2.3-8.1,3.3-13h-4.4
			v-3.3h5c0.6-3.4,1.1-6.7,1.4-9.6L60,2.5c-0.4,2.9-0.9,6.1-1.6,9.4H64l0.6-0.1L66.7,12.1z M57.8,15.2c-0.9,4.2-1.9,8.3-2.8,11.7
			c1.6,1.2,3.3,2.4,4.9,3.7c1.6-4.2,2.7-9.4,3.3-15.5H57.8z M86.3,9c3.3,4.2,6.6,9.7,8.1,13.4L91.3,24c-0.4-1-0.9-2.2-1.5-3.4
			c-17.7,1.3-19.8,1.5-21.2,2.1c-0.1-0.8-0.7-2.4-1.2-3.4c1-0.2,1.9-1.3,3.1-3.1c1.2-1.7,5.2-8.1,7.6-14.2l3.6,1.1
			c-2.5,5.5-5.7,11-8.8,15.4l15.2-1c-1.4-2.5-3.1-5-4.7-7.2L86.3,9z M70.2,26.5h21.1v19.3h-3.5v-2H73.5v2.1h-3.3V26.5z M73.5,29.8
			v10.9h14.3V29.8H73.5z"/>
	</g>
	<polyline id="arrow-down.svg_1_" class="st1" points="125.7,10.5 140.7,25.5 125.7,40.5 	"/>
</g>
<g>
</g>
<g>
</g>
<g>
</g>
<g>
</g>
<g>
</g>
<g>
</g>
<g>
</g>
<g>
</g>
<g>
</g>
<g>
</g>
<g>
</g>
<g>
</g>
<g>
</g>
<g>
</g>
<g>
</g>
</svg>
