<?xml version="1.0" encoding="utf-8"?>
<!-- Generator: Adobe Illustrator 17.0.0, SVG Export Plug-In . SVG Version: 6.00 Build 0)  -->
<!DOCTYPE svg PUBLIC "-//W3C//DTD SVG 1.1//EN" "http://www.w3.org/Graphics/SVG/1.1/DTD/svg11.dtd">
<svg version="1.1" id="Layer_1" xmlns="http://www.w3.org/2000/svg" xmlns:xlink="http://www.w3.org/1999/xlink" x="0px" y="0px"
	 width="515.4px" height="856.5px" viewBox="0 0 515.4 856.5" style="enable-background:new 0 0 515.4 856.5;" xml:space="preserve"
	>
<style type="text/css">
	.st0{fill:#FAC900;}
	.st1{fill:none;stroke:#FFCC00;stroke-width:4;stroke-miterlimit:10;}
	.st2{fill:url(#SVGID_1_);}
	.st3{fill:url(#SVGID_2_);}
	.st4{fill:#FFF171;}
	.st5{fill:url(#SVGID_3_);}
	.st6{fill:url(#SVGID_4_);}
	.st7{fill:url(#SVGID_5_);}
	.st8{fill:url(#SVGID_6_);}
	.st9{fill:#EC1C24;}
	.st10{fill:#FFF8B8;}
	.st11{fill:url(#SVGID_7_);}
	.st12{fill:url(#SVGID_8_);}
	.st13{fill:url(#SVGID_9_);}
	.st14{fill:url(#SVGID_10_);}
	.st15{fill:url(#SVGID_11_);}
	.st16{fill:url(#SVGID_12_);}
	.st17{fill:url(#SVGID_13_);}
	.st18{fill:url(#SVGID_14_);}
	.st19{fill:url(#SVGID_15_);}
	.st20{fill:url(#SVGID_16_);}
	.st21{fill:url(#SVGID_17_);}
	.st22{fill:url(#SVGID_18_);}
</style>
<g id="c-1.svg">
	<g>
		<path class="st0" d="M28.4,14c1-1.9,1.9-3.9,3.2-5.5c0.5-0.7,2-0.6,3-0.9c0.7-0.2,2.1,0.4,2.1-0.9c0-1.3-1.1-1.6-2.2-1.7
			c-0.2,0-0.3-0.1-0.4-0.1c1-1.6,2-3.2,3.1-4.9c1.2,0.8,2.8,1.8,4.7,3c-1.1,0.6-2.2,1.2-3.5,1.9c0.7,0.5,1.2,1,2,1.6
			c-2.7,2.3-0.6,4.5,0.6,7c1.3-0.9,2.7-1.9,4-2.8c0.2-0.8,0.5-1.7,0.5-2.5c0-0.6-0.1-1.6-0.5-1.8c-0.5-0.3-1.5-0.2-2,0
			c-0.8,0.4-1.4,1.2-2.2,1.9c0-0.3-0.1-0.4,0-0.4c3.1-4.1,3.1-4.2,7.6-1.8c3,1.6,5.9,3.2,9.3,5.1c-4,6.6-7.9,13-11.8,19.4
			c0,0.1,0,0.2,0,0.4c2.3,0.3,3.6,1.7,4.3,3.9c0.2,0.5,1,0.9,1.2,1.1c1.7-1.1,3-2.2,4.6-2.8c1.6-0.6,3.7,0.7,4.1,2.1
			c0.4,1.4-0.7,3-2.5,3.4c-1.5,0.3-3.2,0.7-4.7,0.5c-4.1-0.6-6.8,1.2-8.9,4.5c-0.2,0.3-0.4,0.6-0.6,1c0,0-0.1,0.1-0.3,0.2
			c-0.3-0.8-0.5-1.6-0.8-2.5c-0.8,0.4-1.5,0.8-2.3,1c-0.9,0.3-1.8,0.6-2.7,0.6c-1.9,0.1-3.3-0.9-3.5-2.4c-0.2-1.5,0.9-3.4,2.5-3.7
			c1.5-0.3,3,0,4.5,0.1c0.4,0,0.8,0.2,1.3,0.3c0.2-2.7-0.2-5.5,2.9-7.2c-6.8-3.7-13.5-7.4-20.3-11.1C25.9,18,27.1,16,28.4,14
			c0.7,0.7,1.4,1.9,2.2,2.1c2,0.5,2.6-1.4,3.7-2.7c0.4,2.3,0.4,2.3-1.1,4.3c-0.4,0.6-0.8,1.3-0.8,2c0,0.4,0.7,1.3,1,1.3
			c0.6,0,1.2-0.5,1.8-0.8c0.8,1.2,0.1,3.5,2.8,3.9c-0.2-0.8-0.3-1.3-0.6-1.8c-1.3-2.4-1.7-4.9-0.7-7.5c0.6-1.7,1-3.4,1.4-5.1
			c-0.1,0-0.3-0.1-0.4-0.1c-0.3,0.7-0.7,1.4-1,2.1c-1.9-1.6-2.5-1.6-3.7,0.3C31.8,13.6,29.8,14.5,28.4,14z M38.3,15.1
			c0.8,1.8,1.3,3.4,2,4.8c1,1.8,1.7,1.9,3.6,0.9c0.8-0.4,1.6-0.9,2.7-0.2c1.6,1,2.8,0.4,3-1.6c0.2-1.5,0.2-3,0.2-4.6
			c0-1.8-0.4-2.4-2.3-2.4c-0.8,0-1.6,0.1-2.4,0.4c-2.2,0.6-3.9,1.8-5,3.8C39.6,15.7,39.2,15.5,38.3,15.1z M56.3,38.1
			c0.7-1,1.2-1.7,1.7-2.5c-0.8-0.2-1.7-0.8-2.5-0.7c-0.9,0.1-2.2,0.6-1.7,1.9C54,37.4,55.2,37.6,56.3,38.1z"/>
		<path class="st0" d="M10.7,82.9c0.2,0.6,0.3,1.2,0.5,1.8c1.3,4.9,4.8,7.1,9.8,6.1c3.3-0.6,6.4-2,9.2-3.8c0.9-0.5,1.9-1.3,2.8-0.2
			c0.8,1,0.4,2.1-0.4,2.9c-5.3,5.8-11.6,9.2-19.6,8C7.2,97,5,92.5,7.5,87.4c0.8-1.6,1.8-3.1,2.8-4.7C10.4,82.8,10.5,82.8,10.7,82.9z
			"/>
		<path class="st0" d="M97.4,60.5c3.6,1.8,6.9,3.2,8.2,7c1,3-0.3,6-3.5,8.1c-5.6,3.7-11.7,4.1-18.1,2.4c-0.9-0.2-1.8-0.6-2.6-0.9
			c-1.2-0.4-2-1.3-1.6-2.5c0.2-0.5,1.5-0.9,2.2-0.9c3.7,0.1,7.5,0.3,11-1.2c4.7-2,6.1-5.1,4.9-10C97.8,61.9,97.7,61.4,97.4,60.5z"/>
		<path class="st0" d="M104.8,62.9c-1.3-0.8-2.3-1.6-3.3-2.2c-6.2-3.5-12.5-3.1-18.8-0.4c-1,0.4-1.8,1-2.8,1.3
			c-0.6,0.2-1.4,0.1-2.1,0.1c0.2-0.7,0.1-1.7,0.5-2.1c1.4-1.3,2.8-2.6,4.4-3.6c4.7-3,9.9-4.6,15.4-2.7c3.6,1.2,6.1,3.5,6.7,7.5
			c0,0.3,0.1,0.7,0.1,1C105,62.1,104.9,62.3,104.8,62.9z"/>
		<path class="st0" d="M5.3,87.2C2.9,84,3.8,79.8,6.2,76.9c3.3-4.1,7.8-5.5,12.8-5.5c3,0.1,5.9,0.9,8.8,1.6c0.6,0.1,0.9,1.1,1.4,1.7
			c-0.6,0.3-1.3,0.8-1.9,0.8c-4.4-0.1-8.7,0.3-12.8,2.3c-3.4,1.7-6,4.3-8,7.5C6.1,85.9,5.7,86.5,5.3,87.2z"/>
		<path class="st0" d="M32.7,57.5c-0.7,0.5-1.3,0.9-2,1.4c-3.2,2.5-3.1,5.1,0.3,7.4c0.5,0.3,1,0.6,1.5,1c1.3,1,1.3,1.9,0.1,2.9
			c-3.3,3-8.7,1.6-10.4-2.7c-1.8-4.5,0.2-8.7,5-9.9c1.8-0.4,3.6-0.5,5.5-0.7C32.6,57.2,32.6,57.4,32.7,57.5z"/>
		<path class="st0" d="M67.2,47.9c3.5-1.8,6.6-3.1,10-1.4c3,1.4,4.1,5.6,2.7,9.2c-0.8,2.1-2.1,3.8-4.3,4.7c-1.2,0.5-2.6,0.7-3.3-0.4
			c-0.5-0.8-0.4-2.1-0.2-3.2c0.1-0.8,0.8-1.5,1.2-2.3c1.5-3.1,0.5-5.2-2.8-6.1C69.6,48.3,68.6,48.2,67.2,47.9z"/>
		<path class="st0" d="M90.2,87.5c1.1,1.9,0.5,4.5-1.6,6.2c-2.5,2-5.5,2.4-8.6,1.9c-1-0.2-1.9-0.5-2.8-0.8c-4-1.6-4.4-3.5-1.6-6.3
			c2.6,0.4,5.1,1.3,7.4,1.1C85.4,89.5,87.7,88.3,90.2,87.5z"/>
		<path class="st0" d="M29.8,102.1c1.5,0,2.8,0.1,4.1,0.1c3.2-0.1,5.7-1.5,7.8-3.9c1.3-1.4,1.7-1.5,3.4-0.3c1.7,1.2,2,2.2,1,3.7
			c-1.8,2.8-4.3,4.8-7.6,5.6c-2,0.5-4,0.6-5.9-0.3C30.8,105.9,29.9,104.3,29.8,102.1z"/>
		<path class="st0" d="M43.5,56c-2-3.4-1.8-7.4,1-10.8c1.3-1.6,3-3,4.6-4.3c1.2-1,2.9-1.2,4.1-0.2c0.7,0.6,0.9,2,1,3
			c0.1,0.4-0.5,1.1-0.9,1.4c-4.1,2.7-7.6,6-9.6,10.7C43.7,55.9,43.5,56,43.5,56z"/>
		<path class="st0" d="M52.6,64.5c-2.2-1.9-4.3-3.6-6.3-5.4c-0.2-0.2-0.4-0.4-0.4-0.7c-0.3-1.7,1.5-5.4,3.2-5.9
			c0.7-0.3,1.7-0.2,2.5,0.1c0.8,0.2,1.6,0.8,2.2,1.3c2,1.6,2.1,1.9,1.2,4.4C54.2,60.3,53.4,62.3,52.6,64.5z"/>
		<path class="st0" d="M63,60.1c0.6,2.2-1.2,6.3-3.2,7.3c-1.3,0.6-5.2-0.8-5.7-2.1c-0.1-0.4-0.1-1,0.1-1.4c1-2.2,2-4.4,3.3-6.4
			c0.3-0.5,1.4-0.8,2-0.7C61.3,57.1,62.5,58.3,63,60.1z"/>
		<path class="st0" d="M51.2,67.1c-0.7,1.2-1.2,2.6-2.1,3.4c-0.6,0.6-2.2,0.9-2.9,0.5c-2.1-1.2-4-2.6-5.8-4.2
			c-1.2-1-0.9-2.7,0.4-4.1c1-1.2,2.4-1.4,3.7-0.7c1.5,0.8,3,1.6,4.3,2.6C49.5,65.3,50.2,66.1,51.2,67.1z"/>
		<path class="st0" d="M63.8,91.8c1.2,0.3,2.7,0.7,4.1,1.1c1.2,0.3,1.8,1.2,1.1,2.2c-1.4,2-2.7,4.1-4.5,5.6
			c-1.9,1.6-4.7,0.8-6.7-1.2C59.8,97,61.7,94.5,63.8,91.8z"/>
		<path class="st0" d="M77.5,74.4c0.1,2.3-0.6,4.7-2.1,6.8c-0.3,0.5-1.3,0.7-2,0.7c-4.4-0.1-4.7-0.6-3.3-4.6c0.5-1.5,1-3.1,1.4-4.7
			c0.2-0.9,0.8-1.2,1.6-1.1C75.3,71.6,77,72.6,77.5,74.4z"/>
		<path class="st0" d="M56.5,78c-1.5-0.7-3-1.2-4.3-2c-1.9-1.2-2.3-3-1.2-5c1.9-3.6,2.7-3.9,6.3-1.9c2.2,1.2,2.6,2.4,1.7,4.8
			c-0.2,0.5-0.4,1-0.7,1.5C57.7,76.2,57.2,76.9,56.5,78z"/>
		<path class="st0" d="M28,98.7c0-0.4,0-1.2,0.2-1.9c1-2.7,2.6-4.9,5.2-6.3c1.9-1,3.9-0.6,4.9,1.1c0.4,0.7,0.4,1.1-0.4,1.6
			c-2.9,1.7-4.9,4-5.6,7.3c-0.1,0.3-0.4,0.7-0.7,0.7C30.4,101.6,28.4,100.3,28,98.7z"/>
		<path class="st0" d="M59.2,79.8c1.1,0.3,2.1,0.5,3,0.8c1.6,0.6,2.4,2,1.9,3.5c-0.7,2.3-1.8,4.4-2.8,6.6c-0.1,0.3-0.7,0.4-1.1,0.4
			c-0.4,0-0.7-0.2-1.1-0.3c-2.9-0.9-3.4-1.8-2.2-4.6c0.4-1,0.8-2,1.2-3C58.5,82.2,58.8,81.1,59.2,79.8z"/>
		<path class="st0" d="M87.7,86.6c-3.4-3-4.3-3.4-9.9-3.9c-1-2.2,0.7-4.6,3.2-4.6c2.9,0,5.5,1.1,7.5,3.1C90.4,83,90,85.3,87.7,86.6z
			"/>
		<path class="st0" d="M48.6,96.8c-1.3-1-2.3-2-3.5-2.8c-2.5-1.7-2.8-3.3-1.1-5.8c1.4-2,1.7-2.1,3.8-1.1c0.8,0.4,1.7,0.8,2.5,1.2
			c1.9,1,2.3,2.1,1.3,4C50.9,93.6,50,94.8,48.6,96.8z"/>
		<path class="st0" d="M67.2,82.6c1.7,0.3,3.2,0.6,4.7,0.9c2.2,0.5,2.8,1.4,1.8,3.5c-0.5,1.1-1.1,2.3-1.8,3.3
			c-0.6,1-1.4,1.8-2.8,1.3c-0.6-0.2-1.2-0.2-1.8-0.4c-2.3-0.7-2.5-1.1-1.7-3.3C66.2,86.2,66.7,84.4,67.2,82.6z"/>
		<path class="st0" d="M32.2,80c0.2-1.4,0.1-2.5,0.5-3.5c0.8-2.1,1.8-4.2,2.9-6.2c0.4-0.7,1.6-1.7,1.9-1.6c1.1,0.5,2,1.4,2.7,2.3
			c0.3,0.4,0.2,1.3,0.1,1.9c-0.6,2.9-2,5.2-5.2,5.9C34.3,79.1,33.4,79.6,32.2,80z"/>
		<path class="st0" d="M63,70.4c1.5,0.4,2.6,0.7,3.8,0.9c2,0.3,2.4,1.1,2,3c-1.2,5.5-2.7,4.8-6.7,3.7c-1.8-0.5-2.2-1.2-1.5-3
			C61.3,73.3,62.3,71.7,63,70.4z"/>
		<path class="st0" d="M53.4,87.3c-1.7-1-3.3-1.8-4.8-2.6c-1-0.6-1.4-1.3-0.8-2.6c0.7-1.4,1.2-2.9,1.8-4.4c2.1,0.9,4.2,1.8,6.5,2.8
			C56.1,82.9,54.6,84.9,53.4,87.3z"/>
		<path class="st0" d="M40.5,90c-1.8-1.5-3.6-3-5.3-4.5c-1.5-1.2-1.7-2.2-0.9-3.4c0.8-1.2,2.9-1.7,4.1-0.9c1.2,0.7,2.3,1.4,3.4,2.3
			c1.8,1.3,1.9,2.6,0.6,4.3C41.8,88.6,41.2,89.2,40.5,90z"/>
		<path class="st0" d="M67.9,69.1c-2.7,0.6-5.3-1.8-4.1-4.2c0.7-1.4,0.9-2.9,1.5-4.3c0.2-0.4,1.1-1,1.5-0.9c3.4,0.8,5,4.6,3.1,7.5
			C69.5,68,68.6,68.5,67.9,69.1z"/>
		<path class="st0" d="M45.1,82.8c-2-1.3-3.7-2.5-5.4-3.7c1.4-2.3,2.8-4.5,4.3-6.9c2.7,0.7,3.7,2.3,2.9,5.3
			C46.5,79.3,45.8,80.9,45.1,82.8z"/>
		<path class="st0" d="M19.1,81.6c1,2.2,2.4,3.4,4.7,3.1c1.9-0.3,3.8-0.7,6.3-1.3c-0.9,1.2-1.4,2.3-2.3,2.8
			c-2.9,1.9-6.1,2.6-9.5,1.2c-0.5-0.2-1-0.5-1.3-0.9c-1.4-1.4-1.4-2.2,0.1-3.4C17.7,82.7,18.3,82.2,19.1,81.6z"/>
		<path class="st0" d="M81.2,70.9c2.3-0.8,4.2-1.3,5.9-2.1c2-0.9,2.7-2.7,2.4-5.1c1.3,0.2,2.5,0.2,3.6,0.6c0.4,0.1,0.9,0.9,0.9,1.4
			c0.1,1.9-0.9,3.3-2.4,4.4c-2.3,1.6-4.8,2.6-7.7,2C83.1,71.9,82.3,71.4,81.2,70.9z"/>
		<path class="st0" d="M71.4,50.4c-4.5,5.4-6.6,5.8-11,3.8C62.2,49.5,66.9,47.3,71.4,50.4z"/>
		<path class="st0" d="M54.8,99.3c-1.2-0.5-2.4-0.9-3.3-1.6c-0.3-0.2,0.1-1.5,0.4-2.3c0.5-1.2,1-2.3,1.7-3.3
			c0.3-0.4,1.1-0.9,1.5-0.8c1.2,0.3,2.4,0.9,3.6,1.4c1.5,0.7,1.8,1.7,0.8,2.8C58.2,96.9,56.6,97.9,54.8,99.3z"/>
		<path class="st0" d="M31.2,60.5c1.9-2.4,4.2-3.9,7.3-3.8c2.4,0.1,2.9,1.3,1.7,3.2c-0.6,1-1,2.4-1.9,2.8c-0.7,0.3-2-0.7-3-1
			C34.1,61.2,32.7,60.9,31.2,60.5z"/>
		<path class="st0" d="M72.8,63.5c3.9,0.1,5.9,2.3,5.4,6c-0.2,1.1-0.5,1.6-1.8,1.2c-1.2-0.4-2.6-0.5-3.9-0.9c-0.4-0.1-1-0.7-1-0.9
			C71.8,67.1,72.4,65.3,72.8,63.5z"/>
		<path class="st0" d="M58.2,53c-2.2-0.8-4.4-1.6-7-2.5c1.2-1.7,2.1-3.1,3.1-4.4c0.6-0.9,1.3-0.7,2-0.1C58,47.5,58.9,50.4,58.2,53z"
			/>
		<path class="st0" d="M93.6,63c-4.7-0.9-8.6,0.2-12.2,2.9c0.2-2.5,2.2-4.3,5.4-5.2C89.8,60,92,60.6,93.6,63z"/>
		<path class="st0" d="M27.3,79.3c-4.5-0.3-8.5,0.5-11.8,3.6c-0.3-1.9,0.9-3.5,3.3-4.6C21.9,76.8,25.4,77.2,27.3,79.3z"/>
		<path class="st0" d="M43.3,8.8c-0.5,0.8-0.7,1.2-1,1.6c-0.2,0.2-0.6,0.3-1,0.4c-0.1,0-0.3-0.4-0.3-0.5c0.1-0.3,0.3-0.6,0.6-0.8
			C42.1,9.2,42.5,9.1,43.3,8.8z"/>
		<path class="st0" d="M45.2,18.5c1-2.3,1-2.3-0.9-4.3c1-0.3,1.9-0.8,2.6-0.6c0.4,0.1,0.6,1.3,0.8,2c0.1,0.3,0.1,0.6,0.1,1
			C47.8,19.1,47.7,19.2,45.2,18.5z"/>
		<path class="st0" d="M41.8,17.8c0.6,0.2,1.2,0.4,1.9,0.7c-0.4,0.5-0.9,0.9-1.4,1.4c-2.2-2.1-2-3.6,1-4.4
			C42.9,16.2,42.5,16.9,41.8,17.8z"/>
	</g>
	<path class="st1" d="M127.1,306c6.2,9.3,9.4,20.8,16.5,29.5"/>
	<path class="st1" d="M216.1,517.5c0.9,5.2,11,19.1,14.5,23"/>
	<g>
		<g>
			<linearGradient id="SVGID_1_" gradientUnits="userSpaceOnUse" x1="105.498" y1="275.9105" x2="105.498" y2="124.0819">
				<stop  offset="0" style="stop-color:#FAC900"/>
				<stop  offset="1" style="stop-color:#FFCC00"/>
			</linearGradient>
			<path class="st2" d="M211,206.8c0-58.3-47.2-105.5-105.5-105.5C47.2,101.3,0,148.6,0,206.8c0,58.3,47.2,105.5,105.5,105.5
				C163.8,312.3,211,265.1,211,206.8z"/>
			<linearGradient id="SVGID_2_" gradientUnits="userSpaceOnUse" x1="3.0855" y1="206.8347" x2="207.9052" y2="206.8347">
				<stop  offset="0" style="stop-color:#F7DD00"/>
				<stop  offset="1" style="stop-color:#FFF8B8"/>
			</linearGradient>
			<path class="st3" d="M207.9,206.8c0-56.6-45.8-102.4-102.4-102.4c-56.6,0-102.4,45.9-102.4,102.4c0,56.6,45.9,102.4,102.4,102.4
				C162.1,309.2,207.9,263.4,207.9,206.8z"/>
			<path class="st4" d="M197.6,206.8c0-50.9-41.2-92.1-92.1-92.1c-50.9,0-92.1,41.2-92.1,92.1c0,50.9,41.2,92.1,92.1,92.1
				C156.4,299,197.6,257.7,197.6,206.8z"/>
			<linearGradient id="SVGID_3_" gradientUnits="userSpaceOnUse" x1="105.4223" y1="206.8369" x2="-31.4791" y2="210.9544">
				<stop  offset="0" style="stop-color:#F7DD00"/>
				<stop  offset="1" style="stop-color:#FFF8B8"/>
			</linearGradient>
			<path class="st5" d="M112.1,304.2c-53.8,0-97.4-43.6-97.4-97.4c0-53.8,43.6-97.4,97.4-97.4c11.7,0,23,2.1,33.4,5.9
				c-12.2-5.3-25.7-8.3-39.9-8.3c-55.1,0-99.8,44.7-99.8,99.8c0,55.1,44.7,99.8,99.8,99.8c14.2,0,27.7-3,39.9-8.3
				C135,302.2,123.8,304.2,112.1,304.2z"/>
			<path class="st0" d="M194.7,206.8c0-49.3-39.9-89.2-89.2-89.2c-49.3,0-89.2,39.9-89.2,89.2c0,49.3,39.9,89.2,89.2,89.2
				C154.8,296,194.7,256.1,194.7,206.8z"/>
			<linearGradient id="SVGID_4_" gradientUnits="userSpaceOnUse" x1="174.1877" y1="200.7253" x2="-63.0794" y2="221.8274">
				<stop  offset="0" style="stop-color:#FAC900"/>
				<stop  offset="1" style="stop-color:#BA963A"/>
			</linearGradient>
			<path class="st6" d="M194.7,206.8c0-49.3-39.9-89.2-89.2-89.2c-49.3,0-89.2,39.9-89.2,89.2c0,49.3,39.9,89.2,89.2,89.2
				C154.8,296,194.7,256.1,194.7,206.8z"/>
			<linearGradient id="SVGID_5_" gradientUnits="userSpaceOnUse" x1="126.8327" y1="283.6828" x2="93.8617" y2="181.2826">
				<stop  offset="0" style="stop-color:#FAC900"/>
				<stop  offset="1" style="stop-color:#BA963A"/>
			</linearGradient>
			<path class="st7" d="M152.6,244.4c-34.8-4.5-84-98.7-136-44.9c-0.2,2.4-0.3,4.8-0.3,7.3c0,49.3,39.9,89.2,89.2,89.2
				c47.1,0,85.7-36.5,89-82.8C190.5,225.1,179.4,247.9,152.6,244.4z"/>
			<linearGradient id="SVGID_6_" gradientUnits="userSpaceOnUse" x1="123.2073" y1="216.9309" x2="16.6688" y2="156.1989">
				<stop  offset="0" style="stop-color:#DEB000"/>
				<stop  offset="1" style="stop-color:#A88236"/>
			</linearGradient>
			<path class="st8" d="M105.5,117.6c-49.3,0-89.2,39.9-89.2,89.2c0,48.9,39.3,88.6,88.1,89.2c-47.8-0.6-86.4-39.6-86.4-87.6
				c0-48.4,39.2-87.6,87.6-87.6c48.4,0,87.6,39.2,87.6,87.6c0,48-38.6,87-86.4,87.6c48.7-0.6,88.1-40.3,88.1-89.2
				C194.7,157.6,154.8,117.6,105.5,117.6z"/>
		</g>
		<path class="st9" d="M105.3,132.4c-7.5,15.7-17.8,30.5-30.8,43.5c-13,13-27.8,23.3-43.5,30.8l-0.1,0.1
			c15.8,7.6,30.7,17.9,43.9,31.1c13,13,23.2,27.7,30.8,43.3c7.5-15.7,17.8-30.5,30.8-43.5c13.1-13.1,27.9-23.4,43.7-30.9l-0.2-0.2
			c-15.6-7.6-30.3-17.8-43.2-30.7s-23.2-27.6-30.7-43.2l-0.5-0.5L105.3,132.4z"/>
	</g>
	<g>
		<path class="st10" d="M84.7,194.5v-2.5h-11v-5.3h11v-2h-11v-5.3h24.2v5.3h-1.7v2h1.7v5.3h-1.7v2.5h1.7v5.3h-1.7v32.9H84.7v-32.9
			h-0.8c-0.9,0-1.4,0.7-1.4,2v30.9h-8.7v-32.9c-0.4-4.1,1.4-5.9,5.3-5.3H84.7z M98.8,203.7v-5.6h39.7v5.6h-11.5v5.3h11.5v5.3h-11.5
			v13.5h11.5v4.8H98.8v-4.8h13.5v-13.5H98.8v-5.3h13.5v-5.3H98.8z M99.3,195.6v-16.3h39.1v11c0.4,3.8-1.5,5.5-5.6,5.3H99.3z
			 M110,184.6v5.6h14.9c2.1,0.2,3-0.7,2.8-2.8v-2.8H110z"/>
	</g>
	<g>
		<g>
			<linearGradient id="SVGID_7_" gradientUnits="userSpaceOnUse" x1="177.498" y1="491.9105" x2="177.498" y2="340.0819">
				<stop  offset="0" style="stop-color:#FAC900"/>
				<stop  offset="1" style="stop-color:#FFCC00"/>
			</linearGradient>
			<path class="st11" d="M283,422.8c0-58.3-47.2-105.5-105.5-105.5C119.2,317.3,72,364.6,72,422.8c0,58.3,47.2,105.5,105.5,105.5
				C235.8,528.3,283,481.1,283,422.8z"/>
			<linearGradient id="SVGID_8_" gradientUnits="userSpaceOnUse" x1="75.0855" y1="422.8347" x2="279.9052" y2="422.8347">
				<stop  offset="0" style="stop-color:#F7DD00"/>
				<stop  offset="1" style="stop-color:#FFF8B8"/>
			</linearGradient>
			<path class="st12" d="M279.9,422.8c0-56.6-45.8-102.4-102.4-102.4c-56.6,0-102.4,45.9-102.4,102.4c0,56.6,45.9,102.4,102.4,102.4
				C234.1,525.2,279.9,479.4,279.9,422.8z"/>
			<path class="st4" d="M269.6,422.8c0-50.9-41.2-92.1-92.1-92.1c-50.9,0-92.1,41.2-92.1,92.1c0,50.9,41.2,92.1,92.1,92.1
				C228.4,515,269.6,473.7,269.6,422.8z"/>
			<linearGradient id="SVGID_9_" gradientUnits="userSpaceOnUse" x1="177.4223" y1="422.8369" x2="40.5209" y2="426.9543">
				<stop  offset="0" style="stop-color:#F7DD00"/>
				<stop  offset="1" style="stop-color:#FFF8B8"/>
			</linearGradient>
			<path class="st13" d="M184.1,520.2c-53.8,0-97.4-43.6-97.4-97.4c0-53.8,43.6-97.4,97.4-97.4c11.7,0,23,2.1,33.4,5.9
				c-12.2-5.3-25.7-8.3-39.9-8.3c-55.1,0-99.8,44.7-99.8,99.8c0,55.1,44.7,99.8,99.8,99.8c14.2,0,27.7-3,39.9-8.3
				C207,518.2,195.8,520.2,184.1,520.2z"/>
			<path class="st0" d="M266.7,422.8c0-49.3-39.9-89.2-89.2-89.2c-49.3,0-89.2,39.9-89.2,89.2c0,49.3,39.9,89.2,89.2,89.2
				C226.8,512,266.7,472.1,266.7,422.8z"/>
			<linearGradient id="SVGID_10_" gradientUnits="userSpaceOnUse" x1="246.1877" y1="416.7253" x2="8.9206" y2="437.8274">
				<stop  offset="0" style="stop-color:#FAC900"/>
				<stop  offset="1" style="stop-color:#BA963A"/>
			</linearGradient>
			<path class="st14" d="M266.7,422.8c0-49.3-39.9-89.2-89.2-89.2c-49.3,0-89.2,39.9-89.2,89.2c0,49.3,39.9,89.2,89.2,89.2
				C226.8,512,266.7,472.1,266.7,422.8z"/>
			<linearGradient id="SVGID_11_" gradientUnits="userSpaceOnUse" x1="198.8327" y1="499.6828" x2="165.8617" y2="397.2826">
				<stop  offset="0" style="stop-color:#FAC900"/>
				<stop  offset="1" style="stop-color:#BA963A"/>
			</linearGradient>
			<path class="st15" d="M224.6,460.4c-34.8-4.5-84-98.7-136-44.9c-0.2,2.4-0.3,4.8-0.3,7.3c0,49.3,39.9,89.2,89.2,89.2
				c47.1,0,85.7-36.5,89-82.8C262.5,441.1,251.4,463.9,224.6,460.4z"/>
			<linearGradient id="SVGID_12_" gradientUnits="userSpaceOnUse" x1="195.2073" y1="432.9309" x2="88.6688" y2="372.1989">
				<stop  offset="0" style="stop-color:#DEB000"/>
				<stop  offset="1" style="stop-color:#A88236"/>
			</linearGradient>
			<path class="st16" d="M177.5,333.6c-49.3,0-89.2,39.9-89.2,89.2c0,48.9,39.3,88.6,88.1,89.2c-47.8-0.6-86.4-39.6-86.4-87.6
				c0-48.4,39.2-87.6,87.6-87.6c48.4,0,87.6,39.2,87.6,87.6c0,48-38.6,87-86.4,87.6c48.7-0.6,88.1-40.3,88.1-89.2
				C266.7,373.6,226.8,333.6,177.5,333.6z"/>
		</g>
		<path class="st9" d="M177.3,348.4c-7.5,15.7-17.8,30.5-30.8,43.5c-13,13-27.8,23.3-43.5,30.8l-0.1,0.1
			c15.8,7.6,30.7,17.9,43.9,31.1c13,13,23.2,27.7,30.8,43.3c7.5-15.7,17.8-30.5,30.8-43.5c13.1-13.1,27.9-23.4,43.7-30.9l-0.2-0.2
			c-15.6-7.6-30.3-17.8-43.2-30.7c-13-13-23.2-27.6-30.7-43.2l-0.5-0.5L177.3,348.4z"/>
	</g>
	<g>
		<path class="st10" d="M189.4,394l0.6,2.8h21.1v5.3h-51.8v40.5c0.2,3.4-1.6,5-5.3,4.8h-7.9v-50.6h29.5l-0.6-2.8H189.4z
			 M161.3,410.3v-5.6h49.8v5.6l-4.2,5.3h4.2V444h-11.5V421h-6.5v21.7c0.2,3.4-1.6,5-5.3,4.8h-18.6v-4.8h7.3c2.1,0.4,2.9-0.6,2.5-2.8
			V421h-17.7v-5.3h2.5l-1.7-3.7h12.9l1.7,3.7h15.5l4.5-5.3H161.3z"/>
	</g>
	<g>
		<g>
			<linearGradient id="SVGID_13_" gradientUnits="userSpaceOnUse" x1="289.1206" y1="697.3443" x2="289.1206" y2="545.5157">
				<stop  offset="0" style="stop-color:#FAC900"/>
				<stop  offset="1" style="stop-color:#FFCC00"/>
			</linearGradient>
			<path class="st17" d="M394.6,628.3c0-58.3-47.2-105.5-105.5-105.5c-58.3,0-105.5,47.2-105.5,105.5c0,58.3,47.2,105.5,105.5,105.5
				C347.4,733.8,394.6,686.5,394.6,628.3z"/>
			<linearGradient id="SVGID_14_" gradientUnits="userSpaceOnUse" x1="186.7081" y1="628.2685" x2="391.5278" y2="628.2685">
				<stop  offset="0" style="stop-color:#F7DD00"/>
				<stop  offset="1" style="stop-color:#FFF8B8"/>
			</linearGradient>
			<path class="st18" d="M391.5,628.3c0-56.6-45.8-102.4-102.4-102.4c-56.6,0-102.4,45.9-102.4,102.4c0,56.6,45.9,102.4,102.4,102.4
				C345.7,730.7,391.5,684.8,391.5,628.3z"/>
			<path class="st4" d="M381.2,628.3c0-50.9-41.2-92.1-92.1-92.1c-50.9,0-92.1,41.2-92.1,92.1c0,50.9,41.2,92.1,92.1,92.1
				C340,720.4,381.2,679.1,381.2,628.3z"/>
			<linearGradient id="SVGID_15_" gradientUnits="userSpaceOnUse" x1="289.0448" y1="628.2708" x2="152.1434" y2="632.3881">
				<stop  offset="0" style="stop-color:#F7DD00"/>
				<stop  offset="1" style="stop-color:#FFF8B8"/>
			</linearGradient>
			<path class="st19" d="M295.7,725.7c-53.8,0-97.4-43.6-97.4-97.4c0-53.8,43.6-97.4,97.4-97.4c11.7,0,23,2.1,33.4,5.9
				c-12.2-5.3-25.7-8.3-39.9-8.3c-55.1,0-99.8,44.7-99.8,99.8c0,55.1,44.7,99.8,99.8,99.8c14.2,0,27.7-3,39.9-8.3
				C318.6,723.6,307.4,725.7,295.7,725.7z"/>
			<path class="st0" d="M378.3,628.3c0-49.3-39.9-89.2-89.2-89.2c-49.3,0-89.2,39.9-89.2,89.2c0,49.3,39.9,89.2,89.2,89.2
				C338.4,717.5,378.3,677.5,378.3,628.3z"/>
			<linearGradient id="SVGID_16_" gradientUnits="userSpaceOnUse" x1="357.8103" y1="622.1591" x2="120.5431" y2="643.2612">
				<stop  offset="0" style="stop-color:#FAC900"/>
				<stop  offset="1" style="stop-color:#BA963A"/>
			</linearGradient>
			<path class="st20" d="M378.3,628.3c0-49.3-39.9-89.2-89.2-89.2c-49.3,0-89.2,39.9-89.2,89.2c0,49.3,39.9,89.2,89.2,89.2
				C338.4,717.5,378.3,677.5,378.3,628.3z"/>
			<linearGradient id="SVGID_17_" gradientUnits="userSpaceOnUse" x1="310.4552" y1="705.1166" x2="277.4842" y2="602.7164">
				<stop  offset="0" style="stop-color:#FAC900"/>
				<stop  offset="1" style="stop-color:#BA963A"/>
			</linearGradient>
			<path class="st21" d="M336.2,665.9c-34.8-4.5-84-98.7-136-44.9c-0.2,2.4-0.3,4.8-0.3,7.3c0,49.3,39.9,89.2,89.2,89.2
				c47.1,0,85.7-36.5,89-82.8C374.2,646.5,363,669.3,336.2,665.9z"/>
			<linearGradient id="SVGID_18_" gradientUnits="userSpaceOnUse" x1="306.8299" y1="638.3647" x2="200.2914" y2="577.6327">
				<stop  offset="0" style="stop-color:#DEB000"/>
				<stop  offset="1" style="stop-color:#A88236"/>
			</linearGradient>
			<path class="st22" d="M289.1,539.1c-49.3,0-89.2,39.9-89.2,89.2c0,48.9,39.3,88.6,88.1,89.2c-47.8-0.6-86.4-39.6-86.4-87.6
				c0-48.4,39.2-87.6,87.6-87.6c48.4,0,87.6,39.2,87.6,87.6c0,48-38.6,87-86.4,87.6c48.7-0.6,88.1-40.3,88.1-89.2
				C378.3,579,338.4,539.1,289.1,539.1z"/>
		</g>
		<path class="st9" d="M289,553.8c-7.5,15.7-17.8,30.5-30.8,43.5c-13,13-27.8,23.3-43.5,30.8l-0.1,0.1c15.8,7.6,30.7,17.9,43.9,31.1
			c13,13,23.2,27.7,30.8,43.3c7.5-15.7,17.8-30.5,30.8-43.5c13.1-13.1,27.9-23.4,43.7-30.9l-0.2-0.2c-15.6-7.6-30.3-17.8-43.2-30.7
			c-13-13-23.2-27.6-30.7-43.2l-0.5-0.5L289,553.8z"/>
	</g>
	<g>
		<path class="st10" d="M261.8,654.1v-47l-2.5,0.3v-5.3l17.4-1.4v53.4H261.8z M303.7,600.7v7.3l20.2-3.7v5.3l-20.2,3.7v33.2
			c-0.4,2.2,0.5,3.2,2.5,2.8H324v4.8h-29.8c-3.8,0.2-5.5-1.4-5.3-4.8v-33.2l-8.7,1.4v-5.3l8.7-1.7v-9.8H303.7z"/>
	</g>
	<g>
		<path class="st10" d="M249.5,217.8c0.1,2.6-1.2,3.8-4.1,3.7h-5.2v-40.8h47.5v35.7c-0.3,1.3,0.2,1.8,1.5,1.5h0.4v3.7H283
			c-3.2,0.3-4.5-1.4-4.1-4.9v-31.8h-29.4V217.8z M268,186.9h10.1l-9.5,18.5l9.5,16.1h-8.2l-5.2-8.4l-4.5,8.4h-9.9l9.2-17.8
			l-9.5-16.8h8.2l4.9,9L268,186.9z"/>
		<path class="st10" d="M296.6,194.4h-1.3l1.5-9.5h-1.5v-4.3h20.4v4.3h-10.5l-0.9,5.6h11.4v27.3c0.1,2.6-1.3,3.8-4.3,3.7h-14.8
			V194.4z M304.1,194.6v23.2h3.2c0.7,0.1,1-0.2,0.9-1.1v-22.1H304.1z M344.7,189.3h-5.4v-2.4h-2.8v3.7h8.2v3.2
			c0,0.9-0.2,1.7-0.6,2.6l-5.2,12l5.8,13.1h-7.3l-2.1-4.5l-2.1,4.5h-7.5l6-13.1l-5.2-11.8h7.3l1.5,3.4l2.1-4.9h-11.8v22.8
			c0.1,2.7-1.1,3.9-3.9,3.7H317v-38.7h12.2v-2.1h7.3v2.1h8.2V189.3z M329.2,190.6v-3.7h-3.7v3.7H329.2z"/>
		<path class="st10" d="M361.5,182.6v4.1l-11.2-1.9v-4.1L361.5,182.6z M361.5,188.8v4.1l-11.2-1.9v-4.1L361.5,188.8z M359.3,221.5
			h-9l1.9-26.4h9.2L359.3,221.5z M399.7,182.6v12.5c0.1,2.9-1.2,4.2-4.1,4.1h-21.7v16.5c-0.1,1.6,0.6,2.3,2.1,2.1h3v3.7h-11.2
			c-3,0.1-4.4-1.1-4.3-3.7v-35.2h13.3l-0.9-1.9h10.3l1.1,1.9H399.7z M373.9,186.9v1.9h17.2v-1.9H373.9z M389.2,195.1
			c1.4,0.1,2.1-0.4,1.9-1.7v-0.4h-17.2v2.1H389.2z M399.7,201.3v3.7l-7.9,2.1l7.9,14.4h-8.6l-11.2-20.2h8.6l1.5,2.4L399.7,201.3z"/>
	</g>
	<g>
		<path class="st10" d="M321.1,415.6c0.1,2.9-1.3,4.2-4.3,4.1h-12.7v-4.1h4.5c1.9,0.3,2.6-0.4,2.1-2.1v-0.9l-6.7,0.2v-4.1l6.7-0.4
			v-3h-6.7v-4.1h6.7V399h10.3v2.1h1.5v4.1h-1.5v2.4h1.5v4.1h-1.5V415.6z M323,420.7l-0.4,1.1h30.9v14.4c0.1,2.6-1.2,3.8-4.1,3.7H337
			v-3.7h3.2c1.9,0.3,2.6-0.4,2.1-2.1v-8.2h-21.5l-5.8,14h-11l5.8-14h-5.8v-4.1h7.5l0.4-1.1H323z M339.8,399l-0.6,2.1h14.4v18.5h-6
			c-3.2,0.1-4.6-1.2-4.3-4.1v-10.3h-5.4l-1.1,3.7l4.5,0.6v4.1l-5.6-0.6l-1.9,6.7h-9.2l2.1-7.7l-1.9-0.2v-4.3l3.2,0.4l0.6-2.6h-3.9
			v-4.1h5.2l0.6-2.1H339.8z"/>
		<path class="st10" d="M371.4,399v4.1l-12.5,2.1v-4.1L371.4,399z M361,439.9v-29l-2.1,0.2V407l12.5-2.1v35H361z M408.5,408.3v4.1
			h-35v-4.1h11.8v-3h-11.8v-4.1h11.8V399h11.4v2.1h11.8v4.1h-11.8v3H408.5z M396.1,439.9v-20.2h-22.6v-4.1h22.6v-2.1h10.3v2.1h2.1
			v4.1h-2.1v16.5c0.3,2.7-1.1,3.9-4.1,3.7H396.1z M380.2,439.9l-4.7-18h8.8l4.7,18H380.2z"/>
		<path class="st10" d="M414.1,439.9l9.9-34.6h-9.9V399h8.2v2.1h2.8l0.6-2.1h11l-0.6,2.1h17.2c1.7,0.3,2.4-0.4,2.1-2.1h8.2
			c0,0.1,0,0.4,0,0.9c0.4,3.7-0.9,5.5-4.1,5.4h-24.7l-0.6,3h29.4v1.1c0.1,1.9-0.3,3.4-1.3,4.7L456,422l7.5,17.8h-9.7l-6-14.6
			l-6.9,14.6h-10.1l8.8-17.8l-6.4-8.2h9.5l5.2,6.4l5.4-7.1c0.4-0.6,0.3-0.9-0.4-1.1h-20l-7.7,27.7H414.1z"/>
	</g>
	<g>
		<path class="st10" d="M65.8,577v2.1h19.6v3.4H65.8v1.3h19.6v3.4H35.7v-3.4h18.7v-1.3H35.9v-3.4h18.5V577H65.8z M35.9,588.6h49.4
			v2.8c0.3,3.7-1.1,5.4-4.1,5.2H35.9V588.6z M35.9,603.5v-3.2h1.5l-1.5-2.8h10.5l1.7,2.8h24.9l1.7-2.8h10.5l-1.7,2.8h1.7v3.2H35.9z
			 M35.9,617.9V605h49.4v9.2c0.3,2.7-1.1,3.9-4.1,3.7H35.9z M72.9,593.6c1.6,0.1,2.3-0.6,2.1-2.1H46.2v2.1H72.9z M47.3,609v5.2h25.1
			c1.4,0.3,2-0.4,1.7-1.9V609H47.3z"/>
		<path class="st10" d="M102.1,577l-0.4,1.9h38.7v4.1H101l-1.1,6.2h-9l1.9-12.2H102.1z M90.9,595.5v-4.1h49.4v26.4h-6.9
			c-2.9-0.1-4.4-1.7-4.5-4.7v-17.6H90.9z M102.3,589.3v-4.1h38v4.1H102.3z"/>
		<path class="st10" d="M47.1,645v4.1l-11.2-1.9V643L47.1,645z M47.1,652.3v4.1l-11.2-1.9v-4.1L47.1,652.3z M45,683.9h-9l1.9-25.4
			h9.2L45,683.9z M85.4,649.3H73.1v9.5h12.2v4.1H73.1v11.8h12.2v4.1H73.1v5.2H61.7v-5.2H49.3v-4.1h12.5v-11.8H49.3v-4.1h12.5v-9.5
			H49.3v-4.1h2.6l-1.1-2.1h10.3l1.1,2.1h10.5l0.9-2.1h10.3l-1.1,2.1h2.6V649.3z"/>
		<path class="st10" d="M102.1,645v4.1l-11.2-1.9V643L102.1,645z M102.1,652.3v4.1l-11.2-1.9v-4.1L102.1,652.3z M100,683.9h-9
			l1.9-25.4h9.2L100,683.9z M140.4,649.3h-12.2v9.5h12.2v4.1h-12.2v11.8h12.2v4.1h-12.2v5.2h-11.4v-5.2h-12.5v-4.1h12.5v-11.8h-12.5
			v-4.1h12.5v-9.5h-12.5v-4.1h2.6l-1.1-2.1h10.3l1.1,2.1h10.5l0.9-2.1h10.3l-1.1,2.1h2.6V649.3z"/>
	</g>
	<g>
		<path class="st10" d="M416.4,626v-1.9h-8.2V620h18.5v4.1h-1.9v1.9h1.7v4.1h-1.7V655h-8.4v-24.9H416c-1-0.1-1.4,0.3-1.3,1.3V655
			h-6.4v-24.9c-0.3-3,1.1-4.4,4.1-4.1H416.4z M426.7,614.4v4.3h-18.5v-4.3H426.7z M436.2,655.2h-9.5l3-25.1h-1.9v-15.7h29.9V626
			c0.3,3-1.1,4.4-4.3,4.1h-14.2L436.2,655.2z M436,618.5v7.5h10.7c1.9,0.4,2.6-0.4,2.1-2.4v-5.2H436z M455.1,649.2
			c-0.3,2,0.3,2.9,1.7,2.6h0.9v3.2h-7.9c-2.9,0.3-4.2-0.9-3.9-3.7v-20h9.2V649.2z"/>
		<path class="st10" d="M470.3,626v-1.9h-7.1V620h15.5v4.1h-1.3v1.9h1.1v4.1h-1.1v25.1h-7.1v-25.1h-0.4c-1-0.3-1.4,0.1-1.3,1.3v23.8
			h-5.4v-25.1c-0.1-3,1-4.4,3.4-4.1H470.3z M478.7,614.4v4.3h-15.5v-4.3H478.7z M479.6,630.3v-10.5h33.1v6c0.4,3.4-0.9,4.9-4.1,4.5
			H479.6z M479.6,631.6h33.1v18.7c0.4,3.7-1.3,5.3-5.2,4.7h-27.9V631.6z M479.8,618.5v-4.1h32.9v4.1H479.8z M487.9,623.6v2.6h14.2
			c0.1,0,0.3,0,0.4,0c1.4,0.3,2.1-0.4,1.9-1.9v-0.6H487.9z M487.9,635.7v3.7h4.5v-3.7H487.9z M487.9,643.4v7.1h4.5v-7.1H487.9z
			 M499.5,635.7v3.7h4.3v-3.7H499.5z M499.5,643.4v7.1h1.9c1.9,0.4,2.6-0.4,2.4-2.6v-4.5H499.5z"/>
	</g>
	<g>
		<path class="st0" d="M405.2,752.7c-2.9,4.8-7.1,7.3-13.1,7.6c1.7,3.8,3.1,7.3,4.7,10.8c11.9,25.3,28.8,46.9,48.6,66.5
			c6.1,6,12.6,11.7,18.8,17.7c1.3,1.2,2.4,2,3.8,0.4c1.6-1.8,0-2.7-1.1-3.8c-9.8-9.3-19.6-18.6-29.2-28.1
			c-3.9-3.9-7.3-8.3-10.9-12.5c-0.5-0.6-0.9-1.2-1.3-1.8c9.3,9,18.5,18.1,28,27c5,4.7,10.4,9,15.6,13.5c1.4,1.2,2.9,2.9,4.6,0.8
			c1.7-2-0.5-2.9-1.8-4c-9.9-8.7-19.7-17.4-29.6-26.1c-0.7-0.6-1.3-1.4-1.6-2.5c2.6,2.2,5.2,4.4,7.9,6.5
			c8.8,6.9,17.7,13.8,26.6,20.7c0.6,0.5,1.4,1.3,2,1.2c1.1-0.2,2.1-0.9,3.2-1.5c-0.6-1.1-0.8-2.6-1.7-3.2
			c-11.1-7-21.8-14.7-31.4-23.7c-0.6-0.6-1.2-1.3-1.6-2.3c0.5,0.3,1.1,0.6,1.6,1c10.9,7.4,21.7,14.8,32.5,22.2
			c0.4,0.3,0.8,0.5,1.1,0.7c1.4,0.9,2.8,0.7,3.5-0.7c0.3-0.6-0.6-2.1-1.3-2.7c-8.6-6.1-17.4-12.2-26.1-18.2c-0.7-0.5-1.4-1.1-1.8-2
			c5.7,3.4,11.4,6.9,17.2,10.3c4.5,2.7,9.1,5.3,13.7,7.7c0.7,0.4,2.4,0.1,2.9-0.5c0.9-1.1,0.5-2.2-1-3c-7.8-4.6-15.6-9.2-23.3-13.9
			c-1.5-0.9-2.9-2-4.2-3.4c4.6,2.4,9.2,4.9,13.8,7.2c4.6,2.3,9.3,4.6,13.9,6.8c0.6,0.3,1.4,0.7,2.1,0.5c0.9-0.2,1.6-0.9,2.4-1.3
			c-0.5-0.7-0.9-1.8-1.6-2.1c-6.2-3.1-12.4-6.1-18.6-9.1c-0.9-0.4-1.7-0.9-2.5-1.4c0.1-0.2,0.2-0.4,0.3-0.6c3.1,1.2,6.3,2.3,9.4,3.5
			c4.2,1.5,8.4,3.1,12.6,4.4c0.9,0.3,2.8-0.1,3.2-0.7c0.8-1.6-0.7-2.2-2-2.8c-8-3.3-15.9-6.6-23.9-9.9c-0.6-0.2-1.1-0.6-1.4-1.4
			c3.1,1,6.2,2,9.3,2.9c6.1,1.9,12.3,3.8,18.4,5.7c1.5,0.5,2.8,0.3,2.9-1.3c0-0.9-1-2.4-1.8-2.7c-6.4-2.2-12.8-4-19.2-6.1
			c-4.3-1.4-8.6-3-12.8-4.9c6.1,1.6,12.2,3.3,18.3,4.8c4.9,1.2,9.8,2.1,14.7,3.1c1.3,0.3,2.6,0.5,3-1.3c0.3-1.8-0.7-2.4-2.2-2.8
			c-7.4-1.5-14.7-3-22.1-4.6c-2-0.4-3.9-1.1-5.8-1.9c10.5,1.6,20.7,4.9,31.4,4.5c1.2-3.4,1-3.9-2.3-4.1c-12-0.9-23.8-2.8-35.2-6.4
			c-22.8-7.2-42.3-19.7-58.4-37.4C406.3,753.6,405.8,753.3,405.2,752.7z"/>
		<path class="st1" d="M355.6,708c0.6,6.4,18.1,16.5,23.9,22.6"/>
		<path class="st0" d="M385.3,732.5c1.4,2.5,3,3.9,6.4,3.7c5.2-0.2,9.4,3.9,10.2,8.8c0.9,5.4-1.9,10.4-6.7,12.3
			c-4.2,1.7-9.2,0.7-12.2-2.7c-3.4-3.7-3.9-7.9-1.9-12.4c0.8-1.7,0.7-2.9-0.5-4.4c-1.6-2-2.9-4.3-4.6-6.6c2.1-1.2,4.1-2.2,6.3-3.4
			C383.4,729.5,384.5,730.9,385.3,732.5z M389.9,751.6c6.4-2.2,6.8-3.8,2.1-9.3c-1.8,1.2-3.6,2.4-5.7,3.9
			C387.5,748.1,388.7,749.8,389.9,751.6z M382.9,746.5c-0.8,3.7,1.4,7,5.8,8.6C386.5,751.8,384.8,749.2,382.9,746.5z M383.1,744.5
			c3-2.1,5.6-3.8,8.2-5.6C387.8,738.2,384.7,740.2,383.1,744.5z M398.7,749.6c-2.8,1.9-5.4,3.7-8.1,5.5
			C394.3,756,397.8,753.7,398.7,749.6z M399.1,747.5c0.9-3.5-1.1-6.8-5.8-8.6C395.5,742.2,397.3,744.8,399.1,747.5z"/>
	</g>
</g>
<g>
</g>
<g>
</g>
<g>
</g>
<g>
</g>
<g>
</g>
<g>
</g>
<g>
</g>
<g>
</g>
<g>
</g>
<g>
</g>
<g>
</g>
<g>
</g>
<g>
</g>
<g>
</g>
<g>
</g>
</svg>
