<?xml version="1.0" encoding="utf-8"?>
<!-- Generator: Adobe Illustrator 17.0.0, SVG Export Plug-In . SVG Version: 6.00 Build 0)  -->
<!DOCTYPE svg PUBLIC "-//W3C//DTD SVG 1.1//EN" "http://www.w3.org/Graphics/SVG/1.1/DTD/svg11.dtd">
<svg version="1.1" id="Layer_1" xmlns="http://www.w3.org/2000/svg" xmlns:xlink="http://www.w3.org/1999/xlink" x="0px" y="0px"
	 width="577.1px" height="856.5px" viewBox="0 0 577.1 856.5" style="enable-background:new 0 0 577.1 856.5;" xml:space="preserve"
	>
<style type="text/css">
	.st0{fill:#FAC900;}
	.st1{fill:none;stroke:#FFCC00;stroke-width:4;stroke-miterlimit:10;}
	.st2{fill:url(#SVGID_1_);}
	.st3{fill:url(#SVGID_2_);}
	.st4{fill:#FFF171;}
	.st5{fill:url(#SVGID_3_);}
	.st6{fill:url(#SVGID_4_);}
	.st7{fill:url(#SVGID_5_);}
	.st8{fill:url(#SVGID_6_);}
	.st9{fill:#EC1C24;}
	.st10{fill:#FFF8B8;}
	.st11{fill:url(#SVGID_7_);}
	.st12{fill:url(#SVGID_8_);}
	.st13{fill:url(#SVGID_9_);}
	.st14{fill:url(#SVGID_10_);}
	.st15{fill:url(#SVGID_11_);}
	.st16{fill:url(#SVGID_12_);}
	.st17{fill:url(#SVGID_13_);}
	.st18{fill:url(#SVGID_14_);}
	.st19{fill:url(#SVGID_15_);}
	.st20{fill:url(#SVGID_16_);}
	.st21{fill:url(#SVGID_17_);}
	.st22{fill:url(#SVGID_18_);}
</style>
<g id="c-2.svg">
	<g>
		<path class="st0" d="M413.5,752.7c-2.9,4.8-7.1,7.3-13.1,7.6c1.7,3.8,3.1,7.3,4.7,10.8c11.9,25.3,28.8,46.9,48.6,66.5
			c6.1,6,12.6,11.7,18.8,17.7c1.3,1.2,2.4,2,3.8,0.4c1.6-1.8,0-2.7-1.1-3.8c-9.8-9.3-19.6-18.6-29.2-28.1
			c-3.9-3.9-7.3-8.3-10.9-12.5c-0.5-0.6-0.9-1.2-1.3-1.8c9.3,9,18.5,18.1,28,27c5,4.7,10.4,9,15.6,13.5c1.4,1.2,2.9,2.9,4.6,0.8
			c1.7-2-0.5-2.9-1.8-4c-9.9-8.7-19.7-17.4-29.6-26.1c-0.7-0.6-1.3-1.4-1.6-2.5c2.6,2.2,5.2,4.4,7.9,6.5
			c8.8,6.9,17.7,13.8,26.6,20.7c0.6,0.5,1.4,1.3,2,1.2c1.1-0.2,2.1-0.9,3.2-1.5c-0.6-1.1-0.8-2.6-1.7-3.2
			c-11.1-7-21.8-14.7-31.4-23.7c-0.6-0.6-1.2-1.3-1.6-2.3c0.5,0.3,1.1,0.6,1.6,1c10.9,7.4,21.7,14.8,32.5,22.2
			c0.4,0.3,0.8,0.5,1.1,0.7c1.4,0.9,2.8,0.7,3.5-0.7c0.3-0.6-0.6-2.1-1.3-2.7c-8.6-6.1-17.4-12.2-26.1-18.2c-0.7-0.5-1.4-1.1-1.8-2
			c5.7,3.4,11.4,6.9,17.2,10.3c4.5,2.7,9.1,5.3,13.7,7.7c0.7,0.4,2.4,0.1,2.9-0.5c0.9-1.1,0.5-2.2-1-3c-7.8-4.6-15.6-9.2-23.3-13.9
			c-1.5-0.9-2.9-2-4.2-3.4c4.6,2.4,9.2,4.9,13.8,7.2c4.6,2.3,9.3,4.6,13.9,6.8c0.6,0.3,1.4,0.7,2.1,0.5c0.9-0.2,1.6-0.9,2.4-1.3
			c-0.5-0.7-0.9-1.8-1.6-2.1c-6.2-3.1-12.4-6.1-18.6-9.1c-0.9-0.4-1.7-0.9-2.5-1.4c0.1-0.2,0.2-0.4,0.3-0.6c3.1,1.2,6.3,2.3,9.4,3.5
			c4.2,1.5,8.4,3.1,12.6,4.4c0.9,0.3,2.8-0.1,3.2-0.7c0.8-1.6-0.7-2.2-2-2.8c-8-3.3-15.9-6.6-23.9-9.9c-0.6-0.2-1.1-0.6-1.4-1.4
			c3.1,1,6.2,2,9.3,2.9c6.1,1.9,12.3,3.8,18.4,5.7c1.5,0.5,2.8,0.3,2.9-1.3c0-0.9-1-2.4-1.8-2.7c-6.4-2.2-12.8-4-19.2-6.1
			c-4.3-1.4-8.6-3-12.8-4.9c6.1,1.6,12.2,3.3,18.3,4.8c4.9,1.2,9.8,2.1,14.7,3.1c1.3,0.3,2.6,0.5,3-1.3c0.3-1.8-0.7-2.4-2.2-2.8
			c-7.4-1.5-14.7-3-22.1-4.6c-2-0.4-3.9-1.1-5.8-1.9c10.5,1.6,20.7,4.9,31.4,4.5c1.2-3.4,1-3.9-2.3-4.1c-12-0.9-23.8-2.8-35.2-6.4
			c-22.8-7.2-42.3-19.7-58.4-37.4C414.7,753.6,414.2,753.3,413.5,752.7z"/>
		<path class="st1" d="M364,708c0.6,6.4,18.1,16.5,23.9,22.6"/>
		<path class="st0" d="M393.7,732.5c1.4,2.5,3,3.9,6.4,3.7c5.2-0.2,9.4,3.9,10.2,8.8c0.9,5.4-1.9,10.4-6.7,12.3
			c-4.2,1.7-9.2,0.7-12.2-2.7c-3.4-3.7-3.9-7.9-1.9-12.4c0.8-1.7,0.7-2.9-0.5-4.4c-1.6-2-2.9-4.3-4.6-6.6c2.1-1.2,4.1-2.2,6.3-3.4
			C391.7,729.5,392.8,730.9,393.7,732.5z M398.3,751.6c6.4-2.2,6.8-3.8,2.1-9.3c-1.8,1.2-3.6,2.4-5.7,3.9
			C395.9,748.1,397.1,749.8,398.3,751.6z M391.3,746.5c-0.8,3.7,1.4,7,5.8,8.6C394.9,751.8,393.1,749.2,391.3,746.5z M391.4,744.5
			c3-2.1,5.6-3.8,8.2-5.6C396.2,738.2,393.1,740.2,391.4,744.5z M407.1,749.6c-2.8,1.9-5.4,3.7-8.1,5.5
			C402.7,756,406.2,753.7,407.1,749.6z M407.5,747.5c0.9-3.5-1.1-6.8-5.8-8.6C403.9,742.2,405.6,744.8,407.5,747.5z"/>
	</g>
	<g>
		<path class="st0" d="M46.7,14c1-1.9,1.9-3.9,3.2-5.5c0.5-0.7,2-0.6,3-0.9C53.7,7.3,55,8,55,6.6c0-1.3-1.1-1.6-2.2-1.7
			c-0.2,0-0.3-0.1-0.4-0.1c1-1.6,2-3.2,3.1-4.9c1.2,0.8,2.8,1.8,4.7,3C59.1,3.6,58,4.2,56.6,5c0.7,0.5,1.2,1,2,1.6
			c-2.7,2.3-0.6,4.5,0.6,7c1.3-0.9,2.7-1.9,4-2.8c0.2-0.8,0.5-1.7,0.5-2.5c0-0.6-0.1-1.6-0.5-1.8c-0.5-0.3-1.5-0.2-2,0
			c-0.8,0.4-1.4,1.2-2.2,1.9c0-0.3-0.1-0.4,0-0.4c3.1-4.1,3.1-4.2,7.6-1.8c3,1.6,5.9,3.2,9.3,5.1c-4,6.6-7.9,13-11.8,19.4
			c0,0.1,0,0.2,0,0.4c2.3,0.3,3.6,1.7,4.3,3.9c0.2,0.5,1,0.9,1.2,1.1c1.7-1.1,3-2.2,4.6-2.8c1.6-0.6,3.7,0.7,4.1,2.1
			c0.4,1.4-0.7,3-2.5,3.4c-1.5,0.3-3.2,0.7-4.7,0.5c-4.1-0.6-6.8,1.2-8.9,4.5c-0.2,0.3-0.4,0.6-0.6,1c0,0-0.1,0.1-0.3,0.2
			c-0.3-0.8-0.5-1.6-0.8-2.5c-0.8,0.4-1.5,0.8-2.3,1c-0.9,0.3-1.8,0.6-2.7,0.6c-1.9,0.1-3.3-0.9-3.5-2.4c-0.2-1.5,0.9-3.4,2.5-3.7
			c1.5-0.3,3,0,4.5,0.1c0.4,0,0.8,0.2,1.3,0.3c0.2-2.7-0.2-5.5,2.9-7.2c-6.8-3.7-13.5-7.4-20.3-11.1C44.2,18,45.5,16,46.7,14
			c0.7,0.7,1.4,1.9,2.2,2.1c2,0.5,2.6-1.4,3.7-2.7c0.4,2.3,0.4,2.3-1.1,4.3c-0.4,0.6-0.8,1.3-0.8,2c0,0.4,0.7,1.3,1,1.3
			c0.6,0,1.2-0.5,1.8-0.8c0.8,1.2,0.1,3.5,2.8,3.9c-0.2-0.8-0.3-1.3-0.6-1.8c-1.3-2.4-1.7-4.9-0.7-7.5c0.6-1.7,1-3.4,1.4-5.1
			c-0.1,0-0.3-0.1-0.4-0.1c-0.3,0.7-0.7,1.4-1,2.1c-1.9-1.6-2.5-1.6-3.7,0.3C50.2,13.6,48.1,14.5,46.7,14z M56.7,15.1
			c0.8,1.8,1.3,3.4,2,4.8c1,1.8,1.7,1.9,3.6,0.9c0.8-0.4,1.6-0.9,2.7-0.2c1.6,1,2.8,0.4,3-1.6c0.2-1.5,0.2-3,0.2-4.6
			c0-1.8-0.4-2.4-2.3-2.4c-0.8,0-1.6,0.1-2.4,0.4c-2.2,0.6-3.9,1.8-5,3.8C58,15.7,57.5,15.5,56.7,15.1z M74.7,38.1
			c0.7-1,1.2-1.7,1.7-2.5c-0.8-0.2-1.7-0.8-2.5-0.7c-0.9,0.1-2.2,0.6-1.7,1.9C72.4,37.4,73.6,37.6,74.7,38.1z"/>
		<path class="st0" d="M29.1,82.9c0.2,0.6,0.3,1.2,0.5,1.8c1.3,4.9,4.8,7.1,9.8,6.1c3.3-0.6,6.4-2,9.2-3.8c0.9-0.5,1.9-1.3,2.8-0.2
			c0.8,1,0.4,2.1-0.4,2.9c-5.3,5.8-11.6,9.2-19.6,8c-5.7-0.8-7.9-5.3-5.4-10.4c0.8-1.6,1.8-3.1,2.8-4.7
			C28.8,82.8,28.9,82.8,29.1,82.9z"/>
		<path class="st0" d="M115.8,60.5c3.6,1.8,6.9,3.2,8.2,7c1,3-0.3,6-3.5,8.1c-5.6,3.7-11.7,4.1-18.1,2.4c-0.9-0.2-1.8-0.6-2.6-0.9
			c-1.2-0.4-2-1.3-1.6-2.5c0.2-0.5,1.5-0.9,2.2-0.9c3.7,0.1,7.5,0.3,11-1.2c4.7-2,6.1-5.1,4.9-10C116.2,61.9,116,61.4,115.8,60.5z"
			/>
		<path class="st0" d="M123.2,62.9c-1.3-0.8-2.3-1.6-3.3-2.2c-6.2-3.5-12.5-3.1-18.8-0.4c-1,0.4-1.8,1-2.8,1.3
			c-0.6,0.2-1.4,0.1-2.1,0.1c0.2-0.7,0.1-1.7,0.5-2.1c1.4-1.3,2.8-2.6,4.4-3.6c4.7-3,9.9-4.6,15.4-2.7c3.6,1.2,6.1,3.5,6.7,7.5
			c0,0.3,0.1,0.7,0.1,1C123.4,62.1,123.3,62.3,123.2,62.9z"/>
		<path class="st0" d="M23.7,87.2c-2.3-3.3-1.5-7.4,0.9-10.3c3.3-4.1,7.8-5.5,12.8-5.5c3,0.1,5.9,0.9,8.8,1.6
			c0.6,0.1,0.9,1.1,1.4,1.7c-0.6,0.3-1.3,0.8-1.9,0.8c-4.4-0.1-8.7,0.3-12.8,2.3c-3.4,1.7-6,4.3-8,7.5
			C24.5,85.9,24.1,86.5,23.7,87.2z"/>
		<path class="st0" d="M51,57.5c-0.7,0.5-1.3,0.9-2,1.4c-3.2,2.5-3.1,5.1,0.3,7.4c0.5,0.3,1,0.6,1.5,1c1.3,1,1.3,1.9,0.1,2.9
			c-3.3,3-8.7,1.6-10.4-2.7c-1.8-4.5,0.2-8.7,5-9.9c1.8-0.4,3.6-0.5,5.5-0.7C51,57.2,51,57.4,51,57.5z"/>
		<path class="st0" d="M85.6,47.9c3.5-1.8,6.6-3.1,10-1.4c3,1.4,4.1,5.6,2.7,9.2c-0.8,2.1-2.1,3.8-4.3,4.7c-1.2,0.5-2.6,0.7-3.3-0.4
			c-0.5-0.8-0.4-2.1-0.2-3.2c0.1-0.8,0.8-1.5,1.2-2.3c1.5-3.1,0.5-5.2-2.8-6.1C87.9,48.3,87,48.2,85.6,47.9z"/>
		<path class="st0" d="M108.6,87.5c1.1,1.9,0.5,4.5-1.6,6.2c-2.5,2-5.5,2.4-8.6,1.9c-1-0.2-1.9-0.5-2.8-0.8c-4-1.6-4.4-3.5-1.6-6.3
			c2.6,0.4,5.1,1.3,7.4,1.1C103.8,89.5,106,88.3,108.6,87.5z"/>
		<path class="st0" d="M48.2,102.1c1.5,0,2.8,0.1,4.1,0.1c3.2-0.1,5.7-1.5,7.8-3.9c1.3-1.4,1.7-1.5,3.4-0.3c1.7,1.2,2,2.2,1,3.7
			c-1.8,2.8-4.3,4.8-7.6,5.6c-2,0.5-4,0.6-5.9-0.3C49.1,105.9,48.3,104.3,48.2,102.1z"/>
		<path class="st0" d="M61.8,56c-2-3.4-1.8-7.4,1-10.8c1.3-1.6,3-3,4.6-4.3c1.2-1,2.9-1.2,4.1-0.2c0.7,0.6,0.9,2,1,3
			c0.1,0.4-0.5,1.1-0.9,1.4c-4.1,2.7-7.6,6-9.6,10.7C62.1,55.9,61.9,56,61.8,56z"/>
		<path class="st0" d="M70.9,64.5c-2.2-1.9-4.3-3.6-6.3-5.4c-0.2-0.2-0.4-0.4-0.4-0.7c-0.3-1.7,1.5-5.4,3.2-5.9
			c0.7-0.3,1.7-0.2,2.5,0.1c0.8,0.2,1.6,0.8,2.2,1.3c2,1.6,2.1,1.9,1.2,4.4C72.6,60.3,71.8,62.3,70.9,64.5z"/>
		<path class="st0" d="M81.3,60.1c0.6,2.2-1.2,6.3-3.2,7.3c-1.3,0.6-5.2-0.8-5.7-2.1c-0.1-0.4-0.1-1,0.1-1.4c1-2.2,2-4.4,3.3-6.4
			c0.3-0.5,1.4-0.8,2-0.7C79.7,57.1,80.9,58.3,81.3,60.1z"/>
		<path class="st0" d="M69.6,67.1c-0.7,1.2-1.2,2.6-2.1,3.4c-0.6,0.6-2.2,0.9-2.9,0.5c-2.1-1.2-4-2.6-5.8-4.2
			c-1.2-1-0.9-2.7,0.4-4.1c1-1.2,2.4-1.4,3.7-0.7c1.5,0.8,3,1.6,4.3,2.6C67.9,65.3,68.6,66.1,69.6,67.1z"/>
		<path class="st0" d="M82.2,91.8c1.2,0.3,2.7,0.7,4.1,1.1c1.2,0.3,1.8,1.2,1.1,2.2c-1.4,2-2.7,4.1-4.5,5.6
			c-1.9,1.6-4.7,0.8-6.7-1.2C78.2,97,80.1,94.5,82.2,91.8z"/>
		<path class="st0" d="M95.8,74.4c0.1,2.3-0.6,4.7-2.1,6.8c-0.3,0.5-1.3,0.7-2,0.7c-4.4-0.1-4.7-0.6-3.3-4.6c0.5-1.5,1-3.1,1.4-4.7
			c0.2-0.9,0.8-1.2,1.6-1.1C93.7,71.6,95.4,72.6,95.8,74.4z"/>
		<path class="st0" d="M74.9,78c-1.5-0.7-3-1.2-4.3-2c-1.9-1.2-2.3-3-1.2-5c1.9-3.6,2.7-3.9,6.3-1.9c2.2,1.2,2.6,2.4,1.7,4.8
			c-0.2,0.5-0.4,1-0.7,1.5C76.1,76.2,75.5,76.9,74.9,78z"/>
		<path class="st0" d="M46.4,98.7c0-0.4,0-1.2,0.2-1.9c1-2.7,2.6-4.9,5.2-6.3c1.9-1,3.9-0.6,4.9,1.1c0.4,0.7,0.4,1.1-0.4,1.6
			c-2.9,1.7-4.9,4-5.6,7.3c-0.1,0.3-0.4,0.7-0.7,0.7C48.8,101.6,46.8,100.3,46.4,98.7z"/>
		<path class="st0" d="M77.5,79.8c1.1,0.3,2.1,0.5,3,0.8c1.6,0.6,2.4,2,1.9,3.5c-0.7,2.3-1.8,4.4-2.8,6.6c-0.1,0.3-0.7,0.4-1.1,0.4
			c-0.4,0-0.7-0.2-1.1-0.3c-2.9-0.9-3.4-1.8-2.2-4.6c0.4-1,0.8-2,1.2-3C76.9,82.2,77.1,81.1,77.5,79.8z"/>
		<path class="st0" d="M106.1,86.6c-3.4-3-4.3-3.4-9.9-3.9c-1-2.2,0.7-4.6,3.2-4.6c2.9,0,5.5,1.1,7.5,3.1
			C108.7,83,108.3,85.3,106.1,86.6z"/>
		<path class="st0" d="M67,96.8c-1.3-1-2.3-2-3.5-2.8c-2.5-1.7-2.8-3.3-1.1-5.8c1.4-2,1.7-2.1,3.8-1.1c0.8,0.4,1.7,0.8,2.5,1.2
			c1.9,1,2.3,2.1,1.3,4C69.3,93.6,68.3,94.8,67,96.8z"/>
		<path class="st0" d="M85.6,82.6c1.7,0.3,3.2,0.6,4.7,0.9c2.2,0.5,2.8,1.4,1.8,3.5c-0.5,1.1-1.1,2.3-1.8,3.3
			c-0.6,1-1.4,1.8-2.8,1.3c-0.6-0.2-1.2-0.2-1.8-0.4c-2.3-0.7-2.5-1.1-1.7-3.3C84.6,86.2,85.1,84.4,85.6,82.6z"/>
		<path class="st0" d="M50.6,80c0.2-1.4,0.1-2.5,0.5-3.5c0.8-2.1,1.8-4.2,2.9-6.2c0.4-0.7,1.6-1.7,1.9-1.6c1.1,0.5,2,1.4,2.7,2.3
			c0.3,0.4,0.2,1.3,0.1,1.9c-0.6,2.9-2,5.2-5.2,5.9C52.6,79.1,51.8,79.6,50.6,80z"/>
		<path class="st0" d="M81.3,70.4c1.5,0.4,2.6,0.7,3.8,0.9c2,0.3,2.4,1.1,2,3c-1.2,5.5-2.7,4.8-6.7,3.7c-1.8-0.5-2.2-1.2-1.5-3
			C79.7,73.3,80.6,71.7,81.3,70.4z"/>
		<path class="st0" d="M71.7,87.3c-1.7-1-3.3-1.8-4.8-2.6c-1-0.6-1.4-1.3-0.8-2.6c0.7-1.4,1.2-2.9,1.8-4.4c2.1,0.9,4.2,1.8,6.5,2.8
			C74.5,82.9,73,84.9,71.7,87.3z"/>
		<path class="st0" d="M58.9,90c-1.8-1.5-3.6-3-5.3-4.5c-1.5-1.2-1.7-2.2-0.9-3.4c0.8-1.2,2.9-1.7,4.1-0.9c1.2,0.7,2.3,1.4,3.4,2.3
			c1.8,1.3,1.9,2.6,0.6,4.3C60.2,88.6,59.5,89.2,58.9,90z"/>
		<path class="st0" d="M86.2,69.1c-2.7,0.6-5.3-1.8-4.1-4.2c0.7-1.4,0.9-2.9,1.5-4.3c0.2-0.4,1.1-1,1.5-0.9c3.4,0.8,5,4.6,3.1,7.5
			C87.9,68,87,68.5,86.2,69.1z"/>
		<path class="st0" d="M63.5,82.8c-2-1.3-3.7-2.5-5.4-3.7c1.4-2.3,2.8-4.5,4.3-6.9c2.7,0.7,3.7,2.3,2.9,5.3
			C64.8,79.3,64.1,80.9,63.5,82.8z"/>
		<path class="st0" d="M37.5,81.6c1,2.2,2.4,3.4,4.7,3.1c1.9-0.3,3.8-0.7,6.3-1.3c-0.9,1.2-1.4,2.3-2.3,2.8
			c-2.9,1.9-6.1,2.6-9.5,1.2c-0.5-0.2-1-0.5-1.3-0.9c-1.4-1.4-1.4-2.2,0.1-3.4C36.1,82.7,36.7,82.2,37.5,81.6z"/>
		<path class="st0" d="M99.6,70.9c2.3-0.8,4.2-1.3,5.9-2.1c2-0.9,2.7-2.7,2.4-5.1c1.3,0.2,2.5,0.2,3.6,0.6c0.4,0.1,0.9,0.9,0.9,1.4
			c0.1,1.9-0.9,3.3-2.4,4.4c-2.3,1.6-4.8,2.6-7.7,2C101.5,71.9,100.7,71.4,99.6,70.9z"/>
		<path class="st0" d="M89.8,50.4c-4.5,5.4-6.6,5.8-11,3.8C80.6,49.5,85.3,47.3,89.8,50.4z"/>
		<path class="st0" d="M73.2,99.3c-1.2-0.5-2.4-0.9-3.3-1.6c-0.3-0.2,0.1-1.5,0.4-2.3c0.5-1.2,1-2.3,1.7-3.3
			c0.3-0.4,1.1-0.9,1.5-0.8c1.2,0.3,2.4,0.9,3.6,1.4c1.5,0.7,1.8,1.7,0.8,2.8C76.6,96.9,75,97.9,73.2,99.3z"/>
		<path class="st0" d="M49.6,60.5c1.9-2.4,4.2-3.9,7.3-3.8c2.4,0.1,2.9,1.3,1.7,3.2c-0.6,1-1,2.4-1.9,2.8c-0.7,0.3-2-0.7-3-1
			C52.4,61.2,51.1,60.9,49.6,60.5z"/>
		<path class="st0" d="M91.2,63.5c3.9,0.1,5.9,2.3,5.4,6c-0.2,1.1-0.5,1.6-1.8,1.2c-1.2-0.4-2.6-0.5-3.9-0.9c-0.4-0.1-1-0.7-1-0.9
			C90.2,67.1,90.7,65.3,91.2,63.5z"/>
		<path class="st0" d="M76.6,53c-2.2-0.8-4.4-1.6-7-2.5c1.2-1.7,2.1-3.1,3.1-4.4c0.6-0.9,1.3-0.7,2-0.1C76.4,47.5,77.2,50.4,76.6,53
			z"/>
		<path class="st0" d="M112,63c-4.7-0.9-8.6,0.2-12.2,2.9c0.2-2.5,2.2-4.3,5.4-5.2C108.2,60,110.4,60.6,112,63z"/>
		<path class="st0" d="M45.7,79.3c-4.5-0.3-8.5,0.5-11.8,3.6c-0.3-1.9,0.9-3.5,3.3-4.6C40.3,76.8,43.8,77.2,45.7,79.3z"/>
		<path class="st0" d="M61.7,8.8c-0.5,0.8-0.7,1.2-1,1.6c-0.2,0.2-0.6,0.3-1,0.4c-0.1,0-0.3-0.4-0.3-0.5c0.1-0.3,0.3-0.6,0.6-0.8
			C60.4,9.2,60.9,9.1,61.7,8.8z"/>
		<path class="st0" d="M63.6,18.5c1-2.3,1-2.3-0.9-4.3c1-0.3,1.9-0.8,2.6-0.6c0.4,0.1,0.6,1.3,0.8,2c0.1,0.3,0.1,0.6,0.1,1
			C66.2,19.1,66,19.2,63.6,18.5z"/>
		<path class="st0" d="M60.2,17.8c0.6,0.2,1.2,0.4,1.9,0.7c-0.4,0.5-0.9,0.9-1.4,1.4c-2.2-2.1-2-3.6,1-4.4
			C61.3,16.2,60.8,16.9,60.2,17.8z"/>
	</g>
	<path class="st1" d="M173,291.4c6.2,9.3,16.7,20.5,23.7,29.2"/>
	<path class="st1" d="M255.2,502.4c0.9,5.2,9.3,35.4,12.8,39.3"/>
	<g>
		<g>
			<linearGradient id="SVGID_1_" gradientUnits="userSpaceOnUse" x1="123.8739" y1="275.9105" x2="123.8739" y2="124.0819">
				<stop  offset="0" style="stop-color:#FAC900"/>
				<stop  offset="1" style="stop-color:#FFCC00"/>
			</linearGradient>
			<path class="st2" d="M229.4,206.8c0-58.3-47.2-105.5-105.5-105.5c-58.3,0-105.5,47.2-105.5,105.5c0,58.3,47.2,105.5,105.5,105.5
				C182.1,312.3,229.4,265.1,229.4,206.8z"/>
			<linearGradient id="SVGID_2_" gradientUnits="userSpaceOnUse" x1="21.4614" y1="206.8347" x2="226.2811" y2="206.8347">
				<stop  offset="0" style="stop-color:#F7DD00"/>
				<stop  offset="1" style="stop-color:#FFF8B8"/>
			</linearGradient>
			<path class="st3" d="M226.3,206.8c0-56.6-45.8-102.4-102.4-102.4c-56.6,0-102.4,45.9-102.4,102.4c0,56.6,45.9,102.4,102.4,102.4
				C180.4,309.2,226.3,263.4,226.3,206.8z"/>
			<path class="st4" d="M216,206.8c0-50.9-41.2-92.1-92.1-92.1c-50.9,0-92.1,41.2-92.1,92.1c0,50.9,41.2,92.1,92.1,92.1
				C174.7,299,216,257.7,216,206.8z"/>
			<linearGradient id="SVGID_3_" gradientUnits="userSpaceOnUse" x1="123.7982" y1="206.8369" x2="-13.1032" y2="210.9544">
				<stop  offset="0" style="stop-color:#F7DD00"/>
				<stop  offset="1" style="stop-color:#FFF8B8"/>
			</linearGradient>
			<path class="st5" d="M130.4,304.2c-53.8,0-97.4-43.6-97.4-97.4c0-53.8,43.6-97.4,97.4-97.4c11.7,0,23,2.1,33.4,5.9
				c-12.2-5.3-25.7-8.3-39.9-8.3C68.7,107,24,151.7,24,206.8c0,55.1,44.7,99.8,99.8,99.8c14.2,0,27.7-3,39.9-8.3
				C153.4,302.2,142.1,304.2,130.4,304.2z"/>
			<path class="st0" d="M213.1,206.8c0-49.3-39.9-89.2-89.2-89.2c-49.3,0-89.2,39.9-89.2,89.2c0,49.3,39.9,89.2,89.2,89.2
				C173.1,296,213.1,256.1,213.1,206.8z"/>
			<linearGradient id="SVGID_4_" gradientUnits="userSpaceOnUse" x1="192.5636" y1="200.7253" x2="-44.7036" y2="221.8274">
				<stop  offset="0" style="stop-color:#FAC900"/>
				<stop  offset="1" style="stop-color:#BA963A"/>
			</linearGradient>
			<path class="st6" d="M213.1,206.8c0-49.3-39.9-89.2-89.2-89.2c-49.3,0-89.2,39.9-89.2,89.2c0,49.3,39.9,89.2,89.2,89.2
				C173.1,296,213.1,256.1,213.1,206.8z"/>
			<linearGradient id="SVGID_5_" gradientUnits="userSpaceOnUse" x1="145.2086" y1="283.6828" x2="112.2376" y2="181.2826">
				<stop  offset="0" style="stop-color:#FAC900"/>
				<stop  offset="1" style="stop-color:#BA963A"/>
			</linearGradient>
			<path class="st7" d="M171,244.4c-34.8-4.5-84-98.7-136-44.9c-0.2,2.4-0.3,4.8-0.3,7.3c0,49.3,39.9,89.2,89.2,89.2
				c47.1,0,85.7-36.5,89-82.8C208.9,225.1,197.8,247.9,171,244.4z"/>
			<linearGradient id="SVGID_6_" gradientUnits="userSpaceOnUse" x1="141.5832" y1="216.9309" x2="35.0447" y2="156.1989">
				<stop  offset="0" style="stop-color:#DEB000"/>
				<stop  offset="1" style="stop-color:#A88236"/>
			</linearGradient>
			<path class="st8" d="M123.9,117.6c-49.3,0-89.2,39.9-89.2,89.2c0,48.9,39.3,88.6,88.1,89.2c-47.8-0.6-86.4-39.6-86.4-87.6
				c0-48.4,39.2-87.6,87.6-87.6c48.4,0,87.6,39.2,87.6,87.6c0,48-38.6,87-86.4,87.6c48.7-0.6,88.1-40.3,88.1-89.2
				C213.1,157.6,173.1,117.6,123.9,117.6z"/>
		</g>
		<path class="st9" d="M123.7,132.4c-7.5,15.7-17.8,30.5-30.8,43.5c-13,13-27.8,23.3-43.5,30.8l-0.1,0.1
			c15.8,7.6,30.7,17.9,43.9,31.1c13,13,23.2,27.7,30.8,43.3c7.5-15.7,17.8-30.5,30.8-43.5c13.1-13.1,27.9-23.4,43.7-30.9l-0.2-0.2
			c-15.6-7.6-30.3-17.8-43.2-30.7s-23.2-27.6-30.7-43.2l-0.5-0.5L123.7,132.4z"/>
	</g>
	<g>
		<path class="st10" d="M97.5,232.7c-3.9,0.4-5.7-1.2-5.3-4.8v-25.6h6.8v23.9c-0.2,1.3,0.3,1.9,1.4,1.7h1.1v-25.6h10.7v3.9h4.2v5.3
			h-4.2v16.3h4.2v4.8H97.5z M116.3,195.6c0.2,3.8-1.6,5.5-5.3,5.3H92.1v-21.7h24.2V195.6z M106.8,192.8v-8.2h-5.3v11h2.8
			C106.3,196,107.1,195,106.8,192.8z M138,179.3l-1.4,2.8h20.2v5.3h-2.2l2.2,5.6h-11l-2.2-5.6h-9.8l-2.8,5.6h-12.1l2.8-5.6h-3.9
			v-5.3h6.8l1.4-2.8H138z M117.7,200.1v-5.3h39.1v5.3H117.7z M117.7,208.2v-5.3h39.1v5.3h-23.9l-1.4,3.4h25.3l-3.9,16.9
			c-0.6,3-2.4,4.4-5.6,4.2h-24.5v-4.8h14.9c1.9,0.4,2.9-0.3,3.1-2l2-8.7h-25l3.1-9H117.7z"/>
	</g>
	<g>
		<g>
			<linearGradient id="SVGID_7_" gradientUnits="userSpaceOnUse" x1="259.8739" y1="471.9105" x2="259.8739" y2="320.0819">
				<stop  offset="0" style="stop-color:#FAC900"/>
				<stop  offset="1" style="stop-color:#FFCC00"/>
			</linearGradient>
			<path class="st11" d="M365.4,402.8c0-58.3-47.2-105.5-105.5-105.5c-58.3,0-105.5,47.2-105.5,105.5c0,58.3,47.2,105.5,105.5,105.5
				C318.1,508.3,365.4,461.1,365.4,402.8z"/>
			<linearGradient id="SVGID_8_" gradientUnits="userSpaceOnUse" x1="157.4614" y1="402.8347" x2="362.2811" y2="402.8347">
				<stop  offset="0" style="stop-color:#F7DD00"/>
				<stop  offset="1" style="stop-color:#FFF8B8"/>
			</linearGradient>
			<path class="st12" d="M362.3,402.8c0-56.6-45.8-102.4-102.4-102.4c-56.6,0-102.4,45.9-102.4,102.4c0,56.6,45.9,102.4,102.4,102.4
				C316.4,505.2,362.3,459.4,362.3,402.8z"/>
			<path class="st4" d="M352,402.8c0-50.9-41.2-92.1-92.1-92.1c-50.9,0-92.1,41.2-92.1,92.1c0,50.9,41.2,92.1,92.1,92.1
				C310.7,495,352,453.7,352,402.8z"/>
			<linearGradient id="SVGID_9_" gradientUnits="userSpaceOnUse" x1="259.7982" y1="402.8369" x2="122.8968" y2="406.9543">
				<stop  offset="0" style="stop-color:#F7DD00"/>
				<stop  offset="1" style="stop-color:#FFF8B8"/>
			</linearGradient>
			<path class="st13" d="M266.4,500.2c-53.8,0-97.4-43.6-97.4-97.4c0-53.8,43.6-97.4,97.4-97.4c11.7,0,23,2.1,33.4,5.9
				c-12.2-5.3-25.7-8.3-39.9-8.3c-55.1,0-99.8,44.7-99.8,99.8c0,55.1,44.7,99.8,99.8,99.8c14.2,0,27.7-3,39.9-8.3
				C289.4,498.2,278.1,500.2,266.4,500.2z"/>
			<path class="st0" d="M349.1,402.8c0-49.3-39.9-89.2-89.2-89.2c-49.3,0-89.2,39.9-89.2,89.2c0,49.3,39.9,89.2,89.2,89.2
				C309.1,492,349.1,452.1,349.1,402.8z"/>
			<linearGradient id="SVGID_10_" gradientUnits="userSpaceOnUse" x1="328.5636" y1="396.7253" x2="91.2964" y2="417.8274">
				<stop  offset="0" style="stop-color:#FAC900"/>
				<stop  offset="1" style="stop-color:#BA963A"/>
			</linearGradient>
			<path class="st14" d="M349.1,402.8c0-49.3-39.9-89.2-89.2-89.2c-49.3,0-89.2,39.9-89.2,89.2c0,49.3,39.9,89.2,89.2,89.2
				C309.1,492,349.1,452.1,349.1,402.8z"/>
			<linearGradient id="SVGID_11_" gradientUnits="userSpaceOnUse" x1="281.2086" y1="479.6828" x2="248.2376" y2="377.2826">
				<stop  offset="0" style="stop-color:#FAC900"/>
				<stop  offset="1" style="stop-color:#BA963A"/>
			</linearGradient>
			<path class="st15" d="M307,440.4c-34.8-4.5-84-98.7-136-44.9c-0.2,2.4-0.3,4.8-0.3,7.3c0,49.3,39.9,89.2,89.2,89.2
				c47.1,0,85.7-36.5,89-82.8C344.9,421.1,333.8,443.9,307,440.4z"/>
			<linearGradient id="SVGID_12_" gradientUnits="userSpaceOnUse" x1="277.5832" y1="412.9309" x2="171.0447" y2="352.1989">
				<stop  offset="0" style="stop-color:#DEB000"/>
				<stop  offset="1" style="stop-color:#A88236"/>
			</linearGradient>
			<path class="st16" d="M259.9,313.6c-49.3,0-89.2,39.9-89.2,89.2c0,48.9,39.3,88.6,88.1,89.2c-47.8-0.6-86.4-39.6-86.4-87.6
				c0-48.4,39.2-87.6,87.6-87.6c48.4,0,87.6,39.2,87.6,87.6c0,48-38.6,87-86.4,87.6c48.7-0.6,88.1-40.3,88.1-89.2
				C349.1,353.6,309.1,313.6,259.9,313.6z"/>
		</g>
		<path class="st9" d="M259.7,328.4c-7.5,15.7-17.8,30.5-30.8,43.5c-13,13-27.8,23.3-43.5,30.8l-0.1,0.1
			c15.8,7.6,30.7,17.9,43.9,31.1c13,13,23.2,27.7,30.8,43.3c7.5-15.7,17.8-30.5,30.8-43.5c13.1-13.1,27.9-23.4,43.7-30.9l-0.2-0.2
			c-15.6-7.6-30.3-17.8-43.2-30.7c-13-13-23.2-27.6-30.7-43.2l-0.5-0.5L259.7,328.4z"/>
	</g>
	<g>
		<path class="st10" d="M242.3,427.4h-13.5l5.1-20.2h-5.1v-5.3h25v-2h-1.1c-4.5,0.2-6.7-2.2-6.5-7V374h47.2v5.3h-36.8v2h36.8v5.6
			c0.2,3.6-1.5,5.3-5.1,5.1h-31.8v0.6c-0.4,1.5,0.4,2.2,2.2,2h34.6v5.3h-25v2h25v5.3H289l4.5,20.2H280l-4.5-20.2h-7v15.5
			c0.2,3.4-1.6,5-5.3,4.8h-9.3v-20.2h-6.2L242.3,427.4z M244.5,375.4v4.5l-15.8-1.4V374L244.5,375.4z M244.5,381v4.8l-15.8-1.4v-4.8
			L244.5,381z M244.5,386.6l-4.5,13.2h-11.2l4.2-13.2H244.5z M282.8,385.5h-26.2v2.5h23.9c1.9,0.4,2.6-0.4,2.2-2.2V385.5z"/>
	</g>
	<g>
		<g>
			<linearGradient id="SVGID_13_" gradientUnits="userSpaceOnUse" x1="281.4965" y1="709.3443" x2="281.4965" y2="557.5157">
				<stop  offset="0" style="stop-color:#FAC900"/>
				<stop  offset="1" style="stop-color:#FFCC00"/>
			</linearGradient>
			<path class="st17" d="M387,640.3c0-58.3-47.2-105.5-105.5-105.5C223.2,534.8,176,582,176,640.3c0,58.3,47.2,105.5,105.5,105.5
				C339.8,745.8,387,698.5,387,640.3z"/>
			<linearGradient id="SVGID_14_" gradientUnits="userSpaceOnUse" x1="179.084" y1="640.2685" x2="383.9037" y2="640.2685">
				<stop  offset="0" style="stop-color:#F7DD00"/>
				<stop  offset="1" style="stop-color:#FFF8B8"/>
			</linearGradient>
			<path class="st18" d="M383.9,640.3c0-56.6-45.8-102.4-102.4-102.4c-56.6,0-102.4,45.9-102.4,102.4c0,56.6,45.9,102.4,102.4,102.4
				C338.1,742.7,383.9,696.8,383.9,640.3z"/>
			<path class="st4" d="M373.6,640.3c0-50.9-41.2-92.1-92.1-92.1c-50.9,0-92.1,41.2-92.1,92.1c0,50.9,41.2,92.1,92.1,92.1
				C332.4,732.4,373.6,691.1,373.6,640.3z"/>
			<linearGradient id="SVGID_15_" gradientUnits="userSpaceOnUse" x1="281.4207" y1="640.2708" x2="144.5193" y2="644.3881">
				<stop  offset="0" style="stop-color:#F7DD00"/>
				<stop  offset="1" style="stop-color:#FFF8B8"/>
			</linearGradient>
			<path class="st19" d="M288,737.7c-53.8,0-97.4-43.6-97.4-97.4c0-53.8,43.6-97.4,97.4-97.4c11.7,0,23,2.1,33.4,5.9
				c-12.2-5.3-25.7-8.3-39.9-8.3c-55.1,0-99.8,44.7-99.8,99.8c0,55.1,44.7,99.8,99.8,99.8c14.2,0,27.7-3,39.9-8.3
				C311,735.6,299.8,737.7,288,737.7z"/>
			<path class="st0" d="M370.7,640.3c0-49.3-39.9-89.2-89.2-89.2c-49.3,0-89.2,39.9-89.2,89.2c0,49.3,39.9,89.2,89.2,89.2
				C330.8,729.5,370.7,689.5,370.7,640.3z"/>
			<linearGradient id="SVGID_16_" gradientUnits="userSpaceOnUse" x1="350.1862" y1="634.1591" x2="112.919" y2="655.2612">
				<stop  offset="0" style="stop-color:#FAC900"/>
				<stop  offset="1" style="stop-color:#BA963A"/>
			</linearGradient>
			<path class="st20" d="M370.7,640.3c0-49.3-39.9-89.2-89.2-89.2c-49.3,0-89.2,39.9-89.2,89.2c0,49.3,39.9,89.2,89.2,89.2
				C330.8,729.5,370.7,689.5,370.7,640.3z"/>
			<linearGradient id="SVGID_17_" gradientUnits="userSpaceOnUse" x1="302.8311" y1="717.1166" x2="269.8601" y2="614.7164">
				<stop  offset="0" style="stop-color:#FAC900"/>
				<stop  offset="1" style="stop-color:#BA963A"/>
			</linearGradient>
			<path class="st21" d="M328.6,677.9c-34.8-4.5-84-98.7-136-44.9c-0.2,2.4-0.3,4.8-0.3,7.3c0,49.3,39.9,89.2,89.2,89.2
				c47.1,0,85.7-36.5,89-82.8C366.5,658.5,355.4,681.3,328.6,677.9z"/>
			<linearGradient id="SVGID_18_" gradientUnits="userSpaceOnUse" x1="299.2057" y1="650.3647" x2="192.6673" y2="589.6327">
				<stop  offset="0" style="stop-color:#DEB000"/>
				<stop  offset="1" style="stop-color:#A88236"/>
			</linearGradient>
			<path class="st22" d="M281.5,551.1c-49.3,0-89.2,39.9-89.2,89.2c0,48.9,39.3,88.6,88.1,89.2c-47.8-0.6-86.4-39.6-86.4-87.6
				c0-48.4,39.2-87.6,87.6-87.6c48.4,0,87.6,39.2,87.6,87.6c0,48-38.6,87-86.4,87.6c48.7-0.6,88.1-40.3,88.1-89.2
				C370.7,591,330.8,551.1,281.5,551.1z"/>
		</g>
		<path class="st9" d="M281.3,565.8c-7.5,15.7-17.8,30.5-30.8,43.5c-13,13-27.8,23.3-43.5,30.8l-0.1,0.1
			c15.8,7.6,30.7,17.9,43.9,31.1c13,13,23.2,27.7,30.8,43.3c7.5-15.7,17.8-30.5,30.8-43.5c13.1-13.1,27.9-23.4,43.7-30.9l-0.2-0.2
			c-15.6-7.6-30.3-17.8-43.2-30.7c-13-13-23.2-27.6-30.7-43.2l-0.5-0.5L281.3,565.8z"/>
	</g>
	<g>
		<path class="st10" d="M265.2,654.6c-0.2,3.9-2.3,6.2-6.5,6.8h57.7c-0.4,3.2-2.2,4.8-5.3,4.8h-56.8v-45.3h-2.5v-5.3h2.8l-1.7-2.8
			h11l1.4,2.8V654.6z M316.3,620.8h-28.1l-2,2.8h30.1V654c0.4,3.9-1.8,5.7-6.5,5.3h-42.2v-35.7h4.2l1.7-2.8h-5.9v-5.3h3.7l-0.8-2.8
			h14.6l0.8,2.8h12.1l0.8-2.8h14.6l-0.8,2.8h3.7V620.8z M302.8,629h-21.7v3.9h21.7V629z M302.8,642.2v-5.1h-21.7v5.1H302.8z
			 M302.8,651.2v-4.5h-21.7v7.3h18.3C302.3,654.4,303.4,653.5,302.8,651.2z"/>
	</g>
	<g>
		<g>
			<path class="st10" d="M268.9,197.7v11.2l31.8,1.3v3.7l-43.2-1.1v1.1h-6.2v-24.3h6.2v18.9l2.1,0.2v-21.3h-8.4v-4.1h8.4v-4.1h-8.4
				v-4.1h8.4V173h9.2v2.1h3v4.1h-3v4.1h3v4.1h-3v6.2h3v4.1H268.9z M295.1,173.9V173h5.6v2.1c0.1,3-1.1,4.4-3.7,4.1h-3.4l1.7,7.3
				l5.4-1.9v4.3l-4.3,1.3l4.3,17.8h-6.4c-2,0.1-3.3-0.9-3.9-3.2l-3-11.6l-3.7,1.3v-4.1l2.8-1.1l-2.6-10.1h-2.4V202
				c-0.1,1.4,0.4,2.1,1.5,1.9h1.9v4.1h-8.2c-2.7,0.1-4-1.2-3.9-4.1v-28.8h10.1l-0.6-2.1h9.7l0.4,2.1h1.1
				C294.8,175.3,295.3,174.9,295.1,173.9z"/>
			<path class="st10" d="M306.3,213.9V173h8.2v40.8H306.3z M317.7,213.9V173h38v37.2c0.1,2.6-1.2,3.8-4.1,3.7H317.7z M329.1,177.1
				v6.2h15.3v-6.2H329.1z M329.1,187.4v22.8h13.8c1.1,0.1,1.6-0.4,1.5-1.5v-21.3H329.1z"/>
			<path class="st10" d="M372,187.4h38.7l-1.9,22.8c-0.1,2.7-2.1,3.9-6,3.7h-41.7v-3.7h10.5l-5.2-16.5h10.7l5.2,16.5h12.9
				c1.6,0.3,2.3-0.4,2.1-1.9l1.5-16.8h-33.7c-2.9,0.1-4.2-1.2-4.1-4.1v-2.1h9.5v0.4C370.2,187.1,370.7,187.7,372,187.4z M410.7,173
				v7.5c0.3,2.7-1.1,3.9-4.1,3.7h-45.5V173h9.5v7.5h10.3V173h10.3v7.5h8.2c1.7,0.3,2.4-0.4,2.1-1.9V173H410.7z"/>
		</g>
	</g>
	<g>
		<g>
			<path class="st10" d="M439.6,399.3h-4.7l4.3,17.6l4.5-1.1v4.9l-3.2,0.9l3.2,12.2h-7.3c-2.7,0.1-4.4-1.1-5.2-3.7l-1.5-5.8
				l-6.7,1.7V421l5.6-1.3l-5.2-20.4h-18v1.9h15.5v29c0.3,2.7-1.1,3.9-4.1,3.7h-6.2v-28.6h-5.2v24.9c0.3,2.7-1.1,3.9-4.1,3.7h-7.3
				v-38.7h28.4L422,393h11.2l0.6,2.1h2.1c1.3,0.3,1.8-0.3,1.5-1.7V393h6.2v2.1C443.8,398,442.5,399.4,439.6,399.3z"/>
		</g>
	</g>
	<g>
		<g>
			<path class="st10" d="M11,629.9v36.7H2.8v-40.8h18v4.1l-1.5,6.2h1.5v24.7c0.1,2.9-1.2,4.2-4.1,4.1H14v-28.8h-1.5l1.5-6.2H11z
				 M52.2,625.8V663c0.1,2.6-1.2,3.8-4.1,3.7H22.8v-40.8H52.2z M43,636.1v-6H32v6H43z M43,660.8v-20.6H32V663h9
				C42.5,663.1,43.1,662.4,43,660.8z"/>
			<path class="st10" d="M70.3,666.6H57.8l8.6-20.4h-8.6v-4.1h10.3l4.1-10.1H57.8v-4.1h3l-1.1-2.1h11.2l1.1,2.1H93l1.1-2.1h11.2
				l-1.1,2.1h3v4.1H84.6l-4.1,10.1h26.6v4.1H78.8L70.3,666.6z M96.9,666.6l-6.4-19.3h10.3l6.4,19.3H96.9z"/>
			<path class="st10" d="M124.8,666.6h-12.2L130,632h-17.4v-4.1h19.3l1.1-2.1h12l-1.1,2.1h18.3v4.1H142l-1.5,3h9.2l12.5,31.6H151
				l-11.6-29.4L124.8,666.6z"/>
		</g>
	</g>
	<g>
		<g>
			<path class="st10" d="M411.1,657.8c-0.3,3.2-1.9,4.9-4.9,5.2h43c-0.3,2.4-1.6,3.7-4.1,3.7h-43.4V632h-1.9v-4.1h2.1l-1.3-2.1h9.5
				l1.1,2.1V657.8z M413,661.9v-36.1h15.5c-0.1,2.7-1.5,4.1-4.1,4.1h-2.1v26.6l6.2-0.9v4.3L413,661.9z M445,659.9h-3.2v-30.1h-3v32
				h-9.2v-36.1h19.6v29.9C449.4,658.8,448,660.2,445,659.9z"/>
			<path class="st10" d="M463.5,666.6v-20.2h-8.8v-4.1h8.8v-2.1h-8.8v-4.1h1.9l-1.1-4.1h-0.9v-4.1h8.8l-0.6-2.1h9.2l0.6,2.1h8.6v4.1
				h-0.9l-1.1,4.1h1.9v4.1h-8.6v2.1h8.6v4.1h-8.6v16.1c0.3,3-1.1,4.4-4.1,4.1H463.5z M461.3,666.6h-6v-19.6h6V666.6z M462.8,632
				l1.1,4.1h8.2l1.1-4.1H462.8z M480.7,666.6h-6.2v-19.6h6.2V666.6z M503.4,666.6h-8.4v-28.4h-3.2V663c0.3,2.7-1.1,3.9-4.3,3.7h-5.2
				v-40.8h21.7c0,2.7-1.4,4.1-4.1,4.1h-8.2v4.3h12.2v4.1h-0.6V666.6z"/>
			<path class="st10" d="M522.8,645.5h-13.1l1.3-2.4h-1.3v-4.3h3.4l1.3-2.1h-4.7v-3.2h6.4l0.9-1.5h-7.3v-4.1h9.5l1.3-2.1h12.9
				l-1.1,2.1h26.9v4.1h-29l-0.9,1.5h29.9v3.2h-31.6l-1.3,2.1h32.9v4.3H558l1.1,2.4h-11.4l-0.9-2.4h-22.8L522.8,645.5z M509.7,666.6
				v-20h49.4V663c0.1,2.6-1.2,3.8-4.1,3.7H509.7z M521.1,650.7v2.8h26.6v-2.8H521.1z M521.1,657.6v5.4h25.1c1.1,0.1,1.6-0.4,1.5-1.5
				v-3.9H521.1z"/>
		</g>
	</g>
	<g>
		<g>
			<path class="st10" d="M35.8,435.7l7.9-30.5c0.6-1.6-0.1-2.3-1.9-2.1h-6V399h15.9c3.4-0.1,4.6,1.5,3.4,4.9L47,435.7H35.8z
				 M68.4,431c0,3-1.5,4.6-4.5,4.7h-6.9v-40.8h11.4V431z M85.2,397.1v4.1l-4.7,0.6l4.5,33.9H74.7l-4.7-36.1L85.2,397.1z"/>
			<path class="st10" d="M121.7,429.9v4.3l-30.9,1.5v-3.7l9.7-0.6v-13.1h-9.7V414h9.7v-4.7h-9.7L94,399h-3.2v-4.1h30.9v4.1h-17.4
				l-2.1,6.2h10.5l-0.9-4.3h8.4l1.5,8.4h-9.9v4.7h9.9v4.3h-9.9v12.2L121.7,429.9z M129.2,434.2h-6v-39.3h6V434.2z M131,435.7v-40.8
				h9.2v37.2c0.3,2.7-1.1,3.9-4.1,3.7H131z"/>
		</g>
	</g>
</g>
<g>
</g>
<g>
</g>
<g>
</g>
<g>
</g>
<g>
</g>
<g>
</g>
<g>
</g>
<g>
</g>
<g>
</g>
<g>
</g>
<g>
</g>
<g>
</g>
<g>
</g>
<g>
</g>
<g>
</g>
</svg>
