<?xml version="1.0" encoding="utf-8"?>
<!-- Generator: Adobe Illustrator 17.0.0, SVG Export Plug-In . SVG Version: 6.00 Build 0)  -->
<!DOCTYPE svg PUBLIC "-//W3C//DTD SVG 1.1//EN" "http://www.w3.org/Graphics/SVG/1.1/DTD/svg11.dtd">
<svg version="1.1" id="Layer_1" xmlns="http://www.w3.org/2000/svg" xmlns:xlink="http://www.w3.org/1999/xlink" x="0px" y="0px"
	 width="524.5px" height="856.5px" viewBox="0 0 524.5 856.5" style="enable-background:new 0 0 524.5 856.5;" xml:space="preserve"
	>
<style type="text/css">
	.st0{fill:#FAC900;}
	.st1{fill:none;stroke:#FFCC00;stroke-width:4;stroke-miterlimit:10;}
	.st2{fill:url(#SVGID_1_);}
	.st3{fill:url(#SVGID_2_);}
	.st4{fill:#FFF171;}
	.st5{fill:url(#SVGID_3_);}
	.st6{fill:url(#SVGID_4_);}
	.st7{fill:url(#SVGID_5_);}
	.st8{fill:url(#SVGID_6_);}
	.st9{fill:#EC1C24;}
	.st10{fill:#FFF8B8;}
	.st11{fill:url(#SVGID_7_);}
	.st12{fill:url(#SVGID_8_);}
	.st13{fill:url(#SVGID_9_);}
	.st14{fill:url(#SVGID_10_);}
	.st15{fill:url(#SVGID_11_);}
	.st16{fill:url(#SVGID_12_);}
	.st17{fill:url(#SVGID_13_);}
	.st18{fill:url(#SVGID_14_);}
	.st19{fill:url(#SVGID_15_);}
	.st20{fill:url(#SVGID_16_);}
	.st21{fill:url(#SVGID_17_);}
	.st22{fill:url(#SVGID_18_);}
</style>
<g id="c-3.svg">
	<g>
		<path class="st0" d="M414,752.7c-2.9,4.8-7.1,7.3-13.1,7.6c1.7,3.8,3.1,7.3,4.7,10.8c11.9,25.3,28.8,46.9,48.6,66.5
			c6.1,6,12.6,11.7,18.8,17.7c1.3,1.2,2.4,2,3.8,0.4c1.6-1.8,0-2.7-1.1-3.8c-9.8-9.3-19.6-18.6-29.2-28.1
			c-3.9-3.9-7.3-8.3-10.9-12.5c-0.5-0.6-0.9-1.2-1.3-1.8c9.3,9,18.5,18.1,28,27c5,4.7,10.4,9,15.6,13.5c1.4,1.2,2.9,2.9,4.6,0.8
			c1.7-2-0.5-2.9-1.8-4c-9.9-8.7-19.7-17.4-29.6-26.1c-0.7-0.6-1.3-1.4-1.6-2.5c2.6,2.2,5.2,4.4,7.9,6.5
			c8.8,6.9,17.7,13.8,26.6,20.7c0.6,0.5,1.4,1.3,2,1.2c1.1-0.2,2.1-0.9,3.2-1.5c-0.6-1.1-0.8-2.6-1.7-3.2
			c-11.1-7-21.8-14.7-31.4-23.7c-0.6-0.6-1.2-1.3-1.6-2.3c0.5,0.3,1.1,0.6,1.6,1c10.9,7.4,21.7,14.8,32.5,22.2
			c0.4,0.3,0.8,0.5,1.1,0.7c1.4,0.9,2.8,0.7,3.5-0.7c0.3-0.6-0.6-2.1-1.3-2.7c-8.6-6.1-17.4-12.2-26.1-18.2c-0.7-0.5-1.4-1.1-1.8-2
			c5.7,3.4,11.4,6.9,17.2,10.3c4.5,2.7,9.1,5.3,13.7,7.7c0.7,0.4,2.4,0.1,2.9-0.5c0.9-1.1,0.5-2.2-1-3c-7.8-4.6-15.6-9.2-23.3-13.9
			c-1.5-0.9-2.9-2-4.2-3.4c4.6,2.4,9.2,4.9,13.8,7.2c4.6,2.3,9.3,4.6,13.9,6.8c0.6,0.3,1.4,0.7,2.1,0.5c0.9-0.2,1.6-0.9,2.4-1.3
			c-0.5-0.7-0.9-1.8-1.6-2.1c-6.2-3.1-12.4-6.1-18.6-9.1c-0.9-0.4-1.7-0.9-2.5-1.4c0.1-0.2,0.2-0.4,0.3-0.6c3.1,1.2,6.3,2.3,9.4,3.5
			c4.2,1.5,8.4,3.1,12.6,4.4c0.9,0.3,2.8-0.1,3.2-0.7c0.8-1.6-0.7-2.2-2-2.8c-8-3.3-15.9-6.6-23.9-9.9c-0.6-0.2-1.1-0.6-1.4-1.4
			c3.1,1,6.2,2,9.3,2.9c6.1,1.9,12.3,3.8,18.4,5.7c1.5,0.5,2.8,0.3,2.9-1.3c0-0.9-1-2.4-1.8-2.7c-6.4-2.2-12.8-4-19.2-6.1
			c-4.3-1.4-8.6-3-12.8-4.9c6.1,1.6,12.2,3.3,18.3,4.8c4.9,1.2,9.8,2.1,14.7,3.1c1.3,0.3,2.6,0.5,3-1.3c0.3-1.8-0.7-2.4-2.2-2.8
			c-7.4-1.5-14.7-3-22.1-4.6c-2-0.4-3.9-1.1-5.8-1.9c10.5,1.6,20.7,4.9,31.4,4.5c1.2-3.4,1-3.9-2.3-4.1c-12-0.9-23.8-2.8-35.2-6.4
			c-22.8-7.2-42.3-19.7-58.4-37.4C415.2,753.6,414.7,753.3,414,752.7z"/>
		<path class="st1" d="M364.5,708c0.6,6.4,18.1,16.5,23.9,22.6"/>
		<path class="st0" d="M394.2,732.5c1.4,2.5,3,3.9,6.4,3.7c5.2-0.2,9.4,3.9,10.2,8.8c0.9,5.4-1.9,10.4-6.7,12.3
			c-4.2,1.7-9.2,0.7-12.2-2.7c-3.4-3.7-3.9-7.9-1.9-12.4c0.8-1.7,0.7-2.9-0.5-4.4c-1.6-2-2.9-4.3-4.6-6.6c2.1-1.2,4.1-2.2,6.3-3.4
			C392.2,729.5,393.3,730.9,394.2,732.5z M398.8,751.6c6.4-2.2,6.8-3.8,2.1-9.3c-1.8,1.2-3.6,2.4-5.7,3.9
			C396.4,748.1,397.6,749.8,398.8,751.6z M391.8,746.5c-0.8,3.7,1.4,7,5.8,8.6C395.4,751.8,393.6,749.2,391.8,746.5z M391.9,744.5
			c3-2.1,5.6-3.8,8.2-5.6C396.7,738.2,393.6,740.2,391.9,744.5z M407.6,749.6c-2.8,1.9-5.4,3.7-8.1,5.5
			C403.2,756,406.7,753.7,407.6,749.6z M408,747.5c0.9-3.5-1.1-6.8-5.8-8.6C404.4,742.2,406.1,744.8,408,747.5z"/>
	</g>
	<g>
		<path class="st0" d="M39.2,14c1-1.9,1.9-3.9,3.2-5.5c0.5-0.7,2-0.6,3-0.9c0.7-0.2,2.1,0.4,2.1-0.9c0-1.3-1.1-1.6-2.2-1.7
			c-0.2,0-0.3-0.1-0.4-0.1c1-1.6,2-3.2,3.1-4.9c1.2,0.8,2.8,1.8,4.7,3c-1.1,0.6-2.2,1.2-3.5,1.9c0.7,0.5,1.2,1,2,1.6
			c-2.7,2.3-0.6,4.5,0.6,7c1.3-0.9,2.7-1.9,4-2.8c0.2-0.8,0.5-1.7,0.5-2.5c0-0.6-0.1-1.6-0.5-1.8c-0.5-0.3-1.5-0.2-2,0
			C53,7,52.4,7.7,51.6,8.4c0-0.3-0.1-0.4,0-0.4c3.1-4.1,3.1-4.2,7.6-1.8c3,1.6,5.9,3.2,9.3,5.1c-4,6.6-7.9,13-11.8,19.4
			c0,0.1,0,0.2,0,0.4c2.3,0.3,3.6,1.7,4.3,3.9c0.2,0.5,1,0.9,1.2,1.1c1.7-1.1,3-2.2,4.6-2.8c1.6-0.6,3.7,0.7,4.1,2.1
			c0.4,1.4-0.7,3-2.5,3.4c-1.5,0.3-3.2,0.7-4.7,0.5c-4.1-0.6-6.8,1.2-8.9,4.5c-0.2,0.3-0.4,0.6-0.6,1c0,0-0.1,0.1-0.3,0.2
			c-0.3-0.8-0.5-1.6-0.8-2.5c-0.8,0.4-1.5,0.8-2.3,1c-0.9,0.3-1.8,0.6-2.7,0.6c-1.9,0.1-3.3-0.9-3.5-2.4c-0.2-1.5,0.9-3.4,2.5-3.7
			c1.5-0.3,3,0,4.5,0.1c0.4,0,0.8,0.2,1.3,0.3c0.2-2.7-0.2-5.5,2.9-7.2c-6.8-3.7-13.5-7.4-20.3-11.1C36.7,18,38,16,39.2,14
			c0.7,0.7,1.4,1.9,2.2,2.1c2,0.5,2.6-1.4,3.7-2.7c0.4,2.3,0.4,2.3-1.1,4.3c-0.4,0.6-0.8,1.3-0.8,2c0,0.4,0.7,1.3,1,1.3
			c0.6,0,1.2-0.5,1.8-0.8c0.8,1.2,0.1,3.5,2.8,3.9c-0.2-0.8-0.3-1.3-0.6-1.8c-1.3-2.4-1.7-4.9-0.7-7.5c0.6-1.7,1-3.4,1.4-5.1
			c-0.1,0-0.3-0.1-0.4-0.1c-0.3,0.7-0.7,1.4-1,2.1c-1.9-1.6-2.5-1.6-3.7,0.3C42.7,13.6,40.6,14.5,39.2,14z M49.2,15.1
			c0.8,1.8,1.3,3.4,2,4.8c1,1.8,1.7,1.9,3.6,0.9c0.8-0.4,1.6-0.9,2.7-0.2c1.6,1,2.8,0.4,3-1.6c0.2-1.5,0.2-3,0.2-4.6
			c0-1.8-0.4-2.4-2.3-2.4c-0.8,0-1.6,0.1-2.4,0.4c-2.2,0.6-3.9,1.8-5,3.8C50.5,15.7,50,15.5,49.2,15.1z M67.2,38.1
			c0.7-1,1.2-1.7,1.7-2.5c-0.8-0.2-1.7-0.8-2.5-0.7c-0.9,0.1-2.2,0.6-1.7,1.9C64.9,37.4,66.1,37.6,67.2,38.1z"/>
		<path class="st0" d="M21.6,82.9c0.2,0.6,0.3,1.2,0.5,1.8c1.3,4.9,4.8,7.1,9.8,6.1c3.3-0.6,6.4-2,9.2-3.8c0.9-0.5,1.9-1.3,2.8-0.2
			c0.8,1,0.4,2.1-0.4,2.9c-5.3,5.8-11.6,9.2-19.6,8c-5.7-0.8-7.9-5.3-5.4-10.4c0.8-1.6,1.8-3.1,2.8-4.7
			C21.3,82.8,21.4,82.8,21.6,82.9z"/>
		<path class="st0" d="M108.3,60.5c3.6,1.8,6.9,3.2,8.2,7c1,3-0.3,6-3.5,8.1c-5.6,3.7-11.7,4.1-18.1,2.4c-0.9-0.2-1.8-0.6-2.6-0.9
			c-1.2-0.4-2-1.3-1.6-2.5c0.2-0.5,1.5-0.9,2.2-0.9c3.7,0.1,7.5,0.3,11-1.2c4.7-2,6.1-5.1,4.9-10C108.7,61.9,108.5,61.4,108.3,60.5z
			"/>
		<path class="st0" d="M115.7,62.9c-1.3-0.8-2.3-1.6-3.3-2.2c-6.2-3.5-12.5-3.1-18.8-0.4c-1,0.4-1.8,1-2.8,1.3
			c-0.6,0.2-1.4,0.1-2.1,0.1c0.2-0.7,0.1-1.7,0.5-2.1c1.4-1.3,2.8-2.6,4.4-3.6c4.7-3,9.9-4.6,15.4-2.7c3.6,1.2,6.1,3.5,6.7,7.5
			c0,0.3,0.1,0.7,0.1,1C115.9,62.1,115.8,62.3,115.7,62.9z"/>
		<path class="st0" d="M16.2,87.2c-2.3-3.3-1.5-7.4,0.9-10.3c3.3-4.1,7.8-5.5,12.8-5.5c3,0.1,5.9,0.9,8.8,1.6
			c0.6,0.1,0.9,1.1,1.4,1.7c-0.6,0.3-1.3,0.8-1.9,0.8c-4.4-0.1-8.7,0.3-12.8,2.3c-3.4,1.7-6,4.3-8,7.5C17,85.9,16.6,86.5,16.2,87.2z
			"/>
		<path class="st0" d="M43.5,57.5c-0.7,0.5-1.3,0.9-2,1.4c-3.2,2.5-3.1,5.1,0.3,7.4c0.5,0.3,1,0.6,1.5,1c1.3,1,1.3,1.9,0.1,2.9
			c-3.3,3-8.7,1.6-10.4-2.7c-1.8-4.5,0.2-8.7,5-9.9c1.8-0.4,3.6-0.5,5.5-0.7C43.5,57.2,43.5,57.4,43.5,57.5z"/>
		<path class="st0" d="M78.1,47.9c3.5-1.8,6.6-3.1,10-1.4c3,1.4,4.1,5.6,2.7,9.2c-0.8,2.1-2.1,3.8-4.3,4.7c-1.2,0.5-2.6,0.7-3.3-0.4
			c-0.5-0.8-0.4-2.1-0.2-3.2c0.1-0.8,0.8-1.5,1.2-2.3c1.5-3.1,0.5-5.2-2.8-6.1C80.4,48.3,79.5,48.2,78.1,47.9z"/>
		<path class="st0" d="M101.1,87.5c1.1,1.9,0.5,4.5-1.6,6.2c-2.5,2-5.5,2.4-8.6,1.9c-1-0.2-1.9-0.5-2.8-0.8c-4-1.6-4.4-3.5-1.6-6.3
			c2.6,0.4,5.1,1.3,7.4,1.1C96.3,89.5,98.5,88.3,101.1,87.5z"/>
		<path class="st0" d="M40.7,102.1c1.5,0,2.8,0.1,4.1,0.1c3.2-0.1,5.7-1.5,7.8-3.9c1.3-1.4,1.7-1.5,3.4-0.3c1.7,1.2,2,2.2,1,3.7
			c-1.8,2.8-4.3,4.8-7.6,5.6c-2,0.5-4,0.6-5.9-0.3C41.6,105.9,40.8,104.3,40.7,102.1z"/>
		<path class="st0" d="M54.3,56c-2-3.4-1.8-7.4,1-10.8c1.3-1.6,3-3,4.6-4.3c1.2-1,2.9-1.2,4.1-0.2c0.7,0.6,0.9,2,1,3
			c0.1,0.4-0.5,1.1-0.9,1.4c-4.1,2.7-7.6,6-9.6,10.7C54.6,55.9,54.4,56,54.3,56z"/>
		<path class="st0" d="M63.4,64.5c-2.2-1.9-4.3-3.6-6.3-5.4c-0.2-0.2-0.4-0.4-0.4-0.7c-0.3-1.7,1.5-5.4,3.2-5.9
			c0.7-0.3,1.7-0.2,2.5,0.1c0.8,0.2,1.6,0.8,2.2,1.3c2,1.6,2.1,1.9,1.2,4.4C65.1,60.3,64.3,62.3,63.4,64.5z"/>
		<path class="st0" d="M73.8,60.1c0.6,2.2-1.2,6.3-3.2,7.3c-1.3,0.6-5.2-0.8-5.7-2.1c-0.1-0.4-0.1-1,0.1-1.4c1-2.2,2-4.4,3.3-6.4
			c0.3-0.5,1.4-0.8,2-0.7C72.2,57.1,73.4,58.3,73.8,60.1z"/>
		<path class="st0" d="M62.1,67.1c-0.7,1.2-1.2,2.6-2.1,3.4c-0.6,0.6-2.2,0.9-2.9,0.5c-2.1-1.2-4-2.6-5.8-4.2
			c-1.2-1-0.9-2.7,0.4-4.1c1-1.2,2.4-1.4,3.7-0.7c1.5,0.8,3,1.6,4.3,2.6C60.4,65.3,61.1,66.1,62.1,67.1z"/>
		<path class="st0" d="M74.7,91.8c1.2,0.3,2.7,0.7,4.1,1.1c1.2,0.3,1.8,1.2,1.1,2.2c-1.4,2-2.7,4.1-4.5,5.6
			c-1.9,1.6-4.7,0.8-6.7-1.2C70.7,97,72.6,94.5,74.7,91.8z"/>
		<path class="st0" d="M88.3,74.4c0.1,2.3-0.6,4.7-2.1,6.8c-0.3,0.5-1.3,0.7-2,0.7c-4.4-0.1-4.7-0.6-3.3-4.6c0.5-1.5,1-3.1,1.4-4.7
			c0.2-0.9,0.8-1.2,1.6-1.1C86.2,71.6,87.9,72.6,88.3,74.4z"/>
		<path class="st0" d="M67.4,78c-1.5-0.7-3-1.2-4.3-2c-1.9-1.2-2.3-3-1.2-5c1.9-3.6,2.7-3.9,6.3-1.9c2.2,1.2,2.6,2.4,1.7,4.8
			c-0.2,0.5-0.4,1-0.7,1.5C68.6,76.2,68,76.9,67.4,78z"/>
		<path class="st0" d="M38.9,98.7c0-0.4,0-1.2,0.2-1.9c1-2.7,2.6-4.9,5.2-6.3c1.9-1,3.9-0.6,4.9,1.1c0.4,0.7,0.4,1.1-0.4,1.6
			c-2.9,1.7-4.9,4-5.6,7.3c-0.1,0.3-0.4,0.7-0.7,0.7C41.3,101.6,39.3,100.3,38.9,98.7z"/>
		<path class="st0" d="M70,79.8c1.1,0.3,2.1,0.5,3,0.8c1.6,0.6,2.4,2,1.9,3.5c-0.7,2.3-1.8,4.4-2.8,6.6c-0.1,0.3-0.7,0.4-1.1,0.4
			c-0.4,0-0.7-0.2-1.1-0.3c-2.9-0.9-3.4-1.8-2.2-4.6c0.4-1,0.8-2,1.2-3C69.4,82.2,69.6,81.1,70,79.8z"/>
		<path class="st0" d="M98.6,86.6c-3.4-3-4.3-3.4-9.9-3.9c-1-2.2,0.7-4.6,3.2-4.6c2.9,0,5.5,1.1,7.5,3.1
			C101.2,83,100.8,85.3,98.6,86.6z"/>
		<path class="st0" d="M59.5,96.8c-1.3-1-2.3-2-3.5-2.8c-2.5-1.7-2.8-3.3-1.1-5.8c1.4-2,1.7-2.1,3.8-1.1c0.8,0.4,1.7,0.8,2.5,1.2
			c1.9,1,2.3,2.1,1.3,4C61.8,93.6,60.8,94.8,59.5,96.8z"/>
		<path class="st0" d="M78.1,82.6c1.7,0.3,3.2,0.6,4.7,0.9c2.2,0.5,2.8,1.4,1.8,3.5c-0.5,1.1-1.1,2.3-1.8,3.3
			c-0.6,1-1.4,1.8-2.8,1.3c-0.6-0.2-1.2-0.2-1.8-0.4c-2.3-0.7-2.5-1.1-1.7-3.3C77.1,86.2,77.6,84.4,78.1,82.6z"/>
		<path class="st0" d="M43.1,80c0.2-1.4,0.1-2.5,0.5-3.5c0.8-2.1,1.8-4.2,2.9-6.2c0.4-0.7,1.6-1.7,1.9-1.6c1.1,0.5,2,1.4,2.7,2.3
			c0.3,0.4,0.2,1.3,0.1,1.9c-0.6,2.9-2,5.2-5.2,5.9C45.1,79.1,44.3,79.6,43.1,80z"/>
		<path class="st0" d="M73.8,70.4c1.5,0.4,2.6,0.7,3.8,0.9c2,0.3,2.4,1.1,2,3c-1.2,5.5-2.7,4.8-6.7,3.7c-1.8-0.5-2.2-1.2-1.5-3
			C72.2,73.3,73.1,71.7,73.8,70.4z"/>
		<path class="st0" d="M64.2,87.3c-1.7-1-3.3-1.8-4.8-2.6c-1-0.6-1.4-1.3-0.8-2.6c0.7-1.4,1.2-2.9,1.8-4.4c2.1,0.9,4.2,1.8,6.5,2.8
			C67,82.9,65.5,84.9,64.2,87.3z"/>
		<path class="st0" d="M51.4,90c-1.8-1.5-3.6-3-5.3-4.5c-1.5-1.2-1.7-2.2-0.9-3.4c0.8-1.2,2.9-1.7,4.1-0.9c1.2,0.7,2.3,1.4,3.4,2.3
			c1.8,1.3,1.9,2.6,0.6,4.3C52.7,88.6,52,89.2,51.4,90z"/>
		<path class="st0" d="M78.7,69.1c-2.7,0.6-5.3-1.8-4.1-4.2c0.7-1.4,0.9-2.9,1.5-4.3c0.2-0.4,1.1-1,1.5-0.9c3.4,0.8,5,4.6,3.1,7.5
			C80.4,68,79.5,68.5,78.7,69.1z"/>
		<path class="st0" d="M56,82.8c-2-1.3-3.7-2.5-5.4-3.7c1.4-2.3,2.8-4.5,4.3-6.9c2.7,0.7,3.7,2.3,2.9,5.3
			C57.3,79.3,56.6,80.9,56,82.8z"/>
		<path class="st0" d="M30,81.6c1,2.2,2.4,3.4,4.7,3.1c1.9-0.3,3.8-0.7,6.3-1.3c-0.9,1.2-1.4,2.3-2.3,2.8c-2.9,1.9-6.1,2.6-9.5,1.2
			c-0.5-0.2-1-0.5-1.3-0.9c-1.4-1.4-1.4-2.2,0.1-3.4C28.6,82.7,29.2,82.2,30,81.6z"/>
		<path class="st0" d="M92.1,70.9c2.3-0.8,4.2-1.3,5.9-2.1c2-0.9,2.7-2.7,2.4-5.1c1.3,0.2,2.5,0.2,3.6,0.6c0.4,0.1,0.9,0.9,0.9,1.4
			c0.1,1.9-0.9,3.3-2.4,4.4c-2.3,1.6-4.8,2.6-7.7,2C94,71.9,93.2,71.4,92.1,70.9z"/>
		<path class="st0" d="M82.3,50.4c-4.5,5.4-6.6,5.8-11,3.8C73.1,49.5,77.8,47.3,82.3,50.4z"/>
		<path class="st0" d="M65.7,99.3c-1.2-0.5-2.4-0.9-3.3-1.6c-0.3-0.2,0.1-1.5,0.4-2.3c0.5-1.2,1-2.3,1.7-3.3
			c0.3-0.4,1.1-0.9,1.5-0.8c1.2,0.3,2.4,0.9,3.6,1.4c1.5,0.7,1.8,1.7,0.8,2.8C69.1,96.9,67.5,97.9,65.7,99.3z"/>
		<path class="st0" d="M42.1,60.5c1.9-2.4,4.2-3.9,7.3-3.8c2.4,0.1,2.9,1.3,1.7,3.2c-0.6,1-1,2.4-1.9,2.8c-0.7,0.3-2-0.7-3-1
			C44.9,61.2,43.6,60.9,42.1,60.5z"/>
		<path class="st0" d="M83.7,63.5c3.9,0.1,5.9,2.3,5.4,6c-0.2,1.1-0.5,1.6-1.8,1.2c-1.2-0.4-2.6-0.5-3.9-0.9c-0.4-0.1-1-0.7-1-0.9
			C82.7,67.1,83.2,65.3,83.7,63.5z"/>
		<path class="st0" d="M69.1,53c-2.2-0.8-4.4-1.6-7-2.5c1.2-1.7,2.1-3.1,3.1-4.4c0.6-0.9,1.3-0.7,2-0.1C68.9,47.5,69.7,50.4,69.1,53
			z"/>
		<path class="st0" d="M104.5,63c-4.7-0.9-8.6,0.2-12.2,2.9c0.2-2.5,2.2-4.3,5.4-5.2C100.7,60,102.9,60.6,104.5,63z"/>
		<path class="st0" d="M38.2,79.3c-4.5-0.3-8.5,0.5-11.8,3.6c-0.3-1.9,0.9-3.5,3.3-4.6C32.8,76.8,36.3,77.2,38.2,79.3z"/>
		<path class="st0" d="M54.2,8.8c-0.5,0.8-0.7,1.2-1,1.6c-0.2,0.2-0.6,0.3-1,0.4c-0.1,0-0.3-0.4-0.3-0.5c0.1-0.3,0.3-0.6,0.6-0.8
			C52.9,9.2,53.4,9.1,54.2,8.8z"/>
		<path class="st0" d="M56.1,18.5c1-2.3,1-2.3-0.9-4.3c1-0.3,1.9-0.8,2.6-0.6c0.4,0.1,0.6,1.3,0.8,2c0.1,0.3,0.1,0.6,0.1,1
			C58.7,19.1,58.5,19.2,56.1,18.5z"/>
		<path class="st0" d="M52.7,17.8c0.6,0.2,1.2,0.4,1.9,0.7c-0.4,0.5-0.9,0.9-1.4,1.4c-2.2-2.1-2-3.6,1-4.4
			C53.8,16.2,53.3,16.9,52.7,17.8z"/>
	</g>
	<path class="st1" d="M138,306c6.2,9.3,9.4,20.8,16.5,29.5"/>
	<path class="st1" d="M228.4,513c0.9,5.2,10,26.1,13.5,30"/>
	<g>
		<g>
			<linearGradient id="SVGID_1_" gradientUnits="userSpaceOnUse" x1="116.3749" y1="275.9105" x2="116.3749" y2="124.0819">
				<stop  offset="0" style="stop-color:#FAC900"/>
				<stop  offset="1" style="stop-color:#FFCC00"/>
			</linearGradient>
			<path class="st2" d="M221.9,206.8c0-58.3-47.2-105.5-105.5-105.5c-58.3,0-105.5,47.2-105.5,105.5c0,58.3,47.2,105.5,105.5,105.5
				C174.6,312.3,221.9,265.1,221.9,206.8z"/>
			<linearGradient id="SVGID_2_" gradientUnits="userSpaceOnUse" x1="13.9624" y1="206.8347" x2="218.7821" y2="206.8347">
				<stop  offset="0" style="stop-color:#F7DD00"/>
				<stop  offset="1" style="stop-color:#FFF8B8"/>
			</linearGradient>
			<path class="st3" d="M218.8,206.8c0-56.6-45.8-102.4-102.4-102.4C59.8,104.4,14,150.3,14,206.8c0,56.6,45.9,102.4,102.4,102.4
				C172.9,309.2,218.8,263.4,218.8,206.8z"/>
			<path class="st4" d="M208.5,206.8c0-50.9-41.2-92.1-92.1-92.1c-50.9,0-92.1,41.2-92.1,92.1c0,50.9,41.2,92.1,92.1,92.1
				C167.2,299,208.5,257.7,208.5,206.8z"/>
			<linearGradient id="SVGID_3_" gradientUnits="userSpaceOnUse" x1="116.2992" y1="206.8369" x2="-20.6022" y2="210.9544">
				<stop  offset="0" style="stop-color:#F7DD00"/>
				<stop  offset="1" style="stop-color:#FFF8B8"/>
			</linearGradient>
			<path class="st5" d="M122.9,304.2c-53.8,0-97.4-43.6-97.4-97.4c0-53.8,43.6-97.4,97.4-97.4c11.7,0,23,2.1,33.4,5.9
				c-12.2-5.3-25.7-8.3-39.9-8.3c-55.1,0-99.8,44.7-99.8,99.8c0,55.1,44.7,99.8,99.8,99.8c14.2,0,27.7-3,39.9-8.3
				C145.9,302.2,134.6,304.2,122.9,304.2z"/>
			<path class="st0" d="M205.6,206.8c0-49.3-39.9-89.2-89.2-89.2c-49.3,0-89.2,39.9-89.2,89.2c0,49.3,39.9,89.2,89.2,89.2
				C165.6,296,205.6,256.1,205.6,206.8z"/>
			<linearGradient id="SVGID_4_" gradientUnits="userSpaceOnUse" x1="185.0646" y1="200.7253" x2="-52.2026" y2="221.8274">
				<stop  offset="0" style="stop-color:#FAC900"/>
				<stop  offset="1" style="stop-color:#BA963A"/>
			</linearGradient>
			<path class="st6" d="M205.6,206.8c0-49.3-39.9-89.2-89.2-89.2c-49.3,0-89.2,39.9-89.2,89.2c0,49.3,39.9,89.2,89.2,89.2
				C165.6,296,205.6,256.1,205.6,206.8z"/>
			<linearGradient id="SVGID_5_" gradientUnits="userSpaceOnUse" x1="137.7095" y1="283.6828" x2="104.7386" y2="181.2826">
				<stop  offset="0" style="stop-color:#FAC900"/>
				<stop  offset="1" style="stop-color:#BA963A"/>
			</linearGradient>
			<path class="st7" d="M163.5,244.4c-34.8-4.5-84-98.7-136-44.9c-0.2,2.4-0.3,4.8-0.3,7.3c0,49.3,39.9,89.2,89.2,89.2
				c47.1,0,85.7-36.5,89-82.8C201.4,225.1,190.3,247.9,163.5,244.4z"/>
			<linearGradient id="SVGID_6_" gradientUnits="userSpaceOnUse" x1="134.0842" y1="216.9309" x2="27.5457" y2="156.1989">
				<stop  offset="0" style="stop-color:#DEB000"/>
				<stop  offset="1" style="stop-color:#A88236"/>
			</linearGradient>
			<path class="st8" d="M116.4,117.6c-49.3,0-89.2,39.9-89.2,89.2c0,48.9,39.3,88.6,88.1,89.2c-47.8-0.6-86.4-39.6-86.4-87.6
				c0-48.4,39.2-87.6,87.6-87.6c48.4,0,87.6,39.2,87.6,87.6c0,48-38.6,87-86.4,87.6c48.7-0.6,88.1-40.3,88.1-89.2
				C205.6,157.6,165.6,117.6,116.4,117.6z"/>
		</g>
		<path class="st9" d="M116.2,132.4c-7.5,15.7-17.8,30.5-30.8,43.5c-13,13-27.8,23.3-43.5,30.8l-0.1,0.1
			c15.8,7.6,30.7,17.9,43.9,31.1c13,13,23.2,27.7,30.8,43.3c7.5-15.7,17.8-30.5,30.8-43.5c13.1-13.1,27.9-23.4,43.7-30.9l-0.2-0.2
			c-15.6-7.6-30.3-17.8-43.2-30.7s-23.2-27.6-30.7-43.2l-0.5-0.5L116.2,132.4z"/>
	</g>
	<g>
		<path class="st10" d="M100.4,232.7h-16l22.8-45.3H84.3v-5.3h25.3l1.4-2.8h15.8l-1.4,2.8h23.9v5.3h-26.4l-2,3.9H133l16.3,41.3
			h-14.6l-15.2-38.5L100.4,232.7z"/>
	</g>
	<g>
		<g>
			<linearGradient id="SVGID_7_" gradientUnits="userSpaceOnUse" x1="188.3749" y1="491.9105" x2="188.3749" y2="340.0819">
				<stop  offset="0" style="stop-color:#FAC900"/>
				<stop  offset="1" style="stop-color:#FFCC00"/>
			</linearGradient>
			<path class="st11" d="M293.9,422.8c0-58.3-47.2-105.5-105.5-105.5c-58.3,0-105.5,47.2-105.5,105.5c0,58.3,47.2,105.5,105.5,105.5
				C246.6,528.3,293.9,481.1,293.9,422.8z"/>
			<linearGradient id="SVGID_8_" gradientUnits="userSpaceOnUse" x1="85.9624" y1="422.8347" x2="290.7821" y2="422.8347">
				<stop  offset="0" style="stop-color:#F7DD00"/>
				<stop  offset="1" style="stop-color:#FFF8B8"/>
			</linearGradient>
			<path class="st12" d="M290.8,422.8c0-56.6-45.8-102.4-102.4-102.4C131.8,320.4,86,366.3,86,422.8c0,56.6,45.9,102.4,102.4,102.4
				C244.9,525.2,290.8,479.4,290.8,422.8z"/>
			<path class="st4" d="M280.5,422.8c0-50.9-41.2-92.1-92.1-92.1c-50.9,0-92.1,41.2-92.1,92.1c0,50.9,41.2,92.1,92.1,92.1
				C239.2,515,280.5,473.7,280.5,422.8z"/>
			<linearGradient id="SVGID_9_" gradientUnits="userSpaceOnUse" x1="188.2992" y1="422.8369" x2="51.3978" y2="426.9543">
				<stop  offset="0" style="stop-color:#F7DD00"/>
				<stop  offset="1" style="stop-color:#FFF8B8"/>
			</linearGradient>
			<path class="st13" d="M194.9,520.2c-53.8,0-97.4-43.6-97.4-97.4c0-53.8,43.6-97.4,97.4-97.4c11.7,0,23,2.1,33.4,5.9
				c-12.2-5.3-25.7-8.3-39.9-8.3c-55.1,0-99.8,44.7-99.8,99.8c0,55.1,44.7,99.8,99.8,99.8c14.2,0,27.7-3,39.9-8.3
				C217.9,518.2,206.6,520.2,194.9,520.2z"/>
			<path class="st0" d="M277.6,422.8c0-49.3-39.9-89.2-89.2-89.2c-49.3,0-89.2,39.9-89.2,89.2c0,49.3,39.9,89.2,89.2,89.2
				C237.6,512,277.6,472.1,277.6,422.8z"/>
			<linearGradient id="SVGID_10_" gradientUnits="userSpaceOnUse" x1="257.0646" y1="416.7253" x2="19.7974" y2="437.8274">
				<stop  offset="0" style="stop-color:#FAC900"/>
				<stop  offset="1" style="stop-color:#BA963A"/>
			</linearGradient>
			<path class="st14" d="M277.6,422.8c0-49.3-39.9-89.2-89.2-89.2c-49.3,0-89.2,39.9-89.2,89.2c0,49.3,39.9,89.2,89.2,89.2
				C237.6,512,277.6,472.1,277.6,422.8z"/>
			<linearGradient id="SVGID_11_" gradientUnits="userSpaceOnUse" x1="209.7095" y1="499.6828" x2="176.7386" y2="397.2826">
				<stop  offset="0" style="stop-color:#FAC900"/>
				<stop  offset="1" style="stop-color:#BA963A"/>
			</linearGradient>
			<path class="st15" d="M235.5,460.4c-34.8-4.5-84-98.7-136-44.9c-0.2,2.4-0.3,4.8-0.3,7.3c0,49.3,39.9,89.2,89.2,89.2
				c47.1,0,85.7-36.5,89-82.8C273.4,441.1,262.3,463.9,235.5,460.4z"/>
			<linearGradient id="SVGID_12_" gradientUnits="userSpaceOnUse" x1="206.0842" y1="432.9309" x2="99.5457" y2="372.1989">
				<stop  offset="0" style="stop-color:#DEB000"/>
				<stop  offset="1" style="stop-color:#A88236"/>
			</linearGradient>
			<path class="st16" d="M188.4,333.6c-49.3,0-89.2,39.9-89.2,89.2c0,48.9,39.3,88.6,88.1,89.2c-47.8-0.6-86.4-39.6-86.4-87.6
				c0-48.4,39.2-87.6,87.6-87.6c48.4,0,87.6,39.2,87.6,87.6c0,48-38.6,87-86.4,87.6c48.7-0.6,88.1-40.3,88.1-89.2
				C277.6,373.6,237.6,333.6,188.4,333.6z"/>
		</g>
		<path class="st9" d="M188.2,348.4c-7.5,15.7-17.8,30.5-30.8,43.5c-13,13-27.8,23.3-43.5,30.8l-0.1,0.1
			c15.8,7.6,30.7,17.9,43.9,31.1c13,13,23.2,27.7,30.8,43.3c7.5-15.7,17.8-30.5,30.8-43.5c13.1-13.1,27.9-23.4,43.7-30.9l-0.2-0.2
			c-15.6-7.6-30.3-17.8-43.2-30.7c-13-13-23.2-27.6-30.7-43.2l-0.5-0.5L188.2,348.4z"/>
	</g>
	<g>
		<path class="st10" d="M192.2,447.4l-17.2-5.3l-17.7,5.3v-5.3l9-3.1l-2.5-0.8c-3.4-0.9-4.8-3-4.2-6.2v-7.9h-2.2v-5.9h2.2v-2.2h10.7
			v2.2h9.8v-2.2h10.7v2.2h1.4v5.9h-1.4v8.2c0.6,3.4-0.8,5.3-3.9,5.6l-3.4,1.1l8.7,3.1V447.4z M175.3,413.9h-5.3v-12.7h-11.5v-4.8
			h0.3l-0.3-2.5h7.9l0.6,2.5h3.1V394h11v2.5h2.5l0.6-2.5h8.2l-0.6,2.5h0.6v4.8h-11.2v7.9C181.3,412.7,179.4,414.3,175.3,413.9z
			 M167.1,413.9h-8.7l1.4-11.8h8.7L167.1,413.9z M170.2,431.9c-0.4,1.9,0.3,2.9,2,3.1l2.8,1.1l2.8-1.1c1.7-0.2,2.4-1.2,2.2-3.1v-7.9
			h-9.8V431.9z M192.2,413.9h-8.7l-1.7-11.8h8.7L192.2,413.9z M204.5,447.4h-11.2l4.5-28.7l-3.7-13.2h11l2.5,9l2.8-11
			c0.6-0.9,0.2-1.4-1.1-1.4h-10.4c-3.9,0.4-5.8-1.4-5.6-5.3V394h12.9c-0.4,2.2,0.3,3.2,2,2.8H222v2c0.2,2.4-0.1,4.6-0.8,6.5
			l-3.7,13.5l4.5,28.7h-11.2l-3.1-21.1L204.5,447.4z"/>
	</g>
	<g>
		<g>
			<linearGradient id="SVGID_13_" gradientUnits="userSpaceOnUse" x1="299.9974" y1="697.3443" x2="299.9974" y2="545.5157">
				<stop  offset="0" style="stop-color:#FAC900"/>
				<stop  offset="1" style="stop-color:#FFCC00"/>
			</linearGradient>
			<path class="st17" d="M405.5,628.3c0-58.3-47.2-105.5-105.5-105.5c-58.3,0-105.5,47.2-105.5,105.5c0,58.3,47.2,105.5,105.5,105.5
				C358.3,733.8,405.5,686.5,405.5,628.3z"/>
			<linearGradient id="SVGID_14_" gradientUnits="userSpaceOnUse" x1="197.5849" y1="628.2685" x2="402.4046" y2="628.2685">
				<stop  offset="0" style="stop-color:#F7DD00"/>
				<stop  offset="1" style="stop-color:#FFF8B8"/>
			</linearGradient>
			<path class="st18" d="M402.4,628.3c0-56.6-45.8-102.4-102.4-102.4c-56.6,0-102.4,45.9-102.4,102.4c0,56.6,45.9,102.4,102.4,102.4
				C356.6,730.7,402.4,684.8,402.4,628.3z"/>
			<path class="st4" d="M392.1,628.3c0-50.9-41.2-92.1-92.1-92.1c-50.9,0-92.1,41.2-92.1,92.1c0,50.9,41.2,92.1,92.1,92.1
				C350.9,720.4,392.1,679.1,392.1,628.3z"/>
			<linearGradient id="SVGID_15_" gradientUnits="userSpaceOnUse" x1="299.9217" y1="628.2708" x2="163.0203" y2="632.3881">
				<stop  offset="0" style="stop-color:#F7DD00"/>
				<stop  offset="1" style="stop-color:#FFF8B8"/>
			</linearGradient>
			<path class="st19" d="M306.5,725.7c-53.8,0-97.4-43.6-97.4-97.4c0-53.8,43.6-97.4,97.4-97.4c11.7,0,23,2.1,33.4,5.9
				c-12.2-5.3-25.7-8.3-39.9-8.3c-55.1,0-99.8,44.7-99.8,99.8c0,55.1,44.7,99.8,99.8,99.8c14.2,0,27.7-3,39.9-8.3
				C329.5,723.6,318.3,725.7,306.5,725.7z"/>
			<path class="st0" d="M389.2,628.3c0-49.3-39.9-89.2-89.2-89.2c-49.3,0-89.2,39.9-89.2,89.2c0,49.3,39.9,89.2,89.2,89.2
				C349.3,717.5,389.2,677.5,389.2,628.3z"/>
			<linearGradient id="SVGID_16_" gradientUnits="userSpaceOnUse" x1="368.6871" y1="622.1591" x2="131.42" y2="643.2612">
				<stop  offset="0" style="stop-color:#FAC900"/>
				<stop  offset="1" style="stop-color:#BA963A"/>
			</linearGradient>
			<path class="st20" d="M389.2,628.3c0-49.3-39.9-89.2-89.2-89.2c-49.3,0-89.2,39.9-89.2,89.2c0,49.3,39.9,89.2,89.2,89.2
				C349.3,717.5,389.2,677.5,389.2,628.3z"/>
			<linearGradient id="SVGID_17_" gradientUnits="userSpaceOnUse" x1="321.3321" y1="705.1166" x2="288.3611" y2="602.7164">
				<stop  offset="0" style="stop-color:#FAC900"/>
				<stop  offset="1" style="stop-color:#BA963A"/>
			</linearGradient>
			<path class="st21" d="M347.1,665.9c-34.8-4.5-84-98.7-136-44.9c-0.2,2.4-0.3,4.8-0.3,7.3c0,49.3,39.9,89.2,89.2,89.2
				c47.1,0,85.7-36.5,89-82.8C385,646.5,373.9,669.3,347.1,665.9z"/>
			<linearGradient id="SVGID_18_" gradientUnits="userSpaceOnUse" x1="317.7067" y1="638.3647" x2="211.1682" y2="577.6327">
				<stop  offset="0" style="stop-color:#DEB000"/>
				<stop  offset="1" style="stop-color:#A88236"/>
			</linearGradient>
			<path class="st22" d="M300,539.1c-49.3,0-89.2,39.9-89.2,89.2c0,48.9,39.3,88.6,88.1,89.2c-47.8-0.6-86.4-39.6-86.4-87.6
				c0-48.4,39.2-87.6,87.6-87.6c48.4,0,87.6,39.2,87.6,87.6c0,48-38.6,87-86.4,87.6c48.7-0.6,88.1-40.3,88.1-89.2
				C389.2,579,349.3,539.1,300,539.1z"/>
		</g>
		<path class="st9" d="M299.8,553.8c-7.5,15.7-17.8,30.5-30.8,43.5c-13,13-27.8,23.3-43.5,30.8l-0.1,0.1
			c15.8,7.6,30.7,17.9,43.9,31.1c13,13,23.2,27.7,30.8,43.3c7.5-15.7,17.8-30.5,30.8-43.5c13.1-13.1,27.9-23.4,43.7-30.9l-0.2-0.2
			c-15.6-7.6-30.3-17.8-43.2-30.7c-13-13-23.2-27.6-30.7-43.2l-0.5-0.5L299.8,553.8z"/>
	</g>
	<g>
		<path class="st10" d="M287.6,600.7v2.8h2.5v5.3h-2.5v9.6l2.5-0.8v5.9l-2.5,0.6v25.3c0.4,3.6-1.4,5.2-5.3,4.8h-12.4v-4.8h3.1
			c2.1,0.4,2.9-0.6,2.5-2.8v-20l-5.3,1.1v-5.6l5.3-1.1v-12.1h-5.3v-5.3h5.3v-2.8H287.6z M329.2,614.2h-25.3v3.1h11v-2.5h10.7v2.5
			h9.3v5.3h-9.3v3.1h9.3v23.1c0.2,3.8-1.5,5.5-5.1,5.3H305v-28.4h9.8v-3.1h-11v26.7c0.2,3.4-1.4,5-4.8,4.8h-7.3v-53.4h43v8.2
			C335,612.4,333.2,614.2,329.2,614.2z M321.3,609.4c1.7,0.2,2.3-0.3,2-1.4v-2h-19.4v3.4H321.3z M325.3,631.3h-10.7v18h7.9
			c1.9,0,2.8-0.7,2.8-2.2c0-0.2,0-0.4,0-0.6V631.3z"/>
	</g>
	<g>
		<g>
			<path class="st10" d="M243.7,186.6h-1.9l2.8-7.3h-2.8v-4.1h4.3l0.9-2.1h11.4l-0.9,2.1h33.7v4.1H256l-1.3,3h36.5v27.9
				c0.3,2.7-1.1,3.9-4.1,3.7h-7.3V204h-24.7v9.9h-11.4V186.6z M255.1,186.6v3h24.7v-3H255.1z M255.1,193.7v6.2h24.7v-6.2H255.1z"/>
			<path class="st10" d="M299.2,213.9v-35.7l-2.4,0.2v-4.1l12.9-1.3v40.8H299.2z M346.2,179.3h-23v6h23v4.1h-23v15.5h23v4.1h-23v4.9
				h-10.3v-34.6H311l1.5-6.2h9.9l-0.4,2.1h24.3V179.3z"/>
			<path class="st10" d="M374.8,173l-0.4,2.1h26.9v35c0.1,2.6-1.2,3.8-4.1,3.7h-18.7v-3.7h9.5c1.9,0.3,2.6-0.4,2.1-2.1v-10.5
				l-16.3-2.8v-4.3l16.3,2.8v-14h-16.8l-9.2,34.6h-12.2l9.7-34.6h-5.6c-2.9,0.1-4.2-1.2-4.1-4.1V173h8.2c-0.3,1.7,0.4,2.4,2.1,2.1
				h0.4l0.4-2.1H374.8z"/>
		</g>
	</g>
	<g>
		<g>
			<path class="st10" d="M325.3,421.8v-4.1h49.4v4.1H325.3z"/>
			<path class="st10" d="M386.1,399h7.5v2.1h6v35.9c0.3,2.1-0.7,3.1-3,2.8h-1.5v-34.6h-1.5v34.6h-7.5v-34.6h-1.5v34.6h-4.5v-38.7h6
				V399z M401.1,427.8V399h28.6v23.8c0.1,3.6-1.4,5.2-4.7,4.9h-12.2l-2.1,12h-9.9l2.1-12H401.1z M410.8,403.1v19.6h6
				c2.3,0.3,3.3-0.6,3-2.6v-17H410.8z M427.8,428.9l1.5,11h-8.2l-1.7-11H427.8z"/>
		</g>
	</g>
	<g>
		<g>
			<path class="st10" d="M57.3,581.1V577h49.4v4.1H57.3z M57.3,594v-4.3h49.4v4.3H57.3z M57.3,617.9v-3.7h49.4v3.7H57.3z"/>
			<path class="st10" d="M120.5,581.1v36.7h-8.2V577h18v4.1l-1.5,6.2h1.5v24.7c0.1,2.9-1.2,4.2-4.1,4.1h-2.8v-28.8H122l1.5-6.2
				H120.5z M161.7,577v37.2c0.1,2.6-1.2,3.8-4.1,3.7h-25.4V577H161.7z M152.5,587.3v-6h-11v6H152.5z M152.5,612.1v-20.6h-11v22.8h9
				C152,614.3,152.6,613.6,152.5,612.1z"/>
			<path class="st10" d="M106.7,643v4.1h-4.3v9.9h4.3v4.3h-4.3v22.6H91v-22.6H72.8v18.9c0.3,2.6-1.1,3.8-4.3,3.7h-7.1v-22.6h-4.3
				V657h4.3v-9.9h-4.3V643H106.7z M91,657v-9.9H72.8v9.9H91z"/>
			<path class="st10" d="M124.5,663.7h-12.2l2.4-3.2h-2.4v-4.3h5.8l1.5-1.7h-7.3v-3.2h9.9l1.5-1.9h-11.4v-4.1h14.6l1.7-2.1h12.5
				l-1.7,2.1h22.3v4.1h-25.6l-1.7,1.9h27.3v3.2h-29.6l-1.5,1.7h31.2v4.3h-2.6l2.6,3.2h-12.5l-2.6-3.2h-19.6L124.5,663.7z
				 M112.3,683.9l5.8-12.2c0.4-0.9,0.6-1.4,0.4-1.5c0-0.1-0.4-0.2-1.1-0.2h-5.2v-4.1h15.5c2.1-0.1,2.6,1.1,1.3,3.7l-7.1,14.4H112.3z
				 M142.2,679.1c0.3,3.4-1.5,5-5.4,4.7h-4.9v-22.3h10.3V679.1z M156.6,669.9c-0.7,0-1.1,0.1-1.1,0.2c-0.1,0.1,0,0.6,0.4,1.5
				l5.8,12.2h-9.9l-7.1-14.4c-1.1-2.6-0.7-3.8,1.3-3.7h15.7v4.1H156.6z"/>
		</g>
	</g>
	<g>
		<g>
			<path class="st10" d="M438.8,615c0.1,1.6-0.1,2.9-0.6,4.1l-6.7,20l5.4,14.8h-6.7l-2.1-5.2l-1.7,5.2h-9l6.2-18l-6.2-17.8h6.7
				l3,7.9l2.8-8.8h-12.5V613h21.5V615z M453.8,628.3l-5.8,25.6h-9.9l7.3-32.9h9.9l-1.3,6.4h7.9l4.1,26.4h-8.2L453.8,628.3z
				 M466.7,615.2v5.4c0.3,3.2-0.9,4.6-3.7,4.3h-5.2v-5.6h-17.6l0.6-6.2h9.9l-0.2,2.1H466.7z"/>
			<path class="st10" d="M472.3,653.9V613h20.8c0.1,3-1.1,4.4-3.7,4.1h-8.2v4.3h12.2v4.1h-0.9v28.4H485v-28.4h-3.7v23.6
				c0.4,3.6-1.2,5.2-4.9,4.7H472.3z M521.7,615.2v6.2c0.3,3.4-0.9,5-3.4,4.7h-4.7v-6.9H494l0.9-6.2h9l-0.2,2.1H521.7z M510.1,621
				l-6.9,32.9H494l6.9-32.9H510.1z M521.7,653.9H514l-5.2-26.4h7.7L521.7,653.9z"/>
		</g>
	</g>
	<g>
		<g>
			<path class="st10" d="M6.9,401V399l-4.1-6h10.1l2.1,3.9l1.9-1.1v4.9l-0.9,0.6v28.8c0,2.1-1.4,3.3-4.3,3.4h-9V430h2.1
				c1.6,0.3,2.2-0.4,1.9-1.9v-13.5l-4.1,2.1v-4.9l4.1-2.4v-3.2l-4.1,2.1v-5.2L6.9,401z M30.3,393h9.9v2.1h12v16.5
				c0,2.9-1.6,4.2-4.7,4.1h-7.3v14.4H43c1.4,0.3,2-0.4,1.7-2.1v-4.3H52v6.4c0.1,2.6-1.2,3.8-4.1,3.7H19.1v-3.7h11.2v-14.4H18.5
				v-20.6h11.8V393z M30.3,411.7v-12.5h-3.4v12.5H30.3z M43.8,399.3h-3.7v12.2h1.5c1.3,0,2-0.1,2.1-0.2c0.1-0.1,0.1-0.7,0-1.7V399.3
				z"/>
		</g>
	</g>
</g>
<g>
</g>
<g>
</g>
<g>
</g>
<g>
</g>
<g>
</g>
<g>
</g>
<g>
</g>
<g>
</g>
<g>
</g>
<g>
</g>
<g>
</g>
<g>
</g>
<g>
</g>
<g>
</g>
<g>
</g>
</svg>
