<?xml version="1.0" encoding="utf-8"?>
<!-- Generator: Adobe Illustrator 17.0.0, SVG Export Plug-In . SVG Version: 6.00 Build 0)  -->
<!DOCTYPE svg PUBLIC "-//W3C//DTD SVG 1.1//EN" "http://www.w3.org/Graphics/SVG/1.1/DTD/svg11.dtd">
<svg version="1.1" id="Layer_1" xmlns="http://www.w3.org/2000/svg" xmlns:xlink="http://www.w3.org/1999/xlink" x="0px" y="0px"
	 width="535.2px" height="315.8px" viewBox="0 0 535.2 315.8" style="enable-background:new 0 0 535.2 315.8;" xml:space="preserve"
	>
<style type="text/css">
	.st0{fill:#FFF8B8;}
</style>
<g id="c-before.svg">
	<path class="st0" d="M131.1,68.5h-13.5V17.7l-2.8,0.3v-5.8l16.2-1.8V68.5z M147.9,10.7c-0.4,2.2,0.6,3.2,3.1,2.8h34.3v5.8l-1.2,2.8
		h-13.2l1.5-2.8H140c-4.1,0.2-6-1.7-5.8-5.8v-3.1h13.8V10.7z M146.7,22l-1.2,46.5h-11l1.2-46.5H146.7z M167.2,63.3
		c0.4,3.7-1.5,5.4-5.8,5.2h-8.6V22h14.4V63.3z M173.3,25.1h11l0.9,43.5c-8,0.8-11.6-1.9-11-8.3L173.3,25.1z"/>
	<path class="st0" d="M230,63.3c0.4,3.9-1.5,5.6-5.8,5.2h-30.9V13.2l0.9-2.8h13.2l-1.2,2.8H230V63.3z M216.8,30.9V19.3h-10.4v11.6
		H216.8z M216.8,60.3V36.7h-10.4v26.6h8C216.4,63.8,217.2,62.7,216.8,60.3z M242.2,22l5.2,46.2H237L232.1,22H242.2z M245.3,11.3
		c-0.4,1.4,0.6,2,3.1,1.8h15.3v50.2c0.2,3.7-1.7,5.4-5.8,5.2h-7.3V19.3h-13.2c-4.3,0.8-5.8-1.1-4.6-5.8l0.3-3.1h12.5L245.3,11.3z"/>
	<path class="st0" d="M309.5,68.5l-18.7-5.8l-19.3,5.8v-5.8l9.8-3.4l-2.8-0.9c-3.7-1-5.2-3.3-4.6-6.7v-8.6h-2.4v-6.4h2.4v-2.4h11.6
		v2.4h10.7v-2.4H308v2.4h1.5v6.4H308V52c0.6,3.7-0.8,5.7-4.3,6.1l-3.7,1.2l9.5,3.4V68.5z M291.2,32.1h-5.8V18.4h-12.5v-5.2h0.3
		l-0.3-2.8h8.6l0.6,2.8h3.4v-2.8h11.9v2.8h2.8l0.6-2.8h8.9l-0.6,2.8h0.6v5.2h-12.2v8.6C297.7,30.8,295.6,32.5,291.2,32.1z
		 M282.3,32.1h-9.5l1.5-12.9h9.5L282.3,32.1z M285.6,51.7c-0.4,2,0.3,3.2,2.1,3.4l3.1,1.2l3.1-1.2c1.8-0.2,2.6-1.3,2.4-3.4v-8.6
		h-10.7V51.7z M309.5,32.1H300l-1.8-12.9h9.5L309.5,32.1z M323,68.5h-12.2l4.9-31.2l-4-14.4h11.9l2.8,9.8l3.1-11.9
		c0.6-1,0.2-1.5-1.2-1.5h-11.3c-4.3,0.4-6.3-1.5-6.1-5.8v-3.1h14.1c-0.4,2.4,0.3,3.5,2.1,3.1h15v2.1c0.2,2.7-0.1,5-0.9,7l-4,14.7
		l4.9,31.2h-12.2l-3.4-22.9L323,68.5z"/>
	<path class="st0" d="M365.2,19.3V22h-15.6v-8.6H375l-0.6-3.1h17.7l0.6,3.1h27.5V22h-15.6v-2.8H365.2z M384.8,60.6v-15h-35.2v-5.8
		h35.2V34l6.4-3.1h-41.6v-5.8h70.7v7.6L402.2,37v2.8h18.1v5.8h-18.1v17.7c0.4,3.9-1.4,5.6-5.5,5.2h-35.2v-5.2h21.1
		C384.5,63.8,385.2,62.8,384.8,60.6z"/>
	<path class="st0" d="M176.4,165.2v-11.3c1.2-7.1,4.8-11.3,10.7-12.5v4.9c-2.2,1-3.6,2.6-4,4.6v2.1h4.9v12.2H176.4z M194.4,165.2
		v-11.3c0.6-6.7,4.2-10.9,10.7-12.5v4.9c-1,0.6-1.8,1.2-2.4,1.8c0,0.2-0.2,0.4-0.6,0.6c-0.6,1-0.9,1.7-0.9,2.1v2.1h4.9v12.2H194.4z"
		/>
	<path class="st0" d="M218.6,142.2v-8.9h-2.2v-7.6H256l-1.3-4.5h23.1l1.3,4.5h39.6v7.6H240v3.1h78.8v5.8H218.6z M318.8,152.9
		c0.3,4.2-1.9,6.1-6.7,5.8h-95.7v-14.2h102.4V152.9z M228.9,201.8c0.6,3.3-1.2,4.6-5.3,4h-7.1v-45.4h36.5V200
		c0.3,4.5-1.9,6.4-6.7,5.8H240v-14.2h-11.1V201.8z M228.9,168.4v4H240v-4H228.9z M228.9,179.6v5.3H240v-5.3H228.9z M297.4,151.1
		v-1.3h-59.6v2.7h57.9C297.1,152.7,297.7,152.3,297.4,151.1z M266.7,205.8h-11.6l2.7-6.7h-2.7v-38.7h28.9v30.7
		c0.3,5.6-2.2,8.3-7.6,8h-4v-30.7h-5.8v26.7h3.6L266.7,205.8z M270.7,200.5h11.6l1.8,5.3h-11.6L270.7,200.5z M318.8,160.4v45.4H313
		c-3.9,0.6-5.5-0.9-4.9-4.5v-16.9l-5.3-1.3v-7.6l5.3,0.9v-8h-7.6v32.9c0.3,3.6-1.3,5-4.9,4.5h-8v-45.4H318.8z"/>
	<path class="st0" d="M341.1,141.3v11.3c-0.6,7.3-4.2,11.5-10.7,12.5v-4.9c2.2-0.4,3.6-1.9,4-4.6v-2.1h-4.9v-12.2H341.1z
		 M358.8,141.3v11.3c-0.6,7.1-4.2,11.3-10.7,12.5v-4.9c1-0.4,1.8-1,2.4-1.8c1-1,1.5-1.9,1.5-2.8v-2.1h-4.9v-12.2H358.8z"/>
	<path class="st0" d="M92.7,244.2v5.8H69.2l0.9-8.9h13.8l-0.6,3.1H92.7z M71.9,294.1v-23.6h-2.8v-5.8h2.8v-6.1h-2.8v-5.8h23.6v5.8
		H86v6.1h6.7v5.8H86V291c-0.4,2.4,0.6,3.5,3.1,3.1h3.7v5.2h-15C73.4,299.7,71.5,298,71.9,294.1z M124.8,241.1v8.9h14.7v44.1
		c0.2,3.7-1.6,5.4-5.5,5.2h-8.6v-17.1h-16.5v17.1H94.9V250h14.7v-8.9H124.8z M97,248.5l-2.1-7.3h11l2.1,7.3H97z M125.5,255.8h-16.5
		v5.8h16.5V255.8z M125.5,276.3v-8.9h-16.5v8.9H125.5z M126.4,248.5l2.1-7.3h11l-2.1,7.3H126.4z"/>
	<path class="st0" d="M157.3,299.3h-9.8l1.8-11h-1.8v-47.1h26.3v41.3c0.4,4.3-1.5,6.2-5.8,5.8h-4.6V247h-5.8v39.8h2.1L157.3,299.3z
		 M161.6,289.8h10.1l2.1,9.5h-10.1L161.6,289.8z M214.8,241.1v3.1h3.1v5.8h-3.1v44.1c0.4,3.9-1.6,5.6-6.1,5.2h-9.5V250h-3.4l-7,49.3
		h-12.9l7-49.3h-7.6v-5.8h23.9v-3.1H214.8z"/>
	<path class="st0" d="M228.6,250h-2.8v-5.8h3.1l-1.8-3.1h13.5l1.5,3.1v42.5c-0.4,4.1-2.8,6.5-7,7.3h61.2c-0.6,3.5-2.7,5.2-6.1,5.2
		h-61.5V250z M243.3,247v-5.8h52.9v5.8H243.3z M246.3,292.5c-2.7,0.2-3.6-0.9-2.8-3.4l10.1-31.8h-10.4v-5.8h52.9v5.8h-26.9
		l-8.6,27.5c-0.6,1.2,0,1.8,1.8,1.8H280c0.6,0,0.9-0.1,0.9-0.3c0.2,0,0.2-0.3,0-0.9l-1.8-7.7h13.8l3.1,11.9c1,2,0.1,3-2.8,2.8H246.3
		z"/>
	<path class="st0" d="M348.2,291v6.1l-44.1,2.1v-5.2l13.8-0.9v-18.7h-13.8v-6.1h13.8v-6.7h-13.8l4.6-14.7h-4.6v-5.8h44.1v5.8h-24.8
		l-3.1,8.9h15l-1.2-6.1h11.9l2.1,11.9h-14.1v6.7h14.1v6.1h-14.1v17.4L348.2,291z M358.9,297.1h-8.6v-56h8.6V297.1z M361.4,299.3
		v-58.1h13.2v52.9c0.4,3.9-1.5,5.6-5.8,5.2H361.4z"/>
	<path class="st0" d="M382.5,247v-5.8h70.4v5.8l-13.2,5.8v41.3c0.2,3.7-1.7,5.4-5.8,5.2H403v-5.2h15.6c3.1,0.4,4.3-0.6,3.7-3.1
		v-38.2l12.5-5.8H382.5z"/>
	<path class="st0" d="M479.8,244.5v19.6l-1.8,20.2h-3.1l-1.8-20.2v-19.6H479.8z M479.8,291v7h-6.7v-7H479.8z"/>
</g>
<g>
</g>
<g>
</g>
<g>
</g>
<g>
</g>
<g>
</g>
<g>
</g>
<g>
</g>
<g>
</g>
<g>
</g>
<g>
</g>
<g>
</g>
<g>
</g>
<g>
</g>
<g>
</g>
<g>
</g>
</svg>
