<?xml version="1.0" encoding="utf-8"?>
<!-- Generator: Adobe Illustrator 17.0.0, SVG Export Plug-In . SVG Version: 6.00 Build 0)  -->
<!DOCTYPE svg PUBLIC "-//W3C//DTD SVG 1.1//EN" "http://www.w3.org/Graphics/SVG/1.1/DTD/svg11.dtd">
<svg version="1.1" id="Layer_1" xmlns="http://www.w3.org/2000/svg" xmlns:xlink="http://www.w3.org/1999/xlink" x="0px" y="0px"
	 width="522.9px" height="332.1px" viewBox="0 0 522.9 332.1" style="enable-background:new 0 0 522.9 332.1;" xml:space="preserve"
	>
<style type="text/css">
	.st0{fill:#FFF8B8;}
</style>
<g id="c-before.svg">
	<path class="st0" d="M116.7,77.7V43.3h-9.9c5.5-13.2,9.6-26.5,12.4-39.7h12.1c-1.4,7.1-3.2,14.1-5.3,20.8h2.7v53.3H116.7z
		 M132.9,74.7c1.5-11,2.5-26.6,2.8-37.4h10.3c-0.2,11.3-1.2,26.6-2.9,37.4H132.9z M166.2,32.4c1.2-4.8,2.1-9.8,2.7-14.8
		c0.1-0.2,0-0.4-0.2-0.5c-0.2-0.2-0.3-0.3-0.5-0.3h-19.7c-0.6,5.4-1.5,10.7-2.7,15.7h-11.8c2.3-9.2,3.4-19.3,3.8-28.8h11.9
		c-0.2,2.9-0.4,5.8-0.7,8.7h29.9c0.5,0,1.2,0.3,1.6,0.8c0.5,0.5,0.6,1.1,0.5,1.7c-0.6,6-1.6,12.1-2.9,17.6H166.2z M145.5,73.2h2.5
		c1.6,0,3-1.3,3-3V30.5h11.9v42c0,2.8-2.3,5.2-5.2,5.2h-12.2V73.2z M170.5,75.5c-1.8-10.7-2.7-26.9-2.8-38.2h10.3
		c0.4,10.8,1.3,27,2.8,38.2H170.5z"/>
	<path class="st0" d="M185.9,18c0-2.9,2.4-5.2,5.2-5.2h5.5l2.7-9.6h11.9l-2.7,9.6h5.5c3,0,5.2,2.3,5.2,5.2v54.4
		c0,2.8-2.3,5.2-5.2,5.2h-22.9c-2.8,0-5.2-2.4-5.2-5.2V18z M208.3,18.8c0-0.9-0.6-1.5-1.5-1.5h-8.3c-0.8,0-1.5,0.6-1.5,1.5v24.3
		h11.3V18.8z M206.8,73.1c0.9,0,1.5-0.6,1.5-1.5v-24H197v24c0,0.9,0.7,1.5,1.5,1.5H206.8z M220.8,31c3.3-8.7,5.2-18.1,6.2-27.7h11.4
		c-0.4,3.2-0.9,6.4-1.5,9.6h16.5c2.9,0,5.2,2.3,5.2,5.2v54.4c0,2.8-2.4,5.2-5.2,5.2h-20.1v-4.5h10.4c1.6,0,3-1.3,3-3V20.3
		c0-1.6-1.4-3-3-3H236c-1,4.7-2.3,9.2-3.8,13.7H220.8z M230.4,62.7c-3-9-4.9-18.5-6-28H235c1.1,9.6,3.1,19,6.1,28H230.4z"/>
	<path class="st0" d="M292.4,39.3c-1.8-4.6-2.9-10.2-3.8-15.8h-0.9v15.8h-11V23.5h-1c-0.9,5.6-2,11.2-3.8,15.8h-8.3
		c1.7-5,3.1-10.3,4-15.8h-4V19h13.1V3.2h11V19h13.1v4.5h-4c0.9,5.5,2.3,10.8,4,15.8H292.4z M263.5,49.9v-4.5h3.5V41h10.3v4.4h23.4
		v4.5h-3.8c-0.8,5.8-3,11.1-6.5,15.5c3.5,1.4,7.2,2.3,10.3,2.9v9.5c-7.4-0.5-13.6-2.4-18.6-5.3c-5,3-11.3,4.9-18.6,5.3v-9.5
		c3-0.6,6.7-1.4,10.3-2.9c-3.5-4.4-5.7-9.6-6.5-15.5H263.5z M265.8,17.4l-1.6-13.3h8.9l1.5,13.3H265.8z M286.5,49.9h-8.9
		c0.7,4.2,2.3,7.4,4.5,9.8C284.2,57.3,285.8,54.1,286.5,49.9z M289.6,17.4l1.4-13.3h8.9l-1.6,13.3H289.6z M318.3,3.2
		c-0.5,3.8-1.1,7.6-1.7,11.3h21.2V19h-3.2c-2.1,12.8-5.1,24.4-8.7,34.5c3.3,8.5,7.3,16.7,11.8,24.4h-11.2c-2-3.6-4-7.4-5.8-11.4
		c-1.9,4.1-3.9,7.9-6,11.4h-11.8c5-8.1,9.2-16.3,12.5-24.7c-1.6-4.5-3.1-9.2-4.4-13.9c-0.4,1.3-0.7,2.5-1.1,3.7h-10
		c4.1-12.8,7-26.2,8.7-39.7H318.3z M316.1,19c1.1,6.3,2.6,12.6,4.5,18.9c1.7-6.2,3.1-12.5,4.2-18.9H316.1z"/>
	<path class="st0" d="M341.9,25.8v-8.8c0-2.9,2.3-5.2,5.2-5.2H373V3.6h11.9v8.2h25.9c2.8,0,5.2,2.3,5.2,5.2v8.8h-11.9v-6.6
		c0-1.6-1.3-3-3-3h-44.3c-1.6,0-3,1.3-3,3v6.6H341.9z M341.9,49.7h31v-0.4c0-1.8,1.2-2.6,1.8-3.1l18.1-13c0.2-0.2,0.3-0.5,0.2-0.8
		c-0.1-0.3-0.4-0.5-0.7-0.5h-43.5v-4.5h56.6c1.5,0,2.8,0.9,3.4,2.3c0.5,1.3,0.4,3-0.8,4.1L386,49.7h30v4.5h-31.2v18.4
		c0,2.9-2.3,5.2-5.2,5.2h-17.8v-4.5h8.1c1.6,0,3-1.3,3-3V54.1h-31V49.7z"/>
	<path class="st0" d="M165.2,167l7.8-19.9h12.5l-7.8,19.9H165.2z M180.1,167l7.8-19.9h12.5l-7.8,19.9H180.1z"/>
	<path class="st0" d="M241.6,171.6v41.6c0,3-2.5,5.4-5.4,5.4h-11.4V212h2.1c1.1,0,2.2-0.9,2.2-2.2v-7.2h-7.4v8.4
		c0,2.4-0.7,5.2-1.5,7.4h-12.8c0.9-2.4,1.5-5,1.5-7.4v-39.5c0-3.1,2.4-5.5,5.5-5.5h21.9C239.1,166.1,241.6,168.5,241.6,171.6z
		 M207.7,123.2h5.6v9.1c0,3,2.5,5.4,5.5,5.4h91v-6.5h-77c-1.1,0-2.2-0.9-2.2-2.2v-5.8h84.9v-6.5h-45.2v-6.2h-17.3v6.2h-45.2V123.2z
		 M217,141.4c-2.8,0-5.4,2.5-5.4,5.4v10.1c0,3,2.5,5.4,5.4,5.4h89c3,0,5.5-2.4,5.5-5.4v-10.1c0-2.8-2.5-5.4-5.5-5.4H217z
		 M229.1,174.8c0-1.1-1-2.2-2.2-2.2h-3.1c-1.1,0-2.2,1-2.2,2.2v6h7.4V174.8z M221.7,196.2h7.4v-8.9h-7.4V196.2z M292,147.9
		c1.1,0,2.2,0.9,2.2,2.2v3.5c0,1.3-1,2.2-2.2,2.2h-60.8c-1.1,0-2.2-0.9-2.2-2.2v-3.5c0-1.3,1-2.2,2.2-2.2H292z M257,218.5
		c1.6-1.8,2.8-4.1,3.9-6.5c1,2.4,2.3,4.7,3.9,6.5h13.4c-3.8-4.3-6.5-10.5-7.5-16.5h7.5v-30.4c0-3.1-2.4-5.5-5.4-5.5H249
		c-3,0-5.5,2.4-5.5,5.5V202h7.6c-1,6-3.9,12.2-7.6,16.5H257z M255.5,174.8c0-1.1,0.9-2.2,2.2-2.2h6.5c1.1,0,2.2,1,2.2,2.2v24.8h-2.7
		c0.1-0.6,0.1-1.1,0.1-1.7v-19.3h-8.2V174.8z M313.1,171.6c0-3.1-2.5-5.5-5.4-5.5h-22.1c-3.1,0-5.5,2.4-5.5,5.5v39.5
		c0,2.4-0.3,5-1.3,7.4h12.5c0.8-2.2,1.4-5,1.4-7.4v-36.3c0-1.1,0.9-2.2,2.2-2.2h3.4c1.1,0,2.2,1,2.2,2.2v38.4c0,3,2.4,5.4,5.4,5.4
		h9.6V212h-1.3c-0.7,0-1.1-0.5-1.1-1V171.6z M299.7,208.2l-1-26.3h-5.2l1.1,26.3H299.7z"/>
	<path class="st0" d="M322.8,167l7.8-19.9h12.5l-7.8,19.9H322.8z M337.7,167l7.8-19.9H358l-7.8,19.9H337.7z"/>
	<path class="st0" d="M54.9,260.6c2.6-8.5,4.2-17.3,5.1-26.6h11.8c-0.5,3.8-0.9,7.4-1.6,10.9h9.9v4.5H69.4
		c-0.8,3.9-1.7,7.7-2.7,11.3H54.9z M80.2,308.4H67.3c-2.9,0-5.2-2.3-5.2-5.2v-16.8h-6.6V282h6.6v-14.4h-6.6V263h24.7v4.5h-6.3V282
		h6.3v4.5h-6.3v14.5c0,1.7,1.3,3.1,3,3.1h3.4V308.4z M86.5,252.9l-2.1-17.2h11.8l2.1,17.2H86.5z M84.4,308.2v-46.9
		c0-2.8,2.4-5.2,5.3-5.2h11v-22.1h12.1V256h11c2.9,0,5.2,2.4,5.2,5.2V303c0,2.8-2.3,5.2-5.2,5.2h-12.5v-4.5h2.6c1.6,0,3-1.3,3-3
		v-8.2H96.6v15.7H84.4z M117,263.6c0-1.7-1.3-3.1-3-3.1H99.3c-1.6,0-2.7,1.3-2.7,3.1v8.8H117V263.6z M96.6,288.2H117v-11.4H96.6
		V288.2z M115.4,252.9l2-17.2h11.8l-2,17.2H115.4z"/>
	<path class="st0" d="M133.2,283.6v-41.8c0-3,2.5-5.3,5.7-5.3h22.5c3.2,0,5.8,2.4,5.8,5.3v41.8h-9.4v-40.3c0-1.3-1.1-2.3-2.4-2.3
		H145c-1.4,0-2.5,1.1-2.5,2.3v40.3H133.2z M155.6,308.5l-3.8-12.5c-1.6,4.6-3.6,8.6-6,12.5h-12c7.8-12.5,11-20.8,11-36.3v-24.6h10.6
		V269c0,6.8-0.5,12.5-1.3,17.5h5.3l6.6,22H155.6z M184.3,304.1h4.6c1.5,0,2.8-1.3,2.8-3.1v-50.1h-4.5c-1.3,20.4-3.8,41.9-7.5,57.6
		h-11.5c4.5-16.8,6.7-35.7,8.1-57.6h-7.3v-4.5h22.6v-12.5h10.9v12.5h4.9v4.5h-4.9v52.4c0,2.9-2.2,5.2-4.9,5.2h-13.4V304.1z"/>
	<path class="st0" d="M215.4,248.4l-3.8-13.9h12.2l3.8,13.9H215.4z M228.9,294.4c1.6,5.2,5.6,9.4,13.6,9.4h43.2v4.5H242
		c-8.3,0-12.1-3.3-14.1-6.3c-0.7,2.4-1.7,4.5-2.9,6.3h-12.9c3-4.7,4.9-10,4.9-16.3v-31.7c0-1.6-1.3-3-3-3h-2.3v-4.5h12.1
		c2.9,0,5.2,2.4,5.2,5.2V294.4z M233.7,258.1h51.9v4.4h-29l-9.5,28.7c-0.2,0.4-0.1,0.9,0.2,1.3s0.7,0.5,1.2,0.5h22.9
		c0.5,0,0.9-0.2,1.3-0.5s0.4-0.9,0.2-1.3l-6.3-18.9h11.9l6.7,19.3c0.5,1.4,0.2,2.8-0.6,4.1c-0.8,1.2-2.1,1.8-3.6,1.8h-42.3
		c-1.5,0-2.7-0.6-3.7-1.8c-0.8-1.3-1-2.7-0.5-4.1l9.9-29.1h-10.5V258.1z M236.2,237.7h47v4.4h-47V237.7z"/>
	<path class="st0" d="M317.3,263.9c0.5,0,0.9-0.2,1.3-0.7c0.2-0.4,0.2-0.9,0.1-1.4l-5-12.5h12.7l5.6,13.8c0.4,1.3,0.3,2.6-0.3,3.7
		c-0.8,1-1.8,1.7-3.2,1.7h-10.9v14.4H331v4.6h-13.4v15.8h15.2v4.6h-42.4v-4.6h15.1v-15.8h-13.3v-4.6h13.3v-14.4h-10.8
		c-1.3,0-2.5-0.7-3.1-1.7c-0.8-1.1-0.9-2.4-0.3-3.7l9.2-22.2h-10.1v-4.5h42.4v4.5h-19.6l-8.7,20.9c-0.2,0.5-0.2,1,0.2,1.4
		c0.3,0.5,0.8,0.7,1.3,0.7H317.3z M336.1,298.8v-58h11.7v58H336.1z M343.3,308.4h15.3c2.9,0,5.1-2.3,5.1-5.2v-69H352v66.7
		c0,1.7-1.3,3.1-2.9,3.1h-5.8V308.4z"/>
	<path class="st0" d="M409.1,303c0,3-2.4,5.2-5.2,5.2h-18.7v-4.5h9c1.6,0,3-1.3,3-3v-38.8c0-2.3,1.1-4.3,3-5.6l24.3-15.4h-52.3v-4.5
		H434c1.9,0,3.6,1.2,4.2,3.1c0.6,2,0,3.9-1.6,5l-25.1,17.2c-1.5,0.9-2.3,2.5-2.3,4.2V303z"/>
	<path class="st0" d="M451.1,286.4v-52h12.1v52H451.1z M451.1,308.5v-17h12.1v17H451.1z"/>
</g>
<g>
</g>
<g>
</g>
<g>
</g>
<g>
</g>
<g>
</g>
<g>
</g>
<g>
</g>
<g>
</g>
<g>
</g>
<g>
</g>
<g>
</g>
<g>
</g>
<g>
</g>
<g>
</g>
<g>
</g>
</svg>
