<?xml version="1.0" encoding="utf-8"?>
<!-- Generator: Adobe Illustrator 17.0.0, SVG Export Plug-In . SVG Version: 6.00 Build 0)  -->
<!DOCTYPE svg PUBLIC "-//W3C//DTD SVG 1.1//EN" "http://www.w3.org/Graphics/SVG/1.1/DTD/svg11.dtd">
<svg version="1.1" id="Layer_1" xmlns="http://www.w3.org/2000/svg" xmlns:xlink="http://www.w3.org/1999/xlink" x="0px" y="0px"
	 width="30px" height="30px" viewBox="0 0 30 30" style="enable-background:new 0 0 30 30;" xml:space="preserve">
<style type="text/css">
	.st0{fill:url(#SVGID_1_);}
	.st1{fill:url(#SVGID_2_);}
	.st2{fill:#FFF171;}
	.st3{fill:url(#SVGID_3_);}
	.st4{fill:#FAC900;}
	.st5{fill:url(#SVGID_4_);}
	.st6{fill:url(#SVGID_5_);}
</style>
<g id="coin-symble-1.svg">
	<g>
		<linearGradient id="SVGID_1_" gradientUnits="userSpaceOnUse" x1="14.999" y1="24.8213" x2="14.999" y2="3.2343">
			<stop  offset="0" style="stop-color:#FAC900"/>
			<stop  offset="1" style="stop-color:#FFCC00"/>
		</linearGradient>
		<circle class="st0" cx="15" cy="15" r="15"/>
		<linearGradient id="SVGID_2_" gradientUnits="userSpaceOnUse" x1="0.4375" y1="15.0007" x2="29.5586" y2="15.0007">
			<stop  offset="0" style="stop-color:#F7DD00"/>
			<stop  offset="1" style="stop-color:#FFF8B8"/>
		</linearGradient>
		<circle class="st1" cx="15" cy="15" r="14.6"/>
		<circle class="st2" cx="15" cy="15" r="13.1"/>
		<linearGradient id="SVGID_3_" gradientUnits="userSpaceOnUse" x1="14.988" y1="15.0013" x2="-4.4756" y2="15.5867">
			<stop  offset="0" style="stop-color:#F7DD00"/>
			<stop  offset="1" style="stop-color:#FFF8B8"/>
		</linearGradient>
		<path class="st3" d="M15.9,28.8C8.3,28.8,2.1,22.6,2.1,15c0-7.6,6.2-13.8,13.8-13.8c1.7,0,3.3,0.3,4.7,0.8C18.9,1.2,17,0.8,15,0.8
			C7.2,0.8,0.8,7.2,0.8,15c0,7.8,6.4,14.2,14.2,14.2c2,0,3.9-0.4,5.7-1.2C19.2,28.6,17.6,28.8,15.9,28.8z"/>
		<circle class="st4" cx="15" cy="15" r="12.7"/>
		<linearGradient id="SVGID_4_" gradientUnits="userSpaceOnUse" x1="24.7657" y1="14.1323" x2="-8.9687" y2="17.1326">
			<stop  offset="0" style="stop-color:#FAC900"/>
			<stop  offset="1" style="stop-color:#BA963A"/>
		</linearGradient>
		<circle class="st5" cx="15" cy="15" r="12.7"/>
		<linearGradient id="SVGID_5_" gradientUnits="userSpaceOnUse" x1="17.5171" y1="16.4363" x2="2.3695" y2="7.8015">
			<stop  offset="0" style="stop-color:#DEB000"/>
			<stop  offset="1" style="stop-color:#A88236"/>
		</linearGradient>
		<path class="st6" d="M15,2.3C8,2.3,2.3,8,2.3,15c0,7,5.6,12.6,12.5,12.7C8,27.6,2.5,22.1,2.5,15.2C2.5,8.4,8.1,2.8,15,2.8
			c6.9,0,12.5,5.6,12.5,12.5c0,6.8-5.5,12.4-12.3,12.4C22.1,27.6,27.7,22,27.7,15C27.7,8,22,2.3,15,2.3z"/>
	</g>
</g>
<g>
</g>
<g>
</g>
<g>
</g>
<g>
</g>
<g>
</g>
<g>
</g>
<g>
</g>
<g>
</g>
<g>
</g>
<g>
</g>
<g>
</g>
<g>
</g>
<g>
</g>
<g>
</g>
<g>
</g>
</svg>
