<?xml version="1.0" encoding="utf-8"?>
<!-- Generator: Adobe Illustrator 17.0.0, SVG Export Plug-In . SVG Version: 6.00 Build 0)  -->
<!DOCTYPE svg PUBLIC "-//W3C//DTD SVG 1.1//EN" "http://www.w3.org/Graphics/SVG/1.1/DTD/svg11.dtd">
<svg version="1.1" id="Layer_1" xmlns="http://www.w3.org/2000/svg" xmlns:xlink="http://www.w3.org/1999/xlink" x="0px" y="0px"
	 width="640px" height="645.6px" viewBox="0 0 640 645.6" style="enable-background:new 0 0 640 645.6;" xml:space="preserve">
<style type="text/css">
	.st0{fill:url(#SVGID_1_);}
	.st1{fill:url(#SVGID_2_);}
	.st2{fill:#FFF171;}
	.st3{fill:url(#SVGID_3_);}
	.st4{fill:#FAC900;}
	.st5{fill:url(#SVGID_4_);}
	.st6{fill:url(#SVGID_5_);}
	.st7{fill:url(#SVGID_6_);}
	.st8{fill:#EC1C24;}
	.st9{fill:url(#SVGID_7_);}
	.st10{fill:url(#SVGID_8_);}
	.st11{fill:url(#SVGID_9_);}
	.st12{fill:url(#SVGID_10_);}
	.st13{fill:url(#SVGID_11_);}
	.st14{fill:url(#SVGID_12_);}
	.st15{fill:url(#SVGID_13_);}
	.st16{fill:url(#SVGID_14_);}
	.st17{fill:url(#SVGID_15_);}
	.st18{fill:url(#SVGID_16_);}
	.st19{fill:url(#SVGID_17_);}
	.st20{fill:url(#SVGID_18_);}
	.st21{fill:url(#SVGID_19_);}
	.st22{fill:url(#SVGID_20_);}
	.st23{fill:url(#SVGID_21_);}
	.st24{fill:url(#SVGID_22_);}
	.st25{fill:url(#SVGID_23_);}
	.st26{fill:url(#SVGID_24_);}
	.st27{fill:url(#SVGID_25_);}
	.st28{fill:url(#SVGID_26_);}
	.st29{fill:url(#SVGID_27_);}
	.st30{fill:url(#SVGID_28_);}
	.st31{fill:url(#SVGID_29_);}
	.st32{fill:url(#SVGID_30_);}
	.st33{fill:url(#SVGID_31_);}
	.st34{fill:url(#SVGID_32_);}
	.st35{fill:url(#SVGID_33_);}
	.st36{fill:url(#SVGID_34_);}
	.st37{fill:url(#SVGID_35_);}
	.st38{fill:url(#SVGID_36_);}
	.st39{fill:url(#SVGID_37_);}
	.st40{fill:url(#SVGID_38_);}
	.st41{fill:url(#SVGID_39_);}
	.st42{fill:url(#SVGID_40_);}
	.st43{fill:url(#SVGID_41_);}
	.st44{fill:url(#SVGID_42_);}
	.st45{fill:url(#SVGID_43_);}
	.st46{fill:url(#SVGID_44_);}
	.st47{fill:url(#SVGID_45_);}
	.st48{fill:url(#SVGID_46_);}
	.st49{fill:url(#SVGID_47_);}
	.st50{fill:url(#SVGID_48_);}
	.st51{fill-rule:evenodd;clip-rule:evenodd;fill:url(#SVGID_49_);}
	.st52{fill:url(#SVGID_50_);}
	.st53{fill:url(#SVGID_51_);}
	.st54{fill:url(#SVGID_52_);}
	.st55{fill:url(#SVGID_53_);}
	.st56{fill:url(#SVGID_54_);}
	.st57{fill:url(#SVGID_55_);}
	.st58{fill:url(#SVGID_56_);}
	.st59{fill:url(#SVGID_57_);}
	.st60{fill:url(#SVGID_58_);}
	.st61{fill:url(#SVGID_59_);}
	.st62{fill:url(#SVGID_60_);}
	.st63{fill:url(#SVGID_61_);}
	.st64{fill:url(#SVGID_62_);}
	.st65{fill:url(#SVGID_63_);}
	.st66{fill:url(#SVGID_64_);}
	.st67{fill:url(#SVGID_65_);}
	.st68{fill:url(#SVGID_66_);}
	.st69{fill:url(#SVGID_67_);}
	.st70{fill:url(#SVGID_68_);}
	.st71{fill:url(#SVGID_69_);}
	.st72{fill:url(#SVGID_70_);}
	.st73{fill:url(#SVGID_71_);}
	.st74{fill:url(#SVGID_72_);}
	.st75{fill:url(#SVGID_73_);}
	.st76{fill:url(#SVGID_74_);}
	.st77{fill:url(#SVGID_75_);}
	.st78{fill:url(#SVGID_76_);}
	.st79{fill:url(#SVGID_77_);}
	.st80{fill:url(#SVGID_78_);}
	.st81{fill:url(#SVGID_79_);}
	.st82{fill:url(#SVGID_80_);}
	.st83{fill:url(#SVGID_81_);}
	.st84{fill:url(#SVGID_82_);}
	.st85{fill:url(#SVGID_83_);}
	.st86{fill:url(#SVGID_84_);}
	.st87{fill:url(#SVGID_85_);}
	.st88{fill:url(#SVGID_86_);}
	.st89{fill:url(#SVGID_87_);}
	.st90{fill:url(#SVGID_88_);}
	.st91{fill:url(#SVGID_89_);}
	.st92{fill:url(#SVGID_90_);}
	.st93{fill:url(#SVGID_91_);}
	.st94{fill:url(#SVGID_92_);}
	.st95{fill:url(#SVGID_93_);}
	.st96{fill:url(#SVGID_94_);}
	.st97{fill:url(#SVGID_95_);}
	.st98{fill:url(#SVGID_96_);}
	.st99{fill:url(#SVGID_97_);}
	.st100{fill:url(#SVGID_98_);}
	.st101{fill:url(#SVGID_99_);}
	.st102{fill:url(#SVGID_100_);}
	.st103{fill:url(#SVGID_101_);}
	.st104{fill:url(#SVGID_102_);}
	.st105{fill:url(#SVGID_103_);}
	.st106{fill:none;}
</style>
<g id="coin-b.svg">
	<g>
		<g>
			<linearGradient id="SVGID_1_" gradientUnits="userSpaceOnUse" x1="135" y1="319.287" x2="135" y2="232.9374">
				<stop  offset="0" style="stop-color:#FAC900"/>
				<stop  offset="1" style="stop-color:#FFCC00"/>
			</linearGradient>
			<circle class="st0" cx="135" cy="280" r="60"/>
			<linearGradient id="SVGID_2_" gradientUnits="userSpaceOnUse" x1="76.7559" y1="280.0002" x2="193.2422" y2="280.0002">
				<stop  offset="0" style="stop-color:#F7DD00"/>
				<stop  offset="1" style="stop-color:#FFF8B8"/>
			</linearGradient>
			<circle class="st1" cx="135" cy="280" r="58.2"/>
			<circle class="st2" cx="135" cy="280" r="52.4"/>
			<linearGradient id="SVGID_3_" gradientUnits="userSpaceOnUse" x1="134.9573" y1="280.0022" x2="57.0954" y2="282.344">
				<stop  offset="0" style="stop-color:#F7DD00"/>
				<stop  offset="1" style="stop-color:#FFF8B8"/>
			</linearGradient>
			<path class="st3" d="M138.7,335.4c-30.6,0-55.4-24.8-55.4-55.4c0-30.6,24.8-55.4,55.4-55.4c6.7,0,13.1,1.2,19,3.3
				c-7-3-14.6-4.7-22.7-4.7c-31.4,0-56.8,25.4-56.8,56.8c0,31.4,25.4,56.8,56.8,56.8c8.1,0,15.8-1.7,22.7-4.7
				C151.8,334.2,145.4,335.4,138.7,335.4z"/>
			<circle class="st4" cx="135" cy="280" r="50.7"/>
			<linearGradient id="SVGID_4_" gradientUnits="userSpaceOnUse" x1="174.0661" y1="276.5264" x2="39.1262" y2="288.5276">
				<stop  offset="0" style="stop-color:#FAC900"/>
				<stop  offset="1" style="stop-color:#BA963A"/>
			</linearGradient>
			<circle class="st5" cx="135" cy="280" r="50.7"/>
			<linearGradient id="SVGID_5_" gradientUnits="userSpaceOnUse" x1="147.134" y1="323.7064" x2="128.3822" y2="265.4677">
				<stop  offset="0" style="stop-color:#FAC900"/>
				<stop  offset="1" style="stop-color:#BA963A"/>
			</linearGradient>
			<path class="st6" d="M161.8,301.4c-19.8-2.5-47.8-56.1-77.3-25.5c-0.1,1.4-0.2,2.8-0.2,4.2c0,28,22.7,50.7,50.7,50.7
				c26.8,0,48.7-20.8,50.6-47.1C183.4,290.4,177,303.3,161.8,301.4z"/>
			<linearGradient id="SVGID_6_" gradientUnits="userSpaceOnUse" x1="145.0721" y1="285.7428" x2="84.4809" y2="251.2029">
				<stop  offset="0" style="stop-color:#DEB000"/>
				<stop  offset="1" style="stop-color:#A88236"/>
			</linearGradient>
			<path class="st7" d="M135,229.3c-28,0-50.7,22.7-50.7,50.7c0,27.8,22.4,50.4,50.1,50.7c-27.2-0.3-49.2-22.5-49.2-49.8
				c0-27.5,22.3-49.8,49.8-49.8c27.5,0,49.8,22.3,49.8,49.8c0,27.3-21.9,49.5-49.2,49.8c27.7-0.3,50.1-22.9,50.1-50.7
				C185.7,252,163,229.3,135,229.3z"/>
		</g>
		<path class="st8" d="M164.9,250.1c-9.4,3.3-19.4,5.1-29.9,5.1c-10.5,0-20.5-1.8-29.9-5.1H105c3.3,9.4,5.1,19.6,5.1,30.1
			c0,10.5-1.8,20.5-5,29.8c9.3-3.3,19.4-5.1,29.9-5.1c10.5,0,20.6,1.8,30,5.2l0-0.1c-3.2-9.3-5-19.3-5-29.7c0-10.4,1.8-20.4,5-29.7
			l0-0.4H164.9z"/>
		<g>
			<g>
				<g>
					<g>
						<linearGradient id="SVGID_7_" gradientUnits="userSpaceOnUse" x1="148.4658" y1="260.825" x2="148.4658" y2="304.3514">
							<stop  offset="0" style="stop-color:#FAC900"/>
							<stop  offset="1" style="stop-color:#BA963A"/>
						</linearGradient>
						<path class="st9" d="M153.1,303.9c-0.8,0.7-2.1,0.7-2.8-0.1l-10.7-11.8c-0.7-0.8-0.7-2.1,0.1-2.8l4.2-3.8
							c0.8-0.7,2.1-0.7,2.8,0.1l10.7,11.8c0.7,0.8,0.7,2.1-0.1,2.8L153.1,303.9z"/>
					</g>
				</g>
			</g>
			<g>
				<linearGradient id="SVGID_8_" gradientUnits="userSpaceOnUse" x1="129.0537" y1="257.9739" x2="129.0537" y2="305.1754">
					<stop  offset="0" style="stop-color:#FAC900"/>
					<stop  offset="1" style="stop-color:#BA963A"/>
				</linearGradient>
				<path class="st10" d="M112.6,274.1c0-1.8,0.3-3.6,0.9-5.4c3-8.6,12.3-13.1,20.9-10.2c6.8,2.4,11.1,8.7,11.1,15.5
					c0,1.8-0.3,3.6-0.9,5.4c-3,8.6-12.3,13.1-20.9,10.2C116.9,287.3,112.6,280.9,112.6,274.1 M117.1,274.1c0,5.1,3.2,9.7,8.1,11.3
					c3,1,6.3,0.9,9.2-0.5c2.9-1.4,5-3.8,6.1-6.9c0.4-1.3,0.7-2.6,0.7-3.9c0-5.1-3.2-9.7-8.1-11.3c-3-1-6.3-0.9-9.2,0.5
					c-2.9,1.4-5,3.8-6.1,6.9v0C117.3,271.5,117.1,272.8,117.1,274.1L117.1,274.1z"/>
			</g>
		</g>
	</g>
	<g>
		<g>
			<linearGradient id="SVGID_9_" gradientUnits="userSpaceOnUse" x1="460" y1="576.1913" x2="460" y2="518.6249">
				<stop  offset="0" style="stop-color:#FAC900"/>
				<stop  offset="1" style="stop-color:#FFCC00"/>
			</linearGradient>
			<circle class="st11" cx="460" cy="550" r="40"/>
			<linearGradient id="SVGID_10_" gradientUnits="userSpaceOnUse" x1="421.1699" y1="550.001" x2="498.8281" y2="550.001">
				<stop  offset="0" style="stop-color:#F7DD00"/>
				<stop  offset="1" style="stop-color:#FFF8B8"/>
			</linearGradient>
			<circle class="st12" cx="460" cy="550" r="38.8"/>
			<circle class="st2" cx="460" cy="550" r="34.9"/>
			<linearGradient id="SVGID_11_" gradientUnits="userSpaceOnUse" x1="459.9713" y1="550.0018" x2="408.0646" y2="551.563">
				<stop  offset="0" style="stop-color:#F7DD00"/>
				<stop  offset="1" style="stop-color:#FFF8B8"/>
			</linearGradient>
			<path class="st13" d="M462.5,586.9c-20.4,0-36.9-16.5-36.9-36.9c0-20.4,16.5-36.9,36.9-36.9c4.4,0,8.7,0.8,12.7,2.2
				c-4.6-2-9.8-3.1-15.1-3.1c-20.9,0-37.9,16.9-37.9,37.9c0,20.9,16.9,37.9,37.9,37.9c5.4,0,10.5-1.1,15.1-3.1
				C471.2,586.1,466.9,586.9,462.5,586.9z"/>
			<circle class="st4" cx="460" cy="550" r="33.8"/>
			<linearGradient id="SVGID_12_" gradientUnits="userSpaceOnUse" x1="486.044" y1="547.6846" x2="396.0832" y2="555.6855">
				<stop  offset="0" style="stop-color:#FAC900"/>
				<stop  offset="1" style="stop-color:#BA963A"/>
			</linearGradient>
			<circle class="st14" cx="460" cy="550" r="33.8"/>
			<linearGradient id="SVGID_13_" gradientUnits="userSpaceOnUse" x1="468.0891" y1="579.1382" x2="455.588" y2="540.3128">
				<stop  offset="0" style="stop-color:#FAC900"/>
				<stop  offset="1" style="stop-color:#BA963A"/>
			</linearGradient>
			<path class="st15" d="M477.9,564.3c-13.2-1.7-31.8-37.4-51.6-17c-0.1,0.9-0.1,1.8-0.1,2.8c0,18.7,15.1,33.8,33.8,33.8
				c17.9,0,32.5-13.9,33.7-31.4C492.2,556.9,488,565.6,477.9,564.3z"/>
			<linearGradient id="SVGID_14_" gradientUnits="userSpaceOnUse" x1="466.7145" y1="553.829" x2="426.32" y2="530.8022">
				<stop  offset="0" style="stop-color:#DEB000"/>
				<stop  offset="1" style="stop-color:#A88236"/>
			</linearGradient>
			<path class="st16" d="M460,516.2c-18.7,0-33.8,15.1-33.8,33.8c0,18.5,14.9,33.6,33.4,33.8c-18.1-0.2-32.8-15-32.8-33.2
				c0-18.3,14.9-33.2,33.2-33.2c18.3,0,33.2,14.9,33.2,33.2c0,18.2-14.6,33-32.8,33.2c18.5-0.2,33.4-15.3,33.4-33.8
				C493.8,531.3,478.7,516.2,460,516.2z"/>
		</g>
		<path class="st8" d="M479.9,530c-6.2,2.2-12.9,3.4-19.9,3.4c-7,0-13.7-1.2-19.9-3.4H440c2.2,6.3,3.4,13,3.4,20.1
			c0,7-1.2,13.7-3.4,19.9c6.2-2.2,12.9-3.4,19.9-3.4c7,0,13.8,1.2,20,3.4l0-0.1c-2.2-6.2-3.3-12.9-3.3-19.8s1.2-13.6,3.3-19.8
			L479.9,530L479.9,530z"/>
		<g>
			<g>
				<linearGradient id="SVGID_15_" gradientUnits="userSpaceOnUse" x1="447.4135" y1="533.8047" x2="447.4135" y2="565.3347">
					<stop  offset="0" style="stop-color:#FAC900"/>
					<stop  offset="1" style="stop-color:#BA963A"/>
				</linearGradient>
				<polygon class="st17" points="445.1,565.3 449.7,565.3 449.7,552.1 445.1,556.1 				"/>
				<linearGradient id="SVGID_16_" gradientUnits="userSpaceOnUse" x1="455.1982" y1="533.8046" x2="455.1982" y2="565.3347">
					<stop  offset="0" style="stop-color:#FAC900"/>
					<stop  offset="1" style="stop-color:#BA963A"/>
				</linearGradient>
				<polygon class="st18" points="452.9,549.4 452.9,565.3 457.5,565.3 457.5,549.4 455.2,547.4 				"/>
				<linearGradient id="SVGID_17_" gradientUnits="userSpaceOnUse" x1="462.9849" y1="533.8046" x2="462.9849" y2="565.3348">
					<stop  offset="0" style="stop-color:#FAC900"/>
					<stop  offset="1" style="stop-color:#BA963A"/>
				</linearGradient>
				<path class="st19" d="M461.5,553c-0.2,0.2-0.3,0.4-0.5,0.6c-0.1,0.2-0.2,0.3-0.4,0.5v11.2h4.6v-15.6L461.5,553L461.5,553z"/>
				<linearGradient id="SVGID_18_" gradientUnits="userSpaceOnUse" x1="470.7739" y1="533.8046" x2="470.7739" y2="565.3347">
					<stop  offset="0" style="stop-color:#FAC900"/>
					<stop  offset="1" style="stop-color:#BA963A"/>
				</linearGradient>
				<polygon class="st20" points="468.5,546.9 468.5,565.3 473.1,565.3 473.1,542.7 				"/>
			</g>
			<g>
				<g>
					<linearGradient id="SVGID_19_" gradientUnits="userSpaceOnUse" x1="460.6055" y1="533.8223" x2="460.6055" y2="565.3523">
						<stop  offset="0" style="stop-color:#FAC900"/>
						<stop  offset="1" style="stop-color:#BA963A"/>
					</linearGradient>
					<polygon class="st21" points="476.1,533.8 467.2,533.8 471,537.7 461.6,546.2 455.2,540.5 445.1,549.3 445.1,553.1 
						455.2,544.3 461.6,550 473,539.7 476.1,543 					"/>
				</g>
			</g>
		</g>
	</g>
	<g>
		<g>
			<linearGradient id="SVGID_20_" gradientUnits="userSpaceOnUse" x1="60" y1="151.1914" x2="60" y2="93.625">
				<stop  offset="0" style="stop-color:#FAC900"/>
				<stop  offset="1" style="stop-color:#FFCC00"/>
			</linearGradient>
			<circle class="st22" cx="60" cy="125" r="40"/>
			<linearGradient id="SVGID_21_" gradientUnits="userSpaceOnUse" x1="21.1699" y1="125.001" x2="98.8281" y2="125.001">
				<stop  offset="0" style="stop-color:#F7DD00"/>
				<stop  offset="1" style="stop-color:#FFF8B8"/>
			</linearGradient>
			<circle class="st23" cx="60" cy="125" r="38.8"/>
			<circle class="st2" cx="60" cy="125" r="34.9"/>
			<linearGradient id="SVGID_22_" gradientUnits="userSpaceOnUse" x1="59.9713" y1="125.0018" x2="8.0646" y2="126.563">
				<stop  offset="0" style="stop-color:#F7DD00"/>
				<stop  offset="1" style="stop-color:#FFF8B8"/>
			</linearGradient>
			<path class="st24" d="M62.5,161.9c-20.4,0-36.9-16.5-36.9-36.9c0-20.4,16.5-36.9,36.9-36.9c4.4,0,8.7,0.8,12.7,2.2
				c-4.6-2-9.8-3.1-15.1-3.1c-20.9,0-37.9,16.9-37.9,37.9c0,20.9,16.9,37.9,37.9,37.9c5.4,0,10.5-1.1,15.1-3.1
				C71.2,161.1,66.9,161.9,62.5,161.9z"/>
			<circle class="st4" cx="60" cy="125" r="33.8"/>
			<linearGradient id="SVGID_23_" gradientUnits="userSpaceOnUse" x1="86.044" y1="122.6846" x2="-3.9168" y2="130.6855">
				<stop  offset="0" style="stop-color:#FAC900"/>
				<stop  offset="1" style="stop-color:#BA963A"/>
			</linearGradient>
			<circle class="st25" cx="60" cy="125" r="33.8"/>
			<linearGradient id="SVGID_24_" gradientUnits="userSpaceOnUse" x1="68.0891" y1="154.1383" x2="55.588" y2="115.3128">
				<stop  offset="0" style="stop-color:#FAC900"/>
				<stop  offset="1" style="stop-color:#BA963A"/>
			</linearGradient>
			<path class="st26" d="M77.9,139.3c-13.2-1.7-31.8-37.4-51.6-17c-0.1,0.9-0.1,1.8-0.1,2.8c0,18.7,15.1,33.8,33.8,33.8
				c17.9,0,32.5-13.9,33.7-31.4C92.2,131.9,88,140.6,77.9,139.3z"/>
			<linearGradient id="SVGID_25_" gradientUnits="userSpaceOnUse" x1="66.7146" y1="128.829" x2="26.3201" y2="105.8022">
				<stop  offset="0" style="stop-color:#DEB000"/>
				<stop  offset="1" style="stop-color:#A88236"/>
			</linearGradient>
			<path class="st27" d="M60,91.2c-18.7,0-33.8,15.1-33.8,33.8c0,18.5,14.9,33.6,33.4,33.8c-18.1-0.2-32.8-15-32.8-33.2
				c0-18.3,14.9-33.2,33.2-33.2c18.3,0,33.2,14.9,33.2,33.2c0,18.2-14.6,33-32.8,33.2c18.5-0.2,33.4-15.3,33.4-33.8
				C93.8,106.3,78.7,91.2,60,91.2z"/>
		</g>
		<path class="st8" d="M79.9,105c-6.2,2.2-12.9,3.4-19.9,3.4c-7,0-13.7-1.2-19.9-3.4H40c2.2,6.3,3.4,13,3.4,20.1
			c0,7-1.2,13.7-3.4,19.9c6.2-2.2,12.9-3.4,19.9-3.4c7,0,13.8,1.2,20,3.4l0-0.1c-2.2-6.2-3.3-12.9-3.3-19.8c0-6.9,1.2-13.6,3.3-19.8
			L79.9,105L79.9,105z"/>
		<g>
			<linearGradient id="SVGID_26_" gradientUnits="userSpaceOnUse" x1="60" y1="110.5572" x2="60" y2="139.5296">
				<stop  offset="0" style="stop-color:#FAC900"/>
				<stop  offset="1" style="stop-color:#BA963A"/>
			</linearGradient>
			<path class="st28" d="M76,122.5l-5.8-4.4v-7.3h-4.1v4.2l-6.1-4.6l-16,12.2l2.5,3.3l1.7-1.3v15.1h23.5v-15.1l1.7,1.3L76,122.5z
				 M69.5,137.4h-5.3v-8.8h-8.3v8.8h-5.3v-14.3l9.5-7.2l9.5,7.2V137.4z"/>
		</g>
	</g>
	<g>
		<g>
			<linearGradient id="SVGID_27_" gradientUnits="userSpaceOnUse" x1="226.1759" y1="113.6459" x2="226.1759" y2="56.0795">
				<stop  offset="0" style="stop-color:#FAC900"/>
				<stop  offset="1" style="stop-color:#FFCC00"/>
			</linearGradient>
			<circle class="st29" cx="226.2" cy="87.5" r="40"/>
			<linearGradient id="SVGID_28_" gradientUnits="userSpaceOnUse" x1="187.3458" y1="87.4555" x2="265.004" y2="87.4555">
				<stop  offset="0" style="stop-color:#F7DD00"/>
				<stop  offset="1" style="stop-color:#FFF8B8"/>
			</linearGradient>
			<circle class="st30" cx="226.2" cy="87.5" r="38.8"/>
			<circle class="st2" cx="226.2" cy="87.5" r="34.9"/>
			<linearGradient id="SVGID_29_" gradientUnits="userSpaceOnUse" x1="226.1472" y1="87.4563" x2="174.2405" y2="89.0175">
				<stop  offset="0" style="stop-color:#F7DD00"/>
				<stop  offset="1" style="stop-color:#FFF8B8"/>
			</linearGradient>
			<path class="st31" d="M228.7,124.4c-20.4,0-36.9-16.5-36.9-36.9c0-20.4,16.5-36.9,36.9-36.9c4.4,0,8.7,0.8,12.7,2.2
				c-4.6-2-9.8-3.1-15.1-3.1c-20.9,0-37.9,16.9-37.9,37.9c0,20.9,16.9,37.9,37.9,37.9c5.4,0,10.5-1.1,15.1-3.1
				C237.4,123.6,233.1,124.4,228.7,124.4z"/>
			<circle class="st4" cx="226.2" cy="87.5" r="33.8"/>
			<linearGradient id="SVGID_30_" gradientUnits="userSpaceOnUse" x1="252.2199" y1="85.1391" x2="162.2591" y2="93.14">
				<stop  offset="0" style="stop-color:#FAC900"/>
				<stop  offset="1" style="stop-color:#BA963A"/>
			</linearGradient>
			<circle class="st32" cx="226.2" cy="87.5" r="33.8"/>
			<linearGradient id="SVGID_31_" gradientUnits="userSpaceOnUse" x1="234.265" y1="116.5928" x2="221.7639" y2="77.7673">
				<stop  offset="0" style="stop-color:#FAC900"/>
				<stop  offset="1" style="stop-color:#BA963A"/>
			</linearGradient>
			<path class="st33" d="M244,101.7c-13.2-1.7-31.8-37.4-51.6-17c-0.1,0.9-0.1,1.8-0.1,2.8c0,18.7,15.1,33.8,33.8,33.8
				c17.9,0,32.5-13.9,33.7-31.4C258.4,94.4,254.2,103,244,101.7z"/>
			<linearGradient id="SVGID_32_" gradientUnits="userSpaceOnUse" x1="232.8904" y1="91.2835" x2="192.4959" y2="68.2567">
				<stop  offset="0" style="stop-color:#DEB000"/>
				<stop  offset="1" style="stop-color:#A88236"/>
			</linearGradient>
			<path class="st34" d="M226.2,53.6c-18.7,0-33.8,15.1-33.8,33.8c0,18.5,14.9,33.6,33.4,33.8c-18.1-0.2-32.8-15-32.8-33.2
				c0-18.3,14.9-33.2,33.2-33.2c18.3,0,33.2,14.9,33.2,33.2c0,18.2-14.6,33-32.8,33.2C245.1,121,260,106,260,87.5
				C260,68.8,244.9,53.6,226.2,53.6z"/>
		</g>
		<path class="st8" d="M246.1,67.5c-6.2,2.2-12.9,3.4-19.9,3.4c-7,0-13.7-1.2-19.9-3.4h-0.1c2.2,6.3,3.4,13,3.4,20.1
			c0,7-1.2,13.7-3.4,19.9c6.2-2.2,12.9-3.4,19.9-3.4c7,0,13.8,1.2,20,3.4l0-0.1c-2.2-6.2-3.3-12.9-3.3-19.8c0-6.9,1.2-13.6,3.3-19.8
			L246.1,67.5L246.1,67.5z"/>
		<g>
			<linearGradient id="SVGID_33_" gradientUnits="userSpaceOnUse" x1="226.1759" y1="74.4545" x2="226.1759" y2="100.9592">
				<stop  offset="0" style="stop-color:#FAC900"/>
				<stop  offset="1" style="stop-color:#BA963A"/>
			</linearGradient>
			<path class="st35" d="M239.9,98.6c-0.4,0-0.7,0-1,0c-1.5,0-2-0.4-2.2-0.6c-0.2-0.2-0.3-0.5-0.3-1c0-0.3,0-0.6,0.1-0.8
				c2.2-2.4,3.5-5.7,3.5-9.2c0-7.7-6.2-13.9-13.9-13.9c-7.7,0-13.9,6.2-13.9,13.9c0,7.7,6.2,13.9,13.9,13.9c2.8,0,5.4-0.8,7.6-2.2
				c0.2,0.5,0.5,1,0.9,1.5c1,1,2.4,1.5,4.4,1.5c0,0,0,0,0,0c0.4,0,0.8,0,1.2-0.1L239.9,98.6z M218.5,91c-1.9,0-3.4-1.7-3.4-3.9
				c0-2.2,1.5-3.9,3.4-3.9c1.9,0,3.4,1.7,3.4,3.9C221.9,89.3,220.3,91,218.5,91z M226.1,98.1c-2.2,0-3.9-1.5-3.9-3.4
				c0-1.9,1.7-3.4,3.9-3.4c2.2,0,3.9,1.5,3.9,3.4C230,96.6,228.2,98.1,226.1,98.1z M224.2,87.1c0-1,0.8-1.9,1.9-1.9
				c1,0,1.9,0.8,1.9,1.9c0,1-0.8,1.9-1.9,1.9C225,89,224.2,88.1,224.2,87.1z M226.1,82.9c-2.2,0-3.9-1.5-3.9-3.4s1.7-3.4,3.9-3.4
				c2.2,0,3.9,1.5,3.9,3.4S228.2,82.9,226.1,82.9z M230.2,87.1c0-2.2,1.5-3.9,3.4-3.9c1.9,0,3.4,1.7,3.4,3.9c0,2.2-1.5,3.9-3.4,3.9
				C231.8,91,230.2,89.3,230.2,87.1z"/>
		</g>
	</g>
	<g>
		<g>
			<linearGradient id="SVGID_34_" gradientUnits="userSpaceOnUse" x1="585" y1="426.1913" x2="585" y2="368.625">
				<stop  offset="0" style="stop-color:#FAC900"/>
				<stop  offset="1" style="stop-color:#FFCC00"/>
			</linearGradient>
			<circle class="st36" cx="585" cy="400" r="40"/>
			<linearGradient id="SVGID_35_" gradientUnits="userSpaceOnUse" x1="546.1699" y1="400.001" x2="623.8281" y2="400.001">
				<stop  offset="0" style="stop-color:#F7DD00"/>
				<stop  offset="1" style="stop-color:#FFF8B8"/>
			</linearGradient>
			<circle class="st37" cx="585" cy="400" r="38.8"/>
			<circle class="st2" cx="585" cy="400" r="34.9"/>
			<linearGradient id="SVGID_36_" gradientUnits="userSpaceOnUse" x1="584.9713" y1="400.0018" x2="533.0646" y2="401.563">
				<stop  offset="0" style="stop-color:#F7DD00"/>
				<stop  offset="1" style="stop-color:#FFF8B8"/>
			</linearGradient>
			<path class="st38" d="M587.5,436.9c-20.4,0-36.9-16.5-36.9-36.9c0-20.4,16.5-36.9,36.9-36.9c4.4,0,8.7,0.8,12.7,2.2
				c-4.6-2-9.8-3.1-15.1-3.1c-20.9,0-37.9,16.9-37.9,37.9c0,20.9,16.9,37.9,37.9,37.9c5.4,0,10.5-1.1,15.1-3.1
				C596.2,436.1,591.9,436.9,587.5,436.9z"/>
			<circle class="st4" cx="585" cy="400" r="33.8"/>
			<linearGradient id="SVGID_37_" gradientUnits="userSpaceOnUse" x1="611.0439" y1="397.6846" x2="521.0832" y2="405.6855">
				<stop  offset="0" style="stop-color:#FAC900"/>
				<stop  offset="1" style="stop-color:#BA963A"/>
			</linearGradient>
			<circle class="st39" cx="585" cy="400" r="33.8"/>
			<linearGradient id="SVGID_38_" gradientUnits="userSpaceOnUse" x1="593.0891" y1="429.1382" x2="580.588" y2="390.3128">
				<stop  offset="0" style="stop-color:#FAC900"/>
				<stop  offset="1" style="stop-color:#BA963A"/>
			</linearGradient>
			<path class="st40" d="M602.9,414.3c-13.2-1.7-31.8-37.4-51.6-17c-0.1,0.9-0.1,1.8-0.1,2.8c0,18.7,15.1,33.8,33.8,33.8
				c17.9,0,32.5-13.9,33.7-31.4C617.2,406.9,613,415.6,602.9,414.3z"/>
			<linearGradient id="SVGID_39_" gradientUnits="userSpaceOnUse" x1="591.7145" y1="403.829" x2="551.3201" y2="380.8022">
				<stop  offset="0" style="stop-color:#DEB000"/>
				<stop  offset="1" style="stop-color:#A88236"/>
			</linearGradient>
			<path class="st41" d="M585,366.2c-18.7,0-33.8,15.1-33.8,33.8c0,18.5,14.9,33.6,33.4,33.8c-18.1-0.2-32.8-15-32.8-33.2
				c0-18.3,14.9-33.2,33.2-33.2c18.3,0,33.2,14.9,33.2,33.2c0,18.2-14.6,33-32.8,33.2c18.5-0.2,33.4-15.3,33.4-33.8
				C618.8,381.3,603.7,366.2,585,366.2z"/>
		</g>
		<path class="st8" d="M604.9,380c-6.2,2.2-12.9,3.4-19.9,3.4c-7,0-13.7-1.2-19.9-3.4H565c2.2,6.3,3.4,13,3.4,20.1
			c0,7-1.2,13.7-3.4,19.9c6.2-2.2,12.9-3.4,19.9-3.4c7,0,13.8,1.2,20,3.4l0-0.1c-2.2-6.2-3.3-12.9-3.3-19.8s1.2-13.6,3.3-19.8
			L604.9,380L604.9,380z"/>
		<g>
			<linearGradient id="SVGID_40_" gradientUnits="userSpaceOnUse" x1="584.6782" y1="384.9779" x2="584.6782" y2="414.6695">
				<stop  offset="0" style="stop-color:#FAC900"/>
				<stop  offset="1" style="stop-color:#BA963A"/>
			</linearGradient>
			<path class="st42" d="M585.3,395.1c0.3,0,0.4-0.1,0.6-0.3c0.1-0.1,0.2-0.3,0.2-0.6c0-0.2-0.1-0.4-0.2-0.5
				c-0.1-0.1-0.3-0.2-0.6-0.3c-0.1,0-0.6,0-1.3,0h-0.8v1.6h1C584.8,395.2,585.2,395.2,585.3,395.1z"/>
			<linearGradient id="SVGID_41_" gradientUnits="userSpaceOnUse" x1="584.8115" y1="384.9747" x2="584.8115" y2="414.6752">
				<stop  offset="0" style="stop-color:#FAC900"/>
				<stop  offset="1" style="stop-color:#BA963A"/>
			</linearGradient>
			<path class="st43" d="M585.7,396.5c-0.2-0.1-0.6-0.1-1.3-0.1h-1.2v1.9h1.4c0.5,0,0.9,0,1,0c0.2,0,0.4-0.1,0.5-0.3
				c0.1-0.2,0.2-0.4,0.2-0.6c0-0.2-0.1-0.4-0.2-0.5C586.1,396.6,585.9,396.5,585.7,396.5z"/>
			<linearGradient id="SVGID_42_" gradientUnits="userSpaceOnUse" x1="585" y1="384.975" x2="585" y2="414.6752">
				<stop  offset="0" style="stop-color:#FAC900"/>
				<stop  offset="1" style="stop-color:#BA963A"/>
			</linearGradient>
			<path class="st44" d="M596.5,396.2c0-6.3-5.1-11.5-11.5-11.5c-6.3,0-11.5,5.1-11.5,11.5c0,2.8,1,5.4,2.7,7.4h0l8.8,11.2l8.8-11.2
				h0C595.5,401.5,596.5,399,596.5,396.2z M580.7,399.5h-5.1v-7.1h1.5v5.9h3.7V399.5z M587.7,398.3c-0.2,0.3-0.4,0.6-0.6,0.7
				c-0.3,0.2-0.6,0.3-1,0.3c-0.2,0-0.8,0-1.8,0h-2.5v-7.1h2.9c0.6,0,1,0,1.3,0.1c0.3,0,0.5,0.1,0.8,0.3c0.2,0.1,0.4,0.3,0.6,0.6
				c0.1,0.2,0.2,0.5,0.2,0.8c0,0.3-0.1,0.6-0.3,0.9c-0.2,0.3-0.4,0.5-0.7,0.6c0.4,0.1,0.8,0.3,1,0.6c0.2,0.3,0.4,0.7,0.4,1.1
				C587.9,397.7,587.8,398,587.7,398.3z M591.8,399.6c-0.9,0-1.6-0.2-2.1-0.6c-0.5-0.4-0.8-1-0.9-1.8l1.4-0.1c0.1,0.5,0.3,0.8,0.5,1
				c0.3,0.2,0.6,0.3,1.1,0.3c0.5,0,0.8-0.1,1.1-0.3c0.2-0.2,0.4-0.4,0.4-0.7c0-0.2,0-0.3-0.2-0.4c-0.1-0.1-0.3-0.2-0.5-0.3
				c-0.2-0.1-0.6-0.2-1.2-0.3c-0.8-0.2-1.3-0.4-1.7-0.7c-0.4-0.4-0.7-0.9-0.7-1.4c0-0.4,0.1-0.7,0.3-1c0.2-0.3,0.5-0.6,0.9-0.7
				c0.4-0.2,0.9-0.2,1.4-0.2c0.9,0,1.6,0.2,2.1,0.6c0.5,0.4,0.7,0.9,0.7,1.6l-1.5,0.1c-0.1-0.4-0.2-0.6-0.4-0.8
				c-0.2-0.2-0.5-0.2-0.9-0.2c-0.4,0-0.8,0.1-1,0.3c-0.2,0.1-0.2,0.3-0.2,0.4c0,0.2,0.1,0.3,0.2,0.4c0.2,0.2,0.6,0.3,1.4,0.5
				c0.7,0.2,1.2,0.3,1.6,0.5c0.3,0.2,0.6,0.4,0.8,0.7c0.2,0.3,0.3,0.7,0.3,1.1c0,0.4-0.1,0.8-0.3,1.1c-0.2,0.4-0.6,0.6-1,0.8
				C592.9,399.5,592.4,399.6,591.8,399.6z"/>
		</g>
	</g>
	<g>
		<g>
			<linearGradient id="SVGID_43_" gradientUnits="userSpaceOnUse" x1="57.5217" y1="587.8497" x2="57.5217" y2="530.2833">
				<stop  offset="0" style="stop-color:#FAC900"/>
				<stop  offset="1" style="stop-color:#FFCC00"/>
			</linearGradient>
			<circle class="st45" cx="57.5" cy="561.7" r="40"/>
			<linearGradient id="SVGID_44_" gradientUnits="userSpaceOnUse" x1="18.6921" y1="561.6589" x2="96.3498" y2="561.6589">
				<stop  offset="0" style="stop-color:#F7DD00"/>
				<stop  offset="1" style="stop-color:#FFF8B8"/>
			</linearGradient>
			<circle class="st46" cx="57.5" cy="561.7" r="38.8"/>
			<circle class="st2" cx="57.5" cy="561.7" r="34.9"/>
			<linearGradient id="SVGID_45_" gradientUnits="userSpaceOnUse" x1="57.4932" y1="561.6592" x2="5.5855" y2="563.2203">
				<stop  offset="0" style="stop-color:#F7DD00"/>
				<stop  offset="1" style="stop-color:#FFF8B8"/>
			</linearGradient>
			<path class="st47" d="M60,598.6c-20.4,0-36.9-16.5-36.9-36.9c0-20.4,16.5-36.9,36.9-36.9c4.4,0,8.7,0.8,12.7,2.2
				c-4.6-2-9.8-3.1-15.1-3.1c-20.9,0-37.9,16.9-37.9,37.9c0,20.9,16.9,37.9,37.9,37.9c5.4,0,10.5-1.1,15.1-3.1
				C68.7,597.8,64.4,598.6,60,598.6z"/>
			<circle class="st4" cx="57.5" cy="561.7" r="33.8"/>
			<linearGradient id="SVGID_46_" gradientUnits="userSpaceOnUse" x1="83.5658" y1="559.343" x2="-6.3944" y2="567.3438">
				<stop  offset="0" style="stop-color:#FAC900"/>
				<stop  offset="1" style="stop-color:#BA963A"/>
			</linearGradient>
			<circle class="st48" cx="57.5" cy="561.7" r="33.8"/>
			<linearGradient id="SVGID_47_" gradientUnits="userSpaceOnUse" x1="65.6112" y1="590.7963" x2="53.1098" y2="551.9697">
				<stop  offset="0" style="stop-color:#FAC900"/>
				<stop  offset="1" style="stop-color:#BA963A"/>
			</linearGradient>
			<path class="st49" d="M75.4,575.9c-13.2-1.7-31.8-37.4-51.6-17c-0.1,0.9-0.1,1.8-0.1,2.8c0,18.7,15.1,33.8,33.8,33.8
				c17.9,0,32.5-13.9,33.7-31.4C89.8,568.6,85.5,577.2,75.4,575.9z"/>
			<linearGradient id="SVGID_48_" gradientUnits="userSpaceOnUse" x1="64.2364" y1="565.4865" x2="23.8423" y2="542.4599">
				<stop  offset="0" style="stop-color:#DEB000"/>
				<stop  offset="1" style="stop-color:#A88236"/>
			</linearGradient>
			<path class="st50" d="M57.5,527.8c-18.7,0-33.8,15.1-33.8,33.8c0,18.5,14.9,33.6,33.4,33.8c-18.1-0.2-32.8-15-32.8-33.2
				c0-18.3,14.9-33.2,33.2-33.2c18.3,0,33.2,14.9,33.2,33.2c0,18.2-14.6,33-32.8,33.2c18.5-0.2,33.4-15.3,33.4-33.8
				C91.3,543,76.2,527.8,57.5,527.8z"/>
		</g>
		<path class="st8" d="M85.7,561.6c-6-2.9-11.6-6.7-16.5-11.7c-4.9-4.9-8.8-10.5-11.7-16.5l0,0c-2.9,6-6.8,11.6-11.8,16.6
			c-4.9,4.9-10.5,8.8-16.4,11.7c6,2.9,11.6,6.7,16.5,11.7c5,5,8.9,10.6,11.7,16.6l0.1-0.1c2.9-5.9,6.7-11.5,11.7-16.4
			c4.9-4.9,10.5-8.8,16.4-11.7L85.7,561.6L85.7,561.6z"/>
		<linearGradient id="SVGID_49_" gradientUnits="userSpaceOnUse" x1="57.522" y1="552.1583" x2="57.522" y2="572.1581">
			<stop  offset="0" style="stop-color:#FAC900"/>
			<stop  offset="1" style="stop-color:#BA963A"/>
		</linearGradient>
		<path class="st51" d="M72.4,566.8c-1.1-4.7-2.2-9.4-3.5-14.1c-0.1-0.5-0.6-0.8-1.1-0.8h-4c-0.5,0-0.9,0.3-1.1,0.7l-0.3,0.7H59h-3
			h-3.5l-0.3-0.7c-0.2-0.5-0.6-0.7-1.1-0.7h-4c-0.5,0-1,0.3-1.1,0.8c-1.3,4.7-2.4,9.4-3.5,14.1c-0.5,2,0.6,4,2.6,4.6
			c2,0.5,3.9-0.6,4.6-2.6l1.9-6.1H56h3h4.3l1.9,6.1c0.6,1.9,2.6,3.1,4.6,2.6C71.8,570.8,72.9,568.8,72.4,566.8z M51.8,558.1
			c0,0.3-0.2,0.5-0.5,0.5h-0.8c-0.3,0-0.5,0.2-0.5,0.5v0.8c0,0.3-0.2,0.5-0.5,0.5h-0.8c-0.3,0-0.5-0.2-0.5-0.5V559
			c0-0.2-0.2-0.5-0.5-0.5H47c-0.3,0-0.5-0.2-0.5-0.5v-0.8c0-0.2,0.2-0.5,0.5-0.5h0.8c0.3,0,0.5-0.2,0.5-0.5v-0.8
			c0-0.3,0.2-0.5,0.5-0.5h0.8c0.3,0,0.5,0.2,0.5,0.5v0.8c0,0.3,0.2,0.5,0.5,0.5h0.8c0.3,0,0.5,0.2,0.5,0.5V558.1z M56.5,558.4h-1.6
			c-0.2,0-0.4-0.2-0.4-0.5c0-0.2,0.2-0.4,0.4-0.4h1.6c0.2,0,0.4,0.2,0.4,0.4C57,558.2,56.8,558.4,56.5,558.4z M60.1,558.4h-1.6
			c-0.2,0-0.4-0.2-0.4-0.5c0-0.2,0.2-0.4,0.4-0.4h1.6c0.2,0,0.4,0.2,0.4,0.4C60.6,558.2,60.4,558.4,60.1,558.4z M63.8,558.5
			c-0.5,0-0.9-0.4-0.9-0.9c0-0.5,0.4-0.9,0.9-0.9c0.5,0,0.9,0.4,0.9,0.9C64.7,558.1,64.3,558.5,63.8,558.5z M65.8,560.6
			c-0.5,0-0.9-0.4-0.9-0.9c0-0.5,0.4-0.9,0.9-0.9c0.5,0,0.9,0.4,0.9,0.9C66.8,560.2,66.3,560.6,65.8,560.6z M65.8,556.5
			c-0.5,0-0.9-0.4-0.9-0.9c0-0.5,0.4-0.9,0.9-0.9c0.5,0,0.9,0.4,0.9,0.9C66.8,556.1,66.3,556.5,65.8,556.5z M67.9,558.5
			c-0.5,0-0.9-0.4-0.9-0.9c0-0.5,0.4-0.9,0.9-0.9c0.5,0,0.9,0.4,0.9,0.9C68.8,558.1,68.4,558.5,67.9,558.5z"/>
	</g>
	<g>
		<g>
			<linearGradient id="SVGID_50_" gradientUnits="userSpaceOnUse" x1="505" y1="282.7388" x2="505" y2="210.7811">
				<stop  offset="0" style="stop-color:#FAC900"/>
				<stop  offset="1" style="stop-color:#FFCC00"/>
			</linearGradient>
			<circle class="st52" cx="505" cy="250" r="50"/>
			<linearGradient id="SVGID_51_" gradientUnits="userSpaceOnUse" x1="456.4629" y1="250.0005" x2="553.5352" y2="250.0005">
				<stop  offset="0" style="stop-color:#F7DD00"/>
				<stop  offset="1" style="stop-color:#FFF8B8"/>
			</linearGradient>
			<circle class="st53" cx="505" cy="250" r="48.5"/>
			<circle class="st2" cx="505" cy="250" r="43.7"/>
			<linearGradient id="SVGID_52_" gradientUnits="userSpaceOnUse" x1="504.9639" y1="250.0011" x2="440.0814" y2="251.9525">
				<stop  offset="0" style="stop-color:#F7DD00"/>
				<stop  offset="1" style="stop-color:#FFF8B8"/>
			</linearGradient>
			<path class="st54" d="M508.1,296.2c-25.5,0-46.2-20.7-46.2-46.2c0-25.5,20.7-46.2,46.2-46.2c5.6,0,10.9,1,15.8,2.8
				c-5.8-2.5-12.2-3.9-18.9-3.9c-26.1,0-47.3,21.2-47.3,47.3c0,26.1,21.2,47.3,47.3,47.3c6.7,0,13.1-1.4,18.9-3.9
				C519,295.2,513.7,296.2,508.1,296.2z"/>
			<circle class="st4" cx="505" cy="250" r="42.3"/>
			<linearGradient id="SVGID_53_" gradientUnits="userSpaceOnUse" x1="537.5551" y1="247.1055" x2="425.1048" y2="257.1067">
				<stop  offset="0" style="stop-color:#FAC900"/>
				<stop  offset="1" style="stop-color:#BA963A"/>
			</linearGradient>
			<circle class="st55" cx="505" cy="250" r="42.3"/>
			<linearGradient id="SVGID_54_" gradientUnits="userSpaceOnUse" x1="515.1119" y1="286.4221" x2="499.4853" y2="237.8895">
				<stop  offset="0" style="stop-color:#FAC900"/>
				<stop  offset="1" style="stop-color:#BA963A"/>
			</linearGradient>
			<path class="st56" d="M527.3,267.8c-16.5-2.1-39.8-46.8-64.5-21.3c-0.1,1.1-0.1,2.3-0.1,3.5c0,23.3,18.9,42.3,42.3,42.3
				c22.3,0,40.6-17.3,42.2-39.3C545.3,258.6,540,269.5,527.3,267.8z"/>
			<linearGradient id="SVGID_55_" gradientUnits="userSpaceOnUse" x1="513.3936" y1="254.7853" x2="462.9008" y2="226.002">
				<stop  offset="0" style="stop-color:#DEB000"/>
				<stop  offset="1" style="stop-color:#A88236"/>
			</linearGradient>
			<path class="st57" d="M505,207.7c-23.3,0-42.3,18.9-42.3,42.3c0,23.2,18.6,42,41.7,42.3c-22.7-0.3-41-18.8-41-41.5
				c0-22.9,18.6-41.5,41.5-41.5c22.9,0,41.5,18.6,41.5,41.5c0,22.7-18.3,41.2-41,41.5c23.1-0.3,41.7-19.1,41.7-42.3
				C547.3,226.7,528.3,207.7,505,207.7z"/>
		</g>
		<path class="st8" d="M540.2,249.9c-7.5-3.6-14.5-8.4-20.6-14.6c-6.2-6.2-11-13.2-14.6-20.6l0,0c-3.6,7.5-8.5,14.6-14.7,20.8
			c-6.2,6.2-13.1,11-20.5,14.6c7.5,3.6,14.4,8.4,20.6,14.6c6.2,6.2,11.1,13.2,14.6,20.7l0.1-0.1c3.6-7.4,8.4-14.3,14.6-20.5
			c6.1-6.1,13.1-11,20.5-14.6L540.2,249.9L540.2,249.9z"/>
		<g>
			<g>
				<linearGradient id="SVGID_56_" gradientUnits="userSpaceOnUse" x1="502.5" y1="234.2592" x2="502.5" y2="261.4625">
					<stop  offset="0" style="stop-color:#FAC900"/>
					<stop  offset="1" style="stop-color:#BA963A"/>
				</linearGradient>
				<path class="st58" d="M502.5,233.8c8.8,0,16,5.8,16,12.9c0,2.8-1.1,5.5-3.1,7.6l3,7.4l-12.6-2.5c-1.3,0-2.8,0.4-4.3,0.4
					c-0.2,0-0.3,0-0.5,0c-8.6,0-14.5-5.9-14.5-12.9C486.5,239.6,493.7,233.8,502.5,233.8 M502.5,237.3c-6.9,0-12.5,4.2-12.5,9.4
					c0,5.3,4.7,9.4,11,9.4c0.1,0,0.3,0,0.4,0c0.6,0,1.2-0.1,1.9-0.2c0.8-0.1,1.5-0.2,2.3-0.2l0.4,0l0.4,0.1l6.2,1.3l-0.6-1.4l-0.8-2
					l1.5-1.6c1-1.1,2.2-2.9,2.2-5.3C515,241.5,509.4,237.3,502.5,237.3L502.5,237.3z"/>
			</g>
		</g>
	</g>
	<g>
		<g>
			<linearGradient id="SVGID_57_" gradientUnits="userSpaceOnUse" x1="274.9998" y1="222.7388" x2="274.9998" y2="150.7811">
				<stop  offset="0" style="stop-color:#FAC900"/>
				<stop  offset="1" style="stop-color:#FFCC00"/>
			</linearGradient>
			<circle class="st59" cx="275" cy="190" r="50"/>
			<linearGradient id="SVGID_58_" gradientUnits="userSpaceOnUse" x1="226.4634" y1="190.0002" x2="323.5352" y2="190.0002">
				<stop  offset="0" style="stop-color:#F7DD00"/>
				<stop  offset="1" style="stop-color:#FFF8B8"/>
			</linearGradient>
			<circle class="st60" cx="275" cy="190" r="48.5"/>
			<circle class="st2" cx="275" cy="190" r="43.7"/>
			<linearGradient id="SVGID_59_" gradientUnits="userSpaceOnUse" x1="274.9656" y1="190.001" x2="210.0794" y2="191.9525">
				<stop  offset="0" style="stop-color:#F7DD00"/>
				<stop  offset="1" style="stop-color:#FFF8B8"/>
			</linearGradient>
			<path class="st61" d="M278.1,236.2c-25.5,0-46.2-20.7-46.2-46.2c0-25.5,20.7-46.2,46.2-46.2c5.6,0,10.9,1,15.8,2.8
				c-5.8-2.5-12.2-3.9-18.9-3.9c-26.1,0-47.3,21.2-47.3,47.3c0,26.1,21.2,47.3,47.3,47.3c6.7,0,13.1-1.4,18.9-3.9
				C289,235.2,283.7,236.2,278.1,236.2z"/>
			<circle class="st4" cx="275" cy="190" r="42.3"/>
			<linearGradient id="SVGID_60_" gradientUnits="userSpaceOnUse" x1="307.5551" y1="187.1056" x2="195.1054" y2="197.1066">
				<stop  offset="0" style="stop-color:#FAC900"/>
				<stop  offset="1" style="stop-color:#BA963A"/>
			</linearGradient>
			<circle class="st62" cx="275" cy="190" r="42.3"/>
			<linearGradient id="SVGID_61_" gradientUnits="userSpaceOnUse" x1="285.1121" y1="226.4223" x2="269.4854" y2="177.8893">
				<stop  offset="0" style="stop-color:#FAC900"/>
				<stop  offset="1" style="stop-color:#BA963A"/>
			</linearGradient>
			<path class="st63" d="M297.3,207.8c-16.5-2.1-39.8-46.8-64.5-21.3c-0.1,1.1-0.1,2.3-0.1,3.5c0,23.3,18.9,42.3,42.3,42.3
				c22.3,0,40.6-17.3,42.2-39.3C315.3,198.6,310,209.5,297.3,207.8z"/>
			<linearGradient id="SVGID_62_" gradientUnits="userSpaceOnUse" x1="283.3938" y1="194.7853" x2="232.9011" y2="166.002">
				<stop  offset="0" style="stop-color:#DEB000"/>
				<stop  offset="1" style="stop-color:#A88236"/>
			</linearGradient>
			<path class="st64" d="M275,147.7c-23.3,0-42.3,18.9-42.3,42.3c0,23.2,18.6,42,41.7,42.3c-22.7-0.3-41-18.8-41-41.5
				c0-22.9,18.6-41.5,41.5-41.5s41.5,18.6,41.5,41.5c0,22.7-18.3,41.2-41,41.5c23.1-0.3,41.7-19.1,41.7-42.3
				C317.3,166.7,298.3,147.7,275,147.7z"/>
		</g>
		<path class="st8" d="M310.2,189.9c-7.5-3.6-14.5-8.4-20.6-14.6c-6.2-6.2-11-13.2-14.6-20.6l0,0c-3.6,7.5-8.5,14.6-14.7,20.8
			c-6.2,6.2-13.1,11-20.5,14.6c7.5,3.6,14.4,8.4,20.6,14.6c6.2,6.2,11.1,13.2,14.6,20.7l0.1-0.1c3.6-7.4,8.4-14.3,14.6-20.5
			c6.1-6.1,13.1-11,20.5-14.6L310.2,189.9L310.2,189.9z"/>
		<g>
			<linearGradient id="SVGID_63_" gradientUnits="userSpaceOnUse" x1="275" y1="171.6487" x2="275" y2="208.8375">
				<stop  offset="0" style="stop-color:#FAC900"/>
				<stop  offset="1" style="stop-color:#BA963A"/>
			</linearGradient>
			<path class="st65" d="M282.1,171.2h-14.3c-1.2,0-2.2,1-2.2,2.3v33c0,1.2,1,2.2,2.2,2.2h14.3c1.2,0,2.2-1,2.2-2.2v-33
				C284.4,172.3,283.4,171.2,282.1,171.2z M275,172.4c0.3,0,0.5,0.2,0.5,0.5c0,0.3-0.2,0.5-0.5,0.5c-0.3,0-0.5-0.2-0.5-0.5
				C274.5,172.6,274.7,172.4,275,172.4z M273.4,174.2h3.3c0.1,0,0.2,0.1,0.2,0.2c0,0.1-0.1,0.2-0.2,0.2h-3.3c-0.1,0-0.2-0.1-0.2-0.2
				C273.1,174.3,273.2,174.2,273.4,174.2z M272.2,174.2c0.1,0,0.2,0.1,0.2,0.2c0,0.1-0.1,0.2-0.2,0.2c-0.1,0-0.2-0.1-0.2-0.2
				C272,174.3,272.1,174.2,272.2,174.2z M275,208.1c-0.9,0-1.6-0.7-1.6-1.6c0-0.9,0.7-1.6,1.6-1.6c0.9,0,1.6,0.7,1.6,1.6
				C276.6,207.4,275.9,208.1,275,208.1z M283.4,204.1h-16.9v-28.1l16.9,0V204.1z"/>
			<linearGradient id="SVGID_64_" gradientUnits="userSpaceOnUse" x1="275" y1="171.6505" x2="275" y2="208.8374">
				<stop  offset="0" style="stop-color:#FAC900"/>
				<stop  offset="1" style="stop-color:#BA963A"/>
			</linearGradient>
			<path class="st66" d="M275,205c-0.8,0-1.4,0.6-1.4,1.4c0,0.8,0.6,1.4,1.4,1.4c0.8,0,1.4-0.6,1.4-1.4
				C276.4,205.7,275.8,205,275,205z"/>
		</g>
	</g>
	<g>
		<g>
			<linearGradient id="SVGID_65_" gradientUnits="userSpaceOnUse" x1="335" y1="311.1909" x2="335" y2="253.6249">
				<stop  offset="0" style="stop-color:#FAC900"/>
				<stop  offset="1" style="stop-color:#FFCC00"/>
			</linearGradient>
			<circle class="st67" cx="335" cy="285" r="40"/>
			<linearGradient id="SVGID_66_" gradientUnits="userSpaceOnUse" x1="296.1699" y1="285.0002" x2="373.8281" y2="285.0002">
				<stop  offset="0" style="stop-color:#F7DD00"/>
				<stop  offset="1" style="stop-color:#FFF8B8"/>
			</linearGradient>
			<circle class="st68" cx="335" cy="285" r="38.8"/>
			<circle class="st2" cx="335" cy="285" r="34.9"/>
			<linearGradient id="SVGID_67_" gradientUnits="userSpaceOnUse" x1="334.9719" y1="285.0009" x2="283.0643" y2="286.562">
				<stop  offset="0" style="stop-color:#F7DD00"/>
				<stop  offset="1" style="stop-color:#FFF8B8"/>
			</linearGradient>
			<path class="st69" d="M337.5,321.9c-20.4,0-36.9-16.5-36.9-36.9c0-20.4,16.5-36.9,36.9-36.9c4.4,0,8.7,0.8,12.7,2.2
				c-4.6-2-9.8-3.1-15.1-3.1c-20.9,0-37.9,16.9-37.9,37.9c0,20.9,16.9,37.9,37.9,37.9c5.4,0,10.5-1.1,15.1-3.1
				C346.2,321.1,341.9,321.9,337.5,321.9z"/>
			<circle class="st4" cx="335" cy="285" r="33.8"/>
			<linearGradient id="SVGID_68_" gradientUnits="userSpaceOnUse" x1="361.044" y1="282.6844" x2="271.0832" y2="290.6854">
				<stop  offset="0" style="stop-color:#FAC900"/>
				<stop  offset="1" style="stop-color:#BA963A"/>
			</linearGradient>
			<circle class="st70" cx="335" cy="285" r="33.8"/>
			<linearGradient id="SVGID_69_" gradientUnits="userSpaceOnUse" x1="343.0894" y1="314.1378" x2="330.588" y2="275.3117">
				<stop  offset="0" style="stop-color:#FAC900"/>
				<stop  offset="1" style="stop-color:#BA963A"/>
			</linearGradient>
			<path class="st71" d="M352.9,299.3c-13.2-1.7-31.8-37.4-51.6-17c-0.1,0.9-0.1,1.8-0.1,2.8c0,18.7,15.1,33.8,33.8,33.8
				c17.9,0,32.5-13.9,33.7-31.4C367.2,291.9,363,300.6,352.9,299.3z"/>
			<linearGradient id="SVGID_70_" gradientUnits="userSpaceOnUse" x1="341.7147" y1="288.8282" x2="301.3203" y2="265.8014">
				<stop  offset="0" style="stop-color:#DEB000"/>
				<stop  offset="1" style="stop-color:#A88236"/>
			</linearGradient>
			<path class="st72" d="M335,251.2c-18.7,0-33.8,15.1-33.8,33.8c0,18.5,14.9,33.6,33.4,33.8c-18.1-0.2-32.8-15-32.8-33.2
				c0-18.3,14.9-33.2,33.2-33.2c18.3,0,33.2,14.9,33.2,33.2c0,18.2-14.6,33-32.8,33.2c18.5-0.2,33.4-15.3,33.4-33.8
				C368.8,266.3,353.7,251.2,335,251.2z"/>
		</g>
		<path class="st8" d="M363.2,284.9c-6-2.9-11.6-6.7-16.5-11.7c-4.9-4.9-8.8-10.5-11.7-16.5l0,0c-2.9,6-6.8,11.6-11.8,16.6
			c-4.9,4.9-10.5,8.8-16.4,11.7c6,2.9,11.6,6.7,16.5,11.7c5,5,8.9,10.6,11.7,16.6l0.1-0.1c2.9-5.9,6.7-11.5,11.7-16.4
			c4.9-4.9,10.5-8.8,16.4-11.7L363.2,284.9L363.2,284.9z"/>
		<g>
			<linearGradient id="SVGID_71_" gradientUnits="userSpaceOnUse" x1="335.2504" y1="273.6115" x2="335.2504" y2="296.8969">
				<stop  offset="0" style="stop-color:#FAC900"/>
				<stop  offset="1" style="stop-color:#BA963A"/>
			</linearGradient>
			<path class="st73" d="M335.7,282.1c-0.2,0-0.5-0.1-1.1-0.1H334v2.2h0.8c0.6,0,1,0,1.2-0.1c0.2-0.1,0.3-0.2,0.5-0.4
				c0.1-0.2,0.2-0.4,0.2-0.6c0-0.3-0.1-0.5-0.2-0.7C336.2,282.3,336,282.2,335.7,282.1z"/>
			<linearGradient id="SVGID_72_" gradientUnits="userSpaceOnUse" x1="342.0439" y1="273.6115" x2="342.0439" y2="296.8969">
				<stop  offset="0" style="stop-color:#FAC900"/>
				<stop  offset="1" style="stop-color:#BA963A"/>
			</linearGradient>
			<path class="st74" d="M342.5,282.1c-0.2,0-0.5-0.1-1.1-0.1h-0.7v2.2h0.8c0.6,0,1,0,1.2-0.1c0.2-0.1,0.3-0.2,0.5-0.4
				c0.1-0.2,0.2-0.4,0.2-0.6c0-0.3-0.1-0.5-0.2-0.7C343,282.3,342.8,282.2,342.5,282.1z"/>
			<linearGradient id="SVGID_73_" gradientUnits="userSpaceOnUse" x1="327.9937" y1="273.6141" x2="327.9937" y2="296.8938">
				<stop  offset="0" style="stop-color:#FAC900"/>
				<stop  offset="1" style="stop-color:#BA963A"/>
			</linearGradient>
			<polygon class="st75" points="327,285.5 329,285.5 328,282.6 			"/>
			<linearGradient id="SVGID_74_" gradientUnits="userSpaceOnUse" x1="335" y1="273.6134" x2="335" y2="296.894">
				<stop  offset="0" style="stop-color:#FAC900"/>
				<stop  offset="1" style="stop-color:#BA963A"/>
			</linearGradient>
			<path class="st76" d="M343,273.5H327c-2,0-3.5,1.7-3.5,3.8v15.3c0,2.1,1.6,3.8,3.5,3.8H343c2,0,3.5-1.7,3.5-3.8v-15.3
				C346.5,275.2,344.9,273.5,343,273.5z M330.1,288.5l-0.6-1.8h-2.9l-0.6,1.8h-1.6l2.8-7.7h1.6l2.9,7.7H330.1z M337.8,284.4
				c-0.2,0.3-0.4,0.6-0.6,0.8c-0.2,0.2-0.5,0.3-0.8,0.4c-0.4,0.1-0.9,0.1-1.5,0.1h-1v2.9h-1.5v-7.7h2.4c0.9,0,1.5,0,1.8,0.1
				c0.4,0.1,0.8,0.4,1,0.8c0.3,0.4,0.4,0.9,0.4,1.5C338.1,283.6,338,284,337.8,284.4z M344.6,284.4c-0.2,0.3-0.4,0.6-0.6,0.8
				c-0.2,0.2-0.5,0.3-0.8,0.4c-0.4,0.1-0.9,0.1-1.5,0.1h-1v2.9h-1.5v-7.7h2.4c0.9,0,1.5,0,1.8,0.1c0.4,0.1,0.8,0.4,1,0.8
				c0.3,0.4,0.4,0.9,0.4,1.5C344.9,283.6,344.8,284,344.6,284.4z"/>
		</g>
	</g>
	<g>
		<g>
			<linearGradient id="SVGID_75_" gradientUnits="userSpaceOnUse" x1="305" y1="577.7392" x2="305" y2="505.7812">
				<stop  offset="0" style="stop-color:#FAC900"/>
				<stop  offset="1" style="stop-color:#FFCC00"/>
			</linearGradient>
			<circle class="st77" cx="305" cy="545" r="50"/>
			<linearGradient id="SVGID_76_" gradientUnits="userSpaceOnUse" x1="256.4624" y1="545" x2="353.5352" y2="545">
				<stop  offset="0" style="stop-color:#F7DD00"/>
				<stop  offset="1" style="stop-color:#FFF8B8"/>
			</linearGradient>
			<circle class="st78" cx="305" cy="545" r="48.5"/>
			<circle class="st2" cx="305" cy="545" r="43.7"/>
			<linearGradient id="SVGID_77_" gradientUnits="userSpaceOnUse" x1="304.965" y1="545.001" x2="240.0803" y2="546.9525">
				<stop  offset="0" style="stop-color:#F7DD00"/>
				<stop  offset="1" style="stop-color:#FFF8B8"/>
			</linearGradient>
			<path class="st79" d="M308.1,591.2c-25.5,0-46.2-20.7-46.2-46.2s20.7-46.2,46.2-46.2c5.6,0,10.9,1,15.8,2.8
				c-5.8-2.5-12.2-3.9-18.9-3.9c-26.1,0-47.3,21.2-47.3,47.3s21.2,47.3,47.3,47.3c6.7,0,13.1-1.4,18.9-3.9
				C319,590.2,313.7,591.2,308.1,591.2z"/>
			<circle class="st4" cx="305" cy="545" r="42.3"/>
			<linearGradient id="SVGID_78_" gradientUnits="userSpaceOnUse" x1="337.555" y1="542.1055" x2="225.1041" y2="552.1067">
				<stop  offset="0" style="stop-color:#FAC900"/>
				<stop  offset="1" style="stop-color:#BA963A"/>
			</linearGradient>
			<circle class="st80" cx="305" cy="545" r="42.3"/>
			<linearGradient id="SVGID_79_" gradientUnits="userSpaceOnUse" x1="315.1117" y1="581.4224" x2="299.4848" y2="532.8889">
				<stop  offset="0" style="stop-color:#FAC900"/>
				<stop  offset="1" style="stop-color:#BA963A"/>
			</linearGradient>
			<path class="st81" d="M327.3,562.8c-16.5-2.1-39.8-46.8-64.5-21.3c-0.1,1.1-0.1,2.3-0.1,3.5c0,23.3,18.9,42.3,42.3,42.3
				c22.3,0,40.6-17.3,42.2-39.3C345.3,553.6,340,564.5,327.3,562.8z"/>
			<linearGradient id="SVGID_80_" gradientUnits="userSpaceOnUse" x1="313.3935" y1="549.785" x2="262.9007" y2="521.0017">
				<stop  offset="0" style="stop-color:#DEB000"/>
				<stop  offset="1" style="stop-color:#A88236"/>
			</linearGradient>
			<path class="st82" d="M305,502.7c-23.3,0-42.3,18.9-42.3,42.3c0,23.2,18.6,42,41.7,42.3c-22.7-0.3-41-18.8-41-41.5
				c0-22.9,18.6-41.5,41.5-41.5c22.9,0,41.5,18.6,41.5,41.5c0,22.7-18.3,41.2-41,41.5c23.1-0.3,41.7-19.1,41.7-42.3
				C347.3,521.7,328.3,502.7,305,502.7z"/>
		</g>
		<path class="st8" d="M340.2,544.9c-7.5-3.6-14.5-8.4-20.6-14.6c-6.2-6.2-11-13.2-14.6-20.6l0,0c-3.6,7.5-8.5,14.6-14.7,20.8
			c-6.2,6.2-13.1,11-20.5,14.6c7.5,3.6,14.4,8.4,20.6,14.6c6.2,6.2,11.1,13.2,14.6,20.7l0.1-0.1c3.6-7.4,8.4-14.3,14.6-20.5
			c6.1-6.1,13.1-11,20.5-14.6L340.2,544.9L340.2,544.9z"/>
		<g>
			<linearGradient id="SVGID_81_" gradientUnits="userSpaceOnUse" x1="305.0004" y1="528.1249" x2="305.0004" y2="560.0552">
				<stop  offset="0" style="stop-color:#FAC900"/>
				<stop  offset="1" style="stop-color:#BA963A"/>
			</linearGradient>
			<path class="st83" d="M291.8,557.8c0.1,1.1,1,2,2.1,2h22.2c1.1,0,2.1-0.9,2.1-2l0.7-11.3h-27.8L291.8,557.8z M312.3,550.3
				c0-0.6,0.3-1,0.8-1c0.4,0,0.8,0.5,0.8,1v6.1c0,0.6-0.3,1-0.8,1c-0.4,0-0.8-0.5-0.8-1V550.3z M306.9,550.3c0-0.6,0.3-1,0.8-1
				c0.4,0,0.8,0.5,0.8,1v6.1c0,0.6-0.3,1-0.8,1c-0.4,0-0.8-0.5-0.8-1V550.3z M301.6,550.3c0-0.6,0.3-1,0.8-1c0.4,0,0.8,0.5,0.8,1
				v6.1c0,0.6-0.3,1-0.8,1c-0.4,0-0.8-0.5-0.8-1V550.3z M296.2,550.3c0-0.6,0.3-1,0.8-1c0.4,0,0.8,0.5,0.8,1v6.1c0,0.6-0.3,1-0.8,1
				c-0.4,0-0.8-0.5-0.8-1V550.3z"/>
			<linearGradient id="SVGID_82_" gradientUnits="userSpaceOnUse" x1="296.1069" y1="528.1237" x2="296.1069" y2="560.0562">
				<stop  offset="0" style="stop-color:#FAC900"/>
				<stop  offset="1" style="stop-color:#BA963A"/>
			</linearGradient>
			<path class="st84" d="M302.7,545l-2.1-2.1c-0.4-0.4-0.6-0.9-0.6-1.4s0.2-1,0.6-1.4l0.6-0.6h-11.2c-0.6,0-1,0.5-1,1v4
				c0,0.6,0.5,1,1,1h13.4C303.1,545.4,302.8,545.2,302.7,545z"/>
			<linearGradient id="SVGID_83_" gradientUnits="userSpaceOnUse" x1="312.9731" y1="528.1237" x2="312.9731" y2="560.0562">
				<stop  offset="0" style="stop-color:#FAC900"/>
				<stop  offset="1" style="stop-color:#BA963A"/>
			</linearGradient>
			<path class="st85" d="M320.1,539.4h-9l-5.6,5.6c-0.2,0.2-0.4,0.3-0.6,0.4h15.2c0.6,0,1-0.5,1-1v-4
				C321.1,539.9,320.6,539.4,320.1,539.4z"/>
			<linearGradient id="SVGID_84_" gradientUnits="userSpaceOnUse" x1="309.3873" y1="528.1254" x2="309.3873" y2="560.0527">
				<stop  offset="0" style="stop-color:#FAC900"/>
				<stop  offset="1" style="stop-color:#BA963A"/>
			</linearGradient>
			<path class="st86" d="M301.2,542.2l2.1,2.1c0.4,0.4,1,0.4,1.4,0l12.7-12.7c0.4-0.4,0.4-1,0-1.4l-2.1-2.1c-0.4-0.4-1-0.4-1.4,0
				l-12.7,12.7C300.8,541.2,300.8,541.8,301.2,542.2z M303.9,540.5c0.6,0,1.1,0.5,1.1,1.1c0,0.6-0.5,1.1-1.1,1.1
				c-0.6,0-1.1-0.5-1.1-1.1C302.8,541,303.3,540.5,303.9,540.5z"/>
		</g>
	</g>
	<g>
		<g>
			<linearGradient id="SVGID_85_" gradientUnits="userSpaceOnUse" x1="214.5498" y1="461.0536" x2="214.5498" y2="403.488">
				<stop  offset="0" style="stop-color:#FAC900"/>
				<stop  offset="1" style="stop-color:#FFCC00"/>
			</linearGradient>
			<circle class="st87" cx="214.5" cy="434.9" r="40"/>
			<linearGradient id="SVGID_86_" gradientUnits="userSpaceOnUse" x1="175.7204" y1="434.8626" x2="253.3781" y2="434.8626">
				<stop  offset="0" style="stop-color:#F7DD00"/>
				<stop  offset="1" style="stop-color:#FFF8B8"/>
			</linearGradient>
			<circle class="st88" cx="214.5" cy="434.9" r="38.8"/>
			<circle class="st2" cx="214.6" cy="434.9" r="34.9"/>
			<linearGradient id="SVGID_87_" gradientUnits="userSpaceOnUse" x1="214.5218" y1="434.8635" x2="162.6137" y2="436.4247">
				<stop  offset="0" style="stop-color:#F7DD00"/>
				<stop  offset="1" style="stop-color:#FFF8B8"/>
			</linearGradient>
			<path class="st89" d="M217,471.8c-20.4,0-36.9-16.5-36.9-36.9c0-20.4,16.5-36.9,36.9-36.9c4.4,0,8.7,0.8,12.7,2.2
				c-4.6-2-9.8-3.1-15.1-3.1c-20.9,0-37.9,16.9-37.9,37.9c0,20.9,16.9,37.9,37.9,37.9c5.4,0,10.5-1.1,15.1-3.1
				C225.7,471,221.5,471.8,217,471.8z"/>
			<circle class="st4" cx="214.5" cy="434.9" r="33.8"/>
			<linearGradient id="SVGID_88_" gradientUnits="userSpaceOnUse" x1="240.5941" y1="432.5473" x2="150.634" y2="440.5481">
				<stop  offset="0" style="stop-color:#FAC900"/>
				<stop  offset="1" style="stop-color:#BA963A"/>
			</linearGradient>
			<circle class="st90" cx="214.5" cy="434.9" r="33.8"/>
			<linearGradient id="SVGID_89_" gradientUnits="userSpaceOnUse" x1="222.6395" y1="464.0003" x2="210.1382" y2="425.174">
				<stop  offset="0" style="stop-color:#FAC900"/>
				<stop  offset="1" style="stop-color:#BA963A"/>
			</linearGradient>
			<path class="st91" d="M232.4,449.1c-13.2-1.7-31.8-37.4-51.6-17c-0.1,0.9-0.1,1.8-0.1,2.8c0,18.7,15.1,33.8,33.8,33.8
				c17.9,0,32.5-13.9,33.7-31.4C246.8,441.8,242.6,450.4,232.4,449.1z"/>
			<linearGradient id="SVGID_90_" gradientUnits="userSpaceOnUse" x1="221.2647" y1="438.6911" x2="180.8705" y2="415.6644">
				<stop  offset="0" style="stop-color:#DEB000"/>
				<stop  offset="1" style="stop-color:#A88236"/>
			</linearGradient>
			<path class="st92" d="M214.5,401c-18.7,0-33.8,15.1-33.8,33.8c0,18.5,14.9,33.6,33.4,33.8c-18.1-0.2-32.8-15-32.8-33.2
				c0-18.3,14.9-33.2,33.2-33.2c18.3,0,33.2,14.9,33.2,33.2c0,18.2-14.6,33-32.8,33.2c18.5-0.2,33.4-15.3,33.4-33.8
				C248.4,416.2,233.2,401,214.5,401z"/>
		</g>
		<path class="st8" d="M242.7,434.8c-6-2.9-11.6-6.7-16.5-11.7c-4.9-4.9-8.8-10.5-11.7-16.5l0,0c-2.9,6-6.8,11.6-11.8,16.6
			c-4.9,4.9-10.5,8.8-16.4,11.7c6,2.9,11.6,6.7,16.5,11.7c5,5,8.9,10.6,11.7,16.6l0.1-0.1c2.9-5.9,6.7-11.5,11.7-16.4
			c4.9-4.9,10.5-8.8,16.4-11.7L242.7,434.8L242.7,434.8z"/>
		<g>
			<g>
				<linearGradient id="SVGID_91_" gradientUnits="userSpaceOnUse" x1="214.55" y1="426.7508" x2="214.55" y2="446.8069">
					<stop  offset="0" style="stop-color:#FAC900"/>
					<stop  offset="1" style="stop-color:#BA963A"/>
				</linearGradient>
				<path class="st93" d="M226,425.9h-22.9c-0.6,0-1.1,0.5-1.1,1.1v14.6h25v0.2h-25v-0.2v1.1c0,0.6,0.5,1.1,1.1,1.1H226
					c0.6,0,1.1-0.5,1.1-1.1V427C227.1,426.4,226.6,425.9,226,425.9z M225.8,440.4h-22.5v-13.2h22.5V440.4z M214.6,443.4
					c-0.3,0-0.5-0.2-0.5-0.5c0-0.3,0.2-0.5,0.5-0.5c0.3,0,0.5,0.2,0.5,0.5C215.1,443.2,214.8,443.4,214.6,443.4z"/>
				<linearGradient id="SVGID_92_" gradientUnits="userSpaceOnUse" x1="202.05" y1="426.7746" x2="202.05" y2="446.7987">
					<stop  offset="0" style="stop-color:#FAC900"/>
					<stop  offset="1" style="stop-color:#BA963A"/>
				</linearGradient>
				<polygon class="st94" points="202.1,441.6 202.1,441.6 202.1,441.6 				"/>
				<linearGradient id="SVGID_93_" gradientUnits="userSpaceOnUse" x1="214.55" y1="426.7501" x2="214.55" y2="446.8072">
					<stop  offset="0" style="stop-color:#FAC900"/>
					<stop  offset="1" style="stop-color:#BA963A"/>
				</linearGradient>
				<circle class="st95" cx="214.5" cy="442.9" r="0.4"/>
				<linearGradient id="SVGID_94_" gradientUnits="userSpaceOnUse" x1="214.55" y1="426.7506" x2="214.55" y2="446.807">
					<stop  offset="0" style="stop-color:#FAC900"/>
					<stop  offset="1" style="stop-color:#BA963A"/>
				</linearGradient>
				<polygon class="st96" points="211.9,444 211,445.7 218.1,445.7 217.2,444 				"/>
				<linearGradient id="SVGID_95_" gradientUnits="userSpaceOnUse" x1="214.5495" y1="426.7499" x2="214.5495" y2="446.807">
					<stop  offset="0" style="stop-color:#FAC900"/>
					<stop  offset="1" style="stop-color:#BA963A"/>
				</linearGradient>
				<path class="st97" d="M219.6,445.9h-10c-0.2,0-0.4,0.2-0.4,0.4c0,0.2,0.2,0.4,0.4,0.4h10c0.2,0,0.4-0.2,0.4-0.4
					C219.9,446.1,219.7,445.9,219.6,445.9z"/>
			</g>
		</g>
	</g>
	<g>
		<g>
			<linearGradient id="SVGID_96_" gradientUnits="userSpaceOnUse" x1="418.4567" y1="387.7796" x2="418.4567" y2="302.3473">
				<stop  offset="0" style="stop-color:#FAC900"/>
				<stop  offset="1" style="stop-color:#FFCC00"/>
			</linearGradient>
			<circle class="st98" cx="418.5" cy="348.9" r="59.4"/>
			<linearGradient id="SVGID_97_" gradientUnits="userSpaceOnUse" x1="360.8303" y1="348.9114" x2="476.0801" y2="348.9114">
				<stop  offset="0" style="stop-color:#F7DD00"/>
				<stop  offset="1" style="stop-color:#FFF8B8"/>
			</linearGradient>
			<circle class="st99" cx="418.5" cy="348.9" r="57.6"/>
			<path class="st2" d="M470.3,348.9c0-28.6-23.2-51.8-51.8-51.8c-28.6,0-51.8,23.2-51.8,51.8c0,28.6,23.2,51.8,51.8,51.8
				C447.1,400.7,470.3,377.5,470.3,348.9z"/>
			<linearGradient id="SVGID_98_" gradientUnits="userSpaceOnUse" x1="418.4141" y1="348.9126" x2="341.3812" y2="351.2295">
				<stop  offset="0" style="stop-color:#F7DD00"/>
				<stop  offset="1" style="stop-color:#FFF8B8"/>
			</linearGradient>
			<path class="st100" d="M422.1,403.7c-30.3,0-54.8-24.5-54.8-54.8c0-30.3,24.5-54.8,54.8-54.8c6.6,0,12.9,1.2,18.8,3.3
				c-6.9-3-14.5-4.7-22.5-4.7c-31,0-56.2,25.2-56.2,56.2c0,31,25.2,56.2,56.2,56.2c8,0,15.6-1.7,22.5-4.7
				C435.1,402.6,428.7,403.7,422.1,403.7z"/>
			<circle class="st4" cx="418.5" cy="348.9" r="50.2"/>
			<linearGradient id="SVGID_99_" gradientUnits="userSpaceOnUse" x1="457.1076" y1="345.4737" x2="323.6" y2="357.3476">
				<stop  offset="0" style="stop-color:#FAC900"/>
				<stop  offset="1" style="stop-color:#BA963A"/>
			</linearGradient>
			<circle class="st101" cx="418.5" cy="348.9" r="50.2"/>
			<linearGradient id="SVGID_100_" gradientUnits="userSpaceOnUse" x1="430.4615" y1="392.153" x2="411.9091" y2="334.5335">
				<stop  offset="0" style="stop-color:#FAC900"/>
				<stop  offset="1" style="stop-color:#BA963A"/>
			</linearGradient>
			<path class="st102" d="M444.9,370.1c-19.6-2.5-47.3-55.5-76.5-25.3c-0.1,1.4-0.2,2.7-0.2,4.1c0,27.7,22.5,50.2,50.2,50.2
				c26.5,0,48.2-20.6,50.1-46.6C466.3,359.2,460,372,444.9,370.1z"/>
			<linearGradient id="SVGID_101_" gradientUnits="userSpaceOnUse" x1="428.4215" y1="354.5924" x2="368.4735" y2="320.4192">
				<stop  offset="0" style="stop-color:#DEB000"/>
				<stop  offset="1" style="stop-color:#A88236"/>
			</linearGradient>
			<path class="st103" d="M418.5,298.7c-27.7,0-50.2,22.5-50.2,50.2c0,27.5,22.1,49.8,49.6,50.2c-26.9-0.3-48.6-22.3-48.6-49.3
				c0-27.2,22.1-49.3,49.3-49.3c27.2,0,49.3,22.1,49.3,49.3c0,27-21.7,48.9-48.6,49.3c27.4-0.3,49.6-22.7,49.6-50.2
				C468.6,321.2,446.2,298.7,418.5,298.7z"/>
		</g>
		<path class="st8" d="M448,319.2c-9.3,3.3-19.2,5.1-29.6,5.1c-10.4,0-20.3-1.8-29.6-5.1h-0.1c3.3,9.3,5.1,19.4,5.1,29.8
			c0,10.3-1.8,20.3-5,29.5c9.2-3.3,19.2-5.1,29.6-5.1c10.4,0,20.4,1.8,29.7,5.1l0-0.1c-3.2-9.2-5-19.1-5-29.4
			c0-10.3,1.8-20.2,5-29.4l0-0.4H448z"/>
		<g>
			<linearGradient id="SVGID_102_" gradientUnits="userSpaceOnUse" x1="414.9951" y1="327.4193" x2="414.9951" y2="372.6894">
				<stop  offset="0" style="stop-color:#FAC900"/>
				<stop  offset="1" style="stop-color:#BA963A"/>
			</linearGradient>
			<path class="st104" d="M433.3,349.4h-1.9c-0.2-1.3-0.5-2.6-1-3.8l1.6-0.9c0.9-0.5,1.2-1.7,0.7-2.7l-0.4-0.7
				c-0.5-0.9-1.7-1.2-2.7-0.7l-1.6,0.9c-0.8-1.1-1.7-2-2.8-2.8l0.9-1.5c0.5-0.9,0.2-2.1-0.7-2.7l-0.7-0.4c-0.9-0.5-2.1-0.2-2.7,0.7
				l-0.8,1.5c-1.2-0.5-2.5-0.8-3.8-1v-1.9c0-1.1-0.9-1.9-1.9-1.9h-0.8c-1.1,0-1.9,0.9-1.9,1.9v1.9c-1.4,0.2-2.7,0.5-3.9,1l-0.9-1.6
				c-0.5-0.9-1.7-1.2-2.7-0.7l-0.7,0.4c-0.9,0.5-1.3,1.7-0.7,2.7l0.9,1.6c-1.1,0.8-2,1.8-2.9,2.9l-1.6-0.9c-0.9-0.5-2.1-0.2-2.6,0.7
				l-0.4,0.7c-0.5,0.9-0.2,2.1,0.7,2.7l1.6,0.9c-0.5,1.2-0.8,2.6-1,3.9h-1.9c-1.1,0-1.9,0.9-1.9,1.9l0,0.8c0,1.1,0.9,1.9,1.9,1.9
				h1.9c0.2,1.4,0.6,2.7,1.1,3.9l-1.7,1c-0.9,0.5-1.2,1.7-0.7,2.6l0.4,0.7c0.5,0.9,1.7,1.2,2.7,0.7l1.7-1c0.8,1,1.8,2,2.8,2.8
				l-1,1.8c-0.5,0.9-0.2,2.1,0.7,2.6l0.7,0.4c0.9,0.5,2.1,0.2,2.7-0.7l1-1.8c1.2,0.5,2.5,0.8,3.9,1v1.9c0,1.1,0.9,1.9,1.9,1.9h0.8
				c1.1,0,1.9-0.9,1.9-1.9v-1.9c1.3-0.2,2.6-0.5,3.8-1l1,1.7c0.5,0.9,1.7,1.2,2.7,0.7l0.7-0.4c0.9-0.5,1.2-1.7,0.7-2.7l-1-1.7
				c1-0.8,1.9-1.7,2.7-2.8l1.7,1c0.9,0.5,2.1,0.2,2.7-0.7l0.4-0.7c0.5-0.9,0.2-2.1-0.7-2.7l-1.7-1c0.5-1.2,0.8-2.5,1-3.8h1.9
				c1.1,0,1.9-0.9,1.9-1.9v-0.8C435.3,350.3,434.4,349.4,433.3,349.4z M413.5,338c0.5,0,1-0.1,1.5-0.1c0.7,0,1.3,0.6,1.3,1.3
				c0,0.7-0.6,1.3-1.3,1.3c-0.4,0-0.8,0-1.2,0.1l0,0c0,0-0.1,0-0.1,0c-0.7,0-1.2-0.5-1.3-1.2C412.3,338.7,412.8,338,413.5,338z
				 M403.8,351.6L403.8,351.6c0,0.7-0.6,1.3-1.3,1.3c-0.7,0-1.3-0.6-1.3-1.3c0-5.5,3.2-10.2,7.8-12.4c0.6-0.3,1.4,0,1.7,0.6
				c0.3,0.6,0,1.4-0.6,1.7C406.4,343.4,403.8,347.2,403.8,351.6z M415,357.9c-3.4,0-6.2-2.8-6.2-6.2c0-3.4,2.8-6.2,6.2-6.2
				c3.4,0,6.2,2.8,6.2,6.2C421.2,355.1,418.4,357.9,415,357.9z M428.1,356c-1,3.1-3.1,5.6-5.8,7.3c-0.2,0.1-0.5,0.2-0.7,0.2
				c-0.4,0-0.8-0.2-1.1-0.6c-0.4-0.6-0.2-1.4,0.4-1.8c2.2-1.4,3.9-3.5,4.7-6h0c0.2-0.7,0.9-1,1.6-0.8
				C427.9,354.6,428.3,355.4,428.1,356z"/>
			<linearGradient id="SVGID_103_" gradientUnits="userSpaceOnUse" x1="430.4071" y1="327.4191" x2="430.4071" y2="372.69">
				<stop  offset="0" style="stop-color:#FAC900"/>
				<stop  offset="1" style="stop-color:#BA963A"/>
			</linearGradient>
			<path class="st105" d="M440.9,341.7l-1.6-0.3c0-0.4,0-0.9,0-1.3l1.7-0.3c0.9-0.2,1.4-1,1.3-1.9c-0.2-0.9-1-1.4-1.9-1.3l-1.7,0.3
				c-0.2-0.5-0.3-1-0.5-1.4l1.4-0.9c0.7-0.5,0.9-1.5,0.5-2.2c-0.5-0.7-1.5-0.9-2.2-0.5l-1.4,0.9c-0.3-0.3-0.6-0.7-0.9-1l0.9-1.3
				c0.5-0.7,0.3-1.7-0.4-2.2c-0.7-0.5-1.7-0.3-2.2,0.4l-0.9,1.3c-0.5-0.2-0.9-0.5-1.4-0.6l0.3-1.5c0.2-0.9-0.4-1.7-1.2-1.9
				c-0.9-0.2-1.7,0.4-1.9,1.2l-0.3,1.5c-0.5,0-0.9-0.1-1.4-0.1l-0.3-1.4c-0.2-0.9-1-1.4-1.9-1.3c-0.9,0.2-1.4,1-1.3,1.9l0.3,1.4
				c-0.5,0.2-1,0.3-1.5,0.6l-0.7-1.1c-0.5-0.7-1.5-0.9-2.2-0.5c-0.7,0.4-0.9,1.3-0.5,2c0.8,0.8,1.3,1.8,1.3,3c0,0,0.1,0,0.1,0
				c0.9-1.2,2.2-1.9,3.7-1.9c0.8,0,1.6,0.2,2.2,0.6l0.7,0.4c2.1,1.2,2.8,3.8,1.8,5.9c0,0,0.1,0.1,0.1,0.1c0.6-0.3,1.3-0.5,2-0.5
				c1.6,0,3.1,0.9,3.9,2.3l0.4,0.7c1.2,2.1,0.6,4.7-1.4,6c0,0,0,0,0,0.1c1.7,0.1,3.1,1.1,3.8,2.5l0.2,0.1c0.4,0.2,0.8,0.3,1.2,0.3
				c0.4-0.1,0.8-0.3,1-0.7c0.5-0.7,0.3-1.7-0.4-2.2l-1.3-0.9c0.2-0.5,0.4-0.9,0.6-1.4l1.6,0.3c0.2,0,0.4,0,0.6,0
				c0.6-0.1,1.1-0.6,1.3-1.2C442.3,342.7,441.7,341.9,440.9,341.7z"/>
		</g>
	</g>
	<rect y="0" class="st106" width="640" height="645.6"/>
</g>
<g>
</g>
<g>
</g>
<g>
</g>
<g>
</g>
<g>
</g>
<g>
</g>
<g>
</g>
<g>
</g>
<g>
</g>
<g>
</g>
<g>
</g>
<g>
</g>
<g>
</g>
<g>
</g>
<g>
</g>
</svg>
