<?xml version="1.0" encoding="utf-8"?>
<!-- Generator: Adobe Illustrator 17.0.0, SVG Export Plug-In . SVG Version: 6.00 Build 0)  -->
<!DOCTYPE svg PUBLIC "-//W3C//DTD SVG 1.1//EN" "http://www.w3.org/Graphics/SVG/1.1/DTD/svg11.dtd">
<svg version="1.1" id="Layer_1" xmlns="http://www.w3.org/2000/svg" xmlns:xlink="http://www.w3.org/1999/xlink" x="0px" y="0px"
	 width="640px" height="645.6px" viewBox="0 0 640 645.6" style="enable-background:new 0 0 640 645.6;" xml:space="preserve">
<style type="text/css">
	.st0{fill:url(#SVGID_1_);}
	.st1{fill:url(#SVGID_2_);}
	.st2{fill:#FFF171;}
	.st3{fill:url(#SVGID_3_);}
	.st4{fill:#FAC900;}
	.st5{fill:url(#SVGID_4_);}
	.st6{fill:url(#SVGID_5_);}
	.st7{fill:none;}
</style>
<symbol  id="coin" viewBox="-15 -15 30 30">
	<g>
		<linearGradient id="SVGID_1_" gradientUnits="userSpaceOnUse" x1="-3.544926e-04" y1="-9.8218" x2="-3.544917e-04" y2="11.7652">
			<stop  offset="0" style="stop-color:#FAC900"/>
			<stop  offset="1" style="stop-color:#FFCC00"/>
		</linearGradient>
		<path class="st0" d="M15,0c0,8.3-6.7,15-15,15c-8.3,0-15-6.7-15-15c0-8.3,6.7-15,15-15C8.3-15,15-8.3,15,0z"/>
		<linearGradient id="SVGID_2_" gradientUnits="userSpaceOnUse" x1="-14.5614" y1="-1.232031e-03" x2="14.5596" y2="-1.232031e-03">
			<stop  offset="0" style="stop-color:#F7DD00"/>
			<stop  offset="1" style="stop-color:#FFF8B8"/>
		</linearGradient>
		<path class="st1" d="M14.6,0C14.6,8,8,14.6,0,14.6C-8,14.6-14.6,8-14.6,0C-14.6-8-8-14.6,0-14.6C8-14.6,14.6-8,14.6,0z"/>
		<path class="st2" d="M13.1,0c0,7.2-5.9,13.1-13.1,13.1c-7.2,0-13.1-5.9-13.1-13.1c0-7.2,5.9-13.1,13.1-13.1
			C7.2-13.1,13.1-7.2,13.1,0z"/>
		<linearGradient id="SVGID_3_" gradientUnits="userSpaceOnUse" x1="-1.122819e-02" y1="-1.800661e-03" x2="-19.4757" y2="-0.5872">
			<stop  offset="0" style="stop-color:#F7DD00"/>
			<stop  offset="1" style="stop-color:#FFF8B8"/>
		</linearGradient>
		<path class="st3" d="M0.9-13.9c-7.6,0-13.8,6.2-13.8,13.8c0,7.6,6.2,13.8,13.8,13.8c1.7,0,3.3-0.3,4.7-0.8C3.9,13.8,2,14.2,0,14.2
			c-7.8,0-14.2-6.4-14.2-14.2c0-7.8,6.4-14.2,14.2-14.2c2,0,3.9,0.4,5.7,1.2C4.2-13.6,2.6-13.9,0.9-13.9z"/>
		<path class="st4" d="M12.7,0C12.7,7,7,12.7,0,12.7C-7,12.7-12.7,7-12.7,0C-12.7-7-7-12.7,0-12.7C7-12.7,12.7-7,12.7,0z"/>
		<linearGradient id="SVGID_4_" gradientUnits="userSpaceOnUse" x1="9.7666" y1="0.8672" x2="-23.969" y2="-2.1332">
			<stop  offset="0" style="stop-color:#FAC900"/>
			<stop  offset="1" style="stop-color:#BA963A"/>
		</linearGradient>
		<path class="st5" d="M12.7,0C12.7,7,7,12.7,0,12.7C-7,12.7-12.7,7-12.7,0C-12.7-7-7-12.7,0-12.7C7-12.7,12.7-7,12.7,0z"/>
		<linearGradient id="SVGID_5_" gradientUnits="userSpaceOnUse" x1="2.5179" y1="-1.4367" x2="-12.63" y2="7.1983">
			<stop  offset="0" style="stop-color:#DEB000"/>
			<stop  offset="1" style="stop-color:#A88236"/>
		</linearGradient>
		<path class="st6" d="M0,12.7C-7,12.7-12.7,7-12.7,0c0-7,5.6-12.6,12.5-12.7C-7-12.6-12.5-7.1-12.5-0.2c0,6.9,5.6,12.5,12.4,12.5
			c6.9,0,12.5-5.6,12.5-12.5c0-6.8-5.5-12.4-12.3-12.4C7.1-12.6,12.7-7,12.7,0C12.7,7,7,12.7,0,12.7z"/>
	</g>
</symbol>
<g id="coin.svg">
	
		<use xlink:href="#coin"  width="30" height="30" x="-15" y="-15" transform="matrix(1 0 0 -1 620.1104 298.8787)" style="overflow:visible;"/>
	
		<use xlink:href="#coin"  width="30" height="30" x="-15" y="-15" transform="matrix(1 0 0 -1 546.901 126.7378)" style="overflow:visible;"/>
	
		<use xlink:href="#coin"  width="30" height="30" x="-15" y="-15" transform="matrix(1 0 0 -1 428.1832 152.46)" style="overflow:visible;"/>
	
		<use xlink:href="#coin"  width="30" height="30" x="-15" y="-15" transform="matrix(1 0 0 -1 395.5357 97.0583)" style="overflow:visible;"/>
	
		<use xlink:href="#coin"  width="30" height="30" x="-15" y="-15" transform="matrix(1 0 0 -1 586.4736 222.7014)" style="overflow:visible;"/>
	
		<use xlink:href="#coin"  width="30" height="30" x="-15" y="-15" transform="matrix(1 0 0 -1 575.5911 277.1137)" style="overflow:visible;"/>
	
		<use xlink:href="#coin"  width="30" height="30" x="-15" y="-15" transform="matrix(1 0 0 -1 495.4566 361.2055)" style="overflow:visible;"/>
	
		<use xlink:href="#coin"  width="30" height="30" x="-15" y="-15" transform="matrix(1 0 0 -1 577.5698 472.9982)" style="overflow:visible;"/>
	
		<use xlink:href="#coin"  width="30" height="30" x="-15" y="-15" transform="matrix(1 0 0 -1 585.4843 601.6091)" style="overflow:visible;"/>
	
		<use xlink:href="#coin"  width="30" height="30" x="-15" y="-15" transform="matrix(1 0 0 -1 465.7771 624.3634)" style="overflow:visible;"/>
	
		<use xlink:href="#coin"  width="30" height="30" x="-15" y="-15" transform="matrix(1 0 0 -1 421.2579 474.9768)" style="overflow:visible;"/>
	
		<use xlink:href="#coin"  width="30" height="30" x="-15" y="-15" transform="matrix(1 0 0 -1 372.7815 556.1006)" style="overflow:visible;"/>
	
		<use xlink:href="#coin"  width="30" height="30" x="-15" y="-15" transform="matrix(1 0 0 -1 331.2303 358.2376)" style="overflow:visible;"/>
	
		<use xlink:href="#coin"  width="30" height="30" x="-15" y="-15" transform="matrix(1 0 0 -1 318.3691 407.7033)" style="overflow:visible;"/>
	
		<use xlink:href="#coin"  width="30" height="30" x="-15" y="-15" transform="matrix(1 0 0 -1 277.8072 412.6499)" style="overflow:visible;"/>
	
		<use xlink:href="#coin"  width="30" height="30" x="-15" y="-15" transform="matrix(1 0 0 -1 261.9782 317.6756)" style="overflow:visible;"/>
	
		<use xlink:href="#coin"  width="30" height="30" x="-15" y="-15" transform="matrix(1 0 0 -1 233.288 261.2847)" style="overflow:visible;"/>
	
		<use xlink:href="#coin"  width="30" height="30" x="-15" y="-15" transform="matrix(1 0 0 -1 209.5444 162.3531)" style="overflow:visible;"/>
	
		<use xlink:href="#coin"  width="30" height="30" x="-15" y="-15" transform="matrix(1 0 0 -1 158.1001 120.8019)" style="overflow:visible;"/>
	
		<use xlink:href="#coin"  width="30" height="30" x="-15" y="-15" transform="matrix(1 0 0 -1 123.474 169.2783)" style="overflow:visible;"/>
	<rect x="0" y="0" class="st7" width="640" height="645.6"/>
	
		<use xlink:href="#coin"  width="30" height="30" x="-15" y="-15" transform="matrix(1 0 0 -1 36.4143 199.9471)" style="overflow:visible;"/>
	
		<use xlink:href="#coin"  width="30" height="30" x="-15" y="-15" transform="matrix(1 0 0 -1 44.3288 385.9384)" style="overflow:visible;"/>
	
		<use xlink:href="#coin"  width="30" height="30" x="-15" y="-15" transform="matrix(1 0 0 -1 111.6022 457.1691)" style="overflow:visible;"/>
	
		<use xlink:href="#coin"  width="30" height="30" x="-15" y="-15" transform="matrix(1 0 0 -1 135.3458 565.9938)" style="overflow:visible;"/>
	
		<use xlink:href="#coin"  width="30" height="30" x="-15" y="-15" transform="matrix(1 0 0 -1 190.7475 584.7908)" style="overflow:visible;"/>
</g>
<g>
</g>
<g>
</g>
<g>
</g>
<g>
</g>
<g>
</g>
<g>
</g>
<g>
</g>
<g>
</g>
<g>
</g>
<g>
</g>
<g>
</g>
<g>
</g>
<g>
</g>
<g>
</g>
<g>
</g>
<g>
</g>
<g>
</g>
<g>
</g>
</svg>
