<?xml version="1.0" encoding="utf-8"?>
<!-- Generator: Adobe Illustrator 17.0.0, SVG Export Plug-In . SVG Version: 6.00 Build 0)  -->
<!DOCTYPE svg PUBLIC "-//W3C//DTD SVG 1.1//EN" "http://www.w3.org/Graphics/SVG/1.1/DTD/svg11.dtd">
<svg version="1.1" id="Layer_1" xmlns="http://www.w3.org/2000/svg" xmlns:xlink="http://www.w3.org/1999/xlink" x="0px" y="0px"
	 width="97.4px" height="97.4px" viewBox="0 0 97.4 97.4" style="enable-background:new 0 0 97.4 97.4;" xml:space="preserve">
<style type="text/css">
	.st0{fill:url(#SVGID_1_);}
	.st1{fill:url(#SVGID_2_);}
	.st2{fill:#FFF171;}
	.st3{fill:url(#SVGID_3_);}
	.st4{fill:#FAC900;}
	.st5{fill:url(#SVGID_4_);}
	.st6{fill:url(#SVGID_5_);}
	.st7{fill:url(#SVGID_6_);}
</style>
<g id="coin-fall-front.svg">
	<g>
		<linearGradient id="SVGID_1_" gradientUnits="userSpaceOnUse" x1="48.6832" y1="80.5602" x2="48.6832" y2="10.4973">
			<stop  offset="0" style="stop-color:#FAC900"/>
			<stop  offset="1" style="stop-color:#FFCC00"/>
		</linearGradient>
		<circle class="st0" cx="48.7" cy="48.7" r="48.7"/>
		<linearGradient id="SVGID_2_" gradientUnits="userSpaceOnUse" x1="1.4238" y1="48.6844" x2="95.9401" y2="48.6844">
			<stop  offset="0" style="stop-color:#F7DD00"/>
			<stop  offset="1" style="stop-color:#FFF8B8"/>
		</linearGradient>
		<circle class="st1" cx="48.7" cy="48.7" r="47.3"/>
		<circle class="st2" cx="48.7" cy="48.7" r="42.5"/>
		<linearGradient id="SVGID_3_" gradientUnits="userSpaceOnUse" x1="48.6483" y1="48.6855" x2="-14.5264" y2="50.5855">
			<stop  offset="0" style="stop-color:#F7DD00"/>
			<stop  offset="1" style="stop-color:#FFF8B8"/>
		</linearGradient>
		<path class="st3" d="M51.7,93.6c-24.8,0-44.9-20.1-44.9-44.9c0-24.8,20.1-44.9,44.9-44.9c5.4,0,10.6,1,15.4,2.7
			C61.5,4,55.2,2.6,48.7,2.6C23.2,2.6,2.6,23.2,2.6,48.7c0,25.4,20.6,46.1,46.1,46.1c6.6,0,12.8-1.4,18.4-3.8
			C62.3,92.7,57.1,93.6,51.7,93.6z"/>
		<circle class="st4" cx="48.7" cy="48.7" r="41.2"/>
		<linearGradient id="SVGID_4_" gradientUnits="userSpaceOnUse" x1="80.3808" y1="45.8652" x2="-29.1087" y2="55.603">
			<stop  offset="0" style="stop-color:#FAC900"/>
			<stop  offset="1" style="stop-color:#BA963A"/>
		</linearGradient>
		<circle class="st5" cx="48.7" cy="48.7" r="41.2"/>
		<linearGradient id="SVGID_5_" gradientUnits="userSpaceOnUse" x1="58.5283" y1="84.1468" x2="43.3135" y2="36.8931">
			<stop  offset="0" style="stop-color:#FAC900"/>
			<stop  offset="1" style="stop-color:#BA963A"/>
		</linearGradient>
		<path class="st6" d="M70.4,66C54.4,64,31.7,20.5,7.7,45.3c-0.1,1.1-0.1,2.2-0.1,3.4c0,22.7,18.4,41.2,41.2,41.2
			c21.7,0,39.6-16.9,41.1-38.2C87.9,57.1,82.8,67.6,70.4,66z"/>
		<linearGradient id="SVGID_6_" gradientUnits="userSpaceOnUse" x1="56.8554" y1="53.3434" x2="7.692" y2="25.318">
			<stop  offset="0" style="stop-color:#DEB000"/>
			<stop  offset="1" style="stop-color:#A88236"/>
		</linearGradient>
		<path class="st7" d="M48.7,7.5C25.9,7.5,7.5,26,7.5,48.7c0,22.6,18.1,40.9,40.6,41.2C26.1,89.6,8.3,71.6,8.3,49.4
			C8.3,27.1,26.4,9,48.7,9C71,9,89.1,27.1,89.1,49.4c0,22.1-17.8,40.1-39.9,40.4c22.5-0.3,40.6-18.6,40.6-41.2
			C89.8,26,71.4,7.5,48.7,7.5z"/>
	</g>
</g>
<g>
</g>
<g>
</g>
<g>
</g>
<g>
</g>
<g>
</g>
<g>
</g>
<g>
</g>
<g>
</g>
<g>
</g>
<g>
</g>
<g>
</g>
<g>
</g>
<g>
</g>
<g>
</g>
<g>
</g>
</svg>
