<?xml version="1.0" encoding="utf-8"?>
<!-- Generator: Adobe Illustrator 17.0.0, SVG Export Plug-In . SVG Version: 6.00 Build 0)  -->
<!DOCTYPE svg PUBLIC "-//W3C//DTD SVG 1.1//EN" "http://www.w3.org/Graphics/SVG/1.1/DTD/svg11.dtd">
<svg version="1.1" id="Layer_1" xmlns="http://www.w3.org/2000/svg" xmlns:xlink="http://www.w3.org/1999/xlink" x="0px" y="0px"
	 width="99.6px" height="70.8px" viewBox="0 0 99.6 70.8" style="enable-background:new 0 0 99.6 70.8;" xml:space="preserve"
	 preserveAspectRatio="xMidYMax">
<style type="text/css">
	.st0{fill:url(#SVGID_1_);}
	.st1{fill:url(#SVGID_2_);}
	.st2{fill:#DEB000;}
	.st3{fill:url(#SVGID_3_);}
	.st4{fill:url(#SVGID_4_);}
	.st5{fill:url(#SVGID_5_);}
	.st6{fill:url(#SVGID_6_);}
	.st7{fill:url(#SVGID_7_);}
	.st8{fill:url(#SVGID_8_);}
</style>
<g id="coin-fall.svg">
	<linearGradient id="SVGID_1_" gradientUnits="userSpaceOnUse" x1="49.7905" y1="23.4077" x2="49.7905" y2="71.8745">
		<stop  offset="0" style="stop-color:#FAC900"/>
		<stop  offset="1" style="stop-color:#BA963A"/>
	</linearGradient>
	<path class="st0" d="M49.8,63C22.3,63,0,48.9,0,31.5v7.8c0,17.4,22.3,31.5,49.8,31.5c27.5,0,49.8-14.1,49.8-31.5v-7.8
		C99.6,48.9,77.3,63,49.8,63z"/>
	<linearGradient id="SVGID_2_" gradientUnits="userSpaceOnUse" x1="49.2143" y1="77.7117" x2="49.2143" y2="59.7576">
		<stop  offset="0" style="stop-color:#FAC900"/>
		<stop  offset="1" style="stop-color:#BA963A"/>
	</linearGradient>
	<path class="st1" d="M73.8,66.9c0.4-0.2,0.9-0.3,1.3-0.5v-7.8c-0.4,0.2-0.9,0.3-1.3,0.5V66.9z M65.9,69.1c0.5-0.1,0.9-0.2,1.4-0.3
		V61c-0.5,0.1-0.9,0.2-1.4,0.3V69.1z M69.8,68.1c0.5-0.1,0.9-0.3,1.3-0.4v-7.8c-0.4,0.1-0.9,0.3-1.3,0.4V68.1z M85.5,61.2
		c0.4-0.3,0.8-0.6,1.2-0.8v-7.8c-0.4,0.3-0.8,0.6-1.2,0.8V61.2z M81.6,63.5c0.4-0.2,0.8-0.5,1.2-0.7V55c-0.4,0.2-0.8,0.5-1.2,0.7
		V63.5z M77.7,65.4c0.4-0.2,0.8-0.4,1.3-0.6V57c-0.4,0.2-0.8,0.4-1.3,0.6V65.4z M54.1,70.6c0.5,0,1-0.1,1.5-0.1v-7.8
		c-0.5,0-1,0.1-1.5,0.1V70.6z M93.4,54.5c0.4-0.5,0.8-1,1.1-1.4v-7.8c-0.4,0.5-0.7,1-1.1,1.4V54.5z M97.3,40.9v7.8
		c0.4-0.9,0.8-1.8,1.1-2.7v-7.8C98.1,39.1,97.8,40,97.3,40.9z M50.2,70.8c0.5,0,1,0,1.5-0.1v-7.8c-0.5,0-1,0-1.5,0V70.8z M58,70.3
		c0.5-0.1,1-0.1,1.4-0.1v-7.8c-0.5,0.1-1,0.1-1.4,0.1V70.3z M89.5,58.2c0.4-0.3,0.8-0.7,1.2-1v-7.8c-0.4,0.3-0.8,0.7-1.2,1V58.2z
		 M62,69.8c0.5-0.1,0.9-0.1,1.4-0.2v-7.8c-0.5,0.1-0.9,0.2-1.4,0.2V69.8z M34.6,69.3c0.5,0.1,1,0.2,1.5,0.3v-7.8
		c-0.5-0.1-1-0.2-1.5-0.3V69.3z M30.7,68.4c0.5,0.1,0.9,0.2,1.4,0.3v-7.8c-0.5-0.1-1-0.2-1.4-0.3V68.4z M38.5,69.9
		c0.5,0.1,1,0.2,1.5,0.2v-7.8c-0.5-0.1-1-0.2-1.5-0.2V69.9z M42.4,70.4c0.5,0,1,0.1,1.5,0.1v-7.8c-0.5,0-1-0.1-1.5-0.1V70.4z
		 M26.8,67.2c0.5,0.2,0.9,0.3,1.4,0.4v-7.8c-0.5-0.1-0.9-0.3-1.4-0.4V67.2z M46.3,70.7c0.5,0,1,0,1.6,0v-7.8c-0.5,0-1,0-1.6,0V70.7z
		 M15.1,61.8c0.4,0.3,0.8,0.5,1.3,0.7v-7.8c-0.4-0.2-0.9-0.5-1.3-0.7V61.8z M7.3,55.7c0.4,0.4,0.8,0.8,1.2,1.2v-7.8
		c-0.4-0.4-0.8-0.8-1.2-1.2V55.7z M3.4,50.7c0.4,0.6,0.8,1.2,1.2,1.7v-7.8c-0.4-0.6-0.8-1.2-1.2-1.7V50.7z M11.2,59.2
		c0.4,0.3,0.8,0.6,1.2,0.9v-7.8c-0.4-0.3-0.8-0.6-1.2-0.9V59.2z M0,39.3c0,1.7,0.3,3.3,0.7,4.9v-7.8C0.3,34.8,0,33.2,0,31.5V39.3z
		 M19,64c0.4,0.2,0.9,0.4,1.3,0.6v-7.8c-0.4-0.2-0.9-0.4-1.3-0.6V64z M22.9,65.8c0.4,0.2,0.9,0.3,1.3,0.5v-7.8
		c-0.5-0.2-0.9-0.3-1.3-0.5V65.8z"/>
	<path class="st2" d="M69.8,68.1c0.4-0.1,0.7-0.2,1-0.3V60c-0.3,0.1-0.7,0.2-1,0.3V68.1z M73.8,66.9c0.3-0.1,0.6-0.2,1-0.4v-7.8
		c-0.3,0.1-0.6,0.3-1,0.4V66.9z M65.9,69.1c0.4-0.1,0.8-0.2,1.1-0.3V61c-0.4,0.1-0.8,0.2-1.1,0.3V69.1z M54.1,70.6
		c0.5,0,0.9-0.1,1.4-0.1v-7.8c-0.5,0-0.9,0.1-1.4,0.1V70.6z M62,69.8c0.4-0.1,0.8-0.1,1.2-0.2v-7.8C62.8,61.9,62.4,62,62,62V69.8z
		 M93.4,54.4c0.2-0.3,0.3-0.6,0.5-0.9V46c-0.2,0.2-0.3,0.4-0.5,0.7V54.4z M50.2,70.8c0.5,0,1,0,1.5,0v-7.8c-0.5,0-1,0-1.5,0V70.8z
		 M77.7,65.4c0.3-0.1,0.6-0.3,0.9-0.4v-7.8c-0.3,0.1-0.6,0.3-0.9,0.4V65.4z M89.5,58.2c0.2-0.2,0.4-0.3,0.6-0.5V50
		c-0.2,0.2-0.4,0.3-0.6,0.5V58.2z M97.3,40.9v5c0.1-0.5,0.3-0.9,0.4-1.4v-4.7C97.6,40.2,97.5,40.5,97.3,40.9z M85.5,61.2
		c0.2-0.2,0.5-0.3,0.7-0.5v-7.8c-0.2,0.2-0.5,0.3-0.7,0.5V61.2z M81.6,63.5c0.3-0.1,0.5-0.3,0.8-0.5v-7.8c-0.3,0.2-0.5,0.3-0.8,0.5
		V63.5z M58,70.3c0.4,0,0.9-0.1,1.3-0.1v-7.8c-0.4,0.1-0.9,0.1-1.3,0.1V70.3z M15.6,62.1c0.3,0.2,0.5,0.3,0.8,0.5v-7.8
		c-0.3-0.2-0.5-0.3-0.8-0.5V62.1z M19.4,64.2c0.3,0.1,0.6,0.3,0.9,0.4v-7.8c-0.3-0.1-0.6-0.3-0.9-0.4V64.2z M46.3,70.7
		c0.5,0,1,0,1.5,0v-7.8c-0.5,0-1,0-1.5,0V70.7z M4,50.6c0.2,0.4,0.4,0.7,0.6,1.1v-7c-0.2-0.3-0.4-0.6-0.6-0.8V50.6z M23.2,65.9
		c0.3,0.1,0.7,0.3,1,0.4v-7.8c-0.3-0.1-0.7-0.3-1-0.4V65.9z M7.9,56.2c0.2,0.2,0.4,0.4,0.6,0.7v-7.8c-0.2-0.2-0.4-0.4-0.6-0.7V56.2z
		 M11.7,59.5c0.2,0.2,0.5,0.3,0.7,0.5v-7.8c-0.2-0.2-0.5-0.3-0.7-0.5V59.5z M38.6,69.9c0.4,0.1,0.9,0.1,1.3,0.2v-7.8
		c-0.5-0.1-0.9-0.1-1.3-0.2V69.9z M42.5,70.4c0.5,0,0.9,0.1,1.4,0.1v-7.8c-0.5,0-0.9-0.1-1.4-0.1V70.4z M34.8,69.3
		c0.4,0.1,0.8,0.2,1.3,0.2v-7.8c-0.4-0.1-0.8-0.1-1.3-0.2V69.3z M27.1,67.3c0.4,0.1,0.7,0.2,1.1,0.3v-7.8c-0.4-0.1-0.7-0.2-1.1-0.3
		V67.3z M30.9,68.4c0.4,0.1,0.8,0.2,1.2,0.3v-7.8c-0.4-0.1-0.8-0.2-1.2-0.3V68.4z"/>
	<linearGradient id="SVGID_3_" gradientUnits="userSpaceOnUse" x1="49.7905" y1="54.1395" x2="49.7905" y2="21.9754">
		<stop  offset="0" style="stop-color:#FAC900"/>
		<stop  offset="1" style="stop-color:#BA963A"/>
	</linearGradient>
	<path class="st3" d="M99.6,31.5C99.6,48.9,77.3,63,49.8,63C22.3,63,0,48.9,0,31.5C0,14.1,22.3,0,49.8,0C77.3,0,99.6,14.1,99.6,31.5
		z"/>
	<linearGradient id="SVGID_4_" gradientUnits="userSpaceOnUse" x1="49.7915" y1="-6.679010e-02" x2="49.7915" y2="95.6726">
		<stop  offset="0" style="stop-color:#FAC900"/>
		<stop  offset="1" style="stop-color:#BA963A"/>
	</linearGradient>
	<path class="st4" d="M49.8,62.5c-27.2,0-49.3-13.9-49.3-31s22.1-31,49.3-31c27.2,0,49.3,13.9,49.3,31S77,62.5,49.8,62.5L49.8,62.5z
		"/>
	<linearGradient id="SVGID_5_" gradientUnits="userSpaceOnUse" x1="49.791" y1="21.2027" x2="49.791" y2="79.6944">
		<stop  offset="0" style="stop-color:#FAC900"/>
		<stop  offset="1" style="stop-color:#BA963A"/>
	</linearGradient>
	<path class="st5" d="M92.5,16.5c3.1,4,4.9,8.5,4.9,13.2c0,16.5-21.4,29.9-47.7,29.9c-26.3,0-47.7-13.4-47.7-29.9
		c0-4.8,1.8-9.2,5-13.2c-3.7,4.3-5.8,9.1-5.8,14.3c0,16.6,21.8,30.1,48.5,30.1c26.8,0,48.5-13.5,48.5-30.1
		C98.3,25.5,96.2,20.7,92.5,16.5z"/>
	<g>
		<linearGradient id="SVGID_6_" gradientUnits="userSpaceOnUse" x1="38.4748" y1="41.3899" x2="85.3987" y2="-5.5339">
			<stop  offset="0" style="stop-color:#FFCC00"/>
			<stop  offset="1" style="stop-color:#FFF8B8"/>
		</linearGradient>
		<ellipse class="st6" cx="49.8" cy="30.1" rx="43.2" ry="27.3"/>
		<linearGradient id="SVGID_7_" gradientUnits="userSpaceOnUse" x1="36.9" y1="41.8014" x2="28.8583" y2="49.8417">
			<stop  offset="0" style="stop-color:#FFCC00"/>
			<stop  offset="1" style="stop-color:#DEB000"/>
		</linearGradient>
		<path class="st7" d="M27.5,29.8c-12.1-4-4.8-19.9-4.8-19.9L22.4,9C12.8,14,6.6,21.6,6.6,30.1c0,15.1,19.3,27.3,43.2,27.3
			c10.7,0,20.5-2.5,28-6.6c5.5-5.5,9.1-14.3,3.5-19.9C66.5,18.6,39.7,33.8,27.5,29.8z"/>
		<linearGradient id="SVGID_8_" gradientUnits="userSpaceOnUse" x1="49.7891" y1="34.3144" x2="49.7891" y2="13.0551">
			<stop  offset="0" style="stop-color:#FAC900"/>
			<stop  offset="1" style="stop-color:#BA963A"/>
		</linearGradient>
		<path class="st8" d="M7.4,31c0-15.1,19-27.3,42.4-27.3c23.4,0,42.4,12.2,42.4,27.3c0,4.4-1.7,8.5-4.5,12.2
			C91,39.3,93,34.8,93,30.1C93,15,73.6,2.8,49.8,2.8C25.9,2.8,6.6,15,6.6,30.1c0,4.7,1.9,9.2,5.3,13.1C9,39.5,7.4,35.3,7.4,31z"/>
	</g>
</g>
<g>
</g>
<g>
</g>
<g>
</g>
<g>
</g>
<g>
</g>
<g>
</g>
<g>
</g>
<g>
</g>
<g>
</g>
<g>
</g>
<g>
</g>
<g>
</g>
<g>
</g>
<g>
</g>
<g>
</g>
</svg>
