<?xml version="1.0" encoding="utf-8"?>
<!-- Generator: Adobe Illustrator 17.0.0, SVG Export Plug-In . SVG Version: 6.00 Build 0)  -->
<!DOCTYPE svg PUBLIC "-//W3C//DTD SVG 1.1//EN" "http://www.w3.org/Graphics/SVG/1.1/DTD/svg11.dtd">
<svg version="1.1" id="Layer_1" xmlns="http://www.w3.org/2000/svg" xmlns:xlink="http://www.w3.org/1999/xlink" x="0px" y="0px"
	 width="418px" height="90.1px" viewBox="0 0 418 90.1" style="enable-background:new 0 0 418 90.1;" xml:space="preserve">
<style type="text/css">
	.st0{fill:#FFF8B8;}
</style>
<g id="coin-fall-text.svg">
	<g>
		<path class="st0" d="M8.4,67.8V36.9H2C5.6,24.7,8.1,12.8,9.1,1.5h15.6c-0.8,7.5-1.9,14.8-3.5,22.1h2v44.2H8.4z M25,65.1
			c1.3-9.4,2.2-22.6,2.5-31.8h8.9c-0.1,9.6-1,22.7-2.6,31.8H25z M49.2,27.2c1.3-4.2,2.2-8.7,2.9-13.1c0.1-0.4-0.2-0.8-0.7-0.8H44
			c-0.8,4.8-1.7,9.5-3.1,13.9H25.5C27.9,19,29.3,10,30,1.6h15.5c-0.3,2.6-0.6,5.2-1,7.7h21.1c1.5,0,2.2,1.1,2,2.2
			c-0.6,5.4-1.7,10.7-3.2,15.7H49.2z M35.9,63.7h0.9c1.5,0,2-0.8,2-2.2v-32H54v33.6c0,2.5-2.1,4.6-4.6,4.6H35.9V63.7z M58.7,65.8
			c-1.6-9.1-2.4-22.8-2.5-32.5h8.8c0.3,9.2,1.2,23.1,2.5,32.5H58.7z"/>
		<path class="st0" d="M72.1,14.7c0-2.6,2.2-4.6,4.7-4.6h1L80,2h14.6l-2.2,8.2h3.5c2.6,0,4.6,2,4.6,4.6v48c0,2.5-2,4.6-4.6,4.6H76.8
			c-2.5,0-4.7-2.1-4.7-4.6V14.7z M88.6,15.4c0-0.8-0.6-1.3-1.3-1.3h-1.4c-0.7,0-1.3,0.6-1.3,1.3V36h4V15.4z M87.3,63.3
			c0.7,0,1.3-0.6,1.3-1.3V40h-4v22c0,0.8,0.6,1.3,1.3,1.3H87.3z M101.6,26.3c2.2-7.7,3.9-16.1,4.7-24.7H120c-0.3,3-0.6,6.1-1,9.1
			h13.2c2.6,0,4.7,2.1,4.7,4.7v47.6c0,2.5-2.1,4.6-4.7,4.6h-18v-4h6.1c1.5,0,2.6-1.2,2.6-2.6V17.4c0-1.5-1.2-2.6-2.6-2.6h-1.9
			c-0.7,4.1-1.6,8.1-2.6,11.6H101.6z M108,55.9c-2.5-8-4-16.4-4.8-24.9h12.1c0.8,8.1,2.4,16.5,4.8,24.9H108z"/>
		<path class="st0" d="M141.3,46.5V9.1c0-2.6,2-4.6,4.6-4.6h18c2.6,0,4.6,2,4.6,4.6v37.4h-6.1V10.4c0-1.1-0.8-2-2-2h-10.9
			c-1.1,0-2,0.8-2,2v36.1H141.3z M158.6,67.8l-2.2-7c-1,2.6-2.1,4.9-3.4,7h-11.5c5.6-10.4,7.9-18.2,7.9-32.6V13.4h11V33
			c0,5.9-0.3,10.9-1,15.4h2.9l5.9,19.4H158.6z M186.8,63.8h1.9c1.5,0,2-0.6,2-2V19.4h-1.5c-1.3,17.8-3.6,34.4-7,48.3h-12.6
			c4.2-15,6.2-29.1,7.5-48.3h-6.2v-4h19.8V1.8h14v13.7h2.5v4h-2.5v43.7c0,2.5-2,4.5-4.7,4.5h-13.2V63.8z"/>
		<path class="st0" d="M214.6,15.6l-3.7-13.7h16.2l3.6,13.7H214.6z M231,55.2c0,0.9-0.1,1.7-0.1,2.5c2.4,3.6,6,6,12.1,6h33.8v4
			h-37.1c-4.6,0-7.8-1.4-10.3-3.6c-0.5,1.3-1,2.6-1.6,3.6h-16.6c1.9-3.6,4-8,4-14.5v-27c0-1.5-1.2-2.6-2.6-2.6H211v-4h15.3
			c2.6,0,4.7,2.1,4.7,4.7V55.2z M235.2,23.1h41.5V27h-19.2l-6.3,24.8c-0.2,0.8,0.3,1.7,1.3,1.7h7.4c0.8,0,1.5-0.8,1.3-1.7l-3.7-15
			h14.9l4,15.5c0.6,2.5-1,5.2-3.8,5.2h-33c-2.6,0-4.5-2.5-3.8-5.2l6.8-25.3h-7.2V23.1z M237.4,4.9h37.1v3.9h-37.1V4.9z"/>
		<path class="st0" d="M280.5,33.4h65.9v4h-19.8v11.3h16.6v4h-16.6v11.2h19.8v4h-28.6c-9.5,0-15-2.4-18.7-6.1
			c-0.6,2.2-1.5,4.2-2.4,6.2h-16c3.7-9,5.2-15.8,5.8-26.5h15.7c-0.2,5.4-0.8,10.2-1.7,14.6c2.6,3.8,5.8,6,10.2,7V37.3h-30.2V33.4z
			 M284.9,8.3c0-2.5,2-4.7,4.6-4.7h47.9c2.5,0,4.6,2.2,4.6,4.7v17.2c0,2.6-2.1,4.6-4.6,4.6h-47.9c-2.6,0-4.6-2-4.6-4.6V8.3z
			 M300.8,14.9h25.4v-4.7c0-1.5-1.2-2.6-2.6-2.6h-20.1c-1.5,0-2.6,1.2-2.6,2.6V14.9z M326.1,18.9h-25.4v4.6c0,1.5,1.2,2.6,2.6,2.6
			h20.1c1.5,0,2.6-1.2,2.6-2.6V18.9z"/>
		<path class="st0" d="M351.2,44V33.5h16.6V44H351.2z M374.8,44V33.5h16.6V44H374.8z M398.4,44V33.5H415V44H398.4z"/>
	</g>
</g>
<g>
</g>
<g>
</g>
<g>
</g>
<g>
</g>
<g>
</g>
<g>
</g>
<g>
</g>
<g>
</g>
<g>
</g>
<g>
</g>
<g>
</g>
<g>
</g>
<g>
</g>
<g>
</g>
<g>
</g>
</svg>
