<?xml version="1.0" encoding="utf-8"?>
<!-- Generator: Adobe Illustrator 17.0.0, SVG Export Plug-In . SVG Version: 6.00 Build 0)  -->
<!DOCTYPE svg PUBLIC "-//W3C//DTD SVG 1.1//EN" "http://www.w3.org/Graphics/SVG/1.1/DTD/svg11.dtd">
<svg version="1.1" id="Layer_1" xmlns="http://www.w3.org/2000/svg" xmlns:xlink="http://www.w3.org/1999/xlink" x="0px" y="0px"
	 width="432px" height="69.4px" viewBox="0 0 432 69.4" style="enable-background:new 0 0 432 69.4;" xml:space="preserve">
<style type="text/css">
	.st0{fill:#FFF8B8;}
</style>
<g id="cover02.svg">
	<path class="st0" d="M33.4,29.1v2.7h-31v-2.7H33.4z M31.5,5v2.7h-27V5H31.5z M28.6,16.7v2.7H6.8v-2.7H28.6z"/>
	<path class="st0" d="M56.2,14.6c2.5,7.9,7.2,14.4,14.1,17.3c-0.6,0.6-1.5,1.7-2,2.5c-6.9-3.3-11.5-9.6-14.3-17.8
		c-1.7,6.9-5.6,13.8-14.4,17.8c-0.4-0.7-1.3-1.7-2-2.2c8.9-3.9,12.5-10.8,14-17.6H38.4v-2.7h13.7c0.5-3.8,0.5-7.4,0.5-10.2h2.9
		c0,2.9-0.1,6.4-0.6,10.2h14.9v2.7H56.2z"/>
	<path class="st0" d="M81.3,12.8c-1.8,2.1-4.1,4.1-6.3,5.3c-0.3-0.6-0.9-1.5-1.4-2c2.5-1.1,5.2-3.3,6.9-5.6h-6.6V8.2h7.4V1.6h2.5
		v6.7h7.3v2.2h-6.8c1.8,1,4.9,3.1,5.7,3.7l-1.5,1.9c-0.9-0.8-3.1-2.6-4.8-3.8v4.9h-2.5V12.8z M86.9,31.8c-0.8-0.6-1.9-1.3-3.1-2
		c-2.6,2.1-5.6,3.5-8.9,4.3c-0.3-0.6-0.8-1.5-1.3-2.1c2.9-0.6,5.7-1.8,8-3.5c-1.8-0.9-3.7-1.8-5.5-2.5c0.8-1.1,1.5-2.4,2.3-3.8h-3.7
		v-2.3h4.9c0.4-0.8,0.7-1.5,0.9-2.3l2.4,0.4c-0.3,0.6-0.5,1.2-0.8,1.9h5.9l0.4-0.1l1.5,0.6c-0.9,3.1-2.4,5.6-4.3,7.6
		c1.2,0.6,2.2,1.3,3,1.9L86.9,31.8z M77.5,8c-0.3-1.3-1.3-3.2-2.2-4.7l1.9-0.8c1,1.4,2,3.3,2.3,4.6L77.5,8z M81,22.3
		c-0.5,1-1.1,2-1.6,2.8c1.3,0.6,2.8,1.3,4.1,1.9c1.4-1.3,2.6-2.9,3.3-4.8H81z M90.2,3.2c-1,1.6-2.2,3.4-3.2,4.6L85.3,7
		c0.9-1.3,2.1-3.3,2.7-4.8L90.2,3.2z M103.6,11c-0.8,5.4-2,9.8-3.9,13.5c1.8,3.3,4.2,5.9,7.2,7.5c-0.6,0.5-1.4,1.4-1.8,2.1
		c-2.8-1.7-5-4.1-6.8-7.2c-2.1,3.1-4.9,5.7-8.5,7.6c-0.3-0.6-1-1.7-1.5-2.2c3.9-1.9,6.7-4.5,8.7-8c-1.4-2.8-2.4-6-3.2-9.6
		c-0.7,1.8-1.5,3.3-2.4,4.7c-0.4-0.4-1.4-1.3-2-1.6c2.7-3.8,4.4-9.8,5.3-16l2.4,0.4c-0.3,2.1-0.7,4.2-1.2,6.2H106V11H103.6z
		 M95.3,11c0.7,3.9,1.7,7.6,3.1,10.8c1.3-3,2.2-6.6,2.7-10.8H95.3z"/>
	<path class="st0" d="M141.3,23.4h-14v7.7c0,1.6-0.4,2.4-1.7,2.8c-1.3,0.4-3.1,0.5-6.1,0.5c-0.2-0.8-0.8-1.9-1.2-2.6
		c2.4,0.1,4.8,0.1,5.4,0c0.7,0,0.9-0.2,0.9-0.7v-7.7h-14v-2.6h14v-2.2c2.1-1,4.5-2.6,6.3-4.2h-14.4v-2.5h17.1l0.6-0.1l1.8,1.4
		c-2.3,2.3-5.5,4.7-8.6,6.4v1.3h14V23.4z M113.6,12.7H111V5.3h14.2c-0.5-1-1.2-2.2-1.9-3.2l2.6-0.9c0.9,1.2,1.9,2.8,2.4,4H141v7.3
		h-2.7V7.9h-24.6V12.7z"/>
	<path class="st0" d="M177.7,4.5V7h-8.1v2.6H167V7h-10.1v2.6h-2.6V7h-7.9V4.5h7.9v-3h2.6v3H167v-3h2.6v3H177.7z M147.3,10.5h29.6v7
		h-2.6v-4.8h-24.5v4.8h-2.5V10.5z M150.2,24.3h24.2v10.2h-2.6v-1.3h-19v1.4h-2.6V24.3z M171.7,15v7.1h-19V15H171.7z M152.7,26.7v4.2
		h19v-4.2H152.7z M169.1,17h-13.9v3.2h13.9V17z"/>
	<path class="st0" d="M186,8.4c-1,1.6-2.1,3-3.2,4.2c-0.2-0.5-0.9-1.8-1.4-2.4c2.1-2.1,4-5.3,5-8.6l2.3,0.7
		c-0.4,1.2-0.9,2.4-1.4,3.5h7.4v2.6H186z M190,19.3h5v2.4h-5v7.6l4.1-2.1c0.1,0.7,0.3,1.7,0.5,2.3c-6,3.3-6.9,3.9-7.5,4.5
		c-0.2-0.6-0.8-1.7-1.3-2.2c0.6-0.4,1.7-1.4,1.7-2.9v-7.1h-5.1v-2.4h5.1v-4.9h-3.6V12h10.3v2.4H190V19.3z M199.2,10.4
		c-0.5-1.7-2-4.5-3.5-6.6l2.1-1c1.4,2,3,4.7,3.6,6.4L199.2,10.4z M213.1,11.7v19.3c0,1.4-0.3,2.2-1.3,2.6c-1,0.4-2.6,0.5-5.4,0.5
		c-0.1-0.7-0.4-1.8-0.8-2.4c2,0.1,3.8,0.1,4.3,0c0.5,0,0.7-0.2,0.7-0.7v-4.4h-12v7.8h-2.4V11.8h7.3V1.5h2.5v10.3l4.6,0H213.1z
		 M198.7,14.3v3.8h12v-3.8H198.7z M210.7,24.3v-3.9h-12v3.9H210.7z M214.2,3.6c-1.2,2.3-2.8,5-4.1,6.7l-2-0.9
		c1.2-1.8,2.9-4.7,3.7-6.8L214.2,3.6z"/>
	<path class="st0" d="M226.5,18c0,5.4-0.8,12.2-7.6,16.3c-0.3-0.5-1-1.3-1.5-1.8c6.3-3.6,6.8-10,6.8-14.6V7.8h2.3V18z M221.4,25.3
		h-2.2v-22h12v21.9H229V5.5h-7.6V25.3z M227.4,25.6c1.7,1.9,3.8,4.6,4.8,6.3l-1.9,1.6c-0.9-1.7-2.9-4.5-4.7-6.5L227.4,25.6z
		 M250.2,11.2H246v19.7c0,1.7-0.4,2.5-1.4,2.9c-1,0.5-2.8,0.5-5.4,0.5c-0.1-0.7-0.5-1.9-0.9-2.7c1.9,0.1,3.7,0.1,4.3,0
		c0.5,0,0.8-0.2,0.8-0.8V15.6c-2.4,5.5-5.9,10.7-9.5,13.9c-0.5-0.7-1.3-1.6-2-2.2c4.2-3.3,8.3-9.9,10.6-16.2h-9.5V8.6h10.4V1.6h2.7
		v7.1h4.1V11.2z"/>
	<path class="st0" d="M261.1,27.8c0.8,0.4,1.6,1.1,3,1.9c2.4,1.5,5.4,1.8,9.4,1.8c4.1,0,9.5-0.3,13.2-0.7c-0.4,0.8-0.8,2.1-0.9,3
		c-2.4,0.1-8.5,0.4-12.4,0.4c-4.4,0-7.4-0.4-9.9-2c-1.4-0.9-2.7-2.1-3.5-2.1c-1.2,0-3,2.1-4.8,4.5l-1.8-2.5c1.8-1.9,3.5-3.5,5.1-4.2
		V16.6h-4.9v-2.5h7.5V27.8z M260.9,10c-1.4-1.3-4.2-3.3-6.3-4.8l1.8-1.7c2.1,1.4,5,3.3,6.4,4.6L260.9,10z M265.6,27.2
		c0,0,0,0.1,0,0.1c-0.1-0.5-0.6-1.9-0.9-2.7c0.6-0.1,1.2-0.9,1.9-2.1c0.7-1,2.7-4.5,4.1-8.1h-7.3V12h22.9v2.5h-12.4
		c-1.5,3.4-3.4,6.9-5.3,9.6l11.8-0.9c-1.2-2.1-2.4-4.2-3.6-6l2.2-1c2.2,3.5,5.1,8.1,6.5,10.8l-2.3,1.3c-0.4-0.8-0.9-1.7-1.4-2.7
		c-13.4,1.2-14.9,1.3-16,1.8V27.2z M283.7,6.3h-18V3.8h18V6.3z"/>
	<path class="st0" d="M294.9,6.8c-1,1.7-2.2,3.2-3.4,4.5c-0.5-0.4-1.6-1.2-2.2-1.5c2.2-2.1,4.2-5.2,5.5-8.4l2.5,0.6
		c-0.3,0.9-0.7,1.7-1.1,2.5h9.4v2.3h-6.5c0.6,1.1,1.1,2.4,1.3,3.2l-2.3,0.9c-0.3-1.1-0.9-2.7-1.5-4.1H294.9z M314.6,20v3.2h6.7v2.3
		h-6.7v5.8c0,1.6-0.4,2.3-1.6,2.7c-1.2,0.4-3.2,0.4-6.2,0.4c-0.1-0.8-0.6-1.8-1-2.5c2.4,0.1,4.6,0.1,5.2,0c0.6,0,0.8-0.1,0.8-0.6
		v-5.7H291v-2.3h20.9V20h-22.1v-2.3h14.8v-3.2h-11.2v-2.3h11.2V9.8c-0.4-0.3-0.8-0.5-1-0.6c2.2-1.9,4.1-4.8,5.1-7.8l2.6,0.6
		c-0.3,0.9-0.6,1.7-1.1,2.6h11.7v2.3h-7.7c0.8,1.1,1.6,2.4,2,3.3l-2.3,1c-0.4-1.2-1.4-2.9-2.5-4.3h-2.4c-0.7,1-1.4,2.1-2.2,2.9h0.6
		v2.5h11.6v2.3h-11.6v3.2h15V20H314.6z M298.1,25.6c2.3,1.4,5,3.7,6.2,5.3l-2.1,1.7c-1.2-1.7-3.7-4-6-5.5L298.1,25.6z"/>
	<path class="st0" d="M336.1,2.5c-1,2.7-2.3,5.3-3.7,7.7v24.2h-2.6V14.2c-1.2,1.7-2.4,3.1-3.6,4.5c-0.3-0.6-1-2-1.5-2.6
		c3.5-3.5,6.8-8.8,8.9-14.3L336.1,2.5z M348.6,10.9v20.2c0,1.5-0.3,2.3-1.3,2.7c-1,0.5-2.5,0.5-4.8,0.5c-0.1-0.8-0.6-1.9-0.9-2.7
		c1.7,0.1,3.2,0,3.7,0s0.6-0.1,0.6-0.6V10.9h-5.5c-1,2.4-2.2,4.5-3.5,6.2c-0.4-0.4-1.5-1.3-2.1-1.7c2.6-3.3,4.7-8.5,5.9-13.7
		l2.6,0.6c-0.5,2.1-1.2,4.2-1.9,6.2h14.6l0.4-0.1l1.8,0.4c-0.5,2.6-1.1,5.7-1.6,7.6l-2.2-0.4c0.2-1.3,0.5-3.2,0.8-5H348.6z
		 M342.8,17.4c-1.2,4.7-3.1,9.3-5.3,12.2c-0.5-0.4-1.7-1.1-2.3-1.5c2.3-2.7,4-7,4.9-11.3L342.8,17.4z M353.6,16.6
		c2.1,3.8,3.9,8.7,4.5,12l-2.6,0.9c-0.6-3.3-2.4-8.3-4.3-12.1L353.6,16.6z"/>
	<path class="st0" d="M390.3,16.9c-1.5,4.5-3.9,8.1-7,10.9c3.1,2.1,6.9,3.6,11.3,4.5c-0.6,0.5-1.3,1.6-1.7,2.4
		c-4.6-1-8.5-2.7-11.7-5.1c-3.3,2.4-7.1,4-11.1,5.1c-0.3-0.7-0.9-1.7-1.4-2.3c3.7-0.9,7.3-2.4,10.4-4.5c-2.1-2-3.9-4.3-5.4-7
		c-2.5,4.4-5.9,8.1-10.5,11c-0.4-0.6-1.3-1.6-2-2.1c6.6-4,10.5-9.9,12.9-17.3h-5c-2.3,0-3.5,0.2-3.8,0.6c-0.2-0.6-0.6-1.9-0.9-2.5
		c0.5-0.1,0.9-0.6,1.3-1.4c0.4-0.7,1.8-3.6,2.4-6.4l2.8,0.5c-0.6,2.3-1.7,4.7-2.6,6.6h6.5c0.7-2.6,1.2-5.3,1.5-8.2l3,0.4
		c-0.4,2.8-0.9,5.4-1.4,7.8h15.5l0,2.6h-16.2c-0.4,1.3-0.8,2.6-1.3,3.8H388l0.5-0.1L390.3,16.9z M375.4,18.7
		c1.4,2.8,3.3,5.4,5.8,7.4c2.3-2,4.2-4.5,5.5-7.4H375.4z M388.7,8.6c-1-1.4-3-3.6-4.5-5.3l2.1-1.3c1.5,1.6,3.6,3.8,4.6,5.1
		L388.7,8.6z"/>
	<path class="st0" d="M410.5,27l-12.2,3.6l-0.6-2.6c1.4-0.4,3.2-0.8,5.2-1.4v-9.8h-4.2v-2.5h4.2V6.5h-4.8V4h11.8v2.5h-4.5v7.8h3.7
		v2.5h-3.7v9c1.5-0.4,3.1-0.9,4.6-1.4L410.5,27z M426.4,31.5c1.3,0,1.5-1,1.7-6c0.6,0.5,1.5,0.9,2.2,1c-0.3,5.7-0.7,7.1-3.8,7.1
		h-3.3c-2.4,0-3.4-0.6-3.4-3v-7.6c-1.3,4.3-4.1,8.6-10,11.6c-0.3-0.5-1.2-1.5-1.7-1.9c9-4.6,10.2-11.4,10.2-17V8.7h2.5v7
		c0,1.9-0.1,4-0.6,6h2.2v8.5c0,1,0.3,1.3,1.3,1.3H426.4z M414.1,22.3h-2.6v-19h16.1v19H425V5.7h-10.9V22.3z"/>
</g>
<g>
</g>
<g>
</g>
<g>
</g>
<g>
</g>
<g>
</g>
<g>
</g>
<g>
</g>
<g>
</g>
<g>
</g>
<g>
</g>
<g>
</g>
<g>
</g>
<g>
</g>
<g>
</g>
<g>
</g>
</svg>
