<?xml version="1.0" encoding="utf-8"?>
<!-- Generator: Adobe Illustrator 17.0.0, SVG Export Plug-In . SVG Version: 6.00 Build 0)  -->
<!DOCTYPE svg PUBLIC "-//W3C//DTD SVG 1.1//EN" "http://www.w3.org/Graphics/SVG/1.1/DTD/svg11.dtd">
<svg version="1.1" id="Layer_1" xmlns="http://www.w3.org/2000/svg" xmlns:xlink="http://www.w3.org/1999/xlink" x="0px" y="0px"
	 width="192px" height="92.5px" viewBox="0 0 192 92.5" style="enable-background:new 0 0 192 92.5;" xml:space="preserve">
<style type="text/css">
	.st0{fill:#FFF8B8;}
</style>
<g id="cover01.svg">
	<g>
		<path class="st0" d="M45.3,34.8H25.8v11.1h-3.6V34.8H2.8v-3.5h19.3V24H7.7v-3.4h14.4v-6.9H5.3v-3.5h9.7c-0.8-2-2.4-4.9-3.9-7
			l3.2-1.2c1.7,2.3,3.5,5.2,4.3,7.2L16,10.3h14c1.4-2.4,3.1-5.9,4-8.4l3.7,1c-1.2,2.5-2.7,5.2-4,7.3H43v3.5H25.8v6.9h14.4V24H25.8
			v7.3h19.5V34.8z"/>
		<path class="st0" d="M93.6,34.9H76.2v11h-3.6v-11H50.4v-3.5h7.9V18.6h14.3v-7.3H61c-2.2,3.7-4.7,7-7.3,9.5
			c-0.7-0.6-2.2-1.8-3.1-2.3C55.1,14.6,59.1,8.4,61.4,2L65,2.8c-0.7,1.7-1.4,3.4-2.2,5h28.6v3.5H76.2v7.3h14.1V22H76.2v9.5h17.4
			V34.9z M72.6,31.5V22H61.9v9.5H72.6z"/>
		<path class="st0" d="M105.6,31.6c-1.1,3.3-3.1,6.8-4.9,9c-0.6-0.5-1.7-1.4-2.4-1.8c1.9-2.1,3.5-5,4.5-8L105.6,31.6z M111.4,29.1
			v12.2c0,1.7-0.3,2.5-1.4,3c-1.1,0.5-2.7,0.6-5,0.6c-0.1-0.9-0.6-2.1-1.1-3c1.6,0,3.1,0,3.6,0c0.5,0,0.6-0.1,0.6-0.6V29.1h-9.6V26
			h9.6v-5h-9.8v-3h13.2c0.9-2.2,2-5.4,2.6-7.6l3.3,0.7c-0.8,2.3-1.8,4.9-2.6,6.9h6.1v3h-9.5v5h8.9v3.1H111.4z M120.1,10.1h-21v-3
			h9.4c-0.6-1.4-1.4-3.1-2.1-4.4l3.2-0.8c0.9,1.6,1.9,3.6,2.5,5.2h8V10.1z M105.1,10.4c1,2.1,1.8,4.9,2,6.7l-3,0.8
			c-0.2-1.8-1-4.7-1.9-6.9L105.1,10.4z M115.8,30.7c1.5,2.4,3.3,5.5,4,7.5l-2.5,1.4c-0.8-2.1-2.4-5.3-3.9-7.7L115.8,30.7z
			 M141.8,21.5h-5.3v24.2h-3.5V21.5h-7.2V23c0,6.9-0.6,16.2-5,22.4c-0.6-0.7-2-1.7-2.7-2.2c4-5.8,4.4-13.9,4.4-20.3V6.7
			c5.3-0.9,11.5-2.3,14.9-3.7l2.8,2.6c-3.9,1.5-9.5,2.7-14.4,3.5v9.1h16V21.5z"/>
		<path class="st0" d="M178.1,22.3c3,3.9,7.5,7.3,12,9.1c-0.9,0.7-2,2-2.5,2.9c-2.4-1.2-4.8-2.7-7.1-4.7v16h-3.7V44h-17.6v1.9h-3.6
			V29.8c-2.1,1.8-4.5,3.5-7.2,4.9c-0.5-0.9-1.6-2.3-2.4-2.8c5-2.4,8.9-5.8,11.9-9.5h-11.1v-3.1H160c0.8-1.2,1.4-2.4,2.1-3.7h-11.2
			v-2.9h12.4c0.4-1.2,0.8-2.4,1.1-3.5h-15.1V6h15.8c0.3-1.3,0.4-2.6,0.6-3.9l3.7,0.3c-0.1,1.2-0.3,2.4-0.6,3.6h17.8v3.1h-18.4
			c-0.3,1.2-0.7,2.4-1.1,3.5h18.1v2.9H166c-0.5,1.2-1.2,2.5-1.8,3.7h25.1v3.1H178.1z M176.9,29.1h-17.6v4.4h17.6V29.1z M176.9,40.9
			v-4.7h-17.6v4.7H176.9z M162.2,22.3c-0.9,1.3-1.8,2.5-2.9,3.7H177c-1.1-1.2-2-2.5-2.8-3.7H162.2z"/>
	</g>
</g>
<g>
</g>
<g>
</g>
<g>
</g>
<g>
</g>
<g>
</g>
<g>
</g>
<g>
</g>
<g>
</g>
<g>
</g>
<g>
</g>
<g>
</g>
<g>
</g>
<g>
</g>
<g>
</g>
<g>
</g>
</svg>
