<?xml version="1.0" encoding="utf-8"?>
<!-- Generator: Adobe Illustrator 17.0.0, SVG Export Plug-In . SVG Version: 6.00 Build 0)  -->
<!DOCTYPE svg PUBLIC "-//W3C//DTD SVG 1.1//EN" "http://www.w3.org/Graphics/SVG/1.1/DTD/svg11.dtd">
<svg version="1.1" id="Layer_1" xmlns="http://www.w3.org/2000/svg" xmlns:xlink="http://www.w3.org/1999/xlink" x="0px" y="0px"
	 width="384px" height="92.5px" viewBox="0 0 384 92.5" style="enable-background:new 0 0 384 92.5;" xml:space="preserve">
<style type="text/css">
	.st0{fill:#FFF8B8;}
</style>
<g id="cover02.svg">
	<path class="st0" d="M12.4,17.1c-2.4,2.8-5.5,5.5-8.4,7c-0.4-0.8-1.2-2-1.9-2.7C5.4,20,9,17,11.3,13.9H2.5v-3h9.9V2.1h3.3v8.9h9.8
		v3h-9c2.4,1.4,6.5,4.1,7.6,4.9l-2,2.6C21,20.3,18,18,15.7,16.3v6.6h-3.3V17.1z M19.9,42.4c-1.1-0.8-2.5-1.8-4.2-2.7
		c-3.4,2.7-7.5,4.6-11.9,5.8c-0.3-0.8-1.1-2.1-1.7-2.7c3.9-0.9,7.5-2.4,10.7-4.6c-2.4-1.2-5-2.4-7.3-3.3c1-1.4,2.1-3.2,3.1-5.1h-5
		v-3H10c0.5-1.1,0.9-2.1,1.2-3.1l3.2,0.6c-0.3,0.8-0.6,1.6-1,2.5h7.8l0.5-0.1l2,0.8c-1.2,4.1-3.2,7.5-5.8,10.2c1.5,0.9,3,1.7,4,2.5
		L19.9,42.4z M7.3,10.6c-0.4-1.7-1.7-4.3-3-6.3L7,3.3c1.3,1.9,2.6,4.4,3.1,6.2L7.3,10.6z M12,29.8c-0.7,1.3-1.4,2.7-2.1,3.8
		c1.8,0.8,3.7,1.7,5.4,2.5c1.9-1.7,3.4-3.8,4.5-6.3H12z M24.3,4.3c-1.4,2.2-2.9,4.6-4.3,6.1l-2.3-1.1c1.2-1.7,2.8-4.5,3.6-6.4
		L24.3,4.3z M42.1,14.6c-1.1,7.2-2.7,13.1-5.2,18c2.4,4.4,5.6,7.9,9.6,10c-0.8,0.7-1.8,1.9-2.4,2.8c-3.7-2.3-6.7-5.5-9.1-9.6
		c-2.8,4.2-6.5,7.5-11.4,10.2c-0.3-0.8-1.3-2.2-2-2.9c5.2-2.5,8.9-6,11.6-10.6c-1.8-3.7-3.2-8.1-4.2-12.8c-1,2.4-2.1,4.5-3.3,6.3
		c-0.6-0.6-1.9-1.7-2.7-2.2c3.6-5,5.8-13.1,7-21.4L33.4,3c-0.4,2.8-1,5.6-1.6,8.3h13.5v3.3H42.1z M31.1,14.6
		c0.9,5.2,2.3,10.1,4.1,14.4c1.7-4,2.9-8.8,3.6-14.4H31.1z"/>
	<path class="st0" d="M92.5,31.2H73.8v10.3c0,2.1-0.5,3.2-2.2,3.7c-1.7,0.6-4.2,0.6-8.2,0.6c-0.3-1-1-2.6-1.6-3.5
		c3.3,0.1,6.3,0.1,7.2,0c0.9,0,1.2-0.2,1.2-0.9V31.2H51.4v-3.4h18.7v-3c2.8-1.3,6-3.5,8.4-5.6H59.3v-3.4h22.8l0.8-0.2l2.4,1.9
		c-3,3.1-7.3,6.3-11.5,8.5v1.8h18.6V31.2z M55.5,16.9H52V7.1h18.9c-0.7-1.4-1.6-3-2.5-4.2l3.4-1.2c1.2,1.6,2.5,3.7,3.2,5.4H92v9.8
		h-3.6v-6.4H55.5V16.9z"/>
	<path class="st0" d="M109.6,3.4c-2.6,1.3-4.3,3.8-4.3,5.9c0.3-0.2,0.8-0.4,1.3-0.4c1.8,0,3,1.3,3,3.1c0,1.5-1.1,3.1-3.3,3.1
		c-2.1,0-3.7-1.9-3.7-4.6c0-4.3,2.9-7.6,6-9L109.6,3.4z M118.8,3.4c-2.6,1.3-4.3,3.8-4.3,5.9c0.3-0.2,0.8-0.4,1.3-0.4
		c1.8,0,3,1.3,3,3.1c0,1.5-1.1,3.1-3.3,3.1c-2.1,0-3.8-1.9-3.8-4.6c0-4.3,2.9-7.6,6-9L118.8,3.4z"/>
	<path class="st0" d="M135.2,42.7c0,1.4-0.2,2.2-1.3,2.7c-1,0.4-2.5,0.4-5,0.4c-0.1-0.8-0.5-1.8-0.9-2.5c1.8,0,3.4,0,3.9,0
		c0.5,0,0.6-0.1,0.6-0.6v-4.8h-5c-0.5,2.8-1.4,5.8-3.3,7.9c-0.4-0.5-1.6-1.2-2.3-1.5c3-3.5,3.3-8.3,3.3-12V24h9.9V42.7z M127.8,7.5
		h-5.7V4.9h20.6c-0.4-0.9-1-1.8-1.4-2.5l3.4-0.8c0.7,1,1.4,2.3,2,3.3h19.1v2.5h-34.9v2.7h31.8v2.5h-34.8V7.5z M132.5,35.5v-3.4h-4.6
		v0.3c0,1,0,2-0.1,3.1H132.5z M127.9,26.4v3.2h4.6v-3.2H127.9z M160.1,22h-32.1v-7.2h32.1V22z M156.7,17.1h-25.4v2.6h25.4V17.1z
		 M146.4,43.4c-0.9-1-2.4-2.5-3.8-3.7c-1.2,2.7-2.9,4.8-6,6.2c-0.3-0.6-1-1.5-1.5-2c5.6-2.5,6.5-6.9,6.7-15.6h2.3
		c-0.1,3.8-0.3,6.8-1,9.3l0.3-0.2c1.7,1.2,3.7,3,4.7,4.2L146.4,43.4z M146.2,38V26.5h-6.6v11.8h-2.4V24h11.4v14H146.2z M162.8,43.3
		c0.2,0,0.5,0,0.6-0.2c0.1-0.1,0.3-0.4,0.4-1c0.1-0.6,0.1-1.9,0.1-3.7c0.6,0.5,1.4,0.9,2.1,1.1c0,1.7-0.2,3.6-0.4,4.3
		c-0.2,0.7-0.6,1.2-1,1.4c-0.4,0.3-1.1,0.4-1.7,0.4h-1.6c-0.8,0-1.5-0.2-2.1-0.7c-0.6-0.5-0.7-1.2-0.7-4.1V38l-1.9,0.8
		c-0.6-2.1-2.1-5.2-3.5-7.7v0.8c0,4.4-0.8,10.2-4.7,14.1c-0.5-0.5-1.6-1.2-2.3-1.5c3.8-3.6,4.3-8.6,4.3-12.6V24h10.7v17.1
		c0,1,0,1.8,0.1,2c0.1,0.1,0.3,0.2,0.5,0.2H162.8z M154.8,29.4c1.5,2.4,3,5.4,3.8,7.7V26.6h-5.3V30L154.8,29.4z"/>
	<path class="st0" d="M169.2,13.5c2.6-1.3,4.3-3.8,4.3-5.9c-0.3,0.2-0.8,0.4-1.3,0.4c-1.8,0-3-1.3-3-3.1c0-1.5,1.1-3.1,3.3-3.1
		c2.1,0,3.8,1.9,3.8,4.6c0,4.3-2.9,7.5-6,9L169.2,13.5z M178.4,13.5c2.6-1.3,4.3-3.8,4.3-5.9c-0.3,0.2-0.8,0.4-1.3,0.4
		c-1.8,0-3-1.3-3-3.1c0-1.5,1.1-3.1,3.3-3.1c2.1,0,3.8,1.9,3.8,4.6c0,4.3-2.9,7.5-6,9L178.4,13.5z"/>
	<path class="st0" d="M200,11.2c-1.3,2.2-2.7,4-4.2,5.6c-0.3-0.7-1.2-2.4-1.8-3.2c2.8-2.8,5.3-7,6.7-11.4l3.1,0.9
		c-0.5,1.6-1.2,3.2-1.9,4.7h9.9v3.4H200z M205.3,25.7h6.7V29h-6.7v10.1l5.4-2.8c0.1,0.9,0.4,2.3,0.7,3c-8,4.5-9.3,5.2-10,6
		c-0.3-0.9-1.1-2.3-1.7-3c0.9-0.5,2.3-1.8,2.3-3.9V29h-6.8v-3.3h6.8v-6.5h-4.8V16h13.7v3.2h-5.6V25.7z M217.6,13.9
		c-0.7-2.3-2.7-6-4.6-8.8l2.8-1.3c1.9,2.7,4,6.2,4.8,8.6L217.6,13.9z M236.2,15.6v25.8c0,1.9-0.4,2.9-1.7,3.5
		c-1.4,0.6-3.5,0.6-7.2,0.6c-0.1-0.9-0.6-2.4-1.1-3.3c2.7,0.1,5.1,0.1,5.8,0c0.7,0,1-0.2,1-0.9v-5.9h-16v10.5h-3.3V15.7h9.8V2h3.3
		v13.7l6.1,0H236.2z M217,19.1v5.1h16v-5.1H217z M232.9,32.4v-5.1h-16v5.1H232.9z M237.6,4.8c-1.6,3.1-3.7,6.7-5.4,8.9l-2.6-1.2
		c1.6-2.4,3.8-6.3,5-9.1L237.6,4.8z"/>
	<path class="st0" d="M254,24c0,7.2-1,16.3-10.1,21.8c-0.4-0.7-1.3-1.8-2.1-2.4c8.4-4.8,9.1-13.3,9.1-19.5V10.4h3.1V24z M247.2,33.7
		h-2.9V4.3h16v29.2h-3V7.3h-10.2V33.7z M255.3,34.2c2.3,2.6,5.1,6.1,6.3,8.4l-2.5,2.1c-1.2-2.3-3.9-6-6.2-8.6L255.3,34.2z
		 M285.6,14.9H280v26.3c0,2.3-0.6,3.3-1.9,3.8c-1.4,0.6-3.7,0.7-7.2,0.7c-0.2-1-0.7-2.6-1.2-3.6c2.5,0.1,5,0.1,5.7,0
		c0.7,0,1-0.2,1-1.1V20.8c-3.3,7.3-7.9,14.3-12.7,18.6c-0.6-0.9-1.7-2.2-2.6-2.9c5.6-4.5,11.1-13.2,14.2-21.6h-12.7v-3.4h13.9V2.1
		h3.6v9.4h5.5V14.9z"/>
	<path class="st0" d="M300.2,37.1c1.1,0.5,2.1,1.5,4,2.6c3.2,2,7.2,2.4,12.5,2.4c5.4,0,12.6-0.4,17.6-1c-0.5,1.1-1.1,2.8-1.2,3.9
		c-3.2,0.2-11.3,0.5-16.5,0.5c-5.9,0-9.8-0.6-13.2-2.6c-1.9-1.2-3.6-2.7-4.7-2.7c-1.6,0-4,2.8-6.3,6l-2.4-3.3
		c2.4-2.5,4.7-4.6,6.8-5.6V22.1h-6.6v-3.3h10V37.1z M299.9,13.3c-1.9-1.7-5.7-4.4-8.4-6.4l2.4-2.2c2.7,1.8,6.6,4.5,8.5,6.1
		L299.9,13.3z M306.1,36.2c0,0,0,0.1,0,0.1c-0.2-0.7-0.8-2.5-1.2-3.6c0.9-0.2,1.6-1.2,2.6-2.7c1-1.3,3.6-6,5.5-10.8h-9.7V16h30.5
		v3.4h-16.6c-2,4.5-4.5,9.2-7.1,12.8l15.7-1.2c-1.5-2.7-3.3-5.6-4.8-8.1l2.9-1.3c3,4.7,6.8,10.8,8.6,14.4l-3.1,1.7
		c-0.5-1.1-1.2-2.3-1.9-3.6c-17.9,1.6-19.9,1.8-21.4,2.4V36.2z M330.3,8.4h-24V5.1h24V8.4z"/>
	<path class="st0" d="M353.6,37.7c3.3-0.6,6.7-1.2,10-1.9l0.2,3.1c-8.5,1.6-17.6,3.4-23.9,4.6l-0.8-3.4c2.9-0.5,6.8-1.2,11-1.9v-8.1
		h-9.4V27h9.4v-5.2h3.4V27h9.6v3.2h-9.6V37.7z M339.6,5.2h24.5v3.2h-13c-1.6,3.2-3.6,6.4-5.5,8.9l12.2-1.1c-1.2-1.7-2.4-3.3-3.6-4.8
		l2.5-1.5c2.7,3.2,5.9,7.5,7.2,10.3l-2.7,1.8c-0.4-0.8-1-1.9-1.7-3c-14.9,1.4-16.7,1.6-17.8,2.2c-0.2-0.8-0.8-2.4-1.2-3.4
		c0.8-0.1,1.5-1,2.3-2.1c0.7-1,2.6-3.9,4.2-7.3h-7.6V5.2z M370.1,35.1h-3.4V6.2h3.4V35.1z M379.6,2.9v37.4c0,2.3-0.5,3.4-2,3.9
		c-1.5,0.6-4,0.7-7.5,0.7c-0.1-0.9-0.8-2.5-1.3-3.5c2.8,0.1,5.4,0.1,6.2,0c0.8,0,1-0.2,1-1.1V2.9H379.6z"/>
</g>
<g>
</g>
<g>
</g>
<g>
</g>
<g>
</g>
<g>
</g>
<g>
</g>
<g>
</g>
<g>
</g>
<g>
</g>
<g>
</g>
<g>
</g>
<g>
</g>
<g>
</g>
<g>
</g>
<g>
</g>
</svg>
