<?xml version="1.0" encoding="utf-8"?>
<!-- Generator: Adobe Illustrator 17.0.0, SVG Export Plug-In . SVG Version: 6.00 Build 0)  -->
<!DOCTYPE svg PUBLIC "-//W3C//DTD SVG 1.1//EN" "http://www.w3.org/Graphics/SVG/1.1/DTD/svg11.dtd">
<svg version="1.1" id="Layer_1" xmlns="http://www.w3.org/2000/svg" xmlns:xlink="http://www.w3.org/1999/xlink" x="0px" y="0px"
	 width="294px" height="137px" viewBox="0 0 294 137" style="enable-background:new 0 0 294 137;" xml:space="preserve">
<style type="text/css">
	.st0{fill:#FFF8B8;}
</style>
<g id="cover01.svg">
	<g>
		<path class="st0" d="M39.6,30.4H22.6v9.7h-3.2v-9.7H2.5v-3h16.9V21H6.7v-3h12.6v-6H4.7V9h8.5c-0.7-1.7-2.1-4.3-3.4-6.1l2.8-1.1
			c1.5,2,3.1,4.6,3.7,6.3L14,9h12.2c1.3-2.1,2.7-5.2,3.5-7.3L33,2.6c-1.1,2.2-2.4,4.5-3.5,6.4h8.1v3H22.6v6h12.6v3H22.6v6.4h17.1
			V30.4z"/>
		<path class="st0" d="M81.9,30.6H66.7v9.6h-3.2v-9.6H44.1v-3H51V16.3h12.5V9.9H53.3c-1.9,3.2-4.1,6.1-6.4,8.3
			c-0.6-0.5-1.9-1.6-2.7-2c3.9-3.4,7.5-8.9,9.5-14.5l3.2,0.8c-0.6,1.5-1.3,3-1.9,4.4h25v3H66.7v6.4H79v2.9H66.7v8.3h15.2V30.6z
			 M63.5,27.6v-8.3h-9.4v8.3H63.5z"/>
		<path class="st0" d="M92.4,27.7c-1,2.9-2.7,5.9-4.3,7.9c-0.5-0.4-1.5-1.2-2.1-1.6c1.7-1.8,3.1-4.4,3.9-7L92.4,27.7z M97.5,25.4
			v10.7c0,1.5-0.3,2.2-1.2,2.6c-1,0.5-2.4,0.5-4.4,0.5c-0.1-0.8-0.5-1.8-0.9-2.6c1.4,0,2.7,0,3.2,0c0.4,0,0.5-0.1,0.5-0.5V25.4h-8.4
			v-2.7h8.4v-4.4h-8.6v-2.6h11.6c0.8-1.9,1.8-4.7,2.3-6.7l2.9,0.6c-0.7,2-1.6,4.3-2.3,6h5.3v2.6h-8.3v4.4h7.8v2.7H97.5z M105.1,8.8
			H86.7V6.2H95c-0.5-1.3-1.2-2.7-1.8-3.8l2.8-0.7c0.8,1.4,1.7,3.2,2.2,4.5h7V8.8z M92,9.1c0.8,1.8,1.6,4.3,1.8,5.9l-2.6,0.7
			c-0.2-1.6-0.8-4.1-1.6-6L92,9.1z M101.3,26.8c1.3,2.1,2.9,4.8,3.5,6.6l-2.2,1.3c-0.7-1.8-2.1-4.7-3.4-6.8L101.3,26.8z M124.1,18.8
			h-4.6V40h-3V18.8h-6.3v1.3c0,6-0.5,14.2-4.4,19.6c-0.5-0.6-1.7-1.5-2.4-1.9c3.5-5,3.9-12.1,3.9-17.7V5.8c4.7-0.8,10-2,13.1-3.3
			l2.5,2.3c-3.4,1.3-8.3,2.4-12.6,3v8h14V18.8z"/>
		<path class="st0" d="M155.9,19.5c2.6,3.4,6.6,6.4,10.5,8c-0.8,0.6-1.7,1.8-2.2,2.6c-2.1-1-4.2-2.4-6.2-4.1v14h-3.3v-1.5h-15.4v1.7
			h-3.2V26c-1.8,1.6-3.9,3-6.3,4.3c-0.4-0.8-1.4-2-2.1-2.5c4.4-2.1,7.8-5,10.4-8.3h-9.7v-2.7H140c0.7-1.1,1.3-2.1,1.8-3.2H132V11
			h10.9c0.4-1,0.7-2.1,1-3.1h-13.2V5.2h13.9c0.3-1.1,0.4-2.3,0.5-3.4l3.2,0.3c-0.1,1-0.3,2.1-0.5,3.1h15.6v2.7h-16.1
			c-0.3,1-0.6,2.1-1,3.1H162v2.6h-16.8c-0.5,1.1-1,2.2-1.6,3.2h22v2.7H155.9z M154.8,25.4h-15.4v3.8h15.4V25.4z M154.8,35.8v-4.1
			h-15.4v4.1H154.8z M142,19.5c-0.8,1.1-1.6,2.2-2.6,3.3h15.5c-0.9-1-1.7-2.2-2.4-3.3H142z"/>
		<path class="st0" d="M182.2,23.2l-4.1,1.3v11.8c0,1.7-0.4,2.5-1.4,3c-1,0.5-2.6,0.6-5.3,0.6c-0.1-0.8-0.5-2-0.9-2.9
			c1.8,0,3.4,0,3.9,0c0.5,0,0.8-0.2,0.8-0.8V25.4l-4.7,1.6l-0.8-3c1.6-0.4,3.4-1,5.5-1.6v-9.2h-5v-2.9h5V1.9h2.9v8.4h4v2.9h-4v8.3
			l3.7-1.1L182.2,23.2z M196.6,35.6h6.4v-7h2.9v11.6H203v-2h-19.2v-9.3h2.9v6.7h6.9v-8.9h-11.3V24h11.3v-5.1H188
			c-1,1.5-2.1,2.8-3.2,3.8c-0.5-0.5-1.6-1.3-2.3-1.7c2.2-1.7,3.9-4.2,5-6.9l2.7,0.7c-0.2,0.5-0.4,1-0.7,1.5h17v2.7h-9.9V24h11.3v2.7
			h-11.3V35.6z M206.4,4.7c-5.8,1.5-15.2,2.4-22.8,2.8c-0.1-0.7-0.4-1.7-0.8-2.4c7.5-0.5,16.6-1.5,21.7-2.8L206.4,4.7z M187,14.3
			c-0.4-1.3-1.5-3.5-2.5-5.1l2.4-0.9c1,1.6,2.2,3.6,2.6,5L187,14.3z M194.4,14.1c-0.3-1.5-1.2-4-2.1-5.9l2.4-0.7
			c0.9,1.8,1.9,4.2,2.2,5.8L194.4,14.1z M199.7,14.7c1.2-2.1,2.6-5.5,3.4-7.8l2.9,1.1c-1.3,2.6-2.8,5.8-4,7.7L199.7,14.7z"/>
		<path class="st0" d="M250,18.9v3.4h-38v-3.4H250z"/>
		<path class="st0" d="M266.2,23.2l-4.1,1.3v11.8c0,1.7-0.4,2.5-1.4,3c-1,0.5-2.6,0.6-5.3,0.6c-0.1-0.8-0.5-2-0.9-2.9
			c1.8,0,3.4,0,3.9,0c0.5,0,0.8-0.2,0.8-0.8V25.4l-4.7,1.6l-0.8-3c1.6-0.4,3.4-1,5.5-1.6v-9.2h-5v-2.9h5V1.9h2.9v8.4h4v2.9h-4v8.3
			l3.7-1.1L266.2,23.2z M280.6,35.6h6.4v-7h2.9v11.6H287v-2h-19.2v-9.3h2.9v6.7h6.9v-8.9h-11.3V24h11.3v-5.1H272
			c-1,1.5-2.1,2.8-3.2,3.8c-0.5-0.5-1.6-1.3-2.3-1.7c2.2-1.7,3.9-4.2,5-6.9l2.7,0.7c-0.2,0.5-0.4,1-0.7,1.5h17v2.7h-9.9V24h11.3v2.7
			h-11.3V35.6z M290.4,4.7c-5.8,1.5-15.2,2.4-22.8,2.8c-0.1-0.7-0.4-1.7-0.8-2.4c7.5-0.5,16.6-1.5,21.7-2.8L290.4,4.7z M271,14.3
			c-0.4-1.3-1.5-3.5-2.5-5.1l2.4-0.9c1,1.6,2.2,3.6,2.6,5L271,14.3z M278.4,14.1c-0.3-1.5-1.2-4-2.1-5.9l2.4-0.7
			c0.9,1.8,1.9,4.2,2.2,5.8L278.4,14.1z M283.7,14.7c1.2-2.1,2.6-5.5,3.4-7.8l2.9,1.1c-1.3,2.6-2.8,5.8-4,7.7L283.7,14.7z"/>
		<path class="st0" d="M52.9,70.9c-2.1,2.5-4.8,4.8-7.4,6.1c-0.3-0.7-1.1-1.8-1.7-2.4c2.9-1.3,6-3.8,8.1-6.6h-7.7v-2.6h8.7v-7.8h2.9
			v7.8h8.6v2.6h-7.9c2.1,1.2,5.7,3.6,6.7,4.3l-1.7,2.3c-1-1-3.6-3-5.6-4.5V76h-2.9V70.9z M59.4,93.1c-1-0.7-2.2-1.6-3.7-2.4
			c-3,2.4-6.6,4-10.4,5c-0.3-0.7-0.9-1.8-1.5-2.4c3.4-0.8,6.6-2.1,9.3-4c-2.1-1.1-4.4-2.1-6.4-2.9c0.9-1.3,1.8-2.8,2.7-4.5h-4.4
			v-2.6h5.7c0.4-0.9,0.8-1.8,1.1-2.7l2.8,0.5c-0.3,0.7-0.5,1.4-0.9,2.2h6.8l0.5-0.1l1.8,0.7c-1.1,3.6-2.8,6.6-5,8.9
			c1.3,0.8,2.6,1.5,3.5,2.2L59.4,93.1z M48.4,65.3c-0.4-1.5-1.5-3.8-2.6-5.5l2.3-0.9c1.2,1.6,2.3,3.9,2.7,5.4L48.4,65.3z M52.5,82
			c-0.6,1.2-1.3,2.4-1.8,3.3c1.6,0.7,3.2,1.5,4.7,2.2c1.6-1.5,3-3.4,3.9-5.5H52.5z M63.3,59.8c-1.2,1.9-2.6,4-3.7,5.4l-2-1
			c1-1.5,2.4-3.9,3.2-5.6L63.3,59.8z M78.9,68.8c-1,6.3-2.4,11.5-4.6,15.8c2.1,3.8,4.9,6.9,8.4,8.8c-0.7,0.6-1.6,1.6-2.1,2.4
			c-3.2-2-5.9-4.8-7.9-8.4c-2.5,3.7-5.7,6.6-10,8.9c-0.3-0.7-1.2-1.9-1.7-2.5c4.5-2.2,7.8-5.3,10.2-9.3c-1.6-3.3-2.8-7.1-3.7-11.2
			c-0.8,2.1-1.8,3.9-2.9,5.5c-0.5-0.5-1.7-1.5-2.4-1.9c3.2-4.4,5.1-11.4,6.1-18.7l2.9,0.4c-0.3,2.5-0.8,4.9-1.4,7.3h11.8v2.9H78.9z
			 M69.2,68.8c0.8,4.5,2,8.8,3.6,12.6c1.5-3.5,2.5-7.7,3.2-12.6H69.2z"/>
		<path class="st0" d="M122.9,83.3h-16.3v9c0,1.8-0.5,2.8-1.9,3.2c-1.5,0.5-3.7,0.5-7.1,0.5c-0.3-0.9-0.9-2.3-1.4-3.1
			c2.9,0.1,5.5,0.1,6.3,0c0.8,0,1-0.2,1-0.8v-9H87v-3h16.4v-2.6c2.4-1.2,5.2-3.1,7.3-4.9H93.9v-2.9h20l0.7-0.2l2.1,1.6
			c-2.6,2.7-6.4,5.5-10,7.4v1.6h16.3V83.3z M90.6,70.8h-3.1v-8.6H104c-0.6-1.2-1.4-2.6-2.2-3.7l3-1c1.1,1.4,2.2,3.3,2.8,4.7h14.8
			v8.6h-3.2v-5.6H90.6V70.8z"/>
		<path class="st0" d="M137.9,59c-2.3,1.1-3.7,3.3-3.7,5.2c0.3-0.2,0.7-0.3,1.2-0.3c1.6,0,2.6,1.2,2.6,2.7c0,1.3-1,2.7-2.9,2.7
			c-1.8,0-3.3-1.7-3.3-4c0-3.7,2.5-6.6,5.2-7.9L137.9,59z M146,59c-2.3,1.1-3.7,3.3-3.7,5.2c0.3-0.2,0.7-0.3,1.1-0.3
			c1.6,0,2.6,1.2,2.6,2.7c0,1.3-1,2.7-2.9,2.7c-1.8,0-3.3-1.7-3.3-4c0-3.7,2.6-6.6,5.3-7.9L146,59z"/>
		<path class="st0" d="M160.3,93.3c0,1.3-0.2,1.9-1.1,2.4c-0.8,0.4-2.2,0.4-4.4,0.4c-0.1-0.7-0.5-1.6-0.8-2.2c1.6,0,2.9,0,3.4,0
			c0.4,0,0.5-0.1,0.5-0.5v-4.2h-4.4c-0.4,2.5-1.2,5-2.9,6.9c-0.3-0.4-1.4-1.1-2-1.3c2.6-3.1,2.9-7.3,2.9-10.5V77h8.7V93.3z
			 M153.8,62.5h-5v-2.2h18c-0.4-0.8-0.8-1.6-1.3-2.2l2.9-0.7c0.6,0.9,1.3,2,1.7,2.9H187v2.2h-30.6v2.4h27.8v2.2h-30.4V62.5z
			 M157.9,87v-3h-4v0.3c0,0.8,0,1.8-0.1,2.7H157.9z M153.9,79.1V82h4v-2.8H153.9z M182.1,75.3h-28.1v-6.3h28.1V75.3z M179.1,70.9
			h-22.3v2.3h22.3V70.9z M170.1,94c-0.8-0.9-2.1-2.2-3.3-3.3c-1,2.4-2.6,4.2-5.2,5.4c-0.3-0.5-0.8-1.3-1.3-1.8
			c4.9-2.2,5.7-6,5.9-13.6h2c-0.1,3.3-0.3,6-0.9,8.1l0.3-0.2c1.5,1.1,3.2,2.6,4.1,3.7L170.1,94z M169.9,89.3v-10h-5.8v10.3h-2.1V77
			h10v12.2H169.9z M184.5,93.9c0.2,0,0.5,0,0.5-0.2c0.1-0.1,0.3-0.4,0.4-0.9c0.1-0.5,0.1-1.7,0.1-3.2c0.5,0.4,1.2,0.8,1.8,1
			c0,1.5-0.2,3.2-0.4,3.8c-0.2,0.6-0.5,1.1-0.9,1.3c-0.3,0.3-0.9,0.3-1.5,0.3h-1.4c-0.7,0-1.3-0.2-1.8-0.6c-0.5-0.5-0.6-1.1-0.6-3.6
			v-2.4l-1.6,0.7c-0.5-1.8-1.8-4.5-3-6.8v0.7c0,3.9-0.7,8.9-4.1,12.3c-0.4-0.4-1.4-1.1-2-1.3c3.3-3.2,3.8-7.6,3.8-11V77h9.3v15
			c0,0.9,0,1.6,0.1,1.7c0.1,0.1,0.3,0.2,0.5,0.2H184.5z M177.5,81.7c1.3,2.1,2.6,4.7,3.4,6.7v-9.2h-4.7v3L177.5,81.7z"/>
		<path class="st0" d="M190.1,67.8c2.3-1.1,3.7-3.3,3.7-5.2c-0.3,0.2-0.7,0.3-1.1,0.3c-1.6,0-2.6-1.2-2.6-2.7c0-1.3,1-2.7,2.9-2.7
			c1.8,0,3.3,1.7,3.3,4c0,3.7-2.6,6.6-5.3,7.9L190.1,67.8z M198.1,67.8c2.3-1.1,3.7-3.3,3.7-5.2c-0.3,0.2-0.7,0.3-1.2,0.3
			c-1.6,0-2.6-1.2-2.6-2.7c0-1.3,1-2.7,2.9-2.7c1.8,0,3.3,1.7,3.3,4c0,3.7-2.6,6.6-5.3,7.9L198.1,67.8z"/>
		<path class="st0" d="M217,65.8c-1.1,1.9-2.4,3.5-3.7,4.9c-0.3-0.6-1.1-2.1-1.6-2.8c2.5-2.4,4.6-6.1,5.9-10l2.7,0.8
			c-0.4,1.4-1,2.8-1.7,4.1h8.7v3H217z M221.6,78.5h5.8v2.9h-5.8v8.8l4.7-2.5c0.1,0.8,0.4,2,0.6,2.6c-7,3.9-8.1,4.6-8.8,5.3
			c-0.3-0.8-0.9-2-1.5-2.6c0.8-0.5,2-1.6,2-3.4v-8.3h-6v-2.9h6v-5.7h-4.2V70h12v2.8h-4.9V78.5z M232.4,68.2c-0.6-2-2.4-5.3-4-7.7
			l2.4-1.1c1.7,2.4,3.5,5.5,4.2,7.5L232.4,68.2z M248.6,69.7v22.6c0,1.6-0.3,2.5-1.5,3c-1.2,0.5-3.1,0.5-6.3,0.5
			c-0.1-0.8-0.5-2.1-1-2.9c2.4,0.1,4.5,0.1,5,0c0.6,0,0.8-0.2,0.8-0.8V87h-14v9.2H229V69.7h8.6v-12h2.9v12l5.4,0H248.6z M231.8,72.7
			v4.5h14v-4.5H231.8z M245.8,84.3v-4.5h-14v4.5H245.8z M249.9,60.2c-1.4,2.7-3.2,5.8-4.7,7.8l-2.3-1.1c1.4-2.1,3.4-5.5,4.4-7.9
			L249.9,60.2z"/>
	</g>
</g>
<g>
</g>
<g>
</g>
<g>
</g>
<g>
</g>
<g>
</g>
<g>
</g>
<g>
</g>
<g>
</g>
<g>
</g>
<g>
</g>
<g>
</g>
<g>
</g>
<g>
</g>
<g>
</g>
<g>
</g>
</svg>
