<?xml version="1.0" encoding="utf-8"?>
<!-- Generator: Adobe Illustrator 17.0.0, SVG Export Plug-In . SVG Version: 6.00 Build 0)  -->
<!DOCTYPE svg PUBLIC "-//W3C//DTD SVG 1.1//EN" "http://www.w3.org/Graphics/SVG/1.1/DTD/svg11.dtd">
<svg version="1.1" id="Layer_1" xmlns="http://www.w3.org/2000/svg" xmlns:xlink="http://www.w3.org/1999/xlink" x="0px" y="0px"
	 width="272px" height="100.1px" viewBox="0 0 272 100.1" style="enable-background:new 0 0 272 100.1;" xml:space="preserve">
<style type="text/css">
	.st0{fill:#FFF8B8;}
</style>
<g id="cover02.svg">
	<path class="st0" d="M29.7,25.9v2.4H2.2v-2.4H29.7z M28,4.5v2.4H4V4.5H28z M25.4,14.8v2.4H6v-2.4H25.4z"/>
	<path class="st0" d="M50,13c2.2,7,6.4,12.8,12.6,15.4c-0.6,0.5-1.4,1.5-1.8,2.2C54.6,27.6,50.6,22,48,14.7
		c-1.5,6.1-5,12.3-12.8,15.8c-0.4-0.6-1.1-1.5-1.8-2C41.4,25.2,44.6,19,45.9,13H34.1v-2.4h12.2c0.5-3.4,0.4-6.6,0.5-9.1h2.6
		c0,2.6-0.1,5.7-0.5,9.1H62V13H50z"/>
	<path class="st0" d="M72.3,11.4c-1.6,1.9-3.7,3.6-5.6,4.7c-0.3-0.5-0.8-1.3-1.3-1.8c2.2-1,4.6-2.9,6.2-5h-5.9v-2h6.6V1.4h2.2v5.9
		H81v2h-6c1.6,0.9,4.4,2.7,5.1,3.3l-1.3,1.7C78,13.5,76,12,74.5,10.9v4.4h-2.2V11.4z M77.2,28.3c-0.7-0.5-1.7-1.2-2.8-1.8
		c-2.3,1.8-5,3.1-7.9,3.8c-0.2-0.5-0.7-1.4-1.1-1.8c2.6-0.6,5-1.6,7.1-3.1c-1.6-0.8-3.3-1.6-4.9-2.2c0.7-1,1.4-2.1,2-3.4h-3.3v-2
		h4.3c0.3-0.7,0.6-1.4,0.8-2l2.1,0.4c-0.2,0.5-0.4,1.1-0.7,1.7h5.2l0.4-0.1l1.3,0.5c-0.8,2.8-2.1,5-3.8,6.8c1,0.6,2,1.2,2.7,1.7
		L77.2,28.3z M68.9,7.1c-0.3-1.1-1.1-2.9-2-4.2l1.7-0.7c0.9,1.2,1.8,2.9,2.1,4.1L68.9,7.1z M72,19.8c-0.5,0.9-1,1.8-1.4,2.5
		c1.2,0.5,2.5,1.1,3.6,1.7c1.2-1.2,2.3-2.6,3-4.2H72z M80.2,2.9c-0.9,1.4-2,3-2.8,4.1l-1.5-0.7c0.8-1.2,1.9-3,2.4-4.3L80.2,2.9z
		 M92.1,9.8c-0.7,4.8-1.8,8.7-3.5,12c1.6,2.9,3.7,5.3,6.4,6.7c-0.5,0.4-1.2,1.2-1.6,1.9c-2.5-1.5-4.5-3.7-6-6.4
		c-1.9,2.8-4.3,5-7.6,6.8c-0.2-0.5-0.9-1.5-1.3-1.9c3.5-1.7,6-4,7.7-7.1c-1.2-2.5-2.1-5.4-2.8-8.5c-0.6,1.6-1.4,3-2.2,4.2
		c-0.4-0.4-1.3-1.1-1.8-1.4c2.4-3.4,3.9-8.7,4.7-14.2L86.3,2c-0.3,1.9-0.6,3.7-1.1,5.5h9v2.2H92.1z M84.7,9.8
		c0.6,3.5,1.5,6.7,2.7,9.6c1.2-2.7,1.9-5.9,2.4-9.6H84.7z"/>
	<path class="st0" d="M125.6,20.8h-12.4v6.9c0,1.4-0.4,2.1-1.5,2.5c-1.1,0.4-2.8,0.4-5.4,0.4c-0.2-0.7-0.7-1.7-1.1-2.3
		c2.2,0.1,4.2,0.1,4.8,0c0.6,0,0.8-0.2,0.8-0.6v-6.8H98.3v-2.3h12.5v-2c1.9-0.9,4-2.3,5.6-3.7h-12.8v-2.2h15.2l0.5-0.1l1.6,1.2
		c-2,2-4.9,4.2-7.6,5.7v1.2h12.4V20.8z M101,11.3h-2.3V4.7h12.6c-0.4-0.9-1.1-2-1.7-2.8l2.3-0.8c0.8,1.1,1.7,2.5,2.1,3.6h11.3v6.5
		h-2.4V7H101V11.3z"/>
	<path class="st0" d="M158,4v2.2h-7.2v2.3h-2.3V6.2h-9v2.3h-2.3V6.2h-7V4h7V1.4h2.3V4h9V1.4h2.3V4H158z M131,9.3h26.3v6.2H155v-4.3
		h-21.8v4.3H131V9.3z M133.5,21.6H155v9h-2.3v-1.2h-16.9v1.2h-2.3V21.6z M152.6,13.3v6.3h-16.9v-6.3H152.6z M135.8,23.7v3.8h16.9
		v-3.8H135.8z M150.3,15.1H138v2.8h12.3V15.1z"/>
	<path class="st0" d="M165.3,7.5c-0.9,1.4-1.8,2.7-2.8,3.7c-0.2-0.5-0.8-1.6-1.2-2.1c1.9-1.9,3.5-4.7,4.5-7.6l2,0.6
		c-0.3,1.1-0.8,2.1-1.3,3.1h6.6v2.3H165.3z M168.9,17.2h4.4v2.2h-4.4V26l3.6-1.9c0.1,0.6,0.3,1.5,0.5,2c-5.3,3-6.2,3.5-6.7,4
		c-0.2-0.6-0.7-1.5-1.1-2c0.6-0.4,1.5-1.2,1.5-2.6v-6.3h-4.5v-2.2h4.5v-4.3h-3.2v-2.1h9.1v2.1h-3.7V17.2z M177.1,9.3
		c-0.5-1.5-1.8-4-3.1-5.9l1.9-0.9c1.3,1.8,2.7,4.2,3.2,5.7L177.1,9.3z M189.4,10.4v17.2c0,1.2-0.3,1.9-1.1,2.3
		c-0.9,0.4-2.3,0.4-4.8,0.4c-0.1-0.6-0.4-1.6-0.7-2.2c1.8,0.1,3.4,0.1,3.8,0c0.5,0,0.6-0.2,0.6-0.6v-3.9h-10.7v7h-2.2V10.5h6.5V1.3
		h2.2v9.1l4.1,0H189.4z M176.6,12.7v3.4h10.7v-3.4H176.6z M187.3,21.6v-3.4h-10.7v3.4H187.3z M190.4,3.2c-1.1,2-2.5,4.4-3.6,6
		L185,8.4c1.1-1.6,2.6-4.2,3.3-6L190.4,3.2z"/>
	<path class="st0" d="M201.3,16c0,4.8-0.7,10.8-6.7,14.5c-0.3-0.5-0.9-1.2-1.4-1.6c5.6-3.2,6-8.9,6-13V6.9h2V16z M196.8,22.5h-1.9
		V2.9h10.7v19.5h-2V4.9h-6.8V22.5z M202.2,22.8c1.5,1.7,3.4,4.1,4.2,5.6l-1.7,1.4c-0.8-1.5-2.6-4-4.2-5.8L202.2,22.8z M222.4,10
		h-3.7v17.5c0,1.5-0.4,2.2-1.3,2.6c-0.9,0.4-2.5,0.5-4.8,0.5c-0.1-0.6-0.5-1.7-0.8-2.4c1.7,0.1,3.3,0.1,3.8,0c0.5,0,0.7-0.2,0.7-0.7
		V13.9c-2.2,4.9-5.3,9.5-8.4,12.4c-0.4-0.6-1.2-1.4-1.8-1.9c3.7-3,7.4-8.8,9.4-14.4H207V7.7h9.2V1.4h2.4v6.3h3.7V10z"/>
	<path class="st0" d="M232.1,24.7c0.7,0.3,1.4,1,2.7,1.7c2.1,1.3,4.8,1.6,8.4,1.6c3.6,0,8.4-0.3,11.7-0.6c-0.3,0.7-0.7,1.9-0.8,2.6
		c-2.1,0.1-7.6,0.3-11,0.3c-3.9,0-6.6-0.4-8.8-1.8c-1.3-0.8-2.4-1.8-3.1-1.8c-1.1,0-2.7,1.9-4.2,4l-1.6-2.2c1.6-1.7,3.1-3.1,4.5-3.7
		V14.7h-4.4v-2.2h6.7V24.7z M231.9,8.9c-1.2-1.1-3.8-2.9-5.6-4.3l1.6-1.5c1.8,1.2,4.4,3,5.7,4.1L231.9,8.9z M236.1,24.2
		C236,24.2,236,24.3,236.1,24.2c-0.2-0.4-0.6-1.6-0.9-2.3c0.6-0.1,1.1-0.8,1.7-1.8c0.6-0.9,2.4-4,3.6-7.2h-6.5v-2.2h20.4v2.2h-11
		c-1.3,3-3,6.1-4.7,8.5l10.5-0.8c-1-1.8-2.2-3.7-3.2-5.4l2-0.9c2,3.1,4.5,7.2,5.8,9.6l-2.1,1.1c-0.3-0.7-0.8-1.5-1.3-2.4
		C238.4,23.7,237,23.9,236.1,24.2L236.1,24.2z M252.2,5.6h-16V3.4h16V5.6z"/>
	<path class="st0" d="M258.3,29.9c2.5-1,3.9-2.5,4-4.7c-0.2,0-0.4,0-0.5,0c-1.3,0-2.4-0.8-2.4-2.3s1.1-2.3,2.4-2.3
		c1.8,0,2.7,1.4,2.7,3.7c0,3.5-2.2,6.1-5.5,7.3L258.3,29.9z"/>
	<path class="st0" d="M26.8,40.6c-0.9,2.4-2,4.7-3.3,6.8v21.5h-2.3V51c-1,1.5-2.1,2.8-3.2,4c-0.3-0.6-0.9-1.8-1.3-2.3
		c3.1-3.1,6.1-7.8,7.9-12.7L26.8,40.6z M37.9,48.1v18c0,1.3-0.3,2-1.1,2.4C35.9,69,34.6,69,32.5,69c-0.1-0.7-0.5-1.7-0.8-2.4
		c1.5,0.1,2.9,0,3.3,0s0.5-0.1,0.5-0.5v-18h-4.9c-0.9,2.1-2,4-3.1,5.5c-0.4-0.4-1.4-1.2-1.9-1.5c2.3-2.9,4.2-7.5,5.2-12.2l2.3,0.5
		c-0.5,1.9-1.1,3.7-1.7,5.5h13l0.4-0.1l1.6,0.4c-0.4,2.3-1,5.1-1.4,6.8l-2-0.4c0.2-1.2,0.5-2.8,0.7-4.5H37.9z M32.7,53.9
		c-1,4.2-2.7,8.2-4.7,10.9c-0.4-0.4-1.5-1-2-1.3c2-2.4,3.5-6.2,4.4-10L32.7,53.9z M42.3,53.2c1.8,3.4,3.5,7.8,4,10.7L44,64.6
		c-0.5-2.9-2.1-7.4-3.8-10.8L42.3,53.2z"/>
	<path class="st0" d="M60,41.7c1.6,2.1,3.4,5,4.1,6.9L62,49.5c-0.2-0.5-0.4-1.1-0.7-1.7c-8.7,0.6-9.8,0.8-10.5,1.1
		c-0.1-0.5-0.5-1.7-0.8-2.2c0.5-0.1,0.9-0.6,1.5-1.2s2.3-3.2,3.3-5.7l2.4,0.8c-1.1,2.1-2.5,4.3-3.9,6l7-0.4
		c-0.7-1.2-1.5-2.5-2.3-3.6L60,41.7z M62.6,66.3c0,1.2-0.2,1.9-1.1,2.2c-0.9,0.4-2.2,0.4-4.3,0.4c-0.1-0.6-0.4-1.6-0.8-2.2
		c1.5,0.1,2.8,0,3.3,0c0.4,0,0.5-0.1,0.5-0.5v-3.7h-6.8V69h-2.2V51.1h11.3V66.3z M53.5,53.1v2.7h6.8v-2.7H53.5z M60.3,60.6v-2.9
		h-6.8v2.9H60.3z M69.4,53.8c-3,0-3.8-0.7-3.8-3.3V39.9h2.3v5.3c2.7-0.9,5.6-2.1,7.4-3l1.6,1.7c-2.5,1.2-6,2.3-9,3.2v3.2
		c0,1,0.3,1.2,1.7,1.2h5.1c1.2,0,1.4-0.5,1.6-3.7c0.5,0.4,1.4,0.8,2.1,0.9c-0.3,3.8-1,4.9-3.5,4.9H69.4z M74.9,66.6
		c1.3,0,1.6-0.6,1.7-4.2c0.5,0.4,1.4,0.7,2.1,0.9c-0.3,4.3-1,5.4-3.6,5.4h-5.6c-3.1,0-3.9-0.7-3.9-3.4V54.7H68v5
		c2.9-0.9,6-2.1,7.8-3.3l1.6,1.8c-2.4,1.4-6.1,2.7-9.3,3.6v3.7c0,1.1,0.3,1.2,1.8,1.2H74.9z"/>
	<path class="st0" d="M90.8,56.1l-3.1,1v9c0,1.3-0.3,1.9-1.1,2.3c-0.7,0.4-2,0.5-4,0.4c-0.1-0.6-0.4-1.5-0.7-2.2c1.4,0,2.6,0,3,0
		c0.4,0,0.6-0.1,0.6-0.6v-8.2L81.9,59l-0.6-2.3c1.2-0.3,2.6-0.7,4.2-1.2v-7h-3.8v-2.2h3.8v-6.4h2.2v6.4h3.1v2.2h-3.1v6.3l2.8-0.9
		L90.8,56.1z M101.8,65.5h4.9v-5.3h2.2V69h-2.2v-1.5H92.1v-7.1h2.2v5.1h5.3v-6.8h-8.6v-2h8.6v-3.9h-4.3c-0.8,1.1-1.6,2.1-2.5,2.9
		c-0.4-0.4-1.2-1-1.7-1.3c1.7-1.3,3-3.2,3.8-5.3l2.1,0.5c-0.2,0.4-0.3,0.7-0.5,1.1h13v2h-7.6v3.9h8.6v2h-8.6V65.5z M109.2,42
		c-4.4,1.2-11.6,1.9-17.4,2.1c-0.1-0.5-0.3-1.3-0.6-1.8c5.7-0.4,12.7-1.1,16.5-2.1L109.2,42z M94.5,49.3c-0.3-1-1.2-2.7-1.9-3.9
		l1.8-0.7c0.8,1.2,1.7,2.8,2,3.8L94.5,49.3z M100.1,49.2c-0.2-1.2-0.9-3.1-1.6-4.5l1.8-0.5c0.7,1.4,1.4,3.2,1.7,4.4L100.1,49.2z
		 M104.2,49.6c0.9-1.6,2-4.2,2.6-6l2.2,0.8c-1,2-2.1,4.4-3.1,5.9L104.2,49.6z"/>
	<path class="st0" d="M140.5,55.7V69H138v-1.8h-22.5V55.7h2.6v9.1h8.6V53.7h-9.8V42.7h2.5v8.6h7.3V39.8h2.6v11.5h7.5v-8.6h2.6v11
		h-10.1v11.1h8.8v-9.1H140.5z"/>
	<path class="st0" d="M148.3,60.6v3.1h-1.9V42.9h6.7v17.7H148.3z M148.3,45v13.3h2.9V45H148.3z M163.9,42.6
		c-0.1,18-0.1,23.7-0.9,25.1c-0.4,0.9-1,1.1-1.8,1.2c-0.8,0.1-1.9,0.1-3,0.1c0-0.6-0.2-1.5-0.5-2.1c1.1,0.1,2.1,0.1,2.7,0.1
		c0.4,0,0.6-0.1,0.9-0.6c0.3-0.6,0.5-2.8,0.6-7.7h-3.2c-0.6,3.7-2,7.6-4.6,10.5c-0.3-0.4-1-1.2-1.4-1.5c2.3-2.6,3.5-5.9,4-9.1h-2.3
		v-2.1h2.6c0.2-2,0.3-3.9,0.3-5.6h-2.8v-2h2.8v-5.4h-2.8v-2.1h9.5V42.6z M161.8,56.5c0-1.6,0-3.5,0.1-5.6h-2.7
		c0,1.7-0.1,3.6-0.3,5.6H161.8z M159.2,48.8h2.7l0-5.4h-2.7V48.8z M174.3,42.1c-0.9,3-2,6.9-3,9.9c2.2,3,2.7,5.6,2.7,7.8
		c0,1.9-0.3,3.4-1.2,4c-0.4,0.4-1,0.5-1.6,0.6c-0.6,0.1-1.2,0.1-1.9,0c0-0.6-0.2-1.4-0.5-2c0.6,0.1,1.2,0.1,1.6,0
		c0.4,0,0.7-0.1,0.9-0.3c0.4-0.4,0.6-1.4,0.6-2.6c0-2-0.4-4.4-2.6-7.3c0.9-2.8,1.9-6.4,2.5-8.9h-3.9V69h-2V41.3h6.7l0.3-0.1
		L174.3,42.1z"/>
	<path class="st0" d="M206.5,52.8v2.6h-29v-2.6H206.5z"/>
	<path class="st0" d="M232.9,43.6c-1.5,2.7-3.9,4.9-6.6,6.7c3.6,1.6,7.8,2.8,12.4,3.3c-0.5,0.5-1.1,1.5-1.4,2.1
		c-5-0.7-9.5-2.1-13.2-4.1c-4.1,2.1-9,3.5-13.7,4.3c-0.2-0.6-0.7-1.6-1.1-2.1c4.3-0.6,8.8-1.8,12.6-3.6c-1.7-1.2-3.2-2.4-4.4-3.9
		c-1.5,1.3-3.3,2.5-5.2,3.6c-0.4-0.6-1.2-1.4-1.7-1.7c4.7-2.3,8-5.6,9.7-8.5l2.6,0.5c-0.5,0.8-1.1,1.7-1.8,2.5h9.9l0.4-0.1
		L232.9,43.6z M219.6,61.6c-1.7,2.2-4.6,4.9-6.8,6.3c-0.4-0.5-1.1-1.3-1.6-1.7c2.1-1.2,5-3.5,6.5-5.5L219.6,61.6z M225.2,59.5v6.9
		c0,1.2-0.2,1.8-1.1,2.1c-0.8,0.3-2.1,0.4-3.9,0.4c-0.1-0.6-0.4-1.5-0.7-2.1c1.2,0,2.5,0,2.8,0c0.4,0,0.5-0.1,0.5-0.5v-6.9h-10v-2.1
		h10V54h2.4v3.4h10v2.1H225.2z M219,44.9c1.3,1.6,3,3,5.1,4.2c2.1-1.2,3.9-2.7,5.2-4.3h-10.1L219,44.9z M229.8,60.6
		c2.2,1.8,4.8,4.3,6.1,5.9l-1.8,1.4c-1.2-1.7-3.8-4.3-6-6.1L229.8,60.6z"/>
	<path class="st0" d="M251.9,48.3c0-2.1-1.2-3.7-4-3.7c-1.9,0-3.6,0.9-5.2,2.7l-1.7-1.6c2-2,4.1-3.5,7.2-3.5c4,0,6.5,2.3,6.5,5.9
		c0,4.9-6.8,5.9-5.9,10.8h-2.6C245.2,53.4,251.9,52,251.9,48.3z M247.6,61.7c1.4,0,2.6,1,2.6,2.5c0,1.5-1.2,2.5-2.6,2.5
		c-1.4,0-2.6-1-2.6-2.5C245,62.7,246.2,61.7,247.6,61.7z"/>
</g>
<g>
</g>
<g>
</g>
<g>
</g>
<g>
</g>
<g>
</g>
<g>
</g>
<g>
</g>
<g>
</g>
<g>
</g>
<g>
</g>
<g>
</g>
<g>
</g>
<g>
</g>
<g>
</g>
<g>
</g>
</svg>
