<?xml version="1.0" encoding="utf-8"?>
<!-- Generator: Adobe Illustrator 17.0.0, SVG Export Plug-In . SVG Version: 6.00 Build 0)  -->
<!DOCTYPE svg PUBLIC "-//W3C//DTD SVG 1.1//EN" "http://www.w3.org/Graphics/SVG/1.1/DTD/svg11.dtd">
<svg version="1.1" id="Layer_1" xmlns="http://www.w3.org/2000/svg" xmlns:xlink="http://www.w3.org/1999/xlink" x="0px" y="0px"
	 width="640px" height="664px" viewBox="0 0 640 664" style="enable-background:new 0 0 640 664;" xml:space="preserve" preserveAspectRatio="xMidYMin">
<style type="text/css">
	.st0{fill:#FFF8B8;}
	.st1{opacity:0.4;}
	.st2{fill:#231F20;}
	.st3{fill:none;}
</style>
<g id="d-2.svg">
	<g>
		<g>
			<path class="st0" d="M155.3,32.4l1.1-8.3h-32.5v-3.5h42.4v3.5l-1.1,8.3H155.3z M155.8,36.7h-31.9v-3.5l1.1-8.1h10l-1.3,8.1h32.6
				v18.6c0.1,2.7-1.2,4-4.1,3.9H135v-3.1h18.1c2,0.1,2.9-0.8,2.8-2.8V36.7z M153.6,42v3.9h-29.7V42H153.6z"/>
			<path class="st0" d="M186.8,20.6V26h26.7v3.5h-26.7v23h26.7v3.1h-42.4v-3.1h5V20.6H186.8z"/>
			<path class="st0" d="M220.4,20.6h38.9l1.5,8.9h-8.9l-0.9-5.3h-22.7l-1.1,5.3h-8.9L220.4,20.6z M218.4,34.5V31h42.4v21.6
				c0.1,2.2-1,3.3-3.5,3.1H246v-3.1h2.2c1.6,0.2,2.3-0.4,2-1.8V34.5h-17.7l-4.6,21.2h-9.6l4.6-21.2H218.4z"/>
			<path class="st0" d="M291.9,20.6l0.9,1.8H308V26h-42.4v-3.5h17.7l-0.7-1.8H291.9z M265.6,27.1H308v5.7c0.2,2.6-0.9,3.8-3.5,3.5
				h-38.9V27.1z M265.6,40.9v-3.5H308v3.5l-3.3,3.1h3.3v3.7h-3.5v4.8c0.1,2.2-1,3.3-3.5,3.1h-30.2v-3.1H293c1.6,0.2,2.2-0.4,1.8-1.8
				v-3h-29.3V44h29.3l3.3-3.1H265.6z M299.1,31v-1.1h-24.7v3h23C298.7,32.9,299.2,32.3,299.1,31z"/>
			<path class="st0" d="M312.8,24.1v-3.5h42.4c0.1,2.3-1.4,3.5-4.4,3.5H312.8z M353.3,24.9l-0.7,2.8h2.6v5h-7.9v-1.5h-26.6v1.5h-7.9
				v-5h2.4l-0.7-2.8h8.9l0.7,2.8h4.6l-0.7-2.8h8.9l0.7,2.8h6.3l0.6-2.8H353.3z M323.3,33.2v0.7h31.9v3.5h-32.5l-0.2,1.8h32.6v4.4
				c0.1,2.5-0.7,3.8-2.4,4.1l-5.2,1.5l7.6,1.7v4.8l-17.3-3.9l-15.3,3.9v-5.2l4.4-1.3l-4.4-1.1v-5.2l14.2,3.5l11.6-3.1
				c0.4-0.1,0.6-0.3,0.6-0.6c0-0.2-0.2-0.4-0.6-0.4h-26.2l-1.5,13.3h-7.9l2-18.3h-2v-3.5h2.6v-0.7H323.3z"/>
			<path class="st0" d="M374.2,20.6v1.8h28.2V26h-28.2v1.7h28.2v12.5c0.1,2.5-1,3.6-3.5,3.5H360v-16h5.2v-7H374.2z M369.6,45.3
				l-1.7,10.3H360l1.7-10.3H369.6z M393.5,31.1h-24.7v9h23c1.4,0.2,1.9-0.4,1.7-2V31.1z M381.9,55.7h-8.1l-1.7-10.3h7.9L381.9,55.7z
				 M390.4,45.3l1.8,10.3h-8.1l-1.7-10.3H390.4z M392.6,45.3h7.9l1.8,10.3h-7.9L392.6,45.3z"/>
			<path class="st0" d="M433.2,20.6v1.8h16.4V26h-16.4v3.5h16.4V33h-16.4v19.5h5.9c1.2,0.1,1.8-0.5,1.7-1.8V34.8h8.9v17.7
				c0.1,2.2-1,3.3-3.5,3.1h-38.9V34.8h8.9v17.7h7.6V33h-16.4v-3.5h16.4V26h-16.4v-3.5h16.4v-1.8H433.2z"/>
			<path class="st0" d="M461.4,30.6v-1.7h-7v-3.5h15.9v3.5h-1.7v1.7h1.5v3.5h-1.5v21.4h-7.2V34.1H461c-0.9-0.1-1.2,0.2-1.1,1.1v20.3
				h-5.5V34.1c-0.2-2.6,0.9-3.7,3.5-3.5H461.4z M470.2,20.6v3.7h-15.9v-3.7H470.2z M478.4,55.7h-8.1l2.6-21.6h-1.7V20.6h25.6v10
				c0.2,2.6-1,3.8-3.7,3.5h-12.2L478.4,55.7z M478.2,24.1v6.5h9.2c1.6,0.4,2.2-0.3,1.8-2v-4.4H478.2z M494.6,50.5
				c-0.2,1.7,0.2,2.5,1.5,2.2h0.7v2.8H490c-2.5,0.2-3.6-0.8-3.3-3.1V35.2h7.9V50.5z"/>
			<path class="st0" d="M507.7,30.6v-1.7h-6.1v-3.5h13.3v3.5h-1.1v1.7h0.9v3.5h-0.9v21.6h-6.1V34.1h-0.4c-0.9-0.2-1.2,0.1-1.1,1.1
				v20.5h-4.6V34.1c-0.1-2.6,0.9-3.7,3-3.5H507.7z M514.9,20.6v3.7h-13.3v-3.7H514.9z M515.6,34.3v-9H544v5.2c0.4,3-0.8,4.2-3.5,3.9
				H515.6z M515.6,35.4H544v16c0.4,3.2-1.1,4.5-4.4,4.1h-24V35.4z M515.8,24.1v-3.5H544v3.5H515.8z M522.8,28.6v2.2H535
				c0.1,0,0.2,0,0.4,0c1.2,0.2,1.8-0.3,1.7-1.7v-0.6H522.8z M522.8,38.9V42h3.9v-3.1H522.8z M522.8,45.5v6.1h3.9v-6.1H522.8z
				 M532.8,38.9V42h3.7v-3.1H532.8z M532.8,45.5v6.1h1.7c1.6,0.4,2.3-0.4,2-2.2v-3.9H532.8z"/>
			<path class="st0" d="M243.6,120.7V90.1l-1.7,0.2v-3.5l10.1-1.1v35H243.6z M266.1,85.6l-0.6,1.8h18.8V91h-19.5l-0.6,2.6h20.1v3.5
				h-21l-0.7,3.7h21.8l-2.6,16.8c0,2.7-1.4,3.7-4.2,3.1h-18.8c-3,0.6-4.3-0.4-4.1-3.1l-0.9-7h7l0.6,5.2c-0.1,1.5,0.6,2.1,2,1.8h7.6
				c1.5,0.2,2.2-0.4,2.2-1.8l1.7-11.2h-21.6l1.8-7.4h-1.8v-3.5h2.6l0.6-2.6h-3.1v-3.5h4.1l0.4-1.8H266.1z"/>
			<path class="st0" d="M298.9,113.1c-0.2,2.5-1.7,3.9-4.2,4.4h36.9c-0.2,2.1-1.4,3.1-3.5,3.1h-37.2V91h-1.7v-3.5h1.8l-1.1-1.8h8.1
				l0.9,1.8V113.1z M306.3,116.6h-6.6l1.8-14.2h-1.8v-9.6h11.6v-2.2h-11.6v-3.7h2.6l-0.7-1.3h8.3l0.7,1.3h10.1l0.7-1.3h8.3l-0.7,1.3
				h2.6v5.9c0.1,2.5-1.1,3.6-3.7,3.5H320v2.6h11.6v14.2c0.1,2.5-1,3.6-3.5,3.5h-4.4v-14.2H320v14.2h-8.7v-14.2H308L306.3,116.6z
				 M305.2,96.3v2.6h6.1v-2.6H305.2z M320,90.6v2.2h2.2c1.2,0.2,1.7-0.3,1.5-1.7v-0.6H320z"/>
			<path class="st0" d="M346.1,120.7H338V90.1l-1.7,0.2v-3.5l9.8-1.1V120.7z M356.3,85.8c-0.2,1.4,0.4,1.9,1.8,1.7h20.7V91l-0.7,1.7
				h-7.9L371,91h-19.5c-2.5,0.1-3.6-1-3.5-3.5v-1.8h8.3V85.8z M355.5,92.6l-0.7,28h-6.6l0.7-28H355.5z M367.9,117.5
				c0.2,2.2-0.9,3.3-3.5,3.1h-5.2v-28h8.7V117.5z M371.6,94.5h6.6l0.6,26.2c-4.8,0.5-7-1.2-6.6-5L371.6,94.5z"/>
			<path class="st0" d="M405.7,117.5c0.2,2.3-0.9,3.4-3.5,3.1h-18.6V87.3l0.6-1.7h7.9l-0.7,1.7h14.4V117.5z M397.8,98v-7h-6.3v7
				H397.8z M397.8,115.7v-14.2h-6.3v16h4.8C397.5,117.8,398,117.2,397.8,115.7z M413.1,92.6l3.1,27.8h-6.3l-3-27.8H413.1z
				 M414.9,86.2c-0.2,0.9,0.4,1.2,1.8,1.1h9.2v30.2c0.1,2.2-1,3.3-3.5,3.1h-4.4V91h-7.9c-2.6,0.5-3.5-0.7-2.8-3.5l0.2-1.8h7.6
				L414.9,86.2z"/>
			<path class="st0" d="M134.4,200.7l-11.2-3.5l-11.6,3.5v-3.5l5.9-2l-1.7-0.6c-2.2-0.6-3.1-2-2.8-4.1v-5.2h-1.5v-3.9h1.5V180h7v1.5
				h6.5V180h7v1.5h0.9v3.9h-0.9v5.3c0.4,2.2-0.5,3.4-2.6,3.7l-2.2,0.7l5.7,2V200.7z M123.3,178.7h-3.5v-8.3h-7.6v-3.1h0.2l-0.2-1.7
				h5.2l0.4,1.7h2v-1.7h7.2v1.7h1.7l0.4-1.7h5.3l-0.4,1.7h0.4v3.1H127v5.2C127.3,177.9,126.1,179,123.3,178.7z M118,178.7h-5.7
				l0.9-7.7h5.7L118,178.7z M120,190.5c-0.2,1.2,0.2,1.9,1.3,2l1.8,0.7l1.8-0.7c1.1-0.1,1.6-0.8,1.5-2v-5.2H120V190.5z M134.4,178.7
				h-5.7l-1.1-7.7h5.7L134.4,178.7z M142.5,200.7h-7.4l3-18.8l-2.4-8.7h7.2l1.7,5.9l1.8-7.2c0.4-0.6,0.1-0.9-0.7-0.9h-6.8
				c-2.6,0.2-3.8-0.9-3.7-3.5v-1.8h8.5c-0.2,1.5,0.2,2.1,1.3,1.8h9v1.3c0.1,1.6-0.1,3-0.6,4.2l-2.4,8.9l3,18.8h-7.4l-2-13.8
				L142.5,200.7z"/>
			<path class="st0" d="M168,171v1.7h-9.4v-5.2h15.3l-0.4-1.8h10.7l0.4,1.8h16.6v5.2h-9.4V171H168z M179.8,195.9v-9h-21.2v-3.5h21.2
				v-3.5l3.9-1.8h-25.1v-3.5h42.6v4.6l-10.9,2.6v1.7h10.9v3.5h-10.9v10.7c0.2,2.3-0.9,3.4-3.3,3.1h-21.2v-3.1h12.7
				C179.6,197.8,180,197.2,179.8,195.9z"/>
			<path class="st0" d="M230.1,176.5v-6.8c0.7-4.3,2.9-6.8,6.5-7.6v3c-1.4,0.6-2.2,1.5-2.4,2.8v1.3h3v7.4H230.1z M241,176.5v-6.8
				c0.4-4.1,2.5-6.6,6.5-7.6v3c-0.6,0.4-1.1,0.7-1.5,1.1c0,0.1-0.1,0.2-0.4,0.4c-0.4,0.6-0.6,1-0.6,1.3v1.3h3v7.4H241z"/>
			<path class="st0" d="M255.8,160.8v-5.6h-1.4v-4.8h25l-0.8-2.8h14.6l0.8,2.8h25v4.8h-49.8v2h49.8v3.7H255.8z M319.1,167.6
				c0.2,2.6-1.2,3.8-4.2,3.7h-60.5v-9h64.7V167.6z M262.3,198.5c0.4,2.1-0.8,2.9-3.4,2.5h-4.5v-28.7h23.1v25c0.2,2.8-1.2,4-4.2,3.7
				h-3.9v-9h-7V198.5z M262.3,177.4v2.5h7v-2.5H262.3z M262.3,184.5v3.4h7v-3.4H262.3z M305.6,166.5v-0.8h-37.7v1.7h36.6
				C305.4,167.5,305.8,167.2,305.6,166.5z M286.2,201.1h-7.3l1.7-4.2h-1.7v-24.5h18.3v19.4c0.2,3.6-1.4,5.3-4.8,5.1h-2.5v-19.4h-3.7
				v16.9h2.2L286.2,201.1z M288.7,197.7h7.3l1.1,3.4h-7.3L288.7,197.7z M319.1,172.4v28.7h-3.7c-2.4,0.4-3.5-0.6-3.1-2.8v-10.7
				l-3.4-0.8v-4.8l3.4,0.6v-5.1h-4.8v20.8c0.2,2.2-0.8,3.2-3.1,2.8h-5.1v-28.7H319.1z"/>
			<path class="st0" d="M332.7,162.1v6.8c-0.4,4.4-2.5,6.9-6.5,7.6v-3c1.4-0.2,2.1-1.2,2.4-2.8v-1.3h-3v-7.4H332.7z M343.4,162.1
				v6.8c-0.4,4.3-2.5,6.8-6.5,7.6v-3c0.6-0.2,1.1-0.6,1.5-1.1c0.6-0.6,0.9-1.2,0.9-1.7v-1.3h-3v-7.4H343.4z"/>
			<path class="st0" d="M386.6,167.5v3.5h-14.2l0.6-5.3h8.3l-0.4,1.8H386.6z M374,197.5v-14.2h-1.7v-3.5h1.7v-3.7h-1.7v-3.5h14.2
				v3.5h-4.1v3.7h4.1v3.5h-4.1v12.4c-0.2,1.5,0.4,2.1,1.8,1.8h2.2v3.1h-9C375,200.9,373.8,199.9,374,197.5z M405.9,165.6v5.3h8.9
				v26.6c0.1,2.2-1,3.3-3.3,3.1h-5.2v-10.3h-10v10.3h-8.5V171h8.9v-5.3H405.9z M389.2,170.1l-1.3-4.4h6.6l1.3,4.4H389.2z
				 M406.3,174.5h-10v3.5h10V174.5z M406.3,186.8v-5.3h-10v5.3H406.3z M406.9,170.1l1.3-4.4h6.6l-1.3,4.4H406.9z"/>
			<path class="st0" d="M425.5,200.7h-5.9l1.1-6.6h-1.1v-28.4h15.9v24.9c0.2,2.6-0.9,3.8-3.5,3.5h-2.8v-24.9h-3.5v24h1.3
				L425.5,200.7z M428.1,195h6.1l1.3,5.7h-6.1L428.1,195z M460.1,165.6v1.8h1.8v3.5h-1.8v26.6c0.2,2.3-1,3.4-3.7,3.1h-5.7V171h-2
				l-4.2,29.7h-7.7L441,171h-4.6v-3.5h14.4v-1.8H460.1z"/>
			<path class="st0" d="M468.4,171h-1.7v-3.5h1.8l-1.1-1.8h8.1l0.9,1.8v25.6c-0.2,2.5-1.7,3.9-4.2,4.4h36.9
				c-0.4,2.1-1.6,3.1-3.7,3.1h-37.1V171z M477.3,169.1v-3.5h31.9v3.5H477.3z M479.1,196.6c-1.6,0.1-2.2-0.6-1.7-2l6.1-19.2h-6.3
				v-3.5h31.9v3.5H493l-5.2,16.6c-0.4,0.7,0,1.1,1.1,1.1h10.5c0.4,0,0.6-0.1,0.6-0.2c0.1,0,0.1-0.2,0-0.6l-1.1-4.6h8.3l1.8,7.2
				c0.6,1.2,0.1,1.8-1.7,1.7H479.1z"/>
			<path class="st0" d="M525.4,167.7v11.8l-1.1,12.2h-1.8l-1.1-12.2v-11.8H525.4z M525.4,195.7v4.2h-4.1v-4.2H525.4z"/>
		</g>
	</g>
	<g class="st1">
		<path class="st2" d="M491.9,401c-2.2,1.2-4.4,2.5-4.2,5.6c-0.5,0-0.9,0-1.4,0c-0.4-0.7-0.8-1.5-1.7-2.9c1.6-1.6,3.5-3.5,5.7-5.7
			c-4.1,1.3-6.2,4.2-8.3,7.2c-0.5,0.5-0.9,0.9-1.4,1.4c-2.3-0.6-3.3,1.1-4.5,2.4c-3.2,3.5-7,6.1-11.1,8.2c-0.7,0.4-1.7,0.3-2.6,0.5
			c0.4-0.7,0.9-1.5,1.4-2.5c-3.5-0.8-6.6-0.3-9,2.5c-1,1.2-2.1,1.6-3.6,1.4c-0.2-0.4-0.3-0.8-0.5-1.2c-0.3,0.4-0.6,0.8-0.9,1.2
			c-1.4,0-2.8,0-4.2,0c0.8-0.5,1.5-1.2,2.4-1.6c6.9-3.4,13.4-7.4,19.9-11.5c0.7-0.4,1.5-0.7,2.9-1.3c-0.7,1.6-1.1,2.5-1.5,3.3
			c-0.5,0.5-0.9,0.9-1.3,1.5c0,0-0.1-0.1-0.2-0.2c-0.4,0.3-0.8,0.6-1.1,1c0.1,0.1,0.3,0.3,0.4,0.4c0.3-0.4,0.6-0.8,0.9-1.2
			c0.4-0.5,0.9-1,1.3-1.5c0.7,0,1.8,0.3,2,0c3.6-4.9,10.3-6.5,12.8-12.6c0.7-1.6,2.3-3.1,3.9-3.9c5.8-2.8,8.8-8,12-13
			c0.1-0.1-0.1-0.4-0.3-1.4c-0.9,0.9-1.6,1.5-2.3,2.1c-0.8,0.8-1.6,1.6-2.5,2.5c-3.6,3.6-7.3,7.1-10.8,10.8c-3,3.1-6.3,4.9-10.7,4.4
			c0.5-0.9,0.9-1.9,1.1-2.9c3.5,0.7,4-2.2,5.5-3.8c-2.8-0.2-3.8,2.1-5.5,3.8c-1.9-0.1-3.3,0.7-3.9,2.9c-0.5,0.5-0.9,0.9-1.4,1.4
			c-1.1,0.2-2.7-0.7-2.8,1.4c-1.4,0.9-2.8,1.9-4.2,2.8c-0.4,0.2-0.8,0.3-1.2,0.5c0.4,0.3,0.8,0.6,1.2,0.9c-0.5,2.2-2,3-4.2,2.8
			c0-0.5,0-0.9-0.1-1.5c0,0,0.1,0.1,0.2,0.2c0.4-0.3,0.8-0.6,1.1-1c-0.1-0.1-0.3-0.3-0.4-0.4c-0.3,0.4-0.6,0.8-0.9,1.2
			c-1,0.3-2.6-0.6-2.7,1.5c-0.4,0-1-0.2-1.3,0c-1.9,1.3-3.8,2.8-5.7,4.2c-2.3,0.6-4.7,0.8-6.7,2c-1.6,0.9-3,0.6-4.5,0.8
			c0-0.5,0-0.9,0-1.4c0.9-0.2,1.8-0.3,2.7-0.5c0-0.3-0.1-0.6-0.1-0.9c-0.9,0-1.7,0-2.6,0c0.7-2.7,2.8-0.9,4.3-1.5
			c0,0-0.1,0.1-0.2,0.2c0.3,0.4,0.6,0.8,1,1.1c0.1-0.1,0.3-0.3,0.4-0.4c-0.4-0.3-0.8-0.6-1.2-0.9c2.5-1.8,4.8-4.1,7.7-5.4
			c11.9-5.6,21.6-14.1,30.3-23.7c4.8-5.3,9.2-11.2,12.9-17.6c1.5-1.5,3.2-3.2,4.9-4.9c0,0.9,0,1.7,0,2.6c3.4-4.1,5.3-8.6,5.6-13.7
			c0.5-0.6,1.2-1.1,1.4-1.8c0.9-4.3,1.7-8.5,2.5-12.5c-1-3.6-2-7.1-3-10.6c-0.4,0.1-0.8,0.1-1.1,0.2c0.5,4,1,8.1,1.5,12.1
			c-3.1-5.4-4.1-11.4-6.6-16.9c-1.9-4-3.3-8-6.6-11.2c-1.7-1.7-3-3.8-4.5-5.8c-0.8-1.1-1.2-2.3-2-3.3c-2.1-2.9-5-5-7.1-8.1
			c-1.9-2.7-6.1-3.8-9.3-5.6c-0.8-0.5-1.3-1.3-2.2-2.2c-1.8,0-3.8,0-5.6,0c-1-1.1-1.8-1.9-2.7-2.7c-1.2,0-2.3,0-3.5,0
			c-0.1-2.1-1.7-1.2-2.9-1.3c0,0,0.1-0.1,0.2-0.2c-0.3-0.4-0.6-0.8-1-1.1c-0.1,0.1-0.3,0.3-0.4,0.4c0.4,0.3,0.8,0.6,1.2,0.9
			c0.2,2,1.8,1.1,2.9,1.3c0.2,0.4,0.2,1,0.5,1.2c8.3,4,15.8,9.1,21.8,16.2c2.1,2.5,4.7,4.5,6.8,6.9c8.4,9.6,14.6,20.2,15.6,33.2
			c0,0.4,0.9,0.7,1.3,1.1c0,2.8,0,5.6,0,8.4c-1.9,0-1.3-1.5-1.4-2.5c-0.1-1-0.2-2.1-0.4-4.4c-0.7,2.1-1,2.9-1.8,5.3
			c-0.3-7.4-4.8-12.4-3.1-18.5c-0.6-0.6-1-0.8-1.2-1.2c-6.6-13.2-13.1-22.4-21.2-29.4c-7.8-6.8-16.7-11.6-27-13.6
			c-2.6-0.5-5.1-1.2-7.9-1.9c-0.6-0.6-1.4-1.4-2.2-2.2c-2.8,2.5-6.1,0.9-9.3,1.3c-2.2-1.4-2.2-1.4-4.9-1.2c-0.1,0-0.2,0.6-0.4,1.1
			c1.9,0,3.6,0,5.2,0.1c-0.4,0.5-1,1.4-1.6,1.4c-2.2,0.2-4.5,0.1-6.8,0c-1.7-1.4-1.7-1.4-4-0.1c1.6,0,2.9,0,4,0.1
			c0.1,0.3,0.1,0.7,0.1,0.8c-5.4,0.7-10,4.1-15.4,4.9c-0.2-1-0.3-1.9-0.6-3.6c-2.1,1.5-3.5,2.6-5,3.6c-0.7,0-1.4-0.2-2,0
			c-6,2.2-11.5,5.3-16.1,9.8c-1.1,0.2-2.7-0.7-2.8,1.4c-0.5,0.5-0.9,0.9-0.9,1.3c-4.9,1.4-7.2,3.9-6.7,7c2.1-2,4.1-4.1,6.7-7
			c0-0.3,0.4-0.8,0.9-1.3c1.1-0.2,2.7,0.7,2.8-1.4c1-0.3,2-0.6,3-0.9c1.8-0.6,3.6-1.2,5.4-1.9c-0.9,0.9-1.5,2.3-2.6,2.7
			c-6.2,2.8-11,7.4-15.7,12c-1.5,1.5-1.3,4.4-4.1,4.8c-0.2-0.4-0.3-0.8-0.5-1.2c-0.3,0.4-0.6,0.8-0.9,1.2c-0.5,0.5-0.9,0.9-1.4,1.4
			c-2.1,0.1-1.2,1.7-1.4,2.8c-0.5,0.5-0.9,0.9-1.4,1.4c-2.1,0.1-1.2,1.7-1.4,2.8c-0.5,0-0.9,0-1.4,0c-0.2-0.4-0.3-0.8-0.5-1.2
			c-0.3,0.4-0.6,0.8-0.9,1.2c-2.1,0.1-1.2,1.7-1.4,2.8c-0.5,0.5-0.9,0.9-1.4,1.4c-2.1,0.1-1.2,1.7-1.4,2.8c-0.5,0.4-0.9,0.7-1.4,1.1
			c0.5,0.6,0.9,1.2,1.4,1.7c-0.2,1.1,0.7,2.7-1.5,2.9c0,0,0.1-0.1,0.2-0.2c-0.3-0.4-0.6-0.8-1-1.1c-0.1,0.1-0.3,0.3-0.4,0.4
			c0.4,0.3,0.8,0.6,1.2,0.9c0.1,0.4,0.2,0.9,0,1.3c-3.9,7.3-4.1,10.5-5.7,18.5c-2.4,11.4-0.3,22.8-1.4,34.4
			c6.1,0.8,11.6-1.1,17.1-1.6c5.4-0.5,10.7-0.8,16.2-1.1c0.3,0.9,0.6,1.7,1,2.9c0.7-0.1,1.5-0.3,2.5-0.4c-0.7-0.8-1.1-1.3-2.6-2.9
			c2.6,1,3.8,1.4,5.2,1.9c0,2.4,0,4.4,0,6.2c3,2.4,5.8,4.6,8.9,7.1c-1.3,0.5-2.1,0.8-3.1,1.1c0,0.8-0.1,1.7-0.1,2.4
			c2,2.8,4,5.4,6.1,8.3c-0.7,0.7-1.1,1.1-1.6,1.4c-0.3,0.2-0.8,0.2-1.4,0.3c-0.4,1.9-0.2,5-2.3,5c-2.8,0-1.4,3.4-5.3,2.3
			c-0.7,0.3-0.5,0.8-0.3,0.8c0.7-0.1,1.3-0.4,2-0.6c-0.8-0.2-1.7-0.5-1.7-0.2c0.9,1.4,0.2,2-0.9,2.9c0.7,0.8,1.6,1.9,3.3,3.8
			c-4.5-0.7-8.3-0.6-11.3-2c-5.3-2.5-10.2-1.1-15,0.4c-7.8,2.4-16.5,9.8-22,17.3c-1.5,2-3.6,3.7-5.8,5.9c1.8,0.2,3.3,0.2,4.7,0.4
			c4,0.4,8,1.2,12,1.3c3.9,0.1,7.3,0.9,10.8,2.6c1.9,0.9,4.5,0.2,6.8,0.2c2,4.1,5,6.9,9.2,8.3c0,3,0,5.5,0,7.7
			c3,2.8,3.8,6.4,2.8,9.5c-1.3,4-4.3,7.4-8.2,9.4c-2.9,1.5-5.7,3.6-9.3,2.8c-1.7-0.3-3.3,1.4-4.3,1.2c-4.1-0.8-8.1,3.4-12.1,0.2
			c-4.7,1.5-10.2,0.6-14.8,4.8c0,2.5,0,5.5,0,8.4c0,3,0,5.9,0,9.2c12.7,0,25,0,37.3,0c7.2,0,14.5-0.4,21.6,0.1c8,0.5,16,1.5,24,2.8
			c3.3,0.5,6.7,2,9.6,3.8c5.4,3.2,10.6,6.9,14.7,11.8c0.8,1,3.2,9.9,3.2,11.9c0,3.5,0,7,0,10.5c-2,3.2-4.8,5-8.4,6.1
			c-3.3,1.1-6.3,4-9.6,0.1c-1,0.8-1.7,1.3-2.8,2.1c-1.1-0.8-2.4-1.8-3.7-2.8c-3.3,2.5-6.1,0.3-9.3-1.1c-6-2.7-12.2-4.9-19-4.8
			c-10.3,0.2-20.5-2.4-30.8-1.4c-5.8,0.6-11.7,1.2-18.4,1.8c-0.3,1-1.8,3.2-1.2,4c1.8,2.6,1.2,5.3,1.2,7.9
			c0.1,11.6-0.2,23.3,0.1,34.9c0.2,7.7-2.1,15-2.9,22.6c-1.8,0.8-0.1,4.2-3.3,4.3c-1,0.1-1.9,2.1-3.6,4.1c-2.8,1.1-7,2-9.2,5.7
			c-2.1-0.8-3.7-1.3-5.9-2.1c-0.2-0.3-0.6-1.3-1.1-2.3c-1.9,3.5-1.9,3.5-5.7,4.4c-0.8-1.1-1.7-2.4-3.2-4.5c0.4-3.1-1.4-6.5-4.8-9.3
			c0.8-1,1.3-1.7,1.8-2.4c-1.2-1.8-2.4-3.6-4.2-6.1c0-1.2,0-3.2,0-5.2c-1.1-0.4-1.9-0.7-3.1-1.1c0.5-1.1,1-2,1.7-3.5
			c0-1.4,0-3.5,0-5.6c0-2.6-0.2-5.1,0.1-7.7c0.2-2.4,0.5-4.9,1.4-7.1c1.8-4.2,1.2-8.5,1.3-12.7c0.1-3.2,0-6.5,0-9.6
			c-0.7-0.7-1.4-1.4-2.3-2.3c-6.2,2.5-13.4,1.2-19.7,4.4c-3.9-0.8-7.6,0.7-11.3,1.5c-7.2,1.5-14.6,2.4-21.4,5.5
			c-0.7,0.3-1.4,0.8-2.6,1.5c0-1.1,0-2,0-2.9c1.1-0.2,2.7,0.7,2.8-1.4c1.1-0.2,2.7,0.7,2.8-1.9c0-0.1,0,0.3,0,0.7
			c0.9-0.2,1.8-0.4,2.7-0.5c0-0.3-0.1-0.6-0.1-0.9c-0.9,0.1-1.8,0.2-2.7,0.8c-1,0.8-2.7-0.2-2.8,1.9c-1.1,0.2-2.7-0.7-2.8,1.4
			c-3.5,0.6-6.8,1.5-9.4,4.4c-1.1,1.2-2.9,2-4.5,2.6c-3,1.2-5.5,2.9-7.4,5.5c-2.4,0-4.7,0-7.5,0c-0.8-1.1-2-2.5-3-3.8
			c-1.6,0-2.7,0-3.5,0c-1.4-1.4-2.5-2.5-3.5-3.5c-0.8-2.5,1-5.3-1.5-7.2c0.8-3.5,1.5-6.8,2.5-11c-0.5-0.9-1.4-2.7-2.6-5
			c0-0.9,0.2-2.5-0.1-4.1c-0.2-1.3-0.9-2.6-2-5.2c1.7,1.3,2.1,1.7,3,2.4c0.2-1.4,0.4-2.6,0.6-3.7c3.6-2,6.7-4.8,11-5.5
			c2.8-0.5,5.4-1.8,8.2-2c3.6-0.2,6.8-1.6,10-2.9c2.2-0.9,4.3-2.5,6.5-2.7c3.7-0.3,6.1-2.4,8.6-4.7c2.6-2.3,5.4-4.3,8.2-6.4
			c0.4,0.4,0.8,0.8,1.1,1.1c0.7-0.9,1.4-1.8,2.2-2.7c0.2,0.4,0.3,0.8,0.5,1.2c0.3-0.4,0.6-0.8,0.9-1.2c1.1-0.2,2.7,0.7,2.8-1.4
			c1.1-0.2,2.7,0.7,2.8-1.4c2.2,0.2,3.6-0.6,4.2-2.8c0.5-0.5,0.9-0.9,1-1.7c-0.1-0.1,0.1,0.1,0.4,0.4c0.8-0.1,1.6-0.1,2.8-0.2
			c-0.1-1-0.1-1.7-0.2-2.7c-1.3,0.8-2.3,1.5-2.9,2.5c-0.1,0.8-0.6,1.3-1,1.7c-0.9,0-1.9,0-2.8,0c2.8-2.8,5.6-5.5,8.8-8.7
			c-5.3-2.5-7.9-8.3-13.9-9.6c-1.9-4.4-3.1-8.6-0.7-13.4c0.9-1.8,0-4.6,0.2-6.9c0.1-1.5,0.6-2.9,1-5.2c-0.2-0.7-0.8-2.3-1.4-4.1
			c17.4-7.3,32-18.4,46.2-29.1c0-2.1,0-3.7,0-5.6c-6.2,2.3-12,4.4-18.6,6.8c1.8,0.2,2.8,0.2,3.8,0.4c0.9,0.2,1.8,0.5,4.4,1.2
			c-6.9,3-13.3,3.2-16.5,8.5c-0.9,0-1.4-0.1-1.8,0c-6.3,1.9-9.7,0.9-13.8-4.3c-2.2-2.8-4.4-5.7-6.5-8.5c-0.8,0.7-1.3,1.2-1.9,1.6
			c-1.2-9.5-0.9-15.4,0.8-18.8c-3.5-3.1-2.7-7.4-2.8-11.8c-3.4,1.3-4.4,5.4-8.1,5.8c0,1.3,0,2.6,0,2.5c-0.8,5.6-6.4,4.8-7.3,8.9
			c-0.7,3-2.7,5.8-4.6,9.6c2.1-0.8,3.4-1.3,4.7-1.7c-0.5,1.7-1,3.4-1.5,5.3c1.7-0.5,3-0.8,4.3-1.1c-0.8,0.9-1.5,2.3-2.5,2.7
			c-2.2,0.8-3.5,2.3-4.4,4.4c0,0-0.1-0.1-0.2-0.2c-0.4,0.3-0.8,0.6-1.1,1c0.1,0.1,0.3,0.3,0.4,0.4c0.3-0.4,0.6-0.8,0.9-1.2
			c0.9-0.1,1.8-0.1,2.7-0.1c0,0.5,0,0.9,0,1.4c-0.4,0.2-0.8,0.3-1.2,0.5c0.4,0.3,0.8,0.6,1.2,0.9c-0.1,2.1-1.7,1.2-2.8,1.4
			c-3.4-2.1-3.8-2-7,1.4c1.6,0,2.9,0,4.2,0c0.4,0.7,0.8,1.4,1.3,2.4c-0.9,0.1-1.8,0.2-2.7,0.4c-0.2-0.4-0.3-0.8-0.5-1.2
			c-0.3,0.4-0.6,0.8-0.9,1.2c-4.7,0.4-6.4,1.3-7.7,4.2c2.6-0.9,5.1-1.9,7.7-2.8c-1.6,3.7-5.4,4.4-8.5,5.4c-4.5,1.4-9.2,2.6-14,3.3
			c-3.5,0.5-7.1,1.6-10.6,1c-9.1-1.6-18.5-0.8-27.2-4.8c-1.9-0.9-4.3-0.7-6.6-1.6c1.7-0.3,3.4-0.5,5.2-0.8
			c-4.1-3.9-9.9-5.8-12.4-11.2c-0.2-0.4-0.5-0.9-0.8-1c-5.3-0.9-4.2-6.1-6.7-9.2c-2.4,0.1-3.2-4.1-6.5-3.3c0,0,0.1-0.1,0.2-0.2
			c-0.3-0.4-0.6-0.8-1-1.1c-0.1,0.1-0.3,0.3-0.4,0.4c0.4,0.3,0.8,0.6,1.2,0.9c1,2.4,1.9,4.9,2.9,7.6c-0.4,0.2-0.9,0.5-1.4,0.7
			c-0.5-0.5-0.9-0.9-1.4-1.4c-0.1-2.1-1.7-1.2-2.8-1.4c0-0.5,0-0.9,0-1.4c0.4-0.2,0.8-0.3,1.2-0.5c-0.4-0.3-0.8-0.6-1.2-0.9
			c-0.5-0.5-0.9-0.9-1.4-1.4c-0.6-0.5-1.2-0.9-1.7-1.4c-0.4-0.4-0.7-0.9-1.1-1.4c0.4-0.2,0.8-0.3,1.2-0.5c-0.4-0.3-0.8-0.6-1.2-0.9
			c-0.3-1-0.4-2.3-1-3c-2.5-3.1-4.2-6.6-4.9-10.7c-2,0-4,0-6.2,0c-0.3,0.7-0.5,1.5-0.9,2.5c-1.1-1.6-2.1-3.1-3.4-4.9
			c0-1.3,0-3,0-4.7c0.2,0,0.4,0,0.7-0.1c0.3,1.4,0.6,2.9,0.8,4.2c0.8,0,1.3,0,2,0c-0.4-1.3-0.8-2.5-1.5-4.8c1.4,1.1,1.9,1.5,2.1,1.7
			c1.5-1.5,3.1-3.1,5.1-5.1c0-1.6,0-4.1,0-7.2c-1.5-0.5-3.1-1.1-5.4-1.9c0,2.9,0,5.2,0,7.5c-1.1,0-1.8,0-3,0c0.6-3.1,1.2-6,1.8-9.3
			c-2.2,0.6-3.9,1-5.9,1.5c1.1,1.2,2.1,2.3,3.3,3.7c-0.9,1-1.7,1.8-2.6,2.8c-1.2-3.7-2.4-7.2-3.6-10.8c2,0.4,3.8,0.7,5.5,1
			c0-0.3,0.1-0.5,0.1-0.8c-0.9-0.4-1.9-0.9-2.9-1.3c0.1-0.7,0.3-1.3,0.5-2.4c1.6,0.7,2.9,1.2,5.2,2.2c-0.5-1.3-0.7-1.9-0.9-2.6
			c1.6-2.2,3.3-4.7,5-7.1c-2.2-3.1,1.9-4.6,1.7-7.2c0.9-0.3,1.7-0.6,3-1c-0.7-1.1-1.8-2-1.7-2.9c0.1-2.7-0.9-5.5,0.9-8
			c0.5-0.7,0.5-1.7,0.4-2.6c-0.8-7.8,2.4-14.8,4.7-21.8c3.2-9.8,8.4-18.6,15.1-26.5c3.8-4.4,6.7-9.7,11-13.5
			c11.6-10.3,22.9-21.1,37.5-27.4c4.1-1.8,8.2-3.4,12.8-2.8c0,0.5,0,0.9,0,1.4c-1.4,0.5-3.5-1.3-4.2,2c0,0.1,0-0.3,0-0.7
			c-1.4,0.2-2.7,0.4-4.1,0.5c0,0.3,0.1,0.6,0.1,0.9c1.4-0.1,2.7-0.1,4.1-0.8c1.4-1.1,3.5,0.7,4.2-2c1.4-0.1,2.7-0.3,4.1-0.4
			c0-0.3-0.1-0.7-0.1-1c-1.3,0-2.6,0-4,0c1.4-3.1,4.4-1.7,5.9-1.1c1.6,0.6,2.6-0.1,3.8-0.2c2.9-0.1,5.5-3,8.7-0.2
			c1.1,0.9,3.6,0.1,5.5,0.1c9.3,0,19.7,3.9,27.3,10c1.5,1.2,3.5,1.7,5.2,2.6c2.1,1.1,5.2,1.7,6.1,3.5c1.4,2.9,3.6,4.2,6,5.8
			c2.2,1.4,4.1,3.5,6.2,5.1c4.2,3.4,7.8,7.7,10.9,12.1c3.7,5.3,7.6,10.7,10,16.8c1.3,3.2,2.6,6.4,4,9.9c3.2-6.8,6.5-13.1,9.3-19.7
			c2.7-6.3,7-11.6,11-17.1c3.5-4.7,7.4-9.3,11.8-13.2c9.6-8.6,19.6-16.7,31.1-22.7c3.4-1.8,6.7-3.9,10.5-5.1c3.5-1,6.6-3.2,10.1-4.3
			c4.3-1.4,8.9-2.3,13.3-3.2c11.6-2.5,23.4-1.8,35-1.1c8.3,0.5,16.5,3.4,24.5,6.3c11.3,4.2,20.9,10.9,30.1,18.1
			c5.5,4.3,10.9,9.1,14.6,15.5c1.1,1.9,3.3,3,5,4.5c-0.2,2.2,0.6,3.6,2.8,4.2c0.6,2.8,1.2,5.7,1.7,8.4c1.1,0,1.8,0,2.5,0
			c0.9,2.9,2.6,5.7,2.6,8.6c0.1,5.7,2.8,10.3,5.1,15.2c2.2-3.2-1-5.6-0.8-8.5c0,0,0.1,0.1,0.2,0.2c0.4-0.3,0.8-0.6,1.1-1
			c-0.1-0.1-0.3-0.3-0.4-0.4c-0.3,0.4-0.6,0.8-0.9,1.2c-1.9-0.3-1.5-1.3-0.8-2.6c0.5-0.9,0.6-1.9,0.9-2.9c3.3,1.8,2.7,5.6,4,8.3
			c1.3,2.9,2.3,6.1,0.5,9.9c-1.4,3-0.3,7.1-0.3,12.1c-2.4-4.2-0.6-7.6-1.7-10.7c-1.6,4.6-1.6,10.8,0.4,14.4c0.7,1.2,1.5,2.2,1.3,3.6
			c-0.5,0.6-1.1,1.1-1.4,1.8c-0.3,0.9,0.4,2.4-1.4,2.4c1-4.4-1.3-8.4-1.4-12.6c-0.1-4.6-0.3-9.1-0.5-14.6c-1,1.4-1.6,2.2-2.3,3.3
			c0.5,2.6-1,5.7,1.4,8.3c0.3,0.4,0.3,1.5,0,2c-2.5,3.5-1,7.5-1.3,11.3c0,0.3,0.9,0.7,1.3,1.1c0,1.3,0.1,2.7-0.1,3.9
			c-0.1,0.6-0.9,1.1-1.3,1.7c0-1.3,0-2.7,0-5.4c-1.6,3-2.5,4.8-3.5,6.6c-0.5-2.2,0.2-4,0.6-5.9c0.5-1.9,0.8-3.8,1.2-5.7
			c-0.4-1-1.4-2.3-1.1-2.9c1.5-3,0.3-5.7,0.1-8.7c-0.2-3.7-1.4-6.9-2.1-10.5c-0.7,0.7-0.7,0.7-2.7,1.1c0-4.1,0-8,0-12.2
			c-0.9,0.7-1.4,1.1-2.5,2c0.6-2.8,1.1-5,1.8-8.5c-1.7,2.1-2.4,3-3.1,3.9c0.1-3.5-0.7-6.6-4.2-8.4c-0.2-1.1,0.7-2.7-1.4-2.8
			c-0.2-1.1,0.7-2.7-1.4-2.8c-0.5-0.5-0.9-0.9-1.4-1.4c-0.2-1.1,0.7-2.7-1.4-2.8c-0.5-0.5-0.9-0.9-1.4-1.4c-0.5-0.5-0.9-0.9-1.4-1.4
			c0.2-1.1-0.7-2.7,1.4-2.8c0.5,0.5,0.9,0.9,1.5,1.3c0,0-0.1,0.1-0.2,0.2c0.3,0.4,0.6,0.8,1,1.1c0.1-0.1,0.3-0.3,0.4-0.4
			c-0.4-0.3-0.8-0.6-1.2-0.9c-0.5-0.4-1-0.9-1.5-1.3c-0.7-0.9-1.3-1.9-1.9-2.7c-0.9,0.5-1.6,0.9-2.3,1.3c-0.5-0.5-0.9-0.9-1.4-1.4
			c-0.5-0.5-0.9-0.9-1.4-1.4c0.1-2.2,0.3-4.4-2.1-5.4c-0.7,0.4-1.4,0.8-2.1,1.2c-0.5-0.5-0.9-0.9-1.4-1.4c-0.5-0.5-0.9-0.9-1.5-1.3
			c0,0,0.1-0.1,0.2-0.2c-0.3-0.4-0.6-0.8-1-1.1c-0.1,0.1-0.3,0.3-0.4,0.4c0.4,0.3,0.8,0.6,1.2,0.9c0.1,0.4,0.1,0.9,0.1,1.3
			c-0.9,0-1.9,0-2.8,0c-0.5-0.5-0.9-0.9-1.4-1.4c-0.5-2.2-2-3-4.2-2.8c-0.5-0.5-0.9-0.9-1.4-1.4c-0.1-2.1-1.7-1.2-2.8-1.4
			c-0.5-0.5-0.9-0.9-1.4-1.4c-0.1-2.1-1.7-1.2-2.9-1.3c0,0,0.1-0.1,0.2-0.2c-0.3-0.4-0.6-0.8-1-1.1c-0.1,0.1-0.3,0.3-0.4,0.4
			c0.4,0.3,0.8,0.6,1.2,0.9c0.2,2,1.8,1.1,2.9,1.3c0.5,0.5,0.9,0.9,1.4,1.4c0.1,2.1,1.7,1.2,2.8,1.4c0.5,0.5,0.9,0.9,1.4,1.4
			c0.5,2.2,2,3,4.2,2.8c0.5,0.5,0.9,0.9,1.4,1.4c3.7,3.7,7.5,7.5,11.2,11.2c0.5,0.5,0.9,0.9,1.4,1.4c0.5,0.5,0.9,0.9,1.4,1.4
			c0.5,0.5,0.9,0.9,1.4,1.4c0.2,1.1-0.7,2.7,1.4,2.8c0.5,0.5,0.9,0.9,1.4,1.4c0.2,1.1-0.7,2.7,1.4,2.8c0.2,0.4,0.3,0.8,0.5,1.2
			c0.3-0.4,0.6-0.8,0.9-1.2c0.5,0,0.9,0,1.4,0c0,0.9,0,1.9,0,2.8c-0.4,0.2-0.8,0.3-1.2,0.5c0.4,0.3,0.8,0.6,1.2,0.9
			c0.2,1.1-0.7,2.7,1.4,2.8c0.8,0.7,1.7,1.4,2.6,2.2c-0.6,1-2.6,2.3,0.2,3.4c-0.2,2.8,2,4.7,2.8,7.2c2.7,8,3.1,16.4,4.1,24.7
			c0.9,6.8-0.7,13.3-2.8,19.7c-0.7,1.9-1.6,3.6-1.3,5.7c-2.1,0.1-1.2,1.7-1.4,2.8c-2.1,0.1-1.2,1.7-1.4,2.8
			c-5.9,7-9.9,15.4-16.7,21.7c-0.3,0.3,0,1.3,0.3,2.4c0.1,0.1-0.1-0.1-0.4-0.4c-0.8,0.1-1.6,0.1-2.8,0.2c0.1,1,0.1,1.7,0.2,2.7
			c1.3-0.8,2.3-1.5,2.9-2.5c1-0.8,2.4-1.3,3.8-1.7c-0.4,0.7-0.8,1.5-1,1.8c0.4,1.4,0.7,2.6,1,3.8c-0.5,0.5-0.9,0.9-1.4,1.4
			c-0.5,0-0.9,0-1.4,0c-0.2-0.4-0.3-0.8-0.5-1.2c-0.3,0.4-0.6,0.8-0.9,1.2C492.8,400,492.3,400.5,491.9,401z M162.1,430.3
			c0-0.5,0-0.9,0-1.4c1.4,0.5,2.8,0.9,5.3,1.4c-0.4,0-0.8,0-1.2,0.1c0.2,0.9,0.4,1.8,0.5,2.7c0.3,0,0.6-0.1,0.9-0.1
			c-0.1-0.9-0.2-1.8-1.3-2.6c0-1.4,0-2.8,0-4.2c0.5,0,0.9,0,2.1-0.7c-0.2,0.2-0.5,0.5-0.7,0.7c0.1,0.8,0.1,1.6,0.2,2.8
			c1-0.1,1.7-0.1,2.7-0.2c-0.8-1.3-1.5-2.3-2.8-2.6c-0.2-0.4-0.3-0.8-0.5-1.2c-0.3,0.4-0.6,0.8-0.9,1.2c-2.3-1.9-4.7-3.7-7.1-5.4
			c0.1-0.1,0.2-0.2,0.3-0.3c-0.3-0.4-0.6-0.8-1-1.1c-0.1,0.1-0.3,0.3-0.4,0.4c0.4,0.3,0.8,0.6,1.3,0.8c-0.4,0.7-0.8,1.5-1.3,2.2
			c1.1,1.3,3.2,2.3,2.7,4.8c-0.4,0.2-0.8,0.3-1.2,0.5c0.4,0.3,0.8,0.6,1.2,0.9C161.2,429.4,161.6,429.8,162.1,430.3
			c0.5,0.5,0.9,0.9,1.5,1.3c-0.1,0.1-0.2,0.2-0.3,0.3c0.3,0.4,0.6,0.8,1,1.1c0.1-0.1,0.3-0.3,0.4-0.4c-0.4-0.3-0.8-0.6-1.3-0.8
			C163,431.2,162.6,430.8,162.1,430.3z M136.9,388.4c0.4-0.2,0.8-0.3,1.2-0.5c-0.4-0.3-0.8-0.6-1.2-0.9c0.5-0.7,1.3-1.5,1.3-2.2
			c0.2-4.2,1.8-8.1,2.8-12.1c1.1-4.2,1.8-8.5,2.7-12.8c1.4-6.7,2.8-13.2,7.3-18.6c0-2.4,0-4.7,0-6.8c4.5-4.1,3.7-9.9,5.4-14.7
			c0.1-0.3-0.4-0.7-0.6-1.2c-0.9,0-1.8,0-2.8,0c-2.7,5-7.1,8.7-9.2,14.2c-1.9,5-5.7,9.5-6.6,14.6c-1,5.6-4.7,10.8-3,16.5
			c-1.2,1.2-2,2-3.1,3.1c0.5,2.1,1.1,4.4,1.6,6.7c-0.2,0.7-1.8,0.9-0.8,2c0.8,0.2,1.4,0.3,1.8,0.4c1.6,1.7-1.1,4.5,1.9,5.4
			c0,0.9,0,1.7,0,2.8c-1.1-0.6-1.7-0.9-3.3-1.8c0.8,1.9,1.2,3,2.1,5.3c-0.9,0.9-2.2,2.2-3.6,3.6c0-0.1,0.2,0.3,1.2,1.7
			c-2.8-0.7-4.3-1.1-6-1.5c-0.5,0.6-1.1,1.3-1.6,2c-0.1,0.1,0,0.5,0,0.7c1.5,4.6,1.5,4.6,5.5,8.4c0-2.2,0-3.9,0-4.9
			c1.9-1.3,3.1-2.1,4.3-2.9c-1.8-3.7-1.8-3.7,1.4-6.5c0.2,0.4,0.3,0.8,0.5,1.2C136.3,389.2,136.6,388.8,136.9,388.4z M464.1,412.3
			c-0.1-0.1-0.2-0.2-0.3-0.3c-0.4,0.3-0.8,0.6-1.1,1c0.1,0.1,0.3,0.3,0.4,0.4c0.3-0.4,0.6-0.8,0.7-1.4
			C463.9,412.1,464,412.2,464.1,412.3c0.4-0.3,0.7-0.6,1.1-1c-0.1-0.1-0.3-0.3-0.4-0.4C464.4,411.3,464.1,411.6,464.1,412.3z
			 M489.1,293.4c0.5,0.5,0.9,0.9,1.4,1.4c0.5,0.5,0.9,0.9,1.4,1.4c0.5,0.5,0.9,0.9,1.4,1.4c0.2,1.1-0.7,2.7,1.5,2.6
			c-0.1,0.1-0.2,0.2-0.3,0.3c0.3,0.4,0.6,0.8,1,1.1c0.1-0.1,0.3-0.3,0.4-0.4c-0.4-0.3-0.8-0.6-1.3-0.8c-0.2-1.1,0.7-2.7-1.4-2.8
			c-0.5-0.5-0.9-0.9-1.4-1.4c-0.5-0.5-0.9-0.9-1.4-1.4C490,294.3,489.5,293.8,489.1,293.4c-0.5-0.5-0.9-0.9-1.5-1.3
			c0.1-0.1,0.2-0.2,0.3-0.3c-0.3-0.4-0.6-0.8-1-1.1c-0.1,0.1-0.3,0.3-0.4,0.4c0.4,0.3,0.8,0.6,1.3,0.8
			C488.1,292.4,488.6,292.9,489.1,293.4z M169.1,405.2c0.5,0.5,0.9,0.9,1.4,1.4c0.1,3.4,2.1,5.7,4.4,7.9c2.5,2.5,5.4,4.8,6.8,8.3
			c0.2,0.6,0.3,1.2,0.4,1.8c1.8,0.1,3.3,0.2,5,0.3c0.8,1.4,1.6,2.7,2.3,4c0.9,0,1.9,0,2.8,0c1.3,0.6,0.4,2.6,2.8,3.1
			c3.2,0.6,8.4,1.5,11.7,0.6c4.8-1.4,8.6-4.3,12-7.8c0.5,0.4,1,0.9,1.6,1.4c2.1-3.2,6.6-4.5,6.3-9.3c4.5-3.1,5.9-9.1,11-11.7
			c0.2,1.5-0.2,2.6-1.4,3.6c-2.2,1.9-4.1,4-4.2,7.7c1.6-0.3,2.9-0.3,4.1-0.8c0.6-0.2,1.1-1,1.6-1.5c-0.7-0.7-1.1-1.1-1.5-1.5
			c3.8-3.2,7.6-6.3,11.3-9.4c0-1.9,0-3.5,0-5.1c1.1,0.6,2.2,1.1,3.3,1.7c1.2-2.7,2.5-4.8,5-5.9c0.4,0.7,0.8,1.5,1.3,2.2
			c-0.4,0.4-0.8,0.9-1.2,1.4c0.3,0.3,0.6,0.7,0.9,1c2.5-2,5-4,7.4-6c0,1.4,0,2.8,0,5.3c0-0.4,0-0.8-0.1-1.2
			c-0.9,0.2-1.8,0.4-2.7,0.5c0,0.3,0.1,0.6,0.1,0.9c0.9-0.1,1.8-0.2,2.6-1.3c1.2-0.5,2.4-1.1,3.6-1.4c5.8-1,11.1-3.5,15.7-5
			c2.4,0.3,4.1,0.5,5.8,0.7c-0.4,0.5-0.7,1.2-1.1,1.3c-2.9,0.7-5.8,1.2-8.7,1.8c3.4,0.9,6.4,1.4,9.8-0.2c2.9-1.4,6.3-1.4,9.6-2.1
			c0-1.3,1.5-3.1-1.2-3.7c2.3-3,1.2-6.4,1.4-9.6c-4.2-0.7-8-1.4-13-2.3c-0.4-0.5-1.7-2.2-3.1-3.8c-1.8,0-3.3,0-5.3,0
			c1.6-3.7-1.4-6-3.1-6.3c-3.2-0.5-2.8-3.8-4.3-4.5c-2,0.6-3.3,0.9-5.3,1.5c1.7-8.5-2-16.8,2.9-23.3c-0.5-2.8-0.5-5.1-1.4-7
			c-0.9-2-2.5-3.6-3.9-5.4c1.3-2.9,1.3-2.9,1.3-9.3c-1.2-0.9-2.8-2.2-4.2-3.2c-0.1-7-1.6-9.9-6.8-13.4c-0.9-0.6-2.5-1.1-2.6-1.8
			c-0.7-3.6-3.8-3.8-6.2-5.1c-4-2.2-8-4.4-12.4-6.8c-2.8-0.3-6.3-0.7-9.7-1.1c0,0.6,0,1.1,0,1.7c0.9,0.4,1.8,0.9,3,1.4
			c-0.4,0.8-0.7,1.5-1.3,2.8c-1.6-1.5-2.7-2.5-4.1-3.7c-2.2,0.5-4.9-0.4-8,0.8c1.2,0.5,2.9,2.7,3,3.4c-2.5,0-5,0-6.2,0
			c-4.9,3.1-8.8,5.5-13.1,8.2c-2.2,4.1-3,4.8-6.6,5.6c0.4-1.1,0.8-2.2,1.4-3.6c-2,0-3.6,0-4.3,0c-9.3,4.8-11.5,14.5-16.9,22
			c-0.1,5.8-0.1,6-4.2,10.6c0,2.3,0.3,4.6-0.1,6.9c-0.3,2.1-1.3,4.2-1.9,6.2c-0.3-0.1-0.6-0.1-0.9-0.2c0-2.2,0-4.4,0-7.2
			c-1.2,1.1-1.8,1.7-2.7,2.5c-0.2,3.8,0.2,7.8-1.3,11.8c-0.8,2.2-0.5,4.7-1.3,7.1c-0.7,2.2,0.7,5.1,1.1,7.7c0.1,0.6-0.1,1.3-0.2,1.9
			c-1.2-0.5-2.3-0.9-4.1-1.6c0.4,4.5-0.8,8.4,1.5,11.9c0,0.1-0.9,0.7-1.3,1.1c-0.5-1-1.4-2-1.3-2.9c0.3-3.5-1.1-6.5-2-9.3
			c-0.8,0.5-1.7,1.1-2.8,1.9c0.8,1.2,1.3,1.9,1.8,2.7c-1.7,3.8-1.7,5.8,0.2,11.5c-0.9,0.1-1.7,0.2-3,0.4c0-5.4,0-10.4,0-15.4
			c-1.1,1.4-1.2,2.9-1.3,4.4c-0.1,1.6,0.4,3.5-0.3,4.8c-2.4,4.9-0.5,10-1.1,14.9c3,6.5,4.2,14,9.9,19.1c-0.1,0.1-0.2,0.2-0.3,0.3
			c0.3,0.4,0.6,0.8,1,1.1c0.1-0.1,0.3-0.3,0.4-0.4c-0.4-0.3-0.8-0.6-1.3-0.8c0.5-1.2,1-2.3,1.4-3.6c0.1-0.6-0.2-1.2-0.3-1.8
			c-1.3-0.1-2.4-0.3-3.5-0.4c-0.4-2.3-3.3-4.3-0.8-7.1c1.9,2.2,3.6,4.1,5.3,6c0.3,0.3,0.5,0.7,0.6,1.1c1.9,5,5.6,8.4,9.9,11.3
			c-0.1,0.1-0.2,0.2-0.3,0.3c0.3,0.4,0.6,0.8,1,1.1c0.1-0.1,0.3-0.3,0.4-0.4c-0.4-0.3-0.8-0.6-1.3-0.8c-0.5-2.2-1-4.3-1.7-7
			c1.9,0,3.2,0,3.9,0.2c1.3,1.1,2.3,2,3.9,3.5c0.4-1.5,0.7-2.3,1-3.5c-1.8,0-3.1,0-4.4-0.2c0-1.2,0.5-3-0.1-3.4
			c-3.3-2.3-2.6-6.5-4.8-9.2c-0.7,0-1.4,0-2.1,0c2.2-2.8,1.3-6,1.3-8.8c-0.9-1.5-1.6-2.8-2.2-3.9c-3.7,0.6-2.9,3.7-4.4,6.9
			c0-3.5,0-5.6,0-7.8c1.3-1.1,2.6-2.1,3.9-3.2c0.5-0.3,0.9-0.7,1.4-1c-2.4-2.9-0.7-5.9,0-8.8c0.7,0.4,1.5,0.9,2.8,1.6
			c0-2.3,0-4.3,0-6.3c0-2.9,0-5.6,1.3-8.5c3.1-6.9,2.7-14.6,4.3-21.8c0.6-0.8,1-1.7,1.7-2.3c0.6-0.5,1.6-0.7,3.3-1.4
			c-2.4-0.4-3.6-0.6-5.2-0.8c1.2-1.3,2.1-2.2,2.8-3c0.2-1.8,0.4-3.3,0.8-5.9c0.7,2,1,2.8,1.4,3.8c1.8-3.4,3.6-6.5,5-9.8
			c1-2.4,3.1-4.3,2.9-7.1c0.5-0.6,0.9-1.2,1.4-1.7c0.4-0.4,0.9-0.7,1.4-1.1c0,1.2,0.5,2.8-0.1,3.4c-2.1,2.4-2.3,5.1-2.9,7.9
			c-0.6,2.8-2.6,5.5-4.5,7.8c-2.4,2.9-2.4,6.1-2.6,9.4c-1,2.1-1.5,4.5-2.5,6.6c-1.7,3.4-1.5,7.2-2.5,10.8c-2,6.6-4.1,13.5-2.7,20.3
			c0.9,4.8,0.9,9.4,1.1,14.1c0,0.9,0,1.8,0,2.1c3.5,7.2,6.8,13.8,12.3,19.1c-4.5-0.9-7.3-4.5-10.9-6.7
			C170,406.1,169.5,405.6,169.1,405.2c-0.2-1.1,0.7-2.7-2.5-2.8c0.4,0,0.8,0,1.2-0.1c-0.2-0.9-0.4-1.8-0.5-2.7
			c-0.3,0-0.6,0.1-0.9,0.1c0.1,0.9,0.2,1.8,1.3,2.6C167.9,403.4,167,405,169.1,405.2z M206.8,281.9c0-0.4,0-0.8-0.1-1.2
			c-0.9,0.2-1.8,0.4-2.7,0.5c0,0.3,0.1,0.6,0.1,0.9c0.9-0.1,1.8-0.2,2.5-1.4c0.1,0.1,0.2,0.2,0.3,0.3c0.4-0.3,0.8-0.6,1.1-1
			c-0.1-0.1-0.3-0.3-0.4-0.4C207.3,279.9,207,280.3,206.8,281.9z M410.9,557.3c-0.1,0.1-0.2,0.2-0.3,0.3c0.3,0.4,0.6,0.8,1,1.1
			c0.1-0.1,0.3-0.3,0.4-0.4c-0.4-0.3-0.8-0.6-4.7-2.4c1,1.1,1.2,1.6,1.4,1.6c0.7-0.1,1.3-0.4,2-0.6
			C410,556.6,409.1,556.3,410.9,557.3z M143.9,325.5c-2.1,0.1-1.2,1.7-1.3,2.9c-0.1-0.1-0.2-0.2-0.3-0.3c-0.4,0.3-0.8,0.6-1.1,1
			c0.1,0.1,0.3,0.3,0.4,0.4c0.3-0.4,0.6-0.8,0.8-1.3c2.1-0.1,1.2-1.7,1.3-2.9c0.1,0.1,0.2,0.2,0.3,0.3c0.4-0.3,0.8-0.6,1.1-1
			c-0.1-0.1-0.3-0.3-0.4-0.4C144.4,324.6,144.1,325,143.9,325.5z M406.7,281.9c0-0.4,0-0.9,0-1.3c-1.4,0.2-2.7,0.4-4.1,0.5
			c0,0.3,0.1,0.6,0.1,0.9c1.4-0.1,2.7-0.1,4-2.4c0,0.4,0,0.8,0.1,1.2c0.9-0.2,1.8-0.4,2.7-0.5c0-0.3-0.1-0.6-0.1-0.9
			C408.4,279.6,407.5,279.6,406.7,281.9z M130.1,407.8c-0.1,0.1-0.2,0.2-0.3,0.3c0.3,0.4,0.6,0.8,1,1.1c0.1-0.1,0.3-0.3,0.4-0.4
			c-0.4-0.3-0.8-0.6-2.4-0.8c0.4,0,0.9,0,1.3,0c-0.2-1.4-0.4-2.7-0.5-4.1c-0.3,0-0.6,0.1-0.9,0.1
			C128.7,405.3,128.8,406.6,130.1,407.8z M251.5,564.7c0,0.4,0,0.9,0,1.3c1.4-0.2,2.7-0.4,4.1-0.5c0-0.3-0.1-0.6-0.1-0.9
			c-1.4,0.1-2.7,0.1-4,2.4c0-0.4,0-0.9,0-1.3c-1.4,0.2-2.7,0.4-4.1,0.5c0,0.3,0.1,0.6,0.1,0.9C248.8,567.1,250.2,567,251.5,564.7z
			 M432.1,271.2c2.8,1.7,3.8,1.7,8.2,0c-3.1,0-5.8,0-7.8-0.4c-6.1-3-11.6-0.1-17.1,0.4c-5.8,0.5-11.3,2.7-16.8,4.6
			c-9,3.1-11.8,4.9-14,8.5c7.5-4.3,15.1-6.7,22.7-8.9C415.1,272.9,423.5,272,432.1,271.2z M289.1,503.1c-6.6-0.8-9.5,3.4-13.4,5.7
			c-3.1,1.9-5.4,5-9.6,5.5c-1.5,0.2-2.9,1.8-4.3,2.8c-2.3,1.7-4.5,3.6-6.8,5.4c-0.3,0.2-0.3,0.6-0.5,1c0.7,0.6,1.3,1.2,2.2,2
			c10.5-7.2,20.9-14.4,31-22.7c0.1,0.1,0.2,0.2,0.3,0.3c0.4-0.3,0.8-0.6,1.1-1c-0.1-0.1-0.3-0.3-0.4-0.4
			C288.4,502.1,288,502.5,289.1,503.1z M334.1,552.8c3.1,2,5.5-1,8.4-0.9c3.3,0.1,6.8,0.8,9.7-0.2c3-1,5.3,0.8,8,0.3
			c3.2-0.5,6.5-0.1,9.7-0.1c2.9,0,5.9-0.1,10-0.1c-5.4-2.5-9.8-2.4-14.3-2.7c-10.6-0.7-20.8,2.5-31.5,1.4
			C334.1,551.5,334.1,552.2,334.1,552.8z M295,516.1c-0.2-2-0.3-4.1-0.6-6.8c-5,3.6-9.2,6.7-14.7,10.6c5.4-0.8,9.3-1.3,13.4-2
			C293.4,517.7,293.9,517.2,295,516.1z M387.6,257c6.7-2.1,13.4-4.2,21.7-6.8C400.1,249.7,393.5,252.9,387.6,257z M409.6,248.9
			c0,0.2,0.1,0.4,0.1,0.7c6.4,0,12.7,0,19.1,0c0-0.2-0.1-0.3-0.1-0.7C422.3,248.9,416,248.9,409.6,248.9z M128.9,417.1
			c0,0.2,0,1.1,0,2.2c1-0.2,1.6-0.3,1.9-0.3C130.1,418.3,129.4,417.6,128.9,417.1z M278.1,396.4c0-0.2,0-0.5,0-0.7
			c-0.9,0-1.9,0-2.8,0c0,0.2,0,0.5,0,0.7C276.2,396.4,277.1,396.4,278.1,396.4z M212.2,282c-0.1-0.4-0.1-0.8-0.2-1.2
			c-0.8,0.2-1.5,0.4-2.3,0.5c0,0.2,0.1,0.4,0.1,0.7C210.6,282,211.4,282,212.2,282z M444.1,273.6c0-0.4-0.1-0.8-0.1-1.2
			c-0.8,0.2-1.5,0.4-2.3,0.5c0,0.2,0.1,0.4,0.1,0.7C442.6,273.6,443.4,273.6,444.1,273.6z M466.3,413.5c-0.2,0-0.3,0-0.5,0
			c0,0.5,0,0.9,0,1.4c0.2,0,0.3,0,0.5,0C466.3,414.5,466.3,414,466.3,413.5z M128.6,414.5c0-0.2,0-0.3,0-0.5c-0.5,0-0.9,0-1.4,0
			c0,0.2,0,0.3,0,0.5C127.6,414.5,128.1,414.5,128.6,414.5z M272.9,398.2c0.2,0,0.3,0,0.5,0c0-0.5,0-0.9,0-1.4c-0.2,0-0.3,0-0.5,0
			C272.9,397.2,272.9,397.7,272.9,398.2z M257.1,563.5c0,0.2,0,0.3,0,0.5c0.5,0,0.9,0,1.4,0c0-0.2,0-0.3,0-0.5
			C258,563.5,257.6,563.5,257.1,563.5z M290.2,557.5c-0.2,0-0.3,0-0.5,0c0,0.5,0,0.9,0,1.4c0.2,0,0.3,0,0.5,0
			C290.2,558.4,290.2,557.9,290.2,557.5z M522.6,319c0,0.2,0,0.3,0,0.5c0.5,0,0.9,0,1.4,0c0-0.2,0-0.3,0-0.5
			C523.5,319,523.1,319,522.6,319z"/>
		<path class="st2" d="M155.1,451.3c-1,2.5-2.7,1.6-4.2,0.6c-7.5-4.7-15.2-9.3-20.8-17.3c0-0.1,0-1,0-2.1c-2.5-2.6-5.6-5-5.7-9.2
			c0.9,0.8,2.3,1.5,2.7,2.5c0.8,2.2,2.3,3.5,4.3,4.5c0.5,0.5,0.9,0.9,1.4,1.4c0.5,0.5,0.9,0.9,1.4,1.4c0.1,2.1,1.7,1.2,2.8,1.4
			c0,0.5,0,0.9,0,1.4c-0.4,0.2-0.8,0.3-1.2,0.5c0.4,0.3,0.8,0.6,1.2,0.9c0.5,0.5,0.9,0.9,1.4,1.4c0.5,0.5,0.9,0.9,1.4,1.4
			c0.2,0.4,0.3,0.8,0.5,1.2c0.3-0.4,0.6-0.8,0.9-1.2c0.5,0,0.9,0,1.4,0c0.5,0.5,0.9,0.9,1.4,1.4c0.9,0.9,1.9,1.9,2.8,2.8
			c0.2,0.4,0.3,0.8,0.5,1.2c0.3-0.4,0.6-0.8,0.9-1.2c1.4,1.4,2.8,2.8,4.2,4.2c-0.4,0.2-0.8,0.3-1.2,0.5c0.4,0.3,0.8,0.6,1.2,0.9
			C152.4,452,154,451.1,155.1,451.3z M149,447.1c-0.2,0-0.3,0-0.5,0c0,0.5,0,0.9,0,1.4c0.2,0,0.3,0,0.5,0
			C149,448,149,447.5,149,447.1z"/>
		<path class="st2" d="M532.4,324.2c0,4.8,0.2,9.6-0.1,14.4c-0.3,4.4-1,8.8-1.6,13.6c-1.4-4.3-1.1-5.2-0.5-8.5
			c0.6-3.3,0.6-6.8,0.8-10.2C531.2,330.4,530.6,327.2,532.4,324.2z"/>
		<path class="st2" d="M526.8,347.9c0.7,6.2-2.1,11.5-4.9,16.7c-0.4,0.7-1.4,1-2.1,1.5c0.3-1,0.6-2.1,1-3.1c2-4.7,4.8-9.2,4.9-14.6
			C525.7,348.2,526.4,348,526.8,347.9z"/>
		<path class="st2" d="M401,285c0,0.2,0,0.7,0,0.7c-5.5,1.2-9.8,5.3-15.4,6.3c1.1-0.9,2.1-1.8,3.1-2.8c1.9-1.9,5.1-1.7,6.6-4.2
			C397.3,285,399.2,285,401,285z"/>
		<path class="st2" d="M515.6,287.8c3.8,2.2,4.3,6.2,5.6,9.8c-0.9-0.5-1.9-0.9-2.8-1.4C517.5,293.4,516.6,290.6,515.6,287.8z"/>
		<path class="st2" d="M503.1,346.5c-1.1-0.2-2.7,0.7-2.8-1.4c0.5-0.6,1.3-1.1,1.3-1.7c0.2-2.2,0.1-4.5,0.1-6.7
			c0.8-0.4,1.6-0.8,2.3-1.1C503.6,339.3,503.3,342.9,503.1,346.5z"/>
		<path class="st2" d="M293,435.1c2.1-1.2,3.8-2.2,5.7-3.3C298.2,435.8,298,435.9,293,435.1z"/>
		<path class="st2" d="M507.2,389.8c-0.7,3.6-2,4.9-5.6,5.6C503.5,393.5,505.4,391.7,507.2,389.8z"/>
		<path class="st2" d="M122,418c-3-1.2-3.9-2.9-2.6-6.2C120.4,414.1,121.1,415.8,122,418z"/>
		<path class="st2" d="M473.7,396.8c-0.5,2.2-2,3-4.2,2.8c0-0.5,0-0.9,0-1.4c0.5-0.5,0.9-0.9,1.4-1.4
			C471.8,396.8,472.8,396.8,473.7,396.8z"/>
		<path class="st2" d="M142.5,440.1c0-1.6,1.2-1.6,2.2-1.2c0.7,0.3,1.3,1.2,2.3,2.2c-1.2,0.2-2.1,0.3-3.1,0.4
			C143.5,441,143,440.6,142.5,440.1z"/>
		<path class="st2" d="M356.3,321.3c-0.2,1.1,0.7,2.7-1.4,2.8c-0.5-0.5-0.9-0.9-1.4-1.4c0-0.9,0-1.9,0-2.8c0.5,0,0.9,0,1.4,0
			C355.4,320.4,355.9,320.9,356.3,321.3z"/>
		<path class="st2" d="M352.1,328.3c0,0.8,0,1.6,0,2.8c-1.2-0.6-2-1-2.8-1.4c0-0.9,0-1.9,0-2.8c0.5,0,0.9,0,1.4,0
			C351.2,327.4,351.7,327.8,352.1,328.3z"/>
		<path class="st2" d="M258.5,514.2c0.5-2.2,2-3,4.2-2.8c-0.5,0.9-0.9,1.9-1.4,2.8C260.4,514.2,259.4,514.2,258.5,514.2z"/>
		<path class="st2" d="M501.7,395.4c0,0.8,0,1.6,0,2.8c-1.2,0-2,0-2.8,0C499.8,397.2,500.7,396.3,501.7,395.4z"/>
		<path class="st2" d="M236.2,438.7c0.5,0.4,1,0.6,1.4,1.1c0.2,0.3-0.1,0.8-0.3,1.7c-0.8,0-1.6,0-2.5,0c0-0.5,0-0.9,0-1.4
			C235.2,439.6,235.7,439.2,236.2,438.7z"/>
		<path class="st2" d="M240.3,430.3c0.5-1.4-1.3-3.5,1.4-4.2C241.2,427.5,243,429.7,240.3,430.3z"/>
		<path class="st2" d="M240,421.6c0.2,1.2,0.3,1.8,0.5,2.7c-0.8,0.2-1.6,0.3-4,0.8C238.2,423.4,238.9,422.7,240,421.6z"/>
		<path class="st2" d="M437.4,414.6c-0.8,0.1-1.6,0.3-2.4,0.3c-0.6,0-1.2-0.2-1.8-1c1.4-0.2,2.7-0.4,4.1-0.5
			C437.4,413.8,437.4,414.2,437.4,414.6z"/>
		<path class="st2" d="M437.4,412.1c-1.3,0-2.6,0-4,0c0-0.3-0.1-0.7-0.1-1c1.4-0.1,2.7-0.3,4.1-0.4
			C437.4,411.2,437.4,411.7,437.4,412.1z"/>
		<path class="st2" d="M497.2,343.9c0,1.2,0,2.5,0,3.7c-0.2,0-0.5,0-0.7,0.1c-0.2-1.3-0.3-2.5-0.5-3.8
			C496.4,344,496.8,343.9,497.2,343.9z"/>
		<path class="st2" d="M495.8,352.3c0,1.2,0,2.5,0,3.7c-0.2,0-0.5,0-0.7,0.1c-0.2-1.2-0.3-2.5-0.5-3.7
			C495,352.4,495.4,352.3,495.8,352.3z"/>
		<path class="st2" d="M230.6,444.3c-0.1,2.1-1.7,1.2-2.8,1.4C227.9,443.6,229.5,444.5,230.6,444.3z"/>
		<path class="st2" d="M152.3,448.5c1.1,0.2,2.7-0.7,2.8,1.4c-0.9,0-1.9,0-2.8,0C152.3,449.4,152.3,448.9,152.3,448.5z"/>
		<path class="st2" d="M155.1,449.9c0.9,0,1.7,0,2.6,0c0,0.3,0.1,0.6,0.1,0.9c-0.9,0.2-1.8,0.3-2.7,0.5
			C155.1,450.8,155.1,450.3,155.1,449.9z"/>
		<path class="st2" d="M519.8,366c0,0.9,0,1.9,0,2.8c-0.5,0-0.9,0-1.4,0c0-0.9,0-1.9,0-2.8C518.9,366,519.4,366,519.8,366z"/>
		<path class="st2" d="M123,420.5c-2.1-0.1-1.2-1.7-1.4-2.8C123.7,417.9,122.8,419.5,123,420.5z"/>
		<path class="st2" d="M462.6,418.8c-0.9,0.1-1.8,0.2-2.7,0.2c0-0.3-0.1-0.6-0.1-0.9c0.9-0.2,1.8-0.4,2.7-0.5
			C462.5,418,462.5,418.4,462.6,418.8z"/>
		<path class="st2" d="M514.2,285c2.1,0.1,1.2,1.7,1.4,2.8c-0.5,0-0.9,0-1.4,0C514.2,286.9,514.2,285.9,514.2,285z"/>
		<path class="st2" d="M443,420.5c0.1-2.1,1.7-1.2,2.8-1.4C445.6,421.2,444,420.3,443,420.5z"/>
		<path class="st2" d="M124.4,423.3c-2.1-0.1-1.2-1.7-1.4-2.8C125.1,420.7,124.1,422.3,124.4,423.3z"/>
		<path class="st2" d="M443,421.6c-0.9,0.1-1.8,0.2-2.7,0.2c0-0.3-0.1-0.6-0.1-0.9c0.9-0.2,1.8-0.4,2.7-0.5
			C443,420.8,443,421.2,443,421.6z"/>
		<path class="st2" d="M519.8,368.8c0.5,0.6,0.9,1.2,1.4,1.7c-0.5,0.4-0.9,0.7-1.4,1.1C519.8,370.7,519.8,369.8,519.8,368.8z"/>
		<path class="st2" d="M354.9,324.1c-0.2,1.1,0.7,2.7-1.4,2.8c0-0.9,0-1.9,0-2.8C354,324.1,354.5,324.1,354.9,324.1z"/>
		<path class="st2" d="M361.9,312.9c-0.2,1.1,0.7,2.7-1.4,2.8c0-0.9,0-1.9,0-2.8C361,312.9,361.4,312.9,361.9,312.9z"/>
		<path class="st2" d="M499.1,354.3c-0.5,1.7-0.7,2.5-1,3.4c-0.2-0.7-0.5-1.3-0.6-2C497.5,355.5,498,355.2,499.1,354.3z"/>
		<path class="st2" d="M529.4,353.7c0,0.8,0,1.5,0,2.3c-0.2,0-0.4,0.1-0.7,0.1c-0.2-0.8-0.4-1.5-0.5-2.3
			C528.6,353.8,529,353.7,529.4,353.7z"/>
		<path class="st2" d="M521.2,297.6c2.1,0.1,1.2,1.7,1.4,2.8C520.5,300.2,521.4,298.6,521.2,297.6z"/>
		<path class="st2" d="M522.6,300.4c2.1,0.1,1.2,1.7,1.4,2.8C521.9,303,522.8,301.4,522.6,300.4z"/>
		<path class="st2" d="M524,303.2c2.1,0.1,1.2,1.7,1.4,2.8C523.3,305.8,524.2,304.2,524,303.2z"/>
		<path class="st2" d="M462.5,402.4c0.9,0,1.7,0,2.6,0c0,0.3,0.1,0.6,0.1,0.9c-0.9,0.2-1.8,0.3-2.7,0.5
			C462.5,403.3,462.5,402.8,462.5,402.4z"/>
		<path class="st2" d="M455.5,408c0-0.5,0-0.9,0-1.4c0.9,0,1.9,0,2.8,0C458.2,408.7,456.6,407.7,455.5,408z"/>
		<path class="st2" d="M514.2,381.4c-0.1,2.1-1.7,1.2-2.8,1.4c0-0.5,0-0.9,0-1.4C512.4,381.4,513.3,381.4,514.2,381.4z"/>
		<path class="st2" d="M429,415.3c0.9,0,1.9,0,2.8,0c0,0.2,0,0.5,0,0.7c-0.9,0-1.9,0-2.8,0C429,415.8,429,415.5,429,415.3z"/>
		<path class="st2" d="M469.5,399.6c-0.6,0.5-1.2,0.9-1.7,1.4c-0.4-0.5-0.7-0.9-1.1-1.4C467.6,399.6,468.6,399.6,469.5,399.6z"/>
		<path class="st2" d="M518.4,373c-0.2,1.1,0.7,2.7-1.4,2.8c0-0.9,0-1.9,0-2.8C517.5,373,518,373,518.4,373z"/>
		<path class="st2" d="M363.3,311.5c-0.5,0.5-0.9,0.9-1.4,1.4c0-0.5,0-0.9,0-1.4C362.4,311.5,362.8,311.5,363.3,311.5z"/>
		<path class="st2" d="M360.5,315.7c-0.5,0.5-0.9,0.9-1.4,1.4c0-0.5,0-0.9,0-1.4C359.6,315.7,360.1,315.7,360.5,315.7z"/>
		<path class="st2" d="M359.1,317.1c-0.3,0.4-0.6,0.8-0.9,1.2c-0.2-0.4-0.3-0.8-0.5-1.2C358.2,317.1,358.7,317.1,359.1,317.1z"/>
		<path class="st2" d="M512.8,283.6c0.5,0.5,0.9,0.9,1.4,1.4C513.8,284.5,513.3,284.1,512.8,283.6z"/>
		<path class="st2" d="M511.4,283.6c0.3-0.4,0.6-0.8,0.9-1.2c0.2,0.4,0.3,0.8,0.5,1.2C512.4,283.6,511.9,283.6,511.4,283.6z"/>
		<path class="st2" d="M448.7,410.6c0.4,0.3,0.8,0.6,1.1,1c-0.1,0.1-0.3,0.3-0.4,0.4c-0.3-0.4-0.6-0.8-1-1.1
			C448.5,410.8,448.6,410.7,448.7,410.6z"/>
		<path class="st2" d="M480.7,410.8c0.5-0.5,0.9-0.9,1.4-1.4C481.6,409.8,481.2,410.3,480.7,410.8z"/>
		<path class="st2" d="M482.1,409.4c0-0.5,0-0.9,0-1.4c0.4,0.3,0.8,0.6,1.2,0.9C482.9,409,482.5,409.2,482.1,409.4z"/>
		<path class="st2" d="M455.7,408.1c-0.3,0.4-0.6,0.8-1,1.1c-0.1-0.1-0.3-0.3-0.4-0.4c0.4-0.3,0.8-0.6,1.1-1
			C455.5,407.9,455.6,408,455.7,408.1z"/>
		<path class="st2" d="M487.8,406.4c0.4,0.3,0.8,0.6,1.1,1c-0.1,0.1-0.3,0.3-0.4,0.4c-0.3-0.4-0.6-0.8-1-1.1
			C487.6,406.6,487.7,406.5,487.8,406.4z"/>
		<path class="st2" d="M486.4,406.7c-0.3,0.4-0.6,0.8-1,1.1c-0.1-0.1-0.3-0.3-0.4-0.4c0.4-0.3,0.8-0.6,1.1-1
			C486.2,406.5,486.3,406.6,486.4,406.7z"/>
		<path class="st2" d="M482.1,406.6c0,0.5,0,0.9,0,1.4c-0.5-0.5-0.9-0.9-1.4-1.4C481.2,406.6,481.6,406.6,482.1,406.6z"/>
		<path class="st2" d="M492,405.3c-0.3,0.4-0.6,0.8-1,1.1c-0.1-0.1-0.3-0.3-0.4-0.4c0.4-0.3,0.8-0.6,1.1-1
			C491.8,405.1,491.9,405.2,492,405.3z"/>
		<path class="st2" d="M482.1,405.2c0.4,0.3,0.8,0.6,1.2,0.9c-0.4,0.2-0.8,0.3-1.2,0.5C482.1,406.1,482.1,405.6,482.1,405.2z"/>
		<path class="st2" d="M493.3,403.8c-0.5,0.5-0.9,0.9-1.4,1.4C492.3,404.7,492.8,404.2,493.3,403.8z"/>
		<path class="st2" d="M517,375.8c-0.5,0.5-0.9,0.9-1.4,1.4c0-0.5,0-0.9,0-1.4C516.1,375.8,516.6,375.8,517,375.8z"/>
		<path class="st2" d="M493.3,403.8c0-0.5,0-0.9,0-1.4c0.5,0,0.9,0,1.4,0C494.2,402.8,493.7,403.3,493.3,403.8z"/>
		<path class="st2" d="M473.9,402.5c-0.3,0.4-0.6,0.8-1,1.1c-0.1-0.1-0.3-0.3-0.4-0.4c0.4-0.3,0.8-0.6,1.1-1
			C473.7,402.3,473.8,402.4,473.9,402.5z"/>
		<path class="st2" d="M236,427.4c0.3-0.4,0.6-0.8,1-1.1c0.1,0.1,0.3,0.3,0.4,0.4c-0.4,0.3-0.8,0.6-1.1,1
			C236.2,427.6,236.1,427.5,236,427.4z"/>
		<path class="st2" d="M243.1,424.7c-0.5,0.5-0.9,0.9-1.4,1.4C242.2,425.7,242.7,425.2,243.1,424.7z"/>
		<path class="st2" d="M130,426.1c-0.4-0.3-0.8-0.6-1.2-0.9c0.4-0.2,0.8-0.3,1.2-0.5C130,425.2,130,425.7,130,426.1z"/>
		<path class="st2" d="M243,424.6c0.3-0.4,0.6-0.8,1-1.1c0.1,0.1,0.3,0.3,0.4,0.4c-0.4,0.3-0.8,0.6-1.1,1
			C243.2,424.8,243.1,424.7,243,424.6z"/>
		<path class="st2" d="M448.6,421.5c-0.5,0-0.9,0-1.4,0c0-0.2,0-0.3,0-0.5c0.5,0,0.9,0,1.4,0C448.6,421.2,448.6,421.3,448.6,421.5z"
			/>
		<path class="st2" d="M451.3,419.1c-0.3,0.4-0.6,0.8-0.9,1.2c-0.2-0.4-0.3-0.8-0.5-1.2C450.4,419.1,450.9,419.1,451.3,419.1z"/>
		<path class="st2" d="M519.8,371.6c-0.5,0.5-0.9,0.9-1.4,1.4c0-0.5,0-0.9,0-1.4C518.9,371.6,519.4,371.6,519.8,371.6z"/>
		<path class="st2" d="M476.6,413.7c-0.3,0.4-0.6,0.8-1,1.1c-0.1-0.1-0.3-0.3-0.4-0.4c0.4-0.3,0.8-0.6,1.1-1
			C476.5,413.5,476.6,413.6,476.6,413.7z"/>
		<path class="st2" d="M476.4,413.4c0.3-0.4,0.6-0.8,1-1.1c0.1,0.1,0.3,0.3,0.4,0.4c-0.4,0.3-0.8,0.6-1.1,1
			C476.5,413.6,476.4,413.5,476.4,413.4z"/>
		<path class="st2" d="M480.8,410.9c-0.3,0.4-0.6,0.8-1,1.1c-0.1-0.1-0.3-0.3-0.4-0.4c0.4-0.3,0.8-0.6,1.1-1
			C480.7,410.7,480.7,410.8,480.8,410.9z"/>
		<path class="st2" d="M508.6,388.4c-0.5,0.5-0.9,0.9-1.4,1.4c0-0.5,0-0.9,0-1.4C507.7,388.4,508.2,388.4,508.6,388.4z"/>
		<path class="st2" d="M511.4,382.8c0,0.5,0,0.9,0,1.4c-0.5,0-0.9,0-1.4,0c0-0.5,0-0.9,0-1.4C510.5,382.8,511,382.8,511.4,382.8z"/>
		<path class="st2" d="M510,387c-0.5,0.5-0.9,0.9-1.4,1.4c0-0.5,0-0.9,0-1.4C509.1,387,509.6,387,510,387z"/>
		<path class="st2" d="M511.4,385.6c-0.5,0.5-0.9,0.9-1.4,1.4c0-0.5,0-0.9,0-1.4C510.5,385.6,511,385.6,511.4,385.6z"/>
		<path class="st2" d="M511.4,384.2c0.4,0.3,0.8,0.6,1.2,0.9c-0.4,0.2-0.8,0.3-1.2,0.5C511.4,385.1,511.4,384.7,511.4,384.2z"/>
		<path class="st2" d="M496.1,401c-0.5,0.5-0.9,0.9-1.4,1.4c0-0.5,0-0.9,0-1.4C495.1,401,495.6,401,496.1,401z"/>
		<path class="st2" d="M493.3,402.4c-0.5-0.5-0.9-0.9-1.4-1.4c0.5,0,0.9,0,1.4,0C493.3,401.4,493.3,401.9,493.3,402.4z"/>
		<path class="st2" d="M475.1,401c-0.5,0.5-0.9,0.9-1.4,1.4C474.2,401.9,474.6,401.4,475.1,401z"/>
		<path class="st2" d="M112.7,401c0,0.5,0,0.9,0,1.4c-0.2,0-0.3,0-0.5,0c0-0.5,0-0.9,0-1.4C112.4,401,112.6,401,112.7,401z"/>
		<path class="st2" d="M497.5,399.6c-0.5,0.5-0.9,0.9-1.4,1.4c0-0.5,0-0.9,0-1.4C496.5,399.6,497,399.6,497.5,399.6z"/>
		<path class="st2" d="M475.1,401c0.5-0.5,0.9-0.9,1.4-1.4C476,400,475.6,400.5,475.1,401z"/>
		<path class="st2" d="M498.9,398.2c-0.5,0.5-0.9,0.9-1.4,1.4c0-0.5,0-0.9,0-1.4C497.9,398.2,498.4,398.2,498.9,398.2z"/>
		<path class="st2" d="M476.4,399.4c0.3-0.4,0.6-0.8,1-1.1c0.1,0.1,0.3,0.3,0.4,0.4c-0.4,0.3-0.8,0.6-1.1,1
			C476.5,399.6,476.4,399.5,476.4,399.4z"/>
		<path class="st2" d="M515.6,377.2c0,0.5,0,0.9,0,1.4c-0.5-0.5-0.9-0.9-1.4-1.4C514.7,377.2,515.2,377.2,515.6,377.2z"/>
		<path class="st2" d="M515.6,378.6c0.4,0.3,0.8,0.6,1.2,0.9c-0.4,0.2-0.8,0.3-1.2,0.5C515.6,379.5,515.6,379.1,515.6,378.6z"/>
		<path class="st2" d="M515.6,380c-0.5,0.5-0.9,0.9-1.4,1.4C514.7,380.9,515.2,380.5,515.6,380z"/>
		<path class="st2" d="M353.5,326.9c-0.5,0.5-0.9,0.9-1.4,1.4c0-0.5,0-0.9,0-1.4C352.6,326.9,353.1,326.9,353.5,326.9z"/>
		<path class="st2" d="M499.8,350.7c0,0.5,0,0.9,0,1.4c-0.2,0-0.3,0-0.5,0c0-0.5,0-0.9,0-1.4C499.5,350.7,499.6,350.7,499.8,350.7z"
			/>
		<path class="st2" d="M254.3,517c0.3-0.4,0.6-0.8,0.9-1.2c0.2,0.4,0.3,0.8,0.5,1.2C255.2,517,254.8,517,254.3,517z"/>
		<path class="st2" d="M258.5,515.6c-0.4-0.3-0.8-0.6-1.2-0.9c0.4-0.2,0.8-0.3,1.2-0.5C258.5,514.6,258.5,515.1,258.5,515.6z"/>
		<path class="st2" d="M356.3,319.9c0.4,0.3,0.8,0.6,1.2,0.9c-0.4,0.2-0.8,0.3-1.2,0.5C356.3,320.9,356.3,320.4,356.3,319.9z"/>
		<path class="st2" d="M233.4,440.1c0.5-0.5,0.9-0.9,1.4-1.4c0,0.5,0,0.9,0,1.4C234.3,440.1,233.8,440.1,233.4,440.1z"/>
		<path class="st2" d="M139.7,438.7c0.5,0.5,0.9,0.9,1.4,1.4c-0.5,0-0.9,0-1.4,0C139.7,439.6,139.7,439.2,139.7,438.7z"/>
		<path class="st2" d="M234.8,438.7c0.3-0.4,0.6-0.8,0.9-1.2c0.2,0.4,0.3,0.8,0.5,1.2C235.7,438.7,235.2,438.7,234.8,438.7z"/>
		<path class="st2" d="M138.3,437.3c0.5,0.5,0.9,0.9,1.4,1.4c-0.5,0-0.9,0-1.4,0C138.3,438.2,138.3,437.8,138.3,437.3z"/>
		<path class="st2" d="M138.3,435.9c0,0.5,0,0.9,0,1.4c-0.5,0-0.9,0-1.4,0c0-0.5,0-0.9,0-1.4C137.4,435.9,137.9,435.9,138.3,435.9z"
			/>
		<path class="st2" d="M237.5,433.1c0.5-0.5,0.9-0.9,1.4-1.4C238.5,432.2,238,432.6,237.5,433.1z"/>
		<path class="st2" d="M240.3,430.3c-0.5,0.5-0.9,0.9-1.4,1.4C239.4,431.2,239.9,430.8,240.3,430.3z"/>
		<path class="st2" d="M131.3,430.3c0.5-0.5,0.9-0.9,1.4-1.4c0,0.5,0,0.9,0,1.4C132.3,430.3,131.8,430.3,131.3,430.3z"/>
		<path class="st2" d="M234.8,428.9c0.5-0.5,0.9-0.9,1.4-1.4C235.7,428,235.2,428.5,234.8,428.9z"/>
		<path class="st2" d="M493.3,358.1c0.5,0,0.9,0,1.4,0c0,0.2,0,0.3,0,0.5c-0.5,0-0.9,0-1.4,0C493.3,358.4,493.3,358.3,493.3,358.1z"
			/>
		<path class="st2" d="M527.7,357.7c0,0.5,0,0.9,0,1.4c-0.2,0-0.3,0-0.5,0c0-0.5,0-0.9,0-1.4C527.4,357.7,527.6,357.7,527.7,357.7z"
			/>
		<path class="st2" d="M526.3,360.4c0,0.5,0,0.9,0,1.4c-0.2,0-0.3,0-0.5,0c0-0.5,0-0.9,0-1.4C526,360.4,526.2,360.4,526.3,360.4z"/>
		<path class="st2" d="M226.4,448.5c-0.5,0.5-0.9,0.9-1.4,1.4c0-0.5,0-0.9,0-1.4C225.4,448.5,225.9,448.5,226.4,448.5z"/>
		<path class="st2" d="M146.7,444.3c0.3-0.4,0.6-0.8,0.9-1.2c0.2,0.4,0.3,0.8,0.5,1.2C147.7,444.3,147.2,444.3,146.7,444.3z"/>
		<path class="st2" d="M234.8,441.5c-0.5,0.5-0.9,0.9-1.4,1.4c0-0.5,0-0.9,0-1.4C233.8,441.5,234.3,441.5,234.8,441.5z"/>
		<path class="st2" d="M162.1,405.2c-1.6-1.3-3.2-2.5-5-3.9c-0.2,0.2-0.7,0.6-1.5,1.2c-2.6-3.3-2.5-7.3-2.6-11.2
			c1.2,2.3,2.4,4.6,3.7,7.1c0.8-0.7,1.3-1,1.6-1.3c3.7,0.1,1,4.5,3.7,5.3C162.1,403.3,162.1,404.2,162.1,405.2z"/>
		<path class="st2" d="M162.6,375.8c-0.7,0-1,0.1-1.1,0c-0.7-0.6-1.3-1.3-1.9-1.9c0-5.3,0-10.6,0-15.9c0.2,0,0.5-0.1,0.7-0.1
			c0.2,1.1,0.4,2.1,0.5,3.2c0.1,1.2,0,2.3,0,3.5c0,1.4,0,2.8,0,4.2c0,1.2-0.2,2.4,0.1,3.5C161.1,373.4,161.9,374.5,162.6,375.8z"/>
		<path class="st2" d="M147.9,391c-0.7,4.2,3.8,6.8,2.7,12.2c-2.1-4.4-3.8-7.8-5.6-11.6C146.1,391.3,146.8,391.2,147.9,391z"/>
		<path class="st2" d="M180.5,316.5c-0.6,0.8-1.5,2-2.2,3.3c-0.7,1.3-1,2.8-1.8,5.2c-0.3-2.3-0.5-3.8-0.7-5.4
			C177.5,318.5,179.2,317.4,180.5,316.5z"/>
		<path class="st2" d="M156.6,407.1c0.8-0.8,1.3-1.3,1.8-1.8c2.8,1.5,2.4,3.9,2,6.9C159.1,410.3,157.9,408.7,156.6,407.1z"/>
		<path class="st2" d="M247.3,395.4c1.8-2.5,3.2-5.6,7-5.6C252.5,392.3,251.1,395.4,247.3,395.4z"/>
		<path class="st2" d="M159.8,384.5c-3-1.2-3.9-2.9-2.6-6.2C158.1,380.5,158.8,382.3,159.8,384.5z"/>
		<path class="st2" d="M155,386.4c-0.7,0.7-1.3,1.3-2.5,2.5c0-1.8-0.4-3.2,0.1-4.1c1-1.8,1,0.4,1.6,0.7
			C154.5,385.6,154.8,386,155,386.4z"/>
		<path class="st2" d="M293.4,389.8c-0.7,2.7-2.8,0.9-4.2,1.4C289.9,388.5,292.1,390.3,293.4,389.8z"/>
		<path class="st2" d="M297.6,388.4c-0.7,2.7-2.8,0.9-4.2,1.4C294.1,387.1,296.3,388.9,297.6,388.4z"/>
		<path class="st2" d="M183.1,314.3c-0.5,0-0.9,0-1.4,0c0-0.9,0-1.7,0-2.6c0.3,0,0.6-0.1,0.9-0.1
			C182.7,312.6,182.9,313.4,183.1,314.3z"/>
		<path class="st2" d="M161.9,350.9c0,0.8,0,1.5,0,2.3c-0.2,0-0.5,0.1-0.7,0.1c-0.2-0.8-0.3-1.6-0.5-2.4
			C161.1,351,161.5,350.9,161.9,350.9z"/>
		<path class="st2" d="M169.4,340.9c-0.1-0.9-0.2-1.8-0.2-2.7c0.3,0,0.6-0.1,0.9-0.1c0.2,0.9,0.4,1.8,0.5,2.7
			C170.2,340.9,169.8,340.9,169.4,340.9z"/>
		<path class="st2" d="M254.3,389.8c0.2-1.1-0.7-2.7,1.4-2.8C255.5,388.1,256.4,389.7,254.3,389.8z"/>
		<path class="st2" d="M247.3,395.4c0,0.9,0,1.9,0,2.8c-0.5-0.6-0.9-1.2-1.4-1.7C246.4,396.1,246.9,395.7,247.3,395.4z"/>
		<path class="st2" d="M255.7,394c0.2-1.1-0.7-2.7,1.4-2.8C256.9,392.2,257.8,393.9,255.7,394z"/>
		<path class="st2" d="M163.2,405.1c0.1,0.9,0.2,1.8,0.2,2.7c-0.3,0-0.6,0.1-0.9,0.1c-0.2-0.9-0.4-1.8-0.5-2.7
			C162.4,405.2,162.8,405.1,163.2,405.1z"/>
		<path class="st2" d="M180.3,315.7c0.5-0.5,0.9-0.9,1.4-1.4C181.2,314.8,180.7,315.3,180.3,315.7z"/>
		<path class="st2" d="M187.1,310c0.3-0.4,0.6-0.8,1-1.1c0.1,0.1,0.3,0.3,0.4,0.4c-0.4,0.3-0.8,0.6-1.1,1
			C187.3,310.2,187.2,310.1,187.1,310z"/>
		<path class="st2" d="M185.8,311.5c0.5-0.5,0.9-0.9,1.4-1.4C186.8,310.6,186.3,311.1,185.8,311.5z"/>
		<path class="st2" d="M156.5,376.7c-0.5,0-0.9,0-1.4,0c0-0.2,0-0.3,0-0.5c0.5,0,0.9,0,1.4,0C156.5,376.4,156.5,376.6,156.5,376.7z"
			/>
		<path class="st2" d="M164.4,409.4c0,0.5,0,0.9,0,1.4c-0.2,0-0.3,0-0.5,0c0-0.5,0-0.9,0-1.4C164.1,409.4,164.3,409.4,164.4,409.4z"
			/>
		<path class="st2" d="M237.5,405.2c0.5-0.5,0.9-0.9,1.4-1.4C238.5,404.2,238,404.7,237.5,405.2z"/>
		<path class="st2" d="M238.9,403.8c0.5-0.5,0.9-0.9,1.4-1.4C239.9,402.8,239.4,403.3,238.9,403.8z"/>
		<path class="st2" d="M165.4,413.5c0-0.5,0-0.9,0-1.4c0.2,0,0.3,0,0.5,0c0,0.5,0,0.9,0,1.4C165.7,413.5,165.5,413.5,165.4,413.5z"
			/>
		<path class="st2" d="M265.5,391.2c0.5-0.5,0.9-0.9,1.4-1.4C266.4,390.3,266,390.7,265.5,391.2z"/>
		<path class="st2" d="M257.1,391.2c0.5-0.5,0.9-0.9,1.4-1.4C258,390.3,257.6,390.7,257.1,391.2z"/>
		<path class="st2" d="M160.7,385.6c-0.5-0.5-0.9-0.9-1.4-1.4C159.8,384.7,160.2,385.1,160.7,385.6z"/>
		<path class="st2" d="M266.7,389.7c0.3-0.4,0.6-0.8,1-1.1c0.1,0.1,0.3,0.3,0.4,0.4c-0.4,0.3-0.8,0.6-1.1,1
			C266.9,389.8,266.8,389.8,266.7,389.7z"/>
		<path class="st2" d="M258.4,389.7c0.3-0.4,0.6-0.8,1-1.1c0.1,0.1,0.3,0.3,0.4,0.4c-0.4,0.3-0.8,0.6-1.1,1
			C258.5,389.8,258.5,389.8,258.4,389.7z"/>
		<path class="st2" d="M257,385.5c0.3-0.4,0.6-0.8,1-1.1c0.1,0.1,0.3,0.3,0.4,0.4c-0.4,0.3-0.8,0.6-1.1,1
			C257.1,385.7,257.1,385.6,257,385.5z"/>
		<path class="st2" d="M260.4,387c0-0.5,0-0.9,0-1.4c0.2,0,0.3,0,0.5,0c0,0.5,0,0.9,0,1.4C260.7,387,260.5,387,260.4,387z"/>
		<path class="st2" d="M257.1,385.6c-0.5,0.5-0.9,0.9-1.4,1.4C256.2,386.5,256.6,386.1,257.1,385.6z"/>
		<path class="st2" d="M240.3,402.4c0.5-0.5,0.9-0.9,1.4-1.4C241.3,401.4,240.8,401.9,240.3,402.4z"/>
		<path class="st2" d="M241.6,400.8c0.3-0.4,0.6-0.8,1-1.1c0.1,0.1,0.3,0.3,0.4,0.4c-0.4,0.3-0.8,0.6-1.1,1
			C241.8,401,241.7,400.9,241.6,400.8z"/>
		<path class="st2" d="M265.5,391.2c-0.5,0.5-0.9,0.9-1.4,1.4C264.6,392.1,265,391.7,265.5,391.2z"/>
		<path class="st2" d="M135.5,381.4c0.5-3.7,0.9-7.5,1.4-11.2c0.4-0.8,2.8-8.1,2.8-8.9c0-1.9,0-3.7,0-5.8c0.6-0.6,1.2-1.4,3.1-3.5
			c-0.4,3-0.5,4.2-0.8,5.4c-0.2,0.8-0.9,1.6-0.9,2.4c0.2,6.5-1.5,12.6-4.2,18.4C136.5,379.3,137.9,381.2,135.5,381.4z"/>
		<path class="st2" d="M146.7,339.5c0.1,3.1-0.6,6-2.8,8.4C144,344.8,143.4,341.5,146.7,339.5z"/>
		<path class="st2" d="M135.1,374.4c-2.1-3.3-0.1-5.6,1.3-8.4C138.4,369.5,134.4,371.5,135.1,374.4z"/>
		<path class="st2" d="M143.8,348.1c0,1.1,0,2.3,0,3.9C142.5,349.7,142.5,349.7,143.8,348.1z"/>
		<path class="st2" d="M152.7,326.9c0-0.9,0-1.9,0-2.8c0.2,0,0.5,0,0.7,0c0,0.9,0,1.9,0,2.8C153.1,326.9,152.9,326.9,152.7,326.9z"
			/>
		<path class="st2" d="M148.4,336c-0.5,1.8-0.7,2.6-1,3.5c-0.2-0.7-0.5-1.3-0.6-2C146.7,337.3,147.3,337,148.4,336z"/>
		<path class="st2" d="M149.3,332.8c0,0.8,0,1.5,0,2.3c-0.2,0-0.5,0.1-0.7,0.1c-0.2-0.8-0.3-1.6-0.5-2.4
			C148.5,332.8,148.9,332.8,149.3,332.8z"/>
		<path class="st2" d="M136.9,387c0,0.5,0,0.9,0,1.4c-0.5,0-0.9,0-1.4,0C136,387.9,136.5,387.5,136.9,387z"/>
		<path class="st2" d="M151.8,328.3c0,0.5,0,0.9,0,1.4c-0.2,0-0.3,0-0.5,0c0-0.5,0-0.9,0-1.4C151.5,328.3,151.7,328.3,151.8,328.3z"
			/>
		<path class="st2" d="M501.7,336.7c-0.5,0-0.9,0-1.4,0c0-0.9,0-1.7,0-2.6c0.3,0,0.6-0.1,0.9-0.1
			C501.3,334.9,501.5,335.8,501.7,336.7z"/>
		<path class="st2" d="M524.2,346.8c0-2.1,0-3.9,0-5.7c0.5,0.2,1.1,0.3,1.1,0.4C525,343.2,526.4,345.3,524.2,346.8z"/>
		<path class="st2" d="M521.2,356.3c0.5-1.4-1.3-3.5,1.4-4.2C522.1,353.4,523.9,355.6,521.2,356.3z"/>
		<path class="st2" d="M515.8,361.3c-0.5,1.7-0.7,2.5-1,3.4c-0.2-0.7-0.5-1.3-0.6-2C514.2,362.5,514.8,362.2,515.8,361.3z"/>
		<path class="st2" d="M518.4,366c-0.5,0-0.9,0-1.4,0c0-0.9,0-1.7,0-2.6c0.3,0,0.6-0.1,0.9-0.1C518.1,364.3,518.3,365.2,518.4,366z"
			/>
		<path class="st2" d="M512.8,367.4c0-0.9,0-1.9,0-2.8c0.5,0,0.9,0,1.4,0c0,0.9,0,1.9,0,2.8C513.8,367.4,513.3,367.4,512.8,367.4z"
			/>
		<path class="st2" d="M515.6,367.4c0,0.9,0,1.9,0,2.8c-0.5,0-0.9,0-1.4,0c0-0.9,0-1.9,0-2.8C514.7,367.4,515.2,367.4,515.6,367.4z"
			/>
		<path class="st2" d="M515.4,361.1c0.5-1.8,0.7-2.6,1-3.5c0.2,0.7,0.5,1.3,0.6,2C517,359.8,516.5,360.1,515.4,361.1z"/>
		<path class="st2" d="M519.6,359.6c0.5-1.7,0.7-2.5,1-3.4c0.2,0.7,0.5,1.3,0.6,2C521.2,358.4,520.7,358.7,519.6,359.6z"/>
		<path class="st2" d="M518.6,354.3c-0.5,1.7-0.7,2.5-1,3.4c-0.2-0.7-0.5-1.3-0.6-2C517,355.5,517.6,355.2,518.6,354.3z"/>
		<path class="st2" d="M510,307.3c0.5-0.5,0.9-0.9,1.4-1.4C511,306.4,510.5,306.9,510,307.3z"/>
		<path class="st2" d="M518.4,360.9c0.5,0,0.9,0,1.4,0c0,0.2,0,0.3,0,0.5c-0.5,0-0.9,0-1.4,0C518.4,361.2,518.4,361.1,518.4,360.9z"
			/>
		<path class="st2" d="M517,366c-0.5,0.5-0.9,0.9-1.4,1.4C516.1,367,516.6,366.5,517,366z"/>
		<path class="st2" d="M510,375.8c0.5-1.4,0.9-2.8,1.4-4.2c0.5-0.5,0.9-0.9,1.4-1.4c0.5,0,0.9,0,1.4,0c0,0.9,0,1.9,0,2.8
			c-0.5,0.5-0.9,0.9-1.4,1.4C511.9,374.9,511,375.4,510,375.8z"/>
		<path class="st2" d="M507.2,380c-0.2-2.2,0.6-3.6,2.8-4.2c0,0.9,0,1.9,0,2.8C509.1,379.1,508.2,379.5,507.2,380z"/>
		<path class="st2" d="M503.1,385.6c0.2,2.2-0.6,3.6-2.8,4.2C500,387.6,500.8,386.1,503.1,385.6z"/>
		<path class="st2" d="M505.8,384.2c-0.5,0-0.9,0-1.4,0c-0.2-2.2,0.6-3.6,2.8-4.2c0,0.9,0,1.9,0,2.8
			C506.8,383.3,506.3,383.7,505.8,384.2z"/>
		<path class="st2" d="M510,370.2c0.5,0,0.9,0,1.4,0c0,0.5,0,0.9,0,1.4C511,371.2,510.5,370.7,510,370.2z"/>
		<path class="st2" d="M504.4,384.2c-0.5,0.5-0.9,0.9-1.4,1.4C503.5,385.1,504,384.7,504.4,384.2z"/>
		<path class="st2" d="M498.9,391.2c-0.5,0.5-0.9,0.9-1.4,1.4C497.9,392.1,498.4,391.7,498.9,391.2z"/>
		<path class="st2" d="M500.3,389.8c-0.5,0.5-0.9,0.9-1.4,1.4C499.3,390.7,499.8,390.3,500.3,389.8z"/>
		<path class="st2" d="M507.2,387c0,0.5,0,0.9,0,1.4c-0.4-0.3-0.8-0.6-1.2-0.9C506.5,387.3,506.9,387.1,507.2,387z"/>
		<path class="st2" d="M508.6,385.6c0,0.5,0,0.9,0,1.4c-0.5,0-0.9,0-1.4,0c0-0.5,0-0.9,0-1.4C507.7,385.6,508.2,385.6,508.6,385.6z"
			/>
		<path class="st2" d="M507.2,385.6c-0.5-0.5-0.9-0.9-1.4-1.4c0.5,0,0.9,0,1.4,0C507.2,384.7,507.2,385.1,507.2,385.6z"/>
		<path class="st2" d="M162.1,428.9c-0.5,0-0.9,0-1.4,0c0-0.5,0-0.9,0-1.4C161.2,428,161.6,428.5,162.1,428.9z"/>
		<path class="st2" d="M496.1,283.6c-0.5,0-0.9,0-1.4,0c0-0.9,0-1.9,0-2.8c0.5,0,0.9,0,1.4,0C496.1,281.7,496.1,282.7,496.1,283.6z"
			/>
		<path class="st2" d="M490.5,276.6c0.5,0.5,0.9,0.9,1.4,1.4C491.4,277.5,490.9,277.1,490.5,276.6z"/>
		<path class="st2" d="M489.1,275.2c0.5,0.5,0.9,0.9,1.4,1.4C490,276.1,489.5,275.7,489.1,275.2z"/>
		<path class="st2" d="M487.7,273.8c0.5,0,0.9,0,1.4,0c0,0.5,0,0.9,0,1.4C488.6,274.7,488.1,274.3,487.7,273.8z"/>
		<path class="st2" d="M487.7,272.4c0,0.5,0,0.9,0,1.4c-0.5-0.5-0.9-0.9-1.4-1.4C486.7,272.4,487.2,272.4,487.7,272.4z"/>
		<path class="st2" d="M493.3,279.4c0.5,0,0.9,0,1.4,0c0,0.5,0,0.9,0,1.4C494.2,280.3,493.7,279.9,493.3,279.4z"/>
		<path class="st2" d="M493.3,278c0,0.5,0,0.9,0,1.4c-0.5-0.5-0.9-0.9-1.4-1.4C492.3,278,492.8,278,493.3,278z"/>
		<path class="st2" d="M507.1,301.6c0.3-0.4,0.6-0.8,1-1.1c0.1,0.1,0.3,0.3,0.4,0.4c-0.4,0.3-0.8,0.6-1.1,1
			C507.3,301.8,507.2,301.7,507.1,301.6z"/>
		<path class="st2" d="M505.8,299c0-0.5,0-0.9,0-1.4c0.5,0,0.9,0,1.4,0C506.8,298,506.3,298.5,505.8,299z"/>
		<path class="st2" d="M498.9,286.4c-0.5,0-0.9,0-1.4,0c0-0.5,0-0.9,0-1.4c0.5,0,0.9,0,1.4,0C498.9,285.5,498.9,285.9,498.9,286.4z"
			/>
		<path class="st2" d="M496.1,285c0-0.5,0-0.9,0-1.4c0.5,0.5,0.9,0.9,1.4,1.4C497,285,496.5,285,496.1,285z"/>
		<path class="st2" d="M503.1,292c0.5,0,0.9,0,1.4,0c0,0.9,0,1.9,0,2.8c-0.5,0-0.9,0-1.4,0C503.1,293.8,503.1,292.9,503.1,292z"/>
		<path class="st2" d="M503.1,290.6c0,0.5,0,0.9,0,1.4c-0.5,0-0.9,0-1.4,0c0-0.5,0-0.9,0-1.4C502.1,290.6,502.6,290.6,503.1,290.6z"
			/>
		<path class="st2" d="M511.4,370.2c0-0.9,0-1.9,0-2.8c0.5,0,0.9,0,1.4,0c0,0.9,0,1.9,0,2.8C512.4,370.2,511.9,370.2,511.4,370.2z"
			/>
		<path class="st2" d="M501.7,290.6c-0.5,0-0.9,0-1.4,0c0-0.9,0-1.9,0-2.8c0.5,0,0.9,0,1.4,0C501.7,288.7,501.7,289.6,501.7,290.6z"
			/>
		<path class="st2" d="M500.3,286.4c0,0.5,0,0.9,0,1.4c-0.5,0-0.9,0-1.4,0c0-0.5,0-0.9,0-1.4C499.3,286.4,499.8,286.4,500.3,286.4z"
			/>
		<path class="st2" d="M352.1,324.1c0,0.9,0,1.9,0,2.8c-0.5,0-0.9,0-1.4,0c0-0.9,0-1.9,0-2.8C351.2,324.1,351.7,324.1,352.1,324.1z"
			/>
		<path class="st2" d="M353.5,324.1c-0.5,0-0.9,0-1.4,0c0-0.5,0-0.9,0-1.4c0.5,0,0.9,0,1.4,0C353.5,323.2,353.5,323.6,353.5,324.1z"
			/>
		<path class="st2" d="M494.7,401c-0.5,0-0.9,0-1.4,0c0-0.5,0-0.9,0-1.4c0.5,0,0.9,0,1.4,0C494.7,400,494.7,400.5,494.7,401z"/>
		<path class="st2" d="M132.7,431.7c0-0.5,0-0.9,0-1.4c0.5,0,0.9,0,1.4,0c0,0.5,0,0.9,0,1.4C133.7,431.7,133.2,431.7,132.7,431.7z"
			/>
		<path class="st2" d="M518.4,371.6c-0.5,0.5-0.9,0.9-1.4,1.4c-0.5,0-0.9,0-1.4,0c0-0.9,0-1.9,0-2.8c0.9-0.5,1.9-0.9,2.8-1.4
			C518.4,369.8,518.4,370.7,518.4,371.6z"/>
		<path class="st2" d="M515.6,375.8c-0.5,0.5-0.9,0.9-1.4,1.4c-0.5,0-0.9,0-1.4,0c0-0.9,0-1.9,0-2.8c0.5-0.5,0.9-0.9,1.4-1.4
			c0.5,0,0.9,0,1.4,0C515.6,374,515.6,374.9,515.6,375.8z"/>
		<path class="st2" d="M511.4,381.4c-0.5,0-0.9,0-1.4,0c0-0.9,0-1.9,0-2.8c0.5,0,0.9,0,1.4,0C511.4,379.5,511.4,380.5,511.4,381.4z"
			/>
		<path class="st2" d="M512.8,377.2c-0.5,0.5-0.9,0.9-1.4,1.4C511.9,378.1,512.4,377.7,512.8,377.2z"/>
		<path class="st2" d="M510,382.8c-0.5,0-0.9,0-1.4,0c0.5-0.5,0.9-0.9,1.4-1.4C510,381.9,510,382.3,510,382.8z"/>
		<path class="st2" d="M508.6,382.8c0,0.5,0,0.9,0,1.4c-0.5,0-0.9,0-1.4,0c0-0.5,0-0.9,0-1.4C507.7,382.8,508.2,382.8,508.6,382.8z"
			/>
		<path class="st2" d="M510,385.6c-0.5,0-0.9,0-1.4,0c0-0.5,0-0.9,0-1.4c0.5,0,0.9,0,1.4,0C510,384.7,510,385.1,510,385.6z"/>
	</g>
	<rect x="0" class="st3" width="640" height="664"/>
</g>
<g>
</g>
<g>
</g>
<g>
</g>
<g>
</g>
<g>
</g>
<g>
</g>
<g>
</g>
<g>
</g>
<g>
</g>
<g>
</g>
<g>
</g>
<g>
</g>
<g>
</g>
<g>
</g>
<g>
</g>
</svg>
