<?xml version="1.0" encoding="utf-8"?>
<!-- Generator: Adobe Illustrator 17.0.0, SVG Export Plug-In . SVG Version: 6.00 Build 0)  -->
<!DOCTYPE svg PUBLIC "-//W3C//DTD SVG 1.1//EN" "http://www.w3.org/Graphics/SVG/1.1/DTD/svg11.dtd">
<svg version="1.1" id="Layer_1" xmlns="http://www.w3.org/2000/svg" xmlns:xlink="http://www.w3.org/1999/xlink" x="0px" y="0px"
	 width="640px" height="778px" viewBox="0 0 640 778" style="enable-background:new 0 0 640 778;" xml:space="preserve">
<style type="text/css">
	.st0{fill:#FFF8B8;}
	.st1{fill:none;stroke:#FFF8B8;stroke-width:4;stroke-linecap:round;stroke-linejoin:round;stroke-miterlimit:10;}
	.st2{fill:#970000;}
	.st3{fill:none;}
</style>
<g id="d.svg">
	<g>
		<g>
			<path class="st0" d="M155.3,159.4l1.1-8.3h-32.5v-3.5h42.4v3.5l-1.1,8.3H155.3z M155.8,163.7h-31.9v-3.5l1.1-8.1h10l-1.3,8.1
				h32.6v18.6c0.1,2.7-1.2,4-4.1,3.9H135v-3.1h18.1c2,0.1,2.9-0.8,2.8-2.8V163.7z M153.6,169v3.9h-29.7V169H153.6z"/>
			<path class="st0" d="M186.8,147.6v5.3h26.7v3.5h-26.7v23h26.7v3.1h-42.4v-3.1h5v-31.9H186.8z"/>
			<path class="st0" d="M220.4,147.6h38.9l1.5,8.9h-8.9l-0.9-5.3h-22.7l-1.1,5.3h-8.9L220.4,147.6z M218.4,161.5V158h42.4v21.6
				c0.1,2.2-1,3.3-3.5,3.1H246v-3.1h2.2c1.6,0.2,2.3-0.4,2-1.8v-16.2h-17.7l-4.6,21.2h-9.6l4.6-21.2H218.4z"/>
			<path class="st0" d="M291.9,147.6l0.9,1.8H308v3.5h-42.4v-3.5h17.7l-0.7-1.8H291.9z M265.6,154.1H308v5.7
				c0.2,2.6-0.9,3.8-3.5,3.5h-38.9V154.1z M265.6,167.9v-3.5H308v3.5l-3.3,3.1h3.3v3.7h-3.5v4.8c0.1,2.2-1,3.3-3.5,3.1h-30.2v-3.1
				H293c1.6,0.2,2.2-0.4,1.8-1.8v-3h-29.3V171h29.3l3.3-3.1H265.6z M299.1,158v-1.1h-24.7v3h23C298.7,159.9,299.2,159.3,299.1,158z"
				/>
			<path class="st0" d="M312.8,151.1v-3.5h42.4c0.1,2.3-1.4,3.5-4.4,3.5H312.8z M353.3,151.9l-0.7,2.8h2.6v5h-7.9v-1.5h-26.6v1.5
				h-7.9v-5h2.4l-0.7-2.8h8.9l0.7,2.8h4.6l-0.7-2.8h8.9l0.7,2.8h6.3l0.6-2.8H353.3z M323.3,160.2v0.7h31.9v3.5h-32.5l-0.2,1.8h32.6
				v4.4c0.1,2.5-0.7,3.8-2.4,4.1l-5.2,1.5l7.6,1.7v4.8l-17.3-3.9l-15.3,3.9v-5.2l4.4-1.3l-4.4-1.1v-5.2l14.2,3.5l11.6-3.1
				c0.4-0.1,0.6-0.3,0.6-0.6c0-0.2-0.2-0.4-0.6-0.4h-26.2l-1.5,13.3h-7.9l2-18.3h-2v-3.5h2.6v-0.7H323.3z"/>
			<path class="st0" d="M374.2,147.6v1.8h28.2v3.5h-28.2v1.7h28.2v12.5c0.1,2.5-1,3.6-3.5,3.5H360v-16h5.2v-7H374.2z M369.6,172.3
				l-1.7,10.3H360l1.7-10.3H369.6z M393.5,158.1h-24.7v9h23c1.4,0.2,1.9-0.4,1.7-2V158.1z M381.9,182.7h-8.1l-1.7-10.3h7.9
				L381.9,182.7z M390.4,172.3l1.8,10.3h-8.1l-1.7-10.3H390.4z M392.6,172.3h7.9l1.8,10.3h-7.9L392.6,172.3z"/>
			<path class="st0" d="M433.2,147.6v1.8h16.4v3.5h-16.4v3.5h16.4v3.5h-16.4v19.5h5.9c1.2,0.1,1.8-0.5,1.7-1.8v-15.9h8.9v17.7
				c0.1,2.2-1,3.3-3.5,3.1h-38.9v-20.8h8.9v17.7h7.6V160h-16.4v-3.5h16.4V153h-16.4v-3.5h16.4v-1.8H433.2z"/>
			<path class="st0" d="M461.4,157.6v-1.7h-7v-3.5h15.9v3.5h-1.7v1.7h1.5v3.5h-1.5v21.4h-7.2v-21.4H461c-0.9-0.1-1.2,0.2-1.1,1.1
				v20.3h-5.5v-21.4c-0.2-2.6,0.9-3.7,3.5-3.5H461.4z M470.2,147.6v3.7h-15.9v-3.7H470.2z M478.4,182.7h-8.1l2.6-21.6h-1.7v-13.5
				h25.6v10c0.2,2.6-1,3.8-3.7,3.5h-12.2L478.4,182.7z M478.2,151.1v6.5h9.2c1.6,0.4,2.2-0.3,1.8-2v-4.4H478.2z M494.6,177.5
				c-0.2,1.7,0.2,2.5,1.5,2.2h0.7v2.8H490c-2.5,0.2-3.6-0.8-3.3-3.1v-17.1h7.9V177.5z"/>
			<path class="st0" d="M507.7,157.6v-1.7h-6.1v-3.5h13.3v3.5h-1.1v1.7h0.9v3.5h-0.9v21.6h-6.1v-21.6h-0.4c-0.9-0.2-1.2,0.1-1.1,1.1
				v20.5h-4.6v-21.6c-0.1-2.6,0.9-3.7,3-3.5H507.7z M514.9,147.6v3.7h-13.3v-3.7H514.9z M515.6,161.3v-9H544v5.2
				c0.4,3-0.8,4.2-3.5,3.9H515.6z M515.6,162.4H544v16c0.4,3.2-1.1,4.5-4.4,4.1h-24V162.4z M515.8,151.1v-3.5H544v3.5H515.8z
				 M522.8,155.6v2.2H535c0.1,0,0.2,0,0.4,0c1.2,0.2,1.8-0.3,1.7-1.7v-0.6H522.8z M522.8,165.9v3.1h3.9v-3.1H522.8z M522.8,172.5
				v6.1h3.9v-6.1H522.8z M532.8,165.9v3.1h3.7v-3.1H532.8z M532.8,172.5v6.1h1.7c1.6,0.4,2.3-0.4,2-2.2v-3.9H532.8z"/>
			<path class="st0" d="M243.6,247.7v-30.6l-1.7,0.2v-3.5l10.1-1.1v35H243.6z M266.1,212.6l-0.6,1.8h18.8v3.5h-19.5l-0.6,2.6h20.1
				v3.5h-21l-0.7,3.7h21.8l-2.6,16.8c0,2.7-1.4,3.7-4.2,3.1h-18.8c-3,0.6-4.3-0.4-4.1-3.1l-0.9-7h7l0.6,5.2c-0.1,1.5,0.6,2.1,2,1.8
				h7.6c1.5,0.2,2.2-0.4,2.2-1.8l1.7-11.2h-21.6l1.8-7.4h-1.8v-3.5h2.6l0.6-2.6h-3.1v-3.5h4.1l0.4-1.8H266.1z"/>
			<path class="st0" d="M298.9,240.1c-0.2,2.5-1.7,3.9-4.2,4.4h36.9c-0.2,2.1-1.4,3.1-3.5,3.1h-37.2V218h-1.7v-3.5h1.8l-1.1-1.8h8.1
				l0.9,1.8V240.1z M306.3,243.6h-6.6l1.8-14.2h-1.8v-9.6h11.6v-2.2h-11.6v-3.7h2.6l-0.7-1.3h8.3l0.7,1.3h10.1l0.7-1.3h8.3l-0.7,1.3
				h2.6v5.9c0.1,2.5-1.1,3.6-3.7,3.5H320v2.6h11.6v14.2c0.1,2.5-1,3.6-3.5,3.5h-4.4v-14.2H320v14.2h-8.7v-14.2H308L306.3,243.6z
				 M305.2,223.3v2.6h6.1v-2.6H305.2z M320,217.6v2.2h2.2c1.2,0.2,1.7-0.3,1.5-1.7v-0.6H320z"/>
			<path class="st0" d="M346.1,247.7H338v-30.6l-1.7,0.2v-3.5l9.8-1.1V247.7z M356.3,212.8c-0.2,1.4,0.4,1.9,1.8,1.7h20.7v3.5
				l-0.7,1.7h-7.9l0.9-1.7h-19.5c-2.5,0.1-3.6-1-3.5-3.5v-1.8h8.3V212.8z M355.5,219.6l-0.7,28h-6.6l0.7-28H355.5z M367.9,244.5
				c0.2,2.2-0.9,3.3-3.5,3.1h-5.2v-28h8.7V244.5z M371.6,221.5h6.6l0.6,26.2c-4.8,0.5-7-1.2-6.6-5L371.6,221.5z"/>
			<path class="st0" d="M405.7,244.5c0.2,2.3-0.9,3.4-3.5,3.1h-18.6v-33.4l0.6-1.7h7.9l-0.7,1.7h14.4V244.5z M397.8,225v-7h-6.3v7
				H397.8z M397.8,242.7v-14.2h-6.3v16h4.8C397.5,244.8,398,244.2,397.8,242.7z M413.1,219.6l3.1,27.8h-6.3l-3-27.8H413.1z
				 M414.9,213.2c-0.2,0.9,0.4,1.2,1.8,1.1h9.2v30.2c0.1,2.2-1,3.3-3.5,3.1h-4.4V218h-7.9c-2.6,0.5-3.5-0.7-2.8-3.5l0.2-1.8h7.6
				L414.9,213.2z"/>
			<path class="st0" d="M134.4,327.7l-11.2-3.5l-11.6,3.5v-3.5l5.9-2l-1.7-0.6c-2.2-0.6-3.1-2-2.8-4.1v-5.2h-1.5v-3.9h1.5V307h7v1.5
				h6.5V307h7v1.5h0.9v3.9h-0.9v5.3c0.4,2.2-0.5,3.4-2.6,3.7l-2.2,0.7l5.7,2V327.7z M123.3,305.7h-3.5v-8.3h-7.6v-3.1h0.2l-0.2-1.7
				h5.2l0.4,1.7h2v-1.7h7.2v1.7h1.7l0.4-1.7h5.3l-0.4,1.7h0.4v3.1H127v5.2C127.3,304.9,126.1,306,123.3,305.7z M118,305.7h-5.7
				l0.9-7.7h5.7L118,305.7z M120,317.5c-0.2,1.2,0.2,1.9,1.3,2l1.8,0.7l1.8-0.7c1.1-0.1,1.6-0.8,1.5-2v-5.2H120V317.5z M134.4,305.7
				h-5.7l-1.1-7.7h5.7L134.4,305.7z M142.5,327.7h-7.4l3-18.8l-2.4-8.7h7.2l1.7,5.9l1.8-7.2c0.4-0.6,0.1-0.9-0.7-0.9h-6.8
				c-2.6,0.2-3.8-0.9-3.7-3.5v-1.8h8.5c-0.2,1.5,0.2,2.1,1.3,1.8h9v1.3c0.1,1.6-0.1,3-0.6,4.2l-2.4,8.9l3,18.8h-7.4l-2-13.8
				L142.5,327.7z"/>
			<path class="st0" d="M168,298v1.7h-9.4v-5.2h15.3l-0.4-1.8h10.7l0.4,1.8h16.6v5.2h-9.4V298H168z M179.8,322.9v-9h-21.2v-3.5h21.2
				v-3.5l3.9-1.8h-25.1v-3.5h42.6v4.6l-10.9,2.6v1.7h10.9v3.5h-10.9v10.7c0.2,2.3-0.9,3.4-3.3,3.1h-21.2v-3.1h12.7
				C179.6,324.8,180,324.2,179.8,322.9z"/>
			<path class="st0" d="M230.1,303.5v-6.8c0.7-4.3,2.9-6.8,6.5-7.6v3c-1.4,0.6-2.2,1.5-2.4,2.8v1.3h3v7.4H230.1z M241,303.5v-6.8
				c0.4-4.1,2.5-6.6,6.5-7.6v3c-0.6,0.4-1.1,0.7-1.5,1.1c0,0.1-0.1,0.2-0.4,0.4c-0.4,0.6-0.6,1-0.6,1.3v1.3h3v7.4H241z"/>
			<path class="st0" d="M255.8,287.8v-5.6h-1.4v-4.8h25l-0.8-2.8h14.6l0.8,2.8h25v4.8h-49.8v2h49.8v3.7H255.8z M319.1,294.6
				c0.2,2.6-1.2,3.8-4.2,3.7h-60.5v-9h64.7V294.6z M262.3,325.5c0.4,2.1-0.8,2.9-3.4,2.5h-4.5v-28.7h23.1v25c0.2,2.8-1.2,4-4.2,3.7
				h-3.9v-9h-7V325.5z M262.3,304.4v2.5h7v-2.5H262.3z M262.3,311.5v3.4h7v-3.4H262.3z M305.6,293.5v-0.8h-37.7v1.7h36.6
				C305.4,294.5,305.8,294.2,305.6,293.5z M286.2,328.1h-7.3l1.7-4.2h-1.7v-24.5h18.3v19.4c0.2,3.6-1.4,5.3-4.8,5.1h-2.5v-19.4h-3.7
				v16.9h2.2L286.2,328.1z M288.7,324.7h7.3l1.1,3.4h-7.3L288.7,324.7z M319.1,299.4v28.7h-3.7c-2.4,0.4-3.5-0.6-3.1-2.8v-10.7
				l-3.4-0.8v-4.8l3.4,0.6v-5.1h-4.8v20.8c0.2,2.2-0.8,3.2-3.1,2.8h-5.1v-28.7H319.1z"/>
			<path class="st0" d="M332.7,289.1v6.8c-0.4,4.4-2.5,6.9-6.5,7.6v-3c1.4-0.2,2.1-1.2,2.4-2.8v-1.3h-3v-7.4H332.7z M343.4,289.1
				v6.8c-0.4,4.3-2.5,6.8-6.5,7.6v-3c0.6-0.2,1.1-0.6,1.5-1.1c0.6-0.6,0.9-1.2,0.9-1.7v-1.3h-3v-7.4H343.4z"/>
			<path class="st0" d="M386.6,294.5v3.5h-14.2l0.6-5.3h8.3l-0.4,1.8H386.6z M374,324.5v-14.2h-1.7v-3.5h1.7v-3.7h-1.7v-3.5h14.2
				v3.5h-4.1v3.7h4.1v3.5h-4.1v12.4c-0.2,1.5,0.4,2.1,1.8,1.8h2.2v3.1h-9C375,327.9,373.8,326.9,374,324.5z M405.9,292.6v5.3h8.9
				v26.6c0.1,2.2-1,3.3-3.3,3.1h-5.2v-10.3h-10v10.3h-8.5V298h8.9v-5.3H405.9z M389.2,297.1l-1.3-4.4h6.6l1.3,4.4H389.2z
				 M406.3,301.5h-10v3.5h10V301.5z M406.3,313.8v-5.3h-10v5.3H406.3z M406.9,297.1l1.3-4.4h6.6l-1.3,4.4H406.9z"/>
			<path class="st0" d="M425.5,327.7h-5.9l1.1-6.6h-1.1v-28.4h15.9v24.9c0.2,2.6-0.9,3.8-3.5,3.5h-2.8v-24.9h-3.5v24h1.3
				L425.5,327.7z M428.1,322h6.1l1.3,5.7h-6.1L428.1,322z M460.1,292.6v1.8h1.8v3.5h-1.8v26.6c0.2,2.3-1,3.4-3.7,3.1h-5.7V298h-2
				l-4.2,29.7h-7.7L441,298h-4.6v-3.5h14.4v-1.8H460.1z"/>
			<path class="st0" d="M468.4,298h-1.7v-3.5h1.8l-1.1-1.8h8.1l0.9,1.8v25.6c-0.2,2.5-1.7,3.9-4.2,4.4h36.9
				c-0.4,2.1-1.6,3.1-3.7,3.1h-37.1V298z M477.3,296.1v-3.5h31.9v3.5H477.3z M479.1,323.6c-1.6,0.1-2.2-0.6-1.7-2l6.1-19.2h-6.3
				v-3.5h31.9v3.5H493l-5.2,16.6c-0.4,0.7,0,1.1,1.1,1.1h10.5c0.4,0,0.6-0.1,0.6-0.2c0.1,0,0.1-0.2,0-0.6l-1.1-4.6h8.3l1.8,7.2
				c0.6,1.2,0.1,1.8-1.7,1.7H479.1z"/>
			<path class="st0" d="M525.4,294.7v11.8l-1.1,12.2h-1.8l-1.1-12.2v-11.8H525.4z M525.4,322.7v4.2h-4.1v-4.2H525.4z"/>
		</g>
	</g>
	<path class="st1" d="M492.1,111.5c12-48.5,54.5-73.8,94.6-81.8l-3.7,22.1"/>
	<line class="st1" x1="562.6" y1="21" x2="586.6" y2="28.3"/>
	<g>
		<path class="st2" d="M491.9,528c-2.2,1.2-4.4,2.5-4.2,5.6c-0.5,0-0.9,0-1.4,0c-0.4-0.7-0.8-1.5-1.7-2.9c1.6-1.6,3.5-3.5,5.7-5.7
			c-4.1,1.3-6.2,4.2-8.3,7.2c-0.5,0.5-0.9,0.9-1.4,1.4c-2.3-0.6-3.3,1.1-4.5,2.4c-3.2,3.5-7,6.1-11.1,8.2c-0.7,0.4-1.7,0.3-2.6,0.5
			c0.4-0.7,0.9-1.5,1.4-2.5c-3.5-0.8-6.6-0.3-9,2.5c-1,1.2-2.1,1.6-3.6,1.4c-0.2-0.4-0.3-0.8-0.5-1.2c-0.3,0.4-0.6,0.8-0.9,1.2
			c-1.4,0-2.8,0-4.2,0c0.8-0.5,1.5-1.2,2.4-1.6c6.9-3.4,13.4-7.4,19.9-11.5c0.7-0.4,1.5-0.7,2.9-1.3c-0.7,1.6-1.1,2.5-1.5,3.3
			c-0.5,0.5-0.9,0.9-1.3,1.5c0,0-0.1-0.1-0.2-0.2c-0.4,0.3-0.8,0.6-1.1,1c0.1,0.1,0.3,0.3,0.4,0.4c0.3-0.4,0.6-0.8,0.9-1.2
			c0.4-0.5,0.9-1,1.3-1.5c0.7,0,1.8,0.3,2,0c3.6-4.9,10.3-6.5,12.8-12.6c0.7-1.6,2.3-3.1,3.9-3.9c5.8-2.8,8.8-8,12-13
			c0.1-0.1-0.1-0.4-0.3-1.4c-0.9,0.9-1.6,1.5-2.3,2.1c-0.8,0.8-1.6,1.6-2.5,2.5c-3.6,3.6-7.3,7.1-10.8,10.8c-3,3.1-6.3,4.9-10.7,4.4
			c0.5-0.9,0.9-1.9,1.1-2.9c3.5,0.7,4-2.2,5.5-3.8c-2.8-0.2-3.8,2.1-5.5,3.8c-1.9-0.1-3.3,0.7-3.9,2.9c-0.5,0.5-0.9,0.9-1.4,1.4
			c-1.1,0.2-2.7-0.7-2.8,1.4c-1.4,0.9-2.8,1.9-4.2,2.8c-0.4,0.2-0.8,0.3-1.2,0.5c0.4,0.3,0.8,0.6,1.2,0.9c-0.5,2.2-2,3-4.2,2.8
			c0-0.5,0-0.9-0.1-1.5c0,0,0.1,0.1,0.2,0.2c0.4-0.3,0.8-0.6,1.1-1c-0.1-0.1-0.3-0.3-0.4-0.4c-0.3,0.4-0.6,0.8-0.9,1.2
			c-1,0.3-2.6-0.6-2.7,1.5c-0.4,0-1-0.2-1.3,0c-1.9,1.3-3.8,2.8-5.7,4.2c-2.3,0.6-4.7,0.8-6.7,2c-1.6,0.9-3,0.6-4.5,0.8
			c0-0.5,0-0.9,0-1.4c0.9-0.2,1.8-0.3,2.7-0.5c0-0.3-0.1-0.6-0.1-0.9c-0.9,0-1.7,0-2.6,0c0.7-2.7,2.8-0.9,4.3-1.5
			c0,0-0.1,0.1-0.2,0.2c0.3,0.4,0.6,0.8,1,1.1c0.1-0.1,0.3-0.3,0.4-0.4c-0.4-0.3-0.8-0.6-1.2-0.9c2.5-1.8,4.8-4.1,7.7-5.4
			c11.9-5.6,21.6-14.1,30.3-23.7c4.8-5.3,9.2-11.2,12.9-17.6c1.5-1.5,3.2-3.2,4.9-4.9c0,0.9,0,1.7,0,2.6c3.4-4.1,5.3-8.6,5.6-13.7
			c0.5-0.6,1.2-1.1,1.4-1.8c0.9-4.3,1.7-8.5,2.5-12.5c-1-3.6-2-7.1-3-10.6c-0.4,0.1-0.8,0.1-1.1,0.2c0.5,4,1,8.1,1.5,12.1
			c-3.1-5.4-4.1-11.4-6.6-16.9c-1.9-4-3.3-8-6.6-11.2c-1.7-1.7-3-3.8-4.5-5.8c-0.8-1.1-1.2-2.3-2-3.3c-2.1-2.9-5-5-7.1-8.1
			c-1.9-2.7-6.1-3.8-9.3-5.6c-0.8-0.5-1.3-1.3-2.2-2.2c-1.8,0-3.8,0-5.6,0c-1-1.1-1.8-1.9-2.7-2.7c-1.2,0-2.3,0-3.5,0
			c-0.1-2.1-1.7-1.2-2.9-1.3c0,0,0.1-0.1,0.2-0.2c-0.3-0.4-0.6-0.8-1-1.1c-0.1,0.1-0.3,0.3-0.4,0.4c0.4,0.3,0.8,0.6,1.2,0.9
			c0.2,2,1.8,1.1,2.9,1.3c0.2,0.4,0.2,1,0.5,1.2c8.3,4,15.8,9.1,21.8,16.2c2.1,2.5,4.7,4.5,6.8,6.9c8.4,9.6,14.6,20.2,15.6,33.2
			c0,0.4,0.9,0.7,1.3,1.1c0,2.8,0,5.6,0,8.4c-1.9,0-1.3-1.5-1.4-2.5c-0.1-1-0.2-2.1-0.4-4.4c-0.7,2.1-1,2.9-1.8,5.3
			c-0.3-7.4-4.8-12.4-3.1-18.5c-0.6-0.6-1-0.8-1.2-1.2c-6.6-13.2-13.1-22.4-21.2-29.4c-7.8-6.8-16.7-11.6-27-13.6
			c-2.6-0.5-5.1-1.2-7.9-1.9c-0.6-0.6-1.4-1.4-2.2-2.2c-2.8,2.5-6.1,0.9-9.3,1.3c-2.2-1.4-2.2-1.4-4.9-1.2c-0.1,0-0.2,0.6-0.4,1.1
			c1.9,0,3.6,0,5.2,0.1c-0.4,0.5-1,1.4-1.6,1.4c-2.2,0.2-4.5,0.1-6.8,0c-1.7-1.4-1.7-1.4-4-0.1c1.6,0,2.9,0,4,0.1
			c0.1,0.3,0.1,0.7,0.1,0.8c-5.4,0.7-10,4.1-15.4,4.9c-0.2-1-0.3-1.9-0.6-3.6c-2.1,1.5-3.5,2.6-5,3.6c-0.7,0-1.4-0.2-2,0
			c-6,2.2-11.5,5.3-16.1,9.8c-1.1,0.2-2.7-0.7-2.8,1.4c-0.5,0.5-0.9,0.9-0.9,1.3c-4.9,1.4-7.2,3.9-6.7,7c2.1-2,4.1-4.1,6.7-7
			c0-0.3,0.4-0.8,0.9-1.3c1.1-0.2,2.7,0.7,2.8-1.4c1-0.3,2-0.6,3-0.9c1.8-0.6,3.6-1.2,5.4-1.9c-0.9,0.9-1.5,2.3-2.6,2.7
			c-6.2,2.8-11,7.4-15.7,12c-1.5,1.5-1.3,4.4-4.1,4.8c-0.2-0.4-0.3-0.8-0.5-1.2c-0.3,0.4-0.6,0.8-0.9,1.2c-0.5,0.5-0.9,0.9-1.4,1.4
			c-2.1,0.1-1.2,1.7-1.4,2.8c-0.5,0.5-0.9,0.9-1.4,1.4c-2.1,0.1-1.2,1.7-1.4,2.8c-0.5,0-0.9,0-1.4,0c-0.2-0.4-0.3-0.8-0.5-1.2
			c-0.3,0.4-0.6,0.8-0.9,1.2c-2.1,0.1-1.2,1.7-1.4,2.8c-0.5,0.5-0.9,0.9-1.4,1.4c-2.1,0.1-1.2,1.7-1.4,2.8c-0.5,0.4-0.9,0.7-1.4,1.1
			c0.5,0.6,0.9,1.2,1.4,1.7c-0.2,1.1,0.7,2.7-1.5,2.9c0,0,0.1-0.1,0.2-0.2c-0.3-0.4-0.6-0.8-1-1.1c-0.1,0.1-0.3,0.3-0.4,0.4
			c0.4,0.3,0.8,0.6,1.2,0.9c0.1,0.4,0.2,0.9,0,1.3c-3.9,7.3-4.1,10.5-5.7,18.5c-2.4,11.4-0.3,22.8-1.4,34.4
			c6.1,0.8,11.6-1.1,17.1-1.6c5.4-0.5,10.7-0.8,16.2-1.1c0.3,0.9,0.6,1.7,1,2.9c0.7-0.1,1.5-0.3,2.5-0.4c-0.7-0.8-1.1-1.3-2.6-2.9
			c2.6,1,3.8,1.4,5.2,1.9c0,2.4,0,4.4,0,6.2c3,2.4,5.8,4.6,8.9,7.1c-1.3,0.5-2.1,0.8-3.1,1.1c0,0.8-0.1,1.7-0.1,2.4
			c2,2.8,4,5.4,6.1,8.3c-0.7,0.7-1.1,1.1-1.6,1.4c-0.3,0.2-0.8,0.2-1.4,0.3c-0.4,1.9-0.2,5-2.3,5c-2.8,0-1.4,3.4-5.3,2.3
			c-0.7,0.3-0.5,0.8-0.3,0.8c0.7-0.1,1.3-0.4,2-0.6c-0.8-0.2-1.7-0.5-1.7-0.2c0.9,1.4,0.2,2-0.9,2.9c0.7,0.8,1.6,1.9,3.3,3.8
			c-4.5-0.7-8.3-0.6-11.3-2c-5.3-2.5-10.2-1.1-15,0.4c-7.8,2.4-16.5,9.8-22,17.3c-1.5,2-3.6,3.7-5.8,5.9c1.8,0.2,3.3,0.2,4.7,0.4
			c4,0.4,8,1.2,12,1.3c3.9,0.1,7.3,0.9,10.8,2.6c1.9,0.9,4.5,0.2,6.8,0.2c2,4.1,5,6.9,9.2,8.3c0,3,0,5.5,0,7.7
			c3,2.8,3.8,6.4,2.8,9.5c-1.3,4-4.3,7.4-8.2,9.4c-2.9,1.5-5.7,3.6-9.3,2.8c-1.7-0.3-3.3,1.4-4.3,1.2c-4.1-0.8-8.1,3.4-12.1,0.2
			c-4.7,1.5-10.2,0.6-14.8,4.8c0,2.5,0,5.5,0,8.4c0,3,0,5.9,0,9.2c12.7,0,25,0,37.3,0c7.2,0,14.5-0.4,21.6,0.1c8,0.5,16,1.5,24,2.8
			c3.3,0.5,6.7,2,9.6,3.8c5.4,3.2,10.6,6.9,14.7,11.8c0.8,1,3.2,9.9,3.2,11.9c0,3.5,0,7,0,10.5c-2,3.2-4.8,5-8.4,6.1
			c-3.3,1.1-6.3,4-9.6,0.1c-1,0.8-1.7,1.3-2.8,2.1c-1.1-0.8-2.4-1.8-3.7-2.8c-3.3,2.5-6.1,0.3-9.3-1.1c-6-2.7-12.2-4.9-19-4.8
			c-10.3,0.2-20.5-2.4-30.8-1.4c-5.8,0.6-11.7,1.2-18.4,1.8c-0.3,1-1.8,3.2-1.2,4c1.8,2.6,1.2,5.3,1.2,7.9
			c0.1,11.6-0.2,23.3,0.1,34.9c0.2,7.7-2.1,15-2.9,22.6c-1.8,0.8-0.1,4.2-3.3,4.3c-1,0.1-1.9,2.1-3.6,4.1c-2.8,1.1-7,2-9.2,5.7
			c-2.1-0.8-3.7-1.3-5.9-2.1c-0.2-0.3-0.6-1.3-1.1-2.3c-1.9,3.5-1.9,3.5-5.7,4.4c-0.8-1.1-1.7-2.4-3.2-4.5c0.4-3.1-1.4-6.5-4.8-9.3
			c0.8-1,1.3-1.7,1.8-2.4c-1.2-1.8-2.4-3.6-4.2-6.1c0-1.2,0-3.2,0-5.2c-1.1-0.4-1.9-0.7-3.1-1.1c0.5-1.1,1-2,1.7-3.5
			c0-1.4,0-3.5,0-5.6c0-2.6-0.2-5.1,0.1-7.7c0.2-2.4,0.5-4.9,1.4-7.1c1.8-4.2,1.2-8.5,1.3-12.7c0.1-3.2,0-6.5,0-9.6
			c-0.7-0.7-1.4-1.4-2.3-2.3c-6.2,2.5-13.4,1.2-19.7,4.4c-3.9-0.8-7.6,0.7-11.3,1.5c-7.2,1.5-14.6,2.4-21.4,5.5
			c-0.7,0.3-1.4,0.8-2.6,1.5c0-1.1,0-2,0-2.9c1.1-0.2,2.7,0.7,2.8-1.4c1.1-0.2,2.7,0.7,2.8-1.9c0-0.1,0,0.3,0,0.7
			c0.9-0.2,1.8-0.4,2.7-0.5c0-0.3-0.1-0.6-0.1-0.9c-0.9,0.1-1.8,0.2-2.7,0.8c-1,0.8-2.7-0.2-2.8,1.9c-1.1,0.2-2.7-0.7-2.8,1.4
			c-3.5,0.6-6.8,1.5-9.4,4.4c-1.1,1.2-2.9,2-4.5,2.6c-3,1.2-5.5,2.9-7.4,5.5c-2.4,0-4.7,0-7.5,0c-0.8-1.1-2-2.5-3-3.8
			c-1.6,0-2.7,0-3.5,0c-1.4-1.4-2.5-2.5-3.5-3.5c-0.8-2.5,1-5.3-1.5-7.2c0.8-3.5,1.5-6.8,2.5-11c-0.5-0.9-1.4-2.7-2.6-5
			c0-0.9,0.2-2.5-0.1-4.1c-0.2-1.3-0.9-2.6-2-5.2c1.7,1.3,2.1,1.7,3,2.4c0.2-1.4,0.4-2.6,0.6-3.7c3.6-2,6.7-4.8,11-5.5
			c2.8-0.5,5.4-1.8,8.2-2c3.6-0.2,6.8-1.6,10-2.9c2.2-0.9,4.3-2.5,6.5-2.7c3.7-0.3,6.1-2.4,8.6-4.7c2.6-2.3,5.4-4.3,8.2-6.4
			c0.4,0.4,0.8,0.8,1.1,1.1c0.7-0.9,1.4-1.8,2.2-2.7c0.2,0.4,0.3,0.8,0.5,1.2c0.3-0.4,0.6-0.8,0.9-1.2c1.1-0.2,2.7,0.7,2.8-1.4
			c1.1-0.2,2.7,0.7,2.8-1.4c2.2,0.2,3.6-0.6,4.2-2.8c0.5-0.5,0.9-0.9,1-1.7c-0.1-0.1,0.1,0.1,0.4,0.4c0.8-0.1,1.6-0.1,2.8-0.2
			c-0.1-1-0.1-1.7-0.2-2.7c-1.3,0.8-2.3,1.5-2.9,2.5c-0.1,0.8-0.6,1.3-1,1.7c-0.9,0-1.9,0-2.8,0c2.8-2.8,5.6-5.5,8.8-8.7
			c-5.3-2.5-7.9-8.3-13.9-9.6c-1.9-4.4-3.1-8.6-0.7-13.4c0.9-1.8,0-4.6,0.2-6.9c0.1-1.5,0.6-2.9,1-5.2c-0.2-0.7-0.8-2.3-1.4-4.1
			c17.4-7.3,32-18.4,46.2-29.1c0-2.1,0-3.7,0-5.6c-6.2,2.3-12,4.4-18.6,6.8c1.8,0.2,2.8,0.2,3.8,0.4c0.9,0.2,1.8,0.5,4.4,1.2
			c-6.9,3-13.3,3.2-16.5,8.5c-0.9,0-1.4-0.1-1.8,0c-6.3,1.9-9.7,0.9-13.8-4.3c-2.2-2.8-4.4-5.7-6.5-8.5c-0.8,0.7-1.3,1.2-1.9,1.6
			c-1.2-9.5-0.9-15.4,0.8-18.8c-3.5-3.1-2.7-7.4-2.8-11.8c-3.4,1.3-4.4,5.4-8.1,5.8c0,1.3,0,2.6,0,2.5c-0.8,5.6-6.4,4.8-7.3,8.9
			c-0.7,3-2.7,5.8-4.6,9.6c2.1-0.8,3.4-1.3,4.7-1.7c-0.5,1.7-1,3.4-1.5,5.3c1.7-0.5,3-0.8,4.3-1.1c-0.8,0.9-1.5,2.3-2.5,2.7
			c-2.2,0.8-3.5,2.3-4.4,4.4c0,0-0.1-0.1-0.2-0.2c-0.4,0.3-0.8,0.6-1.1,1c0.1,0.1,0.3,0.3,0.4,0.4c0.3-0.4,0.6-0.8,0.9-1.2
			c0.9-0.1,1.8-0.1,2.7-0.1c0,0.5,0,0.9,0,1.4c-0.4,0.2-0.8,0.3-1.2,0.5c0.4,0.3,0.8,0.6,1.2,0.9c-0.1,2.1-1.7,1.2-2.8,1.4
			c-3.4-2.1-3.8-2-7,1.4c1.6,0,2.9,0,4.2,0c0.4,0.7,0.8,1.4,1.3,2.4c-0.9,0.1-1.8,0.2-2.7,0.4c-0.2-0.4-0.3-0.8-0.5-1.2
			c-0.3,0.4-0.6,0.8-0.9,1.2c-4.7,0.4-6.4,1.3-7.7,4.2c2.6-0.9,5.1-1.9,7.7-2.8c-1.6,3.7-5.4,4.4-8.5,5.4c-4.5,1.4-9.2,2.6-14,3.3
			c-3.5,0.5-7.1,1.6-10.6,1c-9.1-1.6-18.5-0.8-27.2-4.8c-1.9-0.9-4.3-0.7-6.6-1.6c1.7-0.3,3.4-0.5,5.2-0.8
			c-4.1-3.9-9.9-5.8-12.4-11.2c-0.2-0.4-0.5-0.9-0.8-1c-5.3-0.9-4.2-6.1-6.7-9.2c-2.4,0.1-3.2-4.1-6.5-3.3c0,0,0.1-0.1,0.2-0.2
			c-0.3-0.4-0.6-0.8-1-1.1c-0.1,0.1-0.3,0.3-0.4,0.4c0.4,0.3,0.8,0.6,1.2,0.9c1,2.4,1.9,4.9,2.9,7.6c-0.4,0.2-0.9,0.5-1.4,0.7
			c-0.5-0.5-0.9-0.9-1.4-1.4c-0.1-2.1-1.7-1.2-2.8-1.4c0-0.5,0-0.9,0-1.4c0.4-0.2,0.8-0.3,1.2-0.5c-0.4-0.3-0.8-0.6-1.2-0.9
			c-0.5-0.5-0.9-0.9-1.4-1.4c-0.6-0.5-1.2-0.9-1.7-1.4c-0.4-0.4-0.7-0.9-1.1-1.4c0.4-0.2,0.8-0.3,1.2-0.5c-0.4-0.3-0.8-0.6-1.2-0.9
			c-0.3-1-0.4-2.3-1-3c-2.5-3.1-4.2-6.6-4.9-10.7c-2,0-4,0-6.2,0c-0.3,0.7-0.5,1.5-0.9,2.5c-1.1-1.6-2.1-3.1-3.4-4.9
			c0-1.3,0-3,0-4.7c0.2,0,0.4,0,0.7-0.1c0.3,1.4,0.6,2.9,0.8,4.2c0.8,0,1.3,0,2,0c-0.4-1.3-0.8-2.5-1.5-4.8c1.4,1.1,1.9,1.5,2.1,1.7
			c1.5-1.5,3.1-3.1,5.1-5.1c0-1.6,0-4.1,0-7.2c-1.5-0.5-3.1-1.1-5.4-1.9c0,2.9,0,5.2,0,7.5c-1.1,0-1.8,0-3,0c0.6-3.1,1.2-6,1.8-9.3
			c-2.2,0.6-3.9,1-5.9,1.5c1.1,1.2,2.1,2.3,3.3,3.7c-0.9,1-1.7,1.8-2.6,2.8c-1.2-3.7-2.4-7.2-3.6-10.8c2,0.4,3.8,0.7,5.5,1
			c0-0.3,0.1-0.5,0.1-0.8c-0.9-0.4-1.9-0.9-2.9-1.3c0.1-0.7,0.3-1.3,0.5-2.4c1.6,0.7,2.9,1.2,5.2,2.2c-0.5-1.3-0.7-1.9-0.9-2.6
			c1.6-2.2,3.3-4.7,5-7.1c-2.2-3.1,1.9-4.6,1.7-7.2c0.9-0.3,1.7-0.6,3-1c-0.7-1.1-1.8-2-1.7-2.9c0.1-2.7-0.9-5.5,0.9-8
			c0.5-0.7,0.5-1.7,0.4-2.6c-0.8-7.8,2.4-14.8,4.7-21.8c3.2-9.8,8.4-18.6,15.1-26.5c3.8-4.4,6.7-9.7,11-13.5
			c11.6-10.3,22.9-21.1,37.5-27.4c4.1-1.8,8.2-3.4,12.8-2.8c0,0.5,0,0.9,0,1.4c-1.4,0.5-3.5-1.3-4.2,2c0,0.1,0-0.3,0-0.7
			c-1.4,0.2-2.7,0.4-4.1,0.5c0,0.3,0.1,0.6,0.1,0.9c1.4-0.1,2.7-0.1,4.1-0.8c1.4-1.1,3.5,0.7,4.2-2c1.4-0.1,2.7-0.3,4.1-0.4
			c0-0.3-0.1-0.7-0.1-1c-1.3,0-2.6,0-4,0c1.4-3.1,4.4-1.7,5.9-1.1c1.6,0.6,2.6-0.1,3.8-0.2c2.9-0.1,5.5-3,8.7-0.2
			c1.1,0.9,3.6,0.1,5.5,0.1c9.3,0,19.7,3.9,27.3,10c1.5,1.2,3.5,1.7,5.2,2.6c2.1,1.1,5.2,1.7,6.1,3.5c1.4,2.9,3.6,4.2,6,5.8
			c2.2,1.4,4.1,3.5,6.2,5.1c4.2,3.4,7.8,7.7,10.9,12.1c3.7,5.3,7.6,10.7,10,16.8c1.3,3.2,2.6,6.4,4,9.9c3.2-6.8,6.5-13.1,9.3-19.7
			c2.7-6.3,7-11.6,11-17.1c3.5-4.7,7.4-9.3,11.8-13.2c9.6-8.6,19.6-16.7,31.1-22.7c3.4-1.8,6.7-3.9,10.5-5.1c3.5-1,6.6-3.2,10.1-4.3
			c4.3-1.4,8.9-2.3,13.3-3.2c11.6-2.5,23.4-1.8,35-1.1c8.3,0.5,16.5,3.4,24.5,6.3c11.3,4.2,20.9,10.9,30.1,18.1
			c5.5,4.3,10.9,9.1,14.6,15.5c1.1,1.9,3.3,3,5,4.5c-0.2,2.2,0.6,3.6,2.8,4.2c0.6,2.8,1.2,5.7,1.7,8.4c1.1,0,1.8,0,2.5,0
			c0.9,2.9,2.6,5.7,2.6,8.6c0.1,5.7,2.8,10.3,5.1,15.2c2.2-3.2-1-5.6-0.8-8.5c0,0,0.1,0.1,0.2,0.2c0.4-0.3,0.8-0.6,1.1-1
			c-0.1-0.1-0.3-0.3-0.4-0.4c-0.3,0.4-0.6,0.8-0.9,1.2c-1.9-0.3-1.5-1.3-0.8-2.6c0.5-0.9,0.6-1.9,0.9-2.9c3.3,1.8,2.7,5.6,4,8.3
			c1.3,2.9,2.3,6.1,0.5,9.9c-1.4,3-0.3,7.1-0.3,12.1c-2.4-4.2-0.6-7.6-1.7-10.7c-1.6,4.6-1.6,10.8,0.4,14.4c0.7,1.2,1.5,2.2,1.3,3.6
			c-0.5,0.6-1.1,1.1-1.4,1.8c-0.3,0.9,0.4,2.4-1.4,2.4c1-4.4-1.3-8.4-1.4-12.6c-0.1-4.6-0.3-9.1-0.5-14.6c-1,1.4-1.6,2.2-2.3,3.3
			c0.5,2.6-1,5.7,1.4,8.3c0.3,0.4,0.3,1.5,0,2c-2.5,3.5-1,7.5-1.3,11.3c0,0.3,0.9,0.7,1.3,1.1c0,1.3,0.1,2.7-0.1,3.9
			c-0.1,0.6-0.9,1.1-1.3,1.7c0-1.3,0-2.7,0-5.4c-1.6,3-2.5,4.8-3.5,6.6c-0.5-2.2,0.2-4,0.6-5.9c0.5-1.9,0.8-3.8,1.2-5.7
			c-0.4-1-1.4-2.3-1.1-2.9c1.5-3,0.3-5.7,0.1-8.7c-0.2-3.7-1.4-6.9-2.1-10.5c-0.7,0.7-0.7,0.7-2.7,1.1c0-4.1,0-8,0-12.2
			c-0.9,0.7-1.4,1.1-2.5,2c0.6-2.8,1.1-5,1.8-8.5c-1.7,2.1-2.4,3-3.1,3.9c0.1-3.5-0.7-6.6-4.2-8.4c-0.2-1.1,0.7-2.7-1.4-2.8
			c-0.2-1.1,0.7-2.7-1.4-2.8c-0.5-0.5-0.9-0.9-1.4-1.4c-0.2-1.1,0.7-2.7-1.4-2.8c-0.5-0.5-0.9-0.9-1.4-1.4c-0.5-0.5-0.9-0.9-1.4-1.4
			c0.2-1.1-0.7-2.7,1.4-2.8c0.5,0.5,0.9,0.9,1.5,1.3c0,0-0.1,0.1-0.2,0.2c0.3,0.4,0.6,0.8,1,1.1c0.1-0.1,0.3-0.3,0.4-0.4
			c-0.4-0.3-0.8-0.6-1.2-0.9c-0.5-0.4-1-0.9-1.5-1.3c-0.7-0.9-1.3-1.9-1.9-2.7c-0.9,0.5-1.6,0.9-2.3,1.3c-0.5-0.5-0.9-0.9-1.4-1.4
			c-0.5-0.5-0.9-0.9-1.4-1.4c0.1-2.2,0.3-4.4-2.1-5.4c-0.7,0.4-1.4,0.8-2.1,1.2c-0.5-0.5-0.9-0.9-1.4-1.4c-0.5-0.5-0.9-0.9-1.5-1.3
			c0,0,0.1-0.1,0.2-0.2c-0.3-0.4-0.6-0.8-1-1.1c-0.1,0.1-0.3,0.3-0.4,0.4c0.4,0.3,0.8,0.6,1.2,0.9c0.1,0.4,0.1,0.9,0.1,1.3
			c-0.9,0-1.9,0-2.8,0c-0.5-0.5-0.9-0.9-1.4-1.4c-0.5-2.2-2-3-4.2-2.8c-0.5-0.5-0.9-0.9-1.4-1.4c-0.1-2.1-1.7-1.2-2.8-1.4
			c-0.5-0.5-0.9-0.9-1.4-1.4c-0.1-2.1-1.7-1.2-2.9-1.3c0,0,0.1-0.1,0.2-0.2c-0.3-0.4-0.6-0.8-1-1.1c-0.1,0.1-0.3,0.3-0.4,0.4
			c0.4,0.3,0.8,0.6,1.2,0.9c0.2,2,1.8,1.1,2.9,1.3c0.5,0.5,0.9,0.9,1.4,1.4c0.1,2.1,1.7,1.2,2.8,1.4c0.5,0.5,0.9,0.9,1.4,1.4
			c0.5,2.2,2,3,4.2,2.8c0.5,0.5,0.9,0.9,1.4,1.4c3.7,3.7,7.5,7.5,11.2,11.2c0.5,0.5,0.9,0.9,1.4,1.4c0.5,0.5,0.9,0.9,1.4,1.4
			c0.5,0.5,0.9,0.9,1.4,1.4c0.2,1.1-0.7,2.7,1.4,2.8c0.5,0.5,0.9,0.9,1.4,1.4c0.2,1.1-0.7,2.7,1.4,2.8c0.2,0.4,0.3,0.8,0.5,1.2
			c0.3-0.4,0.6-0.8,0.9-1.2c0.5,0,0.9,0,1.4,0c0,0.9,0,1.9,0,2.8c-0.4,0.2-0.8,0.3-1.2,0.5c0.4,0.3,0.8,0.6,1.2,0.9
			c0.2,1.1-0.7,2.7,1.4,2.8c0.8,0.7,1.7,1.4,2.6,2.2c-0.6,1-2.6,2.3,0.2,3.4c-0.2,2.8,2,4.7,2.8,7.2c2.7,8,3.1,16.4,4.1,24.7
			c0.9,6.8-0.7,13.3-2.8,19.7c-0.7,1.9-1.6,3.6-1.3,5.7c-2.1,0.1-1.2,1.7-1.4,2.8c-2.1,0.1-1.2,1.7-1.4,2.8
			c-5.9,7-9.9,15.4-16.7,21.7c-0.3,0.3,0,1.3,0.3,2.4c0.1,0.1-0.1-0.1-0.4-0.4c-0.8,0.1-1.6,0.1-2.8,0.2c0.1,1,0.1,1.7,0.2,2.7
			c1.3-0.8,2.3-1.5,2.9-2.5c1-0.8,2.4-1.3,3.8-1.7c-0.4,0.7-0.8,1.5-1,1.8c0.4,1.4,0.7,2.6,1,3.8c-0.5,0.5-0.9,0.9-1.4,1.4
			c-0.5,0-0.9,0-1.4,0c-0.2-0.4-0.3-0.8-0.5-1.2c-0.3,0.4-0.6,0.8-0.9,1.2C492.8,527,492.3,527.5,491.9,528z M162.1,557.3
			c0-0.5,0-0.9,0-1.4c1.4,0.5,2.8,0.9,5.3,1.4c-0.4,0-0.8,0-1.2,0.1c0.2,0.9,0.4,1.8,0.5,2.7c0.3,0,0.6-0.1,0.9-0.1
			c-0.1-0.9-0.2-1.8-1.3-2.6c0-1.4,0-2.8,0-4.2c0.5,0,0.9,0,2.1-0.7c-0.2,0.2-0.5,0.5-0.7,0.7c0.1,0.8,0.1,1.6,0.2,2.8
			c1-0.1,1.7-0.1,2.7-0.2c-0.8-1.3-1.5-2.3-2.8-2.6c-0.2-0.4-0.3-0.8-0.5-1.2c-0.3,0.4-0.6,0.8-0.9,1.2c-2.3-1.9-4.7-3.7-7.1-5.4
			c0.1-0.1,0.2-0.2,0.3-0.3c-0.3-0.4-0.6-0.8-1-1.1c-0.1,0.1-0.3,0.3-0.4,0.4c0.4,0.3,0.8,0.6,1.3,0.8c-0.4,0.7-0.8,1.5-1.3,2.2
			c1.1,1.3,3.2,2.3,2.7,4.8c-0.4,0.2-0.8,0.3-1.2,0.5c0.4,0.3,0.8,0.6,1.2,0.9C161.2,556.4,161.6,556.8,162.1,557.3
			c0.5,0.5,0.9,0.9,1.5,1.3c-0.1,0.1-0.2,0.2-0.3,0.3c0.3,0.4,0.6,0.8,1,1.1c0.1-0.1,0.3-0.3,0.4-0.4c-0.4-0.3-0.8-0.6-1.3-0.8
			C163,558.2,162.6,557.8,162.1,557.3z M136.9,515.4c0.4-0.2,0.8-0.3,1.2-0.5c-0.4-0.3-0.8-0.6-1.2-0.9c0.5-0.7,1.3-1.5,1.3-2.2
			c0.2-4.2,1.8-8.1,2.8-12.1c1.1-4.2,1.8-8.5,2.7-12.8c1.4-6.7,2.8-13.2,7.3-18.6c0-2.4,0-4.7,0-6.8c4.5-4.1,3.7-9.9,5.4-14.7
			c0.1-0.3-0.4-0.7-0.6-1.2c-0.9,0-1.8,0-2.8,0c-2.7,5-7.1,8.7-9.2,14.2c-1.9,5-5.7,9.5-6.6,14.6c-1,5.6-4.7,10.8-3,16.5
			c-1.2,1.2-2,2-3.1,3.1c0.5,2.1,1.1,4.4,1.6,6.7c-0.2,0.7-1.8,0.9-0.8,2c0.8,0.2,1.4,0.3,1.8,0.4c1.6,1.7-1.1,4.5,1.9,5.4
			c0,0.9,0,1.7,0,2.8c-1.1-0.6-1.7-0.9-3.3-1.8c0.8,1.9,1.2,3,2.1,5.3c-0.9,0.9-2.2,2.2-3.6,3.6c0-0.1,0.2,0.3,1.2,1.7
			c-2.8-0.7-4.3-1.1-6-1.5c-0.5,0.6-1.1,1.3-1.6,2c-0.1,0.1,0,0.5,0,0.7c1.5,4.6,1.5,4.6,5.5,8.4c0-2.2,0-3.9,0-4.9
			c1.9-1.3,3.1-2.1,4.3-2.9c-1.8-3.7-1.8-3.7,1.4-6.5c0.2,0.4,0.3,0.8,0.5,1.2C136.3,516.2,136.6,515.8,136.9,515.4z M464.1,539.3
			c-0.1-0.1-0.2-0.2-0.3-0.3c-0.4,0.3-0.8,0.6-1.1,1c0.1,0.1,0.3,0.3,0.4,0.4c0.3-0.4,0.6-0.8,0.7-1.4
			C463.9,539.1,464,539.2,464.1,539.3c0.4-0.3,0.7-0.6,1.1-1c-0.1-0.1-0.3-0.3-0.4-0.4C464.4,538.3,464.1,538.6,464.1,539.3z
			 M489.1,420.4c0.5,0.5,0.9,0.9,1.4,1.4c0.5,0.5,0.9,0.9,1.4,1.4c0.5,0.5,0.9,0.9,1.4,1.4c0.2,1.1-0.7,2.7,1.5,2.6
			c-0.1,0.1-0.2,0.2-0.3,0.3c0.3,0.4,0.6,0.8,1,1.1c0.1-0.1,0.3-0.3,0.4-0.4c-0.4-0.3-0.8-0.6-1.3-0.8c-0.2-1.1,0.7-2.7-1.4-2.8
			c-0.5-0.5-0.9-0.9-1.4-1.4c-0.5-0.5-0.9-0.9-1.4-1.4C490,421.3,489.5,420.8,489.1,420.4c-0.5-0.5-0.9-0.9-1.5-1.3
			c0.1-0.1,0.2-0.2,0.3-0.3c-0.3-0.4-0.6-0.8-1-1.1c-0.1,0.1-0.3,0.3-0.4,0.4c0.4,0.3,0.8,0.6,1.3,0.8
			C488.1,419.4,488.6,419.9,489.1,420.4z M169.1,532.2c0.5,0.5,0.9,0.9,1.4,1.4c0.1,3.4,2.1,5.7,4.4,7.9c2.5,2.5,5.4,4.8,6.8,8.3
			c0.2,0.6,0.3,1.2,0.4,1.8c1.8,0.1,3.3,0.2,5,0.3c0.8,1.4,1.6,2.7,2.3,4c0.9,0,1.9,0,2.8,0c1.3,0.6,0.4,2.6,2.8,3.1
			c3.2,0.6,8.4,1.5,11.7,0.6c4.8-1.4,8.6-4.3,12-7.8c0.5,0.4,1,0.9,1.6,1.4c2.1-3.2,6.6-4.5,6.3-9.3c4.5-3.1,5.9-9.1,11-11.7
			c0.2,1.5-0.2,2.6-1.4,3.6c-2.2,1.9-4.1,4-4.2,7.7c1.6-0.3,2.9-0.3,4.1-0.8c0.6-0.2,1.1-1,1.6-1.5c-0.7-0.7-1.1-1.1-1.5-1.5
			c3.8-3.2,7.6-6.3,11.3-9.4c0-1.9,0-3.5,0-5.1c1.1,0.6,2.2,1.1,3.3,1.7c1.2-2.7,2.5-4.8,5-5.9c0.4,0.7,0.8,1.5,1.3,2.2
			c-0.4,0.4-0.8,0.9-1.2,1.4c0.3,0.3,0.6,0.7,0.9,1c2.5-2,5-4,7.4-6c0,1.4,0,2.8,0,5.3c0-0.4,0-0.8-0.1-1.2
			c-0.9,0.2-1.8,0.4-2.7,0.5c0,0.3,0.1,0.6,0.1,0.9c0.9-0.1,1.8-0.2,2.6-1.3c1.2-0.5,2.4-1.1,3.6-1.4c5.8-1,11.1-3.5,15.7-5
			c2.4,0.3,4.1,0.5,5.8,0.7c-0.4,0.5-0.7,1.2-1.1,1.3c-2.9,0.7-5.8,1.2-8.7,1.8c3.4,0.9,6.4,1.4,9.8-0.2c2.9-1.4,6.3-1.4,9.6-2.1
			c0-1.3,1.5-3.1-1.2-3.7c2.3-3,1.2-6.4,1.4-9.6c-4.2-0.7-8-1.4-13-2.3c-0.4-0.5-1.7-2.2-3.1-3.8c-1.8,0-3.3,0-5.3,0
			c1.6-3.7-1.4-6-3.1-6.3c-3.2-0.5-2.8-3.8-4.3-4.5c-2,0.6-3.3,0.9-5.3,1.5c1.7-8.5-2-16.8,2.9-23.3c-0.5-2.8-0.5-5.1-1.4-7
			c-0.9-2-2.5-3.6-3.9-5.4c1.3-2.9,1.3-2.9,1.3-9.3c-1.2-0.9-2.8-2.2-4.2-3.2c-0.1-7-1.6-9.9-6.8-13.4c-0.9-0.6-2.5-1.1-2.6-1.8
			c-0.7-3.6-3.8-3.8-6.2-5.1c-4-2.2-8-4.4-12.4-6.8c-2.8-0.3-6.3-0.7-9.7-1.1c0,0.6,0,1.1,0,1.7c0.9,0.4,1.8,0.9,3,1.4
			c-0.4,0.8-0.7,1.5-1.3,2.8c-1.6-1.5-2.7-2.5-4.1-3.7c-2.2,0.5-4.9-0.4-8,0.8c1.2,0.5,2.9,2.7,3,3.4c-2.5,0-5,0-6.2,0
			c-4.9,3.1-8.8,5.5-13.1,8.2c-2.2,4.1-3,4.8-6.6,5.6c0.4-1.1,0.8-2.2,1.4-3.6c-2,0-3.6,0-4.3,0c-9.3,4.8-11.5,14.5-16.9,22
			c-0.1,5.8-0.1,6-4.2,10.6c0,2.3,0.3,4.6-0.1,6.9c-0.3,2.1-1.3,4.2-1.9,6.2c-0.3-0.1-0.6-0.1-0.9-0.2c0-2.2,0-4.4,0-7.2
			c-1.2,1.1-1.8,1.7-2.7,2.5c-0.2,3.8,0.2,7.8-1.3,11.8c-0.8,2.2-0.5,4.7-1.3,7.1c-0.7,2.2,0.7,5.1,1.1,7.7c0.1,0.6-0.1,1.3-0.2,1.9
			c-1.2-0.5-2.3-0.9-4.1-1.6c0.4,4.5-0.8,8.4,1.5,11.9c0,0.1-0.9,0.7-1.3,1.1c-0.5-1-1.4-2-1.3-2.9c0.3-3.5-1.1-6.5-2-9.3
			c-0.8,0.5-1.7,1.1-2.8,1.9c0.8,1.2,1.3,1.9,1.8,2.7c-1.7,3.8-1.7,5.8,0.2,11.5c-0.9,0.1-1.7,0.2-3,0.4c0-5.4,0-10.4,0-15.4
			c-1.1,1.4-1.2,2.9-1.3,4.4c-0.1,1.6,0.4,3.5-0.3,4.8c-2.4,4.9-0.5,10-1.1,14.9c3,6.5,4.2,14,9.9,19.1c-0.1,0.1-0.2,0.2-0.3,0.3
			c0.3,0.4,0.6,0.8,1,1.1c0.1-0.1,0.3-0.3,0.4-0.4c-0.4-0.3-0.8-0.6-1.3-0.8c0.5-1.2,1-2.3,1.4-3.6c0.1-0.6-0.2-1.2-0.3-1.8
			c-1.3-0.1-2.4-0.3-3.5-0.4c-0.4-2.3-3.3-4.3-0.8-7.1c1.9,2.2,3.6,4.1,5.3,6c0.3,0.3,0.5,0.7,0.6,1.1c1.9,5,5.6,8.4,9.9,11.3
			c-0.1,0.1-0.2,0.2-0.3,0.3c0.3,0.4,0.6,0.8,1,1.1c0.1-0.1,0.3-0.3,0.4-0.4c-0.4-0.3-0.8-0.6-1.3-0.8c-0.5-2.2-1-4.3-1.7-7
			c1.9,0,3.2,0,3.9,0.2c1.3,1.1,2.3,2,3.9,3.5c0.4-1.5,0.7-2.3,1-3.5c-1.8,0-3.1,0-4.4-0.2c0-1.2,0.5-3-0.1-3.4
			c-3.3-2.3-2.6-6.5-4.8-9.2c-0.7,0-1.4,0-2.1,0c2.2-2.8,1.3-6,1.3-8.8c-0.9-1.5-1.6-2.8-2.2-3.9c-3.7,0.6-2.9,3.7-4.4,6.9
			c0-3.5,0-5.6,0-7.8c1.3-1.1,2.6-2.1,3.9-3.2c0.5-0.3,0.9-0.7,1.4-1c-2.4-2.9-0.7-5.9,0-8.8c0.7,0.4,1.5,0.9,2.8,1.6
			c0-2.3,0-4.3,0-6.3c0-2.9,0-5.6,1.3-8.5c3.1-6.9,2.7-14.6,4.3-21.8c0.6-0.8,1-1.7,1.7-2.3c0.6-0.5,1.6-0.7,3.3-1.4
			c-2.4-0.4-3.6-0.6-5.2-0.8c1.2-1.3,2.1-2.2,2.8-3c0.2-1.8,0.4-3.3,0.8-5.9c0.7,2,1,2.8,1.4,3.8c1.8-3.4,3.6-6.5,5-9.8
			c1-2.4,3.1-4.3,2.9-7.1c0.5-0.6,0.9-1.2,1.4-1.7c0.4-0.4,0.9-0.7,1.4-1.1c0,1.2,0.5,2.8-0.1,3.4c-2.1,2.4-2.3,5.1-2.9,7.9
			c-0.6,2.8-2.6,5.5-4.5,7.8c-2.4,2.9-2.4,6.1-2.6,9.4c-1,2.1-1.5,4.5-2.5,6.6c-1.7,3.4-1.5,7.2-2.5,10.8c-2,6.6-4.1,13.5-2.7,20.3
			c0.9,4.8,0.9,9.4,1.1,14.1c0,0.9,0,1.8,0,2.1c3.5,7.2,6.8,13.8,12.3,19.1c-4.5-0.9-7.3-4.5-10.9-6.7
			C170,533.1,169.5,532.6,169.1,532.2c-0.2-1.1,0.7-2.7-2.5-2.8c0.4,0,0.8,0,1.2-0.1c-0.2-0.9-0.4-1.8-0.5-2.7
			c-0.3,0-0.6,0.1-0.9,0.1c0.1,0.9,0.2,1.8,1.3,2.6C167.9,530.4,167,532,169.1,532.2z M206.8,408.9c0-0.4,0-0.8-0.1-1.2
			c-0.9,0.2-1.8,0.4-2.7,0.5c0,0.3,0.1,0.6,0.1,0.9c0.9-0.1,1.8-0.2,2.5-1.4c0.1,0.1,0.2,0.2,0.3,0.3c0.4-0.3,0.8-0.6,1.1-1
			c-0.1-0.1-0.3-0.3-0.4-0.4C207.3,406.9,207,407.3,206.8,408.9z M410.9,684.3c-0.1,0.1-0.2,0.2-0.3,0.3c0.3,0.4,0.6,0.8,1,1.1
			c0.1-0.1,0.3-0.3,0.4-0.4c-0.4-0.3-0.8-0.6-4.7-2.4c1,1.1,1.2,1.6,1.4,1.6c0.7-0.1,1.3-0.4,2-0.6
			C410,683.6,409.1,683.3,410.9,684.3z M143.9,452.5c-2.1,0.1-1.2,1.7-1.3,2.9c-0.1-0.1-0.2-0.2-0.3-0.3c-0.4,0.3-0.8,0.6-1.1,1
			c0.1,0.1,0.3,0.3,0.4,0.4c0.3-0.4,0.6-0.8,0.8-1.3c2.1-0.1,1.2-1.7,1.3-2.9c0.1,0.1,0.2,0.2,0.3,0.3c0.4-0.3,0.8-0.6,1.1-1
			c-0.1-0.1-0.3-0.3-0.4-0.4C144.4,451.6,144.1,452,143.9,452.5z M406.7,408.9c0-0.4,0-0.9,0-1.3c-1.4,0.2-2.7,0.4-4.1,0.5
			c0,0.3,0.1,0.6,0.1,0.9c1.4-0.1,2.7-0.1,4-2.4c0,0.4,0,0.8,0.1,1.2c0.9-0.2,1.8-0.4,2.7-0.5c0-0.3-0.1-0.6-0.1-0.9
			C408.4,406.6,407.5,406.6,406.7,408.9z M130.1,534.8c-0.1,0.1-0.2,0.2-0.3,0.3c0.3,0.4,0.6,0.8,1,1.1c0.1-0.1,0.3-0.3,0.4-0.4
			c-0.4-0.3-0.8-0.6-2.4-0.8c0.4,0,0.9,0,1.3,0c-0.2-1.4-0.4-2.7-0.5-4.1c-0.3,0-0.6,0.1-0.9,0.1
			C128.7,532.3,128.8,533.6,130.1,534.8z M251.5,691.7c0,0.4,0,0.9,0,1.3c1.4-0.2,2.7-0.4,4.1-0.5c0-0.3-0.1-0.6-0.1-0.9
			c-1.4,0.1-2.7,0.1-4,2.4c0-0.4,0-0.9,0-1.3c-1.4,0.2-2.7,0.4-4.1,0.5c0,0.3,0.1,0.6,0.1,0.9C248.8,694.1,250.2,694,251.5,691.7z
			 M432.1,398.2c2.8,1.7,3.8,1.7,8.2,0c-3.1,0-5.8,0-7.8-0.4c-6.1-3-11.6-0.1-17.1,0.4c-5.8,0.5-11.3,2.7-16.8,4.6
			c-9,3.1-11.8,4.9-14,8.5c7.5-4.3,15.1-6.7,22.7-8.9C415.1,399.9,423.5,399,432.1,398.2z M289.1,630.1c-6.6-0.8-9.5,3.4-13.4,5.7
			c-3.1,1.9-5.4,5-9.6,5.5c-1.5,0.2-2.9,1.8-4.3,2.8c-2.3,1.7-4.5,3.6-6.8,5.4c-0.3,0.2-0.3,0.6-0.5,1c0.7,0.6,1.3,1.2,2.2,2
			c10.5-7.2,20.9-14.4,31-22.7c0.1,0.1,0.2,0.2,0.3,0.3c0.4-0.3,0.8-0.6,1.1-1c-0.1-0.1-0.3-0.3-0.4-0.4
			C288.4,629.1,288,629.5,289.1,630.1z M334.1,679.8c3.1,2,5.5-1,8.4-0.9c3.3,0.1,6.8,0.8,9.7-0.2c3-1,5.3,0.8,8,0.3
			c3.2-0.5,6.5-0.1,9.7-0.1c2.9,0,5.9-0.1,10-0.1c-5.4-2.5-9.8-2.4-14.3-2.7c-10.6-0.7-20.8,2.5-31.5,1.4
			C334.1,678.5,334.1,679.2,334.1,679.8z M295,643.1c-0.2-2-0.3-4.1-0.6-6.8c-5,3.6-9.2,6.7-14.7,10.6c5.4-0.8,9.3-1.3,13.4-2
			C293.4,644.7,293.9,644.2,295,643.1z M387.6,384c6.7-2.1,13.4-4.2,21.7-6.8C400.1,376.7,393.5,379.9,387.6,384z M409.6,375.9
			c0,0.2,0.1,0.4,0.1,0.7c6.4,0,12.7,0,19.1,0c0-0.2-0.1-0.3-0.1-0.7C422.3,375.9,416,375.9,409.6,375.9z M128.9,544.1
			c0,0.2,0,1.1,0,2.2c1-0.2,1.6-0.3,1.9-0.3C130.1,545.3,129.4,544.6,128.9,544.1z M278.1,523.4c0-0.2,0-0.5,0-0.7
			c-0.9,0-1.9,0-2.8,0c0,0.2,0,0.5,0,0.7C276.2,523.4,277.1,523.4,278.1,523.4z M212.2,409c-0.1-0.4-0.1-0.8-0.2-1.2
			c-0.8,0.2-1.5,0.4-2.3,0.5c0,0.2,0.1,0.4,0.1,0.7C210.6,409,211.4,409,212.2,409z M444.1,400.6c0-0.4-0.1-0.8-0.1-1.2
			c-0.8,0.2-1.5,0.4-2.3,0.5c0,0.2,0.1,0.4,0.1,0.7C442.6,400.6,443.4,400.6,444.1,400.6z M466.3,540.5c-0.2,0-0.3,0-0.5,0
			c0,0.5,0,0.9,0,1.4c0.2,0,0.3,0,0.5,0C466.3,541.5,466.3,541,466.3,540.5z M128.6,541.5c0-0.2,0-0.3,0-0.5c-0.5,0-0.9,0-1.4,0
			c0,0.2,0,0.3,0,0.5C127.6,541.5,128.1,541.5,128.6,541.5z M272.9,525.2c0.2,0,0.3,0,0.5,0c0-0.5,0-0.9,0-1.4c-0.2,0-0.3,0-0.5,0
			C272.9,524.2,272.9,524.7,272.9,525.2z M257.1,690.5c0,0.2,0,0.3,0,0.5c0.5,0,0.9,0,1.4,0c0-0.2,0-0.3,0-0.5
			C258,690.5,257.6,690.5,257.1,690.5z M290.2,684.5c-0.2,0-0.3,0-0.5,0c0,0.5,0,0.9,0,1.4c0.2,0,0.3,0,0.5,0
			C290.2,685.4,290.2,684.9,290.2,684.5z M522.6,446c0,0.2,0,0.3,0,0.5c0.5,0,0.9,0,1.4,0c0-0.2,0-0.3,0-0.5
			C523.5,446,523.1,446,522.6,446z"/>
		<path class="st2" d="M155.1,578.3c-1,2.5-2.7,1.6-4.2,0.6c-7.5-4.7-15.2-9.3-20.8-17.3c0-0.1,0-1,0-2.1c-2.5-2.6-5.6-5-5.7-9.2
			c0.9,0.8,2.3,1.5,2.7,2.5c0.8,2.2,2.3,3.5,4.3,4.5c0.5,0.5,0.9,0.9,1.4,1.4c0.5,0.5,0.9,0.9,1.4,1.4c0.1,2.1,1.7,1.2,2.8,1.4
			c0,0.5,0,0.9,0,1.4c-0.4,0.2-0.8,0.3-1.2,0.5c0.4,0.3,0.8,0.6,1.2,0.9c0.5,0.5,0.9,0.9,1.4,1.4c0.5,0.5,0.9,0.9,1.4,1.4
			c0.2,0.4,0.3,0.8,0.5,1.2c0.3-0.4,0.6-0.8,0.9-1.2c0.5,0,0.9,0,1.4,0c0.5,0.5,0.9,0.9,1.4,1.4c0.9,0.9,1.9,1.9,2.8,2.8
			c0.2,0.4,0.3,0.8,0.5,1.2c0.3-0.4,0.6-0.8,0.9-1.2c1.4,1.4,2.8,2.8,4.2,4.2c-0.4,0.2-0.8,0.3-1.2,0.5c0.4,0.3,0.8,0.6,1.2,0.9
			C152.4,579,154,578.1,155.1,578.3z M149,574.1c-0.2,0-0.3,0-0.5,0c0,0.5,0,0.9,0,1.4c0.2,0,0.3,0,0.5,0
			C149,575,149,574.5,149,574.1z"/>
		<path class="st2" d="M532.4,451.2c0,4.8,0.2,9.6-0.1,14.4c-0.3,4.4-1,8.8-1.6,13.6c-1.4-4.3-1.1-5.2-0.5-8.5
			c0.6-3.3,0.6-6.8,0.8-10.2C531.2,457.4,530.6,454.2,532.4,451.2z"/>
		<path class="st2" d="M526.8,474.9c0.7,6.2-2.1,11.5-4.9,16.7c-0.4,0.7-1.4,1-2.1,1.5c0.3-1,0.6-2.1,1-3.1c2-4.7,4.8-9.2,4.9-14.6
			C525.7,475.2,526.4,475,526.8,474.9z"/>
		<path class="st2" d="M401,412c0,0.2,0,0.7,0,0.7c-5.5,1.2-9.8,5.3-15.4,6.3c1.1-0.9,2.1-1.8,3.1-2.8c1.9-1.9,5.1-1.7,6.6-4.2
			C397.3,412,399.2,412,401,412z"/>
		<path class="st2" d="M515.6,414.8c3.8,2.2,4.3,6.2,5.6,9.8c-0.9-0.5-1.9-0.9-2.8-1.4C517.5,420.4,516.6,417.6,515.6,414.8z"/>
		<path class="st2" d="M503.1,473.5c-1.1-0.2-2.7,0.7-2.8-1.4c0.5-0.6,1.3-1.1,1.3-1.7c0.2-2.2,0.1-4.5,0.1-6.7
			c0.8-0.4,1.6-0.8,2.3-1.1C503.6,466.3,503.3,469.9,503.1,473.5z"/>
		<path class="st2" d="M293,562.1c2.1-1.2,3.8-2.2,5.7-3.3C298.2,562.8,298,562.9,293,562.1z"/>
		<path class="st2" d="M507.2,516.8c-0.7,3.6-2,4.9-5.6,5.6C503.5,520.5,505.4,518.7,507.2,516.8z"/>
		<path class="st2" d="M122,545c-3-1.2-3.9-2.9-2.6-6.2C120.4,541.1,121.1,542.8,122,545z"/>
		<path class="st2" d="M473.7,523.8c-0.5,2.2-2,3-4.2,2.8c0-0.5,0-0.9,0-1.4c0.5-0.5,0.9-0.9,1.4-1.4
			C471.8,523.8,472.8,523.8,473.7,523.8z"/>
		<path class="st2" d="M142.5,567.1c0-1.6,1.2-1.6,2.2-1.2c0.7,0.3,1.3,1.2,2.3,2.2c-1.2,0.2-2.1,0.3-3.1,0.4
			C143.5,568,143,567.6,142.5,567.1z"/>
		<path class="st2" d="M356.3,448.3c-0.2,1.1,0.7,2.7-1.4,2.8c-0.5-0.5-0.9-0.9-1.4-1.4c0-0.9,0-1.9,0-2.8c0.5,0,0.9,0,1.4,0
			C355.4,447.4,355.9,447.9,356.3,448.3z"/>
		<path class="st2" d="M352.1,455.3c0,0.8,0,1.6,0,2.8c-1.2-0.6-2-1-2.8-1.4c0-0.9,0-1.9,0-2.8c0.5,0,0.9,0,1.4,0
			C351.2,454.4,351.7,454.8,352.1,455.3z"/>
		<path class="st2" d="M258.5,641.2c0.5-2.2,2-3,4.2-2.8c-0.5,0.9-0.9,1.9-1.4,2.8C260.4,641.2,259.4,641.2,258.5,641.2z"/>
		<path class="st2" d="M501.7,522.4c0,0.8,0,1.6,0,2.8c-1.2,0-2,0-2.8,0C499.8,524.2,500.7,523.3,501.7,522.4z"/>
		<path class="st2" d="M236.2,565.7c0.5,0.4,1,0.6,1.4,1.1c0.2,0.3-0.1,0.8-0.3,1.7c-0.8,0-1.6,0-2.5,0c0-0.5,0-0.9,0-1.4
			C235.2,566.6,235.7,566.2,236.2,565.7z"/>
		<path class="st2" d="M240.3,557.3c0.5-1.4-1.3-3.5,1.4-4.2C241.2,554.5,243,556.7,240.3,557.3z"/>
		<path class="st2" d="M240,548.6c0.2,1.2,0.3,1.8,0.5,2.7c-0.8,0.2-1.6,0.3-4,0.8C238.2,550.4,238.9,549.7,240,548.6z"/>
		<path class="st2" d="M437.4,541.6c-0.8,0.1-1.6,0.3-2.4,0.3c-0.6,0-1.2-0.2-1.8-1c1.4-0.2,2.7-0.4,4.1-0.5
			C437.4,540.8,437.4,541.2,437.4,541.6z"/>
		<path class="st2" d="M437.4,539.1c-1.3,0-2.6,0-4,0c0-0.3-0.1-0.7-0.1-1c1.4-0.1,2.7-0.3,4.1-0.4
			C437.4,538.2,437.4,538.7,437.4,539.1z"/>
		<path class="st2" d="M497.2,470.9c0,1.2,0,2.5,0,3.7c-0.2,0-0.5,0-0.7,0.1c-0.2-1.3-0.3-2.5-0.5-3.8
			C496.4,471,496.8,470.9,497.2,470.9z"/>
		<path class="st2" d="M495.8,479.3c0,1.2,0,2.5,0,3.7c-0.2,0-0.5,0-0.7,0.1c-0.2-1.2-0.3-2.5-0.5-3.7
			C495,479.4,495.4,479.3,495.8,479.3z"/>
		<path class="st2" d="M230.6,571.3c-0.1,2.1-1.7,1.2-2.8,1.4C227.9,570.6,229.5,571.5,230.6,571.3z"/>
		<path class="st2" d="M152.3,575.5c1.1,0.2,2.7-0.7,2.8,1.4c-0.9,0-1.9,0-2.8,0C152.3,576.4,152.3,575.9,152.3,575.5z"/>
		<path class="st2" d="M155.1,576.9c0.9,0,1.7,0,2.6,0c0,0.3,0.1,0.6,0.1,0.9c-0.9,0.2-1.8,0.3-2.7,0.5
			C155.1,577.8,155.1,577.3,155.1,576.9z"/>
		<path class="st2" d="M519.8,493c0,0.9,0,1.9,0,2.8c-0.5,0-0.9,0-1.4,0c0-0.9,0-1.9,0-2.8C518.9,493,519.4,493,519.8,493z"/>
		<path class="st2" d="M123,547.5c-2.1-0.1-1.2-1.7-1.4-2.8C123.7,544.9,122.8,546.5,123,547.5z"/>
		<path class="st2" d="M462.6,545.8c-0.9,0.1-1.8,0.2-2.7,0.2c0-0.3-0.1-0.6-0.1-0.9c0.9-0.2,1.8-0.4,2.7-0.5
			C462.5,545,462.5,545.4,462.6,545.8z"/>
		<path class="st2" d="M514.2,412c2.1,0.1,1.2,1.7,1.4,2.8c-0.5,0-0.9,0-1.4,0C514.2,413.9,514.2,412.9,514.2,412z"/>
		<path class="st2" d="M443,547.5c0.1-2.1,1.7-1.2,2.8-1.4C445.6,548.2,444,547.3,443,547.5z"/>
		<path class="st2" d="M124.4,550.3c-2.1-0.1-1.2-1.7-1.4-2.8C125.1,547.7,124.1,549.3,124.4,550.3z"/>
		<path class="st2" d="M443,548.6c-0.9,0.1-1.8,0.2-2.7,0.2c0-0.3-0.1-0.6-0.1-0.9c0.9-0.2,1.8-0.4,2.7-0.5
			C443,547.8,443,548.2,443,548.6z"/>
		<path class="st2" d="M519.8,495.8c0.5,0.6,0.9,1.2,1.4,1.7c-0.5,0.4-0.9,0.7-1.4,1.1C519.8,497.7,519.8,496.8,519.8,495.8z"/>
		<path class="st2" d="M354.9,451.1c-0.2,1.1,0.7,2.7-1.4,2.8c0-0.9,0-1.9,0-2.8C354,451.1,354.5,451.1,354.9,451.1z"/>
		<path class="st2" d="M361.9,439.9c-0.2,1.1,0.7,2.7-1.4,2.8c0-0.9,0-1.9,0-2.8C361,439.9,361.4,439.9,361.9,439.9z"/>
		<path class="st2" d="M499.1,481.3c-0.5,1.7-0.7,2.5-1,3.4c-0.2-0.7-0.5-1.3-0.6-2C497.5,482.5,498,482.2,499.1,481.3z"/>
		<path class="st2" d="M529.4,480.7c0,0.8,0,1.5,0,2.3c-0.2,0-0.4,0.1-0.7,0.1c-0.2-0.8-0.4-1.5-0.5-2.3
			C528.6,480.8,529,480.7,529.4,480.7z"/>
		<path class="st2" d="M521.2,424.6c2.1,0.1,1.2,1.7,1.4,2.8C520.5,427.2,521.4,425.6,521.2,424.6z"/>
		<path class="st2" d="M522.6,427.4c2.1,0.1,1.2,1.7,1.4,2.8C521.9,430,522.8,428.4,522.6,427.4z"/>
		<path class="st2" d="M524,430.2c2.1,0.1,1.2,1.7,1.4,2.8C523.3,432.8,524.2,431.2,524,430.2z"/>
		<path class="st2" d="M462.5,529.4c0.9,0,1.7,0,2.6,0c0,0.3,0.1,0.6,0.1,0.9c-0.9,0.2-1.8,0.3-2.7,0.5
			C462.5,530.3,462.5,529.8,462.5,529.4z"/>
		<path class="st2" d="M455.5,535c0-0.5,0-0.9,0-1.4c0.9,0,1.9,0,2.8,0C458.2,535.7,456.6,534.7,455.5,535z"/>
		<path class="st2" d="M514.2,508.4c-0.1,2.1-1.7,1.2-2.8,1.4c0-0.5,0-0.9,0-1.4C512.4,508.4,513.3,508.4,514.2,508.4z"/>
		<path class="st2" d="M429,542.3c0.9,0,1.9,0,2.8,0c0,0.2,0,0.5,0,0.7c-0.9,0-1.9,0-2.8,0C429,542.8,429,542.5,429,542.3z"/>
		<path class="st2" d="M469.5,526.6c-0.6,0.5-1.2,0.9-1.7,1.4c-0.4-0.5-0.7-0.9-1.1-1.4C467.6,526.6,468.6,526.6,469.5,526.6z"/>
		<path class="st2" d="M518.4,500c-0.2,1.1,0.7,2.7-1.4,2.8c0-0.9,0-1.9,0-2.8C517.5,500,518,500,518.4,500z"/>
		<path class="st2" d="M363.3,438.5c-0.5,0.5-0.9,0.9-1.4,1.4c0-0.5,0-0.9,0-1.4C362.4,438.5,362.8,438.5,363.3,438.5z"/>
		<path class="st2" d="M360.5,442.7c-0.5,0.5-0.9,0.9-1.4,1.4c0-0.5,0-0.9,0-1.4C359.6,442.7,360.1,442.7,360.5,442.7z"/>
		<path class="st2" d="M359.1,444.1c-0.3,0.4-0.6,0.8-0.9,1.2c-0.2-0.4-0.3-0.8-0.5-1.2C358.2,444.1,358.7,444.1,359.1,444.1z"/>
		<path class="st2" d="M512.8,410.6c0.5,0.5,0.9,0.9,1.4,1.4C513.8,411.5,513.3,411.1,512.8,410.6z"/>
		<path class="st2" d="M511.4,410.6c0.3-0.4,0.6-0.8,0.9-1.2c0.2,0.4,0.3,0.8,0.5,1.2C512.4,410.6,511.9,410.6,511.4,410.6z"/>
		<path class="st2" d="M448.7,537.6c0.4,0.3,0.8,0.6,1.1,1c-0.1,0.1-0.3,0.3-0.4,0.4c-0.3-0.4-0.6-0.8-1-1.1
			C448.5,537.8,448.6,537.7,448.7,537.6z"/>
		<path class="st2" d="M480.7,537.8c0.5-0.5,0.9-0.9,1.4-1.4C481.6,536.8,481.2,537.3,480.7,537.8z"/>
		<path class="st2" d="M482.1,536.4c0-0.5,0-0.9,0-1.4c0.4,0.3,0.8,0.6,1.2,0.9C482.9,536,482.5,536.2,482.1,536.4z"/>
		<path class="st2" d="M455.7,535.1c-0.3,0.4-0.6,0.8-1,1.1c-0.1-0.1-0.3-0.3-0.4-0.4c0.4-0.3,0.8-0.6,1.1-1
			C455.5,534.9,455.6,535,455.7,535.1z"/>
		<path class="st2" d="M487.8,533.4c0.4,0.3,0.8,0.6,1.1,1c-0.1,0.1-0.3,0.3-0.4,0.4c-0.3-0.4-0.6-0.8-1-1.1
			C487.6,533.6,487.7,533.5,487.8,533.4z"/>
		<path class="st2" d="M486.4,533.7c-0.3,0.4-0.6,0.8-1,1.1c-0.1-0.1-0.3-0.3-0.4-0.4c0.4-0.3,0.8-0.6,1.1-1
			C486.2,533.5,486.3,533.6,486.4,533.7z"/>
		<path class="st2" d="M482.1,533.6c0,0.5,0,0.9,0,1.4c-0.5-0.5-0.9-0.9-1.4-1.4C481.2,533.6,481.6,533.6,482.1,533.6z"/>
		<path class="st2" d="M492,532.3c-0.3,0.4-0.6,0.8-1,1.1c-0.1-0.1-0.3-0.3-0.4-0.4c0.4-0.3,0.8-0.6,1.1-1
			C491.8,532.1,491.9,532.2,492,532.3z"/>
		<path class="st2" d="M482.1,532.2c0.4,0.3,0.8,0.6,1.2,0.9c-0.4,0.2-0.8,0.3-1.2,0.5C482.1,533.1,482.1,532.6,482.1,532.2z"/>
		<path class="st2" d="M493.3,530.8c-0.5,0.5-0.9,0.9-1.4,1.4C492.3,531.7,492.8,531.2,493.3,530.8z"/>
		<path class="st2" d="M517,502.8c-0.5,0.5-0.9,0.9-1.4,1.4c0-0.5,0-0.9,0-1.4C516.1,502.8,516.6,502.8,517,502.8z"/>
		<path class="st2" d="M493.3,530.8c0-0.5,0-0.9,0-1.4c0.5,0,0.9,0,1.4,0C494.2,529.8,493.7,530.3,493.3,530.8z"/>
		<path class="st2" d="M473.9,529.5c-0.3,0.4-0.6,0.8-1,1.1c-0.1-0.1-0.3-0.3-0.4-0.4c0.4-0.3,0.8-0.6,1.1-1
			C473.7,529.3,473.8,529.4,473.9,529.5z"/>
		<path class="st2" d="M236,554.4c0.3-0.4,0.6-0.8,1-1.1c0.1,0.1,0.3,0.3,0.4,0.4c-0.4,0.3-0.8,0.6-1.1,1
			C236.2,554.6,236.1,554.5,236,554.4z"/>
		<path class="st2" d="M243.1,551.7c-0.5,0.5-0.9,0.9-1.4,1.4C242.2,552.7,242.7,552.2,243.1,551.7z"/>
		<path class="st2" d="M130,553.1c-0.4-0.3-0.8-0.6-1.2-0.9c0.4-0.2,0.8-0.3,1.2-0.5C130,552.2,130,552.7,130,553.1z"/>
		<path class="st2" d="M243,551.6c0.3-0.4,0.6-0.8,1-1.1c0.1,0.1,0.3,0.3,0.4,0.4c-0.4,0.3-0.8,0.6-1.1,1
			C243.2,551.8,243.1,551.7,243,551.6z"/>
		<path class="st2" d="M448.6,548.5c-0.5,0-0.9,0-1.4,0c0-0.2,0-0.3,0-0.5c0.5,0,0.9,0,1.4,0C448.6,548.2,448.6,548.3,448.6,548.5z"
			/>
		<path class="st2" d="M451.3,546.1c-0.3,0.4-0.6,0.8-0.9,1.2c-0.2-0.4-0.3-0.8-0.5-1.2C450.4,546.1,450.9,546.1,451.3,546.1z"/>
		<path class="st2" d="M519.8,498.6c-0.5,0.5-0.9,0.9-1.4,1.4c0-0.5,0-0.9,0-1.4C518.9,498.6,519.4,498.6,519.8,498.6z"/>
		<path class="st2" d="M476.6,540.7c-0.3,0.4-0.6,0.8-1,1.1c-0.1-0.1-0.3-0.3-0.4-0.4c0.4-0.3,0.8-0.6,1.1-1
			C476.5,540.5,476.6,540.6,476.6,540.7z"/>
		<path class="st2" d="M476.4,540.4c0.3-0.4,0.6-0.8,1-1.1c0.1,0.1,0.3,0.3,0.4,0.4c-0.4,0.3-0.8,0.6-1.1,1
			C476.5,540.6,476.4,540.5,476.4,540.4z"/>
		<path class="st2" d="M480.8,537.9c-0.3,0.4-0.6,0.8-1,1.1c-0.1-0.1-0.3-0.3-0.4-0.4c0.4-0.3,0.8-0.6,1.1-1
			C480.7,537.7,480.7,537.8,480.8,537.9z"/>
		<path class="st2" d="M508.6,515.4c-0.5,0.5-0.9,0.9-1.4,1.4c0-0.5,0-0.9,0-1.4C507.7,515.4,508.2,515.4,508.6,515.4z"/>
		<path class="st2" d="M511.4,509.8c0,0.5,0,0.9,0,1.4c-0.5,0-0.9,0-1.4,0c0-0.5,0-0.9,0-1.4C510.5,509.8,511,509.8,511.4,509.8z"/>
		<path class="st2" d="M510,514c-0.5,0.5-0.9,0.9-1.4,1.4c0-0.5,0-0.9,0-1.4C509.1,514,509.6,514,510,514z"/>
		<path class="st2" d="M511.4,512.6c-0.5,0.5-0.9,0.9-1.4,1.4c0-0.5,0-0.9,0-1.4C510.5,512.6,511,512.6,511.4,512.6z"/>
		<path class="st2" d="M511.4,511.2c0.4,0.3,0.8,0.6,1.2,0.9c-0.4,0.2-0.8,0.3-1.2,0.5C511.4,512.1,511.4,511.7,511.4,511.2z"/>
		<path class="st2" d="M496.1,528c-0.5,0.5-0.9,0.9-1.4,1.4c0-0.5,0-0.9,0-1.4C495.1,528,495.6,528,496.1,528z"/>
		<path class="st2" d="M493.3,529.4c-0.5-0.5-0.9-0.9-1.4-1.4c0.5,0,0.9,0,1.4,0C493.3,528.4,493.3,528.9,493.3,529.4z"/>
		<path class="st2" d="M475.1,528c-0.5,0.5-0.9,0.9-1.4,1.4C474.2,528.9,474.6,528.4,475.1,528z"/>
		<path class="st2" d="M112.7,528c0,0.5,0,0.9,0,1.4c-0.2,0-0.3,0-0.5,0c0-0.5,0-0.9,0-1.4C112.4,528,112.6,528,112.7,528z"/>
		<path class="st2" d="M497.5,526.6c-0.5,0.5-0.9,0.9-1.4,1.4c0-0.5,0-0.9,0-1.4C496.5,526.6,497,526.6,497.5,526.6z"/>
		<path class="st2" d="M475.1,528c0.5-0.5,0.9-0.9,1.4-1.4C476,527,475.6,527.5,475.1,528z"/>
		<path class="st2" d="M498.9,525.2c-0.5,0.5-0.9,0.9-1.4,1.4c0-0.5,0-0.9,0-1.4C497.9,525.2,498.4,525.2,498.9,525.2z"/>
		<path class="st2" d="M476.4,526.4c0.3-0.4,0.6-0.8,1-1.1c0.1,0.1,0.3,0.3,0.4,0.4c-0.4,0.3-0.8,0.6-1.1,1
			C476.5,526.6,476.4,526.5,476.4,526.4z"/>
		<path class="st2" d="M515.6,504.2c0,0.5,0,0.9,0,1.4c-0.5-0.5-0.9-0.9-1.4-1.4C514.7,504.2,515.2,504.2,515.6,504.2z"/>
		<path class="st2" d="M515.6,505.6c0.4,0.3,0.8,0.6,1.2,0.9c-0.4,0.2-0.8,0.3-1.2,0.5C515.6,506.5,515.6,506.1,515.6,505.6z"/>
		<path class="st2" d="M515.6,507c-0.5,0.5-0.9,0.9-1.4,1.4C514.7,507.9,515.2,507.5,515.6,507z"/>
		<path class="st2" d="M353.5,453.9c-0.5,0.5-0.9,0.9-1.4,1.4c0-0.5,0-0.9,0-1.4C352.6,453.9,353.1,453.9,353.5,453.9z"/>
		<path class="st2" d="M499.8,477.7c0,0.5,0,0.9,0,1.4c-0.2,0-0.3,0-0.5,0c0-0.5,0-0.9,0-1.4C499.5,477.7,499.6,477.7,499.8,477.7z"
			/>
		<path class="st2" d="M254.3,644c0.3-0.4,0.6-0.8,0.9-1.2c0.2,0.4,0.3,0.8,0.5,1.2C255.2,644,254.8,644,254.3,644z"/>
		<path class="st2" d="M258.5,642.6c-0.4-0.3-0.8-0.6-1.2-0.9c0.4-0.2,0.8-0.3,1.2-0.5C258.5,641.6,258.5,642.1,258.5,642.6z"/>
		<path class="st2" d="M356.3,446.9c0.4,0.3,0.8,0.6,1.2,0.9c-0.4,0.2-0.8,0.3-1.2,0.5C356.3,447.9,356.3,447.4,356.3,446.9z"/>
		<path class="st2" d="M233.4,567.1c0.5-0.5,0.9-0.9,1.4-1.4c0,0.5,0,0.9,0,1.4C234.3,567.1,233.8,567.1,233.4,567.1z"/>
		<path class="st2" d="M139.7,565.7c0.5,0.5,0.9,0.9,1.4,1.4c-0.5,0-0.9,0-1.4,0C139.7,566.6,139.7,566.2,139.7,565.7z"/>
		<path class="st2" d="M234.8,565.7c0.3-0.4,0.6-0.8,0.9-1.2c0.2,0.4,0.3,0.8,0.5,1.2C235.7,565.7,235.2,565.7,234.8,565.7z"/>
		<path class="st2" d="M138.3,564.3c0.5,0.5,0.9,0.9,1.4,1.4c-0.5,0-0.9,0-1.4,0C138.3,565.2,138.3,564.8,138.3,564.3z"/>
		<path class="st2" d="M138.3,562.9c0,0.5,0,0.9,0,1.4c-0.5,0-0.9,0-1.4,0c0-0.5,0-0.9,0-1.4C137.4,562.9,137.9,562.9,138.3,562.9z"
			/>
		<path class="st2" d="M237.5,560.1c0.5-0.5,0.9-0.9,1.4-1.4C238.5,559.2,238,559.6,237.5,560.1z"/>
		<path class="st2" d="M240.3,557.3c-0.5,0.5-0.9,0.9-1.4,1.4C239.4,558.2,239.9,557.8,240.3,557.3z"/>
		<path class="st2" d="M131.3,557.3c0.5-0.5,0.9-0.9,1.4-1.4c0,0.5,0,0.9,0,1.4C132.3,557.3,131.8,557.3,131.3,557.3z"/>
		<path class="st2" d="M234.8,555.9c0.5-0.5,0.9-0.9,1.4-1.4C235.7,555,235.2,555.5,234.8,555.9z"/>
		<path class="st2" d="M493.3,485.1c0.5,0,0.9,0,1.4,0c0,0.2,0,0.3,0,0.5c-0.5,0-0.9,0-1.4,0C493.3,485.4,493.3,485.3,493.3,485.1z"
			/>
		<path class="st2" d="M527.7,484.7c0,0.5,0,0.9,0,1.4c-0.2,0-0.3,0-0.5,0c0-0.5,0-0.9,0-1.4C527.4,484.7,527.6,484.7,527.7,484.7z"
			/>
		<path class="st2" d="M526.3,487.4c0,0.5,0,0.9,0,1.4c-0.2,0-0.3,0-0.5,0c0-0.5,0-0.9,0-1.4C526,487.4,526.2,487.4,526.3,487.4z"/>
		<path class="st2" d="M226.4,575.5c-0.5,0.5-0.9,0.9-1.4,1.4c0-0.5,0-0.9,0-1.4C225.4,575.5,225.9,575.5,226.4,575.5z"/>
		<path class="st2" d="M146.7,571.3c0.3-0.4,0.6-0.8,0.9-1.2c0.2,0.4,0.3,0.8,0.5,1.2C147.7,571.3,147.2,571.3,146.7,571.3z"/>
		<path class="st2" d="M234.8,568.5c-0.5,0.5-0.9,0.9-1.4,1.4c0-0.5,0-0.9,0-1.4C233.8,568.5,234.3,568.5,234.8,568.5z"/>
		<path class="st2" d="M162.1,532.2c-1.6-1.3-3.2-2.5-5-3.9c-0.2,0.2-0.7,0.6-1.5,1.2c-2.6-3.3-2.5-7.3-2.6-11.2
			c1.2,2.3,2.4,4.6,3.7,7.1c0.8-0.7,1.3-1,1.6-1.3c3.7,0.1,1,4.5,3.7,5.3C162.1,530.3,162.1,531.2,162.1,532.2z"/>
		<path class="st2" d="M162.6,502.8c-0.7,0-1,0.1-1.1,0c-0.7-0.6-1.3-1.3-1.9-1.9c0-5.3,0-10.6,0-15.9c0.2,0,0.5-0.1,0.7-0.1
			c0.2,1.1,0.4,2.1,0.5,3.2c0.1,1.2,0,2.3,0,3.5c0,1.4,0,2.8,0,4.2c0,1.2-0.2,2.4,0.1,3.5C161.1,500.4,161.9,501.5,162.6,502.8z"/>
		<path class="st2" d="M147.9,518c-0.7,4.2,3.8,6.8,2.7,12.2c-2.1-4.4-3.8-7.8-5.6-11.6C146.1,518.3,146.8,518.2,147.9,518z"/>
		<path class="st2" d="M180.5,443.5c-0.6,0.8-1.5,2-2.2,3.3c-0.7,1.3-1,2.8-1.8,5.2c-0.3-2.3-0.5-3.8-0.7-5.4
			C177.5,445.5,179.2,444.4,180.5,443.5z"/>
		<path class="st2" d="M156.6,534.1c0.8-0.8,1.3-1.3,1.8-1.8c2.8,1.5,2.4,3.9,2,6.9C159.1,537.3,157.9,535.7,156.6,534.1z"/>
		<path class="st2" d="M247.3,522.4c1.8-2.5,3.2-5.6,7-5.6C252.5,519.3,251.1,522.4,247.3,522.4z"/>
		<path class="st2" d="M159.8,511.5c-3-1.2-3.9-2.9-2.6-6.2C158.1,507.5,158.8,509.3,159.8,511.5z"/>
		<path class="st2" d="M155,513.4c-0.7,0.7-1.3,1.3-2.5,2.5c0-1.8-0.4-3.2,0.1-4.1c1-1.8,1,0.4,1.6,0.7
			C154.5,512.6,154.8,513,155,513.4z"/>
		<path class="st2" d="M293.4,516.8c-0.7,2.7-2.8,0.9-4.2,1.4C289.9,515.5,292.1,517.3,293.4,516.8z"/>
		<path class="st2" d="M297.6,515.4c-0.7,2.7-2.8,0.9-4.2,1.4C294.1,514.1,296.3,515.9,297.6,515.4z"/>
		<path class="st2" d="M183.1,441.3c-0.5,0-0.9,0-1.4,0c0-0.9,0-1.7,0-2.6c0.3,0,0.6-0.1,0.9-0.1
			C182.7,439.6,182.9,440.4,183.1,441.3z"/>
		<path class="st2" d="M161.9,477.9c0,0.8,0,1.5,0,2.3c-0.2,0-0.5,0.1-0.7,0.1c-0.2-0.8-0.3-1.6-0.5-2.4
			C161.1,478,161.5,477.9,161.9,477.9z"/>
		<path class="st2" d="M169.4,467.9c-0.1-0.9-0.2-1.8-0.2-2.7c0.3,0,0.6-0.1,0.9-0.1c0.2,0.9,0.4,1.8,0.5,2.7
			C170.2,467.9,169.8,467.9,169.4,467.9z"/>
		<path class="st2" d="M254.3,516.8c0.2-1.1-0.7-2.7,1.4-2.8C255.5,515.1,256.4,516.7,254.3,516.8z"/>
		<path class="st2" d="M247.3,522.4c0,0.9,0,1.9,0,2.8c-0.5-0.6-0.9-1.2-1.4-1.7C246.4,523.1,246.9,522.7,247.3,522.4z"/>
		<path class="st2" d="M255.7,521c0.2-1.1-0.7-2.7,1.4-2.8C256.9,519.2,257.8,520.9,255.7,521z"/>
		<path class="st2" d="M163.2,532.1c0.1,0.9,0.2,1.8,0.2,2.7c-0.3,0-0.6,0.1-0.9,0.1c-0.2-0.9-0.4-1.8-0.5-2.7
			C162.4,532.2,162.8,532.1,163.2,532.1z"/>
		<path class="st2" d="M180.3,442.7c0.5-0.5,0.9-0.9,1.4-1.4C181.2,441.8,180.7,442.3,180.3,442.7z"/>
		<path class="st2" d="M187.1,437c0.3-0.4,0.6-0.8,1-1.1c0.1,0.1,0.3,0.3,0.4,0.4c-0.4,0.3-0.8,0.6-1.1,1
			C187.3,437.2,187.2,437.1,187.1,437z"/>
		<path class="st2" d="M185.8,438.5c0.5-0.5,0.9-0.9,1.4-1.4C186.8,437.6,186.3,438.1,185.8,438.5z"/>
		<path class="st2" d="M156.5,503.7c-0.5,0-0.9,0-1.4,0c0-0.2,0-0.3,0-0.5c0.5,0,0.9,0,1.4,0C156.5,503.4,156.5,503.6,156.5,503.7z"
			/>
		<path class="st2" d="M164.4,536.4c0,0.5,0,0.9,0,1.4c-0.2,0-0.3,0-0.5,0c0-0.5,0-0.9,0-1.4C164.1,536.4,164.3,536.4,164.4,536.4z"
			/>
		<path class="st2" d="M237.5,532.2c0.5-0.5,0.9-0.9,1.4-1.4C238.5,531.2,238,531.7,237.5,532.2z"/>
		<path class="st2" d="M238.9,530.8c0.5-0.5,0.9-0.9,1.4-1.4C239.9,529.8,239.4,530.3,238.9,530.8z"/>
		<path class="st2" d="M165.4,540.5c0-0.5,0-0.9,0-1.4c0.2,0,0.3,0,0.5,0c0,0.5,0,0.9,0,1.4C165.7,540.5,165.5,540.5,165.4,540.5z"
			/>
		<path class="st2" d="M265.5,518.2c0.5-0.5,0.9-0.9,1.4-1.4C266.4,517.3,266,517.7,265.5,518.2z"/>
		<path class="st2" d="M257.1,518.2c0.5-0.5,0.9-0.9,1.4-1.4C258,517.3,257.6,517.7,257.1,518.2z"/>
		<path class="st2" d="M160.7,512.6c-0.5-0.5-0.9-0.9-1.4-1.4C159.8,511.7,160.2,512.1,160.7,512.6z"/>
		<path class="st2" d="M266.7,516.7c0.3-0.4,0.6-0.8,1-1.1c0.1,0.1,0.3,0.3,0.4,0.4c-0.4,0.3-0.8,0.6-1.1,1
			C266.9,516.8,266.8,516.8,266.7,516.7z"/>
		<path class="st2" d="M258.4,516.7c0.3-0.4,0.6-0.8,1-1.1c0.1,0.1,0.3,0.3,0.4,0.4c-0.4,0.3-0.8,0.6-1.1,1
			C258.5,516.8,258.5,516.8,258.4,516.7z"/>
		<path class="st2" d="M257,512.5c0.3-0.4,0.6-0.8,1-1.1c0.1,0.1,0.3,0.3,0.4,0.4c-0.4,0.3-0.8,0.6-1.1,1
			C257.1,512.7,257.1,512.6,257,512.5z"/>
		<path class="st2" d="M260.4,514c0-0.5,0-0.9,0-1.4c0.2,0,0.3,0,0.5,0c0,0.5,0,0.9,0,1.4C260.7,514,260.5,514,260.4,514z"/>
		<path class="st2" d="M257.1,512.6c-0.5,0.5-0.9,0.9-1.4,1.4C256.2,513.5,256.6,513.1,257.1,512.6z"/>
		<path class="st2" d="M240.3,529.4c0.5-0.5,0.9-0.9,1.4-1.4C241.3,528.4,240.8,528.9,240.3,529.4z"/>
		<path class="st2" d="M241.6,527.8c0.3-0.4,0.6-0.8,1-1.1c0.1,0.1,0.3,0.3,0.4,0.4c-0.4,0.3-0.8,0.6-1.1,1
			C241.8,528,241.7,527.9,241.6,527.8z"/>
		<path class="st2" d="M265.5,518.2c-0.5,0.5-0.9,0.9-1.4,1.4C264.6,519.1,265,518.7,265.5,518.2z"/>
		<path class="st2" d="M135.5,508.4c0.5-3.7,0.9-7.5,1.4-11.2c0.4-0.8,2.8-8.1,2.8-8.9c0-1.9,0-3.7,0-5.8c0.6-0.6,1.2-1.4,3.1-3.5
			c-0.4,3-0.5,4.2-0.8,5.4c-0.2,0.8-0.9,1.6-0.9,2.4c0.2,6.5-1.5,12.6-4.2,18.4C136.5,506.3,137.9,508.2,135.5,508.4z"/>
		<path class="st2" d="M146.7,466.5c0.1,3.1-0.6,6-2.8,8.4C144,471.8,143.4,468.5,146.7,466.5z"/>
		<path class="st2" d="M135.1,501.4c-2.1-3.3-0.1-5.6,1.3-8.4C138.4,496.5,134.4,498.5,135.1,501.4z"/>
		<path class="st2" d="M143.8,475.1c0,1.1,0,2.3,0,3.9C142.5,476.7,142.5,476.7,143.8,475.1z"/>
		<path class="st2" d="M152.7,453.9c0-0.9,0-1.9,0-2.8c0.2,0,0.5,0,0.7,0c0,0.9,0,1.9,0,2.8C153.1,453.9,152.9,453.9,152.7,453.9z"
			/>
		<path class="st2" d="M148.4,463c-0.5,1.8-0.7,2.6-1,3.5c-0.2-0.7-0.5-1.3-0.6-2C146.7,464.3,147.3,464,148.4,463z"/>
		<path class="st2" d="M149.3,459.8c0,0.8,0,1.5,0,2.3c-0.2,0-0.5,0.1-0.7,0.1c-0.2-0.8-0.3-1.6-0.5-2.4
			C148.5,459.8,148.9,459.8,149.3,459.8z"/>
		<path class="st2" d="M136.9,514c0,0.5,0,0.9,0,1.4c-0.5,0-0.9,0-1.4,0C136,514.9,136.5,514.5,136.9,514z"/>
		<path class="st2" d="M151.8,455.3c0,0.5,0,0.9,0,1.4c-0.2,0-0.3,0-0.5,0c0-0.5,0-0.9,0-1.4C151.5,455.3,151.7,455.3,151.8,455.3z"
			/>
		<path class="st2" d="M501.7,463.7c-0.5,0-0.9,0-1.4,0c0-0.9,0-1.7,0-2.6c0.3,0,0.6-0.1,0.9-0.1
			C501.3,461.9,501.5,462.8,501.7,463.7z"/>
		<path class="st2" d="M524.2,473.8c0-2.1,0-3.9,0-5.7c0.5,0.2,1.1,0.3,1.1,0.4C525,470.2,526.4,472.3,524.2,473.8z"/>
		<path class="st2" d="M521.2,483.3c0.5-1.4-1.3-3.5,1.4-4.2C522.1,480.4,523.9,482.6,521.2,483.3z"/>
		<path class="st2" d="M515.8,488.3c-0.5,1.7-0.7,2.5-1,3.4c-0.2-0.7-0.5-1.3-0.6-2C514.2,489.5,514.8,489.2,515.8,488.3z"/>
		<path class="st2" d="M518.4,493c-0.5,0-0.9,0-1.4,0c0-0.9,0-1.7,0-2.6c0.3,0,0.6-0.1,0.9-0.1C518.1,491.3,518.3,492.2,518.4,493z"
			/>
		<path class="st2" d="M512.8,494.4c0-0.9,0-1.9,0-2.8c0.5,0,0.9,0,1.4,0c0,0.9,0,1.9,0,2.8C513.8,494.4,513.3,494.4,512.8,494.4z"
			/>
		<path class="st2" d="M515.6,494.4c0,0.9,0,1.9,0,2.8c-0.5,0-0.9,0-1.4,0c0-0.9,0-1.9,0-2.8C514.7,494.4,515.2,494.4,515.6,494.4z"
			/>
		<path class="st2" d="M515.4,488.1c0.5-1.8,0.7-2.6,1-3.5c0.2,0.7,0.5,1.3,0.6,2C517,486.8,516.5,487.1,515.4,488.1z"/>
		<path class="st2" d="M519.6,486.6c0.5-1.7,0.7-2.5,1-3.4c0.2,0.7,0.5,1.3,0.6,2C521.2,485.4,520.7,485.7,519.6,486.6z"/>
		<path class="st2" d="M518.6,481.3c-0.5,1.7-0.7,2.5-1,3.4c-0.2-0.7-0.5-1.3-0.6-2C517,482.5,517.6,482.2,518.6,481.3z"/>
		<path class="st2" d="M510,434.3c0.5-0.5,0.9-0.9,1.4-1.4C511,433.4,510.5,433.9,510,434.3z"/>
		<path class="st2" d="M518.4,487.9c0.5,0,0.9,0,1.4,0c0,0.2,0,0.3,0,0.5c-0.5,0-0.9,0-1.4,0C518.4,488.2,518.4,488.1,518.4,487.9z"
			/>
		<path class="st2" d="M517,493c-0.5,0.5-0.9,0.9-1.4,1.4C516.1,494,516.6,493.5,517,493z"/>
		<path class="st2" d="M510,502.8c0.5-1.4,0.9-2.8,1.4-4.2c0.5-0.5,0.9-0.9,1.4-1.4c0.5,0,0.9,0,1.4,0c0,0.9,0,1.9,0,2.8
			c-0.5,0.5-0.9,0.9-1.4,1.4C511.9,501.9,511,502.4,510,502.8z"/>
		<path class="st2" d="M507.2,507c-0.2-2.2,0.6-3.6,2.8-4.2c0,0.9,0,1.9,0,2.8C509.1,506.1,508.2,506.5,507.2,507z"/>
		<path class="st2" d="M503.1,512.6c0.2,2.2-0.6,3.6-2.8,4.2C500,514.6,500.8,513.1,503.1,512.6z"/>
		<path class="st2" d="M505.8,511.2c-0.5,0-0.9,0-1.4,0c-0.2-2.2,0.6-3.6,2.8-4.2c0,0.9,0,1.9,0,2.8
			C506.8,510.3,506.3,510.7,505.8,511.2z"/>
		<path class="st2" d="M510,497.2c0.5,0,0.9,0,1.4,0c0,0.5,0,0.9,0,1.4C511,498.2,510.5,497.7,510,497.2z"/>
		<path class="st2" d="M504.4,511.2c-0.5,0.5-0.9,0.9-1.4,1.4C503.5,512.1,504,511.7,504.4,511.2z"/>
		<path class="st2" d="M498.9,518.2c-0.5,0.5-0.9,0.9-1.4,1.4C497.9,519.1,498.4,518.7,498.9,518.2z"/>
		<path class="st2" d="M500.3,516.8c-0.5,0.5-0.9,0.9-1.4,1.4C499.3,517.7,499.8,517.3,500.3,516.8z"/>
		<path class="st2" d="M507.2,514c0,0.5,0,0.9,0,1.4c-0.4-0.3-0.8-0.6-1.2-0.9C506.5,514.3,506.9,514.1,507.2,514z"/>
		<path class="st2" d="M508.6,512.6c0,0.5,0,0.9,0,1.4c-0.5,0-0.9,0-1.4,0c0-0.5,0-0.9,0-1.4C507.7,512.6,508.2,512.6,508.6,512.6z"
			/>
		<path class="st2" d="M507.2,512.6c-0.5-0.5-0.9-0.9-1.4-1.4c0.5,0,0.9,0,1.4,0C507.2,511.7,507.2,512.1,507.2,512.6z"/>
		<path class="st2" d="M162.1,555.9c-0.5,0-0.9,0-1.4,0c0-0.5,0-0.9,0-1.4C161.2,555,161.6,555.5,162.1,555.9z"/>
		<path class="st2" d="M496.1,410.6c-0.5,0-0.9,0-1.4,0c0-0.9,0-1.9,0-2.8c0.5,0,0.9,0,1.4,0C496.1,408.7,496.1,409.7,496.1,410.6z"
			/>
		<path class="st2" d="M490.5,403.6c0.5,0.5,0.9,0.9,1.4,1.4C491.4,404.5,490.9,404.1,490.5,403.6z"/>
		<path class="st2" d="M489.1,402.2c0.5,0.5,0.9,0.9,1.4,1.4C490,403.1,489.5,402.7,489.1,402.2z"/>
		<path class="st2" d="M487.7,400.8c0.5,0,0.9,0,1.4,0c0,0.5,0,0.9,0,1.4C488.6,401.7,488.1,401.3,487.7,400.8z"/>
		<path class="st2" d="M487.7,399.4c0,0.5,0,0.9,0,1.4c-0.5-0.5-0.9-0.9-1.4-1.4C486.7,399.4,487.2,399.4,487.7,399.4z"/>
		<path class="st2" d="M493.3,406.4c0.5,0,0.9,0,1.4,0c0,0.5,0,0.9,0,1.4C494.2,407.3,493.7,406.9,493.3,406.4z"/>
		<path class="st2" d="M493.3,405c0,0.5,0,0.9,0,1.4c-0.5-0.5-0.9-0.9-1.4-1.4C492.3,405,492.8,405,493.3,405z"/>
		<path class="st2" d="M507.1,428.6c0.3-0.4,0.6-0.8,1-1.1c0.1,0.1,0.3,0.3,0.4,0.4c-0.4,0.3-0.8,0.6-1.1,1
			C507.3,428.8,507.2,428.7,507.1,428.6z"/>
		<path class="st2" d="M505.8,426c0-0.5,0-0.9,0-1.4c0.5,0,0.9,0,1.4,0C506.8,425,506.3,425.5,505.8,426z"/>
		<path class="st2" d="M498.9,413.4c-0.5,0-0.9,0-1.4,0c0-0.5,0-0.9,0-1.4c0.5,0,0.9,0,1.4,0C498.9,412.5,498.9,412.9,498.9,413.4z"
			/>
		<path class="st2" d="M496.1,412c0-0.5,0-0.9,0-1.4c0.5,0.5,0.9,0.9,1.4,1.4C497,412,496.5,412,496.1,412z"/>
		<path class="st2" d="M503.1,419c0.5,0,0.9,0,1.4,0c0,0.9,0,1.9,0,2.8c-0.5,0-0.9,0-1.4,0C503.1,420.8,503.1,419.9,503.1,419z"/>
		<path class="st2" d="M503.1,417.6c0,0.5,0,0.9,0,1.4c-0.5,0-0.9,0-1.4,0c0-0.5,0-0.9,0-1.4C502.1,417.6,502.6,417.6,503.1,417.6z"
			/>
		<path class="st2" d="M511.4,497.2c0-0.9,0-1.9,0-2.8c0.5,0,0.9,0,1.4,0c0,0.9,0,1.9,0,2.8C512.4,497.2,511.9,497.2,511.4,497.2z"
			/>
		<path class="st2" d="M501.7,417.6c-0.5,0-0.9,0-1.4,0c0-0.9,0-1.9,0-2.8c0.5,0,0.9,0,1.4,0C501.7,415.7,501.7,416.6,501.7,417.6z"
			/>
		<path class="st2" d="M500.3,413.4c0,0.5,0,0.9,0,1.4c-0.5,0-0.9,0-1.4,0c0-0.5,0-0.9,0-1.4C499.3,413.4,499.8,413.4,500.3,413.4z"
			/>
		<path class="st2" d="M352.1,451.1c0,0.9,0,1.9,0,2.8c-0.5,0-0.9,0-1.4,0c0-0.9,0-1.9,0-2.8C351.2,451.1,351.7,451.1,352.1,451.1z"
			/>
		<path class="st2" d="M353.5,451.1c-0.5,0-0.9,0-1.4,0c0-0.5,0-0.9,0-1.4c0.5,0,0.9,0,1.4,0C353.5,450.2,353.5,450.6,353.5,451.1z"
			/>
		<path class="st2" d="M494.7,528c-0.5,0-0.9,0-1.4,0c0-0.5,0-0.9,0-1.4c0.5,0,0.9,0,1.4,0C494.7,527,494.7,527.5,494.7,528z"/>
		<path class="st2" d="M132.7,558.7c0-0.5,0-0.9,0-1.4c0.5,0,0.9,0,1.4,0c0,0.5,0,0.9,0,1.4C133.7,558.7,133.2,558.7,132.7,558.7z"
			/>
		<path class="st2" d="M518.4,498.6c-0.5,0.5-0.9,0.9-1.4,1.4c-0.5,0-0.9,0-1.4,0c0-0.9,0-1.9,0-2.8c0.9-0.5,1.9-0.9,2.8-1.4
			C518.4,496.8,518.4,497.7,518.4,498.6z"/>
		<path class="st2" d="M515.6,502.8c-0.5,0.5-0.9,0.9-1.4,1.4c-0.5,0-0.9,0-1.4,0c0-0.9,0-1.9,0-2.8c0.5-0.5,0.9-0.9,1.4-1.4
			c0.5,0,0.9,0,1.4,0C515.6,501,515.6,501.9,515.6,502.8z"/>
		<path class="st2" d="M511.4,508.4c-0.5,0-0.9,0-1.4,0c0-0.9,0-1.9,0-2.8c0.5,0,0.9,0,1.4,0C511.4,506.5,511.4,507.5,511.4,508.4z"
			/>
		<path class="st2" d="M512.8,504.2c-0.5,0.5-0.9,0.9-1.4,1.4C511.9,505.1,512.4,504.7,512.8,504.2z"/>
		<path class="st2" d="M510,509.8c-0.5,0-0.9,0-1.4,0c0.5-0.5,0.9-0.9,1.4-1.4C510,508.9,510,509.3,510,509.8z"/>
		<path class="st2" d="M508.6,509.8c0,0.5,0,0.9,0,1.4c-0.5,0-0.9,0-1.4,0c0-0.5,0-0.9,0-1.4C507.7,509.8,508.2,509.8,508.6,509.8z"
			/>
		<path class="st2" d="M510,512.6c-0.5,0-0.9,0-1.4,0c0-0.5,0-0.9,0-1.4c0.5,0,0.9,0,1.4,0C510,511.7,510,512.1,510,512.6z"/>
	</g>
	<rect x="0" class="st3" width="640" height="778"/>
</g>
<g>
</g>
<g>
</g>
<g>
</g>
<g>
</g>
<g>
</g>
<g>
</g>
<g>
</g>
<g>
</g>
<g>
</g>
<g>
</g>
<g>
</g>
<g>
</g>
<g>
</g>
<g>
</g>
<g>
</g>
</svg>
