<?xml version="1.0" encoding="utf-8"?>
<!-- Generator: Adobe Illustrator 17.0.0, SVG Export Plug-In . SVG Version: 6.00 Build 0)  -->
<!DOCTYPE svg PUBLIC "-//W3C//DTD SVG 1.1//EN" "http://www.w3.org/Graphics/SVG/1.1/DTD/svg11.dtd">
<svg version="1.1" id="Layer_1" xmlns="http://www.w3.org/2000/svg" xmlns:xlink="http://www.w3.org/1999/xlink" x="0px" y="0px"
	 width="240px" height="96px" viewBox="0 0 240 96" style="enable-background:new 0 0 240 96;" xml:space="preserve">
<style type="text/css">
	.st0{fill:#FFF8B8;}
</style>
<g id="logo.svg">
	<path class="st0" d="M85.1,4.6l1.7,0.8c3,1.5,3,3.9,0,5.4L59.7,24.4L59,24.7c-3,1.5-5.4,5.4-5.3,8.7L54,72.5c0,3.3,2.5,4.8,5.4,3.3
		L86.8,62c3-1.5,5.4-5.4,5.4-8.7V14.2c0,0,0.7-5.4-5.2-8.7"/>
	<path class="st0" d="M8,5.5c-3,1.5-3,3.9,0,5.4l27.5,13.8l0.4,0.2c3,1.5,5.4,5.4,5.4,8.7l-0.1,39c0,3.3-2.4,4.8-5.4,3.3L8,62
		c-3-1.5-5.4-5.4-5.4-8.7V14.2c0,0-1.2-5,4.6-8.2"/>
	<path class="st0" d="M43,14.4l-0.1-0.1L32.2,9c-1.1-0.6-1.1-1.5,0-2.1l13.1-6.5c1.1-0.6,3-0.6,4.1,0l12.4,6.2L62.5,7
		c1.1,0.6,1.1,1.5,0,2.1l-10.4,5.2l-0.3,0.1C48.5,16.2,46.3,15.9,43,14.4"/>
	<path class="st0" d="M92.2,70.2l-1.9-1L83.8,66L60.4,77.8c-1.1,0.5-2.2,0.8-3.2,0.8c-1,0-1.9-0.3-2.8-0.8c-1.7-1-2.6-3-2.7-5.3
		l-0.1-22.4c-2.5-0.7-5.6-0.7-8.2-0.1l0,22.5c0,2.4-1,4.3-2.6,5.3c-0.8,0.5-1.8,0.8-2.8,0.8c-1,0-2.1-0.3-3.2-0.8L11,66l-8.5,4.3
		c-3.4,1.7-3.4,4.4,0,6.1l31.3,15.7l0.4,0.2c9.9,4.6,16.5,5.4,26.4-0.1l0.8-0.4l30.8-15.4C95.6,74.7,95.6,71.9,92.2,70.2"/>
	<rect x="108.2" y="21" class="st0" width="3.8" height="15.5"/>
	<path class="st0" d="M139.8,20.9h-11.9v12h11.9v-4.1l4.4,0.9V32c0,1.8-0.3,2.9-1,3.6c-0.7,0.6-1.9,0.9-3.7,0.9h-11.3
		c-1.8,0-3-0.3-3.7-0.9c-0.7-0.6-1-1.8-1-3.6V22c0-1.8,0.3-2.9,1-3.6c0.7-0.6,1.9-0.9,3.7-0.9h11.3c1.8,0,3,0.3,3.7,0.9
		c0.7,0.6,1,1.8,1,3.6v1.8l-4.4,0.7V20.9z"/>
	<polygon class="st0" points="155.5,36.5 155.5,21 159.3,21 159.3,33.6 171.5,33.6 171.5,36.5 	"/>
	<path class="st0" d="M207.4,23.8h-10.2v9.7h10.2v-3.3l3.8,0.8v1.8c0,1.4-0.3,2.4-0.9,2.9c-0.6,0.5-1.6,0.7-3.2,0.7h-9.7
		c-1.6,0-2.6-0.3-3.2-0.8c-0.6-0.5-0.8-1.5-0.8-2.9v-8.2c0-1.4,0.3-2.4,0.8-2.9c0.6-0.5,1.6-0.8,3.2-0.8h9.7c1.6,0,2.6,0.3,3.2,0.8
		c0.6,0.5,0.9,1.5,0.9,2.9v1.5l-3.8,0.5V23.8z"/>
	<polygon class="st0" points="220.5,36.5 220.5,21 224.3,21 224.3,27.2 233.3,21 238.8,21 228.1,28.1 240,36.5 234,36.5 224.3,29.5 
		224.3,36.5 	"/>
	<rect x="108.2" y="44.6" class="st0" width="2.2" height="9.5"/>
	<path class="st0" d="M115.1,54.1v-9.5h1.5l6.6,5.6c0.5,0.4,0.8,0.7,1.1,1c-0.1-0.9-0.1-1.4-0.1-1.6v-5h2v9.5h-1.5l-6.9-5.8
		c-0.3-0.2-0.6-0.5-0.8-0.8c0.1,0.6,0.1,1.1,0.1,1.5v5.1H115.1z"/>
	<polygon class="st0" points="135.3,46.3 135.3,54.1 133.1,54.1 133.1,46.3 128.8,46.3 128.8,44.6 139.7,44.6 139.7,46.3 	"/>
	<polygon class="st0" points="142.2,54.1 142.2,44.6 151.9,44.6 151.9,46.3 144.4,46.3 144.4,48.4 148.8,48.4 148.8,50 144.4,50 
		144.4,52.3 152,52.3 152,54.1 	"/>
	<path class="st0" d="M163,46.3H158v2.7h4.9c0.3,0,0.6,0,0.7-0.1c0.2-0.1,0.3-0.3,0.3-0.6V47c0-0.3-0.1-0.5-0.3-0.6
		C163.6,46.3,163.3,46.3,163,46.3 M155.9,54.1v-9.5h8.1c1.4,0,2.1,0.6,2.1,1.8v2.2c0,1.2-0.7,1.8-2.1,1.8h-1.2l4.4,3.6h-3.2
		l-3.8-3.6H158v3.6H155.9z"/>
	<path class="st0" d="M172.9,50.3h4.1l-2-3.9L172.9,50.3z M168.7,54.1l5.4-9.5h2.1l5.4,9.5h-2.5L178,52h-6l-1.1,2.1H168.7z"/>
	<path class="st0" d="M192.4,46.3h-5.9v6h5.9v-2l2.2,0.5v1.1c0,0.9-0.2,1.5-0.5,1.8c-0.3,0.3-0.9,0.5-1.8,0.5h-5.6
		c-0.9,0-1.5-0.2-1.8-0.5c-0.3-0.3-0.5-0.9-0.5-1.8v-5c0-0.9,0.2-1.5,0.5-1.8c0.3-0.3,0.9-0.5,1.8-0.5h5.6c0.9,0,1.5,0.2,1.8,0.5
		c0.3,0.3,0.5,0.9,0.5,1.8v0.9l-2.2,0.4V46.3z"/>
	<polygon class="st0" points="203.3,46.3 203.3,54.1 201.1,54.1 201.1,46.3 196.8,46.3 196.8,44.6 207.7,44.6 207.7,46.3 	"/>
	<rect x="210.4" y="44.6" class="st0" width="2.2" height="9.5"/>
	<polygon class="st0" points="220.5,54.1 215,44.6 217.5,44.6 221.3,51.5 225,44.6 227.2,44.6 222,54.1 	"/>
	<polygon class="st0" points="229.7,54.1 229.7,44.6 239.4,44.6 239.4,46.3 231.9,46.3 231.9,48.4 236.3,48.4 236.3,50 231.9,50 
		231.9,52.3 239.5,52.3 239.5,54.1 	"/>
	<polygon class="st0" points="105.5,12.1 107.8,12.1 110,15.3 112.2,12.1 114.5,12.1 111,17.7 109,17.7 	"/>
	<polygon class="st0" points="175.2,15.2 175.2,31.5 179.6,28.3 183,36.9 185.2,35.7 180.9,27.3 185,25.6 	"/>
</g>
<g>
</g>
<g>
</g>
<g>
</g>
<g>
</g>
<g>
</g>
<g>
</g>
<g>
</g>
<g>
</g>
<g>
</g>
<g>
</g>
<g>
</g>
<g>
</g>
<g>
</g>
<g>
</g>
<g>
</g>
</svg>
