<?xml version="1.0" encoding="utf-8"?>
<!-- Generator: Adobe Illustrator 17.0.0, SVG Export Plug-In . SVG Version: 6.00 Build 0)  -->
<!DOCTYPE svg PUBLIC "-//W3C//DTD SVG 1.1//EN" "http://www.w3.org/Graphics/SVG/1.1/DTD/svg11.dtd">
<svg version="1.1" id="Layer_1" xmlns="http://www.w3.org/2000/svg" xmlns:xlink="http://www.w3.org/1999/xlink" x="0px" y="0px"
	 width="405px" height="146.6px" viewBox="0 0 405 146.6" style="enable-background:new 0 0 405 146.6;" xml:space="preserve">
<style type="text/css">
	.st0{fill:#FFF8B8;}
</style>
<g id="title-b.svg">
	<g>
		<path class="st0" d="M42.2,109.2c0.3,6.7-3,9.7-10,9H6.3v-9h7.9c3.9,0.7,5.6-1.1,5.3-5.3v-38L6.3,68.6V58l13.2-2.6V33.2H6.3v-10
			h13.2v-5.3h22.7v5.3h4.7v10h-4.7v17.9l4.7-1.6v11.1l-4.7,0.5V109.2z M75.4,41.7h-20l-5.8-11.1h20L75.4,41.7z M49.6,75.4h17.9v33.8
			h10V70.7H49.6v-10h27.9v-7.4h-7.4L69.1,57h-19l4.7-13.7h73.3v10h-27.9v7.4h27.9v10h-27.9v38.5h5.8c3.5,0.7,4.9-1.1,4.2-5.3V75.4
			h17.9v33.8c0.7,6.7-2.6,9.7-10,9H49.6V75.4z M50.1,27.9v-10h78c-0.4,6.7-3.7,10-10,10H50.1z M79.1,30.6h19.5v11.1H79.1V30.6z
			 M108.1,30.6h20l-5.8,11.1h-20L108.1,30.6z"/>
		<path class="st0" d="M141.9,73.8v-10h121.3v10H141.9z"/>
		<path class="st0" d="M312.2,109.2c0.3,6.7-3,9.7-10,9h-25.8v-9h7.9c3.9,0.7,5.6-1.1,5.3-5.3v-38l-13.2,2.6V58l13.2-2.6V33.2h-13.2
			v-10h13.2v-5.3h22.7v5.3h4.7v10h-4.7v17.9l4.7-1.6v11.1l-4.7,0.5V109.2z M345.4,41.7h-20l-5.8-11.1h20L345.4,41.7z M319.6,75.4
			h17.9v33.8h10V70.7h-27.9v-10h27.9v-7.4h-7.4l-1.1,3.7h-19l4.7-13.7h73.3v10h-27.9v7.4h27.9v10h-27.9v38.5h5.8
			c3.5,0.7,4.9-1.1,4.2-5.3V75.4h17.9v33.8c0.7,6.7-2.6,9.7-10,9h-68.6V75.4z M320.1,27.9v-10h78c-0.4,6.7-3.7,10-10,10H320.1z
			 M349.1,30.6h19.5v11.1h-19.5V30.6z M378.1,30.6h20l-5.8,11.1h-20L378.1,30.6z"/>
	</g>
</g>
<g>
</g>
<g>
</g>
<g>
</g>
<g>
</g>
<g>
</g>
<g>
</g>
<g>
</g>
<g>
</g>
<g>
</g>
<g>
</g>
<g>
</g>
<g>
</g>
<g>
</g>
<g>
</g>
<g>
</g>
</svg>
