<?xml version="1.0" encoding="utf-8"?>
<!-- Generator: Adobe Illustrator 17.0.0, SVG Export Plug-In . SVG Version: 6.00 Build 0)  -->
<!DOCTYPE svg PUBLIC "-//W3C//DTD SVG 1.1//EN" "http://www.w3.org/Graphics/SVG/1.1/DTD/svg11.dtd">
<svg version="1.1" id="Layer_1" xmlns="http://www.w3.org/2000/svg" xmlns:xlink="http://www.w3.org/1999/xlink" x="0px" y="0px"
	 width="360px" height="155.3px" viewBox="0 0 360 155.3" style="enable-background:new 0 0 360 155.3;" xml:space="preserve">
<style type="text/css">
	.st0{fill:#FFF8B8;}
</style>
<g id="title.svg">
	<path class="st0" d="M3.5,80V15.6c0-4.4,3.5-7.9,7.9-7.9h31c4.4,0,7.9,3.5,7.9,7.9V80H39.7V17.9c0-1.9-1.4-3.4-3.5-3.4H17.5
		c-1.9,0-3.5,1.4-3.5,3.4V80H3.5z M33.2,116.8l-3.7-12c-1.7,4.4-3.6,8.5-5.9,12H3.8c9.7-18,13.6-31.3,13.6-56.2V23.2h19v33.6
		c0,10.2-0.6,18.8-1.7,26.5h5l10.2,33.5H33.2z M81.8,109.9h3.2c2.5,0,3.5-1,3.5-3.4V33.5H86c-2.2,30.7-6.1,59.3-12.1,83.2H52.2
		c7.2-25.8,10.7-50.2,13-83.2H54.5v-6.8h34.1V3.1h24.1v23.5h4.3v6.8h-4.3v75.4c0,4.3-3.5,7.8-8,7.8H81.8V109.9z"/>
	<path class="st0" d="M129.7,26.9l-6.4-23.6h27.8l6.2,23.6H129.7z M157.9,95c0,1.6-0.1,2.9-0.2,4.3c4.1,6.1,10.3,10.3,20.9,10.3
		h58.2v6.8h-63.8c-7.9,0-13.4-2.4-17.8-6.1c-0.8,2.3-1.8,4.4-2.8,6.2h-28.7c3.2-6.2,6.8-13.8,6.8-25V45.1c0-2.5-2-4.6-4.6-4.6h-2.5
		v-6.8h26.4c4.4,0,8,3.6,8,8V95z M165.1,39.7h71.5v6.7h-33.1l-10.9,42.7c-0.4,1.4,0.5,3,2.2,3h12.7c1.4,0,2.6-1.3,2.2-3l-6.4-25.8
		H229l6.8,26.6c1.1,4.3-1.8,9-6.5,9h-56.9c-4.6,0-7.7-4.3-6.5-9l11.6-43.6h-12.5V39.7z M169,8.4h64v6.7h-64V8.4z"/>
	<path class="st0" d="M278.6,48.5c0.8,0,1.4-0.4,1.9-1.1c0.4-0.6,0.2-1.3,0.1-2.2l-2.4-19.1h22.9l3.4,21.1c0.4,2,0.6,4-0.5,5.6
		c-1.1,1.6-2.8,2.6-4.9,2.6h-10.4v22.1h16.6v7.1h-16.6V109H308v7.1h-64.9V109h18.2V84.7h-15.5v-7.1h15.5V55.6h-11.6
		c-2,0-3.8-1.1-4.8-2.6c-1.2-1.7-1-3.6-0.5-5.6l7.8-34.1h-9.1v-7h61.6v7h-26.9l-7.1,32c-0.1,0.8-0.1,1.6,0.2,2.2
		c0.5,0.7,1.2,1.1,2,1.1H278.6z M309.7,102V9.6h16.7V102H309.7z M321.4,116.6h26.2c4.4,0,7.9-3.5,7.9-7.9V2.8h-23.9v102.5
		c0,2.5-2,4.6-4.6,4.6h-5.6V116.6z"/>
</g>
<g>
</g>
<g>
</g>
<g>
</g>
<g>
</g>
<g>
</g>
<g>
</g>
<g>
</g>
<g>
</g>
<g>
</g>
<g>
</g>
<g>
</g>
<g>
</g>
<g>
</g>
<g>
</g>
<g>
</g>
</svg>
