<?xml version="1.0" encoding="utf-8"?>
<!-- Generator: Adobe Illustrator 17.0.0, SVG Export Plug-In . SVG Version: 6.00 Build 0)  -->
<!DOCTYPE svg PUBLIC "-//W3C//DTD SVG 1.1//EN" "http://www.w3.org/Graphics/SVG/1.1/DTD/svg11.dtd">
<svg version="1.1" id="Layer_1" xmlns="http://www.w3.org/2000/svg" xmlns:xlink="http://www.w3.org/1999/xlink" x="0px" y="0px"
	 width="405px" height="146.6px" viewBox="0 0 405 146.6" style="enable-background:new 0 0 405 146.6;" xml:space="preserve">
<style type="text/css">
	.st0{fill:#FFF8B8;}
</style>
<g id="title-e.svg">
	<path class="st0" d="M47.5,17.9v5.3h80.7v10H47.5V38h80.7v35.9c0.3,7-3,10.4-10,10H6.9V38h14.8v-20H47.5z M34.3,88.6l-4.7,29.5H6.9
		l4.7-29.5H34.3z M102.8,48H32.2v25.8h65.9c3.9,0.7,5.4-1.2,4.7-5.8V48z M69.6,118.1H46.4l-4.7-29.5h22.7L69.6,118.1z M93.9,88.6
		l5.3,29.5H75.9l-4.7-29.5H93.9z M100.2,88.6h22.7l5.3,29.5h-22.7L100.2,88.6z"/>
	<path class="st0" d="M141.9,73.8v-10h121.3v10H141.9z"/>
	<path class="st0" d="M317.5,17.9v5.3h80.7v10h-80.7V38h80.7v35.9c0.3,7-3,10.4-10,10H276.9V38h14.8v-20H317.5z M304.3,88.6
		l-4.7,29.5h-22.7l4.7-29.5H304.3z M372.8,48h-70.7v25.8h65.9c3.9,0.7,5.4-1.2,4.7-5.8V48z M339.6,118.1h-23.2l-4.7-29.5h22.7
		L339.6,118.1z M363.9,88.6l5.3,29.5h-23.2l-4.7-29.5H363.9z M370.2,88.6h22.7l5.3,29.5h-22.7L370.2,88.6z"/>
</g>
<g>
</g>
<g>
</g>
<g>
</g>
<g>
</g>
<g>
</g>
<g>
</g>
<g>
</g>
<g>
</g>
<g>
</g>
<g>
</g>
<g>
</g>
<g>
</g>
<g>
</g>
<g>
</g>
<g>
</g>
</svg>
