<?xml version="1.0" encoding="utf-8"?>
<!-- Generator: Adobe Illustrator 17.0.0, SVG Export Plug-In . SVG Version: 6.00 Build 0)  -->
<!DOCTYPE svg PUBLIC "-//W3C//DTD SVG 1.1//EN" "http://www.w3.org/Graphics/SVG/1.1/DTD/svg11.dtd">
<svg version="1.1" id="Layer_1" xmlns="http://www.w3.org/2000/svg" xmlns:xlink="http://www.w3.org/1999/xlink" x="0px" y="0px"
	 width="161.9px" height="45.8px" viewBox="0 0 161.9 45.8" style="enable-background:new 0 0 161.9 45.8;" xml:space="preserve">
<style type="text/css">
	.st0{fill:#FFFFFF;}
</style>
<path id="logo.svg" class="st0" d="M22.1,0C22.1,0,22.1,0,22.1,0c0.2,0,0.4,0,0.6,0C22.5,0,22.3,0,22.1,0z M24.2,0L24.2,0
	c0.5,0.7,0.6,2.4,0.8,2.7c0.5,0.8,3.3,2.2,4.5,2.7c1.4,0.6,2.8,1,4.1,1.6c0.7,0.3,1.2,1.2,0.5,1.6c-1.4,0.8-4,0.1-5.6-0.3
	c-0.6-0.2-1.3-0.4-2-0.6c1.7,1.4,3.7,2.6,5.5,3.6c1.4,0.8,2.7,1.4,4.1,2.2c0.7,0.4,1.1,1.1,0.5,1.9c-0.2,0.2-0.5,0.3-1,0.3
	c-2.2-0.1-4.6-1.4-6.7-2.4c-2-1-3.9-2.2-5.7-3.6c-0.1-0.1-0.1-0.1-0.1-0.1S23,9.6,23,9.7c-1.8,1.4-3.7,2.7-5.7,3.6
	c-2.1,1-4.4,2.3-6.7,2.4c-0.5,0-0.8-0.1-1-0.3c-0.6-0.8-0.1-1.5,0.5-1.9c1.4-0.8,2.7-1.4,4.1-2.2c1.8-1,3.9-2.3,5.5-3.6
	c-0.6,0.2-1.3,0.4-2,0.6c-1.6,0.4-4.2,1-5.6,0.3c-0.8-0.5-0.2-1.3,0.5-1.6c1.3-0.6,2.7-1,4.1-1.6c1.2-0.5,4-1.8,4.5-2.7
	c0.2-0.3,0.3-2,0.8-2.7C9.8,0.6,0,10.7,0,23.1c0,11.2,8,20.6,18.6,22.7c0.3-5,0.7-10.8,0.9-15.8c-4,1.6-8,2.5-12.4,2.9
	C6.3,33,5,32.7,4.7,32.2c-0.5-1.1,0.8-1.9,1.6-2.1c4-1,7.4-2.1,11-3.8c0.8-0.5,2.2-1.4,2.4-1.9c0.2-0.5,0.3-2.5,0.3-3.6
	c-2.6,1.8-6.5,2.9-9.7,3c-1,0.1-3.3,0.1-3.5-0.7c-0.1-0.4,0.2-0.7,0.5-0.8c3.5-1.4,7-2.7,10.1-4.5c2.5-1.4,4.1-3.1,5.7-3.1
	c1.6,0,3.1,1.7,5.7,3.1c3.1,1.8,6.6,3.1,10.2,4.5c0.2,0.1,0.5,0.4,0.5,0.8c-0.2,0.8-2.5,0.8-3.5,0.7c-3.1-0.1-7.1-1.2-9.7-3
	c0,1.2,0.1,3.1,0.3,3.6c0.2,0.5,1.6,1.4,2.4,1.9c3.6,1.8,6.9,2.8,11,3.8c0.9,0.2,2.2,1,1.6,2.1c-0.3,0.6-1.5,0.8-2.4,0.8
	c-4.4-0.4-8.4-1.4-12.4-2.9c0.3,5,0.7,10.8,0.9,15.8c10.6-2.1,18.6-11.5,18.6-22.7C46.2,10.7,36.4,0.6,24.2,0z M9.1,26
	c0.1-0.5,0.5-0.7,1-0.8c2.3-0.3,4.1-0.8,6.1-1.8c0.8-0.4,1.6-0.1,1.4,0.7c-0.5,1.8-4.7,2.6-7.2,2.7C9.9,26.9,9,26.6,9.1,26z
	 M25,13.5c-0.9,0.2-1.2,0.1-1.9,0.1c-0.7,0-1,0.1-1.9-0.1c-0.9-0.2-1.4-0.8-1-1.1c0.7-0.6,1.8-0.7,2.9-0.7c1,0,2.2,0.1,2.9,0.7
	C26.4,12.7,25.9,13.3,25,13.5z M35.8,26.9c-2.5-0.1-6.8-1-7.2-2.7c-0.2-0.8,0.7-1.1,1.4-0.7c2,1,3.7,1.4,6.1,1.8
	c0.5,0.1,0.9,0.3,1,0.8C37.2,26.6,36.3,26.9,35.8,26.9z M82,21.7c0.1-0.3,0.2-0.6,0.2-1V8H71.7V5.5h-3.5V8H57.8v14.8h10.4v3.5h3.5
	v-3.5h8.2c0.6,0,1.1-0.1,1.4-0.4C81.6,22.2,81.8,22,82,21.7z M68.2,20.2h-7.4v-9.5h7.4V20.2z M79.1,19.5c0,0.3-0.1,0.5-0.2,0.6
	c-0.1,0.1-0.4,0.1-0.9,0.1h-6.4v-9.5h7.5V19.5z M73.3,35.5h-3.7v-3.6h-2v8.8h2V37h3.7v3.7h2v-8.8h-2V35.5z M59.2,33
	c-0.7,0.8-1.1,1.9-1.1,3.4c0,0.8,0.1,1.5,0.4,2.1c0.3,0.6,0.6,1,1.1,1.4c0.4,0.3,0.8,0.5,1.2,0.6c0.4,0.1,1,0.2,1.8,0.2H66v-1.5
	h-3.3c-0.9,0-1.5-0.2-1.9-0.6c-0.3-0.4-0.5-1.1-0.5-2c0-1.1,0.2-1.9,0.6-2.4c0.4-0.5,1-0.7,1.8-0.7H66v-1.5h-3.4
	C61.1,31.9,59.9,32.3,59.2,33z M88,38.2l-4-6.3h-2.6v8.8h2.1L83.4,34l4.2,6.6H90v-8.8h-2.1L88,38.2z M77.3,40.7h2.1v-8.8h-2.1V40.7z
	 M153.9,33c-0.8,0.8-1.1,1.9-1.1,3.4c0,0.8,0.1,1.5,0.4,2.1c0.2,0.6,0.6,1,1.1,1.4c0.4,0.3,0.8,0.5,1.3,0.6c0.4,0.1,1,0.2,1.8,0.2
	h4.4v-5.2h-4.8V37h2.7v2.1h-2.3c-0.8,0-1.4-0.2-1.8-0.7c-0.4-0.4-0.6-1.1-0.6-2.1c0-1,0.2-1.8,0.6-2.3c0.4-0.5,1-0.7,1.7-0.7h4.4
	v-1.5h-4.4C155.8,31.9,154.6,32.3,153.9,33z M138.8,40.7h2.1v-8.8h-2.1V40.7z M136.6,32.8c-0.2-0.2-0.4-0.3-0.6-0.4
	c-0.2-0.1-0.6-0.3-1-0.3c-0.5-0.1-1-0.1-1.8-0.1h-4.4v8.8h2v-3.1h2.5c0.8,0,1.4,0,1.9-0.1c0.4-0.1,0.8-0.2,1.1-0.4
	c0.4-0.2,0.6-0.5,0.8-0.9c0.2-0.4,0.3-0.8,0.3-1.3c0-0.5-0.1-1-0.3-1.4C136.9,33.1,136.7,32.9,136.6,32.8z M134.7,35.7
	c-0.2,0.1-0.3,0.2-0.6,0.2c-0.2,0.1-0.5,0.1-0.8,0.1h-2.5v-2.6h2.4c0.7,0,1.2,0.1,1.5,0.3c0.3,0.2,0.4,0.5,0.4,1
	C135.1,35.2,134.9,35.5,134.7,35.7z M121.8,18h-1.6l2.9-4.1l6.5,8.7c0.3,0.4,1,1.3,1.7,2.1c0.9,0.9,2.1,1.3,2.7,1.3
	c0.6,0.1,1,0,1.2,0v-2.7c-0.2,0-0.4,0-0.8-0.2c-0.7-0.3-1.6-1.5-2.1-2.1l-7-9.6h9.9V8.7h-10.5V5.8h-3.5v2.9h-10.4v2.8h9.8l-6.9,10.1
	c-0.3,0.4-1,1-1,1c-0.4,0.3-0.8,0.6-1.4,0.7c-0.1,0-0.4,0-0.4,0v2.8c0,0,0.3,0,0.6,0c0.2,0,0.7,0,1-0.1c0.4-0.1,1.7-0.6,2.1-0.9
	c0.5-0.4,1.4-1.3,1.8-1.8l3.5-4.8v2.1c0.5,0,1,0,1.3,0.2c0.3,0.1,0.5,0.4,1,0.9l2.7,3.7l3.5,0.1l-3.8-5.3
	C123.2,18.3,122.9,18.1,121.8,18z M149.4,38.2l-4-6.3h-2.6v8.8h2.1l-0.1-6.6l4.2,6.6h2.4v-8.8h-2.1L149.4,38.2z M161.5,18.5
	c-1.1-0.5-2.4-2.3-2.7-3.2l-2.1-5.8l-3.9-0.1l2.9,7.2c0.4,1,1.5,1.6,1.9,1.9h-6.1V8.6l10.1,0V5.9h-23.6v2.6l10.1,0v9.9h-6.1
	c0.4-0.3,1.3-0.9,1.7-1.9l2.9-7.2l-3.9,0.1l-2.1,5.8c-0.4,1-1.7,2.7-2.8,3.2h-0.1v2.7l10.5,0V26h3.5v-4.7l10.5,0v-2.7H161.5z
	 M117.3,31.9l-4.1,8.8h2.2l0.9-2.1h4.2l0.9,2.1h2.2l-4.1-8.8H117.3z M116.9,37l1.4-3.4l1.5,3.4H116.9z M103.6,19.9h-1.1l-0.5-1.7
	h-2.2l0.4,1.7h-2.6v-3.1h5.6v-2.4h-5.6V12h5.7V9.6H89.2V12h5.4v2.3h-5.3v2.4h5.3v3.1h-5.4v2.4h14.5V19.9z M108.1,24.6
	c0.1-0.3,0.2-0.7,0.2-1.2V5.9H84.5V26h19.9c1.7,0,2.7-0.2,3.1-0.5C107.8,25.3,108,24.9,108.1,24.6z M105.3,22.9
	c0,0.3-0.1,0.5-0.2,0.6c-0.1,0.1-0.3,0.2-0.7,0.2H87.5V8.2h17.7V22.9z M114.2,31.9h-8.4v1.5h3.1l0,7.3h2.1v-7.3h3.2V31.9z
	 M94.7,31.9l-4.1,8.8h2.2l0.9-2.1h4.2l0.9,2.1h2.3l-4.1-8.8H94.7z M94.3,37l1.4-3.4l1.5,3.4H94.3z M124.6,40.7h2.1v-8.8h-2.1V40.7z"
	/>
<g>
</g>
<g>
</g>
<g>
</g>
<g>
</g>
<g>
</g>
<g>
</g>
<g>
</g>
<g>
</g>
<g>
</g>
<g>
</g>
<g>
</g>
<g>
</g>
<g>
</g>
<g>
</g>
<g>
</g>
</svg>
