<?xml version="1.0" encoding="utf-8"?>
<!-- Generator: Adobe Illustrator 17.0.0, SVG Export Plug-In . SVG Version: 6.00 Build 0)  -->
<!DOCTYPE svg PUBLIC "-//W3C//DTD SVG 1.1//EN" "http://www.w3.org/Graphics/SVG/1.1/DTD/svg11.dtd">
<svg version="1.1" id="Layer_1" xmlns="http://www.w3.org/2000/svg" xmlns:xlink="http://www.w3.org/1999/xlink" x="0px" y="0px"
	 width="640px" height="397.9px" viewBox="0 0 640 397.9" style="enable-background:new 0 0 640 397.9;" xml:space="preserve">
<style type="text/css">
	.st0{opacity:0.5;fill-rule:evenodd;clip-rule:evenodd;fill:#D9B670;}
	.st1{opacity:0.76;fill-rule:evenodd;clip-rule:evenodd;fill:#D9B670;}
	.st2{opacity:0.73;fill-rule:evenodd;clip-rule:evenodd;fill:#D9B670;}
</style>
<g id="mountain.svg">
	<path class="st0" d="M266.3,267.7c-2-16.6-2.3-32.2-2.6-48c-2-10.1-2.4-18.5-12.4-19.8c0.1-0.7,0.3-1.3,0.5-2
		c3.5-0.5,5.8-0.5,10.2-0.1c5.4,4.3,6.7,15.4,8,23.2c0,15.1-1.3,30.1-2.7,46C267,267.1,266.6,267.4,266.3,267.7 M291.8,277.4
		c-6.3-17-5.4-39.2-5.8-56c8.6,2.8,6.9,47.3,7,55.4C292.6,277,292.2,277.1,291.8,277.4z M194,306.3c0.4-4.6,2.8-8.6,4.6-12.5
		c4.3-21.6-1.3-42.7,7.7-62c4.5-5.4,3.8-6.5,10.7-7.4c0.8,0.7,2.8,1.8,3.8,4.6c-5,3.5-7.8,5.5-9.8,11.7
		C210.6,243.1,206.2,303.3,194,306.3z M312,322c-3.5-22.9-2.4-44.5-2-66.3c-1.6-13.2-0.3-15.2-10.9-19.8c-0.4-0.7-0.7-1.3-0.9-2
		c20.6-11.6,20.2,32,15.9,41.9c-0.5,10.8-0.5,10.8-0.3,46.2C313.1,322,312.5,322,312,322z M235.2,365.2c-1.9-4.4-2-7-2.6-10.4
		c-9.3-28.2-6.5-58.8-8.1-87c-2.4-9.2-2.4-9.2-2.8-13.5c0.5-0.1,1.1-0.3,1.8-0.4c14.3,9.7,10.4,40.6,9.3,56.5
		c3,41.4,3,41.4,3.4,54.1C235.7,364.6,235.4,364.9,235.2,365.2z M269.1,366.5c-0.9-1.2-1.8-2.3-2.6-3.4
		c-9.8-22.5-18.7-44.2-20.8-67.1c-0.4-0.7-0.7-1.3-0.9-2c-1.6-24.4,2-51-4.7-72.7c-2.2-2.8-8.8-10.1-9.2-12
		c13.9,0,15.8,13.2,17.1,25.9c-0.5,12.8-0.9,25.6-1.3,38.4c0.5,32.1,8.9,59.6,23.3,89.8c0.1,0.8,0.3,1.6,0.4,2.6
		C269.9,366.1,269.5,366.3,269.1,366.5z M310.3,385.9c-1.1-2-1.1-2-5.1-5.9c-5.4-11.1-9-17.8-11.1-28.9c-0.7-1.2-0.7-1.2-2.6-13.5
		c-0.9-17.5-0.4-45.7-20.6-48.8c0-0.4,0-0.8,0.1-1.1c24.8-19.8,27.9,49.6,29.3,61.4c2.6,13.8,2.6,13.8,4.3,19.4
		c2.4,5.3,5.4,10.7,7.1,17.4C311.2,385.9,310.7,385.9,310.3,385.9z M351.4,397.9c-5.4-0.7-5.4-0.7-52.3-1.2c-40.7,0-81.4,0-122.2,0
		c-14.2,0.5-14.2,0.5-22.2,0.3c-1.1-5.5,5.5-18.2,7.4-23.2c0.3-0.1,0.5-0.3,0.9-0.4c3.2-11.9,6.6-23.7,10-35.5
		c5.4-27.5,8.1-55.4,8.1-81.8c2-14.3,2.6-27,9.3-39c7.1-8.2,7.1-8.2,11.1-11.6c3.8-1.9,3.8-1.9,8.2-5.7c4.4-1.2,9-2.3,13.6-3.4
		c10.9-17.8,12.7-30.6,35.2-33.8c17,5.1,18.5,17,24,34.5c0.3,7.6,0.3,7.6,0.9,11.2c0.9-0.1,2-0.1,3.1-0.1c4-6.7,13.1-8.2,21.3-7.4
		c9,3.2,14.3,8.9,17.7,20.1c3,33.3-0.4,67,0.8,101.7c1.5,10.5,3.8,20.4,6.9,31.7c3.4,5.8,4.2,16.3,9.6,22.8
		c1.1,6.9,7.3,12.9,10.9,20.4C352.9,397.5,352.1,397.7,351.4,397.9z"/>
	<path class="st1" d="M374.1,340.5c-0.9-7.3-1-14.2-1.1-21.2c-0.9-4.5-1.1-8.1-5.5-8.7c0.1-0.3,0.1-0.6,0.2-0.9
		c1.5-0.2,2.6-0.2,4.5-0.1c2.4,1.9,3,6.8,3.5,10.2c0,6.7-0.6,13.3-1.2,20.3C374.4,340.3,374.3,340.4,374.1,340.5 M385.4,344.8
		c-2.8-7.5-2.4-17.3-2.6-24.7c3.8,1.2,3,20.9,3.1,24.4C385.7,344.6,385.5,344.7,385.4,344.8z M342.3,357.5c0.2-2,1.2-3.8,2-5.5
		c1.9-9.5-0.6-18.8,3.4-27.3c2-2.4,1.7-2.9,4.7-3.3c0.4,0.3,1.2,0.8,1.7,2c-2.2,1.5-3.4,2.4-4.3,5.2
		C349.6,329.7,347.6,356.2,342.3,357.5z M394.3,364.5c-1.5-10.1-1.1-19.6-0.9-29.2c-0.7-5.8-0.1-6.7-4.8-8.7
		c-0.2-0.3-0.3-0.6-0.4-0.9c9.1-5.1,8.9,14.1,7,18.5c-0.2,4.8-0.2,4.8-0.1,20.4C394.8,364.5,394.5,364.5,394.3,364.5z M360.4,383.5
		c-0.8-2-0.9-3.1-1.1-4.6c-4.1-12.4-2.9-25.9-3.6-38.3c-1.1-4-1.1-4-1.2-5.9c0.2-0.1,0.5-0.1,0.8-0.2c6.3,4.3,4.6,17.9,4.1,24.9
		c1.3,18.2,1.3,18.2,1.5,23.8C360.6,383.3,360.5,383.4,360.4,383.5z M375.4,384.1c-0.4-0.5-0.8-1-1.1-1.5
		c-4.3-9.9-8.3-19.5-9.2-29.6c-0.2-0.3-0.3-0.6-0.4-0.9c-0.7-10.8,0.9-22.5-2.1-32c-1-1.2-3.9-4.5-4-5.3c6.1,0,7,5.8,7.5,11.4
		c-0.2,5.6-0.4,11.3-0.6,16.9c0.2,14.1,3.9,26.3,10.3,39.6c0.1,0.4,0.1,0.7,0.2,1.1C375.7,383.9,375.6,384,375.4,384.1z
		 M393.5,392.7c-0.5-0.9-0.5-0.9-2.3-2.6c-2.4-4.9-4-7.8-4.9-12.7c-0.3-0.5-0.3-0.5-1.1-5.9c-0.4-7.7-0.2-20.1-9.1-21.5
		c0-0.2,0-0.4,0.1-0.5c10.9-8.7,12.3,21.9,12.9,27c1.1,6.1,1.1,6.1,1.9,8.6c1.1,2.3,2.4,4.7,3.1,7.7
		C393.9,392.7,393.7,392.7,393.5,392.7z M411.6,397.9c-2.4-0.3-2.4-0.3-23.1-0.5c-17.9,0-35.9,0-53.8,0c-6.2,0.2-6.2,0.2-9.8,0.1
		c-0.5-2.4,2.4-8,3.3-10.2c0.1-0.1,0.2-0.1,0.4-0.2c1.4-5.2,2.9-10.5,4.4-15.6c2.4-12.1,3.6-24.4,3.6-36.1
		c0.9-6.3,1.1-11.9,4.1-17.2c3.2-3.6,3.2-3.6,4.9-5.1c1.7-0.8,1.7-0.8,3.6-2.5c2-0.5,4-1,6-1.5c4.8-7.8,5.6-13.5,15.5-14.9
		c7.5,2.3,8.1,7.5,10.6,15.2c0.1,3.3,0.1,3.3,0.4,4.9c0.4-0.1,0.9-0.1,1.4-0.1c1.8-3,5.8-3.6,9.4-3.3c4,1.4,6.3,3.9,7.8,8.9
		c1.3,14.7-0.2,29.5,0.4,44.8c0.7,4.6,1.7,9,3,14c1.5,2.6,1.8,7.2,4.2,10c0.5,3,3.2,5.7,4.8,9C412.3,397.8,411.9,397.8,411.6,397.9z
		"/>
	<path class="st0" d="M563.5,283.8c-1.8-14.5-2-28.2-2.2-42c-1.8-8.9-2.1-16.2-10.9-17.4c0.1-0.6,0.2-1.2,0.5-1.8
		c3.1-0.5,5.1-0.5,9-0.1c4.7,3.8,5.9,13.5,7,20.3c0,13.2-1.2,26.3-2.4,40.3C564.1,283.4,563.7,283.6,563.5,283.8 M585.8,292.3
		c-5.6-14.9-4.7-34.4-5.1-49c7.6,2.5,6,41.5,6.1,48.5C586.5,292,586.1,292.1,585.8,292.3z M500.2,317.6c0.4-4,2.5-7.6,4-11
		c3.8-18.9-1.2-37.4,6.7-54.3c3.9-4.7,3.3-5.7,9.3-6.5c0.7,0.6,2.5,1.5,3.3,4c-4.4,3.1-6.9,4.8-8.6,10.3
		C514.7,262.3,510.8,315,500.2,317.6z M603.5,331.4c-3.1-20.1-2.1-39-1.8-58.1c-1.4-11.6-0.2-13.3-9.6-17.4
		c-0.4-0.6-0.6-1.2-0.8-1.8c18.1-10.2,17.7,28,13.9,36.7c-0.5,9.4-0.5,9.4-0.2,40.5C604.4,331.4,604,331.4,603.5,331.4z
		 M536.2,369.2c-1.7-3.9-1.8-6.1-2.2-9.1c-8.2-24.7-5.7-51.5-7.1-76.2c-2.1-8-2.1-8-2.5-11.8c0.5-0.1,0.9-0.2,1.5-0.4
		c12.5,8.5,9.1,35.6,8.1,49.5c2.6,36.3,2.6,36.3,3,47.4C536.6,368.8,536.4,369,536.2,369.2z M565.9,370.4c-0.8-1.1-1.5-2-2.2-3
		c-8.6-19.7-16.4-38.7-18.2-58.8c-0.4-0.6-0.6-1.2-0.8-1.8c-1.4-21.4,1.8-44.6-4.1-63.7c-1.9-2.5-7.7-8.9-8-10.5
		c12.2,0,13.8,11.6,15,22.7c-0.5,11.2-0.8,22.4-1.2,33.7c0.5,28.1,7.8,52.2,20.4,78.7c0.1,0.7,0.2,1.4,0.4,2.2
		C566.7,370.1,566.3,370.2,565.9,370.4z M602,387.4c-0.9-1.8-0.9-1.8-4.5-5.2c-4.7-9.7-7.9-15.6-9.7-25.3c-0.6-1.1-0.6-1.1-2.2-11.8
		c-0.8-15.4-0.4-40-18.1-42.8c0-0.4,0-0.7,0.1-0.9c21.7-17.4,24.4,43.5,25.6,53.7c2.2,12,2.2,12,3.8,17c2.1,4.6,4.7,9.3,6.3,15.2
		C602.8,387.4,602.3,387.4,602,387.4z M638,397.9c-4.7-0.6-4.7-0.6-45.8-1.1c-35.7,0-71.3,0-107,0c-12.4,0.5-12.4,0.5-19.5,0.2
		c-0.9-4.8,4.8-15.9,6.5-20.3c0.2-0.1,0.5-0.2,0.8-0.4c2.8-10.4,5.8-20.8,8.7-31.1c4.7-24.1,7.1-48.5,7.1-71.7
		c1.8-12.5,2.2-23.6,8.1-34.1c6.3-7.2,6.3-7.2,9.7-10.2c3.3-1.7,3.3-1.7,7.2-5c3.9-1.1,7.9-2,11.9-3c9.6-15.6,11.1-26.8,30.8-29.6
		c14.9,4.5,16.2,14.9,21,30.2c0.2,6.6,0.2,6.6,0.8,9.8c0.8-0.1,1.8-0.1,2.7-0.1c3.5-5.9,11.5-7.2,18.7-6.5
		c7.9,2.8,12.5,7.8,15.5,17.6c2.6,29.2-0.4,58.7,0.7,89.1c1.3,9.2,3.3,17.8,6,27.8c3,5.1,3.7,14.3,8.4,20c0.9,6,6.4,11.3,9.6,17.8
		C639.3,397.6,638.6,397.7,638,397.9z"/>
	<path class="st2" d="M112.8,105c-2-16.6-2.3-32.2-2.6-48c-2-10.1-2.4-18.5-12.4-19.8c0.1-0.7,0.3-1.3,0.5-2
		c3.5-0.5,5.8-0.5,10.2-0.1c5.4,4.3,6.7,15.4,8,23.2c0,15.1-1.3,30.1-2.7,46C113.4,104.5,113,104.8,112.8,105 M138.2,114.7
		c-6.3-17-5.4-39.2-5.8-56c8.6,2.8,6.9,47.3,7,55.4C139,114.3,138.6,114.5,138.2,114.7z M40.5,143.6c0.4-4.6,2.8-8.6,4.6-12.5
		c4.3-21.6-1.3-42.7,7.7-62c4.5-5.4,3.8-6.5,10.7-7.4c0.8,0.7,2.8,1.8,3.8,4.6c-5,3.5-7.8,5.5-9.8,11.7
		C57.1,80.5,52.6,140.6,40.5,143.6z M158.5,159.4c-3.5-22.9-2.4-44.5-2-66.3c-1.6-13.2-0.3-15.2-10.9-19.8c-0.4-0.7-0.7-1.3-0.9-2
		c20.6-11.6,20.2,32,15.9,41.9c-0.5,10.8-0.5,10.8-0.3,46.2C159.5,159.4,159,159.4,158.5,159.4z M81.6,202.5c-1.9-4.4-2-7-2.6-10.4
		c-9.3-28.2-6.5-58.8-8.1-87c-2.4-9.2-2.4-9.2-2.8-13.5c0.5-0.1,1.1-0.3,1.8-0.4c14.3,9.7,10.4,40.6,9.3,56.5
		c3,41.4,3,41.4,3.4,54.1C82.1,202,81.9,202.3,81.6,202.5z M115.6,203.9c-0.9-1.2-1.8-2.3-2.6-3.4c-9.8-22.5-18.7-44.2-20.8-67.1
		c-0.4-0.7-0.7-1.3-0.9-2c-1.6-24.4,2-51-4.7-72.7c-2.2-2.8-8.8-10.1-9.2-12c13.9,0,15.8,13.2,17.1,25.9C94,85.4,93.6,98.2,93.2,111
		c0.5,32.1,8.9,59.6,23.3,89.8c0.1,0.8,0.3,1.6,0.4,2.6C116.4,203.5,116,203.6,115.6,203.9z M155.7,385.9c-1.1-2-1.1-2-5.1-5.9
		c-5.4-11.1-8-180.4-10-191.5c-0.7-1.2-0.7-1.2-2.6-13.5c-0.9-17.5-0.4-45.7-20.6-48.8c0-0.4,0-0.8,0.1-1.1
		c24.8-19.8,27.9,49.6,29.3,61.4c2.6,13.8,2.6,13.8,4.3,19.4c2.4,5.3,4.4,173.3,6.1,180C156.7,385.9,156.1,385.9,155.7,385.9z
		 M196.8,397.9c-5.4-0.7-5.4-0.7-52.3-1.2c-40.7,0-81.4,0-122.2,0c-14.2,0.5-14.2,0.5-22.2,0.3c-1.1-5.5,6.5-180.9,8.4-185.8
		c0.3-0.1,0.5-0.3,0.9-0.4c3.2-11.9,6.6-23.7,10-35.5c5.4-27.5,8.1-55.4,8.1-81.8c2-14.3,2.6-27,9.3-39c7.1-8.2,7.1-8.2,11.1-11.6
		c3.8-1.9,3.8-1.9,8.2-5.7c4.4-1.2,9-2.3,13.6-3.4C80.7,16,82.4,3.2,104.9,0c17,5.1,18.5,17,24,34.5c0.3,7.6,0.3,7.6,0.9,11.2
		c0.9-0.1,2-0.1,3.1-0.1c4-6.7,13.1-8.2,21.3-7.4c9,3.2,14.3,8.9,17.7,20.1c3,33.3-0.4,67,0.8,101.7c1.5,10.5,3.8,20.4,6.9,31.7
		c3.4,5.8,4.2,16.3,9.6,22.8c1.1,6.9,6.3,175.6,9.9,183C198.3,397.5,197.5,397.7,196.8,397.9z"/>
</g>
<g>
</g>
<g>
</g>
<g>
</g>
<g>
</g>
<g>
</g>
<g>
</g>
<g>
</g>
<g>
</g>
<g>
</g>
<g>
</g>
<g>
</g>
<g>
</g>
<g>
</g>
<g>
</g>
<g>
</g>
</svg>
