<?xml version="1.0" encoding="utf-8"?>
<!-- Generator: Adobe Illustrator 17.0.0, SVG Export Plug-In . SVG Version: 6.00 Build 0)  -->
<!DOCTYPE svg PUBLIC "-//W3C//DTD SVG 1.1//EN" "http://www.w3.org/Graphics/SVG/1.1/DTD/svg11.dtd">
<svg version="1.1" id="Layer_1" xmlns="http://www.w3.org/2000/svg" xmlns:xlink="http://www.w3.org/1999/xlink" x="0px" y="0px"
	 width="216px" height="58.6px" viewBox="0 0 216 58.6" style="enable-background:new 0 0 216 58.6;" xml:space="preserve">
<style type="text/css">
	.st0{fill:#B21927;}
</style>
<g id="open_x5F_button.svg">
	<path class="st0" d="M12.2,1.9l5.1,1.9c0.4,0.1,0.5,0.4,0.2,0.6l-0.8,1.7v7.4l2.5-0.2l2.7-2.7l3.4,3c0.1,0.4,0,0.6-0.4,0.6
		l-8.2,0.6l-0.2,10.1c0.6-0.1,1.3-0.4,2.3-0.8c1.3-0.4,3.4-1.3,6.3-2.5c0.3,0.1,0.3,0.4,0,0.8c-3.2,2-6.1,3.8-8.6,5.5v5.5l0.2,10.1
		c0.1,3.7-1.9,6.7-6.1,9.1c-0.3,0.1-0.5,0.2-0.6,0.2c-0.1-0.1-0.2-0.4-0.2-0.6c0.1-2.1-0.4-3.4-1.7-4c-0.1-0.1-0.2-0.3-0.2-0.4
		c0.1-0.3,0.3-0.4,0.4-0.2c2.8,0.4,4-0.2,3.6-1.9L12,31c-3,1.8-5,3.4-6.1,4.6c-0.4,0.3-0.7,0.2-0.8-0.2L3,29.5
		c0-0.3,0.1-0.4,0.2-0.4c1-0.1,3-0.7,5.9-1.7c1.3-0.4,2.2-0.7,3-0.8V15l-2.3,0.2c-2.3,0-4.1,0.2-5.7,0.6l-1.5-1.7l9.5-0.4v-1.1
		c0-1.8-0.1-4.2-0.2-7.2c0-1.5,0-2.6,0-3.2C11.8,1.9,12,1.8,12.2,1.9z M31.9,9.7c-2.5,0.1-4.4,0.4-5.7,0.8L24,8.9l20.9-0.6l3-3.2
		l3.6,3.4c0.1,0.1,0.2,0.3,0.2,0.4c0,0.1-0.1,0.2-0.4,0.2L36.5,9.7l4.6,1.5c0.3,0,0.3,0.2,0,0.6l-0.6,1.7l-0.2,19.8l0.2,9.1
		c0.1,3.9-2.3,7.2-7.2,9.9c-0.4,0.1-0.7,0.1-0.8,0c-0.1-0.1-0.1-0.4,0-0.6c0-2.1-0.6-3.5-1.9-4.2c-0.3-0.1-0.4-0.3-0.2-0.4
		c0-0.1,0.1-0.2,0.4-0.2c3.5,0.1,5.1-0.3,4.6-1.3V19.8L35.2,9.7H31.9z"/>
	<path class="st0" d="M68.1,7.8c-3.1,0.3-5,0.6-5.7,0.8l-2.1-1.9l34.6-0.4l3.2-3.2l3.8,3.6c0.3,0.4,0.2,0.6-0.2,0.6L87.3,7.6
		l4.4,1.5c0.3,0.1,0.3,0.4,0,0.6l-1.1,1.5v14.6l7-0.2l3.6-3.8l4,4.4c0.1,0.1,0.2,0.3,0.2,0.4c0,0.1-0.1,0.2-0.4,0.2L90.7,27v13.1V46
		c-0.4,2.4-2,4.4-4.9,6.1c-0.4,0-0.7-0.3-0.8-0.8l0.2-8.6V27l-8,0.2c0,11.1-7,19.8-21.1,26.2c-0.3,0.1-0.4,0.1-0.4-0.2
		c-0.1-0.3-0.1-0.5,0.2-0.6c11-5.8,16.5-14.2,16.5-25.3l-7.6,0.2c-2.5,0.1-4.4,0.4-5.7,0.6l-1.9-1.9l15.2-0.2v-1.5l0.2-9.7
		c0-0.8-0.1-2-0.2-3.6c0-1.5-0.1-2.7-0.2-3.4H68.1z M77.2,24.7v1.1h8l0.2-18.1L73.8,7.8L78,9.3c0.3,0,0.3,0.2,0,0.6l-0.8,1.3V24.7z"
		/>
	<path class="st0" d="M118.5,24.5c-1.5,0-3.4,0.2-5.5,0.6c-0.1,0-0.3,0-0.4,0l-1.5-2.1l19.6-0.4V9.7l-0.2-8.9l6.3,1.5
		c0.4,0.1,0.4,0.4,0,0.8c-0.4,0.3-0.8,1-1.1,2.1V11l11-0.2l3.4-3.2l3.4,3.6c0.3,0.3,0.3,0.4,0,0.4L135.8,12v10.5l14.8-0.2l4-3.8
		l4,4.2c0.1,0.3,0,0.5-0.4,0.6L133.9,24l2.3,0.8c0.1,0.1,0.2,0.4,0.2,0.6l-0.2,2.5l-0.2,11.8l0.2,6.5c-0.6,3.1-2.2,5.3-4.9,6.5
		c-0.6,0-0.8-0.4-0.8-1.3l0.2-8.6l0.2-12.9c0-3-0.1-5-0.2-6.1L118.5,24.5z M140.9,30.8c7.2,2.3,11.2,4.3,12.2,6.1
		c0,2-0.8,3.6-2.5,4.9c-0.7,0.7-1.5,0.4-2.3-0.8c-2-3.7-4.5-6.8-7.6-9.5c-0.1-0.1-0.2-0.3-0.2-0.4C140.5,30.9,140.6,30.8,140.9,30.8
		z"/>
	<path class="st0" d="M177,3.2c-0.1-0.4-0.1-0.6,0.2-0.4l5.3,2.3l-0.8,1.5v12.2h11v-8.6l-0.2-8.9l5.9,1.9c0.1,0,0.3,0.1,0.4,0.2
		c-0.1,0.1-0.3,0.3-0.4,0.4c-0.4,0.3-0.7,0.8-0.8,1.7l-0.2,13.3l7-0.2l3.2-3.2l4,3.6c0.1,0.3,0.1,0.5-0.2,0.6L181.6,20v3
		c0,2.1-0.1,4.1-0.2,6.1l15.4-0.2l2.1-3.2l5.3,3c0.3,0.1,0.3,0.4,0,0.8l-1.3,1.7V38l0.2,8.4c-0.1,2.2-1.4,4.4-3.8,6.3
		c-0.8,0.1-1.4-0.1-1.7-0.6v-20c0-1.3-0.5-2-1.5-2.1l-15,0.2c-1.1,8.4-7.2,16.3-18.4,23.6c-0.3,0-0.4-0.1-0.4-0.2
		c0-0.3,0.1-0.5,0.4-0.6c5.8-4.4,9.6-8.9,11.6-13.7c2-4.5,2.9-10.9,2.7-19.2V9.7L177,3.2z"/>
</g>
<g>
</g>
<g>
</g>
<g>
</g>
<g>
</g>
<g>
</g>
<g>
</g>
<g>
</g>
<g>
</g>
<g>
</g>
<g>
</g>
<g>
</g>
<g>
</g>
<g>
</g>
<g>
</g>
<g>
</g>
</svg>
