<?xml version="1.0" encoding="utf-8"?>
<!-- Generator: Adobe Illustrator 17.0.0, SVG Export Plug-In . SVG Version: 6.00 Build 0)  -->
<!DOCTYPE svg PUBLIC "-//W3C//DTD SVG 1.1//EN" "http://www.w3.org/Graphics/SVG/1.1/DTD/svg11.dtd">
<svg version="1.1" id="Layer_1" xmlns="http://www.w3.org/2000/svg" xmlns:xlink="http://www.w3.org/1999/xlink" x="0px" y="0px"
	 width="124.4px" height="16.3px" viewBox="0 0 124.4 16.3" style="enable-background:new 0 0 124.4 16.3;" xml:space="preserve">
<style type="text/css">
	.st0{fill:#A72633;}
</style>
<g id="text-1.svg">
	<path d="M64.2,10C64.2,9.9,64.2,9.9,64.2,10c0.1-0.2,0.2-0.3,0.3-0.3c0.4-0.6,0.8-1.1,1-1.5l0.8-1.6c0-0.2,0.1-0.3,0.1-0.4
		c0,0,0-0.1,0-0.1c-0.1,0-0.2,0-0.4,0c0,0-0.1,0-0.3,0.1c-0.3,0.1-0.5,0.1-0.5,0.1c-0.1,0-0.3,0.1-0.6,0.1c-0.8,0-1.4,0.2-1.7,0.4
		c0,0.1,0,0.2-0.1,0.2c-0.1,0-0.1,0.1-0.2,0.1c-0.3,0-0.5-0.1-0.5-0.3c0,0,0.1-0.1,0.2-0.2c0.3-0.1,0.4-0.2,0.5-0.3h0.1
		c0.1,0,0.5-0.1,1.1-0.2c1.7-0.2,2.6-0.4,2.6-0.6c0,0,0-0.1,0.1-0.3c0-0.6,0.1-0.9,0.3-0.9c0.2,0,0.3,0.1,0.3,0.2
		c0,0.2,0,0.4-0.1,0.4h-0.1c0,0.2,0,0.3-0.1,0.4c0,0.1,0,0.1,0,0.1h0.2c0,0,0.3,0,0.7-0.1c0.5-0.1,0.8-0.1,1-0.1
		c0.1,0,0.3,0,0.5-0.1C70,5,70.5,4.9,70.8,4.9c0,0,0.1,0,0.2,0c0.2,0,0.3,0.1,0.4,0.1c0.1,0,0.2,0.1,0.2,0.2
		c-0.1,0.3-0.3,0.5-0.5,0.6c-0.1,0-0.1-0.1-0.2-0.2c-0.1-0.1-0.1-0.2-0.2-0.2c-0.1,0-0.2,0-0.3,0c-0.1,0-0.2,0-0.3,0
		c-0.4,0.1-0.9,0.1-1.6,0.2c0,0-0.1,0-0.3,0.1c-0.6,0.1-1,0.2-1.1,0.3c0,0-0.1,0.1-0.2,0.2c0,0.1-0.1,0.2-0.2,0.2
		c-0.1,0.5-0.4,1.2-1,2.2c0,0-0.1,0-0.1,0.1c0,0-0.1,0.1-0.1,0.1c0,0-0.1,0.2-0.3,0.5c-0.2,0.3-0.3,0.4-0.3,0.5
		c-0.1,0-0.1,0.1-0.2,0.2c-0.2,0.2-0.3,0.3-0.5,0.3C64.3,10.1,64.2,10,64.2,10 M67.6,9.7c0,0.1,0,0.4,0,0.7c0,0.3-0.1,0.6-0.1,0.7
		c0,0,0,0,0,0.1l0.2-0.1l1.7-0.6c0.1,0,0.2-0.2,0.2-0.4c0-1.6-0.1-2.8-0.2-3.6c0,0-0.1,0-0.1,0c-1.1,0.3-1.7,0.6-1.8,1v0.9
		c0.1,0.1,0.1,0.2,0.1,0.4c0,0.1,0,0.1,0,0.1c0.2,0,0.4-0.1,0.6-0.1c0,0,0.1,0,0.2,0c0.7,0,1,0.1,1,0.5c0,0.1,0,0.1,0,0.2
		c0,0,0,0-0.1,0.1c0,0-0.1,0-0.2-0.1c-0.2-0.1-0.4-0.2-0.6-0.2c-0.2,0-0.5,0.1-0.7,0.2c0,0-0.1,0.1-0.1,0.2
		C67.7,9.7,67.6,9.7,67.6,9.7z M66.3,14.6c0-0.1,0-0.2,0-0.3c0,0,0.1-0.1,0.1-0.1c0-0.2,0.1-0.4,0.2-0.6c0.1,0,0.1,0.1,0.1,0.2
		c0,0.1,0,0.3,0,0.5c0-0.1,0.1-0.3,0.1-0.5c0-0.1,0.1-0.2,0.1-0.3c0-0.1,0-0.4,0.1-0.9c0-0.6,0.1-0.9,0.1-0.9
		c0.1-0.1,0.1-0.3,0.1-0.6c0-0.1,0-0.2,0-0.2c0,0,0-0.2,0.1-0.5c0-0.2,0-0.3,0-0.3c0-0.1,0-0.3,0-0.6c0-0.4,0-0.8-0.1-1.1
		c0,0-0.1,0-0.1,0.1c0,0.1,0,0.2-0.1,0.2c0,0,0,0,0-0.1c0,0,0-0.1-0.1-0.2c0-0.1,0-0.2-0.1-0.2c0,0,0-0.1,0-0.1c0-0.1,0-0.2,0.1-0.4
		c0.1-0.2,0.1-0.4,0.1-0.6C67,7,67.1,7,67.2,6.9c0.1,0,0.2,0,0.2-0.1c0.1-0.1,0.3-0.2,0.5-0.3C68.6,6.2,69,6,69.4,6
		c0.3,0,0.5,0.1,0.5,0.3c0,0.7,0,1.6,0,2.9c0,0.9,0.1,1.5,0.1,1.9c0,0.2,0,0.4,0,0.6c0,0.2,0,0.3,0,0.4c0,0.3,0,0.7,0.1,1.3
		c0,0.6,0,1,0.1,1.2c0,0.1,0,0.2-0.1,0.2c0,0.1-0.1,0.1-0.2,0.1c-0.1,0-0.2-0.1-0.3-0.3c-0.1-0.1-0.1-0.2-0.2-0.2
		c0,0-0.1-0.1-0.1-0.2c-0.6-0.9-0.9-1.5-0.9-2c0-0.1,0-0.1,0-0.2l0.1,0.1l0.4,1c0.2,0.1,0.4,0.4,0.6,0.7h0.1c0-0.1,0.1-0.2,0.1-0.3
		c0-1.2,0-2.1-0.1-2.8l-0.8,0.4c0,0-0.1,0.1-0.3,0.1c0,0-0.1,0-0.2,0.1c-0.4,0.2-0.7,0.4-0.8,0.4c0,0.1-0.1,0.1-0.2,0.1
		c0,0-0.1,0.6-0.2,1.7c-0.1,0.4-0.1,0.7-0.1,0.8c0,0.1-0.1,0.4-0.2,0.8l-0.3,0.3h-0.1c-0.2,0-0.3-0.2-0.3-0.7
		C66.3,14.6,66.3,14.6,66.3,14.6z M51.6,14.1L51.6,14.1c0.2-0.2,0.3-0.4,0.3-0.8c0-0.1,0-0.1,0-0.2c-0.1,0-0.1,0.1-0.2,0.1
		c-0.3-0.1-0.6-0.3-0.7-0.7c0-0.1,0.1-0.2,0.2-0.3c0.1-0.1,0.1-0.2,0.1-0.2c0,0,0.1-0.1,0.2-0.1c0.1,0,0.2-0.1,0.2-0.1
		c0.1,0,0.3,0.1,0.5,0.3c0.2,0.1,0.3,0.4,0.3,0.8c0,0.4-0.1,0.9-0.4,1.2c0,0-0.1,0-0.2,0.1c-0.2,0.1-0.3,0.2-0.4,0.2
		c-0.1,0-0.2-0.1-0.2-0.2c0,0,0.1-0.1,0.2-0.1C51.5,14.2,51.6,14.1,51.6,14.1z M42.8,11.4c0.1,0.3,0.1,0.5,0.2,0.6
		c0.1,0,0.1-0.1,0.2-0.2c0.1-0.1,0.2-0.1,0.2-0.1c0.1,0,0.3,0,0.5,0c0.1,0,0.3,0,0.4,0c0.1,0,0.2-0.1,0.3-0.2
		c0.1-0.1,0.1-0.2,0.2-0.2c0,0,0.1-0.1,0.2-0.3c0.1-0.1,0.2-0.2,0.2-0.3c0.1-0.1,0.2-0.3,0.2-0.4c0-0.1,0-0.2-0.1-0.2
		C43.7,10.4,42.9,10.8,42.8,11.4z M42.4,12.6c-0.2-0.1-0.3-0.2-0.3-0.3s0-0.2,0.1-0.3c0-0.1,0.1-0.1,0.1-0.2
		c-0.1-0.9-0.3-1.4-0.5-1.6c0,0,0,0-0.1,0c0,0-0.1,0-0.1,0.1c-0.1,0.1-0.1,0.1-0.2,0.1c-0.2,0-0.3-0.2-0.4-0.5c0,0-0.3,0.4-0.8,1.1
		c-0.1,0.1-0.1,0.2-0.1,0.2c-0.2,0.3-0.5,0.6-0.8,0.9c0,0-0.2,0.2-0.5,0.5c-0.7,0.7-1,1.1-1.1,1.1c-0.2,0.1-0.3,0.3-0.5,0.5
		c0,0-0.1,0-0.1,0c-0.3,0-0.4-0.2-0.4-0.6c0-0.1,0-0.2,0.1-0.4c0-0.1,0-0.2,0-0.3c0-0.1,0-0.3,0-0.4c0-0.1,0-0.1,0-0.2l-0.3-2.1
		c-0.1-0.2-0.1-0.4-0.2-0.6c0,0,0,0,0-0.1c0-0.1,0-0.1,0.2-0.2c0.1,0,0.2,0.1,0.3,0.2c0.2,0.6,0.3,1.4,0.4,2.6c0,0.1,0,0.2,0,0.4
		l0.1,0.1c0,0.1,0,0.2-0.1,0.3c0,0.2-0.1,0.3-0.1,0.4c0,0.1,0,0.1,0.1,0.2c0.3-0.3,0.6-0.6,0.8-0.8c0-0.1,0-0.4,0.1-0.7
		c0.1-0.4,0.1-0.8,0.1-1c0,0,0-0.1,0-0.3c0-0.2-0.1-0.3-0.1-0.3c-0.1-0.1-0.1-0.3-0.1-0.7c0-0.6-0.1-0.9-0.3-1c0,0-0.1,0-0.2-0.1
		c-0.2,0-0.3,0-0.3-0.1V8.3c0.1,0,0.2,0,0.2-0.1c0,0,0-0.1,0-0.1L37.7,8c0,0-0.1-0.2-0.2-0.5c-0.1-0.2-0.1-0.3-0.1-0.4
		c0,0-0.1-0.2-0.2-0.6C37,6.3,36.9,6.1,36.9,6c0-0.1-0.1-0.2-0.1-0.3c0-0.2,0.1-0.3,0.3-0.3c0.1,0,0.2,0.1,0.2,0.3l0.5,1
		c0,0.3,0.2,0.7,0.4,1.1c0.6-0.3,1.1-0.9,1.5-1.7c0-0.1-0.2-0.2-0.6-0.2c-0.1,0-0.3,0-0.6,0c-0.3,0-0.5,0.1-0.7,0.1c0,0-0.1,0-0.2,0
		c-0.1-0.1-0.1-0.2-0.1-0.3c0-0.1,0.1-0.2,0.3-0.2h1.7c0,0,0.1,0,0.2,0.1c0.3,0,0.5,0.1,0.5,0.3c0,0.3-0.2,0.8-0.7,1.3
		c-0.1,0.1-0.2,0.2-0.2,0.3h0.1c0.4-0.1,0.7-0.2,0.7-0.3c0.1,0,0.1,0.1,0.2,0.2c0,0.1-0.1,0.2-0.3,0.3c0,0,0-0.1-0.1-0.1
		c0,0-0.1,0-0.1,0.1l-0.9,0.4c-0.1,0-0.2,0-0.2,0.2c0,0.1,0,0.3,0.1,0.4c0,0.4,0,0.8,0.1,1.4c0,0.2,0.1,0.3,0.1,0.4
		c0.1-0.1,0.3-0.3,0.6-0.5c0.4-0.3,0.7-0.6,0.8-0.8c0.1,0,0.1,0,0.2-0.1c0.1-0.1,0.1-0.1,0.2-0.1c0.1,0,0.2,0.1,0.3,0.2
		c-0.1,0.1-0.1,0.2-0.2,0.3c0,0-0.1,0.1-0.3,0.2c-0.1,0-0.3,0.2-0.6,0.5h-0.1c-0.3,0.2-0.4,0.4-0.5,0.5c-0.2,0.3-0.4,0.8-0.4,1.2
		c0,0.1,0,0.1,0,0.2c0.3-0.2,0.6-0.5,1.1-1c0.4-0.5,0.7-0.8,1-1c0.1-0.1,0.2-0.5,0.3-1c0-0.3,0.1-0.5,0.1-0.5
		c0.1,0.1,0.1,0.2,0.1,0.5c0,0.4,0.1,0.6,0.3,0.6c0.1-0.1,0.2-0.3,0.4-0.6C42.1,9,42.2,9,42.2,8.9c0.4-0.6,0.6-1,0.6-1.2
		c0-0.1-0.1-0.1-0.2-0.1c0-0.1-0.1-0.1-0.3-0.2c0,0-0.2-0.1-0.4-0.2c-0.2-0.1-0.4-0.2-0.4-0.2c-0.1,0-0.2,0.1-0.2,0.3
		c0,0.1,0,0.2-0.1,0.2l-0.1-0.1V7c0,0-0.1-0.1-0.1-0.2c0-0.2,0.1-0.3,0.3-0.3c0.1,0,0.2,0.1,0.4,0.2c0.1,0,0.2,0.1,0.2,0.1
		c0.2,0.1,0.4,0.2,0.8,0.4c0.2-0.1,0.4-0.5,0.6-1.2c0-0.1,0-0.2-0.1-0.2c0,0,0,0-0.1,0.1c-0.3,0.2-0.5,0.3-0.7,0.3
		c-0.3,0-0.4-0.1-0.4-0.4c0-0.1,0-0.1,0-0.2c0.1,0,0.3-0.2,0.5-0.5c0.3-0.4,0.5-0.6,0.7-0.6c0.1,0.1,0.2,0.1,0.2,0.2
		c0,0.1-0.1,0.2-0.2,0.4c-0.1,0.1-0.2,0.2-0.2,0.3c0.1,0,0.2,0,0.3-0.1c0.1,0,0.2-0.1,0.3-0.1c0.1,0,0.2,0.2,0.3,0.5
		c0,0.1,0.1,0.1,0.1,0.2c-0.1,0.6-0.3,1.1-0.6,1.6c0,0,0,0-0.1,0.1c0.1,0.1,0.6,0.4,1.3,0.9c0,0,0.1,0,0.2,0.1
		c0.3,0.1,0.5,0.2,0.5,0.3l0.9,0.4l0.1,0.1l0.7,0.2c0,0,0.1,0,0.1,0.1c0,0.2-0.1,0.3-0.4,0.3c-0.1,0-0.3-0.1-0.4-0.2
		c-0.1-0.1-0.2-0.2-0.3-0.2c-0.3-0.1-0.8-0.4-1.4-0.7c-0.3-0.2-0.6-0.3-0.7-0.4c-0.1,0-0.2-0.1-0.3-0.2C43.6,8,43.5,8,43.3,8
		c-0.1,0-0.1,0.1-0.2,0.2c0,0.1,0,0.1-0.1,0.1l-0.7,1.2h-0.1c-0.1,0.1-0.1,0.2-0.1,0.3c0,0,0,0-0.1,0.1c0,0.2,0.1,0.4,0.4,0.8
		c0,0,0.1,0,0.1,0c0,0,0.1,0,0.2-0.1c1-0.5,1.7-0.7,2.3-0.7c0.5,0,0.8,0.1,0.8,0.3v0.4c0,0,0,0-0.1,0.1c-0.4,0.9-0.9,1.4-1.3,1.4
		c-0.2,0-0.3-0.1-0.4-0.2h-0.6c-0.1,0-0.2,0.1-0.3,0.2c0.3,0.1,0.6,0.1,0.9,0.1c0.5,0,1-0.1,1.5-0.2c0.1,0,0.1,0,0.2-0.1
		c0.1,0,0.2-0.1,0.2-0.1c0.1,0,0.2,0.1,0.2,0.2c0,0.2-0.2,0.4-0.5,0.5c0,0-0.2,0-0.4,0.1c-0.2,0-0.3,0.1-0.4,0.1H43
		c0,0.1,0,0.3,0.1,0.5c0,0.2,0,0.4,0,0.5c0,0.3-0.1,0.5-0.2,0.7c0,0,0,0-0.1,0c-0.2,0-0.3-0.3-0.3-0.8c0-0.1-0.1-0.2-0.1-0.2
		c0,0,0-0.1,0-0.3C42.5,12.7,42.4,12.6,42.4,12.6z M27.2,5.7c0-0.2,0.1-0.3,0.3-0.3c0.1,0,0.3,0.1,0.7,0.5c0.4,0.3,0.6,0.5,0.7,0.5
		L29.7,7c0,0-0.1,0-0.1,0.1c0,0-0.1,0.1-0.2,0.1c0,0,0,0-0.1,0C29.3,7,29.2,7,29.2,7l-1.9-1.1C27.2,5.9,27.2,5.8,27.2,5.7z
		 M26.7,12.5c-0.1,0-0.4,0-0.7,0.1c-0.3,0-0.6,0.1-0.8,0.1c-0.1,0-0.2,0-0.3,0c0-0.1-0.1-0.1-0.3-0.2c-0.2-0.1-0.4-0.2-0.4-0.4
		c0-0.1,0.1-0.1,0.2-0.2c0.1,0,0.3,0,0.4,0c0.1,0,0.3,0,0.5,0c0.2,0,0.4,0.1,0.5,0.1c0.1,0,0.1,0,0.2,0c1.4-0.8,2.8-1.9,4.1-3.4
		c0-0.1,0.1-0.2,0.3-0.4h-0.1c-0.2,0.1-0.5,0.2-0.8,0.3c-0.4,0.2-0.8,0.3-1.1,0.4c0,0-0.1,0-0.2,0.1c-0.7,0.2-1.2,0.3-1.5,0.3
		c0,0-0.1,0-0.2,0c-0.2,0-0.3-0.1-0.3-0.1c-0.1,0-0.1,0-0.1-0.1c0-0.2,0.1-0.3,0.3-0.3c0.3,0,0.6,0,0.9,0c0.6-0.1,1.4-0.4,2.4-0.8
		c0.3-0.1,0.5-0.2,0.6-0.2c0.1,0,0.2,0,0.4-0.1c0.2-0.1,0.3-0.1,0.4-0.1c0.1,0,0.2,0.1,0.2,0.2c0,0,0,0.1-0.1,0.2
		c0,0-0.1,0.1-0.1,0.1c-0.7,0.9-1.7,1.9-3.2,3.1c-0.1,0.1-0.3,0.2-0.5,0.4c-0.3,0.2-0.5,0.4-0.6,0.5L27,12c0.6,0.1,0.9,0.1,1.2,0.2
		c1,0.1,2.1,0.2,3.2,0.2c0.3,0,0.6,0,0.9,0c0.2-0.1,0.4-0.1,0.7-0.1c0.1,0,0.2,0,0.3,0c0,0,0.1,0,0.1,0.1c0,0.3-0.2,0.4-0.6,0.5
		c-0.1,0-0.1,0-0.1,0s-0.1,0-0.3,0c-0.3,0-0.4-0.1-0.5-0.1c-0.1,0-0.3,0-0.4,0.1c-0.6,0-1.5-0.1-2.7-0.2c-0.4-0.1-0.7-0.1-0.9-0.1
		c0,0-0.2,0-0.5-0.1c-0.3,0-0.5-0.1-0.5-0.1C26.8,12.5,26.8,12.5,26.7,12.5z M13.7,8C13.7,8,13.7,8,13.7,8c0,0.3,0,0.5-0.1,0.6v0.1
		c0,0-0.1-0.1-0.1-0.2C13.6,8.3,13.6,8.1,13.7,8z M12.4,12.6c0-0.1,0.1-0.2,0.3-0.3l1.1-0.2H14l1.9-0.4l0.1-0.1c0-0.2,0-0.4,0-0.7
		c0-0.1,0-0.2,0-0.3c-0.7,0-1.3,0.1-1.9,0.2c-0.1,0-0.2,0-0.3,0.1c-0.1,0.1-0.3,0.1-0.4,0.1c-0.3,0-0.4-0.1-0.4-0.3
		c0-0.1,0.1-0.2,0.3-0.2l2.2-0.3c0.2,0,0.4,0,0.6-0.1c0.1-0.6,0.1-1.2,0.1-1.7c-0.1,0-0.3,0-0.5,0.1c-0.2,0.1-0.4,0.1-0.5,0.1
		c-0.7,0-1.2-0.6-1.5-1.7c0-0.1-0.1-0.2-0.1-0.2c-0.1-0.1-0.2-0.3-0.2-0.5c0-0.1,0.1-0.2,0.3-0.2c0.2,0,0.3,0.3,0.5,0.8
		c0.2,0.9,0.6,1.3,1,1.3c0.3,0,0.6-0.1,0.9-0.2c0.1-0.1,0.1-0.2,0.1-0.4c0-0.3-0.1-0.5-0.2-0.8c0,0-0.1-0.1-0.1-0.1
		c-0.2-0.1-0.3-0.3-0.3-0.4c0-0.2,0-0.2,0.2-0.2c0,0,0.1,0,0.2,0c0.5,0.4,0.7,1,0.6,1.7c0.1-0.1,0.3-0.1,0.4-0.1
		c0.1,0,0.4-0.1,0.9-0.3c0.5-0.1,0.8-0.2,0.9-0.3c0.1,0,0.1-0.1,0.2-0.1c0.1,0,0.1,0,0.2,0c0.1,0,0.1,0,0.2,0l0.1,0.2
		c0,0-0.1,0.1-0.2,0.2c-0.1,0.2-0.3,0.3-0.4,0.4c-0.1,0-0.2,0-0.3,0.1c-0.1,0-0.2,0-0.3,0c-0.7,0-1.2,0.2-1.5,0.4c0,0,0,0.1-0.1,0.3
		c-0.1,0.6-0.2,1-0.2,1.3c0,0.1,0,0.1,0.1,0.1l1-0.3c0.1,0,0.2,0,0.3,0c0.1,0,0.2-0.1,0.2-0.1c0.1,0,0.2,0.1,0.2,0.2
		c-0.2,0.4-0.6,0.6-1.1,0.7c-0.1,0-0.2-0.1-0.2-0.2c0,0-0.1,0-0.2,0c-0.2,0-0.3,0.1-0.4,0.2c0,0,0,0-0.1,0.1c0,0.1-0.1,0.1-0.1,0.2
		v0.7c0.1,0,0.3-0.1,0.6-0.1c0.2,0,0.3-0.1,0.4-0.1c0,0,0.1,0,0.2,0c0.3-0.1,0.7-0.1,1.1-0.1c0.7,0,1.1,0.1,1.1,0.2
		c0,0.2-0.1,0.4-0.3,0.4c-0.1-0.1-0.3-0.1-0.5-0.2c-0.1,0-0.1,0-0.1,0c-0.7,0-1.1,0.1-1.3,0.1c0,0-0.1,0-0.1,0c-0.5,0-0.9,0.1-1,0.1
		c-0.1,0-0.1,0.1-0.2,0.1c0,0-0.1,0-0.2,0l-1.7,0.4c-0.1,0-0.4,0.1-0.8,0.3c-0.3,0.1-0.4,0.2-0.5,0.2c0,0-0.1,0-0.3,0
		c-0.2,0-0.3,0.1-0.3,0.1C12.4,12.9,12.4,12.7,12.4,12.6z M2.5,9.8C2.4,9.9,2.4,9.9,2.4,9.9c-0.2,0.4-0.4,0.7-0.6,0.9
		c-0.3,0.5-0.5,0.9-0.7,1.2c-0.1,0.2-0.2,0.4-0.4,0.7c-0.1,0.1-0.2,0.2-0.3,0.3C0.2,13,0,12.9,0,12.7c0-0.1,0.1-0.2,0.2-0.2
		c0.1,0,0.1,0,0.2,0.1c0.2-0.2,0.4-0.6,0.6-1c0.1-0.2,0.2-0.4,0.4-0.7c0.4-0.7,0.7-1.3,0.9-1.7c0-0.1,0.1-0.4,0.3-0.9
		c0.2-0.5,0.3-0.8,0.3-0.8C3,7.4,3,7.3,3,7.2c0-0.1,0.1-0.4,0.1-0.8c0,0,0-0.1,0-0.2c0-0.3,0.1-0.5,0.3-0.5c0.1,0,0.2,0,0.2,0.1
		c0,0.1,0,0.2,0,0.3c0,0.5-0.2,1.2-0.5,2C2.9,8.6,2.8,9,2.7,9.3c0.7,0.4,1.5,1,2.3,1.7c0.4,0.2,0.8,0.6,1.4,1
		c0.3,0.2,0.5,0.3,0.7,0.5c0.3,0.3,0.6,0.5,1,0.6c0,0,0,0,0.1-0.1c0-0.1,0.1-0.1,0.2-0.1c0.2,0.1,0.4,0.3,0.5,0.5
		c0,0.2-0.1,0.3-0.2,0.3c-0.1,0-0.1,0-0.1,0c-0.9-0.6-1.7-1.1-2.6-1.6c-0.2-0.1-0.6-0.4-1.1-0.8c-0.3-0.2-0.6-0.4-0.8-0.6
		c-0.1,0-0.2-0.1-0.3-0.3C3.1,10,2.7,9.8,2.5,9.8z"/>
	<path d="M119,15.8c0-0.2,0.1-0.4,0.3-0.8v0.6c0.1,0,0.3-0.2,0.5-0.4c0,0,0.1-0.1,0.1-0.1c0.6-0.5,1.2-1.3,2-2.5l-0.2,0.1
		c0,0-0.1,0-0.1-0.1c0,0,0,0-0.1-0.1c0,0-0.1-0.1-0.1-0.1c0,0,0-0.1,0-0.1c0-0.1,0-0.3,0.1-0.5c0.1-0.2,0.1-0.4,0.1-0.5v-1.2
		c0-0.1-0.1-0.2-0.1-0.4c0-0.3-0.1-0.5-0.2-0.6c0,0-0.1,0-0.1-0.1c0,0-0.1,0-0.2,0.1c-0.1,0.1-0.2,0.2-0.2,0.2l-1,1
		c-0.1,0.1-0.2,0.2-0.3,0.3c0,0-0.1,0-0.1,0.1c-0.1,0.1-0.2,0.2-0.3,0.2c0,0,0,0-0.1,0c-0.1-0.1-0.2-0.1-0.2-0.2
		c0-0.1,0-0.2,0.1-0.2c0.3-0.4,0.9-0.9,1.7-1.5c0.4-0.3,0.7-0.6,0.8-0.8c0.1-0.1,0.1-0.2,0.1-0.3c-0.3,0.1-0.5,0.1-0.6,0.2
		c-0.1,0-0.6,0.2-1.4,0.4c-0.1,0-0.2,0.1-0.3,0.1c-0.1,0-0.3,0-0.5,0.1c-0.2,0.1-0.3,0.1-0.4,0.1c-0.1,0-0.2,0.1-0.3,0.1
		c-0.8,0.3-1.4,0.4-1.8,0.4c-0.2,0-0.3-0.1-0.3-0.3c0,0,0-0.1,0.1-0.1l0.8-0.3h0.2l1.3-0.4c0.9-0.2,1.4-0.3,1.4-0.5
		c0-0.2-0.1-0.4-0.3-0.6l-0.3-0.6c-0.3-0.4-0.5-0.8-0.6-1.2c0-0.3,0.1-0.4,0.3-0.4c0.1,0,0.1,0,0.2,0c0.1,0.1,0.1,0.2,0.1,0.5
		c0,0.2,0.2,0.6,0.5,1.1c0,0,0.1,0.1,0.2,0.3c0.1,0.2,0.2,0.3,0.2,0.4c0,0.3,0.1,0.4,0.2,0.4c0,0,0.1,0,0.1,0c0,0,0,0,0.1-0.1
		c0.3,0,0.4-0.1,0.5-0.1c0-0.1,0-0.1-0.1-0.2c0-0.1-0.1-0.1-0.1-0.2c0,0,0-0.2-0.1-0.4c0-0.2,0-0.3-0.1-0.4c0,0,0,0,0-0.1
		c0-0.4,0-0.7,0-0.7c0-0.1,0-0.2-0.1-0.4c-0.1-0.2-0.1-0.4-0.1-0.5l-0.3-0.8V3.8c0,0,0.1-0.1,0.2-0.1c0.1,0,0.2,0.1,0.3,0.3
		c0,0,0.1,0.1,0.1,0.1c0.1,0.3,0.2,0.6,0.3,0.9c0.1,0.3,0.1,0.5,0.1,0.6c0,0.1,0,0.1,0.1,0.1c0,0,0.1-0.1,0.2-0.1
		c0.2-0.1,0.5-0.1,0.8-0.2c0.3-0.1,0.6-0.2,0.9-0.2c0.1,0,0.2,0.1,0.2,0.3c0,0,0,0.1,0,0.1c-0.1,0.1-0.4,0.1-0.8,0.2
		c-0.8,0.2-1.2,0.4-1.3,0.6c0,0.1,0,0.2,0,0.3c0,0.3,0,0.5,0.1,0.6c0,0,0.1,0,0.1,0c0,0,0,0.1,0,0.1c0,0,0,0.1,0,0.1
		c0,0.1-0.1,0.1-0.1,0.2c0.2,0,0.5-0.1,0.8-0.2c0.1,0,0.3-0.1,0.5-0.2c0.3-0.1,0.6-0.2,0.7-0.3c0.1,0,0.2,0,0.3-0.1
		c0.1,0,0.2-0.1,0.3-0.1c0.2,0,0.4,0.1,0.4,0.2v0.1c-0.1,0.2-0.4,0.4-0.9,0.5c-0.2,0.1-0.4,0.1-0.5,0.2c-0.4,0.3-0.8,0.6-1.1,1
		c0,0.1,0.1,0.3,0.1,0.5c0,0.4,0.1,0.6,0.2,0.7c0.1,0.7,0.1,1.2,0.1,1.7c0,0.1,0,0.2-0.1,0.3c-0.1,0.2-0.1,0.3-0.1,0.4h0.1l1.2-2.1
		c0,0,0.1-0.2,0.2-0.4c0.1-0.2,0.1-0.3,0.1-0.3c0.1-0.1,0.1-0.2,0.1-0.4c-0.1,0-0.2,0-0.3,0c-0.1,0.3-0.2,0.5-0.3,0.6
		c0,0,0-0.1-0.1-0.1c0.3-0.7,0.6-1.1,1-1.1c0.1,0,0.2,0.1,0.3,0.3c0,0.1-0.1,0.4-0.2,0.7c0,0.1-0.1,0.2-0.1,0.3
		c-0.2,0.6-0.6,1.2-1.1,2c-0.3,0.6-1,1.5-1.9,2.5c-0.2,0.3-0.4,0.5-0.5,0.7c0,0-0.1,0.1-0.2,0.3c-0.3,0.4-0.6,0.6-0.7,0.7
		c0,0-0.1,0-0.1,0.1c-0.1,0.1-0.1,0.1-0.2,0.1C119.1,16.1,119,16,119,15.8 M103.8,12.8c-0.1,0-0.1-0.1-0.1-0.2c0-0.1,0-0.1,0.1-0.2
		c0.1,0,0.3,0,0.6-0.1c0.3,0,0.5,0,0.6,0c0,0,0,0,0.1,0c0,0,0.2,0,0.4-0.1c0.2,0,0.4-0.1,0.4-0.1c0.9,0,1.4-0.1,1.4-0.2V12
		c0,0-0.1-0.1-0.2-0.3c-0.4-0.8-0.6-1.2-0.7-1.3c-0.3-0.4-0.7-0.9-1.1-1.3c0,0,0,0-0.1-0.1c0-0.1,0.1-0.2,0.3-0.2
		c0.3,0,0.6,0.3,0.9,0.9c0.2,0.4,0.3,0.7,0.5,0.7c0.1,0.1,0.1,0.3,0.2,0.5c0.2,0.3,0.3,0.6,0.4,0.8c0.1,0.1,0.1,0.2,0.2,0.3h0.2
		l1.1-0.3c0,0,0-0.1,0-0.1s0,0-0.1-0.1c-0.1,0-0.1-0.1-0.2-0.1c0-0.1,0-0.1-0.1-0.2c0,0,0-0.1-0.1-0.2c0-0.1,0-0.3-0.1-0.5
		c-0.1-1.4-0.2-2.4-0.5-3.1c0-0.1-0.1-0.2-0.2-0.4c-0.2-0.3-0.3-0.6-0.3-0.7c0-0.1,0.1-0.2,0.3-0.2c0,0,0.1,0,0.1,0.1
		c0,0.2,0.1,0.5,0.3,0.8c0.1,0.2,0.2,0.4,0.2,0.5v0.1c0.1,0.2,0.1,0.5,0.2,0.7c0,0,0,0.2,0.1,0.4c0.1,0.3,0.1,0.5,0.2,0.5
		c0,0,0.1,0,0.1,0c0.1-0.1,0.3-0.2,0.5-0.3c0.4-0.3,0.8-0.5,1.1-0.5c0.1,0,0.2,0,0.3,0c0,0,0.1,0.1,0.2,0.2c0,0.1-0.2,0.2-0.6,0.4
		c-0.9,0.4-1.3,0.8-1.3,1.1c0,0.1,0,0.3,0.1,0.6c0,0.3,0.1,0.5,0.1,0.6c0,0.1,0,0.2-0.1,0.3c0,0.1-0.1,0.2-0.1,0.3h0.4
		c0.1,0,0.5-0.1,1.2-0.3c0.2,0,0.3-0.1,0.4-0.1c0.1,0,0.3,0,0.6-0.1c0.4,0,0.7-0.1,0.8-0.1c0,0,0.1,0,0.1,0c0.2,0,0.3,0.1,0.3,0.2
		c-0.1,0.3-0.2,0.4-0.3,0.5c-0.1,0-0.2-0.1-0.3-0.1c-0.1,0-0.2,0-0.3,0c-0.4,0-0.9,0.1-1.6,0.2c-0.1,0.1-0.4,0.1-0.8,0.2
		c-0.6,0.1-0.8,0.2-0.9,0.2c-0.1,0-0.2,0.1-0.4,0.2c-0.4,0.2-0.7,0.3-0.9,0.3c0,0,0,0-0.1-0.1c0,0-0.1,0-0.1,0
		c-0.3,0-0.8,0.1-1.5,0.2c-0.7,0.1-1.1,0.2-1.4,0.2C104.2,12.8,104,12.8,103.8,12.8z M96.5,6.8c0,0-0.1,0-0.2,0
		c-0.3,0-0.4,0-0.4,0.2C96.3,6.9,96.5,6.9,96.5,6.8L96.5,6.8z M95.6,13.6c0-0.2,0-0.5,0.1-0.8c0-0.4,0.1-0.7,0.1-0.8
		c0-0.4,0-0.7-0.1-1c0-0.3-0.1-0.7-0.2-1.1c0-0.2-0.1-0.4-0.1-0.5l-0.1-0.1c-0.1,0.1-0.1,0.1-0.1,0.2c-0.1,0.2-0.2,0.6-0.5,1
		l-1.6,2.8c-0.1,0.2-0.2,0.4-0.4,0.6c-0.1,0-0.2-0.1-0.2-0.2c0.1-0.6,0.3-1,0.7-1.4c0.1-0.2,0.3-0.6,0.6-1c0.6-0.9,0.9-1.6,1-2.1
		c0,0,0-0.1,0-0.1c0,0.1-0.1,0.1-0.2,0.1V9c0,0,0.1-0.2,0.2-0.4c0.2-0.3,0.3-0.5,0.4-0.6c0.1-0.2,0.1-0.6,0.2-1.2c0,0,0-0.1,0-0.1
		c-0.1,0-0.2,0-0.3,0c-0.2,0-0.6,0-1.1,0.1C93.5,7,93.2,7,93,7c-0.1,0-0.2-0.1-0.2-0.3c0-0.1,0.2-0.2,0.4-0.3c0,0,0.2,0,0.4,0
		c0.2,0,0.6,0,1.1-0.1c1,0,1.7-0.1,2.2-0.1c0.1,0,0.2,0,0.4-0.1c0.3-0.1,0.5-0.1,0.7-0.1c0,0,0.1,0,0.1,0c0.1,0,0.1,0,0.1,0.1
		c0,0,0,0,0,0.1c-0.1,0.2-0.4,0.4-0.8,0.5C97.1,6.9,96.9,7,96.8,7c-0.1,0-0.3,0.1-0.6,0.3c-0.1,0-0.2,0.1-0.3,0.1c0,0,0,0.2-0.1,0.4
		c0,0.2-0.1,0.3-0.1,0.4c0,0.1,0,0.1-0.1,0.2c0,0-0.1,0.1-0.1,0.1c0,0.3,0.1,0.5,0.2,0.7l0.3,1.3c0,0,0.1-0.1,0.1-0.2
		c0-0.1,0.1-0.1,0.1-0.2c0.1-0.3,0.5-0.5,1-0.5c0.3,0,0.8,0.1,1.3,0.3c0.2,0,0.3,0.1,0.4,0.1c0.4,0,0.6,0.1,0.7,0.1
		c0.1,0,0.2,0.1,0.5,0.2c0,0,0.1,0.1,0.1,0.2c0,0.2-0.2,0.3-0.4,0.4c0,0-0.1-0.1-0.1-0.2c0-0.1-0.1-0.1-0.2-0.2
		c-0.1,0-0.2,0-0.4-0.1c-0.3-0.1-0.5-0.1-0.6-0.1l-0.9-0.2c0,0-0.1,0-0.2-0.1c-0.1,0-0.1,0-0.1,0c-0.7,0-1.1,0.2-1.2,0.6
		c0,0.1,0,0.1,0,0.2c0,0.1,0,0.1-0.1,0.2v2.3c0,0.2-0.1,0.4-0.4,0.6h-0.1C95.6,13.9,95.6,13.8,95.6,13.6z"/>
	<path class="st0" d="M78.6,2.5c0.8,0.6,1.2,1.2,1.3,1.7c-0.1,0.4-0.4,0.7-0.8,0.7c-0.3,0-0.4-0.2-0.5-0.5c0.1-0.8,0-1.4-0.1-1.8
		C78.5,2.5,78.6,2.5,78.6,2.5 M81.4,2.4c1,0.6,1.4,1.1,1.3,1.6c-0.1,0.4-0.4,0.6-0.8,0.7c-0.3,0-0.5-0.1-0.5-0.4
		c0.1-0.8,0.1-1.5-0.1-1.8C81.2,2.4,81.3,2.3,81.4,2.4z M84.7,10l-3.8,0.1c0.5,0.8,1.1,1.6,1.9,2.2C83.4,11.7,84,10.9,84.7,10z
		 M84.5,0l0.9,1.3c0,0.1,0,0.2-0.1,0.2c-2.4,0.3-4.9,0.5-7.4,0.7c-0.1,0-0.1,0-0.1-0.1c0,0,0-0.1,0.1-0.1C80.7,1.5,82.9,0.8,84.5,0z
		 M85,2l1.5,0.9c0.1,0.1,0.1,0.2-0.1,0.3L86,3.4L83.8,5l2.7-0.1l0.8-0.5l1.5,1.5c0.1,0.1,0.1,0.2,0.1,0.3c0,0.1-0.1,0.1-0.3,0.1
		c-0.9,0-1.7,0.2-2.2,0.6c-0.1,0-0.2,0-0.2-0.1l0.4-1.5l-9.2,0.3c-0.2,1-0.7,1.7-1.5,2.3c-0.2,0.1-0.3,0.1-0.3-0.1
		c-0.1-0.6-0.1-1,0.1-1.3c0.6-0.4,0.8-1,0.8-1.8c0-0.1,0-0.2,0.1-0.2c0,0,0.1,0,0.3,0.1c0.3,0.2,0.5,0.4,0.6,0.7L83.5,5
		C84.2,3.7,84.7,2.7,85,2z M78.4,8.3c-0.7,0-1.3,0.1-1.8,0.2l-0.5-0.5L79.6,8c0.3-0.7,0.5-1.5,0.6-2.4l1.5,0.7c0.1,0,0.1,0.1,0,0.3
		L81.5,7c-0.1,0.4-0.2,0.7-0.3,0.9l5-0.1l1-1.1L88.4,8c0.1,0.1,0.1,0.1,0,0.1L81,8.3c-0.2,0.6-0.4,1.1-0.8,1.6l4.4-0.1l0.7-0.8
		l1.3,0.9c0.1,0.1,0.1,0.2-0.1,0.3l-0.5,0.4c-0.8,0.9-1.7,1.8-2.5,2.6c1.5,0.7,3.2,1.3,5.3,1.7c0.1,0.1,0.2,0.2,0.1,0.3
		c-0.7,0-1.4,0.5-2.2,1.4c-1.6-0.7-3-1.6-4-2.6c-1.4,0.9-3.6,1.7-6.6,2.5c-0.2,0.1-0.2,0-0.1-0.1c2.9-1,5-2,6.1-3.1
		c-0.6-0.8-1.1-1.7-1.5-2.8L80,10.2c-1,1.8-3,3.7-5.9,5.6c-0.2,0-0.3,0-0.1-0.1c2.8-2.1,4.6-4.5,5.5-7.4H78.4z"/>
</g>
<g>
</g>
<g>
</g>
<g>
</g>
<g>
</g>
<g>
</g>
<g>
</g>
<g>
</g>
<g>
</g>
<g>
</g>
<g>
</g>
<g>
</g>
<g>
</g>
<g>
</g>
<g>
</g>
<g>
</g>
</svg>
