<?xml version="1.0" encoding="utf-8"?>
<!-- Generator: Adobe Illustrator 17.0.0, SVG Export Plug-In . SVG Version: 6.00 Build 0)  -->
<!DOCTYPE svg PUBLIC "-//W3C//DTD SVG 1.1//EN" "http://www.w3.org/Graphics/SVG/1.1/DTD/svg11.dtd">
<svg version="1.1" id="Layer_1" xmlns="http://www.w3.org/2000/svg" xmlns:xlink="http://www.w3.org/1999/xlink" x="0px" y="0px"
	 width="292.7px" height="38.4px" viewBox="0 0 292.7 38.4" style="enable-background:new 0 0 292.7 38.4;" xml:space="preserve">
<style type="text/css">
	.st0{fill:#231916;}
	.st1{fill:#AA192A;}
</style>
<g id="text-1.svg">
	<path class="st0" d="M5.8,23.1c-0.2,0.2-0.2,0.2-0.2,0.2c-0.6,1-1,1.7-1.3,2.2c-0.6,1.1-1.2,2.1-1.6,2.9c-0.2,0.4-0.4,0.9-0.9,1.6
		c-0.2,0.2-0.4,0.4-0.7,0.7c-0.6-0.1-1-0.4-1.1-1c0.1-0.3,0.2-0.5,0.5-0.5c0.2,0,0.3,0.1,0.4,0.2c0.6-0.5,1.1-1.3,1.5-2.4
		c0.2-0.4,0.6-1,1-1.7c1-1.7,1.7-3,2.1-3.9c0.1-0.2,0.3-0.9,0.7-2.1c0.4-1.1,0.6-1.8,0.7-1.9C7,17.4,7,17.2,7,17
		c0.1-0.3,0.2-1,0.2-1.9c0-0.1,0-0.2,0-0.5c0-0.7,0.2-1.1,0.7-1.1c0.2-0.1,0.4,0,0.5,0.2c0,0.2,0,0.4,0,0.6c0,1.1-0.4,2.7-1.2,4.7
		c-0.5,1.2-0.8,2.1-1,2.8c1.6,1.1,3.4,2.4,5.5,4c0.9,0.6,2,1.3,3.3,2.3c0.6,0.4,1.2,0.8,1.6,1.1c0.7,0.6,1.5,1.1,2.3,1.3
		c0,0,0,0,0.1-0.1c0.1-0.2,0.2-0.2,0.4-0.2c0.5,0.3,0.9,0.7,1.2,1.2c0,0.5-0.2,0.7-0.5,0.7c-0.2,0-0.2,0-0.2,0
		c-2-1.3-4.1-2.6-6.2-3.8c-0.6-0.3-1.4-0.9-2.6-1.8c-0.8-0.6-1.4-1-1.8-1.3C9.2,25.2,9,25,8.6,24.7C7.3,23.6,6.3,23.1,5.8,23.1"/>
	<path class="st0" d="M32.4,18.7c0,0,0,0,0,0.1c0,0.6-0.1,1-0.2,1.2v0.1c-0.1,0-0.1-0.1-0.1-0.4C32,19.4,32.1,19.1,32.4,18.7
		 M29.1,29.7c0-0.3,0.2-0.5,0.6-0.6l2.6-0.5h0.6l4.4-1l0.2-0.1c-0.1-0.4-0.1-0.9,0-1.6c0-0.3,0-0.6,0-0.7c-1.6,0-3.1,0.2-4.4,0.5
		c-0.2,0-0.4,0.1-0.7,0.2c-0.3,0.2-0.6,0.2-0.9,0.2c-0.6,0-1-0.2-1-0.7c0-0.3,0.2-0.5,0.7-0.5l5.1-0.7c0.5,0,1-0.1,1.5-0.2
		c0.2-1.4,0.3-2.7,0.2-4c-0.2,0-0.6,0-1.1,0.1c-0.6,0.2-1,0.2-1.2,0.2c-1.5,0-2.7-1.3-3.5-3.9c-0.1-0.2-0.1-0.4-0.1-0.5
		c-0.2-0.3-0.4-0.7-0.5-1.1c0-0.2,0.2-0.4,0.7-0.4c0.4,0,0.8,0.6,1.1,1.9c0.6,2,1.3,3,2.3,3c0.7-0.1,1.5-0.2,2.2-0.5
		c0.2-0.2,0.2-0.4,0.2-0.9c0-0.6-0.1-1.3-0.4-1.8c-0.1-0.1-0.2-0.2-0.2-0.2c-0.4-0.3-0.6-0.6-0.6-0.9c-0.1-0.4,0.1-0.6,0.5-0.5
		c0.1,0,0.2,0,0.4,0c1.2,1.1,1.7,2.4,1.5,4c0.3-0.2,0.6-0.3,0.9-0.2c0.2-0.1,0.9-0.3,2.1-0.6c1.2-0.3,1.9-0.5,2.1-0.6
		c0.2-0.1,0.3-0.2,0.5-0.2c0.2,0,0.3,0,0.5,0c0.2,0,0.3,0,0.4,0l0.2,0.4c-0.1,0.1-0.2,0.2-0.4,0.4c-0.3,0.4-0.6,0.7-1,0.9
		c-0.2,0-0.4,0.1-0.7,0.2c-0.2,0-0.4,0-0.6,0c-1.7,0.1-2.9,0.4-3.6,1c0,0.1,0,0.3-0.1,0.6c-0.3,1.3-0.5,2.3-0.5,3
		c0,0.2,0,0.3,0.1,0.2l2.4-0.6c0.2,0.1,0.4,0.1,0.6,0c0.2-0.1,0.4-0.1,0.5-0.1c0.3,0,0.5,0.2,0.5,0.5c-0.5,1-1.3,1.5-2.6,1.6
		c-0.3,0-0.4-0.1-0.4-0.4c-0.1,0-0.2,0-0.4,0c-0.4,0.1-0.7,0.2-1,0.4c0,0,0,0.1-0.1,0.2c-0.1,0.2-0.1,0.3-0.1,0.4v1.7
		c0.3-0.1,0.8-0.1,1.5-0.1c0.5-0.1,0.8-0.1,1-0.1c0.1,0,0.2,0,0.4,0c0.8-0.2,1.7-0.2,2.7-0.2c1.7,0,2.6,0.2,2.6,0.5
		c0,0.6-0.2,0.9-0.6,0.9c-0.2-0.2-0.6-0.3-1.2-0.4c-0.2,0-0.2,0-0.2,0c-1.6,0.1-2.6,0.2-3,0.2c-0.1,0-0.2,0-0.2,0
		c-1.2,0.1-2,0.2-2.4,0.2c-0.2,0.1-0.3,0.1-0.4,0.1c-0.1,0-0.2,0-0.5,0l-3.9,0.9c-0.3-0.1-1,0.1-1.9,0.6c-0.6,0.2-1.1,0.4-1.2,0.4
		c-0.1,0-0.3,0-0.6,0c-0.4,0.1-0.6,0.1-0.7,0.1C29.2,30.2,29.1,30,29.1,29.7z"/>
	<path class="st0" d="M64,13.4c0-0.4,0.2-0.6,0.6-0.6c0.2-0.1,0.8,0.3,1.7,1.1c0.9,0.8,1.5,1.2,1.7,1.2l1.8,1.3
		c-0.1,0-0.1,0-0.1,0.1c-0.1,0.1-0.2,0.1-0.5,0.1c0,0,0,0-0.1,0c-0.2-0.1-0.3-0.1-0.4-0.1l-4.5-2.7C64.1,13.9,64,13.7,64,13.4
		 M62.9,29.3c-0.3,0-0.9,0-1.7,0.1c-0.8,0.1-1.4,0.1-1.8,0.1c-0.2,0-0.5,0-0.7,0c-0.1-0.2-0.3-0.3-0.6-0.4c-0.6-0.2-0.9-0.4-0.9-0.9
		c0-0.2,0.2-0.3,0.5-0.4c0.3,0,0.6,0,0.9,0c0.2,0,0.6,0,1.1,0c0.5,0.1,0.9,0.1,1.1,0.1c0.2,0,0.3,0,0.4,0c3.3-1.9,6.5-4.5,9.6-8
		c0.1-0.2,0.3-0.6,0.7-1h-0.2c-0.5,0.2-1.1,0.4-1.8,0.7c-1.1,0.4-1.9,0.7-2.7,1c-0.1,0-0.2,0-0.4,0.1c-1.6,0.5-2.8,0.7-3.5,0.6
		c0,0-0.2,0-0.5,0c-0.4-0.1-0.6-0.1-0.7-0.1c-0.2,0-0.2-0.1-0.2-0.2c0-0.5,0.2-0.7,0.6-0.7c0.7,0,1.4,0,2.1,0
		c1.3-0.2,3.2-0.9,5.7-1.8c0.7-0.2,1.2-0.4,1.5-0.5c0.2,0.1,0.6,0,1-0.2c0.4-0.2,0.7-0.2,1-0.2c0.3,0.1,0.5,0.2,0.5,0.5
		c0,0.1-0.1,0.2-0.2,0.4c-0.1,0.1-0.1,0.2-0.1,0.2c-1.6,2.1-4.1,4.6-7.4,7.4c-0.2,0.2-0.6,0.5-1.2,0.9c-0.6,0.5-1.1,0.9-1.3,1.1
		l0.2,0.1c1.3,0.2,2.2,0.3,2.8,0.4c2.4,0.3,4.9,0.5,7.5,0.5c0.7,0,1.4,0,2.1,0c0.5-0.2,1.1-0.2,1.7-0.2c0.2,0,0.4,0,0.6,0
		c0.1,0,0.1,0,0.1,0.1c-0.1,0.6-0.5,1.1-1.3,1.2c-0.2,0-0.2,0-0.2,0s-0.2,0-0.6,0c-0.6-0.1-1-0.1-1.1-0.1c-0.3,0-0.6,0-1,0.1
		c-1.5,0-3.6-0.1-6.4-0.4c-1-0.2-1.7-0.2-2.1-0.2c-0.1,0-0.4,0-1.1-0.1c-0.7-0.1-1.1-0.1-1.2-0.1C63.2,29.3,63.1,29.3,62.9,29.3z"/>
	<path class="st0" d="M100.6,26.9c0.2,0.6,0.3,1.1,0.5,1.3c0.2,0,0.3-0.1,0.5-0.4c0.2-0.2,0.4-0.2,0.5-0.2c0.3-0.1,0.7-0.1,1.2,0
		c0.3,0,0.6,0,0.9,0c0.2-0.1,0.4-0.2,0.6-0.4c0.2-0.2,0.3-0.4,0.5-0.4c0.1-0.1,0.2-0.3,0.5-0.6c0.3-0.3,0.5-0.5,0.5-0.6
		c0.3-0.3,0.5-0.6,0.5-1c0.1-0.3,0-0.5-0.2-0.5C102.9,24.5,100.9,25.4,100.6,26.9 M99.9,29.7c-0.4-0.2-0.6-0.4-0.6-0.6
		s0.1-0.4,0.2-0.6c0.1-0.2,0.1-0.3,0.1-0.5c-0.2-2-0.6-3.3-1.1-3.8c0,0,0,0-0.1,0c-0.1,0-0.2,0-0.2,0.1c-0.2,0.2-0.3,0.2-0.4,0.2
		c-0.4-0.1-0.7-0.5-0.9-1.2c-0.1,0-0.7,0.9-1.8,2.6c-0.2,0.2-0.2,0.4-0.2,0.5c-0.6,0.7-1.2,1.4-1.9,2.1c0,0-0.4,0.4-1.1,1.1
		c-1.5,1.6-2.4,2.5-2.6,2.7c-0.4,0.3-0.8,0.7-1.1,1.1c-0.1,0-0.2,0-0.2,0c-0.7,0-1.1-0.5-1-1.5c0-0.2,0-0.6,0.1-1c0-0.3,0-0.6,0-0.7
		c0-0.3,0-0.6,0-0.9c-0.1-0.2-0.1-0.3,0-0.4l-0.6-4.9c-0.2-0.5-0.3-1-0.4-1.5c0,0,0-0.1,0-0.2c-0.1-0.2,0.1-0.3,0.5-0.4
		c0.3,0,0.5,0.2,0.6,0.5c0.4,1.3,0.7,3.4,0.9,6.2c0,0.2,0,0.5,0,0.9l0.1,0.2c0,0.2,0,0.4-0.1,0.7C88,30.9,88,31.2,88,31.4
		c0,0.2,0,0.3,0.1,0.5c0.8-0.6,1.5-1.3,1.9-1.9c0-0.3,0-0.9,0.1-1.6c0.2-1.1,0.2-1.9,0.2-2.4c0-0.1,0-0.3,0-0.7
		c-0.1-0.4-0.1-0.6-0.1-0.7c-0.2-0.2-0.2-0.8-0.2-1.6c0-1.4-0.2-2.1-0.6-2.3c0,0-0.1,0-0.4-0.1c-0.4,0-0.6,0-0.6-0.1v-0.9
		c0.2,0,0.4-0.1,0.4-0.2c0-0.1,0-0.1,0-0.1l-0.1-0.2c-0.1-0.1-0.2-0.5-0.5-1.2C88,17.2,88,16.9,88,16.8c0-0.1-0.2-0.5-0.5-1.3
		c-0.3-0.7-0.5-1.1-0.6-1.2c-0.1-0.2-0.1-0.4-0.1-0.6c0-0.5,0.2-0.7,0.6-0.7c0.2,0,0.4,0.2,0.4,0.7l1.1,2.3c0.1,0.7,0.4,1.6,1,2.7
		c1.4-0.8,2.6-2.1,3.5-3.9c-0.1-0.2-0.6-0.4-1.5-0.4c-0.3,0-0.8,0-1.5,0c-0.7,0.1-1.3,0.1-1.6,0.1c-0.1,0-0.2,0-0.4,0
		c-0.2-0.2-0.2-0.4-0.2-0.6c0-0.3,0.2-0.5,0.7-0.5h3.9c0.1,0,0.2,0,0.4,0.1c0.8,0.1,1.2,0.3,1.2,0.6c0,0.8-0.5,1.8-1.6,3
		c-0.2,0.2-0.4,0.4-0.5,0.6h0.1c1-0.2,1.5-0.4,1.7-0.6c0.2,0.1,0.3,0.2,0.4,0.5c0,0.3-0.2,0.6-0.6,0.7c0-0.1-0.1-0.1-0.2-0.1
		c-0.1,0-0.1,0-0.1,0.1l-2.1,1c-0.3-0.1-0.5,0.1-0.5,0.5c0,0.3,0,0.6,0.1,0.9c0,0.9,0,2,0.1,3.3c0.1,0.4,0.1,0.7,0.1,1
		c0.3-0.3,0.8-0.7,1.3-1.2c0.9-0.8,1.5-1.5,1.9-1.9c0.2,0.1,0.3,0,0.5-0.1c0.2-0.2,0.3-0.2,0.4-0.2c0.2,0,0.4,0.1,0.6,0.4
		c-0.2,0.2-0.3,0.5-0.4,0.7c-0.1,0.1-0.3,0.2-0.6,0.4c-0.2,0.1-0.6,0.5-1.3,1.2h-0.1c-0.6,0.6-1.1,1-1.2,1.2c-0.6,0.8-0.9,1.8-1,2.9
		c0,0.2,0,0.3,0,0.4c0.6-0.4,1.5-1.2,2.6-2.4c1-1.1,1.7-1.9,2.3-2.3c0.3-0.3,0.5-1.1,0.6-2.3c0.1-0.7,0.2-1.1,0.2-1.1
		c0.2,0.2,0.2,0.6,0.2,1.2c0.1,0.9,0.3,1.3,0.6,1.3c0.2-0.3,0.5-0.8,1-1.5c0.2-0.2,0.3-0.4,0.4-0.6c0.9-1.5,1.4-2.4,1.5-2.8
		c0-0.2-0.2-0.2-0.5-0.2c-0.1-0.2-0.3-0.3-0.6-0.4c-0.1-0.1-0.4-0.2-0.9-0.4c-0.6-0.2-0.9-0.4-1-0.4c-0.2,0.1-0.4,0.3-0.4,0.6
		c0,0.2,0,0.4-0.1,0.4l-0.1-0.1v-1.1c-0.1,0-0.1-0.1-0.1-0.4c0-0.4,0.2-0.6,0.7-0.6c0.2,0,0.6,0.2,1,0.5c0.2,0.1,0.4,0.2,0.5,0.2
		c0.4,0.2,1.1,0.4,1.9,0.9c0.5-0.2,0.9-1.2,1.3-2.8c0-0.3,0-0.5-0.1-0.5c0,0,0,0-0.1,0.1c-0.7,0.5-1.3,0.7-1.6,0.7
		c-0.7,0-1.1-0.3-1-1c0-0.2,0-0.3,0-0.5c0.2,0,0.6-0.4,1.1-1.2c0.6-1.1,1.2-1.5,1.6-1.3c0.2,0.2,0.4,0.3,0.4,0.5
		c0,0.2-0.2,0.5-0.5,0.9c-0.2,0.3-0.4,0.6-0.4,0.7c0.2,0,0.4-0.1,0.6-0.2c0.3-0.1,0.5-0.1,0.6-0.1c0.3,0,0.5,0.4,0.6,1.1
		c0.1,0.2,0.1,0.3,0.1,0.4c-0.3,1.3-0.8,2.6-1.5,3.8c0,0,0,0-0.1,0.1c0.2,0.2,1.3,0.9,3.2,2.1c0.1,0,0.2,0.1,0.4,0.2
		c0.7,0.2,1.1,0.4,1.2,0.6l2.1,1l0.2,0.1l1.6,0.4c0.1,0,0.1,0.1,0.1,0.2c0,0.5-0.3,0.7-1,0.7c-0.3,0-0.6-0.2-1-0.5
		c-0.2-0.2-0.4-0.4-0.6-0.5c-0.8-0.3-1.9-0.9-3.4-1.7c-0.7-0.4-1.3-0.7-1.7-0.9c-0.2-0.1-0.4-0.2-0.6-0.4c-0.3-0.3-0.6-0.5-1-0.5
		c-0.2,0-0.3,0.1-0.4,0.4c0,0.2,0,0.2-0.1,0.2l-1.7,2.8h-0.1c-0.2,0.3-0.2,0.6-0.2,0.7c0,0,0,0.1-0.1,0.2c0,0.4,0.3,1.1,0.9,1.9
		c0.1,0,0.1,0,0.1,0c0.1,0,0.2,0,0.4-0.1c2.3-1.1,4.1-1.7,5.5-1.6c1.2,0,1.8,0.2,1.8,0.6v1c0,0,0,0-0.1,0.1c-1,2.2-2,3.3-3.2,3.3
		c-0.5,0-0.8-0.1-0.9-0.4h-1.3c-0.2,0-0.4,0.2-0.7,0.5c0.7,0.2,1.5,0.2,2.2,0.2c1.2,0,2.4-0.1,3.6-0.4c0.2,0,0.3-0.1,0.5-0.2
		c0.2-0.1,0.4-0.1,0.5-0.1c0.3,0,0.5,0.1,0.5,0.4c-0.1,0.6-0.5,0.9-1.2,1.1c-0.1,0-0.4,0-0.9,0.1c-0.5,0.1-0.8,0.1-0.9,0.1h-4.9
		c0,0.2,0,0.6,0.1,1.1c0,0.5,0,0.9,0,1.1c0,0.6-0.1,1.2-0.4,1.6c0,0,0,0-0.1,0c-0.4,0-0.6-0.6-0.7-1.8c-0.1-0.2-0.1-0.4-0.1-0.5
		c0-0.1,0-0.3,0-0.7C99.9,30,99.9,29.8,99.9,29.7z"/>
	<path class="st0" d="M121.4,33.2l-0.1-0.1c0.6-0.3,0.9-0.9,0.9-1.7c0-0.2,0-0.3,0-0.4c-0.2,0.1-0.3,0.1-0.5,0.1
		c-0.7-0.2-1.3-0.8-1.7-1.7c0-0.2,0.1-0.4,0.4-0.7c0.2-0.2,0.2-0.4,0.2-0.5c0.1-0.1,0.2-0.2,0.5-0.2c0.3-0.1,0.5-0.1,0.5-0.1
		c0.3,0,0.7,0.2,1.2,0.7c0.4,0.2,0.6,0.9,0.6,1.9c0,1.1-0.3,2-1,2.9c-0.1,0-0.2,0.1-0.5,0.2c-0.4,0.3-0.7,0.5-0.9,0.5
		c-0.2,0-0.4-0.1-0.5-0.4c0-0.1,0.2-0.2,0.5-0.2C121.3,33.4,121.4,33.3,121.4,33.2"/>
	<path class="st0" d="M151.1,23.5c0-0.1,0-0.1,0-0.1c0.3-0.3,0.5-0.5,0.6-0.5c1-1.4,1.8-2.6,2.4-3.6l1.9-3.8c0.1-0.4,0.2-0.7,0.2-1
		c0-0.1,0-0.1,0-0.1c-0.2,0-0.5,0-0.9,0c0,0-0.2,0-0.7,0.1c-0.7,0.2-1.1,0.2-1.2,0.2c-0.3,0.1-0.8,0.1-1.5,0.1
		c-1.9,0.1-3.2,0.4-4,0.9c0,0.2-0.1,0.4-0.2,0.4c-0.2,0.1-0.3,0.1-0.5,0.1c-0.7-0.1-1.1-0.3-1.1-0.6c0-0.1,0.1-0.2,0.4-0.5
		c0.6-0.3,1-0.5,1.1-0.6h0.1c0.3-0.1,1.2-0.2,2.7-0.4c4.1-0.5,6.1-0.9,6.2-1.3c0-0.1,0-0.3,0.1-0.6c0.1-1.4,0.3-2.1,0.7-2.1
		c0.4,0,0.6,0.2,0.6,0.5c0,0.6,0,0.9-0.1,0.9h-0.1c0,0.5,0,0.8-0.1,1c0,0.2,0,0.2,0,0.2h0.4c0.1,0,0.6-0.1,1.7-0.2
		c1.2-0.2,2-0.2,2.3-0.2c0.2,0,0.6-0.1,1.1-0.2c1.5-0.2,2.6-0.4,3.4-0.4c0,0,0.2,0,0.5,0c0.5,0.1,0.8,0.1,0.9,0.1
		c0.2,0,0.4,0.1,0.4,0.4c-0.2,0.7-0.6,1.2-1.2,1.3c-0.2,0-0.3-0.1-0.4-0.4c-0.2-0.2-0.3-0.4-0.5-0.4c-0.2,0-0.5,0-0.7,0
		c-0.2,0-0.4,0-0.6,0c-0.9,0.2-2.1,0.3-3.8,0.5c-0.1,0-0.3,0-0.6,0.1c-1.4,0.2-2.3,0.4-2.7,0.6c-0.1,0.1-0.2,0.2-0.4,0.4
		c-0.1,0.2-0.2,0.4-0.4,0.5c-0.2,1.1-0.9,2.9-2.3,5.2c-0.1,0-0.1,0-0.1,0.1c-0.1,0.1-0.1,0.1-0.1,0.1c-0.1,0.1-0.3,0.4-0.7,1.1
		c-0.4,0.6-0.6,1.1-0.7,1.2c-0.2,0.1-0.3,0.2-0.5,0.5c-0.4,0.5-0.8,0.7-1.1,0.7C151.3,23.7,151.1,23.6,151.1,23.5 M159,22.9
		c0,0.3,0,0.9,0,1.6c-0.1,0.7-0.1,1.3-0.1,1.7c0,0,0,0,0,0.1l0.5-0.2l4-1.3c0.2-0.1,0.4-0.4,0.4-0.9c0-3.8-0.1-6.6-0.4-8.5
		c-0.1,0-0.2,0-0.2,0c-2.5,0.6-3.9,1.5-4.3,2.4v2.1c0.2,0.2,0.2,0.5,0.1,1c0,0.2,0,0.2,0,0.2c0.4-0.1,0.9-0.1,1.5-0.1
		c0.1,0,0.2,0,0.4,0c1.5-0.1,2.3,0.3,2.3,1.1c0,0.2,0,0.3,0,0.4c0,0,0,0-0.1,0.1c-0.1,0-0.2-0.1-0.5-0.2c-0.4-0.2-0.9-0.4-1.3-0.4
		c-0.6,0.1-1.1,0.2-1.6,0.4c-0.1,0.1-0.2,0.2-0.2,0.4C159.3,22.8,159.1,22.9,159,22.9z M156.1,34.3c0-0.3,0-0.6,0-0.7
		c0.1-0.1,0.1-0.2,0.1-0.2c0.1-0.5,0.2-0.9,0.4-1.3c0.2,0,0.2,0.1,0.2,0.4c0,0.3,0,0.7,0,1.1c0.1-0.2,0.2-0.6,0.2-1.1
		c0.1-0.3,0.1-0.5,0.1-0.6c0-0.2,0.1-1,0.2-2.2c0.1-1.3,0.1-2,0.1-2.2c0.2-0.2,0.3-0.7,0.2-1.3c0-0.2,0-0.4,0-0.5
		c0-0.1,0-0.5,0.1-1.2c0-0.5,0-0.7,0-0.7c0-0.3,0-0.8,0-1.3c0-1.1-0.1-1.9-0.2-2.7c-0.1,0-0.2,0.1-0.2,0.2c0,0.2-0.1,0.4-0.2,0.4
		c0,0,0,0,0-0.1c0-0.1,0-0.2-0.1-0.5c0-0.2,0-0.4-0.1-0.4c0-0.1,0-0.1,0-0.1c0-0.2,0.1-0.6,0.2-1c0.2-0.5,0.3-1,0.2-1.5
		c0.2-0.2,0.4-0.3,0.9-0.4c0.2,0,0.4,0,0.5-0.1c0.2-0.2,0.6-0.4,1.2-0.6c1.4-0.9,2.5-1.3,3.4-1.3c0.7,0,1.1,0.2,1.2,0.6
		c-0.1,1.5-0.1,3.8,0,6.8c0.1,2,0.1,3.5,0.1,4.5c0.1,0.4,0.1,0.9,0,1.5c0,0.4,0,0.7,0,0.9c0,0.6,0,1.7,0.1,3.2c0,1.3,0,2.3,0.1,2.9
		c0,0.2-0.1,0.4-0.2,0.5c-0.1,0.2-0.2,0.3-0.5,0.2c-0.2,0-0.4-0.2-0.6-0.6c-0.2-0.2-0.3-0.4-0.4-0.5c-0.1-0.1-0.2-0.2-0.2-0.4
		c-1.4-2-2.1-3.6-2.1-4.7c0-0.2,0-0.3,0-0.5l0.2,0.2l1,2.3c0.4,0.3,0.9,0.9,1.5,1.6h0.1c0.1-0.3,0.1-0.6,0.1-0.7
		c0-2.8-0.1-5-0.2-6.6l-1.8,0.9c-0.1,0.1-0.3,0.2-0.6,0.2c0,0-0.1,0-0.4,0.1c-1.1,0.6-1.7,0.9-1.8,1c0,0.2-0.1,0.2-0.4,0.2
		c-0.1,0.1-0.2,1.4-0.5,3.9c-0.2,1.1-0.2,1.7-0.2,1.8c-0.1,0.2-0.2,0.9-0.5,1.9l-0.6,0.7h-0.1c-0.5,0-0.7-0.6-0.6-1.7
		C156.1,34.4,156.1,34.3,156.1,34.3z"/>
	<path class="st0" d="M227.1,15.9c-0.1,0-0.2,0-0.5,0c-0.6-0.1-1,0.1-1,0.5c0.9-0.1,1.4-0.2,1.5-0.4V15.9z M224.9,32
		c0-0.5,0-1.1,0.1-1.9c0.1-0.9,0.1-1.5,0.1-1.9c0.1-0.9,0-1.7-0.1-2.4c-0.1-0.7-0.2-1.6-0.4-2.7c-0.1-0.5-0.2-0.9-0.2-1.2l-0.1-0.1
		c-0.2,0.2-0.2,0.3-0.2,0.4c-0.2,0.5-0.5,1.3-1.1,2.4l-3.8,6.6c-0.2,0.6-0.5,1.1-1,1.5c-0.2-0.1-0.4-0.2-0.5-0.5
		c0.2-1.3,0.8-2.4,1.7-3.4c0.3-0.6,0.8-1.3,1.3-2.3c1.3-2,2.1-3.7,2.3-5c0-0.1,0-0.1,0-0.1c0,0.2-0.1,0.2-0.4,0.2v-0.1
		c0-0.1,0.2-0.4,0.5-0.9c0.5-0.6,0.8-1.1,0.9-1.3c0.2-0.6,0.3-1.5,0.5-2.8c0-0.1,0-0.2,0-0.2c-0.2,0-0.5,0-0.7,0
		c-0.6,0-1.4,0.1-2.6,0.2c-1.1,0.1-1.9,0.1-2.4,0.1c-0.2-0.1-0.4-0.3-0.5-0.6c0.1-0.3,0.4-0.5,0.9-0.6c0.1-0.1,0.4-0.1,1,0
		c0.6,0,1.4,0,2.6-0.1c2.3-0.1,4-0.2,5.1-0.2c0.2,0,0.6-0.1,1-0.2c0.7-0.2,1.3-0.2,1.6-0.2c0.1,0,0.2,0,0.2,0c0.2,0,0.2,0.1,0.2,0.2
		c0,0,0,0,0,0.1c-0.2,0.5-0.9,0.9-1.8,1.2c-0.6,0.2-1,0.4-1.2,0.6c-0.3,0.1-0.8,0.3-1.5,0.6c-0.2,0.1-0.4,0.2-0.6,0.2
		c0,0.1-0.1,0.4-0.2,0.9c-0.1,0.5-0.2,0.8-0.2,0.9c0,0.2,0,0.3-0.1,0.5c-0.1,0.1-0.1,0.2-0.1,0.2c0,0.6,0.2,1.2,0.5,1.7l0.6,3.2
		c0.1-0.1,0.2-0.2,0.2-0.5c0.1-0.2,0.1-0.3,0.1-0.4c0.3-0.8,1.1-1.2,2.4-1.2c0.7,0,1.8,0.2,3.2,0.6c0.4,0.1,0.7,0.2,0.9,0.2
		c0.9,0.1,1.4,0.2,1.6,0.2c0.2,0,0.6,0.2,1.2,0.5c0.1,0.1,0.1,0.2,0.1,0.4c-0.1,0.5-0.4,0.8-0.9,0.9c-0.1,0-0.2-0.1-0.2-0.4
		c-0.1-0.2-0.2-0.3-0.4-0.4c-0.2,0-0.4-0.1-0.9-0.2c-0.6-0.2-1.1-0.3-1.5-0.2l-2.2-0.5c-0.1,0-0.2,0-0.4-0.1c-0.2,0-0.2,0-0.2,0
		c-1.6,0.1-2.6,0.5-2.8,1.3c0,0.2,0,0.3,0,0.5c0,0.2,0,0.3-0.1,0.5v5.4c0,0.4-0.3,0.9-0.9,1.5h-0.1C225.1,32.7,224.9,32.5,224.9,32z
		"/>
	<path class="st0" d="M256.8,9.4c-0.5-0.1-0.8-0.6-0.9-1.5c0-0.2,0-0.3,0-0.4c0,0,0,0,0.1-0.1c0.2-0.2,0.3-0.3,0.4-0.2
		c0.2,0.1,0.4,0.3,0.5,0.6c0.1,0.2,0.2,0.4,0.2,0.5l2.6,2.6c0.9,0.4,1.5,1.3,1.7,2.6c0,0,0,0.1,0,0.2c-0.1,0.2-0.1,0.3-0.1,0.4
		c0,0-0.1,0-0.2,0c-0.2,0-0.4-0.2-0.6-0.7c-0.1-0.4-0.2-0.6-0.2-0.7c-0.3-0.4-0.9-0.9-1.7-1.6C257.7,10.2,257.1,9.7,256.8,9.4
		 M257.7,19.1c0,0.6,0.2,1,0.5,1c1.1-0.3,1.9-1,2.2-2.1c-0.1,0-0.2,0-0.4,0c-0.1,0-0.4,0-0.9,0c-0.5,0.1-0.8,0.1-0.9,0.1
		C257.9,18.4,257.7,18.7,257.7,19.1z M256.7,22.4c-0.1,0-0.2,0-0.4,0c-0.2,0.1-0.3,0.1-0.5,0.1c-0.4,0-0.6-0.2-0.6-0.6
		c0-0.1,0-0.2,0-0.2l1.3-0.7c0,0,0,0,0-0.1c-0.1-0.3-0.2-0.8-0.4-1.5c-0.5-1.8-0.7-3.1-0.6-4c-0.1,0-0.2,0-0.4,0
		c-1.5,0.1-2.3-0.1-2.3-0.6c0-0.2,0-0.2,0-0.2c0.6-0.2,1.4-0.4,2.6-0.4c0.2,0,0.5,0,1,0.1l0.2,0.1c0.2,0,0.6,0,1.1,0
		c1.5,0,2.6,0,3.2-0.1c0.6-0.2,1.4-0.3,2.2-0.5c0,0,0.1,0,0.2,0c0.4,0,0.6,0.2,0.6,0.5c0,0.6-0.5,0.8-1.6,0.6c0,0-0.2,0-0.7,0.1
		c-0.5,0.2-0.8,0.2-0.9,0.2c-2.7,0.1-4.1,0.2-4.1,0.2c0,0.2,0,0.4,0.1,0.7c0.1,0.2,0.1,0.4,0.1,0.5c0,0.1,0,0.3,0.1,0.6
		c0,0.2,0,0.2,0,0.2c0.1,0,0.1,0,0.1,0.1c0.2,0,0.4-0.1,0.6-0.2c0.2-0.2,0.4-0.2,0.5-0.2c0.6-0.1,1.3-0.1,2.2-0.1c0.3,0,0.6,0,1,0
		c0.2,0.1,0.3,0.2,0.2,0.5c0,0.4-0.2,0.9-0.7,1.3c-0.3,0.4-0.5,0.7-0.6,1c0,0.1,0,0.2,0.1,0.4c0,0.1,0,0.2,0,0.2
		c0,0.2-0.4,0.4-1.1,0.6c-0.6,0.1-0.9,0.2-1,0.4c-0.2,0.1-0.2,0.3-0.2,0.7c-0.1,0.5-0.3,0.8-0.6,0.9c-0.2-0.2-0.4-0.4-0.6-0.6
		C256.9,22.4,256.8,22.4,256.7,22.4z M246.4,34.9c0-0.2,0-0.3,0-0.4c0.2-0.8,0.4-2.1,0.7-3.8c0.7-3.3,1.1-5.9,1.1-7.8
		c-0.1-2.9-0.7-4.4-1.9-4.5c0,0,0,0-0.1,0c-1.5,2.3-2.4,3.8-2.8,4.5c0,0-0.1,0.1-0.2,0.2c-0.6,0.9-1.1,1.3-1.2,1.3
		c-0.2,0-0.3-0.2-0.4-0.5c0-0.3,0.3-0.8,0.9-1.3c0.2-0.2,0.3-0.4,0.4-0.5c0-0.2,0.1-0.4,0.4-0.6c0.2-0.6,0.7-1.3,1.5-2.3
		c1.2-1.7,1.9-3,2.1-4c0-0.1,0-0.2,0-0.5c0-0.7,0.2-1.1,0.7-1.1c0.2,0,0.2,0,0.2,0.1c0.1,0,0.1,0.2,0.1,0.5c0,0.5-0.1,1.1-0.4,1.8
		c0.1-0.1,0.1,0,0,0.1c-0.2,0.2-0.3,0.5-0.5,1c0,0.1,0,0.2-0.1,0.4c0,0.1,0.2,0.2,0.6,0.5c0.6,0.3,0.9,0.6,1,0.7
		c0.6,0.7,0.8,1.9,0.7,3.5c0,1.6-0.2,3.9-0.7,6.9c0,0.3-0.1,0.8-0.2,1.5c-0.2,1-0.2,1.7-0.2,2.2c0.2-0.1,0.3,0,0.2,0.2
		c0,0.2,0,0.3-0.1,0.4c-0.1,0-0.1,0-0.1,0.1c0,1.2-0.4,1.8-1.1,1.8C246.6,35.5,246.4,35.3,246.4,34.9z M262,35.5l-0.9-1.8
		c0,0,0,0-0.1-0.1c0.1,0,0.1,0,0.1,0c0-0.2,0-0.3,0-0.4c0.3,0.2,0.6,0.4,0.7,0.6c0.1,0.2,0.2,0.3,0.2,0.4c0.2-0.1,0.2-0.3,0.2-0.6
		c0.2-0.6,0.2-1.7,0-3c-0.1-0.4-0.1-0.7-0.1-0.9c-0.2-1.9-0.5-2.8-1-2.9c0,0,0,0-0.1,0c-0.2,0.1-0.6,0.2-1.1,0.2
		c-0.9,0.2-1.6,0.4-2.1,0.5c0,0,0,0-0.1,0c-0.1,0-0.4,0.1-1.1,0.4c-0.6,0.2-1.1,0.3-1.2,0.4c-0.1,0-0.2,0-0.5,0.1
		c-0.7,0.1-1.3,0.2-1.7,0.4c-0.2-0.1-0.4-0.3-0.5-0.6c0-0.2,0.3-0.4,0.9-0.6c0.5-0.1,0.7-0.2,0.7-0.5v-0.1l-1.1-3.8
		c0.1-0.1,0.1-0.2,0-0.2c-0.1-0.1-0.1-0.1-0.1-0.1c0-0.2,0.2-0.4,0.7-0.4c0.6,0.1,1,0.2,1,0.4c0,0.1,0,0.2-0.1,0.2
		c-0.1,0.1-0.1,0.2-0.1,0.2c0,0.1,0,0.2,0.1,0.4l0.6,2.8c-0.1,0.2,0,0.3,0.2,0.5c0.1,0,0.2-0.1,0.4-0.4c0.2,0,0.2,0,0.2,0.1
		c0.1,0,0.2,0,0.4,0c0.3,0,0.9-0.1,1.6-0.2c0.3-0.1,0.6-0.1,0.7-0.1c0.1,0,0.2,0,0.5-0.1c0.9-0.2,1.5-0.3,1.7-0.5
		c0.2-0.2,0.2-0.3,0.2-0.4c0.4-0.2,1.1-0.5,1.9-0.7l1.3-1.3c0.1-0.2,0.1-0.3,0.1-0.5c0-0.1,0-0.1,0-0.1c-0.1,0-0.5,0.1-1.2,0.4
		c-0.7,0.2-1.2,0.3-1.3,0.4c-1.5,0.3-3.1,0.7-4.7,1.2c-0.3,0.1-0.5,0.2-0.6,0.5c-0.1,0.2-0.2,0.4-0.4,0.5c0,0,0,0-0.1,0.1
		c-0.2,0-0.3-0.3-0.4-0.9c0.1-0.5,0.5-0.9,1.2-1.2l4.5-1.1h0.1l3.4-1c0.2-0.1,0.3-0.1,0.4-0.1c0.3,0,0.5,0.1,0.5,0.2
		c0,0.1,0,0.2,0,0.4c0,0.6-0.3,1.3-1,2.1c-0.3,0.3-0.6,0.6-0.7,0.9h0.1c0.1,0,0.1,0,0.1,0c1-0.2,1.9-0.5,2.7-0.7c0,0,0,0,0.1,0
		c0.3,0.1,0.5,0.2,0.5,0.4c-0.2,0.6-0.7,1-1.6,1l-3.4,0.9c0,0.1,0,0.2,0,0.4c0,0.6,0.1,1.4,0.4,2.6c0.2,1.1,0.2,2,0.2,2.6
		c-0.1,2.3-0.4,3.6-1.1,4L262,35.5z"/>
	<path class="st0" d="M280.1,37.1c0-0.4,0.2-1,0.6-1.8v1.3c0.3-0.1,0.7-0.4,1.2-0.9c0.1-0.1,0.2-0.2,0.2-0.2
		c1.3-1.2,2.9-3.2,4.7-5.8l-0.5,0.2c-0.1,0.1-0.2,0-0.2-0.1c0,0,0,0-0.1-0.1c-0.1-0.1-0.2-0.2-0.2-0.2c0-0.1,0-0.1,0-0.1
		c0-0.2,0.1-0.6,0.2-1.1c0.2-0.5,0.2-0.9,0.2-1.1v-2.9c-0.1-0.2-0.2-0.5-0.2-0.9c-0.1-0.6-0.2-1.1-0.4-1.5c-0.1,0-0.1-0.1-0.1-0.2
		c-0.1,0-0.2,0.1-0.4,0.2c-0.2,0.2-0.4,0.4-0.5,0.4l-2.3,2.4c-0.3,0.2-0.6,0.4-0.7,0.6c-0.1,0-0.2,0.1-0.2,0.2
		c-0.2,0.3-0.4,0.5-0.6,0.5c0,0,0,0-0.1,0c-0.3-0.2-0.5-0.3-0.5-0.5c0-0.2,0.1-0.4,0.2-0.5c0.8-0.9,2.1-2.1,3.9-3.6
		c0.9-0.8,1.5-1.4,1.9-1.8c0.2-0.2,0.2-0.5,0.2-0.7c-0.6,0.2-1.1,0.3-1.5,0.4c-0.3,0.1-1.4,0.4-3.3,1c-0.2,0.1-0.5,0.2-0.7,0.2
		c-0.2,0-0.6,0.1-1.1,0.2c-0.4,0.2-0.7,0.2-1,0.2c-0.2,0.1-0.4,0.2-0.7,0.2c-1.9,0.6-3.2,1-4.1,1c-0.4,0-0.6-0.2-0.6-0.6
		c0-0.1,0-0.2,0.1-0.2l1.9-0.6h0.4l3.2-0.9c2.1-0.4,3.2-0.8,3.3-1.1c-0.1-0.4-0.3-0.9-0.7-1.3l-0.6-1.3c-0.7-0.9-1.2-1.9-1.5-2.9
		c0-0.6,0.2-0.9,0.7-0.9c0.2,0,0.3,0,0.4,0c0.2,0.2,0.2,0.6,0.2,1.2c0.1,0.6,0.4,1.4,1.1,2.6c0.1,0.1,0.2,0.3,0.5,0.7
		c0.2,0.5,0.4,0.8,0.4,0.9c0.1,0.6,0.2,1,0.5,1c0.1,0,0.2,0,0.2,0c-0.1,0,0,0,0.1-0.1c0.6-0.1,1.1-0.2,1.2-0.2c0-0.2,0-0.3-0.1-0.5
		c-0.1-0.2-0.1-0.3-0.1-0.4c0-0.1,0-0.4-0.1-0.9c0-0.5,0-0.8-0.1-0.9c0,0,0-0.1,0-0.2c0.1-1.1,0.1-1.6,0-1.7c0-0.2-0.1-0.6-0.2-1
		c-0.2-0.6-0.3-1-0.2-1.2l-0.7-1.8V8.9c0-0.1,0.1-0.1,0.4-0.1c0.3,0,0.6,0.2,0.7,0.7c0.1,0.1,0.1,0.2,0.1,0.2
		c0.3,0.6,0.6,1.3,0.7,2.1c0.2,0.7,0.2,1.2,0.2,1.5c0,0.2,0.1,0.2,0.2,0.2c0-0.1,0.2-0.2,0.5-0.2c0.5-0.2,1.1-0.3,1.8-0.4
		c0.6-0.3,1.3-0.5,2.1-0.5c0.3-0.1,0.5,0.1,0.5,0.6c0,0.1,0,0.2,0,0.2c-0.2,0.2-0.9,0.3-1.9,0.5c-1.9,0.4-2.9,0.9-3,1.3
		c0,0.3,0,0.6,0,0.7c0,0.6,0,1.1,0.1,1.3c0.1,0,0.2,0,0.2,0c0,0.1,0,0.2,0,0.2c0,0.1,0,0.2,0,0.2c-0.1,0.2-0.1,0.3-0.1,0.4
		c0.6-0.1,1.2-0.2,1.8-0.4c0.2-0.1,0.6-0.2,1.2-0.5c0.7-0.3,1.3-0.6,1.7-0.7c0.2,0.1,0.4,0,0.6-0.1c0.2-0.1,0.4-0.1,0.6-0.1
		c0.6,0,0.9,0.2,0.9,0.5v0.1c-0.2,0.5-1,0.9-2.2,1.2c-0.5,0.2-0.9,0.3-1.1,0.4c-1,0.6-1.9,1.4-2.7,2.3c0.1,0.2,0.2,0.6,0.2,1.2
		c0.1,0.9,0.2,1.5,0.5,1.7c0.2,1.6,0.2,2.9,0.2,3.9c0,0.2,0,0.4-0.1,0.7c-0.2,0.4-0.2,0.7-0.2,0.9h0.1l2.9-5c0-0.1,0.1-0.4,0.4-0.9
		c0.2-0.4,0.2-0.6,0.2-0.7c0.2-0.2,0.2-0.4,0.2-0.9c-0.2,0-0.4,0-0.6,0c-0.2,0.7-0.5,1.2-0.7,1.3c0-0.1,0-0.1-0.1-0.1
		c0.7-1.7,1.5-2.6,2.3-2.7c0.3,0,0.5,0.2,0.6,0.6c0,0.3-0.2,0.9-0.5,1.6c-0.1,0.3-0.2,0.6-0.2,0.7c-0.5,1.3-1.3,2.8-2.6,4.6
		c-0.8,1.5-2.3,3.4-4.5,6c-0.6,0.7-1,1.3-1.2,1.6c-0.1,0.1-0.2,0.3-0.5,0.6c-0.8,0.9-1.4,1.5-1.7,1.7c-0.1,0-0.2,0-0.2,0.1
		c-0.2,0.2-0.3,0.2-0.4,0.2C280.4,37.9,280.1,37.7,280.1,37.1"/>
	<path class="st1" d="M185.1,5.9c1.9,1.5,2.9,2.7,3,3.9c-0.3,1-0.9,1.6-1.9,1.7c-0.6-0.1-1-0.5-1.1-1.1c0.2-2,0.1-3.4-0.3-4.2
		C184.8,5.9,184.9,5.8,185.1,5.9 M191.4,5.6c2.3,1.3,3.3,2.6,3.1,3.7c-0.3,0.8-0.9,1.4-1.9,1.7c-0.7,0-1.1-0.3-1.2-0.9
		c0.3-2,0.2-3.4-0.3-4.3C191.1,5.5,191.2,5.5,191.4,5.6z M199.2,23.6l-9,0.3c1.1,2,2.6,3.7,4.5,5.1
		C196.2,27.5,197.7,25.7,199.2,23.6z M198.9,0l2.2,3.1c0.1,0.3,0,0.5-0.3,0.5c-5.7,0.7-11.5,1.3-17.4,1.7c-0.2,0-0.3,0-0.3-0.2
		c-0.1-0.1-0.1-0.2,0.2-0.3C189.8,3.6,195.1,2,198.9,0z M200,4.7l3.4,2.2c0.3,0.2,0.3,0.4-0.2,0.6l-0.8,0.5l-5.3,3.7l6.4-0.3
		l1.9-1.2l3.6,3.6c0.2,0.2,0.3,0.4,0.2,0.6c0,0.2-0.2,0.3-0.6,0.3c-2.2-0.1-3.9,0.4-5.3,1.4c-0.3,0.1-0.5,0-0.5-0.3l0.9-3.4
		L182,12.9c-0.4,2.3-1.6,4.1-3.6,5.4c-0.4,0.3-0.7,0.3-0.8-0.2c-0.3-1.3-0.3-2.3,0.2-3c1.3-0.9,2-2.4,1.9-4.3c0-0.3,0.1-0.5,0.2-0.5
		c0.1-0.1,0.3-0.1,0.6,0.2c0.6,0.4,1.1,0.9,1.4,1.6l14.6-0.5C198.2,8.7,199.4,6.3,200,4.7z M184.6,19.6c-1.7,0.1-3.1,0.3-4.3,0.5
		L179,19l8.4-0.2c0.6-1.8,1.1-3.6,1.4-5.6l3.6,1.6c0.3,0.1,0.3,0.3,0,0.6l-0.6,1.1c-0.2,0.8-0.5,1.6-0.8,2.2l11.7-0.2L205,16
		l3.1,2.8c0.2,0.2,0.2,0.3,0,0.3l-17.4,0.3c-0.4,1.3-1,2.6-1.9,3.7l10.4-0.3l1.7-1.9l3.1,2c0.3,0.2,0.3,0.4-0.2,0.6l-1.1,0.9
		c-2,2.2-3.9,4.2-5.9,6.1c3.4,1.8,7.6,3.1,12.4,3.9c0.3,0.2,0.4,0.4,0.2,0.6c-1.7,0.1-3.4,1.2-5.1,3.3c-3.8-1.8-7-3.8-9.5-6.2
		c-3.3,2.1-8.5,4-15.5,5.9c-0.4,0.2-0.5,0.1-0.3-0.3c6.9-2.4,11.7-4.8,14.3-7.3c-1.3-1.9-2.5-4-3.6-6.5l-1.4,0.2
		c-2.4,4.2-7,8.7-13.8,13.2c-0.5,0.1-0.6,0-0.3-0.3c6.5-4.9,10.8-10.7,12.9-17.4H184.6z"/>
</g>
<g>
</g>
<g>
</g>
<g>
</g>
<g>
</g>
<g>
</g>
<g>
</g>
<g>
</g>
<g>
</g>
<g>
</g>
<g>
</g>
<g>
</g>
<g>
</g>
<g>
</g>
<g>
</g>
<g>
</g>
</svg>
