<?xml version="1.0" encoding="utf-8"?>
<!-- Generator: Adobe Illustrator 17.0.0, SVG Export Plug-In . SVG Version: 6.00 Build 0)  -->
<!DOCTYPE svg PUBLIC "-//W3C//DTD SVG 1.1//EN" "http://www.w3.org/Graphics/SVG/1.1/DTD/svg11.dtd">
<svg version="1.1" id="Layer_1" xmlns="http://www.w3.org/2000/svg" xmlns:xlink="http://www.w3.org/1999/xlink" x="0px" y="0px"
	 width="425.1px" height="46.7px" viewBox="0 0 425.1 46.7" style="enable-background:new 0 0 425.1 46.7;" xml:space="preserve">
<style type="text/css">
	.st0{fill:#FFFFFF;}
</style>
<g id="text-2.svg">
	<path class="st0" d="M29.1,5.1L29.1,5.1c-0.4,0-1,0.1-1.9,0.2c-1.9,0-3.1,0.1-3.6,0.4l-1.5-1.3l16.1-0.6l2.2-2.1l3,2.4
		c0.2,0.1,0.4,0.2,0.4,0.2c0,0.1-0.1,0.2-0.4,0.4L29.1,5.1z M25.5,26.1L25.5,26.1v5.8h4.7v-5.8H25.5z M39.2,25.9L39.2,25.9l-5.1,0.2
		v5.6H39L39.2,25.9z M25.5,32.8L25.5,32.8v7.3l4.7-0.2v-7.1H25.5z M34.2,39.9L34.2,39.9l4.9-0.2v-7.1l-4.9,0.2V39.9z M37.2,11.3
		L37.2,11.3l-9.7,0.2V19l9.6-0.6L37.2,11.3z M27.4,19.7L27.4,19.7c-0.2,0.8-0.9,1.5-2.1,2.2c-0.5,0.4-0.8,0.3-0.9-0.2v-5.4V13
		c0.1-0.6,0.1-1.6,0-2.8c0-0.4,0-0.6,0-0.8c0-0.4,0.1-0.4,0.4-0.2l2.6,1.3l9.6-0.2l1.5-2.2l3.9,2.2c0.2,0,0.2,0.2,0,0.6l-0.8,1.3
		v4.9c0,1.4-0.7,2.8-2.2,4.3c-0.6,0.5-1.1,0.6-1.3,0.2c-0.1-0.1-0.3-0.4-0.6-0.7c-0.4-0.5-0.8-0.9-1.1-1.3L27.4,19.7z M4.4,8.7
		L4.4,8.7l7.5-0.4V1l4.5,1.1c0.3,0.1,0.3,0.4,0,0.8c-0.5,0.7-0.7,2.5-0.7,5.2h1.3l1.5-1.7L22,9c0.2,0.1,0.2,0.3,0,0.6l-1.3,1.3
		c-1.7,2.6-3.6,5.1-5.4,7.3v0.4c0.1,0.1,0.4,0.3,0.8,0.4c3.1,1.5,4.8,2.6,5.1,3.4c0,1.2-0.6,2.3-1.9,3.2c-0.8,0.5-1.2,0.3-1.5-0.6
		c-0.4-2.2-1.2-4.1-2.4-5.4v13.9l0.2,6.4C15,42,14,44,12.2,45.8c-0.2,0.2-0.5,0.4-0.8,0.4c-0.2-0.1-0.4-0.4-0.4-0.8L11.5,33L11.7,22
		c-3.1,3.1-6.9,6.3-11.4,9.6c-0.2,0-0.3-0.2-0.2-0.6c6.9-6.1,12.4-13.4,16.7-21.7L9.6,9.6c-1.4,0-2.6,0.2-3.7,0.6L4.4,8.7z M39,25
		l1.7-2.1l3.7,2.3c0.2,0,0.2,0.2,0,0.6l-0.9,1.5v7.5l0.2,4.3c0.1,1.6-0.8,3.6-2.8,6c-0.8,0.5-1.2,0.4-1.3-0.2
		c-0.5-2-0.9-3.4-1.3-4.1H25.5v1.1c-0.2,1.6-1.1,2.9-2.4,3.9c-0.6,0.5-1,0.4-1.1-0.2l0.2-8.2v-9v-4.5c0-0.4,0.1-0.5,0.4-0.4l3.2,1.9
		L39,25z"/>
	<path class="st0" d="M73.1,5.5L73.1,5.5c-1.5,0-3.1,0.1-4.7,0.4l-1.3-1.3l11.6-0.2v0.9L73.1,5.5z M67.1,21.8L67.1,21.8
		c2.9,1.2,4.4,2.4,4.5,3.6c0.1,1.2-0.4,2.1-1.5,2.6c-1.1,0.2-1.7,0-1.7-0.8c-0.1-2.4-0.7-4.1-1.7-5.1C66.5,21.8,66.6,21.6,67.1,21.8
		z M48.9,8.5L48.9,8.5l7.5-0.4V0.6l4.3,1.3c0.4,0,0.4,0.2,0.2,0.6c-0.6,0.4-0.9,2.2-0.8,5.4h1.1L63,6.2l3.4,2.6
		c0.2,0.1,0.2,0.3,0,0.6L65,10.7c-1.6,2.6-3.4,5-5.3,7.1v1.3c2.9,1.1,4.7,2.2,5.4,3.4c0,1.2-0.6,2.2-1.7,3c-1,0.4-1.5,0.2-1.5-0.6
		c-0.4-1.9-1.1-3.6-2.3-5.1v13.5v7.3c-0.4,1.8-1.4,3.5-3,5.2c-0.4,0.2-0.6,0.4-0.7,0.4c-0.3-0.1-0.4-0.4-0.4-0.8L56,34.3L56.2,22
		c-2.5,2.6-6.2,5.8-11.1,9.6c-0.4-0.1-0.4-0.3-0.2-0.6C51.5,24.7,56.8,17.4,61.1,9l-6.9,0.4c-1.4,0-2.6,0.2-3.7,0.6L48.9,8.5z
		 M72.3,19c-1.2,0.1-2.7,0.2-4.3,0.4c0.2,0,0,0.1-0.8,0.2L66,18.2l13.5-0.4l0.4-6h-3.6c-2.4,0.1-4.3,0.3-5.8,0.6L69,11.3l10.9-0.4
		L80,5.7l-0.6-0.9l1.9-2.4l3.9,1.9c0.2,0,0.2,0.2,0,0.6L84.1,6l-0.6,11.8l1.1-0.2l2.2-2.4l3,2.8c0.1,0.2,0.1,0.4-0.2,0.6L77.9,19
		v4.7c0.2,0.4,0.5,0.9,0.8,1.7c0.4,0.8,0.6,1.3,0.7,1.7c1.9-1.8,3.8-3.7,5.8-6l2.8,3c0.2,0.2,0.2,0.4,0,0.6c0-0.1-0.1-0.1-0.2,0
		c-1,0.3-3.2,1.1-6.7,2.6c-0.6,0.3-1.1,0.4-1.3,0.6c1.8,3.4,5.7,6.6,12,9.7c0.4,0.4,0.3,0.6-0.2,0.7c-1.6-0.1-3.4,0.8-5.2,2.8
		c-4-3.1-6.8-8.4-8.4-15.7l0.2,14.6c-0.1,2.2-1.9,4.2-5.2,6c-0.5,0.2-0.8,0.1-0.8-0.6c0.3-1.8-0.2-2.9-1.3-3.4
		c-0.2-0.2-0.3-0.4-0.2-0.4c0-0.1,0.1-0.2,0.4-0.2c2.1,0.4,3.2,0.1,3.2-0.8V30.2c-3.5,3.9-6.1,7-7.9,9.4c-0.6,0.8-1.3,1.1-2.1,0.9
		c-0.9-0.3-1.1-0.8-0.8-1.5c0.9-1.9,1.2-3.6,0.9-5.1c0.6,1.2,3.9-0.5,9.7-5.2l0.2-9.7H72.3z"/>
	<path class="st0" d="M93.7,14.1L93.7,14.1c3.5,1.6,5.2,3.3,5.1,5.1c-0.1,1.2-0.8,2.1-2.1,2.6c-1,0.1-1.6-0.3-1.7-1.3
		c-0.1-2.6-0.7-4.6-1.7-6C93.2,14.1,93.4,14,93.7,14.1 M96.4,2.5L96.4,2.5c4.4,1.1,6.6,2.4,6.6,3.7c0.1,1.4-0.6,2.4-2.1,3.2
		c-0.7,0.5-1.3,0.3-1.7-0.6c-0.7-2.5-1.8-4.5-3.2-6C95.7,2.6,95.9,2.5,96.4,2.5z M109.5,34.9L109.5,34.9c2-3.6,3.2-7.7,3.7-12.4
		l-3.7,0.2V34.9z M117.1,16.2L117.1,16.2c-0.1,2-0.3,3.7-0.6,5.2h4.5v-0.6l0.2-6l-6.6,0.2L117.1,16.2z M105.3,13.2L105.3,13.2
		l-5.2,20.8c-0.8,2.7-0.8,5-0.2,6.7c0.4,1.1,0.2,2.1-0.6,3c-0.6,0.6-1.6,1.1-3,1.3c-1,0.1-1.3-0.6-0.9-2.1c0-0.4,0.1-1.4,0.4-3
		c0.1-0.8,0.2-1.2,0.2-1.5c0.1-0.9-0.5-1.7-1.9-2.4c-0.1-0.2-0.1-0.4,0.2-0.6c1.2,0.2,2.1-0.1,2.4-1.1l8.1-21.4
		c0.1-0.2,0.2-0.3,0.4-0.2C105.3,12.8,105.3,12.9,105.3,13.2z M120.9,11.5L120.9,11.5V7.7h-4.7l-0.7,3.9c-0.8,1.1-1.4,1.2-2.1,0.4
		L113,7.9h-2.4c-0.4,0-0.9,0.1-1.7,0.2c-1.7,0-2.9,0.1-3.6,0.4L103.8,7l9.2-0.2l-0.6-6l4.9,1.5c0.1,0,0.2,0.1,0.4,0.2
		c0,0-0.1,0.1-0.2,0.4L116.8,4l-0.4,2.6h4.5l0.2-6.2l5.1,1.9c0.3,0.1,0.3,0.4,0,0.8l-0.7,1.1l-0.8,2.2l5.1-0.2l2.2-2.2l3.2,2.8
		c0.3,0.4,0.2,0.6-0.2,0.6l-10.7,0.2l-1.3,3.9c-0.4,0.6-0.9,0.9-1.5,0.9C121,12.4,120.8,12.1,120.9,11.5z M112.1,15
		c-2.3,0.1-3.9,0.3-5.1,0.6l-1.5-1.5l22.9-0.4l2.6-2.8l3.2,3.2c0.3,0.2,0.3,0.4,0,0.4l-11.8,0.4l2.6,1.3c0.5,0.1,0.6,0.4,0.2,0.7
		l-0.4,0.9l-0.4,3.6l3.6-0.2l1.7-2.2l3.9,2.6c0.2,0,0.3,0.2,0.2,0.6l-1.1,1.5l0.2,10.7l0.2,4.5c-0.4,3-2.2,5.4-5.4,7.1
		c-0.2,0-0.4-0.1-0.4-0.4c0.1-1.7-0.4-2.9-1.5-3.6c-0.4-0.2-0.4-0.4,0-0.4c1.9,0,2.7-0.3,2.6-0.9l-0.2-18.4h-3.9
		c-0.2,1.8-0.6,3.4-0.9,4.9c1.8,0.6,3.1,1.4,3.9,2.3c0.6,1.4,0.4,2.6-0.8,3.6c-1,0.5-1.6,0.3-1.9-0.6c-0.2-1.9-0.8-3.3-1.7-4.3
		c-1.4,4-3.9,7.7-7.7,11c-0.2,0.1-0.4,0.1-0.6-0.2c0-0.1,0.1-0.2,0.4-0.4c3.6-4.2,5.6-9.7,6-16.3l-4.7,0.2c-0.1,0.6-0.4,1.4-0.8,2.4
		c-0.1,0.4-0.2,0.6-0.2,0.8c1.4,0.5,2.6,1.1,3.6,1.9c0.8,0.5,0.8,1.3,0.2,2.3c-0.1,0.1-0.3,0.3-0.6,0.6c-0.1,0.1-0.2,0.2-0.4,0.4
		c-0.8,0.5-1.2,0.3-1.5-0.6c-0.3-1.5-0.8-2.8-1.5-3.9c-0.9,2.7-2.7,5.9-5.6,9.6c0,0.1-0.1,0.2-0.2,0.2l0.2,4.7
		c-0.5,1.6-1.4,3.3-2.8,5.1c-0.4,0.2-0.6,0.3-0.7,0.2c-0.3-0.1-0.4-0.4-0.4-0.8l0.4-8.8V25.5v-5.4c0-0.2,0.1-0.3,0.4-0.2l3.2,1.7
		h3.7c0.1-0.6,0.2-1.7,0.2-3.2c0.1-1.5,0.2-2.6,0.2-3.4H112.1z"/>
	<path class="st0" d="M150.2,4L150.2,4c4.5,2,6.6,3.6,6.2,4.9c-0.4,1.2-1.3,2.2-2.6,2.8c-1.2,0.1-1.9-0.2-1.9-1.1
		c0-2.6-0.6-4.7-1.9-6.2C149.8,4,149.8,3.9,150.2,4 M153.8,18.6L153.8,18.6l-0.2,7.3l13.1-0.2l0.2-7.5L153.8,18.6z M152.5,35.3
		L152.5,35.3c-2.2,0.1-4,0.3-5.2,0.6l-1.3-1.5l12.2-0.2v-6.7l5.6,1.3c0.4,0.1,0.4,0.4,0.2,0.8c-0.6,0.6-1,1.2-1.1,1.9v2.6l6.6-0.2
		l2.6-2.6l3.6,3c0.2,0.4,0.2,0.6-0.2,0.6l-12.6,0.4v7.5h12.9l2.8-2.6l3.7,3c0.1,0.2,0.1,0.4-0.2,0.6l-35.8,0.6
		c-1.2,0-2.6,0.1-4.1,0.4c-0.4,0.1-0.7,0.2-0.9,0.2l-1.3-1.7l18.4-0.2v-7.7L152.5,35.3z M174.7,11.7L174.7,11.7L177,10l4.9,4.9
		c0.4,0.4,0.2,0.7-0.6,0.9c-2.3,0-4.7,0.7-7.3,2.1c-0.3,0.1-0.4,0-0.4-0.4l1.5-4.9l-27.3,0.9c-0.7,3.6-2.6,6.4-5.6,8.2
		c-0.6,0.2-0.9,0.2-0.9-0.2c-0.8-1.5-0.8-2.6,0-3.2c2.2-2.1,3.4-4.5,3.6-7.1c0-0.5,0.3-0.6,0.9-0.4c0.7,0.5,1.4,1.1,1.9,1.7
		l11.1-0.4l-0.2-11.6l5.4,1.3c0.2,0.1,0.2,0.3,0,0.6l-0.4,1.1L163,12h1.1c2.4-3.4,4.3-6.4,5.8-9.2l4.1,2.6c0.1,0.1,0.1,0.2,0,0.4
		c0,0.1,0,0.2,0,0.2c-3.1,1.9-6.1,3.9-8.8,6L174.7,11.7z M171.8,27.2c-5.5-0.2-11.6-0.3-18.4-0.2c-0.1,0.4-0.8,1.1-2.1,2.1
		c-0.9,0.5-1.3,0.4-1.3-0.2l0.2-4.7v-3.9v-4.5l3.9,1.9l12.4-0.4l1.9-2.2l4.3,2.1c0,0,0,0.1,0,0.2c0.1,0.1,0.1,0.2,0,0.2l-0.8,1.5
		l-0.2,6.9l0.6,0.8C172.4,27,172.3,27.2,171.8,27.2z"/>
	<path class="st0" d="M230.1,9c-1.4,0-2.7,0.1-4.1,0.4c-0.4,0-0.6,0-0.7,0l-1.5-1.5l12.7-0.2l-0.2-7.3l5.8,1.3
		c0.4,0.1,0.4,0.4,0,0.8c-0.4,0.4-0.6,1-0.8,1.9v3.4l6.9-0.2l2.4-2.2l3.2,2.8c0.1,0.4,0,0.6-0.4,0.6l-12.2,0.2v6l13.3-0.2l2.8-3
		l3.6,3.2c0.2,0.4,0.2,0.6-0.2,0.6l-15.2,0.4l2.8,2.1c0.2,0.3,0.3,0.6,0.2,0.9c-0.1,0-0.2,0.1-0.2,0.2l-3.9,4.7l4.7-0.2l2.4-2.4
		l3.4,2.8c0.1,0.3,0.1,0.4,0,0.4c0,0.1-0.1,0.2-0.4,0.2L241,24.5l0.2,6.6l12.2-0.2l2.6-3l3.6,3.2c0.2,0.4,0.2,0.6-0.2,0.6L241.2,32
		v1.9l0.2,6.4c-0.4,1.9-1.6,3.6-3.7,5.2c-0.9,0.5-1.3,0.4-1.3-0.4l0.2-9.6l0.2-3.4l-10.5,0.2c-2.2,0.1-3.9,0.3-5.1,0.6l-1.7-1.5
		l17.2-0.4v-6.4h-8c-1.3,0.1-2.6,0.2-3.9,0.4c-0.4,0.1-0.6,0.2-0.7,0.2l-1.7-1.5h9c0-2.7-0.1-4.4-0.2-5.1c-0.1-0.4,0-0.5,0.4-0.4
		l3.6,1.5c0.4,0.1,0.5,0.3,0.4,0.6l-0.2,3.2h5.6c2.5-4.1,3.6-6.7,3.2-7.9l-19.3,0.2c-1.1,0.1-2.6,0.3-4.3,0.6
		c-0.4,0.1-0.6,0.2-0.7,0.2l-1.7-1.7l18.7-0.2v-6L230.1,9z"/>
	<path class="st0" d="M291.2,4.7L291.2,4.7c-0.4,0-1,0.1-1.9,0.2c-1.9,0-3.1,0.1-3.6,0.4l-1.5-1.3l16.1-0.6l2.2-2.1l3,2.4
		c0.2,0.1,0.4,0.2,0.4,0.2c0,0.1-0.1,0.2-0.4,0.4L291.2,4.7z M287.7,25.7L287.7,25.7v5.8h4.7v-5.8H287.7z M301.3,25.5L301.3,25.5
		l-5.1,0.2v5.6h4.9L301.3,25.5z M287.7,32.4L287.7,32.4v7.3l4.7-0.2v-7.1H287.7z M296.3,39.5L296.3,39.5l4.9-0.2v-7.1l-4.9,0.2V39.5
		z M299.3,10.9L299.3,10.9l-9.7,0.2v7.5l9.6-0.6L299.3,10.9z M289.5,19.3L289.5,19.3c-0.2,0.8-0.9,1.5-2.1,2.2
		c-0.5,0.4-0.8,0.3-0.9-0.2v-5.4v-3.4c0.1-0.6,0.1-1.6,0-2.8c0-0.4,0-0.6,0-0.8c0-0.4,0.1-0.4,0.4-0.2l2.6,1.3l9.6-0.2l1.5-2.2
		l3.9,2.2c0.2,0,0.2,0.2,0,0.6l-0.8,1.3v4.9c0,1.4-0.7,2.8-2.2,4.3c-0.6,0.5-1.1,0.6-1.3,0.2c-0.1-0.1-0.3-0.4-0.6-0.7
		c-0.4-0.5-0.8-0.9-1.1-1.3L289.5,19.3z M266.5,8.2L266.5,8.2l7.5-0.4V0.6l4.5,1.1c0.3,0.1,0.3,0.4,0,0.8c-0.5,0.7-0.7,2.5-0.7,5.2
		h1.3l1.5-1.7l3.6,2.6c0.2,0.1,0.2,0.3,0,0.6l-1.3,1.3c-1.7,2.6-3.6,5.1-5.4,7.3v0.4c0.1,0.1,0.4,0.3,0.8,0.4
		c3.1,1.5,4.8,2.6,5.1,3.4c0,1.2-0.6,2.3-1.9,3.2c-0.8,0.5-1.2,0.3-1.5-0.6c-0.4-2.2-1.2-4.1-2.4-5.4V33l0.2,6.4
		c-0.4,2.2-1.4,4.2-3.2,6c-0.2,0.2-0.5,0.4-0.8,0.4c-0.2-0.1-0.4-0.4-0.4-0.8l0.4-12.4l0.2-11.1c-3.1,3.1-6.9,6.3-11.4,9.6
		c-0.2,0-0.3-0.2-0.2-0.6c6.9-6.1,12.4-13.4,16.7-21.7l-7.1,0.4c-1.4,0-2.6,0.2-3.7,0.6L266.5,8.2z M301.2,24.5l1.7-2.1l3.7,2.3
		c0.2,0,0.2,0.2,0,0.6l-0.9,1.5v7.5l0.2,4.3c0.1,1.6-0.8,3.6-2.8,6c-0.8,0.5-1.2,0.4-1.3-0.2c-0.5-2-0.9-3.4-1.3-4.1h-12.7v1.1
		c-0.2,1.6-1.1,2.9-2.4,3.9c-0.6,0.5-1,0.4-1.1-0.2l0.2-8.2v-9v-4.5c0-0.4,0.1-0.5,0.4-0.4l3.2,1.9L301.2,24.5z"/>
	<path class="st0" d="M321.7,6.4L321.7,6.4l-1.1,8c-0.2,0.8-0.6,1.1-0.9,1.1c-0.4,0-0.6-0.4-0.8-1.1l-0.9-8
		c-0.4-2.3,0.2-3.4,1.9-3.4C321.2,3,321.8,4.1,321.7,6.4 M314.5,6.4l-1.1,8c-0.1,0.8-0.4,1.2-0.7,1.3c-0.5-0.1-0.8-0.6-0.9-1.3
		l-0.9-8c-0.2-2.3,0.4-3.4,1.9-3.4C314.3,3,314.9,4.1,314.5,6.4z"/>
	<path class="st0" d="M351.6,0.4l5.1,2.4c0.2,0,0.2,0.2,0,0.6l-1.3,0.8l-4.3,5.8l7.1-0.2l2.6-2.6l3.2,2.8c0.1,0.2,0.1,0.4-0.2,0.6
		l-19.3,0.4l3.4,0.8c0.2,0.1,0.2,0.4,0,0.8c-0.4,0.4-0.6,1-0.8,1.9v4.7l7.5-0.2l2.4-2.6l3.2,3c0.2,0.4,0.2,0.6-0.2,0.6L347.1,20v8.4
		l14.2-0.2l2.8-2.8l3.2,3.2c0.1,0.2,0.2,0.4,0.2,0.4c-0.1,0.1-0.2,0.2-0.4,0.2l-20,0.4v3.9l0.2,6.7c-0.5,2.1-1.8,3.9-3.9,5.4
		c-0.4,0.1-0.7-0.1-0.9-0.8l0.4-10.9v-4.5l-12.7,0.2c-2.1,0.1-3.8,0.4-5.1,0.8l-1.3-1.9l19.1-0.2V20l-6.9,0.2
		c-1.2,0.1-2.6,0.2-4.1,0.4c-0.4,0.1-0.7,0.2-0.9,0.2l-1.5-1.5l13.5-0.2v-0.6l-0.2-7.7l-9.7,0.2c-2.1,0-3.8,0.2-5.1,0.6l-1.5-1.5
		l11.2-0.2V5.2c0-0.4-0.1-0.8-0.2-1.3c0-0.9-0.1-1.4-0.2-1.7c0-0.4,0.2-0.5,0.6-0.4l3.6,1.7c0.4,0,0.5,0.2,0.4,0.6l-0.2,5.8h6.4
		L351.6,0.4z"/>
	<path class="st0" d="M379.7,6.4L379.7,6.4l-1.1,8c-0.2,0.8-0.6,1.1-0.9,1.1c-0.4,0-0.6-0.4-0.8-1.1l-0.9-8
		c-0.4-2.3,0.2-3.4,1.9-3.4C379.2,3,379.8,4.1,379.7,6.4 M372.6,6.4l-1.1,8c-0.1,0.8-0.4,1.2-0.7,1.3c-0.5-0.1-0.8-0.6-0.9-1.3
		l-0.9-8c-0.2-2.3,0.4-3.4,1.9-3.4C372.3,3,372.9,4.1,372.6,6.4z"/>
	<path class="st0" d="M396.7,6.7L396.7,6.7l3.4,2.2c0.2,0,0.2,0.2,0,0.6l-0.9,1.3l-0.2,12.7c-0.1,2.7-1.6,4.8-4.5,6.2
		c-0.1,0.1-0.2,0.1-0.2-0.2c-0.1-1.5-0.6-2.6-1.5-3.2c-0.3-0.1-0.2-0.3,0.2-0.4c1.5,0.1,2.2-0.2,2.1-0.9l0.2-15.7h-3L392,27l0.2,7.9
		c0.3,2.1-0.4,4.2-2.1,6.2c-0.4,0.5-0.7,0.7-0.9,0.6c-0.4-0.1-0.6-0.4-0.6-0.9l0.2-12.2L389,9.6l-2.6,0.2l-0.2,15.5
		c0,1.5-0.7,3.3-2.2,5.4c-0.2,0.4-0.5,0.5-0.8,0.4c-0.1,0-0.2-0.3-0.2-0.8l0.2-8.6l0.2-9.4l-0.2-4.9c0-0.2,0.1-0.3,0.4-0.2l2.8,1.5
		l2.6-0.2V7.5L388.6,0l3.6,1.5c0.4,0.1,0.5,0.4,0.4,0.9l-0.4,2.6v3.4h2.8L396.7,6.7z M417.1,6c0.2,0.1,0.2,0.3,0,0.6L416,8.1
		l-2.1,28.3c-0.1,1.2,0.4,1.9,1.5,2.1c1.6,0.2,3,0.2,4.1-0.2c1.1-0.2,2.1-1.4,3-3.4c0.1-0.2,0.2-0.4,0.4-0.4c0.2,0,0.3,0.1,0.2,0.4
		c-0.6,2.6-0.3,4.2,0.9,4.7c0.9,0.5,1.2,1.1,0.9,1.7c-0.2,0.8-0.9,1.2-2.1,1.5c-2.5,0.6-5.1,0.7-7.7,0.4c-3.4-0.5-4.9-2.8-4.7-6.9
		l0.7-29.2l-5.2,0.2v2.8c0,0.9-0.1,2.2-0.2,4.1c0,1.7-0.1,3.1-0.2,3.9c2.6,1.4,4.1,2.4,4.5,3.2c0.1,0.9-0.2,1.8-1.1,2.8
		c-0.4,0.5-0.8,0.8-1.1,0.8c-0.3,0-0.5-0.3-0.8-0.8c-0.5-2-1.1-3.6-1.7-4.7c-0.6,12.2-7.1,21.4-19.5,27.3c-0.2,0.1-0.4,0.1-0.6,0
		c-0.1-0.2-0.1-0.4,0.2-0.6c11.5-5.4,17.1-16.7,16.9-34.1V8.8l-0.2-5.2l3.7,2.1v0.6l4.9-0.2l1.7-2.2L417.1,6z"/>
</g>
<g>
</g>
<g>
</g>
<g>
</g>
<g>
</g>
<g>
</g>
<g>
</g>
<g>
</g>
<g>
</g>
<g>
</g>
<g>
</g>
<g>
</g>
<g>
</g>
<g>
</g>
<g>
</g>
<g>
</g>
</svg>
