<?xml version="1.0" encoding="utf-8"?>
<!-- Generator: Adobe Illustrator 17.0.0, SVG Export Plug-In . SVG Version: 6.00 Build 0)  -->
<!DOCTYPE svg PUBLIC "-//W3C//DTD SVG 1.1//EN" "http://www.w3.org/Graphics/SVG/1.1/DTD/svg11.dtd">
<svg version="1.1" id="Layer_1" xmlns="http://www.w3.org/2000/svg" xmlns:xlink="http://www.w3.org/1999/xlink" x="0px" y="0px"
	 width="89px" height="225.2px" viewBox="0 0 89 225.2" style="enable-background:new 0 0 89 225.2;" xml:space="preserve">
<style type="text/css">
	.st0{fill:#AB1929;}
	.st1{fill:#AF7A37;}
</style>
<g id="title.svg">
	<g>
		<g>
			<path class="st0" d="M17.7,103l-0.3,1.9l0.6,1.9l-1.2,7.1h0.9c0-1.2,0.5-2.2,1.6-2.8h1.2l0.6,1.2c1.2,0,2.1,0.2,2.5,0.6h0.3
				l3.7-4V107c-5-7.3-9.2-10.9-12.7-10.9v0.3C16.8,98.1,17.7,100.3,17.7,103z M25.5,137.8v-0.6l-0.3-0.3c1.4-1.7,2.6-3.2,3.4-4.7
				v-0.6h-0.3c-4.4,3.5-7.4,5.3-9,5.3l-7.1,4h-0.6l2.5-5.3c2.9-0.2,5.6-1.2,8.1-3.1L16.8,117l0.6-0.3v-1.9h-0.9v1.6l-0.6,2.8
				c-3.3,8.3-6.1,16.4-8.4,24.3c-4.2,0.6-6.2,1.4-6.2,2.5v0.3l0.3,0.3c-0.8,0-1.3,0.9-1.6,2.8c1,1.7,1.7,3.3,1.9,5l-1.2,3.4l3.7,6.5
				c4.8-1,7.1-2.3,7.1-3.7v-2.8l-0.3-4.7l4.7-3.7L25.5,137.8z M68.1,132.5l-7.8-3.4c-1.4,1.2-4.2,2.3-8.4,3.1l0.3-2.2l-0.9-2.5
				l0.6-1.2c1.5,0,2.2-0.2,2.2-0.6c3.9-0.8,6.5-1.7,7.8-2.5v-0.3l-0.3-0.6v-0.6c1,0,1.6-0.4,1.6-1.2v-0.3c0-0.6-1.9-1.9-5.6-3.7
				l-1.9,0.3c0-0.4-0.4-0.6-1.2-0.6v-0.6c8.5-9.7,12.7-16.5,12.7-20.2v-1.6c0-1.9-1.4-4.2-4-6.8h-0.3l-2.5,2.5v0.6h1.2v0.9
				c0,1.2-2.1,4.8-6.2,10.6c-1.9,3.5-5.4,5.9-10.6,7.2v-0.3l-1.2,0.3c-0.8-8.5-1.4-12.7-1.9-12.7H41L38.5,108c0,2.7-2.1,4-6.2,4v1.9
				l1.9,2.2h1.9v0.3l-0.3,3.7l1.9,2.2v0.9l-6.2,0.9l-2.2,6.8l1.9,2.8l3.7-1.2h0.6v0.3h-0.9v0.9h0.9l-2.8,3.4
				c-1.7,4.1-5.1,8.2-10.3,12.1v1.2l0.6,0.6h-0.6l1.6,4l-0.9,3.7c0.6,1.9,1.3,3,2.2,3.4h0.6c2.3,0,3.9-1.7,5-5v-2.5h-0.6l2.2-5
				c0-3.5,2.1-6.4,6.2-8.7c-1.9,4.4-2.8,7.1-2.8,8.1c0,0.6,0.5,1.7,1.6,3.1c1.7-0.4,2.9-1,3.7-1.9c0-2.7,0.7-4.8,2.2-6.2h0.3
				l0.3,0.3l-0.3,5.3l0.9,1.6c0.8,0,1.2,0.3,1.2,0.9v0.6h-0.6v0.6h1.9c0.4,2.5,1,3.7,1.9,3.7l3.1,3.1c4.2,3.9,7.3,5.9,9.3,5.9
				c3.7,0,6.2-10.8,7.5-32.3L68.1,132.5z M43.2,113.9l2.5-0.3v0.3l-2.2,4h-0.6L43.2,113.9z M43.2,141.8h-0.9l0.6-2.2h0.3V141.8z
				 M45.4,140.3h-0.6v-0.9l0.6-0.9h0.3L45.4,140.3z M32.3,140.6c0-1,0.6-2.5,1.9-4.4c3.3-4.1,7.7-6.7,13.1-7.8h0.3l0.6,1.2l-0.9,3.4
				C43.3,134.6,38.3,137.1,32.3,140.6z M47.6,151.8h-0.3v-0.6l1.6-3.4c0.8-7.7,2.8-11.5,5.9-11.5h0.6l-0.6,1.6
				c-1.9,4.3-2.8,7.1-2.8,8.4l0.3,1.2C52.2,148.3,50.7,149.7,47.6,151.8z M60.9,139.7c0,3.7-1.1,10.3-3.4,19.6h-0.9
				c-2.7,0-5.2-1.9-7.5-5.6l3.1-0.6l0.9,0.3c2.3-0.6,4.2-1.8,5.9-3.4l-1.2-5.6c0.8-6.2,1.4-9.3,1.9-9.3c0.8,0.2,1.2,0.9,1.2,2.2
				V139.7z"/>
		</g>
	</g>
	<path class="st1" d="M21.8,25c1.8-1.4,3.3-2.6,4.5-3.9v20.9h4.8V18.9c1,1.6,2.1,3.2,3.3,4.7c1.1-0.6,1.9-1.5,2.4-2.7v21.1h4.8v-2.4
		h14.4v2.4h4.8V20.3h-4.8V22H41.7v-1.7h-4.8c-1.6-0.7-3.4-1.6-5.5-2.7v-0.9c1.9-2.9,3.1-5.7,3.6-8.3h-5l-0.2,2h-8.6v1.7h8.1
		c-1.8,4.7-4.6,9-8.6,12.8H21.8z M51.3,23.6h4.8v5.9h-4.8V23.6z M51.3,31.2h4.8V38h-4.8V31.2z M41.7,23.6h4.8v5.9h-4.8V23.6z
		 M41.7,31.2h4.8V38h-4.8V31.2z M62.3,1.7H35.5v1.7h26.8V1.7z M31.2,7.4c1-1.1,1.6-2.4,1.9-3.7C30.5,2.3,28.2,1,26.1,0l-0.2,0.2
		C27.2,3.3,28.9,5.7,31.2,7.4z M58.9,18.6V6.8h-4.8v1.3H43.6V6.8h-4.8v11.8h4.8v-1.7h10.5v1.7H58.9z M43.6,15.2V9.8h10.5v5.4H43.6z
		 M56.3,75.9l4.1-7.9l-1.9-0.7l-3.1,6.4c-0.8-1.4-1.4-3.3-1.9-5.7c-0.2-0.6-0.2-1-0.2-1.4h-0.5c-0.5,10.7,2.6,17.5,9.1,20.4
		c0.2,0,0.2-0.4,0-1.2c-0.2-2,0.3-3.5,1.4-4.4C59.7,80.4,57.4,78.5,56.3,75.9z M62.3,65.6v-1.7h-8.6c2.6-1.6,4-3.5,4.3-5.7v-9.5
		h-4.8v2H37.4v1.7h15.8v4.7H38.8v1.7h14.4c0.2,1.8-0.2,3.5-1.2,5.1H36v1.7h11v8.8c-1.6,3.3-5.6,5.4-12,6.4c1.4,1.2,1.8,3,1,5.2
		c4.6-1.5,8.3-4.9,11-10.3v10c0.8,1.7-2.2,3.1-8.8,4.2l0.5,0.7l2.6-0.5c1.4-0.2,2.2-0.1,2.4,0.3c5.7-0.7,8.5-2.2,8.1-4.7V65.6H62.3z
		 M27.3,71.4v18.7h4.8V68.7c1.4,2.6,2.7,4.5,3.8,5.7c0.5-0.2,1-1.3,1.4-3.4c-0.5-0.3-2.1-1.8-4.8-4.4c2.1-3.5,3.2-6.8,3.3-9.8h-5.7
		v1.3h-9.6v1.7h9.6c-0.8,4.8-3.8,10.2-9.1,16.2h1.4c0.5-0.5,1.3-1.2,2.4-2.4C25.9,72.7,26.7,71.9,27.3,71.4z M44.1,73
		c-1.9-1.8-4.1-3.6-6.5-5.4l-0.2,0.2c2.1,5.1,3.4,7.9,4.1,8.4C42.4,75.7,43.3,74.6,44.1,73z M26.1,49.1c1.8,2.8,3.4,5,5,6.4
		c0.8-0.8,1.6-1.9,2.4-3.4c-2.4-1.4-4.9-2.4-7.4-3.2V49.1z M29.9,187.6v17.6h4.8v-2.4h16.2v2.4h4.8v-17.6h-4.8v1.9H34.6v-1.9H29.9z
		 M50.8,192.1v8.1H34.6v-8.1H50.8z M45.6,214h12.4v-2.6H45.6v-6.2h-5.2v6.2H27.5v2.6h12.8v8.6H22.7v2.6h40v-2.6H45.6V214z
		 M57.9,180.9h-7.1l6-10l-2.1-1.4l-6.7,11.4h-2.4v-13.3h-4.8v13.3h-6.2c1-2.7,1.5-4.8,1.7-6.2c-2.9-2.2-5.4-4.1-7.6-5.7l-0.2,0.2
		c2.4,6.3,4,10.2,4.8,11.7H28v-2.4h-4.8V189H28v-5.5h30v7.9h0.5c0.6-1.9,1.4-2.9,2.4-2.9c0.3,0,0.6,0.2,1,0.7c0.3,0.2,0.6,0.2,1,0.2
		V179h-4.8V180.9z M79.5,44.7V47h0.3v-0.2c0-0.1,0-0.3,0.1-0.4c0.1-0.1,0.2-0.1,0.3-0.1H88c0.1,0,0.3,0,0.3,0.1
		c0.1,0.1,0.1,0.2,0.1,0.4V47h0.3v-1.7l-7.1-1.7v-0.1l7.1-1.5v-1.5h-0.3v0.2c0,0.2,0,0.3-0.1,0.4c-0.1,0.1-0.2,0.1-0.3,0.1h-7.7
		c-0.1,0-0.3,0-0.3-0.1c-0.1-0.1-0.1-0.2-0.1-0.4v-0.2h-0.3V42h0.3v-0.2c0-0.1,0-0.3,0.1-0.4c0.1-0.1,0.2-0.1,0.3-0.1h6.9v0.1
		l-7.7,1.7v0.3l7.8,1.8v0.1h-7.1c-0.1,0-0.3,0-0.3-0.1c-0.1-0.1-0.1-0.2-0.1-0.4v-0.3H79.5z M88.7,51.5l-8.3-2.1
		c-0.2,0-0.4-0.1-0.5-0.2c-0.1-0.1-0.1-0.2-0.1-0.4v-0.2h-0.3v2h0.3v-0.2c0-0.3,0.1-0.4,0.3-0.5c0.2-0.1,0.5-0.1,0.8,0l2.1,0.5v2.4
		l-2.4,0.6c-0.3,0.1-0.4,0.1-0.6,0c-0.1-0.1-0.2-0.2-0.2-0.4v-0.2h-0.3v2.3h0.3V55c0-0.1,0-0.3,0.1-0.4c0.1-0.1,0.2-0.2,0.5-0.3
		l8.5-2.1L88.7,51.5z M83.3,52.9v-2.3l4.5,1.1l0,0L83.3,52.9z M86.7,71.3l0.1,0.3l2.1-0.4V66l-2.1-0.5l-0.1,0.3
		c0.8,0.3,1.3,0.5,1.5,0.7c0.2,0.2,0.3,0.5,0.3,1.1c0,0.3,0,0.4-0.1,0.4c0,0-0.2,0.1-0.5,0.1h-7.6c-0.1,0-0.3,0-0.3-0.1
		c-0.1-0.1-0.1-0.2-0.1-0.4v-0.5h-0.3V70h0.3v-0.5c0-0.1,0-0.3,0.1-0.4c0.1-0.1,0.2-0.1,0.3-0.1h7.5c0.3,0,0.5,0,0.5,0.1
		c0,0,0.1,0.2,0.1,0.6c0,0.5-0.1,0.8-0.3,1C87.9,70.8,87.4,71.1,86.7,71.3z M88.8,21.1v-2.6h-0.3v0.3c0,0.2,0,0.3-0.1,0.4
		c-0.1,0.1-0.2,0.1-0.3,0.1h-7.7c-0.1,0-0.3,0-0.3-0.1c-0.1-0.1-0.1-0.2-0.1-0.4v-0.4h-0.3v5.6l2.1,0.5l0.1-0.3
		c-0.6-0.2-1.1-0.5-1.4-0.8c-0.3-0.4-0.5-0.8-0.5-1.3v-1.5c0-0.1,0-0.3,0.1-0.4c0.1-0.1,0.2-0.1,0.3-0.1H88c0.1,0,0.3,0,0.3,0.1
		c0.1,0.1,0.1,0.2,0.1,0.4v0.4H88.8z M88.8,58.7V57h-0.3v0.4c0,0.2,0,0.3-0.1,0.4c-0.1,0.1-0.2,0.1-0.3,0.1h-7.7
		c-0.1,0-0.3,0-0.3-0.1c-0.1-0.1-0.1-0.2-0.1-0.4V57h-0.3v2.2h0.3v-0.4c0-0.1,0-0.3,0.1-0.4c0.1-0.1,0.2-0.1,0.3-0.1h7.3v0.1
		l-8.1,4.1v0.3H88c0.1,0,0.3,0,0.3,0.1c0.1,0.1,0.1,0.2,0.1,0.4v0.4h0.3v-2.2h-0.3V62c0,0.2,0,0.3-0.1,0.4c-0.1,0.1-0.2,0.1-0.3,0.1
		h-6.3v-0.1L88.8,58.7z M88.9,93.6c0-0.9-0.5-1.7-1.4-2.2c-1-0.6-2.1-0.9-3.4-0.9c-1.2,0-2.2,0.3-3.2,0.8c-1,0.5-1.4,1.3-1.4,2.4
		c0,0.3,0,0.5,0.1,0.8c0.1,0.2,0.2,0.5,0.4,0.7c0.1,0.1,0.1,0.1,0.1,0.2c0,0.1,0,0.1,0,0.2s0,0.1,0,0.2c0,0.1,0,0.1-0.1,0.2h2.7
		c0.2,0,0.3,0.1,0.4,0.2c0.1,0.1,0.2,0.3,0.2,0.4v0.3h0.3v-2.7h-0.3v0.3c0,0.2-0.1,0.4-0.2,0.5C83,95,82.8,95,82.6,95h-1.8
		c-0.3,0-0.6-0.2-0.7-0.4c-0.2-0.2-0.2-0.5-0.2-0.9c0-0.8,0.5-1.4,1.4-1.7c0.9-0.3,1.9-0.5,2.9-0.5c1.5,0,2.6,0.2,3.4,0.7
		c0.7,0.5,1.1,0.9,1.1,1.5c0,0.5-0.2,0.9-0.5,1.2c-0.3,0.3-0.9,0.6-1.6,0.8l0.1,0.3l2.4-0.4c-0.1-0.1-0.2-0.2-0.2-0.3
		c-0.1-0.1-0.1-0.2-0.1-0.3c0-0.1,0.1-0.3,0.2-0.5C88.8,94.1,88.9,93.9,88.9,93.6z M80.4,74.4c-0.2,0-0.4-0.1-0.5-0.2
		c-0.1-0.1-0.1-0.2-0.1-0.4v-0.2h-0.3v2h0.3v-0.2c0-0.3,0.1-0.4,0.3-0.5c0.2-0.1,0.5-0.1,0.8,0l2.1,0.5v2.4l-2.4,0.6
		c-0.3,0.1-0.4,0.1-0.6,0c-0.1-0.1-0.2-0.2-0.2-0.4v-0.2h-0.3v2.3h0.3V80c0-0.1,0-0.3,0.1-0.4c0.1-0.1,0.2-0.2,0.5-0.3l8.5-2.1
		l-0.3-0.8L80.4,74.4z M83.3,77.8v-2.3l4.5,1.1l0,0L83.3,77.8z M79.5,81.9v2.2h0.3v-0.4c0-0.1,0-0.3,0.1-0.4
		c0.1-0.1,0.2-0.1,0.3-0.1h7.3v0.1l-8.1,4.1v0.3H88c0.1,0,0.3,0,0.3,0.1c0.1,0.1,0.1,0.2,0.1,0.4v0.4h0.3v-2.2h-0.3v0.4
		c0,0.2,0,0.3-0.1,0.4c-0.1,0.1-0.2,0.1-0.3,0.1h-6.3v-0.1l7.1-3.6v-1.7h-0.3v0.4c0,0.2,0,0.3-0.1,0.4c-0.1,0.1-0.2,0.1-0.3,0.1
		h-7.7c-0.1,0-0.3,0-0.3-0.1c-0.1-0.1-0.1-0.2-0.1-0.4v-0.4H79.5z M79.8,4c0-0.1,0-0.3,0.1-0.4c0.1-0.1,0.2-0.1,0.3-0.1h4v1.8
		c0,0.4-0.1,0.6-0.3,0.8c-0.2,0.2-0.5,0.2-1,0.2h-0.2v0.3h3.1V6.3h-0.3c-0.4,0-0.6-0.1-0.8-0.2c-0.2-0.2-0.2-0.4-0.2-0.8V3.5H88
		c0.1,0,0.3,0,0.3,0.1c0.1,0.1,0.1,0.2,0.1,0.4v1.5c0,0.5-0.1,0.9-0.4,1.3c-0.3,0.4-0.7,0.7-1.3,1l0.1,0.3l1.9-0.7V1.8h-0.3v0.3
		c0,0.2,0,0.3-0.1,0.4c-0.1,0.1-0.2,0.1-0.3,0.1h-7.7c-0.1,0-0.3,0-0.3-0.1c-0.1-0.1-0.1-0.2-0.1-0.4V1.8h-0.3v2.6h0.3V4z
		 M81.7,15.6H88c0.1,0,0.3,0,0.3,0.1c0.1,0.1,0.1,0.2,0.1,0.4v0.3h0.3v-2h-0.3v0.3c0,0.2,0,0.3-0.1,0.4c-0.1,0.1-0.2,0.1-0.3,0.1
		h-6.3c-0.5,0-1-0.2-1.4-0.6c-0.4-0.4-0.5-0.8-0.5-1.4c0-0.5,0.1-0.9,0.4-1.2c0.3-0.3,0.7-0.5,1.5-0.5H88c0.1,0,0.3,0,0.3,0.1
		c0.1,0.1,0.1,0.2,0.1,0.4v0.3h0.3V10h-0.3v0.3c0,0.2,0,0.3-0.1,0.4c-0.1,0.1-0.2,0.1-0.3,0.1h-6.3c-0.8,0-1.4,0.2-1.7,0.7
		c-0.4,0.5-0.5,1.1-0.5,1.7c0,0.6,0.2,1.2,0.6,1.7C80.4,15.3,81,15.6,81.7,15.6z M81.7,32.2H88c0.1,0,0.3,0,0.3,0.1
		c0.1,0.1,0.1,0.2,0.1,0.4V33h0.3v-2h-0.3v0.3c0,0.2,0,0.3-0.1,0.4c-0.1,0.1-0.2,0.1-0.3,0.1h-6.3c-0.5,0-1-0.2-1.4-0.6
		c-0.4-0.4-0.5-0.8-0.5-1.4c0-0.5,0.1-0.9,0.4-1.2c0.3-0.3,0.7-0.5,1.5-0.5H88c0.1,0,0.3,0,0.3,0.1c0.1,0.1,0.1,0.2,0.1,0.4V29h0.3
		v-2.4h-0.3v0.3c0,0.2,0,0.3-0.1,0.4c-0.1,0.1-0.2,0.1-0.3,0.1h-6.3c-0.8,0-1.4,0.2-1.7,0.7c-0.4,0.5-0.5,1.1-0.5,1.7
		c0,0.6,0.2,1.2,0.6,1.7C80.4,31.9,81,32.2,81.7,32.2z"/>
</g>
<g>
</g>
<g>
</g>
<g>
</g>
<g>
</g>
<g>
</g>
<g>
</g>
<g>
</g>
<g>
</g>
<g>
</g>
<g>
</g>
<g>
</g>
<g>
</g>
<g>
</g>
<g>
</g>
<g>
</g>
</svg>
