<?xml version="1.0" encoding="utf-8"?>
<!-- Generator: Adobe Illustrator 16.0.0, SVG Export Plug-In . SVG Version: 6.00 Build 0)  -->
<!DOCTYPE svg PUBLIC "-//W3C//DTD SVG 1.1//EN" "http://www.w3.org/Graphics/SVG/1.1/DTD/svg11.dtd">
<svg version="1.1" id="图层_1" xmlns="http://www.w3.org/2000/svg" xmlns:xlink="http://www.w3.org/1999/xlink" x="0px" y="0px"
	 width="640px" height="100px" viewBox="0 0 640 100" enable-background="new 0 0 640 100" xml:space="preserve">
<g>
	<polygon fill="#0062B0" points="135.434,64.539 134.473,64.539 134.005,63.031 132.072,63.031 132.453,64.539 130.188,64.539 
		130.188,61.825 135.048,61.825 135.048,59.766 130.188,59.766 130.188,57.752 135.103,57.752 135.103,55.693 122.956,55.693 
		122.956,57.752 127.581,57.752 127.581,59.766 122.97,59.766 122.97,61.825 127.581,61.825 127.581,64.539 122.956,64.539 
		122.956,66.604 135.434,66.604 	"/>
	<path fill="#0062B0" d="M136.848,67.109L136.848,67.109c0,0.302-0.111,0.445-0.197,0.545c-0.084,0.104-0.28,0.156-0.589,0.156
		h-14.524V54.488h15.311L136.848,67.109L136.848,67.109z M118.934,52.436v17.422h17.177c1.472,0,2.354-0.135,2.642-0.4
		c0.293-0.271,0.479-0.555,0.565-0.854c0.094-0.299,0.137-0.633,0.137-0.996v-15.17h-20.521V52.436z"/>
	<path fill="#0062B0" d="M183.009,60.59l-1.844-4.976l-3.367-0.063l2.478,6.18c0.382,0.888,1.271,1.394,1.653,1.646h-5.303v-8.578
		l8.701-0.011V52.51h-20.392v2.278l8.703,0.011v8.578h-5.285c0.376-0.253,1.125-0.76,1.505-1.646l2.479-6.18l-3.365,0.063
		l-1.845,4.976c-0.315,0.824-1.458,2.346-2.413,2.786h-0.125v2.349l9.05,0.006v4.055h2.987V65.73l9.048-0.006v-2.35h-0.315
		C184.409,62.938,183.325,61.352,183.009,60.59"/>
	<path fill="#0062B0" d="M107.864,64.807L107.864,64.807h5.516c0.437,0,0.697-0.037,0.783-0.107c0.094-0.069,0.137-0.236,0.137-0.49
		v-7.604h-6.436V64.807z M98.469,64.807L98.469,64.807h6.383v-8.201h-6.383V64.807z M95.876,54.311h8.976v-2.139h3.013v2.139h9.06
		v10.922c0,0.312-0.059,0.6-0.176,0.856c-0.114,0.257-0.319,0.488-0.612,0.703c-0.288,0.205-0.693,0.312-1.212,0.312h-7.06v3.021
		h-3.013v-3.021h-8.976V54.311L95.876,54.311z"/>
	<path fill="#0062B0" d="M153.683,52.393h-2.991v2.535h-8.983v2.407h8.414l-5.97,8.69c-0.257,0.377-0.826,0.826-0.893,0.886
		c-0.378,0.253-0.698,0.503-1.209,0.565c-0.121,0-0.354,0.043-0.343,0.021v2.387c-0.033,0,0.284,0.005,0.538,0.005
		c0.187,0,0.581-0.027,0.824-0.066c0.38-0.062,1.458-0.502,1.843-0.818c0.444-0.385,1.209-1.084,1.587-1.591l2.987-4.119v1.837
		c0.444,0,0.826,0,1.142,0.192c0.254,0.062,0.444,0.315,0.827,0.763l2.289,3.232l3.049,0.062l-3.24-4.562
		c-1.271-1.65-1.526-1.84-2.418-1.903h-1.396l2.542-3.549l5.588,7.544c0.254,0.316,0.827,1.135,1.46,1.832
		c0.763,0.761,1.847,1.141,2.354,1.141c0.511,0.061,0.827,0.02,1.051,0.02v-2.346c-0.157,0-0.353-0.021-0.671-0.145
		c-0.633-0.253-1.397-1.325-1.838-1.834l-6.036-8.243h8.543v-2.407h-9.05V52.393z"/>
	<path fill="#0062B0" d="M100.095,76.201c-0.726,0-1.246,0.207-1.563,0.627c-0.322,0.414-0.479,1.104-0.479,2.074
		c0,0.822,0.147,1.408,0.444,1.75c0.304,0.344,0.838,0.516,1.599,0.516h2.89v1.322h-2.976c-0.673,0-1.184-0.049-1.54-0.152
		c-0.354-0.094-0.708-0.265-1.053-0.513c-0.427-0.304-0.745-0.698-0.963-1.188c-0.219-0.486-0.328-1.092-0.328-1.801
		c0-1.333,0.32-2.316,0.963-2.968c0.638-0.636,1.63-0.958,2.976-0.958h2.921v1.291H100.095z"/>
	<polygon fill="#0062B0" points="106.01,74.911 106.01,77.979 109.242,77.979 109.242,74.911 110.989,74.911 110.989,82.491 
		109.242,82.491 109.242,79.316 106.01,79.316 106.01,82.491 104.265,82.491 104.265,74.911 	"/>
	<rect x="112.705" y="74.911" fill="#0062B0" width="1.837" height="7.58"/>
	<polygon fill="#0062B0" points="116.28,74.911 118.499,74.911 121.919,80.352 121.837,74.911 123.627,74.911 123.627,82.491 
		121.595,82.491 118.004,76.754 118.086,82.491 116.28,82.491 	"/>
	<path fill="#0062B0" d="M128.563,76.415L128.563,76.415l-1.213,2.919h2.486L128.563,76.415z M127.688,74.911h1.882l3.552,7.58
		h-1.941l-0.776-1.804h-3.63l-0.743,1.804h-1.865L127.688,74.911z"/>
	<polygon fill="#0062B0" points="140.012,76.23 137.325,76.23 137.325,74.911 144.565,74.911 144.565,76.23 141.833,76.23 
		141.833,82.491 140.016,82.491 	"/>
	<path fill="#0062B0" d="M148.101,76.415L148.101,76.415l-1.213,2.919h2.486L148.101,76.415z M147.224,74.911h1.881l3.553,7.58
		h-1.94l-0.777-1.804h-3.627l-0.744,1.804h-1.866L147.224,74.911z"/>
	<rect x="153.53" y="74.911" fill="#0062B0" width="1.837" height="7.58"/>
	<path fill="#0062B0" d="M160.899,76.268L160.899,76.268h-2.043v2.23h2.139c0.295,0,0.532-0.021,0.72-0.064
		c0.184-0.039,0.341-0.106,0.483-0.209c0.246-0.19,0.373-0.475,0.373-0.843c0-0.394-0.127-0.679-0.373-0.858
		C161.941,76.35,161.512,76.268,160.899,76.268 M157.106,74.911h3.816c0.634,0,1.143,0.034,1.539,0.097
		c0.396,0.065,0.691,0.159,0.902,0.283c0.195,0.119,0.366,0.24,0.507,0.37c0.133,0.137,0.25,0.305,0.351,0.499
		c0.195,0.345,0.297,0.751,0.297,1.222c0,0.444-0.078,0.833-0.234,1.162c-0.179,0.335-0.419,0.606-0.723,0.808
		c-0.287,0.181-0.614,0.304-0.967,0.371c-0.369,0.077-0.903,0.113-1.6,0.113h-2.139v2.656h-1.75L157.106,74.911L157.106,74.911z"/>
	<rect x="165.735" y="74.911" fill="#0062B0" width="1.832" height="7.58"/>
	<polygon fill="#0062B0" points="169.311,74.911 171.529,74.911 174.949,80.352 174.865,74.911 176.653,74.911 176.653,82.491 
		174.625,82.491 171.03,76.754 171.112,82.491 169.311,82.491 	"/>
	<path fill="#0062B0" d="M181.359,79.334v-1.342h4.149v4.499h-3.762c-0.676,0-1.194-0.054-1.565-0.152
		c-0.364-0.094-0.727-0.265-1.084-0.517c-0.421-0.303-0.742-0.694-0.959-1.184c-0.219-0.488-0.329-1.094-0.329-1.803
		c0-1.333,0.329-2.316,0.977-2.968c0.64-0.636,1.626-0.958,2.961-0.958h3.762v1.291h-3.762c-0.684,0-1.188,0.197-1.509,0.604
		c-0.319,0.4-0.481,1.053-0.481,1.948c0,0.828,0.16,1.431,0.479,1.806c0.32,0.373,0.823,0.562,1.509,0.562h1.974v-1.785
		L181.359,79.334L181.359,79.334L181.359,79.334z"/>
	<g>
		<g>
			<g>
				<defs>
					<path id="SVGID_1_" d="M65.952,47.379c10.988,0,19.945,8.951,19.945,19.92c0,11.028-8.957,19.973-19.945,19.973
						c-10.99,0-19.948-8.943-19.948-19.973C46.004,56.331,54.962,47.379,65.952,47.379"/>
				</defs>
				<clipPath id="SVGID_2_">
					<use xlink:href="#SVGID_1_"  overflow="visible"/>
				</clipPath>
				
					<linearGradient id="SVGID_3_" gradientUnits="userSpaceOnUse" x1="3506.4102" y1="535.9463" x2="3508.4062" y2="535.9463" gradientTransform="matrix(0 -19.9828 19.9831 0 -10643.9199 70155.1641)">
					<stop  offset="0" style="stop-color:#00A23E"/>
					<stop  offset="0.2" style="stop-color:#00A23E"/>
					<stop  offset="0.8" style="stop-color:#0062B0"/>
					<stop  offset="1" style="stop-color:#0062B0"/>
				</linearGradient>
				<rect x="46.004" y="47.379" clip-path="url(#SVGID_2_)" fill="url(#SVGID_3_)" width="39.894" height="39.895"/>
			</g>
		</g>
	</g>
	<path fill="#FFFFFF" d="M77.163,69.121L77.163,69.121c-2.027-0.284-3.549-0.678-5.236-1.52c-0.679-0.338-1.412-0.06-1.24,0.615
		c0.394,1.521,4.055,2.253,6.252,2.361c0.393,0,1.182-0.223,1.07-0.787C77.95,69.4,77.611,69.173,77.163,69.121 M61.219,68.218
		L61.219,68.218c0.172-0.675-0.562-0.954-1.24-0.616c-1.688,0.842-3.209,1.235-5.236,1.521c-0.452,0.052-0.788,0.278-0.847,0.671
		c-0.112,0.564,0.679,0.787,1.068,0.787C57.167,70.471,60.827,69.739,61.219,68.218z M55.194,60.962L55.194,60.962
		c1.911-0.112,3.942-1.187,5.746-2.084c1.688-0.839,3.376-1.914,4.899-3.147c0.054-0.06,0.112-0.06,0.112-0.06s0.055,0,0.111,0.06
		c1.523,1.234,3.211,2.31,4.903,3.147c1.802,0.897,3.829,1.972,5.744,2.084c0.397,0,0.679-0.112,0.846-0.282
		c0.507-0.676,0.113-1.294-0.448-1.629c-1.244-0.68-2.312-1.185-3.551-1.859c-1.577-0.899-3.266-1.967-4.731-3.147
		c0.562,0.168,1.129,0.339,1.688,0.505c1.354,0.337,3.607,0.902,4.845,0.229c0.677-0.395,0.17-1.123-0.392-1.41
		c-1.127-0.504-2.371-0.842-3.551-1.348c-1.012-0.396-3.493-1.577-3.889-2.311c-0.168-0.222-0.279-1.742-0.671-2.306V47.4
		c-0.301-0.012-0.599-0.021-0.901-0.021c-0.304,0-0.607,0.009-0.908,0.024c-0.392,0.563-0.505,2.082-0.673,2.304
		c-0.394,0.733-2.871,1.914-3.886,2.311c-1.185,0.506-2.425,0.844-3.548,1.348c-0.565,0.287-1.072,1.017-0.397,1.41
		c1.239,0.675,3.495,0.108,4.847-0.229c0.562-0.166,1.127-0.336,1.688-0.505c-1.408,1.183-3.154,2.248-4.734,3.147
		c-1.239,0.677-2.306,1.182-3.548,1.859c-0.563,0.335-0.957,0.953-0.448,1.629C54.516,60.85,54.797,60.962,55.194,60.962z
		 M65.952,57.53L65.952,57.53c-0.904,0-1.859,0.06-2.479,0.562c-0.394,0.277,0.059,0.784,0.844,0.957
		c0.792,0.167,1.075,0.111,1.636,0.111c0.562,0,0.847,0.057,1.635-0.111c0.787-0.173,1.239-0.68,0.844-0.957
		C67.811,57.59,66.857,57.53,65.952,57.53z M80.429,73.337c-3.49-0.897-6.363-1.801-9.462-3.317
		c-0.675-0.449-1.918-1.182-2.086-1.635c-0.17-0.447-0.222-2.134-0.222-3.148c2.249,1.521,5.63,2.479,8.336,2.591
		c0.897,0.053,2.874,0.053,3.042-0.62c0.054-0.336-0.227-0.562-0.395-0.677c-3.1-1.238-6.085-2.358-8.788-3.88
		c-2.195-1.184-3.549-2.646-4.902-2.646c-1.354,0-2.706,1.462-4.901,2.646c-2.706,1.521-5.688,2.642-8.732,3.88
		c-0.224,0.112-0.509,0.34-0.394,0.677c0.113,0.672,2.084,0.672,2.985,0.62c2.704-0.112,6.085-1.069,8.336-2.591
		c0,1.017-0.054,2.701-0.224,3.148c-0.168,0.453-1.352,1.186-2.082,1.635c-3.099,1.518-5.977,2.42-9.466,3.317
		c-0.733,0.17-1.86,0.843-1.409,1.802c0.282,0.504,1.351,0.73,2.086,0.676c3.831-0.338,7.266-1.185,10.703-2.531
		c-0.227,4.275-0.567,9.279-0.789,13.611c2.532,0.506,5.24,0.506,7.774,0c-0.224-4.332-0.565-9.336-0.791-13.611
		c3.438,1.348,6.874,2.191,10.707,2.531c0.788,0.056,1.802-0.172,2.084-0.676C82.29,74.18,81.164,73.507,80.429,73.337z"/>
</g>
<rect fill="none" width="640" height="100"/>
</svg>
