<svg xmlns="http://www.w3.org/2000/svg" xmlns:xlink="http://www.w3.org/1999/xlink" width="639.999" height="100" viewBox="0 0 639.999 100"><path fill="#0062B0" d="M148.434 75.539h-.961l-.468-1.508h-1.933l.381 1.508h-2.265v-2.714h4.86v-2.06h-4.86v-2.013h4.915v-2.059h-12.147v2.059h4.625v2.013h-4.611v2.06h4.611v2.714h-4.625v2.064h12.478zM149.848 78.11c0 .301-.111.444-.197.544-.084.105-.28.157-.589.157h-14.524v-13.323h15.311v12.622zm-17.914-14.674v17.422h17.177c1.472 0 2.354-.135 2.642-.402.293-.271.479-.553.565-.854.094-.299.137-.632.137-.996v-15.17h-20.521zM196.009 71.59l-1.844-4.976-3.367-.063 2.478 6.18c.382.886 1.271 1.392 1.653 1.646h-5.303v-8.578l8.701-.011v-2.278h-20.392v2.278l8.703.011v8.578h-5.285c.376-.253 1.125-.76 1.505-1.646l2.479-6.18-3.365.063-1.845 4.976c-.315.824-1.458 2.346-2.413 2.786h-.125v2.348l9.05.007v4.053h2.987v-4.053l9.048-.007v-2.348h-.315c-.95-.439-2.034-2.025-2.35-2.786"/><path fill="#0062B0" d="M120.864 75.806h5.516c.437 0 .697-.036.783-.108.094-.069.137-.236.137-.49v-7.602h-6.436v8.2zm-9.395 0h6.383v-8.2h-6.383v8.2zm-2.593-10.496h8.976v-2.138h3.013v2.138h9.06v10.922c0 .313-.059.599-.176.857-.114.257-.319.488-.612.703-.288.205-.693.312-1.212.312h-7.06v3.02h-3.013v-3.02h-8.976v-12.794zM166.683 63.392h-2.991v2.536h-8.983v2.407h8.414l-5.97 8.69c-.257.377-.826.826-.893.886-.378.253-.698.503-1.209.566l-.343.021v2.387l.538.003c.187 0 .581-.027.824-.066.38-.062 1.458-.502 1.843-.818.444-.385 1.209-1.084 1.587-1.591l2.987-4.119v1.837c.444 0 .826 0 1.142.192.254.062.444.315.827.763l2.289 3.233 3.049.062-3.24-4.563c-1.271-1.65-1.526-1.84-2.418-1.903h-1.396l2.542-3.549 5.588 7.544c.254.316.827 1.135 1.46 1.832.763.761 1.847 1.141 2.354 1.141.511.061.827.02 1.051.02v-2.346c-.157 0-.353-.021-.671-.145-.633-.253-1.397-1.325-1.838-1.834l-6.036-8.243h8.543v-2.407h-9.05v-2.536zM113.095 87.201c-.726 0-1.246.207-1.563.627-.322.414-.479 1.104-.479 2.074 0 .823.147 1.408.444 1.75.304.344.838.516 1.599.516h2.89v1.322h-2.976c-.673 0-1.184-.048-1.54-.152-.354-.094-.708-.265-1.053-.513-.427-.303-.745-.698-.963-1.188-.219-.487-.328-1.092-.328-1.801 0-1.333.32-2.317.963-2.968.638-.635 1.63-.958 2.976-.958h2.921v1.291h-2.891zM119.01 85.911v3.067h3.232v-3.067h1.747v7.58h-1.747v-3.174h-3.232v3.174h-1.745v-7.58zM125.705 85.911h1.837v7.58h-1.837zM129.28 85.911h2.219l3.42 5.441-.082-5.441h1.79v7.58h-2.032l-3.591-5.737.082 5.737h-1.806zM141.563 87.415l-1.213 2.919h2.486l-1.273-2.919zm-.875-1.504h1.882l3.552 7.58h-1.941l-.776-1.803h-3.63l-.743 1.803h-1.865l3.521-7.58zM153.012 87.231h-2.687v-1.32h7.24v1.32h-2.732v6.26h-1.817zM161.101 87.415l-1.213 2.919h2.486l-1.273-2.919zm-.877-1.504h1.881l3.553 7.58h-1.94l-.777-1.803h-3.627l-.744 1.803h-1.866l3.52-7.58zM166.53 85.911h1.837v7.58h-1.837zM173.899 87.267h-2.043v2.231h2.139c.295 0 .532-.022.72-.065.184-.039.341-.107.483-.208.246-.192.373-.475.373-.843 0-.394-.127-.679-.373-.859-.257-.173-.686-.256-1.299-.256m-3.793-1.356h3.816c.634 0 1.143.035 1.539.097.396.065.691.159.902.283.195.119.366.24.507.37.133.137.25.305.351.499.195.345.297.751.297 1.222 0 .444-.078.833-.234 1.162-.179.335-.419.607-.723.808-.287.179-.614.302-.967.371-.369.077-.903.113-1.6.113h-2.139v2.656h-1.75v-7.581zM178.735 85.911h1.832v7.58h-1.832zM182.311 85.911h2.218l3.42 5.441-.084-5.441h1.788v7.58h-2.028l-3.595-5.737.082 5.737h-1.801zM194.359 90.334v-1.342h4.149v4.499h-3.762c-.676 0-1.194-.054-1.565-.152-.364-.094-.727-.265-1.084-.517-.421-.303-.742-.694-.959-1.184-.219-.487-.329-1.092-.329-1.801 0-1.333.329-2.317.977-2.968.64-.635 1.626-.958 2.961-.958h3.762v1.291h-3.762c-.684 0-1.188.198-1.509.605-.319.4-.481 1.053-.481 1.948 0 .828.16 1.43.479 1.805.32.374.823.561 1.509.561h1.974v-1.785h-2.36z"/><defs><path id="a" d="M78.952 58.379c10.988 0 19.945 8.951 19.945 19.92 0 11.028-8.957 19.973-19.945 19.973-10.99 0-19.948-8.945-19.948-19.973 0-10.968 8.958-19.92 19.948-19.92"/></defs><clipPath id="b"><use xlink:href="#a" overflow="visible"/></clipPath><linearGradient id="c" gradientUnits="userSpaceOnUse" x1="3690.432" y1="529.04" x2="3692.428" y2="529.04" gradientTransform="matrix(0 -19.983 19.983 0 -10492.928 73843.445)"><stop offset="0" stop-color="#00A23E"/><stop offset=".2" stop-color="#00A23E"/><stop offset=".8" stop-color="#0062B0"/><stop offset="1" stop-color="#0062B0"/></linearGradient><path clip-path="url(#b)" fill="url(#c)" d="M59.004 58.379h39.894v39.895h-39.894z"/><path fill="#fff" d="M90.163 80.121c-2.027-.284-3.549-.677-5.236-1.519-.679-.339-1.412-.059-1.24.616.394 1.521 4.055 2.253 6.252 2.361.393 0 1.182-.221 1.07-.787-.059-.391-.398-.619-.846-.671m-15.944-.903c.172-.675-.562-.955-1.24-.616-1.688.842-3.209 1.235-5.236 1.519-.452.052-.788.28-.847.671-.112.565.679.787 1.068.787 2.203-.108 5.863-.84 6.255-2.361zm-6.025-7.256c1.911-.113 3.942-1.186 5.746-2.084 1.688-.839 3.376-1.914 4.899-3.147l.112-.06.111.06c1.523 1.234 3.211 2.308 4.903 3.147 1.802.898 3.829 1.971 5.744 2.084.397 0 .679-.113.846-.283.507-.675.113-1.293-.448-1.628-1.244-.68-2.312-1.185-3.551-1.859-1.577-.901-3.266-1.968-4.731-3.149l1.688.505c1.354.337 3.607.902 4.845.227.677-.393.17-1.123-.392-1.41-1.127-.504-2.371-.841-3.551-1.348-1.012-.396-3.493-1.576-3.889-2.309-.168-.221-.279-1.742-.671-2.306v-.001c-.301-.013-.599-.021-.901-.021-.304 0-.607.009-.908.024-.392.564-.505 2.083-.673 2.304-.394.733-2.871 1.914-3.886 2.309-1.185.507-2.425.844-3.548 1.348-.565.287-1.072 1.017-.397 1.41 1.239.675 3.495.11 4.847-.227l1.688-.505c-1.408 1.182-3.154 2.248-4.734 3.149-1.239.675-2.306 1.18-3.548 1.859-.563.335-.957.953-.448 1.628.169.171.45.283.847.283zm10.758-3.432c-.904 0-1.859.06-2.479.564-.394.277.059.784.844.957.792.167 1.075.111 1.636.111.562 0 .847.057 1.635-.111.787-.173 1.239-.68.844-.957-.621-.504-1.575-.564-2.48-.564zm14.477 15.807c-3.49-.898-6.363-1.801-9.462-3.318-.675-.449-1.918-1.181-2.086-1.634-.17-.447-.222-2.134-.222-3.148 2.249 1.52 5.63 2.477 8.336 2.589.897.053 2.874.053 3.042-.62.054-.336-.227-.563-.395-.676-3.1-1.239-6.085-2.359-8.788-3.88-2.195-1.183-3.549-2.646-4.902-2.646-1.354 0-2.706 1.462-4.901 2.646-2.706 1.521-5.688 2.641-8.732 3.88-.224.112-.509.339-.394.676.113.672 2.084.672 2.985.62 2.704-.112 6.085-1.069 8.336-2.589 0 1.015-.054 2.701-.224 3.148-.168.453-1.352 1.185-2.082 1.634-3.099 1.517-5.977 2.42-9.466 3.318-.733.17-1.86.843-1.409 1.801.282.505 1.351.731 2.086.676 3.831-.338 7.266-1.184 10.703-2.532-.227 4.276-.567 9.28-.789 13.613 2.532.506 5.24.506 7.774 0-.224-4.333-.565-9.337-.791-13.613 3.438 1.348 6.874 2.193 10.707 2.532.788.055 1.802-.171 2.084-.676.451-.958-.675-1.631-1.41-1.801z"/><path fill="none" d="M0 0h639.999v100h-639.999z"/></svg>