<?xml version="1.0" encoding="utf-8"?>
<!-- Generator: Adobe Illustrator 16.0.0, SVG Export Plug-In . SVG Version: 6.00 Build 0)  -->
<!DOCTYPE svg PUBLIC "-//W3C//DTD SVG 1.1//EN" "http://www.w3.org/Graphics/SVG/1.1/DTD/svg11.dtd">
<svg version="1.1" id="图层_1" xmlns="http://www.w3.org/2000/svg" xmlns:xlink="http://www.w3.org/1999/xlink" x="0px" y="0px"
	 width="639.999px" height="100px" viewBox="0 0 639.999 100" enable-background="new 0 0 639.999 100" xml:space="preserve">
<g>
	<g>
		<polygon fill="#0062B0" points="148.434,75.539 147.473,75.539 147.005,74.031 145.072,74.031 145.453,75.539 143.188,75.539 
			143.188,72.825 148.048,72.825 148.048,70.765 143.188,70.765 143.188,68.752 148.103,68.752 148.103,66.693 135.956,66.693 
			135.956,68.752 140.581,68.752 140.581,70.765 135.97,70.765 135.97,72.825 140.581,72.825 140.581,75.539 135.956,75.539 
			135.956,77.603 148.434,77.603 		"/>
		<path fill="#0062B0" d="M149.848,78.11L149.848,78.11c0,0.301-0.111,0.444-0.197,0.544c-0.084,0.105-0.28,0.157-0.589,0.157
			h-14.524V65.488h15.311V78.11z M131.934,63.436v17.422h17.177c1.472,0,2.354-0.135,2.642-0.402
			c0.293-0.271,0.479-0.553,0.565-0.854c0.094-0.299,0.137-0.632,0.137-0.996v-15.17H131.934z"/>
		<path fill="#0062B0" d="M196.009,71.59l-1.844-4.976l-3.367-0.063l2.478,6.18c0.382,0.886,1.271,1.392,1.653,1.646h-5.303v-8.578
			l8.701-0.011V63.51h-20.392v2.278l8.703,0.011v8.578h-5.285c0.376-0.253,1.125-0.76,1.505-1.646l2.479-6.18l-3.365,0.063
			l-1.845,4.976c-0.315,0.824-1.458,2.346-2.413,2.786h-0.125v2.348l9.05,0.007v4.053h2.987v-4.053l9.048-0.007v-2.348h-0.315
			C197.409,73.937,196.325,72.351,196.009,71.59"/>
		<path fill="#0062B0" d="M120.864,75.806L120.864,75.806h5.516c0.437,0,0.697-0.036,0.783-0.108
			c0.094-0.069,0.137-0.236,0.137-0.49v-7.602h-6.436V75.806z M111.469,75.806L111.469,75.806h6.383v-8.2h-6.383V75.806z
			 M108.876,65.31h8.976v-2.138h3.013v2.138h9.06v10.922c0,0.313-0.059,0.599-0.176,0.857c-0.114,0.257-0.319,0.488-0.612,0.703
			c-0.288,0.205-0.693,0.312-1.212,0.312h-7.06v3.02h-3.013v-3.02h-8.976V65.31z"/>
		<path fill="#0062B0" d="M166.683,63.392h-2.991v2.536h-8.983v2.407h8.414l-5.97,8.69c-0.257,0.377-0.826,0.826-0.893,0.886
			c-0.378,0.253-0.698,0.503-1.209,0.566c-0.121,0-0.354,0.042-0.343,0.021v2.387c-0.033,0,0.284,0.003,0.538,0.003
			c0.187,0,0.581-0.027,0.824-0.066c0.38-0.062,1.458-0.502,1.843-0.818c0.444-0.385,1.209-1.084,1.587-1.591l2.987-4.119v1.837
			c0.444,0,0.826,0,1.142,0.192c0.254,0.062,0.444,0.315,0.827,0.763l2.289,3.233l3.049,0.062l-3.24-4.563
			c-1.271-1.65-1.526-1.84-2.418-1.903h-1.396l2.542-3.549l5.588,7.544c0.254,0.316,0.827,1.135,1.46,1.832
			c0.763,0.761,1.847,1.141,2.354,1.141c0.511,0.061,0.827,0.02,1.051,0.02v-2.346c-0.157,0-0.353-0.021-0.671-0.145
			c-0.633-0.253-1.397-1.325-1.838-1.834l-6.036-8.243h8.543v-2.407h-9.05V63.392z"/>
		<path fill="#0062B0" d="M113.095,87.201c-0.726,0-1.246,0.207-1.563,0.627c-0.322,0.414-0.479,1.104-0.479,2.074
			c0,0.823,0.147,1.408,0.444,1.75c0.304,0.344,0.838,0.516,1.599,0.516h2.89v1.322h-2.976c-0.673,0-1.184-0.048-1.54-0.152
			c-0.354-0.094-0.708-0.265-1.053-0.513c-0.427-0.303-0.745-0.698-0.963-1.188c-0.219-0.487-0.328-1.092-0.328-1.801
			c0-1.333,0.32-2.317,0.963-2.968c0.638-0.635,1.63-0.958,2.976-0.958h2.921v1.291H113.095z"/>
		<polygon fill="#0062B0" points="119.01,85.911 119.01,88.978 122.242,88.978 122.242,85.911 123.989,85.911 123.989,93.491 
			122.242,93.491 122.242,90.317 119.01,90.317 119.01,93.491 117.265,93.491 117.265,85.911 		"/>
		<rect x="125.705" y="85.911" fill="#0062B0" width="1.837" height="7.58"/>
		<polygon fill="#0062B0" points="129.28,85.911 131.499,85.911 134.919,91.352 134.837,85.911 136.627,85.911 136.627,93.491 
			134.595,93.491 131.004,87.754 131.086,93.491 129.28,93.491 		"/>
		<path fill="#0062B0" d="M141.563,87.415L141.563,87.415l-1.213,2.919h2.486L141.563,87.415z M140.688,85.911h1.882l3.552,7.58
			h-1.941l-0.776-1.803h-3.63l-0.743,1.803h-1.865L140.688,85.911z"/>
		<polygon fill="#0062B0" points="153.012,87.231 150.325,87.231 150.325,85.911 157.565,85.911 157.565,87.231 154.833,87.231 
			154.833,93.491 153.016,93.491 		"/>
		<path fill="#0062B0" d="M161.101,87.415L161.101,87.415l-1.213,2.919h2.486L161.101,87.415z M160.224,85.911h1.881l3.553,7.58
			h-1.94l-0.777-1.803h-3.627l-0.744,1.803h-1.866L160.224,85.911z"/>
		<rect x="166.53" y="85.911" fill="#0062B0" width="1.837" height="7.58"/>
		<path fill="#0062B0" d="M173.899,87.267L173.899,87.267h-2.043v2.231h2.139c0.295,0,0.532-0.022,0.72-0.065
			c0.184-0.039,0.341-0.107,0.483-0.208c0.246-0.192,0.373-0.475,0.373-0.843c0-0.394-0.127-0.679-0.373-0.859
			C174.941,87.35,174.512,87.267,173.899,87.267 M170.106,85.911h3.816c0.634,0,1.143,0.035,1.539,0.097
			c0.396,0.065,0.691,0.159,0.902,0.283c0.195,0.119,0.366,0.24,0.507,0.37c0.133,0.137,0.25,0.305,0.351,0.499
			c0.195,0.345,0.297,0.751,0.297,1.222c0,0.444-0.078,0.833-0.234,1.162c-0.179,0.335-0.419,0.607-0.723,0.808
			c-0.287,0.179-0.614,0.302-0.967,0.371c-0.369,0.077-0.903,0.113-1.6,0.113h-2.139v2.656h-1.75V85.911z"/>
		<rect x="178.735" y="85.911" fill="#0062B0" width="1.832" height="7.58"/>
		<polygon fill="#0062B0" points="182.311,85.911 184.529,85.911 187.949,91.352 187.865,85.911 189.653,85.911 189.653,93.491 
			187.625,93.491 184.03,87.754 184.112,93.491 182.311,93.491 		"/>
		<path fill="#0062B0" d="M194.359,90.334v-1.342h4.149v4.499h-3.762c-0.676,0-1.194-0.054-1.565-0.152
			c-0.364-0.094-0.727-0.265-1.084-0.517c-0.421-0.303-0.742-0.694-0.959-1.184c-0.219-0.487-0.329-1.092-0.329-1.801
			c0-1.333,0.329-2.317,0.977-2.968c0.64-0.635,1.626-0.958,2.961-0.958h3.762v1.291h-3.762c-0.684,0-1.188,0.198-1.509,0.605
			c-0.319,0.4-0.481,1.053-0.481,1.948c0,0.828,0.16,1.43,0.479,1.805c0.32,0.374,0.823,0.561,1.509,0.561h1.974v-1.785H194.359z"/>
		<g>
			<defs>
				<path id="SVGID_145_" d="M78.952,58.379c10.988,0,19.945,8.951,19.945,19.92c0,11.028-8.957,19.973-19.945,19.973
					c-10.99,0-19.948-8.945-19.948-19.973C59.004,67.331,67.962,58.379,78.952,58.379"/>
			</defs>
			<clipPath id="SVGID_2_">
				<use xlink:href="#SVGID_145_"  overflow="visible"/>
			</clipPath>
			
				<linearGradient id="SVGID_4_" gradientUnits="userSpaceOnUse" x1="3690.4321" y1="529.0405" x2="3692.4282" y2="529.0405" gradientTransform="matrix(0 -19.9828 19.9831 0 -10492.9277 73843.4453)">
				<stop  offset="0" style="stop-color:#00A23E"/>
				<stop  offset="0.2" style="stop-color:#00A23E"/>
				<stop  offset="0.8" style="stop-color:#0062B0"/>
				<stop  offset="1" style="stop-color:#0062B0"/>
			</linearGradient>
			<rect x="59.004" y="58.379" clip-path="url(#SVGID_2_)" fill="url(#SVGID_4_)" width="39.894" height="39.895"/>
		</g>
		<path fill="#FFFFFF" d="M90.163,80.121L90.163,80.121c-2.027-0.284-3.549-0.677-5.236-1.519c-0.679-0.339-1.412-0.059-1.24,0.616
			c0.394,1.521,4.055,2.253,6.252,2.361c0.393,0,1.182-0.221,1.07-0.787C90.95,80.401,90.611,80.173,90.163,80.121 M74.219,79.218
			L74.219,79.218c0.172-0.675-0.562-0.955-1.24-0.616c-1.688,0.842-3.209,1.235-5.236,1.519c-0.452,0.052-0.788,0.28-0.847,0.671
			c-0.112,0.565,0.679,0.787,1.068,0.787C70.167,81.471,73.827,80.739,74.219,79.218z M68.194,71.962L68.194,71.962
			c1.911-0.113,3.942-1.186,5.746-2.084c1.688-0.839,3.376-1.914,4.899-3.147c0.054-0.06,0.112-0.06,0.112-0.06s0.055,0,0.111,0.06
			c1.523,1.234,3.211,2.308,4.903,3.147c1.802,0.898,3.829,1.971,5.744,2.084c0.397,0,0.679-0.113,0.846-0.283
			c0.507-0.675,0.113-1.293-0.448-1.628c-1.244-0.68-2.312-1.185-3.551-1.859c-1.577-0.901-3.266-1.968-4.731-3.149
			c0.562,0.168,1.129,0.339,1.688,0.505c1.354,0.337,3.607,0.902,4.845,0.227c0.677-0.393,0.17-1.123-0.392-1.41
			c-1.127-0.504-2.371-0.841-3.551-1.348c-1.012-0.396-3.493-1.576-3.889-2.309c-0.168-0.221-0.279-1.742-0.671-2.306v-0.001
			c-0.301-0.013-0.599-0.021-0.901-0.021c-0.304,0-0.607,0.009-0.908,0.024c-0.392,0.564-0.505,2.083-0.673,2.304
			c-0.394,0.733-2.871,1.914-3.886,2.309c-1.185,0.507-2.425,0.844-3.548,1.348c-0.565,0.287-1.072,1.017-0.397,1.41
			c1.239,0.675,3.495,0.11,4.847-0.227c0.562-0.166,1.127-0.336,1.688-0.505c-1.408,1.182-3.154,2.248-4.734,3.149
			c-1.239,0.675-2.306,1.18-3.548,1.859c-0.563,0.335-0.957,0.953-0.448,1.628C67.516,71.85,67.797,71.962,68.194,71.962z
			 M78.952,68.53L78.952,68.53c-0.904,0-1.859,0.06-2.479,0.564c-0.394,0.277,0.059,0.784,0.844,0.957
			c0.792,0.167,1.075,0.111,1.636,0.111c0.562,0,0.847,0.057,1.635-0.111c0.787-0.173,1.239-0.68,0.844-0.957
			C80.811,68.59,79.857,68.53,78.952,68.53z M93.429,84.337c-3.49-0.898-6.363-1.801-9.462-3.318
			c-0.675-0.449-1.918-1.181-2.086-1.634c-0.17-0.447-0.222-2.134-0.222-3.148c2.249,1.52,5.63,2.477,8.336,2.589
			c0.897,0.053,2.874,0.053,3.042-0.62c0.054-0.336-0.227-0.563-0.395-0.676c-3.1-1.239-6.085-2.359-8.788-3.88
			c-2.195-1.183-3.549-2.646-4.902-2.646c-1.354,0-2.706,1.462-4.901,2.646c-2.706,1.521-5.688,2.641-8.732,3.88
			c-0.224,0.112-0.509,0.339-0.394,0.676c0.113,0.672,2.084,0.672,2.985,0.62c2.704-0.112,6.085-1.069,8.336-2.589
			c0,1.015-0.054,2.701-0.224,3.148c-0.168,0.453-1.352,1.185-2.082,1.634c-3.099,1.517-5.977,2.42-9.466,3.318
			c-0.733,0.17-1.86,0.843-1.409,1.801c0.282,0.505,1.351,0.731,2.086,0.676c3.831-0.338,7.266-1.184,10.703-2.532
			c-0.227,4.276-0.567,9.28-0.789,13.613c2.532,0.506,5.24,0.506,7.774,0c-0.224-4.333-0.565-9.337-0.791-13.613
			c3.438,1.348,6.874,2.193,10.707,2.532c0.788,0.055,1.802-0.171,2.084-0.676C95.29,85.18,94.164,84.507,93.429,84.337z"/>
	</g>
	<rect fill="none" width="639.999" height="100"/>
</g>
</svg>
