<?xml version="1.0" encoding="utf-8"?>
<!-- Generator: Adobe Illustrator 16.0.0, SVG Export Plug-In . SVG Version: 6.00 Build 0)  -->
<!DOCTYPE svg PUBLIC "-//W3C//DTD SVG 1.1//EN" "http://www.w3.org/Graphics/SVG/1.1/DTD/svg11.dtd">
<svg version="1.1" id="图层_1" xmlns="http://www.w3.org/2000/svg" xmlns:xlink="http://www.w3.org/1999/xlink" x="0px" y="0px"
	 width="640px" height="60.667px" viewBox="0 0 640 60.667" enable-background="new 0 0 640 60.667" xml:space="preserve">
<g>
	<path fill="#A72027" d="M176.666,30.065c-0.701,2.093-1.23,3.523-1.588,4.31c-0.358,0.781-0.917,1.834-1.673,3.156
		c-0.761,1.325-1.563,2.474-2.41,3.442c-0.847,0.968-1.674,1.876-2.48,2.712c-0.807,0.837-1.578,1.588-2.314,2.248
		c-0.73,0.665-1.224,1.023-1.477,1.072c-0.247,0.051-0.439-0.02-0.564-0.2c-0.132-0.182-0.132-0.395,0-0.64
		c0.046-0.102,0.146-0.201,0.292-0.312l0.373-0.238c0.166-0.105,0.484-0.394,0.958-0.852l1.372-1.27
		c0.328-0.318,1.089-1.131,2.288-2.432c1.205-1.304,2.178-2.655,2.93-4.057c0.746-1.396,1.27-2.43,1.572-3.101
		c0.297-0.67,0.641-1.542,1.023-2.626c0.383-1.084,0.675-2.047,0.876-2.884c0.207-0.836,0.383-1.732,0.54-2.702
		c0.161-0.961,0.256-1.663,0.292-2.102c0.031-0.438,0.061-0.906,0.081-1.411c0.02-0.503,0.025-0.912,0.016-1.234
		c-0.01-0.317,0.024-0.56,0.11-0.722c0.081-0.161,0.243-0.276,0.484-0.343c0.242-0.061,0.444,0.035,0.6,0.299
		c0.157,0.261,0.221,0.584,0.192,0.967c-0.06,0.62-0.116,1.211-0.171,1.765c-0.051,0.554-0.126,1.149-0.211,1.779
		c-0.091,0.63-0.167,1.145-0.238,1.536c-0.07,0.395-0.196,1.109-0.383,2.153c0.55,1.165,1.14,2.364,1.771,3.599
		c0.629,1.236,1.481,2.712,2.55,4.422c1.068,1.714,1.966,3.033,2.691,3.968c0.731,0.932,1.493,1.738,2.294,2.429
		c0.796,0.69,1.467,1.225,2.022,1.603c0.55,0.378,1.002,0.649,1.356,0.812c0.357,0.161,0.595,0.288,0.71,0.384
		c0.116,0.096,0.196,0.221,0.236,0.392c0.041,0.168-0.064,0.354-0.317,0.56c-0.251,0.207-0.866,0-1.839-0.614
		c-0.973-0.616-1.83-1.245-2.57-1.895c-0.737-0.651-1.539-1.468-2.405-2.445c-0.866-0.979-1.83-2.323-2.888-4.033
		C179.705,35.853,178.339,33.356,176.666,30.065"/>
	<path fill="#A72027" d="M208.417,44.29l10.131-0.591c0.248-0.01,0.418,0.051,0.525,0.184c0.101,0.135,0.157,0.268,0.161,0.397
		c0.005,0.137-0.04,0.268-0.131,0.398c-0.095,0.136-0.237,0.206-0.423,0.216l-22.699,1.195c-0.136,0.01-0.272-0.029-0.403-0.117
		c-0.136-0.09-0.207-0.22-0.216-0.397c-0.011-0.176,0.05-0.315,0.186-0.413c0.131-0.1,0.262-0.156,0.389-0.166l11.3-0.646v-6.81
		l-6.426,0.458c-0.146,0.021-0.283-0.016-0.404-0.096c-0.125-0.086-0.191-0.217-0.207-0.394c-0.015-0.176,0.04-0.316,0.167-0.427
		c0.131-0.107,0.256-0.168,0.383-0.178l6.486-0.503l-0.015-5.701l-7.43,0.563c-0.569,1.367-1.381,2.925-2.434,4.668
		c-1.054,1.738-1.714,2.45-1.976,2.123c-0.257-0.324-0.358-0.601-0.303-0.827c0.031-0.096,0.283-0.435,0.747-1.004
		c0.469-0.569,1.084-1.618,1.839-3.145c0.761-1.526,1.371-2.915,1.84-4.174c0.468-1.256,0.862-2.455,1.189-3.609
		c0.323-1.15,0.524-1.759,0.604-1.83c0.076-0.07,0.187-0.105,0.333-0.109c0.141-0.006,0.268,0.035,0.373,0.124
		c0.162,0.146,0.227,0.293,0.212,0.445l-0.031,0.337c-0.216,0.767-0.453,1.567-0.706,2.4c-0.247,0.83-0.66,1.99-1.229,3.478
		l6.971-0.591v-9.596c0-0.188,0.041-0.343,0.131-0.46c0.091-0.121,0.222-0.182,0.398-0.188c0.177-0.004,0.333,0.057,0.464,0.178
		c0.137,0.127,0.202,0.282,0.202,0.47v9.505l7.087-0.573c0.237-0.01,0.408,0.044,0.52,0.171c0.105,0.121,0.167,0.252,0.181,0.383
		c0.015,0.13-0.025,0.272-0.116,0.413c-0.096,0.143-0.232,0.216-0.424,0.228l-7.248,0.534v5.686l6.246-0.489
		c0.226-0.01,0.397,0.051,0.509,0.188c0.116,0.13,0.176,0.261,0.191,0.388c0.016,0.131-0.025,0.261-0.125,0.397
		c-0.096,0.143-0.237,0.213-0.423,0.223l-6.396,0.458V44.29z"/>
	<path fill="#A72027" d="M234.75,20.245c0.065-0.051,0.201-0.06,0.398-0.045c0.197,0.021,0.388,0.105,0.58,0.252
		c0.191,0.152,0.388,0.349,0.579,0.601c0.192,0.251,0.479,0.646,0.861,1.18c0.384,0.54,0.742,1.023,1.069,1.462
		c0.333,0.438,0.555,0.821,0.676,1.154c0.116,0.327,0.131,0.62,0.035,0.871c-0.091,0.252-0.297,0.318-0.615,0.197
		c-0.211-0.066-0.59-0.54-1.119-1.411c-0.534-0.868-1.028-1.608-1.491-2.217l-0.903-1.141c-0.146-0.188-0.226-0.363-0.237-0.524
		C234.574,20.462,234.629,20.337,234.75,20.245 M243.843,27.57l-14.795,1.285l-0.887,0.106c-0.247-0.05-0.407-0.177-0.479-0.384
		c-0.076-0.206-0.045-0.403,0.096-0.579c0.065-0.096,0.146-0.156,0.237-0.181c0.086-0.025,0.368-0.066,0.842-0.111l15.269-1.346
		l0.932-0.102c0.706,0.01,0.973,0.318,0.796,0.927c-0.09,0.308-0.523,0.816-1.31,1.538c-0.782,0.716-1.896,1.694-3.342,2.929
		c-1.446,1.239-2.273,1.941-2.474,2.107c-0.202,0.165-2.703,2.127-7.511,5.878c0.605,0.186,1.058,0.321,1.375,0.413l2.405,0.681
		c0.444,0.135,1.729,0.534,3.851,1.193c2.117,0.66,3.67,1.096,4.648,1.306c0.984,0.213,1.906,0.338,2.772,0.379
		c0.868,0.041,1.976,0.061,3.337,0.061c0.423,0.009,0.837-0.016,1.245-0.076c0.41-0.061,0.57,0.146,0.484,0.62
		c-0.03,0.155-0.13,0.298-0.302,0.413c-0.177,0.121-0.868,0.187-2.078,0.206c-1.93,0.041-3.402-0.029-4.426-0.21
		c-1.018-0.182-1.87-0.369-2.561-0.55c-0.69-0.182-1.315-0.363-1.875-0.554l-2.687-0.899c-0.383-0.12-1.583-0.464-3.589-1.033
		c-2.006-0.573-3.281-0.896-3.826-0.977c-0.539-0.076-1.108-0.092-1.714-0.041c-0.6,0.045-1.164,0.172-1.699,0.373
		c-0.528,0.202-0.882,0.323-1.053,0.362c-0.171,0.041-0.328-0.01-0.474-0.141c-0.142-0.131-0.121-0.372,0.065-0.716
		c0.07-0.126,0.222-0.257,0.454-0.384c0.232-0.131,0.575-0.255,1.033-0.392c0.459-0.131,1.063-0.219,1.815-0.254
		c0.756-0.029,1.275-0.14,1.558-0.321c0.287-0.182,0.695-0.474,1.224-0.878l1.376-1.033c0.383-0.286,1.562-1.218,3.544-2.801
		c1.98-1.58,3.371-2.749,4.178-3.504l1.507-1.437l1.018-0.929L243.843,27.57z"/>
	<path fill="#A72027" d="M268.951,44.055l6.468-0.399l0.101-5.212c0-0.229-0.035-0.397-0.111-0.519
		c-0.07-0.117-0.251-0.172-0.534-0.162l-5.081,0.221c-0.404,0.021-0.666,0.102-0.787,0.253c-0.116,0.146-0.172,0.379-0.161,0.69
		L268.951,44.055z M268.951,45.072l0.046,0.826c0.005,0.268-0.046,0.509-0.156,0.731c-0.116,0.221-0.267,0.316-0.464,0.287
		c-0.151-0.01-0.277-0.105-0.378-0.287c-0.106-0.182-0.156-0.425-0.156-0.731l-0.146-7.148c-0.01-0.342,0.045-0.665,0.177-0.958
		c0.125-0.296,0.347-0.513,0.665-0.649c0.312-0.14,0.71-0.222,1.195-0.251l5.359-0.299c1.133-0.054,1.678,0.525,1.643,1.745
		l-0.222,6.703c-0.021,0.524-0.076,0.877-0.167,1.059c-0.086,0.182-0.226,0.268-0.418,0.264c-0.191-0.006-0.348-0.086-0.464-0.242
		c-0.121-0.156-0.166-0.358-0.151-0.606l0.06-0.871L268.951,45.072z M263.22,28.136l0.192-4.24c0-0.166-0.051-0.297-0.146-0.383
		c-0.102-0.091-0.232-0.132-0.399-0.12l-4.179,0.397c-0.348,0.041-0.504,0.272-0.473,0.696l0.221,4.148
		c0.01,0.356,0.242,0.503,0.69,0.442l3.489-0.397c0.186-0.021,0.332-0.082,0.434-0.188C263.154,28.391,263.21,28.271,263.22,28.136z
		 M256.632,43.302v-9.48c0-0.197,0.05-0.379,0.151-0.54c0.096-0.166,0.277-0.252,0.539-0.268c0.258-0.016,0.388,0.252,0.388,0.808
		v9.007l2.763-1.154V29.889l-1.537,0.136c-0.641,0.057-1.049-0.054-1.23-0.333c-0.181-0.28-0.272-0.499-0.272-0.659l-0.298-4.677
		c-0.02-0.229,0.016-0.521,0.111-0.884c0.096-0.358,0.438-0.564,1.044-0.625l4.828-0.443c0.314-0.02,0.565,0.016,0.751,0.102
		c0.187,0.09,0.343,0.246,0.474,0.474c0.125,0.227,0.186,0.428,0.176,0.604l-0.252,4.492c-0.02,0.297-0.075,0.538-0.161,0.735
		c-0.091,0.202-0.237,0.372-0.439,0.519s-0.397,0.231-0.594,0.253l-1.523,0.191v4.133l2.909-0.337l0.841-0.105
		c0.257,0.1,0.389,0.291,0.394,0.579c0.005,0.283-0.243,0.454-0.731,0.515l-3.413,0.411l0.016,6.231l3.529-1.478
		c0.514-0.205,0.801-0.18,0.862,0.076c0.065,0.257,0.04,0.448-0.071,0.585c-0.116,0.132-0.247,0.231-0.407,0.302l-9.819,4.164
		c-0.278,0.121-0.485,0.156-0.631,0.121c-0.141-0.041-0.237-0.162-0.292-0.362c-0.055-0.203-0.035-0.348,0.051-0.429
		c0.091-0.086,0.257-0.182,0.504-0.287L256.632,43.302z M270.1,24.072l4.814-0.46c1.073-0.096,1.709,0.037,1.905,0.395
		c0.197,0.358,0.211,0.801,0.046,1.321c-0.157,0.462-0.418,1.008-0.777,1.638c-0.358,0.63-0.791,1.316-1.29,2.051
		c-0.505,0.741-0.816,1.189-0.947,1.346l-0.499,0.62l-0.222,0.339c1.487,1.27,2.591,2.127,3.317,2.565
		c0.721,0.439,1.533,0.888,2.435,1.34c0.901,0.46,1.548,0.757,1.936,0.887c0.388,0.137,0.665,0.309,0.827,0.524
		c0.161,0.217,0.176,0.414,0.049,0.585c-0.125,0.172-0.296,0.268-0.509,0.283c-0.211,0.01-0.932-0.268-2.162-0.837
		s-2.369-1.194-3.413-1.875c-1.044-0.681-2.142-1.552-3.291-2.616c-0.631,0.67-1.528,1.522-2.683,2.55
		c-1.159,1.029-2.278,1.871-3.362,2.53l-1.194,0.696c-0.453,0.286-0.777,0.384-0.968,0.298c-0.191-0.091-0.297-0.231-0.323-0.429
		c-0.025-0.202,0.167-0.435,0.585-0.711l1.532-1.003c0.681-0.454,1.427-1.014,2.238-1.679c0.812-0.666,1.491-1.261,2.046-1.795
		l1.095-1.104l0.191-0.197c-0.091-0.064-0.222-0.186-0.398-0.353c-0.182-0.166-0.47-0.483-0.868-0.942
		c-0.397-0.464-0.715-0.811-0.952-1.049c-0.237-0.237-0.414-0.483-0.529-0.74c-0.121-0.258-0.116-0.464,0.015-0.626
		c0.125-0.166,0.323-0.211,0.589-0.15c0.268,0.066,0.564,0.344,0.903,0.827c0.333,0.489,1.024,1.194,2.067,2.123
		c1.003-1.281,1.845-2.482,2.525-3.605c0.681-1.125,0.973-1.779,0.876-1.967c-0.095-0.186-0.388-0.256-0.876-0.221l-5.187,0.475
		c-0.055,0.11-0.101,0.196-0.13,0.257c-0.031,0.064-0.238,0.528-0.621,1.396c-0.383,0.866-0.841,1.704-1.381,2.51
		c-0.534,0.807-0.897,1.315-1.078,1.522s-0.374,0.333-0.569,0.384c-0.197,0.051-0.354,0.02-0.47-0.087
		c-0.12-0.109-0.151-0.297-0.091-0.563c0.031-0.188,0.217-0.479,0.555-0.878c0.338-0.397,0.877-1.284,1.608-2.665
		c0.736-1.376,1.261-2.481,1.573-3.318c0.317-0.83,0.555-1.497,0.71-1.996l0.429-1.467c0.105-0.372,0.271-0.623,0.488-0.75
		c0.217-0.127,0.438-0.096,0.67,0.105c0.232,0.196,0.157,0.781-0.232,1.754l-0.62,1.79L270.1,24.072z"/>
	<path fill="#A72027" d="M317.363,26.819l-7.516,0.62c-0.514,0.051-0.766-0.117-0.755-0.505c0-0.226,0.065-0.362,0.186-0.417
		c0.121-0.057,0.313-0.098,0.569-0.127l8.076-0.649c0.403-0.877,0.75-1.675,1.033-2.396l0.711-1.89
		c0.227-0.601,0.378-1.049,0.449-1.341c0.074-0.297,0.176-0.519,0.302-0.671c0.131-0.156,0.312-0.211,0.549-0.182
		c0.237,0.035,0.39,0.156,0.46,0.365c0.064,0.204,0.025,0.528-0.121,0.967s-0.304,0.887-0.465,1.345
		c-0.162,0.46-0.635,1.685-1.426,3.686l13.307-1.078c0.188-0.01,0.338,0.028,0.459,0.114c0.117,0.092,0.178,0.252,0.182,0.489
		c0.006,0.236-0.187,0.369-0.58,0.398L318.9,26.689c-0.494,0.922-0.831,1.546-1.018,1.863c-0.192,0.324-0.534,0.862-1.038,1.618
		l9.334-0.795c0.983-0.082,1.533,0.09,1.639,0.513c0.111,0.425,0.162,0.807,0.162,1.141l-0.117,13.245
		c-0.01,0.375-0.035,0.858-0.076,1.453c-0.034,0.601-0.175,1.084-0.412,1.462c-0.237,0.382-0.711,0.351-1.432-0.082
		c-0.217-0.115-0.509-0.331-0.887-0.64c-0.373-0.312-0.691-0.613-0.959-0.906l-0.75-0.842c-0.162-0.152-0.307-0.354-0.439-0.604
		c-0.13-0.258-0.079-0.476,0.162-0.647c0.242-0.17,0.5-0.176,0.776-0.004c0.061,0.045,0.155,0.152,0.298,0.308l0.649,0.696
		c0.444,0.493,0.812,0.861,1.104,1.113c0.298,0.252,0.476,0.378,0.534,0.384c0.061,0.004,0.106-0.243,0.147-0.746l0.061-0.858
		c0.01-0.302,0.02-0.705,0.03-1.209l0.055-11.932c0-0.323-0.055-0.544-0.166-0.654c-0.116-0.117-0.303-0.162-0.569-0.141
		l-8.227,0.693c-0.323,0.025-0.529,0.086-0.615,0.168c-0.081,0.084-0.12,0.291-0.12,0.63v2.182l7.131-0.528
		c0.178-0.01,0.328,0.029,0.449,0.125c0.121,0.092,0.187,0.257,0.191,0.485c0.005,0.229-0.191,0.362-0.6,0.392l-7.172,0.575v3.281
		l7.323-0.563c0.187-0.012,0.339,0.029,0.458,0.119c0.116,0.088,0.178,0.223,0.183,0.399c0.005,0.176-0.04,0.297-0.142,0.363
		c-0.096,0.06-0.242,0.101-0.443,0.11l-7.379,0.62v7.233c0,0.229-0.057,0.423-0.156,0.591c-0.106,0.172-0.269,0.235-0.494,0.204
		c-0.197-0.009-0.344-0.095-0.43-0.261c-0.09-0.172-0.137-0.347-0.137-0.534V31.573c-0.074,0.089-0.13,0.155-0.16,0.19l-0.574,0.712
		c-0.415,0.503-1.028,1.148-1.845,1.934c-0.816,0.788-1.522,1.428-2.112,1.927c-0.59,0.499-1.301,1.023-2.122,1.573
		c-0.822,0.554-1.326,0.841-1.518,0.867c-0.191,0.02-0.358-0.075-0.499-0.298c-0.137-0.223-0.142-0.413-0.01-0.575
		c0.125-0.166,0.463-0.413,1.018-0.757c0.55-0.337,1.462-1.059,2.737-2.162s2.47-2.298,3.589-3.589
		C315.433,30.106,316.446,28.584,317.363,26.819"/>
	<path fill="#A72027" d="M405.606,31.678c-0.121-0.165-0.186-0.317-0.201-0.442c-0.016-0.126,0.029-0.247,0.131-0.364
		c0.104-0.109,0.291-0.166,0.553-0.156c0.34,0.031,0.813,0.299,1.434,0.804l2.309,1.692c0.871,0.66,1.889,1.513,3.055,2.55
		c1.158,1.039,1.812,1.71,1.965,2.006c0.146,0.305,0.176,0.54,0.086,0.716c-0.086,0.184-0.258,0.268-0.499,0.268
		c-0.142,0.011-0.292-0.035-0.47-0.141c-0.17-0.102-0.408-0.303-0.705-0.604c-0.303-0.297-0.807-0.767-1.518-1.396l-1.606-1.417
		c-0.521-0.433-1.401-1.113-2.638-2.045C406.267,32.218,405.631,31.729,405.606,31.678 M404.734,23.139l-11.831,0.61
		c-0.353,0.016-0.605-0.004-0.75-0.076c-0.152-0.07-0.254-0.186-0.303-0.347c-0.057-0.162-0.037-0.332,0.055-0.509
		c0.096-0.178,0.242-0.273,0.439-0.283l21.871-0.84l0.766-0.041c0.445,0.035,0.661,0.196,0.651,0.468
		c-0.01,0.278-0.096,0.47-0.257,0.579c-0.166,0.107-0.662,0.172-1.488,0.193l-8.947,0.245c0.273,0.111,0.443,0.219,0.5,0.318
		c0.061,0.106,0.086,0.212,0.08,0.327c0,0.111-0.09,0.374-0.262,0.781c-0.172,0.408-0.373,0.837-0.604,1.285
		c-0.231,0.45-0.813,1.393-1.739,2.829c0.72-0.229,1.078-0.01,1.078,0.649v16.776c0,0.403-0.041,0.71-0.127,0.922
		c-0.08,0.211-0.241,0.322-0.477,0.334c-0.238,0.01-0.41-0.061-0.525-0.213c-0.111-0.156-0.172-0.448-0.172-0.881V29.032
		c-0.222,0.348-0.469,0.706-0.736,1.074c-0.268,0.367-1.139,1.381-2.621,3.04c-1.48,1.657-3.02,3.139-4.616,4.439
		c-1.593,1.296-2.562,2.072-2.909,2.323c-0.343,0.252-0.6,0.385-0.775,0.4c-0.172,0.014-0.314-0.025-0.424-0.117
		c-0.116-0.096-0.171-0.227-0.171-0.394c0-0.166,0.029-0.293,0.084-0.383c0.062-0.092,0.394-0.327,0.998-0.715
		c0.606-0.389,1.554-1.176,2.839-2.35c1.285-1.176,2.465-2.334,3.545-3.469c1.078-1.139,1.879-2.051,2.403-2.731
		c0.528-0.686,1.023-1.366,1.487-2.041c0.463-0.671,0.871-1.316,1.225-1.926c0.354-0.61,0.66-1.225,0.916-1.841
		c0.254-0.614,0.426-0.947,0.5-0.998L404.734,23.139z"/>
	<path fill="#A72027" d="M426.884,44.215V28.931c0-0.629,0.207-0.932,0.618-0.902c0.143,0.021,0.272,0.102,0.394,0.248
		c0.121,0.14,0.188,0.358,0.188,0.654v15.255l6.467-0.117v-24.1c0-0.197,0.045-0.368,0.141-0.503
		c0.092-0.137,0.219-0.223,0.375-0.258c0.159-0.035,0.311,0.014,0.467,0.15c0.152,0.143,0.227,0.343,0.227,0.61v11.474l7.309-0.283
		c0.178,0,0.328,0.051,0.455,0.141c0.121,0.096,0.182,0.223,0.182,0.378c-0.01,0.344-0.232,0.52-0.666,0.53l-7.279,0.283v11.548
		l9.896-0.324c0.287,0,0.493,0.061,0.619,0.191c0.125,0.127,0.186,0.264,0.176,0.415c-0.029,0.291-0.235,0.448-0.619,0.452
		l-24.412,0.651c-0.578,0.02-0.857-0.165-0.826-0.56c0.01-0.216,0.096-0.349,0.262-0.397c0.161-0.051,0.361-0.082,0.609-0.092
		L426.884,44.215z"/>
	<path fill="#A72027" d="M460.202,32.873c0.271,0.061,0.402,0.258,0.383,0.591c-0.02,0.205-0.282,0.644-0.791,1.314
		c-0.505,0.671-0.912,1.186-1.211,1.542c-0.303,0.362-0.654,0.737-1.062,1.125c-0.407,0.388-0.928,0.82-1.558,1.301
		c-0.63,0.474-1.078,0.797-1.345,0.967c-0.264,0.167-0.506,0.237-0.723,0.218c-0.216-0.016-0.361-0.12-0.438-0.313
		c-0.07-0.197,0.041-0.448,0.333-0.761c0.165-0.181,0.634-0.519,1.396-1.029c0.761-0.509,1.594-1.269,2.49-2.287
		c0.893-1.02,1.447-1.694,1.659-2.021c0.21-0.333,0.372-0.524,0.474-0.585C459.915,32.873,460.042,32.854,460.202,32.873
		 M464.688,39.699c-0.261,0.086-0.468,0.061-0.618-0.082c-0.148-0.146-0.223-0.341-0.223-0.599v-6.574v-0.842l0.283-0.412
		l-10.5,0.679c-0.58,0.041-0.938,0.041-1.068,0c-0.137-0.039-0.232-0.16-0.299-0.366c-0.064-0.207-0.016-0.394,0.143-0.565
		c0.074-0.086,0.196-0.15,0.353-0.191l0.741-0.045l5.035-0.308v-6.635c0-0.56,0.023-0.916,0.07-1.068
		c0.051-0.15,0.201-0.242,0.453-0.268c0.247-0.023,0.424,0.051,0.514,0.217c0.096,0.168,0.143,0.524,0.143,1.08v6.598l4.193-0.262
		v-9.97c0-0.562,0.025-0.919,0.074-1.068c0.047-0.158,0.203-0.244,0.455-0.268c0.257-0.027,0.434,0.039,0.529,0.195
		c0.09,0.161,0.137,0.524,0.137,1.094v4.653l6.719-0.429c0.595-0.031,0.977-0.025,1.16,0.016c0.182,0.039,0.303,0.195,0.356,0.464
		c0.051,0.271-0.085,0.474-0.423,0.599l-0.636,0.031l-7.177,0.474v4.134l9.32-0.575c0.588-0.029,0.973-0.025,1.153,0.016
		c0.177,0.035,0.292,0.187,0.343,0.448c0.055,0.261,0,0.429-0.166,0.505c-0.171,0.07-0.463,0.115-0.887,0.135l-10.118,0.635
		c0.126,0.143,0.212,0.248,0.253,0.318c0.041,0.076,0.061,0.388,0.061,0.938v6.482c0,0.172-0.016,0.283-0.047,0.344l-0.121,0.292
		c1.064-0.807,1.852-1.452,2.359-1.932c0.506-0.483,1.176-1.189,2.018-2.121c0.837-0.929,1.387-1.574,1.658-1.927
		c0.272-0.353,0.529-0.579,0.775-0.671c0.248-0.096,0.436-0.09,0.571,0.016c0.131,0.102,0.181,0.299,0.15,0.581
		c-0.035,0.297-0.317,0.761-0.833,1.396c-0.518,0.633-0.961,1.158-1.345,1.571c-0.378,0.413-1.698,1.71-3.962,3.878
		c-2.268,2.172-4.744,3.755-7.43,4.747c-2.688,0.992-4.381,1.603-5.071,1.815c-0.696,0.216-1.329,0.442-1.917,0.674
		c-0.578,0.232-0.916,0.172-1.006-0.171c-0.096-0.342-0.057-0.614,0.125-0.812c0.096-0.111,0.223-0.187,0.375-0.235
		c0.155-0.051,0.568-0.168,1.239-0.355c0.675-0.185,1.688-0.548,3.034-1.088c1.351-0.534,2.68-1.129,3.996-1.783
		C460.948,42.446,462.632,41.312,464.688,39.699z"/>
	<path fill="#A72027" d="M359.249,18.723c-0.055-0.062-0.094-0.156-0.102-0.28c-0.008-0.117,0.133-0.201,0.42-0.25
		c0.094,0,0.21,0.031,0.343,0.08c0.14,0.053,0.428,0.146,0.87,0.279c0.436,0.124,1.198,0.505,2.287,1.151
		c1.089,0.638,1.61,1.549,1.564,2.729c-0.031,0.653-0.266,1.174-0.701,1.549c-0.428,0.38-0.926,0.575-1.484,0.582
		c-0.568,0.008-1.02-0.147-1.369-0.466c-0.334-0.272-0.545-0.646-0.615-1.121l0.062-1.865c-0.023-0.305-0.117-0.64-0.271-1.004
		c-0.148-0.367-0.382-0.724-0.686-1.066L359.249,18.723z M349.931,18.855c-0.031-0.047-0.023-0.109,0.024-0.203
		c0.046-0.094,0.116-0.147,0.202-0.163c0.365-0.016,1.361,0.319,2.986,1.004s2.442,1.696,2.442,3.031
		c-0.016,0.367-0.172,0.812-0.46,1.332c-0.287,0.528-0.832,0.777-1.641,0.762c-0.771,0-1.268-0.202-1.494-0.599
		c-0.216-0.405-0.349-0.738-0.396-0.996l-0.139-1.407c-0.133-0.957-0.537-1.782-1.207-2.467L349.931,18.855z M370.783,12.291
		l1.228-0.614l0.568-0.366c0.016,0,0.039,0.008,0.07,0.016s0.335,0.272,0.91,0.785l2.467,2.303c0.605,0.575,0.893,0.924,0.862,1.049
		c-0.047,0.164-0.233,0.258-0.567,0.273l-1.027,0.086c-1.291,0.124-2.349,0.224-3.166,0.304l-6.951,0.745
		c-3.922,0.413-7.577,0.691-10.977,0.848c-3.391,0.148-5.436,0.25-6.127,0.296c-0.693,0.047-1.16,0.07-1.401,0.07l-0.708,0.016
		c-0.193,0.016-0.35,0-0.451-0.062c-0.107-0.062-0.162-0.155-0.17-0.288s0.156-0.227,0.488-0.288l0.888-0.131l1.866-0.297
		l4.808-0.684c1.019-0.156,3.149-0.56,6.393-1.229s5.81-1.27,7.692-1.79C369.36,12.804,370.464,12.461,370.783,12.291z
		 M368.435,38.089h-8.883c0.678,1.184,1.338,2.17,1.968,2.963c0.63,0.786,1.524,1.657,2.676,2.6
		C366.187,41.325,367.603,39.473,368.435,38.089z M356.542,26.175l0.227,0.06l4.354,1.618c0.273,0.109,0.46,0.211,0.568,0.312
		c0.109,0.102,0.164,0.172,0.172,0.217c0.008,0.048-0.023,0.108-0.094,0.202s-0.141,0.164-0.218,0.211l-1.407,0.84l-0.709,2.092
		h15.314l1.75-2.045c0.351-0.397,0.576-0.599,0.678-0.606c0.093-0.008,0.451,0.24,1.059,0.739l2.457,2.053
		c0.411,0.349,0.613,0.599,0.613,0.755c-0.016,0.21-0.171,0.317-0.475,0.317h-0.8v0.047h-21.077l-1.572,3.874h11.395l1.252-1.595
		c0.155-0.203,0.273-0.305,0.365-0.311c0.094-0.008,0.39,0.162,0.887,0.514l2.988,2.139c0.17,0.14,0.278,0.239,0.334,0.31
		c0.046,0.07,0.069,0.156,0.062,0.266c-0.009,0.101-0.18,0.233-0.514,0.382l-1.136,0.505c-2.232,2.667-3.446,4.105-3.647,4.309
		l-2.045,2.115c2.199,0.941,4.324,1.688,6.377,2.248c2.053,0.552,4.262,0.771,6.627,0.646l0.955-0.047
		c0.25,0,0.374,0.109,0.39,0.335c0.016,0.217-0.086,0.373-0.319,0.466l-0.84,0.367c-0.56,0.239-1.073,0.591-1.532,1.041
		c-0.451,0.458-0.817,0.988-1.089,1.587s-0.489,0.887-0.638,0.855c-0.062,0-0.179-0.038-0.357-0.116
		c-0.171-0.078-0.677-0.211-1.509-0.414c-0.841-0.192-1.812-0.497-2.933-0.908c-1.112-0.405-2.24-0.863-3.367-1.353
		c-1.136-0.5-2.676-1.379-4.62-2.654c-2.932,1.712-5.779,2.995-8.555,3.835c-2.77,0.849-5.025,1.377-6.752,1.587l-1.051,0.131
		c-0.318,0.049-0.465-0.053-0.434-0.317c0-0.023,0.031-0.086,0.092-0.18c0.062-0.092,0.133-0.154,0.225-0.18l0.825-0.208
		c1.308-0.32,3.173-0.996,5.601-2.037c2.434-1.043,5.047-2.631,7.84-4.777c-0.879-1.104-1.602-2.186-2.178-3.242
		c-0.568-1.059-1.105-2.411-1.602-4.068h-1.734c-2.326,3.951-4.814,6.931-7.475,8.952c-2.66,2.022-4.597,3.375-5.811,4.06
		l-0.793,0.452c-0.265,0.154-0.451,0.225-0.576,0.217c-0.117-0.008-0.194-0.031-0.217-0.076c-0.016-0.047-0.031-0.094-0.031-0.141
		s0-0.094,0-0.156s0.101-0.179,0.295-0.341l0.802-0.663c1.423-1.174,3.056-2.737,4.899-4.704c1.836-1.968,3.306-4.179,4.418-6.635
		c1.112-2.451,1.93-4.473,2.457-6.067h-10.663c-0.366,0-0.56-0.211-0.591-0.63s0.172-0.63,0.591-0.63h11.028
		c0.047-0.194,0.148-0.621,0.312-1.274c0.156-0.653,0.327-1.471,0.515-2.459l0.178-1.025l0.211-0.793h-8.797
		c0.031,0.177,0.047,0.302,0.055,0.356c0.008,0.062,0.008,0.195,0.008,0.39v0.411c-0.023,0.685-0.288,1.416-0.771,2.186
		c-0.49,0.778-1.175,1.16-2.054,1.143c-0.971,0-1.555-0.278-1.75-0.83c-0.201-0.554-0.303-0.949-0.311-1.176
		c-0.008-0.225,0.07-0.489,0.241-0.778c0.101-0.208,0.226-0.38,0.366-0.513c0.131-0.124,0.551-0.474,1.259-1.035
		c0.708-0.56,1.081-1.345,1.12-2.347c0.039-1.005,0.146-1.502,0.326-1.502c0.304,0.016,0.716,0.833,1.229,2.457h21.101
		c0.553-1.71,0.996-3.079,1.338-4.099s0.584-1.828,0.738-2.435l0.272-1.166c0.062-0.305,0.141-0.474,0.227-0.513
		c0.093-0.039,0.318,0.023,0.661,0.17l3.787,1.805c0.18,0.086,0.303,0.172,0.365,0.248c0.055,0.078,0.094,0.179,0.102,0.304
		c0.008,0.133-0.179,0.25-0.56,0.359l-1.183,0.364c-0.318,0.382-1.68,2.029-4.084,4.962h5.539l1.166-1.548
		c0.21-0.287,0.404-0.436,0.591-0.443c0.179-0.008,0.544,0.195,1.089,0.606l2.715,2.115c0.652,0.523,0.973,0.942,0.957,1.277
		c-0.031,0.349-0.203,0.552-0.521,0.614c-0.319,0.061-1.004,0.109-2.046,0.141c-1.034,0.031-1.89,0.185-2.56,0.474
		c-0.668,0.296-1.205,0.724-1.617,1.299l-0.412,0.574c-0.194,0.258-0.381,0.367-0.545,0.344c-0.171-0.016-0.256-0.109-0.264-0.266
		c-0.008-0.163,0.023-0.31,0.078-0.442l0.342-0.887l0.506-1.393l0.226-0.614l0.226-0.613H356.542z"/>
</g>
</svg>
