<?xml version="1.0" encoding="utf-8"?>
<!-- Generator: Adobe Illustrator 16.0.0, SVG Export Plug-In . SVG Version: 6.00 Build 0)  -->
<!DOCTYPE svg PUBLIC "-//W3C//DTD SVG 1.1//EN" "http://www.w3.org/Graphics/SVG/1.1/DTD/svg11.dtd">
<svg version="1.1" id="图层_1" xmlns="http://www.w3.org/2000/svg" xmlns:xlink="http://www.w3.org/1999/xlink" x="0px" y="0px"
	 width="640px" height="129.306px" viewBox="0 0 640 129.306" enable-background="new 0 0 640 129.306" xml:space="preserve">
<g>
	<path fill="#AE7B28" d="M147.977,79.53h6.833c0.053-0.397,0.092-0.768,0.123-1.113l0.105-1.56l0.053-0.536l0.018-0.201h-6.572
		L147.977,79.53z M149.012,72.39l-0.423,3.256h6.529l0.131-3.256H149.012z M156.365,79.53h0.639l0.507-0.754
		c0.16-0.234,0.258-0.363,0.297-0.391c0.035-0.025,0.178,0.061,0.417,0.26l1.041,0.885c0.178,0.16,0.27,0.252,0.281,0.277
		c0.014,0.025,0.02,0.047,0.02,0.059c-0.012,0.088-0.111,0.129-0.301,0.129h-2.928c-0.086,0.471-0.176,0.84-0.268,1.111
		c-0.092,0.272-0.241,0.568-0.45,0.887c-0.215,0.317-0.483,0.547-0.812,0.682c-0.334,0.139-0.592,0.23-0.772,0.279
		c-0.186,0.045-0.314,0.084-0.386,0.107c-0.072,0.027-0.127,0.039-0.162,0.033c-0.088-0.006-0.145-0.035-0.168-0.084
		c-0.023-0.051-0.047-0.15-0.066-0.301c-0.021-0.148-0.141-0.325-0.358-0.531c-0.219-0.209-0.46-0.359-0.718-0.453l-0.444-0.123
		l-0.405-0.113c-0.051-0.012-0.084-0.033-0.096-0.062c-0.012-0.03-0.018-0.056-0.021-0.077c-0.002-0.025,0.008-0.049,0.031-0.072
		c0.035-0.045,0.109-0.062,0.219-0.051l0.272,0.033c0.479,0.064,0.916,0.096,1.314,0.09c0.458,0,0.795-0.082,1.018-0.237
		c0.222-0.158,0.382-0.387,0.474-0.686l0.15-0.432h-6.633l-0.334,0.545c-0.116,0.195-0.181,0.295-0.196,0.303
		c-0.016,0.01-0.129-0.068-0.348-0.23l-1.002-0.73c-0.147-0.105-0.222-0.178-0.21-0.213c0.008-0.039,0.023-0.072,0.051-0.102
		c0.027-0.031,0.114-0.094,0.269-0.189c0.148-0.096,0.252-0.21,0.304-0.339l0.07-0.271l0.062-0.229l0.369-2.42h-3.036
		c-0.137,0-0.206-0.082-0.222-0.239c-0.016-0.155,0.058-0.235,0.222-0.235h3.158c0.035-0.439,0.107-1.031,0.215-1.781
		c0.109-0.748,0.172-1.319,0.189-1.711l0.026-0.614v-0.306c0.014-0.018,0.037-0.029,0.057-0.033
		c0.021-0.002,0.094,0.027,0.223,0.084l1.346,0.631h5.813l0.333-0.481c0.141-0.196,0.219-0.3,0.232-0.302
		c0.016-0.004,0.104,0.039,0.259,0.129l1.254,0.736c0.207,0.123,0.323,0.201,0.356,0.24s0.051,0.07,0.055,0.102
		c0.002,0.029-0.057,0.078-0.173,0.149l-0.552,0.349l-0.193,2.809h0.857l0.581-0.888c0.123-0.19,0.201-0.29,0.238-0.294
		c0.035-0.002,0.18,0.098,0.429,0.294l1.08,0.888c0.191,0.163,0.293,0.284,0.303,0.357c0.01,0.078-0.115,0.117-0.365,0.117h-3.166
		c-0.031,0.332-0.07,0.868-0.113,1.609c-0.049,0.738-0.074,1.137-0.074,1.188l-0.041,0.422L156.365,79.53z M150.589,72.802v-0.078
		c-0.004-0.012-0.004-0.021,0-0.027c0.008-0.034,0.047-0.056,0.115-0.062c0.049,0,0.129,0.021,0.245,0.062l0.555,0.211
		c0.19,0.09,0.454,0.248,0.787,0.479c0.335,0.231,0.505,0.527,0.517,0.887c0.008,0.361-0.08,0.625-0.257,0.803
		c-0.18,0.176-0.383,0.26-0.61,0.254c-0.168,0-0.314-0.041-0.435-0.129c-0.119-0.084-0.203-0.18-0.248-0.287
		c-0.049-0.108-0.072-0.318-0.076-0.631c-0.002-0.314-0.041-0.569-0.113-0.77c-0.074-0.197-0.163-0.365-0.276-0.5L150.589,72.802z
		 M150.432,76.462c-0.012-0.012-0.014-0.033-0.012-0.066s0.032-0.057,0.091-0.074c0.035-0.006,0.305,0.084,0.804,0.273
		c0.499,0.186,0.854,0.442,1.066,0.771c0.209,0.326,0.313,0.604,0.313,0.832c-0.006,0.141-0.059,0.33-0.167,0.57
		c-0.105,0.239-0.336,0.358-0.69,0.358c-0.277,0.006-0.46-0.072-0.554-0.229c-0.094-0.162-0.148-0.322-0.166-0.48l-0.027-0.578
		c-0.037-0.41-0.179-0.781-0.431-1.113L150.432,76.462z M158.423,69.751h-10.298c-0.059,0.074-0.387,0.524-0.982,1.344
		c-0.597,0.824-1.463,1.719-2.598,2.689l-0.378,0.326c-0.117,0.1-0.191,0.133-0.229,0.1c-0.033-0.031-0.053-0.066-0.056-0.1
		c-0.004-0.035,0.017-0.08,0.056-0.131l0.283-0.378l0.394-0.519c0.301-0.397,0.616-0.885,0.961-1.465
		c0.342-0.58,0.622-1.113,0.841-1.607c0.22-0.49,0.429-0.992,0.628-1.512c0.198-0.518,0.323-0.871,0.368-1.066l0.09-0.378
		l0.051-0.286c0.012-0.006,0.029-0.016,0.053-0.025c0.025-0.008,0.159,0.037,0.405,0.139l1.7,0.719
		c0.159,0.068,0.237,0.135,0.237,0.191c-0.006,0.066-0.055,0.111-0.149,0.141l-0.552,0.187c-0.404,0.62-0.661,1.007-0.772,1.156
		h8.021l0.542-0.729c0.066-0.086,0.121-0.176,0.17-0.272c0.051-0.092,0.107-0.123,0.174-0.088c0.062,0.029,0.202,0.131,0.419,0.302
		l1.082,0.868c0.16,0.14,0.246,0.239,0.25,0.302c0.002,0.061-0.141,0.094-0.428,0.094H158.423z"/>
	<path fill="#AE7B28" d="M170.667,49.084l-0.104-0.761l9.387-4.205v31.553c0,1.398,0.053,2.308,0.156,2.723
		c0.104,0.416,0.319,0.737,0.642,0.969c0.319,0.227,0.743,0.348,1.271,0.365l2.084,0.129v1.09h-13.133v-0.994
		c0.511-0.035,0.934-0.068,1.289-0.121c0.362-0.053,0.762-0.139,1.212-0.27c0.44-0.129,0.788-0.285,1.02-0.483
		c0.244-0.19,0.451-0.476,0.624-0.856c0.182-0.381,0.268-1.16,0.268-2.319V51.845c0-0.779-0.043-1.41-0.139-1.912
		c-0.096-0.494-0.225-0.849-0.397-1.047c-0.166-0.209-0.528-0.329-1.082-0.354c-0.476-0.018-0.942,0.025-1.4,0.146L170.667,49.084z"
		/>
	<path fill="#AE7B28" d="M209.008,79.294c0.728-0.018,1.377-0.163,1.938-0.439c0.562-0.279,1.115-0.72,1.644-1.309
		c0.536-0.587,0.961-1.254,1.28-1.988c0.328-0.735,0.569-1.87,0.753-3.391c0.172-1.533,0.302-3.098,0.38-4.707
		s0.104-3.357,0.088-5.242c-0.035-2.033-0.105-3.833-0.199-5.416c-0.104-1.584-0.226-2.812-0.374-3.686
		c-0.146-0.883-0.378-1.852-0.71-2.916c-0.327-1.063-0.725-1.912-1.192-2.535c-0.459-0.623-1.003-1.098-1.619-1.41
		c-0.611-0.311-1.235-0.476-1.859-0.492c-0.761,0-1.47,0.182-2.117,0.536c-0.651,0.354-1.248,0.831-1.792,1.444
		c-0.536,0.605-0.969,1.298-1.288,2.076c-0.32,0.779-0.598,1.773-0.823,2.977c-0.234,1.211-0.38,2.396-0.44,3.562
		c-0.07,1.17-0.086,3.212-0.051,6.137c0.016,2.904,0.066,5.041,0.164,6.426c0.085,1.376,0.292,2.76,0.611,4.154
		c0.332,1.393,0.745,2.604,1.273,3.625c0.519,1.02,1.15,1.721,1.886,2.094C207.296,79.164,208.108,79.329,209.008,79.294
		 M197.675,61.81c0.018-1.341,0.139-2.803,0.354-4.404c0.225-1.59,0.528-2.957,0.919-4.1c0.388-1.141,0.889-2.24,1.505-3.312
		c0.612-1.064,1.349-2.017,2.195-2.863c0.84-0.84,1.759-1.514,2.735-2.025c0.977-0.51,2.17-0.77,3.573-0.787
		c1.029,0,1.972,0.156,2.827,0.468c0.849,0.319,1.671,0.778,2.459,1.401c0.785,0.613,1.538,1.383,2.257,2.318
		c0.718,0.926,1.314,1.92,1.8,2.984c0.476,1.064,0.866,2.405,1.158,4.023c0.304,1.609,0.485,3.191,0.562,4.75
		c0.078,1.555,0.078,3.148,0.012,4.791c-0.08,1.723-0.234,3.202-0.452,4.447c-0.225,1.236-0.526,2.328-0.917,3.252
		c-0.39,0.935-0.908,1.896-1.575,2.883c-0.656,0.986-1.364,1.842-2.137,2.568c-0.768,0.727-1.669,1.357-2.69,1.887
		c-1.02,0.535-2.188,0.787-3.501,0.752c-0.901-0.018-1.81-0.207-2.743-0.571c-0.927-0.362-1.774-0.856-2.537-1.47
		c-0.76-0.615-1.452-1.342-2.084-2.18c-0.64-0.841-1.203-1.748-1.687-2.734c-0.493-0.996-0.891-2.199-1.201-3.625
		c-0.321-1.428-0.538-2.881-0.666-4.353C197.718,64.44,197.658,63.073,197.675,61.81z"/>
	<path fill="#AE7B28" d="M258.99,51.388l-1.007-1.055c-0.095-0.096-0.167-0.192-0.214-0.279c-0.049-0.096-0.066-0.16-0.049-0.193
		c0-0.104,0.088-0.158,0.263-0.158c0.543,0.048,2.203,0.91,4.983,2.579c2.772,1.678,4.122,3.657,4.04,5.935
		c-0.031,0.686-0.262,1.325-0.702,1.908c-0.431,0.582-1.014,0.869-1.747,0.854c-0.607,0-1.119-0.225-1.536-0.654
		c-0.413-0.439-0.702-1.021-0.877-1.758l-0.423-2.107c-0.184-0.695-0.432-1.35-0.735-1.94c-0.304-0.592-0.655-1.198-1.053-1.813
		C259.534,52.091,259.221,51.651,258.99,51.388 M256.108,44.343v16.756l0.191,5.117c-0.08,0.328-0.199,0.607-0.367,0.831
		c-0.16,0.224-0.521,0.415-1.08,0.575c-0.55,0.152-1.094,0.24-1.62,0.248c-0.536,0.008-0.887-0.08-1.07-0.264
		c-0.175-0.176-0.312-0.399-0.407-0.662l0.278-6.9V48.767l-0.183-6.955c0.145-0.039,0.503,0,1.104,0.144l3.977,0.96
		c0.277,0.079,0.422,0.19,0.43,0.342c0.01,0.145-0.135,0.32-0.43,0.527L256.108,44.343z M249.327,51.802
		c-1.078,2.389-2.125,4.561-3.139,6.517s-1.806,3.371-2.363,4.226l-0.91,1.38c-0.176,0.265-0.319,0.392-0.446,0.384
		c-0.121-0.008-0.193-0.064-0.201-0.184c-0.008-0.121,0.018-0.231,0.064-0.343l0.632-1.821c0.184-0.543,0.446-1.485,0.789-2.811
		c0.344-1.326,0.655-2.748,0.935-4.281c0.288-1.524,0.464-2.587,0.544-3.178l0.255-1.988l0.047-1.006
		c0.098-0.048,0.399,0.031,0.913,0.23l3.977,1.686c0.158,0.08,0.293,0.192,0.422,0.336c0.128,0.152-0.016,0.295-0.422,0.439
		L249.327,51.802z M264.532,66.033c-3.242,3.474-5.741,5.909-7.49,7.308c-1.741,1.397-3.778,2.762-6.101,4.096
		c-2.323,1.334-6.022,2.596-11.093,3.776l-1.685,0.399c-0.098,0.033-0.199,0.041-0.312,0.033c-0.12-0.008-0.222-0.025-0.319-0.057
		c-0.096-0.031-0.137-0.072-0.127-0.129c0.008-0.054,0.047-0.126,0.119-0.214c0.064-0.079,0.176-0.159,0.312-0.216l1.708-0.68
		c1.455-0.566,3.093-1.253,4.929-2.061c1.829-0.814,3.751-2.004,5.773-3.569c2.021-1.563,3.843-3.232,5.461-4.991
		c1.622-1.764,3.068-3.608,4.33-5.525l1.196-1.82l0.424-0.751c0.023-0.031,0.049-0.049,0.064-0.057s0.208,0.137,0.567,0.433
		l3.601,3.064c0.264,0.232,0.407,0.393,0.415,0.488v0.168c0,0.041,0,0.096-0.016,0.152c-0.016,0.046-0.222,0.087-0.616,0.103
		L264.532,66.033z M232.669,52.809V46.14c-2.892,0.256-4.776,0.383-5.662,0.4l-1.622,0.047c-0.119,0.016-0.229-0.008-0.327-0.08
		c-0.086-0.071-0.129-0.15-0.111-0.247c0-0.144,0.104-0.231,0.302-0.28l1.966-0.422c3.211-0.688,6.404-1.75,9.566-3.178l1.757-0.799
		l0.536-0.352c0.143-0.064,0.366,0.039,0.679,0.304l3.585,3.345c0.23,0.232,0.359,0.384,0.393,0.447
		c0.03,0.064,0.046,0.129,0.038,0.209c-0.008,0.078-0.149,0.119-0.431,0.119l-2.203,0.096c-0.686,0.032-2.117,0.12-4.305,0.279
		l-0.56,0.512l-0.023,6.269h2.013l1.214-1.7c0.176-0.258,0.305-0.385,0.398-0.393c0.098-0.008,0.319,0.12,0.678,0.393l2.598,2.1
		c0.19,0.159,0.343,0.344,0.472,0.551c0.119,0.208-0.168,0.319-0.872,0.319h-6.477v5.095c1.391,0.36,2.365,0.67,2.923,0.934
		c0.56,0.273,1.062,0.607,1.509,1.008c0.448,0.408,0.769,0.789,0.975,1.141c0.199,0.346,0.305,0.703,0.312,1.062
		c0.008,0.361-0.008,0.662-0.057,0.91c-0.08,0.408-0.287,0.822-0.63,1.238c-0.343,0.424-0.823,0.622-1.431,0.614
		c-0.589,0-1.014-0.198-1.252-0.591c-0.242-0.391-0.433-0.975-0.585-1.749c-0.152-0.782-0.343-1.478-0.599-2.084
		c-0.247-0.606-0.638-1.228-1.166-1.853V76.63l0.111,4.488c-0.184,0.52-0.526,0.902-1.037,1.15c-0.503,0.247-0.99,0.367-1.462,0.35
		c-0.406,0-0.71-0.062-0.925-0.198c-0.21-0.137-0.376-0.312-0.503-0.528l0.215-6.436V63.74c-2.515,3.116-4.784,5.654-6.812,7.604
		l-1.143,1.094c-0.255,0.239-0.415,0.301-0.495,0.198c-0.08-0.096-0.121-0.198-0.121-0.286c0-0.096,0.066-0.248,0.193-0.449
		l0.839-1.236c1.292-1.908,2.323-3.682,3.09-5.336c0.769-1.65,1.485-3.361,2.164-5.109c0.679-1.757,1.182-3.123,1.509-4.089
		l0.511-1.565l0.168-0.487h-7.818c-0.382,0-0.606-0.216-0.663-0.639c-0.054-0.415,0.17-0.631,0.663-0.631H232.669z"/>
	<path fill="#AE7B28" d="M313.965,64.411V52.72h-5.264v11.691H313.965z M304.861,64.411V52.72h-4.864v11.691H304.861z
		 M304.861,51.45v-7.434l-0.096-3.395c0.096-0.096,0.19-0.159,0.278-0.184l0.591,0.135l4.233,0.96
		c0.198,0.063,0.304,0.159,0.296,0.296c-0.008,0.135-0.113,0.271-0.296,0.406l-1.166,0.91v8.305h5.119l1.197-1.492l0.184-0.256
		c0.129-0.048,0.272-0.024,0.448,0.072l3.481,2.244c0.176,0.119,0.27,0.199,0.295,0.223c0.023,0.024,0.041,0.048,0.057,0.08
		s0.031,0.072,0.039,0.111c0,0.049-0.08,0.145-0.246,0.287l-1.127,0.936v10.828l0.119,3.02c-0.049,0.223-0.135,0.414-0.255,0.599
		c-0.129,0.176-0.503,0.366-1.127,0.575c-0.622,0.199-1.295,0.295-2.013,0.279c-0.606,0-0.908-0.225-0.908-0.679v-2.595h-5.264
		V78.45l0.136,3.395c-0.183,0.487-0.624,0.814-1.31,0.982c-0.687,0.176-1.279,0.264-1.782,0.271
		c-0.495,0.008-0.79-0.031-0.869-0.104c-0.088-0.08-0.16-0.209-0.199-0.377l0.184-4.702V65.683h-4.864v2.363
		c0,0.167-0.199,0.43-0.599,0.783c-0.4,0.351-1.262,0.519-2.588,0.503c-0.392,0-0.614-0.049-0.688-0.145
		c-0.07-0.097-0.102-0.255-0.102-0.487l0.183-4.217V54.103l-0.097-4.448c0.065-0.048,0.12-0.072,0.151-0.08
		c0.041-0.009,0.201,0.056,0.48,0.2l3.258,1.676H304.861z M284.745,48.999h4.936l1.637-1.828c0.2-0.216,0.327-0.328,0.376-0.336
		c0.039-0.008,0.144,0.056,0.302,0.199l2.923,2.74c0.049,0.055,0.082,0.111,0.098,0.158v0.098v0.047
		c-0.016,0.136-0.152,0.208-0.402,0.208H283.8c-2.507,3.011-4.383,5.087-5.636,6.22l-1.055,0.959
		c-0.184,0.176-0.32,0.232-0.406,0.168c-0.09-0.064-0.129-0.129-0.129-0.191c0-0.056,0.023-0.136,0.07-0.231l0.792-1.237
		l1.317-2.013c1.15-1.845,2.195-3.944,3.147-6.317c0.941-2.371,1.571-4.072,1.898-5.103l0.401-1.237
		c0.127-0.392,0.184-0.592,0.168-0.607l0.023,0.023l0.367,0.136l4.64,2.252c0.137,0.072,0.247,0.151,0.327,0.216
		c0.07,0.072,0.121,0.127,0.129,0.168c0.008,0.039-0.041,0.104-0.129,0.2c-0.098,0.095-0.206,0.151-0.327,0.183l-1.197,0.328
		L284.745,48.999z M288.505,57.464c-0.119,0.424-0.432,0.711-0.911,0.87v5.59h2.013l1.71-2.195c0.118-0.176,0.224-0.255,0.302-0.247
		c0.082,0.008,0.2,0.087,0.376,0.247l3.06,3.06c0,0.016,0.038,0.095,0.12,0.239c-0.018,0.118-0.175,0.183-0.487,0.183h-7.093v10.573
		c1.95-0.702,4.042-1.524,6.271-2.476l2.242-0.957c0.343-0.145,0.519-0.121,0.528,0.055c0.008,0.177-0.033,0.303-0.127,0.359
		l-2.174,1.598c-2.794,2.027-4.888,3.642-6.269,4.839l-2.437,2.107l-0.702,0.56c-0.062,0.08-0.167-0.023-0.304-0.303l-1.868-3.507
		c-0.016,0-0.047-0.062-0.096-0.19c-0.049-0.127-0.064-0.199-0.049-0.232c0-0.016,0.16-0.184,0.487-0.496
		c0.328-0.31,0.568-0.621,0.702-0.934c0.145-0.312,0.217-0.807,0.217-1.478V65.21h-6.366c-0.245-0.016-0.429-0.064-0.549-0.137
		c-0.121-0.079-0.191-0.293-0.225-0.637c-0.031-0.344,0.201-0.513,0.681-0.513h6.459v-6.46h-4.958c-0.376,0-0.601-0.208-0.655-0.631
		c-0.064-0.416,0.152-0.63,0.655-0.63h9.471l1.731-2.101l0.209-0.264c0.096-0.016,0.263,0.071,0.495,0.264l3.201,2.707
		c0.178,0.16,0.256,0.287,0.256,0.399c-0.016,0.176-0.145,0.255-0.391,0.255H288.505z"/>
	<path fill="#AE7B28" d="M341.828,68.25h-10.511v11.92h10.511V68.25z M338.145,67.767h3.462l0.434-0.595
		c0.085-0.123,0.183-0.192,0.284-0.204s0.246,0.044,0.433,0.167l0.931,0.632c0.2,0.141,0.292,0.262,0.286,0.36
		c-0.008,0.098-0.057,0.186-0.137,0.263l-0.36,0.324v10.66l0.072,2.281c-0.055,0.129-0.123,0.232-0.203,0.312
		c-0.082,0.078-0.228,0.145-0.435,0.195c-0.207,0.053-0.396,0.078-0.567,0.072c-0.184,0-0.319-0.037-0.397-0.105
		c-0.08-0.072-0.119-0.152-0.119-0.246v-1.236h-10.511v1.342c0,0.08-0.039,0.158-0.125,0.232c-0.079,0.071-0.222,0.132-0.427,0.183
		c-0.204,0.051-0.407,0.072-0.606,0.066c-0.169,0-0.284-0.021-0.347-0.062c-0.059-0.039-0.113-0.111-0.152-0.21l0.07-2.324V69.213
		l-0.07-2.096c0.045-0.043,0.084-0.062,0.113-0.066c0.031-0.002,0.115,0.023,0.255,0.084l1.406,0.632H338.145z M331.792,72.672
		c-0.065-0.012-0.112-0.033-0.147-0.062c-0.029-0.031-0.045-0.105-0.041-0.224c0.002-0.121,0.064-0.18,0.188-0.18h3.755
		c-0.008-0.162-0.01-0.299-0.008-0.4c0.004-0.102,0.004-0.31,0-0.625c-0.002-0.318-0.012-0.706-0.027-1.168l-0.073-1.441
		c-0.004-0.039,0.021-0.064,0.075-0.078c0.057-0.012,0.236,0.016,0.543,0.078l1.251,0.291c0.207,0.055,0.33,0.094,0.374,0.123
		c0.045,0.031,0.066,0.062,0.068,0.104c0.004,0.035-0.083,0.122-0.265,0.257l-0.343,0.253c-0.023,0.72-0.039,1.246-0.043,1.58
		c-0.008,0.335-0.01,0.508-0.01,0.525l-0.018,0.502h1.967l0.515-0.685c0.129-0.175,0.213-0.278,0.252-0.302
		c0.039-0.027,0.081-0.039,0.132-0.033s0.186,0.105,0.406,0.29l0.896,0.792c0.08,0.074,0.137,0.135,0.168,0.18
		c0.027,0.042,0.045,0.091,0.047,0.144c0.004,0.053-0.068,0.08-0.215,0.08h-4.168c-0.027,0.474-0.049,0.765-0.061,0.877l-0.08,0.62
		c0.877,0.447,1.677,0.914,2.395,1.406c0.721,0.49,1.185,0.979,1.396,1.46s0.312,0.887,0.3,1.21c-0.012,0.326-0.159,0.59-0.44,0.79
		c-0.28,0.201-0.546,0.231-0.793,0.084c-0.248-0.146-0.419-0.304-0.513-0.474c-0.096-0.17-0.225-0.522-0.393-1.062
		c-0.165-0.536-0.403-1.074-0.713-1.609c-0.311-0.533-0.587-0.896-0.825-1.084l-0.464-0.375c-0.166,0.465-0.333,0.871-0.511,1.209
		c-0.176,0.338-0.562,0.809-1.162,1.406c-0.599,0.6-1.442,1.201-2.53,1.805l-0.534,0.298c-0.266,0.147-0.44,0.216-0.528,0.21
		c-0.051,0-0.084-0.01-0.096-0.029c-0.012-0.021-0.02-0.043-0.02-0.066c-0.004-0.023,0.035-0.076,0.115-0.157l0.341-0.255
		l0.614-0.475c0.298-0.227,0.76-0.672,1.384-1.342c0.622-0.666,1.024-1.374,1.207-2.123c0.18-0.748,0.285-1.353,0.314-1.816
		l0.036-0.507h-3.642H331.792z"/>
	<path fill="#AE7B28" d="M360.854,72.539c-0.068-0.059-0.098-0.108-0.086-0.147c0.012-0.043,0.051-0.07,0.123-0.082
		c0.025,0,0.113,0.033,0.275,0.094c0.163,0.062,0.611,0.416,1.351,1.062s1.219,1.233,1.433,1.768
		c0.221,0.532,0.328,1.023,0.332,1.473c0.004,0.451-0.094,0.822-0.285,1.119c-0.19,0.294-0.458,0.439-0.799,0.434
		c-0.352,0-0.601-0.122-0.747-0.367c-0.142-0.244-0.224-0.504-0.235-0.773l0.072-1.693c-0.025-0.363-0.129-0.782-0.318-1.262
		c-0.188-0.481-0.476-0.934-0.869-1.363L360.854,72.539z M355.635,67.317c0-0.027,0-0.051-0.002-0.066
		c-0.004-0.012-0.004-0.028,0-0.046c0.002-0.02,0.035-0.031,0.098-0.043c0.048-0.006,0.104,0.012,0.177,0.051
		c0.068,0.042,0.205,0.099,0.403,0.177c0.199,0.074,0.683,0.357,1.447,0.841c0.768,0.485,1.15,1.135,1.15,1.95
		c-0.004,0.261-0.086,0.547-0.236,0.859c-0.154,0.309-0.411,0.458-0.773,0.446c-0.391-0.006-0.64-0.121-0.751-0.347
		c-0.107-0.225-0.17-0.451-0.189-0.671l-0.059-0.774c-0.11-0.865-0.409-1.532-0.887-2.006L355.635,67.317z M354.477,70.644
		l-0.018,9.055c-0.008,0.27,0.041,0.466,0.141,0.593c0.101,0.124,0.38,0.224,0.838,0.3c0.458,0.07,0.947,0.104,1.462,0.098
		c1.264,0,1.997-0.098,2.207-0.303c0.207-0.2,0.344-0.369,0.415-0.512c0.068-0.141,0.15-0.326,0.236-0.555l0.316-0.777l0.368-0.986
		l0.141-0.332c0.018-0.055,0.056-0.078,0.112-0.078c0.055,0.006,0.092,0.027,0.115,0.066c0.023,0.035,0.035,0.068,0.031,0.09
		c-0.002,0.023-0.004,0.045-0.004,0.062l-0.133,0.475c-0.074,0.274-0.14,0.594-0.19,0.963c-0.055,0.368-0.076,0.629-0.072,0.781
		c0,0.178,0.025,0.33,0.074,0.465c0.051,0.136,0.146,0.295,0.286,0.484c0.139,0.186,0.217,0.312,0.23,0.379
		c0.016,0.062,0.025,0.129,0.027,0.195c0.004,0.068-0.012,0.146-0.047,0.231c-0.152,0.374-0.491,0.62-1.018,0.737
		s-1.432,0.174-2.72,0.168c-1.692,0-2.813-0.117-3.367-0.352c-0.55-0.236-0.866-0.465-0.942-0.688
		c-0.075-0.228-0.11-0.452-0.104-0.679l0.01-8.721l-0.105-2.423c0.055-0.053,0.094-0.08,0.121-0.088
		c0.023-0.004,0.179,0.035,0.456,0.122l1.571,0.492c0.131,0.045,0.209,0.082,0.231,0.105c0.025,0.025,0.045,0.051,0.051,0.088
		c0.002,0.035-0.06,0.096-0.192,0.185L354.477,70.644z M350.425,72.619c0.037-0.076,0.086-0.111,0.141-0.105
		c0.057,0.018,0.123,0.113,0.197,0.292c0.071,0.18,0.167,0.471,0.284,0.872c0.117,0.405,0.199,0.716,0.24,0.933
		c0.045,0.216,0.066,0.486,0.066,0.814c-0.006,0.341-0.057,0.736-0.154,1.186c-0.094,0.449-0.312,0.848-0.659,1.191
		c-0.339,0.348-0.687,0.51-1.037,0.49c-0.327-0.002-0.563-0.113-0.708-0.325c-0.143-0.216-0.212-0.417-0.212-0.603
		c0-0.189,0.034-0.362,0.112-0.526c0.07-0.146,0.242-0.36,0.513-0.646c0.273-0.282,0.493-0.547,0.661-0.793
		c0.172-0.246,0.32-0.554,0.44-0.922c0.125-0.369,0.18-0.666,0.176-0.89c-0.008-0.228-0.016-0.423-0.027-0.593L350.425,72.619z"/>
	<path fill="#AE7B28" d="M379.945,81.27v-9.879h-1.704c-0.039,0.068-0.131,0.135-0.271,0.191v9.688H379.945z M376.628,81.27v-9.879
		h-1.642c-0.039,0.062-0.129,0.129-0.263,0.191v9.688H376.628z M373.382,81.27v-9.879h-1.853v9.879H373.382z M369.994,81.27v-8.773
		l-0.067-2.31c0.025-0.014,0.038-0.025,0.048-0.029c0.008-0.004,0.082,0.029,0.225,0.102l1.219,0.641h1.755
		c0.147-0.397,0.284-0.787,0.413-1.168c0.128-0.38,0.251-0.824,0.368-1.334l0.193-0.859l0.053-0.325
		c0.006-0.006,0.018-0.012,0.033-0.018l0.194,0.079l1.929,0.711c0.107,0.043,0.157,0.094,0.157,0.159
		c-0.005,0.068-0.056,0.125-0.157,0.164l-0.491,0.204c-0.659,0.847-1.297,1.645-1.911,2.387h5.948l0.444-0.641
		c0.078-0.111,0.152-0.15,0.223-0.113l1.542,0.963c0.018,0.02,0.041,0.043,0.072,0.07c0.027,0.029,0.043,0.057,0.039,0.08
		s-0.027,0.051-0.074,0.088l-0.604,0.463v9.46h0.219l0.762-0.854c0.08-0.091,0.135-0.14,0.158-0.142
		c0.023-0.004,0.074,0.025,0.148,0.091l1.256,1.133c0.047,0.045,0.081,0.1,0.108,0.158c0.027,0.057-0.058,0.088-0.257,0.088h-2.176
		h-13.573c-0.146,0-0.219-0.082-0.219-0.238c0-0.157,0.072-0.235,0.219-0.235H369.994z"/>
	<path fill="#AE7B28" d="M401.094,73.433h-10.5c0.008,0.122,0.008,0.282,0.004,0.469c-0.004,0.193-0.066,0.391-0.188,0.596
		c-0.125,0.202-0.281,0.37-0.472,0.502c-0.188,0.131-0.401,0.197-0.638,0.193c-0.24-0.002-0.435-0.092-0.593-0.271
		c-0.158-0.179-0.233-0.373-0.228-0.592c0-0.193,0.033-0.33,0.099-0.412c0.068-0.084,0.291-0.241,0.669-0.479
		c0.376-0.236,0.593-0.572,0.644-1.006l0.043-0.377c0.008-0.064,0.037-0.096,0.09-0.096c0.069,0.006,0.142,0.09,0.218,0.246
		l0.156,0.403l0.133,0.341h10.547l0.465-0.586c0.057-0.068,0.132-0.111,0.218-0.123c0.088-0.006,0.219,0.061,0.396,0.191
		l1.301,1.045c0.092,0.081,0.158,0.155,0.195,0.226c0.039,0.064,0.057,0.112,0.057,0.142c-0.004,0.076-0.055,0.133-0.148,0.168
		c-0.096,0.033-0.334,0.064-0.724,0.084s-0.696,0.094-0.916,0.223c-0.223,0.129-0.444,0.303-0.659,0.519l-0.238,0.235
		c-0.108,0.111-0.198,0.135-0.271,0.072c-0.031-0.018-0.049-0.049-0.061-0.09c-0.012-0.039-0.01-0.084,0.01-0.133l0.068-0.261
		l0.186-0.63C400.962,74.001,401.007,73.8,401.094,73.433 M399.358,81.293v-1.878h-6.175v1.878H399.358z M393.183,75.364v1.526
		h5.332v-1.526H393.183z M393.183,77.374v1.561h6.069l0.396-0.482l0.123-0.16c0.055-0.02,0.173,0.031,0.358,0.16l0.895,0.622
		c0.211,0.154,0.324,0.243,0.342,0.269c0.02,0.025,0.031,0.051,0.035,0.078c0.002,0.027-0.07,0.094-0.217,0.199l-0.335,0.246v1.314
		l0.072,0.957c-0.037,0.07-0.121,0.165-0.256,0.288c-0.134,0.122-0.38,0.183-0.737,0.177c-0.251,0-0.409-0.037-0.474-0.104
		c-0.063-0.072-0.097-0.178-0.097-0.317v-0.402h-6.175v0.683c0,0.093-0.082,0.188-0.246,0.284c-0.165,0.1-0.401,0.148-0.709,0.148
		c-0.246,0.004-0.398-0.027-0.458-0.094c-0.057-0.068-0.096-0.156-0.115-0.268l0.074-1.693V75.75l-0.074-1.464
		c0.043-0.043,0.076-0.066,0.098-0.072c0.023-0.006,0.136,0.033,0.343,0.115l1.323,0.544h4.924l0.384-0.499
		c0.122-0.16,0.202-0.24,0.241-0.244c0.039-0.002,0.156,0.062,0.357,0.199l0.91,0.639c0.201,0.146,0.299,0.234,0.303,0.266
		c0.003,0.029-0.072,0.102-0.23,0.219l-0.336,0.246v1.243l0.055,0.642c-0.055,0.135-0.192,0.25-0.423,0.339
		c-0.228,0.09-0.462,0.131-0.702,0.125c-0.257,0-0.386-0.111-0.386-0.331v-0.342H393.183z M393.938,68.872l0.437-0.563
		c0.116-0.15,0.188-0.228,0.216-0.229s0.141,0.085,0.338,0.266l0.805,0.756c0.066,0.066,0.1,0.112,0.1,0.149
		c-0.006,0.062-0.053,0.096-0.141,0.096h-0.727v0.008h-2.414c0.765,0.515,1.193,0.894,1.283,1.133s0.139,0.419,0.143,0.536
		c0.002,0.117-0.064,0.291-0.199,0.521s-0.377,0.345-0.728,0.339c-0.187,0-0.351-0.064-0.491-0.188
		c-0.141-0.122-0.213-0.282-0.219-0.49c-0.006-0.062,0.012-0.193,0.059-0.395c0.041-0.199,0.064-0.38,0.064-0.551
		c-0.006-0.246-0.041-0.432-0.111-0.555c-0.066-0.123-0.147-0.24-0.249-0.351h-1.043c-0.119,0.11-0.35,0.345-0.696,0.698
		c-0.343,0.353-0.714,0.695-1.107,1.027c-0.396,0.329-0.626,0.523-0.688,0.584l-0.282,0.254c-0.109,0.1-0.18,0.129-0.209,0.09
		c-0.029-0.035-0.045-0.078-0.045-0.123c0-0.041,0.02-0.092,0.062-0.152l0.229-0.313c0.571-0.798,0.994-1.427,1.266-1.894
		c0.272-0.463,0.533-0.939,0.781-1.429c0.25-0.487,0.405-0.841,0.47-1.057l0.078-0.272c0.043-0.152,0.076-0.23,0.104-0.234
		c0.025-0.002,0.092,0.021,0.206,0.066l1.639,0.771c0.028,0.02,0.06,0.043,0.089,0.07c0.027,0.029,0.045,0.053,0.049,0.072
		c0.002,0.018-0.016,0.045-0.049,0.076c-0.037,0.037-0.083,0.064-0.142,0.082l-0.527,0.174l-0.799,1.027H393.938z M397.613,68.872
		h3.395l0.501-0.622c0.128-0.166,0.212-0.245,0.251-0.243c0.035,0.004,0.17,0.083,0.397,0.243l1.061,0.772
		c0.084,0.062,0.133,0.111,0.146,0.141c0.016,0.026,0.023,0.065,0.027,0.112c0.004,0.045-0.068,0.07-0.214,0.07h-1.853v0.008h-2.632
		c0.14,0.075,0.368,0.194,0.683,0.356c0.317,0.158,0.559,0.352,0.734,0.575c0.17,0.222,0.26,0.437,0.264,0.647
		c0.002,0.213-0.037,0.383-0.121,0.517c-0.168,0.276-0.419,0.411-0.755,0.405c-0.233,0-0.421-0.066-0.565-0.199
		c-0.144-0.13-0.222-0.301-0.239-0.51l0.027-0.564c0.002-0.35-0.105-0.662-0.328-0.938c-0.062-0.072-0.163-0.168-0.298-0.29h-0.928
		c-0.445,0.474-0.938,0.982-1.484,1.528c0.18,0.057,0.352,0.123,0.503,0.197c0.156,0.072,0.295,0.197,0.418,0.37
		c0.122,0.177,0.185,0.335,0.188,0.479c0.002,0.145-0.033,0.34-0.109,0.587c-0.077,0.249-0.335,0.372-0.781,0.366
		c-0.275,0-0.479-0.062-0.61-0.189c-0.129-0.126-0.216-0.273-0.257-0.451l-0.068-0.396c-0.066-0.29-0.191-0.518-0.379-0.672
		l-0.14-0.115l-0.15-0.1c-0.037-0.025-0.053-0.074-0.057-0.141c-0.004-0.062,0.084-0.096,0.257-0.096
		c0.348,0.012,0.608,0.033,0.792,0.064c0.366-0.645,0.636-1.154,0.808-1.524c0.167-0.372,0.341-0.78,0.522-1.228
		c0.175-0.447,0.296-0.768,0.353-0.962l0.09-0.306c0.057-0.203,0.092-0.311,0.105-0.318c0.012-0.006,0.101,0.027,0.271,0.1
		l1.389,0.597c0.208,0.091,0.319,0.147,0.329,0.169c0.004,0.021,0.008,0.055,0.004,0.096c0,0.045-0.064,0.088-0.193,0.129
		l-0.413,0.143c-0.245,0.309-0.435,0.548-0.563,0.717C397.86,68.565,397.734,68.726,397.613,68.872z"/>
	<path fill="#AE7B28" d="M415.27,67.223l-0.276-0.219c-0.061-0.042-0.092-0.071-0.094-0.093c-0.004-0.021-0.004-0.039,0.002-0.057
		c0-0.031,0.01-0.051,0.025-0.07c0.012-0.018,0.068-0.029,0.17-0.035c0.1,0,0.284,0.018,0.558,0.057
		c0.272,0.039,0.616,0.117,1.039,0.235c0.419,0.121,0.665,0.329,0.727,0.634c0.066,0.303,0.1,0.515,0.102,0.64
		c0.004,0.126-0.033,0.257-0.111,0.399c-0.079,0.152-0.196,0.277-0.349,0.377c-0.153,0.099-0.327,0.149-0.526,0.149
		c-0.148,0.006-0.286-0.023-0.415-0.087c-0.129-0.064-0.232-0.162-0.319-0.293c-0.084-0.133-0.133-0.334-0.145-0.603
		s-0.029-0.47-0.057-0.603C415.573,67.524,415.465,67.38,415.27,67.223 M408.314,70.854l-0.208-0.386
		c-0.02-0.031-0.031-0.066-0.033-0.115c-0.004-0.045,0.033-0.068,0.102-0.068c0.11,0.012,0.28,0.09,0.508,0.239
		c0.229,0.15,0.424,0.291,0.586,0.422c0.161,0.133,0.325,0.322,0.498,0.567c0.172,0.245,0.254,0.497,0.246,0.755
		c-0.008,0.257-0.094,0.479-0.252,0.67c-0.155,0.189-0.356,0.281-0.596,0.275c-0.361-0.006-0.567-0.135-0.616-0.389
		c-0.051-0.255-0.072-0.443-0.066-0.566l0.01-0.271c0-0.031,0-0.121,0-0.273c-0.006-0.187-0.018-0.339-0.033-0.455
		C408.443,71.142,408.396,71.007,408.314,70.854z M421.517,69.749v0.01h-9.438c-0.006,0.332-0.006,0.577,0,0.735l0.01,0.729
		c0,0.432,0,0.955,0,1.57c-0.014,1.186-0.059,2.139-0.139,2.861c-0.077,0.719-0.218,1.374-0.425,1.965
		c-0.204,0.588-0.468,1.131-0.793,1.621c-0.324,0.492-0.677,0.944-1.061,1.357c-0.385,0.41-0.683,0.714-0.903,0.906l-0.604,0.537
		c-0.068,0.064-0.129,0.094-0.18,0.092c-0.049-0.004-0.08-0.014-0.092-0.027c-0.014-0.014-0.02-0.043-0.021-0.082
		c-0.004-0.041,0.027-0.102,0.092-0.178l0.562-0.666c0.509-0.604,0.91-1.252,1.197-1.952c0.29-0.698,0.491-1.337,0.603-1.911
		c0.11-0.578,0.179-1.072,0.208-1.489l0.055-0.788c-0.28,0.246-0.569,0.492-0.865,0.737c-0.293,0.245-0.474,0.396-0.538,0.454
		l-0.765,0.702c-0.094,0.09-0.154,0.138-0.18,0.146c-0.027,0.01-0.071-0.085-0.134-0.285l-0.369-1.078l-0.09-0.246
		c0-0.012,0.002-0.025,0.008-0.037l0.256-0.051l0.877-0.219c0.041-0.006,0.647-0.197,1.817-0.57
		c-0.006-0.691-0.01-1.432-0.006-2.225c0.004-0.792-0.012-1.486-0.047-2.083l-0.053-0.877l-0.072-0.677
		c0.02-0.049,0.045-0.082,0.08-0.105s0.174,0.018,0.413,0.123l1.186,0.536h9.018l0.622-0.837c0.077-0.104,0.134-0.157,0.177-0.161
		c0.041-0.002,0.152,0.063,0.332,0.198l1.072,0.843c0.135,0.108,0.2,0.198,0.2,0.263c-0.006,0.041-0.029,0.078-0.067,0.109
		c-0.043,0.033-0.094,0.049-0.15,0.049H421.517z M420.967,71.608l0.614-0.719c0.08-0.098,0.143-0.15,0.182-0.152
		c0.042-0.004,0.122,0.041,0.245,0.135l1.072,0.859c0.076,0.066,0.123,0.113,0.141,0.15c0.016,0.035,0.027,0.078,0.031,0.131
		c0.002,0.051-0.094,0.078-0.285,0.078l-4.581,0.01c-0.07,0.094-0.148,0.176-0.229,0.246c-0.037,0.445-0.061,0.803-0.078,1.072
		c-0.018,0.265-0.027,0.412-0.027,0.436l-0.044,0.52h2.721l0.43-0.597c0.082-0.111,0.134-0.168,0.161-0.172
		c0.027-0.002,0.111,0.037,0.252,0.117l1.191,0.737c0.099,0.066,0.149,0.127,0.149,0.187c-0.006,0.043-0.056,0.115-0.149,0.209
		l-0.281,0.272v6.237c0,0.228-0.11,0.419-0.331,0.577c-0.223,0.16-0.401,0.266-0.538,0.312c-0.131,0.052-0.349,0.11-0.646,0.187
		c-0.3,0.072-0.478,0.103-0.528,0.097c-0.047,0-0.078-0.006-0.092-0.021c-0.016-0.014-0.027-0.031-0.039-0.057
		c-0.012-0.023-0.037-0.18-0.076-0.47c-0.038-0.287-0.302-0.525-0.793-0.704l-0.544-0.192c-0.088-0.031-0.145-0.061-0.172-0.088
		c-0.027-0.031-0.039-0.07-0.035-0.115c0.002-0.047,0.096-0.068,0.279-0.062l0.699,0.045c0.527,0.037,0.845,0.037,0.954,0.004
		c0.106-0.029,0.187-0.082,0.237-0.15c0.055-0.066,0.082-0.135,0.082-0.203v-5.669h-2.982c-0.018,0.099-0.027,0.173-0.027,0.218
		l-0.018,0.213l-0.078,0.524c0.799,0.298,1.464,0.671,1.984,1.113c0.524,0.446,0.786,0.917,0.78,1.413
		c-0.006,0.301-0.084,0.529-0.234,0.688c-0.15,0.164-0.329,0.243-0.54,0.243c-0.232,0.006-0.403-0.062-0.505-0.206
		c-0.102-0.144-0.186-0.329-0.249-0.558l-0.244-0.834c-0.092-0.268-0.193-0.523-0.312-0.761c-0.12-0.239-0.358-0.517-0.715-0.827
		c-0.105,0.41-0.238,0.794-0.396,1.15c-0.157,0.355-0.47,0.784-0.934,1.281s-0.875,0.865-1.232,1.105l-0.561,0.369
		c-0.111,0.074-0.184,0.092-0.211,0.051c-0.029-0.039-0.045-0.076-0.047-0.109c-0.004-0.031,0.023-0.076,0.08-0.137l0.499-0.502
		c0.172-0.167,0.378-0.424,0.624-0.77c0.245-0.348,0.458-0.785,0.632-1.32c0.177-0.535,0.278-1.023,0.308-1.466
		c0.031-0.44,0.045-0.679,0.045-0.704v-0.177h-2.309v7.333c0,0.194-0.117,0.327-0.351,0.4c-0.232,0.072-0.452,0.105-0.649,0.1
		c-0.191,0-0.312-0.027-0.358-0.078c-0.049-0.053-0.082-0.122-0.105-0.208l0.088-1.97v-4.137l-0.088-2.424
		c0.035-0.029,0.066-0.051,0.096-0.062l0.405,0.168l0.955,0.396h2.316c-0.006-0.082-0.006-0.148,0-0.195l0.01-1.096l-0.01-0.982
		l-4.176-0.01l-0.123-0.061c-0.049-0.053-0.082-0.137-0.104-0.252c-0.02-0.113,0.066-0.17,0.262-0.17H420.967z"/>
	<path fill="#AE7B28" d="M430.579,74.89c-0.029-0.034-0.045-0.071-0.047-0.104c-0.004-0.035,0.053-0.064,0.17-0.09
		c0.076-0.012,0.162,0.008,0.258,0.049c0.1,0.045,0.29,0.121,0.575,0.222c0.288,0.102,0.536,0.252,0.752,0.453
		c0.213,0.197,0.318,0.442,0.314,0.738c-0.004,0.297-0.078,0.531-0.223,0.708c-0.146,0.176-0.327,0.259-0.544,0.253
		c-0.306,0-0.495-0.079-0.573-0.245c-0.074-0.163-0.125-0.374-0.151-0.632c-0.027-0.258-0.061-0.47-0.098-0.641
		c-0.043-0.17-0.145-0.355-0.311-0.561L430.579,74.89z M432.098,68.837l0.99,0.358c0.111,0.047,0.168,0.102,0.172,0.164
		c0.004,0.06-0.055,0.116-0.172,0.171l-0.377,0.184l-0.824,2.027h1.876l0.325-0.387c0.154-0.18,0.229-0.273,0.232-0.275
		c0.002-0.004,0.085,0.055,0.251,0.172l1.141,0.832c0.094,0.076,0.141,0.143,0.145,0.203c0.002,0.057-0.059,0.127-0.18,0.2
		l-0.438,0.28c-0.219,0.872-0.386,1.541-0.509,2.011c-0.123,0.468-0.297,1.023-0.519,1.665c-0.221,0.643-0.61,1.357-1.168,2.141
		c-0.554,0.785-1.318,1.496-2.285,2.129c-0.967,0.636-1.817,1.104-2.548,1.408l-0.677,0.282c-0.117,0.051-0.184,0.059-0.201,0.02
		s-0.027-0.07-0.027-0.096c0-0.027,0.004-0.05,0.006-0.073c0.004-0.023,0.037-0.057,0.1-0.096l0.599-0.346
		c0.279-0.156,0.657-0.415,1.129-0.775c0.478-0.359,1.066-0.886,1.774-1.578c0.709-0.693,1.26-1.54,1.659-2.534
		c0.397-0.994,0.679-1.905,0.846-2.731c0.166-0.824,0.283-1.488,0.346-1.979h-2.106c-0.419,0.836-0.865,1.662-1.335,2.474
		c-0.474,0.815-1.146,1.71-2.023,2.687l-0.314,0.35c-0.066,0.072-0.121,0.102-0.169,0.094c-0.045-0.008-0.074-0.035-0.086-0.084
		c-0.012-0.047,0.012-0.117,0.068-0.209l0.272-0.451c0.405-0.67,0.778-1.4,1.123-2.189c0.345-0.783,0.603-1.412,0.772-1.879
		c0.171-0.468,0.329-0.961,0.483-1.479c0.151-0.519,0.271-0.954,0.364-1.306c0.09-0.354,0.15-0.65,0.184-0.886
		c0.033-0.237,0.057-0.405,0.074-0.497h-3.062c-0.152,0-0.229-0.078-0.231-0.238c-0.004-0.158,0.073-0.236,0.231-0.236h12.44
		l0.763-0.992c0.111-0.146,0.193-0.214,0.241-0.206c0.051,0.01,0.119,0.053,0.207,0.128l1.236,1.115
		c0.111,0.105,0.164,0.203,0.162,0.295c-0.004,0.088-0.072,0.135-0.213,0.135h-5.073l0.722,0.264
		c0.139,0.053,0.203,0.106,0.191,0.167c-0.012,0.057-0.074,0.135-0.191,0.226l-0.448,0.352v5.309
		c0.538-0.578,0.922-1.008,1.152-1.287c0.233-0.274,0.479-0.592,0.742-0.945c0.264-0.354,0.446-0.617,0.554-0.785l0.324-0.518
		l0.173-0.332c0.012-0.006,0.027-0.012,0.043-0.016c0.014-0.002,0.086,0.045,0.215,0.147l1.096,0.884
		c0.333,0.274,0.489,0.438,0.464,0.496c-0.023,0.057-0.084,0.086-0.186,0.092l-0.491,0.043c-1.162,0.85-1.928,1.377-2.296,1.59
		l-1.79,1.07v4.526c0,0.174,0.029,0.294,0.092,0.356c0.06,0.061,0.288,0.111,0.676,0.146c0.387,0.039,0.897,0.051,1.522,0.039
		c0.484-0.002,0.841-0.062,1.065-0.18c0.226-0.113,0.407-0.278,0.552-0.492c0.144-0.217,0.29-0.48,0.435-0.786
		c0.146-0.308,0.263-0.577,0.353-0.812l0.392-1.062c0.025-0.07,0.062-0.104,0.121-0.1c0.053,0.004,0.096,0.021,0.115,0.057
		c0.025,0.033,0.037,0.066,0.035,0.09c-0.004,0.027-0.008,0.051-0.008,0.076l-0.264,1.176c-0.073,0.346-0.108,0.641-0.106,0.889
		c0.002,0.25,0.039,0.439,0.106,0.568l0.232,0.348c0.104,0.178,0.158,0.344,0.162,0.492c0.002,0.154-0.047,0.312-0.148,0.478
		c-0.105,0.167-0.278,0.331-0.524,0.489c-0.246,0.156-0.812,0.258-1.694,0.297c-0.883,0.043-1.421,0.061-1.624,0.055
		c-1.227,0-2.006-0.143-2.338-0.426c-0.329-0.285-0.522-0.538-0.579-0.77c-0.056-0.227-0.083-0.523-0.083-0.892V70.05l-0.035-1.213
		H432.098z"/>
	<path fill="#AE7B28" d="M453.995,67.882l-0.359-0.512c-0.043-0.047-0.062-0.08-0.066-0.104c-0.004-0.025-0.004-0.042,0.004-0.054
		c0.012-0.051,0.064-0.084,0.158-0.096c0.1-0.006,0.47,0.124,1.113,0.39c0.646,0.266,1.104,0.585,1.379,0.957
		c0.274,0.373,0.413,0.722,0.413,1.057c-0.006,0.311-0.117,0.602-0.336,0.87c-0.216,0.269-0.503,0.401-0.859,0.396
		c-0.246,0-0.448-0.086-0.608-0.254c-0.162-0.163-0.266-0.418-0.311-0.756l-0.081-0.877c-0.035-0.213-0.086-0.391-0.158-0.531
		C454.212,68.225,454.117,68.062,453.995,67.882 M451.467,71.354c0.105,0.071,0.156,0.126,0.152,0.161
		c-0.002,0.039-0.023,0.081-0.066,0.128l-0.264,0.279v9.084h8.803l0.937-1.072c0.083-0.094,0.149-0.141,0.204-0.145
		c0.051-0.002,0.162,0.061,0.332,0.189l1.211,0.955c0.116,0.1,0.185,0.174,0.206,0.225c0.021,0.05,0.029,0.093,0.029,0.128
		c-0.006,0.121-0.084,0.183-0.235,0.183h-1.211H451.29l-0.376,0.572c-0.155,0.234-0.257,0.353-0.296,0.36
		c-0.043,0.006-0.1-0.02-0.178-0.072l-1.15-0.747l-0.123-0.078c-0.014-0.012-0.023-0.025-0.02-0.039
		c0.002-0.014,0.051-0.063,0.143-0.153l0.205-0.183c0.057-0.055,0.104-0.117,0.141-0.195c0.033-0.074,0.05-0.207,0.05-0.393v-9.188
		h-2.651c-0.143,0-0.218-0.078-0.218-0.236c0-0.16,0.075-0.236,0.218-0.236h13.277l0.939-1.238c0.082-0.105,0.146-0.158,0.195-0.162
		c0.051-0.002,0.141,0.053,0.27,0.162l1.378,1.238c0.074,0.074,0.119,0.135,0.135,0.174c0.013,0.041,0.022,0.078,0.026,0.107
		c0.002,0.027,0.006,0.045,0.006,0.051c-0.02,0.094-0.104,0.141-0.257,0.141h-2.384H451.467z"/>
	<path fill="#AE7B28" d="M471.884,41.978l-0.139-1.02l12.567-5.63v42.249c0,1.877,0.07,3.094,0.209,3.649
		c0.141,0.556,0.429,0.985,0.857,1.296c0.429,0.303,0.996,0.465,1.704,0.488l2.79,0.174v1.46H472.29v-1.333
		c0.683-0.045,1.25-0.092,1.726-0.162c0.487-0.07,1.02-0.186,1.622-0.359c0.591-0.174,1.055-0.382,1.367-0.648
		c0.325-0.254,0.602-0.639,0.834-1.146c0.244-0.512,0.358-1.553,0.358-3.104V45.673c0-1.043-0.059-1.889-0.185-2.56
		c-0.127-0.661-0.303-1.136-0.533-1.401c-0.22-0.278-0.707-0.441-1.448-0.477c-0.638-0.021-1.263,0.035-1.877,0.198L471.884,41.978z
		"/>
	<path fill="#AE7B28" d="M513.357,70.326c-0.074,0.757-0.15,1.429-0.219,2.021c-0.072,0.592-0.192,1.292-0.366,2.105
		c-0.17,0.812-0.479,1.688-0.924,2.627c-0.445,0.938-1.24,1.904-2.389,2.889c-1.146,0.984-2.377,1.754-3.69,2.312l-0.669,0.278
		c-0.062,0.029-0.123,0.037-0.174,0.023c-0.055-0.016-0.08-0.033-0.08-0.049c0-0.017,0-0.044,0-0.083s0.041-0.084,0.121-0.137
		l0.651-0.411c1.337-0.85,2.491-1.873,3.455-3.074c0.967-1.201,1.608-2.48,1.932-3.834c0.319-1.356,0.515-2.555,0.577-3.603
		c0.066-1.049,0.098-1.714,0.094-1.998c-0.002-0.28-0.006-0.563-0.012-0.835l-0.027-0.713l-0.096-0.763
		c0.016-0.01,0.033-0.021,0.051-0.033l0.219,0.059l2.062,0.501c0.082,0.023,0.143,0.051,0.182,0.08
		c0.039,0.027,0.057,0.064,0.053,0.105c-0.002,0.039-0.047,0.096-0.129,0.166l-0.5,0.438c0.129,1.043,0.271,2.021,0.434,2.932
		c0.162,0.912,0.489,1.916,0.98,3.008c0.491,1.098,1.1,2.148,1.829,3.156c0.729,1.006,1.446,1.797,2.162,2.369
		c0.714,0.568,1.245,0.934,1.597,1.09l0.686,0.317c0.074,0.039,0.113,0.096,0.113,0.165c-0.006,0.096-0.084,0.141-0.229,0.141
		h-0.606c-0.232,0-0.493,0.047-0.778,0.146c-0.286,0.096-0.497,0.191-0.626,0.285l-0.409,0.29c-0.094,0.062-0.151,0.1-0.177,0.107
		c-0.023,0.01-0.055-0.012-0.096-0.066l-0.432-0.464c-0.977-1.047-1.838-2.311-2.591-3.794c-0.751-1.481-1.2-2.782-1.347-3.897
		L513.357,70.326z"/>
</g>
</svg>
