<?xml version="1.0" encoding="utf-8"?>
<!-- Generator: Adobe Illustrator 17.0.0, SVG Export Plug-In . SVG Version: 6.00 Build 0)  -->
<!DOCTYPE svg PUBLIC "-//W3C//DTD SVG 1.1//EN" "http://www.w3.org/Graphics/SVG/1.1/DTD/svg11.dtd">
<svg version="1.1" id="Layer_1" xmlns="http://www.w3.org/2000/svg" xmlns:xlink="http://www.w3.org/1999/xlink" x="0px" y="0px"
	 width="640px" height="77.3px" viewBox="0 0 640 77.3" style="enable-background:new 0 0 640 77.3;" xml:space="preserve">
<style type="text/css">
	.st0{fill:none;}
	.st1{fill:#231916;}
</style>
<path class="st0" d="M0,0h640v77.3H0V0z"/>
<g>
	<path class="st1" d="M160.5,27.5v-2.4h-4v2.4H160.5z M160.5,24.5v-2.2h-4v2.2H160.5z M154.5,24.5v-2.2h-3.9v2.2H154.5z M154.5,27.5
		v-2.4h-3.9v2.4H154.5z M154.5,19.1v-2c-2.2,0.1-4.6,0.1-7.1,0.1h-0.9c-0.1,0-0.2-0.1-0.2-0.1c0-0.1,0.1-0.2,0.2-0.2l1.3-0.1
		c5.7-0.4,9.7-1.1,12-1.9l0.8-0.3c0.1,0,0.1,0,0.2-0.1c0,0,0.1,0,0.1,0c0,0,0.1,0.1,0.2,0.2l1.7,1.7c0,0,0,0.1,0,0.1
		c0,0.1-0.1,0.1-0.1,0.1l-1.2,0.1l-2.4,0.1L157,17c0,0.1-0.1,0.3-0.1,0.3c0,0.1-0.2,0.1-0.4,0.2v1.5h5.9l0.9-1l0.2-0.2
		c0,0,0.1,0,0.2,0.1l1.6,1.4c0,0,0.1,0.1,0.2,0.2c0.1,0.1,0,0.2-0.3,0.2h-8.6v2h3.8l0.5-0.7c0.1-0.1,0.1-0.1,0.2-0.2
		c0,0,0.1,0,0.3,0.1l1.9,1.2c0,0,0.1,0.1,0.1,0.1c0,0,0,0.1,0,0.1c0,0-0.1,0.1-0.2,0.2l-0.5,0.4v4l0.1,1.2c0,0.1-0.1,0.3-0.3,0.4
		c-0.1,0.2-0.5,0.2-1,0.3c-0.5,0-0.8,0-0.8-0.1c0-0.1-0.1-0.2-0.1-0.3v-0.3h-4v2.2h4.2l0.9-1c0.1-0.1,0.1-0.1,0.2-0.1l0.1,0.1
		l1.6,1.3c0.1,0.1,0.1,0.1,0.1,0.1c0,0.1-0.1,0.1-0.2,0.1h-1.6v0h-5.3v2.5h6l1.1-1.2c0.1-0.1,0.1-0.1,0.1-0.1c0,0,0.1,0,0.1,0.1
		l1.8,1.5c0.1,0.1,0.1,0.1,0.1,0.2c0,0.1-0.1,0.1-0.2,0.1h-1v0h-19c-0.2,0-0.3-0.1-0.3-0.3c0-0.2,0.1-0.3,0.3-0.3h9.1v-2.5h-7.1
		c-0.2,0-0.3-0.1-0.3-0.3c0-0.2,0.1-0.3,0.3-0.3h7.1v-2.2h-3.9v0.3c0,0.3-0.2,0.4-0.7,0.5c-0.5,0.1-0.8,0.1-0.9,0.1
		c-0.1,0-0.2,0-0.3-0.1c0,0-0.1-0.1-0.1-0.3l0.1-2.2v-3.8l0-1.9c0,0,0,0,0.1,0c0,0,0.2,0.1,0.6,0.3l1.3,0.7h3.9v-2h-9.1
		c-0.2,0-0.3-0.1-0.3-0.3c0-0.2,0.1-0.3,0.3-0.3H154.5z"/>
	<path class="st1" d="M180.5,15.1l-0.3-0.3c-0.1-0.1-0.1-0.1-0.1-0.2c0-0.1,0.1-0.1,0.2-0.1c0.5,0,1.1,0.1,1.9,0.4s1.2,0.8,1.2,1.6
		c0,0.2-0.1,0.5-0.3,0.8c-0.2,0.3-0.5,0.5-1,0.5c-0.2,0-0.4,0-0.6-0.1c-0.2-0.1-0.3-0.2-0.4-0.4c-0.1-0.2-0.2-0.4-0.2-0.7v-0.6
		C180.9,15.6,180.8,15.3,180.5,15.1 M171.2,20l-0.3-0.4c0,0,0-0.1,0-0.2c0-0.1,0-0.1,0.1-0.1c0.1,0,0.4,0.1,0.9,0.4
		c0.5,0.2,0.8,0.6,1.1,1c0.3,0.4,0.4,0.8,0.4,1.1c0,0.4-0.1,0.7-0.4,0.9c-0.2,0.2-0.5,0.4-0.8,0.3c-0.3,0-0.6-0.1-0.7-0.3
		c-0.1-0.2-0.2-0.5-0.2-0.7c0-0.1,0-0.3,0-0.5c0-0.3,0-0.5,0-0.7C171.4,20.5,171.4,20.2,171.2,20z M189.2,18.4L189.2,18.4l-12.9,0
		c0,0.9,0,1.8,0,2.8c0,0.9,0,1.9-0.1,2.8c0,0.9-0.1,1.8-0.2,2.8c-0.1,0.9-0.3,1.8-0.5,2.5c-0.2,0.7-0.6,1.4-1.1,2.2
		c-0.5,0.8-1.3,1.7-2.5,2.7l-0.6,0.5c-0.1,0.1-0.1,0.1-0.2,0.1c-0.1,0-0.1,0-0.1,0c0,0,0,0,0-0.1c0,0,0-0.1,0-0.1c0,0,0-0.1,0.1-0.2
		l0.6-0.7c0.7-0.9,1.3-1.7,1.7-2.7c0.4-0.9,0.6-1.7,0.7-2.4c0.1-0.7,0.2-1.5,0.3-2.4l0-1c-0.5,0.3-0.9,0.6-1.3,0.9
		c-0.4,0.3-0.6,0.4-0.7,0.5l-1.1,0.8c-0.2,0.1-0.3,0.2-0.4,0.2l-0.1-0.2l-0.5-1.4l-0.1-0.4v0c0,0,0,0,0,0c0,0,0.1,0,0.2-0.1l1.2-0.2
		c0.9-0.1,1.8-0.3,2.8-0.5c0-0.6,0-1.3,0-2c0-0.8,0-1.3,0-1.6s0-0.6,0-0.9s0-0.6,0-0.8l-0.1-1.6l-0.1-0.6c0-0.1,0.1-0.1,0.1-0.1
		c0.1,0,0.3,0,0.6,0.2l1.3,0.6h11.6l0.8-1.1c0.1-0.2,0.2-0.2,0.3-0.3c0.1,0,0.2,0.1,0.4,0.2l1.7,1.3c0.1,0.1,0.2,0.2,0.2,0.3
		c0,0.1-0.1,0.2-0.3,0.2H189.2z M181.8,26.7c0-0.1,0-0.2,0-0.3c0-0.1,0-0.4,0-0.9c0-0.5,0-1,0-1.4c0-0.4,0-0.8,0-1v-0.2h-2.1
		c-0.1,0.2-0.5,0.6-1,1.4c-0.5,0.7-1,1.3-1.5,1.8l-0.5,0.5c-0.1,0.1-0.1,0.1-0.2,0.1c-0.1,0-0.1,0-0.1,0c0,0,0,0,0-0.1
		c0,0,0-0.1,0.1-0.2l0.4-0.8c0.3-0.5,0.7-1.4,1.1-2.5c0.4-1.1,0.8-2.1,1-2.9l0.2-0.9l0.1-0.5c0-0.1,0-0.1,0.1-0.1l0.3,0.1l2,0.8
		c0.1,0.1,0.2,0.1,0.2,0.2c0,0.1-0.1,0.1-0.2,0.2l-0.4,0.2c-0.6,1.1-1,1.8-1.2,2.1h6.3l0.9-1.1c0.1-0.1,0.1-0.1,0.2-0.1
		c0.1,0,0.2,0,0.3,0.1l1.6,1.2c0.2,0.1,0.3,0.2,0.3,0.3c0,0.1-0.1,0.2-0.3,0.2h-1.6v0h-3.5c-0.1,0.2-0.3,0.3-0.5,0.4
		c0,0.4,0,0.8-0.1,1.4c0,0.5,0,0.9-0.1,1.2c0,0.3,0,0.6-0.1,1h4.1l0.8-1c0.1-0.2,0.2-0.3,0.3-0.3c0.1,0,0.2,0.1,0.4,0.3l1.4,1.1
		c0.1,0.1,0.1,0.1,0.2,0.2c0,0,0,0.1,0,0.1c0,0,0,0.1-0.1,0.1c-0.1,0-0.2,0.1-0.3,0.1h-1.4h-5.4c0.1,0.2,0.2,0.4,0.3,0.6l0.6,1
		c0.6,1,1.5,1.9,2.5,2.6c1,0.7,2.2,1.2,3.5,1.4l0.4,0.1c0.1,0,0.2,0.1,0.2,0.2c0,0,0,0.1-0.1,0.1c0,0-0.1,0.1-0.1,0.1l-0.4,0.1
		c-0.5,0.1-0.9,0.3-1.2,0.6c-0.2,0.3-0.4,0.5-0.5,0.7c-0.1,0.2-0.2,0.3-0.2,0.3c-0.1,0-0.3-0.1-0.8-0.4c-0.4-0.3-0.9-0.6-1.3-1
		c-0.5-0.4-0.8-0.8-1.1-1.1c-0.3-0.4-0.6-0.9-0.9-1.6c-0.3-0.7-0.7-1.8-1-3.2c-0.1,0.4-0.1,0.7-0.2,1c-0.1,0.3-0.2,0.7-0.3,1.1
		c-0.2,0.4-0.5,0.9-0.9,1.5c-0.5,0.6-1,1.1-1.6,1.4c-0.6,0.4-1.4,0.8-2.3,1.3c-1,0.4-1.8,0.7-2.5,0.9l-0.8,0.2c-0.1,0-0.1,0-0.2,0
		c-0.1,0-0.1,0-0.1,0c0,0-0.1,0-0.1-0.1c0,0,0-0.1,0.1-0.1c0,0,0.1-0.1,0.2-0.1l0.9-0.3c0.3-0.1,0.7-0.3,1.2-0.6
		c0.5-0.3,1.3-0.8,2.3-1.5c1-0.7,1.6-1.6,1.9-2.6c0.3-1,0.4-1.8,0.5-2.3h-5.1c-0.2,0-0.3-0.1-0.3-0.3c0-0.2,0.1-0.3,0.3-0.3H181.8z"
		/>
	<path class="st1" d="M199.4,19.5c0.1-0.1,0.2-0.1,0.5,0.1c0.1,0.1,0.6,0.3,1.5,0.8c0.9,0.5,1.4,1.1,1.4,1.7c0,0.6-0.1,1.1-0.4,1.3
		c-0.2,0.3-0.5,0.4-0.9,0.4c-0.4,0-0.6-0.1-0.8-0.3c-0.2-0.2-0.2-0.4-0.3-0.6c0-0.2,0-0.5-0.1-0.8c0-0.4-0.1-0.7-0.1-0.9
		c0-0.2-0.1-0.5-0.3-0.7c-0.1-0.2-0.3-0.4-0.5-0.6C199.4,19.7,199.3,19.5,199.4,19.5 M196.1,24.9c-0.1,0-0.1,0-0.2-0.1
		c0,0-0.1-0.1-0.1-0.3c0-0.2,0.1-0.2,0.3-0.2h8.6v-6h-7.4l-0.1,0c-0.1,0-0.1,0-0.2-0.1c0,0-0.1-0.1-0.1-0.3c0-0.1,0.1-0.2,0.3-0.2
		h7.5v-1.4l-0.1-1.8c0,0,0,0,0,0l0.5,0.1l2,0.3c0.2,0,0.3,0.1,0.3,0.2c0,0.1,0,0.2-0.2,0.3l-0.5,0.4v1.9h4.6l0.7-1
		c0.2-0.2,0.3-0.3,0.3-0.3c0,0,0.1,0.1,0.2,0.2l1.6,1.2c0.1,0.1,0.2,0.2,0.2,0.3c0,0.1-0.1,0.1-0.2,0.1h-7.4v6h1.7
		c0.5-1.6,0.9-2.9,1.1-3.9l0.1-0.7c0.1-0.3,0.1-0.4,0.1-0.4c0,0,0.1,0,0.2,0.1l2.1,1.1c0.1,0,0.1,0.1,0.1,0.2c0,0.1,0,0.1-0.1,0.2
		l-0.5,0.2c-0.9,1.3-1.4,2.1-1.7,2.4l-0.6,0.8l-0.1,0.2h3.1l0.8-1c0.1-0.2,0.2-0.3,0.3-0.3c0.1,0,0.1,0,0.2,0.1l1.8,1.4
		c0.1,0.1,0.2,0.2,0.2,0.3c0,0.1-0.1,0.1-0.2,0.1h-8c1,1.7,2.2,3.1,3.6,4c1.5,1,2.9,1.6,4.4,1.9l0.6,0.1c0.1,0,0.2,0.1,0.2,0.2
		c0,0.1,0,0.1-0.1,0.1l-0.6,0.2c-0.2,0.1-0.6,0.3-1,0.6c-0.4,0.3-0.7,0.5-0.8,0.7c-0.1,0.1-0.2,0.2-0.2,0.2c0,0-0.7-0.4-1.9-1.1
		c-1.3-0.7-2.2-1.6-2.9-2.8c-0.7-1.2-1.1-2-1.3-2.4c-0.2-0.4-0.3-1-0.5-1.6h-0.2v7l0.1,2.2c0,0.1-0.1,0.2-0.1,0.4
		c-0.1,0.2-0.4,0.3-1,0.3c-0.6,0-0.9,0-1-0.1c-0.1-0.1-0.1-0.2-0.1-0.4l0.1-2.4V26c-0.2,0.2-0.3,0.4-0.4,0.5l-0.9,1.1
		c-0.6,0.7-1.6,1.6-2.9,2.7c-1.3,1.1-2.5,2-3.6,2.8l-0.6,0.4c-0.1,0-0.1,0.1-0.2,0.1c-0.1,0-0.1,0-0.1,0c0,0,0-0.1,0-0.1
		c0-0.1,0.1-0.1,0.1-0.2l0.4-0.3c0.3-0.2,0.9-0.8,1.7-1.6c0.8-0.9,1.6-1.8,2.4-2.9l1.1-1.5c0.5-0.8,0.9-1.3,1-1.5l0.2-0.5
		L196.1,24.9L196.1,24.9z"/>
	<path class="st1" d="M229,23.3c0.1,0,0.6,0.1,1.4,0.3c0.8,0.2,1.2,0.5,1.3,0.9c0.1,0.4,0.1,0.6,0.1,0.7c0,0.2-0.1,0.4-0.2,0.7
		c-0.2,0.3-0.4,0.4-0.8,0.4c-0.3,0-0.5-0.1-0.7-0.3c-0.1-0.2-0.2-0.4-0.3-0.6l-0.1-0.5c-0.1-0.4-0.3-0.7-0.5-0.9l-0.3-0.2
		c-0.1-0.1-0.1-0.1-0.1-0.2C228.8,23.3,228.8,23.3,229,23.3 M233.2,15c0.2,0,0.5,0,0.9,0.1c0.4,0,0.8,0.2,1.2,0.4
		c0.4,0.3,0.6,0.7,0.6,1.2c-0.1,0.5-0.3,0.8-0.7,0.8c-0.4,0-0.7-0.1-0.9-0.3c-0.1-0.1-0.2-0.3-0.4-0.6c-0.2-0.3-0.3-0.5-0.5-0.7
		c-0.2-0.2-0.5-0.3-0.8-0.4c-0.3-0.1-0.5-0.1-0.5-0.2c0,0,0-0.1,0-0.1c0,0,0-0.1,0.1-0.1C232.2,15.1,232.6,15,233.2,15z M232.1,26.8
		c0.2,0.4,0.4,0.7,0.7,1.1c0.2,0.4,0.6,0.8,1.1,1.1l0.7,0.6c0.8-0.9,1.4-1.5,1.6-1.7l0.6-0.7c0-0.1,0.1-0.1,0.1-0.1
		c0,0,0.1,0,0.2,0.1l1.6,1.2c0.1,0.1,0.1,0.1,0.1,0.2c0,0.1-0.1,0.1-0.2,0.1l-0.8,0.1c-0.9,0.4-1.9,0.8-2.9,1.1
		c0.7,0.5,1.6,0.9,2.5,1.3c0.9,0.4,1.8,0.6,2.7,0.6l1.2,0.1c0.1,0,0.2,0.1,0.2,0.2c0,0.1,0,0.1-0.1,0.1l-0.9,0.4
		c-0.2,0.1-0.4,0.3-0.5,0.5c-0.2,0.2-0.3,0.4-0.4,0.6l-0.2,0.4l0,0.2c0,0-0.1,0-0.3-0.1l-0.8-0.3c-0.6-0.2-1.4-0.6-2.2-1.1
		c-0.8-0.5-1.6-1.2-2.4-2.1c-0.8-0.9-1.3-1.6-1.5-2.3c-0.2-0.7-0.4-1.1-0.5-1.3l-0.1-0.3h-0.1l-2.9,2l0.5,0.2c0.1,0,0.2,0.1,0.2,0.1
		c0,0.1-0.1,0.1-0.2,0.2l-0.5,0.3v2.6c0.7-0.1,1.3-0.2,1.7-0.3l2-0.4l1-0.2c0.1,0,0.2,0,0.2,0.1c0,0.1,0,0.1-0.1,0.2l-0.9,0.5
		c-0.7,0.3-1.4,0.7-2.1,1.1c-0.8,0.4-1.3,0.7-1.6,0.9l-1.2,0.7c-0.1,0.1-0.2,0.1-0.2,0.1c0,0,0,0-0.1-0.1l-0.8-1.6
		c0-0.1-0.1-0.1-0.1-0.1c0,0,0-0.1,0.1-0.1l0.2-0.2c0.1-0.1,0.2-0.2,0.2-0.3c0.1-0.1,0.1-0.3,0.1-0.4v-2.1c-0.4,0.2-0.7,0.3-0.9,0.4
		l-2.3,1.2c-0.5,0.2-0.9,0.4-1.3,0.6l-0.9,0.4c-0.1,0-0.2,0-0.2,0c0,0,0-0.1,0-0.1c0,0,0-0.1,0.1-0.1l0.8-0.5
		c0.7-0.4,1.2-0.8,1.7-1.1c0.4-0.3,1.1-0.8,2.1-1.6c0.9-0.8,1.8-1.5,2.5-2.2h-6.5c-0.2,0-0.3-0.1-0.3-0.3c0-0.2,0.1-0.3,0.3-0.3
		h15.9l1-1.1c0,0,0,0,0.1-0.1c0,0,0.1-0.1,0.1,0l0.1,0.1l1.5,1.4c0.1,0.1,0.1,0.1,0.1,0.2c0,0.1-0.1,0.1-0.2,0.1h-1.2H232.1z
		 M227.9,18.3H222c-0.2,0-0.3-0.1-0.3-0.3c0-0.2,0.1-0.3,0.3-0.3h6l0.1-1.5v-1.2c0-0.3,0-0.5,0-0.5c0,0,0.1,0,0.3,0.1l2.3,0.6
		c0.1,0,0.2,0.1,0.2,0.1c0,0.1-0.1,0.1-0.2,0.2l-0.5,0.3l-0.3,1.9h7.7l1-1.1c0.1-0.1,0.1-0.1,0.2-0.1c0,0,0.1,0,0.2,0.1l1.5,1.4
		c0.1,0.1,0.1,0.1,0.1,0.1v0c0,0,0,0,0,0.1c0,0-0.1,0-0.4,0h-5.9c-0.1,0.1-0.2,0.2-0.3,0.3v1.9c1.2-0.7,1.8-1,1.9-1.1l0.8-0.6
		l0.2-0.1c0,0,0.1,0,0.3,0.1l1.3,1.2c0.1,0.1,0.1,0.2,0.1,0.2c0,0.1-0.1,0.1-0.2,0.1h-0.5c-1.3,0.5-2.6,1-3.8,1.4v0.5
		c0,0.2,0.1,0.3,0.4,0.4c0.3,0.1,0.9,0.1,1.7,0.1c1.7,0,2.7-0.1,3.1-0.4c0.4-0.3,0.7-0.8,1.1-1.4l0.5-0.9c0-0.1,0.1-0.1,0.2-0.1
		c0.1,0,0.1,0,0.1,0c0,0,0,0.1,0,0.2l-0.2,1.1c-0.1,0.3-0.1,0.6-0.1,0.8c0,0.2,0.1,0.4,0.2,0.6l0.3,0.3c0.1,0.1,0.1,0.2,0.1,0.3
		c0,0.1-0.1,0.3-0.3,0.5c-0.6,0.6-2,0.8-4.3,0.8c-2.5,0-3.9-0.2-4.2-0.6c-0.3-0.4-0.4-0.7-0.4-1v-0.6c-1.4,0.3-2.3,0.5-2.6,0.6
		l-0.8,0.1c-0.1,0-0.2,0-0.2,0c0,0-0.1-0.1-0.1-0.2c0-0.1,0.1-0.1,0.2-0.2l0.8-0.2c0.8-0.2,1.3-0.4,1.5-0.4l1.2-0.5v-3.1h-2.3
		c-0.4,2.1-1.2,3.6-2.3,4.4c-1.2,0.8-2.2,1.4-3.2,1.7c-1,0.3-1.6,0.5-1.8,0.6l-0.7,0.2c0,0-0.1,0-0.1,0c0,0-0.1,0-0.1,0
		c0,0-0.1,0-0.1,0c0,0,0-0.1,0-0.1c0-0.1,0.1-0.1,0.2-0.2l0.6-0.2c0.2-0.1,0.6-0.3,1.3-0.6c0.7-0.3,1.3-0.8,2-1.4
		c0.7-0.6,1.2-1.3,1.6-2.2C227.5,19.7,227.8,18.9,227.9,18.3z"/>
	<path class="st1" d="M255.5,22.9c0-0.1,0-0.2,0.1-0.2c0.1,0,0.4,0.2,1,0.6c0.6,0.4,1,0.8,1.3,1.2c0.3,0.4,0.5,0.9,0.5,1.4
		c0,0.5-0.1,0.9-0.3,1.2c-0.2,0.3-0.5,0.5-1,0.5c-0.4,0-0.7-0.1-0.8-0.3c-0.2-0.2-0.2-0.5-0.3-0.7c0-0.1,0-0.3,0.1-0.7
		c0-0.3,0.1-0.6,0.1-0.8c0-0.1,0-0.2,0-0.5c0-0.2-0.1-0.5-0.1-0.7c-0.1-0.3-0.2-0.5-0.3-0.6c-0.1-0.1-0.2-0.2-0.2-0.3
		C255.5,23,255.5,23,255.5,22.9 M251.9,29.1v-5.5h-3.2v5.5H251.9z M251.9,23v-5.5h-3.2V23H251.9z M248.7,29.7v1.9
		c0,0.1,0,0.2-0.1,0.3c0,0.1-0.2,0.1-0.3,0.2c-0.2,0.1-0.4,0.1-0.8,0.1c-0.3,0-0.5,0-0.6-0.1c0-0.1-0.1-0.2-0.1-0.3l0.1-2.4V18.2
		c0-1.4,0-2.1,0-2.1c0,0,0.1,0.1,0.4,0.2l1.4,0.6h3l0.5-0.7c0.2-0.3,0.3-0.4,0.4-0.4c0.1,0,0.1,0.1,0.2,0.1l1.4,1
		c0.2,0.1,0.3,0.2,0.3,0.3c0,0.1-0.1,0.1-0.2,0.2l-0.6,0.5v9.9l0.1,2.6c0,0.1,0,0.2-0.1,0.3c0,0.1-0.1,0.2-0.3,0.3
		c-0.2,0.1-0.5,0.2-0.8,0.2c-0.4,0-0.6,0-0.6-0.1c0-0.1-0.1-0.2-0.1-0.4v-0.9H248.7z M263.6,20.4l0.8-1c0.2-0.3,0.4-0.4,0.4-0.4
		c0.1,0,0.2,0.1,0.3,0.2l1.8,1.5c0,0,0.1,0.1,0.1,0.1c0,0,0,0.1,0,0.1c0,0.1-0.1,0.1-0.2,0.1h-4v12.2c0,0.4-0.3,0.7-0.8,0.9
		c-0.6,0.2-1,0.3-1.2,0.3c-0.2,0-0.4,0.1-0.5,0.1c-0.1,0-0.2,0-0.2,0c0,0-0.1-0.2-0.1-0.7c0-0.4-0.5-0.8-1.5-1.2l-0.6-0.2
		c-0.1,0-0.1,0-0.1-0.1c0,0,0-0.1,0-0.1c0,0,0-0.1,0-0.1c0,0,0.1-0.1,0.2,0l0.6,0.1c0.4,0.1,0.8,0.1,1.3,0.1c0.5,0,0.7,0,0.8-0.1
		c0.1-0.1,0.1-0.2,0.1-0.4V21h-6.3h-0.1c-0.1-0.1-0.2-0.2-0.2-0.4c0-0.1,0.1-0.2,0.3-0.2h6.3v-3.8l-0.1-2.3c0,0,0.2,0,0.4,0l2.3,0.5
		c0.2,0,0.2,0.1,0.2,0.2c0,0.1,0,0.1-0.1,0.2l-0.6,0.5v4.6H263.6z"/>
	<path class="st1" d="M275.1,34.5l0.4-0.4c0.1,0,0.2-0.2,0.4-0.4c0.2-0.2,0.3-0.4,0.4-0.5c0.1-0.1,0.2-0.3,0.3-0.6
		c0.1-0.3,0.2-0.6,0.1-0.7c-0.1-0.1-0.1-0.2-0.2-0.3c0,0-0.1,0-0.3,0.1c-0.1,0-0.3,0.1-0.4,0.1c-0.4,0-0.7-0.1-1-0.4
		c-0.2-0.3-0.4-0.6-0.4-1c0-0.4,0.1-0.8,0.4-1.1c0.3-0.3,0.7-0.4,1.1-0.4c0.6,0,1,0.2,1.3,0.6c0.3,0.4,0.5,0.8,0.5,1.2
		c0.1,0.4,0,0.8,0,1.2c-0.1,0.6-0.3,1.1-0.6,1.5c-0.3,0.4-0.5,0.7-0.8,0.9c-0.2,0.2-0.5,0.4-0.7,0.6c-0.2,0.2-0.4,0.3-0.6,0.2
		c-0.1,0-0.2-0.1-0.2-0.2C275,34.7,275,34.6,275.1,34.5"/>
	<path class="st1" d="M315,19.2L315,19.2l-11,0l-0.6,3.8h10.1l0.7-1c0.1-0.1,0.1-0.1,0.2-0.1c0,0,0.1,0,0.1,0l2,1.5
		c0.1,0.1,0.1,0.1,0.1,0.1c0,0,0,0.1,0,0.1c0,0,0,0.1-0.1,0.1c0,0.1-0.1,0.1-0.1,0.1l-1,0.6c-0.1,1.3-0.2,2.4-0.3,3.4
		c-0.1,1-0.3,1.9-0.5,2.9c-0.2,0.9-0.6,1.7-1.1,2.4c-0.5,0.6-1.2,1.1-2,1.3c-0.8,0.2-1.3,0.3-1.4,0.3c-0.1,0-0.1,0-0.2,0
		c0,0,0-0.1-0.1-0.2c0-0.1-0.1-0.3-0.3-0.5c-0.2-0.3-0.3-0.5-0.5-0.6c-0.2-0.2-0.5-0.3-1-0.5l-1.1-0.5c-0.1,0-0.1,0-0.1-0.1
		c0,0,0-0.1,0-0.1c0,0,0-0.1,0-0.1c0,0,0-0.1,0.1-0.1c0.1,0,0.1,0,0.2,0l1.1,0.2c0.7,0.2,1.4,0.2,1.8,0.2c0.4,0,0.8-0.1,1.1-0.2
		c0.3-0.1,0.7-0.4,1.1-1c0.4-0.5,0.7-1.6,0.8-3.1c0.1-1.5,0.2-3,0.3-4.5h-10.5l-0.8,0.7c-0.1,0.1-0.2,0.1-0.2,0.1
		c0,0-0.1-0.1-0.2-0.1l-1.4-1.2c-0.1-0.1-0.2-0.1-0.2-0.1c0,0,0,0,0-0.1c0-0.1,0.1-0.1,0.2-0.2l0.8-0.4c0.1-0.8,0.2-1.8,0.4-2.8
		c0.2-1.1,0.3-2,0.3-2.9l0.1-1.2l0-0.8c0,0,0.1-0.1,0.1-0.1l0.2,0.1l2.6,0.8c0.1,0.1,0.2,0.1,0.2,0.2c0,0.1,0,0.1,0,0.2
		c0,0.1-0.1,0.1-0.2,0.2l-0.7,0.4l-0.4,2.3h9.2l1.1-1.3c0.1-0.2,0.2-0.3,0.3-0.3c0,0,0.1,0,0.2,0.1l2,1.7C317,19,317,19,317,19.1
		c0,0.1-0.1,0.1-0.3,0.1H315z M309.2,27.2l1.2-1.4c0.1-0.1,0.2-0.1,0.3,0l1.8,1.7c0.1,0.1,0.1,0.2,0.1,0.2c0,0.1-0.1,0.1-0.2,0.1
		h-14.4l-0.1,0c-0.1-0.1-0.2-0.2-0.2-0.4c0-0.2,0.1-0.2,0.3-0.2H309.2z"/>
	<path class="st1" d="M337.1,20.3l0,5.2c0,0.4,0,0.7-0.1,0.9c0,0.2-0.1,0.3-0.3,0.5c-0.2,0.2-0.5,0.3-1,0.5c-0.5,0.1-0.9,0.2-1,0.2
		c-0.1,0-0.2,0-0.2-0.1c0,0,0-0.1-0.1-0.3c0-0.1-0.1-0.3-0.2-0.5c-0.1-0.2-0.2-0.3-0.3-0.5c-0.1-0.1-0.3-0.3-0.7-0.4l-0.4-0.1
		c-0.1,0-0.1-0.1-0.1-0.2c0-0.1,0.1-0.2,0.2-0.2l0.4,0c0.8,0.1,1.3,0.1,1.4,0.1c0.2,0,0.3,0,0.4-0.1c0.1-0.1,0.1-0.3,0.1-0.7v-4.3
		l-0.1-1.5c0-0.1,0.1-0.1,0.1-0.1c0,0,0.2,0,0.5,0.1l1.7,0.4c0.1,0,0.2,0.1,0.3,0.1c0,0,0.1,0.1,0.1,0.1c0,0-0.1,0.1-0.2,0.2
		L337.1,20.3z M331.9,27.4c0,0,0-0.1,0-0.1c0,0,0.1-0.1,0.2-0.1c0,0,0.1,0,0.2,0.1c0.1,0,0.3,0.1,0.7,0.2c0.4,0.1,0.8,0.3,1.2,0.6
		c0.4,0.3,0.6,0.7,0.6,1.1c0,0.4-0.1,0.8-0.3,1c-0.2,0.2-0.5,0.3-0.8,0.3c-0.4,0-0.6-0.1-0.8-0.3c-0.1-0.2-0.2-0.5-0.3-0.7l-0.1-0.7
		c-0.1-0.4-0.3-0.8-0.6-1.1L331.9,27.4z M333.7,22.1c-1.5,1.6-2.9,2.8-4.2,3.9l-0.3,0.3c-0.1,0.1-0.2,0.1-0.3,0.1
		c-0.1,0-0.1,0-0.1,0c0,0,0,0,0-0.1c0,0,0-0.1,0-0.1c0-0.1,0.1-0.1,0.1-0.2l0.3-0.4c0.6-0.7,1.1-1.4,1.5-2.1
		c0.4-0.7,0.7-1.2,0.9-1.7c0.2-0.4,0.3-0.7,0.4-0.9l0.1-0.3l0.1-0.4c0,0,0.2,0,0.4,0.1l1.7,0.8c0.2,0.1,0.3,0.2,0.3,0.2
		c0,0,0,0.1,0,0.1c0,0.1-0.1,0.1-0.2,0.2L333.7,22.1z M339,28.6c-0.1-0.1-0.1-0.2-0.1-0.3c0-0.1,0.1-0.1,0.1-0.1
		c0.2,0,0.8,0.3,1.7,0.9c0.9,0.6,1.5,1.1,1.7,1.5c0.2,0.4,0.3,0.8,0.3,1.2c0,0.4-0.1,0.7-0.4,1c-0.3,0.2-0.5,0.4-0.8,0.4
		c-0.3,0-0.5-0.1-0.7-0.3c-0.2-0.1-0.3-0.3-0.3-0.5c0-0.2-0.1-0.7-0.2-1.5C340.2,30.2,339.8,29.4,339,28.6z M325.8,29.1l0.1-0.5
		c0.1-0.3,0.2-0.3,0.3-0.2c0.1,0.2,0.2,0.4,0.2,0.6l0.1,0.7c0,0.2,0,0.4,0,0.5c0,0.2,0,0.4,0,0.6c-0.1,0.6-0.2,1.1-0.4,1.5
		c-0.2,0.4-0.4,0.7-0.8,0.8c-0.3,0.2-0.6,0.2-0.9,0.2c-0.3,0-0.5-0.1-0.7-0.4c-0.2-0.3-0.3-0.5-0.3-0.8c0-0.3,0.1-0.6,0.2-0.7
		c0.1-0.1,0.5-0.4,1-0.7C325.2,30.5,325.6,29.9,325.8,29.1z M338.4,21.6c0,0,0-0.1,0-0.1c0,0,0.1-0.1,0.1-0.1c0.2,0,0.8,0.3,1.8,0.7
		c1,0.5,1.6,1,1.9,1.5c0.3,0.5,0.4,1,0.4,1.4c0,0.4-0.1,0.7-0.4,0.9c-0.3,0.2-0.5,0.3-0.7,0.3c-0.4,0-0.7-0.1-0.8-0.3
		c-0.1-0.2-0.2-0.5-0.3-0.8c-0.1-0.3-0.2-0.7-0.3-1c-0.1-0.3-0.3-0.7-0.5-1c-0.2-0.3-0.5-0.7-0.8-1.1L338.4,21.6z M330.1,28.9v2.5
		c0,0.4,0,0.7,0.1,0.8c0,0.1,0.1,0.2,0.3,0.3c0.1,0.1,0.4,0.1,0.9,0.2l1,0.1c0.3,0,0.6,0,1,0c1.5,0,2.4-0.1,2.7-0.3
		c0.3-0.2,0.5-0.4,0.7-0.6c0.1-0.2,0.3-0.5,0.5-0.8l0.5-1.1l0.2-0.5c0,0,0.1,0,0.2,0c0.1,0,0.1,0,0.1,0.1c0,0.1,0,0.1,0,0.1
		l-0.2,0.5c-0.1,0.2-0.2,0.5-0.2,0.8c-0.1,0.4-0.1,0.6-0.1,0.8c0,0.2,0,0.3,0,0.4c0,0.1,0.1,0.3,0.3,0.5c0.1,0.2,0.2,0.4,0.2,0.6
		c0,0.4-0.3,0.7-1,0.9c-0.7,0.2-1.8,0.3-3.5,0.3c-0.4,0-1.1,0-2.2-0.1c-1.1,0-1.9-0.1-2.4-0.3c-0.5-0.2-0.8-0.4-0.8-0.7
		c-0.1-0.3-0.1-0.6-0.1-0.9v-2.7l-0.1-2.2c0.1,0,0.3,0,0.5,0l1.8,0.4c0.3,0.1,0.4,0.1,0.4,0.2c0,0.1-0.1,0.2-0.2,0.3L330.1,28.9z
		 M327.5,18.6l0.8,0.4c0.2,0.1,0.3,0.2,0.3,0.2c0,0.1-0.1,0.1-0.2,0.2l-0.3,0.2v5.1l0.1,1.8c-0.1,0.2-0.1,0.3-0.2,0.4
		c-0.1,0.1-0.3,0.2-0.7,0.3c-0.4,0.1-0.7,0.1-0.8,0c-0.1-0.1-0.2-0.3-0.3-0.4l0.1-2.3v-4.3c-1,0.9-1.8,1.7-2.5,2.3l-0.6,0.5
		c-0.2,0.1-0.3,0.2-0.3,0.1c0-0.1-0.1-0.1-0.1-0.2c0-0.1,0-0.1,0.1-0.2l0.5-0.6c0.9-1.2,1.8-2.5,2.5-3.8c0.7-1.4,1.2-2.3,1.4-2.9
		l0.2-0.5l0.1-0.4c0,0,0,0,0.1,0c0,0,0.2,0.1,0.5,0.2l1.7,0.9c0.2,0.1,0.3,0.2,0.3,0.2c0,0.1,0.1,0.1,0.1,0.2c0,0.1-0.1,0.1-0.2,0.2
		l-0.5,0.3C328.7,17.1,328.1,17.9,327.5,18.6z M339.5,18.4h-6.6c-0.5,0.7-1.1,1.4-1.6,1.9c-0.5,0.6-0.9,0.9-1.1,1.1l-0.5,0.5
		c-0.1,0.1-0.1,0.1-0.2,0.1c-0.1,0-0.1,0-0.1,0c0,0,0,0,0-0.1c0,0,0-0.1,0-0.1c0-0.1,0-0.1,0.1-0.1l0.3-0.4c0.1-0.2,0.4-0.6,0.7-1.3
		c0.4-0.7,0.7-1.3,0.9-1.8c0.2-0.5,0.4-1,0.7-1.6c0.2-0.6,0.4-1,0.4-1.3l0.1-0.5l0.1-0.4c0,0,0.1,0,0.3,0.1l2,0.8
		c0.1,0.1,0.2,0.1,0.2,0.2c0,0,0.1,0.1,0.1,0.1c0,0.1-0.1,0.1-0.3,0.2l-0.4,0.2l-1.2,1.6h6.3L340,17c0.1-0.2,0.2-0.2,0.2-0.3
		c0,0,0.2,0.1,0.6,0.4l1.5,1.2c0.1,0.1,0.3,0.2,0.3,0.3c0.1,0.1,0.1,0.2,0.1,0.3c0,0.1-0.1,0.2-0.2,0.2c-0.1,0.1-0.3,0.1-0.5,0.1
		l-0.7,0.1c-0.6,0.1-1,0.2-1.2,0.4c-0.3,0.2-0.5,0.4-0.8,0.7l-0.2,0.2c-0.2,0.2-0.3,0.3-0.4,0.2c0,0-0.1-0.1-0.1-0.1
		c0,0,0-0.1,0-0.2l0.2-0.5c0.1-0.3,0.2-0.6,0.3-0.9C339.4,18.7,339.4,18.5,339.5,18.4z"/>
	<path class="st1" d="M355.9,30.3c-1.1,0.9-2.1,1.6-2.8,2.1c-0.7,0.5-1.4,0.9-2.2,1.4c-0.7,0.4-1.2,0.7-1.4,0.8l-0.7,0.3
		c-0.1,0-0.1,0.1-0.2,0c0,0-0.1,0-0.1,0c0,0,0-0.1,0-0.1c0,0,0-0.1,0.2-0.2l0.5-0.4c0.2-0.2,0.8-0.7,1.6-1.5
		c0.8-0.8,1.4-1.4,1.8-1.9c0.4-0.5,0.7-1,1.1-1.5l0.8-1.1c0.1-0.1,0.1-0.1,0.1-0.1l0.2,0.1l2,1.5c0.1,0.1,0.2,0.2,0.2,0.3
		c0,0.1-0.1,0.1-0.3,0.2L355.9,30.3z M359.7,28.6C359.7,28.5,359.8,28.5,359.7,28.6c0.1,0,0.2,0,0.3,0c0.1,0,0.3,0.1,0.7,0.2
		c0.3,0.1,0.9,0.3,1.6,0.6c0.7,0.3,1.3,0.6,1.8,0.9c0.5,0.3,0.9,0.7,1.5,1.3c0.5,0.5,0.7,1.2,0.6,1.9c-0.1,0.7-0.4,1.1-0.9,1.1
		c-0.5,0-0.9-0.2-1.2-0.5c-0.2-0.2-0.4-0.5-0.6-1.1c-0.2-0.5-0.5-1-0.7-1.3c-0.2-0.3-0.6-0.7-0.9-1.2c-0.4-0.4-0.7-0.7-0.9-0.9
		c-0.2-0.2-0.4-0.3-0.6-0.4c-0.2-0.1-0.3-0.2-0.4-0.3c-0.1,0-0.1-0.1-0.1-0.1c0,0,0-0.1,0-0.1C359.6,28.7,359.6,28.6,359.7,28.6z
		 M359.6,26.6v-6.1h-3.7v6.1H359.6z M353.8,19.9v-2.8l-0.1-2.7c0,0,0-0.1,0-0.1l0.5,0.1l2.2,0.6c0.1,0,0.1,0.1,0.2,0.1
		c0.1,0,0.1,0.1,0.1,0.1c0,0.1-0.1,0.1-0.2,0.2l-0.7,0.6v3.9h3.7V17l-0.1-2.4c0-0.1,0.1-0.1,0.1-0.1l0.5,0.1l2.2,0.6
		c0.1,0,0.2,0.1,0.2,0.2c0,0.1-0.1,0.2-0.2,0.2l-0.6,0.5v3.7h2.1l1.1-1.2c0.1-0.1,0.2-0.2,0.2-0.2c0,0,0.1,0,0.2,0.1l1.8,1.5
		c0.1,0.1,0.1,0.1,0.1,0.2c0,0.1-0.1,0.1-0.2,0.1h-2h-3.4v6.1h3.2l1.3-1.3c0.1-0.1,0.2-0.1,0.2-0.2c0,0,0.1,0,0.2,0.2l1.8,1.7
		c0,0.1,0.1,0.1,0.1,0.1s0,0,0,0c0,0.1-0.1,0.1-0.3,0.1h-3.1h-17.4c-0.2,0-0.3-0.1-0.3-0.3c0-0.2,0.1-0.3,0.3-0.3h5.9v-6.1h-5
		c-0.2,0-0.3-0.1-0.3-0.3c0-0.2,0.1-0.3,0.3-0.3H353.8z"/>
	<path class="st1" d="M390.1,16.4h-13.2v15L377,34c0,0.2-0.1,0.3-0.3,0.5c-0.1,0.2-0.5,0.2-1.2,0.2c-0.2,0-0.4,0-0.5-0.1
		c-0.1,0-0.1-0.1-0.2-0.2l0.1-2.9V17.4l-0.1-2.9c0,0,0.1,0,0.1,0c0,0,0.2,0.1,0.4,0.2l1.9,1.1h12.6l0.8-1c0-0.1,0.1-0.1,0.1-0.1
		c0,0,0.1,0,0.2,0.1l2.1,1.5c0,0,0.1,0.1,0.1,0.1c0,0,0,0.1,0,0.1c0,0,0,0.1-0.1,0.1l-0.8,0.5v15.7c0,0.3-0.1,0.7-0.3,1
		c-0.2,0.3-0.8,0.6-1.9,0.9l-0.7,0.2c-0.1,0-0.2,0-0.2,0l-0.1-0.2l-0.2-0.5c-0.1-0.2-0.2-0.4-0.4-0.6c-0.2-0.2-0.4-0.4-0.7-0.4
		l-1.2-0.3c-0.1,0-0.2-0.1-0.2-0.2c0-0.1,0-0.1,0-0.1c0-0.1,0.1-0.1,0.3-0.1h1.1l1.7,0c0.3,0,0.4,0,0.5-0.1c0.1-0.1,0.1-0.2,0.1-0.3
		V16.4z M381.3,28.3h3.8v-4.5h-3.8V28.3z M384.9,23.2l0.6-0.7c0.1-0.1,0.2-0.2,0.2-0.2c0,0,0.1,0,0.3,0.1l1.7,1.2
		c0,0,0.1,0.1,0.1,0.1c0,0,0.1,0.1,0.1,0.1c0,0,0,0.1-0.1,0.2l-0.7,0.5v3.5l0.1,2c0,0.1-0.1,0.3-0.1,0.4c-0.1,0.1-0.3,0.2-0.7,0.3
		c-0.4,0.1-0.7,0.1-0.9,0.1c-0.2,0-0.3,0-0.4-0.1c0-0.1-0.1-0.2-0.1-0.3v-1.4h-3.8v1.5c0,0.3-0.2,0.5-0.5,0.6
		c-0.4,0.1-0.7,0.1-1,0.1c-0.2,0-0.3,0-0.4-0.1c-0.1-0.1-0.1-0.2-0.1-0.4l0.1-2.3v-3.9l-0.1-2.4c0,0,0.1,0,0.1-0.1l0.3,0.1l1.7,0.9
		H384.9z M385.5,19.3l1.3-1.3c0.1-0.1,0.2-0.2,0.2-0.2c0,0,0.1,0,0.2,0.1l1.7,1.5c0.1,0,0.1,0.1,0.1,0.2c0,0,0,0.1,0,0.1
		c0,0-0.1,0.1-0.2,0.1h-1h-9.6c-0.2,0-0.3-0.1-0.3-0.3c0-0.2,0.1-0.3,0.3-0.3H385.5z"/>
	<path class="st1" d="M410.8,31.4c0,0,0-0.1,0-0.1c0,0,0.1-0.1,0.2-0.1c0.3,0,0.8,0.2,1.6,0.6c0.8,0.4,1.2,1,1.1,1.8
		c0,0.3-0.1,0.6-0.3,0.8c-0.2,0.2-0.5,0.3-0.8,0.4c-0.3,0-0.5,0-0.7-0.2c-0.1-0.1-0.2-0.2-0.2-0.3c-0.1-0.2-0.1-0.3-0.1-0.3l0.1-0.7
		c0-0.1,0-0.1,0-0.2c0-0.3-0.1-0.6-0.3-0.8l-0.4-0.5L410.8,31.4z M398.8,20.7h-0.1c-0.2,0-0.3-0.1-0.3-0.3c0-0.2,0.1-0.3,0.3-0.3
		h3.6v-3.4l-0.1-2c0,0,0,0,0.1,0l0.5,0.1l1.8,0.4c0.1,0,0.2,0.1,0.2,0.2c0,0.1-0.1,0.1-0.2,0.2l-0.5,0.4v4h0.4l0.6-0.7
		c0.2-0.2,0.3-0.3,0.3-0.3c0.1,0,0.2,0.1,0.3,0.2l1,1c0.1,0.1,0.1,0.2,0.1,0.3c0,0.1-0.1,0.1-0.2,0.1H404v3.2
		c0.7-0.2,1.3-0.4,1.8-0.6l0.6-0.3c0,0,0,0,0.1,0c0.1,0,0.1,0,0.1,0.1c0,0.1,0,0.2-0.1,0.2l-0.6,0.3c-0.4,0.2-1,0.6-1.9,1.2v8.4
		c0,0.1,0,0.3-0.1,0.4c-0.1,0.1-0.2,0.3-0.4,0.4c-0.2,0.2-0.6,0.3-1,0.4c-0.4,0.1-0.7,0.2-0.8,0.2c-0.1,0-0.1,0-0.2,0
		c0,0,0-0.1,0-0.2c0-0.1-0.1-0.4-0.2-0.7c-0.1-0.3-0.4-0.6-0.9-0.8l-0.5-0.2c-0.1,0-0.2-0.1-0.2-0.2c0-0.1,0.1-0.1,0.2-0.1l0.6,0.1
		c0.7,0.1,1.2,0.1,1.3,0.1c0.2,0,0.4,0,0.4-0.1c0.1-0.1,0.1-0.2,0.1-0.3v-6c-0.5,0.4-1,0.7-1.5,1.1l-0.9,0.7l-0.3,0.2
		c0,0-0.1,0-0.1,0c0,0,0-0.1-0.1-0.2l-0.6-1.6l-0.2-0.4c0,0,0,0,0,0l0.6-0.1l0.8-0.2c0.4-0.1,1.1-0.4,2.2-0.8v-3.9H399H398.8z
		 M411.9,22.8c0-0.1,0-0.2,0-0.2l-0.1-1.1l-0.1-2.4l-0.1-1l-2.8,0.3v4.5H411.9z M413.7,22.8h2.2l0.8-1.1c0.2-0.2,0.3-0.4,0.3-0.4
		c0,0,0.1,0,0.2,0.1l1.6,1.4c0,0,0.1,0.1,0.1,0.2c0,0.1,0,0.1,0,0.2c0,0.1,0,0.1-0.1,0.1h-1.5h-3.6c0,0.3,0.1,0.9,0.2,1.7
		c0.1,0.8,0.4,1.8,0.8,2.9c0.5,1.1,0.9,1.9,1.2,2.3c0.3,0.4,0.6,0.6,0.8,0.8c0.2,0.1,0.3,0.2,0.4,0.2c0.1,0,0.3-0.1,0.4-0.3
		c0.2-0.2,0.5-0.8,0.9-1.8l0.2-0.5c0-0.1,0.1-0.1,0.1-0.1c0.1,0,0.1,0,0.1,0.1c0,0.1,0,0.1,0,0.1l-0.2,0.6c0,0.1-0.1,0.5-0.2,1
		c-0.1,0.5-0.1,0.9-0.1,1.1c0,0.1,0,0.3,0.1,0.6c0.1,0.2,0.1,0.4,0.2,0.6l0.3,0.5c0,0.1,0,0.2,0,0.3c0,0.3-0.2,0.4-0.6,0.4
		c-0.3,0-0.7-0.1-1.2-0.2c-0.5-0.2-1-0.4-1.5-0.8c-0.5-0.3-0.9-0.8-1.4-1.3c-0.4-0.5-0.8-1-1-1.5c-0.3-0.5-0.5-1.1-0.7-1.8
		c-0.2-0.7-0.4-1.3-0.5-1.8c-0.1-0.5-0.2-1.5-0.4-2.9h-3.1v7.3c1.2-0.6,2.1-1.1,2.7-1.4l0.7-0.4c0.1-0.1,0.2-0.1,0.2,0
		c0,0,0.1,0.1,0.1,0.1c0,0,0,0.1-0.1,0.1l-0.3,0.3l-1,0.9c-1,0.9-1.6,1.5-1.8,1.7c-0.2,0.2-0.4,0.4-0.5,0.5l-0.6,0.6
		c-0.3,0.3-0.4,0.5-0.5,0.5c-0.1,0-0.1,0-0.2,0c0,0-0.1-0.2-0.2-0.4l-0.6-1.3l-0.1-0.3c0,0,0-0.1,0-0.1c0,0,0,0,0-0.1
		c0,0,0.1-0.1,0.2-0.1c0.1-0.1,0.2-0.2,0.2-0.3c0-0.1,0.1-0.3,0.1-0.6V19.2c0-1.5,0-2.3,0-2.3c0,0,0,0,0,0l0.2,0.1l1.6,0.8
		c1.3-0.4,2.5-0.7,3.5-1.1c1-0.4,1.8-0.7,2.2-1l0.7-0.4l0.3-0.2c0,0,0.1,0.1,0.4,0.3l1.8,1.5c0.1,0.1,0.2,0.2,0.2,0.2
		c0,0,0,0.1,0,0.1c0,0-0.1,0-0.3,0l-0.9,0.1c0,0-0.7,0.1-1.9,0.2l-2.6,0.3l1.8,0.5c0.2,0.1,0.3,0.1,0.3,0.2c0,0,0,0.1-0.1,0.2
		l-0.5,0.5c0,0.9,0,1.6,0.1,2.3c0,0.6,0,1,0.1,1.1L413.7,22.8z"/>
	<path class="st1" d="M432,16.5c0.2,0,0.5,0.3,1.1,0.7c0.6,0.5,0.9,0.8,1.2,1.1c0.2,0.2,0.4,0.5,0.7,0.9c0.2,0.4,0.3,0.8,0.3,1.2
		c0,0.3-0.1,0.6-0.3,0.9c-0.2,0.3-0.5,0.5-0.9,0.5c-0.4,0-0.6-0.1-0.8-0.3c-0.2-0.2-0.2-0.5-0.2-0.8v-0.8c0-0.4-0.1-0.8-0.1-1.1
		c-0.1-0.3-0.2-0.7-0.4-1.1c-0.2-0.4-0.3-0.7-0.5-0.8c-0.1-0.2-0.2-0.3-0.2-0.3C431.8,16.5,431.8,16.5,432,16.5 M442.9,17.9
		c-0.3,0.4-0.6,0.7-0.8,0.9l-1.5,1.7c-0.6,0.7-1,1.1-1.2,1.3l-0.5,0.4c-0.2,0.2-0.3,0.2-0.3,0.1c0-0.1,0-0.2,0-0.3l0.4-0.7
		c0.4-0.8,0.8-1.7,1.2-2.5c0.3-0.8,0.6-1.5,0.8-2l0.1-0.4c0.1-0.3,0.1-0.4,0.2-0.4c0,0,0,0,0.1,0c0,0,0.1,0.1,0.3,0.2l1.8,1.1
		c0.2,0.1,0.2,0.2,0.2,0.3c0,0.1-0.1,0.1-0.3,0.2L442.9,17.9z M427.6,20.3h-3.3c-0.2,0-0.3-0.1-0.3-0.3c0-0.2,0.1-0.3,0.3-0.3h3.4
		v-3.3l-0.1-1.8c0,0,0-0.1,0.1-0.1l0.4,0.1l1.9,0.4c0.2,0,0.2,0.1,0.3,0.1c0,0,0,0,0,0.1c0,0,0,0.1-0.1,0.2l-0.6,0.5v3.8h0.5l0.6-1
		c0.1-0.2,0.2-0.2,0.4,0l1.3,1.2c0,0,0.1,0.1,0.1,0.2c0,0.1,0,0.1,0,0.2c0,0.1-0.1,0.1-0.2,0.1h-1.4v0h-1.4v3.8
		c0.4-0.1,0.7-0.2,1.1-0.3c0.3-0.1,0.5-0.1,0.6-0.2l0.6-0.2c0.2,0,0.2,0,0.2,0.1c0,0.1,0,0.2-0.1,0.2l-0.8,0.5
		c-0.4,0.2-0.9,0.5-1.6,0.9v8.2c0,0.2,0,0.4-0.1,0.5c-0.1,0.1-0.2,0.3-0.5,0.5c-0.3,0.2-0.6,0.3-1,0.4c-0.4,0.1-0.6,0.1-0.7,0.2
		c-0.1,0.1-0.2,0-0.3-0.3l-0.1-0.4c-0.1-0.2-0.2-0.4-0.5-0.6c-0.2-0.2-0.4-0.4-0.7-0.4l-0.4-0.1c-0.1,0-0.1,0-0.2-0.1
		c0-0.1-0.1-0.1,0-0.1c0-0.1,0.1-0.2,0.3-0.1l0.5,0c1,0.1,1.6,0.1,1.7-0.1c0.1-0.1,0.2-0.3,0.2-0.5V26c-0.7,0.4-1.3,0.7-1.7,0.9
		l-0.7,0.4c-0.3,0.2-0.5,0.3-0.5,0.3c0,0,0,0,0-0.1l-0.1-0.4l-0.4-1.2c-0.1-0.3-0.2-0.5-0.2-0.5c0,0,0,0,0,0l0.5-0.1l0.7-0.2
		l1.3-0.3l1.1-0.3V20.3z M441.5,32.3v-4.5h-9.3c-0.1,0-0.2-0.1-0.3-0.2c0,0,0-0.1,0-0.1l0-0.1l0.2-0.2h9.3v-3.8h-9.5
		c-0.2,0-0.3-0.1-0.3-0.4c0-0.1,0-0.2,0.1-0.2l0.2-0.1h4.3v-5.9l-0.1-2.3c0,0,0-0.1,0.1-0.1l0.6,0.2l1.9,0.5c0.1,0,0.1,0.1,0.1,0.1
		c0,0.1,0,0.1-0.2,0.2l-0.6,0.5v6.8h3.3l0.4-0.7c0.2-0.3,0.3-0.4,0.3-0.4c0,0,0.1,0,0.2,0.1l1.7,1.1c0.1,0.1,0.2,0.2,0.2,0.2
		c0,0.1-0.1,0.1-0.1,0.2l-0.7,0.6v7.8l0.1,2.2c0,0.1-0.1,0.2-0.1,0.3c0,0.1-0.2,0.2-0.4,0.3c-0.2,0.1-0.5,0.2-0.8,0.2
		c-0.4,0-0.6-0.1-0.6-0.2c-0.1-0.1-0.1-0.3-0.1-0.5v-1.1h-10c-0.2,0-0.3-0.1-0.3-0.3c0-0.2,0.1-0.3,0.3-0.3H441.5z"/>
	<path class="st1" d="M459,22.6c0.9-2.2,1.4-3.5,1.5-4.1l0.1-0.5l0.1-0.3c0.1-0.1,0.1-0.1,0.3,0l1.9,1.4c0.1,0.1,0.2,0.1,0.2,0.2
		c0,0.1,0.1,0.1,0.1,0.2c0,0-0.1,0.1-0.2,0.1l-0.5,0.2c-0.3,0.5-0.5,0.8-0.6,1.1l-1.5,2.7l-0.2,0.4c1.4,1.7,2.3,2.8,2.5,3.5
		c0.3,0.7,0.4,1.1,0.5,1.4c0,0.2,0.1,0.5,0.1,0.7c0,0.2-0.1,0.4-0.2,0.7c-0.1,0.3-0.4,0.5-0.7,0.6c-0.3,0.1-0.6,0.1-0.8-0.2
		c-0.2-0.2-0.4-0.5-0.5-0.9l-0.3-1c-0.1-0.3-0.2-0.7-0.4-1.1c-0.1-0.4-0.2-0.7-0.3-0.8l-0.7-1.5c-0.6,0.8-1.1,1.5-1.5,2.1
		c-0.4,0.6-1.1,1.2-1.8,1.9c-0.8,0.7-1.5,1.3-2,1.7l-0.3,0.2c-0.1,0.1-0.2,0.1-0.2,0c0,0,0-0.1,0-0.1c0,0,0,0,0-0.1
		c0,0,0-0.1,0.1-0.1l0.4-0.4c0.1-0.1,0.4-0.4,0.7-0.8c0.3-0.4,0.8-1,1.4-1.7c0.6-0.8,1.4-2.2,2.4-4.2c-0.1-0.2-0.2-0.3-0.3-0.5
		c-0.1-0.2-0.5-0.6-1.1-1.4c-0.6-0.7-1-1.2-1.2-1.4c-0.2-0.2-0.3-0.3-0.4-0.4c-0.1-0.1-0.2-0.2-0.2-0.2c-0.1-0.1-0.1-0.1-0.1-0.2
		c0,0,0.1-0.1,0.1-0.1c0.1,0,0.1,0,0.2,0.1c0.1,0.1,0.2,0.1,0.4,0.2c0.2,0.1,0.5,0.3,1,0.7l1.3,1L459,22.6z M454.5,16.5
		c0,0.6,0,1.1,0,1.5c0,0.4,0,1.2,0,2.4c0,1.2,0,1.9,0,2.1c0,0.8-0.1,1.6-0.1,2.4c-0.1,0.8-0.2,1.8-0.5,3.1c-0.3,1.3-0.8,2.4-1.6,3.3
		c-0.8,0.9-1.3,1.5-1.7,1.9c-0.4,0.4-0.6,0.6-0.7,0.7l-0.4,0.4c-0.1,0.1-0.2,0.1-0.2,0.1c0,0-0.1,0-0.1,0c0,0,0,0,0-0.1
		c0,0,0-0.1,0-0.1c0,0,0-0.1,0.1-0.2l0.3-0.3c0.4-0.5,0.8-1.1,1.1-1.7c0.4-0.6,0.7-1.3,0.9-1.9c0.2-0.6,0.4-1.2,0.5-1.9
		c0.1-0.7,0.2-1.4,0.3-2c0.1-0.7,0.1-1.6,0.1-2.7c0-1.1,0.1-2,0.1-2.7c0-0.4,0-1.1-0.1-2c0-0.9,0-1.4,0-1.5l0-1l-0.1-1.5
		c0-0.1,0.1-0.1,0.1-0.1c0,0,0.2,0.1,0.5,0.2l1.6,0.9h8.9l0.5-0.7c0.2-0.2,0.3-0.3,0.3-0.4c0.1,0,0.2,0.1,0.5,0.3l1.5,1.2
		c0.2,0.1,0.3,0.2,0.3,0.3c0,0-0.1,0.1-0.3,0.3l-0.7,0.5c0,0.6-0.1,1.2-0.1,1.9s0,1.5,0,2.5c0,1,0,1.8,0,2.4c0,0.8,0.1,1.5,0.1,2.1
		c0.1,0.6,0.2,1.1,0.3,1.7c0.1,0.5,0.3,1,0.4,1.5c0.2,0.5,0.4,0.9,0.7,1.3c0.3,0.4,0.6,0.6,0.8,0.6c0.1,0,0.3-0.2,0.4-0.5l0.7-1.2
		l0.4-0.7l0.2-0.3c0-0.1,0.1-0.1,0.2-0.1c0.1,0,0.1,0.1,0.1,0.2c0,0.1,0,0.2,0,0.2l-0.1,0.4c-0.1,0.3-0.2,0.8-0.4,1.3
		c-0.1,0.5-0.2,0.9-0.2,1.1c0,0.2,0,0.4,0.1,0.7c0.1,0.3,0.1,0.5,0.2,0.7l0.3,0.7c0,0.1,0,0.2,0,0.3c0,0.1,0,0.2-0.1,0.3
		c-0.1,0.1-0.2,0.2-0.6,0.2c-0.4,0-1.2-0.3-2.4-1c-1.2-0.7-2-1.8-2.3-3.4c-0.4-1.6-0.6-2.7-0.6-3.4c-0.1-0.7-0.1-1.5-0.2-2.4
		c0-0.9,0-1.8,0-2.7l0-3.6c0-0.5,0-0.7,0-0.8l0-0.8H454.5z"/>
	<path class="st1" d="M486.7,27c0.1,0,0.4,0.1,1,0.3c0.6,0.2,1,0.5,1.4,0.9c0.4,0.3,0.6,0.8,0.6,1.3c0,0.3-0.1,0.6-0.3,0.8
		c-0.2,0.3-0.5,0.4-0.8,0.4c-0.2,0-0.4,0-0.6-0.2c-0.2-0.1-0.3-0.3-0.4-0.5c-0.1-0.2-0.1-0.5-0.2-1c0-0.5-0.1-0.8-0.2-0.9
		c-0.1-0.2-0.2-0.3-0.3-0.4c-0.1-0.1-0.2-0.3-0.3-0.3c-0.1-0.1-0.1-0.1-0.1-0.2C486.6,27.1,486.6,27,486.7,27 M479.4,26.9
		C479.4,26.9,479.4,26.9,479.4,26.9c0.1,0,0.3,0.1,0.7,0.2c0.4,0.2,0.9,0.5,1.3,0.9c0.4,0.4,0.6,0.9,0.6,1.3c0,0.4-0.1,0.7-0.3,0.9
		c-0.2,0.2-0.4,0.3-0.8,0.3c-0.5,0-0.7-0.2-0.8-0.5c-0.1-0.3-0.2-0.7-0.1-1.2c0-0.5,0-0.8-0.1-1.1c-0.1-0.2-0.2-0.4-0.3-0.6
		c-0.1-0.1-0.2-0.2-0.2-0.3C479.3,27,479.3,26.9,479.4,26.9z M486.6,22.2c0,0,0.1,0,0.1,0c0.1,0,0.3,0.1,0.9,0.3
		c0.5,0.2,1,0.5,1.4,0.9c0.4,0.3,0.6,0.8,0.6,1.3c0,0.3-0.1,0.6-0.3,0.8c-0.2,0.3-0.5,0.4-0.8,0.4c-0.2,0-0.4-0.1-0.6-0.2
		c-0.2-0.1-0.3-0.3-0.4-0.5c-0.1-0.2-0.1-0.5-0.2-1c0-0.5-0.1-0.8-0.2-1.1c-0.1-0.2-0.3-0.4-0.4-0.6c-0.1-0.1-0.2-0.2-0.2-0.3
		C486.5,22.3,486.5,22.3,486.6,22.2z M479.3,22.3c0.1,0,0.5,0.2,1.3,0.6c0.8,0.5,1.2,1.1,1.2,1.9c0,0.3-0.1,0.6-0.3,0.8
		c-0.2,0.2-0.4,0.3-0.7,0.3c-0.3,0-0.5-0.1-0.6-0.2c-0.2-0.1-0.3-0.3-0.3-0.5c-0.1-0.2-0.1-0.5-0.1-1c0-0.4,0-0.8-0.1-1
		c-0.1-0.2-0.2-0.4-0.3-0.5c-0.1-0.1-0.2-0.2-0.2-0.3C479.2,22.3,479.2,22.3,479.3,22.3z M491.1,21.3h-5.8v10.5l0.1,2.1
		c0,0.1-0.1,0.2-0.1,0.3c-0.1,0.1-0.3,0.2-0.7,0.3c-0.4,0.1-0.7,0.1-0.8,0.1c-0.2,0-0.3,0-0.3-0.1c0-0.1-0.1-0.2-0.1-0.3l0.1-2.8
		V21.3h-5.2v10.9l0.1,1.9c0,0.1-0.1,0.1-0.1,0.2c0,0.1-0.3,0.2-0.6,0.3c-0.4,0.1-0.7,0.1-0.8,0.1c-0.2,0-0.3,0-0.3-0.1
		c0,0-0.1-0.1-0.1-0.2l0.1-2.4v-9.7l-0.1-2.6c0,0,0.1,0,0.3,0.1l1.6,0.9h5.2v-3.5h-8.6c-0.2,0-0.3-0.1-0.3-0.3
		c0-0.2,0.1-0.3,0.3-0.3h16.8l1-1.2c0.1-0.1,0.2-0.2,0.2-0.2c0,0,0.1,0,0.2,0.1l1.8,1.6c0,0,0,0.1,0.1,0.2c0.1,0.1,0,0.1-0.2,0.1
		h-2.5h-6.4c-0.1,0.1-0.1,0.2-0.2,0.3c0,0-0.1,0.1-0.3,0.2v3h5.7l0.6-0.9c0-0.1,0.1-0.1,0.1-0.1c0,0,0.1,0,0.2,0.1l1.7,1.1
		c0.1,0.1,0.2,0.1,0.2,0.2c0,0,0,0.1,0,0.1c0,0,0,0.1-0.1,0.2l-0.6,0.5v11.5c0,0.2-0.1,0.4-0.3,0.7c-0.2,0.3-0.8,0.5-2,0.7l-0.5,0.1
		c-0.1,0-0.1,0-0.1,0l0-0.1l0-0.1l-0.2-0.5c-0.2-0.5-0.5-0.8-0.9-1l-0.7-0.3c-0.2-0.1-0.2-0.1-0.2-0.2c0-0.1,0.1-0.1,0.2-0.1l1.1,0
		l1,0.1c0.1,0,0.2,0,0.3,0c0.2,0,0.3,0,0.4-0.1c0.1-0.1,0.1-0.2,0.1-0.4V21.3z"/>
	<path class="st1" d="M185.8,55.2v-2.4h-4v2.4H185.8z M185.8,52.2V50h-4v2.2H185.8z M179.9,52.2V50H176v2.2H179.9z M179.9,55.2v-2.4
		H176v2.4H179.9z M179.9,46.7v-2c-2.2,0.1-4.6,0.1-7.1,0.1h-0.9c-0.1,0-0.2,0-0.2-0.1c0-0.1,0.1-0.2,0.2-0.2l1.3-0.1
		c5.7-0.4,9.7-1.1,12-1.9l0.8-0.3c0.1,0,0.1,0,0.2-0.1c0,0,0.1,0,0.1,0c0,0,0.1,0.1,0.2,0.2l1.7,1.7c0,0,0,0.1,0,0.1
		c0,0.1-0.1,0.1-0.1,0.1l-1.2,0.1l-2.4,0.1l-2.2,0.1c0,0.1-0.1,0.3-0.1,0.3c0,0.1-0.2,0.1-0.4,0.2v1.5h5.9l0.9-1l0.2-0.2
		c0,0,0.1,0,0.2,0.1l1.6,1.4c0,0,0.1,0.1,0.2,0.2c0.1,0.1,0,0.2-0.3,0.2h-8.6v2h3.8l0.5-0.7c0.1-0.1,0.1-0.1,0.2-0.2
		c0,0,0.1,0,0.3,0.1l1.9,1.2c0,0,0.1,0.1,0.1,0.1c0,0,0,0.1,0,0.1c0,0-0.1,0.1-0.2,0.2l-0.5,0.4v4l0.1,1.2c0,0.1-0.1,0.3-0.3,0.4
		c-0.1,0.2-0.5,0.2-1,0.3c-0.5,0-0.8,0-0.8-0.1c0-0.1-0.1-0.2-0.1-0.3v-0.3h-4v2.2h4.2l0.9-1c0.1-0.1,0.1-0.1,0.2-0.1l0.1,0.1
		l1.6,1.3c0.1,0.1,0.1,0.1,0.1,0.1c0,0.1-0.1,0.1-0.2,0.1h-1.6v0h-5.3V61h6l1.1-1.2c0.1-0.1,0.1-0.1,0.1-0.1c0,0,0,0,0.1,0.1
		l1.8,1.5c0.1,0.1,0.1,0.1,0.1,0.2c0,0.1-0.1,0.1-0.2,0.1h-1v0h-19c-0.2,0-0.3-0.1-0.3-0.3c0-0.2,0.1-0.3,0.3-0.3h9.1v-2.5h-7.1
		c-0.2,0-0.3-0.1-0.3-0.3c0-0.2,0.1-0.3,0.3-0.3h7.1v-2.2H176V56c0,0.3-0.2,0.4-0.7,0.5c-0.5,0.1-0.8,0.1-0.9,0.1
		c-0.1,0-0.2,0-0.3-0.1c0,0-0.1-0.1-0.1-0.3l0.1-2.2v-3.8l0-1.9c0,0,0,0,0.1,0c0,0,0.2,0.1,0.6,0.3l1.3,0.7h3.9v-2h-9.1
		c-0.2,0-0.3-0.1-0.3-0.3c0-0.2,0.1-0.3,0.3-0.3H179.9z"/>
	<path class="st1" d="M205.8,42.7l-0.3-0.3c-0.1-0.1-0.1-0.1-0.1-0.2c0-0.1,0.1-0.1,0.2-0.1c0.5,0,1.1,0.1,1.9,0.4
		c0.8,0.3,1.2,0.8,1.2,1.6c0,0.2-0.1,0.5-0.3,0.8c-0.2,0.3-0.5,0.5-1,0.5c-0.2,0-0.4,0-0.6-0.1c-0.2-0.1-0.3-0.2-0.4-0.4
		c-0.1-0.2-0.2-0.4-0.2-0.7v-0.6C206.2,43.2,206.1,42.9,205.8,42.7 M196.5,47.6l-0.3-0.4c0,0,0-0.1-0.1-0.2c0-0.1,0-0.1,0.1-0.1
		c0.1,0,0.4,0.1,0.9,0.4c0.5,0.2,0.8,0.6,1.1,1c0.3,0.4,0.4,0.8,0.4,1.1c0,0.4-0.1,0.7-0.4,0.9c-0.2,0.2-0.5,0.4-0.8,0.3
		c-0.3,0-0.6-0.1-0.7-0.3c-0.1-0.2-0.2-0.5-0.2-0.7c0-0.1,0-0.3,0-0.5c0-0.3,0-0.5,0-0.7C196.8,48.1,196.7,47.9,196.5,47.6z
		 M214.5,46L214.5,46l-12.9,0c0,0.9,0,1.8,0,2.8c0,0.9,0,1.9-0.1,2.8c0,0.9-0.1,1.8-0.2,2.8c-0.1,0.9-0.3,1.8-0.5,2.5
		c-0.2,0.7-0.6,1.4-1.1,2.2c-0.5,0.8-1.3,1.7-2.5,2.7l-0.6,0.5c-0.1,0.1-0.1,0.1-0.2,0.1c-0.1,0-0.1,0-0.1,0c0,0,0,0,0-0.1
		c0,0,0-0.1,0-0.1c0,0,0-0.1,0.1-0.2l0.6-0.7c0.7-0.9,1.3-1.7,1.7-2.7c0.4-0.9,0.6-1.7,0.7-2.4c0.1-0.7,0.2-1.5,0.3-2.4l0-1
		c-0.5,0.3-0.9,0.6-1.3,0.9c-0.4,0.3-0.6,0.4-0.7,0.5l-1.1,0.8c-0.2,0.1-0.3,0.2-0.4,0.2l-0.1-0.2l-0.5-1.4l-0.1-0.4v0c0,0,0,0,0,0
		c0,0,0.1,0,0.2-0.1l1.2-0.2c0.9-0.1,1.8-0.3,2.8-0.5c0-0.6,0-1.3,0-2c0-0.8,0-1.3,0-1.6c0-0.3,0-0.6,0-0.9c0-0.3,0-0.6,0-0.8
		l-0.1-1.6l-0.1-0.6c0-0.1,0.1-0.1,0.1-0.1c0.1,0,0.3,0,0.6,0.2l1.3,0.6h11.6l0.8-1.1c0.1-0.2,0.2-0.2,0.3-0.3
		c0.1,0,0.2,0.1,0.4,0.2l1.7,1.3c0.1,0.1,0.2,0.2,0.2,0.3c0,0.1-0.1,0.2-0.3,0.2H214.5z M207.1,54.3c0-0.1,0-0.2,0-0.3
		c0-0.1,0-0.4,0-0.9c0-0.5,0-1,0-1.4c0-0.4,0-0.8,0-1v-0.2h-2.1c-0.1,0.2-0.5,0.6-1,1.4c-0.5,0.7-1,1.3-1.5,1.8l-0.5,0.5
		c-0.1,0.1-0.1,0.1-0.2,0.1c-0.1,0-0.1,0-0.1,0c0,0,0,0,0-0.1s0-0.1,0.1-0.2l0.4-0.8c0.3-0.5,0.7-1.4,1.1-2.5c0.4-1.1,0.8-2.1,1-2.9
		l0.2-0.9l0.1-0.5c0-0.1,0-0.1,0.1-0.1l0.3,0.1l2,0.8c0.1,0.1,0.2,0.1,0.2,0.2c0,0.1-0.1,0.1-0.2,0.2l-0.4,0.2
		c-0.6,1.1-1,1.8-1.2,2.1h6.3l0.9-1.1c0.1-0.1,0.1-0.1,0.2-0.1c0.1,0,0.2,0,0.3,0.1l1.6,1.2c0.2,0.1,0.3,0.2,0.3,0.3
		c0,0.1-0.1,0.2-0.3,0.2h-1.6v0h-3.5c-0.1,0.2-0.3,0.3-0.5,0.4c0,0.4,0,0.8-0.1,1.4c0,0.5,0,0.9-0.1,1.2c0,0.3,0,0.6-0.1,1h4.1
		l0.8-1c0.1-0.2,0.2-0.3,0.3-0.3c0.1,0,0.2,0.1,0.4,0.3l1.4,1.1c0.1,0.1,0.1,0.1,0.2,0.2c0,0,0,0.1,0,0.1c0,0,0,0.1-0.1,0.1
		c-0.1,0-0.2,0.1-0.3,0.1h-1.4h-5.4c0.1,0.2,0.2,0.4,0.3,0.6l0.6,1c0.6,1,1.5,1.9,2.5,2.6c1,0.7,2.2,1.2,3.5,1.4l0.4,0.1
		c0.1,0,0.2,0.1,0.2,0.2c0,0,0,0.1-0.1,0.1c0,0-0.1,0.1-0.1,0.1l-0.4,0.1c-0.5,0.1-0.9,0.3-1.2,0.6c-0.2,0.3-0.4,0.5-0.5,0.7
		c-0.1,0.2-0.2,0.3-0.2,0.3c-0.1,0-0.3-0.1-0.8-0.4c-0.4-0.3-0.9-0.6-1.3-1c-0.5-0.4-0.8-0.8-1.1-1.1c-0.3-0.4-0.6-0.9-0.9-1.6
		c-0.3-0.7-0.7-1.8-1-3.2c-0.1,0.4-0.1,0.7-0.2,1c-0.1,0.3-0.2,0.7-0.3,1.1c-0.2,0.4-0.5,0.9-0.9,1.5c-0.5,0.6-1,1.1-1.6,1.4
		c-0.6,0.4-1.4,0.8-2.3,1.3c-1,0.4-1.8,0.7-2.5,0.9l-0.8,0.2c0,0-0.1,0-0.2,0c-0.1,0-0.1,0-0.1,0c0,0-0.1,0,0-0.1c0,0,0-0.1,0.1-0.1
		c0-0.1,0.1-0.1,0.2-0.1l0.9-0.3c0.3-0.1,0.7-0.3,1.2-0.6c0.5-0.3,1.3-0.8,2.3-1.5c1-0.7,1.6-1.6,1.9-2.6c0.3-1,0.4-1.8,0.5-2.3H202
		c-0.2,0-0.3-0.1-0.3-0.3c0-0.2,0.1-0.3,0.3-0.3H207.1z"/>
	<path class="st1" d="M233.1,42.4c0,0,0-0.1,0-0.1c0-0.1,0.1-0.1,0.2-0.1c0,0,0.2,0,0.5,0.1c0.3,0,0.8,0.2,1.6,0.6
		c0.7,0.4,1.1,0.8,1.1,1.3c0,0.5-0.1,0.9-0.3,1.1c-0.2,0.3-0.5,0.4-0.9,0.4c-0.5,0-0.8-0.1-0.9-0.4c-0.1-0.3-0.2-0.5-0.3-0.8
		c0-0.3-0.1-0.6-0.1-0.8c0-0.2-0.1-0.4-0.3-0.6l-0.4-0.4C233.2,42.5,233.1,42.5,233.1,42.4 M231.7,47.4c0.1,0,0.4,0.1,0.7,0.4
		l0.8,0.5c0.8,0.5,1.2,1.2,1.2,1.8c0,0.3-0.1,0.6-0.3,0.8c-0.2,0.2-0.5,0.4-0.8,0.4c-0.4,0-0.6-0.2-0.8-0.5
		c-0.1-0.1-0.1-0.4-0.2-0.7v-0.6c0-0.4-0.1-0.7-0.2-1c-0.1-0.3-0.2-0.5-0.4-0.7c-0.1-0.2-0.2-0.3-0.2-0.3c0,0,0-0.1,0-0.1
		C231.6,47.4,231.6,47.4,231.7,47.4z M226.3,47.5c0,0.7,0,1.2,0,1.5c0,0.3,0,0.6,0,0.7l0,2.9c0,0.4,0,1,0,1.9c0,0.9-0.1,1.4-0.1,1.7
		L226,57c1.5,0.3,2.5,0.7,3,1.3c0.5,0.6,0.8,1.1,0.8,1.6c0,0.3-0.1,0.6-0.3,0.8c-0.2,0.2-0.5,0.4-0.9,0.4c-0.2,0-0.3,0-0.5-0.1
		c-0.1-0.1-0.2-0.2-0.3-0.3c-0.1-0.1-0.2-0.3-0.2-0.5l-0.2-0.7c-0.2-1-0.7-1.7-1.5-2.2c-0.1,0.3-0.2,0.6-0.4,1.1
		c-0.2,0.5-0.7,1.1-1.4,1.8c-0.7,0.7-1.4,1.3-2.1,1.8l-0.5,0.3c-0.1,0.1-0.2,0.1-0.2,0.1c-0.1,0-0.1,0-0.1,0c0,0,0-0.1,0-0.1
		c0-0.1,0-0.1,0.1-0.2l0.5-0.4c0.3-0.3,0.8-0.7,1.3-1.4c0.5-0.6,0.9-1.3,1.2-2.1c0.2-0.7,0.4-1.3,0.4-1.8c0.1-0.5,0.1-1.2,0.2-2.3
		c0-1,0.1-1.9,0.1-2.7l-0.1-2.7l0-1.1l-0.1-1.1c0-0.1,0-0.1,0.1-0.1l0.4,0.1l1.5,0.3c0.1,0,0.1,0,0.2,0.1c0.1,0,0.1,0.1,0.1,0.1
		c0,0,0,0.1-0.1,0.2L226.3,47.5z M227.4,44.6h-3.6l0,10.9l0,1c0,0.1-0.1,0.2-0.2,0.4c-0.1,0.1-0.4,0.2-0.8,0.2c-0.4,0-0.6,0-0.7-0.1
		c-0.1-0.1-0.1-0.2-0.1-0.3l0.1-2v-9.2l-0.1-2.3c0,0,0,0,0.1-0.1l0.3,0.2l1.5,0.7h3.4l0.5-0.6c0.2-0.2,0.2-0.3,0.2-0.3c0,0,0,0,0,0
		l0.2,0.1l1.3,0.9c0.2,0.1,0.2,0.2,0.2,0.3c0,0.1-0.1,0.1-0.1,0.2l-0.5,0.4l0,9l0.1,2c-0.1,0.4-0.4,0.6-0.9,0.6
		c-0.5,0-0.8,0-0.8-0.1c0-0.1-0.1-0.1-0.1-0.2l0-1.2V44.6z M237.9,59.7l0-4.4h-5.1v4.4H237.9z M237.9,54.7l0.6-0.7
		c0.1-0.1,0.2-0.2,0.2-0.2c0,0,0.1,0.1,0.2,0.1l1.5,1c0.2,0.1,0.3,0.2,0.3,0.3c0,0.1-0.1,0.1-0.1,0.2l-0.6,0.5v3.4l0.1,1.9
		c-0.2,0.4-0.6,0.6-1.5,0.6c-0.3,0-0.5,0-0.5-0.1c0-0.1-0.1-0.2-0.1-0.3v-0.2l0-0.9h-5.1v1.2c0,0.3-0.1,0.5-0.3,0.5
		c-0.2,0.1-0.5,0.1-0.9,0.1c-0.3,0-0.5,0-0.6-0.1c-0.1-0.1-0.1-0.1-0.1-0.2l0.1-1.6v-4.5l-0.1-1.8c0,0,0,0,0-0.1c0,0,0.1,0,0.3,0.1
		l1.6,0.7H237.9z M238.1,46.1l0.9-1.2c0.1-0.1,0.1-0.2,0.2-0.2c0,0,0.1,0,0.2,0.1l1.6,1.5c0.2,0.2,0.2,0.3,0.2,0.4
		c0,0.1-0.1,0.1-0.2,0.1h-1.4v0h-9.6c-0.2,0-0.3-0.1-0.3-0.3c0-0.2,0.1-0.3,0.3-0.3H238.1z M236.2,51.5c0.2-0.7,0.4-1.4,0.6-2.1
		c0.2-0.7,0.3-1.2,0.3-1.5l0.1-0.7l0.1-0.5c0.1,0,0.2,0,0.4,0.1l1.9,0.9c0,0,0,0,0,0.1c0,0.1,0,0.1-0.1,0.1l-0.6,0.4
		c-0.8,1.4-1.6,2.4-2.1,3.2h1.9l0.8-1c0.2-0.2,0.3-0.3,0.3-0.3c0,0,0.1,0.1,0.2,0.1l1.5,1.4c0.1,0.1,0.2,0.2,0.2,0.3
		c0,0.1-0.1,0.1-0.2,0.1h-2.1v0h-9.6c-0.2,0-0.3-0.1-0.3-0.3c0-0.2,0.1-0.3,0.3-0.3H236.2z"/>
	<path class="st1" d="M251.5,47.7l1.4,0.6c0,0,0.1,0.1,0.1,0.1c0,0.1,0.1,0.1,0.1,0.1c0,0-0.1,0.1-0.2,0.2l-0.7,0.5v10.2l0.1,2.2
		c-0.1,0.2-0.1,0.3-0.2,0.4c-0.1,0.1-0.3,0.2-0.7,0.2c-0.4,0.1-0.6,0.1-0.7,0.1c-0.2,0-0.3,0-0.3-0.1c0-0.1-0.1-0.2-0.1-0.3l0.1-2.8
		v-9.8c-0.7,0.9-1.3,1.6-1.8,2.1c-0.5,0.5-0.9,1-1.3,1.3l-0.6,0.5c-0.1,0.1-0.1,0.1-0.2,0.1c-0.1,0-0.1,0-0.1-0.1
		c0-0.1,0-0.1,0.1-0.2l0.6-0.8c1-1.4,1.9-3.2,2.8-5.2c0.9-2,1.4-3.3,1.6-3.9l0.3-1l0-0.2c0,0,0,0,0,0l0.2,0.1l2.5,1.1
		c0.1,0.1,0.2,0.1,0.2,0.2c0,0.1-0.1,0.1-0.2,0.2l-0.7,0.5C253,45.3,252.3,46.5,251.5,47.7 M254.9,51.1
		C254.9,51.1,254.9,51.1,254.9,51.1c0.1,0,0.2,0,0.4,0.1l0.8,0.4c0.8,0.4,1.4,0.9,1.9,1.4c0.4,0.5,0.6,1.2,0.6,2
		c-0.1,0.8-0.5,1.2-1.4,1.1c-0.5,0-0.9-0.2-1-0.6c-0.1-0.4-0.2-0.8-0.2-1.4c0-0.6-0.1-1-0.3-1.5c-0.2-0.4-0.4-0.7-0.6-0.9
		c-0.2-0.2-0.3-0.3-0.3-0.4C254.7,51.2,254.8,51.1,254.9,51.1z M260.9,48.4V45l-0.1-2.9c0.1,0,0.1-0.1,0.2-0.1l0.5,0.1l2.2,0.6
		c0.1,0,0.1,0.1,0.1,0.1c0,0,0.1,0.1,0.1,0.1c0,0,0,0.1,0,0.1l-0.2,0.2l-0.6,0.6v4.6h0.9l1.1-1.3c0.1-0.2,0.2-0.2,0.3-0.2
		c0.1,0,0.2,0.1,0.3,0.2l1.5,1.6c0.1,0.2,0.2,0.3,0.2,0.3c0,0.1-0.1,0.1-0.3,0.1h-4v11.8c0,0.6-0.3,1.1-0.9,1.3
		c-0.6,0.2-1.1,0.4-1.4,0.4l-0.5,0.1c-0.1,0-0.2,0-0.3,0l-0.1-0.2l-0.2-0.4c-0.3-0.5-0.6-0.9-1.2-1.1l-0.8-0.3
		c-0.1,0-0.2-0.1-0.2-0.2c0,0,0-0.1,0.1-0.1c0,0,0.1-0.1,0.1-0.1l1.3,0.1c0.3,0,0.7,0,1.1,0c0.4,0,0.7-0.1,0.7-0.2
		c0-0.1,0.1-0.3,0.1-0.6V49h-7.3l-0.2-0.1l0-0.2c0-0.2,0.1-0.3,0.2-0.3H260.9z"/>
	<path class="st1" d="M277,49.1h11.8l0.6-0.8c0.3-0.4,0.5-0.6,0.6-0.6c0.1,0,0.2,0.1,0.4,0.2l1.3,1.1c0.3,0.2,0.4,0.4,0.4,0.5
		c0,0.1-0.1,0.2-0.4,0.2h-1H277c0,0.2,0,0.4,0,0.5c0,0.1,0,0.5,0,1.2c0,0.7-0.1,1.6-0.2,2.8c-0.1,1.1-0.4,2.2-0.8,3.2
		c-0.4,1-0.9,1.8-1.4,2.5c-0.5,0.7-0.9,1.2-1.1,1.5l-0.5,0.6c-0.3,0.3-0.5,0.5-0.6,0.5c-0.1,0-0.1,0-0.1-0.1c0-0.1,0-0.1,0-0.2
		l0.3-0.5l0.4-0.8c0.3-0.6,0.6-1.2,0.9-2c0.3-0.7,0.5-1.7,0.7-2.8c0.2-1.1,0.3-2.1,0.3-2.9c0-0.8,0-1.6,0-2.3c0-1.1,0-2,0-2.7
		c0-0.7,0-1.4-0.1-2l-0.1-2.2c0,0,0,0,0,0c0,0,0-0.1,0-0.1c0,0,0,0,0,0c0,0,0.1,0,0.3,0.1l1.8,0.7c1.5-0.1,3.3-0.4,5.4-0.9
		c2.1-0.5,3.6-0.9,4.3-1.1l0.9-0.4l0.1-0.1c0,0,0.2,0.1,0.3,0.2l1.7,1.6c0.2,0.1,0.2,0.3,0.2,0.3c0,0.1,0,0.1-0.1,0.1l-1.4,0.1
		c-4.2,0.3-8,0.5-11.5,0.6V49.1z M287.7,59.7v-5.6h-7.2v5.6H287.7z M280.5,60.3v1.6c0,0.4-0.4,0.7-1.3,0.7c-0.3,0-0.5,0-0.6-0.1
		c-0.1-0.1-0.1-0.2-0.1-0.3l0.1-2.4V55l-0.1-2.3c0.1-0.1,0.1-0.1,0.2-0.1c0,0,0.1,0,0.3,0.1l1.5,0.8h7.1L288,53
		c0.2-0.3,0.4-0.4,0.5-0.4c0.1,0,0.3,0.1,0.5,0.2l0.8,0.6c0.3,0.2,0.4,0.3,0.5,0.4c0.1,0.1,0.1,0.1,0.1,0.2c0,0.1-0.1,0.2-0.3,0.3
		l-0.4,0.4V59l0.1,2.5c-0.1,0.1-0.1,0.3-0.2,0.3c-0.1,0.1-0.2,0.1-0.5,0.2c-0.2,0.1-0.5,0.1-0.7,0.1c-0.4,0-0.7-0.1-0.7-0.4v-1.4
		H280.5z"/>
	<path class="st1" d="M300.5,62.1l0.4-0.4c0.1,0,0.2-0.2,0.4-0.4c0.2-0.2,0.3-0.4,0.4-0.5c0.1-0.1,0.2-0.3,0.3-0.6
		c0.1-0.3,0.2-0.6,0.1-0.7c-0.1-0.1-0.1-0.2-0.2-0.3c0,0-0.1,0-0.3,0.1c-0.1,0-0.3,0.1-0.4,0.1c-0.4,0-0.7-0.1-1-0.4
		c-0.2-0.3-0.4-0.6-0.4-1c0-0.4,0.1-0.8,0.4-1.1c0.3-0.3,0.7-0.4,1.1-0.4c0.6,0,1,0.2,1.3,0.6c0.3,0.4,0.5,0.8,0.5,1.2
		c0.1,0.4,0,0.8,0,1.2c-0.1,0.6-0.3,1.1-0.6,1.5c-0.3,0.4-0.5,0.7-0.8,0.9c-0.2,0.2-0.5,0.4-0.7,0.6c-0.2,0.2-0.4,0.3-0.6,0.2
		c-0.1,0-0.2-0.1-0.2-0.2C300.3,62.3,300.4,62.2,300.5,62.1"/>
	<path class="st1" d="M326.6,47.6l0.9,0.4c0.1,0,0.1,0.1,0.1,0.1c0,0,0.1,0.1,0.1,0.1c0,0-0.1,0.1-0.1,0.2l-0.4,0.4v11.1l0.1,2.1
		c0,0.1-0.1,0.2-0.2,0.3c-0.1,0.1-0.3,0.1-0.6,0.2c-0.3,0.1-0.5,0.1-0.8,0.1c-0.1,0-0.2,0-0.3-0.1c0,0-0.1-0.1-0.1-0.2l0.1-2.7v-9.9
		c-0.9,1.3-1.6,2.3-2.2,3l-0.7,0.8c-0.1,0.1-0.1,0.1-0.2,0.1c-0.1,0-0.1,0-0.1-0.1c0-0.1,0-0.1,0-0.2l0.4-0.8c0.6-1.1,1.3-2.5,2-4.4
		c0.7-1.9,1.3-3.5,1.6-4.7l0.3-1.2l0.1-0.3c0,0,0,0,0,0l0.2,0.1l2.3,0.9c0.2,0.1,0.3,0.1,0.2,0.2c0,0.1,0,0.1-0.1,0.2l-0.5,0.2
		c-0.7,1.3-1.1,2.1-1.2,2.4L326.6,47.6z M337.8,48.6v-4.3H332v4.3H337.8z M335.7,52.8h4l1.1-1.3c0.1-0.1,0.1-0.1,0.1-0.1
		c0,0,0.1,0,0.2,0.2L343,53c0,0,0,0.1,0.1,0.1c0,0,0,0.1,0,0.1c0,0.1-0.1,0.1-0.2,0.1h-0.6h-6.1c0.4,0.8,0.8,1.4,1.1,1.8
		c0.3,0.4,0.8,1,1.6,1.6c0.7,0.6,1.5,1.1,2.2,1.5c0.7,0.3,1.3,0.6,1.7,0.7l0.6,0.1c0.1,0,0.1,0.1,0.1,0.2c0,0.1,0,0.1-0.1,0.2
		l-0.7,0.2c-0.5,0.1-1,0.4-1.3,0.6l-0.4,0.4c-0.1,0.1-0.2,0.2-0.2,0.1c0,0-0.1-0.1-0.2-0.1l-0.6-0.4c-0.5-0.3-1-0.8-1.6-1.4
		c-0.6-0.6-1-1.2-1.4-2c-0.4-0.7-0.8-1.9-1.3-3.5h0v6.5l0.1,2c0,0.1-0.1,0.2-0.1,0.3c-0.1,0.1-0.3,0.2-0.7,0.3
		c-0.4,0.1-0.7,0.1-0.9,0.1c-0.2,0-0.3,0-0.3-0.1c0-0.1-0.1-0.1-0.1-0.2l0.1-2.7v-3.9c-0.4,0.4-0.9,0.9-1.5,1.5
		c-0.6,0.6-1.3,1.2-2.3,1.8c-0.9,0.7-1.5,1.1-1.7,1.2l-0.6,0.4c-0.1,0-0.1,0.1-0.2,0.1c0,0-0.1,0-0.1,0c0,0,0,0,0-0.1
		c0-0.1,0-0.1,0.1-0.2l0.6-0.5c0.2-0.1,0.5-0.5,1.1-1.2c0.6-0.6,1.1-1.3,1.7-2.1c0.5-0.7,1-1.4,1.3-2c0.3-0.6,0.5-1,0.6-1.2h-5
		c-0.2,0-0.3-0.1-0.3-0.3c0-0.2,0.1-0.3,0.3-0.3h6v-1.6l-0.1-2H332v0.9c0,0.2-0.2,0.4-0.6,0.5c-0.4,0.1-0.7,0.2-0.9,0.1
		c-0.2,0-0.3,0-0.3-0.1c0-0.1-0.1-0.2-0.1-0.3l0.1-2V45l-0.1-2.1c0,0,0-0.1,0.1-0.1c0,0,0.2,0.1,0.4,0.2l1.5,0.7h5.5l0.7-0.8
		c0.1-0.1,0.2-0.2,0.2-0.2s0.1,0,0.2,0.1l1.5,1l0.2,0.2c0,0,0.1,0.1,0.1,0.1c0,0,0,0,0,0.1c0,0,0,0.1-0.1,0.1l-0.7,0.5v3.5l0.1,1.5
		c0,0.1-0.1,0.2-0.2,0.3c-0.1,0.1-0.3,0.2-0.6,0.3c-0.3,0.1-0.6,0.1-0.8,0.1c-0.3,0-0.4-0.1-0.4-0.4v-0.9h-3.9l2.2,0.7
		c0.1,0,0.1,0.1,0.2,0.1c0,0,0.1,0.1,0.1,0.1c0,0,0,0.1-0.1,0.2l-0.5,0.4V52.8z"/>
	<path class="st1" d="M352.3,44.4h-2v15.1l0.1,2.1c0,0.2-0.1,0.4-0.3,0.6c-0.1,0.2-0.4,0.3-0.9,0.3c-0.4,0-0.7,0-0.8-0.1
		c-0.1-0.1-0.1-0.2-0.2-0.3l0.1-3.4V45.9l-0.1-3c0,0,0.1,0,0.1,0c0,0,0.2,0,0.4,0.1l1.8,0.8h1.6l0.5-0.7c0.1-0.1,0.1-0.2,0.2-0.2
		c0,0,0.2,0,0.3,0.1l1.5,1c0.2,0.1,0.3,0.2,0.3,0.3c0,0.1-0.1,0.1-0.2,0.2l-0.5,0.4c-0.6,1.4-1.2,2.8-1.9,4.3c0.9,1,1.5,1.8,1.8,2.6
		c0.4,0.7,0.5,1.4,0.6,2.1c0,0.7-0.1,1.2-0.2,1.6c-0.2,0.5-0.5,0.9-0.8,1.1c-0.3,0.2-0.6,0.4-0.9,0.5c-0.3,0.1-0.5,0.2-0.7,0.2
		c-0.1,0-0.1,0-0.2,0c0,0-0.1-0.1-0.1-0.3c0-0.2-0.1-0.4-0.2-0.6c-0.1-0.2-0.2-0.4-0.4-0.5l-0.5-0.3c-0.1,0-0.1-0.1-0.1-0.2
		c0-0.1,0.1-0.1,0.2-0.1h0.7c0.3,0,0.6-0.1,0.7-0.2c0.2-0.1,0.3-0.3,0.4-0.4c0.1-0.2,0.2-0.4,0.2-0.6c0.1-0.3,0.1-0.6,0.1-1.1
		c0-0.5-0.1-1-0.3-1.6c-0.2-0.5-0.3-0.9-0.5-1.1l-0.5-0.7c0.3-1.5,0.4-2.7,0.5-3.5c0.1-0.8,0.1-1.2,0.1-1.2L352.3,44.4z M354.7,45.7
		c-0.1,0-0.2,0-0.2-0.1c0,0-0.1-0.1-0.1-0.3c0-0.2,0.1-0.2,0.3-0.2h5.5c-0.2-0.1-0.3-0.2-0.4-0.3c-0.1-0.1-0.2-0.3-0.2-0.6l0-0.6
		c0-0.4-0.1-0.7-0.3-0.9l-0.4-0.5c-0.1-0.1-0.1-0.1-0.1-0.2c0-0.1,0.1-0.1,0.3-0.1c0.3,0,0.6,0.1,1,0.2c0.3,0.1,0.7,0.3,1.1,0.5
		c0.4,0.2,0.6,0.6,0.6,1.3c0,0.3-0.1,0.5-0.2,0.7c-0.1,0.2-0.3,0.3-0.5,0.4h3.9l0.8-1c0.1-0.1,0.2-0.2,0.2-0.2
		c0.1,0,0.2,0.1,0.3,0.2l1.1,1c0.2,0.2,0.2,0.3,0.2,0.3c0,0,0,0.1-0.1,0.1c0,0-0.1,0.1-0.2,0.1h-4.3l1.5,0.8
		c0.1,0.1,0.2,0.1,0.2,0.2c0.1,0.1,0.1,0.1,0.1,0.2c0,0.1-0.1,0.2-0.3,0.2l-0.5,0.1l-1.3,1.6h3.1l0.8-0.9c0.1-0.1,0.2-0.2,0.3-0.2
		c0,0,0.1,0,0.2,0.1c0.1,0.1,0.2,0.1,0.2,0.1l1.1,1c0.1,0.1,0.2,0.2,0.2,0.3c0,0.1-0.1,0.2-0.3,0.2h-14.4l-0.1,0
		c-0.1,0-0.2,0-0.2-0.1c0,0-0.1-0.1-0.1-0.3c0-0.2,0.1-0.2,0.3-0.2h4c-0.1-0.1-0.2-0.2-0.2-0.3c0-0.1-0.1-0.2-0.1-0.3
		c0-0.1,0-0.2,0-0.3c0-0.2,0-0.4,0-0.6c0-0.2,0-0.4,0-0.5c0-0.1,0-0.2-0.1-0.3l-0.2-0.5c0,0,0-0.1,0-0.1c0-0.1,0-0.1,0-0.1
		c0,0,0.1,0,0.1,0c0.3,0,0.7,0.2,1,0.4c0.3,0.3,0.6,0.5,0.8,0.8c0.2,0.2,0.3,0.5,0.3,0.8c0,0.4-0.2,0.7-0.6,0.9h2.9l0.8-3.1h-7.8
		L354.7,45.7z M363.8,53.3v-1.4h-6.1v1.4H363.8z M357.7,53.9v1.4h6.1v-1.4H357.7z M359.7,57.8V56h-2v0.3c0,0.2-0.2,0.3-0.5,0.4
		c-0.3,0.1-0.6,0.1-0.9,0.1c-0.3,0-0.4,0-0.5-0.1c-0.1-0.1-0.1-0.2-0.1-0.3l0.1-1.6v-2.9l-0.1-1.4c0,0,0.1,0,0.1,0
		c0,0,0.2,0,0.4,0.2l1.3,0.7h6l0.5-0.7c0.1-0.1,0.2-0.2,0.2-0.2c0.1,0,0.2,0,0.3,0.1l1.5,1c0.1,0.1,0.1,0.1,0.2,0.2c0,0,0,0.1,0,0.1
		c0,0,0,0.1-0.1,0.1c0,0.1-0.1,0.1-0.1,0.2l-0.4,0.3V55l0,1c-0.1,0.2-0.3,0.4-0.6,0.5c-0.3,0.1-0.6,0.2-0.9,0.1
		c-0.4,0-0.5-0.1-0.5-0.3V56H362c-0.1,0.2-0.3,0.3-0.4,0.4v1.4h4l0.9-1c0.1-0.1,0.2-0.2,0.3-0.2c0.1,0,0.2,0.1,0.4,0.2l1.1,1
		c0.2,0.2,0.3,0.3,0.3,0.4c0,0,0,0.1-0.1,0.1c-0.1,0-0.2,0.1-0.3,0.1h-6.5v2.3l0.1,1.5c-0.1,0.2-0.3,0.4-0.5,0.5
		c-0.3,0.1-0.5,0.2-0.8,0.2c-0.3,0-0.5,0-0.6-0.1c-0.1-0.1-0.2-0.2-0.2-0.3l0.1-2.1v-2h-6.4h-0.1c-0.1,0-0.1,0-0.2-0.1
		c0,0-0.1-0.1-0.1-0.3c0-0.2,0.1-0.2,0.3-0.2H359.7z"/>
	<path class="st1" d="M377.9,47.3l0.8,0.5c0.2,0.1,0.3,0.2,0.3,0.2c0,0.1-0.1,0.1-0.1,0.2l-0.4,0.5v11.1l0.1,2.1
		c0,0.1-0.1,0.3-0.2,0.3c-0.1,0.1-0.3,0.2-0.6,0.2c-0.3,0.1-0.6,0.1-0.8,0.1c-0.2,0-0.3,0-0.3-0.1c0,0-0.1-0.1-0.1-0.3l0.1-2.7
		l0-10.4c-1.5,1.9-2.4,2.9-2.6,3.1l-0.6,0.6c-0.2,0.2-0.3,0.2-0.3,0.1c0-0.2,0-0.3,0.1-0.4l0.4-0.7c0.6-0.9,1.4-2.5,2.3-4.5
		c0.9-2.1,1.5-3.5,1.8-4.2l0.3-0.9c0.1-0.2,0.1-0.2,0.2-0.3c0,0,0.2,0,0.5,0.1l2.1,0.9c0.1,0.1,0.2,0.1,0.2,0.2
		c0,0.1-0.1,0.1-0.2,0.2l-0.5,0.3c-0.5,0.9-0.8,1.4-0.9,1.6L377.9,47.3z M387.1,45c0,0.3-0.1,0.6-0.3,0.9c-0.2,0.3-0.5,0.5-1,0.5
		c-0.5,0-0.8-0.1-1-0.3c-0.2-0.2-0.3-0.5-0.3-0.8v-0.7c0-0.3-0.1-0.5-0.2-0.8c-0.1-0.3-0.2-0.5-0.3-0.7c-0.1-0.2-0.2-0.3-0.2-0.4
		l-0.2-0.2c0,0-0.1-0.1-0.1-0.2c0-0.1,0.1-0.1,0.2-0.1c0,0,0.3,0.1,0.6,0.2c0.4,0.1,0.9,0.4,1.5,0.8C386.7,43.5,387,44.1,387.1,45z
		 M389.8,46.6l1.3-1.5c0.1-0.1,0.2-0.2,0.2-0.2c0,0,0.1,0.1,0.2,0.2l1.9,1.7c0.1,0.1,0.1,0.2,0.1,0.2c0,0.1-0.1,0.1-0.3,0.1h-6.3
		c0.2,0.1,0.3,0.1,0.3,0.2c0,0.1-0.1,0.1-0.1,0.2l-0.5,0.3c0,0.3,0.1,0.6,0.1,1c0.1,0.4,0.2,1,0.4,1.8c0.2,0.8,0.4,1.3,0.5,1.6
		l0.3,0.7c1.1-1.3,1.8-2.3,2.1-2.8l0.4-0.7l0.2-0.3c0,0,0,0,0,0l0.3,0.2l1.8,1.3c0.1,0,0.1,0.1,0.1,0.1c0,0,0,0.1,0,0.1
		c0,0,0,0.1-0.2,0.1l-0.6,0.1c-1.3,0.9-2.6,1.7-3.8,2.5c0.2,0.4,0.5,1,0.8,1.5c0.3,0.6,0.9,1.4,1.9,2.5c1,1.1,1.8,1.8,2.5,2.1
		l0.7,0.3c0.1,0,0.1,0.1,0.1,0.1c0,0.1-0.1,0.2-0.3,0.2l-0.6,0.1c-0.5,0.1-1,0.3-1.5,0.7l-0.4,0.3c-0.1,0.1-0.2,0.1-0.2,0.1
		c0,0-0.1-0.1-0.2-0.1l-0.5-0.4c-0.2-0.2-0.6-0.6-1.2-1.3c-0.6-0.7-1.1-1.5-1.6-2.5c-0.5-1-0.8-2.1-1.2-3.4c-0.3-1.3-0.5-2.6-0.6-4
		l-0.1-1.2c-0.8,1.1-1.6,2.2-2.5,3.3l0.8,0.5c0.1,0,0.1,0.1,0.1,0.2c0,0.1,0,0.1-0.1,0.2l-0.5,0.3v6.1c0.7-0.3,1.2-0.6,1.6-0.8
		l1.6-0.8l0.6-0.3c0.1,0,0.1,0,0.2,0c0,0,0.1,0.1,0,0.1c0,0.1,0,0.1-0.1,0.1l-0.5,0.4c-2.1,1.8-3.2,2.9-3.4,3.1l-0.7,0.7l-0.3,0.4
		c-0.1,0.1-0.2,0.1-0.3,0.1s-0.2-0.2-0.4-0.5l-0.7-1.2c-0.1-0.2-0.1-0.3,0-0.5l0.2-0.3c0.1-0.1,0.1-0.2,0.1-0.4c0-0.2,0-0.4,0-0.5
		v-5.2c-0.8,0.8-1.5,1.4-2,1.9l-0.8,0.7c-0.1,0.1-0.2,0.1-0.3,0.1c0-0.1-0.1-0.1-0.1-0.1c0,0,0-0.1,0-0.1c0-0.1,0-0.1,0.1-0.1
		l0.6-0.9c0.5-0.6,1.1-1.5,1.9-2.7c0.8-1.1,1.7-2.8,2.8-5.2h-4.4c-0.2,0-0.3-0.1-0.2-0.3c0-0.2,0.1-0.3,0.2-0.3H389.8z"/>
	<path class="st1" d="M413.4,57.5c-0.1-0.1-0.1-0.1-0.1-0.2c0,0,0.1-0.1,0.2-0.1c0.1,0,0.2,0,0.4,0.1c0,0,0.2,0.1,0.4,0.2
		c0.2,0.1,0.7,0.4,1.5,0.9c0.8,0.5,1.3,1,1.5,1.4c0.2,0.5,0.3,0.8,0.3,1.1c0,0.4-0.1,0.7-0.4,1c-0.2,0.3-0.5,0.4-0.9,0.4
		c-0.3,0-0.6-0.1-0.8-0.3c-0.2-0.2-0.4-0.6-0.5-1.1c-0.1-0.5-0.2-1-0.3-1.5C414.5,58.8,414.1,58.2,413.4,57.5 M409.2,57.4
		C409.2,57.4,409.2,57.4,409.2,57.4c0-0.1,0-0.2,0.1-0.2c0.1,0,0.5,0.2,1.1,0.6c0.6,0.4,1.1,0.8,1.3,1.2c0.3,0.4,0.4,0.8,0.4,1.2
		c0,0.2-0.1,0.4-0.2,0.7c-0.1,0.2-0.3,0.4-0.5,0.5c-0.2,0.1-0.4,0.2-0.6,0.2c-0.4,0-0.7-0.1-0.8-0.4c-0.2-0.3-0.2-0.6-0.3-0.9l0-1.1
		c0-0.6-0.2-1.1-0.5-1.6L409.2,57.4z M404.9,57.6c0,0,0-0.1,0-0.1c0,0,0.1,0,0.3,0.1c0.1,0.1,0.3,0.3,0.6,0.6
		c0.3,0.3,0.6,0.6,0.9,1.1c0.3,0.4,0.5,0.9,0.5,1.3c0,0.1,0,0.3-0.1,0.5c-0.1,0.2-0.2,0.4-0.4,0.6c-0.2,0.2-0.5,0.3-0.8,0.3
		c-0.3,0-0.6-0.1-0.8-0.3c-0.2-0.2-0.3-0.4-0.3-0.6c0-0.2,0-0.4,0.1-0.8c0.1-0.3,0.2-0.6,0.2-0.8c0-0.2,0-0.3,0-0.4
		c0-0.1,0-0.2,0-0.3c0-0.2-0.1-0.5-0.2-0.8L404.9,57.6z M401.6,57.4c0-0.1,0.1-0.1,0.1-0.1c0,0,0.1,0,0.1,0.1
		c0.1,0.1,0.1,0.2,0.1,0.4l0.2,1.2c0.1,0.3,0.1,0.6,0.1,0.9c0,0.2,0,0.5-0.1,0.8c-0.1,0.4-0.3,0.8-0.6,1.2c-0.4,0.4-0.8,0.6-1.3,0.6
		c-0.5,0-0.9-0.2-1-0.5c-0.2-0.3-0.2-0.6-0.2-0.7c0-0.1,0-0.2,0.1-0.3c0-0.1,0.1-0.2,0.2-0.3c0.1-0.1,0.4-0.3,0.8-0.6
		c0.5-0.3,0.8-0.7,1-1.1c0.2-0.4,0.3-0.8,0.4-1.1L401.6,57.4z M412.8,44.8c0,0,0,0,0-0.1c0-0.1,0-0.1,0.1-0.1c0.1,0,0.4,0.1,0.7,0.2
		c0.3,0.1,0.6,0.2,0.7,0.3c0.1,0.1,0.3,0.2,0.6,0.4c0.3,0.2,0.5,0.4,0.7,0.6c0.2,0.2,0.2,0.5,0.2,0.8c0,0.4-0.1,0.8-0.4,1
		c-0.2,0.2-0.5,0.3-0.8,0.3c-0.1,0-0.3,0-0.5-0.1c-0.2-0.1-0.4-0.3-0.4-0.5c-0.1-0.2-0.1-0.5-0.1-0.9c0-0.4-0.1-0.7-0.2-0.9
		c-0.1-0.2-0.2-0.4-0.4-0.6L412.8,44.8z M402.2,48.3c0-0.1,0.1-0.2,0.3-0.2c0.2,0,0.4,0,0.7,0.1c0.3,0.1,0.5,0.2,0.7,0.3
		c0.2,0.1,0.3,0.3,0.4,0.5c0.1,0.2,0.1,0.4,0.1,0.5c0,0.1,0,0.3-0.1,0.4c-0.1,0.2-0.2,0.3-0.4,0.4c-0.2,0.1-0.3,0.1-0.4,0.1
		c-0.4,0-0.6-0.1-0.7-0.3c-0.1-0.2-0.1-0.5-0.1-0.8c0-0.3-0.1-0.6-0.3-0.9L402.2,48.3z M400.8,51.1
		C400.7,51.1,400.7,51.1,400.8,51.1c0-0.1,0-0.1,0-0.2c0,0,0.1,0,0.2,0c0.1,0,0.5,0.1,1,0.2c0.5,0.1,0.9,0.4,1,0.7
		c0.1,0.3,0.2,0.5,0.2,0.6c0,0.1-0.1,0.4-0.2,0.6c-0.1,0.3-0.4,0.4-0.8,0.4c-0.2,0-0.4-0.1-0.5-0.2c-0.1-0.1-0.2-0.3-0.3-0.6l0-0.5
		c0-0.3-0.1-0.6-0.3-0.8L400.8,51.1z M402.8,46.7c-0.2,0.4-0.4,0.9-0.8,1.6c-0.4,0.7-0.7,1.3-0.9,1.6c-0.2,0.4-0.6,0.8-0.9,1.4
		c-0.4,0.5-0.6,0.9-0.7,1l-0.3,0.4c-0.1,0.1-0.2,0.2-0.3,0.2c0,0,0,0-0.1,0c0,0,0,0,0-0.1c0,0,0-0.1,0.1-0.3l0.3-0.5
		c0.1-0.2,0.3-0.6,0.6-1.3c0.3-0.7,0.6-1.5,0.8-2.3c0.2-0.8,0.5-1.8,0.7-2.8c0.2-1,0.4-1.8,0.4-2.5l0-0.6c0-0.2,0-0.3,0.1-0.4
		c0,0,0.1,0,0.2,0l2.3,0.8c0.1,0,0.2,0.1,0.2,0.1c0,0,0.1,0.1,0,0.1c0,0.1,0,0.1-0.1,0.2l-0.5,0.3c-0.3,0.8-0.6,1.6-0.9,2.4h2.3
		l0.5-0.7c0.1-0.2,0.2-0.3,0.2-0.3c0,0,0.1,0,0.3,0.2l1.8,1.2c0.1,0.1,0.1,0.1,0.2,0.1c0,0,0,0.1,0.1,0.1c0,0-0.1,0.1-0.3,0.2
		l-0.6,0.4l-0.5,1.6h2.8c0-0.3,0.1-0.8,0.1-1.3c0-0.5,0-1.2,0.1-1.9c0-0.7,0-1.1,0-1.2c0-0.1,0-0.2,0-0.2l0-0.6
		c0-0.5-0.1-0.8-0.1-0.9c0-0.1,0-0.1,0.1-0.2l0.4,0.1l1.9,0.5c0.1,0,0.2,0.1,0.3,0.1c0.1,0.1,0.1,0.1,0.1,0.2c0,0.1-0.1,0.2-0.2,0.2
		l-0.5,0.4c0,0.6,0,1.2-0.1,1.8c0,0.6,0,1.1-0.1,1.4c0,0.4-0.1,0.9-0.1,1.5h3.6l0.7-0.9c0.2-0.3,0.3-0.4,0.3-0.4
		c0,0,0.2,0.1,0.5,0.3l1.3,1.1c0.2,0.1,0.2,0.2,0.2,0.3c0,0.1-0.1,0.2-0.4,0.2h-1.8v0h-4.2c0.1,0.3,0.2,0.6,0.4,0.9
		c0.1,0.3,0.5,0.9,1.1,1.7c0.6,0.8,1.4,1.5,2.3,2.1c0.9,0.6,1.7,1,2.4,1.2l0.5,0.1c0.2,0.1,0.2,0.1,0.2,0.2c0,0.1-0.1,0.2-0.2,0.2
		l-0.4,0.1c-0.3,0-0.5,0.1-0.6,0.1c-0.1,0-0.3,0.1-0.5,0.3c-0.2,0.2-0.4,0.3-0.5,0.6c-0.1,0.2-0.2,0.3-0.2,0.4c0,0,0,0-0.1,0
		c-0.1,0-0.2-0.1-0.4-0.2l-0.9-0.8c-1.1-0.9-1.9-1.9-2.4-2.9c-0.5-1-0.8-1.8-0.8-2.3l-0.2-1.4c-0.1,0.5-0.2,1.1-0.3,1.7
		s-0.6,1.5-1.4,2.7c-0.8,1.2-2.6,2.3-5.6,3.3l-0.2,0.1c-0.1,0-0.2,0.1-0.3,0c0,0-0.1-0.1-0.1-0.1c0,0,0-0.1,0.1-0.1l0.3-0.2
		c0.1,0,0.4-0.2,1.1-0.5s1.4-0.9,2.1-1.7c0.7-0.8,1.3-1.6,1.5-2.3c0.3-0.7,0.5-1.2,0.5-1.7c0.1-0.4,0.1-0.9,0.2-1.4h-2.9
		c-0.2,0.5-0.4,1.1-0.8,2c-0.4,0.9-1.1,1.9-2.3,3c-1.1,1.1-2.6,2.1-4.4,3l-0.4,0.2c-0.2,0.1-0.3,0.1-0.3,0.1c0-0.1,0-0.1,0-0.1v0
		c0,0,0-0.1,0.1-0.1l0.4-0.3l0.7-0.6c1.2-1,2.2-2,3-3.1c0.8-1.1,1.4-2.2,1.7-3.3c0.4-1.1,0.7-2.2,0.9-3.5H402.8z"/>
	<path class="st1" d="M439,56h1.7l0.9-1.1c0.1-0.1,0.2-0.2,0.2-0.2c0,0,0.2,0.1,0.3,0.2l1.3,1.1c0.1,0.1,0.2,0.3,0.2,0.4
		c0,0.1-0.1,0.2-0.2,0.2h-8.3l-0.5,0.6l-0.3,0.3c0,0-0.1,0.1-0.1,0.1c0,0-0.1-0.1-0.3-0.2l-1-0.7c-0.2-0.1-0.3-0.2-0.3-0.2
		c0,0,0-0.1,0-0.1c0,0,0.1-0.1,0.2-0.2c0.1-0.1,0.2-0.2,0.2-0.3c0-0.1,0.1-0.2,0.1-0.3v-6l-0.1-2.1c0,0,0,0,0,0c0,0,0.1,0,0.4,0.1
		l1.9,0.5c0.3,0.1,0.4,0.2,0.3,0.3c-0.1,0.1-0.1,0.2-0.2,0.2l-0.5,0.3V56h2V45.5c-2,0.2-3.1,0.3-3.2,0.3l-1.2,0.1l-0.9,0.1
		c0,0,0,0-0.1,0c0,0-0.1,0-0.1-0.1c0,0-0.1-0.1-0.1-0.2c0-0.1,0.1-0.1,0.2-0.1l0.8-0.2c1.1-0.2,2.3-0.5,3.7-1
		c1.4-0.5,2.4-0.8,3.1-1.2l1.1-0.5l0.3-0.2c0.1,0,0.1,0,0.2,0l0.3,0.3l1.5,1.4c0.1,0.1,0.2,0.2,0.2,0.3c0,0,0,0.1,0,0.2
		c0,0.1-0.1,0.1-0.4,0.1l-1.3,0.2l-1.7,0.2l-0.9,0.1l0.5,0.2c0,0,0.1,0.1,0.1,0.1c0,0,0,0.1,0.1,0.1c0,0,0,0.1-0.1,0.1L439,46v3.9
		h1.4l0.8-1c0.1-0.2,0.2-0.2,0.3-0.3c0,0,0.2,0.1,0.4,0.3l1.3,1.1c0.1,0.1,0.2,0.2,0.2,0.2c0,0.1,0,0.1,0,0.2c0,0.1-0.1,0.1-0.3,0.1
		H439V56z M429.8,50.6h-2.7l-0.3,0.4c-0.2,0.2-0.3,0.3-0.3,0.3c-0.1,0-0.1,0-0.2-0.1l-1.2-1.2c-0.1-0.1-0.1-0.2-0.1-0.2
		c0-0.1,0.1-0.1,0.1-0.1l0.5-0.1c0.2,0,0.6-0.5,1.1-1.5c0.5-0.9,0.9-1.8,1.3-2.6l0.3-0.8l0.1-0.2h-4.2c-0.1,0-0.2-0.1-0.3-0.2V44
		c0-0.2,0.1-0.3,0.3-0.3h4.3l0.5-0.7c0.1-0.1,0.2-0.2,0.2-0.2c0.1,0,0.2,0,0.3,0.1l1.6,1c0.1,0.1,0.2,0.1,0.2,0.2
		c0.1,0.1,0.1,0.2,0.1,0.2c0,0.1-0.1,0.2-0.3,0.3l-0.6,0.2c-0.3,0.4-0.4,0.7-0.5,0.9c-0.1,0.1-0.4,0.7-1,1.8c-0.5,1-1,1.8-1.3,2.4
		h2.1l0.6-0.8c0.1-0.1,0.2-0.2,0.2-0.2c0,0,0.1,0,0.3,0.1l1.7,1.1c0.1,0.1,0.2,0.1,0.2,0.2c0,0,0,0.1,0,0.1c0,0,0,0.1-0.1,0.2
		c0,0.1-0.1,0.1-0.2,0.1l-0.6,0.3c-0.1,0.5-0.2,1.1-0.4,1.8c-0.2,0.7-0.4,1.5-0.7,2.3c-0.3,0.9-0.6,1.4-0.7,1.7l-0.4,0.7
		c0.4,0.3,0.7,0.5,0.9,0.6c0.3,0.1,0.7,0.3,1.3,0.4c0.6,0.2,1.3,0.3,2.2,0.4c0.8,0.1,2.3,0.2,4.3,0.2c2,0,3.7-0.2,5.2-0.5l0.6-0.1
		c0.1,0,0.2,0,0.2,0.1c0,0.1,0,0.1,0,0.2c0,0.1,0,0.1-0.1,0.2l-0.3,0.2c-0.2,0.2-0.4,0.4-0.6,0.6c-0.2,0.2-0.3,0.5-0.3,0.7
		c-0.1,0.2-0.1,0.4-0.1,0.5c0,0.1,0,0.2,0,0.2c0,0,0,0.1-0.1,0.1c-0.1,0.1-0.6,0.1-1.7,0.1c-1.5,0-3.1,0-4.8-0.1
		c-1.7-0.1-3.2-0.3-4.5-0.8c-1.3-0.5-2.1-0.8-2.3-1l-1-0.8c-0.3,0.3-0.7,0.6-1,0.9c-0.3,0.3-0.9,0.6-1.5,1c-0.7,0.4-1.1,0.6-1.3,0.8
		L424,62c-0.1,0.1-0.2,0.1-0.3,0.1c-0.1,0-0.1,0-0.1,0c0,0,0,0,0-0.1s0-0.1,0-0.1c0,0,0.1-0.1,0.2-0.2l0.7-0.5c1-0.7,2-1.8,3.1-3.2
		c-0.3-0.4-0.5-0.8-0.7-1.1c-0.2-0.3-0.4-0.7-0.5-1.1c-0.1-0.4-0.3-0.9-0.5-1.5c-0.2-0.6-0.3-1.1-0.3-1.4l-0.2-1c0,0,0-0.1,0-0.1
		s0-0.1,0.1-0.2c0.1-0.1,0.1,0,0.2,0.2l0.4,1c0.2,0.5,0.4,1.1,0.7,1.6c0.3,0.6,0.8,1.4,1.6,2.3c0.1-0.3,0.3-0.6,0.3-0.9
		c0.1-0.2,0.2-0.6,0.4-1.2c0.2-0.6,0.3-1.2,0.4-1.7C429.6,52.3,429.7,51.5,429.8,50.6z"/>
	<path class="st1" d="M454.6,44.3c-1.3,1.8-2.2,2.9-2.6,3.3l-1.3,1.5l2.9,0.3c0.7-1.2,1.1-2,1.4-2.5l0.3-0.7l0-0.1
		c0,0,0.1,0,0.2,0.1l1.6,1.2c0.1,0,0.1,0.1,0.1,0.1c0,0,0.1,0.1,0.1,0.2c0,0-0.1,0.1-0.2,0.2l-0.5,0.2c-0.5,0.7-1,1.3-1.5,2
		c-0.5,0.7-1.7,2.1-3.7,4.5c0.8-0.1,1.4-0.1,1.8-0.2l2.6-0.3l0.9-0.1c0.1,0,0.1,0,0.2,0.1c0,0.1,0,0.1-0.1,0.2l-0.7,0.2l-2.9,1.1
		c-0.8,0.3-1.3,0.5-1.5,0.6l-0.6,0.3c0,0-0.1,0.1-0.2,0.2c-0.1,0.1-0.2,0.1-0.3,0.1c-0.1,0-0.2-0.2-0.3-0.5l-0.6-1.3
		c0-0.1-0.1-0.1-0.1-0.2c0,0,0-0.1,0-0.1c0,0,0,0,0,0l0.1,0l0.4-0.3c0.3-0.2,0.7-0.5,1.1-1.1c0.4-0.6,1.1-1.6,2.1-3.2l-2.1,0.5
		c-0.2,0.1-0.5,0.1-0.7,0.3c-0.2,0.1-0.4,0.1-0.5-0.1l-0.5-1.4c0-0.1,0-0.1,0-0.2c0,0,0-0.1,0.1-0.2l0.2-0.1l0.5-0.5
		c0.3-0.2,0.7-0.9,1.3-1.9c0.6-1.1,1-1.9,1.3-2.6l0.6-1.5c0-0.1,0-0.1,0.1-0.1c0,0,0,0,0.1,0l0.1,0.1l1.9,1.3
		c0.1,0.1,0.1,0.1,0.1,0.2c0,0.1-0.1,0.1-0.3,0.2L454.6,44.3z M458,49.9c0.1-0.1,0.4-0.1,0.9,0c0.4,0,0.8,0.1,1.1,0.2
		c0.3,0.1,0.6,0.2,0.9,0.5c0.3,0.3,0.5,0.6,0.5,1c0,0.4-0.1,0.6-0.3,0.8c-0.2,0.2-0.4,0.3-0.6,0.3c-0.3,0-0.6-0.2-0.8-0.6l-0.3-0.7
		c-0.2-0.4-0.3-0.7-0.6-0.8c-0.2-0.1-0.4-0.2-0.6-0.3c-0.2-0.1-0.3-0.1-0.3-0.1c0,0,0-0.1,0-0.1C457.9,50,458,50,458,49.9z
		 M456.5,52.5c0,0,0,0,0.1,0c0.1,0,0.4,0,1.1,0.2c0.7,0.1,1.2,0.4,1.6,0.8c0.4,0.4,0.5,0.8,0.5,1.2c0,0.4-0.1,0.6-0.3,0.8
		c-0.2,0.2-0.4,0.3-0.7,0.3c-0.3,0-0.5-0.1-0.7-0.5c-0.1-0.1-0.1-0.3-0.2-0.6c-0.1-0.3-0.2-0.6-0.3-0.9c-0.1-0.3-0.3-0.5-0.6-0.6
		c-0.3-0.1-0.4-0.2-0.5-0.3c0,0,0-0.1,0-0.1C456.5,52.5,456.5,52.5,456.5,52.5z M449.6,60.2c-0.1-0.2-0.2-0.3-0.2-0.4
		c0-0.1,0-0.1,0.1-0.2l0.3,0l0.8-0.1c1.4-0.2,3-0.6,5-1.1l1.5-0.4c0.2,0,0.3,0,0.3,0.1c0,0.1,0,0.1-0.1,0.2l-0.8,0.4l-2.1,1
		l-2.3,1.2l-1.4,0.8l-0.3,0.1c0,0-0.1-0.1-0.1-0.1L449.6,60.2z M465.4,45.5l0.9-1c0.1-0.1,0.1-0.1,0.2-0.1c0,0,0.1,0,0.2,0.1
		l1.3,1.4c0,0,0,0.1,0.1,0.2c0,0.1,0,0.1-0.2,0.1h-5.1v2.4h4.1l0.5-0.6c0.1-0.1,0.1-0.1,0.2-0.1c0.1,0,0.1,0.1,0.3,0.2l1.7,1.5
		c0.1,0.1,0.2,0.2,0.2,0.3c0,0.1-0.1,0.2-0.2,0.2c-0.1,0.1-0.3,0.1-0.7,0.1c-0.3,0-0.6,0.1-0.9,0.3c-0.2,0.2-0.5,0.4-0.8,0.7
		c-0.3,0.3-0.5,0.5-0.6,0.6l-0.4,0.5c-0.1,0.1-0.1,0.1-0.2,0.1c0,0-0.1,0-0.1,0c0,0,0-0.1,0-0.1c0-0.1,0-0.1,0-0.2l0.9-2.8h-10.1
		c-0.2,0-0.3-0.1-0.3-0.3c0-0.2,0.1-0.3,0.3-0.3h4.3v-2.4h-4l-0.1-0.1c-0.1-0.1-0.2-0.2-0.2-0.3c0-0.1,0.1-0.2,0.3-0.2h4v-1.7l0-1.8
		c0,0,0.1-0.1,0.1-0.1c0,0,0.1,0,0.2,0l2,0.5c0.1,0,0.1,0,0.2,0.1c0,0,0.1,0.1,0.1,0.1c0,0-0.1,0.1-0.2,0.2l-0.5,0.5v2.1H465.4z
		 M462.2,56c0-0.2,0.1-0.5,0.1-0.9c0-0.4,0.1-1,0.2-1.9c0.1-0.9,0.1-1.5,0.1-1.8v-1.1c0-0.4,0-0.6,0-0.6c0,0,0.2,0,0.4,0.1l1.9,0.5
		c0.1,0,0.1,0,0.2,0.1c0,0,0.1,0.1,0,0.1c0,0,0,0.1-0.1,0.2l-0.5,0.5c-0.1,0.6-0.1,1.4-0.2,2.3c-0.1,1-0.1,1.5-0.2,1.8
		c0,0.2-0.1,0.5-0.1,0.8h2.5l0.9-1.1c0.1-0.1,0.1-0.1,0.1-0.1c0,0,0.1,0,0.2,0.1l1.5,1.5c0.1,0.1,0.1,0.1,0.1,0.2
		c0,0.1-0.1,0.1-0.2,0.1h-5.2c-0.1,0.4-0.2,0.6-0.2,0.7l-0.3,0.7c1.5,0.3,2.6,0.6,3.4,1c0.8,0.4,1.3,0.8,1.7,1.2
		c0.3,0.4,0.5,0.9,0.5,1.3c0,0.3-0.1,0.6-0.3,0.8c-0.2,0.2-0.4,0.4-0.8,0.4c-0.3,0-0.6-0.1-0.8-0.3c-0.2-0.2-0.4-0.6-0.7-1.1
		c-0.3-0.5-0.6-1-1.1-1.5c-0.5-0.5-0.9-0.8-1.3-1l-0.8-0.3c-0.2,0.3-0.5,0.7-0.9,1.1c-0.4,0.5-1.3,1-2.9,1.6c-1.5,0.6-2.8,1-3.8,1.2
		l-0.9,0.2c0,0,0,0-0.1,0c0,0-0.1,0-0.1,0c0,0-0.1,0,0-0.1s0-0.1,0.1-0.1c0,0,0.1-0.1,0.2-0.1l0.9-0.3c0.4-0.1,1.1-0.4,2-0.8
		c0.9-0.4,1.7-0.9,2.5-1.6s1.3-1.3,1.6-2l0.3-0.8h-6.3c-0.1,0-0.2-0.1-0.2-0.3c0-0.2,0.1-0.3,0.2-0.3H462.2z"/>
</g>
</svg>
