<?xml version="1.0" encoding="utf-8"?>
<!-- Generator: Adobe Illustrator 16.0.0, SVG Export Plug-In . SVG Version: 6.00 Build 0)  -->
<!DOCTYPE svg PUBLIC "-//W3C//DTD SVG 1.1//EN" "http://www.w3.org/Graphics/SVG/1.1/DTD/svg11.dtd">
<svg version="1.1" id="图层_1" xmlns="http://www.w3.org/2000/svg" xmlns:xlink="http://www.w3.org/1999/xlink" x="0px" y="0px"
	 width="640px" height="287.26px" viewBox="0 0 640 287.26" enable-background="new 0 0 640 287.26" xml:space="preserve">
<g>
	<g>
		<path fill="#AE7B28" d="M337.103,66.259L337.103,66.259v-6.308h4.467v6.308H337.103z M328.169,59.951L328.169,59.951h4.467v6.308
			h-4.467V59.951z M337.103,58.378L337.103,58.378v-5.52h4.467v5.52H337.103z M328.169,52.858L328.169,52.858h4.467v5.52h-4.467
			V52.858z M329.961,44.977L329.961,44.977h9.818v-5.044h-9.818V44.977z M316.57,42.146L316.57,42.146
			c-1.638,4.412-4.324,8.404-8.038,11.977h1.113c1.638-1.264,3.049-2.469,4.238-3.627v19.542h4.465V48.446
			c0.896,1.473,1.934,2.946,3.125,4.412c1.047-0.526,1.792-1.366,2.238-2.522v19.701h4.457v-2.205h13.4v2.205h4.457V49.71h-4.457
			v1.573h-13.4V49.71h-4.457c-1.495-0.634-3.199-1.472-5.141-2.521v-0.794c1.789-2.731,2.902-5.305,3.35-7.721h-4.684l-0.23,1.89
			h-8.028v1.581H316.57z M325.492,48.129L325.492,48.129V37.102h4.469v1.258h9.818v-1.258h4.465v11.027h-4.465v-1.571h-9.818v1.571
			H325.492z M347.367,32.368L347.367,32.368v1.581h-24.998v-1.581H347.367z M313.436,30.956l0.23-0.161
			c1.93,0.949,4.094,2.104,6.477,3.468c-0.307,1.26-0.897,2.416-1.794,3.465C316.267,36.154,314.625,33.895,313.436,30.956z"/>
		<path fill="none" stroke="#D9B766" stroke-width="0.216" stroke-miterlimit="22.9256" d="M337.103,66.259L337.103,66.259v-6.308
			h4.467v6.308H337.103z M328.169,59.951L328.169,59.951h4.467v6.308h-4.467V59.951z M337.103,58.378L337.103,58.378v-5.52h4.467
			v5.52H337.103z M328.169,52.858L328.169,52.858h4.467v5.52h-4.467V52.858z M329.961,44.977L329.961,44.977h9.818v-5.044h-9.818
			V44.977z M316.57,42.146L316.57,42.146c-1.638,4.412-4.324,8.404-8.038,11.977h1.113c1.638-1.264,3.049-2.469,4.238-3.627v19.542
			h4.465V48.446c0.896,1.473,1.934,2.946,3.125,4.412c1.047-0.526,1.792-1.366,2.238-2.522v19.701h4.457v-2.205h13.4v2.205h4.457
			V49.71h-4.457v1.573h-13.4V49.71h-4.457c-1.495-0.634-3.199-1.472-5.141-2.521v-0.794c1.789-2.731,2.902-5.305,3.35-7.721h-4.684
			l-0.23,1.89h-8.028v1.581H316.57z M325.492,48.129L325.492,48.129V37.102h4.469v1.258h9.818v-1.258h4.465v11.027h-4.465v-1.571
			h-9.818v1.571H325.492z M347.367,32.368L347.367,32.368v1.581h-24.998v-1.581H347.367z M313.436,30.956l0.23-0.161
			c1.93,0.949,4.094,2.104,6.477,3.468c-0.307,1.26-0.897,2.416-1.794,3.465C316.267,36.154,314.625,33.895,313.436,30.956z"/>
		<path fill="#AE7B28" d="M324.151,94.066L324.151,94.066c1.934,4.733,3.201,7.357,3.801,7.882c0.886-0.524,1.705-1.519,2.455-2.992
			c-1.792-1.681-3.8-3.361-6.028-5.042L324.151,94.066z M338.434,92.965L338.434,92.965c-0.446,9.983,2.383,16.34,8.489,19.069
			c0.15,0,0.15-0.363,0-1.104c-0.154-1.888,0.292-3.254,1.341-4.095c-3.277-1.049-5.439-2.784-6.477-5.205l3.79-7.403l-1.779-0.631
			l-2.905,5.991c-0.743-1.264-1.344-3.046-1.78-5.36c-0.152-0.524-0.23-0.947-0.23-1.263H338.434z M308.532,86.665L308.532,86.665
			h8.924c-0.743,4.518-3.572,9.562-8.478,15.13h1.336c0.446-0.426,1.188-1.158,2.236-2.207c0.887-0.948,1.63-1.681,2.229-2.203
			v17.488h4.466V94.861c1.334,2.414,2.525,4.204,3.572,5.353c0.448-0.209,0.885-1.258,1.334-3.149
			c-0.449-0.313-1.935-1.679-4.457-4.1c1.932-3.254,2.971-6.3,3.123-9.138h-5.361v1.257h-8.924V86.665z M338.882,79.732
			L338.882,79.732h-14.73v-1.583h14.73v-1.888h4.467v8.822c-0.294,2.104-1.638,3.894-4.018,5.359h8.038v1.579h-9.82v18.756
			c0.296,2.312-2.238,3.778-7.588,4.41c-0.152-0.417-0.897-0.524-2.24-0.315l-2.454,0.47l-0.439-0.626
			c6.249-1.055,8.998-2.367,8.257-3.938v-9.302c-2.534,5.044-5.954,8.253-10.267,9.618c0.742-2.106,0.448-3.734-0.896-4.891
			c5.954-0.947,9.676-2.938,11.163-5.99v-8.191h-10.267v-1.579h14.951c0.896-1.466,1.266-3.045,1.113-4.728h-13.39v-1.573h13.39
			V79.732z M313.666,76.578v-0.162c2.378,0.739,4.685,1.733,6.913,3.001c-0.741,1.364-1.485,2.413-2.229,3.145
			C316.867,81.198,315.304,79.2,313.666,76.578z"/>
		<path fill="none" stroke="#D9B766" stroke-width="0.216" stroke-miterlimit="22.9256" d="M324.151,94.066L324.151,94.066
			c1.934,4.733,3.201,7.357,3.801,7.882c0.886-0.524,1.705-1.519,2.455-2.992c-1.792-1.681-3.8-3.361-6.028-5.042L324.151,94.066z
			 M338.434,92.965L338.434,92.965c-0.446,9.983,2.383,16.34,8.489,19.069c0.15,0,0.15-0.363,0-1.104
			c-0.154-1.888,0.292-3.254,1.341-4.095c-3.277-1.049-5.439-2.784-6.477-5.205l3.79-7.403l-1.779-0.631l-2.905,5.991
			c-0.743-1.264-1.344-3.046-1.78-5.36c-0.152-0.524-0.23-0.947-0.23-1.263H338.434z M308.532,86.665L308.532,86.665h8.924
			c-0.743,4.518-3.572,9.562-8.478,15.13h1.336c0.446-0.426,1.188-1.158,2.236-2.207c0.887-0.948,1.63-1.681,2.229-2.203v17.488
			h4.466V94.861c1.334,2.414,2.525,4.204,3.572,5.353c0.448-0.209,0.885-1.258,1.334-3.149c-0.449-0.313-1.935-1.679-4.457-4.1
			c1.932-3.254,2.971-6.3,3.123-9.138h-5.361v1.257h-8.924V86.665z M338.882,79.732L338.882,79.732h-14.73v-1.583h14.73v-1.888
			h4.467v8.822c-0.294,2.104-1.638,3.894-4.018,5.359h8.038v1.579h-9.82v18.756c0.296,2.312-2.238,3.778-7.588,4.41
			c-0.152-0.417-0.897-0.524-2.24-0.315l-2.454,0.47l-0.439-0.626c6.249-1.055,8.998-2.367,8.257-3.938v-9.302
			c-2.534,5.044-5.954,8.253-10.267,9.618c0.742-2.106,0.448-3.734-0.896-4.891c5.954-0.947,9.676-2.938,11.163-5.99v-8.191h-10.267
			v-1.579h14.951c0.896-1.466,1.266-3.045,1.113-4.728h-13.39v-1.573h13.39V79.732z M313.666,76.578v-0.162
			c2.378,0.739,4.685,1.733,6.913,3.001c-0.741,1.364-1.485,2.413-2.229,3.145C316.867,81.198,315.304,79.2,313.666,76.578z"/>
		<path fill="#A91F26" d="M329.306,161.122L329.306,161.122l-0.585,2.031h0.866v-2.031H329.306z M331.037,160.837L331.037,160.837
			v0.866h0.581l0.296-1.731h-0.296L331.037,160.837z M333.362,171.853L333.362,171.853v0.581h0.285
			c2.907-1.93,4.357-3.279,4.357-4.059l-0.296-1.162c0-1.152,0.877-3.763,2.61-7.822l0.581-1.462h-0.581
			c-2.897,0-4.74,3.591-5.508,10.742L333.362,171.853z M343.226,165.478L343.226,165.478l1.15,5.225
			c-1.548,1.547-3.377,2.611-5.506,3.191l-0.865-0.296l-2.908,0.581c2.129,3.479,4.456,5.223,6.968,5.223h0.865
			c2.129-8.699,3.193-14.789,3.193-18.279v-2.314c0-1.164-0.384-1.844-1.166-2.029C344.575,156.778,343.994,159.676,343.226,165.478
			z M319.44,162.001L319.44,162.001c5.605-3.293,10.247-5.618,13.922-6.968l0.868-3.191l-0.583-1.152h-0.285
			c-5.037,0.965-9.095,3.379-12.19,7.239C320.021,159.676,319.44,161.024,319.44,162.001z M304.639,137.917L304.639,137.917v1.449
			l-0.569,2.61c-3.096,7.736-5.706,15.285-7.834,22.636c-3.875,0.568-5.806,1.349-5.806,2.315v0.285l0.285,0.296
			c-0.767,0-1.25,0.866-1.447,2.613c0.964,1.544,1.546,3.092,1.743,4.64l-1.162,3.193l3.479,6.089
			c4.455-0.965,6.672-2.129,6.672-3.479v-2.61l-0.287-4.357l4.357-3.476l8.984-10.731v-0.583l-0.285-0.296
			c1.35-1.548,2.414-2.995,3.182-4.346v-0.581h-0.284c-4.062,3.293-6.87,4.927-8.419,4.927l-6.667,3.772h-0.581l2.324-4.925
			c2.709-0.197,5.225-1.162,7.539-2.909l-4.927-14.503l0.583-0.285v-1.745H304.639z M329.587,137.052L329.587,137.052l-0.281,3.774
			h0.567l2.041-3.774v-0.285L329.587,137.052z M303.19,120.517L303.19,120.517v0.285c1.745,1.546,2.61,3.589,2.61,6.101
			l-0.282,1.734l0.578,1.743l-1.161,6.672h0.865c0-1.164,0.483-2.029,1.446-2.612h1.166l0.581,1.164
			c1.164,0,1.931,0.185,2.314,0.581h0.296l3.479-3.775v-1.744C310.44,123.896,306.483,120.517,303.19,120.517z M347.868,111.815
			h0.283c2.515,2.514,3.773,4.643,3.773,6.387v1.447c0,3.479-3.971,9.766-11.893,18.849v0.581c0.769,0,1.166,0.199,1.166,0.583
			l1.731-0.296c3.479,1.745,5.222,2.906,5.222,3.489v0.283c0,0.78-0.48,1.166-1.447,1.166v0.581l0.285,0.581v0.284
			c-1.15,0.78-3.578,1.548-7.251,2.328c0,0.382-0.669,0.569-2.029,0.569l-0.583,1.162l0.879,2.327l-0.296,2.028
			c3.872-0.778,6.482-1.743,7.831-2.907l7.253,3.191l0.583,1.451c-1.162,20.108-3.479,30.172-6.968,30.172
			c-1.931,0-4.827-1.844-8.699-5.508l-2.897-2.908c-0.779,0-1.35-1.164-1.747-3.479h-1.731v-0.581h0.581v-0.581
			c0-0.583-0.396-0.867-1.161-0.867l-0.88-1.447l0.296-4.938l-0.296-0.287h-0.286c-1.348,1.35-2.028,3.281-2.028,5.806
			c-0.779,0.769-1.93,1.35-3.478,1.733c-0.968-1.351-1.447-2.314-1.447-2.895c0-0.968,0.866-3.48,2.598-7.552
			c-3.861,2.127-5.791,4.839-5.791,8.132l-2.031,4.641h0.583v2.314c-0.978,3.094-2.525,4.642-4.643,4.642h-0.581
			c-0.779-0.384-1.46-1.448-2.029-3.193l0.865-3.479l-1.446-3.774h0.581l-0.581-0.569v-1.161c4.827-3.678,8.019-7.452,9.567-11.314
			l2.61-3.193h-0.868v-0.865h0.868v-0.299h-0.581l-3.48,1.164l-1.742-2.61l2.029-6.388l5.804-0.865v-0.865l-1.731-2.03l0.285-3.489
			v-0.287h-1.747l-1.731-2.027v-1.747c3.86,0,5.791-1.249,5.791-3.763l2.327-11.31h0.581c0.385,0,0.967,3.96,1.733,11.895
			l1.164-0.298v0.298c4.839-1.166,8.118-3.393,9.863-6.684c3.874-5.41,5.804-8.701,5.804-9.854v-0.877h-1.164v-0.581
			L347.868,111.815z"/>
		<path fill="#AE7B28" d="M310.458,238.448L310.458,238.448h16.434v-7.997h-11.99v-2.444h11.99v-5.771h4.891v5.771h11.553v2.444
			h-11.553v7.997h15.996v2.447h-37.32V238.448z M336.673,217.572L336.673,217.572h-15.107v-7.554h15.107V217.572z M321.565,222.235
			L321.565,222.235v-2.219h15.107v2.219h4.436V205.8h-4.436v1.774h-15.107V205.8h-4.445v16.436H321.565z M321.565,199.573h5.771
			v-12.432h4.445v12.432h2.219l6.227-10.661l2,1.338l-5.555,9.323h6.662v-1.771h4.443v9.771c-0.302,0-0.597-0.078-0.889-0.219
			c-0.295-0.444-0.599-0.675-0.891-0.675c-0.892,0-1.631,0.894-2.219,2.676h-0.445v-7.337h-27.984v5.108h-4.445v-9.77h4.445v2.215
			h4.88c-0.739-1.326-2.217-4.956-4.436-10.879l0.218-0.219c2.074,1.479,4.443,3.252,7.106,5.326
			C322.97,195.14,322.458,197.063,321.565,199.573z"/>
		<path fill="none" stroke="#D9B766" stroke-width="0.216" stroke-miterlimit="22.9256" d="M310.458,238.448L310.458,238.448h16.434
			v-7.997h-11.99v-2.444h11.99v-5.771h4.891v5.771h11.553v2.444h-11.553v7.997h15.996v2.447h-37.32V238.448z M336.673,217.572
			L336.673,217.572h-15.107v-7.554h15.107V217.572z M321.565,222.235L321.565,222.235v-2.219h15.107v2.219h4.436V205.8h-4.436v1.774
			h-15.107V205.8h-4.445v16.436H321.565z M321.565,199.573h5.771v-12.432h4.445v12.432h2.219l6.227-10.661l2,1.338l-5.555,9.323
			h6.662v-1.771h4.443v9.771c-0.302,0-0.597-0.078-0.889-0.219c-0.295-0.444-0.599-0.675-0.891-0.675
			c-0.892,0-1.631,0.894-2.219,2.676h-0.445v-7.337h-27.984v5.108h-4.445v-9.77h4.445v2.215h4.88
			c-0.739-1.326-2.217-4.956-4.436-10.879l0.218-0.219c2.074,1.479,4.443,3.252,7.106,5.326
			C322.97,195.14,322.458,197.063,321.565,199.573z"/>
		<path fill="#AE7B28" d="M371.851,118.164L371.851,118.164c0-0.505-0.347-0.968-1.037-1.389c-0.69-0.419-1.741-0.632-3.154-0.632
			c-0.943,0-1.835,0.16-2.679,0.479c-0.843,0.32-1.262,0.851-1.262,1.591c0,0.371,0.076,0.667,0.226,0.886
			c0.154,0.218,0.381,0.343,0.683,0.378h1.718c0.203,0,0.355-0.051,0.456-0.152c0.1-0.099,0.15-0.253,0.15-0.452v-0.304h0.304v2.524
			h-0.304v-0.251c0-0.168-0.051-0.305-0.15-0.406c-0.101-0.101-0.237-0.151-0.407-0.151h-2.524c0.035-0.066,0.061-0.127,0.075-0.176
			c0.018-0.051,0.025-0.109,0.025-0.178c0-0.065-0.008-0.134-0.025-0.2c-0.015-0.068-0.058-0.135-0.124-0.203
			c-0.168-0.203-0.287-0.413-0.353-0.632c-0.066-0.218-0.102-0.46-0.102-0.73c0-1.011,0.446-1.751,1.337-2.223
			c0.894-0.474,1.878-0.708,2.956-0.708c1.248,0,2.314,0.277,3.205,0.834c0.893,0.554,1.342,1.254,1.342,2.095
			c0,0.202-0.051,0.437-0.152,0.705c-0.102,0.271-0.152,0.438-0.152,0.507c0,0.102,0.025,0.201,0.076,0.301
			c0.049,0.102,0.127,0.188,0.229,0.255l-2.275,0.404l-0.1-0.305c0.705-0.198,1.221-0.454,1.538-0.756
			C371.69,118.971,371.851,118.601,371.851,118.164z M365.487,112.224L365.487,112.224v0.101h5.909c0.135,0,0.233-0.035,0.3-0.101
			c0.068-0.066,0.104-0.186,0.104-0.354v-0.403h0.305v2.02H371.8v-0.403c0-0.137-0.035-0.242-0.104-0.328
			c-0.066-0.083-0.165-0.126-0.3-0.126h-7.929v-0.305v0.029l7.521-3.864v-0.102h-6.816c-0.133,0-0.234,0.043-0.302,0.129
			c-0.066,0.082-0.1,0.191-0.1,0.326v0.403h-0.304v-2.02h0.304v0.403c0,0.17,0.033,0.286,0.1,0.353
			c0.067,0.068,0.169,0.102,0.302,0.102h7.224c0.135,0,0.233-0.039,0.3-0.113c0.068-0.076,0.104-0.208,0.104-0.401v-0.343h0.305
			v1.599L365.487,112.224z M371.193,102.401L371.193,102.401l-0.006-0.037L367,101.3v2.109L371.193,102.401z M366.696,103.431
			L366.696,103.431v-2.207l-1.915-0.49c-0.304-0.065-0.546-0.065-0.733,0c-0.183,0.066-0.276,0.219-0.276,0.453v0.151h-0.304v-1.867
			h0.304v0.151c0,0.135,0.043,0.254,0.125,0.352c0.085,0.102,0.228,0.172,0.431,0.203l7.723,1.965l0.253,0.764l-7.978,1.917
			c-0.201,0.068-0.346,0.154-0.429,0.254c-0.084,0.103-0.125,0.218-0.125,0.353v0.152h-0.304v-2.172h0.304v0.202
			c0,0.203,0.059,0.328,0.175,0.378c0.117,0.051,0.293,0.043,0.531-0.022L366.696,103.431z M363.468,96.107L363.468,96.107v-2.626
			h0.304v0.454c0,0.168,0.033,0.286,0.1,0.353c0.067,0.066,0.169,0.102,0.306,0.102h7.067c0.27,0,0.421-0.016,0.456-0.049
			c0.033-0.035,0.049-0.17,0.049-0.405c0-0.472-0.084-0.8-0.253-0.984c-0.168-0.186-0.622-0.411-1.365-0.683l0.051-0.302
			l1.923,0.454v4.8l-1.923,0.401l-0.051-0.253c0.71-0.27,1.154-0.479,1.34-0.632c0.185-0.148,0.278-0.462,0.278-0.934
			c0-0.338-0.016-0.521-0.049-0.556c-0.035-0.031-0.204-0.049-0.507-0.049h-7.017c-0.137,0-0.238,0.041-0.306,0.126
			c-0.066,0.084-0.1,0.191-0.1,0.328v0.454H363.468z M365.487,88.954L365.487,88.954v0.102h5.909c0.135,0,0.233-0.035,0.3-0.102
			c0.068-0.066,0.104-0.186,0.104-0.354v-0.401h0.305v2.02H371.8v-0.404c0-0.134-0.035-0.243-0.104-0.327
			c-0.066-0.084-0.165-0.127-0.3-0.127h-7.929v-0.304v0.027l7.521-3.864v-0.1h-6.816c-0.133,0-0.234,0.043-0.302,0.127
			c-0.066,0.086-0.1,0.19-0.1,0.327v0.402h-0.304v-2.019h0.304v0.403c0,0.168,0.033,0.287,0.1,0.354
			c0.067,0.068,0.169,0.102,0.302,0.102h7.224c0.135,0,0.233-0.039,0.3-0.115c0.068-0.074,0.104-0.207,0.104-0.399v-0.344h0.305
			v1.599L365.487,88.954z M371.193,79.132L371.193,79.132l-0.006-0.037L367,78.028v2.111L371.193,79.132z M366.696,80.161
			L366.696,80.161v-2.209l-1.915-0.489c-0.304-0.066-0.546-0.066-0.733,0c-0.183,0.068-0.276,0.223-0.276,0.456v0.15h-0.304v-1.867
			h0.304v0.149c0,0.137,0.043,0.254,0.125,0.354c0.085,0.102,0.228,0.17,0.431,0.203l7.723,1.965l0.253,0.761l-7.978,1.919
			c-0.201,0.07-0.346,0.151-0.429,0.253c-0.084,0.102-0.125,0.219-0.125,0.354v0.15h-0.304V80.14h0.304v0.203
			c0,0.201,0.059,0.325,0.175,0.378c0.117,0.051,0.293,0.041,0.531-0.025L366.696,80.161z M364.173,73.999L364.173,73.999
			c-0.133,0-0.234,0.044-0.302,0.126c-0.066,0.086-0.1,0.195-0.1,0.33v0.2h-0.304v-2.172h0.304v0.254c0,0.168,0.033,0.284,0.1,0.353
			c0.067,0.068,0.169,0.102,0.302,0.102h6.615V73.09l-7.32-1.714v-0.304l7.17-1.563v-0.104h-6.465c-0.133,0-0.234,0.045-0.302,0.127
			c-0.066,0.086-0.1,0.192-0.1,0.327v0.152h-0.304v-1.515h0.304v0.149c0,0.168,0.033,0.287,0.1,0.355
			c0.067,0.065,0.169,0.101,0.302,0.101h7.224c0.135,0,0.233-0.031,0.3-0.093c0.068-0.062,0.104-0.172,0.104-0.328v-0.185h0.305
			v1.413l-6.59,1.423v0.105l6.59,1.603v1.614H371.8v-0.2c0-0.135-0.035-0.244-0.104-0.33c-0.066-0.082-0.165-0.126-0.3-0.126
			H364.173z M363.771,58.698L363.771,58.698c0,0.505,0.167,0.934,0.503,1.288c0.339,0.353,0.76,0.53,1.264,0.53h5.858
			c0.135,0,0.233-0.035,0.3-0.102c0.068-0.066,0.104-0.187,0.104-0.354v-0.302h0.305v1.818H371.8v-0.304
			c0-0.133-0.035-0.242-0.104-0.328c-0.066-0.081-0.165-0.124-0.3-0.124h-5.858c-0.675,0-1.205-0.227-1.592-0.683
			c-0.386-0.454-0.58-0.969-0.58-1.54c0-0.608,0.167-1.139,0.503-1.593c0.339-0.455,0.877-0.681,1.618-0.681h5.909
			c0.135,0,0.233-0.035,0.3-0.102c0.068-0.066,0.104-0.186,0.104-0.353v-0.252h0.305v2.221H371.8v-0.251
			c0-0.137-0.035-0.244-0.104-0.328c-0.066-0.086-0.165-0.127-0.3-0.127h-5.909c-0.675,0-1.127,0.143-1.363,0.428
			C363.889,57.85,363.771,58.228,363.771,58.698z M364.173,49.681L364.173,49.681c-0.133,0-0.234,0.043-0.302,0.127
			c-0.066,0.084-0.1,0.192-0.1,0.327v1.363c0,0.474,0.141,0.877,0.429,1.212c0.285,0.34,0.733,0.591,1.338,0.759l-0.102,0.252
			l-1.969-0.454v-5.2h0.304v0.351c0,0.168,0.033,0.289,0.1,0.355c0.067,0.066,0.169,0.102,0.302,0.102h7.224
			c0.135,0,0.233-0.039,0.3-0.109c0.068-0.07,0.104-0.197,0.104-0.377v-0.321h0.305v2.421H371.8v-0.353
			c0-0.135-0.035-0.243-0.104-0.327c-0.066-0.084-0.165-0.127-0.3-0.127H364.173z M363.771,43.185L363.771,43.185
			c0,0.507,0.167,0.936,0.503,1.287c0.339,0.354,0.76,0.53,1.264,0.53h5.858c0.135,0,0.233-0.033,0.3-0.1
			c0.068-0.066,0.104-0.186,0.104-0.354v-0.304h0.305v1.821H371.8v-0.305c0-0.135-0.035-0.243-0.104-0.327
			c-0.066-0.086-0.165-0.129-0.3-0.129h-5.858c-0.675,0-1.205-0.225-1.592-0.679c-0.386-0.456-0.58-0.971-0.58-1.542
			c0-0.606,0.167-1.137,0.503-1.593c0.339-0.452,0.877-0.679,1.618-0.679h5.909c0.135,0,0.233-0.035,0.3-0.102
			c0.068-0.068,0.104-0.187,0.104-0.354v-0.253h0.305v2.223H371.8v-0.252c0-0.137-0.035-0.244-0.104-0.328
			c-0.066-0.083-0.165-0.126-0.3-0.126h-5.909c-0.675,0-1.127,0.142-1.363,0.429C363.889,42.335,363.771,42.717,363.771,43.185z
			 M363.771,34.875h-0.304v-2.423h0.304v0.353c0,0.168,0.033,0.284,0.1,0.353c0.067,0.068,0.169,0.1,0.302,0.1h7.224
			c0.135,0,0.233-0.035,0.3-0.105c0.068-0.07,0.104-0.198,0.104-0.378v-0.321h0.305v5.295l-1.821,0.61l-0.102-0.252
			c0.54-0.269,0.946-0.591,1.215-0.957c0.269-0.37,0.403-0.776,0.403-1.213v-1.415c0-0.135-0.035-0.242-0.104-0.328
			c-0.066-0.082-0.165-0.124-0.3-0.124h-3.232v1.665c0,0.335,0.076,0.576,0.228,0.732c0.15,0.148,0.395,0.227,0.733,0.227h0.252
			v0.302h-2.931v-0.302h0.203c0.403,0,0.707-0.078,0.908-0.227c0.203-0.156,0.305-0.397,0.305-0.732v-1.665h-3.689
			c-0.133,0-0.234,0.042-0.302,0.124c-0.066,0.086-0.1,0.193-0.1,0.328V34.875z"/>
		<path fill="none" stroke="#D9B766" stroke-width="0.216" stroke-miterlimit="22.9256" d="M371.851,118.164L371.851,118.164
			c0-0.505-0.347-0.968-1.037-1.389c-0.69-0.419-1.741-0.632-3.154-0.632c-0.943,0-1.835,0.16-2.679,0.479
			c-0.843,0.32-1.262,0.851-1.262,1.591c0,0.371,0.076,0.667,0.226,0.886c0.154,0.218,0.381,0.343,0.683,0.378h1.718
			c0.203,0,0.355-0.051,0.456-0.152c0.1-0.099,0.15-0.253,0.15-0.452v-0.304h0.304v2.524h-0.304v-0.251
			c0-0.168-0.051-0.305-0.15-0.406c-0.101-0.101-0.237-0.151-0.407-0.151h-2.524c0.035-0.066,0.061-0.127,0.075-0.176
			c0.018-0.051,0.025-0.109,0.025-0.178c0-0.065-0.008-0.134-0.025-0.2c-0.015-0.068-0.058-0.135-0.124-0.203
			c-0.168-0.203-0.287-0.413-0.353-0.632c-0.066-0.218-0.102-0.46-0.102-0.73c0-1.011,0.446-1.751,1.337-2.223
			c0.894-0.474,1.878-0.708,2.956-0.708c1.248,0,2.314,0.277,3.205,0.834c0.893,0.554,1.342,1.254,1.342,2.095
			c0,0.202-0.051,0.437-0.152,0.705c-0.102,0.271-0.152,0.438-0.152,0.507c0,0.102,0.025,0.201,0.076,0.301
			c0.049,0.102,0.127,0.188,0.229,0.255l-2.275,0.404l-0.1-0.305c0.705-0.198,1.221-0.454,1.538-0.756
			C371.69,118.971,371.851,118.601,371.851,118.164z M365.487,112.224L365.487,112.224v0.101h5.909c0.135,0,0.233-0.035,0.3-0.101
			c0.068-0.066,0.104-0.186,0.104-0.354v-0.403h0.305v2.02H371.8v-0.403c0-0.137-0.035-0.242-0.104-0.328
			c-0.066-0.083-0.165-0.126-0.3-0.126h-7.929v-0.305v0.029l7.521-3.864v-0.102h-6.816c-0.133,0-0.234,0.043-0.302,0.129
			c-0.066,0.082-0.1,0.191-0.1,0.326v0.403h-0.304v-2.02h0.304v0.403c0,0.17,0.033,0.286,0.1,0.353
			c0.067,0.068,0.169,0.102,0.302,0.102h7.224c0.135,0,0.233-0.039,0.3-0.113c0.068-0.076,0.104-0.208,0.104-0.401v-0.343h0.305
			v1.599L365.487,112.224z M371.193,102.401L371.193,102.401l-0.006-0.037L367,101.3v2.109L371.193,102.401z M366.696,103.431
			L366.696,103.431v-2.207l-1.915-0.49c-0.304-0.065-0.546-0.065-0.733,0c-0.183,0.066-0.276,0.219-0.276,0.453v0.151h-0.304v-1.867
			h0.304v0.151c0,0.135,0.043,0.254,0.125,0.352c0.085,0.102,0.228,0.172,0.431,0.203l7.723,1.965l0.253,0.764l-7.978,1.917
			c-0.201,0.068-0.346,0.154-0.429,0.254c-0.084,0.103-0.125,0.218-0.125,0.353v0.152h-0.304v-2.172h0.304v0.202
			c0,0.203,0.059,0.328,0.175,0.378c0.117,0.051,0.293,0.043,0.531-0.022L366.696,103.431z M363.468,96.107L363.468,96.107v-2.626
			h0.304v0.454c0,0.168,0.033,0.286,0.1,0.353c0.067,0.066,0.169,0.102,0.306,0.102h7.067c0.27,0,0.421-0.016,0.456-0.049
			c0.033-0.035,0.049-0.17,0.049-0.405c0-0.472-0.084-0.8-0.253-0.984c-0.168-0.186-0.622-0.411-1.365-0.683l0.051-0.302
			l1.923,0.454v4.8l-1.923,0.401l-0.051-0.253c0.71-0.27,1.154-0.479,1.34-0.632c0.185-0.148,0.278-0.462,0.278-0.934
			c0-0.338-0.016-0.521-0.049-0.556c-0.035-0.031-0.204-0.049-0.507-0.049h-7.017c-0.137,0-0.238,0.041-0.306,0.126
			c-0.066,0.084-0.1,0.191-0.1,0.328v0.454H363.468z M365.487,88.954L365.487,88.954v0.102h5.909c0.135,0,0.233-0.035,0.3-0.102
			c0.068-0.066,0.104-0.186,0.104-0.354v-0.401h0.305v2.02H371.8v-0.404c0-0.134-0.035-0.243-0.104-0.327
			c-0.066-0.084-0.165-0.127-0.3-0.127h-7.929v-0.304v0.027l7.521-3.864v-0.1h-6.816c-0.133,0-0.234,0.043-0.302,0.127
			c-0.066,0.086-0.1,0.19-0.1,0.327v0.402h-0.304v-2.019h0.304v0.403c0,0.168,0.033,0.287,0.1,0.354
			c0.067,0.068,0.169,0.102,0.302,0.102h7.224c0.135,0,0.233-0.039,0.3-0.115c0.068-0.074,0.104-0.207,0.104-0.399v-0.344h0.305
			v1.599L365.487,88.954z M371.193,79.132L371.193,79.132l-0.006-0.037L367,78.028v2.111L371.193,79.132z M366.696,80.161
			L366.696,80.161v-2.209l-1.915-0.489c-0.304-0.066-0.546-0.066-0.733,0c-0.183,0.068-0.276,0.223-0.276,0.456v0.15h-0.304v-1.867
			h0.304v0.149c0,0.137,0.043,0.254,0.125,0.354c0.085,0.102,0.228,0.17,0.431,0.203l7.723,1.965l0.253,0.761l-7.978,1.919
			c-0.201,0.07-0.346,0.151-0.429,0.253c-0.084,0.102-0.125,0.219-0.125,0.354v0.15h-0.304V80.14h0.304v0.203
			c0,0.201,0.059,0.325,0.175,0.378c0.117,0.051,0.293,0.041,0.531-0.025L366.696,80.161z M364.173,73.999L364.173,73.999
			c-0.133,0-0.234,0.044-0.302,0.126c-0.066,0.086-0.1,0.195-0.1,0.33v0.2h-0.304v-2.172h0.304v0.254c0,0.168,0.033,0.284,0.1,0.353
			c0.067,0.068,0.169,0.102,0.302,0.102h6.615V73.09l-7.32-1.714v-0.304l7.17-1.563v-0.104h-6.465c-0.133,0-0.234,0.045-0.302,0.127
			c-0.066,0.086-0.1,0.192-0.1,0.327v0.152h-0.304v-1.515h0.304v0.149c0,0.168,0.033,0.287,0.1,0.355
			c0.067,0.065,0.169,0.101,0.302,0.101h7.224c0.135,0,0.233-0.031,0.3-0.093c0.068-0.062,0.104-0.172,0.104-0.328v-0.185h0.305
			v1.413l-6.59,1.423v0.105l6.59,1.603v1.614H371.8v-0.2c0-0.135-0.035-0.244-0.104-0.33c-0.066-0.082-0.165-0.126-0.3-0.126
			H364.173z M363.771,58.698L363.771,58.698c0,0.505,0.167,0.934,0.503,1.288c0.339,0.353,0.76,0.53,1.264,0.53h5.858
			c0.135,0,0.233-0.035,0.3-0.102c0.068-0.066,0.104-0.187,0.104-0.354v-0.302h0.305v1.818H371.8v-0.304
			c0-0.133-0.035-0.242-0.104-0.328c-0.066-0.081-0.165-0.124-0.3-0.124h-5.858c-0.675,0-1.205-0.227-1.592-0.683
			c-0.386-0.454-0.58-0.969-0.58-1.54c0-0.608,0.167-1.139,0.503-1.593c0.339-0.455,0.877-0.681,1.618-0.681h5.909
			c0.135,0,0.233-0.035,0.3-0.102c0.068-0.066,0.104-0.186,0.104-0.353v-0.252h0.305v2.221H371.8v-0.251
			c0-0.137-0.035-0.244-0.104-0.328c-0.066-0.086-0.165-0.127-0.3-0.127h-5.909c-0.675,0-1.127,0.143-1.363,0.428
			C363.889,57.85,363.771,58.228,363.771,58.698z M364.173,49.681L364.173,49.681c-0.133,0-0.234,0.043-0.302,0.127
			c-0.066,0.084-0.1,0.192-0.1,0.327v1.363c0,0.474,0.141,0.877,0.429,1.212c0.285,0.34,0.733,0.591,1.338,0.759l-0.102,0.252
			l-1.969-0.454v-5.2h0.304v0.351c0,0.168,0.033,0.289,0.1,0.355c0.067,0.066,0.169,0.102,0.302,0.102h7.224
			c0.135,0,0.233-0.039,0.3-0.109c0.068-0.07,0.104-0.197,0.104-0.377v-0.321h0.305v2.421H371.8v-0.353
			c0-0.135-0.035-0.243-0.104-0.327c-0.066-0.084-0.165-0.127-0.3-0.127H364.173z M363.771,43.185L363.771,43.185
			c0,0.507,0.167,0.936,0.503,1.287c0.339,0.354,0.76,0.53,1.264,0.53h5.858c0.135,0,0.233-0.033,0.3-0.1
			c0.068-0.066,0.104-0.186,0.104-0.354v-0.304h0.305v1.821H371.8v-0.305c0-0.135-0.035-0.243-0.104-0.327
			c-0.066-0.086-0.165-0.129-0.3-0.129h-5.858c-0.675,0-1.205-0.225-1.592-0.679c-0.386-0.456-0.58-0.971-0.58-1.542
			c0-0.606,0.167-1.137,0.503-1.593c0.339-0.452,0.877-0.679,1.618-0.679h5.909c0.135,0,0.233-0.035,0.3-0.102
			c0.068-0.068,0.104-0.187,0.104-0.354v-0.253h0.305v2.223H371.8v-0.252c0-0.137-0.035-0.244-0.104-0.328
			c-0.066-0.083-0.165-0.126-0.3-0.126h-5.909c-0.675,0-1.127,0.142-1.363,0.429C363.889,42.335,363.771,42.717,363.771,43.185z
			 M363.771,34.875h-0.304v-2.423h0.304v0.353c0,0.168,0.033,0.284,0.1,0.353c0.067,0.068,0.169,0.1,0.302,0.1h7.224
			c0.135,0,0.233-0.035,0.3-0.105c0.068-0.07,0.104-0.198,0.104-0.378v-0.321h0.305v5.295l-1.821,0.61l-0.102-0.252
			c0.54-0.269,0.946-0.591,1.215-0.957c0.269-0.37,0.403-0.776,0.403-1.213v-1.415c0-0.135-0.035-0.242-0.104-0.328
			c-0.066-0.082-0.165-0.124-0.3-0.124h-3.232v1.665c0,0.335,0.076,0.576,0.228,0.732c0.15,0.148,0.395,0.227,0.733,0.227h0.252
			v0.302h-2.931v-0.302h0.203c0.403,0,0.707-0.078,0.908-0.227c0.203-0.156,0.305-0.397,0.305-0.732v-1.665h-3.689
			c-0.133,0-0.234,0.042-0.302,0.124c-0.066,0.086-0.1,0.193-0.1,0.328V34.875z"/>
		<path fill="#A72027" d="M324.303,22.959c-0.216,0.117-0.382,0.145-0.493,0.07c-0.111-0.07-0.197-0.152-0.262-0.242
			c-0.06-0.09-0.2-0.366-0.413-0.83c-0.216-0.464-0.438-0.886-0.673-1.268c-0.235-0.382-0.545-0.879-0.939-1.487
			c-0.39-0.61-0.666-1.02-0.834-1.223c-0.164-0.209-0.266-0.347-0.312-0.431c-0.043-0.08-0.066-0.172-0.07-0.271
			c-0.004-0.097,0.064-0.21,0.205-0.331s0.303-0.178,0.481-0.172c0.102,0.014,0.193,0.045,0.279,0.1
			c0.089,0.051,0.204,0.182,0.347,0.384l0.614,0.851c0.059,0.086,0.29,0.456,0.706,1.104c0.413,0.646,0.65,1.018,0.711,1.117
			l0.618,1.184c0.131,0.255,0.227,0.468,0.293,0.641c0.063,0.172,0.069,0.33,0.014,0.482
			C324.52,22.783,324.428,22.893,324.303,22.959 M322.896,10.151c0.027,0.111,0.082,0.334,0.172,0.673
			c0.089,0.333,0.239,0.812,0.45,1.431c0.204,0.62,0.567,1.346,1.072,2.18c0.507,0.831,1,1.586,1.479,2.258
			c0.485,0.671,1.055,1.326,1.712,1.972c0.655,0.644,1.298,1.219,1.934,1.726s1.04,0.82,1.211,0.939
			c0.176,0.117,0.294,0.213,0.356,0.282c0.061,0.07,0.1,0.182,0.111,0.33c0.014,0.142-0.053,0.292-0.197,0.44
			c-0.144,0.15-0.288,0.221-0.443,0.215c-0.09,0-0.219-0.045-0.383-0.131c-0.17-0.088-0.707-0.493-1.614-1.223
			c-0.908-0.726-1.632-1.386-2.168-1.977c-0.534-0.591-1.113-1.301-1.735-2.129c-0.62-0.827-1.111-1.607-1.474-2.34
			c-0.358-0.737-0.581-1.236-0.671-1.503l-0.374-1.017c-0.078,0.355-0.154,0.667-0.229,0.933c-0.07,0.269-0.192,0.642-0.372,1.115
			c-0.176,0.476-0.401,0.969-0.675,1.474c-0.272,0.507-0.569,0.984-0.893,1.437c-0.32,0.453-0.624,0.841-0.913,1.166
			c-0.288,0.328-0.717,0.759-1.282,1.297c-0.567,0.538-1.297,1.166-2.191,1.876c-0.897,0.713-1.487,1.047-1.771,1.002
			c-0.281-0.043-0.468-0.133-0.558-0.271c-0.094-0.137-0.102-0.298-0.035-0.493c0.07-0.195,0.335-0.427,0.794-0.702
			c0.462-0.272,0.844-0.524,1.148-0.752c0.304-0.23,0.777-0.624,1.417-1.186c0.642-0.562,1.176-1.096,1.601-1.604
			s0.867-1.115,1.326-1.81c0.456-0.696,0.803-1.372,1.037-2.021c0.237-0.649,0.435-1.277,0.593-1.882
			c0.159-0.608,0.251-1.039,0.276-1.292l0.035-0.412h-7.479c-0.188,0-0.332-0.055-0.43-0.161c-0.101-0.113-0.147-0.246-0.14-0.407
			c0-0.17,0.051-0.303,0.151-0.406c0.105-0.102,0.238-0.156,0.408-0.156h7.498l0.049-3.505c0-0.131,0.041-0.262,0.125-0.392
			c0.086-0.129,0.272-0.199,0.565-0.207c0.292-0.008,0.437,0.207,0.437,0.636l-0.008,3.468h7.902c0.136,0,0.259,0.053,0.378,0.146
			c0.114,0.098,0.169,0.246,0.161,0.444c-0.006,0.156-0.062,0.283-0.167,0.387c-0.105,0.103-0.23,0.153-0.372,0.153H322.896z"/>
		<path fill="#A72027" d="M341.222,6.831v6.986h7.592c0.125,0,0.238,0.051,0.34,0.149c0.105,0.098,0.154,0.238,0.148,0.42
			c-0.014,0.175-0.074,0.31-0.18,0.401s-0.207,0.141-0.309,0.141h-7.592v7.445c0,0.129-0.055,0.25-0.16,0.368
			c-0.104,0.115-0.247,0.17-0.429,0.162c-0.155,0-0.284-0.051-0.382-0.148c-0.1-0.099-0.15-0.226-0.15-0.382v-7.445h-7.725
			c-0.155,0-0.286-0.049-0.392-0.141s-0.155-0.24-0.147-0.438c0-0.168,0.05-0.297,0.153-0.393c0.104-0.091,0.23-0.14,0.386-0.14
			h7.725V6.831h-6.753c-0.156,0-0.287-0.048-0.398-0.144c-0.106-0.098-0.155-0.25-0.142-0.456c0.018-0.334,0.198-0.504,0.54-0.504
			h14.71c0.119,0,0.226,0.047,0.329,0.137c0.1,0.09,0.146,0.225,0.146,0.398c-0.004,0.192-0.061,0.335-0.166,0.429
			c-0.105,0.092-0.208,0.14-0.31,0.14H341.222z M337.35,12.483c-0.02,0.15-0.099,0.287-0.237,0.407
			c-0.141,0.121-0.295,0.162-0.465,0.123c-0.128-0.021-0.245-0.102-0.351-0.231c-0.104-0.131-0.239-0.357-0.397-0.675
			c-0.16-0.322-0.413-0.753-0.757-1.291c-0.347-0.538-0.614-0.936-0.809-1.197l-0.532-0.689c-0.141-0.186-0.223-0.363-0.242-0.532
			c-0.02-0.17,0.047-0.312,0.184-0.432c0.141-0.116,0.289-0.163,0.444-0.144c0.236,0.027,0.503,0.247,0.808,0.651
			c0.3,0.401,0.666,0.943,1.104,1.621l0.822,1.299C337.233,11.885,337.375,12.247,337.35,12.483z M346.685,7.884
			c0.104-0.011,0.275,0.035,0.522,0.145c0.254,0.111,0.266,0.422,0.049,0.929c-0.136,0.312-0.366,0.764-0.692,1.356
			c-0.319,0.597-0.662,1.145-1.027,1.647c-0.366,0.503-0.674,0.876-0.93,1.111c-0.254,0.236-0.493,0.278-0.714,0.135
			c-0.218-0.148-0.327-0.326-0.321-0.536c0-0.15,0.127-0.377,0.386-0.675c0.262-0.302,0.47-0.571,0.638-0.802
			c0.162-0.228,0.413-0.625,0.751-1.185c0.333-0.565,0.571-1.019,0.703-1.361c0.133-0.339,0.254-0.55,0.367-0.63
			C346.53,7.942,346.618,7.896,346.685,7.884z"/>
		<path fill-rule="evenodd" clip-rule="evenodd" fill="#D9B766" d="M329.341,253.359c7.463,0,13.513,6.048,13.513,13.511
			c0,7.464-6.05,13.514-13.513,13.514s-13.513-6.05-13.513-13.514C315.828,259.407,321.878,253.359,329.341,253.359"/>
		<path fill="#FFFFFF" d="M325.751,269.085c2.416-1.435,4.112-2.655,5.091-3.657c0.976-1.006,1.53-1.583,1.661-1.731
			c0.133-0.148,0.195-0.253,0.184-0.313c-0.012-0.059-0.1-0.09-0.266-0.09h-8.406c-0.277,0-0.492-0.104-0.647-0.318
			c-0.156-0.206-0.24-0.431-0.257-0.668c-0.016-0.236,0.06-0.466,0.222-0.687c0.168-0.221,0.394-0.33,0.683-0.33h5.029
			c-0.144-0.19-0.341-0.468-0.596-0.836c-0.254-0.37-0.422-0.636-0.506-0.793c-0.081-0.162-0.126-0.309-0.132-0.441
			c-0.006-0.131,0.014-0.263,0.061-0.396c0.151-0.462,0.479-0.685,0.977-0.665c0.573,0.047,1.055,0.41,1.437,1.094
			c0.389,0.685,0.585,1.113,0.597,1.283c0.012,0.172-0.037,0.327-0.149,0.47c-0.1,0.135-0.264,0.229-0.494,0.284h2.714
			c1.135,0,1.853,0.145,2.149,0.43c0.3,0.288,0.447,0.567,0.455,0.844c0.004,0.277-0.018,0.491-0.073,0.644
			c-0.145,0.421-0.87,1.277-2.184,2.567c-1.314,1.291-3.373,2.847-6.175,4.668c0.585,0.362,1.045,0.593,1.383,0.686
			c0.339,0.094,0.83,0.172,1.481,0.23c0.651,0.062,1.251,0.082,1.802,0.061c1.59-0.033,2.686-0.072,3.289-0.115
			c0.598-0.047,0.934-0.07,1-0.07c0.77,0.012,1.191,0.23,1.255,0.657c0.068,0.423,0.041,0.731-0.081,0.918
			c-0.109,0.176-0.289,0.316-0.537,0.422c-0.247,0.104-0.643,0.179-1.183,0.222c-0.542,0.045-1.54,0.074-2.997,0.086
			c-0.595,0.01-1.129,0.002-1.604-0.027c-0.476-0.027-1.111-0.092-1.903-0.197c-0.795-0.103-1.462-0.345-1.994-0.719
			c-0.536-0.377-0.91-0.69-1.129-0.943c-0.214-0.254-0.368-0.422-0.47-0.498c-0.1-0.075-0.22-0.057-0.362,0.064
			c-0.09,0.078-0.197,0.227-0.326,0.441c-0.125,0.214-0.28,0.44-0.47,0.678c-0.187,0.238-0.358,0.402-0.513,0.487
			c-0.154,0.09-0.319,0.129-0.495,0.117c-0.312,0-0.552-0.088-0.729-0.265c-0.175-0.176-0.265-0.375-0.265-0.589
			c0-0.215,0.045-0.405,0.133-0.569c0.032-0.057,0.183-0.23,0.444-0.522c0.265-0.293,0.601-0.796,1.004-1.505
			c0.401-0.714,0.716-1.072,0.934-1.076c0.223-0.008,0.406,0.046,0.546,0.155C325.393,268.625,325.531,268.797,325.751,269.085"/>
	</g>
	<rect fill="none" width="640" height="287.26"/>
</g>
</svg>
