<svg xmlns="http://www.w3.org/2000/svg" width="640" height="104.422" viewBox="0 0 640 104.422"><g fill="#AE7B28"><path d="M149.431 61.79c-1.274 1.48-2.298 2.568-3.074 3.258-.776.695-1.499 1.285-2.18 1.773-.677.488-1.23.846-1.659 1.066l-.683.359-.327.191-.184.051-.102-.031v-.08l.094-.131.309-.254c.689-.572 1.39-1.234 2.105-1.979.714-.748 1.466-1.678 2.264-2.795.793-1.117 1.366-2.01 1.71-2.674l.2-.396.143-.34.035-.047.429.193 1.868.809.163.109.043.123c.004.049-.055.096-.171.143l-.595.246-.088.105c.665 1.111 1.323 1.916 1.977 2.414.651.496 1.221.887 1.704 1.164.483.281.998.549 1.548.797.548.248 1.111.438 1.683.566l.571.123.429.096c.111.029.172.057.178.084l.01.066-.082.113-.261.105c-.258.104-.46.199-.608.287-.145.09-.301.213-.466.373-.168.162-.279.312-.336.447l-.122.254-.094.043c-.145 0-.69-.264-1.644-.791-.95-.527-1.718-1.107-2.303-1.742-.585-.637-1.066-1.256-1.446-1.861-.381-.604-.655-1.156-.827-1.652l-.211-.585zm.825 5.912l-.133.158c-.051.07-.141.145-.269.219v2.605h1.729l.658-.779c.131-.164.219-.248.25-.25.037-.004.168.08.396.25l1.15.902c.135.115.197.201.189.264-.01.066-.09.1-.24.1h-4.133v3.191h3.87l.867-.938.146-.141c.086-.102.141-.15.177-.146.037.002.174.098.414.287l1.288 1.016.168.17.029.133c.002.057-.094.082-.295.082h-14.501c-.145 0-.219-.076-.223-.229-.004-.156.07-.234.223-.234h6.132v-3.192h-3.8329999999999997l-.135-.066c-.033-.027-.047-.105-.045-.23.002-.127.062-.189.18-.189h3.833v-2.982h-3.788c-.135 0-.207-.078-.215-.23-.01-.156.062-.234.215-.234h6.307l.659-.727c.154-.17.24-.254.264-.252.022.004.132.074.323.217l1.158.877c.124.098.179.18.175.236-.01.078-.087.113-.229.113h-2.761zM174.084 61.799h-10.249v11.746h10.249v-11.746zm-10.187-.482h10.081l.379-.395c.15-.166.253-.246.304-.244.055.004.16.055.318.154l.797.535.303.229.054.07-.014.053-.149.186-.316.367v10.24l.07 2.262c-.041.15-.093.266-.157.334s-.209.133-.439.184c-.229.053-.409.076-.542.07-.333 0-.501-.121-.501-.367v-.965h-10.249v.822c0 .064-.062.148-.184.246-.124.1-.384.154-.787.16-.211.006-.36-.016-.45-.064-.088-.045-.166-.125-.236-.236l.105-2.973v-9.23l-.105-2.055.09-.098c.016-.01.135.035.358.135l1.27.58zm5.763 7.131c-.051-.039-.082-.084-.084-.135s.078-.084.244-.102c.066-.006.409.062 1.035.205.626.145.992.363 1.1.66.111.293.166.5.168.617s-.012.221-.049.307c-.082.211-.195.35-.339.408-.143.062-.248.092-.32.092-.263.008-.44-.07-.532-.232-.096-.158-.184-.359-.259-.6-.08-.238-.18-.434-.293-.584-.113-.148-.237-.285-.378-.406l-.293-.23zm-1.928-1.36v-3.143h-3.176l-.133-.041-.033-.037-.018-.035-.035-.209c0-.1.07-.15.219-.15h6.48l.45-.561c.186-.232.323-.352.411-.355.09-.004.236.084.449.26l.744.639c.199.17.297.293.297.369-.004.082-.051.121-.137.121h-3.731l-.246.273v2.869h1.659l.403-.533c.168-.23.285-.346.348-.348.062-.004.204.09.437.275l.83.701.199.197.012.057c-.012.084-.082.123-.211.123h-3.677v3.879h2.062l.538-.623c.172-.197.283-.303.326-.312.045-.008.152.055.319.189l.905.73c.208.174.317.293.317.359-.008.08-.078.123-.215.123h-1.56v.01h-7.51c-.129 0-.199-.082-.207-.24-.008-.156.061-.236.207-.236h3.273v-3.879h-2.782c-.105-.002-.176-.023-.219-.059-.042-.037-.062-.115-.065-.234-.004-.121.069-.18.216-.18h2.854zM196.117 66.653h18.222c.144-1.061.249-2.051.327-2.969l.281-4.162.144-1.428.047-.537h-17.528l-1.493 9.096zm2.761-19.045l-1.125 8.679h17.408l.353-8.679h-16.636zm19.605 19.045h1.71l1.351-2.012c.422-.623.687-.965.79-1.037.096-.072.47.16 1.109.688l2.78 2.361c.47.426.718.672.748.736l.049.16c-.033.23-.294.342-.797.342h-7.811c-.231 1.256-.472 2.236-.712 2.963-.247.727-.646 1.518-1.206 2.363-.565.848-1.285 1.463-2.164 1.822-.886.367-1.571.615-2.06.742-.495.119-.838.223-1.029.287-.192.072-.335.104-.433.088-.229-.016-.382-.096-.446-.225-.064-.135-.119-.398-.176-.797s-.376-.871-.959-1.422c-.583-.559-1.223-.959-1.909-1.205l-1.188-.328-1.078-.303c-.137-.033-.225-.088-.256-.168l-.055-.209c-.01-.062.016-.127.078-.189.096-.121.289-.17.583-.137l.728.088c1.278.176 2.444.256 3.505.238 1.223 0 2.125-.215 2.716-.629.591-.424 1.014-1.031 1.262-1.83l.399-1.15h-17.688l-.886 1.453c-.312.52-.487.783-.528.809-.041.023-.343-.186-.926-.615l-2.667-1.949c-.399-.279-.591-.471-.567-.566.023-.104.064-.193.135-.271.073-.08.312-.248.721-.504.398-.254.671-.559.813-.902l.185-.727.166-.607.982-6.453h-8.097c-.358 0-.552-.215-.593-.639-.039-.414.16-.631.593-.631h8.425c.096-1.166.286-2.746.575-4.742.288-1.997.456-3.522.503-4.569l.072-1.637v-.814l.149-.088c.059-.008.25.072.593.225l3.586 1.684h15.507l.888-1.285c.374-.527.582-.799.623-.807.039-.008.27.104.687.344l3.346 1.964c.55.327.862.535.951.64.086.104.135.191.143.271.008.08-.15.208-.462.399l-1.47.934-.519 7.483h2.292l1.548-2.361c.328-.512.535-.775.632-.783.094-.008.479.254 1.148.783l2.876 2.361c.511.441.784.76.807.959.023.207-.304.311-.975.311h-8.441c-.078.887-.184 2.316-.305 4.289-.126 1.973-.19 3.035-.19 3.17l-.111 1.127-.05.507zm-15.394-17.943v-.27999999999999997c.016-.096.117-.152.303-.168.126 0 .343.057.654.168l1.477.561c.513.238 1.216.661 2.102 1.276.893.615 1.349 1.406 1.372 2.365.023.957-.206 1.668-.678 2.139-.48.473-1.021.695-1.63.68-.445 0-.839-.111-1.156-.344-.32-.223-.544-.479-.665-.766-.125-.289-.191-.855-.199-1.686-.008-.838-.111-1.518-.304-2.053-.199-.525-.437-.973-.741-1.333l-.535-.559zm-.425 9.759c-.031-.033-.039-.088-.031-.176s.088-.152.248-.199c.087-.018.805.223 2.139.727 1.333.494 2.277 1.182 2.842 2.061.562.869.841 1.611.841 2.219-.018.375-.16.879-.446 1.518-.281.639-.897.959-1.845.959-.737.016-1.225-.191-1.478-.617-.25-.43-.393-.854-.44-1.275l-.07-1.541c-.098-1.094-.479-2.086-1.15-2.971l-.61-.705zm21.314-17.897h-27.463c-.159.199-1.029 1.398-2.618 3.586-1.597 2.195-3.905 4.584-6.931 7.17l-1.007.871c-.312.264-.512.352-.607.264-.088-.08-.145-.176-.152-.264-.008-.096.047-.215.152-.352l.75-1.006 1.055-1.381c.8-1.062 1.646-2.364 2.562-3.906.912-1.549 1.661-2.97 2.246-4.287.58-1.311 1.143-2.65 1.668-4.033.535-1.381.862-2.324.983-2.843l.237-1.006.137-.767.145-.064c.062-.023.423.096 1.076.367l4.537 1.916c.423.185.631.359.631.512-.018.176-.144.296-.399.375l-1.47.496c-1.076 1.652-1.765 2.683-2.059 3.082h21.383l1.447-1.941c.175-.23.327-.471.456-.726.135-.247.286-.329.462-.239.168.08.544.352 1.117.806l2.886 2.315c.429.376.653.639.661.807.01.16-.367.248-1.133.248h-.752zM264.658 37.01c.238.655.48 1.263.741 1.83.258.559.912 1.62 1.966 3.178 1.055 1.566 2.811 3.298 5.271 5.223 2.466 1.916 4.767 3.202 6.905 3.858l1.359.422c.263.088.399.242.407.439.008.209-.096.328-.32.377l-1.188.277c-1.111.273-1.966.617-2.564 1.031-.599.424-1.039.83-1.317 1.23-.287.398-.47.598-.567.598-.279.018-1.174-.559-2.675-1.725-1.51-1.158-2.915-2.611-4.223-4.36-1.311-1.749-2.301-3.25-2.972-4.512-.671-1.27-1.526-3.234-2.563-5.91-1.039-2.676-1.63-4.168-1.788-4.479l-.425-.798c-.088-.152-.129-.265-.111-.337.016-.071.064-.118.16-.151.095-.031.325-.016.703.049l4.75 1.006c.312.072.495.167.552.279l.063.199-.112.216c-.07.128-.127.216-.176.263l-1.876 1.797zm-10.429 2.74c-1.798 2.436-3.602 4.76-5.43 6.971-1.829 2.213-3.602 4.088-5.319 5.631-1.726 1.533-2.953 2.562-3.688 3.098l-1.452 1.055c-.281.199-.472.264-.569.199-.104-.072-.152-.184-.152-.344 0-.152.066-.318.209-.486l1.237-1.334c1.439-1.549 2.819-3.393 4.153-5.534 1.333-2.148 2.419-4.025 3.266-5.639.84-1.613 1.437-2.875 1.779-3.777l.841-2.3.493-1.374c.121-.047.343 0 .655.137l4.839 2.41c.44.232.663.465.671.688.01.232-.184.375-.573.439l-.96.16zm-3.37 13.313h-5.007c-.425 0-.687-.207-.8-.623-.104-.408.16-.615.8-.615h19.278l.98-1.311c.2-.279.368-.422.503-.414.137.008.327.104.599.271l3.53 2.412c.248.182.377.359.377.51-.018.16-.105.287-.258.398l-1.125.801c-.033 1.572-.057 2.969-.072 4.199-.016 1.223-.064 2.691-.151 4.393-.088 1.709-.271 3.41-.573 5.096-.297 1.684-.769 2.961-1.416 3.832s-1.405 1.574-2.277 2.109c-.877.527-1.618.885-2.227 1.078-.608.182-1.006.271-1.188.254-.16 0-.266-.023-.328-.064-.064-.031-.121-.094-.176-.174-.056-.072-.104-.201-.151-.369l-.376-1.221c-.176-.344-.479-.734-.911-1.166-.438-.438-.949-.775-1.548-1.006l-1.749-.68c-.208-.062-.353-.15-.438-.254-.082-.113-.121-.199-.113-.271s.072-.152.199-.248c.121-.096.304-.129.536-.113l2.012.184c1.966.186 3.242.098 3.825-.27.583-.369 1.039-.809 1.367-1.318.327-.52.581-1.359.764-2.531.178-1.166.32-2.557.418-4.154.103-1.596.159-3.729.175-6.395v-2.34h-9.399l-.613.727c-.137 1.557-.289 3.074-.457 4.551-.159 1.471-.511 3.051-1.037 4.736-.528 1.686-1.454 3.314-2.772 4.902-1.317 1.582-2.812 2.844-4.479 3.777-1.669.936-3.179 1.719-4.52 2.34l-1.565.727c-.111.057-.264.088-.454.08-.199-.008-.312-.08-.344-.223-.033-.145.096-.305.375-.486l1.524-1.057c3.817-2.65 6.164-5.182 7.044-7.586.871-2.395 1.421-4.432 1.661-6.1.231-1.67.368-3.043.415-4.105.047-1.07.08-1.662.096-1.766l.046-.517zM327.897 56.895v-11.69h-5.265v11.69h5.265zm-9.105 0v-11.69h-4.862v11.69h4.862zm0-12.961v-7.434l-.093-3.395c.093-.096.19-.159.278-.184l.591.135 4.232.96c.199.063.303.159.295.296-.008.135-.111.271-.295.406l-1.168.91v8.305h5.12l1.197-1.492.185-.256c.127-.048.271-.023.447.072l3.481 2.244.297.223.054.08.041.112c0 .048-.079.144-.247.288l-1.127.934v10.829l.121 3.02c-.047.223-.137.414-.256.598-.129.176-.503.367-1.127.574-.622.201-1.292.297-2.012.281-.606 0-.91-.225-.91-.68v-2.594h-5.265v12.768l.137 3.395c-.184.486-.622.814-1.311.982-.686.176-1.274.264-1.779.271-.495.008-.79-.031-.87-.104-.088-.08-.159-.207-.2-.377l.183-4.703v-12.231h-4.862v2.363c0 .166-.199.432-.599.781-.399.352-1.261.52-2.587.504-.392 0-.616-.049-.687-.145-.074-.096-.104-.256-.104-.486l.183-4.217v-10.381l-.094-4.448.15-.08c.041-.009.201.056.479.2l3.258 1.676h4.864zm-20.114-2.452h4.935l1.638-1.828c.199-.216.328-.328.374-.336.041-.008.145.056.305.199l2.925 2.74.093.158v.14500000000000002c-.016.136-.151.208-.397.208h-10.812c-2.508 3.011-4.385 5.087-5.639 6.222l-1.055.958c-.184.176-.319.232-.407.168s-.129-.127-.129-.191c0-.057.025-.137.074-.232l.79-1.237 1.317-2.013c1.148-1.845 2.195-3.944 3.145-6.317.944-2.371 1.575-4.072 1.903-5.103l.397-1.237c.129-.392.184-.592.168-.607l.023.023.368.136 4.641 2.252c.134.072.247.151.325.216l.129.168s-.039.104-.129.2c-.094.095-.207.151-.325.183l-1.199.328-3.458 4.797zm3.76 8.466c-.12.424-.433.711-.91.869v5.592h2.014l1.708-2.197c.119-.176.223-.254.305-.246.077.008.198.086.374.246l3.057 3.061.121.238c-.016.119-.176.184-.487.184h-7.091v10.572c1.947-.701 4.042-1.523 6.268-2.475l2.246-.957c.344-.145.519-.121.526.055s-.031.303-.128.359l-2.173 1.598c-2.795 2.027-4.887 3.641-6.27 4.838l-2.434 2.109-.703.559c-.064.08-.168-.023-.305-.303l-1.867-3.506-.096-.191c-.049-.129-.064-.199-.049-.232 0-.016.162-.184.487-.494.327-.312.567-.623.704-.936.145-.311.215-.807.215-1.477v-9.52h-6.364c-.249-.016-.433-.064-.552-.137-.119-.078-.193-.295-.225-.639-.03-.342.199-.51.679-.51h6.462v-6.461h-4.961c-.374 0-.598-.209-.654-.63-.062-.415.152-.632.654-.632h9.472l1.733-2.1.209-.264c.096-.016.261.071.495.264l3.201 2.707c.175.158.255.287.255.399-.016.175-.142.255-.392.255h-5.524zM350.427 67.608v-2.074h-5.115v2.074h5.115zm0 2.578v-2.105h-5.115v2.105h5.115zm-5.966-7.957l.078-.207c.035-.08.113-.311.238-.697l.21-.668.123-.518.104-.543.07-.035.353.148 1.465.605c.147.062.237.115.272.15l.049.094c-.002.021-.064.074-.182.143l-.335.191-.604 1.336h5.915l.737-.887c.122-.146.198-.221.235-.225s.135.084.299.262l.967 1.059c.098.111.145.184.141.211-.014.035-.061.055-.141.055h-8.407c-.401.717-.797 1.406-1.183 2.059l.586.299h4.889l.28-.404c.146-.215.239-.322.284-.318.045.002.154.061.33.178l1.033.723.254.203.035.092c.002.037-.055.104-.172.205l-.363.305v8.316c0 .123-.039.295-.116.51-.078.219-.395.422-.95.613-.552.195-.875.285-.967.273l-.09-.027-.078-.205c-.029-.119-.095-.295-.2-.531-.105-.234-.362-.432-.772-.596l-.433-.166c-.121-.041-.176-.098-.164-.168.006-.082.078-.119.219-.113l.501.033c.466.035.797.055.98.055.191.006.316-.02.379-.076.062-.053.097-.156.097-.301v-3.002h-5.115v4.475c0 .1-.043.197-.127.289-.086.094-.217.172-.392.229-.174.061-.344.084-.509.082-.217-.004-.357-.039-.42-.111-.065-.076-.101-.178-.112-.312l.068-1.809v-7.262c-.451.529-.974 1.123-1.566 1.775-.593.654-1.368 1.336-2.331 2.049l-.41.307-.163.059-.088-.033-.002-.059v-.045l.131-.178.323-.342c.626-.658 1.18-1.285 1.663-1.871.481-.59 1.012-1.404 1.583-2.449.573-1.043.928-1.742 1.064-2.1l.246-.648h-4.625c-.178 0-.269-.078-.278-.238-.01-.158.068-.236.231-.236h4.863zM414.693 62.911c-.074.756-.15 1.43-.219 2.02-.072.594-.191 1.293-.364 2.105-.172.814-.479 1.689-.927 2.629-.442.938-1.239 1.9-2.386 2.887s-2.379 1.754-3.692 2.312l-.669.277c-.062.031-.123.039-.174.025l-.08-.049v-.084l.123-.137.649-.41c1.339-.85 2.491-1.875 3.457-3.076.967-1.201 1.605-2.48 1.93-3.832.321-1.357.515-2.557.579-3.604.066-1.049.096-1.713.092-1.998l-.012-.836-.025-.711-.098-.766.051-.031.218.059 2.065.5.179.082.055.104c-.004.039-.049.098-.129.166l-.5.439c.128 1.043.272 2.02.435 2.93.161.914.487 1.916.979 3.01.491 1.096 1.1 2.146 1.831 3.156.727 1.006 1.446 1.797 2.16 2.369.713.568 1.247.934 1.597 1.09l.686.316c.074.039.115.096.115.164-.008.098-.086.143-.231.143h-.604c-.234 0-.495.047-.78.145-.286.098-.495.193-.624.285l-.411.291-.178.107-.096-.066-.431-.463c-.977-1.049-1.838-2.312-2.589-3.795-.753-1.482-1.201-2.781-1.35-3.898l-.632-3.855zM428.237 59.37l.188.041c.115.031.33.127.651.291.316.164.618.365.901.605.284.24.423.531.409.877-.012.348-.102.613-.27.803-.165.191-.407.281-.721.268-.318-.012-.534-.18-.649-.508-.037-.086-.053-.23-.049-.432l-.006-.508c-.018-.205-.049-.375-.096-.514-.049-.137-.115-.264-.2-.383l-.213-.236c-.062-.068-.094-.133-.088-.191.009-.061.057-.096.143-.113m1.869 4.263h-3.851c-.147 0-.218-.08-.218-.236 0-.158.07-.24.218-.24h4.019l.569-.727.086-.076.115.043 1.476.99.072.082.045.074-.027.074-.09.066-.755.281c-.485.645-.785 1.021-.895 1.133l-1.01 1.051.632.291c.057.029.093.072.101.123.006.053-.038.107-.136.166l-.291.174v1.082l.431.033c.135-.303.23-.537.291-.701l.246-.814.2-.65.053-.186c.027-.02.084-.012.166.037l1.113.736c.078.061.116.111.12.158.002.047-.036.078-.12.096l-.342.086-1.313 1.283c.536.129.939.328 1.207.602.263.271.38.602.351.992-.033.389-.211.586-.528.592-.318.006-.524-.057-.614-.189-.09-.131-.219-.41-.382-.834-.162-.424-.457-.75-.878-.977v4.982l.08 1.578c-.029.117-.078.213-.141.285-.065.074-.204.135-.423.18-.214.047-.413.07-.589.074-.179.004-.284-.016-.312-.049l-.062-.162.086-2.152v-5.736c-.928.799-1.581 1.332-1.956 1.596l-.567.404c-.071.051-.122.066-.159.039l-.057-.092.057-.115.675-.701c.487-.502 1.051-1.203 1.688-2.102.642-.898 1.094-1.605 1.357-2.119l.105-.211.157-.314zm5.729 3.948c.037.191.088.416.16.67.067.256.214.604.433 1.047.219.439.552.949.994 1.52.123-.18.268-.4.425-.66.162-.262.363-.707.601-1.344.236-.633.383-1.045.442-1.232h-3.055zm.511-4.055h-1.784v3.564h1.784v-3.564zm0-.483v-2.051l-.055-1.465.072-.053.182.043 1.686.334c.111.023.168.066.172.125.002.062-.037.123-.121.18l-.454.336v2.551h1.755l.499-.613c.043-.045.098-.072.168-.078l.156.078 1.458 1.246c.057.053.088.119.084.197-.002.08-.053.146-.146.197-.039.023-.223.035-.542.035-.263.006-.519.064-.761.176-.241.111-.57.383-.986.816l-.237.246c-.131.135-.211.18-.246.131l-.059-.119.033-.117.156-.395.327-.861.164-.457h-1.823v3.564h1.105l.394-.527c.061-.076.133-.088.219-.037l1.361.879.084.088.035.105c.003.037-.035.066-.119.096l-.412.158c-.286.695-.566 1.34-.846 1.926-.279.588-.708 1.246-1.285 1.98.363.355.868.713 1.521 1.072.652.361 1.206.578 1.66.656l.512.086c.103.025.157.072.157.148-.006.064-.043.105-.104.123l-.5.16c-.317.098-.581.301-.791.613l-.219.314-.146.172-.126-.076-.246-.146c-.245-.146-.544-.344-.898-.59-.353-.246-.937-.785-1.751-1.623-.526.41-1.033.779-1.521 1.105-.489.328-1.051.619-1.69.877-.638.258-1.041.414-1.209.467l-.599.184-.144.018-.084-.045-.021-.051.029-.066.082-.074.631-.301c.205-.092.481-.248.833-.467.351-.221.775-.516 1.272-.885.498-.373 1.061-.93 1.692-1.672-.14-.258-.29-.555-.452-.893-.162-.336-.3-.73-.417-1.189-.115-.455-.209-.949-.28-1.48l-.041-.344-.037-.271h-.923c-.023.504-.055.998-.095 1.482-.043.484-.127.959-.256 1.412-.129.457-.343.971-.649 1.541-.302.568-.647 1.045-1.025 1.422-.38.377-.712.691-.992.943l-.446.4c-.076.066-.133.084-.168.057l-.057-.107.057-.148.315-.387c.444-.545.833-1.152 1.166-1.824.336-.674.546-1.523.63-2.549.084-1.027.125-2.105.123-3.234-.004-1.129-.02-2.039-.049-2.729l-.045-.902-.051-.738.064-.029.223.1 1.255.754h1.792zM458.663 68.44c-.661.49-1.347.977-2.055 1.451-.706.479-1.47.887-2.283 1.229-.819.342-1.368.557-1.653.645l-.396.125-.102.006-.057-.039-.021-.064.074-.088.501-.262c.891-.475 1.655-.99 2.287-1.551.632-.557 1.133-1.033 1.501-1.424.368-.393.62-.672.755-.832l.396-.492.086-.09.123.09 1.341.92c.09.066.133.113.133.15-.006.055-.061.098-.166.121l-.464.105zm-1.994-2.352c-.565.498-1.189 1.018-1.862 1.559-.676.541-1.579 1.102-2.708 1.68l-.376.191c-.105.055-.168.062-.184.027l-.033-.109.066-.109.359-.273c.194-.146.662-.578 1.401-1.293s1.347-1.445 1.831-2.189l.341-.537.123-.268c.029-.018.095.006.2.068l1.492 1.027.045.051.02.08c.004.035-.062.055-.197.061l-.518.034zm-9.025-5.832l.047-.016.096.018c.047.016.272.062.687.141.411.078.824.291 1.232.633.409.34.588.775.533 1.299-.052.521-.36.775-.93.758-.272-.006-.468-.1-.579-.281-.11-.18-.181-.455-.214-.824-.031-.367-.115-.662-.246-.877-.133-.215-.282-.383-.452-.5-.168-.117-.251-.197-.249-.242l.075-.109zm13.193 10.229c-1.9 1.607-3.483 2.695-4.749 3.258-1.268.566-2.755 1.004-4.461 1.312l-.483.086-.113-.002-.057-.094c-.004-.045.035-.084.117-.113l.431-.133c1.486-.449 2.782-1.039 3.896-1.762 1.111-.725 1.987-1.418 2.62-2.076.638-.656 1.062-1.119 1.273-1.389l.413-.537.141-.145.096.049 1.483 1.195c.098.08.15.141.15.184-.008.064-.08.1-.221.111l-.536.056zm-4.291-9.721c.129.357.284.717.462 1.078.18.363.677.967 1.498 1.812.816.844 1.756 1.373 2.814 1.594l.712.148c.076.016.111.049.107.096-.002.045-.039.084-.107.113l-.503.201c-.279.117-.565.383-.859.799l-.227.324c-.039.061-.127.049-.256-.035l-.306-.184c-.79-.467-1.397-1.002-1.819-1.605-.427-.602-.764-1.176-1.016-1.725-.252-.545-.446-1.158-.587-1.838l-.149-.674c-.492.934-.89 1.646-1.191 2.135-.307.488-.69 1.012-1.154 1.572-.467.557-1.006 1.102-1.622 1.635-.618.533-1.026.869-1.217 1.01l-.464.342c-.078.061-.135.062-.178.016-.041-.051-.025-.115.045-.189l.411-.459c.362-.396.714-.818 1.047-1.258.34-.443.788-1.215 1.35-2.32s.941-2.055 1.141-2.842l.185-.736.016-.09c.012-.021.08-.02.203.018l1.992.631c.062.025.098.059.102.104l-.074.107-.356.22zm-8.052 4.711h-2.677c-.139 0-.213-.078-.219-.236-.006-.16.068-.236.219-.236h2.614l.517-.641.092-.08c.02-.01.085.014.19.08l1.299.887.088.059v.01l.01.027c.006.041-.027.084-.098.131l-.677.455v5.738c1.16-.678 1.894-1.113 2.201-1.305l.581-.361c.094-.059.16-.074.201-.047l.072.096c.006.035-.021.084-.08.135l-.587.572c-.505.49-1.1 1.107-1.792 1.85l-1.061 1.141-.491.516-.146.121-.065-.066-.646-1.51-.054-.105.149-.104c.098-.055.176-.135.234-.246.053-.111.088-.27.104-.471.016-.199.021-.434.021-.697v-5.713zM473.797 62.237c-.59.873-1.096 1.582-1.529 2.133l-.413.527c-.092.123-.158.168-.197.135l-.06-.113.048-.189.209-.5c.078-.176.189-.508.333-1 .146-.49.252-.863.318-1.113l.158-.668.077-.438c.047-.018.156.021.324.113l1 .561.216.156.045.107c.002.041-.045.084-.144.123l-.385.166zm-5.633-.184l-.16-.342-.047-.15.092-.068c.068-.006.195.057.378.191.18.135.438.398.778.791.341.393.513.742.515 1.053.004.311-.041.537-.139.684-.161.264-.38.387-.646.369-.231-.008-.38-.088-.458-.24-.076-.156-.12-.291-.136-.404-.014-.113-.02-.238-.014-.375l.035-.568c0-.158-.014-.311-.045-.459-.026-.144-.079-.306-.153-.482zm-.23 3.571l-.164-.074c-.035-.033-.055-.107-.051-.227.004-.121.076-.18.215-.18h2.203v-3.959l-.078-1.482.057-.029c.018-.01.152.018.398.084l1.132.305c.141.041.213.092.219.156.006.061-.033.119-.113.18l-.36.244v4.502h1.334l.463-.686c.09-.129.152-.197.195-.207.041-.008.119.051.236.18l.771.895.135.186-.012.07c-.012.029-.078.043-.195.043h-2.928v1.01c.614.188 1.094.381 1.435.582.341.203.614.447.821.73.202.281.302.557.296.82-.006.131-.037.264-.096.393-.056.129-.153.252-.282.369-.129.115-.275.182-.446.193-.197.02-.355-.039-.472-.17-.117-.133-.201-.309-.246-.531l-.105-.598c-.049-.252-.121-.482-.217-.691-.095-.211-.175-.346-.241-.404l-.446-.404v4.176l.051.953c-.039.178-.152.307-.336.395-.185.084-.388.119-.609.107-.166 0-.273-.033-.33-.096-.055-.066-.09-.154-.102-.266l.072-1.48v-2.729c-.351.484-.636.859-.852 1.123-.219.262-.477.555-.78.877-.306.32-.528.535-.669.65l-.21.164v1.922h4.178l.72-.939.107-.098.146.098.774.826c.313-.557.544-1.084.691-1.584.146-.5.242-1.023.283-1.574.045-.549.086-1.279.115-2.189.033-.91.047-1.537.047-1.881l-.051-2.195v-.396l-.104-1.699.068-.078.413.219 1.174.596c.973-.381 1.845-.816 2.614-1.314l.449-.291.378-.299.059.023.282.275.859.965c.109.129.168.215.168.254-.006.061-.062.094-.168.1l-.551.033c-.066.006-.377.059-.94.158-.56.1-1.636.23-3.219.396l-.037 3.287h3.369l.591-.746c.109-.145.186-.219.227-.221.041-.004.142.07.298.221l.93.957.102.143.014.09c-.006.027-.072.041-.2.041h-1.678c-.11.133-.204.23-.282.287v7.371l.055 1.072c-.025.104-.057.18-.096.227l-.237.18-.309.162c-.086.037-.223.049-.403.037-.186-.006-.312-.043-.372-.111-.062-.066-.105-.16-.129-.275l.09-1.783v-7.166h-1.968l-.066 1.682c-.019.512-.079 1.227-.181 2.152-.104.922-.473 1.832-1.098 2.725-.628.889-1.694 1.705-3.197 2.441l-.52.254-.146.033-.088-.08c-.02-.043.021-.1.121-.172l.481-.322c.719-.486 1.166-.824 1.334-1.01l.535-.572h-5.587l-.355.467c-.124.168-.208.266-.247.293s-.123-.018-.25-.127l-.686-.561-.186-.168v-.07l.15-.186.14-.156v-10.643l-.085-1.537.067-.049c.023-.008.168.025.431.104l1.184.367.178.078.012.084-.092.117-.308.254v9.266c.233-.387.474-.797.716-1.234.243-.434.506-1.027.795-1.775.287-.748.505-1.393.659-1.93h-1.861zM493.675 66.817l.064-.021.1.021.499.207c.3.119.756.377 1.366.771.61.396.911.854.899 1.381s-.133.904-.359 1.129c-.228.225-.478.332-.746.32-.301-.006-.513-.096-.644-.27-.133-.17-.207-.32-.225-.445-.02-.125-.037-.41-.054-.857-.016-.443-.09-.809-.223-1.096-.131-.287-.285-.51-.46-.668-.178-.156-.271-.25-.283-.277l-.012-.094.078-.101m-5.853-6.457l.066-.02c.029-.004.216.064.557.209.338.143.812.404 1.416.785.606.379.902.838.891 1.373-.014.533-.133.914-.36 1.137-.226.221-.476.326-.745.314-.294-.008-.507-.094-.641-.262-.135-.17-.213-.322-.234-.457-.018-.137-.035-.42-.051-.859-.016-.438-.084-.791-.209-1.061-.126-.271-.282-.492-.462-.666-.183-.17-.28-.285-.3-.334-.018-.054.006-.106.072-.159zm4.307 4.457c.474-1.578.787-2.797.939-3.656l.201-1.15.055-.432.039-.027.284.082 1.956.719c.134.053.202.113.202.184-.006.064-.062.123-.167.176l-.578.299c-.397 1.314-.787 2.564-1.167 3.746l4.841-.141.511-.5c.11-.105.185-.156.224-.15l.152.062 1.669 1.078c.104.07.154.139.154.201-.004.061-.062.117-.174.178l-.64.322c-.129 1.061-.329 2.512-.602 4.357-.273 1.846-.72 3.09-1.342 3.738-.624.646-1.195 1.047-1.72 1.201s-.872.24-1.039.26l-.308.033-.15.006-.086-.215-.16-.42c-.057-.152-.195-.342-.409-.562-.219-.223-.411-.387-.581-.492l-.624-.359c-.086-.047-.128-.105-.123-.178 0-.049.031-.088.094-.113l.172-.018.973.273c.347.098.688.148 1.027.152.337.004.698-.08 1.074-.25s.694-.721.956-1.652c.261-.934.47-1.873.631-2.82.162-.949.262-1.59.295-1.924l.195-1.719-5.134.16c-.563 1.529-1.312 3.123-2.252 4.775-.938 1.654-2.692 3.223-5.269 4.717l-.482.279c-.086.053-.146.066-.18.035l-.053-.104c-.004-.043.025-.088.084-.143l.491-.395c.14-.111.509-.461 1.102-1.049.593-.586 1.292-1.43 2.096-2.535.806-1.102 1.694-2.949 2.671-5.549l-5.868.186c-.07.004-.133-.016-.189-.057-.055-.045-.083-.111-.087-.205-.002-.09.019-.148.065-.18.049-.027.133-.045.256-.051l5.975-.173zM519.035 67.493h-1.922v1.465h1.922v-1.465zm0 1.957h-1.922v.332c0 .129-.102.23-.306.303-.207.074-.392.113-.558.117-.166.002-.275-.027-.32-.092-.049-.059-.078-.123-.09-.188l.055-.895v-1.393l-.055-1.141.076-.037.32.123.877.422h1.851l.396-.508.119-.094.199.094.867.576.184.152.023.072-.066.102-.281.314v1.316l.051.562c-.021.074-.1.174-.229.293-.128.119-.358.182-.691.189-.334.006-.5-.07-.5-.229v-.39zm-5.465-1.957h-1.949v1.465h1.949v-1.465zm-1.949 1.957v.309c0 .051-.031.104-.094.16-.061.055-.163.109-.313.16-.15.047-.3.068-.452.066-.191 0-.307-.031-.338-.086l-.059-.18.055-.922v-1.254l-.072-1.178c.061-.025.168-.008.326.055l.947.422h1.808l.323-.422c.049-.062.098-.096.15-.096l.178.068.938.58.119.105.012.096-.078.105-.246.227v1.361l.033.562c-.051.152-.182.26-.396.322-.209.066-.409.1-.604.102-.191.004-.287-.084-.287-.256v-.306h-1.95zm-5.755-6.09l-.166-.271-.033-.086.016-.072.123-.043c.104 0 .317.088.636.266.319.172.586.391.799.652.213.26.318.541.311.844-.012.281-.113.521-.309.723-.191.197-.413.293-.664.287-.299 0-.498-.09-.594-.275-.095-.184-.144-.342-.144-.471-.006-.057.021-.229.081-.51.062-.279.092-.443.092-.49l-.057-.258-.091-.296zm4.113-1.527h3.983c-.088-.098-.141-.184-.166-.256l-.037-.225.002-.16.055-.377.008-.219-.041-.254c-.018-.074-.09-.186-.213-.332l-.237-.273-.098-.131.023-.055.145-.051c.129 0 .452.068.969.209.519.143.872.352 1.061.633.191.281.285.516.285.701-.006.311-.123.574-.352.789h3.557l.69-.857c.066-.082.116-.123.159-.121.041.004.131.055.273.156l1.123.859.179.174.033.15c.002.064-.088.096-.276.096h-11.37c-.006.691-.006 1.408-.002 2.148.002.744 0 1.307-.006 1.688-.047 1.883-.238 3.324-.573 4.322-.338 1.002-.81 1.826-1.414 2.473s-1.033 1.072-1.284 1.275l-.589.482c-.082.066-.145.096-.189.092l-.082-.035-.014-.047.029-.098.09-.148.534-.623c.487-.566.861-1.188 1.129-1.857.266-.668.458-1.26.575-1.779.117-.518.202-1.109.263-1.779l.059-.699c-.729.492-1.362.934-1.895 1.324l-.464.342-.281.23c-.059.029-.105-.023-.142-.15l-.4-1.369-.055-.158c.012-.02.135-.049.369-.096l.842-.16c.444-.08 1.119-.236 2.025-.463v-.914l-.018-1.674c-.006-.719-.014-1.203-.023-1.449l-.082-1.447-.067-.605.077-.07.318.121 1.375.668h.14zm7.337 3.361v-1.236h-3.983v1.236h3.983zm-.107-1.719l.448-.518c.051-.064.1-.098.143-.098l.245.123.886.633.083.084.033.082c.004.029-.034.076-.116.139l-.264.213v.945l.027.811c-.114.301-.415.455-.914.455-.252.006-.392-.025-.421-.088-.031-.066-.043-.145-.043-.236v-.344h-3.983v.309l-.062.191c-.041.072-.136.141-.29.207-.15.068-.324.098-.52.092-.173 0-.292-.023-.353-.072l-.138-.164.055-1.16v-1.279l-.078-.912.076-.053c.018-.008.124.035.319.123l1.078.518h3.789zm-5.525 10.492h2.728v-2.025l-.113-1.756.113-.041.193.041 1.526.326c.066.016.1.057.102.117.004.062-.057.135-.18.215l-.246.168v2.955h2.748v-1.719l-.082-1.422.045-.045.333.062 1.448.324.141.062.049.094c.002.035-.045.104-.146.201l-.271.273v1.738l.06 1.289c-.079.188-.241.318-.479.396-.236.076-.443.109-.617.104-.157 0-.278-.027-.36-.092-.081-.061-.12-.131-.12-.217v-.576h-6.844l-.353.473c-.156.213-.25.318-.271.32l-.157-.094-.933-.664-.134-.131.021-.064.113-.086.178-.15.102-.154c.024-.072.038-.182.038-.326v-1.389l-.052-1.418.052-.037.211.053 1.395.344c.111.025.165.07.159.131-.006.057-.06.123-.159.193l-.236.176v2.351zM532.773 60.028l-.273-.264c-.051-.047-.078-.105-.074-.17.002-.07.059-.1.172-.094.362.029.863.174 1.501.438.636.264.955.611.959 1.039.002.432-.103.764-.315 1-.213.24-.47.35-.767.338-.241-.006-.429-.08-.563-.227s-.212-.291-.235-.434c-.023-.145-.033-.314-.029-.514.002-.199-.008-.355-.025-.467-.053-.249-.17-.465-.351-.645m-6.949 4.033l-.211-.367-.018-.102.088-.082c.057-.006.191.051.398.172.21.119.519.338.926.658.409.316.608.713.599 1.186-.006.189-.086.398-.24.631-.149.238-.376.346-.675.328-.198-.006-.358-.082-.477-.225-.121-.145-.184-.324-.189-.539v-.312l.01-.398c-.006-.17-.021-.332-.049-.488-.027-.155-.08-.308-.162-.462zm3.806-1.727h8.906l.737-.928c.099-.123.173-.184.224-.182.049 0 .148.061.294.182l1.115.936.166.189.072.141-.086.086c-.061.033-.129.049-.206.049h-11.24c-.006.662-.006 1.365-.002 2.115.002.748 0 1.312-.006 1.693-.021.818-.076 1.605-.155 2.359-.084.756-.221 1.418-.406 1.982-.188.566-.466 1.096-.84 1.586-.375.488-.753.912-1.129 1.275-.379.363-.685.637-.916.824l-.597.475c-.066.051-.121.074-.162.066l-.082-.043-.014-.068.1-.158.554-.615c.209-.232.448-.553.717-.961.271-.404.514-.871.728-1.396.217-.527.384-1.104.499-1.729.113-.627.182-1.15.207-1.57l.051-.844c-.902.613-1.463 1.01-1.685 1.186l-.554.428-.281.256c-.068.047-.126.014-.165-.096l-.481-1.256-.084-.248.023-.047c.016-.02.117-.047.306-.082l.868-.141.965-.219 1.088-.254.008-.965v-1.318c0-.619-.002-1.027-.008-1.227l-.088-1.51-.072-.551c.072-.096.24-.082.509.041l1.122.539zm1.396 11.801v-4.977l-.086-1.41.064-.049.161.031 1.562.395c.112.027.169.078.173.15.002.068-.039.127-.12.182l-.342.219v5.459h1.965v-8.459h-4.238l-.045-.01-.135-.061c-.033-.023-.056-.098-.073-.223-.018-.127.063-.189.253-.189h7.844l.571-.729c.11-.139.194-.209.255-.209l.096.043 1.334 1.008c.115.094.174.168.168.219-.018.102-.117.15-.301.15h-3.843c-.129.152-.259.291-.394.412v3.178h1.877l.64-.809c.059-.074.117-.117.178-.119.057-.004.134.039.235.119l1.043.887.111.133.057.107-.072.09c-.051.033-.119.047-.201.047h-.535v.027h-3.332v4.387h2.7l.694-.854.142-.107c.031-.002.125.051.273.162l1.146.912.13.154.045.092c-.006.076-.109.115-.313.115h-12.415l-.145-.064c-.039-.029-.062-.104-.072-.227-.008-.123.076-.184.252-.184h2.693zM382.229 74.924c1.472-.197 2.63-.463 3.486-.799.869-.326 1.577-.812 2.121-1.473.556-.658.973-1.436 1.24-2.34.276-.902.474-1.887.614-2.941.138-1.055.208-2.354.22-3.916.012-1.564-.059-3.174-.22-4.854-.174-1.611-.465-3.023-.847-4.264-.382-1.229-.938-2.281-1.646-3.174-.718-.881-1.608-1.588-2.688-2.131-1.064-.545-2.328-.823-3.774-.847-2.039 0-3.65.349-4.819 1.043l-3.291 1.773c-.115 1.355-.209 2.572-.254 3.66-.059 1.09-.082 2.225-.059 3.395 0 1.285.082 2.688.242 4.17.151 1.496.44 2.932.846 4.322.405 1.379.894 2.605 1.461 3.695.567 1.088 1.192 1.945 1.889 2.594.683.65 1.411 1.113 2.164 1.391.756.28 1.869.511 3.315.696m12.999-47.103v.985c-2.062.22-3.718.498-4.97.821-1.263.337-2.653.938-4.158 1.808-1.519.869-2.782 1.715-3.788 2.525-1.008.811-1.992 1.748-2.956 2.804-.959 1.054-1.816 2.189-2.558 3.405-.753 1.229-1.252 2.213-1.495 2.954l-1.901 5.027c1.669-.892 3.003-1.528 3.985-1.923.986-.394 2.145-.729 3.477-1.02 1.343-.277 2.677-.382 4.008-.289 1.182.092 2.316.348 3.43.764 1.111.418 2.166 1.008 3.162 1.773.984.753 1.772 1.564 2.352 2.422.579.857 1.078 1.9 1.495 3.127.417 1.217.683 2.455.798 3.707.117 1.262.129 2.584.035 3.961-.115 1.6-.348 3.152-.718 4.646-.358 1.494-.902 2.953-1.646 4.379-.729 1.424-1.655 2.641-2.769 3.648-1.1 1.008-2.444 1.82-3.997 2.445-1.563.625-3.497.904-5.804.834-1.819-.047-3.359-.301-4.634-.754-1.285-.451-2.467-1.066-3.545-1.83-1.088-.764-2.039-1.609-2.839-2.514-.799-.904-1.552-2.154-2.258-3.766-.694-1.609-1.204-3.209-1.528-4.818-.313-1.609-.499-3.58-.534-5.908-.047-2.328.047-4.287.302-5.873.197-1.309.557-2.711 1.066-4.206s1.054-2.803 1.609-3.939c.567-1.123 1.274-2.293 2.107-3.498.834-1.193 1.936-2.421 3.291-3.672 1.356-1.264 2.826-2.422 4.402-3.487 1.563-1.055 3.221-1.935 4.97-2.63 1.736-.683 3.476-1.193 5.189-1.506 1.716-.313 2.886-.463 3.5-.439l2.92.037z"/></g></svg>