<svg xmlns="http://www.w3.org/2000/svg" width="640" height="146.096" viewBox="0 0 640 146.096"><path fill-rule="evenodd" clip-rule="evenodd" fill="#A91F27" d="M70.343 71.026l27.026-27.026h448.095l27.026 27.026c-2.671 2.671-2.671 7.046 0 9.717l-27.026 27.025h-448.095l-27.026-27.025c2.673-2.671 2.673-7.046 0-9.717"/><path fill="#fff" d="M129.634 73.842l.155-10.135c0-.955-.419-1.38-1.265-1.271l-13.784.156v5.065l13.468-.308c.526.308.526.627 0 .943l-13.468.163v5.541l14.894-.154zm-5.068 2.054l-.636 1.111-.164 4.749 11.09-.312 2.69-2.851 3.334 3.006c.1.32 0 .473-.319.473l-16.795.479v3.646l.164 5.697c-.427 2.004-1.534 3.485-3.326 4.437-.526.211-.844.047-.951-.479l.315-6.492.156-6.652-10.454.156c-1.898.109-3.381.32-4.434.636l-1.427-1.427 16.314-.316v-2.371l-.156-4.597h-5.067c-.426 1.053-1.27 2.008-2.535 2.851-.315.21-.526.265-.636.155-.099 0-.153-.155-.153-.472l.153-6.652v-5.7l-.153-5.069 3.479 1.899 14.578-.156 1.736-1.899 3.806 2.371c.107.109.154.266.154.476l-1.263 1.424v3.806l.155 3.17c.107 2.008-.898 4.008-3.008 6.017-.425.425-.79.315-1.107-.32-.318-.846-.737-1.528-1.271-2.055l-7.439.156 3.17 1.105zM178.988 91.896c0 .74-.526 1.642-1.587 2.694-.846.635-1.427.472-1.739-.473-1.378-3.068-2.959-5.178-4.757-6.34-.102-.109-.156-.211-.156-.315.109-.211.211-.266.32-.156 5.276 1.898 7.919 3.431 7.919 4.59m-23.918-22.492c-.215.842-.581 1.587-1.107 2.215-.425.218-.743.163-.953-.156-1.479-2.534-3.115-4.434-4.911-5.701-.102-.319-.049-.421.16-.319 1.161.319 2.427.796 3.798 1.427l3.806-5.86-9.982.472c-.417-.308-.472-.581-.156-.787l10.139-.476 1.742-1.743 3.163 2.219c.218 0 .218.159 0 .479l-1.735.943-6.341 4.913c.636.32 1.318.628 2.063.947.314.316.416.799.314 1.427zm13.301 2.215c-.102-.211 0-.312.319-.312l3.168 1.111c.318.102.373.309.154.628l-.472.951-.156 6.021c.102 6.762-5.283 12.357-16.158 16.791-.211 0-.318-.109-.318-.32-.099-.109-.053-.21.162-.315 9.077-4.017 13.517-9.612 13.301-16.787l.163-3.17c0-.736-.055-1.638-.163-2.69v-1.908zm-13.144 2.854c-.417.316-.636.741-.636 1.268l-.156 8.867.156 4.753c-.209 2.324-1.688 4.332-4.434 6.021-.315 0-.472-.156-.472-.472 0-1.271-.526-2.172-1.587-2.698-.211-.211-.211-.366 0-.472 2.324.206 3.33-.266 3.014-1.428v-16.95h-2.698c-1.688.109-3.115.266-4.277.48l-1.264-1.115 14.731-.628 1.584-1.587 3.323 2.534c.318.425.209.741-.317.951-1.162.211-2.745 1.002-4.751 2.379-.318.312-.42.211-.318-.315l.636-3.015-5.385.16 2.694.947.156.164c.11 0 .11.051.001.156zm12.184-12.513c-1.581 0-3.17.102-4.751.32l-.789-.951 13.779-.32 1.899-2.215 2.534 2.379c.107.102.154.206.154.308 0 .109-.102.164-.317.164l-10.139.156 2.534.635c.219 0 .219.105 0 .316l-.945 1.107c-.953 1.481-2.115 3.01-3.487 4.597l6.024-.163 1.263-1.579 3.015 1.898c.208.211.208.371 0 .472l-.8 1.107.164 5.869.156 4.905c-.211 2.117-1.003 3.906-2.375 5.385-.425.429-.741.581-.951.476-.211 0-.318-.266-.318-.792l-.153-16.95-7.924.32v13.78c0 1.368-.688 2.748-2.059 4.121-.528.417-.847.315-.947-.319l.155-6.969v-8.235l-.155-4.125c0-.308.101-.417.317-.308l2.845 1.263.953-.156c.427-1.481.844-3.225 1.27-5.232.101-.632.21-1.053.312-1.264h-1.264zM193.019 60.853l1.587-1.587 2.69 2.063c.317.206.263.472-.156.787l-.796.792c-1.263 2.219-2.9 4.804-4.907 7.763 4.226 3.381 6.231 6.442 6.022 9.188-.218 2.323-1.744 4.066-4.597 5.229-.209.102-.316.047-.316-.16.316-1.372-.155-2.374-1.427-3.006-.211-.32-.156-.476.156-.476 1.688.21 2.534-.105 2.534-.952.425-3.38-.63-6.651-3.162-9.822.735-2.323 1.472-4.963 2.215-7.919.102-.526.21-.896.317-1.107l-4.277.315-.317 20.276.155 7.76c-.21 2.64-.947 4.648-2.217 6.021-.629.526-1 .526-1.109 0l.32-10.618.472-26.288 2.851 1.898 3.962-.157zm8.554 5.385c-1.581 0-3.007.155-4.277.476l-1.264-1.271 8.867-.156.315-6.812 3.962.955c.317.207.37.472.156.788l-.318 1.263-.474 3.806 6.341-.159 1.898-2.219 2.851 2.378c.102.32.055.526-.16.636l-13.936.156-.164 7.128 6.34-.16 1.581-2.055 3.645 2.055c.214.109.159.262-.156.479l-1.109 1.428-.634 13.46c-.319 2.534-1.846 4.644-4.597 6.332-.211.109-.365.109-.473 0-.21-.101-.265-.265-.155-.472 0-1.271-.425-2.117-1.271-2.534-.208-.109-.263-.211-.156-.32 0-.104.102-.155.318-.155 1.792 0 2.638-.632 2.536-1.903l.628-15.363h-6.496c.534 9.401-5.169 17.052-17.104 22.967-.208.105-.372.051-.474-.155-.107-.109-.053-.211.156-.32 9.609-5.385 14.307-12.777 14.098-22.171l.317-8.079h-.791zM225.904 86.514l.634-.635 7.122 4.589c1.589 1.478 1.69 2.96.32 4.441-.948.842-2.009.262-3.171-1.747l-4.905-6.648zM287.774 73.842l.156-10.135c0-.955-.422-1.38-1.266-1.271l-13.786.156v5.065l13.469-.308c.526.308.526.627 0 .943l-13.469.163v5.541l14.896-.154zm-5.069 2.054l-.636 1.111-.161 4.749 11.089-.312 2.689-2.851 3.333 3.006c.102.32 0 .473-.319.473l-16.792.479v3.646l.161 5.697c-.425 2.004-1.534 3.485-3.325 4.437-.526.211-.845.047-.952-.479l.318-6.492.153-6.652-10.453.156c-1.899.109-3.379.32-4.434.636l-1.426-1.427 16.312-.316v-2.371l-.153-4.597h-5.069c-.427 1.053-1.27 2.008-2.534 2.851-.318.21-.526.265-.636.155-.102 0-.154-.155-.154-.472l.154-6.652v-5.7l-.154-5.069 3.479 1.899 14.579-.156 1.735-1.899 3.806 2.371c.109.109.156.266.156.476l-1.264 1.424v3.806l.154 3.17c.106 2.008-.899 4.008-3.007 6.017-.427.425-.789.315-1.109-.32-.315-.846-.737-1.528-1.271-2.055l-7.44.156 3.171 1.105zM325.566 61.009c3.478 1.162 5.385 2.324 5.702 3.486 0 1.162-.688 2.164-2.061 3.01-.846.425-1.481.207-1.898-.636-.109-2.429-.8-4.227-2.063-5.389-.106-.206-.159-.362-.159-.472.107-.109.268-.109.479.001m1.744 16.478l-10.456.308c1.265 2.96 2.953 5.439 5.069 7.448 1.898-2.215 3.696-4.804 5.387-7.756zm-10.456-19.484l5.223 1.898c.211.109.211.262 0 .472.109 0 .109.055 0 .164l-.943.636c-.427 3.061-1.162 6.277-2.225 9.654l12.671-.156 2.534-2.694 3.17 3.015.162.156c0 .104-.107.21-.317.315l-18.529.319c-.636 1.688-1.381 3.432-2.223 5.226l11.089-.156 1.743-2.219 3.642 2.375c.211.214.156.37-.161.479l-1.109 1.107c-2.215 3.271-4.643 6.067-7.284 8.392 3.062 2.218 7.502 3.906 13.307 5.068.317.211.372.476.153.792-2.214.21-4.27 1.481-6.176 3.806-3.798-2.223-7.069-4.757-9.818-7.604-3.907 2.745-8.766 5.33-14.572 7.76-.208.104-.37.054-.472-.156 0-.109.102-.219.316-.32 6.017-3.17 10.45-6.281 13.3-9.346-1.688-2.535-3.061-5.596-4.113-9.191h-.156c-3.17 6.13-7.766 11.882-13.788 17.267-.208.109-.364.109-.472 0-.101-.102-.101-.262 0-.472 6.021-6.442 10.246-13.987 12.671-22.651h-6.015c-.636.951-1.532 1.587-2.696 1.903-.636.101-.953-.055-.953-.48l.797-3.957 1.426-8.552c0-.315.155-.479.476-.479l3.486 1.907c.21.102.21.362 0 .791l-2.223 7.92h6.021c1.05-4.223 1.739-8.556 2.058-12.989zM342.13 62.592c-.421-.102-.476-.366-.155-.791l10.292-.32 1.743-1.735 2.378 1.899c.211.211.211.37 0 .472l-5.858.164-.315 10.766 1.579-.156 1.743-1.583 1.9 1.899c.209.319.162.476-.156.476l-5.066.16-.32 11.557 6.017-1.583c.316-.104.425 0 .316.32l-7.92 4.277c-2 1.053-3.536 1.898-4.589 2.534h-.162c-.209.211-.364.211-.474 0l-2.062-2.85-.155-.32c.102-.109.208-.156.317-.156 1.475-.214 3.217-.635 5.226-1.271h.472l.164-12.354-4.118.156c-.215 0-.37-.102-.479-.312 0-.215.109-.371.319-.48l4.278-.155.153-10.771-5.068.157zm31.534-.312v9.502l.159 5.857c-.106 1.583-1.061 3.17-2.85 4.753-.528.526-.899.472-1.109-.156v-19.012c.104-1.264-.581-1.845-2.062-1.743l-7.439.32-.164 15.839c-.208 1.898-.951 3.435-2.215 4.597-.21.211-.427.316-.635.316-.211 0-.32-.16-.32-.479l.164-8.548.156-10.617-.156-3.798 3.326 1.742 8.237-.315 1.898-2.062 3.798 1.898.318.164c0 .102-.102.211-.318.315l-.788 1.427zm-10.626 2.534l3.488 1.424c.317.104.364.312.154.631l-.636 1.107c-.102 2.851-.309 5.439-.628 7.764l3.008 1.583c.209.109.209.266 0 .472l-.635 1.115-1.582 9.975c-.317 1.373.102 2.164 1.264 2.379 2.217.21 4.223.155 6.021-.16.955-.211 1.692-1.209 2.219-3.006.107-.211.263-.32.472-.32.217.109.266.266.164.472-.211 1.373 0 2.434.634 3.17 1.156 1.482.736 2.645-1.27 3.49-2.644.526-5.387.581-8.239.152-2.534-.632-3.642-2.586-3.324-5.857l.79-10.609v-.479c-.628 6.972-6.333 13.25-17.104 18.849-.209.105-.317.105-.317 0 0-.21.055-.366.161-.476 6.76-4.113 10.873-8.075 12.355-11.881 2.107-3.905 3.114-10.503 3.005-19.795zM384.044 86.514l.636-.635 7.122 4.589c1.589 1.478 1.689 2.96.317 4.441-.947.842-2.008.262-3.17-1.747l-4.905-6.648zM445.913 73.842l.156-10.135c0-.955-.419-1.38-1.264-1.271l-13.787.156v5.065l13.47-.308c.526.308.526.627 0 .943l-13.47.163v5.541l14.895-.154zm-5.068 2.054l-.636 1.111-.162 4.749 11.09-.312 2.69-2.851 3.332 3.006c.102.32 0 .473-.318.473l-16.794.479v3.646l.162 5.697c-.425 2.004-1.532 3.485-3.324 4.437-.526.211-.845.047-.953-.479l.317-6.492.156-6.652-10.456.156c-1.897.109-3.379.32-4.434.636l-1.425-1.427 16.314-.316v-2.371l-.156-4.597h-5.069c-.425 1.053-1.269 2.008-2.532 2.851-.317.21-.528.265-.636.155-.102 0-.155-.155-.155-.472l.155-6.652v-5.7l-.155-5.069 3.479 1.899 14.577-.156 1.737-1.899 3.804 2.371c.109.109.156.266.156.476l-1.264 1.424v3.806l.156 3.17c.107 2.008-.898 4.008-3.008 6.017-.426.425-.79.315-1.107-.32-.318-.846-.737-1.528-1.271-2.055l-7.441.156 3.171 1.105zM461.842 70.512c3.277 1.372 4.913 2.796 4.913 4.277-.208 1.053-.898 1.798-2.061 2.219-1.055.105-1.636-.266-1.743-1.111-.102-2.004-.63-3.696-1.581-5.069-.109-.102-.109-.206 0-.315.108-.103.264-.103.472-.001m5.069-10.294c3.277 1.263 5.069 2.69 5.387 4.277-.104 1.267-.846 2.164-2.217 2.69-1.055.109-1.636-.262-1.745-1.107-.317-2.426-.891-4.277-1.734-5.541-.11-.319 0-.425.309-.319zm4.44 11.245l-3.643 16.786c-.216 1.064-.317 1.954-.317 2.698 0 .102.055.316.156.636 0 .417.107.792.317 1.107.318.628.264 1.209-.156 1.739-.742.741-1.641 1.162-2.696 1.268-.635.108-.947-.262-.947-1.107.104-.636.156-1.479.156-2.535.21-.74-.264-1.317-1.425-1.743-.211-.315-.156-.472.155-.472.954.211 1.587-.108 1.905-.955l6.015-17.578c0-.214.108-.269.317-.159.11-.001.163.104.163.315zm6.65 9.503v9.818h9.502l-.155-10.135-9.347.317zm9.502-13.461c-.102-.21-.102-.374 0-.476.107-.105.264-.105.479 0 4.007 2.43 6.122 4.063 6.333 4.909.208.316.208.788 0 1.423v.164c-.526 1.053-1.162 1.845-1.899 2.371-1.162.526-1.797.374-1.898-.472-.109-1.162-.318-2.219-.636-3.17-7.812 1.271-13.098 2.323-15.841 3.17-.419.109-.683 0-.792-.32l-.633-2.687c-.102-.319-.055-.479.161-.479.946-.102 1.634-.421 2.055-.947 2.533-2.749 4.805-7.022 6.811-12.833.109-.319.265-.366.474-.155 0-.109.055-.109.162 0l3.17 2.215c.312.21.211.53-.317.955-2.217 3.268-5.231 6.804-9.029 10.609l13.462-.163c-.636-2.109-1.319-3.478-2.062-4.114zm-.317 12.197l1.589-2.379 3.798 2.215c.215.109.215.266 0 .479l-.947 1.428.155 9.187.318 1.107c.107.105.107.156 0 .156 0 .104-.156.159-.474.159-3.905-.21-8.448-.315-13.624-.315v1.107c-.209 1.162-.899 2.27-2.062 3.326-.317.206-.581.261-.791.159-.209-.104-.316-.37-.316-.791v-12.355l-.155-4.434c0-.211.055-.375.155-.477.107 0 .215.055.316.156l2.853 1.587 9.185-.315zM503.122 65.606c2.85 1.053 4.33 2.051 4.432 3.006 0 1.162-.418 2.009-1.264 2.535-.845.315-1.316.159-1.426-.477-.108-2.113-.736-3.696-1.898-4.749-.209-.213-.162-.315.156-.315m18.692 8.076l2.217.791 4.114-5.544-7.92.319c-2 .211-3.479.472-4.434.792l-1.425-1.428 14.096-.636 1.899-1.583 3.332 2.854c.102.102.155.262.155.472-.106.109-.263.164-.474.164-1.479.308-4.332 1.953-8.555 4.905l1.589.472c.209.109.264.273.154.479v.156c-.316.21-.581.636-.79 1.271v7.283l.154 4.753c-.209 2.641-2.006 4.859-5.385 6.648-.102.219-.211.266-.318.164-.102-.109-.155-.319-.155-.636 0-1.481-.581-2.589-1.743-3.326l-.156-.315c.102-.109.211-.109.318 0 2.636 0 3.743-.476 3.325-1.428v-9.183c0-2.753-.108-5.178-.319-7.287.002-.212.111-.267.321-.157zm-12.834-12.989c0-.32.107-.422.317-.32l3.804 2.219v.16l7.124-.16.318-4.909 4.595.955c.209 0 .209.156 0 .473-.526.526-.846 1.688-.953 3.481l5.866-.156 2.217-2.218 2.853 2.374c.209.316.156.479-.162.479l-22.175.636-.162 10.926c.534 9.713-4.379 17.106-14.726 22.176-.208 0-.317-.109-.317-.32-.107-.109-.053-.21.156-.315 7.921-4.228 11.779-11.565 11.562-22.02-3.271 3.696-5.696 6.656-7.285 8.875-.526.736-1.055 1.053-1.581.951-.526-.215-.688-.69-.48-1.427.636-1.479.845-2.796.636-3.958.526.943 3.434-.9 8.711-5.549v-6.808c0-1.903-.101-3.748-.318-5.545z"/><path fill-rule="evenodd" clip-rule="evenodd" fill="#A72027" d="M578.142 70.539c3.032 0 5.492 2.46 5.492 5.494 0 3.029-2.46 5.49-5.492 5.49-3.033 0-5.492-2.461-5.492-5.49-.001-3.034 2.458-5.494 5.492-5.494M65.054 70.539c3.031 0 5.492 2.46 5.492 5.494 0 3.029-2.461 5.49-5.492 5.49-3.032 0-5.492-2.461-5.492-5.49 0-3.034 2.459-5.494 5.492-5.494"/><path fill="none" d="M0 0h640v146.096h-640z"/></svg>