<svg xmlns="http://www.w3.org/2000/svg" width="640" height="377.773" viewBox="0 0 640 377.773"><path fill-rule="evenodd" clip-rule="evenodd" fill="#D9B766" d="M438.025 32.188c-1.772-3.758-3.221-4.939-5.853-7.301.108-.269.216-.537.323-.752 5.475 0 6.441 1.127 6.656 6.925-.697 1.021-.697 1.021-1.126 1.128m-6.282 7.516c1.504-6.818-1.182-7.57-2.63-12.671 2.201 0 3.866 3.007 4.993 5.208.322 2.739.053 4.457-1.289 7.301-.376.053-.752.107-1.074.162zm-10.683 7.141c-.215-.164-.429-.324-.589-.486 0-2.844 1.18-6.12 1.556-8.911-.214-1.557-.429-3.061-.644-4.563-1.986-3.544-1.986-3.544-2.898-5.96 7.999.859 11.327 2.31 11.327 11.489-1.558 4.134-4.886 6.766-8.752 8.431zm-43.538 6.925c-4.619-.914-6.549-5.693-9.45-6.82-2.254 4.402-1.933 4.726-6.228 5.369-4.562-1.934-5.045-5.693-4.402-9.556.377 0 1.987-3.006 2.254-3.382 4.781-3.221 5.531-4.08 11.597-2.309-2.63-8-1.556-9.126 2.256-16.267 3.168-2.041 5.101-3.221 9.071-3.973 9.184 0 13.853 2.469 13.424 12.831 7.406-3.597 13.957-4.026 19.379 3.383.377 1.45.806 2.899 1.234 4.348-.374 7.033-4.295 14.602-11.863 15.838-6.764 0-10.039-.913-10.577-7.409.967-4.349 2.256-4.993 6.389-5.798 5.37 2.256 3.974 4.617 2.523 9.343 3.921-.807 4.295-4.402 4.616-7.518-1.824-7.408-8.857-7.086-13.474-3.597-.376 0-.753 0-1.074.054-3.113-4.832-5.208-7.14-10.413-7.14-6.927 3.167-8.43 5.368-7.304 13.206.753.86 1.506 1.72 2.254 2.632.324 0 .647 0 1.021.053-.805-1.611-.374-3.059-.323-4.349 3.008-9.771 13.371-5.153 10.47 4.833-3.435 4.563-5.798 5.85-11.38 6.228zm85.628 8.536c-2.524-1.074-3.221-.915-3.866-3.275 2.363-3.385 5.529-7.463 3.328-11.437 0-.429.055-.803.109-1.182 3.435-1.716 7.246.967 9.5 3.973 2.793 7.304-2.146 11.061-9.071 11.921zm10.899.588c.374-1.556 1.234-3.059 1.663-4.509 3.328-4.778-.806-10.791-3.49-13.797-.053-.267-.107-.534-.107-.751 4.938-2.201 5.208-1.664 10.363.27 3.221 3.542 5.26 7.247 2.36 12.292-3.383 3.865-5.851 5.797-10.789 6.495zm-45.581 14.98c-3.328-.751-7.784-3.006-2.844-4.779 5.207-4.617 5.529-7.139 2.898-13.207-9.343-9.339-18.307 5.853-11.435 7.194-.376-3.649 1.718-6.763 5.582-5.905 1.558.965 2.577 1.665 3.813 3.704 0 3.223-2.577 5.477-5.048 7.194-6.496.75-12.562-.591-14.119-6.818 0-4.402-.644-6.765 3.651-8.321 1.127-.857 2.254-1.665 3.436-2.47 3.328-3.543 3.166-4.562 8.697-3.543 2.309 1.234 4.725 3.167 6.818 5.691.267-.107.536-.162.805-.217 1.234-6.172 3.221-10.415 7.623-14.816 4.831-2.846 8.697-2.201 14.334-.429 2.899 2.736 5.853 5.957 5.529 10.952-2.039 6.656-3.649 7.678-9.609 10.629-6.388.267-7.785-1.289-7.785-6.873 1.72-5.153 8.269-5.207 7.839 1.503.215 0 .43 0 .646.055 2.576-4.617 1.072-8.107-3.438-9.663-8.32 0-10.253 4.079-10.576 11.487 3.006 7.837 7.355 9.341 15.946 7.623 5.958-3.759 6.441-4.348 6.925-4.402.912 3.221-.753 7.302-2.792 10.039-4.94 3.542-7.623 3.328-12.454 1.181-1.289-.913-1.934-1.717-3.168-1.717-3.758 4.03-6.066 5.691-11.274 5.908zm17.717 5.905c-2.361-.324-4.778-.807-6.711-1.45-5.422-2.897-.269-1.931 1.558-4.402 1.825-.27 4.348.752 6.764 1.129 6.872-.86 9.986-3.114 13.368-9.45.215-1.451.43-2.897.698-4.348 2.361-.591 7.676-.269 10.415.214.806.538 1.825-.054 3.275.644-.269 4.242-5.048 7.409-7.785 9.826 2.416 3.221 11.542 5.045 16.267 5.636 0 .162.054.322.106.536-8.373 2.256-16.534 1.934-22.924-3.381-2.844 1.88-5.529 3.112-8.373 4.348-2.256.214-4.457.429-6.658.698zm29.15 4.133c-.75-.752-8.213-.805-9.287-.858-1.985-.752-3.919-1.505-5.852-2.201-9.824 4.026-20.775 3.917-28.937-2.579-5.529-.644-8.482-4.669-12.454-5.635-1.289.105-2.577.267-3.866.429-9.932-1.611-14.388-7.033-13.366-16.966-.107-.484-.162-.965-.215-1.396-1.934-.644-3.866-1.287-5.746-1.877-4.293-3.006-3.006-2.578-6.815.913-5.584 3.004-11.382 2.094-16.377-.913-1.931 0-2.359.429-3.757 1.129-8.588 1.825-10.36 1.556-16.106-4.188-2.522-6.122-1.233-10.201 1.182-15.678l4.831-4.187c1.506-.859 2.633-1.396 4.512-2.201.322-1.235.322-1.235.804-7.463.752-1.556 1.558-3.112 2.362-4.67 2.952-2.469 6.122-4.67 9.127-7.086 6.334-2.63 11.703-3.812 18.307.214 2.739 2.63 5.314 5.047 7.568 8.805 1.987.107 3.275-.214 6.122-.214 2.522.375 5.26 2.361 8.267 2.361 4.295-2.576 7.408.055 11.918.269 7.356-4.509 13.154-3.704 15.999 5.477.055 1.825.106 3.651.214 5.476 1.129.43 3.275.323 4.94.375 4.831.967 7.517 3.704 10.63 7.945 1.663.215 4.669-.804 6.87-1.233 2.63-5.261 10.792-5.476 15.837-3.972 1.61 1.127 3.275 2.254 4.94 3.435 3.864 5.906 5.744 9.179 2.523 16.428-1.021 1.503-3.598 4.402-5.101 4.671v.374c-3.974 1.987-2.739 2.954-3.974 7.035l-2.685 4.831c0 3.059 9.343 3.059 12.242 3.006 2.951-.376 5.798-2.094 8.428-3.759 1.396-1.341 1.396-1.341 1.878-1.503-4.024 11.22-11.702 13.261-22.493 15.139-1.126-.002-1.826-.057-2.47.267z"/><path fill="#A72027" d="M244.897 214.209c-2.653 2.695-4.663 2.996-5.99.982-5.351-8-7.36-15.361-6.034-22.037 14.722-8.688 22.725-22.726 24.05-42.154 2.013-1.967 3.381-1.967 4.024 0l6.032 11.041 56.147-2.012-.984-35.089c0-2.012.685-2.656 2.012-2.012l28.073 8.044c1.328 1.328 1.328 2.656 0 3.981-2.01 4.022-2.996 7.703-2.996 11.041v13.053l55.162-.984 12.025-11.041 26.063 21.057c2.012 2.01 1.669 3.679-.985 5.006-10.013.684-23.065 5.007-39.113 13.051-1.327.644-2.354.985-2.996.985-.685-.642-.685-1.669 0-2.995l7.019-22.083-139.427 6.036c0 18.056-7.359 33.419-22.082 46.13m60.17-13.053c-6.675 0-15.02 1.027-25.035 3.041h-2.01l-7.019-6.037 98.258-5.006 13.051-13.054 17.075 15.065c1.325 1.325 1.325 2.311 0 2.994l-68.215 2.012 16.048 10.014c1.328 1.369 1.328 2.012 0 2.012l-5.009 2.012c-1.368.686-3.338 2.012-6.032 4.023-4.023 2.652-6.675 4.322-8.003 5.006 10.016 9.373 18.017 20.072 24.051 32.098 22.723-16.051 39.8-30.428 51.141-43.139l19.085 17.076c1.328 1.324 1.328 2.311 0 2.994 0-.684-.341-.684-1.025 0-10.015 3.338-22.384 8.006-37.104 14.038 4.022 26.062 28.073 50.156 72.238 72.238 1.325.641 1.669 1.668.982 2.996 0 .643-.685.982-2.01.982-9.372.688-19.388 6.035-30.085 16.051-29.443-26.064-44.122-56.49-44.122-91.283-2.696 1.371-7.36 3.039-14.036 5.049-6.033 2.654-10.699 4.666-14.08 5.992 8.73 18.744 11.041 42.152 7.062 70.227-4.708 18.703-17.418 31.412-38.131 38.131-.685.641-1.325.641-2.012 0v-3.037c.687-10.016-2.651-17.035-10.014-21.057-.685-.686-1.027-1.326-1.027-2.012 0-.643.685-.984 2.012-.984 15.363 2.654 23.409-.342 24.094-9.029 3.979-16.047 5.648-30.77 5.007-44.123-28.759 25.379-69.198 48.445-121.367 69.201-1.325.641-2.353.641-2.994 0 0-1.371.3-2.354.984-3.039 42.11-20.711 82.593-51.482 121.367-92.266-.687-3.338-1.669-6.332-2.997-9.031-28.759 23.41-63.892 43.482-105.317 60.17-2.012 0-2.355-.641-1.027-1.967 39.457-22.768 72.236-49.172 98.299-79.256 0-.686-.344-1.328-.982-2.012-.687-1.326-1.371-2.012-2.013-2.012-25.419 14.721-54.521 29.444-87.258 44.165-1.37.643-2.354.301-3.039-1.027-.642-.684-.301-1.326 1.027-2.01 35.433-20.072 64.833-42.112 88.242-66.206h-18.06z"/><path fill-rule="evenodd" clip-rule="evenodd" fill="#A72027" d="M185.789 149.948c.487-.267 1.035-.053 1.563-.229.425-.144.869-.721 1.354-.816 1.347-.264 2.249.969 3.7 1.145 2.951.354 8.032-1.077 10.805-3.377 1.269-1.053 2.014-2.449 3.653-3.12 1.984-.811 4.13-.897 5.938-1.797 1.626-.811 3.229-1.774 4.646-2.651 2.08-1.291 4.389-4.327 6.436-5.927.312-.242.577-.739.706-1.24-.02-.172.255-.203.187-.398 1.252.259 2.5.522 3.743.799-.097.969-.955 1.891-.269 3.389.265.577 1.057.834 1.356 1.487.612 1.338.043 4.06 2.338 3.771 1.236-.156 1.913-1.491 3.188-2.129-.491-.844-1.777.006-2.647-.041-.483-.768-.91-1.661-1.472-2.269.18-.924.62-1.726.677-2.71 3.248-.125 4.862 3.209 7.028 5.381-.712 1.396-1.798 2.421-1.332 4.098.162.579.753 1.002.921 1.646.569 2.164-1.252 6.116.089 8.524 1.4-.281.355-2.729 1.739-3.42 1.09.963.774 3.167 1.911 4.418.836-1.135.154-2.531.109-3.825-.102-3.127.233-6.484.627-9.276 1.923.606 3.371 2.722 5.101 4.589.812.877 1.938 2.086 2.911 3.073.595.603 1.456 1.008 1.752 1.677.632 1.427.211 3.295.599 4.886-.664.536-1.904.795-2.271 1.472.961.875 2.362.817 3.275 1.79.727 7.377.356 14.628-.156 21.614l-1.977 2.041-5.214 7.598 4.692 1.405 5.797-5.971c1.076-.587 2.297-.17 2.771-.993-.277-.909-1.845-.456-2.379-1.125-.704-.881-.513-3.568-.505-5.084.02-4.063.131-9.719 2.072-12.591.714-1.055 2.217-2.057 2.186-3.086-.939.191-2.262 1.197-2.784.503.016-2.014-1.622-4.808-1.224-6.636 1.47-.893 3.681.006 5.033-.651.086-1.207-2.016-1.119-1.961-2.262 1.934-2.197 4.609-4.234 6.621-6.32.77-.8 1.115-2.377 2.55-2.065.378.926-.286 1.544-.433 2.458-.885 5.482 2.119 12.739 6.465 15.293.168.326.425.464.511.967 2.028.837 3.357 3.151 4.539 5.781.891-2.529.349-5.073 2.994-6.338 1.808-.865 3.813.221 5.327-.756 1.202-.776 2.39-3.778 1.838-5.432.361-.717.81-1.394 1.624-1.899.876-2.87 2.43-5.864 2.888-8.933.143-.954-.683-2.406.769-2.909 2.601 2.292 5.299 3.681 8.944 3.38.646-.055 1.312-.495 2.002-.39.915.145 1.393 1.152 2.387 1.615 2.976 1.378 6.169 1.197 10.088-.322 1.716 1.519 4.18 2.751 6.516 2.107 1.298-3.271-1.646-7.955-1.377-11.191.041-.499.414-.737.562-1.187.409-1.254.841-2.767.894-3.94.187-4.238-3.615-7.85-6.032-9.031-3.334-1.626-8.846-2.913-12.896-2.457-4.698.53-7.12 3.759-10.799 5.681-.478-.189-1.016-.246-1.199-1.053.835-1.696 3.373-3.439 4.882-5.206.438-.515.491-1.221 1.092-1.544 2.152-1.154 4.328.811 6.099.943 1.295.098 3.596.08 5.439.027.687-.02 1.655-.169 2.199-.296 1.256-.289 2.33-.363 3.072-.604 3.005-.991 3.533-3.989 5.28-5.019.677-.402 1.554-.382 2.238-.64 4.398-1.642 5.533-5.213 6.398-9.697 2.422-2.342 4.223-4.398 3.455-7.818-.168-.741-.81-1.454-.983-2.281-.476-2.266 1.459-4.97.18-7.307-1.376-.371-3.43.503-4.769 1.38-2.365-1.423-6.177-2.938-9.936-1.542-.749.279-1.302.879-2.029 1.221-1.408.665-2.995.745-4.48 1.277-4.606 1.649-6.611 5.323-8.394 8.27-.288 2.894-2.325 4.96-3.407 7.477-1.205 3.671-.886 8.064-1.646 11.944-1.593 3.287-4.369 6.015-7.456 8.594-.771-.499-1.77-.528-2.055-2.061.409-1.014 1.603-.784 2.324-1.326 2.117-1.591 3.563-6.626 3.42-9.288-.16-2.987-2.199-3.958-2.976-6.011-.491-1.292.242-3.398-.85-5.125-.289-.456-1.053-.764-1.596-1.24-.561-.487-.93-1.111-1.306-1.341-3.439-2.137-9.052-.417-13.671-.039-1.264-.492-2.841-.316-4.367-.246 3.993 6.972-1.452 12.312 1.446 18.734-3.197.872-5.477-.205-8.286-.158.636 2.051.057 3.743-.766 5.209-.318.565-.563 1.225-.845 1.784l-2.078 3.379c-2.25 4.743 1.491 10.442 5.648 11.635 1.133.326 2.724-.318 3.741.799-3.899 3.043-7.312 6.317-10.119 9.877-.939.444-1.088 1.263-2.218 1.618-.428-.32-.683-1.396-.679-1.895-1.712-3.096-4.839-4.112-6.707-6.321-1.575-1.858-2.314-4.203-3.996-5.642-.543-.464-1.718-.49-2.087-1.229.593-1.457 2.439-2.32 2.905-3.839-2.512-.042-2.565 2.092-4.052 2.932-1.317-.349-.994-1.597-2.16-2.353-2.37-1.54-6.588.838-7.151-2.045-.206-1.059 1.706-3.677 3.498-3.558.644.353-.129 1.895.877 1.988.796-.863.49-2.308.759-3.396.188-.756 1.145-1.685.29-2.408-1.151-.213-3.271 2.143-4.813 1.724-.427-.942.417-1.451.685-2.219.481-1.379.526-2.962 1.373-4.443 1.686-2.958 5.735-5.034 2.638-9.171l1.208-.763c2.093-2.942 4.269-5.88 6.077-8.76.667-1.064 1.688-1.821 2.438-2.846 1.368-1.879 2.324-4.094 3.587-6.06 1.334-2.071 3.377-3.537 4.134-5.923-4.438 2.352-8.122 5.686-10.591 8.567-1.784-1.846-3.958.074-6.41.486-.679.113-1.458-.5-2.262-.341-1.544.302-2.109 1.4-3.186 2.129-1.08-.491-1.901.421-2.929.554.113-2.168 1.626-3.673.692-6.336.612-2.254 3.078-4.279 2.546-6.672-.883 1.735-2.646 2.892-4.068 4.254-1.463 1.404-2.461 3.365-4.363 4.361-1.033-1.535 1.1-2.034 1.8-2.782.347-.373.551-.967.855-1.294 3.303-3.58 7.229-6.461 10.315-9.785 3.667-2.439 7.648-4.545 9.278-8.097.351-.764.538-2.012.861-3.104.512-1.724 1.406-3.151.62-5.159.287-1.02 1.201-1.542.874-2.619-.714-2.333-3.576-.977-5.482.318-3.463 2.352-6.809 6.863-8.809 9.409-5.506 5.757-10.669 11.678-17.114 16.993-1.302 2.414-4.33 4.013-5.786 6.352-1.97.846-2.117 2.554-4.044 3.422-.403 1.171-1.403 1.657-2.246 2.45-4.987 4.703-8.686 10.45-13.033 15.531-3.858-1.62-8.397-4.084-11.251-7.982-.749-1.021-2.021-2.948-1.62-4.523 4.057-.915 7.062-3.135 8.498-5.678.913-1.614 1.739-4.426 1.223-6.691-.166-.727-.622-1.417-.784-2.188-.446-2.129-.049-4.461-.047-6.566-2.107 1.62-3.335 3.688-5.968 4.937-3.264 1.548-5.189 3.445-5.944 5.915-.606 1.985.209 4.441-.349 6.377-1.111-.174-2.849-2.045-3.201-2.968-.478-1.25.251-2.941-.148-4.552-.296-1.183-1.168-2.027-1.589-3.053-.476-1.162-.474-2.367-1.348-3.303.186-1.029 1.022-1.263 1.428-1.99 1.021-1.846.569-4.346.16-5.983-1.034-4.12-3.826-6.699-6.376-9.07-1.724-1.601-4.473-3.129-5.352-4.831-2.232-4.315 1.129-6.841 1.324-11.004-2.383 1.782-3.521 4.151-5.153 6.288-2.072-3.387-1.975-7.779-2.357-11.169.375-2.291 1.878-4.682 2.06-6.661-1.841.868-1.917 2.569-3.104 3.746-.938 3.703-.994 8.02-.31 12.453.09.575.832 1.333.188 1.907-2.601-.511-5.751-1.993-9.338-1.263.674 1 1.871.585 2.814.967 1.896.768 3.291 2.305 5.026 3.466.221.831.909 1.881.546 2.437-1.941-.433-4.808-.24-6.993.694.474.914 2.55.562 3.741.799 1.536.862 4.25 1.306 5.518 3.455.936 1.589 1.667 4.165 1.941 5.886.258 1.583.352 3.525-.337 4.564-5.86-1.447-13.242 2.69-15.416 7.498 1.225.305 2.453-.947 3.802-.869.363 2.262 2.234 3.634 3.549 5.311 2.414 3.083 3.997 6.393 7.03 7.686.841.357 2.391.698 3.544.706.8.004 2.227-.039 3.034-.266.519-.144 1.01-.616 1.552-.719 1.244-.24 2.379.618 3.876.255 1.396-.335 2.432-1.485 3.739-1.505 3.346-.043 5.432 4.262 5.958 7.906 2.858 2.759 6.697 4.8 8.388 9.173-.827.608-2.076.788-2.792.012-.366-.396-.335-1.388-.733-2.04-.727-1.203-2.632-1.47-3.336-2.425-.384-.526-.364-1.334-.678-1.897-1.332-2.396-3.652-3.242-5.59-4.58-4.09-1.107-9.341 2.765-13.495 1.378.159.992 1.143 1.312 1.763 2.166.975 1.33 1.552 3.735 1.922 4.905-.772 1.767-4.048-.468-5.732.078.858 1.096 1.95 1.692 2.527 3.375 1.358.629 2.442 1.84 3.827 2.414 2.158 3.345 5.473 5.004 9.727 3.264.546-.224 1.01-.747 1.646-.918.998-.269 2.215-.07 3.322-.368 1.745-.47 3.021-1.318 4.459-2.256 1.793-.09 4.24-.591 6.042-1.505 1.724.585 4.316 3.89 2.133 5.488-.499.365-1.813.294-2.679.795-.683.396-.998 1.154-1.49 1.355-.522.216-1.226.025-1.758.139-3.876.825-5.889 3.279-7.635 4.874l-.97.513c-3.051 2.642-4.521 6.769-5.316 9.966.386.706.037 1.067.285 1.708-1.61 2.675-2.698 6.235-2.784 9.226.939.121 1.224-.814 1.979-1.366 1.86-1.359 4.728-2.154 6.239-3.716-.002-2.476-3.151-.513-3.641-2.809 1.614-.425 2.702.265 4.263-.047.489 1.102 1.286 1.552 1.68 2.854-2.029 1.797-6.109 2.788-7.729 5.073 3.161-.233 6.625-1.208 9.39-.896.667.076 1.712.326 1.888 1.135l2.795-.017zm105.75-37.388c-.274-2.687-1.81-5.742-2.977-8.313l.29-.105c3.502 1.595 5.215 12.023 2.42 14.107-.823-1.839.48-3.596.267-5.689zm-104.175-26.204c.23.113.349.456.46.823-.269.076-.245.288-.532.356-.462-.282-.29-.306-.604-.772.372-.063.22-.38.676-.407zm-6.932 7.752c.734-1.911 1.331-5.234 3.36-5.318.434 1.634-.967 2.78-1.528 4.002-.702 1.527-.965 3.229-.963 5.118 2.176-.136 4.687-2.801 5.277-5.018.215-.803-.386-1.997.833-2.273 1.415 4.27-2.952 8.366-7.245 9.179-.575-1.502-.493-3.721.266-5.69zm-19.306-15.301c.304.507.376.784.325 1.365l-.875.312c-.425-.846-.589-1.569.55-1.677zm-2.443 4.66l.876-.314c1.072 1.105 1.604 2.558 2.628 3.666.83.899 2.729 1.09 2.41 2.593-1.117.906-1.537-.722-2.564-.728l-.822.46c-2.197-.563-5.991 2.254-7.212-.378 2.197-.487 5.097.07 6.929-1.33-1.256-.873-1.861-2.179-2.245-3.969zm-3.028 7.173l.877-.314.312.875-.874.314c-.366-.162-.015-.413-.315-.875zm.706-5.848c1.135.593 2.016.02 2.616.874-2.983 1.271-5.479-.717-7.362-2.63 1.092-2.197 3.034.864 4.746 1.756zm-6.159.726c-.215-.232-.435-.446-.606-.771 1.409-.902 3.271-.62 4.036.694-1.264.28-2.215-.101-3.43.077zm13.661 10.575c-2.765-.899-5.878-1.062-8.435-2.41.066-.412-.114-.265-.112-.78l.292-.105c3.653.809 7.265 1.716 11.308 1.708.283 1.852-1.677.631-3.053 1.587zm4.262-11.072c.072.941-1.166 1.774-.967 2.813.218 1.137 1.706 1.478 2.213 2.5.325.659.045 1.268.188 1.907.312 1.396 1.032 2.075 1.641 3.2-2.299.891-3.069-2.311-3.13-4.147-1.278-1.175-2.156-2.09-2.246-3.965-.035-.76.634-1.53.54-2.168-.271-1.836-1.762-2.195-3.15-2.823-.591-2.716-2.029-5.024-3.258-7.717.493-.066.589-.232.78-.117.926.182 1.255 1.193 1.659 1.874.405.685 1.156 1.453 1.421 2.125.313.801.008 1.708.345 2.345.685 1.297 3.789 1.831 3.964 4.173zm-.92-3.948c-1.297-.376-.718-1.924-1.191-2.866-.546-1.084-1.953-1.437-2.649-2.341-1.061-1.38-1.236-2.895-2.066-4.854-1.35-3.176-5.428-4.845-5.678-8.499l.291-.104c1.643.271 1.904 2.131 2.869 3.414 1.139 1.521 2.921 2.698 3.672 4.281.686 1.443.605 2.718 1.411 3.938.327.491.881 1.158 1.407 1.634.53.479 1.439.684 1.794 1.332.622 1.129.943 3.125.14 4.065zm-.107 28.178c-.556-.704-1.491-.606-1.808-1.821l.293-.105c2.522.481 4.948 2.513 8.149.7-.008-1.138-2.956-.588-2.211-2.498 2.195.139 4.005 1.094 5.359 3.017-3.577 1.164-7.797 1.446-11.304 2.897-.66-1.281.598-1.658 1.522-2.19zm-2.063 2.055l.364 1.022c-1.964 1.811-2.573-2.05-.364-1.022zm9.343 5.868c-1.788.392-3.652 2.096-5.313 1.246l-.366-1.021c1.223-.495 2.293.569 3.324-.367-1.957-1.591-5.58-1.004-6.6-3.726 2.379-.415 3.644 1.519 5.629 1.932-.408-.928-1.346-.741-1.659-1.874.62-.139 1.121-.333 1.563-.23 1.098.258 1.634 1.89 2.359 2.447 1.396 1.076 3.411-.483 4.532 1.173-.738.902-2.089.118-3.469.42zm6.761-2.257c-.744.376-1.175-.474-1.783-.84-1.145-.694-2.633-.893-3.804-1.437l-.156-.437c2.294-1.078 5.183.121 5.743 2.714zm-5.399 21.682c-.714.132-.522-1.148-.522-1.458l.437-.156c.163.599.316 1.196.085 1.614zm5.526 1.641c-1.127.464-1.002-.714-1.918-.3-1.97.885.756 1.534 1.19 2.866-.783.375-1.349.292-1.998.386-2.359-1.845-.99-5.798 2.141-5.046.411.378.896 1.671.585 2.094zm62.521-40.007l.144-.05c.519.939-.791 2.534-1.485 3.657-4.009 6.48-10.165 12.774-15.655 18.775-1.741.85-2.751 3.281-4.979 3.1-.139-1.088 1.061-1.798 1.759-2.441 2.807-2.582 6.199-5.003 8.153-8.021 5.09-4.499 8.019-10.021 12.063-15.02zm-8.313 5.282c1.092-1.534 1.785-4.178 3.769-4.64-.399 1.833-1.46 3.544-2.434 5.151-1.979 3.262-5.143 6.108-7.192 9.323-.382.199-.756.423-1.062.709-2.501 2.328-4.088 5.995-7.59 6.833-.237-1.77 1.782-2.264 2.676-3.098 4.374-4.082 8.51-9.595 11.833-14.278zm-2.42-3.082l.291-.103c.458 1.597-.601 3.683-1.361 4.931-1.562 2.573-3.712 4.89-5.026 7.561-2.577 1.575-3.351 4.625-6.391 5.58-.296-1.162.943-1.922 1.56-2.535 4.604-4.555 8.182-9.728 10.927-15.434zm-3.959.433l.729-.262c.879 1.909-.55 2.728-.444 4.274-2.088 1.879-2.675 4.468-4.808 6.329-.285.148-.152.495-.23.741-1.844 1.111-2.098 3.603-4.465 4.067.188-2.433 3.336-3.688 4.132-5.923 2.964-2.477 3.75-5.982 5.086-9.226zm-4.255-1.769c-.452-.969 1.385-1.41 2.125-1.419l.262.729c-.568.499-1.646.598-2.387.69zm15.537-24.162c-3.184 3.868-7.351 7.272-10.881 10.975-.166.406-.722.628-.759 1.094-2.575 1.455-3.258 4.436-5.757 5.52-.074-1.761 1.415-3.164 2.548-4.369 1.234-1.314 2.692-2.449 3.539-3.901l1.021-.364c3.688-4.273 7.674-8.411 13.016-11.905.176 1.426-1.294 2.685-2.727 2.95zm-17.892 12.993c1.36-1.694 3.299-2.944 3.81-4.985 3.411-2.944 6.897-6.818 10.212-10.078 1.275-1.253 2.558-2.328 3.845-3.513.425-.394.702-1.021 1.143-1.398 1.066-.906 2.679-1.975 3.708-2.973.059-.059.854-.491 1.125-.074-.318 1.825-2.33 2.718-3.78 4.149-.542.54-.858 1.213-1.385 1.649-.994.831-2.172 1.353-3.133 2.275-1.951 1.868-3.944 4.051-5.894 6.06-1.373 1.417-2.383 3.02-3.673 4.443-2.574 2.843-5.28 5.233-7.413 8.251-1.022-1.365.628-2.802 1.435-3.806zm-6.511 11.22c.37-.23 1.368-.16 1.76-.139 1.69-1.037 4.052-1.988 5.605-1.349 1.772 1.776.761 4.172.922 6.252-.707 1.89-1.73 3.726-3.109 5.557-.789 1.051-1.448 2.747-2.925 2.858-.717-.915.445-1.49 1.03-2.178 1.157-1.373 3.735-4.843 4.066-6.559.491-2.535-.688-6.138-4.005-3.833.008.76.63.737.96 1.302 1.869 3.209-.526 8.481-4.013 9.007-.464-1.146.939-1.414 1.571-2.043 1.526-1.815 2.731-5.194.168-7.794-.246.096-.418.027-.542-.137-.64.225-1.092.534-1.499.868 1.276 1.967 1.631 4.12-.078 5.293-.888-1.291.871-3.632-1.275-4.48-1.726-.074-2.482 1.973-3.438 1.891-.966-1.874 3.143-3.489 4.802-4.516zm-12.162 10.608c.272.575.18.975-.418 1.139-.234-.556-.3-1.034.418-1.139zm.334 4.161c.526 1.014.199 1.626-.394 2.113-.729-.733-.629-1.835.394-2.113zm-3.692-5.261l.585-.208c.135.388.386.829.02.979-.507.321-.749-.469-.605-.771zm3.014 14.388l.585-.208c.123.423.483.956.074 1.125-.657.148-.511-.431-.659-.917zm.234 3.869l.437-.158c-.004.24.44.692.117.782-.417.173-.655-.433-.554-.624zm.318 5.48c.47.045.575.683.563 1.113-.321.168-.567.177-.779.117-.135-.679-.238-.589-.074-1.127.162.044.323.083.29-.103zm-7.598-.076c1.985 2.449 1.354 6.001-1.306 7.377-.612 2.014-.562 4.985-3.652 5.424-.532-1.219 1-1.638 1.469-2.336.748-1.123.622-2.332.996-3.649 2.408-1.105 2.928-4.184.934-6.586.395-1.952 2.027-4.258 1.074-6.641-.417-1.045-1.546-1.462-1.865-2.457.257-.64 1.653-.175 2.01.101 2.539 1.978 1.077 7.121.34 8.767zm19.988-11.275c.881 1.811 2.043 3.277 1.192 5.167-1.104 1.661-2.39 3.232-2.924 5.161-1.959 3.061-6.508 6.555-10.811 5.19-2.057-.649-3.416-3.202-3.424-6.342-.004-1.105.304-2.737 1.403-2.971.505 2.48-.676 5.209 1.09 7.181.653.725 2.837 1.365 4.046 1.181 1.293-.195 2.837-1.096 3.925-1.899 1.579-1.162 3.104-2.932 3.677-4.443-.145-.634-1.035.308-1.139-.416-.18-1.139 1.096-.811 1.688-1.263 1.384-1.055 2.016-3.33.776-4.722-1.105 1.049-1.747 4.133-4.237 3.33-.372-.862.821-.987 1.488-1.357 1.014-1.339 2.804-2.311 2.008-4.504-1.353.429-2.843 4.835-5.03 2.954 1.974-1.937 4.707-3.51 4.412-6.518-1.152.959-1.595 2.87-3.51 3.067-.641-2.217 2.806-2.679 2.935-4.671.035-.548-.319-1.437-.783-2.188-1.628.646-.474 2.605-2.531 3.045-.437-2.033 2.003-3.831.07-5.785-.998.983-.636 2.609-2.679 3.1-.624-2.277 2.152-2.944 1.603-5.182-2.767.016-3.778 3.521-5.687 4.342-.584-.801 1.014-3.363 1.818-4.108 1.301-1.201 3.708-1.956 5.346-2.08.624.774.098 1.528.002 2.302 1.121 1.131 1.761 3.279 3.266 3.603 1.253 2.897.684 6.097 2.01 8.826zm7.862 5.411c-.967.638-2.838 1.93-4.135 1.318.191-1.302 1.72-1.373 2.603-1.92.794-.493 1.737-1.355 2.552-2.064 2.717-2.375 5.812-5.366 8.255-7.73.983-.949 1.696-2.072 2.584-2.899l.583-.21c.405 1.646-1.248 2.318-1.685 3.566-4.044 2.559-6.758 7.307-10.757 9.939zm3.555 1.195c2.64-2.896 3.692-7.754 7.736-9.189-.316 1.716-1.759 4.422-2.894 6.633-.952 1.86-2.799 5.942-4.842 2.556zm49.353-23.932c.074-.167.369-.23.334-.448.161.042.323.082.29-.105 1.297 2.683 2.363 9.207 4.607 11.021.9-1.539 1.542-4.141.785-6.535-.255-.809-1.773-2.654-.012-2.794.71.507 1.256 2.008 1.43 2.616.251.885.392 2.41.274 3.521-.167 1.564-1.69 3.63-1.413 4.785.306 1.277 1.869 1.404 1.877 2.948-1.45.585-2.102-1.176-3.096-2.675-2.316-3.5-4.928-7.725-5.076-12.334zm-11.058 31.607c-.499.285-.812.18-1.123.074-.346-.688-.264-1.173.507-1.333.253.32.472.711.616 1.259zm-2.987-6.5c1.429-.872 1.716.76 2.191 1.519.967 1.546 2.447 2.423 3.506 3.351 1.448-.246 2.207.967 3.595.852.378-1.281-.988-1.994-1.786-3.145-1.73-2.505-3.765-7.974-2.822-10.179l.585-.208c.559 2.386 1.419 5.669 2.538 8.469 2.24-.846.233-4.734 1.871-6.266 1.763 2.53-.026 5.371-.567 7.609.739 1.515 1.617 2.731 2.35 4.26-5.065 1.732-9.745-.904-11.461-6.262zm14.583 25.549c.999.629 2.141 2.308 2.246 3.969-1.255.433-1.235-1.834-2.203-2.01-1.01 1.219 1.307 4.011.016 5.097-1.618-1.416-1.446-4.116-1.505-6.042-.062-2.055-.164-4.172.608-5.65-.125-.343.098-.519-.168-.928.796-1.765.899-3.856 1.788-5.576-1.15-.25-2.074 1.24-2.354 2.16-3.07 1.295-2.1 4.5-4.172 6.267-1.018-3.271 2.295-5.537 3.295-8.257 1.771-.819 2.367-2.193 4.395-2.892-.405 4.733-2.027 8.894-1.946 13.862zm3.543-12.622l-.583.207c.061-.21.051-.458-.117-.78l.438-.156.262.729zm8.926 4.7c.68 2.884.836 6.446-.767 7.514-.601-1.162-.018-2.552-.086-3.917-.267-5.428-3.665-10.895-7.484-12.622-.638.181-.562.702-1.355.811-1.072-2.519 1.61-2.246 2.761-1.482 2.487 1.65 5.874 5.222 6.931 9.696zm.812-.95c-.526-.55-.71-1.606.352-1.771.748.524.847 1.376-.352 1.771zm-4.027-15.834c-2.539.692-3.51 2.603-4.999 4.422-.937.016-2.18.683-3.26 1.004-.554-1.117.567-1.948.965-2.813.562-1.224 1.023-2.946.685-4.525-.48-2.217-1.921-3.404-2.968-5.52-.655-.7-2.117-.936-2.012-2.406 3.014-.195 3.603 3.4 5.548 4.925 1.931 1.509 4.588.401 7.358.326.916.622 1.454 2.049 2.223 2.989-.513 1.65-2.205 1.231-3.54 1.598zm8.552 10.099c-.9-.164-.563-1.378-.784-2.188-.704-2.582-2.794-5.221-3.843-7.51.577-.737 1.51-1.306 2.062-2.055.991-.043 1.369 1.209 2.097 1.718-.016 1.002-.981 1.556-1.27 2.429.937 2.42 3.204 5.793 1.738 7.606zm11.494-14.318c4.579-1.232 9.312.031 12.245 2.029.135.915.722.866.919 1.646-2.16.212-3.198-1.95-5.099-2.287-3.266-.405-7.557-1.203-11.481 1.48 4.048 1.347 7.607 3.726 10.926 6.617.358-.154.538.06.741.23 1.544-.107 3.322-.704 4.086.84-.56.448-1.193.162-1.957.043-1.642-.257-1.759-.653-2.878.7-3.54-3.363-7.455-5.933-11.877-7.428-1.113 2.042 1.961 4.237 2.238 5.781-3.089.776-3.198-4.507-4.843-6.165 2.312-.929 3.852-2.648 6.98-3.486zm-7.15 11.28c4.471 3.262 10.047 3.404 16.52 2.476 1.522.624 3.704-.144 4.784 1.412-.698.844-2.771.25-3.771.035-2.193.45-3.813-.308-6.212.581-2.967-.39-7.022-.476-9.943-2.034-1.793-.957-4.722-2.977-5.007-4.79l.291-.104c1.54.352 2.217 1.609 3.338 2.424zm29.129-40.878c-1.2 1.269-2.707 2.361-3.591 3.755 1.538.376 3.688-1.519 5.21-1.538-.113 1.768-2.393 2.522-4.396 2.893-.958.175-2.011-.062-2.833.355-.667.339-1.045 1.446-1.864 2.148-2.123 1.825-4.539 3.566-6.592 5.49-.317.294-.437.842-.758 1.096-.463.356-1.115.44-1.555.719-1.822 1.164-3.195 2.693-5.061 3.789 3.164.824 8.631-.595 12.732-2.587.632-.306 1.326-1.246 2.095-.585-1.864 2.999-7.601 4.034-11.314 4.71-2.536.126-5.312-1-7.919.861-.798-2.382-.219-4.967.233-7.161.942-4.562 3.083-8.631 5.948-12.333.498-.409 1.557-.556 1.739-1.115l.437-.156c.833 1.546-1.074 2.246-1.746 2.928-2.621 2.667-3.557 6.398-5.077 9.717.168 2.139-1.135 3.583-.702 5.849 2.281-.111 4.547-2.281 5.748-3.707-.172-1.833.096-4.107.994-5.952.963-1.971 2.193-3.954 3.853-5.328.83-.688 1.899-2.486 3.342-1.69-.708 1.562-2.767 2.488-3.882 3.86-.716.912-1.104 1.981-1.945 2.835-.154 1.906-1.434 3.281-1.007 5.463.901-.32 2.223-1.441 2.594-2.41 3.487-1.907 5.35-4.582 8.475-6.66 1.037-3.026.513-7.428 3.868-8.953.44 1.072-.753 1.64-1.123 2.376-.659 1.316-.869 2.918-1.025 4.482 3.07-1.78 4.623-5.326 7.672-7.521.071 1.779-1.398 3.151-2.55 4.37z"/><path fill="none" d="M0 0h640v377.774h-640z"/></svg>