<svg xmlns="http://www.w3.org/2000/svg" width="640" height="271.297" viewBox="0 0 640 271.297"><path fill="#A91F27" d="M176.503 52.901c1.596 2.25 3.588 4.792 5.967 7.635 2.369 2.83 4.951 5.479 7.721 7.923 2.775 2.457 5.361 4.242 7.762 5.35 2.399 1.121 4.188 1.843 5.383 2.197 1.186.346 1.787.915 1.809 1.712.021.81-.549 1.078-1.701.829-1.605-.324-3.648-1.054-6.137-2.195-2.487-1.152-5.61-3.252-9.334-6.31-3.736-3.057-8.021-7.935-12.856-14.62-.796 1.303-1.495 2.411-2.078 3.316-.591.904-1.581 2.238-2.981 4.017-1.399 1.773-3.111 3.8-5.145 6.07-2.025 2.271-4.566 4.566-7.602 6.859-3.035 2.305-5.275 3.907-6.697 4.812-1.432.904-2.336 1.366-2.714 1.376-.386.012-.667-.128-.87-.407-.206-.29-.271-.626-.206-1 .066-.335.409-.745 1.021-1.217.626-.476 1.057-.797 1.314-.99l2.929-1.98c2.423-1.692 5.675-4.469 9.766-8.345 4.092-3.888 6.868-7.097 8.344-9.658 1.477-2.551 2.553-4.512 3.23-5.879.688-1.366 1.279-2.614 1.786-3.735.507-1.131 1.033-1.581 1.604-1.356.571.216.926.495 1.055.818.141.322.119.786-.074 1.367l-.98 2.433-.316.978zm-2.936 46.62v-11.833l-12.672.883c-1.713.129-2.414-.378-2.122-1.519.086-.399.44-.679 1.076-.852l1.485-.086 12.232-.829v-9.484l-10.973.752c-1.699.131-2.412-.374-2.109-1.517.074-.397.44-.679 1.064-.85l1.486-.098 23.75-1.603c1.283-.086 1.885.3 1.799 1.162-.045.386-.259.666-.668.871-.398.205-1.088.333-2.078.399l-9.431.624v9.495l12.392-.851c1.141-.064 1.8.162 1.98.679.174.517.088.936-.269 1.26-.364.323-.851.495-1.485.517l-12.618.797v11.916l17.291-1.043 1.376-.216c.443-.043.862.043 1.271.249.398.215.57.56.527 1.045-.074.731-.991 1.15-2.734 1.26l-39.404 2.496c-1.701.12-2.399-.387-2.111-1.518.086-.378.305-.623.647-.721.343-.109.979-.195 1.907-.258l18.391-1.127zM243.774 47.132c.171.033.58.26 1.235.657.647.397 1.466 1.236 2.445 2.507.969 1.271 1.604 2.273 1.907 3.015.287.733.269 1.259-.066 1.571-.334.323-.753.356-1.26.131-.238-.086-.475-.303-.733-.669l-1.354-1.98c-.098-.105-.432-.483-.969-1.141-.551-.646-1.034-1.162-1.455-1.562-.42-.387-.709-.774-.871-1.174-.15-.41-.107-.741.129-1.033.236-.279.571-.387.992-.322m4.164 20.941c-1.15 1.26-2.023 2.174-2.617 2.745-.59.56-1.461 1.302-2.615 2.207.506.569.947 1.088 1.325 1.571l1.767 2.681c.505.786.816 1.27.947 1.483l.505 1.078.312.657c.334-.184 1.303-.84 2.919-1.949 1.603-1.119 3.357-2.453 5.265-4.026 1.906-1.571 3.037-2.528 3.393-2.886.354-.354.73-.646 1.131-.85.406-.217.783-.184 1.138.096.356.269.519.583.485.928-.033.343-.527 1-1.507 1.969-.979.97-1.841 1.733-2.573 2.305-.731.569-2.176 1.626-4.316 3.186 5.166 6.645 9.268 10.821 12.294 12.521 3.026 1.702 5.071 2.812 6.138 3.328 1.064.517 1.883.927 2.465 1.25.57.312.861.624.85.947-.01.312-.16.569-.43.784-.269.206-.775.28-1.496.206-.723-.077-2.508-.904-5.362-2.509-2.853-1.593-5.33-3.391-7.428-5.371-2.101-1.993-3.521-3.393-4.243-4.223-.721-.817-2.304-2.679-4.748-5.576-.043.023-1.096.657-3.153 1.926.235.714.474 1.583.722 2.597.26 1.022.442 2.024.559 3.015.107.99.172 2.023.184 3.111.01 1.076-.012 2.087-.076 3.036-.064.548-.192 1.647-.396 3.305-.193 1.647-.357 2.702-.475 3.176-.109.474-.281 1.131-.517 1.959-.226.831-.485 1.657-.755 2.488-.278.838-1.088 1.107-2.433.838-.905-.172-2.367-1.15-4.383-2.959l-1.29-1.174c-.551-.464-.97-.882-1.248-1.26-.281-.378-.379-.795-.281-1.26.086-.464.334-.744.722-.85.386-.109.881.062 1.464.505l1.702 1.702c.105.129.667.624 1.679 1.485 1.012.862 1.659 1.217 1.947 1.064.195-.105.398-.634.636-1.603l.44-1.83c.086-.42.207-1.324.348-2.705.148-1.376.234-2.302.269-2.787.031-.484.062-1.26.105-2.336.045-1.528.033-2.455-.031-2.767l-.409-2.434c-.42.205-.947.581-1.593 1.121-.634.538-1.886 1.443-3.745 2.712-1.864 1.27-2.94 1.991-3.221 2.174-.281.184-.808.484-1.561.905l-3.469 1.918c-1.076.591-1.787.967-2.152 1.139l-3.877 1.767c-1.365.624-2.129.979-2.303 1.033l-2.111.83c-.698.289-1.248.375-1.657.246s-.636-.376-.679-.741c-.043-.366.109-.711.465-1.023.342-.313.926-.614 1.732-.895.807-.289 1.573-.612 2.283-.967.721-.355 1.742-.841 3.088-1.455 1.346-.603 2.336-1.076 2.952-1.411.624-.344 2.033-1.162 4.24-2.465 2.209-1.302 3.964-2.368 5.255-3.197 1.29-.828 3.23-2.273 5.825-4.307-.131-.442-.354-1.129-.679-2.066-.336-.938-.658-1.659-1.002-2.164-.526.333-1.238.85-2.141 1.528-.904.688-2.004 1.442-3.295 2.26-1.295.819-2.371 1.476-3.23 1.973-.861.493-1.819 1.001-2.876 1.529-1.055.526-2.207 1.086-3.454 1.669-1.25.59-2.51 1.149-3.779 1.688-1.283.538-2.154.733-2.64.604-.483-.14-.741-.378-.774-.701-.033-.322.174-.667.604-1.034.43-.374.969-.688 1.625-.967l2.617-.98 2.842-1.39 2.682-1.26c.73-.374 2.283-1.279 4.649-2.722 2.37-1.443 4.352-2.909 5.942-4.404-.505-.818-1-1.528-1.485-2.111-.483-.591-.827-1.043-1.033-1.357l-.667.476-1.248.829c-.635.431-1.303.828-2.004 1.184-.688.366-1.541.787-2.551 1.26l-2.811 1.356c-.979.485-1.755.84-2.305 1.045l-2.109.819c-.667.3-1.229.376-1.657.257-.431-.129-.667-.354-.71-.7-.033-.333.129-.656.496-.957.363-.302.924-.593 1.668-.873.741-.27 2.798-1.217 6.169-2.853 3.357-1.624 5.685-2.95 6.964-3.972 1.283-1.025 2.788-2.328 4.512-3.931l-12.801.979c-.312.043-.604-.02-.872-.184-.259-.172-.409-.386-.452-.646-.043-.269.076-.538.366-.828.278-.281.548-.432.798-.452l30.154-2.305c.841-.064 1.27.171 1.281.711.012.538-.098.903-.301 1.098-.216.205-.441.301-.701.301l-14.193 1.113zm-18.861-9.744l37.758-2.907c1.549-.107 2.409.193 2.549.883.152.698.195 1.248.131 1.669l-.947 3.757c-.064.248-.15.667-.271 1.25-.116.569-.354 1.064-.721 1.462-.365.398-.795.539-1.258.41-.474-.129-.766-.324-.871-.603-.109-.27-.066-.688.129-1.26.183-.669.376-1.442.58-2.303.195-.861.377-1.521.518-1.982.15-.462.162-.765.053-.902-.117-.131-.473-.184-1.064-.141l-37.09 2.776c-.162.593-.422 1.442-.776 2.573-.343 1.119-.698 2.121-1.056 3.003-.354.885-.742 1.38-1.161 1.485-.419.109-.774.066-1.078-.139-.288-.204-.44-.583-.452-1.152-.01-.569.28-1.497.861-2.776.238-.528.519-1.325.852-2.413.346-1.088.592-1.915.743-2.508.16-.593.312-1.259.44-2.004.141-.741.336-1.236.593-1.462.248-.238.581-.336.991-.312.408.02.709.203.893.558.195.366.184.948-.031 1.767l-.152.636-.163.635zM334.705 53.248l-18.142 1.227c-.399.043-.711.259-.949.634-.225.378-.332.756-.312 1.131l.26 10.572c.021.926.679 1.348 1.98 1.262l16.279-1.045c.592-.023 1.012-.172 1.258-.453.262-.292.4-.84.443-1.656l.506-10.002c.043-1.175-.398-1.736-1.323-1.67m-11.327 27.475c-.117.204-.398.678-.819 1.421-.419.731-1.646 2.528-3.669 5.383-2.035 2.864-4.674 5.652-7.936 8.364-3.264 2.714-5.135 3.899-5.63 3.563-.495-.333-.765-.635-.819-.904-.055-.258-.023-.515.107-.765.107-.278.41-.603.914-.979l2.488-1.863c2.195-1.679 4.178-3.51 5.954-5.49 1.776-1.97 2.94-3.381 3.497-4.21.562-.828 1.443-2.26 2.66-4.307l-10.314.667c-1.235.078-2.002.088-2.281.012-.279-.074-.494-.312-.635-.71-.129-.397-.031-.787.301-1.162.173-.173.354-.292.537-.347.195-.062.788-.129 1.8-.193l14.479-.914v-7.385l.41-.755-7.504.376c-.7.043-1.486-.116-2.369-.483-.883-.366-1.334-1.323-1.357-2.854l-.257-10.852c-.033-1.033.202-1.959.731-2.788.527-.828 1.421-1.29 2.68-1.378l18.261-1.162c1.829-.107 2.94.225 3.314 1.012.378.776.562 1.669.538 2.681l-.44 11.1c-.107 2.25-1.302 3.447-3.595 3.595l-8.27.538c.217.314.334.52.365.593.035.086.043.745.043 1.962v5.673l15.516-.971c1.271-.062 2.09-.053 2.476.043.397.098.636.399.71.916.088.517-.043.851-.408 1.022-.356.173-.98.271-1.885.313l-12.307.797c1.541 2.453 2.886 4.445 4.04 5.974 1.15 1.52 2.305 2.874 3.454 4.048 1.143 1.186 2.186 2.154 3.134 2.94.947.775 1.905 1.454 2.853 2.035.959.569 1.658 1.055 2.09 1.442.429.398.581.796.474 1.217-.119.419-.474.786-1.055 1.088-.593.312-2.316-.702-5.159-3.025-2.852-2.326-5.338-4.89-7.459-7.697-2.133-2.8-3.888-5.416-5.275-7.838l-1.197.062v24.601c0 .571-.086 1.002-.246 1.295-.172.3-.464.495-.883.6-.42.109-.773.033-1.045-.214-.268-.258-.398-.679-.377-1.271l.031-24.846-.666.03zm-19.337-20.92v44.787c0 1.271-.386 1.876-1.161 1.833-.291 0-.551-.131-.754-.41-.216-.269-.323-.562-.323-.885v-40.717c-.421.733-1.388 2.281-2.917 4.652-1.52 2.367-3.111 4.543-4.76 6.512-1.646 1.98-2.703 3.004-3.155 3.09s-.774 0-.957-.267c-.193-.262-.259-.583-.193-.959.062-.355.419-.905 1.055-1.657.646-.745 1.26-1.488 1.862-2.219.604-.745 1.412-1.821 2.434-3.24 1.014-1.412 2.143-3.136 3.392-5.136 1.238-2.016 2.573-4.706 4.017-8.075 1.442-3.381 2.336-5.838 2.679-7.386.345-1.54.659-2.499.938-2.854.269-.355.591-.56.97-.603.375-.033.678.15.881.571.217.419.174 1.107-.117 2.055l-.603 2.585c-.194.753-.646 2.023-1.366 3.8-.733 1.776-1.197 2.896-1.412 3.359-.208.465-.379.852-.51 1.164zM408.604 65.133l-6.945.603v5.395l5.619-.538c.732-.066 1.119-.519 1.162-1.356l.164-4.104zm.118-2.274l.163-3.745c.02-.947-.378-1.39-1.196-1.323l-6.029.538v5.135l7.062-.605zm2.303-.051l3.003-.26c1.197-.086 1.938-.096 2.242-.043.288.055.537.312.752.776.203.452.117.807-.28 1.055-.409.235-.979.376-1.743.419l-4.09.323-.195 4.664c-.043 1.01-.324 1.798-.838 2.345-.52.56-1.24.872-2.188.938l-6.029.409v4.574l6.181-.473c1.248-.087 2.001-.108 2.27-.054.28.054.53.323.745.795.226.474.129.819-.27 1.057-.397.227-.99.366-1.766.409l-7.16.569v4.793l9.184-.755c1.217-.088 1.973-.107 2.25-.053.28.053.58.417.904 1.086.312.679-.367 1.078-2.023 1.207l-10.314.816v8.354c0 1.162-.257 1.767-.775 1.821-.516.043-.893-.055-1.131-.324-.246-.257-.367-.678-.367-1.239v-8.429l-7.782.571-1.864.16c-.548-.172-.85-.526-.912-1.053-.066-.54.074-.886.409-1.036.331-.138 1.022-.257 2.044-.345l8.105-.624v-4.8l-6.047.472c-1.229.109-1.974.109-2.262 0-.281-.107-.453-.409-.508-.924-.054-.519.098-.852.432-1.002.334-.141 1.012-.26 2.014-.346l6.371-.474v-4.573l-4.414.386-1.828.152c-.647-.207-.969-.593-.947-1.164 0-.505.312-.884.947-1.141l1.517-.119 4.726-.409v-5.395l-6.683.528-1.864.161c-.623-.204-.936-.604-.916-1.161 0-.507.164-.819.476-.948.323-.129.979-.237 1.991-.323l6.996-.562v-5.112l-4.628.377-1.864.161c-.633-.214-.936-.604-.912-1.162 0-.507.301-.885.912-1.143l1.541-.128 4.951-.409v-6.783c0-1.195.055-1.959.141-2.293.098-.345.391-.528.873-.56.484-.033.819.117.991.44.183.334.269 1.1.269 2.326v6.717l5.803-.355c1.918-.097 3.014.27 3.295 1.111.292.839.433 1.475.433 1.894l-.168 4.108zm-31.038 11.703l4.705-.507c.947-.086 1.635-.012 2.068.214.429.238.771.636 1.021 1.197.246.569.281 1.539.098 2.905-.293 1.98-.582 3.704-.874 5.19-.278 1.485-1.064 3.844-2.347 7.084 2.648 1.862 5.404 3.617 8.279 5.233 2.876 1.614 5.395 2.981 7.59 4.079 2.188 1.109 4.598 1.992 7.245 2.671l3.575.85c1.064.335 2.091.56 3.058.667.972.098 1.259.581.894 1.442-.367.862-1.486 1.045-3.357.538l-4.953-1.162c-3.556-.947-7.021-2.356-10.41-4.23-3.381-1.873-5.459-3.057-6.247-3.542-.774-.493-2.972-1.937-6.588-4.308-1.237 2.25-2.313 4.028-3.219 5.331-.905 1.302-1.788 2.444-2.647 3.435l-1.638 1.829c-.569.657-1.002 1.109-1.313 1.368-.301.27-.656.418-1.064.441-.422.031-.68-.086-.799-.355-.106-.28-.161-.562-.14-.873.021-.301.376-.784 1.055-1.452.69-.657 1.583-1.724 2.683-3.2 1.107-1.474 1.98-2.667 2.617-3.595.643-.924 1.171-1.841 1.59-2.745l.862-1.828c-.882-.712-1.54-1.26-1.958-1.639l-1.961-1.604c-.838-.699-1.528-1.249-2.066-1.659-.526-.407-.838-.838-.914-1.29-.064-.452.033-.796.3-1.033.28-.227.646-.258 1.121-.086.472.159 1.053.56 1.731 1.174.689.624 2.316 1.926 4.878 3.896.485-1.129.936-2.477 1.356-4.036.422-1.55.722-2.864.916-3.94l.279-2.078c.064-.571.086-1.076.064-1.519-.021-.44-.141-.741-.355-.894-.226-.159-.721-.202-1.506-.149l-5.545.505c-.637.066-1.043.066-1.238-.01-.184-.076-.336-.26-.453-.548-.118-.305-.063-.647.141-1.045.086-.195.561-.776 1.432-1.755.883-.98 1.992-2.649 3.338-5.03 1.345-2.378 2.207-3.938 2.593-4.692.39-.765.733-1.391 1.025-1.886.3-.495.321-.807.062-.947-.245-.129-.624-.182-1.131-.139l-5.962.505-1.26.129c-.528-.105-.842-.409-.947-.912-.109-.507.117-.905.666-1.209l1.541-.117 7.126-.733c.819-.073 1.507-.03 2.068.152.558.172.688.894.397 2.152-.302 1.217-.764 2.445-1.388 3.673-.636 1.236-1.528 2.862-2.702 4.877-1.163 2.022-2.294 3.756-3.392 5.21zm-7.816-11.737v42.677c0 .336-.107.636-.333.894-.216.259-.507.399-.862.409-.366.012-.656-.117-.893-.386-.227-.281-.347-.581-.347-.917v-37.982c-.16.28-.655 1.162-1.474 2.647-.829 1.497-1.917 3.08-3.271 4.749-1.357 1.679-2.285 2.843-2.77 3.498-.494.669-.947.733-1.356.195-.419-.538-.472-1.143-.183-1.81.108-.258.475-.796 1.1-1.626.611-.829 1.689-2.422 3.209-4.769 1.527-2.348 2.754-4.426 3.692-6.255.936-1.831 1.829-3.704 2.669-5.621.84-1.916 1.507-3.585 2.014-5.027.506-1.443.959-2.972 1.357-4.586.397-1.626 1.01-2.326 1.828-2.121.819.214 1.066 1.055.722 2.53-.312 1.303-.612 2.41-.915 3.338-.29.924-.861 2.477-1.701 4.641-.838 2.165-1.669 4.005-2.486 5.522zM447.448 85.072c-.031-.442.141-.786.527-1.024.386-.245.893-.28 1.528-.106.904.247 2.176.99 3.833 2.217 1.648 1.228 2.507 2.145 2.585 2.745.074.604-.086 1.111-.483 1.53-.402.419-1.143.119-2.211-.915-1.291-1.196-2.562-2.121-3.829-2.779-1.282-.644-1.93-1.206-1.95-1.668m12.338-38.768c.397-.141.787-.152 1.154-.033.362.129.943.914 1.742 2.368.808 1.455 1.291 2.359 1.455 2.733.172.367.312.831.405 1.381.109.558.109 1.01-.008 1.354-.12.357-.323.593-.636.712-.3.129-.592.141-.861.031-.367-.117-.732-.667-1.107-1.636l-.947-2.143-.316-.788c-.245-.548-.557-1.053-.924-1.505-.379-.452-.604-.807-.701-1.088-.094-.269-.074-.538.065-.797.141-.266.367-.461.679-.589zm-14.287 14.415v2.434c0 1.786-.02 3.326-.062 4.618-.043 1.293-.133 2.927-.25 4.888-.128 1.97-.322 4.167-.592 6.59-.258 2.434-.765 5.093-1.506 7.988-.756 2.883-1.723 5.5-2.92 7.847-1.205 2.348-2.324 4.361-3.381 6.04-1.041 1.681-1.773 2.8-2.172 3.35-.401.55-.83.894-1.295 1.033-.46.15-.807.043-1.021-.312-.227-.355-.215-.841.012-1.455.172-.397.808-1.366 1.926-2.896 1.107-1.538 2.25-3.529 3.424-5.995 1.162-2.455 1.958-4.35 2.391-5.664.43-1.313.85-2.897 1.236-4.747.39-1.843.689-3.5.896-4.952.215-1.442.367-2.8.473-4.069.108-1.259.183-2.554.226-3.875l.085-5.934.098-4.479c0-.883.129-1.852.379-2.896.258-1.055 1.4-1.657 3.443-1.798l34.278-2.433c.659-.043 1.142-.023 1.454.055.312.062.507.452.573 1.13.062.688-.538 1.065-1.798 1.15l-33.214 2.336c-1.014.086-1.712.292-2.102.614-.386.322-.581.808-.581 1.432zm19.305 10.185l9.496-.851.214-3.532c.023-.44-.086-.733-.331-.882-.238-.141-.605-.194-1.088-.152l-8.291.786v4.631zm0 7.612l7.569-.7c.624-.045 1.021-.174 1.181-.409.152-.227.262-.634.305-1.195l.281-3.854-9.336.852v5.306zm7.503 11.724c2.164 2.024 4.04 3.596 5.61 4.735 1.584 1.131 3.326 2.197 5.222 3.198 1.907 1.002 3.132 1.593 3.681 1.767.539.183.947.388 1.197.613.246.236.32.679.203 1.324-.117.657-.83.764-2.133.321-.772-.235-2.379-1-4.812-2.323-2.421-1.314-4.702-2.831-6.835-4.566-2.133-1.743-3.681-3.078-4.62-4.026-.947-.945-2.625-2.755-5.016-5.426v14.761c0 1.894-.097 3.23-.303 4.005-.203.785-.484 1.238-.839 1.378-.354.129-.722.15-1.1.043-.991-.204-2.55-1.152-4.683-2.819-2.141-1.669-3.205-2.726-3.217-3.166s.097-.787.33-1.014c.227-.235.551-.331.972-.312.343.033 1.302.721 2.897 2.057 1.582 1.335 2.562 1.939 2.936 1.788.391-.152.573-1.088.573-2.812v-9.429c-.292.257-.757.612-1.388 1.076l-2.426 1.798c-1.474 1.043-2.979 1.98-4.531 2.788-1.539.807-3.229 1.669-5.061 2.583-1.829.914-3.1 1.464-3.811 1.626-.721.174-1.228.139-1.539-.076-.301-.226-.465-.495-.496-.818-.031-.332.066-.601.289-.817.238-.227.646-.431 1.217-.624.584-.183 1.411-.55 2.476-1.098l3.381-1.616c.69-.354 2.047-1.129 4.052-2.314 2.012-1.185 3.638-2.315 4.885-3.368 1.248-1.069 2.238-1.583 2.952-1.563v-6.879l-12.653 1.1c-.6.062-1.041.02-1.303-.141-.269-.151-.428-.464-.494-.916-.051-.452.055-.743.354-.881.292-.131.726-.238 1.294-.293l12.802-1.143v-5.361l-14.255 1.229c-.637.066-1.076.023-1.346-.141-.258-.16-.422-.462-.477-.912-.043-.453.078-.757.391-.896.301-.149.721-.259 1.236-.323l14.45-1.227v-4.64l-12.018 1.076c-.593.064-1.021.012-1.31-.162-.281-.162-.453-.462-.52-.893s.066-.733.379-.884c.312-.161.74-.269 1.26-.335l12.208-1.107v-4.285c0-.614.062-1.064.172-1.367.116-.313.526-.474 1.216-.495.699-.021 1.045.419 1.045 1.324v4.608l9.967-.916c.959-.086 1.607.141 1.938.679.323.538.464 1.143.421 1.809l-.281 4.296 7-.636c1.186-.096 1.754.29 1.73 1.174-.02.645-.525 1.012-1.535 1.098l-7.386.666-.347 5.363c-.043.529-.191 1.001-.441 1.432-.245.431-.549.712-.893.84-.354.117-.807.205-1.381.248l-8.793.816v1.391l.785.646c.206.183.689.732 1.43 1.647.758.914 1.974 2.271 3.686 4.08.184-.269.612-.624 1.271-1.045.666-.419 1.656-1.162 2.971-2.238 1.311-1.066 2.238-1.906 2.788-2.497.55-.603.99-.905 1.321-.915.336-.012.625.096.854.322.233.236.331.636.312 1.217-.023.581-.959 1.689-2.822 3.328-1.857 1.644-3.549 2.796-5.089 3.465zM177.829 143.298l.344 5.178c.023.559-.031.991-.16 1.26-.119.27-.367.452-.721.538-.355.086-.68-.076-.979-.464-.292-.386-.452-.775-.476-1.15l-.441-5.135-6.9.44c-.744.062-1.281.01-1.646-.162-.354-.162-.494-.56-.409-1.164.064-.526.409-.893 1.045-1.107l1.517-.097 6.31-.475-.667-7.568c-.066-.528-.012-.957.139-1.293.162-.331.462-.525.914-.58.453-.055.765.064.938.345.162.29.279.731.346 1.345l.654 7.666 9.906-.668 1.355-7.666c.131-.729.305-1.27.507-1.603.216-.336.55-.474 1.023-.398.474.074.765.279.853.601.096.324.053 1.057-.141 2.188l-1.164 6.695 6.848-.44 1.292-.16c.44-.043.862.043 1.271.246.409.216.591.571.526 1.076-.064.356-.248.626-.56.809-.302.172-.938.291-1.905.355l-8.203.668-1.003 5.641c-.108.591-.366 1.033-.765 1.324-.396.3-.752.366-1.064.204-.323-.15-.506-.399-.572-.721-.062-.322-.01-.872.164-1.625l.947-4.694-9.123.591zm-26.593 43.214c-.44.107-.786.021-1.045-.236-.245-.259-.354-.593-.312-.99.023-.237.237-.581.646-1.033.41-.452 1.002-1.283 1.786-2.499.776-1.227 1.54-2.486 2.305-3.791.753-1.302 1.583-2.99 2.476-5.08.893-2.078 1.553-3.692 1.98-4.854.434-1.152.819-2.293 1.174-3.404.346-1.119.572-1.851.69-2.195.117-.343.269-.593.452-.743.193-.138.463-.224.808-.235.343-.012.612.074.808.257.194.172.3.432.333.776.032.333-.043.796-.205 1.376-.44 1.477-.99 3.24-1.626 5.31-.645 2.057-1.636 4.361-2.98 6.901-1.348 2.552-2.627 4.866-3.834 6.954-1.206 2.098-2.356 3.249-3.456 3.486zm.312-36.088c.26.043.808.302 1.65.765.838.462 1.98 1.28 3.433 2.454 1.452 1.186 2.411 2.152 2.886 2.917.474.764.58 1.337.312 1.692-.259.354-.669.483-1.206.374-.279-.043-.774-.397-1.486-1.086-.709-.679-1.636-1.507-2.776-2.455-1.13-.959-2.035-1.626-2.692-1.992-.666-.366-1.119-.74-1.355-1.141-.249-.388-.271-.754-.065-1.119.191-.356.633-.485 1.299-.409zm5.459-16.052c.195.062.625.322 1.293.784.679.464 1.702 1.325 3.066 2.597 1.369 1.26 2.262 2.336 2.684 3.24.418.905.471 1.529.149 1.862-.312.333-.722.409-1.226.226-.238-.064-.486-.271-.755-.602l-1.452-1.669c-1.412-1.562-2.574-2.671-3.5-3.35-.926-.667-1.488-1.227-1.69-1.679-.206-.452-.171-.853.074-1.184.259-.345.712-.408 1.357-.225zm30.22 25.268c.109-1.345.183-2.444.237-3.283.055-.84.129-1.454.215-1.83.098-.377.271-.743.531-1.098l-8.712.525c.15.301.257.551.333.765.076.205.107.528.098.959-.01.432-.064 1.013-.15 1.755-.075.733-.173 1.593-.28 2.583l7.728-.376zm-9.398 9.086c-.568 1.723-1.076 3.049-1.517 3.984-.442.936-.971 1.938-1.573 2.993-.614 1.066-1.227 2.014-1.83 2.833-.613.816-1.096 1.247-1.453 1.29s-.646-.064-.861-.335c-.227-.258-.205-.72.076-1.365.128-.302.418-.787.893-1.476.474-.679 1.205-1.948 2.195-3.8.99-1.853 1.668-3.607 2.035-5.275.367-1.681.699-3.307.99-4.879l-5.576.281c-.388.021-.678.195-.883.505-.215.323-.322.657-.322 1.012v22.772c0 1.185-.269 1.797-.797 1.852-.538.053-.938-.055-1.184-.323-.262-.258-.378-.679-.378-1.238v-23.16c0-.816.151-1.646.474-2.485.312-.84 1.336-1.312 3.059-1.422l5.986-.312c.021-.257.043-.44.064-.571l.344-2.647c.105-1.012.193-1.659.236-1.929.053-.269.119-.452.184-.537l.312-.441-9.84.636c-1.24.086-2.003.086-2.293 0-.281-.086-.496-.345-.626-.787-.139-.441-.043-.839.302-1.205.16-.184.422-.324.753-.409l1.571-.098 30.857-1.948c1.259-.063 2.078-.053 2.454.043.378.098.624.419.733.97.098.537-.023.893-.391 1.066-.353.171-.998.278-1.945.345l-10.444.765c.129.288.226.568.312.826.086.271.119.659.096 1.186l-.129 1.292-.086 1.991-.097.916 6.395-.44c1.313-.086 2.154.184 2.542.816.389.636.613 1.445.679 2.443.064 1.002.064 2.391 0 4.18l-.247 5.619c-.15 3.552-.324 6.652-.518 9.302-.204 2.649-.57 4.479-1.1 5.49-.514 1.012-1.033 1.616-1.537 1.81-.506.204-1.109.173-1.798-.076-.657-.193-1.519-.731-2.583-1.626-1.078-.894-1.81-1.518-2.207-1.86-.4-.347-.819-.733-1.24-1.154-.42-.419-.667-.785-.733-1.098-.073-.321-.043-.591.088-.816.138-.238.388-.399.743-.476.354-.086.828.086 1.421.528l1.485 1.173 1.831 1.572c.71.613 1.323.818 1.829.635.354-.13.635-.773.852-1.959l.182-1.033c.195-1.119.366-2.647.529-4.576.148-1.938.277-4.006.387-6.201s.152-3.907.141-5.147c-.012-1.227.012-2.25.064-3.066.053-.819-.064-1.357-.367-1.616-.29-.246-.656-.367-1.098-.344l-6.027.312c-.119.593-.207 1.021-.25 1.302l-.375 2.455-.475 2.025c.377-.261.656-.378.83-.366.184.01.419.117.709.331.301.207.753.702 1.357 1.476.612.786 1.107 1.465 1.486 2.036.375.581.721 1.226 1.021 1.947.312.712.441 1.293.408 1.735-.03.44-.214.753-.559.957-.355.205-.712.193-1.076-.033-.367-.214-.688-.635-.957-1.259-.281-.624-.733-1.42-1.357-2.41l-1.649-2.585-.526-.765c-.301.948-.56 1.733-.775 2.369-.227.634-.625 1.581-1.205 2.874-.57 1.28-.959 2.078-1.141 2.411-.195.324-.7 1.109-1.52 2.359-.818 1.259-1.421 1.883-1.82 1.895-.387.01-.687-.12-.893-.378-.215-.258-.227-.612-.031-1.055.194-.442.516-1 .99-1.69.474-.679 1.012-1.593 1.613-2.724.594-1.141 1.143-2.314 1.639-3.531.495-1.228.947-2.682 1.356-4.394.409-1.7.71-3.314.905-4.854l-7.83.409c-.062.257-.096.431-.096.538l-.279 1.7c-.13.721-.269 1.39-.408 2.025.312.043.611.107.914.205.29.095.947.645 1.947 1.669 1.014 1.021 1.649 1.818 1.895 2.378.26.569.281 1.033.076 1.379-.192.345-.504.505-.926.485-.421-.023-.893-.357-1.421-1.025-.528-.667-.86-1.076-1.013-1.248l-1.539-1.474-.439-.477zM232.263 135.352c.152-.526.398-.808.753-.851.356-.043.733.031 1.111.236.376.192 1.076 1.002 2.11 2.411 1.033 1.412 1.84 2.647 2.433 3.726l1.194 2.424c.355.741.496 1.377.432 1.926-.076.551-.336.872-.764.96-.434.096-.799.01-1.119-.271-.27-.181-.562-.688-.862-1.495-.312-.807-1.003-2.059-2.067-3.735-1.078-1.681-1.918-2.876-2.529-3.564-.606-.691-.844-1.284-.692-1.767m29.802-2.843c.322.195.515.464.591.807.076.346.021.745-.139 1.186-.151.377-.562 1.227-1.216 2.539-.67 1.313-1.338 2.435-2.024 3.372-.679.937-1.54 2.024-2.585 3.25-1.045 1.227-1.778 1.981-2.207 2.25-.432.281-.807.376-1.143.303-.322-.076-.569-.27-.752-.581-.184-.312-.152-.712.073-1.197.109-.215.583-.741 1.411-1.591.831-.853 1.691-1.972 2.574-3.35.881-1.378 1.636-2.681 2.281-3.931.646-1.236 1.154-2.141 1.552-2.702.387-.57.915-.691 1.584-.355zm-8.044 24.191l-14.598.916c-.753.064-1.236.257-1.453.569-.205.312-.312.971-.312 1.961v4.348c0 .528.15.96.451 1.314.314.343.658.495 1.068.452l15.168-.916c1.131-.062 1.724-.839 1.767-2.336l.116-4.886c0-.53-.104-.905-.32-1.154-.227-.236-.853-.33-1.887-.268zm1.928 10.949l-16.526 1.108c-1.41.098-2.434-.075-3.058-.528-.636-.452-.959-1.407-.979-2.885l-.164-6.588c-.043-1.324.217-2.24.767-2.735.538-.483 1.281-.765 2.207-.829l16.772-.945c1.057-.045 1.95.227 2.683.807.74.57 1.086 1.42 1.043 2.529l-.312 6.813c-.043.776-.312 1.51-.81 2.197-.492.679-1.032 1.037-1.623 1.056zm-7.568-20.089l19.744-1.26c1.433-.085 2.39.012 2.886.291.494.291.83.669 1.014 1.141.172.476.15 1.314-.078 2.542l-.387 1.981c-.118.44-.365 1.107-.742 2-.367.895-.73 1.714-1.098 2.469-.367.74-.818 1.053-1.357.947-.537-.121-.861-.293-.979-.528-.121-.229-.121-.538-.012-.948.074-.376.432-1.216 1.033-2.521.615-1.303.904-2.346.882-3.131-.02-.798-.105-1.293-.267-1.485-.15-.207-.787-.27-1.907-.207l-38.23 2.521c-.269.948-.517 1.776-.753 2.477-.227.711-.593 1.593-1.066 2.649-.485 1.064-.904 1.926-1.27 2.571-.356.657-.635 1.098-.83 1.324-.203.237-.474.366-.807.399-.334.033-.68-.141-1.045-.505-.355-.366-.258-1.057.292-2.068l1.356-2.455c.539-1.1 1.033-2.454 1.475-4.07.44-1.626.732-2.712.85-3.283.129-.569.301-1.496.507-2.776.105-.398.257-.712.462-.926.193-.229.518-.303.957-.229.443.078.712.261.808.55.098.302.121.679.076 1.143l-.129 1.603-.278.98 16.342-1.043v-14.439c0-1.228.055-1.992.152-2.304.105-.322.428-.505.979-.56.549-.043.926.098 1.119.431.204.335.302 1.109.302 2.305v14.414zm-3.317 37.433v-7.912l-12.11.786-1.886.128c-.528-.149-.86-.44-.981-.883-.128-.44-.031-.838.281-1.193.172-.194.41-.345.732-.442l1.572-.096 12.392-.766v-3.369c0-1.195.055-1.96.162-2.283.106-.333.442-.517.99-.569.56-.055.937.098 1.141.452.194.365.3 1.131.3 2.305v3.314l12.588-.788c1.259-.062 2.078-.053 2.454.023.376.086.626.41.743.968.119.562-.012.916-.367 1.068-.354.159-.99.257-1.895.3l-13.523.883v7.957l20.662-1.109 2.013-.129c.702.172 1.1.548 1.196 1.119.105.583-.183 1.012-.885 1.281l-1.356.066-43.021 2.399c-1.26.076-2.023.076-2.305-.01-.27-.076-.473-.347-.612-.787-.129-.44-.033-.839.3-1.195.174-.193.336-.302.508-.345.171-.043.775-.098 1.828-.16l19.079-1.013zM291.521 185.469c-.291.043-.569-.086-.85-.378-.27-.291-.336-.69-.184-1.195.055-.193.483-.731 1.271-1.614.783-.884 1.84-2.486 3.154-4.823 1.314-2.336 2.088-3.746 2.336-4.241.237-.495.688-1.485 1.333-2.982.659-1.486 1.1-2.562 1.337-3.221.227-.644.441-1.172.625-1.571.192-.398.549-.593 1.088-.57.537.02.881.203 1.043.551.162.354.193.74.107 1.181-.15.702-.915 2.543-2.314 5.535-1.4 3.005-2.95 5.954-4.65 8.85-1.711 2.905-3.134 4.392-4.296 4.478m.787-37.469c.191.023.808.25 1.83.679 1.033.433 2.411 1.26 4.123 2.488 1.711 1.228 2.82 2.195 3.338 2.885.516.698.656 1.238.431 1.614-.237.379-.624.528-1.174.476-.269-.023-1.24-.713-2.919-2.068-1.666-1.356-3.133-2.337-4.393-2.918-1.26-.593-2.035-1.088-2.324-1.486-.28-.397-.345-.785-.183-1.162.15-.377.581-.55 1.271-.508zm6.34-14.922c.194.066.786.442 1.786 1.121 1.002.688 2.176 1.765 3.521 3.25 1.345 1.478 2.188 2.585 2.518 3.295.336.711.355 1.239.043 1.571-.3.347-.721.421-1.235.228-.237-.063-.495-.259-.8-.603l-1.419-1.668c-.624-.712-1.399-1.52-2.326-2.402-.926-.883-1.69-1.55-2.292-2.012-.594-.465-1.001-.929-1.195-1.381-.205-.45-.184-.838.064-1.162.236-.323.688-.409 1.335-.237zm5.588 47.222c.042-.131.202-.366.507-.73.289-.357.967-1.088 2.012-2.188 1.055-1.107 2.293-2.724 3.715-4.844 1.409-2.121 2.423-3.855 3.004-5.189.593-1.336 1.15-1.938 1.688-1.81.54.119.873.379 1.014.765.128.397.086.883-.141 1.474-.323.8-.969 2.005-1.959 3.63-.991 1.615-1.831 2.896-2.519 3.834-.701.924-1.271 1.656-1.713 2.184l-2.454 2.811c-1.217 1.551-2.1 2.098-2.647 1.636-.55-.464-.722-.99-.507-1.573zm28.831-.981c-.086.442-.324.765-.699.959-.377.205-.744.172-1.098-.076-.238-.128-.422-.397-.57-.816l-.818-2.683c-.26-.698-.745-1.786-1.455-3.26-.709-1.487-1.325-2.659-1.809-3.521-.496-.861-.828-1.476-.979-1.84-.162-.379-.205-.702-.141-1.003.055-.292.248-.537.581-.721.323-.195.755-.152 1.271.129.387.226 1.033 1.173 1.95 2.83.902 1.669 1.688 3.221 2.323 4.652.648 1.442 1.057 2.604 1.248 3.479.196.871.261 1.495.196 1.871zm9.991-.721c0 .495-.16.884-.484 1.131-.323.26-.688.293-1.088.129-.278-.062-.482-.214-.635-.462-.139-.236-.418-.808-.817-1.712s-1.194-2.283-2.38-4.135c-1.182-1.851-2.346-3.4-3.486-4.65-1.131-1.249-1.832-2.057-2.078-2.399-.26-.348-.379-.667-.367-.96.012-.3.16-.569.465-.807.288-.238.709-.293 1.26-.141.396.129 1.033.679 1.895 1.669.859.99 1.626 1.906 2.293 2.757.678.861 1.55 2.078 2.626 3.681 1.066 1.595 1.798 2.909 2.186 3.942.383 1.033.59 1.678.61 1.957zm-21.576.216v-22.082c0-1.194.055-1.959.162-2.282.106-.324.431-.516.98-.569.55-.055.915.097 1.098.44.192.343.302 1.119.321 2.326l.098 29.391c0 1.388-.366 2.659-1.098 3.802-.721 1.141-2.033.936-3.951-.616-1.053-.838-1.884-1.667-2.496-2.477-.604-.807-1.217-1.678-1.842-2.604-.627-.924-.957-1.56-1.012-1.914-.055-.367.043-.712.29-1.045.235-.336.591-.495 1.055-.476.378.045.788.313 1.228.818l.851 1.26c0 .043.55.756 1.638 2.121 1.096 1.356 1.774 1.98 2.055 1.84.27-.14.453-.505.539-1.119.023-.288.023-.73.012-1.313-.012-.569 0-1.624.031-3.154.032-1.517.041-2.304.041-2.347zm7.731-30.124c1.219 1.896 2.444 3.692 3.683 5.416 1.227 1.712 2.465 3.121 3.715 4.242 1.249 1.107 2.658 2.238 4.209 3.369 1.562 1.141 3.002 2.088 4.328 2.853 1.324.774 1.926 1.452 1.828 2.033-.105.593-.416.938-.945 1.046-.442.108-1.399-.279-2.852-1.162-1.467-.884-2.715-1.724-3.748-2.498-1.023-.773-2.359-1.928-4.004-3.434-1.639-1.521-2.94-2.875-3.909-4.07-.97-1.195-1.896-2.477-2.778-3.821l-2.109-3.24-.312-.476-5.018.44c-.15.271-.506.992-1.053 2.176-.562 1.174-1.1 2.152-1.627 2.952-.527.783-1.313 1.859-2.348 3.217-1.045 1.356-1.906 2.39-2.572 3.102-.68.722-1.713 1.712-3.112 2.98-1.399 1.271-2.421 2.23-3.09 2.854-.657.636-1.152 1.012-1.464 1.152-.312.139-.637.107-.948-.076-.312-.194-.483-.526-.517-1.002-.033-.462.774-1.431 2.424-2.886 1.656-1.442 3.638-3.399 5.942-5.876 2.313-2.466 4.146-5.256 5.49-8.345l-8.926.851c-.969.109-1.669.152-2.098.129-.433-.02-.767-.227-1.023-.612-.247-.389-.184-.755.224-1.088.4-.344 1.574-.593 3.533-.765l9.173-.785c.548-1.455 1.076-2.962 1.581-4.545.508-1.571.808-2.583.916-3.026l.377-1.699-8.074.787-1.325.191c-.776-.062-1.216-.322-1.313-.765-.096-.44 0-.818.271-1.131.171-.214.407-.354.731-.44l1.571-.096 20.821-2.111 1.51-.258c.678.107 1.053.41 1.15.905s-.01.85-.312 1.064c-.3.226-.947.378-1.904.464l-10.066.979-.421 1.896c-.202.861-1.098 3.338-2.671 7.439l19.24-1.669.689-.064c.787.086 1.174.42 1.186 1.012.01.582-.207.948-.648 1.088-.439.129-1.002.227-1.699.27l-11.706 1.033zM413.05 137.277l-26.561 1.411c-.859.064-1.355-.108-1.464-.519-.117-.407-.098-.773.075-1.096.172-.335.518-.519 1.044-.562l26.776-1.388c.246 0 .538.074.85.227.312.151.484.495.484 1.045.013.54-.386.839-1.204.882m-41.891-6.846c.172.023.453.151.838.397.389.237 1.058.885 2.015 1.918.958 1.044 1.55 1.712 1.765 1.991.227.28.615.871 1.174 1.775.549.905.98 1.627 1.271 2.152.301.52.42.981.365 1.369s-.257.667-.613.818c-.355.16-.743.086-1.174-.237-.268-.16-.571-.56-.893-1.193-.324-.636-.957-1.638-1.905-3.016-.947-1.379-1.788-2.4-2.509-3.06-.724-.666-1.174-1.162-1.324-1.517-.162-.343-.152-.667.031-.969.172-.31.495-.45.959-.428zm6.34 29.175c.227.131.776.593 1.639 1.391.859.795 1.742 1.828 2.636 3.088.893 1.26 1.335 2.133 1.325 2.616-.012.485-.172.819-.484 1.014-.322.184-.721.129-1.205-.194-.314-.16-.689-.612-1.121-1.334-.43-.732-1.01-1.521-1.766-2.371-.742-.85-1.335-1.462-1.766-1.84-.431-.387-.742-.796-.945-1.238-.195-.44-.152-.816.139-1.152.301-.322.816-.313 1.548.02zm-2.023-2.023v31.071c0 .526-.117.936-.354 1.229-.247.3-.538.429-.874.409-.73 0-1.096-.538-1.096-1.638v-28.422c-1.723 1.915-3.715 3.876-5.965 5.866l-2.874 2.498c-.604.528-1.143.818-1.595.861-.453.055-.765-.043-.947-.29-.172-.26-.184-.624-.01-1.109.149-.377.516-.819 1.109-1.324.58-.505 1.766-1.571 3.53-3.219 1.765-1.638 3.036-2.843 3.831-3.628.787-.774 1.895-1.991 3.338-3.66 1.442-1.659 2.542-3.016 3.295-4.07l2.467-3.619c.375-.547.504-.904.375-1.076-.128-.171-.396-.235-.818-.226l-14.661 1.207c-1.229.106-1.821-.26-1.798-1.076 0-.271.139-.54.418-.798.28-.27.678-.421 1.186-.464l16.342-1.162c1.239-.086 1.918.227 2.047.947.129.71.055 1.412-.227 2.109-.398.948-1.057 2.112-1.98 3.5-.927 1.391-2.511 3.415-4.739 6.084zm15.558-9.68v4.254c0 1.033.141 1.657.44 1.883.29.215.894.303 1.798.238l12.996-.85c.967-.066 1.583-.26 1.859-.572.27-.313.434-.797.477-1.452l.215-5.428c0-.354-.152-.667-.453-.924-.312-.27-.689-.39-1.15-.366l-14.579 1.076c-.646.063-1.076.269-1.29.613-.205.345-.313.852-.313 1.528zm20.218-2.238l-.257 5.61c-.066 1.312-.398 2.346-1.026 3.132-.624.775-1.462 1.195-2.538 1.259l-14.006.819c-1.972.129-3.264-.205-3.857-.979-.6-.776-.893-1.51-.871-2.176l.033-6.095c0-.957.172-1.722.517-2.262.345-.548.731-.87 1.141-.979.409-.107 1.197-.215 2.347-.324l14.416-1.129c1.193-.087 2.188.15 2.983.688.783.552 1.16 1.36 1.118 2.436zm-9.776 36.239l10.057-.657.508-16.881c.02-.776-.109-1.303-.402-1.594-.277-.278-.912-.399-1.902-.356l-8.26.495v8.431l7.947-.667c.881-.064 1.334.257 1.365.969.035.7-.344 1.088-1.15 1.152l-8.162.69v8.418zm-2.592.16l.062-8.364-7.945.7c-.861.086-1.357-.076-1.486-.474-.128-.397-.106-.765.053-1.088.152-.324.496-.517 1.023-.581l8.355-.7v-8.482l-8.517.505c-.925.064-1.517.302-1.776.722-.27.419-.397 1.206-.397 2.337l-.064 16.085 10.692-.66zm12.711 1.423l-23.47 1.355-.031 2.24c-.021.883-.097 1.454-.237 1.712-.129.269-.377.44-.731.526-.364.086-.7-.02-1.033-.322-.323-.29-.474-.591-.452-.914l.096-22.46c0-.603.055-1.195.173-1.767.107-.558.345-1.064.712-1.505.355-.442 1.141-.712 2.357-.787l22.305-1.453c1.748-.106 2.758.279 3.038 1.162.292.884.421 1.681.397 2.402l-.721 22.114c-.02.538-.129.99-.324 1.334-.184.343-.506.538-.955.581-.452.043-.787-.117-1.014-.507-.215-.375-.312-.827-.27-1.355l.16-2.356zM441.085 130.204c.16.023.453.162.85.397.398.25 1.076.896 2.048 1.962.967 1.055 1.56 1.711 1.767 1.969.214.248.592.831 1.15 1.745.561.914.979 1.636 1.282 2.164.288.528.409.98.354 1.378-.043.387-.249.655-.615.819-.355.148-.741.074-1.162-.238-.27-.171-.569-.569-.904-1.204-.324-.626-.96-1.627-1.907-2.995-.944-1.368-1.774-2.391-2.507-3.057-.722-.679-1.162-1.186-1.322-1.529-.152-.345-.141-.678.031-.979.183-.303.495-.451.935-.432m7.245 28.864c.171.107.604.462 1.282 1.078.691.601 1.186 1.119 1.518 1.528.323.41.764 1 1.303 1.765.549.767.83 1.367.842 1.8.008.429-.152.74-.488.947-.342.193-.74.15-1.204-.141-.226-.128-.538-.485-.917-1.076-.373-.593-.924-1.271-1.656-2.047-.722-.785-1.248-1.324-1.584-1.626-.343-.312-.6-.679-.795-1.107-.184-.433-.141-.818.141-1.154.287-.331.805-.321 1.558.033zm-3.089-1.258v30.502c0 .548-.12.967-.354 1.259-.249.289-.538.429-.873.409-.733 0-1.1-.561-1.1-1.668v-27.853c-1.076 1.118-2.25 2.409-3.54 3.896-1.283 1.478-2.594 2.865-3.951 4.145-1.356 1.283-2.327 1.961-2.885 2.025-.573.053-.947-.033-1.119-.29-.184-.25-.184-.614-.023-1.1.129-.377.495-.819 1.088-1.312.604-.497 1.852-1.69 3.735-3.573 1.896-1.896 3.412-3.512 4.565-4.848 1.139-1.333 2.305-2.764 3.486-4.295 1.174-1.519 2.023-2.681 2.555-3.476l1.73-2.649c.379-.548.508-.905.379-1.078-.129-.172-.398-.236-.818-.215l-13.75 1.066c-1.186.107-1.773-.119-1.785-.679s.129-.957.409-1.216c.288-.248.687-.398 1.217-.441l15.394-1.035c1.217-.062 1.907.281 2.067 1.025.151.741 0 1.603-.46 2.572-.488 1-.916 1.818-1.295 2.423l-2.238 3.089-2.434 3.317zm10.1 1.634c-.023-.312.129-.58.452-.818.331-.225.741-.277 1.248-.16.483.15 1.1.636 1.829 1.455l1.832 2.088c.776.938 1.408 1.83 1.896 2.657.483.83.679 1.54.581 2.111-.098.583-.465.872-1.088.872-.238.022-.477-.053-.733-.236-.245-.184-.558-.614-.925-1.293-.365-.688-.904-1.462-1.605-2.348-.71-.881-1.463-1.721-2.262-2.53-.795-.795-1.206-1.397-1.225-1.798zm16.428-14.886l-11.799.979c-1.283.129-2.055.15-2.324.086-.281-.074-.477-.324-.581-.743-.121-.419-.035-.807.257-1.141.172-.183.332-.312.496-.354.148-.055.764-.131 1.809-.207l11.133-.861c1.268-.074 2.086-.074 2.477 0 .396.088.643.399.74.938.109.54-.172.938-.85 1.217l-1.358.086zm.475 20.003c1.45-1.033 2.765-2.154 3.938-3.381l2.434-2.649c1.057-1.109 1.809-1.44 2.285-.99.471.452.631.957.494 1.528-.109.333-.39.755-.854 1.262l-1.583 1.7c-1.213 1.248-2.96 2.745-5.229 4.512 2.117 2.689 3.744 4.597 4.867 5.716 1.131 1.109 2.227 2.121 3.303 3.036 1.068.914 1.938 1.604 2.596 2.068.668.462 1.604 1.086 2.832 1.859 1.217.776 1.84 1.412 1.883 1.876.043.472-.16.861-.612 1.141-.452.278-1.704-.236-3.747-1.583-2.059-1.336-4.273-3.101-6.676-5.298-2.402-2.195-5.361-5.747-8.895-10.668v20.401c0 1.388-.055 2.368-.159 2.939-.109.56-.476 1.141-1.1 1.733-.636.581-1.56.431-2.776-.474-.612-.421-1.346-1.195-2.207-2.305-.861-1.119-1.669-2.078-2.414-2.905-.752-.818-1.236-1.466-1.474-1.939-.226-.474-.288-.872-.171-1.215.116-.335.439-.54.979-.616.537-.074 1.186.355 1.938 1.283.355.483.83 1.131 1.412 1.938.568.808 1.119 1.486 1.625 2.036.496.548.874.859 1.096.924.227.074.434-.012.586-.248.159-.235.233-.85.233-1.807v-14.739c-.71.593-1.419 1.15-2.109 1.688-.698.538-1.97 1.411-3.833 2.606s-3.252 2.035-4.164 2.519c-.917.485-2.024 1.045-3.326 1.679-1.307.626-2.285.971-2.933 1.023-.655.055-1.107-.064-1.353-.354-.262-.279-.324-.591-.207-.938.109-.355.354-.636.732-.839.387-.216 1.615-.721 3.693-1.528 2.09-.808 4.348-2.1 6.805-3.876 2.444-1.778 4.682-3.479 6.694-5.104v-12.521l-12.489 1.107c-1.26.131-2.023.152-2.301.078-.27-.078-.476-.335-.616-.775-.14-.441-.042-.851.269-1.229.172-.184.41-.334.723-.44l1.613-.129 21.415-1.798 1.111-13.62c.031-.679-.085-1.162-.366-1.464-.293-.314-.959-.431-2.035-.367l-13.847 1.013-1.927.151c-.549-.14-.873-.421-.979-.818-.109-.397-.012-.776.289-1.131.164-.195.323-.312.476-.366.14-.055.753-.117 1.817-.203l15.526-1.174c1.064-.055 1.97.191 2.714.765.729.569 1.053 1.399.979 2.485l-1.205 14.514 5.65-.41c1.283-.085 2.109-.085 2.488 0 .378.086.623.4.74.958.121.561-.16.98-.838 1.282l-1.389.098-15.387 1.291v6.277c.759 1.194 1.75 2.669 2.966 4.415z"/><path stroke="#A72027" stroke-width=".567" stroke-miterlimit="22.926" d="M423.702 262.413c60.793-110.907-369.579 14.229-320.9-91.364M423.702 262.413c38.057-68.351 171.019-29.183 104.15-138.249" fill="none"/></svg>