<svg xmlns="http://www.w3.org/2000/svg" width="640" height="287.26" viewBox="0 0 640 287.26"><path fill="#AE7B28" d="M337.103 66.259v-6.308h4.467v6.308h-4.467zm-8.934-6.308h4.467v6.308h-4.467v-6.308zm8.934-1.573v-5.52h4.467v5.52h-4.467zm-8.934-5.52h4.467v5.52h-4.467v-5.52zm1.792-7.881h9.818v-5.044h-9.818v5.044zm-13.391-2.831c-1.638 4.412-4.324 8.404-8.038 11.977h1.113c1.638-1.264 3.049-2.469 4.238-3.627v19.542h4.465v-21.592c.896 1.473 1.934 2.946 3.125 4.412 1.047-.526 1.792-1.366 2.238-2.522v19.701h4.457v-2.205h13.4v2.205h4.457v-20.327h-4.457v1.573h-13.4v-1.573h-4.457c-1.495-.634-3.199-1.472-5.141-2.521v-.794c1.789-2.731 2.902-5.305 3.35-7.721h-4.684l-.23 1.89h-8.028v1.581h7.592zm8.922 5.983v-11.027h4.469v1.258h9.818v-1.258h4.465v11.027h-4.465v-1.571h-9.818v1.571h-4.469zm21.875-15.761v1.581h-24.998v-1.581h24.998zm-33.931-1.412l.23-.161c1.93.949 4.094 2.104 6.477 3.468-.307 1.26-.897 2.416-1.794 3.465-2.082-1.574-3.724-3.833-4.913-6.772z"/><path stroke="#D9B766" stroke-width=".216" stroke-miterlimit="22.926" d="M337.103 66.259v-6.308h4.467v6.308h-4.467zm-8.934-6.308h4.467v6.308h-4.467v-6.308zm8.934-1.573v-5.52h4.467v5.52h-4.467zm-8.934-5.52h4.467v5.52h-4.467v-5.52zm1.792-7.881h9.818v-5.044h-9.818v5.044zm-13.391-2.831c-1.638 4.412-4.324 8.404-8.038 11.977h1.113c1.638-1.264 3.049-2.469 4.238-3.627v19.542h4.465v-21.592c.896 1.473 1.934 2.946 3.125 4.412 1.047-.526 1.792-1.366 2.238-2.522v19.701h4.457v-2.205h13.4v2.205h4.457v-20.327h-4.457v1.573h-13.4v-1.573h-4.457c-1.495-.634-3.199-1.472-5.141-2.521v-.794c1.789-2.731 2.902-5.305 3.35-7.721h-4.684l-.23 1.89h-8.028v1.581h7.592zm8.922 5.983v-11.027h4.469v1.258h9.818v-1.258h4.465v11.027h-4.465v-1.571h-9.818v1.571h-4.469zm21.875-15.761v1.581h-24.998v-1.581h24.998zm-33.931-1.412l.23-.161c1.93.949 4.094 2.104 6.477 3.468-.307 1.26-.897 2.416-1.794 3.465-2.082-1.574-3.724-3.833-4.913-6.772z" fill="none"/><path fill="#AE7B28" d="M324.151 94.066c1.934 4.733 3.201 7.357 3.801 7.882.886-.524 1.705-1.519 2.455-2.992-1.792-1.681-3.8-3.361-6.028-5.042l-.228.152zm14.283-1.101c-.446 9.983 2.383 16.34 8.489 19.069.15 0 .15-.363 0-1.104-.154-1.888.292-3.254 1.341-4.095-3.277-1.049-5.439-2.784-6.477-5.205l3.79-7.403-1.779-.631-2.905 5.991c-.743-1.264-1.344-3.046-1.78-5.36-.152-.524-.23-.947-.23-1.263h-.449zm-29.902-6.3h8.924c-.743 4.518-3.572 9.562-8.478 15.13h1.336c.446-.426 1.188-1.158 2.236-2.207.887-.948 1.63-1.681 2.229-2.203v17.488h4.466v-20.012c1.334 2.414 2.525 4.204 3.572 5.353.448-.209.885-1.258 1.334-3.149-.449-.313-1.935-1.679-4.457-4.1 1.932-3.254 2.971-6.3 3.123-9.138h-5.361v1.257h-8.924v1.581zm30.35-6.933h-14.73v-1.583h14.73v-1.888h4.467v8.822c-.294 2.104-1.638 3.894-4.018 5.359h8.038v1.579h-9.82v18.756c.296 2.312-2.238 3.778-7.588 4.41-.152-.417-.897-.524-2.24-.315l-2.454.47-.439-.626c6.249-1.055 8.998-2.367 8.257-3.938v-9.302c-2.534 5.044-5.954 8.253-10.267 9.618.742-2.106.448-3.734-.896-4.891 5.954-.947 9.676-2.938 11.163-5.99v-8.191h-10.267v-1.579h14.951c.896-1.466 1.266-3.045 1.113-4.728h-13.39v-1.573h13.39v-4.41zm-25.216-3.154v-.162c2.378.739 4.685 1.733 6.913 3.001-.741 1.364-1.485 2.413-2.229 3.145-1.483-1.364-3.046-3.362-4.684-5.984z"/><path stroke="#D9B766" stroke-width=".216" stroke-miterlimit="22.926" d="M324.151 94.066c1.934 4.733 3.201 7.357 3.801 7.882.886-.524 1.705-1.519 2.455-2.992-1.792-1.681-3.8-3.361-6.028-5.042l-.228.152zm14.283-1.101c-.446 9.983 2.383 16.34 8.489 19.069.15 0 .15-.363 0-1.104-.154-1.888.292-3.254 1.341-4.095-3.277-1.049-5.439-2.784-6.477-5.205l3.79-7.403-1.779-.631-2.905 5.991c-.743-1.264-1.344-3.046-1.78-5.36-.152-.524-.23-.947-.23-1.263h-.449zm-29.902-6.3h8.924c-.743 4.518-3.572 9.562-8.478 15.13h1.336c.446-.426 1.188-1.158 2.236-2.207.887-.948 1.63-1.681 2.229-2.203v17.488h4.466v-20.012c1.334 2.414 2.525 4.204 3.572 5.353.448-.209.885-1.258 1.334-3.149-.449-.313-1.935-1.679-4.457-4.1 1.932-3.254 2.971-6.3 3.123-9.138h-5.361v1.257h-8.924v1.581zm30.35-6.933h-14.73v-1.583h14.73v-1.888h4.467v8.822c-.294 2.104-1.638 3.894-4.018 5.359h8.038v1.579h-9.82v18.756c.296 2.312-2.238 3.778-7.588 4.41-.152-.417-.897-.524-2.24-.315l-2.454.47-.439-.626c6.249-1.055 8.998-2.367 8.257-3.938v-9.302c-2.534 5.044-5.954 8.253-10.267 9.618.742-2.106.448-3.734-.896-4.891 5.954-.947 9.676-2.938 11.163-5.99v-8.191h-10.267v-1.579h14.951c.896-1.466 1.266-3.045 1.113-4.728h-13.39v-1.573h13.39v-4.41zm-25.216-3.154v-.162c2.378.739 4.685 1.733 6.913 3.001-.741 1.364-1.485 2.413-2.229 3.145-1.483-1.364-3.046-3.362-4.684-5.984z" fill="none"/><path fill="#A91F26" d="M329.306 161.122l-.585 2.031h.866v-2.031h-.281zm1.731-.285v.866h.581l.296-1.731h-.296l-.581.865zm2.325 11.016v.581h.285c2.907-1.93 4.357-3.279 4.357-4.059l-.296-1.162c0-1.152.877-3.763 2.61-7.822l.581-1.462h-.581c-2.897 0-4.74 3.591-5.508 10.742l-1.448 3.182zm9.864-6.375l1.15 5.225c-1.548 1.547-3.377 2.611-5.506 3.191l-.865-.296-2.908.581c2.129 3.479 4.456 5.223 6.968 5.223h.865c2.129-8.699 3.193-14.789 3.193-18.279v-2.314c0-1.164-.384-1.844-1.166-2.029-.382-.002-.963 2.896-1.731 8.698zm-23.786-3.477c5.605-3.293 10.247-5.618 13.922-6.968l.868-3.191-.583-1.152h-.285c-5.037.965-9.095 3.379-12.19 7.239-1.151 1.747-1.732 3.095-1.732 4.072zm-14.801-24.084v1.449l-.569 2.61c-3.096 7.736-5.706 15.285-7.834 22.636-3.875.568-5.806 1.349-5.806 2.315v.285l.285.296c-.767 0-1.25.866-1.447 2.613.964 1.544 1.546 3.092 1.743 4.64l-1.162 3.193 3.479 6.089c4.455-.965 6.672-2.129 6.672-3.479v-2.61l-.287-4.357 4.357-3.476 8.984-10.731v-.583l-.285-.296c1.35-1.548 2.414-2.995 3.182-4.346v-.581h-.284c-4.062 3.293-6.87 4.927-8.419 4.927l-6.667 3.772h-.581l2.324-4.925c2.709-.197 5.225-1.162 7.539-2.909l-4.927-14.503.583-.285v-1.745h-.88zm24.948-.865l-.281 3.774h.567l2.041-3.774v-.285l-2.327.285zm-26.397-16.535v.285c1.745 1.546 2.61 3.589 2.61 6.101l-.282 1.734.578 1.743-1.161 6.672h.865c0-1.164.483-2.029 1.446-2.612h1.166l.581 1.164c1.164 0 1.931.185 2.314.581h.296l3.479-3.775v-1.744c-4.642-6.77-8.599-10.149-11.892-10.149zm44.678-8.702h.283c2.515 2.514 3.773 4.643 3.773 6.387v1.447c0 3.479-3.971 9.766-11.893 18.849v.581c.769 0 1.166.199 1.166.583l1.731-.296c3.479 1.745 5.222 2.906 5.222 3.489v.283c0 .78-.48 1.166-1.447 1.166v.581l.285.581v.284c-1.15.78-3.578 1.548-7.251 2.328 0 .382-.669.569-2.029.569l-.583 1.162.879 2.327-.296 2.028c3.872-.778 6.482-1.743 7.831-2.907l7.253 3.191.583 1.451c-1.162 20.108-3.479 30.172-6.968 30.172-1.931 0-4.827-1.844-8.699-5.508l-2.897-2.908c-.779 0-1.35-1.164-1.747-3.479h-1.731v-.581h.581v-.581c0-.583-.396-.867-1.161-.867l-.88-1.447.296-4.938-.296-.287h-.286c-1.348 1.35-2.028 3.281-2.028 5.806-.779.769-1.93 1.35-3.478 1.733-.968-1.351-1.447-2.314-1.447-2.895 0-.968.866-3.48 2.598-7.552-3.861 2.127-5.791 4.839-5.791 8.132l-2.031 4.641h.583v2.314c-.978 3.094-2.525 4.642-4.643 4.642h-.581c-.779-.384-1.46-1.448-2.029-3.193l.865-3.479-1.446-3.774h.581l-.581-.569v-1.161c4.827-3.678 8.019-7.452 9.567-11.314l2.61-3.193h-.868v-.865h.868v-.299h-.581l-3.48 1.164-1.742-2.61 2.029-6.388 5.804-.865v-.865l-1.731-2.03.285-3.489v-.287h-1.747l-1.731-2.027v-1.747c3.86 0 5.791-1.249 5.791-3.763l2.327-11.31h.581c.385 0 .967 3.96 1.733 11.895l1.164-.298v.298c4.839-1.166 8.118-3.393 9.863-6.684 3.874-5.41 5.804-8.701 5.804-9.854v-.877h-1.164v-.581l2.327-2.316z"/><path fill="#AE7B28" d="M310.458 238.448h16.434v-7.997h-11.99v-2.444h11.99v-5.771h4.891v5.771h11.553v2.444h-11.553v7.997h15.996v2.447h-37.32v-2.447zm26.215-20.876h-15.107v-7.554h15.107v7.554zm-15.108 4.663v-2.219h15.107v2.219h4.436v-16.435h-4.436v1.774h-15.107v-1.774h-4.445v16.436h4.445zm0-22.662h5.771v-12.432h4.445v12.432h2.219l6.227-10.661 2 1.338-5.555 9.323h6.662v-1.771h4.443v9.771c-.302 0-.597-.078-.889-.219-.295-.444-.599-.675-.891-.675-.892 0-1.631.894-2.219 2.676h-.445v-7.337h-27.984v5.108h-4.445v-9.77h4.445v2.215h4.88c-.739-1.326-2.217-4.956-4.436-10.879l.218-.219c2.074 1.479 4.443 3.252 7.106 5.326-.147 1.341-.659 3.264-1.552 5.774z"/><path stroke="#D9B766" stroke-width=".216" stroke-miterlimit="22.926" d="M310.458 238.448h16.434v-7.997h-11.99v-2.444h11.99v-5.771h4.891v5.771h11.553v2.444h-11.553v7.997h15.996v2.447h-37.32v-2.447zm26.215-20.876h-15.107v-7.554h15.107v7.554zm-15.108 4.663v-2.219h15.107v2.219h4.436v-16.435h-4.436v1.774h-15.107v-1.774h-4.445v16.436h4.445zm0-22.662h5.771v-12.432h4.445v12.432h2.219l6.227-10.661 2 1.338-5.555 9.323h6.662v-1.771h4.443v9.771c-.302 0-.597-.078-.889-.219-.295-.444-.599-.675-.891-.675-.892 0-1.631.894-2.219 2.676h-.445v-7.337h-27.984v5.108h-4.445v-9.77h4.445v2.215h4.88c-.739-1.326-2.217-4.956-4.436-10.879l.218-.219c2.074 1.479 4.443 3.252 7.106 5.326-.147 1.341-.659 3.264-1.552 5.774z" fill="none"/><path fill="#AE7B28" d="M371.851 118.164c0-.505-.347-.968-1.037-1.389-.69-.419-1.741-.632-3.154-.632-.943 0-1.835.16-2.679.479-.843.32-1.262.851-1.262 1.591 0 .371.076.667.226.886.154.218.381.343.683.378h1.718c.203 0 .355-.051.456-.152.1-.099.15-.253.15-.452v-.304h.304v2.524h-.304v-.251c0-.168-.051-.305-.15-.406-.101-.101-.237-.151-.407-.151h-2.524l.075-.176.025-.178-.025-.2c-.015-.068-.058-.135-.124-.203-.168-.203-.287-.413-.353-.632-.066-.218-.102-.46-.102-.73 0-1.011.446-1.751 1.337-2.223.894-.474 1.878-.708 2.956-.708 1.248 0 2.314.277 3.205.834.893.554 1.342 1.254 1.342 2.095 0 .202-.051.437-.152.705-.102.271-.152.438-.152.507 0 .102.025.201.076.301.049.102.127.188.229.255l-2.275.404-.1-.305c.705-.198 1.221-.454 1.538-.756.319-.304.48-.674.48-1.111zm-6.364-5.94v.101h5.909c.135 0 .233-.035.3-.101.068-.066.104-.186.104-.354v-.403h.305v2.02h-.305v-.403c0-.137-.035-.242-.104-.328-.066-.083-.165-.126-.3-.126h-7.929v-.305.029l7.521-3.864v-.102h-6.816c-.133 0-.234.043-.302.129-.066.082-.1.191-.1.326v.403h-.304v-2.02h.304v.403c0 .17.033.286.1.353.067.068.169.102.302.102h7.224c.135 0 .233-.039.3-.113.068-.076.104-.208.104-.401v-.343h.305v1.599l-6.618 3.398zm5.706-9.823l-.006-.037-4.187-1.064v2.109l4.193-1.008zm-4.497 1.03v-2.207l-1.915-.49c-.304-.065-.546-.065-.733 0-.183.066-.276.219-.276.453v.151h-.304v-1.867h.304v.151c0 .135.043.254.125.352.085.102.228.172.431.203l7.723 1.965.253.764-7.978 1.917c-.201.068-.346.154-.429.254-.084.103-.125.218-.125.353v.152h-.304v-2.172h.304v.202c0 .203.059.328.175.378.117.051.293.043.531-.022l2.218-.537zm-3.228-7.324v-2.626h.304v.454c0 .168.033.286.1.353.067.066.169.102.306.102h7.067c.27 0 .421-.016.456-.049.033-.035.049-.17.049-.405 0-.472-.084-.8-.253-.984-.168-.186-.622-.411-1.365-.683l.051-.302 1.923.454v4.8l-1.923.401-.051-.253c.71-.27 1.154-.479 1.34-.632.185-.148.278-.462.278-.934 0-.338-.016-.521-.049-.556-.035-.031-.204-.049-.507-.049h-7.017c-.137 0-.238.041-.306.126-.066.084-.1.191-.1.328v.454h-.303zm2.019-7.153v.102h5.909c.135 0 .233-.035.3-.102.068-.066.104-.186.104-.354v-.401h.305v2.02h-.305v-.404c0-.134-.035-.243-.104-.327-.066-.084-.165-.127-.3-.127h-7.929v-.304.027l7.521-3.864v-.1h-6.816c-.133 0-.234.043-.302.127-.066.086-.1.19-.1.327v.402h-.304v-2.019h.304v.403c0 .168.033.287.1.354.067.068.169.102.302.102h7.224c.135 0 .233-.039.3-.115.068-.074.104-.207.104-.399v-.344h.305v1.599l-6.618 3.397zm5.706-9.822l-.006-.037-4.187-1.067v2.111l4.193-1.007zm-4.497 1.029v-2.209l-1.915-.489c-.304-.066-.546-.066-.733 0-.183.068-.276.223-.276.456v.15h-.304v-1.867h.304v.149c0 .137.043.254.125.354.085.102.228.17.431.203l7.723 1.965.253.761-7.978 1.919c-.201.07-.346.151-.429.253-.084.102-.125.219-.125.354v.15h-.304v-2.17h.304v.203c0 .201.059.325.175.378.117.051.293.041.531-.025l2.218-.535zm-2.523-6.162c-.133 0-.234.044-.302.126-.066.086-.1.195-.1.33v.2h-.304v-2.172h.304v.254c0 .168.033.284.1.353.067.068.169.102.302.102h6.615v-.102l-7.32-1.714v-.304l7.17-1.563v-.104h-6.465c-.133 0-.234.045-.302.127-.066.086-.1.192-.1.327v.152h-.304v-1.515h.304v.149c0 .168.033.287.1.355.067.065.169.101.302.101h7.224c.135 0 .233-.031.3-.093.068-.062.104-.172.104-.328v-.185h.305v1.413l-6.59 1.423v.105l6.59 1.603v1.614h-.306v-.2c0-.135-.035-.244-.104-.33-.066-.082-.165-.126-.3-.126h-7.223zm-.402-15.301c0 .505.167.934.503 1.288.339.353.76.53 1.264.53h5.858c.135 0 .233-.035.3-.102.068-.066.104-.187.104-.354v-.302h.305v1.818h-.305v-.304c0-.133-.035-.242-.104-.328-.066-.081-.165-.124-.3-.124h-5.858c-.675 0-1.205-.227-1.592-.683-.386-.454-.58-.969-.58-1.54 0-.608.167-1.139.503-1.593.339-.455.877-.681 1.618-.681h5.909c.135 0 .233-.035.3-.102.068-.066.104-.186.104-.353v-.252h.305v2.221h-.305v-.251c0-.137-.035-.244-.104-.328-.066-.086-.165-.127-.3-.127h-5.909c-.675 0-1.127.143-1.363.428-.235.291-.353.669-.353 1.139zm.402-9.017c-.133 0-.234.043-.302.127-.066.084-.1.192-.1.327v1.363c0 .474.141.877.429 1.212.285.34.733.591 1.338.759l-.102.252-1.969-.454v-5.2h.304v.351c0 .168.033.289.1.355s.169.102.302.102h7.224c.135 0 .233-.039.3-.109.068-.07.104-.197.104-.377v-.321h.305v2.421h-.306v-.353c0-.135-.035-.243-.104-.327-.066-.084-.165-.127-.3-.127h-7.223zm-.402-6.496c0 .507.167.936.503 1.287.339.354.76.53 1.264.53h5.858c.135 0 .233-.033.3-.1.068-.066.104-.186.104-.354v-.304h.305v1.821h-.305v-.305c0-.135-.035-.243-.104-.327-.066-.086-.165-.129-.3-.129h-5.858c-.675 0-1.205-.225-1.592-.679-.386-.456-.58-.971-.58-1.542 0-.606.167-1.137.503-1.593.339-.452.877-.679 1.618-.679h5.909c.135 0 .233-.035.3-.102.068-.068.104-.187.104-.354v-.253h.305v2.223h-.305v-.252c0-.137-.035-.244-.104-.328-.066-.083-.165-.126-.3-.126h-5.909c-.675 0-1.127.142-1.363.429-.235.287-.353.669-.353 1.137zm0-8.31h-.304v-2.423h.304v.353c0 .168.033.284.1.353.067.068.169.1.302.1h7.224c.135 0 .233-.035.3-.105.068-.07.104-.198.104-.378v-.321h.305v5.295l-1.821.61-.102-.252c.54-.269.946-.591 1.215-.957.269-.37.403-.776.403-1.213v-1.415c0-.135-.035-.242-.104-.328-.066-.082-.165-.124-.3-.124h-3.232v1.665c0 .335.076.576.228.732.15.148.395.227.733.227h.252v.302h-2.931v-.302h.203c.403 0 .707-.078.908-.227.203-.156.305-.397.305-.732v-1.665h-3.689c-.133 0-.234.042-.302.124-.066.086-.1.193-.1.328v.353z"/><path stroke="#D9B766" stroke-width=".216" stroke-miterlimit="22.926" d="M371.851 118.164c0-.505-.347-.968-1.037-1.389-.69-.419-1.741-.632-3.154-.632-.943 0-1.835.16-2.679.479-.843.32-1.262.851-1.262 1.591 0 .371.076.667.226.886.154.218.381.343.683.378h1.718c.203 0 .355-.051.456-.152.1-.099.15-.253.15-.452v-.304h.304v2.524h-.304v-.251c0-.168-.051-.305-.15-.406-.101-.101-.237-.151-.407-.151h-2.524l.075-.176.025-.178-.025-.2c-.015-.068-.058-.135-.124-.203-.168-.203-.287-.413-.353-.632-.066-.218-.102-.46-.102-.73 0-1.011.446-1.751 1.337-2.223.894-.474 1.878-.708 2.956-.708 1.248 0 2.314.277 3.205.834.893.554 1.342 1.254 1.342 2.095 0 .202-.051.437-.152.705-.102.271-.152.438-.152.507 0 .102.025.201.076.301.049.102.127.188.229.255l-2.275.404-.1-.305c.705-.198 1.221-.454 1.538-.756.319-.304.48-.674.48-1.111zm-6.364-5.94v.101h5.909c.135 0 .233-.035.3-.101.068-.066.104-.186.104-.354v-.403h.305v2.02h-.305v-.403c0-.137-.035-.242-.104-.328-.066-.083-.165-.126-.3-.126h-7.929v-.305.029l7.521-3.864v-.102h-6.816c-.133 0-.234.043-.302.129-.066.082-.1.191-.1.326v.403h-.304v-2.02h.304v.403c0 .17.033.286.1.353.067.068.169.102.302.102h7.224c.135 0 .233-.039.3-.113.068-.076.104-.208.104-.401v-.343h.305v1.599l-6.618 3.398zm5.706-9.823l-.006-.037-4.187-1.064v2.109l4.193-1.008zm-4.497 1.03v-2.207l-1.915-.49c-.304-.065-.546-.065-.733 0-.183.066-.276.219-.276.453v.151h-.304v-1.867h.304v.151c0 .135.043.254.125.352.085.102.228.172.431.203l7.723 1.965.253.764-7.978 1.917c-.201.068-.346.154-.429.254-.084.103-.125.218-.125.353v.152h-.304v-2.172h.304v.202c0 .203.059.328.175.378.117.051.293.043.531-.022l2.218-.537zm-3.228-7.324v-2.626h.304v.454c0 .168.033.286.1.353.067.066.169.102.306.102h7.067c.27 0 .421-.016.456-.049.033-.035.049-.17.049-.405 0-.472-.084-.8-.253-.984-.168-.186-.622-.411-1.365-.683l.051-.302 1.923.454v4.8l-1.923.401-.051-.253c.71-.27 1.154-.479 1.34-.632.185-.148.278-.462.278-.934 0-.338-.016-.521-.049-.556-.035-.031-.204-.049-.507-.049h-7.017c-.137 0-.238.041-.306.126-.066.084-.1.191-.1.328v.454h-.303zm2.019-7.153v.102h5.909c.135 0 .233-.035.3-.102.068-.066.104-.186.104-.354v-.401h.305v2.02h-.305v-.404c0-.134-.035-.243-.104-.327-.066-.084-.165-.127-.3-.127h-7.929v-.304.027l7.521-3.864v-.1h-6.816c-.133 0-.234.043-.302.127-.066.086-.1.19-.1.327v.402h-.304v-2.019h.304v.403c0 .168.033.287.1.354.067.068.169.102.302.102h7.224c.135 0 .233-.039.3-.115.068-.074.104-.207.104-.399v-.344h.305v1.599l-6.618 3.397zm5.706-9.822l-.006-.037-4.187-1.067v2.111l4.193-1.007zm-4.497 1.029v-2.209l-1.915-.489c-.304-.066-.546-.066-.733 0-.183.068-.276.223-.276.456v.15h-.304v-1.867h.304v.149c0 .137.043.254.125.354.085.102.228.17.431.203l7.723 1.965.253.761-7.978 1.919c-.201.07-.346.151-.429.253-.084.102-.125.219-.125.354v.15h-.304v-2.17h.304v.203c0 .201.059.325.175.378.117.051.293.041.531-.025l2.218-.535zm-2.523-6.162c-.133 0-.234.044-.302.126-.066.086-.1.195-.1.33v.2h-.304v-2.172h.304v.254c0 .168.033.284.1.353.067.068.169.102.302.102h6.615v-.102l-7.32-1.714v-.304l7.17-1.563v-.104h-6.465c-.133 0-.234.045-.302.127-.066.086-.1.192-.1.327v.152h-.304v-1.515h.304v.149c0 .168.033.287.1.355.067.065.169.101.302.101h7.224c.135 0 .233-.031.3-.093.068-.062.104-.172.104-.328v-.185h.305v1.413l-6.59 1.423v.105l6.59 1.603v1.614h-.306v-.2c0-.135-.035-.244-.104-.33-.066-.082-.165-.126-.3-.126h-7.223zm-.402-15.301c0 .505.167.934.503 1.288.339.353.76.53 1.264.53h5.858c.135 0 .233-.035.3-.102.068-.066.104-.187.104-.354v-.302h.305v1.818h-.305v-.304c0-.133-.035-.242-.104-.328-.066-.081-.165-.124-.3-.124h-5.858c-.675 0-1.205-.227-1.592-.683-.386-.454-.58-.969-.58-1.54 0-.608.167-1.139.503-1.593.339-.455.877-.681 1.618-.681h5.909c.135 0 .233-.035.3-.102.068-.066.104-.186.104-.353v-.252h.305v2.221h-.305v-.251c0-.137-.035-.244-.104-.328-.066-.086-.165-.127-.3-.127h-5.909c-.675 0-1.127.143-1.363.428-.235.291-.353.669-.353 1.139zm.402-9.017c-.133 0-.234.043-.302.127-.066.084-.1.192-.1.327v1.363c0 .474.141.877.429 1.212.285.34.733.591 1.338.759l-.102.252-1.969-.454v-5.2h.304v.351c0 .168.033.289.1.355s.169.102.302.102h7.224c.135 0 .233-.039.3-.109.068-.07.104-.197.104-.377v-.321h.305v2.421h-.306v-.353c0-.135-.035-.243-.104-.327-.066-.084-.165-.127-.3-.127h-7.223zm-.402-6.496c0 .507.167.936.503 1.287.339.354.76.53 1.264.53h5.858c.135 0 .233-.033.3-.1.068-.066.104-.186.104-.354v-.304h.305v1.821h-.305v-.305c0-.135-.035-.243-.104-.327-.066-.086-.165-.129-.3-.129h-5.858c-.675 0-1.205-.225-1.592-.679-.386-.456-.58-.971-.58-1.542 0-.606.167-1.137.503-1.593.339-.452.877-.679 1.618-.679h5.909c.135 0 .233-.035.3-.102.068-.068.104-.187.104-.354v-.253h.305v2.223h-.305v-.252c0-.137-.035-.244-.104-.328-.066-.083-.165-.126-.3-.126h-5.909c-.675 0-1.127.142-1.363.429-.235.287-.353.669-.353 1.137zm0-8.31h-.304v-2.423h.304v.353c0 .168.033.284.1.353.067.068.169.1.302.1h7.224c.135 0 .233-.035.3-.105.068-.07.104-.198.104-.378v-.321h.305v5.295l-1.821.61-.102-.252c.54-.269.946-.591 1.215-.957.269-.37.403-.776.403-1.213v-1.415c0-.135-.035-.242-.104-.328-.066-.082-.165-.124-.3-.124h-3.232v1.665c0 .335.076.576.228.732.15.148.395.227.733.227h.252v.302h-2.931v-.302h.203c.403 0 .707-.078.908-.227.203-.156.305-.397.305-.732v-1.665h-3.689c-.133 0-.234.042-.302.124-.066.086-.1.193-.1.328v.353z" fill="none"/><path fill="#A72027" d="M324.303 22.959c-.216.117-.382.145-.493.07-.111-.07-.197-.152-.262-.242-.06-.09-.2-.366-.413-.83-.216-.464-.438-.886-.673-1.268-.235-.382-.545-.879-.939-1.487-.39-.61-.666-1.02-.834-1.223-.164-.209-.266-.347-.312-.431-.043-.08-.066-.172-.07-.271-.004-.097.064-.21.205-.331s.303-.178.481-.172c.102.014.193.045.279.1.089.051.204.182.347.384l.614.851.706 1.104.711 1.117.618 1.184c.131.255.227.468.293.641.063.172.069.33.014.482-.055.146-.147.256-.272.322m-1.407-12.808l.172.673c.089.333.239.812.45 1.431.204.62.567 1.346 1.072 2.18.507.831 1 1.586 1.479 2.258.485.671 1.055 1.326 1.712 1.972.655.644 1.298 1.219 1.934 1.726s1.04.82 1.211.939c.176.117.294.213.356.282.061.07.1.182.111.33.014.142-.053.292-.197.44-.144.15-.288.221-.443.215-.09 0-.219-.045-.383-.131-.17-.088-.707-.493-1.614-1.223-.908-.726-1.632-1.386-2.168-1.977-.534-.591-1.113-1.301-1.735-2.129-.62-.827-1.111-1.607-1.474-2.34-.358-.737-.581-1.236-.671-1.503l-.374-1.017c-.078.355-.154.667-.229.933-.07.269-.192.642-.372 1.115-.176.476-.401.969-.675 1.474-.272.507-.569.984-.893 1.437-.32.453-.624.841-.913 1.166-.288.328-.717.759-1.282 1.297-.567.538-1.297 1.166-2.191 1.876-.897.713-1.487 1.047-1.771 1.002-.281-.043-.468-.133-.558-.271-.094-.137-.102-.298-.035-.493.07-.195.335-.427.794-.702.462-.272.844-.524 1.148-.752.304-.23.777-.624 1.417-1.186.642-.562 1.176-1.096 1.601-1.604s.867-1.115 1.326-1.81c.456-.696.803-1.372 1.037-2.021.237-.649.435-1.277.593-1.882.159-.608.251-1.039.276-1.292l.035-.412h-7.479c-.188 0-.332-.055-.43-.161-.101-.113-.147-.246-.14-.407 0-.17.051-.303.151-.406.105-.102.238-.156.408-.156h7.498l.049-3.505c0-.131.041-.262.125-.392.086-.129.272-.199.565-.207.292-.008.437.207.437.636l-.008 3.468h7.902c.136 0 .259.053.378.146.114.098.169.246.161.444-.006.156-.062.283-.167.387-.105.103-.23.153-.372.153h-7.824zM341.222 6.831v6.986h7.592c.125 0 .238.051.34.149.105.098.154.238.148.42-.014.175-.074.31-.18.401s-.207.141-.309.141h-7.592v7.445c0 .129-.055.25-.16.368-.104.115-.247.17-.429.162-.155 0-.284-.051-.382-.148-.1-.099-.15-.226-.15-.382v-7.445h-7.725c-.155 0-.286-.049-.392-.141s-.155-.24-.147-.438c0-.168.05-.297.153-.393.104-.091.23-.14.386-.14h7.725v-6.985h-6.753c-.156 0-.287-.048-.398-.144-.106-.098-.155-.25-.142-.456.018-.334.198-.504.54-.504h14.71c.119 0 .226.047.329.137.1.09.146.225.146.398-.004.192-.061.335-.166.429-.105.092-.208.14-.31.14h-6.834zm-3.872 5.652c-.02.15-.099.287-.237.407-.141.121-.295.162-.465.123-.128-.021-.245-.102-.351-.231-.104-.131-.239-.357-.397-.675-.16-.322-.413-.753-.757-1.291-.347-.538-.614-.936-.809-1.197l-.532-.689c-.141-.186-.223-.363-.242-.532-.02-.17.047-.312.184-.432.141-.116.289-.163.444-.144.236.027.503.247.808.651.3.401.666.943 1.104 1.621l.822 1.299c.311.492.453.854.428 1.09zm9.335-4.599c.104-.011.275.035.522.145.254.111.266.422.049.929-.136.312-.366.764-.692 1.356-.319.597-.662 1.145-1.027 1.647-.366.503-.674.876-.93 1.111-.254.236-.493.278-.714.135-.218-.148-.327-.326-.321-.536 0-.15.127-.377.386-.675.262-.302.47-.571.638-.802.162-.228.413-.625.751-1.185.333-.565.571-1.019.703-1.361.133-.339.254-.55.367-.63.113-.076.201-.122.268-.134z"/><path fill-rule="evenodd" clip-rule="evenodd" fill="#D9B766" d="M329.341 253.359c7.463 0 13.513 6.048 13.513 13.511 0 7.464-6.05 13.514-13.513 13.514s-13.513-6.05-13.513-13.514c0-7.463 6.05-13.511 13.513-13.511"/><path fill="#fff" d="M325.751 269.085c2.416-1.435 4.112-2.655 5.091-3.657.976-1.006 1.53-1.583 1.661-1.731.133-.148.195-.253.184-.313-.012-.059-.1-.09-.266-.09h-8.406c-.277 0-.492-.104-.647-.318-.156-.206-.24-.431-.257-.668-.016-.236.06-.466.222-.687.168-.221.394-.33.683-.33h5.029c-.144-.19-.341-.468-.596-.836-.254-.37-.422-.636-.506-.793-.081-.162-.126-.309-.132-.441-.006-.131.014-.263.061-.396.151-.462.479-.685.977-.665.573.047 1.055.41 1.437 1.094.389.685.585 1.113.597 1.283.012.172-.037.327-.149.47-.1.135-.264.229-.494.284h2.714c1.135 0 1.853.145 2.149.43.3.288.447.567.455.844.004.277-.018.491-.073.644-.145.421-.87 1.277-2.184 2.567-1.314 1.291-3.373 2.847-6.175 4.668.585.362 1.045.593 1.383.686.339.094.83.172 1.481.23.651.062 1.251.082 1.802.061 1.59-.033 2.686-.072 3.289-.115.598-.047.934-.07 1-.07.77.012 1.191.23 1.255.657.068.423.041.731-.081.918-.109.176-.289.316-.537.422-.247.104-.643.179-1.183.222-.542.045-1.54.074-2.997.086-.595.01-1.129.002-1.604-.027-.476-.027-1.111-.092-1.903-.197-.795-.103-1.462-.345-1.994-.719-.536-.377-.91-.69-1.129-.943-.214-.254-.368-.422-.47-.498-.1-.075-.22-.057-.362.064-.09.078-.197.227-.326.441-.125.214-.28.44-.47.678-.187.238-.358.402-.513.487-.154.09-.319.129-.495.117-.312 0-.552-.088-.729-.265-.175-.176-.265-.375-.265-.589 0-.215.045-.405.133-.569.032-.057.183-.23.444-.522.265-.293.601-.796 1.004-1.505.401-.714.716-1.072.934-1.076.223-.008.406.046.546.155.054.052.192.224.412.512"/><path fill="none" d="M0 0h640v287.26h-640z"/></svg>