<svg xmlns="http://www.w3.org/2000/svg" width="640.43" height="103.562" viewBox="0 0 640.43 103.562"><path fill-rule="evenodd" clip-rule="evenodd" fill="#A72027" d="M102.691 50.852l20.509-24.539h404.26l20.51 24.538c-2.028 2.426-2.028 6.397 0 8.822l-20.51 24.539h-404.26l-20.509-24.539c2.028-2.426 2.028-6.396 0-8.821M552.361 51.536c2.302 0 4.168 1.866 4.168 4.168 0 2.3-1.866 4.166-4.168 4.166s-4.168-1.866-4.168-4.166c0-2.302 1.867-4.168 4.168-4.168M98.677 51.536c2.302 0 4.166 1.866 4.166 4.168 0 2.3-1.864 4.166-4.166 4.166s-4.168-1.866-4.168-4.166c0-2.302 1.866-4.168 4.168-4.168"/><path fill="#fff" d="M130.599 38.24h9.496v1.165h-9.496v-1.165zm6.951 4.198h-4.423v2.769h4.423v-2.769zm-5.62-1.168h6.82v5.102h-5.623v.843h-1.197v-5.945zm-2.238 8.651h-1.246v-14.855h13.803v12.975c0 1.201-.633 1.796-1.894 1.796-.79 0-1.689-.021-2.691-.062-.053-.38-.13-.812-.228-1.299 1.07.098 1.956.148 2.658.148.605 0 .907-.302.907-.907v-11.454h-11.31v13.658zM152.486 40.46c.865 1.576 1.518 2.833 1.961 3.773-.28.13-.712.346-1.296.647-.422-1.025-1.025-2.306-1.815-3.837l1.15-.583zm-3.627-3.598h-3.03v4.098h3.03v-4.098zm-3.03 9.463h3.03v-4.197h-3.03v4.197zm4.844-8.618h5.752v-3.581h1.296v3.581h2.3v1.196h-2.3v8.718c0 1.445-.693 2.17-2.074 2.17-.627 0-1.545-.016-2.754-.049-.057-.388-.142-.845-.259-1.362 1.133.087 2.02.132 2.656.132.755 0 1.135-.385 1.135-1.151v-8.457h-5.752v-1.197zm-6.124-2.044h5.591v13.205h-1.28v-1.347h-3.03v1.539h-1.28v-13.397zM163.539 37.674h1.163v3.255c0 2.094-.144 3.719-.438 4.875l.469-.437c1.105 1.145 2.07 2.188 2.901 3.127l-1.021.86c-.767-.984-1.607-1.982-2.526-2.999-.389 1.232-1.323 2.489-2.802 3.775-.239-.334-.525-.663-.86-.988 1.266-.938 2.1-1.946 2.513-3.012.398-.929.602-2.509.602-4.73v-3.726zm7.627 4.082l1.119-.327c.494 1.558.975 3.189 1.44 4.896l-1.213.355c-.089-.325-.169-.655-.245-.99-1.144.078-2.17.169-3.078.276-.475.053-.953.143-1.441.261l-.505-1.055c.382-.237.662-.561.845-.973.596-1.435 1.156-3.162 1.686-5.185l1.231.295c-.649 1.996-1.29 3.837-1.929 5.523.917-.057 1.89-.118 2.915-.196-.259-.946-.533-1.909-.825-2.88zm-9.785-6.676h5.478v4.65c1.078-1.654 1.884-3.515 2.413-5.589l1.28.29c-.261.778-.529 1.52-.81 2.221h6.188c-.066 5.248-.132 8.742-.194 10.482-.1 1.749-.996 2.623-2.689 2.623-.93 0-1.917-.021-2.966-.062-.065-.436-.151-.878-.258-1.331 1.049.118 2.006.185 2.883.194 1.135-.01 1.734-.574 1.797-1.686.077-1.834.132-4.849.163-9.038h-5.409c-.401.938-.817 1.798-1.25 2.574-.314-.204-.694-.402-1.147-.599v5.313h-1.168v-8.861h-3.143v8.957h-1.167v-10.138zM180.238 37.899l.665-.874c1.304.755 2.538 1.537 3.693 2.349l-.763 1.02c-1.112-.853-2.311-1.685-3.595-2.495m-1.619 2.608l.681-.874c1.413.821 2.693 1.643 3.838 2.464l-.761 1.004c-1.252-.941-2.505-1.806-3.758-2.594zm-.666-4.147v-1.168h14.435v1.037c-.571 1.405-1.155 2.6-1.751 3.581-.518-.248-.928-.421-1.229-.518.551-.876 1.055-1.854 1.506-2.933h-12.961zm-.342 12.636c3.717-.745 6.18-2.129 7.391-4.146h-7.714v-1.165h8.249c.344-.821.523-3.038.533-6.646h1.298c-.045 3.489-.209 5.705-.487 6.646h6.106v1.165h-6.513c-.088.195-.183.382-.29.566 1.771.841 3.964 2.047 6.577 3.611l-.731 1.15c-2.429-1.576-4.595-2.851-6.493-3.822-1.438 1.76-3.793 3.052-7.064 3.873-.185-.313-.469-.724-.862-1.232zM201.3 40.166c1.845-1.133 3.563-2.294 5.149-3.482h-12.166v-1.346h14.403v1.605c-1.934 1.33-3.909 2.623-5.931 3.887v5.964c0 1.066-.204 1.808-.615 2.22-.4.433-1.14.652-2.218.664-.596 0-1.478-.018-2.641-.051-.068-.539-.154-1.062-.261-1.57 1.08.119 2.008.183 2.788.194.992.012 1.49-.48 1.49-1.475v-6.61zM222.868 35.153l-.945 3.905h-1.437l1.28-3.905h1.102zm2.771 0l-.945 3.905h-1.436l1.28-3.905h1.101zM523.3 35.153l-1.278 3.905h-1.102l.945-3.905h1.435zm2.788 0l-1.28 3.905h-1.104l.948-3.905h1.436zM232.79 46.841l1.524-1.263c.712.777 1.521 1.63 2.43 2.561l-1.784 1.455c-.625-.84-1.349-1.757-2.17-2.753m-5.637-9.006h6.366c.102-1.08.152-2.29.148-3.629h2.492c-.018 1.165-.063 2.376-.146 3.629h6.659v2.233h-6.367c1.125 3.701 3.376 6.239 6.756 7.617-.572.657-1.214 1.451-1.928 2.379-2.879-1.78-4.926-4.471-6.14-8.067-.79 2.754-2.892 5.478-6.301 8.167-.778-.973-1.405-1.697-1.882-2.174 3.762-2.181 5.893-4.821 6.4-7.922h-6.06v-2.233zM258.711 38.516c-1.144 1.372-2.354 2.721-3.627 4.048l-1.654-1.345c1.254-1.296 2.379-2.629 3.371-3.998l1.91 1.295zm-14.127-.163l1.701-1.149c1.037 1.208 2.113 2.549 3.225 4.016l-1.96 1.298c-1.09-1.655-2.08-3.042-2.966-4.165zm-.938 4.487h6.593v-5.944h-5.881v-2.139h14.321v2.139h-5.978v5.944h6.688v2.139h-6.688v5.039h-2.463v-5.039h-6.593v-2.139zM269.191 40.863l1.752-.631c.518 1.265.984 2.533 1.393 3.809l-1.879.646c-.358-1.251-.779-2.527-1.266-3.824m-5.36 6.725h-.584c-.14-.973-.247-1.648-.323-2.027.237.045.442.065.613.065.521 0 .78-.383.78-1.149 0-.94-.465-2.084-1.394-3.433l1.28-4.277h-1.426v13.364h-2.023v-15.341h5.358v1.813l-1.376 4.066c.974 1.49 1.458 2.89 1.458 4.197.001 1.815-.787 2.722-2.363 2.722zm5.67-10.465h3.271v-2.854h2.027v2.854h1.358v2.137h-1.357v8.085c0 .745-.13 1.321-.392 1.724-.258.405-.612.646-1.064.723-.451.075-1.309.114-2.58.114-.095-.726-.241-1.423-.436-2.092.539.033 1.031.047 1.473.047.648 0 .972-.3.972-.905v-7.696h-3.271v-2.137zm-1.459-3.03l1.977.192c-.308.907-.659 1.812-1.053 2.707v13.105h-1.992v-9.257c-.259.438-.529.873-.81 1.303-.304-.624-.639-1.246-1.006-1.863 1.383-2.159 2.345-4.221 2.884-6.187zM289.814 37.609h-2.203v8.618h2.203v-8.618zm-4.375 12.166v-14.289h6.546v14.191h-2.171v-1.329h-2.203v1.427h-2.172zm-5.246 0c-.163-.76-.352-1.568-.567-2.431.669.042 1.22.062 1.649.062.261 0 .463-.054.607-.165.14-.11.229-.263.263-.455.033-.194.068-1.016.112-2.458.045-1.447.072-3.249.088-5.409h-1.568c-.062 5.133-1.031 8.889-2.919 11.276-.377-.733-.804-1.508-1.28-2.317 1.351-1.917 2.051-4.901 2.1-8.959h-1.854v-2.119h1.903c.016-.931.023-1.823.023-2.674h2.107l-.041 2.674h3.67l-.107 6.544-.104 3.799c-.025.77-.188 1.357-.49 1.759-.298.396-.656.644-1.068.735-.414.09-1.254.138-2.524.138zM297.349 45.675h7.791v-.712h-7.791v.712zm0-3.986h7.791v-.729h-7.791v.729zm7.791-2.719h-7.791v.728h7.791v-.728zm-7.791 4.73h7.791v-.745h-7.791v.745zm1.976 3.58l.856 1.57c-1.835.453-3.648.897-5.44 1.327-.315-.67-.611-1.274-.894-1.813 1.859-.311 3.684-.675 5.478-1.084zm3.709.065c1.503.249 3.401.571 5.702.973l-.68 1.894c-1.998-.453-3.933-.884-5.801-1.296l.779-1.571zm-9.671-1.67h1.798v-8.196h4.942v-.779h-6.561v-1.554h6.561v-1.053h2.236v1.053h6.56v1.554h-6.56v.779h4.987v8.196h1.864v1.539h-15.828v-1.539zM314.375 45.796c-.648.881-1.392 1.702-2.23 2.463 1.53-.249 2.919-.563 4.165-.947-.698-.449-1.341-.957-1.935-1.516m4.285.642c.992-.443 1.865-.945 2.615-1.506h-5.103c.728.593 1.557 1.093 2.488 1.506zm-8.529-5.445h4.399c.107-.302.207-.611.296-.925h2.188c-.078.313-.164.623-.259.925h8.961v1.7h-9.582c-.12.283-.247.559-.381.827h8.585v1.394c-.938.89-2 1.682-3.184 2.372 1.409.347 2.983.545 4.721.592-.396.712-.755 1.41-1.066 2.09-2.323-.21-4.382-.69-6.182-1.44-1.684.703-3.567 1.248-5.646 1.637-.331-.596-.683-1.162-1.062-1.703-.322.293-.661.572-1.012.843-.357-.714-.731-1.345-1.132-1.897 1.731-1.273 3.074-2.844 4.023-4.713h-3.668v-1.702zm3.878-4.593c.321.476.67 1.019 1.047 1.629h2.16c-.192-.385-.412-.776-.653-1.183l1.506-.525-4.06.079zm4.6-.087c.33.543.653 1.114.965 1.716h1.215c.439-.539.873-1.136 1.305-1.792l-3.485.076zm-8.286-1.556c3.779.021 8.6-.076 14.452-.292l.504 1.701-2.253.058 1.165.688c-.305.354-.644.727-1.002 1.117h2.04v2.561h-2.238v-.86h-10.188v.859h-2.236v-2.561h2.083c-.217-.379-.419-.702-.609-.973l1.541-.648-2.721.047c-.119-.46-.3-1.03-.538-1.697zM344.768 44.914c.562.617 1.053 1.205 1.473 1.767l-1.455 1.133c-.4-.572-.876-1.188-1.429-1.847l1.411-1.053zm-6.074.147l1.86.518c-.237.881-.482 1.708-.728 2.488.69.029 1.094-.014 1.214-.137.119-.122.18-.279.18-.473v-2.641h-3.437v-1.749h8.425v1.749h-2.883v3.322c0 .502-.098.902-.296 1.202-.199.302-.479.494-.849.588-.366.091-1.199.136-2.503.136-.073-.346-.151-.661-.226-.945l-1.798-.643c.38-.939.726-2.078 1.041-3.415zm6.772-2.821h-7.18v-1.716h7.18v1.716zm2.913-2.476h1.96c-.012.708-.031 1.35-.072 1.934.403 2.97 1.602 5.052 3.605 6.246-.315.487-.724 1.209-1.233 2.172-1.537-1.194-2.617-2.769-3.238-4.723-.496 1.711-1.584 3.33-3.255 4.852-.477-.65-.952-1.264-1.427-1.847 1.382-1.109 2.339-2.308 2.866-3.606.531-1.296.794-2.972.794-5.028zm5.153-3.435v1.878l-.715 3.127-1.91-.405.599-2.609h-3.094c-.347 1.092-.696 2.032-1.055 2.819-.679-.355-1.284-.649-1.813-.875.79-1.695 1.429-3.758 1.911-6.188l1.992.355c-.155.664-.312 1.298-.469 1.897h4.554zm-8.039 3.384h-7.383v-1.717h2.834v-1.053h-3.16v-1.751h3.16v-1.149h2.136v1.149h3.065v1.751h-3.065v1.053h2.413v1.717zM359.883 46.551h-3.096v1.247h3.096v-1.247zm6.381-6.432c-.463.896-1.078 1.809-1.847 2.738h3.66c-.645-.833-1.253-1.746-1.813-2.738zm1.183 4.618h-2.544v2.444h2.544v-2.444zm.504-10.629c.938 1.22 1.813 2.442 2.625 3.66l-1.672 1.201c-.81-1.448-1.631-2.76-2.46-3.937l1.507-.924zm-11.082.21l2.267-.26c.064.346.158.779.278 1.297h2.686v2.431c.906-1.122 1.682-2.323 2.317-3.598l1.621.778c-.743 1.426-1.648 2.858-2.705 4.293-.4-.356-.888-.76-1.459-1.215l.179-.21h-1.572v-.778h-4.244v.81h-1.621v-2.511h2.528c-.098-.398-.189-.743-.275-1.037zm-2.315 8.312h2.817v-.712h-2.139v-1.524h2.139v-.71h-2.494v-1.59h2.494v-.648h1.845v.648h2.514v1.59h-2.514v.71h2.141v1.524h-2.141v.712h2.691c1.512-1.166 2.651-2.825 3.417-4.974h2.22l-.261.551c.856 1.846 1.968 3.278 3.339 4.294-.249.572-.533 1.269-.857 2.088-.162-.128-.315-.265-.454-.404v5.896h-1.863v-1.02h-2.544v1.02h-1.862v-5.783c-.151.141-.307.276-.471.407-.171-.51-.387-1.059-.646-1.654v1.135h-2.708v.747h2.448v5.086h-1.781v-.601h-3.096v.601h-1.782v-5.086h2.366v-.747h-2.817v-1.556zM378.934 45.124h2.153v1.701c0 .69.308 1.035.923 1.035h1.313c.788 0 1.212-.245 1.263-.743.045-.292.098-1.025.163-2.203.81.282 1.544.52 2.203.712-.151 1.286-.298 2.182-.438 2.691-.228 1.014-1.215 1.52-2.964 1.52h-2.431c-1.457 0-2.187-.788-2.187-2.362v-2.351zm-1.038-4.617h-3.044v2.253h2.59c.194-.638.345-1.387.454-2.253zm-3.061-1.831h4.505l1.31-1.473h-4.454c-.421.51-.875.998-1.361 1.473zm8.261 4.084v-2.253h-3.076c-.096.854-.221 1.604-.372 2.253h3.448zm.307-7.389v1.783l-1.378 1.521h3.323v5.913h-6.188c-1.211 2.258-3.446 4.134-6.71 5.622-.387-.551-.912-1.215-1.57-1.992 2.777-1.026 4.669-2.234 5.673-3.63h-1.701v.698h-2.252v-4.684l-.631.456c-.334-.684-.714-1.368-1.134-2.06 2.006-1.293 3.621-2.932 4.841-4.907l2.527.176c-.206.379-.426.747-.663 1.103h5.863zM400.188 36.716h-5.185v2.203h5.185v-2.203zm-7.339-1.926h9.493v6.058h-3.66v1.459h4.73v1.847h-3.719c.858 1.161 2.162 2.137 3.914 2.931-.541.865-.97 1.568-1.281 2.107-1.57-.99-2.788-2.229-3.645-3.719v4.643h-2.3v-4.537c-1.076 1.518-2.345 2.786-3.806 3.806-.347-.636-.76-1.284-1.234-1.944 1.464-.842 2.748-1.936 3.848-3.286h-3.392v-1.847h4.584v-1.459h-3.533v-6.059zm-2.544-.682l2.174.648c-.38 1.364-.806 2.656-1.28 3.872v11.486h-2.043v-7.211c-.36.622-.739 1.216-1.135 1.782-.119-1.047-.296-2.072-.533-3.076 1.134-1.955 2.072-4.455 2.817-7.501zM411.301 44.768h2.072c-.035.594-.128 1.131-.272 1.611 1.997.553 4.254 1.236 6.77 2.052l-.988 1.765c-2.002-.755-4.197-1.516-6.583-2.277-.957 1.184-3.208 1.931-6.75 2.246-.237-.596-.527-1.243-.874-1.945 2.343-.131 4.024-.417 5.042-.854 1.018-.442 1.546-1.307 1.583-2.598m4.894-2.414c.809.027 1.261.014 1.354-.045.098-.055.166-.152.213-.286.044-.136.069-.333.069-.594h-2.496v1.234h-2.009v-1.234h-2.898c-.401.674-.806 1.168-1.217 1.491h7.161l-.177-.566zm-8.992-3.321l-.18.907h1.896c.082-.269.154-.572.21-.907h-1.926zm3.782.907h2.341v-.907h-2.163c-.047.323-.109.627-.178.907zm6.262-2.397v-.906h-1.912v.906h1.912zm-5.964 0h2.043v-.906h-2.025l-.018.906zm-4.631 9.625v-2.732c-.48.204-1.006.402-1.572.592-.261-.518-.596-1.084-1.004-1.701 1.949-.48 3.282-1.111 4-1.897h-3.173l.612-3.886h3.762c.01-.249.016-.551.016-.906h-4.326v-1.491h4.326v-1.069h2.008v1.069h2.025v-1.069h2.009v1.069h3.823v3.888h-3.823v.907h4.44c-.023.849-.062 1.572-.119 2.176-.057.603-.22 1.043-.486 1.319-.267.278-.669.428-1.212.449v2.956h-2.04v-2.512h-7.225v2.838h-2.041zM424.406 43.797h3.24v-.924h-3.24v.924zm8.685 0v-.924h-3.304v.924h3.304zm-8.685-2.09h3.24v-.924h-3.24v.924zm8.685-.924h-3.304v.924h3.304v-.924zm-12.394 7.338h6.949v-.827h-5.898v-1.36h5.898v-.792h-5.328v-5.702h5.328v-.794h-6.902v-1.459h6.902v-.812l-5.507.097c-.088-.475-.188-.959-.308-1.457 4.588-.055 9.071-.178 13.446-.374.01.033.112.543.306 1.524l-5.797.155v.866h6.997v1.459h-6.997v.794h5.394v5.701h-5.394v.792h5.993v1.36h-5.993v.827h6.997v1.459h-16.087v-1.457zM437.561 38.256h6.4c.075-1.178.108-2.538.097-4.083h2.464c-.033 1.604-.078 2.966-.131 4.083h6.692v2.233h-6.505c.928 3.609 3.169 6.034 6.73 7.275-.769.876-1.382 1.619-1.847 2.236-2.944-1.382-4.993-3.61-6.149-6.683-.895 2.812-2.967 5.079-6.211 6.797-.432-.551-1.043-1.241-1.831-2.074 3.931-1.784 6.083-4.301 6.456-7.552h-6.166v-2.232zM455.155 37.413c.365 1.025.739 2.165 1.117 3.417l-1.474.553c-.304-1.068-.649-2.219-1.037-3.45l1.394-.52zm4.933 5.542h2.746c.046-.574.083-1.211.104-1.911h-1.611c-.394.726-.807 1.366-1.239 1.911zm-1.709-5.379c0 2.376-.002 3.744-.007 4.105.873-1.144 1.608-2.514 2.2-4.105h-2.193zm10.512 3.468h-3.79c-.021.706-.049 1.343-.088 1.911h4.446v1.941h-4.164c1.125 1.433 2.689 2.458 4.699 3.08-.52.701-1.014 1.413-1.49 2.139-1.987-.902-3.493-2.203-4.521-3.896-.9 1.704-2.44 3.024-4.617 3.958-.582-.798-1.111-1.434-1.586-1.911 2.425-.755 3.968-1.88 4.633-3.37h-3.664v-1.941h1.226c-.61-.427-1.147-.775-1.61-1.047-.098 3.412-1.003 6.172-2.707 8.27-.681-.691-1.247-1.209-1.701-1.553 1.076-1.372 1.777-2.937 2.105-4.689-.7.436-1.341.812-1.912 1.125l-.356-2.123c.86-.368 1.689-.742 2.488-1.125.006-.21.008-2.25.008-6.116h5.402l-.559-1.231 2.607-.422.625 1.653h5.319v1.88h-8.891l1.829.6-.373.924h6.641v1.943zM481.496 43.475c.8.601 1.604 1.243 2.413 1.918v-2.292h-2.308l-.105.374m-2.141-.374h-1.91v2.841c.891-.701 1.53-1.651 1.91-2.841zm-1.91 6.932h-2.009v-8.65h4.268c.051-.411.078-.837.084-1.279h-4.415v-1.848h10.887v1.848h-4.317c-.012.431-.037.856-.072 1.279h4.049v6.351c0 .652-.167 1.168-.5 1.546-.33.379-.821.61-1.465.696-.645.087-1.609.122-2.896.104-.206-.949-.378-1.659-.52-2.137.449.031 1.016.047 1.701.047l.447.01c.416 0 .722-.084.918-.247.197-.165.3-.42.304-.767v-1.035l-1.149 1.199c-.588-.654-1.236-1.336-1.944-2.044-.514.952-1.198 1.8-2.057 2.544-.454-.458-.894-.878-1.313-1.264v3.647zm.761-15.811l2.674-.21.31 1.326h5.327v1.915h-11.774v4.211c0 2.605-.284 4.606-.849 5.995-.563 1.392-1.031 2.299-1.404 2.719-.735-.798-1.327-1.366-1.78-1.701.912-1.047 1.506-2.426 1.788-4.139-.561.356-1.109.695-1.645 1.012l-.471-2.43c.696-.317 1.463-.725 2.292-1.223l-.006-1.1-1.492.429c-.28-1.847-.506-3.172-.682-3.97l1.444-.42c.329 1.467.572 2.654.729 3.555v-4.854h5.824l-.285-1.115zM499.722 36.716h-5.184v2.203h5.184v-2.203zm-7.34-1.926h9.494v6.058h-3.661v1.459h4.73v1.847h-3.718c.857 1.161 2.161 2.137 3.913 2.931-.541.865-.97 1.568-1.28 2.107-1.57-.99-2.789-2.229-3.646-3.719v4.643h-2.3v-4.537c-1.076 1.518-2.345 2.786-3.808 3.806-.345-.636-.757-1.284-1.234-1.944 1.468-.842 2.75-1.936 3.85-3.286h-3.392v-1.847h4.584v-1.459h-3.533v-6.059zm-2.544-.682l2.172.648c-.377 1.364-.804 2.656-1.278 3.872v11.486h-2.043v-7.211c-.36.622-.739 1.216-1.135 1.782-.118-1.047-.296-2.072-.533-3.076 1.134-1.955 2.074-4.455 2.817-7.501zM514.317 36.488c-.69.939-1.411 1.812-2.154 2.611h4.229c-.788-.809-1.479-1.68-2.075-2.611m.163 5.105c.397 1.576.744 3.031 1.037 4.358l-1.896.436c-.271-1.467-.596-2.93-.974-4.39l1.833-.404zm-3.013.535c.408 1.353.829 2.86 1.263 4.535l-1.913.551c-.334-1.553-.726-3.082-1.179-4.584l1.829-.502zm-2.464 5.476h6.157c.669-1.942 1.187-3.84 1.555-5.686l2.154.52c-.518 1.728-1.068 3.449-1.65 5.166h2.152v1.977h-10.368v-1.977zm8.459-6.56h-6.515v-.794c-.356.302-.728.598-1.117.889-.323-.679-.696-1.365-1.117-2.057 1.803-1.243 3.357-2.878 4.665-4.909h2.366l-.292.537c1.284 1.899 2.741 3.292 4.372 4.176-.356.584-.749 1.259-1.183 2.027-.409-.261-.804-.539-1.18-.845v.976zm-9.381-.196c.876 1.047 1.312 2.288 1.312 3.726 0 .907-.208 1.57-.633 1.993-.43.432-1.177.647-2.233.647-.066-.669-.196-1.42-.39-2.251.249.053.454.082.615.082.443 0 .665-.335.665-1.004 0-1.059-.412-2.063-1.231-3.015.443-1.405.825-2.837 1.15-4.293h-1.217v13.364h-1.893v-15.228h5.248v1.539c-.477 1.643-.94 3.123-1.393 4.44zM330.257 42.483v3.442h1.588c.678 0 1.207-.155 1.584-.471.382-.312.572-.745.572-1.302 0-.531-.19-.94-.564-1.233-.381-.29-.916-.437-1.613-.437h-1.567zm0-5.117v3.102h1.272c.611 0 1.094-.146 1.444-.439.351-.29.525-.697.525-1.223 0-.961-.702-1.439-2.107-1.439h-1.134zm-2.673 10.552v-12.547h4.458c1.365 0 2.418.262 3.157.779.74.52 1.111 1.235 1.111 2.153 0 .682-.229 1.276-.688 1.79-.459.512-1.037.866-1.733 1.062v.031c.873.107 1.582.434 2.117.973.536.539.805 1.217.805 2.032 0 1.138-.404 2.045-1.214 2.718-.81.672-1.915 1.008-3.319 1.008h-4.694zM128.949 60.313l.906-.81c1.168 1.092 2.252 2.232 3.258 3.421l-1.086.923c-.907-1.189-1.934-2.366-3.078-3.534m12.959.067c-1.156 1.306-2.306 2.485-3.45 3.532l-.971-.874c1.102-.994 2.206-2.176 3.319-3.55l1.102.892zm-13.948 12.166h12.831v-2.787h-11.842v-1.149h11.842v-2.738h-12.361v-1.15h6.271v-6.01h1.342v6.01h6.091v9.948h-1.343v-.974h-12.831v-1.15zM156.988 67.267h-5.078c.455 1.434 1.233 2.625 2.335 3.57 1.183-.967 2.098-2.156 2.743-3.57m1.235-3.55h1.813c-.107.39-.198.784-.276 1.182h-1.717c-1.241 0-1.863-.592-1.863-1.78v-2.544h-3.593v.6c.008 2.086-.817 3.639-2.482 4.664-.269-.355-.561-.685-.872-.986 1.425-.776 2.137-2.004 2.137-3.678v-1.734h6.028v3.499c-.001.518.272.777.825.777zm-14.323 3.629c.756-.206 1.545-.434 2.364-.688v-3.572h-2.153v-1.136h2.153v-3.143h1.217v3.143h1.961v1.135h-1.961v3.193c.557-.18 1.128-.368 1.718-.568-.012.344 0 .767.033 1.263-.59.185-1.171.369-1.751.561v5.092c0 1.18-.525 1.768-1.57 1.768h-1.574c-.043-.378-.113-.837-.208-1.376.604.064 1.095.095 1.473.095.443 0 .663-.259.663-.776v-4.407c-.737.249-1.473.504-2.2.763l-.165-1.347zm6.109-.079v-1.135h8.328v1.117c-.737 1.71-1.769 3.152-3.104 4.317 1.288.81 2.911 1.374 4.869 1.693-.304.398-.574.81-.813 1.229-2.017-.441-3.703-1.157-5.052-2.145-1.457 1.02-3.207 1.777-5.248 2.275-.239-.442-.477-.821-.714-1.135 1.961-.41 3.627-1.061 5.005-1.952-1.188-1.138-2.036-2.562-2.542-4.267h-.729zM173.918 60.557h-6.577v3.322h6.577v-3.322zm-13.493 6.061c1.448-2.162 2.571-4.781 3.37-7.857l1.199.356c-.441 1.424-.922 2.759-1.443 4.001v11.438h-1.166v-8.99c-.461.851-.947 1.645-1.457 2.38-.153-.454-.32-.895-.503-1.328zm5.686-7.145h9.04v6.108h-1.233v-.616h-2.721v2.187h5.348v1.102h-4.405c.992 1.652 2.504 2.956 4.533 3.903-.334.465-.603.866-.81 1.201-2.031-1.232-3.584-2.896-4.666-4.991v6.271h-1.183v-6.336c-1.304 2.353-2.942 4.148-4.907 5.378-.25-.302-.549-.63-.907-.988 1.923-1.057 3.481-2.537 4.682-4.438h-4.246v-1.102h5.379v-2.187h-2.674v.729h-1.229v-6.221zM177.096 73.227c4.709-2.721 7.197-7.495 7.468-14.321h1.427c-.061 1.155-.176 2.259-.341 3.306 1.339 5.399 3.854 8.953 7.548 10.659-.451.496-.852.968-1.198 1.409-3.207-1.813-5.495-5.024-6.861-9.63-1.183 4.448-3.522 7.719-7.021 9.807-.295-.397-.636-.809-1.022-1.23"/><path fill="#fff" d="M203.842 59.732l.712-.907c1.059.669 2.074 1.364 3.047 2.09l-.875 1.053c-.939-.8-1.902-1.545-2.884-2.236m2.494 6.951h-5.855c.487 1.494 1.45 2.782 2.893 3.862 1.397-1.155 2.386-2.441 2.962-3.862zm-10.465-4.374h3.425c.267-1.129.49-2.362.673-3.693l1.378.175c-.183 1.228-.406 2.401-.673 3.519h8.951v1.198h-9.259c-.194.712-.409 1.397-.641 2.059h8.039v1.117c-.714 1.767-1.825 3.29-3.333 4.575 1.518.918 3.286 1.566 5.306 1.936-.484.541-.864.994-1.132 1.362-1.73-.572-3.468-1.409-5.215-2.512-1.405.922-3.416 1.8-6.029 2.625-.299-.435-.626-.831-.973-1.199 2.658-.69 4.643-1.424 5.955-2.195-1.421-1.214-2.433-2.745-3.038-4.592-1.183 2.958-2.792 5.388-4.827 7.289-.292-.41-.578-.778-.86-1.102 2.437-2.198 4.227-5.319 5.372-9.363h-4.497v-1.216c.444-1.025.849-2.057 1.215-3.094l1.313.357c-.379.949-.762 1.868-1.15 2.754zM210.337 72.399h7.519v-4.131h-5.736v-1.247h5.736v-3.742h-4.276c-.721 1.296-1.546 2.468-2.479 3.517-.226-.356-.52-.736-.876-1.135 1.524-1.705 2.729-3.791 3.614-6.254l1.326.358c-.285.787-.601 1.544-.945 2.267h3.637v-3.435h1.394v3.435h6.188v1.247h-6.188v3.742h5.732v1.247h-5.732v4.131h7.063v1.217h-15.976v-1.217zM229.939 66.263h4.375v-1.378h-4.375v1.378zm9.965-1.378h-4.423v1.378h4.423v-1.378zm-9.965 3.627h4.375v-1.394h-4.375v1.394zm5.542 0h4.423v-1.394h-4.423v1.394zm-8.588 4.454h7.422v-1.196h-6.155v-.958h6.155v-1.36h-4.375v.584h-1.133v-6.091h5.508v-1.167h-7.292v-1.002h7.292v-1.273c-1.962.059-3.989.111-6.091.152-.064-.345-.141-.712-.228-1.1 5.474-.066 9.91-.21 13.302-.438l.192 1.102c-1.921.091-3.925.175-6.009.251v1.306h7.354v1.002h-7.354v1.167h5.558v6.075h-1.135v-.568h-4.423v1.36h6.171v.958h-6.171v1.196h7.354v1.006h-15.942v-1.006zM243.417 62.599l1.021-.421c.391.866.788 1.897 1.2 3.094l-1.134.454c-.332-1.135-.696-2.176-1.087-3.127m7.842-3.578l1.2-.521c.341.59.668 1.227.979 1.911h5.809v1.167h-12.07v4.797c0 3.521-.906 6.285-2.72 8.294-.249-.325-.562-.639-.942-.94 1.354-1.566 2.146-3.423 2.368-5.565-.562.353-1.274.78-2.14 1.288l-.306-1.359c1.079-.514 1.914-.948 2.51-1.304v-6.377h6.091c-.228-.422-.487-.887-.779-1.391zm-4.488 14.515c3.07-.866 4.903-2.333 5.491-4.407h-4.615v-1.133h4.817c.088-.8.137-1.757.146-2.87h-2.536c-.375.745-.776 1.415-1.196 2.01-.282-.228-.633-.453-1.053-.681.918-1.251 1.684-2.775 2.3-4.567l1.184.354c-.224.623-.456 1.204-.697 1.749h7.53v1.135h-4.284c-.02 1.141-.074 2.096-.159 2.87h5.271v1.133h-4.983c1.213 2.127 3.052 3.492 5.517 4.098-.278.432-.533.86-.761 1.28-2.576-.821-4.409-2.29-5.499-4.407-.825 2.176-2.733 3.699-5.725 4.569-.218-.357-.465-.736-.748-1.133zM271.43 59.504l.679-.84c.874.506 1.761 1.072 2.656 1.7l-.776.971c-.81-.624-1.665-1.235-2.559-1.831m-5.317 5.947h-3.498v2.658h3.498v-2.658zm-6.055 6.756c2.062-.272 4.748-.692 8.067-1.265.012.465.023.873.047 1.229-2.43.368-5.027.812-7.791 1.331l-.323-1.295zm1.393-7.893h5.83v5.67h-1.168v-.743h-3.498v1.135h-1.164v-6.062zm5.264 9.381c1.349-.922 2.531-1.98 3.547-3.174-.692-1.912-1.102-4.502-1.229-7.777h-8.733v-1.196h8.683c-.043-.905-.079-1.841-.112-2.82h1.328c.006.979.021 1.915.049 2.82h5.732v1.196h-5.709c.07 2.686.374 4.884.907 6.595 1.043-1.464 1.866-3.104 2.471-4.923l1.28.533c-.881 2.196-1.953 4.125-3.218 5.783.486 1.037 1.068 1.771 1.743 2.204.65.421 1.047.243 1.199-.537.163-.81.283-1.639.373-2.494.443.194.856.352 1.247.471-.204 1.241-.4 2.182-.583 2.817-.229.843-.719 1.274-1.474 1.296-.626 0-1.237-.226-1.831-.679-.605-.506-1.127-1.176-1.564-2.003-.953 1.086-2.01 2.036-3.166 2.846-.25-.282-.561-.599-.94-.958zM280.273 65.548h8.344v-1.523h-8.344v1.523zm8.344-4.082h-8.344v1.521h8.344v-1.521zm-8.344 6.656h8.344v-1.537h-8.344v1.537zm-3.513 0h2.233v-7.742h3.703c.253-.638.461-1.231.622-1.782l1.362.34c-.206.464-.424.946-.655 1.442h5.872v6.887c.705-.529 1.388-1.088 2.042-1.672l.809.894c-.912.782-1.863 1.521-2.851 2.218v3.24c0 1.631-.714 2.452-2.138 2.464-.888.021-1.783.011-2.689-.033-.066-.38-.152-.827-.261-1.345.79.075 1.638.114 2.545.114.841 0 1.263-.443 1.263-1.331v-2.249c-3.294 2.117-7.015 3.791-11.161 5.021-.208-.421-.449-.829-.729-1.229 3.817-.983 7.234-2.364 10.254-4.149h-10.221v-1.088zM306.541 62.875h-3.466c.185 2.527.753 4.629 1.709 6.3.979-1.644 1.565-3.745 1.757-6.3m-7.395 8.844v-3.903h-4.017v3.903h4.017zm-5.248-5.07h2.641v-3.514h-3.321v-1.201h3.321v-3.257h1.263v3.257h3.24v1.201h-3.24v3.514h2.578v6.203h-5.25v1.07h-1.231v-7.273zm9.167-8.098l1.298.21c-.249 1.049-.547 2.04-.898 2.979h5.758v1.135h-1.409c-.265 3.145-.998 5.648-2.203 7.517 1.001 1.253 2.285 2.251 3.857 2.998-.368.487-.67.917-.907 1.296-1.557-.92-2.823-1.977-3.798-3.177-1.088 1.247-2.394 2.341-3.913 3.274-.24-.315-.547-.655-.925-1.02 1.713-1.061 3.054-2.191 4.026-3.396-.946-1.566-1.555-3.462-1.831-5.688-.345.622-.72 1.214-1.127 1.774-.228-.323-.5-.67-.827-1.037 1.448-2.061 2.417-4.35 2.899-6.865zM318.376 64.981c.863 1.576 1.518 2.834 1.959 3.773-.278.131-.71.347-1.294.648-.424-1.027-1.025-2.307-1.817-3.838l1.152-.583zm-3.628-3.597h-3.031v4.099h3.031v-4.099zm-3.031 9.463h3.031v-4.197h-3.031v4.197zm4.845-8.618h5.75v-3.58h1.298v3.58h2.3v1.196h-2.3v8.718c0 1.446-.693 2.17-2.074 2.17-.627 0-1.546-.016-2.756-.049-.055-.387-.14-.845-.259-1.362 1.135.088 2.021.131 2.656.131.755 0 1.135-.384 1.135-1.15v-8.457h-5.75v-1.197zm-6.125-2.043h5.593v13.204h-1.281v-1.346h-3.031v1.539h-1.28v-13.397zM335.289 70.431l-1.37 4.319h-1.134l.998-4.319zM355.558 59.65l.872-.6c1.049 1.341 1.945 2.566 2.69 3.678l-.877.794c-.872-1.393-1.767-2.681-2.685-3.872m-2.464-.502l.938.52c-.983 1.661-1.948 3.043-2.899 4.146-.172-.249-.415-.561-.73-.939.918-.993 1.816-2.236 2.691-3.727zm-4.211 11.292h-4.117v2.202h4.117v-2.202zm-5.608-9.978h3.257c-.194-.52-.416-.999-.663-1.44l.939-.406c.237.43.471.916.697 1.455l-.923.392h3.868v2.123h-.973v-1.119h-5.23v1.119h-.973v-2.124zm13.738 8.649h-4.211v3.354h4.211v-3.354zm-13.284.325h6.189v5.007h-1.035v-.794h-4.117v.794h-1.037v-5.007zm-.551-2.251h3.129v-1.165h-2.625v-.94h2.625v-1.151h-2.693v-.94h2.693v-.986h1.035v.986h2.658v.94h-2.658v1.151h2.576v.94h-2.576v1.165h3.061v.274c1.807-1.286 3.143-3.023 4.019-5.217h1.409l-.241.455c.916 1.997 2.139 3.493 3.662 4.487-.249.42-.446.8-.584 1.135-1.533-1.168-2.782-2.652-3.744-4.458-1.025 1.772-2.323 3.337-3.888 4.701-.185-.38-.395-.724-.633-1.037v.597h-3.061v1.053h-1.035v-1.053h-3.129v-.937zm8.523.825h6.413v6.563h-1.102v-1.006h-4.211v.955h-1.101v-6.512zM367.493 69.451h1.249v2.397c0 .477.08.788.242.94.175.171.516.261 1.021.261h2.786c.776 0 1.22-.323 1.327-.974.131-.702.218-1.49.259-2.364.424.172.839.329 1.249.472-.075.838-.171 1.608-.292 2.298-.173 1.177-.998 1.765-2.479 1.765h-3.225c-.819 0-1.384-.165-1.683-.5-.302-.282-.456-.839-.456-1.67v-2.625zm2.351-7.97h-5.522c-.542.649-1.097 1.257-1.669 1.831h5.394l1.797-1.831zm-7.114 6.011h3.615c.259-.874.414-1.892.469-3.047h-4.084v3.047zm9.642-3.047h-4.295c-.074 1.136-.22 2.151-.436 3.047h4.73v-3.047zm-12.719 9.156c3.145-1.025 5.24-2.686 6.287-4.976h-3.21v.616h-1.246v-4.86c-.367.313-.739.612-1.117.891-.13-.183-.42-.539-.875-1.066 1.934-1.31 3.721-3.16 5.362-5.557l1.23.453c-.29.43-.584.845-.874 1.245h6.334v1.152l-1.813 1.813h3.888v5.929h-1.247v-.616h-5.069c-1.008 2.755-3.275 4.812-6.807 6.174-.304-.541-.584-.94-.843-1.198zM378.266 63.976h1.915v-1.278h-1.915v1.278zm4.911 0v-1.278h-1.91v1.278h1.91zm6.725-2.349h-3.064c.305 1.189.838 2.182 1.603 2.981.703-.833 1.189-1.825 1.461-2.981zm-5.285 5.43c1.188-.454 2.188-1.009 2.996-1.654-.646-.724-1.147-1.588-1.506-2.59-.257.463-.521.91-.794 1.343l-.969-.68c1.023-1.372 1.808-2.981 2.347-4.827l1.137.338c-.209.551-.419 1.084-.635 1.605h4.942v1.035h-1.07c-.354 1.479-.932 2.717-1.735 3.711.792.539 1.778.965 2.968 1.28-.271.347-.541.749-.81 1.215-1.201-.444-2.209-.983-3.03-1.621-.833.724-1.864 1.349-3.094 1.88-.216-.316-.465-.66-.747-1.035zm-8.651.192c1.382-.572 2.643-1.36 3.777-2.364h-1.478v.404h-1.051v-3.5h2.966v-.988h-3.631v-.974h3.631v-1.1h1.086v1.1h3.514v.974h-3.514v.988h2.965v3.5h-1.055v-.404h-1.91v.971l.404-.535c.962.455 1.88.915 2.752 1.378l-.549.892c-.907-.539-1.778-.993-2.607-1.36v1.749h-1.086v-2.397c-.992.98-2.172 1.847-3.53 2.59-.198-.273-.423-.579-.684-.924zm.294 5.801h2.917v-2.917h1.163v2.917h3.403v-3.66h-6.413v-1.037h13.607v1.037h-6.026v1.247h5.314v1.035h-5.314v1.378h7.207v1.037h-15.858v-1.037zM401.822 59.021l-.243.37c1.75 2.884 4.18 4.946 7.291 6.189-.334.527-.622 1.016-.859 1.458-3.174-1.666-5.577-3.807-7.208-6.432-1.598 2.495-4.023 4.713-7.273 6.659-.237-.392-.516-.817-.829-1.28 3.372-1.87 5.877-4.191 7.519-6.965h1.602zm-1.782 5.57h1.476v10.029h-1.476v-10.029zM409.94 60.705h7.32c-.316-.482-.69-.996-1.116-1.541l1.134-.727c.487.592.929 1.18 1.327 1.764l-.825.504h7.016v2.771h-1.296v-1.574h-12.266v1.574h-1.294v-2.771zm-.355 12.278c3.259-.934 5.856-2.458 7.789-4.577-.151-.311-.325-.612-.523-.898-1.609 1.662-3.833 2.942-6.671 3.839-.159-.365-.352-.733-.579-1.102 2.778-.767 4.944-1.984 6.485-3.652-.175-.179-.374-.354-.582-.527-1.43 1.014-3.189 1.847-5.273 2.497-.204-.356-.447-.741-.729-1.15 2.576-.572 4.639-1.535 6.189-2.884h-4.082v-1.167h11.568v1.167h-5.883c-.276.29-.572.572-.893.841.85.685 1.508 1.453 1.977 2.3 1.693-.823 3.193-1.673 4.505-2.543l.763 1.035c-.882.531-1.819 1.055-2.812 1.574.955 2.074 2.508 3.521 4.658 4.341-.356.411-.69.831-1.006 1.264-2.109-1.078-3.678-2.771-4.697-5.071l-.94.463c.617 2.294.52 3.966-.29 5.015-.391.465-1.134.696-2.237.696-.432 0-1.111-.016-2.041-.05-.066-.421-.146-.868-.241-1.343.842.097 1.592.144 2.249.144 1.168.066 1.733-.636 1.703-2.105-.016-.484-.076-.953-.18-1.4-1.91 1.885-4.46 3.356-7.646 4.415-.161-.359-.355-.733-.581-1.122zM433.947 70.148h3.127v-2.576h-2.851v-1.1h2.851v-2.262l-2.623.284-.276-1.101c2.01-.174 4.18-.435 6.513-.778l.274 1.085c-.739.113-1.641.235-2.705.364v2.407h2.818v1.1h-2.818v2.576h3.095v1.102h-7.404v-1.101zm-.533-11.031l1.134-.537c.458.788.806 1.428 1.045 1.914h6.114v1.133h-13.218v6.155c0 2.99-.564 5.24-1.686 6.74-.313-.345-.625-.663-.939-.955.928-1.242 1.393-3.209 1.393-5.898v-7.175h6.951c-.325-.595-.59-1.055-.794-1.377zm-2.901 9.492c.222.685.51 1.29.86 1.817.432-.827.7-1.715.807-2.658h-2.623v-.94l2.203-2.739h-2.477v-1.068h3.87v1.102l-2.09 2.576h2.253v1.004c-.157 1.349-.539 2.57-1.143 3.66 1.022.957 2.39 1.456 4.106 1.49 1.598.055 3.52.033 5.768-.063-.152.391-.292.8-.421 1.231-1.986.043-3.845.043-5.572 0-1.853-.049-3.363-.598-4.528-1.645-.609.825-1.37 1.568-2.276 2.227-.323-.333-.621-.625-.89-.874.963-.685 1.749-1.434 2.354-2.243-.518-.688-.941-1.511-1.271-2.47l1.07-.407zM451.086 65.759l.991-.73c1.196 1.417 2.151 2.641 2.866 3.678l-1.199.843c-.766-1.254-1.652-2.517-2.658-3.791m-2.963-3.207h-3.645v3.937h3.645v-3.937zm-3.644 9.2h3.645v-4.097h-3.645v4.097zm5.183-7.093c1.016-1.609 1.876-3.614 2.574-6.011l1.362.338c-.274.817-.559 1.582-.843 2.303h5.217c-.128 5.551-.237 9.042-.325 10.48-.075 1.694-.965 2.543-2.671 2.543-.985 0-1.983-.033-2.997-.096-.066-.543-.151-1.023-.261-1.443h.051c1.078.151 2.068.226 2.963.226.983 0 1.513-.518 1.588-1.553.119-1.609.205-4.593.259-8.945h-4.343c-.469 1.043-.953 1.961-1.457 2.753-.29-.204-.664-.402-1.117-.595zm-6.48-3.324h1.637c.399-.982.73-1.878.986-2.687l1.36.385c-.338.827-.669 1.594-.986 2.302h3.24v12.895h-1.296v-1.265h-3.645v1.38h-1.297v-13.01zM472.521 60.557h-6.579v3.322h6.579v-3.322zm-13.494 6.061c1.445-2.162 2.568-4.781 3.366-7.857l1.201.356c-.442 1.424-.925 2.759-1.444 4.001v11.438h-1.165v-8.99c-.464.851-.95 1.645-1.458 2.38-.151-.454-.319-.895-.5-1.328zm5.684-7.145h9.041v6.108h-1.231v-.616h-2.723v2.187h5.348v1.102h-4.408c.995 1.652 2.507 2.956 4.536 3.903-.335.465-.604.866-.812 1.201-2.029-1.232-3.582-2.896-4.664-4.991v6.271h-1.184v-6.336c-1.304 2.353-2.939 4.148-4.907 5.378-.249-.302-.551-.63-.906-.988 1.922-1.057 3.48-2.537 4.682-4.438h-4.244v-1.102h5.376v-2.187h-2.673v.729h-1.23v-6.221zM489.334 61.061h-2.735v1.411h2.735v-1.411zm-6.787 1.411h2.884v-1.411h-2.833c0 .506-.018.977-.051 1.411zm-4.229 2.397h2.709c.115-.38.21-.866.272-1.462h-2.786l-.195 1.462zm3.939 0h3.174v-1.462h-2.947c-.055.572-.131 1.061-.227 1.462zm1.037 4.68h1.15c0 .69-.078 1.302-.228 1.831 2.462.724 4.697 1.444 6.707 2.156l-.599 1.163c-2.182-.81-4.352-1.57-6.515-2.282-.67 1.092-2.885 1.856-6.642 2.3-.204-.518-.39-.906-.549-1.167 2.492-.237 4.368-.652 5.62-1.247.728-.357 1.077-1.276 1.056-2.754zm4.436-2.69c.605.066 1.109.1 1.509.1.43 0 .679-.163.745-.486.041-.237.07-.459.08-.664h-3.466v1.586h-1.168v-1.586h-3.482c-.29.658-.8 1.258-1.522 1.796h7.533c-.053-.205-.131-.454-.229-.746zm-10.933-6.738h4.65c.021-.486.031-.939.031-1.36h1.166c0 .421-.008.874-.031 1.36h2.817v-1.36h1.168v1.36h3.903v3.693h-1.168v-.407h-2.735v1.462h4.633c-.021.776-.08 1.439-.179 1.99-.117.757-.604 1.137-1.458 1.137h-.486v3.95h-1.167v-3.304h-8.132v3.5h-1.166v-3.5c-.657.289-1.41.56-2.251.809-.141-.311-.374-.685-.697-1.116 2.462-.529 4.087-1.37 4.875-2.526h-3.563l.52-3.337h3.854c.033-.424.051-.894.051-1.411h-4.634v-.94zM495.16 73.154c.204 0 .396-.079.576-.235.175-.157.267-.359.267-.606 0-.278-.088-.497-.259-.662-.175-.163-.386-.247-.633-.247-.233 0-.432.084-.601.247-.166.165-.249.384-.249.652 0 .267.097.473.295.626.198.148.4.225.604.225m.026-2.949c.527 0 .986.206 1.376.616.387.409.584.888.584 1.435 0 .614-.199 1.114-.592 1.502-.396.386-.872.578-1.427.58-.557-.002-1.035-.198-1.438-.592-.401-.395-.604-.888-.604-1.477 0-.598.214-1.092.639-1.481.43-.387.913-.583 1.462-.583z"/><path clip-rule="evenodd" fill="none" d="M0 0h640.43v103.562h-640.43z"/></svg>