<?xml version="1.0" encoding="utf-8"?>
<!-- Generator: Adobe Illustrator 16.0.0, SVG Export Plug-In . SVG Version: 6.00 Build 0)  -->
<!DOCTYPE svg PUBLIC "-//W3C//DTD SVG 1.1//EN" "http://www.w3.org/Graphics/SVG/1.1/DTD/svg11.dtd">
<svg version="1.1" id="图层_1" xmlns="http://www.w3.org/2000/svg" xmlns:xlink="http://www.w3.org/1999/xlink" x="0px" y="0px"
	 width="640px" height="271.297px" viewBox="0 0 640 271.297" enable-background="new 0 0 640 271.297" xml:space="preserve">
<g>
	<path fill="#A91F27" d="M176.503,52.901c1.596,2.25,3.588,4.792,5.967,7.635c2.369,2.83,4.951,5.479,7.721,7.923
		c2.775,2.457,5.361,4.242,7.762,5.35c2.399,1.121,4.188,1.843,5.383,2.197c1.186,0.346,1.787,0.915,1.809,1.712
		c0.021,0.81-0.549,1.078-1.701,0.829c-1.605-0.324-3.648-1.054-6.137-2.195c-2.487-1.152-5.61-3.252-9.334-6.31
		c-3.736-3.057-8.021-7.935-12.856-14.62c-0.796,1.303-1.495,2.411-2.078,3.316c-0.591,0.904-1.581,2.238-2.981,4.017
		c-1.399,1.773-3.111,3.8-5.145,6.07c-2.025,2.271-4.566,4.566-7.602,6.859c-3.035,2.305-5.275,3.907-6.697,4.812
		c-1.432,0.904-2.336,1.366-2.714,1.376c-0.386,0.012-0.667-0.128-0.87-0.407c-0.206-0.29-0.271-0.626-0.206-1
		c0.066-0.335,0.409-0.745,1.021-1.217c0.626-0.476,1.057-0.797,1.314-0.99l2.929-1.98c2.423-1.692,5.675-4.469,9.766-8.345
		c4.092-3.888,6.868-7.097,8.344-9.658c1.477-2.551,2.553-4.512,3.23-5.879c0.688-1.366,1.279-2.614,1.786-3.735
		c0.507-1.131,1.033-1.581,1.604-1.356c0.571,0.216,0.926,0.495,1.055,0.818c0.141,0.322,0.119,0.786-0.074,1.367l-0.98,2.433
		L176.503,52.901z M173.567,99.521V87.688l-12.672,0.883c-1.713,0.129-2.414-0.378-2.122-1.519c0.086-0.399,0.44-0.679,1.076-0.852
		l1.485-0.086l12.232-0.829v-9.484l-10.973,0.752c-1.699,0.131-2.412-0.374-2.109-1.517c0.074-0.397,0.44-0.679,1.064-0.85
		l1.486-0.098l23.75-1.603c1.283-0.086,1.885,0.3,1.799,1.162c-0.045,0.386-0.259,0.666-0.668,0.871
		c-0.398,0.205-1.088,0.333-2.078,0.399l-9.431,0.624v9.495l12.392-0.851c1.141-0.064,1.8,0.162,1.98,0.679
		c0.174,0.517,0.088,0.936-0.269,1.26c-0.364,0.323-0.851,0.495-1.485,0.517l-12.618,0.797v11.916l17.291-1.043l1.376-0.216
		c0.443-0.043,0.862,0.043,1.271,0.249c0.398,0.215,0.57,0.56,0.527,1.045c-0.074,0.731-0.991,1.15-2.734,1.26l-39.404,2.496
		c-1.701,0.12-2.399-0.387-2.111-1.518c0.086-0.378,0.305-0.623,0.647-0.721c0.343-0.109,0.979-0.195,1.907-0.258L173.567,99.521z"
		/>
	<path fill="#A91F27" d="M243.774,47.132c0.171,0.033,0.58,0.26,1.235,0.657c0.647,0.397,1.466,1.236,2.445,2.507
		c0.969,1.271,1.604,2.273,1.907,3.015c0.287,0.733,0.269,1.259-0.066,1.571c-0.334,0.323-0.753,0.356-1.26,0.131
		c-0.238-0.086-0.475-0.303-0.733-0.669l-1.354-1.98c-0.098-0.105-0.432-0.483-0.969-1.141c-0.551-0.646-1.034-1.162-1.455-1.562
		c-0.42-0.387-0.709-0.774-0.871-1.174c-0.15-0.41-0.107-0.741,0.129-1.033C243.018,47.175,243.353,47.067,243.774,47.132
		 M247.938,68.073c-1.15,1.26-2.023,2.174-2.617,2.745c-0.59,0.56-1.461,1.302-2.615,2.207c0.506,0.569,0.947,1.088,1.325,1.571
		l1.767,2.681c0.505,0.786,0.816,1.27,0.947,1.483l0.505,1.078l0.312,0.657c0.334-0.184,1.303-0.84,2.919-1.949
		c1.603-1.119,3.357-2.453,5.265-4.026c1.906-1.571,3.037-2.528,3.393-2.886c0.354-0.354,0.73-0.646,1.131-0.85
		c0.406-0.217,0.783-0.184,1.138,0.096c0.356,0.269,0.519,0.583,0.485,0.928c-0.033,0.343-0.527,1-1.507,1.969
		c-0.979,0.97-1.841,1.733-2.573,2.305c-0.731,0.569-2.176,1.626-4.316,3.186c5.166,6.645,9.268,10.821,12.294,12.521
		c3.026,1.702,5.071,2.812,6.138,3.328c1.064,0.517,1.883,0.927,2.465,1.25c0.57,0.312,0.861,0.624,0.85,0.947
		c-0.01,0.312-0.16,0.569-0.43,0.784c-0.269,0.206-0.775,0.28-1.496,0.206c-0.723-0.077-2.508-0.904-5.362-2.509
		c-2.853-1.593-5.33-3.391-7.428-5.371c-2.101-1.993-3.521-3.393-4.243-4.223c-0.721-0.817-2.304-2.679-4.748-5.576
		c-0.043,0.023-1.096,0.657-3.153,1.926c0.235,0.714,0.474,1.583,0.722,2.597c0.26,1.022,0.442,2.024,0.559,3.015
		c0.107,0.99,0.172,2.023,0.184,3.111c0.01,1.076-0.012,2.087-0.076,3.036c-0.064,0.548-0.192,1.647-0.396,3.305
		c-0.193,1.647-0.357,2.702-0.475,3.176c-0.109,0.474-0.281,1.131-0.517,1.959c-0.226,0.831-0.485,1.657-0.755,2.488
		c-0.278,0.838-1.088,1.107-2.433,0.838c-0.905-0.172-2.367-1.15-4.383-2.959l-1.29-1.174c-0.551-0.464-0.97-0.882-1.248-1.26
		c-0.281-0.378-0.379-0.795-0.281-1.26c0.086-0.464,0.334-0.744,0.722-0.85c0.386-0.109,0.881,0.062,1.464,0.505l1.702,1.702
		c0.105,0.129,0.667,0.624,1.679,1.485c1.012,0.862,1.659,1.217,1.947,1.064c0.195-0.105,0.398-0.634,0.636-1.603l0.44-1.83
		c0.086-0.42,0.207-1.324,0.348-2.705c0.148-1.376,0.234-2.302,0.269-2.787c0.031-0.484,0.062-1.26,0.105-2.336
		c0.045-1.528,0.033-2.455-0.031-2.767l-0.409-2.434c-0.42,0.205-0.947,0.581-1.593,1.121c-0.634,0.538-1.886,1.443-3.745,2.712
		c-1.864,1.27-2.94,1.991-3.221,2.174c-0.281,0.184-0.808,0.484-1.561,0.905l-3.469,1.918c-1.076,0.591-1.787,0.967-2.152,1.139
		l-3.877,1.767c-1.365,0.624-2.129,0.979-2.303,1.033l-2.111,0.83c-0.698,0.289-1.248,0.375-1.657,0.246s-0.636-0.376-0.679-0.741
		c-0.043-0.366,0.109-0.711,0.465-1.023c0.342-0.313,0.926-0.614,1.732-0.895c0.807-0.289,1.573-0.612,2.283-0.967
		c0.721-0.355,1.742-0.841,3.088-1.455c1.346-0.603,2.336-1.076,2.952-1.411c0.624-0.344,2.033-1.162,4.24-2.465
		c2.209-1.302,3.964-2.368,5.255-3.197c1.29-0.828,3.23-2.273,5.825-4.307c-0.131-0.442-0.354-1.129-0.679-2.066
		c-0.336-0.938-0.658-1.659-1.002-2.164c-0.526,0.333-1.238,0.85-2.141,1.528c-0.904,0.688-2.004,1.442-3.295,2.26
		c-1.295,0.819-2.371,1.476-3.23,1.973c-0.861,0.493-1.819,1.001-2.876,1.529c-1.055,0.526-2.207,1.086-3.454,1.669
		c-1.25,0.59-2.51,1.149-3.779,1.688c-1.283,0.538-2.154,0.733-2.64,0.604c-0.483-0.14-0.741-0.378-0.774-0.701
		c-0.033-0.322,0.174-0.667,0.604-1.034c0.43-0.374,0.969-0.688,1.625-0.967l2.617-0.98l2.842-1.39l2.682-1.26
		c0.73-0.374,2.283-1.279,4.649-2.722c2.37-1.443,4.352-2.909,5.942-4.404c-0.505-0.818-1-1.528-1.485-2.111
		c-0.483-0.591-0.827-1.043-1.033-1.357c-0.258,0.184-0.472,0.348-0.667,0.476c-0.184,0.129-0.604,0.398-1.248,0.829
		c-0.635,0.431-1.303,0.828-2.004,1.184c-0.688,0.366-1.541,0.787-2.551,1.26l-2.811,1.356c-0.979,0.485-1.755,0.84-2.305,1.045
		l-2.109,0.819c-0.667,0.3-1.229,0.376-1.657,0.257c-0.431-0.129-0.667-0.354-0.71-0.7c-0.033-0.333,0.129-0.656,0.496-0.957
		c0.363-0.302,0.924-0.593,1.668-0.873c0.741-0.27,2.798-1.217,6.169-2.853c3.357-1.624,5.685-2.95,6.964-3.972
		c1.283-1.025,2.788-2.328,4.512-3.931l-12.801,0.979c-0.312,0.043-0.604-0.02-0.872-0.184c-0.259-0.172-0.409-0.386-0.452-0.646
		c-0.043-0.269,0.076-0.538,0.366-0.828c0.278-0.281,0.548-0.432,0.798-0.452l30.154-2.305c0.841-0.064,1.27,0.171,1.281,0.711
		c0.012,0.538-0.098,0.903-0.301,1.098c-0.216,0.205-0.441,0.301-0.701,0.301L247.938,68.073z M229.077,58.329l37.758-2.907
		c1.549-0.107,2.409,0.193,2.549,0.883c0.152,0.698,0.195,1.248,0.131,1.669l-0.947,3.757c-0.064,0.248-0.15,0.667-0.271,1.25
		c-0.116,0.569-0.354,1.064-0.721,1.462c-0.365,0.398-0.795,0.539-1.258,0.41c-0.474-0.129-0.766-0.324-0.871-0.603
		c-0.109-0.27-0.066-0.688,0.129-1.26c0.183-0.669,0.376-1.442,0.58-2.303c0.195-0.861,0.377-1.521,0.518-1.982
		c0.15-0.462,0.162-0.765,0.053-0.902c-0.117-0.131-0.473-0.184-1.064-0.141l-37.09,2.776c-0.162,0.593-0.422,1.442-0.776,2.573
		c-0.343,1.119-0.698,2.121-1.056,3.003c-0.354,0.885-0.742,1.38-1.161,1.485c-0.419,0.109-0.774,0.066-1.078-0.139
		c-0.288-0.204-0.44-0.583-0.452-1.152c-0.01-0.569,0.28-1.497,0.861-2.776c0.238-0.528,0.519-1.325,0.852-2.413
		c0.346-1.088,0.592-1.915,0.743-2.508c0.16-0.593,0.312-1.259,0.44-2.004c0.141-0.741,0.336-1.236,0.593-1.462
		c0.248-0.238,0.581-0.336,0.991-0.312c0.408,0.02,0.709,0.203,0.893,0.558c0.195,0.366,0.184,0.948-0.031,1.767l-0.152,0.636
		L229.077,58.329z"/>
	<path fill="#A91F27" d="M334.705,53.248l-18.142,1.227c-0.399,0.043-0.711,0.259-0.949,0.634c-0.225,0.378-0.332,0.756-0.312,1.131
		l0.26,10.572c0.021,0.926,0.679,1.348,1.98,1.262l16.279-1.045c0.592-0.023,1.012-0.172,1.258-0.453
		c0.262-0.292,0.4-0.84,0.443-1.656l0.506-10.002C336.071,53.743,335.63,53.182,334.705,53.248 M323.378,80.723
		c-0.117,0.204-0.398,0.678-0.819,1.421c-0.419,0.731-1.646,2.528-3.669,5.383c-2.035,2.864-4.674,5.652-7.936,8.364
		c-3.264,2.714-5.135,3.899-5.63,3.563c-0.495-0.333-0.765-0.635-0.819-0.904c-0.055-0.258-0.023-0.515,0.107-0.765
		c0.107-0.278,0.41-0.603,0.914-0.979l2.488-1.863c2.195-1.679,4.178-3.51,5.954-5.49c1.776-1.97,2.94-3.381,3.497-4.21
		c0.562-0.828,1.443-2.26,2.66-4.307l-10.314,0.667c-1.235,0.078-2.002,0.088-2.281,0.012c-0.279-0.074-0.494-0.312-0.635-0.71
		c-0.129-0.397-0.031-0.787,0.301-1.162c0.173-0.173,0.354-0.292,0.537-0.347c0.195-0.062,0.788-0.129,1.8-0.193l14.479-0.914
		v-5.576v-1.809l0.41-0.755l-7.504,0.376c-0.7,0.043-1.486-0.116-2.369-0.483c-0.883-0.366-1.334-1.323-1.357-2.854l-0.257-10.852
		c-0.033-1.033,0.202-1.959,0.731-2.788c0.527-0.828,1.421-1.29,2.68-1.378l18.261-1.162c1.829-0.107,2.94,0.225,3.314,1.012
		c0.378,0.776,0.562,1.669,0.538,2.681l-0.44,11.1c-0.107,2.25-1.302,3.447-3.595,3.595l-8.27,0.538
		c0.217,0.314,0.334,0.52,0.365,0.593c0.035,0.086,0.043,0.745,0.043,1.962v5.673l15.516-0.971c1.271-0.062,2.09-0.053,2.476,0.043
		c0.397,0.098,0.636,0.399,0.71,0.916c0.088,0.517-0.043,0.851-0.408,1.022c-0.356,0.173-0.98,0.271-1.885,0.313l-12.307,0.797
		c1.541,2.453,2.886,4.445,4.04,5.974c1.15,1.52,2.305,2.874,3.454,4.048c1.143,1.186,2.186,2.154,3.134,2.94
		c0.947,0.775,1.905,1.454,2.853,2.035c0.959,0.569,1.658,1.055,2.09,1.442c0.429,0.398,0.581,0.796,0.474,1.217
		c-0.119,0.419-0.474,0.786-1.055,1.088c-0.593,0.312-2.316-0.702-5.159-3.025c-2.852-2.326-5.338-4.89-7.459-7.697
		c-2.133-2.8-3.888-5.416-5.275-7.838l-1.197,0.062v24.601c0,0.571-0.086,1.002-0.246,1.295c-0.172,0.3-0.464,0.495-0.883,0.6
		c-0.42,0.109-0.773,0.033-1.045-0.214c-0.268-0.258-0.398-0.679-0.377-1.271l0.031-24.846L323.378,80.723z M304.041,59.803v44.787
		c0,1.271-0.386,1.876-1.161,1.833c-0.291,0-0.551-0.131-0.754-0.41c-0.216-0.269-0.323-0.562-0.323-0.885V64.411
		c-0.421,0.733-1.388,2.281-2.917,4.652c-1.52,2.367-3.111,4.543-4.76,6.512c-1.646,1.98-2.703,3.004-3.155,3.09
		s-0.774,0-0.957-0.267c-0.193-0.262-0.259-0.583-0.193-0.959c0.062-0.355,0.419-0.905,1.055-1.657
		c0.646-0.745,1.26-1.488,1.862-2.219c0.604-0.745,1.412-1.821,2.434-3.24c1.014-1.412,2.143-3.136,3.392-5.136
		c1.238-2.016,2.573-4.706,4.017-8.075c1.442-3.381,2.336-5.838,2.679-7.386c0.345-1.54,0.659-2.499,0.938-2.854
		c0.269-0.355,0.591-0.56,0.97-0.603c0.375-0.033,0.678,0.15,0.881,0.571c0.217,0.419,0.174,1.107-0.117,2.055l-0.603,2.585
		c-0.194,0.753-0.646,2.023-1.366,3.8c-0.733,1.776-1.197,2.896-1.412,3.359C304.343,59.104,304.172,59.491,304.041,59.803z"/>
	<path fill="#A91F27" d="M408.604,65.133l-6.945,0.603v5.395l5.619-0.538c0.732-0.066,1.119-0.519,1.162-1.356L408.604,65.133z
		 M408.722,62.859l0.163-3.745c0.02-0.947-0.378-1.39-1.196-1.323l-6.029,0.538v5.135L408.722,62.859z M411.025,62.808l3.003-0.26
		c1.197-0.086,1.938-0.096,2.242-0.043c0.288,0.055,0.537,0.312,0.752,0.776c0.203,0.452,0.117,0.807-0.28,1.055
		c-0.409,0.235-0.979,0.376-1.743,0.419l-4.09,0.323l-0.195,4.664c-0.043,1.01-0.324,1.798-0.838,2.345
		c-0.52,0.56-1.24,0.872-2.188,0.938l-6.029,0.409v4.574l6.181-0.473c1.248-0.087,2.001-0.108,2.27-0.054
		c0.28,0.054,0.53,0.323,0.745,0.795c0.226,0.474,0.129,0.819-0.27,1.057c-0.397,0.227-0.99,0.366-1.766,0.409l-7.16,0.569v4.793
		l9.184-0.755c1.217-0.088,1.973-0.107,2.25-0.053c0.28,0.053,0.58,0.417,0.904,1.086c0.312,0.679-0.367,1.078-2.023,1.207
		l-10.314,0.816v8.354c0,1.162-0.257,1.767-0.775,1.821c-0.516,0.043-0.893-0.055-1.131-0.324c-0.246-0.257-0.367-0.678-0.367-1.239
		v-8.429l-7.782,0.571l-1.864,0.16c-0.548-0.172-0.85-0.526-0.912-1.053c-0.066-0.54,0.074-0.886,0.409-1.036
		c0.331-0.138,1.022-0.257,2.044-0.345l8.105-0.624v-4.8l-6.047,0.472c-1.229,0.109-1.974,0.109-2.262,0
		c-0.281-0.107-0.453-0.409-0.508-0.924c-0.054-0.519,0.098-0.852,0.432-1.002c0.334-0.141,1.012-0.26,2.014-0.346l6.371-0.474
		v-4.573l-4.414,0.386l-1.828,0.152c-0.647-0.207-0.969-0.593-0.947-1.164c0-0.505,0.312-0.884,0.947-1.141l1.517-0.119l4.726-0.409
		v-5.395l-6.683,0.528l-1.864,0.161c-0.623-0.204-0.936-0.604-0.916-1.161c0-0.507,0.164-0.819,0.476-0.948
		c0.323-0.129,0.979-0.237,1.991-0.323l6.996-0.562v-5.112l-4.628,0.377l-1.864,0.161c-0.633-0.214-0.936-0.604-0.912-1.162
		c0-0.507,0.301-0.885,0.912-1.143l1.541-0.128l4.951-0.409v-6.783c0-1.195,0.055-1.959,0.141-2.293
		c0.098-0.345,0.391-0.528,0.873-0.56c0.484-0.033,0.819,0.117,0.991,0.44c0.183,0.334,0.269,1.1,0.269,2.326v6.717l5.803-0.355
		c1.918-0.097,3.014,0.27,3.295,1.111c0.292,0.839,0.433,1.475,0.433,1.894L411.025,62.808z M379.987,74.511l4.705-0.507
		c0.947-0.086,1.635-0.012,2.068,0.214c0.429,0.238,0.771,0.636,1.021,1.197c0.246,0.569,0.281,1.539,0.098,2.905
		c-0.293,1.98-0.582,3.704-0.874,5.19c-0.278,1.485-1.064,3.844-2.347,7.084c2.648,1.862,5.404,3.617,8.279,5.233
		c2.876,1.614,5.395,2.981,7.59,4.079c2.188,1.109,4.598,1.992,7.245,2.671l3.575,0.85c1.064,0.335,2.091,0.56,3.058,0.667
		c0.972,0.098,1.259,0.581,0.894,1.442c-0.367,0.862-1.486,1.045-3.357,0.538l-4.953-1.162c-3.556-0.947-7.021-2.356-10.41-4.23
		c-3.381-1.873-5.459-3.057-6.247-3.542c-0.774-0.493-2.972-1.937-6.588-4.308c-1.237,2.25-2.313,4.028-3.219,5.331
		c-0.905,1.302-1.788,2.444-2.647,3.435l-1.638,1.829c-0.569,0.657-1.002,1.109-1.313,1.368c-0.301,0.27-0.656,0.418-1.064,0.441
		c-0.422,0.031-0.68-0.086-0.799-0.355c-0.106-0.28-0.161-0.562-0.14-0.873c0.021-0.301,0.376-0.784,1.055-1.452
		c0.69-0.657,1.583-1.724,2.683-3.2c1.107-1.474,1.98-2.667,2.617-3.595c0.643-0.924,1.171-1.841,1.59-2.745l0.862-1.828
		c-0.882-0.712-1.54-1.26-1.958-1.639l-1.961-1.604c-0.838-0.699-1.528-1.249-2.066-1.659c-0.526-0.407-0.838-0.838-0.914-1.29
		c-0.064-0.452,0.033-0.796,0.3-1.033c0.28-0.227,0.646-0.258,1.121-0.086c0.472,0.159,1.053,0.56,1.731,1.174
		c0.689,0.624,2.316,1.926,4.878,3.896c0.485-1.129,0.936-2.477,1.356-4.036c0.422-1.55,0.722-2.864,0.916-3.94l0.279-2.078
		c0.064-0.571,0.086-1.076,0.064-1.519c-0.021-0.44-0.141-0.741-0.355-0.894c-0.226-0.159-0.721-0.202-1.506-0.149l-5.545,0.505
		c-0.637,0.066-1.043,0.066-1.238-0.01c-0.184-0.076-0.336-0.26-0.453-0.548c-0.118-0.305-0.063-0.647,0.141-1.045
		c0.086-0.195,0.561-0.776,1.432-1.755c0.883-0.98,1.992-2.649,3.338-5.03c1.345-2.378,2.207-3.938,2.593-4.692
		c0.39-0.765,0.733-1.391,1.025-1.886c0.3-0.495,0.321-0.807,0.062-0.947c-0.245-0.129-0.624-0.182-1.131-0.139l-5.962,0.505
		l-1.26,0.129c-0.528-0.105-0.842-0.409-0.947-0.912c-0.109-0.507,0.117-0.905,0.666-1.209l1.541-0.117l7.126-0.733
		c0.819-0.073,1.507-0.03,2.068,0.152c0.558,0.172,0.688,0.894,0.397,2.152c-0.302,1.217-0.764,2.445-1.388,3.673
		c-0.636,1.236-1.528,2.862-2.702,4.877C382.216,71.323,381.085,73.057,379.987,74.511z M372.171,62.774v42.677
		c0,0.336-0.107,0.636-0.333,0.894c-0.216,0.259-0.507,0.399-0.862,0.409c-0.366,0.012-0.656-0.117-0.893-0.386
		c-0.227-0.281-0.347-0.581-0.347-0.917V67.469c-0.16,0.28-0.655,1.162-1.474,2.647c-0.829,1.497-1.917,3.08-3.271,4.749
		c-1.357,1.679-2.285,2.843-2.77,3.498c-0.494,0.669-0.947,0.733-1.356,0.195c-0.419-0.538-0.472-1.143-0.183-1.81
		c0.108-0.258,0.475-0.796,1.1-1.626c0.611-0.829,1.689-2.422,3.209-4.769c1.527-2.348,2.754-4.426,3.692-6.255
		c0.936-1.831,1.829-3.704,2.669-5.621c0.84-1.916,1.507-3.585,2.014-5.027c0.506-1.443,0.959-2.972,1.357-4.586
		c0.397-1.626,1.01-2.326,1.828-2.121c0.819,0.214,1.066,1.055,0.722,2.53c-0.312,1.303-0.612,2.41-0.915,3.338
		c-0.29,0.924-0.861,2.477-1.701,4.641C373.819,59.417,372.988,61.257,372.171,62.774z"/>
	<path fill="#A91F27" d="M447.448,85.072c-0.031-0.442,0.141-0.786,0.527-1.024c0.386-0.245,0.893-0.28,1.528-0.106
		c0.904,0.247,2.176,0.99,3.833,2.217c1.648,1.228,2.507,2.145,2.585,2.745c0.074,0.604-0.086,1.111-0.483,1.53
		c-0.402,0.419-1.143,0.119-2.211-0.915c-1.291-1.196-2.562-2.121-3.829-2.779C448.116,86.096,447.468,85.534,447.448,85.072
		 M459.786,46.304c0.397-0.141,0.787-0.152,1.154-0.033c0.362,0.129,0.943,0.914,1.742,2.368c0.808,1.455,1.291,2.359,1.455,2.733
		c0.172,0.367,0.312,0.831,0.405,1.381c0.109,0.558,0.109,1.01-0.008,1.354c-0.12,0.357-0.323,0.593-0.636,0.712
		c-0.3,0.129-0.592,0.141-0.861,0.031c-0.367-0.117-0.732-0.667-1.107-1.636l-0.947-2.143l-0.316-0.788
		c-0.245-0.548-0.557-1.053-0.924-1.505c-0.379-0.452-0.604-0.807-0.701-1.088c-0.094-0.269-0.074-0.538,0.065-0.797
		C459.248,46.627,459.474,46.432,459.786,46.304z M445.499,60.719v2.434c0,1.786-0.02,3.326-0.062,4.618
		c-0.043,1.293-0.133,2.927-0.25,4.888c-0.128,1.97-0.322,4.167-0.592,6.59c-0.258,2.434-0.765,5.093-1.506,7.988
		c-0.756,2.883-1.723,5.5-2.92,7.847c-1.205,2.348-2.324,4.361-3.381,6.04c-1.041,1.681-1.773,2.8-2.172,3.35
		c-0.401,0.55-0.83,0.894-1.295,1.033c-0.46,0.15-0.807,0.043-1.021-0.312c-0.227-0.355-0.215-0.841,0.012-1.455
		c0.172-0.397,0.808-1.366,1.926-2.896c1.107-1.538,2.25-3.529,3.424-5.995c1.162-2.455,1.958-4.35,2.391-5.664
		c0.43-1.313,0.85-2.897,1.236-4.747c0.39-1.843,0.689-3.5,0.896-4.952c0.215-1.442,0.367-2.8,0.473-4.069
		c0.108-1.259,0.183-2.554,0.226-3.875l0.085-5.934l0.098-4.479c0-0.883,0.129-1.852,0.379-2.896c0.258-1.055,1.4-1.657,3.443-1.798
		l34.278-2.433c0.659-0.043,1.142-0.023,1.454,0.055c0.312,0.062,0.507,0.452,0.573,1.13c0.062,0.688-0.538,1.065-1.798,1.15
		l-33.214,2.336c-1.014,0.086-1.712,0.292-2.102,0.614C445.694,59.609,445.499,60.095,445.499,60.719z M464.804,70.904l9.496-0.851
		l0.214-3.532c0.023-0.44-0.086-0.733-0.331-0.882c-0.238-0.141-0.605-0.194-1.088-0.152l-8.291,0.786V70.904z M464.804,78.516
		l7.569-0.7c0.624-0.045,1.021-0.174,1.181-0.409c0.152-0.227,0.262-0.634,0.305-1.195l0.281-3.854l-9.336,0.852V78.516z
		 M472.307,90.24c2.164,2.024,4.04,3.596,5.61,4.735c1.584,1.131,3.326,2.197,5.222,3.198c1.907,1.002,3.132,1.593,3.681,1.767
		c0.539,0.183,0.947,0.388,1.197,0.613c0.246,0.236,0.32,0.679,0.203,1.324c-0.117,0.657-0.83,0.764-2.133,0.321
		c-0.772-0.235-2.379-1-4.812-2.323c-2.421-1.314-4.702-2.831-6.835-4.566c-2.133-1.743-3.681-3.078-4.62-4.026
		c-0.947-0.945-2.625-2.755-5.016-5.426v14.761c0,1.894-0.097,3.23-0.303,4.005c-0.203,0.785-0.484,1.238-0.839,1.378
		c-0.354,0.129-0.722,0.15-1.1,0.043c-0.991-0.204-2.55-1.152-4.683-2.819c-2.141-1.669-3.205-2.726-3.217-3.166
		s0.097-0.787,0.33-1.014c0.227-0.235,0.551-0.331,0.972-0.312c0.343,0.033,1.302,0.721,2.897,2.057
		c1.582,1.335,2.562,1.939,2.936,1.788c0.391-0.152,0.573-1.088,0.573-2.812v-9.429c-0.292,0.257-0.757,0.612-1.388,1.076
		l-2.426,1.798c-1.474,1.043-2.979,1.98-4.531,2.788c-1.539,0.807-3.229,1.669-5.061,2.583c-1.829,0.914-3.1,1.464-3.811,1.626
		c-0.721,0.174-1.228,0.139-1.539-0.076c-0.301-0.226-0.465-0.495-0.496-0.818c-0.031-0.332,0.066-0.601,0.289-0.817
		c0.238-0.227,0.646-0.431,1.217-0.624c0.584-0.183,1.411-0.55,2.476-1.098l3.381-1.616c0.69-0.354,2.047-1.129,4.052-2.314
		c2.012-1.185,3.638-2.315,4.885-3.368c1.248-1.069,2.238-1.583,2.952-1.563v-6.879l-12.653,1.1c-0.6,0.062-1.041,0.02-1.303-0.141
		c-0.269-0.151-0.428-0.464-0.494-0.916c-0.051-0.452,0.055-0.743,0.354-0.881c0.292-0.131,0.726-0.238,1.294-0.293l12.802-1.143
		v-5.361l-14.255,1.229c-0.637,0.066-1.076,0.023-1.346-0.141c-0.258-0.16-0.422-0.462-0.477-0.912
		c-0.043-0.453,0.078-0.757,0.391-0.896c0.301-0.149,0.721-0.259,1.236-0.323l14.45-1.227v-4.64l-12.018,1.076
		c-0.593,0.064-1.021,0.012-1.31-0.162c-0.281-0.162-0.453-0.462-0.52-0.893s0.066-0.733,0.379-0.884
		c0.312-0.161,0.74-0.269,1.26-0.335l12.208-1.107V59.9c0-0.614,0.062-1.064,0.172-1.367c0.116-0.313,0.526-0.474,1.216-0.495
		c0.699-0.021,1.045,0.419,1.045,1.324v4.608l9.967-0.916c0.959-0.086,1.607,0.141,1.938,0.679c0.323,0.538,0.464,1.143,0.421,1.809
		l-0.281,4.296l7-0.636c1.186-0.096,1.754,0.29,1.73,1.174c-0.02,0.645-0.525,1.012-1.535,1.098l-7.386,0.666l-0.347,5.363
		c-0.043,0.529-0.191,1.001-0.441,1.432c-0.245,0.431-0.549,0.712-0.893,0.84c-0.354,0.117-0.807,0.205-1.381,0.248l-8.793,0.816
		v1.391c0.312,0.259,0.57,0.474,0.785,0.646c0.206,0.183,0.689,0.732,1.43,1.647c0.758,0.914,1.974,2.271,3.686,4.08
		c0.184-0.269,0.612-0.624,1.271-1.045c0.666-0.419,1.656-1.162,2.971-2.238c1.311-1.066,2.238-1.906,2.788-2.497
		c0.55-0.603,0.99-0.905,1.321-0.915c0.336-0.012,0.625,0.096,0.854,0.322c0.233,0.236,0.331,0.636,0.312,1.217
		c-0.023,0.581-0.959,1.689-2.822,3.328C475.539,88.419,473.847,89.571,472.307,90.24z"/>
	<path fill="#A91F27" d="M177.829,143.298l0.344,5.178c0.023,0.559-0.031,0.991-0.16,1.26c-0.119,0.27-0.367,0.452-0.721,0.538
		c-0.355,0.086-0.68-0.076-0.979-0.464c-0.292-0.386-0.452-0.775-0.476-1.15l-0.441-5.135l-6.9,0.44
		c-0.744,0.062-1.281,0.01-1.646-0.162c-0.354-0.162-0.494-0.56-0.409-1.164c0.064-0.526,0.409-0.893,1.045-1.107l1.517-0.097
		l6.31-0.475l-0.667-7.568c-0.066-0.528-0.012-0.957,0.139-1.293c0.162-0.331,0.462-0.525,0.914-0.58
		c0.453-0.055,0.765,0.064,0.938,0.345c0.162,0.29,0.279,0.731,0.346,1.345l0.654,7.666l9.906-0.668l1.355-7.666
		c0.131-0.729,0.305-1.27,0.507-1.603c0.216-0.336,0.55-0.474,1.023-0.398c0.474,0.074,0.765,0.279,0.853,0.601
		c0.096,0.324,0.053,1.057-0.141,2.188l-1.164,6.695l6.848-0.44l1.292-0.16c0.44-0.043,0.862,0.043,1.271,0.246
		c0.409,0.216,0.591,0.571,0.526,1.076c-0.064,0.356-0.248,0.626-0.56,0.809c-0.302,0.172-0.938,0.291-1.905,0.355l-8.203,0.668
		l-1.003,5.641c-0.108,0.591-0.366,1.033-0.765,1.324c-0.396,0.3-0.752,0.366-1.064,0.204c-0.323-0.15-0.506-0.399-0.572-0.721
		c-0.062-0.322-0.01-0.872,0.164-1.625l0.947-4.694L177.829,143.298z M151.236,186.512c-0.44,0.107-0.786,0.021-1.045-0.236
		c-0.245-0.259-0.354-0.593-0.312-0.99c0.023-0.237,0.237-0.581,0.646-1.033c0.41-0.452,1.002-1.283,1.786-2.499
		c0.776-1.227,1.54-2.486,2.305-3.791c0.753-1.302,1.583-2.99,2.476-5.08c0.893-2.078,1.553-3.692,1.98-4.854
		c0.434-1.152,0.819-2.293,1.174-3.404c0.346-1.119,0.572-1.851,0.69-2.195c0.117-0.343,0.269-0.593,0.452-0.743
		c0.193-0.138,0.463-0.224,0.808-0.235c0.343-0.012,0.612,0.074,0.808,0.257c0.194,0.172,0.3,0.432,0.333,0.776
		c0.032,0.333-0.043,0.796-0.205,1.376c-0.44,1.477-0.99,3.24-1.626,5.31c-0.645,2.057-1.636,4.361-2.98,6.901
		c-1.348,2.552-2.627,4.866-3.834,6.954C153.486,185.124,152.336,186.275,151.236,186.512z M151.548,150.424
		c0.26,0.043,0.808,0.302,1.65,0.765c0.838,0.462,1.98,1.28,3.433,2.454c1.452,1.186,2.411,2.152,2.886,2.917
		c0.474,0.764,0.58,1.337,0.312,1.692c-0.259,0.354-0.669,0.483-1.206,0.374c-0.279-0.043-0.774-0.397-1.486-1.086
		c-0.709-0.679-1.636-1.507-2.776-2.455c-1.13-0.959-2.035-1.626-2.692-1.992c-0.666-0.366-1.119-0.74-1.355-1.141
		c-0.249-0.388-0.271-0.754-0.065-1.119C150.44,150.477,150.882,150.348,151.548,150.424z M157.007,134.372
		c0.195,0.062,0.625,0.322,1.293,0.784c0.679,0.464,1.702,1.325,3.066,2.597c1.369,1.26,2.262,2.336,2.684,3.24
		c0.418,0.905,0.471,1.529,0.149,1.862c-0.312,0.333-0.722,0.409-1.226,0.226c-0.238-0.064-0.486-0.271-0.755-0.602l-1.452-1.669
		c-1.412-1.562-2.574-2.671-3.5-3.35c-0.926-0.667-1.488-1.227-1.69-1.679c-0.206-0.452-0.171-0.853,0.074-1.184
		C155.909,134.252,156.362,134.189,157.007,134.372z M187.227,159.64c0.109-1.345,0.183-2.444,0.237-3.283
		c0.055-0.84,0.129-1.454,0.215-1.83c0.098-0.377,0.271-0.743,0.531-1.098l-8.712,0.525c0.15,0.301,0.257,0.551,0.333,0.765
		c0.076,0.205,0.107,0.528,0.098,0.959c-0.01,0.432-0.064,1.013-0.15,1.755c-0.075,0.733-0.173,1.593-0.28,2.583L187.227,159.64z
		 M177.829,168.726c-0.568,1.723-1.076,3.049-1.517,3.984c-0.442,0.936-0.971,1.938-1.573,2.993
		c-0.614,1.066-1.227,2.014-1.83,2.833c-0.613,0.816-1.096,1.247-1.453,1.29s-0.646-0.064-0.861-0.335
		c-0.227-0.258-0.205-0.72,0.076-1.365c0.128-0.302,0.418-0.787,0.893-1.476c0.474-0.679,1.205-1.948,2.195-3.8
		c0.99-1.853,1.668-3.607,2.035-5.275c0.367-1.681,0.699-3.307,0.99-4.879l-5.576,0.281c-0.388,0.021-0.678,0.195-0.883,0.505
		c-0.215,0.323-0.322,0.657-0.322,1.012v22.772c0,1.185-0.269,1.797-0.797,1.852c-0.538,0.053-0.938-0.055-1.184-0.323
		c-0.262-0.258-0.378-0.679-0.378-1.238v-23.16c0-0.816,0.151-1.646,0.474-2.485c0.312-0.84,1.336-1.312,3.059-1.422l5.986-0.312
		c0.021-0.257,0.043-0.44,0.064-0.571l0.344-2.647c0.105-1.012,0.193-1.659,0.236-1.929c0.053-0.269,0.119-0.452,0.184-0.537
		l0.312-0.441l-9.84,0.636c-1.24,0.086-2.003,0.086-2.293,0c-0.281-0.086-0.496-0.345-0.626-0.787
		c-0.139-0.441-0.043-0.839,0.302-1.205c0.16-0.184,0.422-0.324,0.753-0.409l1.571-0.098l30.857-1.948
		c1.259-0.063,2.078-0.053,2.454,0.043c0.378,0.098,0.624,0.419,0.733,0.97c0.098,0.537-0.023,0.893-0.391,1.066
		c-0.353,0.171-0.998,0.278-1.945,0.345l-10.444,0.765c0.129,0.288,0.226,0.568,0.312,0.826c0.086,0.271,0.119,0.659,0.096,1.186
		l-0.129,1.292l-0.086,1.991l-0.097,0.916l6.395-0.44c1.313-0.086,2.154,0.184,2.542,0.816c0.389,0.636,0.613,1.445,0.679,2.443
		c0.064,1.002,0.064,2.391,0,4.18l-0.247,5.619c-0.15,3.552-0.324,6.652-0.518,9.302c-0.204,2.649-0.57,4.479-1.1,5.49
		c-0.514,1.012-1.033,1.616-1.537,1.81c-0.506,0.204-1.109,0.173-1.798-0.076c-0.657-0.193-1.519-0.731-2.583-1.626
		c-1.078-0.894-1.81-1.518-2.207-1.86c-0.4-0.347-0.819-0.733-1.24-1.154c-0.42-0.419-0.667-0.785-0.733-1.098
		c-0.073-0.321-0.043-0.591,0.088-0.816c0.138-0.238,0.388-0.399,0.743-0.476c0.354-0.086,0.828,0.086,1.421,0.528l1.485,1.173
		l1.831,1.572c0.71,0.613,1.323,0.818,1.829,0.635c0.354-0.13,0.635-0.773,0.852-1.959l0.182-1.033
		c0.195-1.119,0.366-2.647,0.529-4.576c0.148-1.938,0.277-4.006,0.387-6.201s0.152-3.907,0.141-5.147
		c-0.012-1.227,0.012-2.25,0.064-3.066c0.053-0.819-0.064-1.357-0.367-1.616c-0.29-0.246-0.656-0.367-1.098-0.344l-6.027,0.312
		c-0.119,0.593-0.207,1.021-0.25,1.302l-0.375,2.455l-0.475,2.025c0.377-0.261,0.656-0.378,0.83-0.366
		c0.184,0.01,0.419,0.117,0.709,0.331c0.301,0.207,0.753,0.702,1.357,1.476c0.612,0.786,1.107,1.465,1.486,2.036
		c0.375,0.581,0.721,1.226,1.021,1.947c0.312,0.712,0.441,1.293,0.408,1.735c-0.03,0.44-0.214,0.753-0.559,0.957
		c-0.355,0.205-0.712,0.193-1.076-0.033c-0.367-0.214-0.688-0.635-0.957-1.259c-0.281-0.624-0.733-1.42-1.357-2.41l-1.649-2.585
		l-0.526-0.765c-0.301,0.948-0.56,1.733-0.775,2.369c-0.227,0.634-0.625,1.581-1.205,2.874c-0.57,1.28-0.959,2.078-1.141,2.411
		c-0.195,0.324-0.7,1.109-1.52,2.359c-0.818,1.259-1.421,1.883-1.82,1.895c-0.387,0.01-0.687-0.12-0.893-0.378
		c-0.215-0.258-0.227-0.612-0.031-1.055c0.194-0.442,0.516-1,0.99-1.69c0.474-0.679,1.012-1.593,1.613-2.724
		c0.594-1.141,1.143-2.314,1.639-3.531c0.495-1.228,0.947-2.682,1.356-4.394c0.409-1.7,0.71-3.314,0.905-4.854l-7.83,0.409
		c-0.062,0.257-0.096,0.431-0.096,0.538l-0.279,1.7c-0.13,0.721-0.269,1.39-0.408,2.025c0.312,0.043,0.611,0.107,0.914,0.205
		c0.29,0.095,0.947,0.645,1.947,1.669c1.014,1.021,1.649,1.818,1.895,2.378c0.26,0.569,0.281,1.033,0.076,1.379
		c-0.192,0.345-0.504,0.505-0.926,0.485c-0.421-0.023-0.893-0.357-1.421-1.025c-0.528-0.667-0.86-1.076-1.013-1.248l-1.539-1.474
		L177.829,168.726z"/>
	<path fill="#A91F27" d="M232.263,135.352c0.152-0.526,0.398-0.808,0.753-0.851c0.356-0.043,0.733,0.031,1.111,0.236
		c0.376,0.192,1.076,1.002,2.11,2.411c1.033,1.412,1.84,2.647,2.433,3.726l1.194,2.424c0.355,0.741,0.496,1.377,0.432,1.926
		c-0.076,0.551-0.336,0.872-0.764,0.96c-0.434,0.096-0.799,0.01-1.119-0.271c-0.27-0.181-0.562-0.688-0.862-1.495
		c-0.312-0.807-1.003-2.059-2.067-3.735c-1.078-1.681-1.918-2.876-2.529-3.564C232.349,136.428,232.111,135.835,232.263,135.352
		 M262.065,132.509c0.322,0.195,0.515,0.464,0.591,0.807c0.076,0.346,0.021,0.745-0.139,1.186c-0.151,0.377-0.562,1.227-1.216,2.539
		c-0.67,1.313-1.338,2.435-2.024,3.372c-0.679,0.937-1.54,2.024-2.585,3.25c-1.045,1.227-1.778,1.981-2.207,2.25
		c-0.432,0.281-0.807,0.376-1.143,0.303c-0.322-0.076-0.569-0.27-0.752-0.581c-0.184-0.312-0.152-0.712,0.073-1.197
		c0.109-0.215,0.583-0.741,1.411-1.591c0.831-0.853,1.691-1.972,2.574-3.35c0.881-1.378,1.636-2.681,2.281-3.931
		c0.646-1.236,1.154-2.141,1.552-2.702C260.868,132.294,261.396,132.173,262.065,132.509z M254.021,156.7l-14.598,0.916
		c-0.753,0.064-1.236,0.257-1.453,0.569c-0.205,0.312-0.312,0.971-0.312,1.961v4.348c0,0.528,0.15,0.96,0.451,1.314
		c0.314,0.343,0.658,0.495,1.068,0.452l15.168-0.916c1.131-0.062,1.724-0.839,1.767-2.336l0.116-4.886
		c0-0.53-0.104-0.905-0.32-1.154C255.681,156.732,255.055,156.638,254.021,156.7z M255.949,167.649l-16.526,1.108
		c-1.41,0.098-2.434-0.075-3.058-0.528c-0.636-0.452-0.959-1.407-0.979-2.885l-0.164-6.588c-0.043-1.324,0.217-2.24,0.767-2.735
		c0.538-0.483,1.281-0.765,2.207-0.829l16.772-0.945c1.057-0.045,1.95,0.227,2.683,0.807c0.74,0.57,1.086,1.42,1.043,2.529
		l-0.312,6.813c-0.043,0.776-0.312,1.51-0.81,2.197C257.08,167.272,256.54,167.63,255.949,167.649z M248.381,147.56l19.744-1.26
		c1.433-0.085,2.39,0.012,2.886,0.291c0.494,0.291,0.83,0.669,1.014,1.141c0.172,0.476,0.15,1.314-0.078,2.542l-0.387,1.981
		c-0.118,0.44-0.365,1.107-0.742,2c-0.367,0.895-0.73,1.714-1.098,2.469c-0.367,0.74-0.818,1.053-1.357,0.947
		c-0.537-0.121-0.861-0.293-0.979-0.528c-0.121-0.229-0.121-0.538-0.012-0.948c0.074-0.376,0.432-1.216,1.033-2.521
		c0.615-1.303,0.904-2.346,0.882-3.131c-0.02-0.798-0.105-1.293-0.267-1.485c-0.15-0.207-0.787-0.27-1.907-0.207l-38.23,2.521
		c-0.269,0.948-0.517,1.776-0.753,2.477c-0.227,0.711-0.593,1.593-1.066,2.649c-0.485,1.064-0.904,1.926-1.27,2.571
		c-0.356,0.657-0.635,1.098-0.83,1.324c-0.203,0.237-0.474,0.366-0.807,0.399c-0.334,0.033-0.68-0.141-1.045-0.505
		c-0.355-0.366-0.258-1.057,0.292-2.068l1.356-2.455c0.539-1.1,1.033-2.454,1.475-4.07c0.44-1.626,0.732-2.712,0.85-3.283
		c0.129-0.569,0.301-1.496,0.507-2.776c0.105-0.398,0.257-0.712,0.462-0.926c0.193-0.229,0.518-0.303,0.957-0.229
		c0.443,0.078,0.712,0.261,0.808,0.55c0.098,0.302,0.121,0.679,0.076,1.143l-0.129,1.603l-0.278,0.98l16.342-1.043v-14.439
		c0-1.228,0.055-1.992,0.152-2.304c0.105-0.322,0.428-0.505,0.979-0.56c0.549-0.043,0.926,0.098,1.119,0.431
		c0.204,0.335,0.302,1.109,0.302,2.305V147.56z M245.064,184.993v-7.912l-12.11,0.786l-1.886,0.128
		c-0.528-0.149-0.86-0.44-0.981-0.883c-0.128-0.44-0.031-0.838,0.281-1.193c0.172-0.194,0.41-0.345,0.732-0.442l1.572-0.096
		l12.392-0.766v-3.369c0-1.195,0.055-1.96,0.162-2.283c0.106-0.333,0.442-0.517,0.99-0.569c0.56-0.055,0.937,0.098,1.141,0.452
		c0.194,0.365,0.3,1.131,0.3,2.305v3.314l12.588-0.788c1.259-0.062,2.078-0.053,2.454,0.023c0.376,0.086,0.626,0.41,0.743,0.968
		c0.119,0.562-0.012,0.916-0.367,1.068c-0.354,0.159-0.99,0.257-1.895,0.3l-13.523,0.883v7.957l20.662-1.109l2.013-0.129
		c0.702,0.172,1.1,0.548,1.196,1.119c0.105,0.583-0.183,1.012-0.885,1.281l-1.356,0.066l-43.021,2.399
		c-1.26,0.076-2.023,0.076-2.305-0.01c-0.27-0.076-0.473-0.347-0.612-0.787c-0.129-0.44-0.033-0.839,0.3-1.195
		c0.174-0.193,0.336-0.302,0.508-0.345c0.171-0.043,0.775-0.098,1.828-0.16L245.064,184.993z"/>
	<path fill="#A91F27" d="M291.521,185.469c-0.291,0.043-0.569-0.086-0.85-0.378c-0.27-0.291-0.336-0.69-0.184-1.195
		c0.055-0.193,0.483-0.731,1.271-1.614c0.783-0.884,1.84-2.486,3.154-4.823c1.314-2.336,2.088-3.746,2.336-4.241
		c0.237-0.495,0.688-1.485,1.333-2.982c0.659-1.486,1.1-2.562,1.337-3.221c0.227-0.644,0.441-1.172,0.625-1.571
		c0.192-0.398,0.549-0.593,1.088-0.57c0.537,0.02,0.881,0.203,1.043,0.551c0.162,0.354,0.193,0.74,0.107,1.181
		c-0.15,0.702-0.915,2.543-2.314,5.535c-1.4,3.005-2.95,5.954-4.65,8.85C294.106,183.896,292.683,185.383,291.521,185.469
		 M292.308,148c0.191,0.023,0.808,0.25,1.83,0.679c1.033,0.433,2.411,1.26,4.123,2.488c1.711,1.228,2.82,2.195,3.338,2.885
		c0.516,0.698,0.656,1.238,0.431,1.614c-0.237,0.379-0.624,0.528-1.174,0.476c-0.269-0.023-1.24-0.713-2.919-2.068
		c-1.666-1.356-3.133-2.337-4.393-2.918c-1.26-0.593-2.035-1.088-2.324-1.486c-0.28-0.397-0.345-0.785-0.183-1.162
		C291.187,148.131,291.618,147.958,292.308,148z M298.648,133.078c0.194,0.066,0.786,0.442,1.786,1.121
		c1.002,0.688,2.176,1.765,3.521,3.25c1.345,1.478,2.188,2.585,2.518,3.295c0.336,0.711,0.355,1.239,0.043,1.571
		c-0.3,0.347-0.721,0.421-1.235,0.228c-0.237-0.063-0.495-0.259-0.8-0.603l-1.419-1.668c-0.624-0.712-1.399-1.52-2.326-2.402
		c-0.926-0.883-1.69-1.55-2.292-2.012c-0.594-0.465-1.001-0.929-1.195-1.381c-0.205-0.45-0.184-0.838,0.064-1.162
		C297.549,132.992,298.001,132.906,298.648,133.078z M304.236,180.3c0.042-0.131,0.202-0.366,0.507-0.73
		c0.289-0.357,0.967-1.088,2.012-2.188c1.055-1.107,2.293-2.724,3.715-4.844c1.409-2.121,2.423-3.855,3.004-5.189
		c0.593-1.336,1.15-1.938,1.688-1.81c0.54,0.119,0.873,0.379,1.014,0.765c0.128,0.397,0.086,0.883-0.141,1.474
		c-0.323,0.8-0.969,2.005-1.959,3.63c-0.991,1.615-1.831,2.896-2.519,3.834c-0.701,0.924-1.271,1.656-1.713,2.184l-2.454,2.811
		c-1.217,1.551-2.1,2.098-2.647,1.636C304.193,181.409,304.021,180.883,304.236,180.3z M333.067,179.319
		c-0.086,0.442-0.324,0.765-0.699,0.959c-0.377,0.205-0.744,0.172-1.098-0.076c-0.238-0.128-0.422-0.397-0.57-0.816l-0.818-2.683
		c-0.26-0.698-0.745-1.786-1.455-3.26c-0.709-1.487-1.325-2.659-1.809-3.521c-0.496-0.861-0.828-1.476-0.979-1.84
		c-0.162-0.379-0.205-0.702-0.141-1.003c0.055-0.292,0.248-0.537,0.581-0.721c0.323-0.195,0.755-0.152,1.271,0.129
		c0.387,0.226,1.033,1.173,1.95,2.83c0.902,1.669,1.688,3.221,2.323,4.652c0.648,1.442,1.057,2.604,1.248,3.479
		C333.067,178.319,333.132,178.943,333.067,179.319z M343.058,178.598c0,0.495-0.16,0.884-0.484,1.131
		c-0.323,0.26-0.688,0.293-1.088,0.129c-0.278-0.062-0.482-0.214-0.635-0.462c-0.139-0.236-0.418-0.808-0.817-1.712
		s-1.194-2.283-2.38-4.135c-1.182-1.851-2.346-3.4-3.486-4.65c-1.131-1.249-1.832-2.057-2.078-2.399
		c-0.26-0.348-0.379-0.667-0.367-0.96c0.012-0.3,0.16-0.569,0.465-0.807c0.288-0.238,0.709-0.293,1.26-0.141
		c0.396,0.129,1.033,0.679,1.895,1.669c0.859,0.99,1.626,1.906,2.293,2.757c0.678,0.861,1.55,2.078,2.626,3.681
		c1.066,1.595,1.798,2.909,2.186,3.942C342.831,177.674,343.038,178.319,343.058,178.598z M321.482,178.814v-22.082
		c0-1.194,0.055-1.959,0.162-2.282c0.106-0.324,0.431-0.516,0.98-0.569c0.55-0.055,0.915,0.097,1.098,0.44
		c0.192,0.343,0.302,1.119,0.321,2.326l0.098,29.391c0,1.388-0.366,2.659-1.098,3.802c-0.721,1.141-2.033,0.936-3.951-0.616
		c-1.053-0.838-1.884-1.667-2.496-2.477c-0.604-0.807-1.217-1.678-1.842-2.604c-0.627-0.924-0.957-1.56-1.012-1.914
		c-0.055-0.367,0.043-0.712,0.29-1.045c0.235-0.336,0.591-0.495,1.055-0.476c0.378,0.045,0.788,0.313,1.228,0.818l0.851,1.26
		c0,0.043,0.55,0.756,1.638,2.121c1.096,1.356,1.774,1.98,2.055,1.84c0.27-0.14,0.453-0.505,0.539-1.119
		c0.023-0.288,0.023-0.73,0.012-1.313c-0.012-0.569,0-1.624,0.031-3.154C321.473,179.644,321.482,178.857,321.482,178.814z
		 M329.213,148.69c1.219,1.896,2.444,3.692,3.683,5.416c1.227,1.712,2.465,3.121,3.715,4.242c1.249,1.107,2.658,2.238,4.209,3.369
		c1.562,1.141,3.002,2.088,4.328,2.853c1.324,0.774,1.926,1.452,1.828,2.033c-0.105,0.593-0.416,0.938-0.945,1.046
		c-0.442,0.108-1.399-0.279-2.852-1.162c-1.467-0.884-2.715-1.724-3.748-2.498c-1.023-0.773-2.359-1.928-4.004-3.434
		c-1.639-1.521-2.94-2.875-3.909-4.07c-0.97-1.195-1.896-2.477-2.778-3.821l-2.109-3.24l-0.312-0.476l-5.018,0.44
		c-0.15,0.271-0.506,0.992-1.053,2.176c-0.562,1.174-1.1,2.152-1.627,2.952c-0.527,0.783-1.313,1.859-2.348,3.217
		c-1.045,1.356-1.906,2.39-2.572,3.102c-0.68,0.722-1.713,1.712-3.112,2.98c-1.399,1.271-2.421,2.23-3.09,2.854
		c-0.657,0.636-1.152,1.012-1.464,1.152c-0.312,0.139-0.637,0.107-0.948-0.076c-0.312-0.194-0.483-0.526-0.517-1.002
		c-0.033-0.462,0.774-1.431,2.424-2.886c1.656-1.442,3.638-3.399,5.942-5.876c2.313-2.466,4.146-5.256,5.49-8.345l-8.926,0.851
		c-0.969,0.109-1.669,0.152-2.098,0.129c-0.433-0.02-0.767-0.227-1.023-0.612c-0.247-0.389-0.184-0.755,0.224-1.088
		c0.4-0.344,1.574-0.593,3.533-0.765l9.173-0.785c0.548-1.455,1.076-2.962,1.581-4.545c0.508-1.571,0.808-2.583,0.916-3.026
		l0.377-1.699l-8.074,0.787l-1.325,0.191c-0.776-0.062-1.216-0.322-1.313-0.765c-0.096-0.44,0-0.818,0.271-1.131
		c0.171-0.214,0.407-0.354,0.731-0.44l1.571-0.096l20.821-2.111l1.51-0.258c0.678,0.107,1.053,0.41,1.15,0.905
		s-0.01,0.85-0.312,1.064c-0.3,0.226-0.947,0.378-1.904,0.464l-10.066,0.979c-0.086,0.398-0.227,1.023-0.421,1.896
		c-0.202,0.861-1.098,3.338-2.671,7.439l19.24-1.669l0.689-0.064c0.787,0.086,1.174,0.42,1.186,1.012
		c0.01,0.582-0.207,0.948-0.648,1.088c-0.439,0.129-1.002,0.227-1.699,0.27L329.213,148.69z"/>
	<path fill="#A91F27" d="M413.05,137.277l-26.561,1.411c-0.859,0.064-1.355-0.108-1.464-0.519c-0.117-0.407-0.098-0.773,0.075-1.096
		c0.172-0.335,0.518-0.519,1.044-0.562l26.776-1.388c0.246,0,0.538,0.074,0.85,0.227c0.312,0.151,0.484,0.495,0.484,1.045
		C414.267,136.935,413.868,137.234,413.05,137.277 M371.159,130.431c0.172,0.023,0.453,0.151,0.838,0.397
		c0.389,0.237,1.058,0.885,2.015,1.918c0.958,1.044,1.55,1.712,1.765,1.991c0.227,0.28,0.615,0.871,1.174,1.775
		c0.549,0.905,0.98,1.627,1.271,2.152c0.301,0.52,0.42,0.981,0.365,1.369s-0.257,0.667-0.613,0.818
		c-0.355,0.16-0.743,0.086-1.174-0.237c-0.268-0.16-0.571-0.56-0.893-1.193c-0.324-0.636-0.957-1.638-1.905-3.016
		c-0.947-1.379-1.788-2.4-2.509-3.06c-0.724-0.666-1.174-1.162-1.324-1.517c-0.162-0.343-0.152-0.667,0.031-0.969
		C370.372,130.549,370.695,130.409,371.159,130.431z M377.499,159.606c0.227,0.131,0.776,0.593,1.639,1.391
		c0.859,0.795,1.742,1.828,2.636,3.088c0.893,1.26,1.335,2.133,1.325,2.616c-0.012,0.485-0.172,0.819-0.484,1.014
		c-0.322,0.184-0.721,0.129-1.205-0.194c-0.314-0.16-0.689-0.612-1.121-1.334c-0.43-0.732-1.01-1.521-1.766-2.371
		c-0.742-0.85-1.335-1.462-1.766-1.84c-0.431-0.387-0.742-0.796-0.945-1.238c-0.195-0.44-0.152-0.816,0.139-1.152
		C376.252,159.264,376.767,159.273,377.499,159.606z M375.476,157.583v31.071c0,0.526-0.117,0.936-0.354,1.229
		c-0.247,0.3-0.538,0.429-0.874,0.409c-0.73,0-1.096-0.538-1.096-1.638v-28.422c-1.723,1.915-3.715,3.876-5.965,5.866l-2.874,2.498
		c-0.604,0.528-1.143,0.818-1.595,0.861c-0.453,0.055-0.765-0.043-0.947-0.29c-0.172-0.26-0.184-0.624-0.01-1.109
		c0.149-0.377,0.516-0.819,1.109-1.324c0.58-0.505,1.766-1.571,3.53-3.219c1.765-1.638,3.036-2.843,3.831-3.628
		c0.787-0.774,1.895-1.991,3.338-3.66c1.442-1.659,2.542-3.016,3.295-4.07l2.467-3.619c0.375-0.547,0.504-0.904,0.375-1.076
		c-0.128-0.171-0.396-0.235-0.818-0.226l-14.661,1.207c-1.229,0.106-1.821-0.26-1.798-1.076c0-0.271,0.139-0.54,0.418-0.798
		c0.28-0.27,0.678-0.421,1.186-0.464l16.342-1.162c1.239-0.086,1.918,0.227,2.047,0.947c0.129,0.71,0.055,1.412-0.227,2.109
		c-0.398,0.948-1.057,2.112-1.98,3.5C379.288,152.89,377.704,154.914,375.476,157.583z M391.034,147.903v4.254
		c0,1.033,0.141,1.657,0.44,1.883c0.29,0.215,0.894,0.303,1.798,0.238l12.996-0.85c0.967-0.066,1.583-0.26,1.859-0.572
		c0.27-0.313,0.434-0.797,0.477-1.452l0.215-5.428c0-0.354-0.152-0.667-0.453-0.924c-0.312-0.27-0.689-0.39-1.15-0.366
		l-14.579,1.076c-0.646,0.063-1.076,0.269-1.29,0.613C391.142,146.72,391.034,147.227,391.034,147.903z M411.252,145.665
		l-0.257,5.61c-0.066,1.312-0.398,2.346-1.026,3.132c-0.624,0.775-1.462,1.195-2.538,1.259l-14.006,0.819
		c-1.972,0.129-3.264-0.205-3.857-0.979c-0.6-0.776-0.893-1.51-0.871-2.176l0.033-6.095c0-0.957,0.172-1.722,0.517-2.262
		c0.345-0.548,0.731-0.87,1.141-0.979c0.409-0.107,1.197-0.215,2.347-0.324l14.416-1.129c1.193-0.087,2.188,0.15,2.983,0.688
		C410.917,143.781,411.294,144.589,411.252,145.665z M401.476,181.904l10.057-0.657l0.508-16.881
		c0.02-0.776-0.109-1.303-0.402-1.594c-0.277-0.278-0.912-0.399-1.902-0.356l-8.26,0.495v8.431l7.947-0.667
		c0.881-0.064,1.334,0.257,1.365,0.969c0.035,0.7-0.344,1.088-1.15,1.152l-8.162,0.69V181.904z M398.884,182.064l0.062-8.364
		l-7.945,0.7c-0.861,0.086-1.357-0.076-1.486-0.474c-0.128-0.397-0.106-0.765,0.053-1.088c0.152-0.324,0.496-0.517,1.023-0.581
		l8.355-0.7v-8.482l-8.517,0.505c-0.925,0.064-1.517,0.302-1.776,0.722c-0.27,0.419-0.397,1.206-0.397,2.337l-0.064,16.085
		L398.884,182.064z M411.595,183.487l-23.47,1.355l-0.031,2.24c-0.021,0.883-0.097,1.454-0.237,1.712
		c-0.129,0.269-0.377,0.44-0.731,0.526c-0.364,0.086-0.7-0.02-1.033-0.322c-0.323-0.29-0.474-0.591-0.452-0.914l0.096-22.46
		c0-0.603,0.055-1.195,0.173-1.767c0.107-0.558,0.345-1.064,0.712-1.505c0.355-0.442,1.141-0.712,2.357-0.787l22.305-1.453
		c1.748-0.106,2.758,0.279,3.038,1.162c0.292,0.884,0.421,1.681,0.397,2.402l-0.721,22.114c-0.02,0.538-0.129,0.99-0.324,1.334
		c-0.184,0.343-0.506,0.538-0.955,0.581c-0.452,0.043-0.787-0.117-1.014-0.507c-0.215-0.375-0.312-0.827-0.27-1.355L411.595,183.487
		z"/>
	<path fill="#A91F27" d="M441.085,130.204c0.16,0.023,0.453,0.162,0.85,0.397c0.398,0.25,1.076,0.896,2.048,1.962
		c0.967,1.055,1.56,1.711,1.767,1.969c0.214,0.248,0.592,0.831,1.15,1.745c0.561,0.914,0.979,1.636,1.282,2.164
		c0.288,0.528,0.409,0.98,0.354,1.378c-0.043,0.387-0.249,0.655-0.615,0.819c-0.355,0.148-0.741,0.074-1.162-0.238
		c-0.27-0.171-0.569-0.569-0.904-1.204c-0.324-0.626-0.96-1.627-1.907-2.995c-0.944-1.368-1.774-2.391-2.507-3.057
		c-0.722-0.679-1.162-1.186-1.322-1.529c-0.152-0.345-0.141-0.678,0.031-0.979C440.333,130.333,440.645,130.185,441.085,130.204
		 M448.33,159.068c0.171,0.107,0.604,0.462,1.282,1.078c0.691,0.601,1.186,1.119,1.518,1.528c0.323,0.41,0.764,1,1.303,1.765
		c0.549,0.767,0.83,1.367,0.842,1.8c0.008,0.429-0.152,0.74-0.488,0.947c-0.342,0.193-0.74,0.15-1.204-0.141
		c-0.226-0.128-0.538-0.485-0.917-1.076c-0.373-0.593-0.924-1.271-1.656-2.047c-0.722-0.785-1.248-1.324-1.584-1.626
		c-0.343-0.312-0.6-0.679-0.795-1.107c-0.184-0.433-0.141-0.818,0.141-1.154C447.059,158.704,447.577,158.714,448.33,159.068z
		 M445.241,157.81v30.502c0,0.548-0.12,0.967-0.354,1.259c-0.249,0.289-0.538,0.429-0.873,0.409c-0.733,0-1.1-0.561-1.1-1.668
		v-27.853c-1.076,1.118-2.25,2.409-3.54,3.896c-1.283,1.478-2.594,2.865-3.951,4.145c-1.356,1.283-2.327,1.961-2.885,2.025
		c-0.573,0.053-0.947-0.033-1.119-0.29c-0.184-0.25-0.184-0.614-0.023-1.1c0.129-0.377,0.495-0.819,1.088-1.312
		c0.604-0.497,1.852-1.69,3.735-3.573c1.896-1.896,3.412-3.512,4.565-4.848c1.139-1.333,2.305-2.764,3.486-4.295
		c1.174-1.519,2.023-2.681,2.555-3.476l1.73-2.649c0.379-0.548,0.508-0.905,0.379-1.078c-0.129-0.172-0.398-0.236-0.818-0.215
		l-13.75,1.066c-1.186,0.107-1.773-0.119-1.785-0.679s0.129-0.957,0.409-1.216c0.288-0.248,0.687-0.398,1.217-0.441l15.394-1.035
		c1.217-0.062,1.907,0.281,2.067,1.025c0.151,0.741,0,1.603-0.46,2.572c-0.488,1-0.916,1.818-1.295,2.423l-2.238,3.089
		L445.241,157.81z M455.341,159.444c-0.023-0.312,0.129-0.58,0.452-0.818c0.331-0.225,0.741-0.277,1.248-0.16
		c0.483,0.15,1.1,0.636,1.829,1.455l1.832,2.088c0.776,0.938,1.408,1.83,1.896,2.657c0.483,0.83,0.679,1.54,0.581,2.111
		c-0.098,0.583-0.465,0.872-1.088,0.872c-0.238,0.022-0.477-0.053-0.733-0.236c-0.245-0.184-0.558-0.614-0.925-1.293
		c-0.365-0.688-0.904-1.462-1.605-2.348c-0.71-0.881-1.463-1.721-2.262-2.53C455.771,160.447,455.36,159.845,455.341,159.444z
		 M471.769,144.558l-11.799,0.979c-1.283,0.129-2.055,0.15-2.324,0.086c-0.281-0.074-0.477-0.324-0.581-0.743
		c-0.121-0.419-0.035-0.807,0.257-1.141c0.172-0.183,0.332-0.312,0.496-0.354c0.148-0.055,0.764-0.131,1.809-0.207l11.133-0.861
		c1.268-0.074,2.086-0.074,2.477,0c0.396,0.088,0.643,0.399,0.74,0.938c0.109,0.54-0.172,0.938-0.85,1.217L471.769,144.558z
		 M472.244,164.561c1.45-1.033,2.765-2.154,3.938-3.381l2.434-2.649c1.057-1.109,1.809-1.44,2.285-0.99
		c0.471,0.452,0.631,0.957,0.494,1.528c-0.109,0.333-0.39,0.755-0.854,1.262l-1.583,1.7c-1.213,1.248-2.96,2.745-5.229,4.512
		c2.117,2.689,3.744,4.597,4.867,5.716c1.131,1.109,2.227,2.121,3.303,3.036c1.068,0.914,1.938,1.604,2.596,2.068
		c0.668,0.462,1.604,1.086,2.832,1.859c1.217,0.776,1.84,1.412,1.883,1.876c0.043,0.472-0.16,0.861-0.612,1.141
		c-0.452,0.278-1.704-0.236-3.747-1.583c-2.059-1.336-4.273-3.101-6.676-5.298c-2.402-2.195-5.361-5.747-8.895-10.668v20.401
		c0,1.388-0.055,2.368-0.159,2.939c-0.109,0.56-0.476,1.141-1.1,1.733c-0.636,0.581-1.56,0.431-2.776-0.474
		c-0.612-0.421-1.346-1.195-2.207-2.305c-0.861-1.119-1.669-2.078-2.414-2.905c-0.752-0.818-1.236-1.466-1.474-1.939
		c-0.226-0.474-0.288-0.872-0.171-1.215c0.116-0.335,0.439-0.54,0.979-0.616c0.537-0.074,1.186,0.355,1.938,1.283
		c0.355,0.483,0.83,1.131,1.412,1.938c0.568,0.808,1.119,1.486,1.625,2.036c0.496,0.548,0.874,0.859,1.096,0.924
		c0.227,0.074,0.434-0.012,0.586-0.248c0.159-0.235,0.233-0.85,0.233-1.807v-14.739c-0.71,0.593-1.419,1.15-2.109,1.688
		c-0.698,0.538-1.97,1.411-3.833,2.606s-3.252,2.035-4.164,2.519c-0.917,0.485-2.024,1.045-3.326,1.679
		c-1.307,0.626-2.285,0.971-2.933,1.023c-0.655,0.055-1.107-0.064-1.353-0.354c-0.262-0.279-0.324-0.591-0.207-0.938
		c0.109-0.355,0.354-0.636,0.732-0.839c0.387-0.216,1.615-0.721,3.693-1.528c2.09-0.808,4.348-2.1,6.805-3.876
		c2.444-1.778,4.682-3.479,6.694-5.104v-12.521l-12.489,1.107c-1.26,0.131-2.023,0.152-2.301,0.078
		c-0.27-0.078-0.476-0.335-0.616-0.775c-0.14-0.441-0.042-0.851,0.269-1.229c0.172-0.184,0.41-0.334,0.723-0.44l1.613-0.129
		l21.415-1.798l1.111-13.62c0.031-0.679-0.085-1.162-0.366-1.464c-0.293-0.314-0.959-0.431-2.035-0.367l-13.847,1.013l-1.927,0.151
		c-0.549-0.14-0.873-0.421-0.979-0.818c-0.109-0.397-0.012-0.776,0.289-1.131c0.164-0.195,0.323-0.312,0.476-0.366
		c0.14-0.055,0.753-0.117,1.817-0.203l15.526-1.174c1.064-0.055,1.97,0.191,2.714,0.765c0.729,0.569,1.053,1.399,0.979,2.485
		l-1.205,14.514l5.65-0.41c1.283-0.085,2.109-0.085,2.488,0c0.378,0.086,0.623,0.4,0.74,0.958c0.121,0.561-0.16,0.98-0.838,1.282
		l-1.389,0.098l-15.387,1.291v6.277C470.037,161.34,471.028,162.815,472.244,164.561z"/>
	<path fill="none" stroke="#A72027" stroke-width="0.5669" stroke-miterlimit="22.9256" d="M423.702,262.413
		c60.793-110.907-369.579,14.229-320.9-91.364"/>
	<path fill="none" stroke="#A72027" stroke-width="0.5669" stroke-miterlimit="22.9256" d="M423.702,262.413
		c38.057-68.351,171.019-29.183,104.15-138.249"/>
</g>
</svg>
