<svg xmlns="http://www.w3.org/2000/svg" width="640" height="60.667" viewBox="0 0 640 60.667"><g fill="#A72027"><path d="M176.666 30.065c-.701 2.093-1.23 3.523-1.588 4.31-.358.781-.917 1.834-1.673 3.156-.761 1.325-1.563 2.474-2.41 3.442-.847.968-1.674 1.876-2.48 2.712-.807.837-1.578 1.588-2.314 2.248-.73.665-1.224 1.023-1.477 1.072-.247.051-.439-.02-.564-.2-.132-.182-.132-.395 0-.64.046-.102.146-.201.292-.312l.373-.238c.166-.105.484-.394.958-.852l1.372-1.27c.328-.318 1.089-1.131 2.288-2.432 1.205-1.304 2.178-2.655 2.93-4.057.746-1.396 1.27-2.43 1.572-3.101.297-.67.641-1.542 1.023-2.626.383-1.084.675-2.047.876-2.884.207-.836.383-1.732.54-2.702.161-.961.256-1.663.292-2.102.031-.438.061-.906.081-1.411.02-.503.025-.912.016-1.234-.01-.317.024-.56.11-.722.081-.161.243-.276.484-.343.242-.061.444.035.6.299.157.261.221.584.192.967l-.171 1.765c-.051.554-.126 1.149-.211 1.779-.091.63-.167 1.145-.238 1.536l-.383 2.153c.55 1.165 1.14 2.364 1.771 3.599.629 1.236 1.481 2.712 2.55 4.422 1.068 1.714 1.966 3.033 2.691 3.968.731.932 1.493 1.738 2.294 2.429.796.69 1.467 1.225 2.022 1.603.55.378 1.002.649 1.356.812.357.161.595.288.71.384.116.096.196.221.236.392.041.168-.064.354-.317.56-.251.207-.866 0-1.839-.614-.973-.616-1.83-1.245-2.57-1.895-.737-.651-1.539-1.468-2.405-2.445-.866-.979-1.83-2.323-2.888-4.033-1.062-1.707-2.428-4.204-4.101-7.495"/><path d="M208.417 44.29l10.131-.591c.248-.01.418.051.525.184.101.135.157.268.161.397.005.137-.04.268-.131.398-.095.136-.237.206-.423.216l-22.699 1.195c-.136.01-.272-.029-.403-.117-.136-.09-.207-.22-.216-.397-.011-.176.05-.315.186-.413.131-.1.262-.156.389-.166l11.3-.646v-6.81l-6.426.458c-.146.021-.283-.016-.404-.096-.125-.086-.191-.217-.207-.394-.015-.176.04-.316.167-.427.131-.107.256-.168.383-.178l6.486-.503-.015-5.701-7.43.563c-.569 1.367-1.381 2.925-2.434 4.668-1.054 1.738-1.714 2.45-1.976 2.123-.257-.324-.358-.601-.303-.827.031-.096.283-.435.747-1.004.469-.569 1.084-1.618 1.839-3.145.761-1.526 1.371-2.915 1.84-4.174.468-1.256.862-2.455 1.189-3.609.323-1.15.524-1.759.604-1.83.076-.07.187-.105.333-.109.141-.006.268.035.373.124.162.146.227.293.212.445l-.031.337c-.216.767-.453 1.567-.706 2.4-.247.83-.66 1.99-1.229 3.478l6.971-.591v-9.596c0-.188.041-.343.131-.46.091-.121.222-.182.398-.188.177-.004.333.057.464.178.137.127.202.282.202.47v9.505l7.087-.573c.237-.01.408.044.52.171.105.121.167.252.181.383.015.13-.025.272-.116.413-.096.143-.232.216-.424.228l-7.248.534v5.686l6.246-.489c.226-.01.397.051.509.188.116.13.176.261.191.388.016.131-.025.261-.125.397-.096.143-.237.213-.423.223l-6.396.458v6.826zM234.75 20.245c.065-.051.201-.06.398-.045.197.021.388.105.58.252.191.152.388.349.579.601.192.251.479.646.861 1.18.384.54.742 1.023 1.069 1.462.333.438.555.821.676 1.154.116.327.131.62.035.871-.091.252-.297.318-.615.197-.211-.066-.59-.54-1.119-1.411-.534-.868-1.028-1.608-1.491-2.217l-.903-1.141c-.146-.188-.226-.363-.237-.524-.009-.162.046-.287.167-.379m9.093 7.325l-14.795 1.285-.887.106c-.247-.05-.407-.177-.479-.384-.076-.206-.045-.403.096-.579.065-.096.146-.156.237-.181.086-.025.368-.066.842-.111l15.269-1.346.932-.102c.706.01.973.318.796.927-.09.308-.523.816-1.31 1.538-.782.716-1.896 1.694-3.342 2.929-1.446 1.239-2.273 1.941-2.474 2.107-.202.165-2.703 2.127-7.511 5.878.605.186 1.058.321 1.375.413l2.405.681c.444.135 1.729.534 3.851 1.193 2.117.66 3.67 1.096 4.648 1.306.984.213 1.906.338 2.772.379.868.041 1.976.061 3.337.061.423.009.837-.016 1.245-.076.41-.061.57.146.484.62-.03.155-.13.298-.302.413-.177.121-.868.187-2.078.206-1.93.041-3.402-.029-4.426-.21-1.018-.182-1.87-.369-2.561-.55-.69-.182-1.315-.363-1.875-.554l-2.687-.899c-.383-.12-1.583-.464-3.589-1.033-2.006-.573-3.281-.896-3.826-.977-.539-.076-1.108-.092-1.714-.041-.6.045-1.164.172-1.699.373-.528.202-.882.323-1.053.362-.171.041-.328-.01-.474-.141-.142-.131-.121-.372.065-.716.07-.126.222-.257.454-.384.232-.131.575-.255 1.033-.392.459-.131 1.063-.219 1.815-.254.756-.029 1.275-.14 1.558-.321.287-.182.695-.474 1.224-.878l1.376-1.033c.383-.286 1.562-1.218 3.544-2.801 1.98-1.58 3.371-2.749 4.178-3.504l1.507-1.437 1.018-.929 1.021-.944zM268.951 44.055l6.468-.399.101-5.212c0-.229-.035-.397-.111-.519-.07-.117-.251-.172-.534-.162l-5.081.221c-.404.021-.666.102-.787.253-.116.146-.172.379-.161.69l.105 5.128zm0 1.017l.046.826c.005.268-.046.509-.156.731-.116.221-.267.316-.464.287-.151-.01-.277-.105-.378-.287-.106-.182-.156-.425-.156-.731l-.146-7.148c-.01-.342.045-.665.177-.958.125-.296.347-.513.665-.649.312-.14.71-.222 1.195-.251l5.359-.299c1.133-.054 1.678.525 1.643 1.745l-.222 6.703c-.021.524-.076.877-.167 1.059-.086.182-.226.268-.418.264-.191-.006-.348-.086-.464-.242-.121-.156-.166-.358-.151-.606l.06-.871-6.423.427zm-5.731-16.936l.192-4.24c0-.166-.051-.297-.146-.383-.102-.091-.232-.132-.399-.12l-4.179.397c-.348.041-.504.272-.473.696l.221 4.148c.01.356.242.503.69.442l3.489-.397c.186-.021.332-.082.434-.188.105-.1.161-.22.171-.355zm-6.588 15.166v-9.48c0-.197.05-.379.151-.54.096-.166.277-.252.539-.268.258-.016.388.252.388.808v9.007l2.763-1.154v-11.786l-1.537.136c-.641.057-1.049-.054-1.23-.333-.181-.28-.272-.499-.272-.659l-.298-4.677c-.02-.229.016-.521.111-.884.096-.358.438-.564 1.044-.625l4.828-.443c.314-.02.565.016.751.102.187.09.343.246.474.474.125.227.186.428.176.604l-.252 4.492c-.02.297-.075.538-.161.735-.091.202-.237.372-.439.519s-.397.231-.594.253l-1.523.191v4.133l2.909-.337.841-.105c.257.1.389.291.394.579.005.283-.243.454-.731.515l-3.413.411.016 6.231 3.529-1.478c.514-.205.801-.18.862.076.065.257.04.448-.071.585-.116.132-.247.231-.407.302l-9.819 4.164c-.278.121-.485.156-.631.121-.141-.041-.237-.162-.292-.362-.055-.203-.035-.348.051-.429.091-.086.257-.182.504-.287l1.339-.591zm13.468-19.23l4.814-.46c1.073-.096 1.709.037 1.905.395.197.358.211.801.046 1.321-.157.462-.418 1.008-.777 1.638-.358.63-.791 1.316-1.29 2.051-.505.741-.816 1.189-.947 1.346l-.499.62-.222.339c1.487 1.27 2.591 2.127 3.317 2.565.721.439 1.533.888 2.435 1.34.901.46 1.548.757 1.936.887.388.137.665.309.827.524.161.217.176.414.049.585-.125.172-.296.268-.509.283-.211.01-.932-.268-2.162-.837s-2.369-1.194-3.413-1.875c-1.044-.681-2.142-1.552-3.291-2.616-.631.67-1.528 1.522-2.683 2.55-1.159 1.029-2.278 1.871-3.362 2.53l-1.194.696c-.453.286-.777.384-.968.298-.191-.091-.297-.231-.323-.429-.025-.202.167-.435.585-.711l1.532-1.003c.681-.454 1.427-1.014 2.238-1.679.812-.666 1.491-1.261 2.046-1.795l1.095-1.104.191-.197c-.091-.064-.222-.186-.398-.353-.182-.166-.47-.483-.868-.942-.397-.464-.715-.811-.952-1.049-.237-.237-.414-.483-.529-.74-.121-.258-.116-.464.015-.626.125-.166.323-.211.589-.15.268.066.564.344.903.827.333.489 1.024 1.194 2.067 2.123 1.003-1.281 1.845-2.482 2.525-3.605.681-1.125.973-1.779.876-1.967-.095-.186-.388-.256-.876-.221l-5.187.475-.13.257c-.031.064-.238.528-.621 1.396-.383.866-.841 1.704-1.381 2.51-.534.807-.897 1.315-1.078 1.522s-.374.333-.569.384c-.197.051-.354.02-.47-.087-.12-.109-.151-.297-.091-.563.031-.188.217-.479.555-.878.338-.397.877-1.284 1.608-2.665.736-1.376 1.261-2.481 1.573-3.318.317-.83.555-1.497.71-1.996l.429-1.467c.105-.372.271-.623.488-.75.217-.127.438-.096.67.105.232.196.157.781-.232 1.754l-.62 1.79-.382.972zM317.363 26.819l-7.516.62c-.514.051-.766-.117-.755-.505 0-.226.065-.362.186-.417.121-.057.313-.098.569-.127l8.076-.649c.403-.877.75-1.675 1.033-2.396l.711-1.89c.227-.601.378-1.049.449-1.341.074-.297.176-.519.302-.671.131-.156.312-.211.549-.182.237.035.39.156.46.365.064.204.025.528-.121.967l-.465 1.345c-.162.46-.635 1.685-1.426 3.686l13.307-1.078c.188-.01.338.028.459.114.117.092.178.252.182.489.006.236-.187.369-.58.398l-13.883 1.142c-.494.922-.831 1.546-1.018 1.863-.192.324-.534.862-1.038 1.618l9.334-.795c.983-.082 1.533.09 1.639.513.111.425.162.807.162 1.141l-.117 13.245c-.01.375-.035.858-.076 1.453-.034.601-.175 1.084-.412 1.462-.237.382-.711.351-1.432-.082-.217-.115-.509-.331-.887-.64-.373-.312-.691-.613-.959-.906l-.75-.842c-.162-.152-.307-.354-.439-.604-.13-.258-.079-.476.162-.647.242-.17.5-.176.776-.004l.298.308.649.696c.444.493.812.861 1.104 1.113.298.252.476.378.534.384.061.004.106-.243.147-.746l.061-.858.03-1.209.055-11.932c0-.323-.055-.544-.166-.654-.116-.117-.303-.162-.569-.141l-8.227.693c-.323.025-.529.086-.615.168-.081.084-.12.291-.12.63v2.182l7.131-.528c.178-.01.328.029.449.125.121.092.187.257.191.485.005.229-.191.362-.6.392l-7.172.575v3.281l7.323-.563c.187-.012.339.029.458.119.116.088.178.223.183.399.005.176-.04.297-.142.363-.096.06-.242.101-.443.11l-7.379.62v7.233c0 .229-.057.423-.156.591-.106.172-.269.235-.494.204-.197-.009-.344-.095-.43-.261-.09-.172-.137-.347-.137-.534v-15.136l-.16.19-.574.712c-.415.503-1.028 1.148-1.845 1.934-.816.788-1.522 1.428-2.112 1.927-.59.499-1.301 1.023-2.122 1.573-.822.554-1.326.841-1.518.867-.191.02-.358-.075-.499-.298-.137-.223-.142-.413-.01-.575.125-.166.463-.413 1.018-.757.55-.337 1.462-1.059 2.737-2.162s2.47-2.298 3.589-3.589c1.121-1.289 2.134-2.811 3.051-4.576"/><path d="M405.606 31.678c-.121-.165-.186-.317-.201-.442-.016-.126.029-.247.131-.364.104-.109.291-.166.553-.156.34.031.813.299 1.434.804l2.309 1.692c.871.66 1.889 1.513 3.055 2.55 1.158 1.039 1.812 1.71 1.965 2.006.146.305.176.54.086.716-.086.184-.258.268-.499.268-.142.011-.292-.035-.47-.141-.17-.102-.408-.303-.705-.604-.303-.297-.807-.767-1.518-1.396l-1.606-1.417c-.521-.433-1.401-1.113-2.638-2.045-1.235-.931-1.871-1.42-1.896-1.471m-.872-8.539l-11.831.61c-.353.016-.605-.004-.75-.076-.152-.07-.254-.186-.303-.347-.057-.162-.037-.332.055-.509.096-.178.242-.273.439-.283l21.871-.84.766-.041c.445.035.661.196.651.468-.01.278-.096.47-.257.579-.166.107-.662.172-1.488.193l-8.947.245c.273.111.443.219.5.318.061.106.086.212.08.327 0 .111-.09.374-.262.781-.172.408-.373.837-.604 1.285-.231.45-.813 1.393-1.739 2.829.72-.229 1.078-.01 1.078.649v16.776c0 .403-.041.71-.127.922-.08.211-.241.322-.477.334-.238.01-.41-.061-.525-.213-.111-.156-.172-.448-.172-.881v-17.233c-.222.348-.469.706-.736 1.074-.268.367-1.139 1.381-2.621 3.04-1.48 1.657-3.02 3.139-4.616 4.439-1.593 1.296-2.562 2.072-2.909 2.323-.343.252-.6.385-.775.4-.172.014-.314-.025-.424-.117-.116-.096-.171-.227-.171-.394 0-.166.029-.293.084-.383.062-.092.394-.327.998-.715.606-.389 1.554-1.176 2.839-2.35 1.285-1.176 2.465-2.334 3.545-3.469 1.078-1.139 1.879-2.051 2.403-2.731.528-.686 1.023-1.366 1.487-2.041.463-.671.871-1.316 1.225-1.926.354-.61.66-1.225.916-1.841.254-.614.426-.947.5-.998l.297-.204zM426.884 44.215v-15.284c0-.629.207-.932.618-.902.143.021.272.102.394.248.121.14.188.358.188.654v15.255l6.467-.117v-24.1c0-.197.045-.368.141-.503.092-.137.219-.223.375-.258.159-.035.311.014.467.15.152.143.227.343.227.61v11.474l7.309-.283c.178 0 .328.051.455.141.121.096.182.223.182.378-.01.344-.232.52-.666.53l-7.279.283v11.548l9.896-.324c.287 0 .493.061.619.191.125.127.186.264.176.415-.029.291-.235.448-.619.452l-24.412.651c-.578.02-.857-.165-.826-.56.01-.216.096-.349.262-.397.161-.051.361-.082.609-.092l5.417-.16zM460.202 32.873c.271.061.402.258.383.591-.02.205-.282.644-.791 1.314-.505.671-.912 1.186-1.211 1.542-.303.362-.654.737-1.062 1.125-.407.388-.928.82-1.558 1.301-.63.474-1.078.797-1.345.967-.264.167-.506.237-.723.218-.216-.016-.361-.12-.438-.313-.07-.197.041-.448.333-.761.165-.181.634-.519 1.396-1.029.761-.509 1.594-1.269 2.49-2.287.893-1.02 1.447-1.694 1.659-2.021.21-.333.372-.524.474-.585.106-.062.233-.081.393-.062m4.486 6.826c-.261.086-.468.061-.618-.082-.148-.146-.223-.341-.223-.599v-7.4159999999999995l.283-.412-10.5.679c-.58.041-.938.041-1.068 0-.137-.039-.232-.16-.299-.366-.064-.207-.016-.394.143-.565.074-.086.196-.15.353-.191l.741-.045 5.035-.308v-6.635c0-.56.023-.916.07-1.068.051-.15.201-.242.453-.268.247-.023.424.051.514.217.096.168.143.524.143 1.08v6.598l4.193-.262v-9.97c0-.562.025-.919.074-1.068.047-.158.203-.244.455-.268.257-.027.434.039.529.195.09.161.137.524.137 1.094v4.653l6.719-.429c.595-.031.977-.025 1.16.016.182.039.303.195.356.464.051.271-.085.474-.423.599l-.636.031-7.177.474v4.134l9.32-.575c.588-.029.973-.025 1.153.016.177.035.292.187.343.448.055.261 0 .429-.166.505-.171.07-.463.115-.887.135l-10.118.635c.126.143.212.248.253.318.041.076.061.388.061.938v6.482c0 .172-.016.283-.047.344l-.121.292c1.064-.807 1.852-1.452 2.359-1.932.506-.483 1.176-1.189 2.018-2.121.837-.929 1.387-1.574 1.658-1.927.272-.353.529-.579.775-.671.248-.096.436-.09.571.016.131.102.181.299.15.581-.035.297-.317.761-.833 1.396-.518.633-.961 1.158-1.345 1.571-.378.413-1.698 1.71-3.962 3.878-2.268 2.172-4.744 3.755-7.43 4.747-2.688.992-4.381 1.603-5.071 1.815-.696.216-1.329.442-1.917.674-.578.232-.916.172-1.006-.171-.096-.342-.057-.614.125-.812.096-.111.223-.187.375-.235.155-.051.568-.168 1.239-.355.675-.185 1.688-.548 3.034-1.088 1.351-.534 2.68-1.129 3.996-1.783 1.319-.656 3.003-1.79 5.059-3.403zM359.249 18.723c-.055-.062-.094-.156-.102-.28-.008-.117.133-.201.42-.25.094 0 .21.031.343.08.14.053.428.146.87.279.436.124 1.198.505 2.287 1.151 1.089.638 1.61 1.549 1.564 2.729-.031.653-.266 1.174-.701 1.549-.428.38-.926.575-1.484.582-.568.008-1.02-.147-1.369-.466-.334-.272-.545-.646-.615-1.121l.062-1.865c-.023-.305-.117-.64-.271-1.004-.148-.367-.382-.724-.686-1.066l-.318-.318zm-9.318.132c-.031-.047-.023-.109.024-.203.046-.094.116-.147.202-.163.365-.016 1.361.319 2.986 1.004s2.442 1.696 2.442 3.031c-.016.367-.172.812-.46 1.332-.287.528-.832.777-1.641.762-.771 0-1.268-.202-1.494-.599-.216-.405-.349-.738-.396-.996l-.139-1.407c-.133-.957-.537-1.782-1.207-2.467l-.317-.294zm20.852-6.564l1.228-.614.568-.366.07.016s.335.272.91.785l2.467 2.303c.605.575.893.924.862 1.049-.047.164-.233.258-.567.273l-1.027.086-3.166.304-6.951.745c-3.922.413-7.577.691-10.977.848-3.391.148-5.436.25-6.127.296-.693.047-1.16.07-1.401.07l-.708.016c-.193.016-.35 0-.451-.062-.107-.062-.162-.155-.17-.288s.156-.227.488-.288l.888-.131 1.866-.297 4.808-.684c1.019-.156 3.149-.56 6.393-1.229s5.81-1.27 7.692-1.79c1.882-.529 2.986-.872 3.305-1.042zm-2.348 25.798h-8.883c.678 1.184 1.338 2.17 1.968 2.963.63.786 1.524 1.657 2.676 2.6 1.991-2.327 3.407-4.179 4.239-5.563zm-11.893-11.914l.227.06 4.354 1.618c.273.109.46.211.568.312.109.102.164.172.172.217.008.048-.023.108-.094.202s-.141.164-.218.211l-1.407.84-.709 2.092h15.314l1.75-2.045c.351-.397.576-.599.678-.606.093-.008.451.24 1.059.739l2.457 2.053c.411.349.613.599.613.755-.016.21-.171.317-.475.317h-.8v.047h-21.077l-1.572 3.874h11.395l1.252-1.595c.155-.203.273-.305.365-.311.094-.008.39.162.887.514l2.988 2.139c.17.14.278.239.334.31.046.07.069.156.062.266-.009.101-.18.233-.514.382l-1.136.505c-2.232 2.667-3.446 4.105-3.647 4.309l-2.045 2.115c2.199.941 4.324 1.688 6.377 2.248 2.053.552 4.262.771 6.627.646l.955-.047c.25 0 .374.109.39.335.016.217-.086.373-.319.466l-.84.367c-.56.239-1.073.591-1.532 1.041-.451.458-.817.988-1.089 1.587s-.489.887-.638.855c-.062 0-.179-.038-.357-.116-.171-.078-.677-.211-1.509-.414-.841-.192-1.812-.497-2.933-.908-1.112-.405-2.24-.863-3.367-1.353-1.136-.5-2.676-1.379-4.62-2.654-2.932 1.712-5.779 2.995-8.555 3.835-2.77.849-5.025 1.377-6.752 1.587l-1.051.131c-.318.049-.465-.053-.434-.317l.092-.18c.062-.092.133-.154.225-.18l.825-.208c1.308-.32 3.173-.996 5.601-2.037 2.434-1.043 5.047-2.631 7.84-4.777-.879-1.104-1.602-2.186-2.178-3.242-.568-1.059-1.105-2.411-1.602-4.068h-1.734c-2.326 3.951-4.814 6.931-7.475 8.952-2.66 2.022-4.597 3.375-5.811 4.06l-.793.452c-.265.154-.451.225-.576.217-.117-.008-.194-.031-.217-.076l-.031-.141v-.156s.101-.179.295-.341l.802-.663c1.423-1.174 3.056-2.737 4.899-4.704 1.836-1.968 3.306-4.179 4.418-6.635 1.112-2.451 1.93-4.473 2.457-6.067h-10.663c-.366 0-.56-.211-.591-.63s.172-.63.591-.63h11.028l.312-1.274c.156-.653.327-1.471.515-2.459l.178-1.025.211-.793h-8.797l.055.356.008.39v.411c-.023.685-.288 1.416-.771 2.186-.49.778-1.175 1.16-2.054 1.143-.971 0-1.555-.278-1.75-.83-.201-.554-.303-.949-.311-1.176-.008-.225.07-.489.241-.778.101-.208.226-.38.366-.513.131-.124.551-.474 1.259-1.035.708-.56 1.081-1.345 1.12-2.347.039-1.005.146-1.502.326-1.502.304.016.716.833 1.229 2.457h21.101c.553-1.71.996-3.079 1.338-4.099s.584-1.828.738-2.435l.272-1.166c.062-.305.141-.474.227-.513.093-.039.318.023.661.17l3.787 1.805c.18.086.303.172.365.248.055.078.094.179.102.304.008.133-.179.25-.56.359l-1.183.364c-.318.382-1.68 2.029-4.084 4.962h5.539l1.166-1.548c.21-.287.404-.436.591-.443.179-.008.544.195 1.089.606l2.715 2.115c.652.523.973.942.957 1.277-.031.349-.203.552-.521.614-.319.061-1.004.109-2.046.141-1.034.031-1.89.185-2.56.474-.668.296-1.205.724-1.617 1.299l-.412.574c-.194.258-.381.367-.545.344-.171-.016-.256-.109-.264-.266-.008-.163.023-.31.078-.442l.342-.887.506-1.393.226-.614.226-.613h-18.907z"/></g></svg>