<?xml version="1.0" encoding="utf-8"?>
<!-- Generator: Adobe Illustrator 17.0.0, SVG Export Plug-In . SVG Version: 6.00 Build 0)  -->
<!DOCTYPE svg PUBLIC "-//W3C//DTD SVG 1.1//EN" "http://www.w3.org/Graphics/SVG/1.1/DTD/svg11.dtd">
<svg version="1.1" id="Layer_1" xmlns="http://www.w3.org/2000/svg" xmlns:xlink="http://www.w3.org/1999/xlink" x="0px" y="0px"
	 width="640px" height="100px" viewBox="0 0 640 100" style="enable-background:new 0 0 640 100;" xml:space="preserve">
<style type="text/css">
	.st0{fill:#58595B;}
	.st1{fill:none;}
</style>
<g id="page-3-text-5.svg">
	<g>
		<g>
			<path class="st0" d="M249.5,50.7c0.7-0.2,1.4-0.5,2-0.6l-0.1-0.5c0,0,0-0.1,0-0.3c0-0.2,0-0.3,0-0.4c0-0.1,0-0.2,0.1-0.5
				l-0.9,0.4c-0.1,0-0.2,0.1-0.4,0.2c-0.2,0.1-0.5,0.2-0.8,0.3v-2.7h0.9c0.3,0,0.7,0,1.1,0.1c-0.1-0.3-0.1-0.5-0.1-0.6
				c0-0.1,0-0.2,0-0.3c0-0.1,0-0.2,0.1-0.4c-0.4,0.1-0.8,0.1-1.1,0.1h-0.9v-1.2c0-0.3,0-0.6,0-0.9c0-0.3,0.1-0.7,0.1-1.2
				c-0.4,0-0.7,0.1-0.8,0.1c-0.1,0-0.4,0-0.9-0.1l0.1,1.1c0,0.3,0,0.6,0,1v1.2h-1.1c-0.3,0-0.7,0-1.3-0.1c0.1,0.3,0.1,0.6,0.1,0.6
				c0,0.1,0,0.2,0,0.3c0,0.1,0,0.3-0.1,0.4c0.5-0.1,0.9-0.1,1.3-0.1l1.1,0v3.1L247,50c-0.4,0.1-1,0.2-1.7,0.3c0.1,0.4,0.2,0.8,0.2,1
				c0,0.2,0.1,0.5,0.1,0.8L246,52c0.7-0.3,1.3-0.5,1.9-0.8v3.7c0,0.4-0.1,0.7-0.2,0.8c-0.2,0.1-0.4,0.2-0.6,0.2c-0.3,0-0.6,0-1-0.1
				c0.2,0.4,0.3,0.7,0.4,0.9c0.1,0.2,0.1,0.5,0.2,1c1.5-0.2,2.4-0.4,2.6-0.7c0.2-0.3,0.3-0.8,0.3-1.4V50.7z M268.5,45.4l-0.7,0
				c-0.3,0-0.5,0-0.5,0h-0.6v-1.8c0-0.2,0-0.4,0-0.7c0-0.3,0-0.7,0.1-1.1c-0.4,0.1-1,0.1-1.5,0l0.1,1.1c0,0.2,0,0.4,0,0.8v1.8h-0.8
				c0,0-0.5,0-1.3-0.1l0.1,0.6v0.3c0,0.2,0,0.3,0,0.4c0,0.1,0,0.2,0,0.4c0.7-0.1,1.1-0.1,1.3-0.1h0.9v3.4c-0.6,0.3-1.2,0.5-1.8,0.7
				l-0.5,0.1l0.3,0.9c0,0.1,0.1,0.4,0.2,1l0.4-0.3c0.2-0.2,0.7-0.4,1.4-0.9v4c0,0.4-0.2,0.5-0.7,0.5c-0.6,0-1,0-1.2-0.1
				c0.4,0.6,0.6,0.9,0.6,1.1c0,0.2,0.1,0.5,0.1,0.7c1.2-0.2,1.9-0.4,2.1-0.6c0.2-0.2,0.3-0.4,0.4-0.6c0-0.2,0.1-0.5,0.1-1v-4.8
				c0.5-0.3,1-0.5,1.3-0.8l0.4-0.2c-0.1-0.5-0.2-0.9-0.2-1c0-0.2,0-0.4,0-0.6l-0.3,0.2c-0.2,0.1-0.6,0.4-1.2,0.8v-2.7h0.6
				c0.2,0,0.6,0,1.2,0.1c-0.1-0.4-0.1-0.7-0.1-0.8c0-0.1,0-0.2,0-0.3C268.5,45.8,268.5,45.7,268.5,45.4z M261.9,48.7
				c-0.7,0.1-1.2,0.1-1.6,0.1h-2.5l0-1.8l1.7,0c0.5,0,1,0,1.6,0.1l-0.1-0.7c0-0.1,0-0.3,0-0.7v-1.8c0-0.2,0-0.4,0-0.6
				c0-0.2,0-0.4,0.1-0.8c-0.4,0.1-1,0.1-1.6,0.1h-6c-0.5,0-1,0-1.7-0.1l0.1,2.3v2.9c0,0.4,0,0.9-0.1,1.6c0,0.7-0.1,1.6-0.2,2.7
				c-0.1,1.1-0.4,2.1-0.9,3c-0.5,0.9-0.9,1.5-1.1,1.8l-0.4,0.4c0.5,0.1,0.8,0.1,1,0.2c0.2,0.1,0.4,0.2,0.7,0.4l0.2-0.4
				c0.5-0.9,0.8-1.6,1.1-2.2c0.2-0.6,0.4-1.2,0.6-1.9c0.1-0.7,0.3-1.7,0.4-3h2.8l0,1.7h-1c-0.5,0-1,0-1.6-0.1l0,0.7
				c0,0.3,0,0.6,0,0.6v3c0,0.2,0,0.5,0,0.8c0,0.3,0,0.6-0.1,1.1c0.3,0,0.7-0.1,0.9-0.1c0.3,0,0.5,0,0.8,0.1c0-0.2-0.1-0.4-0.1-0.6
				v-0.6h4v0.4c0,0.1,0,0.3,0,0.6c0.6,0,1,0,1.1,0c0.1,0,0.3,0,0.6,0l-0.1-0.9c0-0.3,0-0.5,0-0.8v-3c0-0.2,0-0.3,0-0.6
				c0-0.2,0-0.5,0.1-0.8c-0.6,0.1-1.1,0.1-1.6,0.1h-1.6l0.1-1.7h2.5c0.4,0,1,0,1.6,0.1c-0.1-0.4-0.1-0.7-0.1-0.8c0-0.1,0-0.2,0-0.3
				C261.9,49.2,261.9,49,261.9,48.7z M253.4,48.8v-1.8h2.8l0,1.8H253.4z M259.3,53.2v2.5h-4v-2.5H259.3z M253.4,45.7V44h6v1.6H253.4
				z M242.6,55.5c-0.5-0.3-0.9-0.7-1.3-1.1c0.5-1,0.8-1.9,1-2.7c0.2-0.8,0.3-1.6,0.4-2.3c0.1-0.7,0.2-1.7,0.3-2.9l0.2,0l0.5,0
				c0.1,0,0.3,0,0.6,0.1c-0.1-0.4-0.1-0.7-0.1-0.8c0-0.1,0-0.2,0-0.3c0-0.1,0-0.3,0.1-0.5c-1,0.1-1.6,0.1-1.6,0.1h-2.8l0.4-1.4
				l0.2-0.7l0.2-0.5c-0.7-0.1-1.3-0.3-1.9-0.5l-0.1,0.7c-0.1,0.7-0.2,1.4-0.4,2.3c-0.2,0.8-0.4,1.6-0.6,2.2c-0.2,0.6-0.4,1-0.6,1.3
				l-0.3,0.5l-0.3,0.4c0.5,0.2,0.9,0.5,1.2,0.9l0.1-0.2c0.3-0.6,0.4-0.9,0.4-0.9c0.2,1.1,0.3,2,0.4,2.5c0.1,0.6,0.3,1.1,0.4,1.5
				c0.2,0.4,0.3,0.7,0.5,1.1c-0.8,0.8-1.6,1.4-2.4,1.7c-0.8,0.4-1.4,0.6-1.7,0.6l-0.3,0.1c0.6,0.5,1,0.8,1,1
				c0.1,0.2,0.2,0.3,0.2,0.4l0.3-0.2c0.8-0.4,1.5-0.8,2-1.1c0.5-0.3,1.1-0.8,1.8-1.4c0.5,0.6,0.9,1,1.2,1.2c0.3,0.2,0.7,0.5,1.4,1
				l0.3,0.2c0.1-0.3,0.3-0.6,0.4-0.9c0.1-0.3,0.4-0.5,0.7-0.7l-0.5-0.2C243.6,56.1,243.1,55.8,242.6,55.5z M241,51.2
				c-0.1,0.7-0.3,1.3-0.5,1.9l-0.3-0.9c-0.1-0.2-0.2-0.6-0.3-1.2c-0.1-0.6-0.1-1-0.2-1.3c0-0.3,0-0.7,0-1.1c-0.4,0-0.7,0-1.1,0
				l0.8-2.1h2l0,0.7c0,0.4,0,1-0.1,1.8C241.2,49.8,241.1,50.6,241,51.2z M229.9,48.2c-0.4,0.3-0.8,0.6-1.3,0.9l-0.6,0.3
				c0.5,0.3,0.8,0.6,0.9,0.7c0.1,0.1,0.2,0.3,0.3,0.4l0.3-0.3c1-0.8,1.9-1.8,2.8-2.9v1.1c0,0.2,0,0.6-0.1,1.3c0.5,0,0.7-0.1,0.8-0.1
				c0.1,0,0.3,0,0.7,0.1l-0.1-0.7c0-0.3-0.1-0.5-0.1-0.6v-1.4h2.1c0.3,0,0.8,0,1.4,0.1c-0.1-0.4-0.1-0.6-0.1-0.7c0-0.1,0-0.2,0-0.3
				c0-0.1,0-0.3,0.1-0.5l-0.7,0l-0.7,0.1h-2.1v-2.1c0-0.2,0-0.5,0-0.8c0-0.3,0.1-0.6,0.1-1c-0.6,0.1-1.1,0.1-1.6,0l0.1,0.9
				c0,0.3,0,0.6,0,0.9v2.1h-2.1c-0.1,0-0.7,0-1.6-0.1c0,0.4,0.1,0.7,0.1,0.8c0,0.1,0,0.1,0,0.2c0,0.1,0,0.2-0.1,0.4
				c0.8-0.1,1.3-0.1,1.5-0.1h1.1C230.7,47.4,230.3,47.9,229.9,48.2z M236.6,43.2c-0.4-0.1-0.9-0.3-1.3-0.5l-0.2,0.6
				c-0.2,0.5-0.4,1-0.6,1.5l-0.2,0.3c0.4,0.1,0.8,0.2,1.2,0.3C235.9,44.7,236.2,43.9,236.6,43.2z M235.7,56.5c0.3-0.5,0.7-0.9,1-1.3
				l-1.6-0.6c0.6-1.1,1.1-2.3,1.5-3.7L235,51h-2.1l0.4-0.9c-0.5-0.1-1-0.3-1.5-0.5l-0.1,0.3l-0.2,0.7c0,0.1-0.1,0.3-0.2,0.4h-1.3
				c-0.3,0-0.9,0-1.7-0.1c0,0.5,0.1,0.7,0.1,0.8c0,0.1,0,0.2,0,0.3c0,0.1,0,0.3-0.1,0.5c0.6-0.1,1.1-0.1,1.4-0.1h0.9l-0.3,0.6
				c0,0-0.3,0.5-0.8,1.4l0.7,0.2l1.2,0.2c0.3,0.1,0.7,0.2,1.2,0.3c-0.7,0.4-1.5,0.7-2.2,0.9c-0.8,0.2-1.4,0.2-1.9,0.2l-0.7-0.1
				c0.4,0.4,0.7,0.7,0.8,0.9c0.1,0.2,0.3,0.5,0.5,0.9l0.2,0c0.1,0,0.6-0.1,1.3-0.4c0.7-0.2,1.3-0.4,1.8-0.7c0.5-0.2,1-0.6,1.7-1.1
				c0.4,0.2,0.8,0.4,1.2,0.7L235.7,56.5z M233.7,54.2l-2.1-0.6l0.7-1.2h2.2C234.3,53,234.1,53.6,233.7,54.2z M230,44.5l0.2,0.7
				c0.4-0.1,0.9-0.2,1.4-0.3l-0.9-2.3c-0.5,0.1-1,0.2-1.5,0.3l0.2,0.4C229.7,43.9,229.9,44.3,230,44.5z M198.5,52.9l1-0.9
				c-0.3-0.3-0.5-0.6-0.6-0.8c-0.1-0.2-0.2-0.5-0.4-0.8c-0.7,1-1.4,1.9-2,2.5l-0.8,0.8l0.1-8.3c0-0.5,0-0.9,0-1.1
				c0-0.3,0-0.6,0.1-1.1l-0.6,0l-0.3,0c0,0-0.1,0-0.3,0c-0.1,0-0.3,0-0.6,0l0.1,1c0,0.5,0,0.8,0,1c0,0.1,0,0.2,0,0.2l-0.1,7.7
				c0,0.8,0,1.3-0.1,1.4c-0.1,0.2-0.1,0.3-0.2,0.4c-0.1,0.1-0.2,0.2-0.4,0.4c0.5,0.5,0.8,0.9,1,1c0.1,0.2,0.3,0.4,0.4,0.7l0.5-0.7
				c0.3-0.4,0.6-0.8,1-1.2l1-1.2C198,53.5,198.3,53.1,198.5,52.9z M205.9,49c0.1-0.9,0.2-1.6,0.3-2.1c0-0.4,0.1-1,0.2-1.7
				c0.1-0.7,0.1-1.2,0.2-1.5l0.1-0.9c-0.6,0-1.3-0.1-2-0.4l0,1.9c0,0.1,0,0.4,0,0.9c0,0.5-0.1,1.2-0.1,2.1c-0.1,0.9-0.2,1.5-0.2,2
				c-0.1,0.4-0.2,0.9-0.3,1.3c-0.1,0.5-0.4,1.1-0.7,2.1c-0.3,0.9-1.2,1.7-2.5,2.4c-1.3,0.7-2.6,1.2-3.9,1.4l-0.4,0.1
				c0.5,0.4,0.9,0.6,1,0.8c0.2,0.2,0.3,0.5,0.6,0.9l0.4-0.2c1.9-0.9,3.2-1.6,3.8-2.1c0.7-0.6,1.3-1.2,1.9-2c1.3,1.2,2.1,2.1,2.5,2.7
				l0.5,0.7c0.4-0.5,0.9-0.9,1.5-1.4l-3.8-3.3C205.5,51.1,205.8,49.9,205.9,49z M226.4,55.4c-1.6,0.1-2.6,0.1-3,0.1h-4.8v-6.8h4
				c0.4,0,1.2,0,2.3,0.1c-0.1-0.4-0.1-0.7-0.1-0.8c0-0.1,0-0.2,0-0.4c0-0.1,0-0.3,0.1-0.6c-1.4,0.1-2.2,0.1-2.3,0.1h-4v-2.6
				c0-0.2,0-0.5,0-0.9c0-0.4,0-1,0.1-1.7c-0.5,0.1-0.8,0.1-0.9,0.1c-0.1,0-0.4,0-0.9-0.1l0.1,1.5c0,0.4,0,0.8,0,1.1v11h-4.3
				c-0.2,0-0.5,0-0.9,0c-0.4,0-0.9,0-1.5-0.1l0,0.6l0,0.3c0,0.1,0,0.2,0,0.3c0,0.1,0,0.4,0,0.6c1-0.1,1.8-0.1,2.4-0.1h10.7
				c0.8,0,1.8,0,3,0.1l0-0.6l0-0.2c0-0.1,0-0.2,0-0.4C226.4,55.9,226.4,55.6,226.4,55.4z M199.6,47c0.4,0.6,0.8,1,1,1.3l0.3,0.5
				c0.3-0.3,0.8-0.7,1.5-1.1l-3.3-3.7c-0.3,0.4-0.7,0.8-1.3,1.2l0.6,0.5C198.7,46,199.1,46.5,199.6,47z M233.9,48.1l0.8,0.8
				c0.1,0.1,0.4,0.5,0.9,1.1c0.3-0.3,0.6-0.7,1.1-1l-1.8-1.8C234.6,47.5,234.2,47.8,233.9,48.1z M275.9,47c0.2-0.4,0.5-0.7,0.7-0.9
				l0.5-0.5c-0.5-0.2-1-0.4-1.5-0.6l-0.2,0.6c-0.2,0.4-0.3,0.6-0.3,0.7c-0.1,0.1-0.2,0.3-0.4,0.7h-2.9c0.4-0.2,0.8-0.3,1.3-0.4
				l-0.6-1.6c-0.4,0.2-0.9,0.3-1.4,0.4l0.2,0.4c0.2,0.4,0.3,0.7,0.3,0.9l0,0.3h-0.9c-0.1,0-0.7,0-1.7-0.1l0,0.9c0,0.4,0,0.7,0,0.8
				V56c0,0.2,0,0.5,0,0.9c0,0.4,0,0.9,0,1.4c0.4,0,0.6-0.1,0.7-0.1c0.1,0,0.4,0,0.8,0.1l0-1.1c0-0.5,0-0.9,0-1.2v-7.8h2.7v1.3h-0.9
				c-0.3,0-0.8,0-1.2-0.1l0.1,0.5v0.2c0,0.2,0,0.3,0,0.3c0,0,0,0.1,0,0.3c0.4-0.1,0.9-0.1,1.3-0.1h0.8v1.4h-0.4
				c-0.1,0-0.5,0-1.3-0.1l0.1,0.7c0,0.1,0,0.3,0,0.7v1.1c0,0.4,0,0.6,0,0.8c0,0.2,0,0.4-0.1,0.7c0.5-0.1,1-0.1,1.3-0.1h1.8
				c0.4,0,0.9,0,1.4,0.1l-0.1-0.7c0-0.2,0-0.4,0-0.7v-1.2c0-0.1,0-0.3,0-0.5c0-0.2,0-0.5,0.1-0.8c-0.8,0.1-1.2,0.1-1.2,0.1h-0.5
				v-1.4h0.8c0.4,0,0.9,0,1.4,0.1c-0.1-0.3-0.1-0.5-0.1-0.6c0-0.1,0-0.2,0-0.3c0-0.1,0-0.3,0.1-0.5c-0.4,0-0.9,0.1-1.5,0.1l-0.7,0
				l0-1.4h2.8v7.6c0,0.3,0,0.5-0.1,0.6c-0.1,0.1-0.2,0.2-0.3,0.2c-0.3,0-0.8,0-1.8-0.1c0.4,0.5,0.6,0.9,0.7,1.1
				c0.1,0.2,0.1,0.5,0.1,0.8c0.6-0.1,1.2-0.2,1.6-0.3c0.4-0.1,0.8-0.3,1-0.5c0.2-0.3,0.3-0.8,0.3-1.7v-7.1c0-0.3,0-0.5,0-0.8
				c0-0.3,0-0.6,0.1-1c-0.7,0.1-1.3,0.1-1.7,0.1L275.9,47z M274.8,53.2l0,1.6h-1.9v-1.6H274.8z M190.5,49.3c0.3-0.1,0.5-0.3,0.6-0.4
				c0.1-0.1,0.1-0.2,0.1-0.4c0-0.1,0-0.2-0.1-0.3c-0.1-0.1-0.1-0.2-0.3-0.2c-0.1-0.1-0.3-0.1-0.4-0.1c-0.1,0-0.3,0-0.4,0.1
				c-0.1,0-0.3,0.2-0.5,0.4l-0.5,0.5c-0.2,0.2-0.6,0.6-1.1,1l0.2-0.9c0-0.1,0.1-0.4,0.2-0.9c0.1-0.5,0.2-0.8,0.2-0.9
				c0-0.2,0-0.4-0.1-0.6c-0.1-0.1-0.2-0.2-0.3-0.3c-0.1-0.1-0.2-0.1-0.3-0.1c-0.2,0-0.3,0-0.4,0.1c-0.1,0.1-0.2,0.2-0.3,0.3
				c-0.1,0.1-0.1,0.3-0.1,0.5c0,0.3,0.1,0.7,0.2,1.1c0.1,0.4,0.2,0.7,0.3,0.9c0,0.2,0.1,0.4,0.1,0.8l-0.8-0.7
				c-0.1,0-0.3-0.2-0.6-0.5c-0.3-0.3-0.5-0.5-0.7-0.6c-0.1-0.1-0.3-0.1-0.5-0.1c-0.1,0-0.2,0-0.3,0.1c-0.1,0-0.2,0.1-0.2,0.2
				c-0.1,0.1-0.1,0.2-0.1,0.3s0,0.3,0.1,0.4c0.1,0.1,0.2,0.2,0.3,0.4c0.2,0.1,0.5,0.2,0.9,0.3c0.5,0.1,1,0.2,1.7,0.4l-1.6,0.5
				c-0.5,0.2-0.8,0.3-1,0.3c-0.1,0.1-0.2,0.1-0.2,0.2c-0.2,0.2-0.3,0.4-0.2,0.6c0,0.2,0.1,0.4,0.2,0.4c0.1,0.1,0.3,0.1,0.4,0.1
				c0.1,0,0.2,0,0.4-0.1c0.1-0.1,0.3-0.1,0.4-0.2c0.1-0.1,0.3-0.3,0.6-0.5c0.2-0.2,0.4-0.4,0.6-0.6c0.2-0.1,0.4-0.4,0.7-0.7
				l-0.2,0.8c0,0.2-0.1,0.5-0.3,0.9c-0.1,0.4-0.2,0.6-0.2,0.7c0,0.2-0.1,0.4-0.1,0.6c0,0.2,0,0.4,0.1,0.5c0.1,0.1,0.2,0.2,0.3,0.3
				c0.1,0.1,0.3,0.1,0.4,0.1c0.1,0,0.3,0,0.4-0.1c0.1-0.1,0.2-0.2,0.2-0.3c0-0.1,0-0.3,0-0.5c0-0.2,0-0.5-0.1-0.7l-0.2-0.8
				c-0.1-0.3-0.1-0.7-0.2-1.2l0.9,0.8c0,0,0.1,0.1,0.3,0.4c0.2,0.2,0.4,0.4,0.5,0.5c0.1,0.1,0.3,0.2,0.5,0.2c0.2,0,0.4,0,0.5,0
				c0.1-0.1,0.2-0.2,0.3-0.4c0-0.2,0-0.3,0-0.4c-0.1-0.1-0.2-0.2-0.3-0.3c-0.1-0.1-0.3-0.2-0.4-0.2c-0.1-0.1-0.4-0.1-0.7-0.2
				c-0.3-0.1-0.6-0.2-0.8-0.2c-0.2-0.1-0.5-0.2-0.8-0.3l1.5-0.4C189.9,49.6,190.2,49.5,190.5,49.3z M420.3,51
				c-1.2,0.1-2,0.1-2.2,0.1l-1,0v-3.9h1.3c0.3,0,0.7,0,1.3,0.1l0-0.6v-0.3c0-0.2,0-0.3,0-0.3c0-0.1,0-0.2,0-0.4
				c-0.7,0.1-1.1,0.1-1.3,0.1h-1.3v-1.9c0-0.2,0-0.5,0-0.7c0-0.2,0-0.6,0.1-1.2c-0.4,0.1-0.7,0.1-0.9,0.1c-0.2,0-0.5,0-0.9-0.1
				l0.1,1.1c0,0.1,0,0.4,0,0.8v1.9h-2.7v-1.9c0-0.2,0-0.5,0-0.7c0-0.2,0-0.6,0.1-1.2l-0.5,0l-0.3,0c0,0-0.1,0-0.2,0
				c-0.1,0-0.3,0-0.5,0l0.1,1.1c0,0.1,0,0.4,0,0.8v1.9h-1.3c-0.2,0-0.6,0-1.3-0.1l0,0.5l0,0.3c0,0.3,0,0.6-0.1,0.8
				c0.7-0.1,1.1-0.1,1.3-0.1h1.3v3.9l-0.9,0c-0.3,0-0.9,0-2.1-0.1c0,0.5,0.1,0.7,0.1,0.8c0,0.1,0,0.4-0.1,0.9
				c0.9-0.1,1.6-0.1,2.1-0.1h7.5c0.5,0,1.2,0,2.2,0.1c-0.1-0.4-0.1-0.7-0.1-0.8c0-0.1,0-0.2,0-0.3C420.2,51.5,420.2,51.3,420.3,51z
				 M415.6,51.1h-2.7v-4h2.7V51.1z M415.2,54.2c1.3,1,2.3,2.1,3.1,3.3l0.3,0.5c0.4-0.4,0.9-0.8,1.4-1.2l-3.6-3.7
				C416.1,53.5,415.7,53.9,415.2,54.2z M399.7,55c-0.7-0.3-1.3-0.8-1.9-1.3c0.5-0.8,0.9-1.4,1.2-2c0.3-0.5,0.5-1,0.7-1.5
				c0.2-0.5,0.4-1.1,0.7-1.9c0.2-0.8,0.4-1.3,0.5-1.8l0.3-1.3l0.2-0.7c0-0.2,0.1-0.4,0.1-0.7c-1.6,0.1-2.4,0.2-2.5,0.2h-4.8
				c-0.3,0-1,0-2.1-0.1c0,0.4,0.1,0.7,0.1,0.8c0,0.1,0,0.2,0,0.4c0,0.1,0,0.3-0.1,0.5l0.8-0.1c0.1,0.9,0.2,1.8,0.4,2.8
				c0.2,1,0.4,1.7,0.6,2.2c0.2,0.5,0.4,1,0.7,1.6c0.3,0.6,0.6,1.2,1,1.8c-1.3,1.2-2.6,2-3.9,2.5l-0.9,0.3l-0.3,0.1
				c0.6,0.5,0.9,0.8,1,1c0.1,0.2,0.2,0.3,0.3,0.5l0.4-0.2c1.1-0.5,1.8-1,2.4-1.4c0.5-0.4,1.2-1,2.1-1.7c0.6,0.6,1.3,1.2,2.1,1.6
				c0.8,0.5,1.3,0.8,1.6,0.9c0.3,0.2,0.5,0.3,0.6,0.3l0.3,0.2c0.1-0.4,0.4-0.8,0.6-1.1c0.3-0.4,0.6-0.6,0.9-0.8l-0.4-0.1
				C401.3,55.6,400.4,55.4,399.7,55z M396.8,52.6c-0.9-1.4-1.5-2.7-1.7-3.9c-0.2-1.2-0.4-2.3-0.5-3.3h4.8c-0.1,0.8-0.3,1.5-0.4,2.1
				c-0.2,0.6-0.4,1.3-0.7,2.1C398,50.4,397.5,51.4,396.8,52.6z M407.9,55.5v-10c0.5-1,1-2,1.6-2.9c-0.6-0.2-1.2-0.4-1.9-0.7
				l-0.2,0.8c-0.1,0.3-0.2,0.7-0.5,1.4c-0.2,0.6-0.6,1.4-1,2.3c-0.5,0.9-0.8,1.4-1.1,1.7c-0.3,0.3-0.5,0.6-0.7,0.8l-0.4,0.4
				c0.5,0.4,0.8,0.8,0.9,1.1c0.1,0.3,0.2,0.4,0.3,0.4l0.2-0.3c0.2-0.3,0.6-1,1.3-2.2v7.4c0,0.4,0,0.8,0,1.2c0,0.4,0,0.9-0.1,1.6
				c0.5,0,0.8-0.1,0.9-0.1c0.1,0,0.4,0,0.9,0.1l-0.1-1.3C407.9,56.5,407.9,56,407.9,55.5z M411.8,53.8c-0.4,0.7-0.9,1.3-1.5,1.9
				c-0.6,0.6-1.2,1-1.6,1.3l-0.3,0.2c0.5,0.2,1.1,0.6,1.5,1l0.2-0.3c0.5-0.5,1.5-1.5,2.9-3.1l0.7-0.8c-0.6-0.3-1.1-0.6-1.6-0.9
				L411.8,53.8z M433.8,52.9c-0.6,0.8-1.5,1.5-2.7,2.2c-1.2,0.7-2.4,1.1-3.7,1.4c-1.3,0.3-2.5,0.4-3.5,0.4l-0.5,0
				c0.4,0.6,0.7,1,0.7,1.2c0.1,0.2,0.1,0.3,0.2,0.5l0.4-0.1c0.1,0,0.4-0.1,0.9-0.1c0.6-0.1,1.2-0.2,1.8-0.3c0.7-0.1,1.5-0.4,2.6-0.7
				c1-0.3,2-0.8,2.7-1.3c0.8-0.6,1.4-1.1,2-1.5l1-0.9c-0.6-0.4-1.1-0.7-1.5-1.1L433.8,52.9z M435.2,50.6c-0.8-0.3-1.5-0.9-2.1-1.8
				h0.5c0.6,0,1.9,0,3.9,0.1c0-0.4-0.1-0.7-0.1-0.7c0-0.1,0-0.2,0-0.3c0-0.1,0-0.3,0.1-0.5c-2,0.1-3.3,0.1-3.9,0.1h-5
				c0.3-0.5,0.5-1,0.8-1.5h4.5c0.2,0.2,0.4,0.5,0.7,0.8c0.5-0.5,0.9-0.8,1.3-1.1l-3.6-3.1c-0.4,0.4-0.8,0.7-1.2,1l0.5,0.3
				c0.4,0.3,0.8,0.6,1.2,1h-6.1c1.2-0.9,2-1.5,2.4-1.8l0.9-0.7c-0.5-0.3-1-0.6-1.5-1l-0.4,0.5c-0.2,0.3-0.5,0.6-1,1.1
				c-0.5,0.5-0.9,0.9-1.4,1.2c-0.5,0.3-1,0.5-1.6,0.5c0.2,0.5,0.3,0.8,0.3,1c0,0.2,0.1,0.4,0.1,0.6c0.8-0.2,1.6-0.2,2.3-0.2l1,0
				c-0.2,0.5-0.4,0.9-0.7,1.5h-1.1c-0.6,0-1.9,0-3.9-0.1c0,0.4,0.1,0.7,0.1,0.7c0,0.1,0,0.2,0,0.3c0,0.1,0,0.3,0,0.5
				c2-0.1,3.3-0.1,3.9-0.1h0.2c-0.6,0.7-1.2,1.2-1.7,1.6c-0.5,0.4-1.4,0.9-2.6,1.3l-0.3,0.1c0.5,0.4,0.9,0.6,1,0.8
				c0.1,0.2,0.2,0.3,0.3,0.5l0.4-0.2c0.6-0.4,1.3-0.9,2.1-1.5c0.8-0.6,1.6-1.5,2.6-2.6h3.8c0.3,0.5,0.7,1,1.2,1.7
				c0.5,0.6,1.4,1.2,2.6,1.9l0.8,0.4l0.6,0.3l0.3-0.5c0.1-0.2,0.4-0.6,1-1.1l-0.3-0.1C436.9,51.2,436,50.9,435.2,50.6z M429.6,49.7
				c-0.3,0.4-0.9,0.9-1.7,1.4c-0.8,0.5-1.7,0.9-2.8,1.2l-0.6,0.2c0.4,0.4,0.6,0.7,0.7,0.8c0.1,0.2,0.2,0.3,0.3,0.5l0.4-0.2
				c1.5-0.7,2.5-1.2,3-1.5c0.5-0.3,1-0.7,1.4-1l1-0.7c-0.5-0.3-0.9-0.7-1.3-1.1L429.6,49.7z M452,48.5c0.6,0,1.8,0,3.6,0.1l0-0.5
				c0,0,0-0.1,0-0.3v-0.3c0-0.1,0-0.3,0-0.6c-1.8,0.1-3,0.1-3.6,0.1h-1.5c1.4-1.4,2.2-2.2,2.4-2.4l0.9-0.8c-0.7-0.5-1.2-0.9-1.5-1.3
				L452,43c-0.4,0.7-1,1.4-1.7,2.1v-0.6c0-0.1,0-0.4,0.1-0.7c-0.7,0.1-1.3,0.1-2,0.1h-1.2V43c0-0.3,0-0.5,0-0.7c0-0.2,0-0.4,0.1-0.7
				c-0.6,0.1-1.1,0.1-1.7,0l0,0.7c0,0.1,0,0.4,0,0.7v0.8h-2.4c-0.5,0-1.1,0-1.6-0.1l0.1,0.8c0,0.1,0,0.4-0.1,0.8
				c0.6-0.1,1.1-0.1,1.6-0.1h2.4v1.8h-2.3c-0.6,0-1.9,0-3.9-0.1l0,0.6c0,0.1,0,0.3,0,0.5c0,0.2,0,0.4,0,0.6c2-0.1,3.3-0.1,3.9-0.1
				h3.5c-0.9,0.7-1.6,1.2-2,1.5c-0.4,0.3-1.2,0.8-2.3,1.4c-1.1,0.6-2.2,1.1-3.2,1.5l-0.5,0.2l0.6,0.5c0.1,0.1,0.3,0.4,0.6,0.9
				l0.4-0.2c1-0.5,1.9-1.1,2.9-1.6c0.9-0.6,1.6-1,2-1.2h1.4l-0.2,0.4l-0.2,0.3c-0.2,0.3-0.4,0.5-0.5,0.6c-0.1,0.1-0.4,0.2-0.7,0.2
				c0.3,0.6,0.4,1,0.4,1.1c0,0.1,0.1,0.3,0.1,0.5c0.6-0.2,1.2-0.3,1.7-0.3h3.5c-0.2,0.9-0.3,1.4-0.4,1.5c0,0.1-0.1,0.3-0.3,0.5
				c-0.2,0.2-0.6,0.3-1.3,0.3c-0.7,0-1.5-0.1-2.3-0.2l0.7,1c0.1,0.2,0.3,0.5,0.4,1.1c2-0.2,3.2-0.4,3.5-0.7c0.4-0.3,0.7-0.8,0.8-1.4
				l0.5-2.1c0,0,0.1-0.4,0.3-1.2c-0.6,0.1-1.1,0.1-1.6,0.1h-3.9l1-1.7h3.6c0.7,0,1.4,0,2.1,0.1c-0.1-0.4-0.1-0.6-0.1-0.7
				c0-0.1,0-0.2,0-0.3c0-0.1,0-0.2,0.1-0.4c-0.7,0.1-1.4,0.1-2.1,0.1h-5l2.1-1.8H452z M447.2,47.1v-1.8h1.2c0.6,0,1.2,0,1.8,0.1
				c-0.7,0.7-1.3,1.3-1.8,1.7H447.2z M427.8,53.9c-0.5,0.2-1.1,0.4-1.6,0.5c-0.5,0.1-0.9,0.2-1.2,0.3l-0.4,0.1l0.4,0.5
				c0.1,0.1,0.2,0.4,0.5,0.9l0.5-0.2c2.5-0.8,4.4-1.7,5.5-2.5l1-0.8l1-0.8l-0.5-0.3c-0.1-0.1-0.4-0.3-0.8-0.8l-0.6,0.6
				c-0.5,0.5-1.1,0.9-1.8,1.4C429,53.3,428.4,53.7,427.8,53.9z M294.8,45.8c0-0.4,0-1,0.1-1.8c-0.8,0.1-1.7,0.1-2.6,0.1H288l0.3-0.7
				l0.4-0.9l0.3-0.6c-0.7-0.1-1.4-0.3-2-0.4l-0.2,0.7l-0.3,1.1c-0.1,0.2-0.1,0.4-0.3,0.8h-1.1c-0.7,0-1.5,0-2.3-0.1l0,1.7l0.1,1.7
				V55c0,0.2,0,0.6,0,1.2c0,0.6,0,1.2-0.1,1.9c0.4,0,1,0,1.8,0l0-0.5l0-0.5v-0.6h8.5v0.9c0,0.2,0,0.5-0.1,0.9c0.5,0,0.8-0.1,0.9-0.1
				c0.1,0,0.4,0,0.9,0.1l-0.1-1.5c0-0.2,0-0.7,0-1.5v-7.7C294.7,46.8,294.7,46.2,294.8,45.8z M293.1,55h-8.5v-2.4h8.5V55z
				 M293.1,51.2h-8.5v-2h8.5V51.2z M293.1,47.7h-8.5v-2.1h8.5V47.7z M307.9,52.6c0.5,0.8,1,1.6,1.6,2.5c-4.3,0.2-6.4,0.3-6.5,0.3
				c0.8-1.1,1.5-2,1.9-2.7l1.6-2.7l0.7-1.1l-0.8-0.2c-0.2,0-0.6-0.3-1.2-0.7l-0.6,1.4c-0.2,0.5-0.5,1.1-0.8,1.7
				c-0.3,0.6-0.7,1.3-1.2,2.1c-0.5,0.7-0.9,1.2-1.2,1.5c-0.3,0.3-0.7,0.5-1.2,0.7l0.4,1c0,0.1,0.1,0.5,0.2,1.1l1.4-0.2
				c0.6-0.1,1.4-0.2,2.4-0.3l2.4-0.2c1.1-0.1,1.8-0.1,2-0.1l1.2,0c0.2,0.4,0.5,0.9,0.7,1.5c0.5-0.4,1.1-0.7,1.8-0.9l-3.3-5.5
				C308.9,52.1,308.4,52.4,307.9,52.6z M390.3,55v-9.2c0.3-0.8,0.7-1.5,1.1-2.3l0.5-1c-0.7-0.3-1.2-0.5-1.7-0.8l-0.2,0.6l-0.3,1.1
				c-0.1,0.3-0.4,1-0.9,2.2c-0.5,1.2-1.2,2.4-2.2,3.5l-0.3,0.4c0.3,0.3,0.6,0.6,0.7,0.7c0.1,0.2,0.3,0.4,0.5,0.7l0.3-0.5
				c0-0.1,0.2-0.3,0.4-0.7c0.2-0.4,0.4-0.8,0.7-1.2V55c0,0.5,0,1,0,1.4c0,0.5,0,1-0.1,1.7c0.5-0.1,1.1-0.1,1.8,0l-0.1-1.6
				C390.4,55.7,390.3,55.2,390.3,55z M312,47.6c-0.7-0.7-1.2-1.4-1.6-2.1c-0.4-0.7-0.7-1.4-0.9-2.1l-0.5-1.2l-0.7,0.3
				c-0.1,0.1-0.5,0.1-1,0.2l0.5,1.3c0.4,1.1,0.9,2,1.3,2.8c0.5,0.8,0.9,1.3,1.2,1.7c0.3,0.4,1.1,1.1,2.2,2.2l0.5,0.6l0.6-0.6
				c0.1-0.1,0.5-0.4,1.3-0.9l-0.9-0.5C313.4,48.8,312.7,48.2,312,47.6z M304.6,44.1l0.6-1.2l-1.1-0.3c-0.1,0-0.4-0.1-0.8-0.4l-0.3,1
				c-0.2,0.6-0.5,1.3-1,2.2c-0.5,0.8-0.8,1.4-1,1.8c-0.2,0.4-0.5,0.8-1,1.3c-0.4,0.5-0.7,0.8-1,1.1c-0.2,0.2-0.6,0.5-1,0.8
				c0.6,0.2,1,0.3,1.2,0.4c0.2,0.1,0.5,0.3,0.8,0.6l0.9-1.2C302.3,48.4,303.5,46.4,304.6,44.1z M279.3,43.6
				c-0.8,0.1-1.5,0.1-1.9,0.1h-2.5l-0.5-1.9c-0.6,0.1-1.2,0.3-1.8,0.3c0.3,0.5,0.5,0.9,0.6,1c0.1,0.2,0.1,0.4,0.2,0.5h-2.7
				c-0.6,0-1.2,0-1.9-0.1c0,0.4,0.1,0.6,0.1,0.7c0,0.1,0,0.3-0.1,0.7c0.7-0.1,1.3-0.1,1.9-0.1h6.4c0.7,0,1.4,0,2.2,0.1
				c-0.1-0.3-0.1-0.6-0.1-0.6c0-0.1,0-0.2,0-0.3C279.2,44,279.2,43.8,279.3,43.6z M331.7,49.4c0-0.1,0-0.3,0.1-0.6
				c-1.2,0.1-2,0.1-2.3,0.1h-1.9v-4.5h1.2c0.1,0,0.4,0,0.8,0c0.4,0,0.8,0,1.3,0.1c-0.1-0.4-0.1-0.6-0.1-0.7c0-0.1,0-0.2,0-0.3
				c0-0.1,0-0.3,0.1-0.6c-0.7,0.1-1.4,0.1-2.1,0.1h-8.8c-0.7,0-1.5,0-2.2-0.1c0,0.5,0.1,0.7,0.1,0.8c0,0.1,0,0.2,0,0.3
				c0,0.1,0,0.3-0.1,0.5l1.1-0.1l1.1-0.1h0.8v4.5h-1.9c-0.4,0-1.1,0-2.4-0.1l0,0.6c0,0.1,0,0.2,0,0.5c0,0.2,0,0.4,0,0.7
				c0.9-0.1,1.7-0.1,2.3-0.1h1.9l0,1.1c0,0.3,0,0.7-0.1,1c0,0.4-0.1,0.8-0.3,1.2c-0.1,0.4-0.4,1-0.8,1.5c-0.4,0.6-1.2,1-2.5,1.4
				l-0.5,0.1c0.7,0.4,1.2,0.7,1.3,0.9c0.1,0.2,0.3,0.4,0.4,0.6l0.6-0.4c0.7-0.5,1.4-1,2-1.7c0.6-0.7,0.9-1.3,1-1.8
				c0.1-0.5,0.2-1,0.3-1.6l0.1-1.1c0-0.3,0-0.7,0.1-1.2h3.8v5.3c0,0.4,0,0.8,0,1.1c0,0.4,0,0.8-0.1,1.3c0.5,0,0.8-0.1,0.9-0.1
				c0.1,0,0.4,0,0.9,0.1l-0.1-1.2c0-0.5-0.1-0.9-0.1-1.2v-5.3h2.1c0.6,0,1.3,0,2.2,0.1l-0.1-0.5c0,0,0-0.1,0-0.3V49.4z M326,48.9
				h-3.7v-4.5h3.7V48.9z M371.4,56.1h1v0.3c0,0.1,0,0.2,0,0.4c0,0.1-0.1,0.2-0.2,0.3c-0.1,0.1-0.2,0.1-0.3,0.1c-0.1,0-0.3,0-0.4,0
				v0.7l0.4,0c0.3,0,0.5-0.1,0.7-0.1c0.2-0.1,0.4-0.2,0.5-0.3c0.1-0.1,0.3-0.3,0.3-0.5c0.1-0.2,0.1-0.5,0.1-0.8v-2h-2.1V56.1z
				 M365.6,52.2c-0.6-0.8-1-1.5-1.2-2.1c-0.2-0.6-0.4-1.1-0.6-1.7c-0.2-0.5-0.3-0.9-0.3-1.2c-0.1-0.3-0.1-0.5-0.1-0.8h1.9
				c0.4,0,1.1,0,2,0.1l-0.1-0.5c0,0,0-0.1,0-0.3v-0.3c0-0.1,0-0.3,0.1-0.6c-0.8,0.1-1.5,0.1-2,0.1H362V44c0-0.1,0-0.4,0-0.8
				c0-0.4,0-0.9,0.1-1.4c-0.4,0.1-0.7,0.1-0.9,0.1c-0.2,0-0.4,0-0.8-0.1l0.1,1.2c0,0.4,0,0.7,0,1.1V45h-3c-0.5,0-1.2,0-1.9-0.1
				l0.1,0.6c0,0,0,0.1,0,0.2c0,0.1,0,0.2,0,0.4c0,0.1,0,0.3,0,0.5c0.8-0.1,1.5-0.1,1.9-0.1h1.6c-0.3,0.9-0.5,1.7-0.7,2.4
				c-0.2,0.6-0.6,1.5-1.2,2.5c-0.6,1-1.2,1.8-1.9,2.4l-0.5,0.4v-8.7c0.7-1.4,1.1-2.2,1.3-2.5l0.3-0.6c-0.6-0.2-1.1-0.5-1.7-0.8
				l-0.2,0.6c-0.1,0.2-0.2,0.5-0.3,1.1c-0.2,0.5-0.3,1-0.4,1.2c-0.1,0.3-0.3,0.7-0.7,1.4c-0.3,0.7-0.7,1.2-1,1.6
				c-0.3,0.4-0.7,0.8-1.1,1.3l-0.2,0.2c0.4,0.4,0.6,0.6,0.8,0.8c0.1,0.2,0.2,0.4,0.4,0.6l0.2-0.2c0.4-0.6,0.9-1.4,1.4-2.3v7
				c0,0.5,0,1,0,1.5c0,0.5,0,1-0.1,1.7c0.5,0,0.8-0.1,0.9-0.1c0.1,0,0.3,0,0.7,0.1l-0.1-1.2c0-0.5-0.1-0.9-0.1-1.4v-1.1
				c0.5,0.2,0.9,0.5,1.2,0.8l0.3-0.3c0.4-0.4,0.8-1,1.1-1.5c0,0.4,0.1,0.6,0.1,0.7c0,0.1,0,0.2,0,0.3c0,0.1,0,0.3,0,0.4
				c1-0.1,1.5-0.1,1.5-0.1h1.4v1.5c0,0.3,0,0.6,0,0.9c0,0.3,0,0.7-0.1,1.1c0.5,0,0.8-0.1,0.9-0.1c0.1,0,0.4,0,0.8,0.1l0-1.1
				l-0.1-0.9v-1.5h1.3c0,0,0.5,0,1.4,0.1l-0.1-0.6c0,0,0-0.1,0-0.3c0-0.2,0-0.4,0-0.6c0.5,0.8,0.9,1.3,1.2,1.6l0.2,0.3
				c0.4-0.4,1-0.9,1.6-1.3l-0.3-0.2C366.8,53.6,366.2,53,365.6,52.2z M360.5,53.6l-1.5,0c-0.4,0-0.8,0-1.4-0.1
				c0.4-0.5,0.7-1.1,1-1.8c0.3-0.6,0.6-1.3,0.9-1.9c0.2-0.6,0.6-1.7,0.9-3.3l0.1,0V53.6z M363.3,53.5l-1.3,0v-7.1h0.1l0.2,1.1
				c0,0.3,0.1,0.7,0.3,1.4c0.2,0.6,0.4,1.3,0.6,2c0.2,0.7,0.7,1.5,1.4,2.5C364.1,53.5,363.7,53.5,363.3,53.5z M347.1,54.1
				c-0.4-0.5-0.8-1-1-1.5h1.4c0.6,0,1.3,0,2.1,0.1c0-0.4-0.1-0.7-0.1-0.7c0,0,0-0.1,0-0.2c0-0.1,0-0.2,0.1-0.4
				c-0.8,0-1.5,0.1-2.1,0.1h-2.7V50h1.2c0.5,0,1.1,0,1.8,0.1l-0.1-0.8c0-0.1,0-0.4,0-0.8v-3.6h0.5c0.4,0,0.9,0,1.4,0.1l-0.1-0.5
				c0,0,0-0.1,0-0.2c0-0.1,0-0.2,0-0.3c0-0.1,0-0.3,0-0.4c-0.5,0.1-1,0.1-1.5,0.1h-0.5V43c0-0.2,0-0.4,0-0.6c0-0.2,0-0.4,0.1-0.7
				c-0.5,0-0.7,0.1-0.8,0.1c-0.1,0-0.3,0-0.7-0.1l0.1,0.7c0,0.1,0,0.3,0,0.6v0.6h-3.8v-0.5c0-0.2,0-0.4,0-0.6c0-0.2,0-0.4,0.1-0.7
				c-0.5,0.1-1,0.1-1.5,0l0.1,0.7c0,0.1,0,0.3,0,0.6v0.5h-0.4c-0.4,0-0.9,0-1.4-0.1l0.1,0.5c0,0,0,0.1,0,0.2c0,0.1,0,0.2,0,0.3
				c0,0.1,0,0.2,0,0.4c0.5,0,1-0.1,1.3-0.1h0.4v3.6c0,0.4,0,0.6,0,0.8c0,0.2,0,0.5-0.1,0.8c0.6-0.1,1.2-0.1,1.7-0.1h0.8v1.4h-2
				c-0.5,0-1.1,0-1.9-0.1l0,0.4v0.5c0,0.1,0,0.3,0,0.5c0.7-0.1,1.3-0.1,2-0.1h0.8c-0.7,1.5-1.8,2.7-3.3,3.5l-0.6,0.3
				c0.3,0.2,0.5,0.3,0.6,0.4c0.1,0.1,0.3,0.4,0.6,0.7l0.5-0.4c0.7-0.6,1.4-1.2,1.9-1.9c0.5-0.7,0.8-1.2,1-1.4c0.1-0.3,0.3-0.6,0.4-1
				v2.9c0,0.3,0,0.7,0,1.1c0,0.4,0,0.9-0.1,1.4c0.5-0.1,0.9-0.1,1.4,0l-0.1-1.3c0-0.2,0-0.6,0-1.2v-3.1c0.5,1.2,1.1,2.1,1.6,2.7
				c0.6,0.6,1.1,1.1,1.7,1.5l0.5,0.4c0.2-0.3,0.4-0.6,0.5-0.7c0.1-0.1,0.4-0.3,0.8-0.6l-0.7-0.3C348.3,55,347.5,54.5,347.1,54.1z
				 M342.6,44.9h3.8v1.4h-3.8V44.9z M342.6,48.8v-1.4h3.8v1.4H342.6z M339.3,55.5c0.4-0.5,0.8-0.9,1.2-1.2l-2-1.3
				c0.3-0.7,0.5-1.3,0.6-1.9c0.1-0.5,0.2-1.2,0.3-2c0.1-0.8,0.2-1.9,0.3-3.3c-0.5,0.1-1,0.1-1.5,0.1h-1.2L337,45l0.1-1
				c0-0.2,0.1-0.5,0.2-1l0.2-0.9c-0.5,0-1-0.1-1.5-0.3l-0.1,1.2l-0.1,1.1c0,0.6-0.1,0.9-0.1,1.1c0,0.1,0,0.4-0.1,0.7h-0.5
				c-0.5,0-0.9,0-1.5-0.1l0.1,0.5c0,0,0,0.1,0,0.2c0,0.1,0,0.2,0,0.3c0,0.1,0,0.2,0,0.4c0.5-0.1,1-0.1,1.4-0.1h0.3l-0.5,2.9
				c-0.1,0.5-0.3,1.2-0.6,2.1c0.8,0.4,1.2,0.6,1.3,0.7l1,0.6l-0.4,0.7c-0.1,0.2-0.4,0.5-0.8,1c-0.5,0.5-1,0.9-1.6,1.3l-0.5,0.3
				l0.5,0.3l0.3,0.2c0.1,0.1,0.3,0.3,0.6,0.6l0.5-0.4c1-0.9,1.8-1.9,2.5-3.1c0.7,0.5,1,0.9,1.1,0.9L339.3,55.5z M338.1,48
				c0,0.5-0.1,0.9-0.1,1.4c-0.1,0.4-0.1,0.9-0.2,1.3c-0.1,0.4-0.2,0.7-0.2,0.9c-0.1,0.2-0.1,0.4-0.2,0.6l-1.3-0.8l0.8-4.3h1.4
				L338.1,48z"/>
		</g>
	</g>
	<rect x="0" class="st1" width="640" height="100"/>
</g>
<g>
</g>
<g>
</g>
<g>
</g>
<g>
</g>
<g>
</g>
<g>
</g>
<g>
</g>
<g>
</g>
<g>
</g>
<g>
</g>
<g>
</g>
<g>
</g>
<g>
</g>
<g>
</g>
<g>
</g>
</svg>
