<svg xmlns="http://www.w3.org/2000/svg" width="640" height="129.306" viewBox="0 0 640 129.306"><g fill="#AE7B28"><path d="M147.977 79.53h6.833c.053-.397.092-.768.123-1.113l.105-1.56.053-.536.018-.201h-6.572l-.56 3.41zm1.035-7.14l-.423 3.256h6.529l.131-3.256h-6.237zm7.353 7.14h.639l.507-.754c.16-.234.258-.363.297-.391.035-.025.178.061.417.26l1.041.885c.178.16.27.252.281.277l.02.059c-.012.088-.111.129-.301.129h-2.928c-.086.471-.176.84-.268 1.111-.092.272-.241.568-.45.887-.215.317-.483.547-.812.682-.334.139-.592.23-.772.279l-.386.107-.162.033c-.088-.006-.145-.035-.168-.084-.023-.051-.047-.15-.066-.301-.021-.148-.141-.325-.358-.531-.219-.209-.46-.359-.718-.453l-.444-.123-.405-.113-.096-.062-.021-.077.031-.072c.035-.045.109-.062.219-.051l.272.033c.479.064.916.096 1.314.09.458 0 .795-.082 1.018-.237.222-.158.382-.387.474-.686l.15-.432h-6.633l-.334.545-.196.303c-.016.01-.129-.068-.348-.23l-1.002-.73c-.147-.105-.222-.178-.21-.213l.051-.102.269-.189c.148-.096.252-.21.304-.339l.07-.271.062-.229.369-2.42h-3.036c-.137 0-.206-.082-.222-.239-.016-.155.058-.235.222-.235h3.158c.035-.439.107-1.031.215-1.781.109-.748.172-1.319.189-1.711l.026-.614v-.306l.057-.033.223.084 1.346.631h5.813l.333-.481.232-.302.259.129 1.254.736c.207.123.323.201.356.24l.055.102c.002.029-.057.078-.173.149l-.552.349-.193 2.809h.857l.581-.888c.123-.19.201-.29.238-.294.035-.002.18.098.429.294l1.08.888c.191.163.293.284.303.357.01.078-.115.117-.365.117h-3.166c-.031.332-.07.868-.113 1.609l-.074 1.188-.041.422-.018.19zm-5.776-6.728v-.105l.115-.062.245.062.555.211c.19.09.454.248.787.479.335.231.505.527.517.887.008.361-.08.625-.257.803-.18.176-.383.26-.61.254-.168 0-.314-.041-.435-.129-.119-.084-.203-.18-.248-.287-.049-.108-.072-.318-.076-.631-.002-.314-.041-.569-.113-.77-.074-.197-.163-.365-.276-.5l-.204-.212zm-.157 3.66l-.012-.066.091-.074c.035-.006.305.084.804.273.499.186.854.442 1.066.771.209.326.313.604.313.832-.006.141-.059.33-.167.57-.105.239-.336.358-.69.358-.277.006-.46-.072-.554-.229-.094-.162-.148-.322-.166-.48l-.027-.578c-.037-.41-.179-.781-.431-1.113l-.227-.264zm7.991-6.711h-10.298c-.059.074-.387.524-.982 1.344-.597.824-1.463 1.719-2.598 2.689l-.378.326c-.117.1-.191.133-.229.1l-.056-.1.056-.131.283-.378.394-.519c.301-.397.616-.885.961-1.465.342-.58.622-1.113.841-1.607.22-.49.429-.992.628-1.512.198-.518.323-.871.368-1.066l.09-.378.051-.286.053-.025c.025-.008.159.037.405.139l1.7.719c.159.068.237.135.237.191-.006.066-.055.111-.149.141l-.552.187c-.404.62-.661 1.007-.772 1.156h8.021l.542-.729.17-.272c.051-.092.107-.123.174-.088.062.029.202.131.419.302l1.082.868c.16.14.246.239.25.302.002.061-.141.094-.428.094h-.283zM170.667 49.084l-.104-.761 9.387-4.205v31.553c0 1.398.053 2.308.156 2.723.104.416.319.737.642.969.319.227.743.348 1.271.365l2.084.129v1.09h-13.133v-.994c.511-.035.934-.068 1.289-.121.362-.053.762-.139 1.212-.27.44-.129.788-.285 1.02-.483.244-.19.451-.476.624-.856.182-.381.268-1.16.268-2.319v-24.059c0-.779-.043-1.41-.139-1.912-.096-.494-.225-.849-.397-1.047-.166-.209-.528-.329-1.082-.354-.476-.018-.942.025-1.4.146l-1.698.406zM209.008 79.294c.728-.018 1.377-.163 1.938-.439.562-.279 1.115-.72 1.644-1.309.536-.587.961-1.254 1.28-1.988.328-.735.569-1.87.753-3.391.172-1.533.302-3.098.38-4.707s.104-3.357.088-5.242c-.035-2.033-.105-3.833-.199-5.416-.104-1.584-.226-2.812-.374-3.686-.146-.883-.378-1.852-.71-2.916-.327-1.063-.725-1.912-1.192-2.535-.459-.623-1.003-1.098-1.619-1.41-.611-.311-1.235-.476-1.859-.492-.761 0-1.47.182-2.117.536-.651.354-1.248.831-1.792 1.444-.536.605-.969 1.298-1.288 2.076-.32.779-.598 1.773-.823 2.977-.234 1.211-.38 2.396-.44 3.562-.07 1.17-.086 3.212-.051 6.137.016 2.904.066 5.041.164 6.426.085 1.376.292 2.76.611 4.154.332 1.393.745 2.604 1.273 3.625.519 1.02 1.15 1.721 1.886 2.094.735.37 1.547.535 2.447.5m-11.333-17.484c.018-1.341.139-2.803.354-4.404.225-1.59.528-2.957.919-4.1.388-1.141.889-2.24 1.505-3.312.612-1.064 1.349-2.017 2.195-2.863.84-.84 1.759-1.514 2.735-2.025.977-.51 2.17-.77 3.573-.787 1.029 0 1.972.156 2.827.468.849.319 1.671.778 2.459 1.401.785.613 1.538 1.383 2.257 2.318.718.926 1.314 1.92 1.8 2.984.476 1.064.866 2.405 1.158 4.023.304 1.609.485 3.191.562 4.75.078 1.555.078 3.148.012 4.791-.08 1.723-.234 3.202-.452 4.447-.225 1.236-.526 2.328-.917 3.252-.39.935-.908 1.896-1.575 2.883-.656.986-1.364 1.842-2.137 2.568-.768.727-1.669 1.357-2.69 1.887-1.02.535-2.188.787-3.501.752-.901-.018-1.81-.207-2.743-.571-.927-.362-1.774-.856-2.537-1.47-.76-.615-1.452-1.342-2.084-2.18-.64-.841-1.203-1.748-1.687-2.734-.493-.996-.891-2.199-1.201-3.625-.321-1.428-.538-2.881-.666-4.353-.123-1.47-.183-2.837-.166-4.1zM258.99 51.388l-1.007-1.055c-.095-.096-.167-.192-.214-.279-.049-.096-.066-.16-.049-.193 0-.104.088-.158.263-.158.543.048 2.203.91 4.983 2.579 2.772 1.678 4.122 3.657 4.04 5.935-.031.686-.262 1.325-.702 1.908-.431.582-1.014.869-1.747.854-.607 0-1.119-.225-1.536-.654-.413-.439-.702-1.021-.877-1.758l-.423-2.107c-.184-.695-.432-1.35-.735-1.94-.304-.592-.655-1.198-1.053-1.813-.399-.616-.712-1.056-.943-1.319m-2.882-7.045v16.756l.191 5.117c-.08.328-.199.607-.367.831-.16.224-.521.415-1.08.575-.55.152-1.094.24-1.62.248-.536.008-.887-.08-1.07-.264-.175-.176-.312-.399-.407-.662l.278-6.9v-11.277l-.183-6.955c.145-.039.503 0 1.104.144l3.977.96c.277.079.422.19.43.342.01.145-.135.32-.43.527l-.823.558zm-6.781 7.459c-1.078 2.389-2.125 4.561-3.139 6.517s-1.806 3.371-2.363 4.226l-.91 1.38c-.176.265-.319.392-.446.384-.121-.008-.193-.064-.201-.184-.008-.121.018-.231.064-.343l.632-1.821c.184-.543.446-1.485.789-2.811.344-1.326.655-2.748.935-4.281.288-1.524.464-2.587.544-3.178l.255-1.988.047-1.006c.098-.048.399.031.913.23l3.977 1.686c.158.08.293.192.422.336.128.152-.016.295-.422.439l-1.097.414zm15.205 14.231c-3.242 3.474-5.741 5.909-7.49 7.308-1.741 1.397-3.778 2.762-6.101 4.096s-6.022 2.596-11.093 3.776l-1.685.399c-.098.033-.199.041-.312.033-.12-.008-.222-.025-.319-.057-.096-.031-.137-.072-.127-.129.008-.054.047-.126.119-.214.064-.079.176-.159.312-.216l1.708-.68c1.455-.566 3.093-1.253 4.929-2.061 1.829-.814 3.751-2.004 5.773-3.569 2.021-1.563 3.843-3.232 5.461-4.991 1.622-1.764 3.068-3.608 4.33-5.525l1.196-1.82.424-.751.064-.057s.208.137.567.433l3.601 3.064c.264.232.407.393.415.488v.168l-.016.152c-.016.046-.222.087-.616.103l-1.14.05zm-31.863-13.224v-6.669c-2.892.256-4.776.383-5.662.4l-1.622.047c-.119.016-.229-.008-.327-.08-.086-.071-.129-.15-.111-.247 0-.144.104-.231.302-.28l1.966-.422c3.211-.688 6.404-1.75 9.566-3.178l1.757-.799.536-.352c.143-.064.366.039.679.304l3.585 3.345c.23.232.359.384.393.447.03.064.046.129.038.209-.008.078-.149.119-.431.119l-2.203.096c-.686.032-2.117.12-4.305.279l-.56.512-.023 6.269h2.013l1.214-1.7c.176-.258.305-.385.398-.393.098-.008.319.12.678.393l2.598 2.1c.19.159.343.344.472.551.119.208-.168.319-.872.319h-6.477v5.095c1.391.36 2.365.67 2.923.934.56.273 1.062.607 1.509 1.008.448.408.769.789.975 1.141.199.346.305.703.312 1.062.008.361-.008.662-.057.91-.08.408-.287.822-.63 1.238-.343.424-.823.622-1.431.614-.589 0-1.014-.198-1.252-.591-.242-.391-.433-.975-.585-1.749-.152-.782-.343-1.478-.599-2.084-.247-.606-.638-1.228-1.166-1.853v16.826l.111 4.488c-.184.52-.526.902-1.037 1.15-.503.247-.99.367-1.462.35-.406 0-.71-.062-.925-.198-.21-.137-.376-.312-.503-.528l.215-6.436v-11.716c-2.515 3.116-4.784 5.654-6.812 7.604l-1.143 1.094c-.255.239-.415.301-.495.198-.08-.096-.121-.198-.121-.286 0-.096.066-.248.193-.449l.839-1.236c1.292-1.908 2.323-3.682 3.09-5.336.769-1.65 1.485-3.361 2.164-5.109.679-1.757 1.182-3.123 1.509-4.089l.511-1.565.168-.487h-7.818c-.382 0-.606-.216-.663-.639-.054-.415.17-.631.663-.631h7.915zM313.965 64.411v-11.691h-5.264v11.691h5.264zm-9.104 0v-11.691h-4.864v11.691h4.864zm0-12.961v-7.434l-.096-3.395c.096-.096.19-.159.278-.184l.591.135 4.233.96c.198.063.304.159.296.296-.008.135-.113.271-.296.406l-1.166.91v8.305h5.119l1.197-1.492.184-.256c.129-.048.272-.024.448.072l3.481 2.244.295.223.057.08.039.111c0 .049-.08.145-.246.287l-1.127.936v10.828l.119 3.02c-.049.223-.135.414-.255.599-.129.176-.503.366-1.127.575-.622.199-1.295.295-2.013.279-.606 0-.908-.225-.908-.679v-2.595h-5.264v12.769l.136 3.395c-.183.487-.624.814-1.31.982-.687.176-1.279.264-1.782.271-.495.008-.79-.031-.869-.104-.088-.08-.16-.209-.199-.377l.184-4.702v-12.232h-4.864v2.363c0 .167-.199.43-.599.783-.4.351-1.262.519-2.588.503-.392 0-.614-.049-.688-.145-.07-.097-.102-.255-.102-.487l.183-4.217v-10.38l-.097-4.448.151-.08c.041-.009.201.056.48.2l3.258 1.676h4.867zm-20.116-2.451h4.936l1.637-1.828c.2-.216.327-.328.376-.336.039-.008.144.056.302.199l2.923 2.74.098.158v.14500000000000002c-.016.136-.152.208-.402.208h-10.815c-2.507 3.011-4.383 5.087-5.636 6.22l-1.055.959c-.184.176-.32.232-.406.168-.09-.064-.129-.129-.129-.191 0-.056.023-.136.07-.231l.792-1.237 1.317-2.013c1.15-1.845 2.195-3.944 3.147-6.317.941-2.371 1.571-4.072 1.898-5.103l.401-1.237c.127-.392.184-.592.168-.607l.023.023.367.136 4.64 2.252c.137.072.247.151.327.216l.129.168c.008.039-.041.104-.129.2-.098.095-.206.151-.327.183l-1.197.328-3.455 4.797zm3.76 8.465c-.119.424-.432.711-.911.87v5.59h2.013l1.71-2.195c.118-.176.224-.255.302-.247.082.008.2.087.376.247l3.06 3.06.12.239c-.018.118-.175.183-.487.183h-7.093v10.573c1.95-.702 4.042-1.524 6.271-2.476l2.242-.957c.343-.145.519-.121.528.055.008.177-.033.303-.127.359l-2.174 1.598c-2.794 2.027-4.888 3.642-6.269 4.839l-2.437 2.107-.702.56c-.062.08-.167-.023-.304-.303l-1.868-3.507-.096-.19c-.049-.127-.064-.199-.049-.232 0-.016.16-.184.487-.496.328-.31.568-.621.702-.934.145-.312.217-.807.217-1.478v-9.519h-6.366c-.245-.016-.429-.064-.549-.137-.121-.079-.191-.293-.225-.637-.031-.344.201-.513.681-.513h6.459v-6.46h-4.958c-.376 0-.601-.208-.655-.631-.064-.416.152-.63.655-.63h9.471l1.731-2.101.209-.264c.096-.016.263.071.495.264l3.201 2.707c.178.16.256.287.256.399-.016.176-.145.255-.391.255h-5.525zM341.828 68.25h-10.511v11.92h10.511v-11.92zm-3.683-.483h3.462l.434-.595c.085-.123.183-.192.284-.204s.246.044.433.167l.931.632c.2.141.292.262.286.36-.008.098-.057.186-.137.263l-.36.324v10.66l.072 2.281c-.055.129-.123.232-.203.312-.082.078-.228.145-.435.195-.207.053-.396.078-.567.072-.184 0-.319-.037-.397-.105-.08-.072-.119-.152-.119-.246v-1.236h-10.511v1.342c0 .08-.039.158-.125.232-.079.071-.222.132-.427.183-.204.051-.407.072-.606.066-.169 0-.284-.021-.347-.062-.059-.039-.113-.111-.152-.21l.07-2.324v-10.661l-.07-2.096.113-.066.255.084 1.406.632h6.71zm-6.353 4.905l-.147-.062c-.029-.031-.045-.105-.041-.224.002-.121.064-.18.188-.18h3.755l-.008-.4v-.625c-.002-.318-.012-.706-.027-1.168l-.073-1.441.075-.078c.057-.012.236.016.543.078l1.251.291c.207.055.33.094.374.123l.068.104c.004.035-.083.122-.265.257l-.343.253c-.023.72-.039 1.246-.043 1.58l-.01.525-.018.502h1.967l.515-.685c.129-.175.213-.278.252-.302l.132-.033s.186.105.406.29l.896.792.168.18.047.144c.004.053-.068.08-.215.08h-4.168c-.027.474-.049.765-.061.877l-.08.62c.877.447 1.677.914 2.395 1.406.721.49 1.185.979 1.396 1.46s.312.887.3 1.21c-.012.326-.159.59-.44.79-.28.201-.546.231-.793.084-.248-.146-.419-.304-.513-.474-.096-.17-.225-.522-.393-1.062-.165-.536-.403-1.074-.713-1.609-.311-.533-.587-.896-.825-1.084l-.464-.375c-.166.465-.333.871-.511 1.209-.176.338-.562.809-1.162 1.406-.599.6-1.442 1.201-2.53 1.805l-.534.298c-.266.147-.44.216-.528.21l-.096-.029-.02-.066.115-.157.341-.255.614-.475c.298-.227.76-.672 1.384-1.342.622-.666 1.024-1.374 1.207-2.123.18-.748.285-1.353.314-1.816l.036-.507h-3.718zM360.854 72.539c-.068-.059-.098-.108-.086-.147.012-.043.051-.07.123-.082l.275.094c.163.062.611.416 1.351 1.062s1.219 1.233 1.433 1.768c.221.532.328 1.023.332 1.473.004.451-.094.822-.285 1.119-.19.294-.458.439-.799.434-.352 0-.601-.122-.747-.367-.142-.244-.224-.504-.235-.773l.072-1.693c-.025-.363-.129-.782-.318-1.262-.188-.481-.476-.934-.869-1.363l-.247-.263zm-5.219-5.222l-.002-.066v-.046l.098-.043.177.051c.068.042.205.099.403.177.199.074.683.357 1.447.841.768.485 1.15 1.135 1.15 1.95-.004.261-.086.547-.236.859-.154.309-.411.458-.773.446-.391-.006-.64-.121-.751-.347-.107-.225-.17-.451-.189-.671l-.059-.774c-.11-.865-.409-1.532-.887-2.006l-.378-.371zm-1.158 3.327l-.018 9.055c-.008.27.041.466.141.593.101.124.38.224.838.3.458.07.947.104 1.462.098 1.264 0 1.997-.098 2.207-.303.207-.2.344-.369.415-.512.068-.141.15-.326.236-.555l.316-.777.368-.986.141-.332c.018-.055.056-.078.112-.078l.115.066.031.09-.004.062-.133.475c-.074.274-.14.594-.19.963-.055.368-.076.629-.072.781 0 .178.025.33.074.465.051.136.146.295.286.484.139.186.217.312.23.379l.027.195c.004.068-.012.146-.047.231-.152.374-.491.62-1.018.737s-1.432.174-2.72.168c-1.692 0-2.813-.117-3.367-.352-.55-.236-.866-.465-.942-.688-.075-.228-.11-.452-.104-.679l.01-8.721-.105-2.423.121-.088c.023-.004.179.035.456.122l1.571.492.231.105.051.088c.002.035-.06.096-.192.185l-.527.36zm-4.052 1.975c.037-.076.086-.111.141-.105.057.018.123.113.197.292.071.18.167.471.284.872.117.405.199.716.24.933.045.216.066.486.066.814-.006.341-.057.736-.154 1.186-.094.449-.312.848-.659 1.191-.339.348-.687.51-1.037.49-.327-.002-.563-.113-.708-.325-.143-.216-.212-.417-.212-.603 0-.189.034-.362.112-.526.07-.146.242-.36.513-.646.273-.282.493-.547.661-.793.172-.246.32-.554.44-.922.125-.369.18-.666.176-.89l-.027-.593-.033-.375zM379.945 81.27v-9.879h-1.704c-.039.068-.131.135-.271.191v9.688h1.975zm-3.317 0v-9.879h-1.642c-.039.062-.129.129-.263.191v9.688h1.905zm-3.246 0v-9.879h-1.853v9.879h1.853zm-3.388 0v-8.773l-.067-2.31.048-.029.225.102 1.219.641h1.755c.147-.397.284-.787.413-1.168.128-.38.251-.824.368-1.334l.193-.859.053-.325.033-.018.194.079 1.929.711c.107.043.157.094.157.159-.005.068-.056.125-.157.164l-.491.204c-.659.847-1.297 1.645-1.911 2.387h5.948l.444-.641c.078-.111.152-.15.223-.113l1.542.963.072.07.039.08-.074.088-.604.463v9.46h.219l.762-.854.158-.142.148.091 1.256 1.133.108.158c.027.057-.058.088-.257.088h-15.749c-.146 0-.219-.082-.219-.238 0-.157.072-.235.219-.235h1.804zM401.094 73.433h-10.5l.004.469c-.004.193-.066.391-.188.596-.125.202-.281.37-.472.502-.188.131-.401.197-.638.193-.24-.002-.435-.092-.593-.271-.158-.179-.233-.373-.228-.592 0-.193.033-.33.099-.412.068-.084.291-.241.669-.479.376-.236.593-.572.644-1.006l.043-.377c.008-.064.037-.096.09-.096.069.006.142.09.218.246l.156.403.133.341h10.547l.465-.586c.057-.068.132-.111.218-.123.088-.006.219.061.396.191l1.301 1.045c.092.081.158.155.195.226l.057.142c-.004.076-.055.133-.148.168-.096.033-.334.064-.724.084s-.696.094-.916.223c-.223.129-.444.303-.659.519l-.238.235c-.108.111-.198.135-.271.072l-.061-.09.01-.133.068-.261.186-.63.137-.599m-1.736 7.86v-1.878h-6.175v1.878h6.175zm-6.175-5.929v1.526h5.332v-1.526h-5.332zm0 2.01v1.561h6.069l.396-.482.123-.16c.055-.02.173.031.358.16l.895.622c.211.154.324.243.342.269l.035.078c.002.027-.07.094-.217.199l-.335.246v1.314l.072.957c-.037.07-.121.165-.256.288-.134.122-.38.183-.737.177-.251 0-.409-.037-.474-.104-.063-.072-.097-.178-.097-.317v-.402h-6.175v.683c0 .093-.082.188-.246.284-.165.1-.401.148-.709.148-.246.004-.398-.027-.458-.094-.057-.068-.096-.156-.115-.268l.074-1.693v-5.09l-.074-1.464.098-.072c.023-.006.136.033.343.115l1.323.544h4.924l.384-.499c.122-.16.202-.24.241-.244.039-.002.156.062.357.199l.91.639c.201.146.299.234.303.266.003.029-.072.102-.23.219l-.336.246v1.243l.055.642c-.055.135-.192.25-.423.339-.228.09-.462.131-.702.125-.257 0-.386-.111-.386-.331v-.342h-5.332zm.755-8.502l.437-.563c.116-.15.188-.228.216-.229s.141.085.338.266l.805.756.1.149c-.006.062-.053.096-.141.096h-.727v.008h-2.414c.765.515 1.193.894 1.283 1.133s.139.419.143.536c.002.117-.064.291-.199.521s-.377.345-.728.339c-.187 0-.351-.064-.491-.188-.141-.122-.213-.282-.219-.49-.006-.062.012-.193.059-.395.041-.199.064-.38.064-.551-.006-.246-.041-.432-.111-.555-.066-.123-.147-.24-.249-.351h-1.043c-.119.11-.35.345-.696.698-.343.353-.714.695-1.107 1.027-.396.329-.626.523-.688.584l-.282.254c-.109.1-.18.129-.209.09l-.045-.123.062-.152.229-.313c.571-.798.994-1.427 1.266-1.894.272-.463.533-.939.781-1.429.25-.487.405-.841.47-1.057l.078-.272c.043-.152.076-.23.104-.234l.206.066 1.639.771.089.07.049.072-.049.076-.142.082-.527.174-.799 1.027h2.448zm3.675 0h3.395l.501-.622c.128-.166.212-.245.251-.243.035.004.17.083.397.243l1.061.772.146.141.027.112c.004.045-.068.07-.214.07h-1.853v.008h-2.632l.683.356c.317.158.559.352.734.575.17.222.26.437.264.647.002.213-.037.383-.121.517-.168.276-.419.411-.755.405-.233 0-.421-.066-.565-.199-.144-.13-.222-.301-.239-.51l.027-.564c.002-.35-.105-.662-.328-.938l-.298-.29h-.928c-.445.474-.938.982-1.484 1.528.18.057.352.123.503.197.156.072.295.197.418.37.122.177.185.335.188.479.002.145-.033.34-.109.587-.077.249-.335.372-.781.366-.275 0-.479-.062-.61-.189-.129-.126-.216-.273-.257-.451l-.068-.396c-.066-.29-.191-.518-.379-.672l-.14-.115-.15-.1-.057-.141c-.004-.062.084-.096.257-.096.348.012.608.033.792.064.366-.645.636-1.154.808-1.524.167-.372.341-.78.522-1.228.175-.447.296-.768.353-.962l.09-.306.105-.318.271.1 1.389.597c.208.091.319.147.329.169l.004.096c0 .045-.064.088-.193.129l-.413.143-.563.717-.378.476zM415.27 67.223l-.276-.219-.094-.093.002-.057.025-.07.17-.035c.1 0 .284.018.558.057.272.039.616.117 1.039.235.419.121.665.329.727.634.066.303.1.515.102.64.004.126-.033.257-.111.399-.079.152-.196.277-.349.377-.153.099-.327.149-.526.149-.148.006-.286-.023-.415-.087s-.232-.162-.319-.293c-.084-.133-.133-.334-.145-.603s-.029-.47-.057-.603c-.028-.13-.136-.274-.331-.431m-6.956 3.631l-.208-.386-.033-.115c-.004-.045.033-.068.102-.068.11.012.28.09.508.239.229.15.424.291.586.422.161.133.325.322.498.567.172.245.254.497.246.755-.008.257-.094.479-.252.67-.155.189-.356.281-.596.275-.361-.006-.567-.135-.616-.389-.051-.255-.072-.443-.066-.566l.01-.271v-.273l-.033-.455c-.017-.117-.064-.252-.146-.405zm13.203-1.105v.01h-9.438c-.006.332-.006.577 0 .735l.01.729v1.57c-.014 1.186-.059 2.139-.139 2.861-.077.719-.218 1.374-.425 1.965-.204.588-.468 1.131-.793 1.621-.324.492-.677.944-1.061 1.357-.385.41-.683.714-.903.906l-.604.537c-.068.064-.129.094-.18.092l-.092-.027-.021-.082c-.004-.041.027-.102.092-.178l.562-.666c.509-.604.91-1.252 1.197-1.952.29-.698.491-1.337.603-1.911.11-.578.179-1.072.208-1.489l.055-.788c-.28.246-.569.492-.865.737l-.538.454-.765.702-.18.146c-.027.01-.071-.085-.134-.285l-.369-1.078-.09-.246.008-.037.256-.051.877-.219c.041-.006.647-.197 1.817-.57-.006-.691-.01-1.432-.006-2.225.004-.792-.012-1.486-.047-2.083l-.053-.877-.072-.677.08-.105s.174.018.413.123l1.186.536h9.018l.622-.837c.077-.104.134-.157.177-.161.041-.002.152.063.332.198l1.072.843c.135.108.2.198.2.263l-.067.109-.15.049h-1.793zm-.55 1.859l.614-.719c.08-.098.143-.15.182-.152.042-.004.122.041.245.135l1.072.859.141.15.031.131c.002.051-.094.078-.285.078l-4.581.01c-.07.094-.148.176-.229.246-.037.445-.061.803-.078 1.072l-.027.436-.044.52h2.721l.43-.597c.082-.111.134-.168.161-.172l.252.117 1.191.737c.099.066.149.127.149.187-.006.043-.056.115-.149.209l-.281.272v6.237c0 .228-.11.419-.331.577-.223.16-.401.266-.538.312-.131.052-.349.11-.646.187-.3.072-.478.103-.528.097l-.092-.021-.039-.057c-.012-.023-.037-.18-.076-.47-.038-.287-.302-.525-.793-.704l-.544-.192-.172-.088-.035-.115c.002-.047.096-.068.279-.062l.699.045c.527.037.845.037.954.004.106-.029.187-.082.237-.15.055-.066.082-.135.082-.203v-5.669h-2.982l-.027.218-.018.213-.078.524c.799.298 1.464.671 1.984 1.113.524.446.786.917.78 1.413-.006.301-.084.529-.234.688-.15.164-.329.243-.54.243-.232.006-.403-.062-.505-.206-.102-.144-.186-.329-.249-.558l-.244-.834c-.092-.268-.193-.523-.312-.761-.12-.239-.358-.517-.715-.827-.105.41-.238.794-.396 1.15-.157.355-.47.784-.934 1.281s-.875.865-1.232 1.105l-.561.369c-.111.074-.184.092-.211.051l-.047-.109.08-.137.499-.502c.172-.167.378-.424.624-.77.245-.348.458-.785.632-1.32.177-.535.278-1.023.308-1.466l.045-.704v-.177h-2.309v7.333c0 .194-.117.327-.351.4-.232.072-.452.105-.649.1-.191 0-.312-.027-.358-.078-.049-.053-.082-.122-.105-.208l.088-1.97v-4.137l-.088-2.424.096-.062.405.168.955.396h2.316v-.195l.01-1.096-.01-.982-4.176-.01-.123-.061c-.049-.053-.082-.137-.104-.252-.02-.113.066-.17.262-.17h8.502zM430.579 74.89l-.047-.104c-.004-.035.053-.064.17-.09.076-.012.162.008.258.049.1.045.29.121.575.222.288.102.536.252.752.453.213.197.318.442.314.738-.004.297-.078.531-.223.708-.146.176-.327.259-.544.253-.306 0-.495-.079-.573-.245-.074-.163-.125-.374-.151-.632-.027-.258-.061-.47-.098-.641-.043-.17-.145-.355-.311-.561l-.122-.15zm1.519-6.053l.99.358c.111.047.168.102.172.164.004.06-.055.116-.172.171l-.377.184-.824 2.027h1.876l.325-.387.232-.275.251.172 1.141.832c.094.076.141.143.145.203.002.057-.059.127-.18.2l-.438.28c-.219.872-.386 1.541-.509 2.011-.123.468-.297 1.023-.519 1.665-.221.643-.61 1.357-1.168 2.141-.554.785-1.318 1.496-2.285 2.129-.967.636-1.817 1.104-2.548 1.408l-.677.282c-.117.051-.184.059-.201.02l-.027-.096.006-.073.1-.096.599-.346c.279-.156.657-.415 1.129-.775.478-.359 1.066-.886 1.774-1.578.709-.693 1.26-1.54 1.659-2.534.397-.994.679-1.905.846-2.731.166-.824.283-1.488.346-1.979h-2.106c-.419.836-.865 1.662-1.335 2.474-.474.815-1.146 1.71-2.023 2.687l-.314.35c-.066.072-.121.102-.169.094l-.086-.084c-.012-.047.012-.117.068-.209l.272-.451c.405-.67.778-1.4 1.123-2.189.345-.783.603-1.412.772-1.879.171-.468.329-.961.483-1.479.151-.519.271-.954.364-1.306.09-.354.15-.65.184-.886l.074-.497h-3.062c-.152 0-.229-.078-.231-.238-.004-.158.073-.236.231-.236h12.44l.763-.992c.111-.146.193-.214.241-.206.051.01.119.053.207.128l1.236 1.115c.111.105.164.203.162.295-.004.088-.072.135-.213.135h-5.073l.722.264c.139.053.203.106.191.167-.012.057-.074.135-.191.226l-.448.352v5.309c.538-.578.922-1.008 1.152-1.287.233-.274.479-.592.742-.945.264-.354.446-.617.554-.785l.324-.518.173-.332.043-.016.215.147 1.096.884c.333.274.489.438.464.496-.023.057-.084.086-.186.092l-.491.043c-1.162.85-1.928 1.377-2.296 1.59l-1.79 1.07v4.526c0 .174.029.294.092.356.06.061.288.111.676.146.387.039.897.051 1.522.039.484-.002.841-.062 1.065-.18.226-.113.407-.278.552-.492.144-.217.29-.48.435-.786.146-.308.263-.577.353-.812l.392-1.062c.025-.07.062-.104.121-.1l.115.057.035.09-.008.076-.264 1.176c-.073.346-.108.641-.106.889.002.25.039.439.106.568l.232.348c.104.178.158.344.162.492.002.154-.047.312-.148.478-.105.167-.278.331-.524.489-.246.156-.812.258-1.694.297-.883.043-1.421.061-1.624.055-1.227 0-2.006-.143-2.338-.426-.329-.285-.522-.538-.579-.77-.056-.227-.083-.523-.083-.892v-10.109l-.035-1.213h-4.403zM453.995 67.882l-.359-.512-.066-.104.004-.054c.012-.051.064-.084.158-.096.1-.006.47.124 1.113.39.646.266 1.104.585 1.379.957.274.373.413.722.413 1.057-.006.311-.117.602-.336.87-.216.269-.503.401-.859.396-.246 0-.448-.086-.608-.254-.162-.163-.266-.418-.311-.756l-.081-.877c-.035-.213-.086-.391-.158-.531-.072-.143-.167-.306-.289-.486m-2.528 3.472c.105.071.156.126.152.161l-.066.128-.264.279v9.084h8.803l.937-1.072c.083-.094.149-.141.204-.145.051-.002.162.061.332.189l1.211.955c.116.1.185.174.206.225l.029.128c-.006.121-.084.183-.235.183h-11.486l-.376.572c-.155.234-.257.353-.296.36-.043.006-.1-.02-.178-.072l-1.15-.747-.123-.078-.02-.039.143-.153.205-.183.141-.195c.033-.074.05-.207.05-.393v-9.188h-2.651c-.143 0-.218-.078-.218-.236 0-.16.075-.236.218-.236h13.277l.939-1.238c.082-.105.146-.158.195-.162.051-.002.141.053.27.162l1.378 1.238.135.174.026.107.006.051c-.02.094-.104.141-.257.141h-11.537zM471.884 41.978l-.139-1.02 12.567-5.63v42.249c0 1.877.07 3.094.209 3.649.141.556.429.985.857 1.296.429.303.996.465 1.704.488l2.79.174v1.46h-17.582v-1.333c.683-.045 1.25-.092 1.726-.162.487-.07 1.02-.186 1.622-.359.591-.174 1.055-.382 1.367-.648.325-.254.602-.639.834-1.146.244-.512.358-1.553.358-3.104v-32.219c0-1.043-.059-1.889-.185-2.56-.127-.661-.303-1.136-.533-1.401-.22-.278-.707-.441-1.448-.477-.638-.021-1.263.035-1.877.198l-2.27.545zM513.357 70.326c-.074.757-.15 1.429-.219 2.021-.072.592-.192 1.292-.366 2.105-.17.812-.479 1.688-.924 2.627-.445.938-1.24 1.904-2.389 2.889-1.146.984-2.377 1.754-3.69 2.312l-.669.278-.174.023-.08-.049v-.083l.121-.137.651-.411c1.337-.85 2.491-1.873 3.455-3.074.967-1.201 1.608-2.48 1.932-3.834.319-1.356.515-2.555.577-3.603.066-1.049.098-1.714.094-1.998l-.012-.835-.027-.713-.096-.763.051-.033.219.059 2.062.501.182.08.053.105c-.002.039-.047.096-.129.166l-.5.438c.129 1.043.271 2.021.434 2.932.162.912.489 1.916.98 3.008.491 1.098 1.1 2.148 1.829 3.156.729 1.006 1.446 1.797 2.162 2.369.714.568 1.245.934 1.597 1.09l.686.317c.074.039.113.096.113.165-.006.096-.084.141-.229.141h-.606c-.232 0-.493.047-.778.146-.286.096-.497.191-.626.285l-.409.29-.177.107-.096-.066-.432-.464c-.977-1.047-1.838-2.311-2.591-3.794-.751-1.481-1.2-2.782-1.347-3.897l-.632-3.856z"/></g></svg>