<?xml version="1.0" encoding="utf-8"?>
<!-- Generator: Adobe Illustrator 17.0.0, SVG Export Plug-In . SVG Version: 6.00 Build 0)  -->
<!DOCTYPE svg PUBLIC "-//W3C//DTD SVG 1.1//EN" "http://www.w3.org/Graphics/SVG/1.1/DTD/svg11.dtd">
<svg version="1.1" id="Layer_1" xmlns="http://www.w3.org/2000/svg" xmlns:xlink="http://www.w3.org/1999/xlink" x="0px" y="0px"
	 width="640.4px" height="145.3px" viewBox="0 0 640.4 145.3" style="enable-background:new 0 0 640.4 145.3;" xml:space="preserve"
	>
<style type="text/css">
	.st0{fill:#A72027;}
	.st1{fill:#FFFFFF;}
	.st2{fill:none;}
	.st3{fill:#231916;}
</style>
<path class="st0" d="M102.7,50.9l20.5-24.5h404.3L548,50.9c-2,2.4-2,6.4,0,8.8l-20.5,24.5H123.2l-20.5-24.5
	C104.7,57.2,104.7,53.3,102.7,50.9 M552.4,51.5c2.3,0,4.2,1.9,4.2,4.2c0,2.3-1.9,4.2-4.2,4.2s-4.2-1.9-4.2-4.2
	C548.2,53.4,550.1,51.5,552.4,51.5 M98.7,51.5c2.3,0,4.2,1.9,4.2,4.2c0,2.3-1.9,4.2-4.2,4.2s-4.2-1.9-4.2-4.2
	C94.5,53.4,96.4,51.5,98.7,51.5"/>
<path class="st1" d="M130.6,38.2h9.5v1.2h-9.5V38.2z M137.6,42.4h-4.4v2.8h4.4V42.4z M131.9,41.3h6.8v5.1h-5.6v0.8h-1.2V41.3z
	 M129.7,49.9h-1.2V35.1h13.8v13c0,1.2-0.6,1.8-1.9,1.8c-0.8,0-1.7,0-2.7-0.1c-0.1-0.4-0.1-0.8-0.2-1.3c1.1,0.1,2,0.1,2.7,0.1
	c0.6,0,0.9-0.3,0.9-0.9V36.3h-11.3L129.7,49.9L129.7,49.9z M152.5,40.5c0.9,1.6,1.5,2.8,2,3.8c-0.3,0.1-0.7,0.3-1.3,0.6
	c-0.4-1-1-2.3-1.8-3.8L152.5,40.5L152.5,40.5z M148.9,36.9h-3V41h3V36.9z M145.8,46.3h3v-4.2h-3V46.3z M150.7,37.7h5.8v-3.6h1.3v3.6
	h2.3v1.2h-2.3v8.7c0,1.4-0.7,2.2-2.1,2.2c-0.6,0-1.5,0-2.8,0c-0.1-0.4-0.1-0.8-0.3-1.4c1.1,0.1,2,0.1,2.7,0.1c0.8,0,1.1-0.4,1.1-1.2
	v-8.5h-5.8V37.7z M144.5,35.7h5.6v13.2h-1.3v-1.3h-3v1.5h-1.3L144.5,35.7L144.5,35.7z M163.5,37.7h1.2v3.3c0,2.1-0.1,3.7-0.4,4.9
	l0.5-0.4c1.1,1.1,2.1,2.2,2.9,3.1l-1,0.9c-0.8-1-1.6-2-2.5-3c-0.4,1.2-1.3,2.5-2.8,3.8c-0.2-0.3-0.5-0.7-0.9-1
	c1.3-0.9,2.1-1.9,2.5-3c0.4-0.9,0.6-2.5,0.6-4.7L163.5,37.7L163.5,37.7z M171.2,41.8l1.1-0.3c0.5,1.6,1,3.2,1.4,4.9l-1.2,0.4
	c-0.1-0.3-0.2-0.7-0.2-1c-1.1,0.1-2.2,0.2-3.1,0.3c-0.5,0.1-1,0.1-1.4,0.3l-0.5-1.1c0.4-0.2,0.7-0.6,0.8-1c0.6-1.4,1.2-3.2,1.7-5.2
	l1.2,0.3c-0.6,2-1.3,3.8-1.9,5.5c0.9-0.1,1.9-0.1,2.9-0.2C171.7,43.7,171.5,42.7,171.2,41.8L171.2,41.8z M161.4,35.1h5.5v4.7
	c1.1-1.7,1.9-3.5,2.4-5.6l1.3,0.3c-0.3,0.8-0.5,1.5-0.8,2.2h6.2c-0.1,5.2-0.1,8.7-0.2,10.5c-0.1,1.7-1,2.6-2.7,2.6
	c-0.9,0-1.9,0-3-0.1c-0.1-0.4-0.2-0.9-0.3-1.3c1,0.1,2,0.2,2.9,0.2c1.1,0,1.7-0.6,1.8-1.7c0.1-1.8,0.1-4.8,0.2-9h-5.4
	c-0.4,0.9-0.8,1.8-1.2,2.6c-0.3-0.2-0.7-0.4-1.1-0.6v5.3h-1.2v-8.9h-3.1v9h-1.2L161.4,35.1L161.4,35.1z M180.2,37.9l0.7-0.9
	c1.3,0.8,2.5,1.5,3.7,2.3l-0.8,1C182.7,39.5,181.5,38.7,180.2,37.9 M178.6,40.5l0.7-0.9c1.4,0.8,2.7,1.6,3.8,2.5l-0.8,1
	C181.1,42.2,179.9,41.3,178.6,40.5z M178,36.4v-1.2h14.4v1c-0.6,1.4-1.2,2.6-1.8,3.6c-0.5-0.2-0.9-0.4-1.2-0.5
	c0.6-0.9,1.1-1.9,1.5-2.9L178,36.4L178,36.4z M177.6,49c3.7-0.7,6.2-2.1,7.4-4.1h-7.7v-1.2h8.2c0.3-0.8,0.5-3,0.5-6.6h1.3
	c0,3.5-0.2,5.7-0.5,6.6h6.1v1.2h-6.5c-0.1,0.2-0.2,0.4-0.3,0.6c1.8,0.8,4,2,6.6,3.6l-0.7,1.2c-2.4-1.6-4.6-2.9-6.5-3.8
	c-1.4,1.8-3.8,3.1-7.1,3.9C178.3,49.9,178,49.5,177.6,49L177.6,49z M201.3,40.2c1.8-1.1,3.6-2.3,5.1-3.5h-12.2v-1.3h14.4v1.6
	c-1.9,1.3-3.9,2.6-5.9,3.9v6c0,1.1-0.2,1.8-0.6,2.2c-0.4,0.4-1.1,0.7-2.2,0.7c-0.6,0-1.5,0-2.6-0.1c-0.1-0.5-0.2-1.1-0.3-1.6
	c1.1,0.1,2,0.2,2.8,0.2c1,0,1.5-0.5,1.5-1.5L201.3,40.2L201.3,40.2z M222.9,35.2l-0.9,3.9h-1.4l1.3-3.9H222.9z M225.6,35.2l-0.9,3.9
	h-1.4l1.3-3.9H225.6L225.6,35.2z M523.3,35.2l-1.3,3.9h-1.1l0.9-3.9H523.3z M526.1,35.2l-1.3,3.9h-1.1l0.9-3.9H526.1L526.1,35.2z
	 M232.8,46.8l1.5-1.3c0.7,0.8,1.5,1.6,2.4,2.6l-1.8,1.5C234.3,48.8,233.6,47.8,232.8,46.8 M227.2,37.8h6.4c0.1-1.1,0.2-2.3,0.1-3.6
	h2.5c0,1.2-0.1,2.4-0.1,3.6h6.7v2.2h-6.4c1.1,3.7,3.4,6.2,6.8,7.6c-0.6,0.7-1.2,1.5-1.9,2.4c-2.9-1.8-4.9-4.5-6.1-8.1
	c-0.8,2.8-2.9,5.5-6.3,8.2c-0.8-1-1.4-1.7-1.9-2.2c3.8-2.2,5.9-4.8,6.4-7.9h-6.1L227.2,37.8L227.2,37.8z M258.7,38.5
	c-1.1,1.4-2.4,2.7-3.6,4l-1.7-1.3c1.3-1.3,2.4-2.6,3.4-4C256.8,37.2,258.7,38.5,258.7,38.5z M244.6,38.4l1.7-1.1
	c1,1.2,2.1,2.5,3.2,4l-2,1.3C246.5,40.9,245.5,39.5,244.6,38.4z M243.6,42.8h6.6v-5.9h-5.9v-2.1h14.3v2.1h-6v5.9h6.7V45h-6.7v5h-2.5
	v-5h-6.6L243.6,42.8L243.6,42.8z M269.2,40.9l1.8-0.6c0.5,1.3,1,2.5,1.4,3.8l-1.9,0.6C270.1,43.4,269.7,42.2,269.2,40.9 M263.8,47.6
	h-0.6c-0.1-1-0.2-1.6-0.3-2c0.2,0,0.4,0.1,0.6,0.1c0.5,0,0.8-0.4,0.8-1.1c0-0.9-0.5-2.1-1.4-3.4l1.3-4.3h-1.4v13.4h-2V34.8h5.4v1.8
	l-1.4,4.1c1,1.5,1.5,2.9,1.5,4.2C266.2,46.7,265.4,47.6,263.8,47.6L263.8,47.6z M269.5,37.1h3.3v-2.9h2v2.9h1.4v2.1h-1.4v8.1
	c0,0.7-0.1,1.3-0.4,1.7c-0.3,0.4-0.6,0.6-1.1,0.7c-0.5,0.1-1.3,0.1-2.6,0.1c-0.1-0.7-0.2-1.4-0.4-2.1c0.5,0,1,0,1.5,0
	c0.6,0,1-0.3,1-0.9v-7.7h-3.3L269.5,37.1L269.5,37.1z M268,34.1l2,0.2c-0.3,0.9-0.7,1.8-1.1,2.7v13.1h-2v-9.3
	c-0.3,0.4-0.5,0.9-0.8,1.3c-0.3-0.6-0.6-1.2-1-1.9C266.5,38.1,267.5,36.1,268,34.1L268,34.1z M289.8,37.6h-2.2v8.6h2.2V37.6z
	 M285.4,49.8V35.5h6.5v14.2h-2.2v-1.3h-2.2v1.4H285.4z M280.2,49.8c-0.2-0.8-0.4-1.6-0.6-2.4c0.7,0,1.2,0.1,1.6,0.1
	c0.3,0,0.5-0.1,0.6-0.2c0.1-0.1,0.2-0.3,0.3-0.5c0-0.2,0.1-1,0.1-2.5c0-1.4,0.1-3.2,0.1-5.4h-1.6c-0.1,5.1-1,8.9-2.9,11.3
	c-0.4-0.7-0.8-1.5-1.3-2.3c1.4-1.9,2.1-4.9,2.1-9h-1.9v-2.1h1.9c0-0.9,0-1.8,0-2.7h2.1l0,2.7h3.7l-0.1,6.5l-0.1,3.8
	c0,0.8-0.2,1.4-0.5,1.8c-0.3,0.4-0.7,0.6-1.1,0.7C282.3,49.7,281.5,49.8,280.2,49.8L280.2,49.8z M297.3,45.7h7.8V45h-7.8V45.7z
	 M297.3,41.7h7.8V41h-7.8V41.7z M305.1,39h-7.8v0.7h7.8V39z M297.3,43.7h7.8V43h-7.8V43.7z M299.3,47.3l0.9,1.6
	c-1.8,0.5-3.6,0.9-5.4,1.3c-0.3-0.7-0.6-1.3-0.9-1.8C295.7,48.1,297.5,47.7,299.3,47.3L299.3,47.3z M303,47.3c1.5,0.2,3.4,0.6,5.7,1
	l-0.7,1.9c-2-0.5-3.9-0.9-5.8-1.3L303,47.3z M293.4,45.7h1.8v-8.2h4.9v-0.8h-6.6v-1.6h6.6v-1.1h2.2v1.1h6.6v1.6h-6.6v0.8h5v8.2h1.9
	v1.5h-15.8L293.4,45.7L293.4,45.7z M314.4,45.8c-0.6,0.9-1.4,1.7-2.2,2.5c1.5-0.2,2.9-0.6,4.2-0.9C315.6,46.9,315,46.4,314.4,45.8
	 M318.7,46.4c1-0.4,1.9-0.9,2.6-1.5h-5.1C316.9,45.5,317.7,46,318.7,46.4z M310.1,41h4.4c0.1-0.3,0.2-0.6,0.3-0.9h2.2
	c-0.1,0.3-0.2,0.6-0.3,0.9h9v1.7h-9.6c-0.1,0.3-0.2,0.6-0.4,0.8h8.6v1.4c-0.9,0.9-2,1.7-3.2,2.4c1.4,0.3,3,0.5,4.7,0.6
	c-0.4,0.7-0.8,1.4-1.1,2.1c-2.3-0.2-4.4-0.7-6.2-1.4c-1.7,0.7-3.6,1.2-5.6,1.6c-0.3-0.6-0.7-1.2-1.1-1.7c-0.3,0.3-0.7,0.6-1,0.8
	c-0.4-0.7-0.7-1.3-1.1-1.9c1.7-1.3,3.1-2.8,4-4.7h-3.7L310.1,41L310.1,41z M314,36.4c0.3,0.5,0.7,1,1,1.6h2.2
	c-0.2-0.4-0.4-0.8-0.7-1.2l1.5-0.5L314,36.4z M318.6,36.3c0.3,0.5,0.7,1.1,1,1.7h1.2c0.4-0.5,0.9-1.1,1.3-1.8L318.6,36.3z
	 M310.3,34.8c3.8,0,8.6-0.1,14.5-0.3l0.5,1.7l-2.3,0.1l1.2,0.7c-0.3,0.4-0.6,0.7-1,1.1h2v2.6H323v-0.9h-10.2v0.9h-2.2V38h2.1
	c-0.2-0.4-0.4-0.7-0.6-1l1.5-0.6l-2.7,0C310.7,36,310.6,35.4,310.3,34.8z M344.8,44.9c0.6,0.6,1.1,1.2,1.5,1.8l-1.5,1.1
	c-0.4-0.6-0.9-1.2-1.4-1.8L344.8,44.9L344.8,44.9z M338.7,45.1l1.9,0.5c-0.2,0.9-0.5,1.7-0.7,2.5c0.7,0,1.1,0,1.2-0.1
	c0.1-0.1,0.2-0.3,0.2-0.5v-2.6h-3.4v-1.7h8.4v1.7h-2.9v3.3c0,0.5-0.1,0.9-0.3,1.2c-0.2,0.3-0.5,0.5-0.8,0.6
	c-0.4,0.1-1.2,0.1-2.5,0.1c-0.1-0.3-0.2-0.7-0.2-0.9l-1.8-0.6C338,47.5,338.4,46.4,338.7,45.1L338.7,45.1z M345.5,42.2h-7.2v-1.7
	h7.2V42.2z M348.4,39.8h2c0,0.7,0,1.3-0.1,1.9c0.4,3,1.6,5.1,3.6,6.2c-0.3,0.5-0.7,1.2-1.2,2.2c-1.5-1.2-2.6-2.8-3.2-4.7
	c-0.5,1.7-1.6,3.3-3.3,4.9c-0.5-0.7-1-1.3-1.4-1.8c1.4-1.1,2.3-2.3,2.9-3.6C348.1,43.5,348.4,41.8,348.4,39.8z M353.5,36.3v1.9
	l-0.7,3.1l-1.9-0.4l0.6-2.6h-3.1c-0.3,1.1-0.7,2-1.1,2.8c-0.7-0.4-1.3-0.6-1.8-0.9c0.8-1.7,1.4-3.8,1.9-6.2l2,0.4
	c-0.2,0.7-0.3,1.3-0.5,1.9L353.5,36.3L353.5,36.3z M345.5,39.7h-7.4V38h2.8v-1.1h-3.2v-1.8h3.2V34h2.1v1.1h3.1v1.8h-3.1V38h2.4V39.7
	z M359.9,46.6h-3.1v1.2h3.1V46.6z M366.3,40.1c-0.5,0.9-1.1,1.8-1.8,2.7h3.7C367.4,42,366.8,41.1,366.3,40.1L366.3,40.1z
	 M367.4,44.7h-2.5v2.4h2.5V44.7z M368,34.1c0.9,1.2,1.8,2.4,2.6,3.7l-1.7,1.2c-0.8-1.4-1.6-2.8-2.5-3.9L368,34.1z M356.9,34.3
	l2.3-0.3c0.1,0.3,0.2,0.8,0.3,1.3h2.7v2.4c0.9-1.1,1.7-2.3,2.3-3.6L366,35c-0.7,1.4-1.6,2.9-2.7,4.3c-0.4-0.4-0.9-0.8-1.5-1.2
	l0.2-0.2h-1.6v-0.8h-4.2v0.8h-1.6v-2.5h2.5C357,35,357,34.6,356.9,34.3L356.9,34.3z M354.6,42.6h2.8v-0.7h-2.1v-1.5h2.1v-0.7h-2.5
	v-1.6h2.5v-0.6h1.8v0.6h2.5v1.6h-2.5v0.7h2.1v1.5h-2.1v0.7h2.7c1.5-1.2,2.7-2.8,3.4-5h2.2l-0.3,0.6c0.9,1.8,2,3.3,3.3,4.3
	c-0.2,0.6-0.5,1.3-0.9,2.1c-0.2-0.1-0.3-0.3-0.5-0.4v5.9h-1.9v-1h-2.5v1H363v-5.8c-0.2,0.1-0.3,0.3-0.5,0.4
	c-0.2-0.5-0.4-1.1-0.6-1.7v1.1h-2.7v0.7h2.4V50h-1.8v-0.6h-3.1V50H355v-5.1h2.4v-0.7h-2.8L354.6,42.6L354.6,42.6z M378.9,45.1h2.2
	v1.7c0,0.7,0.3,1,0.9,1h1.3c0.8,0,1.2-0.2,1.3-0.7c0-0.3,0.1-1,0.2-2.2c0.8,0.3,1.5,0.5,2.2,0.7c-0.2,1.3-0.3,2.2-0.4,2.7
	c-0.2,1-1.2,1.5-3,1.5h-2.4c-1.5,0-2.2-0.8-2.2-2.4L378.9,45.1L378.9,45.1z M377.9,40.5h-3v2.3h2.6
	C377.6,42.1,377.8,41.4,377.9,40.5z M374.8,38.7h4.5l1.3-1.5h-4.5C375.8,37.7,375.3,38.2,374.8,38.7z M383.1,42.8v-2.3H380
	c-0.1,0.9-0.2,1.6-0.4,2.3H383.1z M383.4,35.4v1.8l-1.4,1.5h3.3v5.9h-6.2c-1.2,2.3-3.4,4.1-6.7,5.6c-0.4-0.6-0.9-1.2-1.6-2
	c2.8-1,4.7-2.2,5.7-3.6h-1.7v0.7h-2.3v-4.7l-0.6,0.5c-0.3-0.7-0.7-1.4-1.1-2.1c2-1.3,3.6-2.9,4.8-4.9l2.5,0.2
	c-0.2,0.4-0.4,0.7-0.7,1.1L383.4,35.4L383.4,35.4z M400.2,36.7H395v2.2h5.2V36.7z M392.8,34.8h9.5v6.1h-3.7v1.5h4.7v1.8h-3.7
	c0.9,1.2,2.2,2.1,3.9,2.9c-0.5,0.9-1,1.6-1.3,2.1c-1.6-1-2.8-2.2-3.6-3.7v4.6h-2.3v-4.5c-1.1,1.5-2.3,2.8-3.8,3.8
	c-0.3-0.6-0.8-1.3-1.2-1.9c1.5-0.8,2.7-1.9,3.8-3.3h-3.4v-1.8h4.6v-1.5h-3.5L392.8,34.8L392.8,34.8z M390.3,34.1l2.2,0.6
	c-0.4,1.4-0.8,2.7-1.3,3.9v11.5h-2v-7.2c-0.4,0.6-0.7,1.2-1.1,1.8c-0.1-1-0.3-2.1-0.5-3.1C388.6,39.7,389.6,37.2,390.3,34.1z
	 M411.3,44.8h2.1c0,0.6-0.1,1.1-0.3,1.6c2,0.6,4.3,1.2,6.8,2.1l-1,1.8c-2-0.8-4.2-1.5-6.6-2.3c-1,1.2-3.2,1.9-6.8,2.2
	c-0.2-0.6-0.5-1.2-0.9-1.9c2.3-0.1,4-0.4,5-0.9C410.7,46.9,411.3,46.1,411.3,44.8 M416.2,42.4c0.8,0,1.3,0,1.4,0
	c0.1-0.1,0.2-0.2,0.2-0.3c0-0.1,0.1-0.3,0.1-0.6h-2.5v1.2h-2v-1.2h-2.9c-0.4,0.7-0.8,1.2-1.2,1.5h7.2L416.2,42.4z M407.2,39
	l-0.2,0.9h1.9c0.1-0.3,0.2-0.6,0.2-0.9H407.2z M411,39.9h2.3V39h-2.2C411.1,39.4,411.1,39.7,411,39.9z M417.2,37.5v-0.9h-1.9v0.9
	H417.2z M411.3,37.5h2v-0.9h-2L411.3,37.5z M406.7,47.2v-2.7c-0.5,0.2-1,0.4-1.6,0.6c-0.3-0.5-0.6-1.1-1-1.7c1.9-0.5,3.3-1.1,4-1.9
	h-3.2l0.6-3.9h3.8c0-0.2,0-0.6,0-0.9H405v-1.5h4.3v-1.1h2v1.1h2v-1.1h2v1.1h3.8V39h-3.8v0.9h4.4c0,0.8-0.1,1.6-0.1,2.2
	c-0.1,0.6-0.2,1-0.5,1.3c-0.3,0.3-0.7,0.4-1.2,0.4v3h-2v-2.5h-7.2v2.8C408.7,47.2,406.7,47.2,406.7,47.2z M424.4,43.8h3.2v-0.9h-3.2
	V43.8z M433.1,43.8v-0.9h-3.3v0.9H433.1z M424.4,41.7h3.2v-0.9h-3.2V41.7z M433.1,40.8h-3.3v0.9h3.3V40.8z M420.7,48.1h6.9v-0.8
	h-5.9v-1.4h5.9v-0.8h-5.3v-5.7h5.3v-0.8h-6.9v-1.5h6.9v-0.8l-5.5,0.1c-0.1-0.5-0.2-1-0.3-1.5c4.6-0.1,9.1-0.2,13.4-0.4
	c0,0,0.1,0.5,0.3,1.5l-5.8,0.2v0.9h7v1.5h-7v0.8h5.4v5.7h-5.4v0.8h6v1.4h-6v0.8h7v1.5h-16.1L420.7,48.1L420.7,48.1z M437.6,38.3h6.4
	c0.1-1.2,0.1-2.5,0.1-4.1h2.5c0,1.6-0.1,3-0.1,4.1h6.7v2.2h-6.5c0.9,3.6,3.2,6,6.7,7.3c-0.8,0.9-1.4,1.6-1.8,2.2
	c-2.9-1.4-5-3.6-6.1-6.7c-0.9,2.8-3,5.1-6.2,6.8c-0.4-0.6-1-1.2-1.8-2.1c3.9-1.8,6.1-4.3,6.5-7.6h-6.2L437.6,38.3L437.6,38.3z
	 M455.2,37.4c0.4,1,0.7,2.2,1.1,3.4l-1.5,0.6c-0.3-1.1-0.6-2.2-1-3.5L455.2,37.4L455.2,37.4z M460.1,43h2.7c0-0.6,0.1-1.2,0.1-1.9
	h-1.6C460.9,41.8,460.5,42.4,460.1,43z M458.4,37.6c0,2.4,0,3.7,0,4.1c0.9-1.1,1.6-2.5,2.2-4.1H458.4L458.4,37.6z M468.9,41h-3.8
	c0,0.7,0,1.3-0.1,1.9h4.4v1.9h-4.2c1.1,1.4,2.7,2.5,4.7,3.1c-0.5,0.7-1,1.4-1.5,2.1c-2-0.9-3.5-2.2-4.5-3.9c-0.9,1.7-2.4,3-4.6,4
	c-0.6-0.8-1.1-1.4-1.6-1.9c2.4-0.8,4-1.9,4.6-3.4h-3.7V43h1.2c-0.6-0.4-1.1-0.8-1.6-1c-0.1,3.4-1,6.2-2.7,8.3
	c-0.7-0.7-1.2-1.2-1.7-1.6c1.1-1.4,1.8-2.9,2.1-4.7c-0.7,0.4-1.3,0.8-1.9,1.1l-0.4-2.1c0.9-0.4,1.7-0.7,2.5-1.1c0-0.2,0-2.2,0-6.1
	h5.4l-0.6-1.2l2.6-0.4l0.6,1.7h5.3v1.9h-8.9l1.8,0.6l-0.4,0.9h6.6L468.9,41L468.9,41z M481.5,43.5c0.8,0.6,1.6,1.2,2.4,1.9v-2.3
	h-2.3L481.5,43.5 M479.4,43.1h-1.9v2.8C478.3,45.2,479,44.3,479.4,43.1z M477.4,50h-2v-8.7h4.3c0.1-0.4,0.1-0.8,0.1-1.3h-4.4v-1.8
	h10.9v1.8h-4.3c0,0.4,0,0.9-0.1,1.3h4v6.4c0,0.7-0.2,1.2-0.5,1.5c-0.3,0.4-0.8,0.6-1.5,0.7c-0.6,0.1-1.6,0.1-2.9,0.1
	c-0.2-0.9-0.4-1.7-0.5-2.1c0.4,0,1,0,1.7,0l0.4,0c0.4,0,0.7-0.1,0.9-0.2c0.2-0.2,0.3-0.4,0.3-0.8v-1l-1.1,1.2
	c-0.6-0.7-1.2-1.3-1.9-2c-0.5,1-1.2,1.8-2.1,2.5c-0.5-0.5-0.9-0.9-1.3-1.3L477.4,50L477.4,50z M478.2,34.2l2.7-0.2l0.3,1.3h5.3v1.9
	h-11.8v4.2c0,2.6-0.3,4.6-0.8,6c-0.6,1.4-1,2.3-1.4,2.7c-0.7-0.8-1.3-1.4-1.8-1.7c0.9-1,1.5-2.4,1.8-4.1c-0.6,0.4-1.1,0.7-1.6,1
	l-0.5-2.4c0.7-0.3,1.5-0.7,2.3-1.2l0-1.1l-1.5,0.4c-0.3-1.8-0.5-3.2-0.7-4l1.4-0.4c0.3,1.5,0.6,2.7,0.7,3.6v-4.9h5.8
	C478.5,35.3,478.2,34.2,478.2,34.2z M499.7,36.7h-5.2v2.2h5.2V36.7z M492.4,34.8h9.5v6.1h-3.7v1.5h4.7v1.8h-3.7
	c0.9,1.2,2.2,2.1,3.9,2.9c-0.5,0.9-1,1.6-1.3,2.1c-1.6-1-2.8-2.2-3.6-3.7v4.6h-2.3v-4.5c-1.1,1.5-2.3,2.8-3.8,3.8
	c-0.3-0.6-0.8-1.3-1.2-1.9c1.5-0.8,2.8-1.9,3.9-3.3h-3.4v-1.8h4.6v-1.5h-3.5L492.4,34.8L492.4,34.8z M489.8,34.1l2.2,0.6
	c-0.4,1.4-0.8,2.7-1.3,3.9v11.5h-2v-7.2c-0.4,0.6-0.7,1.2-1.1,1.8c-0.1-1-0.3-2.1-0.5-3.1C488.2,39.7,489.1,37.2,489.8,34.1
	L489.8,34.1z M514.3,36.5c-0.7,0.9-1.4,1.8-2.2,2.6h4.2C515.6,38.3,514.9,37.4,514.3,36.5 M514.5,41.6c0.4,1.6,0.7,3,1,4.4l-1.9,0.4
	c-0.3-1.5-0.6-2.9-1-4.4L514.5,41.6z M511.5,42.1c0.4,1.4,0.8,2.9,1.3,4.5l-1.9,0.6c-0.3-1.6-0.7-3.1-1.2-4.6L511.5,42.1L511.5,42.1
	z M509,47.6h6.2c0.7-1.9,1.2-3.8,1.6-5.7l2.2,0.5c-0.5,1.7-1.1,3.4-1.7,5.2h2.2v2H509L509,47.6L509,47.6z M517.5,41h-6.5v-0.8
	c-0.4,0.3-0.7,0.6-1.1,0.9c-0.3-0.7-0.7-1.4-1.1-2.1c1.8-1.2,3.4-2.9,4.7-4.9h2.4l-0.3,0.5c1.3,1.9,2.7,3.3,4.4,4.2
	c-0.4,0.6-0.7,1.3-1.2,2c-0.4-0.3-0.8-0.5-1.2-0.8L517.5,41L517.5,41z M508.1,40.8c0.9,1,1.3,2.3,1.3,3.7c0,0.9-0.2,1.6-0.6,2
	c-0.4,0.4-1.2,0.6-2.2,0.6c-0.1-0.7-0.2-1.4-0.4-2.3c0.2,0.1,0.5,0.1,0.6,0.1c0.4,0,0.7-0.3,0.7-1c0-1.1-0.4-2.1-1.2-3
	c0.4-1.4,0.8-2.8,1.1-4.3h-1.2v13.4h-1.9V34.9h5.2v1.5C509,38.1,508.5,39.5,508.1,40.8L508.1,40.8z M330.3,42.5v3.4h1.6
	c0.7,0,1.2-0.2,1.6-0.5c0.4-0.3,0.6-0.7,0.6-1.3c0-0.5-0.2-0.9-0.6-1.2c-0.4-0.3-0.9-0.4-1.6-0.4L330.3,42.5L330.3,42.5z
	 M330.3,37.4v3.1h1.3c0.6,0,1.1-0.1,1.4-0.4c0.4-0.3,0.5-0.7,0.5-1.2c0-1-0.7-1.4-2.1-1.4L330.3,37.4L330.3,37.4z M327.6,47.9V35.4
	h4.5c1.4,0,2.4,0.3,3.2,0.8c0.7,0.5,1.1,1.2,1.1,2.2c0,0.7-0.2,1.3-0.7,1.8c-0.5,0.5-1,0.9-1.7,1.1v0c0.9,0.1,1.6,0.4,2.1,1
	c0.5,0.5,0.8,1.2,0.8,2c0,1.1-0.4,2-1.2,2.7c-0.8,0.7-1.9,1-3.3,1L327.6,47.9L327.6,47.9z M128.9,60.3l0.9-0.8
	c1.2,1.1,2.3,2.2,3.3,3.4l-1.1,0.9C131.1,62.7,130.1,61.5,128.9,60.3 M141.9,60.4c-1.2,1.3-2.3,2.5-3.4,3.5l-1-0.9
	c1.1-1,2.2-2.2,3.3-3.5L141.9,60.4L141.9,60.4z M128,72.5h12.8v-2.8h-11.8v-1.1h11.8v-2.7h-12.4v-1.2h6.3v-6h1.3v6h6.1v9.9h-1.3v-1
	H128L128,72.5L128,72.5z M157,67.3h-5.1c0.5,1.4,1.2,2.6,2.3,3.6C155.4,69.9,156.3,68.7,157,67.3 M158.2,63.7h1.8
	c-0.1,0.4-0.2,0.8-0.3,1.2H158c-1.2,0-1.9-0.6-1.9-1.8v-2.5h-3.6v0.6c0,2.1-0.8,3.6-2.5,4.7c-0.3-0.4-0.6-0.7-0.9-1
	c1.4-0.8,2.1-2,2.1-3.7v-1.7h6v3.5C157.4,63.5,157.7,63.7,158.2,63.7z M143.9,67.3c0.8-0.2,1.5-0.4,2.4-0.7v-3.6h-2.2v-1.1h2.2v-3.1
	h1.2v3.1h2v1.1h-2v3.2c0.6-0.2,1.1-0.4,1.7-0.6c0,0.3,0,0.8,0,1.3c-0.6,0.2-1.2,0.4-1.8,0.6v5.1c0,1.2-0.5,1.8-1.6,1.8h-1.6
	c0-0.4-0.1-0.8-0.2-1.4c0.6,0.1,1.1,0.1,1.5,0.1c0.4,0,0.7-0.3,0.7-0.8v-4.4c-0.7,0.2-1.5,0.5-2.2,0.8
	C144.1,68.7,143.9,67.3,143.9,67.3z M150,67.3v-1.1h8.3v1.1c-0.7,1.7-1.8,3.2-3.1,4.3c1.3,0.8,2.9,1.4,4.9,1.7
	c-0.3,0.4-0.6,0.8-0.8,1.2c-2-0.4-3.7-1.2-5.1-2.1c-1.5,1-3.2,1.8-5.2,2.3c-0.2-0.4-0.5-0.8-0.7-1.1c2-0.4,3.6-1.1,5-2
	c-1.2-1.1-2-2.6-2.5-4.3L150,67.3L150,67.3z M173.9,60.6h-6.6v3.3h6.6V60.6z M160.4,66.6c1.4-2.2,2.6-4.8,3.4-7.9l1.2,0.4
	c-0.4,1.4-0.9,2.8-1.4,4v11.4h-1.2v-9c-0.5,0.9-0.9,1.6-1.5,2.4C160.8,67.5,160.6,67.1,160.4,66.6z M166.1,59.5h9v6.1h-1.2V65h-2.7
	v2.2h5.3v1.1h-4.4c1,1.7,2.5,3,4.5,3.9c-0.3,0.5-0.6,0.9-0.8,1.2c-2-1.2-3.6-2.9-4.7-5v6.3H170v-6.3c-1.3,2.4-2.9,4.1-4.9,5.4
	c-0.2-0.3-0.5-0.6-0.9-1c1.9-1.1,3.5-2.5,4.7-4.4h-4.2v-1.1h5.4V65h-2.7v0.7h-1.2L166.1,59.5L166.1,59.5z M177.1,73.2
	c4.7-2.7,7.2-7.5,7.5-14.3h1.4c-0.1,1.2-0.2,2.3-0.3,3.3c1.3,5.4,3.9,9,7.5,10.7c-0.5,0.5-0.9,1-1.2,1.4c-3.2-1.8-5.5-5-6.9-9.6
	c-1.2,4.4-3.5,7.7-7,9.8C177.8,74.1,177.5,73.6,177.1,73.2"/>
<path class="st1" d="M203.8,59.7l0.7-0.9c1.1,0.7,2.1,1.4,3,2.1l-0.9,1.1C205.8,61.2,204.8,60.4,203.8,59.7 M206.3,66.7h-5.9
	c0.5,1.5,1.4,2.8,2.9,3.9C204.8,69.4,205.8,68.1,206.3,66.7L206.3,66.7z M195.9,62.3h3.4c0.3-1.1,0.5-2.4,0.7-3.7l1.4,0.2
	c-0.2,1.2-0.4,2.4-0.7,3.5h9v1.2h-9.3c-0.2,0.7-0.4,1.4-0.6,2.1h8v1.1c-0.7,1.8-1.8,3.3-3.3,4.6c1.5,0.9,3.3,1.6,5.3,1.9
	c-0.5,0.5-0.9,1-1.1,1.4c-1.7-0.6-3.5-1.4-5.2-2.5c-1.4,0.9-3.4,1.8-6,2.6c-0.3-0.4-0.6-0.8-1-1.2c2.7-0.7,4.6-1.4,6-2.2
	c-1.4-1.2-2.4-2.7-3-4.6c-1.2,3-2.8,5.4-4.8,7.3c-0.3-0.4-0.6-0.8-0.9-1.1c2.4-2.2,4.2-5.3,5.4-9.4h-4.5v-1.2c0.4-1,0.8-2.1,1.2-3.1
	l1.3,0.4C196.6,60.5,196.3,61.4,195.9,62.3L195.9,62.3z M210.3,72.4h7.5v-4.1h-5.7V67h5.7v-3.7h-4.3c-0.7,1.3-1.5,2.5-2.5,3.5
	c-0.2-0.4-0.5-0.7-0.9-1.1c1.5-1.7,2.7-3.8,3.6-6.3l1.3,0.4c-0.3,0.8-0.6,1.5-0.9,2.3h3.6v-3.4h1.4V62h6.2v1.2h-6.2V67h5.7v1.2h-5.7
	v4.1h7.1v1.2h-16L210.3,72.4L210.3,72.4z M229.9,66.3h4.4v-1.4h-4.4V66.3z M239.9,64.9h-4.4v1.4h4.4V64.9z M229.9,68.5h4.4v-1.4
	h-4.4V68.5z M235.5,68.5h4.4v-1.4h-4.4V68.5z M226.9,73h7.4v-1.2h-6.2v-1h6.2v-1.4h-4.4V70h-1.1v-6.1h5.5v-1.2H227v-1h7.3v-1.3
	c-2,0.1-4,0.1-6.1,0.2c-0.1-0.3-0.1-0.7-0.2-1.1c5.5-0.1,9.9-0.2,13.3-0.4l0.2,1.1c-1.9,0.1-3.9,0.2-6,0.3v1.3h7.4v1h-7.4v1.2h5.6
	V70h-1.1v-0.6h-4.4v1.4h6.2v1h-6.2V73h7.4v1h-15.9L226.9,73L226.9,73z M243.4,62.6l1-0.4c0.4,0.9,0.8,1.9,1.2,3.1l-1.1,0.5
	C244.2,64.6,243.8,63.5,243.4,62.6 M251.3,59l1.2-0.5c0.3,0.6,0.7,1.2,1,1.9h5.8v1.2h-12.1v4.8c0,3.5-0.9,6.3-2.7,8.3
	c-0.2-0.3-0.6-0.6-0.9-0.9c1.4-1.6,2.1-3.4,2.4-5.6c-0.6,0.4-1.3,0.8-2.1,1.3l-0.3-1.4c1.1-0.5,1.9-0.9,2.5-1.3v-6.4h6.1
	C251.8,60,251.6,59.5,251.3,59L251.3,59z M246.8,73.5c3.1-0.9,4.9-2.3,5.5-4.4h-4.6V68h4.8c0.1-0.8,0.1-1.8,0.1-2.9h-2.5
	c-0.4,0.7-0.8,1.4-1.2,2c-0.3-0.2-0.6-0.5-1.1-0.7c0.9-1.3,1.7-2.8,2.3-4.6l1.2,0.4c-0.2,0.6-0.5,1.2-0.7,1.7h7.5v1.1h-4.3
	c0,1.1-0.1,2.1-0.2,2.9h5.3v1.1h-5c1.2,2.1,3.1,3.5,5.5,4.1c-0.3,0.4-0.5,0.9-0.8,1.3c-2.6-0.8-4.4-2.3-5.5-4.4
	c-0.8,2.2-2.7,3.7-5.7,4.6C247.3,74.3,247.1,73.9,246.8,73.5L246.8,73.5z M271.4,59.5l0.7-0.8c0.9,0.5,1.8,1.1,2.7,1.7l-0.8,1
	C273.2,60.7,272.3,60.1,271.4,59.5 M266.1,65.5h-3.5v2.7h3.5V65.5z M260.1,72.2c2.1-0.3,4.7-0.7,8.1-1.3c0,0.5,0,0.9,0,1.2
	c-2.4,0.4-5,0.8-7.8,1.3L260.1,72.2z M261.5,64.3h5.8V70h-1.2v-0.7h-3.5v1.1h-1.2C261.5,70.4,261.5,64.3,261.5,64.3z M266.7,73.7
	c1.3-0.9,2.5-2,3.5-3.2c-0.7-1.9-1.1-4.5-1.2-7.8h-8.7v-1.2h8.7c0-0.9-0.1-1.8-0.1-2.8h1.3c0,1,0,1.9,0,2.8h5.7v1.2h-5.7
	c0.1,2.7,0.4,4.9,0.9,6.6c1-1.5,1.9-3.1,2.5-4.9l1.3,0.5c-0.9,2.2-2,4.1-3.2,5.8c0.5,1,1.1,1.8,1.7,2.2c0.6,0.4,1,0.2,1.2-0.5
	c0.2-0.8,0.3-1.6,0.4-2.5c0.4,0.2,0.9,0.4,1.2,0.5c-0.2,1.2-0.4,2.2-0.6,2.8c-0.2,0.8-0.7,1.3-1.5,1.3c-0.6,0-1.2-0.2-1.8-0.7
	c-0.6-0.5-1.1-1.2-1.6-2c-1,1.1-2,2-3.2,2.8C267.4,74.4,267.1,74.1,266.7,73.7L266.7,73.7z M280.3,65.5h8.3V64h-8.3V65.5z
	 M288.6,61.5h-8.3V63h8.3V61.5z M280.3,68.1h8.3v-1.5h-8.3V68.1z M276.8,68.1h2.2v-7.7h3.7c0.3-0.6,0.5-1.2,0.6-1.8l1.4,0.3
	c-0.2,0.5-0.4,0.9-0.7,1.4h5.9v6.9c0.7-0.5,1.4-1.1,2-1.7l0.8,0.9c-0.9,0.8-1.9,1.5-2.9,2.2v3.2c0,1.6-0.7,2.5-2.1,2.5
	c-0.9,0-1.8,0-2.7,0c-0.1-0.4-0.2-0.8-0.3-1.3c0.8,0.1,1.6,0.1,2.5,0.1c0.8,0,1.3-0.4,1.3-1.3v-2.2c-3.3,2.1-7,3.8-11.2,5
	c-0.2-0.4-0.4-0.8-0.7-1.2c3.8-1,7.2-2.4,10.3-4.1h-10.2C276.8,69.2,276.8,68.1,276.8,68.1z M306.5,62.9h-3.5
	c0.2,2.5,0.8,4.6,1.7,6.3C305.8,67.5,306.3,65.4,306.5,62.9 M299.1,71.7v-3.9h-4v3.9H299.1z M293.9,66.6h2.6v-3.5h-3.3v-1.2h3.3
	v-3.3h1.3v3.3h3.2v1.2h-3.2v3.5h2.6v6.2h-5.2v1.1h-1.2L293.9,66.6L293.9,66.6z M303.1,58.6l1.3,0.2c-0.2,1-0.5,2-0.9,3h5.8v1.1h-1.4
	c-0.3,3.1-1,5.6-2.2,7.5c1,1.3,2.3,2.3,3.9,3c-0.4,0.5-0.7,0.9-0.9,1.3c-1.6-0.9-2.8-2-3.8-3.2c-1.1,1.2-2.4,2.3-3.9,3.3
	c-0.2-0.3-0.5-0.7-0.9-1c1.7-1.1,3.1-2.2,4-3.4c-0.9-1.6-1.6-3.5-1.8-5.7c-0.3,0.6-0.7,1.2-1.1,1.8c-0.2-0.3-0.5-0.7-0.8-1
	C301.6,63.4,302.6,61.1,303.1,58.6L303.1,58.6z M318.4,65c0.9,1.6,1.5,2.8,2,3.8c-0.3,0.1-0.7,0.3-1.3,0.6c-0.4-1-1-2.3-1.8-3.8
	L318.4,65L318.4,65z M314.7,61.4h-3v4.1h3V61.4z M311.7,70.8h3v-4.2h-3V70.8z M316.6,62.2h5.8v-3.6h1.3v3.6h2.3v1.2h-2.3v8.7
	c0,1.4-0.7,2.2-2.1,2.2c-0.6,0-1.5,0-2.8,0c-0.1-0.4-0.1-0.8-0.3-1.4c1.1,0.1,2,0.1,2.7,0.1c0.8,0,1.1-0.4,1.1-1.2v-8.5h-5.8
	C316.6,63.4,316.6,62.2,316.6,62.2z M310.4,60.2h5.6v13.2h-1.3V72h-3v1.5h-1.3L310.4,60.2L310.4,60.2z M335.3,70.4l-1.4,4.3h-1.1
	l1-4.3H335.3z M355.6,59.7l0.9-0.6c1,1.3,1.9,2.6,2.7,3.7l-0.9,0.8C357.4,62.1,356.5,60.8,355.6,59.7 M353.1,59.1l0.9,0.5
	c-1,1.7-1.9,3-2.9,4.1c-0.2-0.2-0.4-0.6-0.7-0.9C351.3,61.9,352.2,60.6,353.1,59.1z M348.9,70.4h-4.1v2.2h4.1V70.4z M343.3,60.5h3.3
	c-0.2-0.5-0.4-1-0.7-1.4l0.9-0.4c0.2,0.4,0.5,0.9,0.7,1.5l-0.9,0.4h3.9v2.1h-1v-1.1h-5.2v1.1h-1L343.3,60.5L343.3,60.5z M357,69.1
	h-4.2v3.4h4.2C357,72.5,357,69.1,357,69.1z M343.7,69.4h6.2v5h-1v-0.8h-4.1v0.8h-1C343.7,74.4,343.7,69.4,343.7,69.4z M343.2,67.2
	h3.1V66h-2.6v-0.9h2.6v-1.2h-2.7V63h2.7v-1h1v1h2.7v0.9h-2.7v1.2h2.6V66h-2.6v1.2h3.1v0.3c1.8-1.3,3.1-3,4-5.2h1.4l-0.2,0.5
	c0.9,2,2.1,3.5,3.7,4.5c-0.2,0.4-0.4,0.8-0.6,1.1c-1.5-1.2-2.8-2.7-3.7-4.5c-1,1.8-2.3,3.3-3.9,4.7c-0.2-0.4-0.4-0.7-0.6-1v0.6h-3.1
	v1.1h-1v-1.1h-3.1V67.2L343.2,67.2z M351.7,68h6.4v6.6H357v-1h-4.2v1h-1.1L351.7,68L351.7,68z M367.5,69.5h1.2v2.4
	c0,0.5,0.1,0.8,0.2,0.9c0.2,0.2,0.5,0.3,1,0.3h2.8c0.8,0,1.2-0.3,1.3-1c0.1-0.7,0.2-1.5,0.3-2.4c0.4,0.2,0.8,0.3,1.2,0.5
	c-0.1,0.8-0.2,1.6-0.3,2.3c-0.2,1.2-1,1.8-2.5,1.8h-3.2c-0.8,0-1.4-0.2-1.7-0.5c-0.3-0.3-0.5-0.8-0.5-1.7L367.5,69.5L367.5,69.5z
	 M369.8,61.5h-5.5c-0.5,0.6-1.1,1.3-1.7,1.8h5.4L369.8,61.5z M362.7,67.5h3.6c0.3-0.9,0.4-1.9,0.5-3h-4.1L362.7,67.5L362.7,67.5z
	 M372.4,64.4h-4.3c-0.1,1.1-0.2,2.2-0.4,3h4.7L372.4,64.4L372.4,64.4z M359.7,73.6c3.1-1,5.2-2.7,6.3-5h-3.2v0.6h-1.2v-4.9
	c-0.4,0.3-0.7,0.6-1.1,0.9c-0.1-0.2-0.4-0.5-0.9-1.1c1.9-1.3,3.7-3.2,5.4-5.6l1.2,0.5c-0.3,0.4-0.6,0.8-0.9,1.2h6.3v1.2l-1.8,1.8
	h3.9v5.9h-1.2v-0.6h-5.1c-1,2.8-3.3,4.8-6.8,6.2C360.2,74.3,359.9,73.9,359.7,73.6L359.7,73.6z M378.3,64h1.9v-1.3h-1.9V64z
	 M383.2,64v-1.3h-1.9V64H383.2z M389.9,61.6h-3.1c0.3,1.2,0.8,2.2,1.6,3C389.1,63.8,389.6,62.8,389.9,61.6z M384.6,67.1
	c1.2-0.5,2.2-1,3-1.7c-0.6-0.7-1.1-1.6-1.5-2.6c-0.3,0.5-0.5,0.9-0.8,1.3l-1-0.7c1-1.4,1.8-3,2.3-4.8l1.1,0.3
	c-0.2,0.6-0.4,1.1-0.6,1.6h4.9v1h-1.1c-0.4,1.5-0.9,2.7-1.7,3.7c0.8,0.5,1.8,1,3,1.3c-0.3,0.3-0.5,0.7-0.8,1.2c-1.2-0.4-2.2-1-3-1.6
	c-0.8,0.7-1.9,1.3-3.1,1.9C385.1,67.8,384.9,67.4,384.6,67.1L384.6,67.1z M376,67.2c1.4-0.6,2.6-1.4,3.8-2.4h-1.5v0.4h-1.1v-3.5h3
	v-1h-3.6v-1h3.6v-1.1h1.1v1.1h3.5v1h-3.5v1h3v3.5h-1.1v-0.4h-1.9v1l0.4-0.5c1,0.5,1.9,0.9,2.8,1.4l-0.5,0.9c-0.9-0.5-1.8-1-2.6-1.4
	V68h-1.1v-2.4c-1,1-2.2,1.8-3.5,2.6C376.5,67.9,376.2,67.6,376,67.2L376,67.2z M376.3,73.1h2.9v-2.9h1.2v2.9h3.4v-3.7h-6.4v-1h13.6
	v1h-6v1.2h5.3v1h-5.3v1.4h7.2v1h-15.9V73.1z M401.8,59l-0.2,0.4c1.8,2.9,4.2,4.9,7.3,6.2c-0.3,0.5-0.6,1-0.9,1.5
	c-3.2-1.7-5.6-3.8-7.2-6.4c-1.6,2.5-4,4.7-7.3,6.7c-0.2-0.4-0.5-0.8-0.8-1.3c3.4-1.9,5.9-4.2,7.5-7L401.8,59L401.8,59z M400,64.6
	h1.5v10H400V64.6z M409.9,60.7h7.3c-0.3-0.5-0.7-1-1.1-1.5l1.1-0.7c0.5,0.6,0.9,1.2,1.3,1.8l-0.8,0.5h7v2.8h-1.3v-1.6h-12.3v1.6
	h-1.3V60.7z M409.6,73c3.3-0.9,5.9-2.5,7.8-4.6c-0.2-0.3-0.3-0.6-0.5-0.9c-1.6,1.7-3.8,2.9-6.7,3.8c-0.2-0.4-0.4-0.7-0.6-1.1
	c2.8-0.8,4.9-2,6.5-3.7c-0.2-0.2-0.4-0.4-0.6-0.5c-1.4,1-3.2,1.8-5.3,2.5c-0.2-0.4-0.4-0.7-0.7-1.2c2.6-0.6,4.6-1.5,6.2-2.9h-4.1
	v-1.2h11.6v1.2h-5.9c-0.3,0.3-0.6,0.6-0.9,0.8c0.9,0.7,1.5,1.5,2,2.3c1.7-0.8,3.2-1.7,4.5-2.5l0.8,1c-0.9,0.5-1.8,1.1-2.8,1.6
	c1,2.1,2.5,3.5,4.7,4.3c-0.4,0.4-0.7,0.8-1,1.3c-2.1-1.1-3.7-2.8-4.7-5.1l-0.9,0.5c0.6,2.3,0.5,4-0.3,5c-0.4,0.5-1.1,0.7-2.2,0.7
	c-0.4,0-1.1,0-2-0.1c-0.1-0.4-0.1-0.9-0.2-1.3c0.8,0.1,1.6,0.1,2.2,0.1c1.2,0.1,1.7-0.6,1.7-2.1c0-0.5-0.1-1-0.2-1.4
	c-1.9,1.9-4.5,3.4-7.6,4.4C410,73.7,409.8,73.4,409.6,73L409.6,73z M433.9,70.1h3.1v-2.6h-2.9v-1.1h2.9v-2.3l-2.6,0.3l-0.3-1.1
	c2-0.2,4.2-0.4,6.5-0.8l0.3,1.1c-0.7,0.1-1.6,0.2-2.7,0.4v2.4h2.8v1.1h-2.8v2.6h3.1v1.1h-7.4L433.9,70.1L433.9,70.1z M433.4,59.1
	l1.1-0.5c0.5,0.8,0.8,1.4,1,1.9h6.1v1.1h-13.2v6.2c0,3-0.6,5.2-1.7,6.7c-0.3-0.3-0.6-0.7-0.9-1c0.9-1.2,1.4-3.2,1.4-5.9v-7.2h7
	C433.9,59.9,433.6,59.4,433.4,59.1L433.4,59.1z M430.5,68.6c0.2,0.7,0.5,1.3,0.9,1.8c0.4-0.8,0.7-1.7,0.8-2.7h-2.6v-0.9l2.2-2.7
	h-2.5V63h3.9v1.1l-2.1,2.6h2.3v1c-0.2,1.3-0.5,2.6-1.1,3.7c1,1,2.4,1.5,4.1,1.5c1.6,0.1,3.5,0,5.8-0.1c-0.2,0.4-0.3,0.8-0.4,1.2
	c-2,0-3.8,0-5.6,0c-1.9,0-3.4-0.6-4.5-1.6c-0.6,0.8-1.4,1.6-2.3,2.2c-0.3-0.3-0.6-0.6-0.9-0.9c1-0.7,1.7-1.4,2.4-2.2
	c-0.5-0.7-0.9-1.5-1.3-2.5C429.4,69,430.5,68.6,430.5,68.6z M451.1,65.8l1-0.7c1.2,1.4,2.2,2.6,2.9,3.7l-1.2,0.8
	C453,68.3,452.1,67,451.1,65.8 M448.1,62.6h-3.6v3.9h3.6C448.1,66.5,448.1,62.6,448.1,62.6z M444.5,71.8h3.6v-4.1h-3.6V71.8z
	 M449.7,64.7c1-1.6,1.9-3.6,2.6-6l1.4,0.3c-0.3,0.8-0.6,1.6-0.8,2.3h5.2c-0.1,5.6-0.2,9-0.3,10.5c-0.1,1.7-1,2.5-2.7,2.5
	c-1,0-2,0-3-0.1c-0.1-0.5-0.2-1-0.3-1.4h0.1c1.1,0.2,2.1,0.2,3,0.2c1,0,1.5-0.5,1.6-1.6c0.1-1.6,0.2-4.6,0.3-8.9h-4.3
	c-0.5,1-1,2-1.5,2.8C450.5,65,450.1,64.9,449.7,64.7L449.7,64.7z M443.2,61.3h1.6c0.4-1,0.7-1.9,1-2.7l1.4,0.4
	c-0.3,0.8-0.7,1.6-1,2.3h3.2v12.9h-1.3V73h-3.6v1.4h-1.3L443.2,61.3L443.2,61.3z M472.5,60.6h-6.6v3.3h6.6V60.6z M459,66.6
	c1.4-2.2,2.6-4.8,3.4-7.9l1.2,0.4c-0.4,1.4-0.9,2.8-1.4,4v11.4H461v-9c-0.5,0.9-1,1.6-1.5,2.4C459.4,67.5,459.2,67.1,459,66.6
	L459,66.6z M464.7,59.5h9v6.1h-1.2V65h-2.7v2.2h5.3v1.1h-4.4c1,1.7,2.5,3,4.5,3.9c-0.3,0.5-0.6,0.9-0.8,1.2c-2-1.2-3.6-2.9-4.7-5
	v6.3h-1.2v-6.3c-1.3,2.4-2.9,4.1-4.9,5.4c-0.2-0.3-0.6-0.6-0.9-1c1.9-1.1,3.5-2.5,4.7-4.4h-4.2v-1.1h5.4V65h-2.7v0.7h-1.2
	L464.7,59.5L464.7,59.5z M489.3,61.1h-2.7v1.4h2.7V61.1z M482.5,62.5h2.9v-1.4h-2.8C482.6,61.6,482.6,62,482.5,62.5z M478.3,64.9
	h2.7c0.1-0.4,0.2-0.9,0.3-1.5h-2.8L478.3,64.9z M482.3,64.9h3.2v-1.5h-2.9C482.4,64,482.4,64.5,482.3,64.9L482.3,64.9z M483.3,69.5
	h1.1c0,0.7-0.1,1.3-0.2,1.8c2.5,0.7,4.7,1.4,6.7,2.2l-0.6,1.2c-2.2-0.8-4.4-1.6-6.5-2.3c-0.7,1.1-2.9,1.9-6.6,2.3
	c-0.2-0.5-0.4-0.9-0.5-1.2c2.5-0.2,4.4-0.7,5.6-1.2C483,71.9,483.3,71,483.3,69.5L483.3,69.5z M487.7,66.9c0.6,0.1,1.1,0.1,1.5,0.1
	c0.4,0,0.7-0.2,0.7-0.5c0-0.2,0.1-0.5,0.1-0.7h-3.5v1.6h-1.2v-1.6h-3.5c-0.3,0.7-0.8,1.3-1.5,1.8h7.5
	C487.9,67.4,487.8,67.2,487.7,66.9L487.7,66.9z M476.8,60.1h4.6c0-0.5,0-0.9,0-1.4h1.2c0,0.4,0,0.9,0,1.4h2.8v-1.4h1.2v1.4h3.9v3.7
	h-1.2v-0.4h-2.7v1.5h4.6c0,0.8-0.1,1.4-0.2,2c-0.1,0.8-0.6,1.1-1.5,1.1h-0.5v3.9h-1.2v-3.3h-8.1v3.5h-1.2v-3.5
	c-0.7,0.3-1.4,0.6-2.3,0.8c-0.1-0.3-0.4-0.7-0.7-1.1c2.5-0.5,4.1-1.4,4.9-2.5H477l0.5-3.3h3.9c0-0.4,0.1-0.9,0.1-1.4h-4.6
	L476.8,60.1L476.8,60.1z M495.2,73.2c0.2,0,0.4-0.1,0.6-0.2c0.2-0.2,0.3-0.4,0.3-0.6c0-0.3-0.1-0.5-0.3-0.7
	c-0.2-0.2-0.4-0.2-0.6-0.2c-0.2,0-0.4,0.1-0.6,0.2c-0.2,0.2-0.2,0.4-0.2,0.7c0,0.3,0.1,0.5,0.3,0.6C494.8,73.1,495,73.2,495.2,73.2
	 M495.2,70.2c0.5,0,1,0.2,1.4,0.6c0.4,0.4,0.6,0.9,0.6,1.4c0,0.6-0.2,1.1-0.6,1.5c-0.4,0.4-0.9,0.6-1.4,0.6c-0.6,0-1-0.2-1.4-0.6
	c-0.4-0.4-0.6-0.9-0.6-1.5c0-0.6,0.2-1.1,0.6-1.5C494.2,70.4,494.6,70.2,495.2,70.2L495.2,70.2z"/>
<path class="st2" d="M0,0h640.4v145.3H0V0z"/>
<path class="st3" d="M150.4,99.5l0.4-0.1c0,0,0.3,0,0.8-0.1c0.5-0.1,0.9-0.2,1.1-0.2l0.1,0.3l0.1,0.8c0.1,0.3,0.1,0.7,0.2,1.1
	c0.1,0.4,0.2,0.9,0.4,1.3c-0.3,0.3-0.7,0.6-1.3,1c-0.6,0.4-1,0.7-1.4,0.9l-0.5,0.2l0.5,0.3c0.1,0.1,0.3,0.3,0.5,0.7l0.3-0.2l0.6-0.5
	c0.2-0.1,0.4-0.3,0.7-0.5c0.3-0.2,0.6-0.5,0.9-0.8c0.3,0.5,0.6,1,1,1.5c0.4,0.5,0.7,0.9,1.1,1.1c0.4,0.2,0.7,0.3,0.9,0.3
	c0.2,0,0.5-0.2,0.7-0.7c0.2-0.5,0.4-0.9,0.5-1.4c-0.3-0.2-0.8-0.5-1.2-0.9l0,0.5c0,0,0,0.2-0.1,0.4c0,0.2-0.1,0.4-0.2,0.5
	c-0.1,0.1-0.3,0-0.5-0.3c-0.2-0.3-0.5-0.7-0.7-1c-0.2-0.4-0.4-0.7-0.5-0.9c0.5-0.6,1-1.2,1.5-1.7c0.4-0.6,0.7-0.9,0.7-1l0.2-0.4
	c-0.4-0.2-0.8-0.4-1.2-0.6l-0.2,0.5c-0.1,0.2-0.2,0.5-0.5,0.9c-0.3,0.4-0.6,0.8-1,1.2c-0.1-0.3-0.2-0.8-0.3-1.3
	c-0.1-0.5-0.2-0.8-0.2-1c0-0.2,0-0.4-0.1-0.6c1.8-0.3,2.9-0.4,3.4-0.5l0.6-0.1l-0.1-0.6c0-0.1,0-0.3,0-0.6l-0.5,0.1
	c-1.3,0.3-2.4,0.4-3.4,0.6l-0.1-0.5c0-0.1-0.1-0.4-0.1-0.9c0-0.4,0-0.7,0-0.8c0-0.4,0-0.6,0-0.7c0-0.1,0-0.2,0-0.3l0.1-0.6
	c-0.4,0-0.9-0.1-1.4-0.2l0,0.6c0,0.1,0,0.2,0,0.4c0,0.2,0,0.5,0.1,1c0,0.5,0.1,0.8,0.1,1l0.1,0.9c0,0.1,0,0.2,0,0.3l-0.3,0.1
	l-0.8,0.1c-0.5,0.1-0.7,0.1-0.8,0.1h-0.3l0.1,0.7C150.3,98.9,150.3,99.1,150.4,99.5z M148.7,121.7c-1.1,0.1-1.7,0.1-1.8,0.1h-3.1
	v-2.4h2c0.3,0,0.8,0,1.5,0.1c-0.1-0.3-0.1-0.5-0.1-0.6c0-0.1,0-0.2,0-0.3c0-0.1,0-0.3,0.1-0.5c-0.6,0.1-1.1,0.1-1.5,0.1h-2v-2h2.2
	c0.4,0,1.1,0,1.9,0.1c-0.1-0.3-0.1-0.5-0.1-0.7c0-0.1,0-0.2,0-0.3c0-0.1,0-0.2,0.1-0.4c-1,0.1-1.7,0.1-2,0.1h-5.6
	c0.3-0.5,0.6-1,0.8-1.6c-0.7-0.2-1.2-0.4-1.5-0.6l-0.2,0.6c-0.2,0.7-0.5,1.4-0.8,2c-0.4,0.7-0.6,1.1-0.8,1.4
	c-0.2,0.2-0.4,0.5-0.6,0.7c-0.2,0.2-0.4,0.4-0.5,0.5l-0.2,0.2c0.5,0.2,1,0.4,1.3,0.7l0.1-0.1c0,0,0.2-0.2,0.5-0.7
	c0.3-0.4,0.6-0.8,0.7-1.1c0.2-0.3,0.4-0.6,0.6-0.9h2.8v2H140c-0.3,0-0.7,0-1.3-0.1l0,0.6l0,0.7v2.3h-1c-0.1,0-0.6,0-1.6-0.1l0.1,0.5
	c0,0,0,0.1,0,0.2c0,0.1,0,0.2,0,0.3c0,0.1,0,0.2,0,0.3c0.7-0.1,1.2-0.1,1.5-0.1h4.8v1.7c0,0.2,0,0.4,0,0.8c0,0.3,0,0.7-0.1,1.1
	c0.4,0,0.6-0.1,0.8-0.1c0.1,0,0.3,0,0.7,0.1l-0.1-0.8c0-0.6-0.1-0.9-0.1-0.9V123h3.1c0.4,0,1,0,1.9,0.1c0-0.3-0.1-0.5-0.1-0.6
	c0-0.1,0-0.2,0-0.3C148.7,122.1,148.7,122,148.7,121.7z M142.6,121.8H140v-2.4h2.6V121.8z M136.1,99.3c0.8,0,1.3-0.1,1.4-0.1l0.7,0
	v4.6c0,0.5-0.1,0.8-0.2,1c-0.1,0.2-0.2,0.3-0.3,0.4c0.4,0.6,0.7,1,0.9,1.2l0.5-0.6c0.4-0.4,0.7-0.8,1-1.1l0.6-0.6l0.5-0.5l0.5-0.5
	l-0.3-0.4c0,0-0.2-0.3-0.4-0.9l-0.4,0.4l-0.5,0.6l-0.8,0.9v-3.8c0-0.4,0-0.7,0-0.9c0-0.2,0-0.5,0.1-1c-0.5,0-0.9,0.1-1.3,0.1h-0.7
	c-0.4,0-0.9,0-1.4-0.1c0,0.4,0,0.6,0,0.6c0,0.1,0,0.2,0,0.2C136.2,98.9,136.1,99.1,136.1,99.3z M202.6,119.1
	c0.1-0.8,0.2-1.3,0.2-1.6c0-0.3,0.1-0.8,0.1-1.4c0-0.6,0.1-1,0.1-1.2l0.1-0.8c-0.5,0-1-0.1-1.6-0.3l0,1.5c0,0.1,0,0.3,0,0.7
	c0,0.4,0,1-0.1,1.7c-0.1,0.7-0.1,1.2-0.2,1.6c-0.1,0.3-0.1,0.7-0.2,1.1c-0.1,0.4-0.3,0.9-0.6,1.6c-0.3,0.7-0.9,1.4-2,1.9
	c-1,0.6-2.1,0.9-3.1,1.1l-0.3,0.1c0.4,0.3,0.7,0.5,0.8,0.7c0.1,0.1,0.3,0.4,0.5,0.7l0.3-0.2c1.5-0.7,2.5-1.3,3.1-1.7
	c0.5-0.4,1-1,1.5-1.6c1,0.9,1.7,1.7,2,2.1l0.4,0.6c0.3-0.4,0.8-0.8,1.2-1.1l-3-2.7C202.3,120.8,202.5,119.8,202.6,119.1z
	 M149.1,97.9c-0.7,0-1.3,0.1-1.8,0.1h-1.7v-2.3c0-0.4,0-0.7,0-0.9c0-0.2,0-0.6,0.1-1c-0.6,0-1,0-1.4,0l0.1,1c0,0.1,0,0.5,0,1V98
	h-1.7c-0.6,0-1.2,0-1.9-0.1c0,0.4,0.1,0.6,0.1,0.6c0,0,0,0.1,0,0.3c0,0.1,0,0.3,0,0.5c0.8,0,1.4-0.1,2-0.1h1.7v4.1
	c0,0.6,0,1.2,0,1.6c0,0.5,0,1.1-0.1,1.8c0.4,0,0.6-0.1,0.7,0c0.1,0,0.3,0,0.7,0l0-1.6c0-1.1,0-1.7,0-1.9v-4.1h1.6
	c0.5,0,1.2,0,1.9,0.1c0-0.4-0.1-0.6-0.1-0.6c0-0.1,0-0.2,0-0.3C149,98.2,149,98.1,149.1,97.9z M196.1,105.6c0,0.1,0,0.3-0.1,0.7
	l1.1,0l1.1,0h4.1c0.2,0,0.4,0,0.8,0c0.4,0,0.8,0,1.3,0l0-0.4l0-0.2c0,0,0-0.1,0-0.2c0-0.1,0-0.2,0-0.4c-0.7,0.1-1.4,0.1-2.1,0.1
	h-0.5l0.2-0.7l0.5-1.4c0.2-0.4,0.3-0.9,0.6-1.5l0.5-1.2c-0.5-0.1-1-0.3-1.4-0.5L202,101c-0.1,0.5-0.3,1.1-0.5,1.8
	c-0.2,0.6-0.5,1.4-0.8,2.3h-2.5c-0.7,0-1.4,0-2.1-0.1C196.1,105.3,196.1,105.6,196.1,105.6z M184.9,117.3l-0.5,0h-1.8v-2.1
	c0.7-0.1,1.4-0.2,2-0.3l0.4-0.1l-0.2-0.4c0,0-0.1-0.3-0.4-0.9l-0.5,0.2c-0.6,0.2-1.4,0.4-2.5,0.5c-1.1,0.2-1.9,0.3-2.6,0.3l-0.3,0
	c0.2,0.4,0.3,0.6,0.3,0.8c0.1,0.1,0.1,0.3,0.1,0.5l0.3-0.1c0.2,0,0.5-0.1,1-0.2c0.5-0.1,0.8-0.1,1-0.2v1.9h-1.8
	c-0.1,0-0.4,0-1.2-0.1l0,0.4v0.5c0,0.1,0,0.2,0,0.4c0.7-0.1,1.1-0.1,1.2-0.1h1.7c-0.3,0.7-0.7,1.4-1.2,2.2c-0.5,0.8-1.1,1.4-1.7,2
	l-0.3,0.3c0.4,0.3,0.6,0.5,0.7,0.6c0.1,0.1,0.2,0.3,0.3,0.4l0.3-0.4c0-0.1,0.2-0.3,0.5-0.7c0.3-0.4,0.5-0.7,0.7-1.1
	c0.2-0.3,0.5-0.8,0.8-1.5v4c0,0.2,0,0.4,0,0.8c0,0.3,0,0.7,0,1c0.4,0,0.6-0.1,0.7,0c0.1,0,0.3,0,0.7,0l0-0.8c0-0.6-0.1-0.9,0-1v-5.9
	h1.8c0.3,0,0.6,0,1.1,0.1l0-0.4v-0.2c0-0.2,0-0.3,0-0.3c0,0,0-0.2,0-0.3L184.9,117.3z M190.5,105.3c0-0.1,0-0.2,0-0.4
	c-1.3,0.1-2.3,0.1-2.9,0.1h-2.4v-3.4h2.1c0.5,0,1.1,0,1.9,0.1c0-0.3-0.1-0.5-0.1-0.6c0-0.1,0-0.2,0-0.3c0-0.1,0-0.2,0-0.4
	c-1,0.1-1.6,0.1-1.9,0.1h-2.1v-2.8h1.9c0.6,0,1.5,0,2.8,0.1c0-0.4-0.1-0.6-0.1-0.7c0-0.1,0-0.1,0-0.2c0-0.1,0-0.2,0.1-0.4
	c-1.5,0.1-2.4,0.1-2.8,0.1h-5.4c-0.4,0-1.2,0-2.6-0.1l0,0.5c0,0.1,0,0.2,0,0.4c0,0.2,0,0.4,0,0.5c1.1-0.1,1.9-0.1,2.6-0.1h2.2v2.8
	h-2.2c-0.3,0-1,0-2-0.1c0.1,0.3,0.1,0.6,0.1,0.6c0,0.1,0,0.2,0,0.3c0,0.1,0,0.2,0,0.4c0.8-0.1,1.5-0.1,2-0.1h2.2v3.4h-2.5
	c-0.4,0-1.4,0-2.9-0.1l0,0.4v0.2c0,0.1,0,0.3,0,0.6c1.1-0.1,2.1-0.1,2.9-0.1h6.3c0.9,0,1.9,0,2.9,0.1l0-0.4c0,0,0-0.1,0-0.3V105.3z
	 M188.8,113.7l0.1,1.1c0,0.3,0,0.6,0,1.1v8.4c0,0.2,0,0.3-0.1,0.3c-0.1,0.1-0.2,0.1-0.5,0.1c-0.3,0-0.7,0-1.2-0.1
	c0.2,0.5,0.3,0.9,0.4,1.1c0,0.2,0,0.4,0,0.5c1.3-0.2,2-0.3,2.2-0.4c0.2-0.1,0.3-0.1,0.3-0.2c0.1-0.1,0.1-0.2,0.1-0.4v-9.3
	c0-0.2,0-0.5,0-0.9c0-0.4,0-0.8,0.1-1.3c-0.5,0-0.9,0-1,0C189.2,113.7,189,113.7,188.8,113.7z M196.1,116.1l0.4,0.4
	c0.3,0.3,0.7,0.6,1,1.1c0.3,0.4,0.6,0.8,0.8,1.1l0.2,0.4c0.2-0.2,0.7-0.5,1.2-0.9l-2.6-3C196.9,115.4,196.6,115.7,196.1,116.1z
	 M187.3,122.1c0-0.1,0-0.3,0-0.5v-4.8c0-0.1,0-0.3,0-0.5c0-0.2,0-0.5,0-0.8c-0.4,0-0.6,0.1-0.7,0.1c-0.1,0-0.3,0-0.7-0.1l0.1,0.7
	c0,0.1,0,0.3,0,0.6v4.8c0,0.2,0,0.3,0,0.5c0,0.2,0,0.4-0.1,0.6c0.3,0,0.7,0,1.3,0L187.3,122.1z M197.8,103.3l0.1,0.8
	c0.3-0.1,0.7-0.2,1.2-0.2l-0.4-1.8c0-0.2-0.2-0.7-0.4-1.6c-0.5,0.2-0.9,0.2-1.2,0.3l0.2,0.7c0.1,0.2,0.1,0.5,0.2,1
	C197.7,102.8,197.7,103.1,197.8,103.3z M192.6,105.6c0,0.3,0,0.6-0.1,1.2c0.4,0,0.6-0.1,0.7,0c0.1,0,0.3,0,0.6,0l-0.1-1.2
	c0-0.1,0-0.5,0-1.1v-8.6h1.6c-0.4,1.3-0.6,2.1-0.7,2.4c-0.1,0.3-0.3,0.7-0.5,1.1c0.5,0.8,0.9,1.4,1.1,1.8c0.1,0.4,0.2,0.6,0.2,0.8
	c0,0.2,0,0.4,0,0.5c0,0.2-0.1,0.3-0.1,0.4c-0.1,0.1-0.3,0.2-0.6,0.2c-0.2,0-0.4,0-0.8-0.1c0.3,0.5,0.5,0.7,0.5,0.8
	c0,0.1,0.1,0.3,0.2,0.7c0.8-0.2,1.3-0.4,1.5-0.7c0.2-0.2,0.4-0.5,0.5-0.8c0.1-0.3,0.1-0.5,0.1-0.7c0-0.2,0-0.5-0.1-0.7
	c-0.1-0.3-0.2-0.6-0.3-0.9c-0.1-0.3-0.4-0.8-0.9-1.4l1.6-4.7c-0.5,0-1,0.1-1.5,0.1h-1.5c-0.4,0-0.9,0-1.4-0.1l0.1,1.3
	c0,0.7,0,1,0,1.1v7.4C192.6,105,192.6,105.3,192.6,105.6z M199.7,102.9l0.1,0.7c0.3-0.1,0.7-0.2,1.2-0.2l-0.3-1.7
	c0-0.2-0.2-0.7-0.4-1.7c-0.3,0.1-0.7,0.2-1.2,0.2l0.2,0.6c0,0.2,0.1,0.5,0.2,1C199.7,102.3,199.7,102.7,199.7,102.9z M164.6,119.5
	l0.6-0.2c0.2-0.1,1-0.2,2.3-0.4c-0.6,0.9-1.2,1.6-1.6,2c-0.4,0.4-0.9,0.6-1.3,0.8l0.2,0.5c0,0.1,0.1,0.2,0.1,0.3
	c0,0.2,0,0.3,0.1,0.5l0.8-0.2c0.8-0.2,2-0.3,3.6-0.4l0.6,0l0-0.5l0-0.1c0,0,0-0.1,0-0.2c0-0.1,0-0.2,0.1-0.5
	c-1.2,0.2-2.1,0.4-2.6,0.4l-0.8,0.1l0.5-0.6c0.8-0.9,1.6-2.1,2.5-3.4l0.5-0.8c-0.4-0.2-0.8-0.4-1.1-0.7l-0.3,0.5
	c-0.2,0.5-0.5,0.9-0.7,1.2l-2.2,0.2l0.3-0.5c0.3-0.6,0.7-1.2,0.9-1.7l0.4-0.8l0.5-0.8l0.3-0.5c-0.5-0.1-0.9-0.3-1.2-0.6l-0.2,0.7
	c-0.2,0.6-0.5,1.3-0.9,2.1c-0.4,0.8-0.7,1.4-0.9,1.6c-0.2,0.2-0.5,0.4-0.8,0.5c0.1,0.4,0.2,0.7,0.3,0.8
	C164.5,119.1,164.5,119.2,164.6,119.5z M161.6,124.9c-0.3,0-0.7-0.1-1.1-0.1c-0.4-0.1-1.1-0.3-1.8-0.6c0.8-0.8,1.4-1.4,1.7-1.8
	c0.3-0.4,0.5-0.8,0.8-1.3c-0.6,0-1.1,0.1-1.7,0.1h-3.9c-0.5,0-1.1,0-1.7-0.1c0,0.3,0.1,0.5,0,0.5c0,0.1,0,0.1,0,0.2
	c0,0.1,0,0.2,0,0.3l1.1-0.1c0.2,0.5,0.5,0.9,0.6,1.1c0.2,0.3,0.5,0.6,0.9,1c-1.3,0.5-2.5,0.8-3.6,0.8h-0.5l0.3,0.4l0.2,0.3
	c0,0,0.1,0.1,0.1,0.3c0.1,0.1,0.2,0.3,0.2,0.4l0.4-0.1c1.2-0.3,2.5-0.7,3.9-1.3c1,0.5,1.9,0.9,2.6,1.1c0.7,0.2,1.1,0.3,1.1,0.3
	l0.4,0.1l0.2-0.4c0.4-0.5,0.6-0.8,0.8-1l-0.4,0L161.6,124.9z M157.5,123.7c-0.4-0.2-0.6-0.5-0.8-0.7c-0.2-0.2-0.4-0.5-0.5-0.8h2.9
	c-0.3,0.5-0.6,0.9-0.8,1C158,123.4,157.8,123.5,157.5,123.7z M133.4,102.4c-0.7-0.4-1.1-0.9-1.5-1.3c-0.3-0.5-0.6-0.9-0.8-1.3
	c-0.2-0.4-0.3-0.6-0.4-0.8c-0.1-0.2-0.2-0.4-0.3-0.8l-0.1-0.4h1.8c0.5,0,1.3,0,2.4,0.1c0-0.4-0.1-0.6-0.1-0.7c0-0.1,0-0.2,0-0.3
	c0-0.1,0-0.3,0-0.5l-1.2,0l-1.2,0h-2.9v-1.3c0-0.1,0-0.3,0-0.6c0-0.3,0-0.6,0.1-1c-0.4,0-0.6,0.1-0.7,0.1c-0.1,0-0.3,0-0.7-0.1
	l0.1,0.8c0,0.2,0,0.5,0,0.8v1.3H125c-0.2,0-0.5,0-0.9,0c-0.4,0-0.9,0-1.4-0.1l0,0.4v0.5c0,0.1,0,0.3,0,0.5c0.8-0.1,1.6-0.1,2.4-0.1
	h2l-0.1,0.4c-0.1,0.4-0.4,0.9-0.6,1.4c-0.3,0.6-0.6,1.1-1,1.5c-0.3,0.4-0.8,0.9-1.3,1.3c-0.5,0.4-0.8,0.7-0.9,0.8
	c-0.1,0.1-0.4,0.2-0.7,0.4l-0.5,0.3c0.3,0.1,0.6,0.3,0.7,0.4c0.2,0.1,0.4,0.3,0.7,0.6l0.4-0.3c1-0.9,1.7-1.6,2.1-2.2
	c0.4-0.6,0.8-1.2,1.2-1.9c0.4-0.7,0.7-1.5,0.9-2.2l0.2-0.6h0.1v5.3H127c-0.1,0-0.3,0-0.6,0c-0.3,0-0.6,0-1-0.1c0,0.4,0,0.6,0,0.7
	c0,0.1,0,0.2,0,0.2c0,0.1,0,0.2,0,0.4c0.5-0.1,1-0.1,1.6-0.1h1.1v0.8c0,0.3,0,0.6,0,0.9c0,0.3,0,0.6-0.1,1c0.4,0,0.6-0.1,0.7,0
	c0.1,0,0.3,0,0.7,0l0-1l0-0.9v-0.8h1.1c0.5,0,1,0,1.5,0.1c0-0.4-0.1-0.6-0.1-0.6c0-0.1,0-0.1,0-0.2c0-0.1,0-0.2,0.1-0.4l-0.8,0
	l-0.8,0h-1.1v-5.3l0.1,0l0.2,0.7c0.1,0.4,0.2,0.9,0.5,1.5c0.2,0.6,0.5,1.1,0.8,1.6c0.3,0.5,0.7,0.9,1.1,1.3c0.4,0.4,0.8,0.7,1.2,1
	c0.3,0.3,0.6,0.5,0.7,0.5l0.3,0.2c0.2-0.4,0.5-0.7,0.7-0.9c0.2-0.1,0.4-0.3,0.7-0.4l-0.5-0.2C134.6,103.1,134,102.8,133.4,102.4z
	 M169.7,123.5l-0.5,0.2c-0.8,0.2-2.2,0.5-4.3,0.8l-0.6,0.1c0.2,0.5,0.2,0.8,0.3,0.9c0,0.1,0.1,0.3,0.1,0.6l0.6-0.2
	c0.9-0.3,2.1-0.6,3.7-0.9l0.6-0.1l0-0.5c0,0,0-0.1,0-0.3C169.6,123.9,169.7,123.7,169.7,123.5z M162.8,117.4c-0.6,0-1.1,0.1-1.6,0.1
	h-1v-0.4c0-0.2,0-0.3,0-0.4c0-0.1,0-0.3,0.1-0.5c-0.3,0-0.6,0.1-0.6,0.1c-0.1,0-0.3,0-0.6-0.1l0.1,0.5c0,0.1,0,0.2,0,0.5v0.3h-2.9
	v-0.4c0-0.2,0-0.3,0-0.4c0-0.1,0-0.3,0.1-0.5c-0.4,0-0.6,0.1-0.7,0.1c-0.1,0-0.2,0-0.5-0.1l0,0.4c0,0.1,0,0.2,0,0.4v0.4h-2.1v-1.6
	h6.9c0.2,0,0.5,0,1,0c0.5,0,1,0,1.6,0c0-0.3-0.1-0.5-0.1-0.5c0-0.1,0-0.1,0-0.2c0-0.1,0-0.2,0.1-0.4c-1.2,0.1-2.1,0.1-2.6,0.1h-1.8
	l-0.6-1.7c-0.5,0.2-0.9,0.3-1.3,0.4l0.2,0.4c0.2,0.3,0.3,0.6,0.4,0.9h-3.5c-0.2,0-0.7,0-1.6-0.1l0.1,2.1c0,0.3,0,0.6,0,1.1
	c0,0.5,0,1.2-0.1,2.2c0,1-0.1,1.8-0.3,2.3c-0.2,0.6-0.4,1.1-0.5,1.4c-0.2,0.3-0.3,0.6-0.4,0.8l-0.3,0.5c0.4,0.2,0.7,0.4,0.8,0.5
	c0.1,0.1,0.2,0.2,0.4,0.3l0.3-0.6c0.2-0.5,0.4-1.1,0.7-1.8c0.2-0.7,0.4-1.3,0.4-1.7c0.1-0.4,0.1-0.9,0.2-1.5c0.1-0.6,0.1-1,0.1-1.3
	c0-0.3,0-0.6,0-0.9h2.1v0.9c0,0.2,0,0.4,0,0.6c0,0.2,0,0.4,0,0.6c0.4,0,0.9-0.1,1.3-0.1h2.6c0.4,0,0.8,0,1.3,0.1l-0.1-0.6
	c0-0.1,0-0.3,0-0.6v-0.9h1c0.5,0,1,0,1.6,0.1l0-0.4c0,0,0-0.1,0-0.1c0-0.1,0-0.1,0-0.2C162.8,117.7,162.8,117.6,162.8,117.4z
	 M159.2,119.7h-2.9v-1.2h2.9V119.7z M182.7,120l0.4,0.5c0.2,0.3,0.5,0.7,0.9,1.3l0.2,0.4c0.5-0.3,0.8-0.6,1.1-0.7l-1.6-2.2
	C183.3,119.6,183,119.8,182.7,120z M176.8,124.7c0-0.1,0-0.3,0-0.5c-0.7,0.1-1.4,0.1-2.1,0.1h-1v-8.6h0.8c0.7,0,1.3,0,2,0.1
	c0-0.4-0.1-0.7-0.1-0.8c0-0.2,0-0.3,0.1-0.6c-1.2,0.1-1.9,0.1-2,0.1h-2.5c-0.1,0-0.8,0-2-0.1l0.1,0.5c0,0.1,0,0.2,0,0.4
	c0,0.2,0,0.4,0,0.5c0.6,0,1.2-0.1,1.9-0.1l0.6,0v8.6h-0.7c-0.2,0-0.4,0-0.8,0c-0.4,0-0.8,0-1.3-0.1l0,0.5v0.2c0,0.2,0,0.3,0,0.3
	c0,0,0,0.2,0,0.4c0.7-0.1,1.3-0.1,2-0.1h3c0.7,0,1.4,0,2.2,0.1c0-0.4-0.1-0.6-0.1-0.7C176.7,124.9,176.7,124.8,176.8,124.7z
	 M196.7,122.2l0.8-0.7c-0.2-0.2-0.4-0.5-0.5-0.6c-0.1-0.2-0.2-0.4-0.3-0.7c-0.6,0.8-1.1,1.5-1.6,2l-0.6,0.6l0.1-6.6
	c0-0.4,0-0.7,0-0.9c0-0.2,0-0.5,0.1-0.9l-0.5,0l-0.2,0c0,0-0.1,0-0.2,0c-0.1,0-0.3,0-0.5,0l0.1,0.8c0,0.4,0,0.6,0,0.8
	c0,0.1,0,0.2,0,0.2l-0.1,6.1c0,0.6,0,1-0.1,1.1c0,0.1-0.1,0.3-0.2,0.3c-0.1,0.1-0.2,0.2-0.3,0.3c0.4,0.4,0.7,0.7,0.8,0.8
	c0.1,0.1,0.2,0.3,0.4,0.5l0.4-0.5c0.2-0.3,0.5-0.6,0.8-1l0.8-0.9C196.3,122.6,196.6,122.3,196.7,122.2z M320.9,98.5
	c0,0.2,0,0.4,0,0.7c0.8,0,1.4-0.1,1.6-0.1h4.4c0.2,0,0.8,0,1.6,0.1l-0.1-0.7c0-0.1,0-0.3,0-0.7v-1.7c0-0.4,0-0.6,0-0.8
	c0-0.2,0-0.4,0.1-0.7c-0.5,0-1.1,0.1-1.6,0.1h-4.4c-0.5,0-1.1,0-1.6-0.1l0,0.7c0,0.1,0,0.4,0,0.8v1.7
	C320.9,98.1,320.9,98.3,320.9,98.5z M322,95.6h5.2v2.6H322V95.6z M334.1,119.4l0.3,0.2c0.7,0.4,1.3,0.7,1.7,1l0.3,0.3l0.4-0.6
	c0-0.1,0.2-0.2,0.4-0.4l-2.4-1.4C334.6,118.8,334.4,119.1,334.1,119.4z M346.6,99.9l0.6-0.2c0.2-0.1,1-0.2,2.3-0.4
	c-0.6,0.9-1.2,1.6-1.6,2c-0.4,0.4-0.9,0.6-1.3,0.8l0.2,0.5c0,0.1,0.1,0.2,0.1,0.3c0,0.2,0,0.3,0.1,0.5l0.8-0.2
	c0.8-0.2,2-0.3,3.6-0.4l0.6,0l0-0.5l0-0.1c0,0,0-0.1,0-0.2c0-0.1,0-0.2,0.1-0.5c-1.2,0.2-2.1,0.4-2.6,0.4l-0.8,0.1l0.5-0.6
	c0.8-0.9,1.6-2.1,2.5-3.4l0.5-0.8c-0.4-0.2-0.8-0.4-1.1-0.7l-0.3,0.5c-0.2,0.5-0.5,0.9-0.7,1.2l-2.2,0.2l0.3-0.5
	c0.3-0.6,0.7-1.2,0.9-1.7l0.4-0.8l0.5-0.8l0.3-0.5c-0.5-0.1-0.9-0.3-1.2-0.6l-0.2,0.7c-0.2,0.6-0.5,1.3-0.9,2.1
	c-0.4,0.8-0.7,1.4-0.9,1.6c-0.2,0.2-0.5,0.4-0.8,0.5c0.1,0.4,0.2,0.7,0.3,0.8C346.5,99.5,346.5,99.7,346.6,99.9z M267.7,103.9
	l-0.5,0.2c-0.8,0.2-2.2,0.5-4.3,0.8l-0.6,0.1c0.2,0.5,0.2,0.8,0.3,0.9c0,0.1,0.1,0.3,0.1,0.6l0.6-0.2c0.9-0.3,2.1-0.6,3.7-0.9
	l0.6-0.1l0-0.5c0,0,0-0.1,0-0.3C267.6,104.3,267.7,104.1,267.7,103.9z M335.1,106.5c0.2-0.1,0.3-0.1,0.4-0.2
	c0.1-0.1,0.2-0.2,0.3-0.4c0.1-0.2,0.1-0.4,0.1-0.6v-1.6h-1.7v1.5h0.8v0.2c0,0.1,0,0.2,0,0.3c0,0.1-0.1,0.2-0.2,0.2
	c-0.1,0.1-0.2,0.1-0.3,0.1c-0.1,0-0.2,0-0.3,0v0.6l0.3,0C334.8,106.6,334.9,106.5,335.1,106.5z M333,116.9c0,0.2,0,0.4-0.1,0.6
	c0.5,0,0.8,0,0.9,0c0.1,0,0.2,0,0.4,0l-0.1-0.6c0-0.1,0-0.3,0-0.6v-0.5h8.9v0.5c0,0.2,0,0.4,0,0.6c0,0.1,0,0.3-0.1,0.6
	c0.6,0,0.9,0,1,0c0.1,0,0.2,0,0.4,0l0-0.6c0-0.2,0-0.4,0-0.6v-0.6c0-0.1,0-0.2,0-0.4c0-0.2,0-0.4,0-0.7c-0.6,0.1-1.1,0.1-1.4,0.1
	h-3.2l-0.4-1.5c-0.5,0.1-1,0.2-1.4,0.3l0.2,0.4c0.1,0.2,0.2,0.5,0.3,0.8h-4.2c-0.3,0-0.8,0-1.3-0.1l0.1,0.6c0,0.1,0,0.2,0,0.4v0.7
	C333,116.6,333,116.8,333,116.9z M319,105.6c0,0.3,0,0.7-0.1,1.1c0.5-0.1,0.9-0.1,1.2,0l0-0.5v-0.7h2.6v0.3c0,0.2,0,0.4,0,0.4
	c0,0.1,0,0.2,0,0.4c0.4,0,0.6-0.1,0.6,0c0.1,0,0.3,0,0.7,0l-0.1-0.9c0-0.1,0-0.4,0-1v-2.9c0-0.4,0-0.7,0-0.8c0-0.2,0-0.4,0.1-0.8
	c-0.5,0-1,0.1-1.5,0.1h-2.1c-0.5,0-1,0-1.5-0.1l0,0.7c0,0.3,0,0.6,0,0.9v3C319,105.1,319,105.3,319,105.6z M320.1,101.4h2.6v2.9
	h-2.6V101.4z M325.1,100.2l0.1,0.7c0,0.1,0,0.4,0,0.9v2.9c0,0.4,0,0.7,0,0.9c0,0.2,0,0.5-0.1,0.9c0.4-0.1,0.8-0.1,1.2,0l0-0.4v-0.7
	h2.9v0.3c0,0.2,0,0.3,0,0.4c0,0,0,0.1,0,0.3c0.4-0.1,0.8-0.1,1.2,0l-0.1-1c0-0.1,0-0.4,0-0.9v-2.8c0-0.4,0-0.7,0-0.9
	c0-0.2,0-0.4,0.1-0.8c-0.8,0-1.3,0.1-1.5,0.1h-2.3C326.4,100.3,325.9,100.2,325.1,100.2z M329.2,101.4v3h-2.9v-3H329.2z M268,95.7
	c0,0.2,0,0.4,0,0.5c0.6,0,1.2-0.1,1.9-0.1l0.6,0v8.6h-0.7c-0.2,0-0.4,0-0.8,0c-0.4,0-0.8,0-1.3-0.1l0,0.5v0.2c0,0.2,0,0.3,0,0.3
	c0,0,0,0.2,0,0.4c0.7-0.1,1.3-0.1,2-0.1h3c0.7,0,1.4,0,2.2,0.1c0-0.4-0.1-0.6-0.1-0.7c0-0.1,0-0.1,0-0.3c0-0.1,0-0.3,0-0.5
	c-0.7,0.1-1.4,0.1-2.1,0.1h-1v-8.6h0.8c0.7,0,1.3,0,2,0.1c0-0.4-0.1-0.7-0.1-0.8c0-0.2,0-0.3,0.1-0.6c-1.2,0.1-1.9,0.1-2,0.1h-2.5
	c-0.1,0-0.8,0-2-0.1l0.1,0.5C268,95.4,268,95.5,268,95.7z M327.1,114.7l0.3,0.2c0.1,0.1,0.2,0.2,0.4,0.4c0.2,0.2,0.3,0.4,0.4,0.5
	l0.2,0.2c0.2-0.2,0.4-0.3,0.6-0.4c0.2-0.1,0.3-0.2,0.5-0.3l-1.4-1.4C327.7,114.2,327.4,114.5,327.1,114.7z M338,118.6
	c0-0.1,0.2-0.2,0.5-0.5l-2.4-1.5l-0.3,0.5c0,0.1-0.2,0.2-0.5,0.4l0.4,0.2c0.5,0.2,1,0.6,1.5,1l0.4,0.4L338,118.6z M444.7,97.8
	c0,0.1,0,0.3,0,0.6c0.4-0.1,0.9-0.1,1.3,0l-0.1-0.5c0-0.1,0-0.2,0-0.5v-0.8h9.3v0.6c0,0.2,0,0.4,0,0.5c0,0.1,0,0.3-0.1,0.6
	c0.4,0,0.6,0,0.7,0c0.1,0,0.3,0,0.7,0l-0.1-0.5c0-0.1,0-0.3,0-0.6v-0.6c0-0.2,0-0.4,0-0.5c0-0.1,0-0.3,0.1-0.6c-1,0-1.5,0.1-1.7,0.1
	h-3.2l-0.5-1.6c-0.4,0.2-0.9,0.2-1.5,0.3l0.2,0.4c0.2,0.3,0.3,0.6,0.4,0.9h-3.8c-0.2,0-0.8,0-1.8-0.1l0,0.6c0,0.1,0,0.3,0,0.6v0.8
	C444.7,97.5,444.7,97.7,444.7,97.8z M467.7,102.2l-1.4-2.5c-0.3,0.2-0.7,0.4-1,0.5c0.7,1.1,1.1,1.9,1.2,2.4l0.1,0.3
	C467,102.6,467.3,102.4,467.7,102.2z M430.6,102.5l0.3-0.5c0.1-0.1,0.3-0.5,0.6-1.1v2.4c0,0.5,0,0.9,0,1.1c0,0.2,0,0.6-0.1,1.1
	c0.3,0,0.5-0.1,0.6,0c0.1,0,0.3,0,0.6,0l0-0.6v-1.1h1.3v0.3c0,0.2,0,0.4,0,0.4c0,0.1,0,0.2,0,0.3c0.3,0,0.5-0.1,0.6,0
	c0.1,0,0.2,0,0.6,0c-0.4,0.4-0.7,0.6-0.8,0.7l-0.3,0.2c0.4,0.3,0.7,0.4,0.8,0.5c0.1,0.1,0.2,0.2,0.4,0.4l0.4-0.4
	c0.3-0.3,0.6-0.6,0.8-0.9c0.2-0.3,0.4-0.6,0.5-1c0.1-0.4,0.3-0.8,0.4-1.3h1.6v1.4c0,0.4,0,0.7,0,0.9c0,0.2,0,0.5-0.1,0.9
	c0.4,0,0.7,0,0.8,0c0.1,0,0.2,0,0.4,0l-0.1-0.9c0-0.1,0-0.4,0-0.9v-1.4h1.7v1.5c0,0.2,0,0.3-0.1,0.4c-0.1,0.1-0.2,0.1-0.4,0.1
	c-0.3,0-0.6,0-1-0.1l0.3,0.5c0,0.1,0.1,0.2,0.1,0.3c0,0.2,0,0.3,0.1,0.5c0.9,0,1.4-0.1,1.6-0.3c0.2-0.2,0.3-0.3,0.4-0.4
	c0-0.1,0.1-0.4,0.1-0.7V99c0-0.4,0-0.7,0-0.9c0-0.2,0-0.5,0.1-0.9c-0.5,0-1,0.1-1.4,0.1h-1l1.6-2.2c-0.6,0-1.1,0.1-1.6,0.1h-2
	c0.1-0.2,0.3-0.4,0.6-0.7l0.3-0.4c-0.5-0.2-0.9-0.4-1.3-0.6l-0.2,0.5c-0.1,0.2-0.2,0.5-0.5,0.8c-0.2,0.4-0.5,0.7-0.7,1
	c-0.2,0.2-0.4,0.5-0.7,0.7c-0.2,0.2-0.4,0.4-0.6,0.4l-0.6,0.3c0.3,0.2,0.6,0.3,0.7,0.4c0.1,0.1,0.2,0.2,0.4,0.4l0.4-0.3l0.1,0.8
	c0,0,0,0.1,0,0.1c0,0.1,0,0.2,0,0.3c0,0.2,0,0.4,0,0.8l0,0.9c0,0.4,0,0.9-0.1,1.4c0,0.5-0.1,1-0.3,1.4c-0.2,0.4-0.4,0.8-0.6,1.1
	l-0.1-0.9c0-0.5,0-0.8,0-0.9v-3.4c0-0.1,0-0.3,0-0.5c0-0.2,0-0.5,0.1-0.8c-0.5,0-1,0.1-1.3,0.1H433c0.2-0.5,0.4-1.2,0.7-2.2h0.8
	c0.5,0,0.9,0,1.5,0.1l0-0.4c0,0,0-0.1,0-0.3v-0.2c0-0.1,0-0.2,0-0.4c-0.5,0-1,0.1-1.4,0.1h-2.4c-0.4,0-0.9,0-1.4-0.1
	c0,0.3,0.1,0.5,0,0.6c0,0.1,0,0.1,0,0.2c0,0.1,0,0.2,0,0.4c0.5,0,1-0.1,1.4-0.1h0.4c-0.1,0.6-0.3,1.2-0.4,1.6
	c-0.1,0.5-0.4,1-0.7,1.6c-0.3,0.6-0.7,1.1-1,1.4l-0.3,0.3c0.2,0.4,0.4,0.7,0.5,0.8C430.5,102.1,430.6,102.3,430.6,102.5z
	 M438.7,102.1h-1.5l0-1.3h1.5V102.1z M438.7,99.9h-1.5l0-1.4h1.4V99.9z M441.5,102.1h-1.7v-1.3h1.7V102.1z M441.5,98.5v1.4h-1.7
	v-1.4H441.5z M437.7,96.2h2.2l-0.8,1.1h-2.5L437.7,96.2z M432.7,99.5h1.3v3.5h-1.3V99.5z M458.9,105.1c0,0.3,0,0.7-0.1,1.2
	c0.4,0,0.7,0,0.8,0c0.1,0,0.2,0,0.4,0c0-0.4,0-0.7,0-0.8v-0.8h2.7v0.8c0,0.1,0,0.2,0,0.3c0,0.1,0,0.3,0,0.4c0.5,0,0.8,0,0.9,0
	c0.1,0,0.2,0,0.4,0l-0.1-1.1c0-0.3,0-0.6,0-1.1v-5c0.5,0.2,0.8,0.3,1.1,0.5l0.1-0.2l1.1-2h3l-0.4,6.7c0,0.2-0.1,0.4-0.1,0.6
	c-0.1,0.2-0.1,0.4-0.3,0.5c-0.1,0.1-0.4,0.2-0.9,0.2c-0.3,0-0.6,0-1-0.1l-0.3-0.1c0.3,0.5,0.5,0.8,0.6,1.1c0,0.2,0.1,0.4,0.1,0.6
	c1-0.1,1.7-0.2,2.2-0.5c0.5-0.2,0.7-0.5,0.8-0.7c0.1-0.3,0.1-0.5,0.2-0.7l0.6-8.5c-0.4,0-0.7,0.1-1.1,0.1h-2.8
	c0.3-0.7,0.6-1.5,0.9-2.2c-0.4-0.1-0.9-0.3-1.3-0.6l-0.1,0.5c0,0.2-0.1,0.4-0.2,0.8c-0.1,0.4-0.2,0.7-0.3,0.9
	c-0.1,0.2-0.2,0.6-0.5,1.2c-0.3,0.6-0.6,1.1-1,1.6l-0.2,0.3l0-1.2c0-0.3,0-0.5,0-0.7c0-0.2,0-0.4,0.1-0.8c-0.7,0-1.1,0.1-1.2,0.1
	h-1.4l0.3-1.1l0.2-0.8l0.2-0.6c-0.5-0.1-0.9-0.2-1.4-0.3l0,0.8c0,0.5-0.1,1.1-0.3,1.9h-0.5c-0.1,0-0.5,0-1-0.1l0.1,0.8
	c0,0.3,0,0.5,0,0.7v6.2C458.9,104.4,458.9,104.7,458.9,105.1z M460,97.4h2.7v2.8H460V97.4z M460,101.1h2.7v2.7H460V101.1z
	 M395.7,95.8c0.7,0,1.2-0.1,1.3-0.1h1.9v3.1h-1.8c-0.1,0-0.5,0-1.1-0.1l0.1,0.5c0,0.1,0,0.2,0,0.5v5.5c0,0.2,0,0.4,0,0.5
	c0,0.1,0.1,0.2,0.3,0.3c0.2,0.1,0.6,0.1,1.2,0.1c1.6,0.1,2.5,0,2.8-0.2c0.3-0.2,0.4-0.4,0.5-0.6c0.1-0.3,0.2-0.7,0.4-1.2
	c-0.5-0.2-0.9-0.5-1.3-0.9l-0.1,0.6c0,0.1,0,0.3-0.1,0.6c-0.1,0.3-0.2,0.4-0.4,0.5c-0.2,0.1-0.6,0.1-1.3,0.1c-0.5,0-0.8,0-0.8-0.1
	c-0.1-0.1-0.1-0.1-0.1-0.2v-5.1h1.8v0.5c0,0,0,0.1,0,0.2c0,0.1,0,0.2,0,0.4c0.3,0,0.6,0,0.6,0c0.1,0,0.3,0,0.6,0l-0.1-0.8
	c0-0.1,0-0.4,0-0.8v-3.6c0-0.2,0-0.4,0-0.5c0-0.1,0-0.3,0.1-0.6c-0.4,0-0.8,0.1-1.1,0.1H397c-0.4,0-0.9,0-1.3-0.1c0,0.4,0,0.7,0,0.7
	c0,0,0,0.1,0,0.2C395.7,95.5,395.7,95.6,395.7,95.8z M352,95.7c0,0.2,0,0.4,0,0.5c0.6,0,1.2-0.1,1.9-0.1l0.6,0v8.6h-0.7
	c-0.2,0-0.4,0-0.8,0c-0.4,0-0.8,0-1.3-0.1l0,0.5v0.2c0,0.2,0,0.3,0,0.3c0,0,0,0.2,0,0.4c0.7-0.1,1.3-0.1,2-0.1h3
	c0.7,0,1.4,0,2.2,0.1c0-0.4-0.1-0.6-0.1-0.7c0-0.1,0-0.1,0-0.3c0-0.1,0-0.3,0-0.5c-0.7,0.1-1.4,0.1-2.1,0.1h-1v-8.6h0.8
	c0.7,0,1.3,0,2,0.1c0-0.4-0.1-0.7-0.1-0.8c0-0.2,0-0.3,0.1-0.6c-1.2,0.1-1.9,0.1-2,0.1h-2.5c-0.1,0-0.8,0-2-0.1l0.1,0.5
	C352,95.4,352,95.5,352,95.7z M404.6,99c0,0.2,0,0.4-0.1,0.6c0.5-0.1,0.9-0.1,1.3-0.1h5.7c0.3,0,0.8,0,1.3,0.1
	c-0.1-0.6-0.1-0.9-0.1-1.1v-3c0-0.2,0-0.5,0.1-1.1c-0.7,0.1-1.1,0.1-1.3,0.1h-5.7c-0.2,0-0.6,0-1.3-0.1c0.1,0.6,0.1,0.9,0.1,1.1v3
	C404.7,98.7,404.7,98.9,404.6,99z M405.9,95.5h5.6v1h-5.6V95.5z M405.9,97.5h5.6v1.1h-5.6V97.5z M356.8,120.5c0,0.2,0,0.6-0.1,1
	c0.4,0,0.6,0,0.7,0c0.1,0,0.3,0,0.7,0l-0.1-1.1c0-0.1,0-0.5,0-1v-4.1c0-0.3,0-0.5,0-0.7c0-0.2,0-0.4,0.1-0.7c-0.5,0-1,0.1-1.3,0.1
	h-3.9c-0.3,0-0.7,0-1.2-0.1l0.1,0.7c0,0.1,0,0.3,0,0.7v4.2c0,0.4,0,0.8,0,1c0,0.2,0,0.5-0.1,1c0.4,0,0.6-0.1,0.7,0
	c0.1,0,0.3,0,0.7,0l-0.1-1c0-0.2,0-0.6,0-1v-4.3h3.8v4.3C356.8,119.9,356.8,120.2,356.8,120.5z M351.7,103.9l-0.5,0.2
	c-0.8,0.2-2.2,0.5-4.3,0.8l-0.6,0.1c0.2,0.5,0.2,0.8,0.3,0.9c0,0.1,0.1,0.3,0.1,0.6l0.6-0.2c0.9-0.3,2.1-0.6,3.7-0.9l0.6-0.1l0-0.5
	c0,0,0-0.1,0-0.3C351.6,104.3,351.7,104.1,351.7,103.9z M134.9,121.8c-0.8,0.1-1.6,0.1-2.3,0.1H132v-5.8h1c0.2,0,0.7,0,1.5,0.1
	l0-0.4v-0.2c0-0.2,0-0.3,0-0.3c0,0,0-0.2,0-0.3c-0.4,0-0.9,0.1-1.5,0.1l-0.9,0v-0.4c0-0.2,0-0.4,0-0.6c0-0.2,0-0.4,0.1-0.7
	c-0.5,0.1-0.9,0.1-1.4,0l0,0.6c0,0.3,0,0.5,0,0.6v0.4h-4v-0.4c0-0.2,0-0.3,0-0.5c0-0.1,0-0.3,0.1-0.6c-0.4,0-0.7,0.1-0.9,0.1
	c-0.1,0-0.3,0-0.5,0l0.1,0.6c0,0.1,0,0.3,0,0.5v0.4l-0.7,0c-0.8,0-1.3,0-1.8-0.1l0,0.4c0,0.1,0,0.2,0,0.3c0,0.2,0,0.3,0,0.5
	c1,0,1.6-0.1,1.7-0.1h0.7v5.8H125c-0.8,0-1.7,0-2.5-0.1l0,0.4v0.2c0,0.1,0,0.3,0,0.7l1.3,0l1.3,0h7.4c0.2,0,0.5,0,0.9,0
	c0.4,0,0.9,0,1.5,0l-0.1-0.4c0,0,0-0.1,0-0.2c0-0.1,0-0.2,0-0.3C134.8,122.2,134.8,122,134.9,121.8z M130.7,121.9h-4v-1.2h4V121.9z
	 M130.7,119.7h-4v-1.3h4V119.7z M130.7,117.5h-4v-1.4h4V117.5z M165.4,102c0,0.3,0,0.6,0,1c0.4,0,0.6-0.1,0.6,0c0.1,0,0.3,0,0.7,0
	c0-0.2,0-0.3,0-0.4V102h3.3v3c0,0.2,0,0.5,0,0.7c0,0.3,0,0.7-0.1,1.2c0.5-0.1,1-0.1,1.4,0l-0.1-1.1l0-0.7v-3h3.3v0.5
	c0,0,0,0.1,0,0.2c0,0.1,0,0.2,0,0.3c0.4,0,0.6-0.1,0.7-0.1c0.1,0,0.4,0,0.7,0.1l-0.1-0.8c0-0.1,0-0.3,0-0.7v-3.8c0-0.2,0-0.3,0-0.5
	c0-0.2,0-0.4,0.1-0.7c-0.8,0.1-1.3,0.1-1.5,0.1h-3.2v-0.8c0-0.1,0-0.4,0-0.7c0-0.3,0-0.8,0.1-1.3c-0.3,0.1-0.6,0.1-0.7,0.1
	c-0.1,0-0.4,0-0.7-0.1l0.1,1.2c0,0.3,0,0.5,0,0.7c0,0.1,0,0.2,0,0.3v0.7h-3.2c-0.3,0-0.7,0-1.4-0.1l0,0.6c0,0.2,0,0.5,0,0.7v3.8
	C165.4,101.5,165.4,101.8,165.4,102z M171.2,97.6h3.3v3.3h-3.3V97.6z M166.7,97.6h3.3v3.3h-3.3V97.6z M158.3,103.1
	c0,0.1,0,0.4-0.1,0.6c0.3,0,0.5-0.1,0.6,0c0.1,0,0.3,0,0.6,0l0-0.6c0-0.2,0-0.4,0-0.6v-5.5c0-0.2,0-0.5,0.1-1.1
	c-0.4,0.1-0.8,0.1-1.2,0l0.1,0.7c0,0.1,0,0.3,0,0.4v5.4C158.3,102.7,158.3,102.9,158.3,103.1z M213.7,102.4c0.2,0.3,0.3,0.5,0.4,0.6
	l0.2,0.4c0.4-0.3,0.8-0.5,1.1-0.7l-1.5-2c-0.5,0.3-0.9,0.6-1.1,0.7l0.5,0.5C213.3,101.9,213.5,102.1,213.7,102.4z M183.9,95.4
	c0.1,0.3,0.2,0.4,0.3,0.6l0.1,0.3c0.4-0.3,0.9-0.5,1.3-0.6l-1-1.9c-0.4,0.2-0.8,0.4-1.3,0.6l0.2,0.4C183.7,95,183.8,95.2,183.9,95.4
	z M159.9,106.6c1.1-0.2,1.7-0.3,2-0.4c0.3-0.1,0.4-0.3,0.4-0.5v-9.4c0-0.3,0-0.7,0-1c0-0.4,0-0.9,0.1-1.5c-0.4,0-0.6,0.1-0.7,0.1
	c-0.1,0-0.3,0-0.7-0.1l0.1,1.4c0,0.4,0,0.7,0,1.1v8.5c0,0.2-0.1,0.3-0.4,0.3c-0.2,0-0.5,0-0.7,0c-0.2,0-0.4,0-0.4,0
	c0.2,0.5,0.3,0.9,0.4,1C159.8,106.3,159.8,106.4,159.9,106.6z M129.9,124.2l0.5,0.2c0.5,0.3,1.1,0.6,1.6,0.9c0.6,0.4,0.9,0.6,1,0.7
	l0.4,0.3l0.3-0.3l0.3-0.4c0.1-0.1,0.2-0.2,0.3-0.4l-3.5-2C130.5,123.6,130.2,124,129.9,124.2z M126.3,123.6c-0.4,0.3-1,0.7-1.5,1
	c-0.6,0.3-1,0.5-1.1,0.6l-0.4,0.2c0.3,0.3,0.5,0.5,0.6,0.6c0.1,0.1,0.2,0.2,0.2,0.4l0.4-0.3c0.9-0.6,1.6-1,1.9-1.2
	c0.4-0.2,0.6-0.4,0.8-0.5l0.5-0.3c-0.3-0.3-0.6-0.6-0.9-0.9L126.3,123.6z M155,95.6l0.3,0.5c0.1,0.2,0.2,0.3,0.2,0.3l0.2,0.4
	c0.4-0.3,0.8-0.5,1.2-0.8l-1.3-1.8c-0.3,0.3-0.7,0.5-1.1,0.6l0.2,0.3C154.7,95.3,154.9,95.5,155,95.6z M138.2,95.5l0.4,0.7
	c0.2,0.3,0.3,0.5,0.3,0.5l0.2,0.4l0.4-0.3c0,0,0.3-0.2,0.9-0.4l-1.6-2.4c-0.4,0.3-0.8,0.5-1.2,0.6l0.2,0.3
	C138,95.2,138.1,95.4,138.2,95.5z M262.6,99.9l0.6-0.2c0.2-0.1,1-0.2,2.3-0.4c-0.6,0.9-1.2,1.6-1.6,2c-0.4,0.4-0.9,0.6-1.3,0.8
	l0.2,0.5c0,0.1,0.1,0.2,0.1,0.3c0,0.2,0,0.3,0.1,0.5l0.8-0.2c0.8-0.2,2-0.3,3.6-0.4l0.6,0l0-0.5l0-0.1c0,0,0-0.1,0-0.2
	c0-0.1,0-0.2,0.1-0.5c-1.2,0.2-2.1,0.4-2.6,0.4l-0.8,0.1l0.5-0.6c0.8-0.9,1.6-2.1,2.5-3.4l0.5-0.8c-0.4-0.2-0.8-0.4-1.1-0.7
	l-0.3,0.5c-0.2,0.5-0.5,0.9-0.7,1.2l-2.2,0.2l0.3-0.5c0.3-0.6,0.7-1.2,0.9-1.7l0.4-0.8l0.5-0.8l0.3-0.5c-0.5-0.1-0.9-0.3-1.2-0.6
	l-0.2,0.7c-0.2,0.6-0.5,1.3-0.9,2.1c-0.4,0.8-0.7,1.4-0.9,1.6c-0.2,0.2-0.5,0.4-0.8,0.5c0.1,0.4,0.2,0.7,0.3,0.8
	C262.5,99.5,262.5,99.7,262.6,99.9z M241.1,102.6c0,0.2,0,0.5-0.1,0.8c0.5-0.1,0.9-0.1,1.2,0l-0.1-0.8c0-0.1,0-0.4,0-0.8V98h3.2v3.6
	c0,0.3,0,0.6,0,0.8c0,0.2,0,0.5-0.1,0.9c0.4-0.1,0.8-0.1,1.2,0l0-0.9c0-0.4,0-0.7,0-0.9v-3.1c0-0.2,0-0.4,0-0.6s0-0.5,0-0.9
	c-0.4,0-0.8,0.1-1.2,0.1H244l0.4-1.6h1.2c0.2,0,0.7,0,1.5,0.1l0-0.4v-0.2c0-0.1,0-0.2,0-0.3c0,0,0-0.1,0-0.3c-0.5,0-1,0.1-1.5,0.1
	h-3c-0.5,0-1,0-1.5-0.1c0,0.3,0.1,0.5,0,0.5c0,0.1,0,0.1,0,0.2c0,0.1,0,0.2,0,0.4c0.8,0,1.3-0.1,1.5-0.1h0.7L243,97h-0.7
	c-0.4,0-0.8,0-1.2-0.1l0.1,0.7c0,0.1,0,0.3,0,0.6v3.5C241.1,102.1,241.1,102.4,241.1,102.6z M245.1,105.6c0.3,0.3,0.6,0.5,0.7,0.7
	l0.4,0.5c0.3-0.4,0.6-0.7,0.9-1l-2.6-2.2c-0.2,0.2-0.4,0.4-0.5,0.5c-0.1,0.1-0.3,0.2-0.5,0.3l0.6,0.4
	C244.5,105.1,244.8,105.3,245.1,105.6z M234.5,96.9c0,0.1,0,0.3-0.1,0.5c0.5,0,0.9,0,1.2,0l-0.1-0.5c0-0.1,0-0.2,0-0.4V96h4.2v0.4
	c0,0.1,0,0.3,0,0.4c0,0.1,0,0.2,0,0.4c0.3,0,0.5,0,0.6,0c0.1,0,0.3,0,0.6,0l-0.1-0.4c0-0.1,0-0.2,0-0.4v-0.6c0-0.1,0-0.3,0-0.4
	c0-0.1,0-0.2,0.1-0.4c-0.4,0-0.8,0.1-1.2,0.1h-1.3l-0.4-1.4c-0.7,0.1-1.1,0.2-1.2,0.2l0.2,0.4l0.2,0.5c0,0.1,0.1,0.2,0.1,0.3h-1.5
	c-0.4,0-0.9,0-1.3-0.1l0.1,0.5c0,0.1,0,0.2,0,0.5v0.4C234.5,96.6,234.5,96.7,234.5,96.9z M243.1,102.4c0,0.2-0.1,0.5-0.1,0.7
	c-0.1,0.2-0.2,0.5-0.4,0.8c-0.2,0.3-0.5,0.7-0.9,1c-0.4,0.3-0.9,0.6-1.5,0.8l-0.4,0.1c0.4,0.4,0.7,0.7,0.8,1.1l0.4-0.2
	c0.2-0.1,0.5-0.3,1-0.7c0.5-0.4,0.9-0.7,1.2-1.1c0.3-0.4,0.5-0.7,0.6-0.9c0.1-0.3,0.2-0.6,0.3-1.1c0.1-0.5,0.1-0.8,0.2-1l0-0.9
	l0.1-1l0.1-1.3c-0.2,0-0.6,0-1.2,0l0,0.8c0,0.3,0,0.8,0,1.4C243.1,101.7,243.1,102.2,243.1,102.4z M207.4,106.6l0.4-0.2
	c1-0.6,1.8-1.1,2.1-1.5c0.4-0.4,0.7-0.7,1-1.1c0.3-0.4,0.6-0.8,1-1.3c0.4-0.5,0.7-1.2,0.9-1.9c0.2-0.7,0.4-1.4,0.5-1.9h3.3l-0.4,4.3
	c0,0.2-0.1,0.5-0.1,0.8c0,0.3-0.1,0.6-0.3,0.9c-0.1,0.3-0.5,0.4-1,0.4c-0.4,0-0.8,0-1.2-0.1c0.3,0.4,0.4,0.8,0.5,1
	c0,0.2,0.1,0.5,0.1,0.6c1.7-0.1,2.6-0.4,2.8-0.9c0.2-0.5,0.4-0.9,0.4-1.1c0-0.3,0.1-0.7,0.1-1.1l0.4-4.3c0-0.1,0-0.3,0.1-0.7
	c0-0.3,0.1-0.7,0.1-1c-0.7,0-1.3,0.1-1.8,0.1h-2.6l0.1-0.7l0.2-1.1c0-0.3,0.1-0.6,0.1-0.9l0.2-1c-0.4,0-1-0.1-1.5-0.2l0,1
	c0,0.7-0.1,1.7-0.4,2.9h-2.3c-1,0-1.9,0-2.8-0.1l0,0.4v0.5c0,0.1,0,0.2,0,0.4c1.3-0.1,2.2-0.1,2.8-0.1h2l-0.2,0.7
	c0,0.2-0.2,0.5-0.4,1c-0.2,0.5-0.4,0.9-0.7,1.4c-0.3,0.5-0.8,1.1-1.5,1.8c-0.7,0.7-1.6,1.3-2.6,1.6l-0.7,0.2
	c0.5,0.3,0.8,0.5,0.9,0.6C207.1,106.1,207.2,106.3,207.4,106.6z M212.5,114c0.3,0.4,0.5,0.7,0.7,1l0.1,0.2c0.3-0.2,0.6-0.4,0.9-0.6
	l-1.1-1.4c-0.3,0.3-0.6,0.4-0.8,0.5L212.5,114z M227.2,95.5l0.1,0.2c0.3-0.2,0.6-0.4,0.9-0.6l-1.1-1.4c-0.3,0.3-0.6,0.4-0.8,0.5
	l0.2,0.2C226.8,94.8,227.1,95.2,227.2,95.5z M210,96.7l0.1,0.3c0.3-0.2,0.7-0.4,1.3-0.6l-1.4-2.2c-0.2,0.2-0.7,0.3-1.2,0.6l0.5,0.6
	C209.5,95.8,209.7,96.2,210,96.7z M388.3,95.7c0.4,0,0.9-0.1,1.3-0.1h1.1v1.6h-1c-0.3,0-0.6,0-0.9-0.1l0,0.5c0,0.2,0,0.4,0,0.5v6.5
	c0,0.2,0,0.5,0,0.8c0,0.3,0,0.7,0,1.1c0.3,0,0.5-0.1,0.5,0c0.1,0,0.2,0,0.6,0l0-0.3l0-0.3v-0.5h4.1v0.4c0,0,0,0.1,0,0.2
	c0,0.1,0,0.2,0,0.3c0.3,0,0.5-0.1,0.5,0c0.1,0,0.2,0,0.6,0l-0.1-0.9c0-0.1,0-0.4,0-0.9v-6.4c0-0.2,0-0.3,0-0.5c0-0.1,0-0.3,0.1-0.5
	c-0.4,0-0.7,0.1-1,0.1h-0.8v-1.6h0.9c0.4,0,0.9,0,1.3,0.1c0-0.3-0.1-0.5-0.1-0.5c0-0.1,0-0.1,0-0.2c0-0.1,0-0.2,0-0.4
	c-0.5,0-0.9,0.1-1.3,0.1h-4.5c-0.4,0-0.9,0-1.3-0.1l0,0.4v0.2C388.3,95.3,388.3,95.5,388.3,95.7z M393.9,104.6h-4.1v-1.2h4.1V104.6z
	 M393.2,98.1h0.7v2.5h-0.3c-0.3,0-0.4,0-0.4-0.1c0-0.1,0-0.2,0-0.3V98.1z M391.4,95.7h0.9v1.6h-0.9V95.7z M391.3,100.2
	c0-0.5,0.1-0.9,0.1-1.1c0-0.3,0-0.5,0-0.6c0-0.1,0-0.2,0-0.3l0.9,0v2.9c0,0.1,0.1,0.2,0.2,0.3c0.1,0.1,0.4,0.2,0.9,0.1l0.2,0h0.3
	v1.2h-4.1v-1.1c0.2,0.1,0.5,0.2,0.8,0.4l0.2-0.2C391.1,101.2,391.3,100.7,391.3,100.2z M390.7,98.4c0,0,0,0.2,0,0.5
	c0,0.3,0,0.5,0,0.7c0,0.2,0,0.3-0.1,0.5c0,0.2-0.1,0.4-0.2,0.6s-0.2,0.4-0.2,0.5c-0.1,0.1-0.2,0.2-0.3,0.4v-3.3h0.9V98.4z
	 M411,116.7l0.4-0.6c0.1-0.1,0.2-0.3,0.3-0.6h1c0.5,0,1.2,0,1.9,0.1l-0.1-0.4c0-0.1,0-0.3,0-0.4c0-0.1,0-0.3,0.1-0.4
	c-0.7,0-1.4,0.1-1.9,0.1h-4.2c-0.6,0-1.3,0-2.2-0.1l0,0.4v0.4c0,0.1,0,0.2,0,0.4c0.8,0,1.5-0.1,2.1-0.1h1.9c-0.4,0.7-0.7,1.2-1,1.7
	c-0.3,0.5-0.8,1.1-1.5,1.8c-0.7,0.7-1.2,1.2-1.7,1.5l-0.6,0.4c0.4,0.2,0.7,0.4,0.8,0.6c0.1,0.1,0.2,0.3,0.3,0.4l0.5-0.5
	c0,0,0.2-0.2,0.4-0.4c0.3-0.2,0.6-0.6,1.1-1.1c0.5-0.5,0.8-0.8,0.9-1v2.7c0,0.5,0,0.9,0,1.2c0,0.3,0,0.7,0,1.2c0.3,0,0.5,0,0.6,0
	c0.1,0,0.3,0,0.6,0l-0.1-1.2c0-0.2,0-0.6,0-1.2v-4.2L411,116.7z M403.9,113.9c-0.2,0.1-0.4,0.1-0.6,0.2l0.2,0.4
	c0.1,0.2,0.2,0.5,0.4,0.9c0.2,0.4,0.3,0.7,0.3,0.9l0.2,0.6l0.4-0.2c0.1,0,0.4-0.1,0.9-0.3l-1.1-2.8
	C404.3,113.7,404.1,113.8,403.9,113.9z M403.5,106.5l0.7-1.1c0.1-0.1,0.2-0.2,0.3-0.5c0.2-0.3,0.3-0.5,0.5-0.8
	c0.7,1,1.5,1.6,2.4,1.8c0.9,0.2,3.1,0.5,6.6,0.7l0.4,0l0.1-0.4c0-0.2,0.1-0.3,0.2-0.5c0.1-0.1,0.3-0.4,0.7-0.8l-0.2,0
	c-0.7,0.1-1.7,0.2-2.8,0.2c-0.2,0-1.2,0-3.1-0.1v-1.8h2.3c0.4,0,1,0,1.8,0.1l0-0.4c0-0.1,0-0.2,0-0.2c0,0,0-0.1,0-0.2
	c0-0.1,0-0.2,0-0.4c-0.7,0.1-1.3,0.1-1.8,0.1h-2.3v-1.2h3.6c0.3,0,0.9,0,1.8,0.1l-0.1-0.4v-0.2c0-0.1,0-0.2,0-0.2c0,0,0-0.2,0.1-0.3
	c-1.1,0.1-1.7,0.1-1.8,0.1h-8.5c-0.3,0-0.9,0-1.7-0.1l0,0.4v0.4c0,0.1,0,0.2,0,0.4c0.9-0.1,1.4-0.1,1.7-0.1h3.7v3.8
	c-0.7-0.2-1.3-0.4-1.6-0.8c-0.3-0.3-0.6-0.7-0.8-1.2l0.1-0.3l0.2-0.3l0.2-0.3c-0.6-0.1-1-0.3-1.4-0.5l-0.1,0.4
	c-0.1,0.3-0.2,0.6-0.3,1c-0.1,0.3-0.4,0.8-0.8,1.3c-0.4,0.6-0.8,1-1.4,1.4L402,106c0.6,0.1,1,0.4,1.4,0.8L403.5,106.5z M412.8,120.4
	c0.3,0.5,0.6,0.8,0.7,1l0.3,0.6c0.5-0.4,0.8-0.7,1.2-0.9l-2.7-3.2c-0.2,0.2-0.3,0.4-0.5,0.5c-0.2,0.1-0.3,0.2-0.5,0.3l0.4,0.5
	C412.1,119.5,412.4,119.9,412.8,120.4z M397.8,122.4c-0.7-0.7-1.2-1.3-1.4-1.9l-0.2-0.4h1.4c0.2,0,0.4,0,0.8,0c0.4,0,0.8,0,1.2,0
	c0-0.3-0.1-0.5-0.1-0.6c0-0.1,0-0.2,0-0.2c0-0.1,0-0.2,0-0.4c-0.9,0.1-1.6,0.1-2,0.1h-2.3v-2.1h3c0.5,0,1.3,0,2.2,0.1
	c0-0.3-0.1-0.6-0.1-0.6c0-0.1,0-0.2,0-0.2c0-0.1,0-0.2,0-0.4c-1.1,0.1-1.8,0.1-2.2,0.1h-3v-0.5c0-0.1,0-0.4,0-0.7
	c0-0.4,0-0.7,0.1-1.2c-0.4,0-0.6,0.1-0.7,0.1c-0.1,0-0.3,0-0.7-0.1l0.1,0.9c0,0.1,0,0.4,0,0.9v0.5h-2.7c-0.5,0-1.3,0-2.5-0.1
	c0,0.4,0,0.6,0,0.6c0,0.1,0,0.1,0,0.3c0,0.1,0,0.2,0,0.4c1.1-0.1,1.9-0.1,2.5-0.1h2.7v2.1h-2.5c-0.4,0-1.1,0-2.1-0.1
	c0,0.4,0,0.6,0,0.6c0,0.1,0,0.1,0,0.2c0,0.1,0,0.2,0,0.4l1,0l1,0h1.5l-0.2,0.4c-0.4,0.7-1,1.4-1.9,2.2c-0.9,0.7-1.7,1.2-2.5,1.5
	l-0.5,0.2c0.4,0.3,0.7,0.4,0.7,0.5c0.1,0.1,0.2,0.3,0.5,0.7l0.4-0.2c0.8-0.5,1.5-1.1,2.2-1.7c0.7-0.6,1.1-1.2,1.4-1.5
	c0.3-0.4,0.5-0.8,0.7-1.2l0.2-0.5v3.4c0,0.3,0,0.7,0,1.2c0,0.5,0,1-0.1,1.7c0.5-0.1,0.9-0.1,1.4,0l-0.1-1.4c0-0.6,0-1,0-1.4v-3.4
	l0.2,0.6c0.3,0.9,0.8,1.6,1.5,2.3c0.7,0.6,1.6,1.3,2.7,1.9l0.3,0.2c0.2-0.4,0.3-0.6,0.5-0.8c0.2-0.2,0.4-0.4,0.8-0.7l-0.5-0.1
	C399.5,123.5,398.5,123,397.8,122.4z M431.3,118.3c0.1-0.1,0.3-0.4,0.7-0.9l0.5-0.7l0.5-0.8c0.1-0.1,0.2-0.3,0.3-0.5
	c0.7,0.5,1.3,1,1.7,1.5l0.4,0.5l0.3-0.3c0,0,0.2-0.2,0.7-0.6l-1.2-1l-1.2-1c0.2-0.3,0.3-0.6,0.5-0.9c-0.4-0.1-0.8-0.3-1.3-0.5
	l-0.2,0.5c-0.2,0.6-0.6,1.3-1,1.9c-0.5,0.7-1,1.3-1.6,1.8l-0.4,0.3c0.5,0.2,0.8,0.5,1.1,0.8L431.3,118.3z M423.2,122.2
	c0-0.2,0-0.5,0-1v-3c0-0.2,0-0.3,0-0.5c0-0.2,0-0.4,0.1-0.7c-0.6,0.1-1,0.1-1.3,0.1h-2.7c-0.4,0-0.8,0-1.3-0.1l0.1,0.7
	c0,0.2,0,0.4,0,0.5v3c0,0.4,0,0.8,0,1.2c0,0.4,0,0.8-0.1,1.3c0.3,0,0.5,0,0.6,0c0.1,0,0.3,0,0.6,0l0-0.4l0-0.4v-0.9h2.8v0.3
	c0,0.2,0,0.5,0,0.9c0.3,0,0.7,0,1.3,0L423.2,122.2z M422,120.9h-2.8v-2.7h2.8V120.9z M357.9,123.3c-0.1,0.4-0.1,0.8-0.2,1.1
	c-0.1,0.3-0.2,0.4-0.3,0.5c-0.2,0.1-0.4,0.1-0.8,0.1c-0.4,0-0.6,0-0.7-0.1c0-0.1-0.1-0.2-0.1-0.4V122c0-0.3,0-0.5,0-0.7
	c0-0.2,0-0.4,0.1-0.7c-0.5,0-0.8,0.1-0.9,0c0.1-0.9,0.2-1.7,0.3-2.4c0.1-0.7,0.1-1,0.1-1.1l0.1-0.8c-0.5,0-1-0.1-1.3-0.3l0,0.9
	l0,0.1c0,0,0,0.1,0,0.2c0,0.1,0,0.3,0,0.7c0,0.4,0,0.8-0.1,1.4c-0.1,0.5-0.2,1.1-0.3,1.6c-0.1,0.5-0.5,1.2-1.1,2
	c-0.6,0.8-1.5,1.5-2.7,2l-0.7,0.3c0.4,0.2,0.7,0.4,0.8,0.6c0.1,0.2,0.3,0.3,0.4,0.5l0.5-0.4c0.8-0.6,1.4-1.1,1.8-1.5
	c0.4-0.4,0.8-0.8,1.1-1.3c0.3-0.4,0.5-0.8,0.5-0.9c0.1-0.2,0.2-0.4,0.3-0.7v3.6c0,0.3,0.1,0.6,0.2,0.7c0.2,0.2,0.6,0.2,1.4,0.2
	c1,0,1.6-0.1,1.8-0.3c0.3-0.2,0.4-0.4,0.5-0.6c0.1-0.2,0.2-0.6,0.4-1.2l-0.5-0.1C358.7,123.9,358.4,123.7,357.9,123.3z M384.9,97.9
	c-0.6-0.5-1.1-1.1-1.5-1.9c-0.4-0.8-0.7-1.5-0.8-2.1c-0.5,0.2-1,0.2-1.3,0.2l0.2,0.5c0.1,0.3,0.3,0.7,0.6,1.3
	c0.3,0.6,0.6,1.1,0.9,1.6c0.3,0.5,0.7,0.9,1.1,1.3c0.4,0.4,1.1,0.9,2,1.5l0.2,0.2c0.3-0.5,0.5-0.8,0.6-1c0.1-0.1,0.3-0.3,0.5-0.5
	l-0.4-0.1C386.1,98.8,385.5,98.4,384.9,97.9z M424.2,99.2l0.7,0.7c0.3,0.3,0.7,0.8,1.1,1.3c0.4,0.5,0.7,0.9,0.9,1.2l0.8,1.3
	c0.3-0.3,0.8-0.6,1.3-0.9l-3.7-4.4C425,98.7,424.6,99,424.2,99.2z M417.4,103.8l0.6-0.5c1.7-1.3,3-2.7,4.1-4v4.9c0,0.4,0,0.7,0,1
	c0,0.3,0,0.7-0.1,1.2c0.4,0,0.9,0,1.5,0l-0.1-1c0-0.5-0.1-0.9,0-1.2v-6.8c0.3-0.5,0.6-1,0.9-1.5h1.8c0.5,0,1.3,0,2.5,0.1
	c0-0.4,0-0.6,0-0.7c0-0.1,0-0.1,0-0.2c0-0.1,0-0.2,0-0.4c-0.9,0.1-1.7,0.1-2.6,0.1h-6.8c-0.9,0-1.7,0-2.6-0.1c0,0.3,0.1,0.6,0,0.6
	c0,0.1,0,0.2,0,0.2c0,0.1,0,0.2,0,0.4c1.2-0.1,2.1-0.1,2.6-0.1h3.4c-0.3,0.6-0.7,1.4-1.2,2.2c-0.5,0.8-1.3,1.6-2.3,2.5
	c-1,0.9-1.8,1.5-2.5,1.8l-0.7,0.4c0.4,0.2,0.8,0.4,0.9,0.5C417,103.4,417.2,103.6,417.4,103.8z M426.5,114.3H419
	c-0.6,0-1.5,0-2.8-0.1c0,0.3,0.1,0.6,0.1,0.7c0,0.1,0,0.4-0.1,0.7c1.4-0.1,2.3-0.1,2.8-0.1h6.3v8.5c0,0.3,0,0.5-0.1,0.6
	c-0.1,0.1-0.3,0.1-0.6,0.1c-0.3,0-0.6,0-0.9-0.1l-0.4-0.1c0.2,0.2,0.3,0.5,0.4,0.7c0.1,0.3,0.2,0.6,0.2,1c0.2,0,0.7-0.1,1.3-0.1
	c0.6-0.1,1-0.2,1.1-0.4c0.1-0.2,0.2-0.5,0.2-0.9v-9.3h1c0.5,0,1,0,1.6,0.1l-0.1-0.4v-0.3c0-0.1,0-0.2,0-0.3c0-0.1,0-0.2,0.1-0.4
	C427.8,114.3,426.9,114.3,426.5,114.3z M369.3,102.5c0-0.1,0-0.3,0-0.5v-4.8c0-0.1,0-0.3,0-0.5c0-0.2,0-0.5,0-0.8
	c-0.4,0-0.6,0.1-0.7,0.1c-0.1,0-0.3,0-0.7-0.1l0.1,0.7c0,0.1,0,0.3,0,0.6v4.8c0,0.2,0,0.3,0,0.5c0,0.2,0,0.4-0.1,0.6
	c0.3,0,0.7,0,1.3,0L369.3,102.5z M370.8,94.1l0.1,1.1c0,0.3,0,0.6,0,1.1v8.4c0,0.2,0,0.3-0.1,0.3c-0.1,0.1-0.2,0.1-0.5,0.1
	c-0.3,0-0.7,0-1.2-0.1c0.2,0.5,0.3,0.9,0.4,1.1c0,0.2,0,0.4,0,0.5c1.3-0.2,2-0.3,2.2-0.4c0.2-0.1,0.3-0.1,0.3-0.2
	c0.1-0.1,0.1-0.2,0.1-0.4v-9.3c0-0.2,0-0.5,0-0.9c0-0.4,0-0.8,0.1-1.3c-0.5,0-0.9,0-1,0C371.2,94.1,371,94.1,370.8,94.1z
	 M366.9,97.8l-0.5,0h-1.8v-2.1c0.7-0.1,1.4-0.2,2-0.3l0.4-0.1l-0.2-0.4c0,0-0.1-0.3-0.4-0.9l-0.5,0.2c-0.6,0.2-1.4,0.4-2.5,0.5
	c-1.1,0.2-1.9,0.3-2.6,0.3l-0.3,0c0.2,0.4,0.3,0.6,0.3,0.8c0.1,0.1,0.1,0.3,0.1,0.5l0.3-0.1c0.2,0,0.5-0.1,1-0.2
	c0.5-0.1,0.8-0.1,1-0.2v1.9h-1.8c-0.1,0-0.4,0-1.2-0.1l0,0.4v0.5c0,0.1,0,0.2,0,0.4c0.7-0.1,1.1-0.1,1.2-0.1h1.7
	c-0.3,0.7-0.7,1.4-1.2,2.2c-0.5,0.8-1.1,1.4-1.7,2l-0.3,0.3c0.4,0.3,0.6,0.5,0.7,0.6c0.1,0.1,0.2,0.3,0.3,0.4l0.3-0.4
	c0-0.1,0.2-0.3,0.5-0.7c0.3-0.4,0.5-0.7,0.7-1.1c0.2-0.3,0.5-0.8,0.8-1.5v4c0,0.2,0,0.4,0,0.8c0,0.3,0,0.7,0,1c0.4,0,0.6-0.1,0.7,0
	c0.1,0,0.3,0,0.7,0l0-0.8c0-0.6-0.1-0.9,0-1v-5.9h1.8c0.3,0,0.6,0,1.1,0.1l0-0.4v-0.2c0-0.2,0-0.3,0-0.3c0,0,0-0.2,0-0.3L366.9,97.8
	z M362.2,124.7h0.8v0.2c0,0.1,0,0.2,0,0.3c0,0.1-0.1,0.2-0.2,0.2c-0.1,0.1-0.2,0.1-0.3,0.1c-0.1,0-0.2,0-0.3,0v0.6l0.3,0
	c0.2,0,0.4,0,0.5-0.1c0.2-0.1,0.3-0.1,0.4-0.2c0.1-0.1,0.2-0.2,0.3-0.4c0.1-0.2,0.1-0.4,0.1-0.6v-1.6h-1.7V124.7z M364.6,100.4
	l0.4,0.5c0.2,0.3,0.5,0.7,0.9,1.3l0.2,0.4c0.5-0.3,0.8-0.6,1.1-0.7l-1.6-2.2C365.3,100,365,100.3,364.6,100.4z M375.3,100.8l0.2-0.2
	c0.5-0.4,0.9-0.8,1.3-1.2l0,0.4v0.4c0,0.1,0,0.2,0,0.4c0.7-0.1,1.2-0.1,1.5-0.1h0.7c0,0.4-0.1,0.8-0.2,1.1c-0.1,0.4-0.2,0.8-0.4,1.3
	c-0.2,0.5-0.5,0.9-0.9,1.2c-0.4,0.3-0.9,0.6-1.4,0.8c-0.5,0.2-1,0.4-1.4,0.5l-0.3,0.1c0.5,0.3,0.8,0.5,1,0.7
	c0.1,0.2,0.2,0.4,0.3,0.5l0.4-0.2c0.9-0.6,1.6-1,2-1.4c0.4-0.3,0.7-0.6,0.9-1c0.2-0.4,0.4-0.7,0.5-1.1c0.1-0.4,0.2-0.6,0.3-0.8
	c0-0.1,0.1-0.7,0.3-1.7h2.9l-0.2,3.3c0,0.3-0.1,0.5-0.1,0.6c0,0.2-0.1,0.3-0.2,0.4c-0.3,0.2-0.8,0.2-1.7,0.1l-0.3-0.1
	c0.3,0.4,0.4,0.7,0.5,0.9c0.1,0.2,0.1,0.5,0.2,0.8c0.9-0.1,1.5-0.2,1.8-0.4c0.3-0.1,0.5-0.3,0.7-0.5c0.1-0.2,0.2-0.4,0.3-0.7
	c0-0.3,0.1-0.6,0.1-1l0.3-3.6c0-0.2,0.1-0.6,0.1-1.3c-0.6,0.1-1.2,0.1-1.6,0.1h-4.6c-0.4,0-0.8,0-1.4-0.1c0.8-0.8,1.4-1.7,2-2.7
	l0.8-1.3l0.3-0.5c-0.5-0.2-1-0.4-1.4-0.7l-0.1,0.4c-0.1,0.4-0.4,1-0.9,1.9c-0.4,0.8-0.9,1.5-1.5,2c-0.6,0.5-1.1,0.9-1.7,1.2
	l-0.3,0.2c0.5,0.4,0.8,0.6,0.9,0.6C375,100.5,375.1,100.6,375.3,100.8z M379.9,124.8c0,0,0.3-0.2,0.7-0.4l-1.5-1.5
	c-0.3,0.3-0.6,0.5-0.9,0.7l0.4,0.4c0.5,0.4,0.8,0.7,0.9,0.9l0.2,0.3L379.9,124.8z M376.1,123.3c-0.4,0.6-0.9,1.1-1.5,1.5l-0.4,0.3
	c0.4,0.1,0.6,0.3,0.8,0.3c0.1,0.1,0.2,0.2,0.4,0.4l0.3-0.4l0.7-0.7c0.4-0.4,0.6-0.7,0.7-0.7l0.5-0.5c-0.5-0.1-0.9-0.3-1.2-0.6
	L376.1,123.3z M383,114.2c-0.4,0-0.8,0-1.2-0.1l0.1,3.2v1.1c0,0.3,0,0.8,0,1.3c0,0.6-0.1,1.2-0.1,1.7c-0.1,0.5-0.2,1.1-0.4,1.6
	c-0.2,0.5-0.4,1-0.6,1.3c-0.2,0.4-0.5,0.7-0.8,1l-0.4,0.4c0.5,0.2,0.8,0.3,0.9,0.3c0.1,0.1,0.2,0.2,0.4,0.3l0.3-0.5
	c0.3-0.4,0.6-0.9,0.7-1.3c0.2-0.4,0.3-0.8,0.4-1c0.1-0.2,0.2-0.8,0.4-1.5h2.5v2.5c0,0.2,0,0.4-0.1,0.5c0,0.1-0.2,0.1-0.4,0.1
	c-0.4,0-0.8-0.1-1.3-0.2c0.2,0.3,0.3,0.6,0.4,0.8c0.1,0.2,0.1,0.4,0.2,0.7c0,0,0.3-0.1,0.7-0.2c0.5-0.1,0.8-0.2,1-0.3
	c0.2-0.1,0.3-0.3,0.4-0.5c0-0.2,0.1-0.4,0.1-0.6v-7.6c0-0.4,0-0.8,0-1.4c0-0.5,0-1.2,0.1-1.9c-0.4,0-0.8,0.1-1.2,0.1H383z
	 M385.2,120.8h-2.4l0.1-2.2h2.3V120.8z M385.2,117.6H383v-2.3h2.3V117.6z M381.3,115.2c-0.4,0-0.7,0.1-0.8,0.1h-0.2V115
	c0-0.3,0-0.5,0-0.7c0-0.2,0-0.4,0.1-0.7c-0.4,0.1-0.8,0.1-1.2,0l0.1,0.7c0,0.1,0,0.3,0,0.7v0.3h-2.2v-0.4c0-0.1,0-0.3,0-0.6
	c0-0.2,0-0.5,0.1-0.8c-0.4,0.1-0.8,0.1-1.2,0l0.1,0.7c0,0.1,0,0.3,0,0.7v0.4h-0.2c-0.2,0-0.5,0-1-0.1c0,0.3,0,0.5,0,0.6
	c0,0.1,0,0.1,0,0.2c0,0.1,0,0.2,0,0.3c0.3,0,0.7-0.1,1-0.1h0.2v5.5h-0.3c-0.4,0-0.8,0-1.3-0.1l0,0.3v0.4c0,0.1,0,0.2,0,0.4
	c0.4,0,0.9-0.1,1.3-0.1h4.9c0.3,0,0.5,0,0.8,0.1c0-0.3-0.1-0.5-0.1-0.5c0,0,0-0.1,0-0.2c0-0.1,0-0.2,0.1-0.4c-0.3,0-0.6,0.1-0.8,0.1
	h-0.2v-5.5h0.2c0.3,0,0.5,0,0.8,0.1l-0.1-0.4c0,0,0-0.1,0-0.1c0-0.1,0-0.2,0-0.2C381.3,115.5,381.3,115.4,381.3,115.2z M379.2,121.7
	h-2.2v-1.2h2.2V121.7z M379.2,119.6h-2.2v-1.2h2.2V119.6z M379.2,117.4h-2.2v-1.2h2.2V117.4z M410,124.6c-1.2,0-2.2-0.1-2.8-0.3
	c-0.6-0.2-1.3-0.5-2-1v-3.5c0-0.3,0-0.6,0-0.8c0-0.2,0-0.5,0.1-0.9c-0.5,0-0.9,0.1-1.1,0.1h-0.7c-0.4,0-0.8,0-1.2-0.1
	c0,0.4,0.1,0.6,0,0.7c0,0.1,0,0.2,0,0.3c0,0.1,0,0.2,0,0.4c0.6,0,1-0.1,1.2-0.1h0.5v4c-0.6,0.4-1.1,0.8-1.5,1.2l-0.5,0.5l0.5,0.3
	c0.1,0,0.3,0.2,0.8,0.6c0.1-0.3,0.3-0.7,0.6-1c0.3-0.3,0.5-0.5,0.8-0.5c0.2,0,0.5,0.1,0.8,0.3c0.3,0.2,0.6,0.4,0.8,0.5
	c0.2,0.1,0.6,0.2,1,0.4c0.5,0.1,1.2,0.2,2.1,0.2c0.6,0,1.5,0,2.7,0c1.2,0,1.9,0,2.1,0l0.4,0c0.1-0.4,0.1-0.6,0.2-0.8
	c0.1-0.2,0.3-0.4,0.5-0.8l-0.7,0.1C413.9,124.5,412.3,124.6,410,124.6z M498.7,124.7c0-0.1,0-0.3,0-0.5c-0.7,0.1-1.4,0.1-2.1,0.1h-1
	v-8.6h0.8c0.7,0,1.3,0,2,0.1c0-0.4-0.1-0.7-0.1-0.8c0-0.2,0-0.3,0.1-0.6c-1.2,0.1-1.9,0.1-2,0.1h-2.5c-0.1,0-0.8,0-2-0.1l0.1,0.5
	c0,0.1,0,0.2,0,0.4c0,0.2,0,0.4,0,0.5c0.6,0,1.2-0.1,1.9-0.1l0.6,0v8.6h-0.7c-0.2,0-0.4,0-0.8,0c-0.4,0-0.8,0-1.3-0.1l0,0.5v0.2
	c0,0.2,0,0.3,0,0.3c0,0,0,0.2,0,0.4c0.7-0.1,1.3-0.1,2-0.1h3c0.7,0,1.4,0,2.2,0.1c0-0.4-0.1-0.6-0.1-0.7
	C498.7,124.9,498.7,124.8,498.7,124.7z M504.6,120l0.4,0.5c0.2,0.3,0.5,0.7,0.9,1.3l0.2,0.4c0.5-0.3,0.8-0.6,1.1-0.7l-1.6-2.2
	C505.3,119.6,505,119.8,504.6,120z M491.7,123.5l-0.5,0.2c-0.8,0.2-2.2,0.5-4.3,0.8l-0.6,0.1c0.2,0.5,0.2,0.8,0.3,0.9
	c0,0.1,0.1,0.3,0.1,0.6l0.6-0.2c0.9-0.3,2.1-0.6,3.7-0.9l0.6-0.1l0-0.5c0,0,0-0.1,0-0.3C491.6,123.9,491.7,123.7,491.7,123.5z
	 M202.1,96.4c-0.5-0.6-0.9-1.3-1.1-1.9l0.1-0.3c-0.6-0.1-1.1-0.3-1.5-0.5l-0.2,0.8c-0.1,0.2-0.2,0.6-0.5,1.1
	c-0.3,0.6-0.7,1.1-1.3,1.8c-0.6,0.6-1.1,1.1-1.5,1.4l-0.5,0.3c0.4,0.2,0.7,0.3,0.8,0.4c0.1,0.1,0.3,0.2,0.4,0.4l0.3-0.3
	c0.3-0.3,0.6-0.7,1-1.1V99c0,0.1,0,0.3-0.1,0.5c0.5,0,1-0.1,1.4-0.1h2.2c0.4,0,0.9,0,1.4,0.1c0-0.3-0.1-0.5-0.1-0.5c0,0,0-0.1,0-0.2
	c0-0.1,0-0.2,0-0.3c0.6,0.4,0.9,0.6,1,0.6l0.5,0.3c0.2-0.4,0.4-0.7,0.5-0.9c0.1-0.2,0.3-0.4,0.4-0.5l-0.5-0.1
	C203.5,97.6,202.6,97.1,202.1,96.4z M198.2,98.5c0.4-0.5,0.7-0.9,1-1.3c0.3-0.4,0.6-0.9,1-1.6c0.4,0.8,0.8,1.4,1.2,1.7
	c0.3,0.4,0.8,0.7,1.3,1.1H198.2z M484.4,114.3c-0.9,0.1-1.6,0.1-2,0.1h-6.8c-0.4,0-1.1,0-2.1-0.1l0,0.4c0,0.1,0,0.2,0,0.4
	c0,0.2,0,0.3,0,0.5c0.7-0.1,1.3-0.1,2-0.1h6.2c-0.2,0.2-0.5,0.4-1,0.7l-1,0.7c-0.1,0-0.3,0.2-0.8,0.5l-0.7,0.4l0.1,0.8
	c0,0.1,0,0.4,0,0.7v4.6c0,0.3,0,0.5-0.1,0.6c-0.1,0.1-0.2,0.2-0.5,0.2c0,0-0.3,0-0.9-0.1c0.2,0.3,0.4,0.6,0.4,0.7
	c0.1,0.2,0.2,0.5,0.3,0.8c1-0.2,1.6-0.4,1.8-0.5c0.2-0.1,0.3-0.3,0.3-0.4c0-0.1,0-0.4,0-0.8v-6.1c0.4-0.2,1-0.7,2-1.2
	c1-0.6,1.6-1,1.9-1.1c0.3-0.1,0.6-0.2,0.9-0.3l-0.1-0.5c0,0,0-0.1,0-0.2c0-0.1,0-0.2,0-0.3C484.3,114.6,484.3,114.5,484.4,114.3z
	 M518.1,123.3c-0.3-0.3-0.7-0.5-1.2-0.5c-0.5,0-0.9,0.2-1.2,0.5c-0.3,0.3-0.5,0.7-0.5,1.2c0,0.5,0.2,0.9,0.5,1.2
	c0.3,0.3,0.7,0.5,1.2,0.5c0.4,0,0.8-0.1,1.2-0.4c0.3-0.3,0.5-0.7,0.5-1.2C518.6,124.1,518.4,123.7,518.1,123.3z M517.5,125.2
	c-0.2,0.2-0.4,0.3-0.7,0.2c-0.2,0-0.4-0.1-0.6-0.2c-0.2-0.2-0.3-0.4-0.3-0.7c0-0.3,0-0.6,0.2-0.7c0.2-0.2,0.4-0.3,0.6-0.3
	c0.3,0,0.5,0.1,0.7,0.2c0.2,0.2,0.3,0.4,0.3,0.7C517.8,124.8,517.7,125,517.5,125.2z M506.9,117.3l-0.5,0h-1.8v-2.1
	c0.7-0.1,1.4-0.2,2-0.3l0.4-0.1l-0.2-0.4c0,0-0.1-0.3-0.4-0.9l-0.5,0.2c-0.6,0.2-1.4,0.4-2.5,0.5c-1.1,0.2-1.9,0.3-2.6,0.3l-0.3,0
	c0.2,0.4,0.3,0.6,0.3,0.8c0.1,0.1,0.1,0.3,0.1,0.5l0.3-0.1c0.2,0,0.5-0.1,1-0.2c0.4-0.1,0.8-0.1,1-0.2v1.9h-1.8
	c-0.1,0-0.4,0-1.2-0.1l0,0.4v0.5c0,0.1,0,0.2,0,0.4c0.7-0.1,1.1-0.1,1.2-0.1h1.7c-0.3,0.7-0.7,1.4-1.2,2.2c-0.5,0.8-1.1,1.4-1.7,2
	l-0.3,0.3c0.4,0.3,0.6,0.5,0.7,0.6c0.1,0.1,0.2,0.3,0.3,0.4l0.3-0.4c0-0.1,0.2-0.3,0.5-0.7c0.3-0.4,0.5-0.7,0.7-1.1
	c0.2-0.3,0.5-0.8,0.8-1.5v4c0,0.2,0,0.4,0,0.8c0,0.3,0,0.7,0,1c0.4,0,0.6-0.1,0.7,0c0.1,0,0.3,0,0.7,0l0-0.8c0-0.6-0.1-0.9,0-1v-5.9
	h1.8c0.3,0,0.6,0,1.1,0.1l0-0.4v-0.2c0-0.2,0-0.3,0-0.3c0,0,0-0.2,0-0.3L506.9,117.3z M510.8,113.7l0.1,1.1c0,0.3,0,0.6,0,1.1v8.4
	c0,0.2,0,0.3-0.1,0.3c-0.1,0.1-0.2,0.1-0.5,0.1c-0.3,0-0.7,0-1.2-0.1c0.2,0.5,0.3,0.9,0.4,1.1c0,0.2,0,0.4,0,0.5
	c1.3-0.2,2-0.3,2.2-0.4c0.2-0.1,0.3-0.1,0.3-0.2c0.1-0.1,0.1-0.2,0.1-0.4v-9.3c0-0.2,0-0.5,0-0.9c0-0.4,0-0.8,0.1-1.3
	c-0.5,0-0.9,0-1,0C511.2,113.7,511,113.7,510.8,113.7z M474.9,106.6c0.4,0,0.8-0.1,1.2-0.4c0.3-0.3,0.5-0.7,0.5-1.2
	c0-0.5-0.1-0.9-0.5-1.2c-0.3-0.3-0.7-0.5-1.2-0.5c-0.5,0-0.9,0.2-1.2,0.5c-0.3,0.3-0.5,0.7-0.5,1.2c0,0.5,0.2,0.9,0.5,1.2
	C474,106.4,474.4,106.6,474.9,106.6z M474.2,104.2c0.2-0.2,0.4-0.3,0.6-0.3c0.3,0,0.5,0.1,0.7,0.2c0.2,0.2,0.3,0.4,0.3,0.7
	c0,0.3-0.1,0.6-0.3,0.7c-0.2,0.2-0.4,0.2-0.7,0.2c-0.2,0-0.4-0.1-0.6-0.2c-0.2-0.2-0.3-0.4-0.3-0.7C474,104.6,474,104.4,474.2,104.2
	z M509.3,122.1c0-0.1,0-0.3,0-0.5v-4.8c0-0.1,0-0.3,0-0.5c0-0.2,0-0.5,0-0.8c-0.4,0-0.6,0.1-0.7,0.1c-0.1,0-0.3,0-0.7-0.1l0.1,0.7
	c0,0.1,0,0.3,0,0.6v4.8c0,0.2,0,0.3,0,0.5c0,0.2,0,0.4-0.1,0.6c0.3,0,0.7,0,1.3,0L509.3,122.1z M463.4,122.7l-0.3,0.1
	c-0.4,0.2-1.1,0.3-2.2,0.5c-1.1,0.2-1.8,0.3-2.1,0.3l-0.5,0l0.3,0.8c0,0.1,0.1,0.3,0.2,0.8l0.4-0.1c0.4-0.1,1.1-0.3,2.2-0.5
	c1-0.2,1.6-0.3,1.7-0.4l0.3,0l-0.1-0.5c0,0,0-0.1,0-0.2C463.3,123.1,463.3,122.9,463.4,122.7z M469.7,119.8c-0.5-0.1-1-0.4-1.6-0.9
	c0.4-0.5,0.7-0.9,0.9-1.2c0.2-0.3,0.6-1.1,1.3-2.2l0.3-0.5c-0.5,0-0.9,0.1-1.1,0.1h-3c0.2-0.5,0.5-0.9,0.6-1.2l0.1-0.3
	c-0.4-0.1-0.9-0.3-1.3-0.5l-0.1,0.4l-0.2,0.6c0,0.1-0.1,0.3-0.3,0.6l-0.3,0.7c-0.1,0.2-0.3,0.6-0.6,1.2c-0.3,0.6-0.7,1.1-1.1,1.5
	l-0.3,0.3c0.5,0.2,0.9,0.5,1.2,0.8c0.4-0.6,0.8-1.3,1.1-1.9l0.4,0.7c0.1,0.2,0.3,0.5,0.7,1c-0.6,0.5-1.2,0.8-1.8,1
	c-0.6,0.2-1,0.3-1.2,0.3l-0.3,0l0.1-0.2c-1,0.2-1.9,0.4-2.8,0.5c0.3-0.4,0.7-0.9,1.1-1.5c0.5-0.6,0.7-0.9,0.8-1
	c0.1-0.1,0.2-0.3,0.5-0.7c0.2-0.4,0.5-0.7,0.7-1l0.3-0.5c-0.4-0.2-0.8-0.5-1.2-0.8l-0.4,0.8c-0.2,0.3-0.4,0.8-0.7,1.3l-1.6,0.1
	c0.1-0.1,0.3-0.4,0.4-0.6c0.2-0.3,0.4-0.6,0.6-0.9c0.2-0.3,0.4-0.6,0.7-1c0.2-0.3,0.4-0.5,0.4-0.6l0.3-0.4c-0.4-0.2-0.8-0.4-1.3-0.6
	l-0.1,0.3c-0.3,0.6-0.6,1.2-0.9,1.8c-0.3,0.6-0.6,1-0.8,1.3c-0.2,0.3-0.5,0.5-0.9,0.7l0.3,0.6c0,0.1,0.1,0.3,0.2,0.7l0.4-0.1
	c0.2-0.1,0.4-0.1,0.8-0.1c0.3,0,0.6-0.1,0.8-0.1c-0.2,0.3-0.5,0.7-0.8,1c-0.3,0.4-0.6,0.7-0.8,0.9c-0.2,0.2-0.6,0.4-1,0.6
	c0.2,0.5,0.4,0.9,0.6,1.4l0.3-0.1c0.1-0.1,0.7-0.2,1.6-0.3c0.9-0.1,1.5-0.2,1.8-0.2l0.4,0l0-0.4c0-0.1,0-0.1,0-0.2
	c0-0.1,0-0.2,0.1-0.4l0.4,0.3c0.1,0.1,0.3,0.4,0.5,0.8l0.3-0.2c0,0,0.2-0.1,0.5-0.2c0.3-0.1,0.6-0.3,0.9-0.5c0.3-0.2,0.9-0.5,1.6-1
	c0.9,0.7,1.8,1.2,2.8,1.7l0.4,0.2l0.2-0.5c0.1-0.2,0.3-0.5,0.7-0.9l-0.5-0.1C470.5,120,470.1,119.9,469.7,119.8z M466.7,117.5
	c-0.2-0.3-0.3-0.6-0.4-0.8c-0.1-0.2-0.1-0.3-0.2-0.5h2.4c-0.3,0.6-0.7,1.3-1.3,2C467,118.1,466.9,117.8,466.7,117.5z M445.2,106.7
	l0.3-0.4c0.4-0.6,0.8-1.1,1-1.6c0.2-0.5,0.4-0.8,0.5-1c0.7,1,1.5,1.7,2.5,2.1c1,0.4,2.3,0.7,3.9,0.7c1.6,0,2.4,0,2.5,0l0.5,0v-0.1
	c0-0.1,0-0.3,0-0.5c0-0.2,0.2-0.5,0.6-1.1l-0.6,0.1c-0.9,0.1-2,0.2-3.3,0.2c-0.7,0-1.3,0-1.8-0.1v-2.7h2.3c0.6,0,1.3,0,2,0.1
	c0-0.4-0.1-0.6-0.1-0.6c0-0.1,0-0.1,0-0.2c0-0.1,0-0.2,0.1-0.4c-0.7,0-1.4,0.1-2,0.1h-2.3v-1.9h1.2c0.7,0,1.5,0,2.3,0.1l0-0.4
	c0,0,0-0.1,0-0.2c0-0.1,0-0.2,0-0.3c0-0.1,0-0.2,0-0.4c-1,0.1-1.8,0.1-2.3,0.1h-3.7c-0.5,0-1.3,0-2.4-0.1c0,0.3,0,0.5,0,0.6
	c0,0.1,0,0.2,0,0.3c0,0.1,0,0.2,0,0.4c0.8-0.1,1.6-0.1,2.4-0.1h1.4v5.4c-0.6-0.2-1.1-0.5-1.4-0.8c-0.4-0.4-0.7-0.8-1.1-1.3
	c0.3-0.9,0.5-1.3,0.5-1.3l0.3-0.6c-0.6-0.1-1-0.2-1.4-0.3l-0.2,0.6c-0.2,0.8-0.5,1.6-0.8,2.3c-0.3,0.7-0.8,1.4-1.6,2.2l-0.4,0.4
	c0.4,0.2,0.7,0.3,0.8,0.4C444.9,106.4,445,106.5,445.2,106.7z M439.5,124l0.6,0.5c0.6,0.5,1.1,0.9,1.5,1.2l0.4,0.4
	c0.2-0.2,0.6-0.6,1.1-1l-2.7-2C440.2,123.4,439.9,123.7,439.5,124z M439.7,121.1l0.1-1.3l0-1l-0.3,0l-0.3,0c-0.1,0-0.3,0-0.6-0.1
	l0,1.2c0,0.2,0,0.5,0,0.8c0,0.4,0,0.7,0,0.9c0,0.2-0.1,0.5-0.1,0.9c-0.1,0.3-0.2,0.7-0.5,1.2c-0.3,0.4-0.7,0.8-1.3,1
	c-0.6,0.2-1,0.4-1.4,0.5l-0.7,0.2l0.6,0.5c0.1,0.1,0.3,0.3,0.5,0.7l0.2-0.1c0.5-0.2,1-0.5,1.6-0.8c0.6-0.4,1.1-0.8,1.5-1.4
	c0.4-0.6,0.6-1.3,0.7-2.1L439.7,121.1z M433.8,123.6c0.6-1,1-1.8,1.3-2.4c0.3-0.5,0.6-1.2,0.9-2c-0.8,0-1.3,0.1-1.5,0.1H432
	c-0.2,0-0.7,0-1.5-0.1l0,0.4v0.4c0,0.1,0,0.3,0,0.4c0.5,0,1-0.1,1.5-0.1h2.2c-0.3,0.8-0.7,1.6-1.1,2.4l-1.1-1.2l-0.3,0.2
	c0,0-0.3,0.2-0.7,0.4l0.5,0.5c0.4,0.4,0.8,0.8,1.1,1.2c0.3,0.4,0.6,0.8,0.8,1.3l0.2,0.4c0.3-0.2,0.7-0.4,1.1-0.7L433.8,123.6z
	 M443.1,114c-0.6,0-1.1,0.1-1.6,0.1h-4.1c-0.5,0-1.1,0-1.6-0.1c0,0.4,0,0.6,0.1,0.6c0,0.1,0,0.3-0.1,0.6c0.9,0,1.5-0.1,1.6-0.1h1.4
	l-0.2,1.5h-0.9c-0.5,0-1,0-1.5-0.1l0.1,0.8c0,0.1,0,0.4,0,0.8v2.9c0,0.4,0,0.7,0,0.9c0,0.2,0,0.6-0.1,1c0.3,0,0.5-0.1,0.6,0
	c0.1,0,0.3,0,0.6,0l-0.1-1c0-0.1,0-0.4,0-0.9v-3.3h3.8v3.4c0,0.3,0,0.6,0,0.8c0,0.2,0,0.5,0,0.9c0.5-0.1,1-0.1,1.3,0l-0.1-0.8
	c0-0.1,0-0.4,0-0.8v-3c0-0.3,0-0.6,0-0.8c0-0.2,0-0.5,0.1-0.8c-0.5,0-1,0.1-1.5,0.1h-1.2l0.3-1.5h1.5c0.2,0,0.7,0,1.6,0.1l0-0.4
	c0,0,0-0.1,0-0.2c0-0.1,0-0.2,0-0.3C443.1,114.4,443.1,114.2,443.1,114z M465.4,122l0.6,0.2c0.9,0.3,1.7,0.8,2.4,1.2l0.5,0.3
	l0.3-0.5c0-0.1,0.2-0.3,0.5-0.6l-3.5-1.7C465.9,121.4,465.6,121.7,465.4,122z M464.1,124l0.3,0.1c0.4,0.2,1,0.4,1.8,0.8
	c0.8,0.4,1.4,0.8,1.9,1.2l0.5,0.4c0.3-0.4,0.6-0.8,0.9-1.2l-4.6-2.4C464.6,123.3,464.4,123.6,464.1,124z M432.6,117.1l0.2,0.5
	c0.1,0.3,0.2,0.6,0.2,0.9l0.1,0.4c0.2-0.1,0.6-0.1,1.3-0.3l-0.6-1.8C433.4,116.9,433,117,432.6,117.1z M456,123.7
	c-0.4-0.3-0.8-0.5-1-0.8c-0.3-0.2-0.5-0.5-0.8-0.9c0.6-1.2,1.1-2.3,1.3-3.3c0.3-1,0.4-1.8,0.5-2.3c0.1-0.5,0.2-0.9,0.2-1.1
	c0-0.2,0.1-0.4,0.2-0.7c-0.6,0-1.2,0.1-1.6,0.1h-2.1c-0.5,0-1.1,0-1.8-0.1c0,0.3,0.1,0.5,0,0.6c0,0.1,0,0.2,0,0.2c0,0.1,0,0.2,0,0.4
	c0.1,0,0.2,0,0.3,0l0,0.2c0,0,0,0.1,0,0.2l0.2,1.3c0.1,0.4,0.2,1,0.3,1.7c0.2,0.8,0.5,1.7,1,2.9c-0.7,1-1.5,1.9-2.4,2.7l-0.4,0.4
	v-1.8l0.3-0.1c0.3,0,0.6-0.1,0.7-0.1l0-0.5c0-0.1,0-0.2,0-0.3c0-0.2,0-0.3,0.1-0.5l-0.3,0.1l-0.4,0.1l-0.3,0.1v-7.1h0.1
	c0.2,0,0.5,0,0.8,0.1l0-0.4c0,0,0-0.1,0-0.2c0-0.1,0-0.2,0-0.3c0-0.1,0-0.2,0-0.4c-0.6,0-1.2,0.1-1.7,0.1h-2.9c-0.6,0-1.3,0-2.1-0.1
	l0,0.4v0.5c0,0.1,0,0.2,0,0.4c0.4,0,0.8-0.1,1.2-0.1h0.1v7.8L445,123l-0.4,0.1l-0.5,0l0.1,0.5l0.1,0.5c0,0.1,0,0.2,0.1,0.4l0.6-0.2
	c0.3-0.1,0.9-0.2,1.8-0.4s1.6-0.3,2-0.4v1c0,0.4,0,0.7,0,0.9c0,0.2,0,0.5-0.1,1c0.4,0,0.7,0,0.8,0c0.1,0,0.3,0,0.4,0l-0.1-0.9
	c0.3,0.1,0.5,0.2,0.6,0.3c0.1,0.1,0.2,0.2,0.4,0.3l0.5-0.5l0.7-0.8l0.5-0.6c0,0,0.1-0.2,0.3-0.4c0.2-0.2,0.4-0.5,0.5-0.7
	c0.4,0.5,0.9,1.1,1.4,1.6c0.5,0.5,0.8,0.8,1,0.9l0.4,0.3c0.2-0.4,0.4-0.6,0.5-0.7c0.1-0.1,0.3-0.3,0.7-0.6l-0.4-0.2
	C456.7,124.2,456.4,124,456,123.7z M448.8,122.4l-2.3,0.4v-1.9h2.3V122.4z M448.8,119.7h-2.3V118h2.3V119.7z M448.8,117.1h-2.3v-1.9
	h2.3V117.1z M453.5,120.8c-0.3-0.9-0.5-1.5-0.7-2c-0.1-0.5-0.2-0.9-0.3-1.3c0-0.4-0.1-1-0.2-1.8h2.6c0,0.1-0.1,0.4-0.1,0.8
	c-0.1,0.4-0.2,0.9-0.4,1.6c-0.2,0.7-0.3,1.2-0.5,1.6C453.8,120.1,453.7,120.5,453.5,120.8z M486.6,119.5l0.6-0.2
	c0.2-0.1,1-0.2,2.3-0.4c-0.6,0.9-1.2,1.6-1.6,2c-0.4,0.4-0.9,0.6-1.3,0.8l0.2,0.5c0,0.1,0.1,0.2,0.1,0.3c0,0.2,0,0.3,0.1,0.5
	l0.8-0.2c0.8-0.2,2-0.3,3.6-0.4l0.6,0l0-0.5l0-0.1c0,0,0-0.1,0-0.2c0-0.1,0-0.2,0.1-0.5c-1.2,0.2-2.1,0.4-2.6,0.4l-0.8,0.1l0.5-0.6
	c0.8-0.9,1.6-2.1,2.5-3.4l0.5-0.8c-0.4-0.2-0.8-0.4-1.1-0.7l-0.3,0.5c-0.2,0.5-0.5,0.9-0.7,1.2l-2.2,0.2l0.3-0.5
	c0.3-0.6,0.7-1.2,0.9-1.7l0.4-0.8l0.5-0.8l0.3-0.5c-0.5-0.1-0.9-0.3-1.2-0.6l-0.2,0.7c-0.2,0.6-0.5,1.3-0.9,2.1
	c-0.4,0.8-0.7,1.4-0.9,1.6c-0.2,0.2-0.5,0.4-0.8,0.5c0.1,0.4,0.2,0.7,0.3,0.8C486.5,119.1,486.5,119.2,486.6,119.5z M252.4,102.9
	c-0.2,0.5-0.5,0.9-0.9,1.2c-0.4,0.3-0.9,0.6-1.4,0.8c-0.5,0.2-1,0.4-1.4,0.5l-0.3,0.1c0.5,0.3,0.8,0.5,1,0.7
	c0.1,0.2,0.2,0.4,0.3,0.5l0.4-0.2c0.9-0.6,1.6-1,2-1.4c0.4-0.3,0.7-0.6,0.9-1c0.2-0.4,0.4-0.7,0.5-1.1c0.1-0.4,0.2-0.6,0.3-0.8
	c0-0.1,0.1-0.7,0.3-1.7h2.9l-0.2,3.3c0,0.3-0.1,0.5-0.1,0.6c0,0.2-0.1,0.3-0.2,0.4c-0.3,0.2-0.8,0.2-1.7,0.1l-0.3-0.1
	c0.3,0.4,0.4,0.7,0.5,0.9c0.1,0.2,0.1,0.5,0.2,0.8c0.9-0.1,1.5-0.2,1.8-0.4c0.3-0.1,0.5-0.3,0.7-0.5c0.1-0.2,0.2-0.4,0.3-0.7
	c0-0.3,0.1-0.6,0.1-1l0.3-3.6c0-0.2,0.1-0.6,0.1-1.3c-0.6,0.1-1.2,0.1-1.6,0.1h-4.6c-0.4,0-0.8,0-1.4-0.1c0.8-0.8,1.4-1.7,2-2.7
	l0.8-1.3l0.3-0.5c-0.5-0.2-1-0.4-1.4-0.7l-0.1,0.4c-0.1,0.4-0.4,1-0.9,1.9c-0.4,0.8-0.9,1.5-1.5,2c-0.6,0.5-1.1,0.9-1.7,1.2
	l-0.3,0.2c0.5,0.4,0.8,0.6,0.9,0.6c0.1,0,0.1,0.2,0.3,0.3l0.2-0.2c0.5-0.4,0.9-0.8,1.3-1.2l0,0.4v0.4c0,0.1,0,0.2,0,0.4
	c0.7-0.1,1.2-0.1,1.5-0.1h0.7c0,0.4-0.1,0.8-0.2,1.1C252.7,102,252.6,102.4,252.4,102.9z M252.6,121.9c0-0.2,0-0.5-0.1-0.7
	c-0.1-0.3-0.2-0.6-0.3-0.9c-0.1-0.3-0.4-0.8-0.9-1.4l1.6-4.7c-0.5,0-1,0.1-1.5,0.1h-1.5c-0.4,0-0.9,0-1.4-0.1l0.1,1.3
	c0,0.7,0,1,0,1.1v7.4c0,0.5,0,0.8,0,1.1c0,0.3,0,0.6-0.1,1.2c0.4,0,0.6-0.1,0.7,0c0.1,0,0.3,0,0.6,0l-0.1-1.2c0-0.1,0-0.5,0-1.1
	v-8.6h1.6c-0.4,1.3-0.6,2.1-0.7,2.4c-0.1,0.3-0.3,0.7-0.5,1.1c0.5,0.8,0.9,1.4,1.1,1.8c0.1,0.4,0.2,0.6,0.2,0.8c0,0.2,0,0.4,0,0.5
	c0,0.2-0.1,0.3-0.1,0.4c-0.1,0.1-0.3,0.2-0.6,0.2c-0.2,0-0.4,0-0.8-0.1c0.3,0.5,0.5,0.7,0.5,0.8c0,0.1,0.1,0.3,0.2,0.7
	c0.8-0.2,1.3-0.4,1.5-0.7c0.2-0.2,0.4-0.5,0.5-0.8C252.5,122.4,252.6,122.1,252.6,121.9z M231.1,98.3c0.1-0.1,0.1-0.2,0.2-0.3
	c-0.4-0.1-0.7-0.3-0.8-0.5l-0.1,0.3c0,0.2-0.3,0.7-0.7,1.3c0.2,0.1,0.5,0.2,0.7,0.4C230.8,98.7,231,98.3,231.1,98.3z M234.2,101.9
	l-0.4,0.2c0.3,0.3,0.6,0.6,0.9,1l0.2-0.1c0,0,0.1-0.1,0.2-0.1c0.1-0.1,0.2-0.2,0.4-0.2v2.8c0,0.3,0,0.5,0,0.6c0,0.2,0,0.4-0.1,0.7
	c0.3,0,0.5-0.1,0.6,0c0.1,0,0.3,0,0.6,0l0-0.4l0-0.4v-0.5h2.1v0.3c0,0.1,0,0.3,0,0.6c0.3,0,0.5-0.1,0.6,0c0.1,0,0.3,0,0.6,0
	l-0.1-0.7c0-0.1,0-0.3,0-0.6v-1.6c0-0.2,0-0.5,0-0.6c0-0.2,0-0.4,0-0.7l-0.6,0l-0.6,0h-2.2c0.3-0.2,0.7-0.5,0.9-0.7
	c0.3-0.2,0.5-0.4,0.7-0.5c0.3,0.1,0.6,0.4,1.1,0.7c0.5,0.3,0.7,0.5,0.9,0.6l0.2,0.2c0.2-0.4,0.5-0.7,0.7-1l-2.2-1.2
	c0.9-1,1.3-1.5,1.3-1.5c0,0,0.2-0.4,0.6-1c-0.4,0-0.9,0.1-1.3,0.1h-2.1l0.2-0.3l0.3-0.3l0.2-0.2c-0.3-0.1-0.7-0.2-1-0.5l-0.2,0.4
	c-0.7,1.1-1.4,1.9-2.2,2.6l-0.4,0.3l0.4,0.2c0,0,0.2,0.2,0.6,0.5l0.2-0.2c0,0,0.1-0.2,0.3-0.4c0.2-0.2,0.5-0.6,0.9-1l2.2-0.1
	c-0.3,0.4-0.6,0.7-1,1.2l-1.2-0.7c-0.2,0.3-0.4,0.6-0.7,0.8l0.4,0.2l0.4,0.2c0.1,0,0.2,0.1,0.4,0.2c-0.6,0.5-1.3,1-2,1.3
	L234.2,101.9z M236.5,103h2.1v1.6h-2.1V103z M232.7,96.3c0-0.1,0-0.3,0.1-0.6c-0.4,0-0.9,0.1-1.3,0.1h-1.1c0.3-0.6,0.5-1,0.7-1.3
	l0.2-0.3c-0.4-0.1-0.7-0.3-1.1-0.5l-0.1,0.3c-0.2,0.5-0.4,1.1-0.7,1.8h-3.2c-0.4,0-0.8,0-1.3-0.1l0.1,0.6c0,0.1,0,0.3,0,0.6v2.8
	c0,0.2,0,0.4,0,0.6c0,0.1,0,0.3-0.1,0.6c0.5,0,0.9-0.1,1.2-0.1h5.4c0.4,0,0.8,0,1.2,0.1l-0.1-0.6c0-0.1,0-0.3,0-0.6v-2.8
	C232.7,96.6,232.7,96.4,232.7,96.3z M228.2,99.8h-2.1v-3.1h2.1V99.8z M231.6,99.8h-2.4v-3.1h2.4V99.8z M244.9,122.7
	c-0.4-0.5-0.8-1.1-1.1-1.7h1.7c0.2,0,0.6,0,1.4,0.1c-0.1-0.4-0.1-0.6-0.1-0.7c0,0,0-0.1,0-0.2c0-0.1,0-0.2,0.1-0.4
	c-0.5,0-1,0.1-1.4,0.1H243v-1.4h1.6c0.5,0,1,0,1.3,0.1l-0.1-0.6c0-0.1,0-0.3,0-0.5v-2.2c0-0.2,0-0.4,0-0.5c0-0.2,0-0.4,0.1-0.6
	c-0.8,0-1.2,0.1-1.3,0.1h-4c-0.1,0-0.5,0-1.3-0.1l0.1,0.6c0,0.1,0,0.3,0,0.5v2.2c0,0.2,0,0.4,0,0.5c0,0.1,0,0.3-0.1,0.6
	c0.3,0,0.8-0.1,1.3-0.1h1.3v1.4h-2.8c-0.2,0-0.6,0-1.2-0.1c0,0.4,0,0.6,0,0.7c0,0.1,0,0.1,0,0.2c0,0.1,0,0.2,0,0.4
	c0.5-0.1,0.9-0.1,1.2-0.1h1.8c-0.5,0.9-1.1,1.6-1.6,2.1c-0.5,0.5-1.1,0.9-1.7,1.3l-0.3,0.2v-7.9c0.6-1.1,0.9-1.8,1-1.9l0.4-0.7
	c-0.4-0.2-0.9-0.4-1.3-0.7l-0.2,0.6c-0.2,0.5-0.3,0.9-0.5,1.4c-0.2,0.4-0.5,1.1-1,2.1c-0.5,0.9-1,1.6-1.4,2.1l-0.2,0.2
	c0.3,0.3,0.5,0.7,0.8,1.2l0.2-0.3l0.4-0.6c0.2-0.3,0.4-0.7,0.7-1.1v5.4c0,0.3,0,0.6,0,0.9c0,0.3,0,0.7-0.1,1.1c0.4,0,0.6-0.1,0.7,0
	c0.1,0,0.3,0,0.7,0l-0.1-1.5c0.5,0.2,0.9,0.5,1.1,0.8l0.3-0.3c0.6-0.5,1-1,1.4-1.5c0.4-0.5,0.7-0.9,1-1.3c0.2-0.4,0.5-0.8,0.6-1.2
	v3.6c0,0.2,0,0.5,0,0.7c0,0.2,0,0.5-0.1,0.9c0.4,0,0.7,0,0.8,0c0.1,0,0.3,0,0.4,0l-0.1-0.9c0-0.2,0-0.4,0-0.7v-3.5
	c0.2,0.5,0.4,1,0.7,1.5c0.2,0.5,0.5,0.8,0.8,1.1c0.3,0.3,0.6,0.6,1,0.9c0.4,0.3,0.6,0.5,0.7,0.6l0.2,0.1c0.2-0.3,0.4-0.6,0.5-0.7
	c0.1-0.1,0.3-0.3,0.6-0.5l-0.4-0.2C246,123.7,245.3,123.2,244.9,122.7z M240.6,117.5v-2.2h4v2.2H240.6z M260.4,124.6
	c-0.7,0.1-1.4,0.1-2.1,0.1h-0.5l0.2-0.7l0.5-1.4c0.2-0.4,0.3-0.9,0.6-1.5l0.5-1.2c-0.5-0.1-1-0.3-1.4-0.5l-0.2,1.2
	c-0.1,0.5-0.3,1.1-0.5,1.8c-0.2,0.6-0.5,1.4-0.8,2.3h-2.5c-0.7,0-1.4,0-2.1-0.1c0,0.3,0.1,0.5,0.1,0.6c0,0.1,0,0.3-0.1,0.7l1.1,0
	l1.1,0h4.1c0.2,0,0.4,0,0.8,0c0.4,0,0.8,0,1.3,0l0-0.4l0-0.2c0,0,0-0.1,0-0.2C260.4,124.9,260.4,124.8,260.4,124.6z M258.1,116
	c-0.5-0.6-0.9-1.3-1.1-1.9l0.1-0.3c-0.6-0.1-1.1-0.3-1.5-0.5l-0.2,0.8c-0.1,0.2-0.2,0.6-0.5,1.1c-0.3,0.6-0.7,1.1-1.3,1.8
	c-0.6,0.6-1.1,1.1-1.5,1.4l-0.5,0.3c0.4,0.2,0.7,0.3,0.8,0.4c0.1,0.1,0.3,0.2,0.4,0.4l0.3-0.3c0.3-0.3,0.6-0.7,1-1.1v0.4
	c0,0.1,0,0.3-0.1,0.5c0.5,0,1-0.1,1.4-0.1h2.2c0.4,0,0.9,0,1.4,0.1c0-0.3-0.1-0.5-0.1-0.5c0,0,0-0.1,0-0.2c0-0.1,0-0.2,0-0.3
	c0.6,0.4,0.9,0.6,1,0.6l0.5,0.3c0.2-0.4,0.4-0.7,0.5-0.9c0.1-0.2,0.3-0.4,0.4-0.5l-0.5-0.1C259.5,117.1,258.5,116.6,258.1,116z
	 M254.2,118.1c0.4-0.5,0.7-0.9,1-1.3c0.3-0.4,0.6-0.9,1-1.6c0.4,0.8,0.8,1.4,1.2,1.7c0.3,0.4,0.8,0.7,1.3,1.1H254.2z M258.9,97.9
	c-0.6-0.5-1.1-1.1-1.5-1.9c-0.4-0.8-0.7-1.5-0.8-2.1c-0.5,0.2-1,0.2-1.3,0.2l0.2,0.5c0.1,0.3,0.3,0.7,0.6,1.3
	c0.3,0.6,0.6,1.1,0.9,1.6c0.3,0.5,0.7,0.9,1.1,1.3c0.4,0.4,1.1,0.9,2,1.5l0.2,0.2c0.3-0.5,0.5-0.8,0.6-1c0.1-0.1,0.3-0.3,0.5-0.5
	l-0.4-0.1C260.1,98.8,259.5,98.4,258.9,97.9z M255.7,122.5l0.1,0.7c0.3-0.1,0.7-0.2,1.2-0.2l-0.3-1.7c0-0.2-0.2-0.7-0.4-1.7
	c-0.3,0.1-0.7,0.2-1.2,0.2l0.2,0.6c0,0.2,0.1,0.5,0.2,1C255.7,121.9,255.7,122.3,255.7,122.5z M253.8,122.9l0.1,0.8
	c0.3-0.1,0.7-0.2,1.2-0.2l-0.4-1.8c0-0.2-0.2-0.7-0.4-1.6c-0.5,0.2-0.9,0.2-1.2,0.3l0.2,0.7c0.1,0.2,0.1,0.5,0.2,1
	C253.7,122.4,253.7,122.7,253.8,122.9z M232.4,117.1c0-0.3,0-0.8,0.1-1.3c-0.5,0-1,0.1-1.3,0.1h-1.8c-0.5,0-0.9,0-1.4-0.1l0,1.1
	l0,1.1v5.4c0,0.2,0,0.5,0,0.9c0,0.3,0,0.7,0,1.2c0.3,0,0.5-0.1,0.6,0c0.1,0,0.3,0,0.7,0l0-1.5h2.1v0.4c0,0.3,0,0.4,0,0.5
	c0,0.1,0,0.2,0,0.4c0.4-0.1,0.8-0.1,1.2,0l0-1l0-1.1v-5C232.4,117.8,232.4,117.5,232.4,117.1z M231.3,123h-2.2v-6.1h2.2V123z
	 M212.8,118c0.1,0.2,0.1,0.4,0.1,0.5l0.1,0.4c0.2-0.1,0.5-0.2,0.8-0.2l-0.5-1.5c-0.3,0.1-0.6,0.2-0.8,0.2l0.1,0.2
	C212.7,117.6,212.7,117.8,212.8,118z M217.1,117.8c0.1-0.1,0.1-0.2,0.2-0.3c-0.4-0.1-0.7-0.3-0.8-0.5l-0.1,0.3
	c0,0.2-0.3,0.7-0.7,1.3c0.2,0.1,0.5,0.2,0.7,0.4C216.8,118.3,217,117.9,217.1,117.8z M218.1,121.6c0-0.2,0-0.4,0-0.6
	c-0.5,0-0.9,0.1-1.3,0.1H213c-0.4,0-0.9,0-1.4-0.1l0.1,0.4c0,0.1,0,0.2,0,0.5v3.2c0,0.2,0,0.4,0,0.5c0,0.1,0,0.3-0.1,0.6
	c0.5-0.1,0.9-0.1,1.2,0l0-0.3l0-0.3v-0.2h4.2v0.2c0,0,0,0.1,0,0.2c0,0.1,0,0.2,0,0.3c0.4-0.1,0.8-0.1,1.2,0l0-0.5c0-0.2,0-0.4,0-0.5
	v-3.1C218,122,218,121.8,218.1,121.6z M217,124.7h-4.2v-0.9h4.2V124.7z M217,122.9h-4.2v-1h4.2V122.9z M218.7,115.9
	c0-0.1,0-0.3,0.1-0.6c-0.4,0-0.9,0.1-1.3,0.1h-1.1c0.3-0.6,0.5-1,0.7-1.3l0.2-0.3c-0.4-0.1-0.7-0.3-1.1-0.5l-0.1,0.3
	c-0.2,0.5-0.4,1.1-0.7,1.8h-3.2c-0.4,0-0.8,0-1.3-0.1l0.1,0.6c0,0.1,0,0.3,0,0.6v2.8c0,0.2,0,0.4,0,0.6c0,0.1,0,0.3-0.1,0.6
	c0.5,0,0.9-0.1,1.2-0.1h5.4c0.4,0,0.8,0,1.2,0.1l-0.1-0.6c0-0.1,0-0.3,0-0.6v-2.8C218.7,116.2,218.7,116,218.7,115.9z M214.2,119.4
	h-2.1v-3.1h2.1V119.4z M217.6,119.4h-2.4v-3.1h2.4V119.4z M210.8,117.1c-0.5,0-0.9,0.1-1.3,0.1h-0.6v-0.7c0-0.7,0-1.2,0-1.5
	c0-0.3,0-0.8,0.1-1.4c-0.5,0-0.8,0.1-0.9,0.1c-0.1,0-0.3,0-0.5-0.1l0.1,1.5c0,0.3,0,0.8,0,1.5v0.7h-0.5c-0.3,0-0.7,0-1.1-0.1l0,0.3
	c0,0.3,0,0.4,0,0.4c0,0,0,0.1,0,0.1c0,0.1,0,0.2,0,0.4c0.4,0,0.8-0.1,1.1-0.1h0.5v4.5l-0.5,0.2c-0.4,0.1-0.8,0.2-1.2,0.3l0.2,0.3
	c0.1,0.1,0.1,0.3,0.1,0.5c0,0.2,0.1,0.4,0.1,0.6l0.3-0.2c0.2-0.1,0.6-0.3,1.4-0.6c0.8-0.3,1.6-0.6,2.3-0.8l0.3-0.1l-0.1-0.4
	c0,0,0-0.1,0-0.3c0-0.1,0-0.3,0.1-0.6c-0.4,0.2-0.8,0.3-1.2,0.5l-0.6,0.2v-4.1h0.6c0.4,0,0.8,0,1.3,0.1c0-0.4-0.1-0.6-0.1-0.6
	c0-0.1,0-0.1,0-0.2C210.7,117.4,210.7,117.3,210.8,117.1z M271,116.2c-1-0.8-1.6-1.5-1.9-2.3l0.1-0.3c-0.5-0.1-1-0.3-1.5-0.5
	l-0.2,0.4c-0.2,0.5-0.6,1.2-1.1,1.9c-0.5,0.7-1.2,1.3-1.9,1.8c-0.7,0.5-1.4,0.8-2.1,1.2l-0.4,0.2c0.3,0.2,0.5,0.3,0.6,0.5
	c0.1,0.1,0.3,0.3,0.5,0.6l0.3-0.2c0.6-0.4,1.2-0.8,1.5-1v0.4c0,0.1,0,0.2-0.1,0.4c0.8,0,1.3-0.1,1.5-0.1h1.4v1.7h-1.8
	c-0.4,0-1.1,0-2-0.1l0,0.4v0.5c0,0.1,0,0.2,0,0.4c0.9-0.1,1.6-0.1,2-0.1h1.8v2.8h-2.2c-0.7,0-1.6,0-2.8-0.1c0,0.4,0,0.6,0,0.7
	c0,0.1,0,0.1,0,0.3c0,0.1,0,0.2,0,0.4c1.4-0.1,2.3-0.1,2.8-0.1h6c0.4,0,1.3,0,2.7,0.1l0-0.4v-0.2c0-0.2,0-0.3,0-0.3c0,0,0-0.2,0-0.4
	c-1.2,0.1-2.1,0.1-2.8,0.1h-0.5l0.5-0.7l0.3-0.6l0.5-0.7c-0.5-0.2-0.9-0.4-1.4-0.6l-0.2,0.8c-0.1,0.5-0.4,1.1-0.8,1.9h-1v-2.8h2.1
	c0.4,0,1.1,0,2,0.1c0-0.4-0.1-0.6-0.1-0.6c0-0.1,0-0.2,0-0.2c0-0.1,0-0.2,0.1-0.4c-0.9,0.1-1.6,0.1-2,0.1h-2.1v-1.7h1.5
	c0.1,0,0.7,0,1.6,0.1c0-0.3-0.1-0.4-0.1-0.5c0,0,0-0.1,0-0.2c0-0.1,0-0.2,0-0.3c0.4,0.2,1,0.5,2,0.9l0.3,0.1
	c0.1-0.3,0.2-0.6,0.3-0.8c0.1-0.2,0.3-0.4,0.5-0.7l-0.4-0.1C273.2,117.5,272,116.9,271,116.2z M270.2,118h-3.5c-0.4,0-0.8,0-1.2-0.1
	c0.8-0.7,1.4-1.3,1.8-1.8c0.4-0.5,0.7-1,1.1-1.5c0.4,0.7,0.8,1.3,1.2,1.7c0.4,0.5,1.1,1,1.8,1.5C271,118,270.6,118,270.2,118z
	 M226.8,98.4c0.1,0.2,0.1,0.4,0.1,0.5l0.1,0.4c0.2-0.1,0.5-0.2,0.8-0.2l-0.5-1.5c-0.3,0.1-0.6,0.2-0.8,0.2l0.1,0.2
	C226.7,98,226.7,98.2,226.8,98.4z M225.7,106.1c0,0.1,0,0.3-0.1,0.6c0.5-0.1,0.9-0.1,1.2,0l0-0.3l0-0.3V106h4.2v0.2c0,0,0,0.1,0,0.2
	c0,0.1,0,0.2,0,0.3c0.4-0.1,0.8-0.1,1.2,0l0-0.5c0-0.2,0-0.4,0-0.5v-3.1c0-0.1,0-0.2,0-0.4c0-0.2,0-0.4,0-0.6
	c-0.5,0-0.9,0.1-1.3,0.1H227c-0.4,0-0.9,0-1.4-0.1l0.1,0.4c0,0.1,0,0.2,0,0.5v3.2C225.7,105.8,225.7,106,225.7,106.1z M226.7,102.4
	h4.2v1h-4.2V102.4z M226.7,104.2h4.2v0.9h-4.2V104.2z M224.1,116.1c0.1-0.8,0.1-1.7,0.2-2.6c-0.5,0-0.9-0.1-1.4-0.2l0,1.2
	c0,0,0,0.1,0,0.2c0,0.1,0,0.3,0,0.5c0,0.2,0,0.5,0,0.7h-0.6c-0.5,0-1,0-1.5-0.1c0,0.3,0,0.5,0,0.6c0,0.1,0,0.1,0,0.2
	c0,0.1,0,0.2,0,0.4c0.9-0.1,1.4-0.1,1.5-0.1h0.6l0,1.2c0,0.2,0,0.6-0.1,1.3c-0.1,0.7-0.2,1.3-0.3,1.9c-0.1,0.6-0.4,1.2-0.8,1.9
	c-0.4,0.7-0.8,1.1-1.3,1.5l-0.3,0.3c0.4,0.2,0.7,0.4,0.9,0.5c0.1,0.1,0.3,0.2,0.4,0.4l0.3-0.4c0.4-0.5,0.7-0.9,0.8-1.1
	c0.1-0.2,0.3-0.5,0.5-0.9c0.2-0.4,0.4-0.8,0.5-1.3c0.1-0.5,0.3-1,0.3-1.8c0.1-0.7,0.1-1.3,0.2-1.7l0-0.9c0-0.2,0-0.4,0.1-0.8h1.7
	l-0.3,5.7l-0.1,0.5c0,0.2-0.1,0.4-0.1,0.5c-0.1,0.1-0.3,0.2-0.8,0.2c-0.6,0-0.9,0-1.1-0.1c0.3,0.5,0.5,0.8,0.5,1
	c0,0.2,0.1,0.4,0.1,0.6c1.4-0.2,2.1-0.4,2.3-0.6c0.2-0.3,0.3-0.5,0.3-0.7c0.1-0.2,0.1-0.4,0.1-0.6l0.4-7.9c-0.6,0-1.1,0.1-1.6,0.1
	H224.1z M220.3,105.2l0.3-0.2c0.2-0.1,0.6-0.3,1.4-0.6c0.8-0.3,1.6-0.6,2.3-0.8l0.3-0.1l-0.1-0.4c0,0,0-0.1,0-0.3
	c0-0.1,0-0.3,0.1-0.6c-0.4,0.2-0.8,0.3-1.2,0.5l-0.6,0.2v-4.1h0.6c0.4,0,0.8,0,1.3,0.1c0-0.4-0.1-0.6-0.1-0.6c0-0.1,0-0.1,0-0.2
	c0-0.1,0-0.2,0.1-0.4c-0.5,0-0.9,0.1-1.3,0.1h-0.6v-0.7c0-0.7,0-1.2,0-1.5c0-0.3,0-0.8,0.1-1.4c-0.5,0-0.8,0.1-0.9,0.1
	c-0.1,0-0.3,0-0.5-0.1l0.1,1.5c0,0.3,0,0.8,0,1.5v0.7h-0.5c-0.3,0-0.7,0-1.1-0.1l0,0.3c0,0.3,0,0.4,0,0.4c0,0,0,0.1,0,0.1
	c0,0.1,0,0.2,0,0.4c0.4,0,0.8-0.1,1.1-0.1h0.5v4.5l-0.5,0.2c-0.4,0.1-0.8,0.2-1.2,0.3l0.2,0.3c0.1,0.1,0.1,0.3,0.1,0.5
	C220.3,104.8,220.3,104.9,220.3,105.2z M309.8,114.2c0.1,0.3,0.3,0.7,0.5,1.3l0.1,0.4c0.4-0.2,0.9-0.3,1.3-0.4l-0.7-2
	c-0.3,0.1-0.7,0.2-1.4,0.4L309.8,114.2z M351,123.4l0-0.4c0-0.1,0-0.2,0-0.3c0-0.2,0-0.4,0.1-0.6c-0.5,0.2-0.9,0.3-1.2,0.4l-0.6,0.2
	v-3.1h0.4c0.1,0,0.5,0,1.3,0.1c0-0.3-0.1-0.5-0.1-0.5c0-0.1,0-0.1,0-0.2c0-0.1,0-0.2,0.1-0.4c-0.7,0-1.2,0.1-1.3,0.1h-0.4v-2.9h0.4
	c0.4,0,0.9,0,1.5,0.1c0-0.3-0.1-0.5-0.1-0.6c0-0.1,0-0.2,0-0.2c0-0.1,0-0.2,0.1-0.4c-0.5,0-1,0.1-1.5,0.1h-1.7c-0.5,0-0.9,0-1.5-0.1
	c0,0.4,0.1,0.6,0,0.6s0,0.1,0,0.2c0,0.1,0,0.2,0,0.4c0.5,0,1-0.1,1.5-0.1h0.2v2.8l-0.3,0c-0.1,0-0.5,0-1.3-0.1c0,0.3,0.1,0.5,0,0.5
	c0,0.1,0,0.1,0,0.2c0,0.1,0,0.2,0,0.4c0.8,0,1.2-0.1,1.3-0.1l0.3,0v3.3l-0.4,0.1c-0.4,0.1-0.9,0.2-1.7,0.2c0.2,0.4,0.3,0.7,0.3,0.9
	c0,0.1,0.1,0.3,0.1,0.5l0.7-0.3c0.3-0.1,0.8-0.3,1.7-0.5c0.8-0.2,1.4-0.4,1.6-0.4L351,123.4z M305.4,106.8l0.3-0.5
	c0.6-0.9,0.9-1.6,1-2.1c0.1-0.5,0.2-0.9,0.3-1.2c0.1-0.4,0.1-0.6,0.1-0.9c0-0.2,0-0.5,0-0.9c0-0.4,0-0.8,0.1-1.2h6.9
	c0.8,0,1.6,0,2.4,0.1c0-0.3-0.1-0.5-0.1-0.6c0,0,0-0.1,0-0.2c0-0.1,0-0.2,0.1-0.4c-1.1,0.1-1.9,0.1-2.4,0.1H313
	c0.4-0.7,0.6-1.1,0.7-1.2l0.4-0.6c-0.5-0.2-0.9-0.3-1.2-0.5h0.8c0.8,0,1.7,0,2.5,0.1l0-0.4c0,0,0-0.1,0-0.2c0-0.1,0-0.2,0-0.3
	c0-0.1,0-0.2,0-0.4c-1.1,0.1-1.9,0.1-2.6,0.1h-2.3c0.3-0.1,0.6-0.2,0.8-0.2l-1.1-1.8c-0.4,0.2-0.8,0.4-1.3,0.6l0.3,0.4
	c0.2,0.3,0.4,0.6,0.5,0.8l0.1,0.3h-2.6c-0.6,0-1.5,0-2.5-0.1c0,0.4,0.1,0.6,0,0.6c0,0.1,0,0.2,0,0.2c0,0.1,0,0.2,0,0.4
	c0.8-0.1,1.7-0.1,2.5-0.1h4.6l-0.2,0.6c-0.1,0.4-0.4,0.9-0.8,1.8h-2.4c0.2-0.1,0.4-0.2,0.7-0.3l-1.3-1.9c-0.3,0.2-0.7,0.4-1.2,0.5
	l0.3,0.4c0.3,0.4,0.5,0.7,0.6,1l0.2,0.4h-1.4c-0.2,0-0.6,0-1.4-0.1l0.1,1.3l0,0.1c0,0,0,0.1,0,0.2c0,0.1,0,0.3,0,0.6
	c0,0.3,0,0.6,0,0.9c0,0.3-0.1,0.8-0.2,1.4c-0.1,0.6-0.5,1.3-1.2,2l-0.5,0.5c0.5,0.2,0.8,0.3,1,0.4
	C305.1,106.5,305.2,106.6,305.4,106.8z M300.1,96.4c-0.5-0.6-0.9-1.3-1.1-1.9l0.1-0.3c-0.6-0.1-1.1-0.3-1.5-0.5l-0.2,0.8
	c-0.1,0.2-0.2,0.6-0.5,1.1c-0.3,0.6-0.7,1.1-1.3,1.8c-0.6,0.6-1.1,1.1-1.5,1.4l-0.5,0.3c0.4,0.2,0.7,0.3,0.8,0.4
	c0.1,0.1,0.3,0.2,0.4,0.4l0.3-0.3c0.3-0.3,0.6-0.7,1-1.1V99c0,0.1,0,0.3-0.1,0.5c0.5,0,1-0.1,1.4-0.1h2.2c0.4,0,0.9,0,1.4,0.1
	c0-0.3-0.1-0.5-0.1-0.5c0,0,0-0.1,0-0.2c0-0.1,0-0.2,0-0.3c0.6,0.4,0.9,0.6,1,0.6l0.5,0.3c0.2-0.4,0.4-0.7,0.5-0.9
	c0.1-0.2,0.3-0.4,0.4-0.5l-0.5-0.1C301.5,97.6,300.5,97.1,300.1,96.4z M296.2,98.5c0.4-0.5,0.7-0.9,1-1.3c0.3-0.4,0.6-0.9,1-1.6
	c0.4,0.8,0.8,1.4,1.2,1.7c0.3,0.4,0.8,0.7,1.3,1.1H296.2z M317,115.9c-1.8,0.1-3,0.1-3.5,0.1h-5.4c-0.5,0-1.8,0-3.7-0.1
	c0,0.4,0.1,0.6,0,0.7c0,0.1,0,0.1,0,0.3c0,0.1,0,0.2,0,0.4c2.3-0.1,3.5-0.1,3.7-0.1h0.7l0,0.7c0,0.2,0,0.5-0.1,0.9
	c0,0.4-0.1,0.7-0.1,0.9c0,0.3-0.1,0.6-0.2,1.1c-0.1,0.5-0.3,1.1-0.6,2c-0.3,0.8-1.3,1.7-2.9,2.6l-0.6,0.4c0.3,0.1,0.6,0.3,0.8,0.4
	c0.2,0.1,0.3,0.3,0.5,0.6l0.4-0.3c0.1-0.1,0.5-0.4,1-0.9c0.5-0.5,1-0.9,1.3-1.4c0.3-0.5,0.6-1,0.9-1.6c0.2-0.6,0.5-1.4,0.6-2.3h3.8
	l-0.4,3.5c0,0.4-0.1,0.6-0.2,0.8c-0.1,0.2-0.3,0.3-0.7,0.3c-0.3,0-0.8,0-1.4-0.2c0.2,0.4,0.4,0.7,0.4,0.9c0.1,0.2,0.1,0.4,0.2,0.8
	c0.9-0.1,1.5-0.2,1.8-0.3c0.3-0.1,0.6-0.3,0.7-0.5c0.2-0.2,0.3-0.4,0.3-0.7c0.1-0.3,0.1-0.5,0.1-0.8l0.4-3.6c0-0.4,0.1-0.7,0.1-0.9
	c0-0.1,0.1-0.4,0.1-0.8c-0.6,0-1.1,0.1-1.6,0.1h-3.5l0-0.5l0.1-0.7c0-0.1,0-0.4,0-0.7h3.5c0.2,0,1.3,0,3.4,0.1
	c0-0.4-0.1-0.6-0.1-0.7c0-0.1,0-0.1,0-0.2C316.9,116.2,316.9,116,317,115.9z M298.7,116c0.3-0.7,0.6-1.5,0.9-2.2
	c-0.4-0.1-0.9-0.3-1.3-0.6l-0.1,0.5c0,0.2-0.1,0.4-0.2,0.8c-0.1,0.4-0.2,0.7-0.3,0.9c-0.1,0.2-0.2,0.6-0.5,1.2
	c-0.3,0.6-0.6,1.1-1,1.6l-0.2,0.3l0-1.2c0-0.3,0-0.5,0-0.7c0-0.2,0-0.4,0.1-0.8c-0.7,0-1.1,0.1-1.2,0.1h-1.4l0.3-1.1l0.2-0.8
	l0.2-0.6c-0.5-0.1-0.9-0.2-1.4-0.3l0,0.8c0,0.5-0.1,1.1-0.3,1.9h-0.5c-0.1,0-0.5,0-1-0.1l0.1,0.8c0,0.3,0,0.5,0,0.7v6.2
	c0,0.4,0,0.7,0,1c0,0.3,0,0.7-0.1,1.2c0.4,0,0.7,0,0.8,0c0.1,0,0.2,0,0.4,0c0-0.4,0-0.7,0-0.8v-0.8h2.7v0.8c0,0.1,0,0.2,0,0.3
	c0,0.1,0,0.3,0,0.4c0.5,0,0.8,0,0.9,0c0.1,0,0.2,0,0.4,0l-0.1-1.1c0-0.3,0-0.6,0-1.1v-5c0.5,0.2,0.8,0.3,1.1,0.5l0.1-0.2l1.1-2h3
	l-0.4,6.7c0,0.2-0.1,0.4-0.1,0.6c-0.1,0.2-0.1,0.4-0.3,0.5c-0.1,0.1-0.4,0.2-0.9,0.2c-0.3,0-0.6,0-1-0.1l-0.3-0.1
	c0.3,0.5,0.5,0.8,0.6,1.1c0,0.2,0.1,0.4,0.1,0.6c1-0.1,1.7-0.2,2.2-0.5c0.5-0.2,0.7-0.5,0.8-0.7c0.1-0.3,0.1-0.5,0.2-0.7l0.6-8.5
	c-0.4,0-0.7,0.1-1.1,0.1H298.7z M294.7,123.3H292v-2.7h2.7V123.3z M294.7,119.7H292v-2.8h2.7V119.7z M298.6,122.4
	c0.4-0.2,0.8-0.4,1.2-0.6l-1.4-2.5c-0.3,0.2-0.7,0.4-1,0.5c0.7,1.1,1.1,1.9,1.2,2.4L298.6,122.4z M340,123.1c0,0.1-0.2,0.3-0.5,0.5
	l0.6,0.3c0.6,0.3,0.9,0.5,1,0.5l1.2,0.8c0.5,0.3,0.8,0.5,1,0.7l0.4,0.4c0.3-0.4,0.6-0.8,1-1.2l-4.3-2.4L340,123.1z M345,121
	c-0.9,0.1-1.6,0.1-2.2,0.1h-2.8l0.1-1c0,0,0-0.3,0.1-0.8c0-0.5,0.1-0.8,0.1-0.9l0.1-1l0.1-0.8c-0.5,0-1-0.1-1.5-0.1l0.1,0.9v0.7l0,1
	c0,0.2,0,0.5-0.1,0.8c0,0.4,0,0.6-0.1,0.7c0,0.1,0,0.3-0.1,0.6h-4c-0.4,0-1.1,0-2.2-0.1l0,0.5c0,0.1,0,0.2,0,0.2c0,0,0,0.1,0,0.2
	c0,0.1,0,0.2,0,0.4c1.1-0.1,1.9-0.1,2.2-0.1h3.6l-0.2,0.3c-0.2,0.3-0.6,0.6-1.4,1.1c-0.8,0.4-1.7,0.8-2.7,1l-1,0.2l-0.5,0.1l0.4,0.4
	c0.1,0.1,0.3,0.4,0.7,1l0.5-0.1c1.8-0.6,3-1.1,3.6-1.6c0.6-0.5,1.1-0.8,1.4-1.2c0.3-0.3,0.5-0.5,0.5-0.7c0.1-0.2,0.1-0.3,0.2-0.5h3
	c0.2,0,0.5,0,0.9,0c0.4,0,0.8,0,1.3,0c0-0.3-0.1-0.5-0.1-0.6c0-0.1,0-0.2,0-0.3C345,121.3,345,121.2,345,121z M324.9,122.9l-0.7,0.2
	l-0.7,0.2l-1.1,0.3v-3.1h0.7c0.1,0,0.5,0,1.4,0.1c0-0.3-0.1-0.5-0.1-0.6c0-0.1,0-0.2,0-0.2c0-0.1,0-0.2,0.1-0.4
	c-0.5,0-0.9,0.1-1.3,0.1h-2.6c-0.5,0-1,0-1.6-0.1l0.1,0.5c0,0,0,0.1,0,0.2c0,0.1,0,0.2,0,0.3c0,0.1,0,0.2,0,0.4
	c0.9,0,1.5-0.1,1.6-0.1l0.7,0v3.3c-0.7,0.2-1.4,0.3-2.1,0.4l-0.6,0.1c0.1,0.5,0.2,0.8,0.2,0.9c0,0.1,0.1,0.3,0.1,0.5l0.8-0.2
	c0.1,0,0.4-0.1,0.9-0.2l1.6-0.4c0.8-0.2,1.4-0.3,1.9-0.4l0.8-0.2l0-0.4c0,0,0-0.1,0-0.3C324.8,123.3,324.9,123.1,324.9,122.9z
	 M329.8,123.8l-0.1,0.5c-0.1,0.2-0.1,0.3-0.3,0.5c-0.1,0.1-0.4,0-0.8-0.5c-0.4-0.5-0.8-1-1.1-1.6c-0.3-0.6-0.5-1.2-0.7-1.8
	c-0.2-0.6-0.3-1.2-0.4-1.8c-0.1-0.6-0.1-1-0.1-1.2c0-0.2,0-0.3,0-0.5h1.5c0.7,0,1.7,0,3,0.1c0-0.4-0.1-0.6-0.1-0.6
	c0-0.1,0-0.1,0-0.3c0-0.1,0-0.3,0.1-0.4c-1.2,0.1-2.2,0.1-3,0.1h-1.5l-0.1-1l0-0.8l0-0.8c-0.3,0-0.7-0.1-1.4-0.2l0.1,0.8l0.1,0.9
	c0,0.2,0,0.6,0.1,1h-3.4c-0.9,0-2,0-3.4-0.1c0,0.3,0,0.6,0,0.7c0,0.1,0,0.2,0,0.2c0,0.1,0,0.2,0,0.4c1.4-0.1,2.5-0.1,3.4-0.1h3.4
	l0.1,1.1c0,0.2,0.1,0.6,0.1,1.1c0.1,0.5,0.2,1.1,0.4,1.9c0.2,0.8,0.5,1.7,1.1,2.6c0.5,0.9,1.1,1.6,1.7,1.9c0.6,0.3,1,0.5,1.2,0.5
	c0.2,0,0.4-0.1,0.6-0.3c0.2-0.2,0.3-0.4,0.5-0.9c0.2-0.4,0.3-0.8,0.5-1.3c-0.5-0.1-0.9-0.4-1.3-0.8L329.8,123.8z M286,122.5
	c0.1-0.5,0.1-0.8,0.2-1l0-0.9l0.1-1l0.1-1.3c-0.2,0-0.6,0-1.2,0l0,0.8c0,0.3,0,0.8,0,1.4c0,0.7-0.1,1.1-0.1,1.4
	c0,0.2-0.1,0.5-0.1,0.7c-0.1,0.2-0.2,0.5-0.4,0.8c-0.2,0.3-0.5,0.7-0.9,1c-0.4,0.3-0.9,0.6-1.5,0.8l-0.4,0.1
	c0.4,0.4,0.7,0.7,0.8,1.1l0.4-0.2c0.2-0.1,0.5-0.3,1-0.7c0.5-0.4,0.9-0.7,1.2-1.1c0.3-0.4,0.5-0.7,0.6-0.9
	C285.9,123.4,286,123,286,122.5z M283.1,122.1c0,0.2,0,0.5-0.1,0.8c0.5-0.1,0.9-0.1,1.2,0l-0.1-0.8c0-0.1,0-0.4,0-0.8v-3.8h3.2v3.6
	c0,0.3,0,0.6,0,0.8c0,0.2,0,0.5-0.1,0.9c0.4-0.1,0.8-0.1,1.2,0l0-0.9c0-0.4,0-0.7,0-0.9V118c0-0.2,0-0.4,0-0.6c0-0.2,0-0.5,0-0.9
	c-0.4,0-0.8,0.1-1.2,0.1H286l0.4-1.6h1.2c0.2,0,0.7,0,1.5,0.1l0-0.4v-0.2c0-0.1,0-0.2,0-0.3c0,0,0-0.1,0-0.3c-0.5,0-1,0.1-1.5,0.1
	h-3c-0.5,0-1,0-1.5-0.1c0,0.3,0.1,0.5,0,0.5c0,0.1,0,0.1,0,0.2c0,0.1,0,0.2,0,0.4c0.8,0,1.3-0.1,1.5-0.1h0.7l-0.3,1.6h-0.7
	c-0.4,0-0.8,0-1.2-0.1l0.1,0.7c0,0.1,0,0.3,0,0.6v3.5C283.1,121.7,283.1,121.9,283.1,122.1z M286.2,123.7c-0.1,0.1-0.3,0.2-0.5,0.3
	l0.6,0.4c0.2,0.2,0.5,0.4,0.8,0.7c0.3,0.3,0.6,0.5,0.7,0.7l0.4,0.5c0.3-0.4,0.6-0.7,0.9-1l-2.6-2.2
	C286.4,123.5,286.3,123.7,286.2,123.7z M265.6,124.5c0.4-0.2,0.8-0.4,1.2-0.5l-1.2-1.8c-0.4,0.2-0.7,0.4-1.1,0.5l0.4,0.5
	c0.3,0.4,0.5,0.7,0.6,1L265.6,124.5z M276.5,116.4c0,0.1,0,0.3-0.1,0.5c0.5,0,0.9,0,1.2,0l-0.1-0.5c0-0.1,0-0.2,0-0.5v-0.4h4.2v0.4
	c0,0.1,0,0.3,0,0.4c0,0.1,0,0.2,0,0.4c0.3,0,0.5,0,0.6,0c0.1,0,0.3,0,0.6,0l-0.1-0.4c0-0.1,0-0.2,0-0.4v-0.6c0-0.1,0-0.3,0-0.4
	c0-0.1,0-0.2,0.1-0.4c-0.4,0-0.8,0.1-1.2,0.1h-1.3l-0.4-1.4c-0.7,0.1-1.1,0.2-1.2,0.2l0.2,0.4l0.2,0.5c0,0.1,0.1,0.2,0.1,0.3h-1.5
	c-0.4,0-0.9,0-1.3-0.1l0.1,0.5c0,0.1,0,0.2,0,0.5v0.4C276.5,116.2,276.5,116.3,276.5,116.4z M281.7,124.6V123c0-0.2,0-0.5,0-0.6
	c0-0.2,0-0.4,0-0.7l-0.6,0l-0.6,0h-2.2c0.3-0.2,0.7-0.5,0.9-0.7c0.3-0.2,0.5-0.4,0.7-0.5c0.3,0.1,0.6,0.4,1.1,0.7
	c0.5,0.3,0.7,0.5,0.9,0.6l0.2,0.2c0.2-0.4,0.5-0.7,0.7-1l-2.2-1.2c0.9-1,1.3-1.5,1.3-1.5c0,0,0.2-0.4,0.6-1.1
	c-0.4,0-0.9,0.1-1.3,0.1h-2.1l0.2-0.3l0.3-0.3l0.2-0.2c-0.3-0.1-0.7-0.2-1-0.5l-0.2,0.4c-0.7,1.1-1.4,1.9-2.2,2.6l-0.4,0.3l0.4,0.2
	c0,0,0.2,0.2,0.6,0.5l0.2-0.2c0,0,0.1-0.2,0.3-0.4c0.2-0.2,0.5-0.6,0.9-1l2.2-0.1c-0.3,0.4-0.6,0.7-1,1.2l-1.2-0.7
	c-0.2,0.3-0.4,0.6-0.7,0.8l0.4,0.2l0.4,0.2c0.1,0,0.2,0.1,0.4,0.2c-0.6,0.5-1.3,1-2,1.3l-0.7,0.3l-0.4,0.2c0.3,0.3,0.6,0.6,0.9,1
	l0.2-0.1c0,0,0.1-0.1,0.2-0.1c0.1-0.1,0.2-0.2,0.4-0.2v2.8c0,0.3,0,0.5,0,0.6c0,0.2,0,0.4-0.1,0.7c0.3,0,0.5-0.1,0.6,0
	c0.1,0,0.3,0,0.6,0l0-0.4l0-0.4V125h2.1v0.3c0,0.1,0,0.3,0,0.6c0.3,0,0.5-0.1,0.6,0c0.1,0,0.3,0,0.6,0l-0.1-0.7
	C281.7,125.2,281.7,125,281.7,124.6z M280.6,124.1h-2.1v-1.6h2.1V124.1z M295.8,103.3l0.1,0.8c0.3-0.1,0.7-0.2,1.2-0.2l-0.4-1.8
	c0-0.2-0.2-0.7-0.4-1.6c-0.5,0.2-0.9,0.2-1.2,0.3l0.2,0.7c0.1,0.2,0.1,0.5,0.2,1C295.7,102.8,295.7,103.1,295.8,103.3z M297.7,102.9
	l0.1,0.7c0.3-0.1,0.7-0.2,1.2-0.2l-0.3-1.7c0-0.2-0.2-0.7-0.4-1.7c-0.3,0.1-0.7,0.2-1.2,0.2l0.2,0.6c0,0.2,0.1,0.5,0.2,1
	C297.7,102.3,297.7,102.7,297.7,102.9z M286.9,103.1c-0.4-0.5-0.8-1.1-1.1-1.7h1.7c0.2,0,0.6,0,1.4,0.1c-0.1-0.4-0.1-0.6-0.1-0.7
	c0,0,0-0.1,0-0.2c0-0.1,0-0.2,0.1-0.4c-0.5,0-1,0.1-1.4,0.1H285v-1.4h1.6c0.5,0,1,0,1.3,0.1l-0.1-0.6c0-0.1,0-0.3,0-0.5v-2.2
	c0-0.2,0-0.4,0-0.5c0-0.2,0-0.4,0.1-0.6c-0.8,0-1.2,0.1-1.3,0.1h-4c-0.1,0-0.5,0-1.3-0.1l0.1,0.6c0,0.1,0,0.3,0,0.5v2.2
	c0,0.2,0,0.4,0,0.5c0,0.1,0,0.3-0.1,0.6c0.3,0,0.8-0.1,1.3-0.1h1.3v1.4h-2.8c-0.2,0-0.6,0-1.2-0.1c0,0.4,0,0.6,0,0.7
	c0,0.1,0,0.1,0,0.2c0,0.1,0,0.2,0,0.4c0.5-0.1,0.9-0.1,1.2-0.1h1.8c-0.5,0.9-1.1,1.6-1.6,2.1c-0.5,0.5-1.1,0.9-1.7,1.3l-0.3,0.2V97
	c0.6-1.1,0.9-1.8,1-1.9l0.4-0.7c-0.4-0.2-0.9-0.4-1.3-0.7l-0.2,0.6c-0.2,0.5-0.3,0.9-0.5,1.4c-0.2,0.4-0.5,1.1-1,2.1
	c-0.5,0.9-1,1.6-1.4,2.1l-0.2,0.2c0.3,0.3,0.5,0.7,0.8,1.2l0.2-0.3l0.4-0.6c0.2-0.3,0.4-0.7,0.7-1.1v5.4c0,0.3,0,0.6,0,0.9
	c0,0.3,0,0.7-0.1,1.1c0.4,0,0.6-0.1,0.7,0c0.1,0,0.3,0,0.7,0l-0.1-1.5c0.5,0.2,0.9,0.5,1.1,0.8l0.3-0.3c0.6-0.5,1-1,1.4-1.5
	c0.4-0.5,0.7-0.9,1-1.3c0.2-0.4,0.5-0.8,0.6-1.2v3.6c0,0.2,0,0.5,0,0.7c0,0.2,0,0.5-0.1,0.9c0.4,0,0.7,0,0.8,0c0.1,0,0.3,0,0.4,0
	l-0.1-0.9c0-0.2,0-0.4,0-0.7v-3.5c0.2,0.5,0.4,1,0.7,1.5c0.2,0.5,0.5,0.8,0.8,1.1c0.3,0.3,0.6,0.6,1,0.9c0.4,0.3,0.6,0.5,0.7,0.6
	l0.2,0.1c0.2-0.3,0.4-0.6,0.5-0.7c0.1-0.1,0.3-0.3,0.6-0.5l-0.4-0.2C288,104.1,287.3,103.6,286.9,103.1z M282.6,97.9v-2.2h4v2.2
	H282.6z M294.1,105.6c0,0.1,0,0.3-0.1,0.7l1.1,0l1.1,0h4.1c0.2,0,0.4,0,0.8,0c0.4,0,0.8,0,1.3,0l0-0.4l0-0.2c0,0,0-0.1,0-0.2
	c0-0.1,0-0.2,0-0.4c-0.7,0.1-1.4,0.1-2.1,0.1h-0.5l0.2-0.7l0.5-1.4c0.2-0.4,0.3-0.9,0.6-1.5l0.5-1.2c-0.5-0.1-1-0.3-1.4-0.5L300,101
	c-0.1,0.5-0.3,1.1-0.5,1.8c-0.2,0.6-0.5,1.4-0.8,2.3h-2.5c-0.7,0-1.4,0-2.1-0.1C294.1,105.3,294.1,105.6,294.1,105.6z M290.6,105.6
	c0,0.3,0,0.6-0.1,1.2c0.4,0,0.6-0.1,0.7,0c0.1,0,0.3,0,0.6,0l-0.1-1.2c0-0.1,0-0.5,0-1.1v-8.6h1.6c-0.4,1.3-0.6,2.1-0.7,2.4
	c-0.1,0.3-0.3,0.7-0.5,1.1c0.5,0.8,0.9,1.4,1.1,1.8c0.1,0.4,0.2,0.6,0.2,0.8c0,0.2,0,0.4,0,0.5c0,0.2-0.1,0.3-0.1,0.4
	c-0.1,0.1-0.3,0.2-0.6,0.2c-0.2,0-0.4,0-0.8-0.1c0.3,0.5,0.5,0.7,0.5,0.8c0,0.1,0.1,0.3,0.2,0.7c0.8-0.2,1.3-0.4,1.5-0.7
	c0.2-0.2,0.4-0.5,0.5-0.8c0.1-0.3,0.1-0.5,0.1-0.7c0-0.2,0-0.5-0.1-0.7c-0.1-0.3-0.2-0.6-0.3-0.9c-0.1-0.3-0.4-0.8-0.9-1.4l1.6-4.7
	c-0.5,0-1,0.1-1.5,0.1h-1.5c-0.4,0-0.9,0-1.4-0.1l0.1,1.3c0,0.7,0,1,0,1.1v7.4C290.6,105,290.6,105.3,290.6,105.6z"/>
</svg>
