<?xml version="1.0" encoding="utf-8"?>
<!-- Generator: Adobe Illustrator 16.0.0, SVG Export Plug-In . SVG Version: 6.00 Build 0)  -->
<!DOCTYPE svg PUBLIC "-//W3C//DTD SVG 1.1//EN" "http://www.w3.org/Graphics/SVG/1.1/DTD/svg11.dtd">
<svg version="1.1" id="图层_1" xmlns="http://www.w3.org/2000/svg" xmlns:xlink="http://www.w3.org/1999/xlink" x="0px" y="0px"
	 width="640px" height="104.422px" viewBox="0 0 640 104.422" enable-background="new 0 0 640 104.422" xml:space="preserve">
<g>
	<path fill="#AE7B28" d="M149.431,61.79c-1.274,1.48-2.298,2.568-3.074,3.258c-0.776,0.695-1.499,1.285-2.18,1.773
		c-0.677,0.488-1.23,0.846-1.659,1.066c-0.425,0.223-0.653,0.342-0.683,0.359l-0.327,0.191c-0.057,0.037-0.119,0.051-0.184,0.051
		c-0.064-0.002-0.098-0.014-0.102-0.031c-0.004-0.02-0.004-0.043,0-0.08c0.004-0.035,0.037-0.076,0.094-0.131l0.309-0.254
		c0.689-0.572,1.39-1.234,2.105-1.979c0.714-0.748,1.466-1.678,2.264-2.795c0.793-1.117,1.366-2.01,1.71-2.674l0.2-0.396l0.143-0.34
		c0.012-0.02,0.023-0.035,0.035-0.047l0.429,0.193l1.868,0.809c0.084,0.041,0.137,0.076,0.163,0.109
		c0.025,0.031,0.039,0.072,0.043,0.123c0.004,0.049-0.055,0.096-0.171,0.143l-0.595,0.246l-0.088,0.105
		c0.665,1.111,1.323,1.916,1.977,2.414c0.651,0.496,1.221,0.887,1.704,1.164c0.483,0.281,0.998,0.549,1.548,0.797
		c0.548,0.248,1.111,0.438,1.683,0.566l0.571,0.123l0.429,0.096c0.111,0.029,0.172,0.057,0.178,0.084
		c0.006,0.023,0.01,0.047,0.01,0.066c-0.012,0.057-0.039,0.096-0.082,0.113l-0.261,0.105c-0.258,0.104-0.46,0.199-0.608,0.287
		c-0.145,0.09-0.301,0.213-0.466,0.373c-0.168,0.162-0.279,0.312-0.336,0.447c-0.053,0.137-0.096,0.225-0.122,0.254
		c-0.027,0.033-0.057,0.047-0.094,0.043c-0.145,0-0.69-0.264-1.644-0.791c-0.95-0.527-1.718-1.107-2.303-1.742
		c-0.585-0.637-1.066-1.256-1.446-1.861c-0.381-0.604-0.655-1.156-0.827-1.652L149.431,61.79z M150.256,67.702
		c-0.033,0.035-0.078,0.09-0.133,0.158c-0.051,0.07-0.141,0.145-0.269,0.219v2.605h1.729l0.658-0.779
		c0.131-0.164,0.219-0.248,0.25-0.25c0.037-0.004,0.168,0.08,0.396,0.25l1.15,0.902c0.135,0.115,0.197,0.201,0.189,0.264
		c-0.01,0.066-0.09,0.1-0.24,0.1h-4.133v3.191h3.87l0.867-0.938l0.146-0.141c0.086-0.102,0.141-0.15,0.177-0.146
		c0.037,0.002,0.174,0.098,0.414,0.287l1.288,1.016c0.094,0.084,0.148,0.141,0.168,0.17c0.016,0.035,0.027,0.078,0.029,0.133
		c0.002,0.057-0.094,0.082-0.295,0.082h-0.918h-13.583c-0.145,0-0.219-0.076-0.223-0.229c-0.004-0.156,0.07-0.234,0.223-0.234h6.132
		V71.17h-3.755h-0.078c-0.061-0.02-0.104-0.043-0.135-0.066c-0.033-0.027-0.047-0.105-0.045-0.23
		c0.002-0.127,0.062-0.189,0.18-0.189h3.833v-2.982h-3.788c-0.135,0-0.207-0.078-0.215-0.23c-0.01-0.156,0.062-0.234,0.215-0.234
		h6.307l0.659-0.727c0.154-0.17,0.24-0.254,0.264-0.252c0.022,0.004,0.132,0.074,0.323,0.217l1.158,0.877
		c0.124,0.098,0.179,0.18,0.175,0.236c-0.01,0.078-0.087,0.113-0.229,0.113h-1.139H150.256z"/>
	<path fill="#AE7B28" d="M174.084,61.799h-10.249v11.746h10.249V61.799z M163.897,61.317h10.081l0.379-0.395
		c0.15-0.166,0.253-0.246,0.304-0.244c0.055,0.004,0.16,0.055,0.318,0.154l0.797,0.535c0.17,0.123,0.271,0.201,0.303,0.229
		c0.031,0.029,0.05,0.055,0.054,0.07c0.002,0.018-0.004,0.033-0.014,0.053c-0.011,0.023-0.062,0.086-0.149,0.186l-0.316,0.367v10.24
		l0.07,2.262c-0.041,0.15-0.093,0.266-0.157,0.334s-0.209,0.133-0.439,0.184c-0.229,0.053-0.409,0.076-0.542,0.07
		c-0.333,0-0.501-0.121-0.501-0.367V74.03h-10.249v0.822c0,0.064-0.062,0.148-0.184,0.246c-0.124,0.1-0.384,0.154-0.787,0.16
		c-0.211,0.006-0.36-0.016-0.45-0.064c-0.088-0.045-0.166-0.125-0.236-0.236l0.105-2.973v-9.23l-0.105-2.055
		c0.041-0.057,0.07-0.09,0.09-0.098c0.016-0.01,0.135,0.035,0.358,0.135L163.897,61.317z M169.66,68.448
		c-0.051-0.039-0.082-0.084-0.084-0.135s0.078-0.084,0.244-0.102c0.066-0.006,0.409,0.062,1.035,0.205
		c0.626,0.145,0.992,0.363,1.1,0.66c0.111,0.293,0.166,0.5,0.168,0.617s-0.012,0.221-0.049,0.307
		c-0.082,0.211-0.195,0.35-0.339,0.408c-0.143,0.062-0.248,0.092-0.32,0.092c-0.263,0.008-0.44-0.07-0.532-0.232
		c-0.096-0.158-0.184-0.359-0.259-0.6c-0.08-0.238-0.18-0.434-0.293-0.584c-0.113-0.148-0.237-0.285-0.378-0.406L169.66,68.448z
		 M167.732,67.088v-3.143h-3.176l-0.133-0.041l-0.033-0.037l-0.018-0.035c-0.02-0.039-0.031-0.109-0.035-0.209
		c0-0.1,0.07-0.15,0.219-0.15h6.48l0.45-0.561c0.186-0.232,0.323-0.352,0.411-0.355c0.09-0.004,0.236,0.084,0.449,0.26l0.744,0.639
		c0.199,0.17,0.297,0.293,0.297,0.369c-0.004,0.082-0.051,0.121-0.137,0.121h-3.731l-0.246,0.273v2.869h1.659l0.403-0.533
		c0.168-0.23,0.285-0.346,0.348-0.348c0.062-0.004,0.204,0.09,0.437,0.275l0.83,0.701c0.125,0.113,0.189,0.18,0.199,0.197
		c0.008,0.021,0.012,0.041,0.012,0.057c-0.012,0.084-0.082,0.123-0.211,0.123h-3.677v3.879h2.062l0.538-0.623
		c0.172-0.197,0.283-0.303,0.326-0.312c0.045-0.008,0.152,0.055,0.319,0.189l0.905,0.73c0.208,0.174,0.317,0.293,0.317,0.359
		c-0.008,0.08-0.078,0.123-0.215,0.123h-1.56v0.01h-7.51c-0.129,0-0.199-0.082-0.207-0.24c-0.008-0.156,0.061-0.236,0.207-0.236
		h3.273v-3.879h-2.782c-0.105-0.002-0.176-0.023-0.219-0.059c-0.042-0.037-0.062-0.115-0.065-0.234
		c-0.004-0.121,0.069-0.18,0.216-0.18H167.732z"/>
	<path fill="#AE7B28" d="M196.117,66.653h18.222c0.144-1.061,0.249-2.051,0.327-2.969l0.281-4.162l0.144-1.428l0.047-0.537H197.61
		L196.117,66.653z M198.878,47.608l-1.125,8.679h17.408l0.353-8.679H198.878z M218.483,66.653h1.71l1.351-2.012
		c0.422-0.623,0.687-0.965,0.79-1.037c0.096-0.072,0.47,0.16,1.109,0.688l2.78,2.361c0.47,0.426,0.718,0.672,0.748,0.736
		c0.033,0.072,0.049,0.127,0.049,0.16c-0.033,0.23-0.294,0.342-0.797,0.342h-7.811c-0.231,1.256-0.472,2.236-0.712,2.963
		c-0.247,0.727-0.646,1.518-1.206,2.363c-0.565,0.848-1.285,1.463-2.164,1.822c-0.886,0.367-1.571,0.615-2.06,0.742
		c-0.495,0.119-0.838,0.223-1.029,0.287c-0.192,0.072-0.335,0.104-0.433,0.088c-0.229-0.016-0.382-0.096-0.446-0.225
		c-0.064-0.135-0.119-0.398-0.176-0.797s-0.376-0.871-0.959-1.422c-0.583-0.559-1.223-0.959-1.909-1.205l-1.188-0.328l-1.078-0.303
		c-0.137-0.033-0.225-0.088-0.256-0.168s-0.047-0.152-0.055-0.209c-0.01-0.062,0.016-0.127,0.078-0.189
		c0.096-0.121,0.289-0.17,0.583-0.137l0.728,0.088c1.278,0.176,2.444,0.256,3.505,0.238c1.223,0,2.125-0.215,2.716-0.629
		c0.591-0.424,1.014-1.031,1.262-1.83l0.399-1.15h-17.688l-0.886,1.453c-0.312,0.52-0.487,0.783-0.528,0.809
		c-0.041,0.023-0.343-0.186-0.926-0.615l-2.667-1.949c-0.399-0.279-0.591-0.471-0.567-0.566c0.023-0.104,0.064-0.193,0.135-0.271
		c0.073-0.08,0.312-0.248,0.721-0.504c0.398-0.254,0.671-0.559,0.813-0.902l0.185-0.727l0.166-0.607l0.982-6.453h-8.097
		c-0.358,0-0.552-0.215-0.593-0.639c-0.039-0.414,0.16-0.631,0.593-0.631h8.425c0.096-1.166,0.286-2.746,0.575-4.742
		c0.288-1.997,0.456-3.522,0.503-4.569l0.072-1.637v-0.814c0.041-0.049,0.095-0.08,0.149-0.088c0.059-0.008,0.25,0.072,0.593,0.225
		l3.586,1.684h15.507l0.888-1.285c0.374-0.527,0.582-0.799,0.623-0.807c0.039-0.008,0.27,0.104,0.687,0.344l3.346,1.964
		c0.55,0.327,0.862,0.535,0.951,0.64c0.086,0.104,0.135,0.191,0.143,0.271c0.008,0.08-0.15,0.208-0.462,0.399l-1.47,0.934
		l-0.519,7.483h2.292l1.548-2.361c0.328-0.512,0.535-0.775,0.632-0.783c0.094-0.008,0.479,0.254,1.148,0.783l2.876,2.361
		c0.511,0.441,0.784,0.76,0.807,0.959c0.023,0.207-0.304,0.311-0.975,0.311h-8.441c-0.078,0.887-0.184,2.316-0.305,4.289
		c-0.126,1.973-0.19,3.035-0.19,3.17l-0.111,1.127L218.483,66.653z M203.089,48.71v-0.208c-0.018-0.031-0.018-0.057,0-0.072
		c0.016-0.096,0.117-0.152,0.303-0.168c0.126,0,0.343,0.057,0.654,0.168l1.477,0.561c0.513,0.238,1.216,0.661,2.102,1.276
		c0.893,0.615,1.349,1.406,1.372,2.365c0.023,0.957-0.206,1.668-0.678,2.139c-0.48,0.473-1.021,0.695-1.63,0.68
		c-0.445,0-0.839-0.111-1.156-0.344c-0.32-0.223-0.544-0.479-0.665-0.766c-0.125-0.289-0.191-0.855-0.199-1.686
		c-0.008-0.838-0.111-1.518-0.304-2.053c-0.199-0.525-0.437-0.973-0.741-1.333L203.089,48.71z M202.664,58.469
		c-0.031-0.033-0.039-0.088-0.031-0.176s0.088-0.152,0.248-0.199c0.087-0.018,0.805,0.223,2.139,0.727
		c1.333,0.494,2.277,1.182,2.842,2.061c0.562,0.869,0.841,1.611,0.841,2.219c-0.018,0.375-0.16,0.879-0.446,1.518
		c-0.281,0.639-0.897,0.959-1.845,0.959c-0.737,0.016-1.225-0.191-1.478-0.617c-0.25-0.43-0.393-0.854-0.44-1.275l-0.07-1.541
		c-0.098-1.094-0.479-2.086-1.15-2.971L202.664,58.469z M223.978,40.572h-27.463c-0.159,0.199-1.029,1.398-2.618,3.586
		c-1.597,2.195-3.905,4.584-6.931,7.17l-1.007,0.871c-0.312,0.264-0.512,0.352-0.607,0.264c-0.088-0.08-0.145-0.176-0.152-0.264
		c-0.008-0.096,0.047-0.215,0.152-0.352l0.75-1.006l1.055-1.381c0.8-1.062,1.646-2.364,2.562-3.906
		c0.912-1.549,1.661-2.97,2.246-4.287c0.58-1.311,1.143-2.65,1.668-4.033c0.535-1.381,0.862-2.324,0.983-2.843l0.237-1.006
		l0.137-0.767c0.031-0.016,0.08-0.041,0.145-0.064c0.062-0.023,0.423,0.096,1.076,0.367l4.537,1.916
		c0.423,0.185,0.631,0.359,0.631,0.512c-0.018,0.176-0.144,0.296-0.399,0.375l-1.47,0.496c-1.076,1.652-1.765,2.683-2.059,3.082
		h21.383l1.447-1.941c0.175-0.23,0.327-0.471,0.456-0.726c0.135-0.247,0.286-0.329,0.462-0.239c0.168,0.08,0.544,0.352,1.117,0.806
		l2.886,2.315c0.429,0.376,0.653,0.639,0.661,0.807c0.01,0.16-0.367,0.248-1.133,0.248H223.978z"/>
	<path fill="#AE7B28" d="M264.658,37.01c0.238,0.655,0.48,1.263,0.741,1.83c0.258,0.559,0.912,1.62,1.966,3.178
		c1.055,1.566,2.811,3.298,5.271,5.223c2.466,1.916,4.767,3.202,6.905,3.858l1.359,0.422c0.263,0.088,0.399,0.242,0.407,0.439
		c0.008,0.209-0.096,0.328-0.32,0.377l-1.188,0.277c-1.111,0.273-1.966,0.617-2.564,1.031c-0.599,0.424-1.039,0.83-1.317,1.23
		c-0.287,0.398-0.47,0.598-0.567,0.598c-0.279,0.018-1.174-0.559-2.675-1.725c-1.51-1.158-2.915-2.611-4.223-4.36
		c-1.311-1.749-2.301-3.25-2.972-4.512c-0.671-1.27-1.526-3.234-2.563-5.91c-1.039-2.676-1.63-4.168-1.788-4.479l-0.425-0.798
		c-0.088-0.152-0.129-0.265-0.111-0.337c0.016-0.071,0.064-0.118,0.16-0.151c0.095-0.031,0.325-0.016,0.703,0.049l4.75,1.006
		c0.312,0.072,0.495,0.167,0.552,0.279c0.048,0.104,0.071,0.176,0.063,0.199c-0.008,0.025-0.049,0.096-0.112,0.216
		c-0.07,0.128-0.127,0.216-0.176,0.263L264.658,37.01z M254.229,39.75c-1.798,2.436-3.602,4.76-5.43,6.971
		c-1.829,2.213-3.602,4.088-5.319,5.631c-1.726,1.533-2.953,2.562-3.688,3.098l-1.452,1.055c-0.281,0.199-0.472,0.264-0.569,0.199
		c-0.104-0.072-0.152-0.184-0.152-0.344c0-0.152,0.066-0.318,0.209-0.486l1.237-1.334c1.439-1.549,2.819-3.393,4.153-5.534
		c1.333-2.148,2.419-4.025,3.266-5.639c0.84-1.613,1.437-2.875,1.779-3.777l0.841-2.3l0.493-1.374c0.121-0.047,0.343,0,0.655,0.137
		l4.839,2.41c0.44,0.232,0.663,0.465,0.671,0.688c0.01,0.232-0.184,0.375-0.573,0.439L254.229,39.75z M250.859,53.063h-5.007
		c-0.425,0-0.687-0.207-0.8-0.623c-0.104-0.408,0.16-0.615,0.8-0.615h19.278l0.98-1.311c0.2-0.279,0.368-0.422,0.503-0.414
		c0.137,0.008,0.327,0.104,0.599,0.271l3.53,2.412c0.248,0.182,0.377,0.359,0.377,0.51c-0.018,0.16-0.105,0.287-0.258,0.398
		l-1.125,0.801c-0.033,1.572-0.057,2.969-0.072,4.199c-0.016,1.223-0.064,2.691-0.151,4.393c-0.088,1.709-0.271,3.41-0.573,5.096
		c-0.297,1.684-0.769,2.961-1.416,3.832s-1.405,1.574-2.277,2.109c-0.877,0.527-1.618,0.885-2.227,1.078
		c-0.608,0.182-1.006,0.271-1.188,0.254c-0.16,0-0.266-0.023-0.328-0.064c-0.064-0.031-0.121-0.094-0.176-0.174
		c-0.056-0.072-0.104-0.201-0.151-0.369l-0.376-1.221c-0.176-0.344-0.479-0.734-0.911-1.166c-0.438-0.438-0.949-0.775-1.548-1.006
		l-1.749-0.68c-0.208-0.062-0.353-0.15-0.438-0.254c-0.082-0.113-0.121-0.199-0.113-0.271s0.072-0.152,0.199-0.248
		c0.121-0.096,0.304-0.129,0.536-0.113l2.012,0.184c1.966,0.186,3.242,0.098,3.825-0.27c0.583-0.369,1.039-0.809,1.367-1.318
		c0.327-0.52,0.581-1.359,0.764-2.531c0.178-1.166,0.32-2.557,0.418-4.154c0.103-1.596,0.159-3.729,0.175-6.395v-1.822v-0.518
		h-9.399l-0.613,0.727c-0.137,1.557-0.289,3.074-0.457,4.551c-0.159,1.471-0.511,3.051-1.037,4.736
		c-0.528,1.686-1.454,3.314-2.772,4.902c-1.317,1.582-2.812,2.844-4.479,3.777c-1.669,0.936-3.179,1.719-4.52,2.34l-1.565,0.727
		c-0.111,0.057-0.264,0.088-0.454,0.08c-0.199-0.008-0.312-0.08-0.344-0.223c-0.033-0.145,0.096-0.305,0.375-0.486l1.524-1.057
		c3.817-2.65,6.164-5.182,7.044-7.586c0.871-2.395,1.421-4.432,1.661-6.1c0.231-1.67,0.368-3.043,0.415-4.105
		c0.047-1.07,0.08-1.662,0.096-1.766L250.859,53.063z"/>
	<path fill="#AE7B28" d="M327.897,56.895v-11.69h-5.265v11.69H327.897z M318.792,56.895v-11.69h-4.862v11.69H318.792z
		 M318.792,43.934V36.5l-0.093-3.395c0.093-0.096,0.19-0.159,0.278-0.184l0.591,0.135l4.232,0.96
		c0.199,0.063,0.303,0.159,0.295,0.296c-0.008,0.135-0.111,0.271-0.295,0.406l-1.168,0.91v8.305h5.12l1.197-1.492l0.185-0.256
		c0.127-0.048,0.271-0.023,0.447,0.072l3.481,2.244c0.176,0.119,0.273,0.199,0.297,0.223c0.023,0.024,0.038,0.048,0.054,0.08
		c0.018,0.032,0.033,0.072,0.041,0.112c0,0.048-0.079,0.144-0.247,0.288l-1.127,0.934v10.829l0.121,3.02
		c-0.047,0.223-0.137,0.414-0.256,0.598c-0.129,0.176-0.503,0.367-1.127,0.574c-0.622,0.201-1.292,0.297-2.012,0.281
		c-0.606,0-0.91-0.225-0.91-0.68v-2.594h-5.265v12.768l0.137,3.395c-0.184,0.486-0.622,0.814-1.311,0.982
		c-0.686,0.176-1.274,0.264-1.779,0.271c-0.495,0.008-0.79-0.031-0.87-0.104c-0.088-0.08-0.159-0.207-0.2-0.377l0.183-4.703V58.167
		h-4.862v2.363c0,0.166-0.199,0.432-0.599,0.781c-0.399,0.352-1.261,0.52-2.587,0.504c-0.392,0-0.616-0.049-0.687-0.145
		c-0.074-0.096-0.104-0.256-0.104-0.486l0.183-4.217V46.586l-0.094-4.448c0.062-0.048,0.119-0.072,0.15-0.08
		c0.041-0.009,0.201,0.056,0.479,0.2l3.258,1.676H318.792z M298.678,41.482h4.935l1.638-1.828c0.199-0.216,0.328-0.328,0.374-0.336
		c0.041-0.008,0.145,0.056,0.305,0.199l2.925,2.74c0.046,0.055,0.077,0.111,0.093,0.158v0.098v0.047
		c-0.016,0.136-0.151,0.208-0.397,0.208h-10.812c-2.508,3.011-4.385,5.087-5.639,6.222l-1.055,0.958
		c-0.184,0.176-0.319,0.232-0.407,0.168s-0.129-0.127-0.129-0.191c0-0.057,0.025-0.137,0.074-0.232l0.79-1.237l1.317-2.013
		c1.148-1.845,2.195-3.944,3.145-6.317c0.944-2.371,1.575-4.072,1.903-5.103l0.397-1.237c0.129-0.392,0.184-0.592,0.168-0.607
		l0.023,0.023l0.368,0.136l4.641,2.252c0.134,0.072,0.247,0.151,0.325,0.216c0.074,0.072,0.121,0.129,0.129,0.168
		s-0.039,0.104-0.129,0.2c-0.094,0.095-0.207,0.151-0.325,0.183l-1.199,0.328L298.678,41.482z M302.438,49.948
		c-0.12,0.424-0.433,0.711-0.91,0.869v5.592h2.014l1.708-2.197c0.119-0.176,0.223-0.254,0.305-0.246
		c0.077,0.008,0.198,0.086,0.374,0.246l3.057,3.061c0,0.016,0.041,0.094,0.121,0.238c-0.016,0.119-0.176,0.184-0.487,0.184h-7.091
		v10.572c1.947-0.701,4.042-1.523,6.268-2.475l2.246-0.957c0.344-0.145,0.519-0.121,0.526,0.055s-0.031,0.303-0.128,0.359
		l-2.173,1.598c-2.795,2.027-4.887,3.641-6.27,4.838l-2.434,2.109l-0.703,0.559c-0.064,0.08-0.168-0.023-0.305-0.303l-1.867-3.506
		c-0.018,0-0.049-0.064-0.096-0.191c-0.049-0.129-0.064-0.199-0.049-0.232c0-0.016,0.162-0.184,0.487-0.494
		c0.327-0.312,0.567-0.623,0.704-0.936c0.145-0.311,0.215-0.807,0.215-1.477v-9.52h-6.364c-0.249-0.016-0.433-0.064-0.552-0.137
		c-0.119-0.078-0.193-0.295-0.225-0.639c-0.03-0.342,0.199-0.51,0.679-0.51h6.462v-6.461h-4.961c-0.374,0-0.598-0.209-0.654-0.63
		c-0.062-0.415,0.152-0.632,0.654-0.632h9.472l1.733-2.1l0.209-0.264c0.096-0.016,0.261,0.071,0.495,0.264l3.201,2.707
		c0.175,0.158,0.255,0.287,0.255,0.399c-0.016,0.175-0.142,0.255-0.392,0.255H302.438z"/>
	<path fill="#AE7B28" d="M350.427,67.608v-2.074h-5.115v2.074H350.427z M350.427,70.186v-2.105h-5.115v2.105H350.427z
		 M344.461,62.229c0.018-0.059,0.043-0.129,0.078-0.207c0.035-0.08,0.113-0.311,0.238-0.697s0.19-0.609,0.21-0.668l0.123-0.518
		l0.104-0.543c0.02-0.012,0.043-0.023,0.07-0.035l0.353,0.148l1.465,0.605c0.147,0.062,0.237,0.115,0.272,0.15
		c0.033,0.035,0.051,0.066,0.049,0.094c-0.002,0.021-0.064,0.074-0.182,0.143l-0.335,0.191l-0.604,1.336h5.915l0.737-0.887
		c0.122-0.146,0.198-0.221,0.235-0.225s0.135,0.084,0.299,0.262l0.967,1.059c0.098,0.111,0.145,0.184,0.141,0.211
		c-0.014,0.035-0.061,0.055-0.141,0.055h-8.407c-0.401,0.717-0.797,1.406-1.183,2.059l0.586,0.299h4.889l0.28-0.404
		c0.146-0.215,0.239-0.322,0.284-0.318c0.045,0.002,0.154,0.061,0.33,0.178l1.033,0.723c0.152,0.111,0.24,0.18,0.254,0.203
		c0.02,0.027,0.031,0.057,0.035,0.092c0.002,0.037-0.055,0.104-0.172,0.205l-0.363,0.305v8.316c0,0.123-0.039,0.295-0.116,0.51
		c-0.078,0.219-0.395,0.422-0.95,0.613c-0.552,0.195-0.875,0.285-0.967,0.273c-0.037,0-0.064-0.01-0.09-0.027
		c-0.021-0.016-0.049-0.084-0.078-0.205c-0.029-0.119-0.095-0.295-0.2-0.531c-0.105-0.234-0.362-0.432-0.772-0.596l-0.433-0.166
		c-0.121-0.041-0.176-0.098-0.164-0.168c0.006-0.082,0.078-0.119,0.219-0.113l0.501,0.033c0.466,0.035,0.797,0.055,0.98,0.055
		c0.191,0.006,0.316-0.02,0.379-0.076c0.062-0.053,0.097-0.156,0.097-0.301v-3.002h-5.115v4.475c0,0.1-0.043,0.197-0.127,0.289
		c-0.086,0.094-0.217,0.172-0.392,0.229c-0.174,0.061-0.344,0.084-0.509,0.082c-0.217-0.004-0.357-0.039-0.42-0.111
		c-0.065-0.076-0.101-0.178-0.112-0.312l0.068-1.809v-7.262c-0.451,0.529-0.974,1.123-1.566,1.775
		c-0.593,0.654-1.368,1.336-2.331,2.049l-0.41,0.307c-0.054,0.039-0.106,0.059-0.163,0.059c-0.055-0.004-0.086-0.016-0.088-0.033
		s-0.002-0.035-0.002-0.059v-0.045c0-0.025,0.041-0.082,0.131-0.178l0.323-0.342c0.626-0.658,1.18-1.285,1.663-1.871
		c0.481-0.59,1.012-1.404,1.583-2.449c0.573-1.043,0.928-1.742,1.064-2.1l0.246-0.648h-4.625c-0.178,0-0.269-0.078-0.278-0.238
		c-0.01-0.158,0.068-0.236,0.231-0.236H344.461z"/>
	<path fill="#AE7B28" d="M414.693,62.911c-0.074,0.756-0.15,1.43-0.219,2.02c-0.072,0.594-0.191,1.293-0.364,2.105
		c-0.172,0.814-0.479,1.689-0.927,2.629c-0.442,0.938-1.239,1.9-2.386,2.887s-2.379,1.754-3.692,2.312l-0.669,0.277
		c-0.062,0.031-0.123,0.039-0.174,0.025c-0.053-0.016-0.08-0.033-0.08-0.049c0-0.018,0-0.045,0-0.084s0.041-0.084,0.123-0.137
		l0.649-0.41c1.339-0.85,2.491-1.875,3.457-3.076c0.967-1.201,1.605-2.48,1.93-3.832c0.321-1.357,0.515-2.557,0.579-3.604
		c0.066-1.049,0.096-1.713,0.092-1.998c-0.002-0.281-0.006-0.562-0.012-0.836l-0.025-0.711l-0.098-0.766
		c0.016-0.008,0.033-0.02,0.051-0.031l0.218,0.059l2.065,0.5c0.08,0.025,0.14,0.051,0.179,0.082
		c0.039,0.027,0.057,0.062,0.055,0.104c-0.004,0.039-0.049,0.098-0.129,0.166l-0.5,0.439c0.128,1.043,0.272,2.02,0.435,2.93
		c0.161,0.914,0.487,1.916,0.979,3.01c0.491,1.096,1.1,2.146,1.831,3.156c0.727,1.006,1.446,1.797,2.16,2.369
		c0.713,0.568,1.247,0.934,1.597,1.09l0.686,0.316c0.074,0.039,0.115,0.096,0.115,0.164c-0.008,0.098-0.086,0.143-0.231,0.143
		h-0.604c-0.234,0-0.495,0.047-0.78,0.145c-0.286,0.098-0.495,0.193-0.624,0.285l-0.411,0.291c-0.092,0.062-0.152,0.1-0.178,0.107
		c-0.023,0.01-0.053-0.012-0.096-0.066l-0.431-0.463c-0.977-1.049-1.838-2.312-2.589-3.795c-0.753-1.482-1.201-2.781-1.35-3.898
		L414.693,62.911z"/>
	<path fill="#AE7B28" d="M428.237,59.37c0.014,0,0.076,0.016,0.188,0.041c0.115,0.031,0.33,0.127,0.651,0.291
		c0.316,0.164,0.618,0.365,0.901,0.605c0.284,0.24,0.423,0.531,0.409,0.877c-0.012,0.348-0.102,0.613-0.27,0.803
		c-0.165,0.191-0.407,0.281-0.721,0.268c-0.318-0.012-0.534-0.18-0.649-0.508c-0.037-0.086-0.053-0.23-0.049-0.432
		c0.002-0.197,0-0.367-0.006-0.508c-0.018-0.205-0.049-0.375-0.096-0.514c-0.049-0.137-0.115-0.264-0.2-0.383l-0.213-0.236
		c-0.062-0.068-0.094-0.133-0.088-0.191C428.103,59.422,428.151,59.387,428.237,59.37 M430.106,63.633h-3.851
		c-0.147,0-0.218-0.08-0.218-0.236c0-0.158,0.07-0.24,0.218-0.24h4.019l0.569-0.727c0.035-0.045,0.064-0.072,0.086-0.076
		c0.025-0.002,0.062,0.012,0.115,0.043l1.476,0.99c0.021,0.021,0.049,0.053,0.072,0.082c0.027,0.033,0.041,0.059,0.045,0.074
		c0.002,0.018-0.006,0.045-0.027,0.074c-0.018,0.033-0.051,0.055-0.09,0.066l-0.755,0.281c-0.485,0.645-0.785,1.021-0.895,1.133
		l-1.01,1.051l0.632,0.291c0.057,0.029,0.093,0.072,0.101,0.123c0.006,0.053-0.038,0.107-0.136,0.166l-0.291,0.174v1.082
		l0.431,0.033c0.135-0.303,0.23-0.537,0.291-0.701l0.246-0.814l0.2-0.65l0.053-0.186c0.027-0.02,0.084-0.012,0.166,0.037
		l1.113,0.736c0.078,0.061,0.116,0.111,0.12,0.158c0.002,0.047-0.036,0.078-0.12,0.096l-0.342,0.086l-1.313,1.283
		c0.536,0.129,0.939,0.328,1.207,0.602c0.263,0.271,0.38,0.602,0.351,0.992c-0.033,0.389-0.211,0.586-0.528,0.592
		c-0.318,0.006-0.524-0.057-0.614-0.189c-0.09-0.131-0.219-0.41-0.382-0.834c-0.162-0.424-0.457-0.75-0.878-0.977v4.982l0.08,1.578
		c-0.029,0.117-0.078,0.213-0.141,0.285c-0.065,0.074-0.204,0.135-0.423,0.18c-0.214,0.047-0.413,0.07-0.589,0.074
		c-0.179,0.004-0.284-0.016-0.312-0.049c-0.029-0.041-0.051-0.094-0.062-0.162l0.086-2.152v-5.736
		c-0.928,0.799-1.581,1.332-1.956,1.596l-0.567,0.404c-0.071,0.051-0.122,0.066-0.159,0.039c-0.035-0.025-0.055-0.057-0.057-0.092
		c-0.004-0.037,0.014-0.072,0.057-0.115l0.675-0.701c0.487-0.502,1.051-1.203,1.688-2.102c0.642-0.898,1.094-1.605,1.357-2.119
		l0.105-0.211L430.106,63.633z M435.835,67.581c0.037,0.191,0.088,0.416,0.16,0.67c0.067,0.256,0.214,0.604,0.433,1.047
		c0.219,0.439,0.552,0.949,0.994,1.52c0.123-0.18,0.268-0.4,0.425-0.66c0.162-0.262,0.363-0.707,0.601-1.344
		c0.236-0.633,0.383-1.045,0.442-1.232H435.835z M436.346,63.526h-1.784v3.564h1.784V63.526z M436.346,63.043v-2.051l-0.055-1.465
		c0.023-0.025,0.047-0.043,0.072-0.053l0.182,0.043l1.686,0.334c0.111,0.023,0.168,0.066,0.172,0.125
		c0.002,0.062-0.037,0.123-0.121,0.18l-0.454,0.336v2.551h1.755l0.499-0.613c0.043-0.045,0.098-0.072,0.168-0.078
		c0.039,0,0.094,0.025,0.156,0.078l1.458,1.246c0.057,0.053,0.088,0.119,0.084,0.197c-0.002,0.08-0.053,0.146-0.146,0.197
		c-0.039,0.023-0.223,0.035-0.542,0.035c-0.263,0.006-0.519,0.064-0.761,0.176c-0.241,0.111-0.57,0.383-0.986,0.816l-0.237,0.246
		c-0.131,0.135-0.211,0.18-0.246,0.131c-0.033-0.047-0.055-0.086-0.059-0.119c-0.002-0.031,0.01-0.072,0.033-0.117l0.156-0.395
		l0.327-0.861c0.062-0.17,0.119-0.322,0.164-0.457h-1.823v3.564h1.105l0.394-0.527c0.061-0.076,0.133-0.088,0.219-0.037l1.361,0.879
		c0.035,0.023,0.062,0.053,0.084,0.088c0.02,0.035,0.033,0.07,0.035,0.105c0.003,0.037-0.035,0.066-0.119,0.096l-0.412,0.158
		c-0.286,0.695-0.566,1.34-0.846,1.926c-0.279,0.588-0.708,1.246-1.285,1.98c0.363,0.355,0.868,0.713,1.521,1.072
		c0.652,0.361,1.206,0.578,1.66,0.656l0.512,0.086c0.103,0.025,0.157,0.072,0.157,0.148c-0.006,0.064-0.043,0.105-0.104,0.123
		l-0.5,0.16c-0.317,0.098-0.581,0.301-0.791,0.613l-0.219,0.314c-0.08,0.117-0.133,0.174-0.146,0.172
		c-0.012-0.004-0.056-0.027-0.126-0.076l-0.246-0.146c-0.245-0.146-0.544-0.344-0.898-0.59c-0.353-0.246-0.937-0.785-1.751-1.623
		c-0.526,0.41-1.033,0.779-1.521,1.105c-0.489,0.328-1.051,0.619-1.69,0.877c-0.638,0.258-1.041,0.414-1.209,0.467l-0.599,0.184
		c-0.059,0.018-0.105,0.023-0.144,0.018c-0.039-0.006-0.066-0.02-0.084-0.045c-0.018-0.021-0.023-0.039-0.021-0.051
		c0.004-0.012,0.012-0.033,0.029-0.066c0.02-0.033,0.047-0.057,0.082-0.074l0.631-0.301c0.205-0.092,0.481-0.248,0.833-0.467
		c0.351-0.221,0.775-0.516,1.272-0.885c0.498-0.373,1.061-0.93,1.692-1.672c-0.14-0.258-0.29-0.555-0.452-0.893
		c-0.162-0.336-0.3-0.73-0.417-1.189c-0.115-0.455-0.209-0.949-0.28-1.48l-0.041-0.344l-0.037-0.271h-0.923
		c-0.023,0.504-0.055,0.998-0.095,1.482c-0.043,0.484-0.127,0.959-0.256,1.412c-0.129,0.457-0.343,0.971-0.649,1.541
		c-0.302,0.568-0.647,1.045-1.025,1.422c-0.38,0.377-0.712,0.691-0.992,0.943l-0.446,0.4c-0.076,0.066-0.133,0.084-0.168,0.057
		c-0.033-0.023-0.055-0.062-0.057-0.107c-0.004-0.047,0.018-0.096,0.057-0.148l0.315-0.387c0.444-0.545,0.833-1.152,1.166-1.824
		c0.336-0.674,0.546-1.523,0.63-2.549c0.084-1.027,0.125-2.105,0.123-3.234c-0.004-1.129-0.02-2.039-0.049-2.729l-0.045-0.902
		l-0.051-0.738c0.021-0.018,0.045-0.025,0.064-0.029c0.02-0.002,0.094,0.029,0.223,0.1l1.255,0.754H436.346z"/>
	<path fill="#AE7B28" d="M458.663,68.44c-0.661,0.49-1.347,0.977-2.055,1.451c-0.706,0.479-1.47,0.887-2.283,1.229
		c-0.819,0.342-1.368,0.557-1.653,0.645l-0.396,0.125c-0.043,0.016-0.074,0.018-0.102,0.006c-0.027-0.008-0.045-0.023-0.057-0.039
		c-0.014-0.014-0.02-0.035-0.021-0.064c-0.004-0.027,0.021-0.059,0.074-0.088l0.501-0.262c0.891-0.475,1.655-0.99,2.287-1.551
		c0.632-0.557,1.133-1.033,1.501-1.424c0.368-0.393,0.62-0.672,0.755-0.832l0.396-0.492c0.041-0.053,0.068-0.084,0.086-0.09
		l0.123,0.09l1.341,0.92c0.09,0.066,0.133,0.113,0.133,0.15c-0.006,0.055-0.061,0.098-0.166,0.121L458.663,68.44z M456.669,66.088
		c-0.565,0.498-1.189,1.018-1.862,1.559c-0.676,0.541-1.579,1.102-2.708,1.68l-0.376,0.191c-0.105,0.055-0.168,0.062-0.184,0.027
		c-0.018-0.033-0.029-0.072-0.033-0.109c-0.002-0.039,0.021-0.074,0.066-0.109l0.359-0.273c0.194-0.146,0.662-0.578,1.401-1.293
		s1.347-1.445,1.831-2.189l0.341-0.537l0.123-0.268c0.029-0.018,0.095,0.006,0.2,0.068l1.492,1.027
		c0.018,0.018,0.033,0.035,0.045,0.051c0.012,0.018,0.018,0.045,0.02,0.08c0.004,0.035-0.062,0.055-0.197,0.061L456.669,66.088z
		 M447.644,60.256c0.012-0.006,0.027-0.014,0.047-0.016c0.021-0.004,0.051,0.002,0.096,0.018c0.047,0.016,0.272,0.062,0.687,0.141
		c0.411,0.078,0.824,0.291,1.232,0.633c0.409,0.34,0.588,0.775,0.533,1.299c-0.052,0.521-0.36,0.775-0.93,0.758
		c-0.272-0.006-0.468-0.1-0.579-0.281c-0.11-0.18-0.181-0.455-0.214-0.824c-0.031-0.367-0.115-0.662-0.246-0.877
		c-0.133-0.215-0.282-0.383-0.452-0.5c-0.168-0.117-0.251-0.197-0.249-0.242C447.572,60.321,447.596,60.282,447.644,60.256z
		 M460.837,70.485c-1.9,1.607-3.483,2.695-4.749,3.258c-1.268,0.566-2.755,1.004-4.461,1.312l-0.483,0.086
		c-0.041,0.014-0.08,0.014-0.113-0.002c-0.035-0.016-0.055-0.045-0.057-0.094c-0.004-0.045,0.035-0.084,0.117-0.113l0.431-0.133
		c1.486-0.449,2.782-1.039,3.896-1.762c1.111-0.725,1.987-1.418,2.62-2.076c0.638-0.656,1.062-1.119,1.273-1.389l0.413-0.537
		c0.074-0.092,0.123-0.141,0.141-0.145c0.018-0.002,0.049,0.014,0.096,0.049l1.483,1.195c0.098,0.08,0.15,0.141,0.15,0.184
		c-0.008,0.064-0.08,0.1-0.221,0.111L460.837,70.485z M456.546,60.764c0.129,0.357,0.284,0.717,0.462,1.078
		c0.18,0.363,0.677,0.967,1.498,1.812c0.816,0.844,1.756,1.373,2.814,1.594l0.712,0.148c0.076,0.016,0.111,0.049,0.107,0.096
		c-0.002,0.045-0.039,0.084-0.107,0.113l-0.503,0.201c-0.279,0.117-0.565,0.383-0.859,0.799l-0.227,0.324
		c-0.039,0.061-0.127,0.049-0.256-0.035l-0.306-0.184c-0.79-0.467-1.397-1.002-1.819-1.605c-0.427-0.602-0.764-1.176-1.016-1.725
		c-0.252-0.545-0.446-1.158-0.587-1.838l-0.149-0.674c-0.492,0.934-0.89,1.646-1.191,2.135c-0.307,0.488-0.69,1.012-1.154,1.572
		c-0.467,0.557-1.006,1.102-1.622,1.635c-0.618,0.533-1.026,0.869-1.217,1.01l-0.464,0.342c-0.078,0.061-0.135,0.062-0.178,0.016
		c-0.041-0.051-0.025-0.115,0.045-0.189l0.411-0.459c0.362-0.396,0.714-0.818,1.047-1.258c0.34-0.443,0.788-1.215,1.35-2.32
		s0.941-2.055,1.141-2.842l0.185-0.736l0.016-0.09c0.012-0.021,0.08-0.02,0.203,0.018l1.992,0.631
		c0.062,0.025,0.098,0.059,0.102,0.104c0.002,0.041-0.023,0.08-0.074,0.107L456.546,60.764z M448.494,65.475h-2.677
		c-0.139,0-0.213-0.078-0.219-0.236c-0.006-0.16,0.068-0.236,0.219-0.236h2.614l0.517-0.641c0.037-0.043,0.066-0.068,0.092-0.08
		c0.02-0.01,0.085,0.014,0.19,0.08l1.299,0.887c0.051,0.039,0.082,0.059,0.088,0.059v0.01l0.01,0.027
		c0.006,0.041-0.027,0.084-0.098,0.131l-0.677,0.455v5.738c1.16-0.678,1.894-1.113,2.201-1.305l0.581-0.361
		c0.094-0.059,0.16-0.074,0.201-0.047c0.043,0.023,0.066,0.057,0.072,0.096c0.006,0.035-0.021,0.084-0.08,0.135l-0.587,0.572
		c-0.505,0.49-1.1,1.107-1.792,1.85c-0.688,0.742-1.043,1.123-1.061,1.141l-0.491,0.516c-0.072,0.078-0.119,0.117-0.146,0.121
		c-0.023,0.002-0.048-0.02-0.065-0.066l-0.646-1.51l-0.054-0.105c0-0.018,0.05-0.053,0.149-0.104
		c0.098-0.055,0.176-0.135,0.234-0.246c0.053-0.111,0.088-0.27,0.104-0.471c0.016-0.199,0.021-0.434,0.021-0.697V65.475z"/>
	<path fill="#AE7B28" d="M473.797,62.237c-0.59,0.873-1.096,1.582-1.529,2.133l-0.413,0.527c-0.092,0.123-0.158,0.168-0.197,0.135
		c-0.034-0.033-0.056-0.068-0.06-0.113c-0.002-0.045,0.012-0.107,0.048-0.189l0.209-0.5c0.078-0.176,0.189-0.508,0.333-1
		c0.146-0.49,0.252-0.863,0.318-1.113l0.158-0.668l0.077-0.438c0.047-0.018,0.156,0.021,0.324,0.113l1,0.561
		c0.117,0.072,0.188,0.123,0.216,0.156c0.025,0.029,0.041,0.068,0.045,0.107c0.002,0.041-0.045,0.084-0.144,0.123L473.797,62.237z
		 M468.164,62.053l-0.16-0.342c-0.035-0.062-0.051-0.113-0.047-0.15c0.002-0.033,0.031-0.057,0.092-0.068
		c0.068-0.006,0.195,0.057,0.378,0.191c0.18,0.135,0.438,0.398,0.778,0.791c0.341,0.393,0.513,0.742,0.515,1.053
		c0.004,0.311-0.041,0.537-0.139,0.684c-0.161,0.264-0.38,0.387-0.646,0.369c-0.231-0.008-0.38-0.088-0.458-0.24
		c-0.076-0.156-0.12-0.291-0.136-0.404c-0.014-0.113-0.02-0.238-0.014-0.375l0.035-0.568c0-0.158-0.014-0.311-0.045-0.459
		C468.291,62.391,468.238,62.229,468.164,62.053z M467.934,65.624c-0.07-0.018-0.125-0.041-0.164-0.074
		c-0.035-0.033-0.055-0.107-0.051-0.227c0.004-0.121,0.076-0.18,0.215-0.18h2.203v-3.959l-0.078-1.482
		c0.014-0.012,0.035-0.021,0.057-0.029c0.018-0.01,0.152,0.018,0.398,0.084l1.132,0.305c0.141,0.041,0.213,0.092,0.219,0.156
		c0.006,0.061-0.033,0.119-0.113,0.18l-0.36,0.244v4.502h1.334l0.463-0.686c0.09-0.129,0.152-0.197,0.195-0.207
		c0.041-0.008,0.119,0.051,0.236,0.18l0.771,0.895c0.088,0.105,0.133,0.168,0.135,0.186c0.004,0.018,0,0.039-0.012,0.07
		c-0.012,0.029-0.078,0.043-0.195,0.043h-2.928v1.01c0.614,0.188,1.094,0.381,1.435,0.582c0.341,0.203,0.614,0.447,0.821,0.73
		c0.202,0.281,0.302,0.557,0.296,0.82c-0.006,0.131-0.037,0.264-0.096,0.393c-0.056,0.129-0.153,0.252-0.282,0.369
		c-0.129,0.115-0.275,0.182-0.446,0.193c-0.197,0.02-0.355-0.039-0.472-0.17c-0.117-0.133-0.201-0.309-0.246-0.531l-0.105-0.598
		c-0.049-0.252-0.121-0.482-0.217-0.691c-0.095-0.211-0.175-0.346-0.241-0.404l-0.446-0.404V71.1l0.051,0.953
		c-0.039,0.178-0.152,0.307-0.336,0.395c-0.185,0.084-0.388,0.119-0.609,0.107c-0.166,0-0.273-0.033-0.33-0.096
		c-0.055-0.066-0.09-0.154-0.102-0.266l0.072-1.48v-2.729c-0.351,0.484-0.636,0.859-0.852,1.123
		c-0.219,0.262-0.477,0.555-0.78,0.877c-0.306,0.32-0.528,0.535-0.669,0.65l-0.21,0.164v1.922h4.178l0.72-0.939
		c0.045-0.062,0.084-0.096,0.107-0.098c0.027-0.004,0.074,0.029,0.146,0.098l0.774,0.826c0.313-0.557,0.544-1.084,0.691-1.584
		c0.146-0.5,0.242-1.023,0.283-1.574c0.045-0.549,0.086-1.279,0.115-2.189c0.033-0.91,0.047-1.537,0.047-1.881l-0.051-2.195v-0.396
		l-0.104-1.699c0.023-0.035,0.043-0.061,0.068-0.078l0.413,0.219l1.174,0.596c0.973-0.381,1.845-0.816,2.614-1.314l0.449-0.291
		l0.378-0.299c0.018,0.006,0.039,0.016,0.059,0.023c0.024,0.01,0.116,0.1,0.282,0.275l0.859,0.965
		c0.109,0.129,0.168,0.215,0.168,0.254c-0.006,0.061-0.062,0.094-0.168,0.1l-0.551,0.033c-0.066,0.006-0.377,0.059-0.94,0.158
		c-0.56,0.1-1.636,0.23-3.219,0.396l-0.037,3.287h3.369l0.591-0.746c0.109-0.145,0.186-0.219,0.227-0.221
		c0.041-0.004,0.142,0.07,0.298,0.221l0.93,0.957c0.051,0.059,0.088,0.105,0.102,0.143c0.014,0.033,0.02,0.066,0.014,0.09
		c-0.006,0.027-0.072,0.041-0.2,0.041h-1.678c-0.11,0.133-0.204,0.23-0.282,0.287v7.371l0.055,1.072
		c-0.025,0.104-0.057,0.18-0.096,0.227c-0.043,0.045-0.121,0.105-0.237,0.18c-0.119,0.072-0.221,0.127-0.309,0.162
		c-0.086,0.037-0.223,0.049-0.403,0.037c-0.186-0.006-0.312-0.043-0.372-0.111c-0.062-0.066-0.105-0.16-0.129-0.275l0.09-1.783
		v-7.166h-1.968c-0.023,0.609-0.045,1.17-0.066,1.682c-0.019,0.512-0.079,1.227-0.181,2.152c-0.104,0.922-0.473,1.832-1.098,2.725
		c-0.628,0.889-1.694,1.705-3.197,2.441l-0.52,0.254c-0.061,0.029-0.106,0.041-0.146,0.033c-0.035-0.01-0.066-0.035-0.088-0.08
		c-0.02-0.043,0.021-0.1,0.121-0.172l0.481-0.322c0.719-0.486,1.166-0.824,1.334-1.01l0.535-0.572h-5.587l-0.355,0.467
		c-0.124,0.168-0.208,0.266-0.247,0.293s-0.123-0.018-0.25-0.127l-0.686-0.561c-0.115-0.09-0.18-0.145-0.186-0.168
		c-0.002-0.023-0.002-0.047,0-0.07c0.006-0.023,0.059-0.086,0.15-0.186l0.14-0.156V61.879l-0.085-1.537
		c0.023-0.023,0.044-0.039,0.067-0.049c0.023-0.008,0.168,0.025,0.431,0.104l1.184,0.367c0.096,0.033,0.152,0.061,0.178,0.078
		c0.023,0.018,0.027,0.045,0.012,0.084s-0.045,0.078-0.092,0.117l-0.308,0.254v9.266c0.233-0.387,0.474-0.797,0.716-1.234
		c0.243-0.434,0.506-1.027,0.795-1.775c0.287-0.748,0.505-1.393,0.659-1.93h-1.81H467.934z"/>
	<path fill="#AE7B28" d="M493.675,66.817c0.012-0.012,0.033-0.018,0.064-0.021c0.031-0.002,0.066,0.004,0.1,0.021
		c0.037,0.018,0.202,0.086,0.499,0.207c0.3,0.119,0.756,0.377,1.366,0.771c0.61,0.396,0.911,0.854,0.899,1.381
		s-0.133,0.904-0.359,1.129c-0.228,0.225-0.478,0.332-0.746,0.32c-0.301-0.006-0.513-0.096-0.644-0.27
		c-0.133-0.17-0.207-0.32-0.225-0.445c-0.02-0.125-0.037-0.41-0.054-0.857c-0.016-0.443-0.09-0.809-0.223-1.096
		c-0.131-0.287-0.285-0.51-0.46-0.668c-0.178-0.156-0.271-0.25-0.283-0.277c-0.012-0.029-0.014-0.061-0.012-0.094
		C493.603,66.885,493.626,66.852,493.675,66.817 M487.822,60.36c0.014-0.012,0.033-0.018,0.066-0.02
		c0.029-0.004,0.216,0.064,0.557,0.209c0.338,0.143,0.812,0.404,1.416,0.785c0.606,0.379,0.902,0.838,0.891,1.373
		c-0.014,0.533-0.133,0.914-0.36,1.137c-0.226,0.221-0.476,0.326-0.745,0.314c-0.294-0.008-0.507-0.094-0.641-0.262
		c-0.135-0.17-0.213-0.322-0.234-0.457c-0.018-0.137-0.035-0.42-0.051-0.859c-0.016-0.438-0.084-0.791-0.209-1.061
		c-0.126-0.271-0.282-0.492-0.462-0.666c-0.183-0.17-0.28-0.285-0.3-0.334C487.732,60.465,487.756,60.413,487.822,60.36z
		 M492.129,64.817c0.474-1.578,0.787-2.797,0.939-3.656l0.201-1.15l0.055-0.432c0.008-0.012,0.023-0.021,0.039-0.027
		c0.014-0.006,0.107,0.021,0.284,0.082l1.956,0.719c0.134,0.053,0.202,0.113,0.202,0.184c-0.006,0.064-0.062,0.123-0.167,0.176
		l-0.578,0.299c-0.397,1.314-0.787,2.564-1.167,3.746l4.841-0.141l0.511-0.5c0.11-0.105,0.185-0.156,0.224-0.15
		c0.035,0.006,0.09,0.027,0.152,0.062l1.669,1.078c0.104,0.07,0.154,0.139,0.154,0.201c-0.004,0.061-0.062,0.117-0.174,0.178
		l-0.64,0.322c-0.129,1.061-0.329,2.512-0.602,4.357c-0.273,1.846-0.72,3.09-1.342,3.738c-0.624,0.646-1.195,1.047-1.72,1.201
		s-0.872,0.24-1.039,0.26l-0.308,0.033c-0.088,0.012-0.139,0.014-0.15,0.006c-0.012-0.01-0.039-0.082-0.086-0.215l-0.16-0.42
		c-0.057-0.152-0.195-0.342-0.409-0.562c-0.219-0.223-0.411-0.387-0.581-0.492l-0.624-0.359c-0.086-0.047-0.128-0.105-0.123-0.178
		c0-0.049,0.031-0.088,0.094-0.113c0.061-0.023,0.117-0.029,0.172-0.018l0.973,0.273c0.347,0.098,0.688,0.148,1.027,0.152
		c0.337,0.004,0.698-0.08,1.074-0.25s0.694-0.721,0.956-1.652c0.261-0.934,0.47-1.873,0.631-2.82
		c0.162-0.949,0.262-1.59,0.295-1.924l0.195-1.719l-5.134,0.16c-0.563,1.529-1.312,3.123-2.252,4.775
		c-0.938,1.654-2.692,3.223-5.269,4.717l-0.482,0.279c-0.086,0.053-0.146,0.066-0.18,0.035c-0.031-0.029-0.051-0.062-0.053-0.104
		c-0.004-0.043,0.025-0.088,0.084-0.143l0.491-0.395c0.14-0.111,0.509-0.461,1.102-1.049c0.593-0.586,1.292-1.43,2.096-2.535
		c0.806-1.102,1.694-2.949,2.671-5.549l-5.868,0.186c-0.07,0.004-0.133-0.016-0.189-0.057c-0.055-0.045-0.083-0.111-0.087-0.205
		c-0.002-0.09,0.019-0.148,0.065-0.18c0.049-0.027,0.133-0.045,0.256-0.051L492.129,64.817z"/>
	<path fill="#AE7B28" d="M519.035,67.493h-1.922v1.465h1.922V67.493z M519.035,69.45h-1.922v0.332c0,0.129-0.102,0.23-0.306,0.303
		c-0.207,0.074-0.392,0.113-0.558,0.117c-0.166,0.002-0.275-0.027-0.32-0.092c-0.049-0.059-0.078-0.123-0.09-0.188l0.055-0.895
		v-1.393l-0.055-1.141c0.023-0.02,0.051-0.031,0.076-0.037s0.135,0.037,0.32,0.123l0.877,0.422h1.851l0.396-0.508
		c0.049-0.061,0.086-0.092,0.119-0.094c0.031-0.004,0.096,0.027,0.199,0.094l0.867,0.576c0.105,0.078,0.166,0.129,0.184,0.152
		c0.018,0.027,0.027,0.051,0.023,0.072s-0.027,0.055-0.066,0.102l-0.281,0.314v1.316l0.051,0.562
		c-0.021,0.074-0.1,0.174-0.229,0.293c-0.128,0.119-0.358,0.182-0.691,0.189c-0.334,0.006-0.5-0.07-0.5-0.229V69.45z M513.57,67.493
		h-1.949v1.465h1.949V67.493z M511.621,69.45v0.309c0,0.051-0.031,0.104-0.094,0.16c-0.061,0.055-0.163,0.109-0.313,0.16
		c-0.15,0.047-0.3,0.068-0.452,0.066c-0.191,0-0.307-0.031-0.338-0.086c-0.031-0.057-0.053-0.115-0.059-0.18l0.055-0.922v-1.254
		l-0.072-1.178c0.061-0.025,0.168-0.008,0.326,0.055l0.947,0.422h1.808l0.323-0.422c0.049-0.062,0.098-0.096,0.15-0.096
		c0.043,0.006,0.1,0.029,0.178,0.068l0.938,0.58c0.059,0.039,0.098,0.076,0.119,0.105c0.018,0.029,0.023,0.061,0.012,0.096
		c-0.012,0.037-0.039,0.07-0.078,0.105l-0.246,0.227v1.361l0.033,0.562c-0.051,0.152-0.182,0.26-0.396,0.322
		c-0.209,0.066-0.409,0.1-0.604,0.102c-0.191,0.004-0.287-0.084-0.287-0.256V69.45H511.621z M505.866,63.36l-0.166-0.271
		c-0.018-0.023-0.029-0.055-0.033-0.086c-0.002-0.037,0.004-0.061,0.016-0.072c0.012-0.025,0.051-0.037,0.123-0.043
		c0.104,0,0.317,0.088,0.636,0.266c0.319,0.172,0.586,0.391,0.799,0.652c0.213,0.26,0.318,0.541,0.311,0.844
		c-0.012,0.281-0.113,0.521-0.309,0.723c-0.191,0.197-0.413,0.293-0.664,0.287c-0.299,0-0.498-0.09-0.594-0.275
		c-0.095-0.184-0.144-0.342-0.144-0.471c-0.006-0.057,0.021-0.229,0.081-0.51c0.062-0.279,0.092-0.443,0.092-0.49
		c-0.006-0.035-0.023-0.119-0.057-0.258C505.926,63.516,505.896,63.418,505.866,63.36z M509.979,61.833h3.983
		c-0.088-0.098-0.141-0.184-0.166-0.256c-0.023-0.074-0.035-0.15-0.037-0.225c-0.004-0.076-0.004-0.129,0.002-0.16l0.055-0.377
		c0.006-0.057,0.008-0.131,0.008-0.219c-0.006-0.092-0.02-0.18-0.041-0.254c-0.018-0.074-0.09-0.186-0.213-0.332l-0.237-0.273
		c-0.072-0.072-0.104-0.113-0.098-0.131c0-0.006,0.008-0.023,0.023-0.055c0.012-0.027,0.062-0.045,0.145-0.051
		c0.129,0,0.452,0.068,0.969,0.209c0.519,0.143,0.872,0.352,1.061,0.633c0.191,0.281,0.285,0.516,0.285,0.701
		c-0.006,0.311-0.123,0.574-0.352,0.789h3.557l0.69-0.857c0.066-0.082,0.116-0.123,0.159-0.121c0.041,0.004,0.131,0.055,0.273,0.156
		l1.123,0.859c0.097,0.08,0.157,0.141,0.179,0.174c0.021,0.035,0.033,0.088,0.033,0.15c0.002,0.064-0.088,0.096-0.276,0.096h-11.37
		c-0.006,0.691-0.006,1.408-0.002,2.148c0.002,0.744,0,1.307-0.006,1.688c-0.047,1.883-0.238,3.324-0.573,4.322
		c-0.338,1.002-0.81,1.826-1.414,2.473s-1.033,1.072-1.284,1.275l-0.589,0.482c-0.082,0.066-0.145,0.096-0.189,0.092
		c-0.043-0.002-0.072-0.014-0.082-0.035c-0.012-0.021-0.018-0.035-0.014-0.047c0.002-0.014,0.014-0.045,0.029-0.098
		c0.018-0.053,0.049-0.102,0.09-0.148l0.534-0.623c0.487-0.566,0.861-1.188,1.129-1.857c0.266-0.668,0.458-1.26,0.575-1.779
		c0.117-0.518,0.202-1.109,0.263-1.779l0.059-0.699c-0.729,0.492-1.362,0.934-1.895,1.324l-0.464,0.342l-0.281,0.23
		c-0.059,0.029-0.105-0.023-0.142-0.15l-0.4-1.369l-0.055-0.158c0.012-0.02,0.135-0.049,0.369-0.096l0.842-0.16
		c0.444-0.08,1.119-0.236,2.025-0.463c0-0.404,0-0.707,0-0.914l-0.018-1.674c-0.006-0.719-0.014-1.203-0.023-1.449l-0.082-1.447
		l-0.067-0.605c0.026-0.041,0.054-0.064,0.077-0.07s0.129,0.037,0.318,0.121l1.375,0.668H509.979z M517.316,65.194v-1.236h-3.983
		v1.236H517.316z M517.209,63.475l0.448-0.518c0.051-0.064,0.1-0.098,0.143-0.098c0.045,0.008,0.128,0.049,0.245,0.123l0.886,0.633
		c0.033,0.029,0.062,0.057,0.083,0.084c0.018,0.023,0.029,0.055,0.033,0.082c0.004,0.029-0.034,0.076-0.116,0.139l-0.264,0.213
		v0.945l0.027,0.811c-0.114,0.301-0.415,0.455-0.914,0.455c-0.252,0.006-0.392-0.025-0.421-0.088
		c-0.031-0.066-0.043-0.145-0.043-0.236v-0.344h-3.983v0.309c0,0.057-0.02,0.121-0.062,0.191c-0.041,0.072-0.136,0.141-0.29,0.207
		c-0.15,0.068-0.324,0.098-0.52,0.092c-0.173,0-0.292-0.023-0.353-0.072c-0.062-0.045-0.106-0.102-0.138-0.164l0.055-1.16v-1.279
		l-0.078-0.912c0.027-0.029,0.055-0.047,0.076-0.053c0.018-0.008,0.124,0.035,0.319,0.123l1.078,0.518H517.209z M511.684,73.967
		h2.728v-2.025l-0.113-1.756c0.039-0.023,0.078-0.039,0.113-0.041l0.193,0.041l1.526,0.326c0.066,0.016,0.1,0.057,0.102,0.117
		c0.004,0.062-0.057,0.135-0.18,0.215l-0.246,0.168v2.955h2.748v-1.719l-0.082-1.422c0.018-0.023,0.033-0.039,0.045-0.045
		s0.122,0.016,0.333,0.062l1.448,0.324c0.064,0.018,0.111,0.039,0.141,0.062c0.027,0.023,0.047,0.055,0.049,0.094
		c0.002,0.035-0.045,0.104-0.146,0.201l-0.271,0.273v1.738l0.06,1.289c-0.079,0.188-0.241,0.318-0.479,0.396
		c-0.236,0.076-0.443,0.109-0.617,0.104c-0.157,0-0.278-0.027-0.36-0.092c-0.081-0.061-0.12-0.131-0.12-0.217v-0.576h-6.844
		l-0.353,0.473c-0.156,0.213-0.25,0.318-0.271,0.32c-0.023,0.004-0.076-0.027-0.157-0.094l-0.933-0.664
		c-0.092-0.066-0.136-0.107-0.134-0.131c0.004-0.025,0.009-0.047,0.021-0.064l0.113-0.086l0.178-0.15
		c0.043-0.033,0.074-0.086,0.102-0.154c0.024-0.072,0.038-0.182,0.038-0.326v-1.389l-0.052-1.418
		c0.017-0.018,0.034-0.031,0.052-0.037l0.211,0.053l1.395,0.344c0.111,0.025,0.165,0.07,0.159,0.131
		c-0.006,0.057-0.06,0.123-0.159,0.193l-0.236,0.176V73.967z"/>
	<path fill="#AE7B28" d="M532.773,60.028l-0.273-0.264c-0.051-0.047-0.078-0.105-0.074-0.17c0.002-0.07,0.059-0.1,0.172-0.094
		c0.362,0.029,0.863,0.174,1.501,0.438c0.636,0.264,0.955,0.611,0.959,1.039c0.002,0.432-0.103,0.764-0.315,1
		c-0.213,0.24-0.47,0.35-0.767,0.338c-0.241-0.006-0.429-0.08-0.563-0.227s-0.212-0.291-0.235-0.434
		c-0.023-0.145-0.033-0.314-0.029-0.514c0.002-0.199-0.008-0.355-0.025-0.467C533.071,60.424,532.954,60.208,532.773,60.028
		 M525.824,64.061l-0.211-0.367c-0.018-0.023-0.023-0.057-0.018-0.102c0.006-0.043,0.033-0.07,0.088-0.082
		c0.057-0.006,0.191,0.051,0.398,0.172c0.21,0.119,0.519,0.338,0.926,0.658c0.409,0.316,0.608,0.713,0.599,1.186
		c-0.006,0.189-0.086,0.398-0.24,0.631c-0.149,0.238-0.376,0.346-0.675,0.328c-0.198-0.006-0.358-0.082-0.477-0.225
		c-0.121-0.145-0.184-0.324-0.189-0.539c-0.006-0.043-0.006-0.145,0-0.312s0.01-0.299,0.01-0.398
		c-0.006-0.17-0.021-0.332-0.049-0.488C525.959,64.368,525.906,64.215,525.824,64.061z M529.63,62.334h8.906l0.737-0.928
		c0.099-0.123,0.173-0.184,0.224-0.182c0.049,0,0.148,0.061,0.294,0.182l1.115,0.936c0.062,0.061,0.119,0.123,0.166,0.189
		c0.045,0.066,0.072,0.113,0.072,0.141c0.004,0.027-0.023,0.055-0.086,0.086c-0.061,0.033-0.129,0.049-0.206,0.049h-11.24
		c-0.006,0.662-0.006,1.365-0.002,2.115c0.002,0.748,0,1.312-0.006,1.693c-0.021,0.818-0.076,1.605-0.155,2.359
		c-0.084,0.756-0.221,1.418-0.406,1.982c-0.188,0.566-0.466,1.096-0.84,1.586c-0.375,0.488-0.753,0.912-1.129,1.275
		c-0.379,0.363-0.685,0.637-0.916,0.824l-0.597,0.475c-0.066,0.051-0.121,0.074-0.162,0.066c-0.045-0.01-0.072-0.023-0.082-0.043
		c-0.008-0.014-0.014-0.037-0.014-0.068c-0.004-0.029,0.029-0.08,0.1-0.158l0.554-0.615c0.209-0.232,0.448-0.553,0.717-0.961
		c0.271-0.404,0.514-0.871,0.728-1.396c0.217-0.527,0.384-1.104,0.499-1.729c0.113-0.627,0.182-1.15,0.207-1.57l0.051-0.844
		c-0.902,0.613-1.463,1.01-1.685,1.186l-0.554,0.428l-0.281,0.256c-0.068,0.047-0.126,0.014-0.165-0.096l-0.481-1.256
		c-0.061-0.152-0.088-0.236-0.084-0.248c0.004-0.016,0.012-0.033,0.023-0.047c0.016-0.02,0.117-0.047,0.306-0.082l0.868-0.141
		l0.965-0.219l1.088-0.254c0-0.43,0.002-0.75,0.008-0.965v-1.318c0-0.619-0.002-1.027-0.008-1.227l-0.088-1.51l-0.072-0.551
		c0.072-0.096,0.24-0.082,0.509,0.041L529.63,62.334z M531.026,74.135v-4.977l-0.086-1.41c0.029-0.031,0.051-0.045,0.064-0.049
		c0.016-0.004,0.069,0.006,0.161,0.031l1.562,0.395c0.112,0.027,0.169,0.078,0.173,0.15c0.002,0.068-0.039,0.127-0.12,0.182
		l-0.342,0.219v5.459h1.965v-8.459h-4.238l-0.045-0.01c-0.057-0.016-0.102-0.035-0.135-0.061c-0.033-0.023-0.056-0.098-0.073-0.223
		c-0.018-0.127,0.063-0.189,0.253-0.189h7.844l0.571-0.729c0.11-0.139,0.194-0.209,0.255-0.209c0.021,0.006,0.055,0.018,0.096,0.043
		l1.334,1.008c0.115,0.094,0.174,0.168,0.168,0.219c-0.018,0.102-0.117,0.15-0.301,0.15h-3.843
		c-0.129,0.152-0.259,0.291-0.394,0.412v3.178h1.877l0.64-0.809c0.059-0.074,0.117-0.117,0.178-0.119
		c0.057-0.004,0.134,0.039,0.235,0.119l1.043,0.887c0.043,0.041,0.078,0.084,0.111,0.133c0.033,0.045,0.051,0.082,0.057,0.107
		c0.006,0.027-0.018,0.057-0.072,0.09c-0.051,0.033-0.119,0.047-0.201,0.047h-0.535v0.027h-3.332v4.387h2.7l0.694-0.854
		c0.059-0.068,0.104-0.105,0.142-0.107c0.031-0.002,0.125,0.051,0.273,0.162l1.146,0.912c0.058,0.051,0.103,0.102,0.13,0.154
		c0.031,0.047,0.045,0.08,0.045,0.092c-0.006,0.076-0.109,0.115-0.313,0.115h-12.388h-0.027c-0.061-0.014-0.109-0.033-0.145-0.064
		c-0.039-0.029-0.062-0.104-0.072-0.227c-0.008-0.123,0.076-0.184,0.252-0.184H531.026z"/>
	<path fill="#AE7B28" d="M382.229,74.924c1.472-0.197,2.63-0.463,3.486-0.799c0.869-0.326,1.577-0.812,2.121-1.473
		c0.556-0.658,0.973-1.436,1.24-2.34c0.276-0.902,0.474-1.887,0.614-2.941c0.138-1.055,0.208-2.354,0.22-3.916
		c0.012-1.564-0.059-3.174-0.22-4.854c-0.174-1.611-0.465-3.023-0.847-4.264c-0.382-1.229-0.938-2.281-1.646-3.174
		c-0.718-0.881-1.608-1.588-2.688-2.131c-1.064-0.545-2.328-0.823-3.774-0.847c-2.039,0-3.65,0.349-4.819,1.043l-3.291,1.773
		c-0.115,1.355-0.209,2.572-0.254,3.66c-0.059,1.09-0.082,2.225-0.059,3.395c0,1.285,0.082,2.688,0.242,4.17
		c0.151,1.496,0.44,2.932,0.846,4.322c0.405,1.379,0.894,2.605,1.461,3.695c0.567,1.088,1.192,1.945,1.889,2.594
		c0.683,0.65,1.411,1.113,2.164,1.391C379.67,74.508,380.783,74.739,382.229,74.924 M395.228,27.821v0.985
		c-2.062,0.22-3.718,0.498-4.97,0.821c-1.263,0.337-2.653,0.938-4.158,1.808c-1.519,0.869-2.782,1.715-3.788,2.525
		c-1.008,0.811-1.992,1.748-2.956,2.804c-0.959,1.054-1.816,2.189-2.558,3.405c-0.753,1.229-1.252,2.213-1.495,2.954l-1.901,5.027
		c1.669-0.892,3.003-1.528,3.985-1.923c0.986-0.394,2.145-0.729,3.477-1.02c1.343-0.277,2.677-0.382,4.008-0.289
		c1.182,0.092,2.316,0.348,3.43,0.764c1.111,0.418,2.166,1.008,3.162,1.773c0.984,0.753,1.772,1.564,2.352,2.422
		c0.579,0.857,1.078,1.9,1.495,3.127c0.417,1.217,0.683,2.455,0.798,3.707c0.117,1.262,0.129,2.584,0.035,3.961
		c-0.115,1.6-0.348,3.152-0.718,4.646c-0.358,1.494-0.902,2.953-1.646,4.379c-0.729,1.424-1.655,2.641-2.769,3.648
		c-1.1,1.008-2.444,1.82-3.997,2.445c-1.563,0.625-3.497,0.904-5.804,0.834c-1.819-0.047-3.359-0.301-4.634-0.754
		c-1.285-0.451-2.467-1.066-3.545-1.83c-1.088-0.764-2.039-1.609-2.839-2.514c-0.799-0.904-1.552-2.154-2.258-3.766
		c-0.694-1.609-1.204-3.209-1.528-4.818c-0.313-1.609-0.499-3.58-0.534-5.908c-0.047-2.328,0.047-4.287,0.302-5.873
		c0.197-1.309,0.557-2.711,1.066-4.206s1.054-2.803,1.609-3.939c0.567-1.123,1.274-2.293,2.107-3.498
		c0.834-1.193,1.936-2.421,3.291-3.672c1.356-1.264,2.826-2.422,4.402-3.487c1.563-1.055,3.221-1.935,4.97-2.63
		c1.736-0.683,3.476-1.193,5.189-1.506c1.716-0.313,2.886-0.463,3.5-0.439L395.228,27.821z"/>
</g>
</svg>
