<?xml version="1.0" encoding="utf-8"?>
<!-- Generator: Adobe Illustrator 16.0.0, SVG Export Plug-In . SVG Version: 6.00 Build 0)  -->
<!DOCTYPE svg PUBLIC "-//W3C//DTD SVG 1.1//EN" "http://www.w3.org/Graphics/SVG/1.1/DTD/svg11.dtd">
<svg version="1.1" id="图层_1" xmlns="http://www.w3.org/2000/svg" xmlns:xlink="http://www.w3.org/1999/xlink" x="0px" y="0px"
	 width="640px" height="360px" viewBox="0 -10 640 360" enable-background="new 0 -10 640 360" xml:space="preserve">
<g>
	<g>
		<path fill="#AE7B28" d="M488.169,199.164c-8.832-2.041-15.629-5.435-16.989-8.157c-1.355-2.717-9.513-5.433-10.189,2.04
			c-0.681,7.473-7.817,17.156-11.892,19.199c-4.077,2.031-7.816,1.188-8.494,3.225c-0.68,2.042-7.476,11.554-7.476,11.554
			s2.038-27.18,1.357-39.413c-0.679-7.471-9.512-21.743-16.986-27.181c-3.396-3.396-9.514-29.897-8.155-36.692
			c4.759-2.039,23.784-2.72,34.656-6.116c10.87-3.399,27.179-25.142,30.577-26.504c3.396-1.36,11.554-8.151,8.155-12.233
			c-3.396-4.071-10.191-8.833-12.229,2.044c-5.439,5.435-21.748,24.459-31.262,23.098c-8.831-0.677-36.015,0-36.015,0
			s-2.042-5.432-6.795-5.432h-4.759l-2.04-10.195c0,0,4.077-10.195-6.792-16.31c-10.873-6.115-18.35,3.396-18.35,11.554
			s2.718,17.671,6.793,21.746c1.359,2.039,3.398,4.757,0.683,7.472c-2.721,2.722-12.233,9.514-12.233,12.913
			c0,3.4,6.116,33.979,5.436,36.695c-0.678,2.719-9.515,1.355-16.987,0.684c-4.076-0.684-6.796-10.877-14.947-5.439
			c-0.68-6.115-6.116-17.667-16.988-7.473c-3.397,3.395-4.077,6.115-4.077,12.229c0,6.115,0,12.229,2.72,14.95
			c-2.04,2.038-11.556-2.04-17.671-2.04c1.362-3.399-2.035-10.871,1.362-12.912c3.398-2.039,8.832-2.716,8.153-8.156
			c-0.674-5.437-3.397-5.437-5.433-9.512c-2.038-4.083-8.155-25.822-10.194-28.542c-1.359-1.358-4.755-21.745-3.395-27.179
			c1.359-5.438-2.719-15.628-8.156-19.031c-5.435-3.395-19.704-4.755-19.028-14.947c0.683-10.194,16.991-37.373-7.472-39.413
			c0,0-15.629-4.756-14.95,17.668c1.359,8.831,2.719,8.831,2.719,16.308c0,6.795-5.44,8.832-10.196,9.512
			c-4.755,0.678-10.871-0.681-22.423,8.153c-11.549,8.834-19.707,19.711-23.102,23.786c-3.397,4.078-14.949,24.462-16.311,27.864
			c-1.355,3.395-4.756,17.664-2.038,19.025c2.72,1.357,8.152,2.039,10.191-4.756c2.716,2.719,5.437,0,6.798-4.758
			c1.358-4.756-3.399-8.152,1.358-14.271c4.075-6.12,12.232-14.271,14.948-16.307c2.718-2.04,15.631-14.955,19.028-8.834
			c3.397,6.114-0.676,29.9-2.039,34.657c-1.358,4.756-4.078,15.627-0.682,16.98c2.037,6.124-6.114,38.059-5.435,56.406
			c0.68,8.832-0.681,56.401-1.361,63.195c-0.676,6.797-2.718,29.897-1.359,32.619c1.359,2.718,5.437,3.393,2.72,7.468
			c-2.72,4.083-12.909,14.272,4.757,13.592c6.114,0,12.909-6.794,13.59-11.553c4.076-2.714,4.076-82.221,4.076-89.015
			c0-6.799,5.438-33.978,10.194-33.293c4.757,0.674,8.833,21.06,12.23,27.178c2.719,6.115,2.719,40.093,2.719,48.926
			s-0.678,35.333,4.757,40.09c2.719,2.721,0,9.518,1.36,11.552c1.358,2.046,4.759,0.683,7.474,3.401
			c2.717,2.715,10.195,4.758,13.592,1.359c2.04-3.402,1.356-7.48-4.076-11.557c4.757-2.036,3.396-8.149,4.757-12.908
			c1.357-4.758,4.076-41.449-1.359-48.929c-4.757-6.115-6.796-17.667-6.796-21.063c0-3.398-1.357-61.154-3.399-67.957
			c-2.036-6.792-4.074-30.572-4.074-37.372c4.757,6.799,11.554,23.785,18.35,31.26c6.792,7.478,6.115,11.553,3.396,14.269
			c-2.721,2.72-5.439,15.631-4.757,18.349c0.678,2.72,17.668,9.509,18.349,14.949c0.675,5.437,1.356,16.986,5.434,22.424
			c2.041,4.075-0.679,18.35-2.039,23.104c-1.358,4.757-6.792,11.552-7.474,16.31c-0.679,4.752-0.679,31.936,4.754,33.973
			c2.043,2.04,0,4.078-1.356,6.799c-1.356,2.718,1.356,7.474,6.795,4.756c4.755-2.72,4.075-11.557,4.075-11.557
			s1.361,0.685,2.721-1.353c1.358-2.047,3.396-16.992,3.396-21.748c0-4.757,4.075-21.065,8.155-21.065
			c4.073,0,6.115,5.437,4.758,12.911c-1.36,7.472-6.798,14.269-6.117,19.706c0.681,5.435-2.719,14.271,0.681,16.99
			c3.396,2.721,10.189,4.757,10.189-5.441c2.042-4.754-3.565-9.002,4.077-10.187c3.397-1.362,12.237-19.033,12.911-23.786
			c0.678-4.758-14.269-31.94-14.269-38.055s-5.437-23.104,0.677-25.819c6.118-2.719,16.313-4.076,11.557-14.952
			c10.87,0.683,19.023,4.758,20.383,1.359c1.357-3.396,2.042-11.555,2.042-11.555s6.792,13.592,8.157,19.029
			c1.355,5.437-4.762,25.141-5.438,28.538c-0.683,3.398-11.554,36.696-8.156,42.132c3.396,5.436,12.91,31.259,16.986,31.259
			c4.075,0,12.91,18.35,13.593,21.745c0.679,3.396-1.362,15.632-2.722,18.35c-1.356,2.72-8.831,6.79-6.117,8.153
			c2.721,1.361,13.298-1.097,17.35-10.43c3.396-4.759,9.152-3.161,5.757-9.954c-3.396-6.795-14.271-27.863-12.915-31.94
			c3.399,0,4.079-7.473,0.683-10.19c-3.398-2.721-10.195-20.388-6.113-33.294c4.075-12.908,7.473-16.989,7.473-16.989
			s2.038,23.782,6.115,30.579c4.077,6.79,12.231,10.869,22.423,3.396c8.835-7.473,24.298-19.878,20.219-31.427
			c5.437-4.757,11.893-17.839,19.366-15.799c5.437,0,13.76-2.042,20.895,1.525C499.722,213.264,497.005,201.203,488.169,199.164
			 M345.643,177.079c-4.59,3.062-12.235-1.528-13.762,1.526c-0.511-4.071,3.055-5.604,2.545-14.779c0,0,1.528,5.104,8.156,6.119
			C345.643,171.473,350.228,174.023,345.643,177.079z"/>
		<path fill="#AE7B28" d="M343.462,81.415h-9.564v3.844h9.564V81.415z M333.897,90.335h9.564v-4.02h-9.564V90.335z M332.695,80.326
			h3.844c0.347-0.757,0.646-1.513,0.896-2.273l1.275,0.34c-0.297,0.663-0.602,1.31-0.915,1.933h6.874v12.121h-1.207v-1.028h-9.562
			v1.028h-1.204V80.326L332.695,80.326z"/>
		<path fill="#AE7B28" d="M343.143,97.47h-2.233v8.965h2.233V97.47z M337.581,106.436h2.23V97.47h-2.23V106.436z M334.25,106.436
			h2.229V97.47h-2.229V106.436z M331.536,106.436h1.598V96.373h3.648c0.257-0.708,0.506-1.498,0.738-2.362l1.294,0.263
			c-0.217,0.657-0.457,1.354-0.721,2.1h6.165v10.062h1.64v1.115h-14.362V106.436L331.536,106.436z"/>
		<path fill="#AE7B28" d="M331.609,113.5l0.955-0.292c0.263,0.899,0.525,1.861,0.789,2.89l-1.056,0.31
			C332.103,115.389,331.875,114.42,331.609,113.5 M334.678,116.669c0,3.608-0.768,6.165-2.288,7.659
			c-0.227-0.322-0.497-0.645-0.808-0.966c1.043-1.084,1.674-2.64,1.89-4.66c-0.473,0.304-1.066,0.669-1.773,1.094l-0.277-1.232
			c0.897-0.431,1.615-0.809,2.155-1.128v-5.693h5.774c-0.259-0.396-0.552-0.821-0.891-1.277l0.969-0.555
			c0.421,0.539,0.777,1.032,1.073,1.482l-0.59,0.351h6.075v1.026h-11.312v3.901H334.678z M335.246,114.191h10.418v1.029h-4.548
			c-0.012,0.584-0.032,1.123-0.065,1.611h4.186v5.562c0,1.145-0.588,1.723-1.776,1.729c-0.683,0.012-1.513,0.005-2.492-0.012
			c-0.059-0.343-0.133-0.728-0.232-1.16c0.779,0.06,1.576,0.087,2.391,0.087c0.664,0,0.996-0.291,0.996-0.88v-4.327h-3.19
			c-0.022,0.175-0.056,0.341-0.089,0.506c1.055,1.123,1.946,2.121,2.68,2.983l-0.852,0.85c-0.722-0.949-1.443-1.842-2.171-2.689
			c-0.451,1.091-1.346,2.111-2.685,3.057c-0.227-0.284-0.481-0.591-0.766-0.923c1.695-1.038,2.629-2.298,2.804-3.785h-3.055v6.472
			h-1.112v-7.471h4.298c0.037-0.478,0.063-1.018,0.071-1.611h-4.812L335.246,114.191L335.246,114.191L335.246,114.191z"/>
		<path fill="#AE7B28" d="M173.647,215.582h4.167v-1.233h-4.167V215.582z M183.068,214.348h-4.166v1.234h4.166V214.348z
			 M178.902,217.635h4.166v-1.258h-4.166V217.635z M173.647,217.635h4.167v-1.258h-4.167V217.635z M182.479,220.408h-8.232v1.263
			h8.232V220.408z M174.248,223.812h8.232v-1.262h-8.232V223.812z M172.562,213.5h11.588v5.443h-1.082v-0.455h-9.421v0.455h-1.085
			V213.5L172.562,213.5z M173.134,219.526h10.46v5.84c0,1.144-0.713,1.718-2.142,1.718c-0.763,0-1.305-0.004-1.628-0.014
			c-0.08-0.4-0.158-0.789-0.235-1.146c0.882,0.056,1.502,0.088,1.862,0.088c0.685,0,1.027-0.298,1.027-0.896v-0.426h-8.232v2.521
			h-1.112V219.526L173.134,219.526z"/>
		<path fill="#AE7B28" d="M171.081,232.329l0.911-0.366c0.344,0.783,0.702,1.717,1.086,2.801l-1.014,0.397
			C171.75,234.126,171.422,233.182,171.081,232.329 M175.789,238.037h2.523v-1.366h-2.523V238.037z M181.215,238.037h2.557v-1.366
			h-2.557V238.037z M176.771,234.018h5.989v-1.103h-5.989V234.018z M174.865,235.822h4.342v3.388h-0.896v-0.324h-2.523v0.396h-0.923
			V235.822z M180.309,235.822h4.372v3.461h-0.91v-0.396h-2.557v0.323h-0.907L180.309,235.822L180.309,235.822z M176.054,241.545
			h3.228v-2.161h0.97v2.161h3.227v-1.719h0.94v3.258h-0.94v-0.6h-8.361v-2.656h0.938L176.054,241.545L176.054,241.545z
			 M175.748,232.038h8.008v3.21h-0.995v-0.353h-5.988v0.353h-1.025V232.038z M178.151,229.179l0.97-0.559
			c0.303,0.428,0.63,0.952,0.983,1.569h5.398v0.967h-11.236v4.418c0,3.518-0.68,6.078-2.039,7.67
			c-0.225-0.32-0.496-0.645-0.808-0.967c1.056-1.312,1.634-2.938,1.731-4.888c-0.606,0.383-1.215,0.758-1.819,1.131l-0.28-1.233
			c0.791-0.37,1.511-0.751,2.158-1.144c0.009-0.165,0.015-0.341,0.015-0.529v-5.425h5.559
			C178.569,229.847,178.358,229.511,178.151,229.179z"/>
		<path fill="#AE7B28" d="M153.412,221.066h2.201v-2.7h-2.201V221.066z M155.612,214.646h-2.201v2.728h2.201V214.646z
			 M157.167,219.19h3.771v-4.399h-3.286v-1.058h7.714v1.058h-3.284v4.399h3.709v1.057h-3.709v6.881h-1.144v-6.881h-3.771V219.19
			L157.167,219.19z M152.323,213.645h4.371v11.912c0,1.007-0.477,1.516-1.436,1.516c-0.555,0-1.032-0.008-1.421-0.019
			c-0.042-0.38-0.099-0.752-0.177-1.114c0.458,0.058,0.885,0.089,1.274,0.089c0.451,0,0.677-0.24,0.677-0.72v-3.241h-2.216
			c-0.036,2.169-0.488,3.905-1.351,5.204c-0.252-0.28-0.542-0.544-0.868-0.777c0.767-1.162,1.146-2.849,1.146-5.06L152.323,213.645
			L152.323,213.645z"/>
		<path fill="#AE7B28" d="M151.256,232.329l0.908-0.366c0.344,0.783,0.706,1.717,1.085,2.801l-1.015,0.397
			C151.923,234.126,151.598,233.182,151.256,232.329 M155.96,238.037h2.524v-1.366h-2.524V238.037z M161.39,238.037h2.552v-1.366
			h-2.552V238.037z M156.945,234.018h5.985v-1.103h-5.985V234.018z M155.039,235.822h4.344v3.388h-0.898v-0.324h-2.524v0.396h-0.923
			L155.039,235.822L155.039,235.822z M160.482,235.822h4.37v3.461h-0.909v-0.396h-2.553v0.323h-0.91L160.482,235.822
			L160.482,235.822z M156.226,241.545h3.23v-2.161h0.969v2.161h3.225v-1.719h0.94v3.258h-0.94v-0.6h-8.361v-2.656h0.938
			L156.226,241.545L156.226,241.545z M155.918,232.038h8.009v3.21h-0.996v-0.353h-5.985v0.353h-1.027L155.918,232.038
			L155.918,232.038z M158.325,229.179l0.969-0.559c0.302,0.428,0.629,0.952,0.981,1.569h5.398v0.967h-11.238v4.418
			c0,3.518-0.676,6.078-2.036,7.67c-0.226-0.32-0.497-0.645-0.811-0.967c1.058-1.312,1.635-2.938,1.734-4.888
			c-0.607,0.383-1.215,0.758-1.819,1.131l-0.281-1.233c0.792-0.37,1.511-0.751,2.157-1.144c0.012-0.165,0.017-0.341,0.017-0.529
			v-5.425h5.562C158.741,229.847,158.529,229.511,158.325,229.179z"/>
		<path fill="#AE7B28" d="M133.613,222.597h4.194v-1.569h-4.194V222.597z M137.808,218.471h-4.194v1.57h4.194V218.471z
			 M140.669,217.711h1.115v6.602h-1.115V217.711z M143.691,217.003h1.146v8.204c0,1.201-0.565,1.807-1.703,1.818
			c-0.52,0.012-1.163,0.003-1.937-0.016c-0.05-0.402-0.117-0.81-0.206-1.233c0.725,0.077,1.31,0.117,1.762,0.117
			c0.625,0,0.938-0.315,0.938-0.954V217.003L143.691,217.003z M131.531,215.009h4.737c-0.323-0.509-0.735-1.059-1.233-1.657
			l0.922-0.631c0.607,0.675,1.1,1.276,1.467,1.803l-0.724,0.483h4.014l-0.591-0.321c0.52-0.632,0.969-1.296,1.352-1.994l1.115,0.646
			c-0.45,0.616-0.904,1.172-1.358,1.67h4.643v1.029h-14.347L131.531,215.009L131.531,215.009z M133.613,227.247h-1.116v-9.769h6.429
			v8.197c0,0.956-0.494,1.429-1.481,1.408c-0.411,0-0.976-0.012-1.688-0.03c-0.057-0.38-0.133-0.741-0.221-1.086
			c0.601,0.05,1.15,0.074,1.657,0.074c0.41,0.011,0.62-0.194,0.62-0.605v-1.859h-4.195L133.613,227.247L133.613,227.247z"/>
		<path fill="#AE7B28" d="M141.784,239.517h-1.129v-8.979h1.129V239.517z M143.894,228.913h1.176v12.116
			c0,1.246-0.563,1.868-1.688,1.88c-0.539,0.008-1.333,0.004-2.391-0.016c-0.05-0.45-0.127-0.891-0.235-1.322
			c1.01,0.087,1.75,0.133,2.232,0.133c0.605,0,0.908-0.331,0.908-0.983L143.894,228.913L143.894,228.913z M133.907,236.602
			l0.716-0.821c0.745,0.611,1.422,1.208,2.035,1.796c0.652-1.136,1.116-2.366,1.386-3.691h-3.299
			c-0.768,1.76-1.714,3.344-2.833,4.752c-0.214-0.499-0.412-0.888-0.587-1.173c1.476-1.982,2.615-4.308,3.411-6.968h-2.925v-1.059
			h8.228v1.059h-4.094c-0.228,0.808-0.486,1.582-0.77,2.33h4.072v1.073c-0.804,4.009-2.909,7.105-6.325,9.285
			c-0.252-0.291-0.555-0.595-0.91-0.897c1.675-1.079,3.013-2.328,4.024-3.746C135.477,237.995,134.768,237.349,133.907,236.602z"/>
		<path fill="#AE7B28" d="M135.139,246.436h-1.777v2.627h1.777V246.436z M133.363,252.67h1.776v-2.696h-1.776V252.67z
			 M143.838,247.009h-5.458v1.406h5.458V247.009z M138.379,250.779h5.457v-1.422h-5.457V250.779z M136.605,254.098v-0.97h3.39v1.025
			c-0.502,1.654-1.538,3.044-3.11,4.168c-0.218-0.364-0.429-0.675-0.631-0.938c1.313-0.822,2.214-1.918,2.714-3.285H136.605
			L136.605,254.098z M132.353,245.482h3.798v11.975c0,0.801-0.325,1.252-0.983,1.347c-0.362,0.062-0.937,0.062-1.731,0
			c-0.039-0.34-0.099-0.683-0.177-1.029c0.488,0.07,0.929,0.104,1.319,0.108c0.374-0.005,0.56-0.208,0.56-0.621v-3.679h-1.777
			c0.028,2.532-0.364,4.371-1.189,5.516c-0.222-0.296-0.487-0.568-0.792-0.822c0.665-1.106,0.989-2.635,0.971-4.59V245.482
			L132.353,245.482z M137.369,246.039h2.275c0.183-0.5,0.347-1.003,0.48-1.521l1.118,0.309c-0.178,0.428-0.344,0.836-0.5,1.215
			h4.107v6.165h-1.011v-0.456h-2.143v0.483c0.292,0.81,0.66,1.54,1.101,2.187c0.744-0.618,1.429-1.28,2.052-1.997l0.854,0.732
			c-0.635,0.664-1.397,1.354-2.276,2.072c0.724,0.789,1.612,1.427,2.669,1.904c-0.282,0.286-0.573,0.616-0.866,0.997
			c-1.653-0.979-2.831-2.25-3.536-3.812v2.934c0,0.889-0.342,1.412-1.027,1.568c-0.345,0.078-1.069,0.101-2.17,0.06
			c-0.053-0.374-0.119-0.75-0.206-1.13c0.686,0.048,1.22,0.071,1.598,0.071c0.521,0,0.779-0.266,0.779-0.803v-5.27h-2.289v0.511
			h-1.012L137.369,246.039L137.369,246.039z"/>
		<path fill="#AE7B28" d="M131.425,264.153l0.91-0.369c0.344,0.783,0.706,1.718,1.088,2.805l-1.015,0.397
			C132.095,265.946,131.769,265.004,131.425,264.153 M136.135,269.858h2.524v-1.362h-2.524V269.858z M141.564,269.858h2.552v-1.362
			h-2.552V269.858z M137.119,265.842h5.985v-1.103h-5.985V265.842z M135.209,267.645h4.347v3.39h-0.899v-0.325h-2.524v0.397h-0.923
			V267.645L135.209,267.645z M140.654,267.645h4.37v3.463h-0.91v-0.397h-2.552v0.325h-0.909L140.654,267.645L140.654,267.645z
			 M136.4,273.366h3.225v-2.158h0.969v2.158h3.229v-1.719h0.937v3.258h-0.937v-0.601h-8.362v-2.657h0.938V273.366z M136.092,263.863
			h8.01v3.21h-0.997v-0.354h-5.985v0.354h-1.028V263.863z M138.499,260.999l0.969-0.56c0.303,0.434,0.629,0.954,0.979,1.568h5.4
			v0.972h-11.235v4.418c0,3.518-0.678,6.075-2.041,7.67c-0.225-0.321-0.495-0.646-0.807-0.963c1.057-1.313,1.635-2.942,1.734-4.893
			c-0.606,0.387-1.216,0.763-1.821,1.134l-0.278-1.234c0.789-0.369,1.511-0.751,2.156-1.145c0.012-0.166,0.016-0.342,0.016-0.526
			v-5.431h5.562C138.914,261.668,138.703,261.331,138.499,260.999z"/>
		<path fill="#AE7B28" d="M117.498,216.302h2.655v-1.395h-2.655V216.302z M113.801,216.302h2.67v-1.395h-2.67V216.302z
			 M123.848,214.907h-2.669v1.395h2.669V214.907z M117.262,222.14l-0.438,0.369h3.401c0.421-0.43,0.853-0.913,1.295-1.44h-5.299
			C116.564,221.401,116.911,221.762,117.262,222.14z M112.744,214.025h4.004c0.146-0.381,0.289-0.806,0.427-1.272l1.171,0.276
			l-0.425,0.996h6.983v3.509h-1.058v-0.353H113.8v0.353h-1.059v-3.507h0.002V214.025z M111.675,224.548h6.6v-1.191h-5.401v-0.849
			h3.345c-0.37-0.394-0.711-0.728-1.025-0.997l0.585-0.442h-3.931v-0.876h6.426v-1.074h-5.134v-0.849h5.134v-0.924h1.144v0.924
			h5.161v0.849h-5.161v1.074h6.457v0.876h-3.86l0.585,0.384c-0.333,0.341-0.698,0.694-1.098,1.058h3.345v0.847h-5.43v1.192h6.692
			v0.881h-6.692v1.76h-1.144v-1.76h-6.6L111.675,224.548L111.675,224.548z"/>
		<path fill="#AE7B28" d="M112.802,234.429c1.114,0.624,2.174,1.228,3.185,1.805c0.167-0.696,0.263-1.875,0.293-3.538h-4.283v-1.129
			h4.324c0.02-0.881,0.035-1.815,0.047-2.801h1.248c-0.02,1.015-0.045,1.948-0.072,2.801h4.736v9.04
			c-0.037,0.663,0.235,0.996,0.822,0.996h0.587c0.585,0,0.925-0.287,1.013-0.867c0.077-0.509,0.157-1.327,0.235-2.451
			c0.378,0.157,0.789,0.31,1.231,0.452c-0.077,0.824-0.175,1.613-0.292,2.368c-0.138,1.085-0.821,1.626-2.056,1.626h-0.94
			c-1.289,0-1.9-0.678-1.833-2.037v-7.996h-3.549c-0.05,2.033-0.182,3.427-0.396,4.182c0.918,0.527,1.79,1.035,2.611,1.527
			l-0.675,1.1c-0.752-0.49-1.516-0.978-2.29-1.454c-0.758,2.092-2.169,3.789-4.224,5.078c-0.244-0.303-0.558-0.627-0.937-0.966
			c2.021-1.242,3.382-2.839,4.077-4.784c-1.135-0.686-2.288-1.361-3.463-2.024L112.802,234.429z"/>
		<path fill="#AE7B28" d="M111.6,248.243l0.909-0.37c0.345,0.785,0.705,1.719,1.086,2.805l-1.012,0.396
			C112.268,250.039,111.94,249.094,111.6,248.243 M116.306,253.95h2.524v-1.368h-2.524V253.95z M121.734,253.95h2.557v-1.368h-2.557
			V253.95z M117.289,249.931h5.99v-1.103h-5.99V249.931z M115.384,251.73h4.343v3.392h-0.897v-0.325h-2.524v0.398h-0.922
			L115.384,251.73L115.384,251.73z M120.827,251.73h4.372v3.467h-0.91v-0.398h-2.556v0.324h-0.909L120.827,251.73L120.827,251.73z
			 M116.573,257.455h3.227v-2.158h0.968v2.158h3.228v-1.717h0.939v3.259h-0.939v-0.599h-8.364v-2.657h0.94V257.455z M116.266,247.95
			h8.008v3.213h-0.994v-0.358h-5.99v0.358h-1.025V247.95L116.266,247.95z M118.67,245.086l0.968-0.558
			c0.304,0.43,0.63,0.954,0.982,1.572h5.4v0.968h-11.236v4.416c0,3.52-0.68,6.079-2.041,7.671c-0.223-0.322-0.494-0.646-0.807-0.963
			c1.058-1.314,1.634-2.938,1.73-4.888c-0.605,0.382-1.214,0.758-1.818,1.128l-0.28-1.233c0.792-0.369,1.512-0.75,2.157-1.146
			c0.01-0.163,0.014-0.334,0.014-0.524v-5.428h5.562C119.089,245.758,118.876,245.421,118.67,245.086z"/>
		<path fill="#AE7B28" d="M529.312,173.426l0.881-0.382c0.463,0.833,0.828,1.598,1.101,2.3l-0.951,0.398
			C530.127,175.196,529.783,174.421,529.312,173.426 M531.939,172.972l0.925-0.351c0.382,0.927,0.686,1.759,0.911,2.492l-0.997,0.34
			C532.62,174.894,532.34,174.066,531.939,172.972z M529.183,172.544c-0.059-0.303-0.129-0.657-0.207-1.068
			c2.659-0.07,5.19-0.21,7.586-0.425l0.236,1.039C534.114,172.276,531.577,172.429,529.183,172.544z M537.689,170.815h1.146v11.764
			c0,0.644,0.341,0.967,1.024,0.967h0.733c0.773,0,1.21-0.351,1.307-1.057c0.098-0.733,0.16-1.571,0.191-2.523
			c0.39,0.178,0.779,0.331,1.16,0.471c-0.095,1.054-0.207,1.946-0.34,2.669c-0.205,1.035-0.934,1.557-2.186,1.557h-1.014
			c-0.751,0-1.28-0.152-1.585-0.454c-0.288-0.298-0.438-0.821-0.438-1.572V170.815L537.689,170.815z M528.727,180.365
			c1.231-0.143,2.461-0.305,3.695-0.475v-1.125l2.497-1.733h-5.647v-1.024h4.724c0.603-1.172,1.128-2.325,1.569-3.468l1.055,0.43
			c-0.438,0.969-0.948,1.979-1.518,3.036h1.413v1.102l-2.946,2.1v0.521c1.045-0.159,2.092-0.327,3.141-0.508
			c-0.062,0.457-0.098,0.845-0.12,1.174c-1.014,0.147-2.018,0.296-3.021,0.453v2.04c0,0.723-0.123,1.217-0.369,1.47
			c-0.283,0.301-0.78,0.456-1.495,0.456c-0.566,0-1.113-0.02-1.642-0.045c-0.038-0.322-0.109-0.726-0.205-1.204
			c0.413,0.068,0.952,0.108,1.629,0.118c0.627,0.011,0.939-0.322,0.939-1v-1.646c-1.174,0.183-2.337,0.376-3.494,0.579
			L528.727,180.365z"/>
		<path fill="#AE7B28" d="M532.381,188.387h-1.776v2.625h1.776V188.387z M530.604,194.62h1.776v-2.701h-1.776V194.62z
			 M541.081,188.957h-5.46v1.406h5.46V188.957z M535.621,192.726h5.46v-1.425h-5.46V192.726z M533.848,196.042v-0.97h3.389v1.029
			c-0.5,1.652-1.536,3.043-3.111,4.168c-0.215-0.361-0.426-0.673-0.632-0.943c1.313-0.819,2.217-1.912,2.716-3.283L533.848,196.042
			L533.848,196.042z M529.593,187.428h3.799v11.974c0,0.802-0.326,1.251-0.981,1.351c-0.363,0.059-0.938,0.059-1.734,0
			c-0.038-0.344-0.097-0.687-0.174-1.031c0.488,0.069,0.93,0.102,1.319,0.104c0.374-0.002,0.558-0.203,0.558-0.616v-3.681h-1.776
			c0.027,2.528-0.366,4.372-1.189,5.516c-0.223-0.295-0.488-0.568-0.792-0.82c0.666-1.107,0.991-2.635,0.97-4.595L529.593,187.428
			L529.593,187.428z M534.61,187.988h2.274c0.183-0.5,0.347-1.007,0.481-1.524l1.118,0.305c-0.179,0.433-0.344,0.837-0.504,1.22
			h4.109v6.161h-1.012v-0.454h-2.145v0.484c0.294,0.812,0.659,1.538,1.103,2.184c0.743-0.614,1.426-1.28,2.054-1.994l0.852,0.733
			c-0.637,0.663-1.397,1.354-2.274,2.068c0.722,0.79,1.611,1.429,2.667,1.909c-0.281,0.281-0.571,0.611-0.865,0.996
			c-1.651-0.979-2.831-2.25-3.533-3.813v2.934c0,0.888-0.342,1.411-1.029,1.569c-0.343,0.078-1.067,0.098-2.169,0.06
			c-0.054-0.373-0.119-0.747-0.208-1.13c0.685,0.05,1.219,0.073,1.599,0.073c0.52,0,0.779-0.27,0.779-0.808v-5.266h-2.289v0.512
			h-1.01v-6.219H534.61z"/>
		<path fill="#AE7B28" d="M528.668,206.1l0.909-0.367c0.345,0.783,0.704,1.716,1.086,2.804l-1.012,0.395
			C529.338,207.896,529.011,206.951,528.668,206.1 M533.376,211.803h2.523v-1.359h-2.523V211.803z M538.804,211.803h2.554v-1.359
			h-2.554V211.803z M534.36,207.785h5.987v-1.1h-5.987V207.785z M532.452,209.589h4.345v3.393h-0.897v-0.323h-2.523v0.392h-0.924
			V209.589L532.452,209.589z M537.896,209.589h4.372v3.461h-0.91v-0.39h-2.555v0.32h-0.908L537.896,209.589L537.896,209.589z
			 M533.642,215.314h3.227v-2.158h0.97v2.158h3.226v-1.721h0.939v3.258h-0.939v-0.602h-8.36v-2.654h0.938V215.314z M533.333,205.805
			h8.009v3.213h-0.995v-0.353h-5.986v0.353h-1.028L533.333,205.805L533.333,205.805z M535.738,202.945l0.971-0.558
			c0.302,0.432,0.629,0.954,0.98,1.571h5.399v0.967h-11.236v4.416c0,3.521-0.679,6.08-2.04,7.672
			c-0.225-0.322-0.495-0.644-0.805-0.965c1.055-1.312,1.632-2.943,1.729-4.892c-0.603,0.384-1.214,0.761-1.817,1.136l-0.282-1.235
			c0.792-0.372,1.513-0.751,2.157-1.146c0.011-0.165,0.015-0.341,0.015-0.527v-5.429h5.562
			C536.155,203.616,535.945,203.277,535.738,202.945z"/>
		<path fill="#AE7B28" d="M508.886,183.09h6.806v-3.738h-5.194v-1.13h5.194v-3.388h-3.874c-0.651,1.174-1.396,2.234-2.243,3.185
			c-0.203-0.323-0.469-0.667-0.793-1.029c1.379-1.545,2.472-3.433,3.271-5.662l1.203,0.322c-0.26,0.712-0.544,1.4-0.857,2.053h3.293
			v-3.108h1.262v3.108h5.603v1.131h-5.603v3.389h5.193v1.128h-5.193v3.74h6.397v1.103h-14.465V183.09L508.886,183.09z"/>
		<path fill="#AE7B28" d="M521.165,191.389h-5.15v1.293h5.15V191.389z M516.015,194.913h5.15v-1.293h-5.15V194.913z
			 M516.015,197.158h5.15v-1.293h-5.15V197.158z M516.015,199.431h5.15v-1.319h-5.15V199.431z M510.485,194.692l0.584-0.78
			c0.413,0.307,0.854,0.657,1.324,1.058c0.302-0.968,0.504-2.008,0.599-3.124h-1.847c-0.383,1.526-0.925,2.93-1.631,4.215
			c-0.174-0.239-0.425-0.549-0.749-0.942c1.021-1.849,1.655-3.968,1.909-6.353h-1.628v-0.998h5.132v0.998H511.7
			c-0.078,0.724-0.187,1.416-0.322,2.083h2.625v0.982c-0.349,3.918-1.721,6.958-4.106,9.142c-0.274-0.312-0.545-0.59-0.821-0.825
			c1.3-1.161,2.28-2.545,2.944-4.147C511.496,195.527,510.982,195.094,510.485,194.692z M513.58,199.431h1.377v-9.021h3.097v-1.31
			h-3.64v-0.997h3.64v-1.435h1.071v1.435h3.906v0.997h-3.906v1.31h3.097v9.021h1.203v0.996h-9.845V199.431L513.58,199.431z"/>
		<path fill="#AE7B28" d="M514.225,213.082h-3.096v1.925h3.096V213.082z M521.004,213.082h-3.142v1.925h3.142V213.082z
			 M514.209,204.203h-3.096v2h3.096V204.203z M520.986,204.203h-3.137v2h3.137V204.203z M510.087,203.299h5.149v4.269h-1.027v-0.457
			h-3.096v0.601h-1.027L510.087,203.299L510.087,203.299z M516.82,203.299h5.194v4.324h-1.028v-0.513h-3.137v0.459h-1.029V203.299
			L516.82,203.299z M509.294,208.637h5.928c0.153-0.368,0.247-0.791,0.294-1.278l1.059,0.149c-0.062,0.412-0.146,0.785-0.26,1.129
			h3.199c-0.394-0.283-0.804-0.561-1.238-0.834l0.598-0.664c0.646,0.383,1.232,0.766,1.751,1.145l-0.333,0.353h2.738v0.968h-5.665
			c1.129,1.109,3.134,1.631,6.012,1.571c-0.229,0.399-0.434,0.775-0.6,1.126c-0.257-0.018-0.508-0.037-0.75-0.062v4.479h-1.025
			v-0.803h-3.141v0.789h-1.026v-4.532h4.672c-2.796-0.38-4.584-1.234-5.359-2.571h-0.268c-0.547,1.167-2.324,2.021-5.326,2.571
			h4.697v4.532h-1.025v-0.789h-3.096v0.803h-1.027v-4.456c-0.261,0.05-0.528,0.098-0.809,0.143c-0.146-0.29-0.337-0.635-0.57-1.039
			c3.264-0.421,5.229-1.005,5.881-1.76h-5.311L509.294,208.637L509.294,208.637z"/>
		<path fill="#AE7B28" d="M519.653,223.651h-7.104v1.837h7.104V223.651z M520.212,228.863h-7.661v2.156h7.661V228.863z
			 M509.443,220.277h6.654c-0.299-0.51-0.603-0.993-0.916-1.437l1.012-0.571c0.331,0.432,0.696,0.965,1.104,1.609l-0.694,0.396
			h6.175v2.674h-1.143v-1.656h-11.046v1.656h-1.146L509.443,220.277L509.443,220.277L509.443,220.277z M521.34,227.877v4.976h-1.129
			v-0.866h-7.661v0.853h-1.141v-10.164h9.369v4.281h-1.128v-0.483h-7.104v1.406h8.793V227.877z"/>
		<path fill="#AE7B28" d="M514.8,243.131l0.894-0.634c0.789,0.89,1.429,1.633,1.905,2.235l-0.983,0.732
			C516.168,244.818,515.559,244.041,514.8,243.131 M509.884,237.529l0.88-0.619c0.697,0.87,1.368,1.808,2.025,2.819l-0.985,0.733
			C511.149,239.363,510.508,238.384,509.884,237.529z M519.084,239.816c0.818-0.98,1.513-1.964,2.081-2.949l1.026,0.662
			c-0.614,0.928-1.35,1.922-2.201,2.978L519.084,239.816z M520.238,244.025l0.883-0.645c0.722,0.868,1.497,1.823,2.317,2.858
			l-0.984,0.779C521.674,245.892,520.934,244.896,520.238,244.025z M510.192,243.453l1.173,0.396
			c-0.401,1.205-0.896,2.413-1.481,3.621c-0.42-0.193-0.785-0.354-1.086-0.481C509.376,245.805,509.839,244.624,510.192,243.453z
			 M514.753,241.285h2.42v-5.183h-2.42V241.285z M512.377,243.468h1.145v2.76c0,0.722,0.365,1.084,1.099,1.084h2.921
			c0.688,0,1.086-0.321,1.202-0.97c0.109-0.458,0.193-0.994,0.248-1.608c0.441,0.191,0.815,0.34,1.128,0.437
			c-0.102,0.627-0.231,1.209-0.379,1.745c-0.264,0.952-0.946,1.426-2.037,1.426h-3.345c-1.325,0-1.981-0.64-1.981-1.909V243.468
			L512.377,243.468z M509.03,241.285h4.578v-5.183h-4.021v-1.03h12.969v1.03h-4.235v5.183h4.854v1.025h-14.143L509.03,241.285
			L509.03,241.285z"/>
		<path fill="#AE7B28" d="M509.546,253.584l0.968,0.222c-0.178,1.184-0.422,2.439-0.733,3.77c-0.264-0.099-0.604-0.189-1.015-0.278
			C509.063,256.231,509.319,254.992,509.546,253.584 M510.908,250.268h1.131v2.818l0.631-0.354c0.509,0.791,0.943,1.536,1.302,2.231
			l-0.907,0.587c-0.344-0.726-0.684-1.365-1.028-1.923v11.103h-1.13L510.908,250.268L510.908,250.268z M513.198,263.048h4.751
			v-3.936h-3.782v-1.026h3.782v-3.549h-2.373c-0.359,0.928-0.781,1.85-1.264,2.771c-0.422-0.344-0.749-0.567-0.981-0.677
			c0.978-1.77,1.663-3.58,2.053-5.425l1.16,0.309c-0.168,0.673-0.364,1.337-0.59,1.994h1.995v-3.227h1.162v3.227h3.856v1.029h-3.856
			v3.548h3.563v1.025h-3.563v3.936h4.312v1.026h-10.226V263.048L513.198,263.048z"/>
		<path fill="#AE7B28" d="M512.83,267.924h-1.923v2.671h1.923V267.924z M510.908,274.324h1.923v-2.732h-1.923V274.324z
			 M516.104,274.439h2.244v-4.344h-2.244V274.439z M521.68,270.096h-2.247v4.343h2.247V270.096z M509.869,266.899h3.989v12.027
			c0,0.835-0.348,1.301-1.042,1.406c-0.293,0.051-0.873,0.062-1.746,0.031c-0.037-0.37-0.099-0.742-0.175-1.114
			c0.569,0.06,0.984,0.088,1.247,0.088c0.464,0,0.688-0.24,0.688-0.72v-3.3h-1.923c0,2.22-0.425,3.999-1.274,5.34
			c-0.275-0.291-0.567-0.566-0.88-0.82c0.753-1.201,1.126-2.85,1.115-4.928V266.899L509.869,266.899z M515.047,269.066h3.301v-2.902
			h1.084v2.902h3.299v7.103h-1.052v-0.703h-2.247v5.178h-1.084v-5.178h-2.244v0.703h-1.057V269.066z"/>
		<path fill="#AE7B28" d="M508.972,285.392l0.911-0.264c0.263,0.882,0.527,1.898,0.79,3.055l-1.012,0.278
			C509.47,287.381,509.237,286.36,508.972,285.392 M514.401,292.902h3.053v-1.273h-3.053V292.902z M521.546,291.629h-3.067v1.273
			h3.067V291.629z M514.401,295.03h3.053v-1.292h-3.053V295.03z M518.479,295.03h3.066v-1.292h-3.066V295.03z M516.132,286.858
			c0.518,0.599,1.054,1.266,1.597,2.01l-0.908,0.483l-0.22-0.335c-1.966,0.622-3.067,1.052-3.315,1.272l-0.661-0.747
			c0.303-0.204,0.451-0.498,0.441-0.88v-2.949c1.575-0.253,2.843-0.535,3.8-0.849l0.545,0.793c-1.165,0.281-2.253,0.526-3.257,0.731
			v2.447c0.626-0.203,1.257-0.411,1.891-0.614c-0.246-0.332-0.495-0.651-0.747-0.965L516.132,286.858z M516.615,289.865
			c1.467-0.705,2.2-1.857,2.2-3.461h-1.129v-0.88h5.312c-0.053,0.989-0.109,2.087-0.177,3.298c-0.029,0.871-0.637,1.307-1.819,1.307
			c-0.36-0.008-0.769-0.021-1.218-0.028c-0.05-0.264-0.117-0.619-0.204-1.056c0.477,0.025,0.929,0.05,1.35,0.059
			c0.518,0.031,0.784-0.178,0.807-0.631c0.057-0.616,0.098-1.305,0.116-2.068h-2.009c-0.013,1.888-0.828,3.311-2.451,4.269
			C517.172,290.411,516.907,290.141,516.615,289.865z M511.995,289.312c0,3.116-0.667,5.538-2.008,7.259
			c-0.227-0.321-0.496-0.646-0.81-0.965c0.951-1.165,1.513-2.79,1.689-4.874c-0.556,0.354-1.15,0.726-1.776,1.118l-0.277-1.235
			c0.732-0.353,1.438-0.729,2.124-1.131v-6.116h5.607c-0.207-0.303-0.418-0.607-0.632-0.909l1.027-0.482
			c0.37,0.498,0.702,0.959,0.996,1.393h5.268v0.969h-11.209V289.312L511.995,289.312z M513.375,290.774h9.199v5.622h-1.028v-0.513
			h-7.145v0.513h-1.029L513.375,290.774L513.375,290.774z"/>
		<circle fill="none" stroke="#AE7B28" stroke-width="0.5669" stroke-miterlimit="22.9256" cx="319.698" cy="185.419" r="154.581"/>
		<path fill="#FFFFFF" d="M276.954,39.396l29.338-29.338c2.9,2.899,7.646,2.899,10.547,0l29.342,29.338
			c-2.902,2.902-2.902,7.646,0,10.549l-29.343,29.336c-2.9-2.898-7.646-2.898-10.547,0l-29.338-29.337
			C279.853,47.043,279.853,42.297,276.954,39.396z"/>
		<path fill="none" stroke="#AE7B28" stroke-width="2.8346" stroke-miterlimit="22.9256" d="M276.954,39.396l29.338-29.338
			c2.9,2.899,7.646,2.899,10.547,0l29.342,29.338c-2.902,2.902-2.902,7.646,0,10.549l-29.343,29.336
			c-2.9-2.898-7.646-2.898-10.547,0l-29.338-29.337C279.853,47.043,279.853,42.297,276.954,39.396z"/>
		<path fill="#AE7B28" d="M298.361,39.029l2.169,0.732c-1.02,2.532-2.096,4.778-3.222,6.738c-0.755-0.481-1.418-0.869-1.982-1.166
			C296.668,43.12,297.679,41.017,298.361,39.029 M306.851,38.55c1.396,1.51,2.75,3.069,4.069,4.677l-1.645,1.629
			c-1.413-1.82-2.759-3.51-4.036-5.078L306.851,38.55z M306.995,43.656l1.865,1.407c-1.707,2.301-3.553,3.991-5.536,5.058
			c-1.987,1.072-4.341,1.851-7.071,2.347c-0.479-1.044-0.892-1.852-1.243-2.428c4.287-0.733,7.28-1.828,8.977-3.287h-2.307v-9.863
			h2.458v9.751C305.152,45.829,306.104,44.833,306.995,43.656z"/>
		<path fill="#AE7B28" d="M318.259,36.859v7.02c0,3.694-1.373,6.559-4.116,8.601c-0.692-0.827-1.328-1.478-1.915-1.945
			c2.445-1.65,3.671-4.083,3.671-7.292v-6.384H318.259z M325.954,46.307c0.725,0.277,1.445,0.504,2.168,0.687
			c-0.216,2.26-0.426,3.583-0.624,3.973c-0.199,0.385-0.498,0.675-0.894,0.857c-0.396,0.182-0.914,0.278-1.546,0.278h-1.548
			c-1.722,0-2.586-0.905-2.586-2.715V36.859h2.523v12.16c0,0.492,0.239,0.728,0.718,0.721h0.731c0.423,0,0.686-0.132,0.786-0.395
			C325.79,49.085,325.879,48.071,325.954,46.307z"/>
		<path fill="#FFFFFF" d="M107.258,145.956l36.523-36.525c3.611,3.61,9.52,3.61,13.133,0l36.523,36.525
			c-3.611,3.608-3.611,9.519,0,13.133l-36.523,36.523c-3.612-3.613-9.522-3.613-13.133,0l-36.523-36.523
			C110.866,155.476,110.866,149.564,107.258,145.956z"/>
		<path fill="none" stroke="#AE7B28" stroke-width="2.8346" stroke-miterlimit="22.9256" d="M107.258,145.956l36.523-36.525
			c3.611,3.61,9.52,3.61,13.133,0l36.523,36.525c-3.611,3.608-3.611,9.519,0,13.133l-36.523,36.523
			c-3.612-3.613-9.522-3.613-13.133,0l-36.523-36.523C110.866,155.476,110.866,149.564,107.258,145.956z"/>
		<path fill="#AE7B28" d="M145.221,150.895v-1.552h-4.051v1.552H145.221z M134.413,150.895h4.054v-1.552h-4.054V150.895z
			 M134.413,147.198h4.054v-1.551h-4.054V147.198z M145.221,145.646h-4.051v1.551h4.051V145.646z M140.552,162.139
			c-0.253-1.167-0.472-2.059-0.656-2.682c1.614,0.134,3.024,0.2,4.233,0.2c0.342,0,0.64-0.085,0.886-0.253
			c0.247-0.17,0.411-0.39,0.482-0.662c0.074-0.271,0.139-0.959,0.2-2.065h-6.42c-0.841,2.772-3.517,4.7-8.025,5.78
			c-0.479-0.901-1.007-1.783-1.591-2.639c3.583-0.731,5.761-1.781,6.536-3.142h-5.762v-2.328h6.255
			c0.056-0.417,0.102-0.839,0.14-1.269h-5.085v-9.62h16.133v9.62h-8.154c-0.026,0.416-0.061,0.842-0.098,1.269h8.969
			c-0.21,3.228-0.376,5.12-0.493,5.672c-0.115,0.558-0.417,1.032-0.911,1.427c-0.486,0.396-1.235,0.62-2.242,0.677
			C143.948,162.181,142.479,162.187,140.552,162.139z"/>
		<path fill="#AE7B28" d="M151.818,146.56l1.687,0.2c-0.172,2.185-0.362,4.16-0.576,5.922c-0.569-0.224-1.113-0.368-1.628-0.439
			C151.555,150.192,151.726,148.298,151.818,146.56 M156.647,142.707v2.731c0.716,0.294,1.461,0.639,2.245,1.022l-1.015,2.168
			l-1.23-0.826v14.474h-2.661v-19.571L156.647,142.707L156.647,142.707z M158.116,158.918h5.485v-3.695h-4.493v-2.583h4.493v-3.536
			h-2.422c-0.292,1.209-0.609,2.299-0.955,3.28c-0.793-0.465-1.572-0.903-2.344-1.314c0.822-2.119,1.417-4.518,1.79-7.192
			l2.442,0.18c-0.125,0.863-0.256,1.684-0.396,2.468h1.888v-3.817h2.701v3.817h4.134v2.579h-4.134v3.536h4.057v2.583h-4.057v3.697
			h4.731v2.586h-12.918L158.116,158.918L158.116,158.918z"/>
		<path fill="#FFFFFF" d="M429.444,124.47l36.523-36.524c3.613,3.611,9.521,3.611,13.137,0l36.523,36.524
			c-3.611,3.61-3.611,9.519,0,13.131l-36.523,36.523c-3.615-3.607-9.523-3.607-13.137,0l-36.523-36.523
			C433.057,133.991,433.057,128.081,429.444,124.47z"/>
		<path fill="none" stroke="#AE7B28" stroke-width="2.8346" stroke-miterlimit="22.9256" d="M429.444,124.47l36.523-36.524
			c3.613,3.611,9.521,3.611,13.137,0l36.523,36.524c-3.611,3.61-3.611,9.519,0,13.131l-36.523,36.523
			c-3.615-3.607-9.523-3.607-13.137,0l-36.523-36.523C433.057,133.991,433.057,128.081,429.444,124.47z"/>
		<path fill="#AE7B28" d="M458.4,131.673l4.063,1.978c1.299-1.339,2.181-3.081,2.65-5.235h-5.216
			C459.406,129.535,458.908,130.62,458.4,131.673 M451.999,125.655h5.732c0.504-1.369,1.003-2.865,1.501-4.493l3.258,0.756
			c-0.466,1.284-0.943,2.53-1.431,3.736h10.448v2.759h-3.059c-0.851,2.833-1.914,5.037-3.178,6.608l5.98,2.947l-1.868,2.828
			c-2.299-1.339-4.449-2.551-6.448-3.64c-2.209,1.578-5.313,2.821-9.311,3.737c-0.553-0.994-1.14-1.931-1.746-2.802
			c3.393-0.612,6.07-1.46,8.036-2.552c-2.042-1.075-3.892-1.999-5.554-2.776c0.761-1.17,1.513-2.62,2.264-4.35h-4.629
			L451.999,125.655L451.999,125.655z"/>
		<path fill="#AE7B28" d="M473.977,125.136l1.688,0.201c-0.173,2.183-0.362,4.156-0.573,5.922c-0.575-0.224-1.114-0.372-1.632-0.438
			C473.711,128.767,473.884,126.873,473.977,125.136 M478.806,121.282v2.73c0.715,0.299,1.463,0.643,2.245,1.024l-1.014,2.167
			l-1.231-0.822v14.471h-2.661v-19.569L478.806,121.282L478.806,121.282z M480.273,137.496h5.487V133.8h-4.493v-2.584h4.493v-3.54
			h-2.428c-0.288,1.209-0.606,2.299-0.952,3.28c-0.794-0.465-1.575-0.903-2.344-1.313c0.818-2.12,1.415-4.516,1.786-7.19
			l2.446,0.179c-0.127,0.86-0.259,1.681-0.395,2.462h1.888v-3.814h2.697v3.814h4.136v2.581h-4.136v3.54h4.058v2.584h-4.058v3.696
			h4.73v2.583h-12.916L480.273,137.496L480.273,137.496z"/>
	</g>
	<rect x="31.924" fill="none" width="576.152" height="340"/>
</g>
</svg>
