<svg xmlns="http://www.w3.org/2000/svg" width="640" height="101.344" viewBox="0 0 640 101.344"><g fill="#AE7B28"><path d="M350.981 11.57h24.815l-14.829 48.516h-3.674l13.069-43.188c-2.017.045-3.512.059-4.506.035l-4.114-.035-5.293.035c-1.24-.023-2.166.023-2.771.127-.589.115-1.1.312-1.517.602-.429.279-.938.777-1.552 1.494-.614.707-1.088 1.345-1.438 1.912-.358.568-.682.973-1.008 1.217-.312.254-.601.312-.855.174-.268-.139-.408-.324-.43-.557-.023-.243.15-.822.51-1.748l3.593-8.584zM380.545 60.444v-1.564c2.965-2.607 5.178-4.635 6.648-6.094 1.474-1.459 3.268-3.383 5.389-5.758 2.107-2.375 3.683-4.24 4.714-5.607 1.031-1.378 1.878-2.594 2.525-3.672.66-1.078 1.192-2.154 1.599-3.254.405-1.102.707-2.213.881-3.326.186-1.123.276-2.27.276-3.451-.021-1.286-.208-2.643-.543-4.067-.348-1.424-.892-2.618-1.635-3.567-.74-.951-1.875-1.819-3.37-2.607-1.506-.799-3.081-1.205-4.703-1.227-1.066 0-2.039.162-2.907.497-.869.325-1.773.87-2.699 1.622-.927.764-1.566 1.506-1.937 2.225l-1.794 3.197h-1.09c.279-1.634.556-2.896.858-3.812.29-.903.752-1.899 1.39-3.001.626-1.1 1.459-2.073 2.492-2.93 1.029-.857 2.176-1.529 3.438-2.004 1.275-.475 2.642-.753 4.112-.812 1.02-.023 2.203.069 3.569.3 1.355.221 2.595.615 3.706 1.172 1.123.556 2.108 1.273 2.954 2.178.847.891 1.563 1.911 2.154 3.068.591 1.148.998 2.342 1.229 3.558.22 1.228.29 2.769.196 4.622-.079 1.193-.22 2.144-.382 2.826-.173.695-.497 1.6-.984 2.723-.485 1.113-.938 2.051-1.343 2.793-.406.753-.962 1.645-1.67 2.664-.693 1.031-1.898 2.595-3.614 4.691-1.702 2.085-3.938 4.459-6.695 7.102l-6.659 6.452c5.778-.023 9.625-.023 11.547 0 1.925.023 3.177.035 3.744.023.578-.012 1.319-.081 2.213-.208.891-.129 1.805-.383 2.732-.776.927-.405 1.473-.753 1.623-1.077l1.296-1.969h1.252c-.499 1.203-.914 2.246-1.252 3.139-.347.903-.659 1.795-.949 2.699l-1.055 3.231h-27.256zM429.964 50.667c.788 0 1.575.207 2.352.625.787.417 1.634 1.842 2.536 4.263 0 .88-.218 1.69-.659 2.444-.452.742-1.043 1.333-1.807 1.761-.753.429-1.563.649-2.422.649-.881 0-1.702-.221-2.468-.649-.753-.428-1.344-1.019-1.772-1.761-.438-.754-.649-1.564-.649-2.434 0-.867.211-1.69.649-2.455.452-.799 1.066-1.401 1.843-1.818.787-.417 1.575-.625 2.397-.625"/><path d="M456.029 17.778l-.138-1.019 12.569-5.631v42.249c0 1.876.07 3.094.209 3.648.138.557.429.985.857 1.298.429.302.996.464 1.702.487l2.792.173v1.46h-17.586v-1.331c.684-.047 1.252-.094 1.728-.164.485-.068 1.02-.184 1.622-.357.59-.174 1.053-.383 1.366-.65.323-.254.603-.637.835-1.146.241-.51.358-1.551.358-3.104v-32.218c0-1.042-.059-1.888-.186-2.56-.128-.661-.302-1.136-.534-1.402-.218-.277-.705-.439-1.446-.475-.638-.023-1.264.035-1.878.197l-2.27.545zM500.931 31.865c.591.023 1.367-.289 2.352-.938.984-.637 1.819-1.46 2.504-2.456.67-.996 1.157-1.957 1.437-2.873.288-.914.474-2.027.567-3.359.08-1.32.057-2.502-.105-3.545-.254-1.425-.683-2.502-1.285-3.221-.613-.729-1.448-1.355-2.503-1.889s-2.293-.811-3.718-.833c-1.529 0-2.874.3-3.997.903-1.135.602-1.969 1.251-2.513 1.97-.546.718-.94 1.54-1.193 2.479-.244.938-.314 1.945-.199 3.035.094 1.112.338 2.178.743 3.208.405 1.031.926 1.911 1.552 2.642.614.741 1.426 1.541 2.422 2.41.996.88 1.842 1.505 2.548 1.888.695.381 1.157.579 1.388.579m-3.162 4.853c-1.02.857-1.818 1.6-2.41 2.201-.578.614-1.169 1.402-1.748 2.375-.567.974-.984 1.992-1.229 3.059-.256 1.066-.37 2.306-.347 3.73 0 1.807.173 3.256.509 4.332.347 1.078.811 2.017 1.413 2.828.603.821 1.425 1.551 2.489 2.189 1.066.647 2.492.961 4.276.938 1.634 0 3.082-.336 4.367-1.02 1.274-.684 2.166-1.448 2.677-2.328.509-.869.857-1.772 1.043-2.711.174-.938.209-1.889.092-2.839-.15-1.054-.509-2.097-1.064-3.116-.558-1.02-1.414-2.143-2.596-3.383-1.182-1.228-2.329-2.281-3.464-3.174l-4.008-3.081zm-1.425-1.053c-1.784-1.378-3.104-2.444-3.962-3.209-.869-.753-1.575-1.471-2.131-2.131-.544-.673-1.137-1.646-1.739-2.919-.614-1.287-.926-3.001-.938-5.168-.012-2.154.476-4.055 1.448-5.676.949-1.588 2.328-2.85 4.135-3.789 1.808-.938 3.721-1.505 5.734-1.68 1.252-.092 2.434-.057 3.57.116 1.123.173 2.002.37 2.606.614.612.232 1.249.567 1.898.984.661.418 1.344.916 2.04 1.494.705.58 1.308 1.263 1.816 2.051.511.787.904 1.75 1.205 2.885.291 1.135.394 2.235.303 3.324-.115 1.02-.418 2.098-.927 3.221-.511 1.135-1.239 2.201-2.189 3.209-.951 1.008-1.912 1.795-2.886 2.363l-3.532 2.201c1.681 1.252 3.08 2.328 4.205 3.232 1.135.904 2.246 1.969 3.324 3.209 1.09 1.228 1.899 2.549 2.434 3.95.532 1.401.764 2.966.694 4.681-.068 1.309-.324 2.582-.788 3.822-.45 1.229-1.135 2.398-2.05 3.487-.916 1.101-2.2 2.097-3.846 2.987-1.657.894-3.754 1.356-6.315 1.38-1.563.023-3.033-.161-4.436-.556-1.39-.406-2.665-.974-3.847-1.738-1.182-.752-2.189-1.656-3.023-2.711s-1.402-2.12-1.714-3.197c-.302-1.065-.429-2.246-.382-3.545.023-.672.127-1.494.335-2.444.197-.949.544-1.853 1.02-2.711.474-.856 1.088-1.691 1.843-2.479.764-.787 1.749-1.68 2.977-2.676l3.118-2.581zM557.442 60.781c.405 0 .891-.162 1.47-.476s1.043-.996 1.379-2.016c.337-1.03.546-2.248.613-3.649.059-1.402.105-3.209.129-5.422.023-2.201-.082-4.136-.337-5.78-.162-.973-.382-1.737-.659-2.271-.29-.545-.673-.996-1.17-1.367-.499-.359-.984-.533-1.46-.533-.382.012-.8.174-1.264.452-.45.278-.846.812-1.204 1.575-.348.777-.615 1.83-.81 3.197-.188 1.355-.29 2.607-.302 3.766-.012 1.146.035 2.57.149 4.24.094 1.899.221 3.324.37 4.273.162.95.406 1.75.753 2.398.337.638.731 1.077 1.182 1.309.453.222.836.326 1.161.304m-7.948-10.763c-.045-1.448.081-2.931.372-4.46.3-1.529.787-2.896 1.46-4.113.683-1.204 1.54-2.166 2.583-2.896 1.042-.718 2.234-1.089 3.602-1.089 1.31.022 2.515.405 3.626 1.158 1.113.742 1.992 1.795 2.63 3.14.649 1.343 1.111 2.652 1.391 3.938.29 1.275.429 2.688.429 4.217-.023 1.564-.174 3-.44 4.299-.277 1.297-.729 2.605-1.355 3.915-.638 1.319-1.552 2.374-2.757 3.175-1.193.811-2.444 1.204-3.729 1.204-1.066.023-2.006-.196-2.815-.673-.811-.475-1.577-1.182-2.271-2.119-.707-.938-1.321-2.189-1.854-3.753-.535-1.564-.826-3.545-.872-5.943zm-21.918 12.453l27.283-51.956h2.409l-27.154 51.956h-2.538zm-.207-27.489c.403 0 .832-.129 1.273-.383.44-.268.846-.799 1.216-1.6.383-.799.649-1.771.8-2.895.162-1.137.244-2.896.256-5.271s-.059-4.6-.221-6.686c-.162-1.76-.429-3.022-.812-3.799-.382-.766-.787-1.285-1.204-1.564-.418-.266-.835-.417-1.24-.44-.497 0-.984.163-1.461.499-.474.324-.902.881-1.272 1.656-.37.787-.626 1.807-.765 3.07-.141 1.273-.209 2.872-.221 4.818-.011 1.946.035 3.557.115 4.82.07 1.227.186 2.352.359 3.383.176 1.029.429 1.899.766 2.617.336.707.729 1.193 1.158 1.437.43.256.845.361 1.253.338zm0-24.434c.752.023 1.632.244 2.651.649 1.008.405 1.866 1.031 2.538 1.876.683.847 1.203 1.785 1.564 2.805.358 1.02.646 2.107.867 3.254.209 1.16.337 2.55.36 4.194.021 1.646-.163 3.44-.546 5.41-.255 1.251-.544 2.236-.879 2.978-.35.729-.788 1.46-1.346 2.166-.555.719-1.296 1.379-2.211 1.993-.916.601-1.971.915-3.176.915-1.123.022-2.107-.232-2.941-.754-.847-.521-1.529-1.123-2.072-1.83-.547-.706-1.032-1.553-1.461-2.549s-.787-2.096-1.066-3.301c-.289-1.217-.429-2.873-.429-4.993s.187-3.904.546-5.353c.242-1.008.693-2.166 1.354-3.476.659-1.296 1.494-2.293 2.525-2.964 1.033-.684 2.272-1.02 3.722-1.02zM87.015 16.002c-.109 1.117-.22 2.114-.321 2.989-.107.877-.284 1.915-.542 3.116-.252 1.207-.708 2.501-1.371 3.894-.654 1.389-1.834 2.816-3.532 4.274s-3.521 2.599-5.467 3.423l-.99.413c-.092.044-.182.058-.258.035l-.119-.071v-.123c0-.059.062-.125.182-.205l.963-.607c1.981-1.259 3.688-2.775 5.116-4.554 1.433-1.778 2.383-3.671 2.862-5.675.474-2.01.76-3.783.854-5.336.098-1.551.143-2.535.137-2.956l-.016-1.237-.039-1.056-.145-1.13.076-.05.323.089 3.056.74c.121.035.208.076.267.121.057.039.084.092.08.154-.004.058-.072.142-.19.244l-.741.652c.191 1.543.403 2.987.644 4.336.237 1.353.722 2.838 1.45 4.455.726 1.623 1.626 3.18 2.708 4.675 1.078 1.489 2.143 2.66 3.201 3.507 1.055.843 1.845 1.384 2.365 1.613l1.014.471c.111.059.168.143.168.244-.008.142-.125.209-.339.209h-.897c-.347 0-.733.07-1.152.217-.427.142-.736.283-.926.42l-.608.432-.262.158c-.034.014-.081-.018-.142-.096l-.64-.688c-1.444-1.552-2.722-3.423-3.835-5.618-1.113-2.194-1.778-4.119-1.996-5.772l-.938-5.707zM114.638 22.33l-.538-.584c-.084-.085-.125-.161-.115-.218 0-.079.076-.12.22-.12.312.018.89.208 1.722.568.839.359 1.438.802 1.806 1.334.368.536.554 1.028.554 1.49-.01.474-.17.877-.474 1.205-.307.334-.671.493-1.088.483-.437 0-.749-.142-.92-.43-.176-.284-.268-.607-.285-.962l-.027-.586c-.064-.882-.346-1.608-.855-2.18m7.05-5.391h-6.392c-.216.424-.561 1.09-1.037 2.004-.479.908-.803 1.508-.975 1.805l-.56.896-.491.806c-.1.147-.191.21-.29.196l-.086-.027-.041-.07c-.01-.03.018-.128.076-.292l.341-.977.419-1.241c.055-.178.215-.723.476-1.631.258-.909.439-1.575.547-2.001l.479-2.182c.198-.855.313-1.4.349-1.635l.209-1.393c.035-.275.066-.422.094-.435.026-.014.101.004.229.048l2.753.972c.191.08.289.169.293.267.004.102-.092.198-.293.292l-.62.302c-.198.447-.341.784-.429 1.01l-.612 1.481c-.164.382-.333.745-.507 1.091h5.755l.457-.646c.155-.227.257-.338.304-.334.047.006.18.068.397.191l1.872 1.126.16.16.053.12-.018.092-.195.187-.573.483c-.008.63-.012 1.109-.008 1.428l.008.652c-.008.957-.039 2.186-.084 3.676-.049 1.489-.107 2.811-.17 3.973-.065 1.162-.206 2.24-.429 3.236-.222.994-.599 1.744-1.135 2.24-.538.496-1.225.873-2.055 1.131-.832.253-1.381.371-1.647.354l-.146-.021-.062-.093-.069-.368c-.031-.204-.135-.51-.303-.908-.17-.404-.483-.725-.941-.959l-1.014-.506c-.137-.062-.199-.142-.184-.248.01-.111.121-.15.327-.115l1.322.262c.608.12 1.127.178 1.562.178.782.009 1.336-.195 1.663-.617.327-.416.554-.988.683-1.711.125-.723.218-1.548.28-2.471.057-.922.105-1.99.141-3.201.035-1.215.062-2.42.086-3.626.021-1.202.031-1.858.031-1.974v-.977zm-12.38 5.263v-5.521h-4.531v5.521h4.531zm0 6.885v-6.186h-4.531v6.186h4.531zm0 .702h-4.531v2.531c0 .182-.086.381-.254.599-.169.218-.472.329-.896.333-.429.004-.696-.041-.794-.124-.097-.089-.181-.2-.239-.337l.129-3.225v-10.238l-.115-4.27.146-.049c.048-.004.222.066.515.203l1.509.754h.673c.106-.717.19-1.334.251-1.84.068-.504.129-1.037.191-1.592l.129-1.36.041-.511.079-.035c.021-.009.141.018.352.089l2.323.856c.199.079.324.141.371.19.045.049.076.11.086.187.008.08-.129.164-.406.261l-.585.209c-.261.465-.448.812-.558 1.037l-.74 1.494-.558 1.015h2.636l.663-.921c.07-.106.132-.159.194-.165.061-.004.18.049.363.165l1.649 1.051.202.167.051.129c.004.045-.045.117-.148.209l-.57.496v12.389l.103 1.979c-.085.293-.308.515-.656.67-.35.15-.685.221-.993.213-.276 0-.448-.049-.515-.152-.062-.096-.097-.252-.097-.461v-1.946zM146.616 22.565l1.599-1.897c.176-.209.285-.314.34-.324.051-.008.167.062.349.209l2.571 2.208c.164.146.25.257.25.336-.01.111-.133.17-.379.17h-23.136c-.129-.027-.221-.062-.279-.116-.058-.054-.085-.164-.085-.332 0-.169.106-.253.323-.253h18.447zM165.27 32.763v-7.25h-6.586c-.182 0-.278-.11-.292-.336-.014-.227.086-.338.292-.338h6.586v-6.057h-5.354c-.248.581-.46 1.055-.628 1.424-.17.367-.556 1.135-1.154 2.301-.603 1.162-.988 1.885-1.158 2.154-.168.276-.46.732-.877 1.371l-.558.855c-.055.079-.129.12-.236.124-.101.005-.149-.031-.146-.114l.031-.188.456-1.068c.229-.562.528-1.308.887-2.238.358-.932.665-1.934.918-3.007.248-1.077.483-2.129.702-3.157.215-1.033.358-1.761.429-2.182l.182-1.25.041-.533.088-.029.505.198 2.429 1.069c.156.075.246.129.268.158l.027.08-.027.072c-.014.025-.102.084-.268.182l-.597.35c-.239.674-.425 1.18-.559 1.508l-.391.962-.104.271h5.093v-3.479l-.129-3.601c.088-.023.352.014.792.119l2.338.572c.173.048.294.102.349.146.062.048.1.106.109.179.008.07-.086.176-.277.323l-.606.482v5.259h5.22l.519-.688c.407-.535.64-.82.682-.847.049-.022.262.111.644.403l1.677 1.312c.154.13.234.24.234.324-.008.124-.137.182-.39.182h-8.584999999999999v6.057h4.26l.96-1.17c.14-.164.243-.248.315-.254.066-.004.211.08.437.254l1.782 1.387c.113.098.184.17.205.218l.049.156c.004.057-.141.083-.434.083h-7.574v7.25h6.378l1.076-1.379c.124-.154.218-.23.28-.227.066.004.207.08.419.227l2.015 1.494c.167.129.247.24.247.324-.01.062-.045.119-.102.178-.062.057-.134.084-.208.084h-22.759c-.227 0-.338-.115-.338-.351s.111-.351.338-.351h10.078zM195.77 17.342c-.102-.103-.144-.187-.133-.253.014-.066.062-.102.148-.111.078 0 .362.066.858.204.491.133.893.284 1.202.448.307.163.563.398.771.704.211.312.312.64.312.993-.01.391-.128.706-.368.945s-.519.359-.838.363c-.32.004-.571-.075-.755-.239-.217-.173-.341-.363-.372-.567-.025-.205-.049-.541-.061-1.021-.016-.475-.174-.868-.476-1.179l-.288-.287zm-7.997 3.029c-.045-.062-.062-.121-.055-.17.01-.053.066-.088.168-.105.037 0 .214.059.534.168.319.115.717.359 1.196.741.475.382.694.78.659 1.197-.035.416-.171.71-.421.878-.248.169-.478.249-.694.239-.538 0-.83-.284-.883-.847-.01-.014-.01-.195-.006-.537 0-.341-.031-.604-.098-.78-.07-.177-.145-.341-.22-.487l-.18-.297zm-.34-.99v12.132l.104 2.133c-.104.252-.333.443-.688.572-.355.127-.673.186-.948.168-.253-.01-.417-.053-.497-.137-.076-.08-.135-.187-.168-.32l.146-2.803v-10.835l-.107-2.559.098-.071.334.071 1.984.559c.302.089.472.16.493.213l.049.111-.049.123-.115.151-.636.492zm-4.44 1.353l-.01-.08.01-.089.097-.057c.055-.005.115.035.188.119.191.288.421.784.694 1.49.272.704.405 1.308.396 1.813-.027.664-.209 1.135-.55 1.414-.345.275-.7.416-1.068.422-.368.004-.661-.107-.873-.337-.217-.231-.334-.51-.346-.843-.016-.338.154-.696.499-1.088l.48-.49c.345-.418.514-.901.504-1.446l-.021-.828zm17.185-5.055v-2.975h-3.25l-.243.194v2.78h3.493zm-5.445 0v-2.975h-3.271l-.094.053v2.922h3.365zm-5.352 0v-2.975h-3.312v2.975h3.312zm10.797.701h-14.109v.376c0 .124-.053.239-.164.351-.105.115-.3.208-.585.279-.28.076-.536.102-.771.084-.248-.004-.422-.053-.505-.133-.088-.084-.146-.191-.182-.318l.115-1.65v-2.652l-.115-1.711.098-.094c.021-.008.149.045.38.156l1.886.908h13.818l.587-.883c.129-.207.217-.313.268-.318.047-.004.189.066.421.217l1.419.945c.217.16.35.27.406.345.059.076.086.143.082.2-.006.062-.098.178-.281.342l-.47.426v1.508l.107 1.729c-.07.208-.174.367-.303.479-.128.115-.341.209-.644.289-.296.075-.578.109-.852.102-.405 0-.606-.173-.606-.52v-.457zm-6.819 15.266h3.152v-3.117h-3.152v3.117zm3.152-6.598h-3.152v2.768h3.152v-2.768zm-3.152-3.365v2.66h3.152v-2.66h-3.152zm7.765-.692l.468-.647c.277-.39.441-.598.48-.625.045-.021.177.049.403.222l1.327 1.064c.225.19.344.327.359.403l.016.128c-.025.09-.141.134-.35.134h-.873v.014h-3.987c-.181.209-.327.362-.442.466v2.194h1.951l.453-.621c.233-.332.37-.51.411-.532.041-.026.182.059.435.257l1.271 1.043c.148.129.241.217.28.27l.066.125-.07.102c-.054.041-.12.062-.194.062h-4.603v2.768h2.146l.546-.666c.217-.258.349-.391.401-.395.049-.004.174.07.363.226l1.146.962c.206.183.288.324.241.432-.047.102-.175.154-.374.154h-4.471v3.117h2.913l.544-.688c.245-.307.392-.457.448-.461.059-.004.16.049.319.16l1.428 1.21c.156.138.245.231.257.284l.016.15c-.012.045-.138.07-.386.07h-10.705v1.22c0 .098-.084.235-.244.417-.16.183-.47.283-.936.297-.46.018-.737-.008-.815-.084-.086-.071-.147-.169-.19-.293l.132-2.754v-7.754c-.452.66-.926 1.308-1.423 1.941-.501.639-.828 1.051-.994 1.242l-.509.572c-.076.084-.143.133-.201.137l-.113-.025-.051-.125c-.008-.062.037-.165.135-.311l.364-.611c.283-.484.571-.994.864-1.525.286-.533.751-1.544 1.382-3.029.632-1.486 1.072-2.678 1.322-3.578l.209-.767c.053-.191.097-.288.138-.294l.238.071 1.798.888c.3.154.483.266.544.337.056.066.093.132.093.194.006.059-.097.129-.313.209l-.519.195c-.427.629-.796 1.215-1.105 1.752l.399.273.571.022h6.991zM217.958 25.81c-.034-.049-.03-.105.01-.168.039-.057.102-.094.186-.102.053 0 .139.021.262.07.119.049.319.107.591.174.272.07.787.266 1.548.585.756.323 1.131.803 1.121 1.437-.01.639-.154 1.092-.436 1.365-.28.271-.602.4-.967.381-.442-.008-.74-.123-.891-.35s-.24-.47-.268-.74l-.077-.843c-.086-.554-.299-1.024-.636-1.405l-.443-.404zm7.991 1.057c-.035-.045-.049-.104-.039-.178.008-.075.057-.12.146-.138l.155.04.207.066 1.458.705c.897.439 1.594.98 2.086 1.627.496.643.729 1.229.71 1.761-.023.528-.179.917-.468 1.166-.292.253-.589.372-.889.364-.41 0-.72-.125-.932-.382-.209-.257-.369-.62-.467-1.1-.102-.475-.222-.988-.372-1.543-.146-.555-.577-1.246-1.299-2.067l-.296-.321zm-14.459.074c.008-.172.049-.262.119-.27.066-.01.137.035.209.129.031.07.08.243.135.527.055.279.112.687.167 1.219.057.533.084.873.084 1.02l-.049.572c-.027.284-.08.568-.163.852-.082.279-.281.635-.601 1.064-.314.43-.761.639-1.334.625-.577-.014-.953-.178-1.127-.496-.172-.315-.257-.582-.257-.799 0-.43.187-.803.561-1.117l.753-.505c.728-.511 1.158-1.092 1.291-1.734.132-.648.202-1.007.212-1.087zm4.845.04l.016 3.716c0 .311.05.559.153.745.107.187.616.298 1.534.333l2.102.093c.551 0 1.18-.065 1.899-.194.718-.134 1.213-.347 1.489-.645.27-.301.679-1.17 1.213-2.607l.129-.35c.027-.07.078-.102.156-.102.12.01.187.058.194.155l-.094.612-.126.815c-.043.254-.057.443-.047.572 0 .254.057.484.175.701l.33.497c.084.137.146.261.185.376.039.111.062.218.066.324.004.102-.012.209-.043.311-.142.398-.493.731-1.057.992-.562.267-1.435.436-2.624.516-1.184.074-2.102.115-2.753.115-2.448.008-3.907-.24-4.377-.746-.466-.504-.699-1.006-.699-1.502v-4.115l-.107-1.912.119-.088c.034-.018.462.053 1.286.217l1.389.289c.14.035.229.066.274.102l.072.107-.059.146c-.045.066-.117.124-.209.178l-.586.349zm9.912-4.651v-2.403h-5.569v2.403h5.569zm-.946-6.053v-1.959h-4.624v1.959h4.624zm-6.833 0v-1.959h-4.574v1.959h4.574zm0 6.053v-2.403h-5.572v2.403h5.572zm0-5.338h-4.574v.235c0 .51-.437.788-1.314.829-.222.018-.421-.018-.588-.104-.17-.087-.289-.194-.355-.322l.102-1.468v-1.703l-.078-1.911.133-.098c.029-.004.123.027.269.098l1.987 1.037h4.42v-1.01l-.105-1.756.115-.062c.037-.009.323.044.859.154l1.597.338c.271.062.431.115.483.164.049.049.076.107.072.174-.006.07-.09.158-.254.274l-.559.376v1.348h4.432l.557-.815c.137-.208.223-.315.252-.319.031-.004.191.084.489.266l1.517.949c.189.119.309.209.359.262l.066.125c-.004.026-.076.092-.205.199l-.7.531v.99l.078.97c-.035.169-.098.294-.18.377-.089.089-.284.178-.597.267-.304.094-.584.133-.836.125-.407-.01-.608-.129-.608-.365v-.154h-4.624v2.221h5.365l.505-.688.138-.208c.025-.053.07-.079.127-.084.059-.005.223.075.503.239l1.543.962c.253.165.396.267.427.306l.035.125c-.004.04-.098.129-.281.258l-.53.39v1.716l.105 1.118c-.08.292-.292.514-.644.659-.351.146-.682.218-.992.209-.279 0-.474-.053-.587-.164-.113-.105-.168-.302-.168-.59v-.416h-5.546v.611l.075.908c-.065.245-.261.427-.577.547-.315.123-.639.177-.967.168-.078 0-.206-.021-.39-.062-.182-.045-.327-.172-.429-.39l.078-1.251v-.531h-5.586l.014.611-.01.138c-.004.08-.049.229-.139.438-.082.213-.464.318-1.139.318-.397.01-.644-.033-.727-.136-.088-.098-.146-.218-.168-.354l.102-1.469-.014-3.016-.102-1.325.115-.114.646.336 1.434.74h5.572v-2.221zM252.06 25.944v-2.768h-4.584v2.768h4.584zm0-3.472v-2.492h-4.584v2.492h4.584zm-6.87 0v-2.492h-4.523v2.492h4.523zm0 3.472v-2.768h-4.523v2.768h4.523zm0-9.76v-2.31c-2.555.11-5.278.169-8.161.169h-1.088c-.139 0-.207-.059-.197-.169 0-.111.08-.178.236-.195l1.521-.115c6.543-.506 11.183-1.237 13.908-2.195l.925-.328.179-.061.082-.037c.016-.004.098.062.242.204l1.979 2.001.053.141c-.008.106-.066.155-.172.155l-1.388.067-2.728.154-2.536.143c-.031.164-.074.293-.129.385-.053.09-.199.174-.439.254v1.737h6.779l1.053-1.206.18-.221c.037 0 .104.039.195.119l1.887 1.584.221.247c.103.12-.025.183-.391.183h-9.924v2.363h4.402l.587-.834c.074-.103.137-.169.186-.199.049-.031.154 0 .319.097l2.154 1.339.098.098.027.103s-.066.106-.19.204l-.62.466v4.651l.074 1.414c-.031.129-.133.293-.297.483-.164.187-.546.288-1.135.302-.595.014-.912-.018-.959-.088-.039-.076-.062-.191-.062-.348v-.297h-4.584v2.519h4.896l1.002-1.157c.074-.094.137-.141.181-.141l.154.141 1.886 1.535c.076.07.114.123.114.168-.008.098-.101.142-.272.142h-1.845v.014h-6.116v2.847h6.881l1.238-1.388.11-.124.16.124 2.078 1.751c.072.071.104.133.104.195-.018.088-.107.129-.271.129h-1.117v.014h-21.94c-.209 0-.328-.117-.359-.351-.03-.235.088-.351.359-.351h10.47v-2.847h-8.187c-.217 0-.342-.115-.381-.351-.041-.23.088-.351.381-.351h8.187v-2.519h-4.523v.297c0 .297-.276.498-.827.599-.549.103-.889.151-1.033.143-.144-.009-.247-.04-.3-.089-.059-.054-.09-.164-.098-.336l.102-2.498v-4.402l-.053-2.168.072-.041c.021-.008.251.099.683.324l1.454.781h4.523v-2.363h-10.509c-.211 0-.33-.12-.36-.352-.031-.234.087-.354.36-.354h10.509zM261.504 19.408c-.158-.018-.266-.053-.328-.102-.056-.053-.087-.17-.081-.346.004-.178.112-.266.331-.266h8.939l.024-.883.037-.9c.018-.457.025-1.059.021-1.805-.004-.745-.014-1.295-.021-1.649l-.062-1.325-.066-1.064c.061-.066.142-.115.247-.143l.491.09 2.418.443c.3.062.491.119.563.176.076.054.111.103.107.134l-.094.169c-.055.08-.125.146-.199.195l-.628.402c-.046 1.605-.087 2.781-.112 3.535-.027.754-.041 1.201-.041 1.338l-.025 1.287h7.04l.961-1.273c.227-.297.378-.443.452-.447.082-.004.268.102.56.319l1.913 1.454c.241.19.362.342.362.451-.008.139-.191.209-.546.209h-10.018c.201.848.488 1.889.866 3.127.376 1.231 1.405 2.882 3.09 4.938 1.687 2.062 3.782 3.485 6.296 4.261l.662.209c.217.071.324.16.324.275l-.072.129-.133.079-.458.075c-.718.129-1.201.289-1.454.475-.252.187-.509.443-.78.768-.265.323-.452.492-.55.506-.102.013-.278-.103-.54-.342l-1.078-.768c-.154-.106-.522-.408-1.104-.904s-1.096-.984-1.538-1.464c-.448-.474-.992-1.286-1.646-2.435-.647-1.148-1.1-2.186-1.357-3.117-.257-.931-.456-1.777-.603-2.54-.147-.763-.261-1.499-.337-2.208l-.135-1.064h-.179c-.035.475-.076 1.021-.129 1.623-.055.607-.191 1.517-.417 2.723-.227 1.206-.626 2.346-1.207 3.41s-1.458 2.07-2.638 3.016c-1.18.943-2.301 1.706-3.365 2.291-1.064.586-2.125 1.078-3.184 1.473l-.751.288c-.15.058-.251.083-.304.075l-.113-.044-.035-.115c-.004-.058.062-.125.191-.204l.584-.337 1.166-.661c.671-.39 1.43-.931 2.285-1.622.851-.696 1.646-1.539 2.381-2.527.736-.993 1.353-2.23 1.854-3.712.496-1.48.804-2.958.913-4.43l.107-1.246h-8.857000000000001zM299.125 11.525l-.39-.338c-.086-.07-.129-.15-.125-.234.004-.09.09-.133.253-.143.53 0 1.25.164 2.158.493.911.327 1.363.939 1.363 1.831-.01.278-.117.594-.316.953-.202.359-.588.536-1.153.528-.238 0-.456-.054-.647-.165-.189-.105-.344-.262-.46-.466-.119-.204-.178-.479-.178-.823v-.715c-.04-.355-.213-.664-.505-.921m-10.731 5.715l-.311-.519-.057-.194c-.006-.08.047-.121.16-.121.137.01.483.155 1.027.436.544.283.98.656 1.305 1.117.323.466.483.904.474 1.32-.018.449-.166.812-.435 1.082-.275.275-.573.408-.892.4-.399 0-.685-.139-.855-.404-.172-.271-.266-.555-.275-.855-.01-.124.01-.334.049-.634.035-.298.055-.577.049-.839-.006-.257-.084-.524-.239-.789zm20.748-1.885v.014h-14.876c-.02 1.037-.031 2.102-.037 3.188-.01 1.088-.031 2.16-.062 3.215s-.102 2.129-.213 3.215c-.11 1.087-.31 2.04-.589 2.852-.284.815-.705 1.658-1.263 2.536-.554.874-1.54 1.907-2.94 3.104l-.713.612c-.082.066-.156.106-.236.106l-.139-.022-.025-.08v-.098l.139-.195.687-.793c.859-.984 1.497-2.018 1.918-3.09.417-1.074.706-2.014.862-2.825.159-.812.257-1.721.3-2.736l.055-1.192c-.534.373-1.025.71-1.481 1.012l-.86.571-1.245.909c-.234.173-.379.243-.432.208l-.076-.284-.522-1.635-.167-.445v-.078c0-.027.088-.049.261-.075l1.34-.183c1.002-.133 2.074-.311 3.205-.532-.01-.669-.01-1.446-.004-2.327.004-.883.004-1.509 0-1.876-.006-.368-.006-.732 0-1.091.004-.359-.006-.67-.018-.932l-.133-1.831-.104-.714c.037-.062.094-.105.174-.143.084-.035.331.045.749.236l1.493.713h13.351l.937-1.259c.142-.19.249-.288.319-.292.076-.006.209.066.41.212l1.91 1.454c.146.12.223.249.227.377.004.129-.121.195-.369.195h-1.833zm-8.552 9.6l.027-.377c.01-.128.023-.488.041-1.078l.045-1.662c.012-.518.018-.896.018-1.131v-.283h-2.391c-.173.221-.56.75-1.161 1.574-.603.828-1.176 1.533-1.722 2.115l-.585.62c-.084.089-.164.129-.234.125l-.117-.04-.016-.089.084-.218.505-.869c.363-.629.804-1.592 1.312-2.881.509-1.291.887-2.422 1.131-3.393l.271-1.092.129-.584.066-.115.296.115 2.369.921c.154.072.23.143.227.222-.006.08-.088.156-.254.236l-.481.222c-.72 1.272-1.189 2.075-1.415 2.411h7.264l.983-1.285c.079-.103.155-.16.229-.173.072-.014.199.044.382.173l1.856 1.418c.201.156.304.271.304.352-.01.129-.12.194-.329.194h-1.817v.04h-4c-.146.187-.328.359-.532.506-.027.447-.059.971-.084 1.564-.031.596-.057 1.047-.08 1.357l-.084 1.104h4.78l.935-1.104c.165-.2.28-.297.347-.293.062.004.227.102.483.293l1.653 1.271.184.205.043.129c.004.039-.031.08-.105.129-.072.047-.18.07-.316.07h-7.833c.119.227.247.439.376.639l.739 1.192c.744 1.152 1.7 2.142 2.862 2.972 1.155.824 2.491 1.374 3.998 1.641l.431.078c.154.035.23.104.23.209l-.076.138-.154.085-.431.074c-.626.119-1.07.333-1.339.639-.266.302-.47.559-.612.768-.137.203-.227.305-.27.297-.098 0-.396-.159-.904-.479-.507-.324-1.025-.719-1.552-1.184-.528-.471-.956-.91-1.279-1.318-.327-.411-.679-1.015-1.059-1.812s-.782-2.04-1.197-3.729c-.068.427-.138.808-.208 1.145-.066.337-.199.759-.4 1.269-.198.505-.563 1.086-1.09 1.746-.532.656-1.135 1.215-1.812 1.668-.679.455-1.579.936-2.696 1.449-1.117.51-2.081.865-2.884 1.064l-.926.234-.178.031-.16-.027-.057-.07.08-.123c.049-.058.115-.103.199-.138l.99-.386c.327-.134.801-.363 1.423-.706.616-.337 1.512-.909 2.681-1.711 1.168-.808 1.903-1.806 2.209-2.989.301-1.188.512-2.074.62-2.664h-5.884c-.207 0-.331-.115-.366-.351-.041-.235.082-.351.366-.351h5.922zM325.496 11.613l-.414-.323-.138-.138.006-.084.034-.102c.018-.027.102-.045.252-.055.146 0 .423.027.825.086.405.057.914.172 1.54.35.62.178.982.487 1.076.935.098.448.146.763.152.95.004.186-.051.381-.164.589-.121.227-.293.413-.521.559-.225.146-.483.223-.78.223-.216.009-.421-.036-.612-.129-.188-.099-.345-.239-.474-.435-.125-.195-.195-.492-.214-.891-.016-.4-.043-.697-.082-.893-.04-.193-.2-.407-.486-.642m-10.303 5.379l-.312-.572-.047-.168c-.004-.067.047-.103.15-.103.163.018.417.134.755.354.335.222.623.43.863.625.24.196.483.475.74.838.252.364.377.736.365 1.117-.014.382-.139.711-.375.994-.229.279-.525.417-.881.407-.536-.008-.842-.198-.912-.576-.076-.376-.107-.655-.1-.837l.014-.404v-.403c-.008-.274-.027-.501-.049-.675-.02-.172-.09-.372-.211-.597zm19.552-1.637v.014h-13.979c-.008.492-.008.855 0 1.092l.016 1.076v2.328c-.02 1.756-.086 3.166-.204 4.234-.115 1.064-.324 2.035-.63 2.909-.301.872-.69 1.676-1.174 2.403-.479.727-1.002 1.396-1.571 2.008-.567.607-1.01 1.056-1.334 1.344l-.896.794c-.102.093-.191.138-.266.133l-.136-.04-.031-.12c-.006-.062.039-.149.136-.261l.829-.988c.754-.892 1.348-1.854 1.774-2.893.431-1.031.727-1.977.891-2.828.164-.855.265-1.587.312-2.204l.078-1.166c-.417.364-.842.728-1.28 1.091l-.798.674-1.131 1.038c-.139.134-.226.204-.267.218s-.107-.129-.201-.426l-.544-1.597-.133-.363.014-.054.377-.075 1.3-.323c.061-.01.956-.293 2.69-.848-.008-1.021-.014-2.119-.008-3.295.004-1.17-.02-2.199-.072-3.081l-.076-1.3-.104-1.002c.025-.07.066-.119.114-.154.053-.035.256.025.61.182l1.757.793h13.352l.922-1.236c.117-.156.199-.234.262-.24.062-.004.226.094.493.294l1.587 1.245c.2.164.298.297.298.391-.01.061-.047.115-.104.164-.062.049-.138.07-.22.07h-2.653zm-.818 2.754l.908-1.064c.119-.146.213-.221.271-.227.062-.004.182.062.362.201l1.587 1.271c.113.098.184.168.211.223l.043.193c.004.076-.137.116-.421.116l-6.785.014c-.102.138-.216.261-.335.362-.055.661-.09 1.189-.117 1.588l-.039.648-.066.767h4.03l.634-.882c.12-.165.2-.249.241-.253.039-.005.164.053.37.173l1.767 1.09c.145.098.221.188.221.275-.01.066-.084.173-.221.311l-.417.403v9.236c0 .337-.164.621-.493.856-.327.234-.595.389-.794.461-.194.074-.519.163-.957.274-.442.106-.705.155-.781.146l-.137-.03-.059-.084c-.016-.035-.053-.267-.109-.697-.059-.425-.448-.774-1.176-1.041l-.807-.288c-.129-.045-.213-.089-.252-.129-.041-.044-.059-.103-.055-.169.004-.071.143-.101.414-.093l1.037.066c.779.054 1.249.054 1.409.005.16-.044.279-.12.354-.222.08-.098.119-.2.119-.302v-8.394h-4.414l-.043.323-.025.315-.114.775c1.185.443 2.168.993 2.939 1.649.776.661 1.162 1.356 1.154 2.093-.012.443-.125.781-.347 1.02-.223.24-.487.359-.8.359-.345.01-.599-.092-.748-.306-.15-.214-.275-.487-.367-.825l-.364-1.236c-.135-.395-.283-.771-.462-1.126-.176-.354-.53-.763-1.059-1.225-.156.607-.352 1.176-.587 1.703-.234.527-.694 1.162-1.383 1.897-.688.736-1.294 1.281-1.822 1.637l-.833.545c-.165.111-.271.137-.31.076l-.072-.16s.035-.115.119-.204l.74-.741c.254-.247.56-.629.923-1.139.364-.514.678-1.166.938-1.955.261-.795.409-1.517.456-2.173l.066-1.043v-.261h-3.42v10.859c0 .288-.171.482-.519.594-.347.105-.671.154-.963.146-.282 0-.46-.041-.53-.115-.072-.08-.121-.182-.156-.311l.129-2.914v-6.127l-.129-3.588.143-.092.599.247 1.415.586h3.432v-.288l.012-1.623-.012-1.454-6.187-.014-.181-.089c-.07-.08-.121-.203-.152-.372s.098-.253.386-.253h12.591zM221.053 48.921l-.536-.585c-.084-.085-.123-.159-.115-.218 0-.08.076-.119.223-.119.31.018.885.207 1.719.566.839.36 1.438.803 1.806 1.335.368.537.554 1.028.554 1.491-.008.473-.168.877-.476 1.205-.304.332-.667.492-1.084.482-.44 0-.751-.141-.924-.43-.172-.283-.266-.607-.283-.962l-.027-.585c-.062-.881-.346-1.607-.857-2.18m7.05-5.391h-6.387l-1.039 2.004c-.479.909-.802 1.509-.976 1.805l-.56.896-.491.807c-.097.146-.19.209-.288.195l-.09-.025-.039-.072c-.008-.031.018-.128.074-.292l.343-.976.421-1.242.475-1.631c.257-.909.438-1.574.546-2l.478-2.182c.2-.855.315-1.4.351-1.636l.209-1.392c.037-.276.068-.423.094-.436.024-.014.101.005.229.049l2.755.971c.189.08.287.169.293.267.003.101-.094.2-.293.292l-.622.303c-.198.447-.341.784-.431 1.01l-.612 1.48c-.164.383-.331.746-.503 1.092h5.755l.457-.646c.153-.229.257-.338.3-.334.051.005.184.067.399.191l1.87 1.125.16.16.055.12-.018.093-.197.186-.571.484c-.008.629-.014 1.107-.008 1.428l.008.651c-.008.958-.039 2.187-.084 3.677-.049 1.49-.105 2.811-.168 3.973-.065 1.162-.208 2.238-.431 3.237-.22.992-.599 1.741-1.135 2.237-.536.498-1.224.875-2.053 1.131-.834.254-1.384.373-1.649.355l-.146-.021-.062-.094-.071-.368c-.031-.204-.133-.51-.301-.909-.167-.402-.483-.722-.939-.957l-1.016-.506c-.139-.061-.201-.143-.182-.248.008-.11.119-.151.327-.115l1.322.262c.608.119 1.125.177 1.56.177.78.009 1.336-.194 1.663-.616.33-.417.556-.988.685-1.711.123-.723.216-1.549.276-2.47.059-.923.109-1.991.145-3.202.035-1.215.062-2.421.082-3.627.023-1.201.031-1.857.031-1.973v-.977zm-12.38 5.262v-5.52h-4.531v5.52h4.531zm0 6.887v-6.186h-4.531v6.186h4.531zm0 .701h-4.531v2.531c0 .182-.084.381-.254.598-.167.218-.468.329-.893.333-.431.005-.698-.04-.796-.124-.097-.088-.181-.199-.237-.337l.129-3.224v-10.238l-.117-4.27.148-.049c.046-.004.22.065.513.203l1.507.754h.675c.105-.718.19-1.334.253-1.84.066-.505.129-1.037.191-1.592l.129-1.361.039-.51.079-.035c.021-.01.143.018.35.088l2.324.855c.198.08.323.143.374.191.043.049.074.11.082.187.01.08-.129.163-.401.261l-.586.209c-.263.466-.448.811-.559 1.037l-.741 1.494-.56 1.016h2.64l.659-.922c.072-.105.135-.16.195-.164.062-.004.183.049.364.164l1.649 1.051.205.168.046.129c.006.045-.042.115-.144.209l-.573.496v12.39l.101 1.977c-.081.292-.304.515-.654.67-.352.151-.683.222-.994.212-.273 0-.447-.049-.514-.149-.062-.098-.099-.253-.099-.462v-1.946zM243.318 40.022l-.004 1.405c-.006.427-.006 1.361 0 2.82l.004 2.635c-.02 1.352-.076 2.575-.168 3.671-.099 1.095-.343 2.195-.74 3.295-.402 1.1-.99 2.03-1.774 2.788-.784.764-1.634 1.438-2.542 2.022-.909.585-1.561.962-1.958 1.135l-.795.354-.213.059-.115-.041-.023-.098v-.105c0-.03.059-.089.17-.169l.977-.673c.452-.312.976-.746 1.577-1.305.603-.559 1.145-1.21 1.624-1.951.478-.74.862-1.666 1.146-2.779.289-1.113.448-2.199.483-3.26.035-1.059.055-1.854.059-2.373.004-.518-.01-1.329-.031-2.429-.027-1.1-.059-2.031-.094-2.793l-.128-2.364-.141-1.44.119-.116c.031-.008.149.027.358.116l2.119.896h4.948l.729-.807c.137-.156.23-.236.269-.24.043-.004.209.094.495.293l1.753 1.246c.174.133.275.217.307.257l.039.12c-.004.045-.074.115-.213.209l-.745.51v15.572c0 .199.107.367.314.5.21.134.865.209 1.975.227.98.027 1.726-.106 2.234-.395s.953-.988 1.326-2.098l.633-1.911c.045-.146.125-.22.234-.22.055.008.1.043.131.104.035.059.045.134.025.222l-.182 2.182-.018.453s.031.381.111.522c.045.093.195.271.452.532.262.258.386.497.376.715-.008.145-.222.531-.643 1.162-.418.629-1.942.93-4.562.916-1.872 0-3.135-.199-3.79-.598-.651-.398-.98-.932-.98-1.601v-17.172h-5.128zM281.796 44.572c-1.107.873-2.182 1.756-3.225 2.646.982.383 1.881.75 2.706 1.104.818.354 1.329.759 1.524 1.211.195.447.292.784.298.997.004.217-.021.408-.084.572-.067.182-.214.359-.427.536-.216.173-.466.253-.74.245-.15 0-.311-.031-.488-.1-.177-.061-.353-.256-.528-.576l-.491-1.299c-.163-.372-.417-.748-.748-1.126-.334-.377-.622-.655-.866-.839l-.634-.451c-.181-.121-.271-.19-.267-.208l.214-.351.687-1.037.692-1.117c.258-.408.411-.666.466-.768l.417-.82.182-.426.123-.014c.041.014.191.115.462.297l1.521 1.064c.139.107.201.182.191.234-.021.094-.164.151-.411.169l-.574.057zm-17.562-.74l-.483-.484-.07-.127.047-.117.169-.053c.127 0 .443.084.95.248.499.165 1.018.453 1.556.869.536.418.807.883.811 1.397.004.514-.146.909-.462 1.188-.265.244-.579.363-.934.363-.304.01-.56-.084-.772-.279-.214-.195-.347-.465-.394-.811l-.027-.923c-.01-.218-.051-.452-.121-.71-.068-.253-.161-.442-.27-.561zm.659 7.222l-1.038.688c-.288.191-.448.283-.487.279-.038-.004-.097-.098-.171-.279l-.782-1.703-.133-.234.133-.076.376-.053 1.322-.248c.098-.014.698-.146 1.798-.395 1.1-.249 1.669-.377 1.716-.395l1.306-.352c.16-.035.24.005.246.12.004.12-.062.214-.191.28l-1.221.691c-1.533.867-2.492 1.425-2.874 1.677zm8.277-9.2l1.154.536c.156.075.23.164.227.258-.004.098-.137.158-.409.194l-.505.08c-.426.381-.735.665-.935.856l-1.193 1.117-.928.855 3.158.262c.48-.562.722-.856.741-.883l.509-.701.244-.39c.055-.035.111-.044.167-.026l.236.154 1.741 1.092c.148.098.222.186.222.274-.008.12-.108.195-.3.218l-.558.092c-1.62 1.256-3.593 2.67-5.925 4.249l5.667-.129c-.21-.506-.354-.815-.44-.937-.078-.123-.216-.305-.407-.545l-.349-.43c-.062-.062-.09-.129-.086-.199.004-.076.062-.111.177-.111.205.009.884.275 2.03.799 1.15.523 1.703 1.338 1.669 2.447-.014.381-.146.718-.395 1.016-.249.291-.569.439-.967.439-.218.008-.452-.08-.702-.267-.253-.187-.376-.471-.376-.853l-.053-.7-4.704.856 2.757.545c.084.026.155.066.204.111.055.049.08.098.086.15.002.053-.094.143-.29.275l-.56.373v1.378h6.715l1.286-1.429c.113-.123.213-.186.293-.189.083-.005.206.058.372.189l1.869 1.544c.188.165.285.292.285.377-.008.155-.168.235-.479.235h-10.338v3.52l.09 2.055c-.07.164-.164.296-.285.394-.123.103-.335.19-.638.267-.302.08-.571.115-.805.106-.364 0-.591-.058-.681-.169-.092-.115-.15-.243-.178-.391l.129-2.585v-3.196h-10.208c-.133 0-.225-.058-.287-.169-.045-.062-.075-.169-.097-.323-.021-.155.106-.235.384-.235h10.208v-1.48l-.074-1.286c-.271.093-.476.155-.612.182l-.56.088-1.454.382-.195.049-.103-.075-.051-.195-.493-1.561-.094-.223.094-.074.31-.026.714-.209c.235-.071.573-.267 1.021-.585.446-.319 1.351-1.135 2.722-2.443-1.023.143-1.755.262-2.195.363l-.988.248-.324.111c-.098.041-.173-.035-.235-.226l-.479-1.3-.133-.262.055-.053.323-.129.444-.27c.199-.125.391-.271.571-.447.182-.18.415-.498.704-.959.293-.457.507-.816.644-1.078l.362-.74.135-.261h-9.707c-.207 0-.328-.115-.363-.351-.035-.23.09-.351.363-.351h10.703c-.38-.11-.632-.288-.762-.523-.133-.239-.189-.515-.182-.825l.035-.873c-.039-.363-.203-.678-.478-.949l-.404-.377-.069-.083.004-.058c.008-.094.122-.147.339-.156.396 0 .875.098 1.435.289.558.186 1.041.443 1.443.758.401.314.604.731.604 1.255-.008.354-.132.674-.362.954-.235.277-.542.479-.924.589h6.352l.986-1.179c.148-.174.254-.262.312-.267.062-.005.212.083.456.267l1.622 1.245c.129.103.209.181.24.239.03.059.048.133.052.235.004.098-.128.146-.394.146h-1.614v.014h-8.338zM303.373 47.258v-2.843h-7.783v2.843h7.783zm-7.784.7v.625c0 .218-.181.387-.548.506-.37.125-.701.188-.998.191-.292.004-.479-.035-.56-.125-.076-.088-.129-.199-.154-.336l.133-2.12v-2.182l-.107-1.856c.062-.076.119-.121.17-.131l.207.104 2.195 1.055h7.275l.728-.82c.131-.146.229-.221.285-.227.06-.004.177.045.354.146l1.556 1.002c.279.183.417.328.417.443-.01.094-.084.191-.222.284l-.571.378-.014 2.362.053 1.233c-.088.297-.32.51-.7.646-.382.133-.714.191-1.002.174-.182 0-.345-.045-.493-.139-.145-.088-.221-.221-.221-.395v-.82h-7.783zm-3.413 3.379l.014 8.395c0 .266-.084.506-.248.714s-.497.346-.994.417c-.499.065-.812.053-.936-.041-.129-.098-.217-.213-.266-.35l.115-2.51.014-5.998-.129-2.417.088-.094s.15.044.403.155l2.262 1.028h4.792l9.46-.014.634-.868c.115-.156.212-.231.292-.218.084.014.182.054.293.11l2 1.225c.123.084.191.146.209.186l.031.099-.035.142-.125.182-.651.611.012 7.676c0 .599-.47 1.042-1.409 1.326-.937.288-1.504.425-1.694.417l-.186-.041-.107-.128c-.031-.062-.089-.311-.171-.746-.09-.438-.422-.762-1.002-.971l-.796-.27c-.137-.044-.203-.12-.195-.223 0-.062.027-.115.08-.164.053-.043.111-.07.182-.07h1.037c.92 0 1.438-.035 1.548-.102.111-.071.195-.164.25-.289.047-.119.074-.297.074-.531l-.012-6.639h-14.834zm9.627 5.313v-2.674h-4.927l-.014 2.674h4.941zm-4.94.691v.998c0 .164-.164.314-.501.448-.333.138-.653.2-.953.19-.182 0-.324-.027-.429-.08-.104-.053-.188-.138-.246-.258l.09-1.768v-2.924l-.117-1.751c.094-.053.295-.004.601.155l1.649.909h4.847l.554-.665c.115-.129.219-.195.315-.195.057.01.154.059.283.146l1.587 1.166c.139.115.209.217.209.314-.008.094-.07.178-.182.244l-.509.314.012 1.921.066 1.339c-.146.537-.671.803-1.56.793-.52 0-.776-.176-.776-.536v-.763h-4.94zm10.536-16.667l1.104-1.286c.146-.172.257-.262.323-.266.07-.005.209.075.417.238l1.573 1.326c.217.191.324.346.324.466-.008.146-.096.222-.262.222h-22.93c-.202 0-.323-.115-.353-.35-.031-.235.088-.351.353-.351h10.536l-.269-.208c-.121-.104-.227-.334-.312-.688l-.133-.639c-.049-.191-.14-.395-.269-.612-.133-.212-.258-.376-.378-.479l-.638-.492-.084-.106-.027-.098.035-.07c.049-.066.202-.104.452-.104 1.17.02 2.094.231 2.776.648.679.416 1.02.834 1.023 1.246.006.416-.076.766-.239 1.055-.119.199-.301.381-.547.546h7.525zM316.285 39.375c-.128-.111-.19-.203-.183-.279.01-.075.102-.124.276-.15l.154.026.505.098c.281.049.647.155 1.113.319.462.164.856.351 1.18.562.323.213.608.492.846.834.236.342.352.691.344 1.056-.02.36-.17.7-.462 1.028-.289.328-.669.492-1.137.492-.297.009-.554-.066-.78-.227-.226-.159-.37-.328-.446-.5-.076-.173-.135-.502-.182-.984-.051-.488-.156-.887-.323-1.201-.17-.321-.472-.676-.905-1.074m13.382 9.156c-.148-.102-.219-.19-.207-.266.016-.07.09-.123.232-.146.139-.025.313.014.532.129.102.062.881.398 2.336 1.02 1.454.616 2.515 1.486 3.176 2.604.665 1.117.984 1.95.957 2.496-.018.258-.125.616-.319 1.068-.195.457-.62.674-1.281.656-.438 0-.766-.138-.98-.422-.213-.279-.352-.518-.417-.714-.061-.194-.207-.788-.434-1.777-.226-.993-.62-1.823-1.192-2.487-.571-.67-1.186-1.251-1.833-1.742l-.57-.419zm-11.592-.518h-3.87c-.19 0-.302-.12-.337-.355-.035-.24.08-.359.337-.359h3.689l.57-.639c.201-.221.334-.338.4-.342.062-.004.313.125.758.382l1.064.652c.338.208.51.332.516.376l.004.076v.053c-.004.036-.143.16-.4.377l-.638.533v7.6l1.441.633c.606.271 1.331.564 2.172.887.838.32 2.56.475 5.156.467 1.193 0 2.547-.066 4.06-.2 1.511-.138 2.823-.319 3.94-.555l.887-.181c.274-.049.417-.018.425.105.01.12-.039.218-.141.297l-.479.364c-.183.138-.351.341-.497.612-.146.266-.255.576-.337.926-.074.352-.16.563-.248.63-.083.071-.216.111-.396.124-.176.014-.468.027-.877.031l-.675.014-1.755.094c-.372.018-.838.021-1.399.012-2.894-.018-4.825-.109-5.797-.274-.967-.163-1.694-.351-2.174-.559-.483-.208-.967-.506-1.448-.896l-1.301-1.078c-.536-.406-1.01-.611-1.427-.611-.683.008-1.334.244-1.95.697-.611.455-1.084.913-1.403 1.369l-.456.639c-.119.172-.195.252-.227.238-.031-.012-.07-.084-.122-.213l-.923-2.119c-.111-.234-.16-.367-.148-.402.016-.035.121-.09.33-.17l.832-.27c1.047-.354 1.997-.611 2.843-.768v-8.197zm15.435-4.066l.688-1.012c.226-.342.376-.51.456-.514.074-.005.327.15.753.461l1.321 1.002c.409.318.612.52.612.594-.018.116-.105.168-.271.168h-7.572c-.025.427-.076 1.166-.146 2.217-.065 1.052-.288 2.072-.66 3.061-.373.984-1.047 1.996-2.025 3.023-.981 1.033-2.178 1.987-3.602 2.861l-.775.479c-.217.142-.4.208-.547.208-.132.009-.188-.035-.181-.128 0-.09.167-.275.505-.559l.688-.586c.261-.217.686-.643 1.286-1.277.597-.638 1.139-1.396 1.622-2.283.487-.883.829-1.906 1.027-3.068.201-1.166.311-2.186.338-3.06l.027-.888h-5.521l-.223-.114c-.078-.103-.114-.226-.108-.372.004-.143.097-.213.278-.213h5.602l-.01-1.149c-.006-.35-.006-.815 0-1.397.004-.579-.01-1.107-.045-1.586l-.156-2.076c-.008-.07.01-.109.055-.119.039-.01.23.018.567.08l2.303.443c.272.057.45.115.53.174.08.057.12.114.124.181.004.067-.12.194-.374.386l-.53.398c.008.79.014 1.38.014 1.77l-.014.781v1.064l-.014 1.051h3.978z"/></g></svg>