<?xml version="1.0" encoding="utf-8"?>
<!-- Generator: Adobe Illustrator 16.0.0, SVG Export Plug-In . SVG Version: 6.00 Build 0)  -->
<!DOCTYPE svg PUBLIC "-//W3C//DTD SVG 1.1//EN" "http://www.w3.org/Graphics/SVG/1.1/DTD/svg11.dtd">
<svg version="1.1" id="图层_1" xmlns="http://www.w3.org/2000/svg" xmlns:xlink="http://www.w3.org/1999/xlink" x="0px" y="0px"
	 width="640px" height="377.773px" viewBox="0 0 640 377.773" enable-background="new 0 0 640 377.773" xml:space="preserve">
<g>
	<g>
		<path fill-rule="evenodd" clip-rule="evenodd" fill="#D9B766" d="M438.025,32.188c-1.772-3.758-3.221-4.939-5.853-7.301
			c0.108-0.269,0.216-0.537,0.323-0.752c5.475,0,6.441,1.127,6.656,6.925C438.454,32.081,438.454,32.081,438.025,32.188
			 M431.743,39.704c1.504-6.818-1.182-7.57-2.63-12.671c2.201,0,3.866,3.007,4.993,5.208c0.322,2.739,0.053,4.457-1.289,7.301
			C432.441,39.595,432.065,39.649,431.743,39.704z M421.06,46.845c-0.215-0.164-0.429-0.324-0.589-0.486
			c0-2.844,1.18-6.12,1.556-8.911c-0.214-1.557-0.429-3.061-0.644-4.563c-1.986-3.544-1.986-3.544-2.898-5.96
			c7.999,0.859,11.327,2.31,11.327,11.489C428.254,42.548,424.926,45.18,421.06,46.845z M377.522,53.77
			c-4.619-0.914-6.549-5.693-9.45-6.82c-2.254,4.402-1.933,4.726-6.228,5.369c-4.562-1.934-5.045-5.693-4.402-9.556
			c0.377,0,1.987-3.006,2.254-3.382c4.781-3.221,5.531-4.08,11.597-2.309c-2.63-8-1.556-9.126,2.256-16.267
			c3.168-2.041,5.101-3.221,9.071-3.973c9.184,0,13.853,2.469,13.424,12.831c7.406-3.597,13.957-4.026,19.379,3.383
			c0.377,1.45,0.806,2.899,1.234,4.348c-0.374,7.033-4.295,14.602-11.863,15.838c-6.764,0-10.039-0.913-10.577-7.409
			c0.967-4.349,2.256-4.993,6.389-5.798c5.37,2.256,3.974,4.617,2.523,9.343c3.921-0.807,4.295-4.402,4.616-7.518
			c-1.824-7.408-8.857-7.086-13.474-3.597c-0.376,0-0.753,0-1.074,0.054c-3.113-4.832-5.208-7.14-10.413-7.14
			c-6.927,3.167-8.43,5.368-7.304,13.206c0.753,0.86,1.506,1.72,2.254,2.632c0.324,0,0.647,0,1.021,0.053
			c-0.805-1.611-0.374-3.059-0.323-4.349c3.008-9.771,13.371-5.153,10.47,4.833C385.467,52.105,383.104,53.392,377.522,53.77z
			 M463.15,62.306c-2.524-1.074-3.221-0.915-3.866-3.275c2.363-3.385,5.529-7.463,3.328-11.437c0-0.429,0.055-0.803,0.109-1.182
			c3.435-1.716,7.246,0.967,9.5,3.973C475.014,57.689,470.075,61.446,463.15,62.306z M474.049,62.894
			c0.374-1.556,1.234-3.059,1.663-4.509c3.328-4.778-0.806-10.791-3.49-13.797c-0.053-0.267-0.107-0.534-0.107-0.751
			c4.938-2.201,5.208-1.664,10.363,0.27c3.221,3.542,5.26,7.247,2.36,12.292C481.455,60.264,478.987,62.196,474.049,62.894z
			 M428.468,77.874c-3.328-0.751-7.784-3.006-2.844-4.779c5.207-4.617,5.529-7.139,2.898-13.207
			c-9.343-9.339-18.307,5.853-11.435,7.194c-0.376-3.649,1.718-6.763,5.582-5.905c1.558,0.965,2.577,1.665,3.813,3.704
			c0,3.223-2.577,5.477-5.048,7.194c-6.496,0.75-12.562-0.591-14.119-6.818c0-4.402-0.644-6.765,3.651-8.321
			c1.127-0.857,2.254-1.665,3.436-2.47c3.328-3.543,3.166-4.562,8.697-3.543c2.309,1.234,4.725,3.167,6.818,5.691
			c0.267-0.107,0.536-0.162,0.805-0.217c1.234-6.172,3.221-10.415,7.623-14.816c4.831-2.846,8.697-2.201,14.334-0.429
			c2.899,2.736,5.853,5.957,5.529,10.952c-2.039,6.656-3.649,7.678-9.609,10.629c-6.388,0.267-7.785-1.289-7.785-6.873
			c1.72-5.153,8.269-5.207,7.839,1.503c0.215,0,0.43,0,0.646,0.055c2.576-4.617,1.072-8.107-3.438-9.663
			c-8.32,0-10.253,4.079-10.576,11.487c3.006,7.837,7.355,9.341,15.946,7.623c5.958-3.759,6.441-4.348,6.925-4.402
			c0.912,3.221-0.753,7.302-2.792,10.039c-4.94,3.542-7.623,3.328-12.454,1.181c-1.289-0.913-1.934-1.717-3.168-1.717
			C435.984,75.996,433.676,77.657,428.468,77.874z M446.185,83.779c-2.361-0.324-4.778-0.807-6.711-1.45
			c-5.422-2.897-0.269-1.931,1.558-4.402c1.825-0.27,4.348,0.752,6.764,1.129c6.872-0.86,9.986-3.114,13.368-9.45
			c0.215-1.451,0.43-2.897,0.698-4.348c2.361-0.591,7.676-0.269,10.415,0.214c0.806,0.538,1.825-0.054,3.275,0.644
			c-0.269,4.242-5.048,7.409-7.785,9.826c2.416,3.221,11.542,5.045,16.267,5.636c0,0.162,0.054,0.322,0.106,0.536
			c-8.373,2.256-16.534,1.934-22.924-3.381c-2.844,1.88-5.529,3.112-8.373,4.348C450.587,83.295,448.386,83.51,446.185,83.779z
			 M475.335,87.912c-0.75-0.752-8.213-0.805-9.287-0.858c-1.985-0.752-3.919-1.505-5.852-2.201
			c-9.824,4.026-20.775,3.917-28.937-2.579c-5.529-0.644-8.482-4.669-12.454-5.635c-1.289,0.105-2.577,0.267-3.866,0.429
			c-9.932-1.611-14.388-7.033-13.366-16.966c-0.107-0.484-0.162-0.965-0.215-1.396c-1.934-0.644-3.866-1.287-5.746-1.877
			c-4.293-3.006-3.006-2.578-6.815,0.913c-5.584,3.004-11.382,2.094-16.377-0.913c-1.931,0-2.359,0.429-3.757,1.129
			c-8.588,1.825-10.36,1.556-16.106-4.188c-2.522-6.122-1.233-10.201,1.182-15.678c1.61-1.396,3.221-2.791,4.831-4.187
			c1.506-0.859,2.633-1.396,4.512-2.201c0.322-1.235,0.322-1.235,0.804-7.463c0.752-1.556,1.558-3.112,2.362-4.67
			c2.952-2.469,6.122-4.67,9.127-7.086c6.334-2.63,11.703-3.812,18.307,0.214c2.739,2.63,5.314,5.047,7.568,8.805
			c1.987,0.107,3.275-0.214,6.122-0.214c2.522,0.375,5.26,2.361,8.267,2.361c4.295-2.576,7.408,0.055,11.918,0.269
			c7.356-4.509,13.154-3.704,15.999,5.477c0.055,1.825,0.106,3.651,0.214,5.476c1.129,0.43,3.275,0.323,4.94,0.375
			c4.831,0.967,7.517,3.704,10.63,7.945c1.663,0.215,4.669-0.804,6.87-1.233c2.63-5.261,10.792-5.476,15.837-3.972
			c1.61,1.127,3.275,2.254,4.94,3.435c3.864,5.906,5.744,9.179,2.523,16.428c-1.021,1.503-3.598,4.402-5.101,4.671
			c0,0.105,0,0.214,0,0.374c-3.974,1.987-2.739,2.954-3.974,7.035c-0.912,1.287-1.61,3.221-2.685,4.831
			c0,3.059,9.343,3.059,12.242,3.006c2.951-0.376,5.798-2.094,8.428-3.759c1.396-1.341,1.396-1.341,1.878-1.503
			c-4.024,11.22-11.702,13.261-22.493,15.139C476.679,87.643,475.979,87.588,475.335,87.912z"/>
		<path fill="#A72027" d="M244.897,214.209c-2.653,2.695-4.663,2.996-5.99,0.982c-5.351-8-7.36-15.361-6.034-22.037
			c14.722-8.688,22.725-22.726,24.05-42.154c2.013-1.967,3.381-1.967,4.024,0l6.032,11.041l56.147-2.012l-0.984-35.089
			c0-2.012,0.685-2.656,2.012-2.012l28.073,8.044c1.328,1.328,1.328,2.656,0,3.981c-2.01,4.022-2.996,7.703-2.996,11.041v13.053
			l55.162-0.984l12.025-11.041l26.063,21.057c2.012,2.01,1.669,3.679-0.985,5.006c-10.013,0.684-23.065,5.007-39.113,13.051
			c-1.327,0.644-2.354,0.985-2.996,0.985c-0.685-0.642-0.685-1.669,0-2.995l7.019-22.083l-139.427,6.036
			C266.979,186.135,259.62,201.498,244.897,214.209 M305.067,201.156c-6.675,0-15.02,1.027-25.035,3.041c-0.684,0-1.37,0-2.01,0
			l-7.019-6.037l98.258-5.006l13.051-13.054l17.075,15.065c1.325,1.325,1.325,2.311,0,2.994l-68.215,2.012l16.048,10.014
			c1.328,1.369,1.328,2.012,0,2.012l-5.009,2.012c-1.368,0.686-3.338,2.012-6.032,4.023c-4.023,2.652-6.675,4.322-8.003,5.006
			c10.016,9.373,18.017,20.072,24.051,32.098c22.723-16.051,39.8-30.428,51.141-43.139l19.085,17.076
			c1.328,1.324,1.328,2.311,0,2.994c0-0.684-0.341-0.684-1.025,0c-10.015,3.338-22.384,8.006-37.104,14.038
			c4.022,26.062,28.073,50.156,72.238,72.238c1.325,0.641,1.669,1.668,0.982,2.996c0,0.643-0.685,0.982-2.01,0.982
			c-9.372,0.688-19.388,6.035-30.085,16.051c-29.443-26.064-44.122-56.49-44.122-91.283c-2.696,1.371-7.36,3.039-14.036,5.049
			c-6.033,2.654-10.699,4.666-14.08,5.992c8.73,18.744,11.041,42.152,7.062,70.227c-4.708,18.703-17.418,31.412-38.131,38.131
			c-0.685,0.641-1.325,0.641-2.012,0c0,0,0-1.027,0-3.037c0.687-10.016-2.651-17.035-10.014-21.057
			c-0.685-0.686-1.027-1.326-1.027-2.012c0-0.643,0.685-0.984,2.012-0.984c15.363,2.654,23.409-0.342,24.094-9.029
			c3.979-16.047,5.648-30.77,5.007-44.123c-28.759,25.379-69.198,48.445-121.367,69.201c-1.325,0.641-2.353,0.641-2.994,0
			c0-1.371,0.3-2.354,0.984-3.039c42.11-20.711,82.593-51.482,121.367-92.266c-0.687-3.338-1.669-6.332-2.997-9.031
			c-28.759,23.41-63.892,43.482-105.317,60.17c-2.012,0-2.355-0.641-1.027-1.967c39.457-22.768,72.236-49.172,98.299-79.256
			c0-0.686-0.344-1.328-0.982-2.012c-0.687-1.326-1.371-2.012-2.013-2.012c-25.419,14.721-54.521,29.444-87.258,44.165
			c-1.37,0.643-2.354,0.301-3.039-1.027c-0.642-0.684-0.301-1.326,1.027-2.01c35.433-20.072,64.833-42.112,88.242-66.206H305.067z"
			/>
		<path fill-rule="evenodd" clip-rule="evenodd" fill="#A72027" d="M185.789,149.948c0.487-0.267,1.035-0.053,1.563-0.229
			c0.425-0.144,0.869-0.721,1.354-0.816c1.347-0.264,2.249,0.969,3.7,1.145c2.951,0.354,8.032-1.077,10.805-3.377
			c1.269-1.053,2.014-2.449,3.653-3.12c1.984-0.811,4.13-0.897,5.938-1.797c1.626-0.811,3.229-1.774,4.646-2.651
			c2.08-1.291,4.389-4.327,6.436-5.927c0.312-0.242,0.577-0.739,0.706-1.24c-0.02-0.172,0.255-0.203,0.187-0.398
			c1.252,0.259,2.5,0.522,3.743,0.799c-0.097,0.969-0.955,1.891-0.269,3.389c0.265,0.577,1.057,0.834,1.356,1.487
			c0.612,1.338,0.043,4.06,2.338,3.771c1.236-0.156,1.913-1.491,3.188-2.129c-0.491-0.844-1.777,0.006-2.647-0.041
			c-0.483-0.768-0.91-1.661-1.472-2.269c0.18-0.924,0.62-1.726,0.677-2.71c3.248-0.125,4.862,3.209,7.028,5.381
			c-0.712,1.396-1.798,2.421-1.332,4.098c0.162,0.579,0.753,1.002,0.921,1.646c0.569,2.164-1.252,6.116,0.089,8.524
			c1.4-0.281,0.355-2.729,1.739-3.42c1.09,0.963,0.774,3.167,1.911,4.418c0.836-1.135,0.154-2.531,0.109-3.825
			c-0.102-3.127,0.233-6.484,0.627-9.276c1.923,0.606,3.371,2.722,5.101,4.589c0.812,0.877,1.938,2.086,2.911,3.073
			c0.595,0.603,1.456,1.008,1.752,1.677c0.632,1.427,0.211,3.295,0.599,4.886c-0.664,0.536-1.904,0.795-2.271,1.472
			c0.961,0.875,2.362,0.817,3.275,1.79c0.727,7.377,0.356,14.628-0.156,21.614l-1.977,2.041l-5.214,7.598l4.692,1.405l5.797-5.971
			c1.076-0.587,2.297-0.17,2.771-0.993c-0.277-0.909-1.845-0.456-2.379-1.125c-0.704-0.881-0.513-3.568-0.505-5.084
			c0.02-4.063,0.131-9.719,2.072-12.591c0.714-1.055,2.217-2.057,2.186-3.086c-0.939,0.191-2.262,1.197-2.784,0.503
			c0.016-2.014-1.622-4.808-1.224-6.636c1.47-0.893,3.681,0.006,5.033-0.651c0.086-1.207-2.016-1.119-1.961-2.262
			c1.934-2.197,4.609-4.234,6.621-6.32c0.77-0.8,1.115-2.377,2.55-2.065c0.378,0.926-0.286,1.544-0.433,2.458
			c-0.885,5.482,2.119,12.739,6.465,15.293c0.168,0.326,0.425,0.464,0.511,0.967c2.028,0.837,3.357,3.151,4.539,5.781
			c0.891-2.529,0.349-5.073,2.994-6.338c1.808-0.865,3.813,0.221,5.327-0.756c1.202-0.776,2.39-3.778,1.838-5.432
			c0.361-0.717,0.81-1.394,1.624-1.899c0.876-2.87,2.43-5.864,2.888-8.933c0.143-0.954-0.683-2.406,0.769-2.909
			c2.601,2.292,5.299,3.681,8.944,3.38c0.646-0.055,1.312-0.495,2.002-0.39c0.915,0.145,1.393,1.152,2.387,1.615
			c2.976,1.378,6.169,1.197,10.088-0.322c1.716,1.519,4.18,2.751,6.516,2.107c1.298-3.271-1.646-7.955-1.377-11.191
			c0.041-0.499,0.414-0.737,0.562-1.187c0.409-1.254,0.841-2.767,0.894-3.94c0.187-4.238-3.615-7.85-6.032-9.031
			c-3.334-1.626-8.846-2.913-12.896-2.457c-4.698,0.53-7.12,3.759-10.799,5.681c-0.478-0.189-1.016-0.246-1.199-1.053
			c0.835-1.696,3.373-3.439,4.882-5.206c0.438-0.515,0.491-1.221,1.092-1.544c2.152-1.154,4.328,0.811,6.099,0.943
			c1.295,0.098,3.596,0.08,5.439,0.027c0.687-0.02,1.655-0.169,2.199-0.296c1.256-0.289,2.33-0.363,3.072-0.604
			c3.005-0.991,3.533-3.989,5.28-5.019c0.677-0.402,1.554-0.382,2.238-0.64c4.398-1.642,5.533-5.213,6.398-9.697
			c2.422-2.342,4.223-4.398,3.455-7.818c-0.168-0.741-0.81-1.454-0.983-2.281c-0.476-2.266,1.459-4.97,0.18-7.307
			c-1.376-0.371-3.43,0.503-4.769,1.38c-2.365-1.423-6.177-2.938-9.936-1.542c-0.749,0.279-1.302,0.879-2.029,1.221
			c-1.408,0.665-2.995,0.745-4.48,1.277c-4.606,1.649-6.611,5.323-8.394,8.27c-0.288,2.894-2.325,4.96-3.407,7.477
			c-1.205,3.671-0.886,8.064-1.646,11.944c-1.593,3.287-4.369,6.015-7.456,8.594c-0.771-0.499-1.77-0.528-2.055-2.061
			c0.409-1.014,1.603-0.784,2.324-1.326c2.117-1.591,3.563-6.626,3.42-9.288c-0.16-2.987-2.199-3.958-2.976-6.011
			c-0.491-1.292,0.242-3.398-0.85-5.125c-0.289-0.456-1.053-0.764-1.596-1.24c-0.561-0.487-0.93-1.111-1.306-1.341
			c-3.439-2.137-9.052-0.417-13.671-0.039c-1.264-0.492-2.841-0.316-4.367-0.246c3.993,6.972-1.452,12.312,1.446,18.734
			c-3.197,0.872-5.477-0.205-8.286-0.158c0.636,2.051,0.057,3.743-0.766,5.209c-0.318,0.565-0.563,1.225-0.845,1.784
			c-0.601,1.215-1.56,2.283-2.078,3.379c-2.25,4.743,1.491,10.442,5.648,11.635c1.133,0.326,2.724-0.318,3.741,0.799
			c-3.899,3.043-7.312,6.317-10.119,9.877c-0.939,0.444-1.088,1.263-2.218,1.618c-0.428-0.32-0.683-1.396-0.679-1.895
			c-1.712-3.096-4.839-4.112-6.707-6.321c-1.575-1.858-2.314-4.203-3.996-5.642c-0.543-0.464-1.718-0.49-2.087-1.229
			c0.593-1.457,2.439-2.32,2.905-3.839c-2.512-0.042-2.565,2.092-4.052,2.932c-1.317-0.349-0.994-1.597-2.16-2.353
			c-2.37-1.54-6.588,0.838-7.151-2.045c-0.206-1.059,1.706-3.677,3.498-3.558c0.644,0.353-0.129,1.895,0.877,1.988
			c0.796-0.863,0.49-2.308,0.759-3.396c0.188-0.756,1.145-1.685,0.29-2.408c-1.151-0.213-3.271,2.143-4.813,1.724
			c-0.427-0.942,0.417-1.451,0.685-2.219c0.481-1.379,0.526-2.962,1.373-4.443c1.686-2.958,5.735-5.034,2.638-9.171
			c0.368-0.27,0.84-0.492,1.208-0.763c2.093-2.942,4.269-5.88,6.077-8.76c0.667-1.064,1.688-1.821,2.438-2.846
			c1.368-1.879,2.324-4.094,3.587-6.06c1.334-2.071,3.377-3.537,4.134-5.923c-4.438,2.352-8.122,5.686-10.591,8.567
			c-1.784-1.846-3.958,0.074-6.41,0.486c-0.679,0.113-1.458-0.5-2.262-0.341c-1.544,0.302-2.109,1.4-3.186,2.129
			c-1.08-0.491-1.901,0.421-2.929,0.554c0.113-2.168,1.626-3.673,0.692-6.336c0.612-2.254,3.078-4.279,2.546-6.672
			c-0.883,1.735-2.646,2.892-4.068,4.254c-1.463,1.404-2.461,3.365-4.363,4.361c-1.033-1.535,1.1-2.034,1.8-2.782
			c0.347-0.373,0.551-0.967,0.855-1.294c3.303-3.58,7.229-6.461,10.315-9.785c3.667-2.439,7.648-4.545,9.278-8.097
			c0.351-0.764,0.538-2.012,0.861-3.104c0.512-1.724,1.406-3.151,0.62-5.159c0.287-1.02,1.201-1.542,0.874-2.619
			c-0.714-2.333-3.576-0.977-5.482,0.318c-3.463,2.352-6.809,6.863-8.809,9.409c-5.506,5.757-10.669,11.678-17.114,16.993
			c-1.302,2.414-4.33,4.013-5.786,6.352c-1.97,0.846-2.117,2.554-4.044,3.422c-0.403,1.171-1.403,1.657-2.246,2.45
			c-4.987,4.703-8.686,10.45-13.033,15.531c-3.858-1.62-8.397-4.084-11.251-7.982c-0.749-1.021-2.021-2.948-1.62-4.523
			c4.057-0.915,7.062-3.135,8.498-5.678c0.913-1.614,1.739-4.426,1.223-6.691c-0.166-0.727-0.622-1.417-0.784-2.188
			c-0.446-2.129-0.049-4.461-0.047-6.566c-2.107,1.62-3.335,3.688-5.968,4.937c-3.264,1.548-5.189,3.445-5.944,5.915
			c-0.606,1.985,0.209,4.441-0.349,6.377c-1.111-0.174-2.849-2.045-3.201-2.968c-0.478-1.25,0.251-2.941-0.148-4.552
			c-0.296-1.183-1.168-2.027-1.589-3.053c-0.476-1.162-0.474-2.367-1.348-3.303c0.186-1.029,1.022-1.263,1.428-1.99
			c1.021-1.846,0.569-4.346,0.16-5.983c-1.034-4.12-3.826-6.699-6.376-9.07c-1.724-1.601-4.473-3.129-5.352-4.831
			c-2.232-4.315,1.129-6.841,1.324-11.004c-2.383,1.782-3.521,4.151-5.153,6.288c-2.072-3.387-1.975-7.779-2.357-11.169
			c0.375-2.291,1.878-4.682,2.06-6.661c-1.841,0.868-1.917,2.569-3.104,3.746c-0.938,3.703-0.994,8.02-0.31,12.453
			c0.09,0.575,0.832,1.333,0.188,1.907c-2.601-0.511-5.751-1.993-9.338-1.263c0.674,1,1.871,0.585,2.814,0.967
			c1.896,0.768,3.291,2.305,5.026,3.466c0.221,0.831,0.909,1.881,0.546,2.437c-1.941-0.433-4.808-0.24-6.993,0.694
			c0.474,0.914,2.55,0.562,3.741,0.799c1.536,0.862,4.25,1.306,5.518,3.455c0.936,1.589,1.667,4.165,1.941,5.886
			c0.258,1.583,0.352,3.525-0.337,4.564c-5.86-1.447-13.242,2.69-15.416,7.498c1.225,0.305,2.453-0.947,3.802-0.869
			c0.363,2.262,2.234,3.634,3.549,5.311c2.414,3.083,3.997,6.393,7.03,7.686c0.841,0.357,2.391,0.698,3.544,0.706
			c0.8,0.004,2.227-0.039,3.034-0.266c0.519-0.144,1.01-0.616,1.552-0.719c1.244-0.24,2.379,0.618,3.876,0.255
			c1.396-0.335,2.432-1.485,3.739-1.505c3.346-0.043,5.432,4.262,5.958,7.906c2.858,2.759,6.697,4.8,8.388,9.173
			c-0.827,0.608-2.076,0.788-2.792,0.012c-0.366-0.396-0.335-1.388-0.733-2.04c-0.727-1.203-2.632-1.47-3.336-2.425
			c-0.384-0.526-0.364-1.334-0.678-1.897c-1.332-2.396-3.652-3.242-5.59-4.58c-4.09-1.107-9.341,2.765-13.495,1.378
			c0.159,0.992,1.143,1.312,1.763,2.166c0.975,1.33,1.552,3.735,1.922,4.905c-0.772,1.767-4.048-0.468-5.732,0.078
			c0.858,1.096,1.95,1.692,2.527,3.375c1.358,0.629,2.442,1.84,3.827,2.414c2.158,3.345,5.473,5.004,9.727,3.264
			c0.546-0.224,1.01-0.747,1.646-0.918c0.998-0.269,2.215-0.07,3.322-0.368c1.745-0.47,3.021-1.318,4.459-2.256
			c1.793-0.09,4.24-0.591,6.042-1.505c1.724,0.585,4.316,3.89,2.133,5.488c-0.499,0.365-1.813,0.294-2.679,0.795
			c-0.683,0.396-0.998,1.154-1.49,1.355c-0.522,0.216-1.226,0.025-1.758,0.139c-3.876,0.825-5.889,3.279-7.635,4.874
			c-0.268,0.244-0.683,0.261-0.97,0.513c-3.051,2.642-4.521,6.769-5.316,9.966c0.386,0.706,0.037,1.067,0.285,1.708
			c-1.61,2.675-2.698,6.235-2.784,9.226c0.939,0.121,1.224-0.814,1.979-1.366c1.86-1.359,4.728-2.154,6.239-3.716
			c-0.002-2.476-3.151-0.513-3.641-2.809c1.614-0.425,2.702,0.265,4.263-0.047c0.489,1.102,1.286,1.552,1.68,2.854
			c-2.029,1.797-6.109,2.788-7.729,5.073c3.161-0.233,6.625-1.208,9.39-0.896c0.667,0.076,1.712,0.326,1.888,1.135L185.789,149.948z
			 M291.539,112.56c-0.274-2.687-1.81-5.742-2.977-8.313l0.29-0.105c3.502,1.595,5.215,12.023,2.42,14.107
			C290.449,116.41,291.752,114.653,291.539,112.56z M187.364,86.356c0.23,0.113,0.349,0.456,0.46,0.823
			c-0.269,0.076-0.245,0.288-0.532,0.356c-0.462-0.282-0.29-0.306-0.604-0.772C187.06,86.7,186.908,86.383,187.364,86.356z
			 M180.432,94.108c0.734-1.911,1.331-5.234,3.36-5.318c0.434,1.634-0.967,2.78-1.528,4.002c-0.702,1.527-0.965,3.229-0.963,5.118
			c2.176-0.136,4.687-2.801,5.277-5.018c0.215-0.803-0.386-1.997,0.833-2.273c1.415,4.27-2.952,8.366-7.245,9.179
			C179.591,98.296,179.673,96.077,180.432,94.108z M161.126,78.807c0.304,0.507,0.376,0.784,0.325,1.365l-0.875,0.312
			C160.151,79.638,159.987,78.915,161.126,78.807z M158.683,83.467l0.876-0.314c1.072,1.105,1.604,2.558,2.628,3.666
			c0.83,0.899,2.729,1.09,2.41,2.593c-1.117,0.906-1.537-0.722-2.564-0.728c-0.485,0.055-0.339,0.406-0.822,0.46
			c-2.197-0.563-5.991,2.254-7.212-0.378c2.197-0.487,5.097,0.07,6.929-1.33C159.672,86.563,159.067,85.257,158.683,83.467z
			 M155.655,90.64l0.877-0.314l0.312,0.875l-0.874,0.314C155.604,91.353,155.955,91.102,155.655,90.64z M156.361,84.792
			c1.135,0.593,2.016,0.02,2.616,0.874c-2.983,1.271-5.479-0.717-7.362-2.63C152.707,80.839,154.649,83.9,156.361,84.792z
			 M150.202,85.518c-0.215-0.232-0.435-0.446-0.606-0.771c1.409-0.902,3.271-0.62,4.036,0.694
			C152.368,85.721,151.417,85.34,150.202,85.518z M163.863,96.093c-2.765-0.899-5.878-1.062-8.435-2.41
			c0.066-0.412-0.114-0.265-0.112-0.78l0.292-0.105c3.653,0.809,7.265,1.716,11.308,1.708
			C167.199,96.358,165.239,95.137,163.863,96.093z M168.125,85.021c0.072,0.941-1.166,1.774-0.967,2.813
			c0.218,1.137,1.706,1.478,2.213,2.5c0.325,0.659,0.045,1.268,0.188,1.907c0.312,1.396,1.032,2.075,1.641,3.2
			c-2.299,0.891-3.069-2.311-3.13-4.147c-1.278-1.175-2.156-2.09-2.246-3.965c-0.035-0.76,0.634-1.53,0.54-2.168
			c-0.271-1.836-1.762-2.195-3.15-2.823c-0.591-2.716-2.029-5.024-3.258-7.717c0.493-0.066,0.589-0.232,0.78-0.117
			c0.926,0.182,1.255,1.193,1.659,1.874c0.405,0.685,1.156,1.453,1.421,2.125c0.313,0.801,0.008,1.708,0.345,2.345
			C164.846,82.145,167.95,82.679,168.125,85.021z M167.205,81.073c-1.297-0.376-0.718-1.924-1.191-2.866
			c-0.546-1.084-1.953-1.437-2.649-2.341c-1.061-1.38-1.236-2.895-2.066-4.854c-1.35-3.176-5.428-4.845-5.678-8.499l0.291-0.104
			c1.643,0.271,1.904,2.131,2.869,3.414c1.139,1.521,2.921,2.698,3.672,4.281c0.686,1.443,0.605,2.718,1.411,3.938
			c0.327,0.491,0.881,1.158,1.407,1.634c0.53,0.479,1.439,0.684,1.794,1.332C167.687,78.137,168.008,80.133,167.205,81.073z
			 M167.098,109.251c-0.556-0.704-1.491-0.606-1.808-1.821l0.293-0.105c2.522,0.481,4.948,2.513,8.149,0.7
			c-0.008-1.138-2.956-0.588-2.211-2.498c2.195,0.139,4.005,1.094,5.359,3.017c-3.577,1.164-7.797,1.446-11.304,2.897
			C164.916,110.16,166.174,109.783,167.098,109.251z M165.035,111.306l0.364,1.022C163.435,114.139,162.826,110.278,165.035,111.306
			z M174.378,117.174c-1.788,0.392-3.652,2.096-5.313,1.246l-0.366-1.021c1.223-0.495,2.293,0.569,3.324-0.367
			c-1.957-1.591-5.58-1.004-6.6-3.726c2.379-0.415,3.644,1.519,5.629,1.932c-0.408-0.928-1.346-0.741-1.659-1.874
			c0.62-0.139,1.121-0.333,1.563-0.23c1.098,0.258,1.634,1.89,2.359,2.447c1.396,1.076,3.411-0.483,4.532,1.173
			C177.109,117.656,175.758,116.872,174.378,117.174z M181.139,114.917c-0.744,0.376-1.175-0.474-1.783-0.84
			c-1.145-0.694-2.633-0.893-3.804-1.437l-0.156-0.437C177.69,111.125,180.579,112.324,181.139,114.917z M175.74,136.599
			c-0.714,0.132-0.522-1.148-0.522-1.458l0.437-0.156C175.818,135.584,175.971,136.181,175.74,136.599z M181.266,138.24
			c-1.127,0.464-1.002-0.714-1.918-0.3c-1.97,0.885,0.756,1.534,1.19,2.866c-0.783,0.375-1.349,0.292-1.998,0.386
			c-2.359-1.845-0.99-5.798,2.141-5.046C181.092,136.524,181.577,137.817,181.266,138.24z M243.787,98.233l0.144-0.05
			c0.519,0.939-0.791,2.534-1.485,3.657c-4.009,6.48-10.165,12.774-15.655,18.775c-1.741,0.85-2.751,3.281-4.979,3.1
			c-0.139-1.088,1.061-1.798,1.759-2.441c2.807-2.582,6.199-5.003,8.153-8.021C236.814,108.754,239.743,103.232,243.787,98.233z
			 M235.474,103.515c1.092-1.534,1.785-4.178,3.769-4.64c-0.399,1.833-1.46,3.544-2.434,5.151c-1.979,3.262-5.143,6.108-7.192,9.323
			c-0.382,0.199-0.756,0.423-1.062,0.709c-2.501,2.328-4.088,5.995-7.59,6.833c-0.237-1.77,1.782-2.264,2.676-3.098
			C228.015,113.711,232.151,108.198,235.474,103.515z M233.054,100.433l0.291-0.103c0.458,1.597-0.601,3.683-1.361,4.931
			c-1.562,2.573-3.712,4.89-5.026,7.561c-2.577,1.575-3.351,4.625-6.391,5.58c-0.296-1.162,0.943-1.922,1.56-2.535
			C226.731,111.312,230.309,106.139,233.054,100.433z M229.095,100.866l0.729-0.262c0.879,1.909-0.55,2.728-0.444,4.274
			c-2.088,1.879-2.675,4.468-4.808,6.329c-0.285,0.148-0.152,0.495-0.23,0.741c-1.844,1.111-2.098,3.603-4.465,4.067
			c0.188-2.433,3.336-3.688,4.132-5.923C226.973,107.615,227.759,104.11,229.095,100.866z M224.84,99.097
			c-0.452-0.969,1.385-1.41,2.125-1.419l0.262,0.729C226.659,98.906,225.581,99.005,224.84,99.097z M240.377,74.935
			c-3.184,3.868-7.351,7.272-10.881,10.975c-0.166,0.406-0.722,0.628-0.759,1.094c-2.575,1.455-3.258,4.436-5.757,5.52
			c-0.074-1.761,1.415-3.164,2.548-4.369c1.234-1.314,2.692-2.449,3.539-3.901l1.021-0.364c3.688-4.273,7.674-8.411,13.016-11.905
			C243.28,73.411,241.81,74.67,240.377,74.935z M222.485,87.928c1.36-1.694,3.299-2.944,3.81-4.985
			c3.411-2.944,6.897-6.818,10.212-10.078c1.275-1.253,2.558-2.328,3.845-3.513c0.425-0.394,0.702-1.021,1.143-1.398
			c1.066-0.906,2.679-1.975,3.708-2.973c0.059-0.059,0.854-0.491,1.125-0.074c-0.318,1.825-2.33,2.718-3.78,4.149
			c-0.542,0.54-0.858,1.213-1.385,1.649c-0.994,0.831-2.172,1.353-3.133,2.275c-1.951,1.868-3.944,4.051-5.894,6.06
			c-1.373,1.417-2.383,3.02-3.673,4.443c-2.574,2.843-5.28,5.233-7.413,8.251C220.028,90.369,221.678,88.932,222.485,87.928z
			 M215.974,99.148c0.37-0.23,1.368-0.16,1.76-0.139c1.69-1.037,4.052-1.988,5.605-1.349c1.772,1.776,0.761,4.172,0.922,6.252
			c-0.707,1.89-1.73,3.726-3.109,5.557c-0.789,1.051-1.448,2.747-2.925,2.858c-0.717-0.915,0.445-1.49,1.03-2.178
			c1.157-1.373,3.735-4.843,4.066-6.559c0.491-2.535-0.688-6.138-4.005-3.833c0.008,0.76,0.63,0.737,0.96,1.302
			c1.869,3.209-0.526,8.481-4.013,9.007c-0.464-1.146,0.939-1.414,1.571-2.043c1.526-1.815,2.731-5.194,0.168-7.794
			c-0.246,0.096-0.418,0.027-0.542-0.137c-0.64,0.225-1.092,0.534-1.499,0.868c1.276,1.967,1.631,4.12-0.078,5.293
			c-0.888-1.291,0.871-3.632-1.275-4.48c-1.726-0.074-2.482,1.973-3.438,1.891C210.206,101.79,214.315,100.175,215.974,99.148z
			 M203.812,109.756c0.272,0.575,0.18,0.975-0.418,1.139C203.16,110.339,203.094,109.861,203.812,109.756z M204.146,113.917
			c0.526,1.014,0.199,1.626-0.394,2.113C203.023,115.297,203.123,114.195,204.146,113.917z M200.454,108.656l0.585-0.208
			c0.135,0.388,0.386,0.829,0.02,0.979C200.552,109.748,200.31,108.958,200.454,108.656z M203.468,123.044l0.585-0.208
			c0.123,0.423,0.483,0.956,0.074,1.125C203.47,124.109,203.616,123.53,203.468,123.044z M203.702,126.913l0.437-0.158
			c-0.004,0.24,0.44,0.692,0.117,0.782C203.839,127.71,203.601,127.104,203.702,126.913z M204.02,132.393
			c0.47,0.045,0.575,0.683,0.563,1.113c-0.321,0.168-0.567,0.177-0.779,0.117c-0.135-0.679-0.238-0.589-0.074-1.127
			C203.892,132.54,204.053,132.579,204.02,132.393z M196.422,132.317c1.985,2.449,1.354,6.001-1.306,7.377
			c-0.612,2.014-0.562,4.985-3.652,5.424c-0.532-1.219,1-1.638,1.469-2.336c0.748-1.123,0.622-2.332,0.996-3.649
			c2.408-1.105,2.928-4.184,0.934-6.586c0.395-1.952,2.027-4.258,1.074-6.641c-0.417-1.045-1.546-1.462-1.865-2.457
			c0.257-0.64,1.653-0.175,2.01,0.101C198.621,125.528,197.159,130.671,196.422,132.317z M216.41,121.042
			c0.881,1.811,2.043,3.277,1.192,5.167c-1.104,1.661-2.39,3.232-2.924,5.161c-1.959,3.061-6.508,6.555-10.811,5.19
			c-2.057-0.649-3.416-3.202-3.424-6.342c-0.004-1.105,0.304-2.737,1.403-2.971c0.505,2.48-0.676,5.209,1.09,7.181
			c0.653,0.725,2.837,1.365,4.046,1.181c1.293-0.195,2.837-1.096,3.925-1.899c1.579-1.162,3.104-2.932,3.677-4.443
			c-0.145-0.634-1.035,0.308-1.139-0.416c-0.18-1.139,1.096-0.811,1.688-1.263c1.384-1.055,2.016-3.33,0.776-4.722
			c-1.105,1.049-1.747,4.133-4.237,3.33c-0.372-0.862,0.821-0.987,1.488-1.357c1.014-1.339,2.804-2.311,2.008-4.504
			c-1.353,0.429-2.843,4.835-5.03,2.954c1.974-1.937,4.707-3.51,4.412-6.518c-1.152,0.959-1.595,2.87-3.51,3.067
			c-0.641-2.217,2.806-2.679,2.935-4.671c0.035-0.548-0.319-1.437-0.783-2.188c-1.628,0.646-0.474,2.605-2.531,3.045
			c-0.437-2.033,2.003-3.831,0.07-5.785c-0.998,0.983-0.636,2.609-2.679,3.1c-0.624-2.277,2.152-2.944,1.603-5.182
			c-2.767,0.016-3.778,3.521-5.687,4.342c-0.584-0.801,1.014-3.363,1.818-4.108c1.301-1.201,3.708-1.956,5.346-2.08
			c0.624,0.774,0.098,1.528,0.002,2.302c1.121,1.131,1.761,3.279,3.266,3.603C215.653,115.113,215.084,118.313,216.41,121.042z
			 M224.272,126.453c-0.967,0.638-2.838,1.93-4.135,1.318c0.191-1.302,1.72-1.373,2.603-1.92c0.794-0.493,1.737-1.355,2.552-2.064
			c2.717-2.375,5.812-5.366,8.255-7.73c0.983-0.949,1.696-2.072,2.584-2.899l0.583-0.21c0.405,1.646-1.248,2.318-1.685,3.566
			C230.985,119.073,228.271,123.821,224.272,126.453z M227.827,127.648c2.64-2.896,3.692-7.754,7.736-9.189
			c-0.316,1.716-1.759,4.422-2.894,6.633C231.717,126.952,229.87,131.034,227.827,127.648z M277.18,103.716
			c0.074-0.167,0.369-0.23,0.334-0.448c0.161,0.042,0.323,0.082,0.29-0.105c1.297,2.683,2.363,9.207,4.607,11.021
			c0.9-1.539,1.542-4.141,0.785-6.535c-0.255-0.809-1.773-2.654-0.012-2.794c0.71,0.507,1.256,2.008,1.43,2.616
			c0.251,0.885,0.392,2.41,0.274,3.521c-0.167,1.564-1.69,3.63-1.413,4.785c0.306,1.277,1.869,1.404,1.877,2.948
			c-1.45,0.585-2.102-1.176-3.096-2.675C279.94,112.55,277.328,108.325,277.18,103.716z M266.122,135.323
			c-0.499,0.285-0.812,0.18-1.123,0.074c-0.346-0.688-0.264-1.173,0.507-1.333C265.759,134.384,265.978,134.775,266.122,135.323z
			 M263.135,128.823c1.429-0.872,1.716,0.76,2.191,1.519c0.967,1.546,2.447,2.423,3.506,3.351c1.448-0.246,2.207,0.967,3.595,0.852
			c0.378-1.281-0.988-1.994-1.786-3.145c-1.73-2.505-3.765-7.974-2.822-10.179l0.585-0.208c0.559,2.386,1.419,5.669,2.538,8.469
			c2.24-0.846,0.233-4.734,1.871-6.266c1.763,2.53-0.026,5.371-0.567,7.609c0.739,1.515,1.617,2.731,2.35,4.26
			C269.531,136.817,264.851,134.181,263.135,128.823z M277.718,154.372c0.999,0.629,2.141,2.308,2.246,3.969
			c-1.255,0.433-1.235-1.834-2.203-2.01c-1.01,1.219,1.307,4.011,0.016,5.097c-1.618-1.416-1.446-4.116-1.505-6.042
			c-0.062-2.055-0.164-4.172,0.608-5.65c-0.125-0.343,0.098-0.519-0.168-0.928c0.796-1.765,0.899-3.856,1.788-5.576
			c-1.15-0.25-2.074,1.24-2.354,2.16c-3.07,1.295-2.1,4.5-4.172,6.267c-1.018-3.271,2.295-5.537,3.295-8.257
			c1.771-0.819,2.367-2.193,4.395-2.892C279.259,145.243,277.637,149.404,277.718,154.372z M281.261,141.75l-0.583,0.207
			c0.061-0.21,0.051-0.458-0.117-0.78l0.438-0.156L281.261,141.75z M290.187,146.45c0.68,2.884,0.836,6.446-0.767,7.514
			c-0.601-1.162-0.018-2.552-0.086-3.917c-0.267-5.428-3.665-10.895-7.484-12.622c-0.638,0.181-0.562,0.702-1.355,0.811
			c-1.072-2.519,1.61-2.246,2.761-1.482C285.743,138.404,289.13,141.976,290.187,146.45z M290.999,145.5
			c-0.526-0.55-0.71-1.606,0.352-1.771C292.099,144.253,292.198,145.105,290.999,145.5z M286.972,129.666
			c-2.539,0.692-3.51,2.603-4.999,4.422c-0.937,0.016-2.18,0.683-3.26,1.004c-0.554-1.117,0.567-1.948,0.965-2.813
			c0.562-1.224,1.023-2.946,0.685-4.525c-0.48-2.217-1.921-3.404-2.968-5.52c-0.655-0.7-2.117-0.936-2.012-2.406
			c3.014-0.195,3.603,3.4,5.548,4.925c1.931,1.509,4.588,0.401,7.358,0.326c0.916,0.622,1.454,2.049,2.223,2.989
			C289.999,129.718,288.307,129.299,286.972,129.666z M295.524,139.765c-0.9-0.164-0.563-1.378-0.784-2.188
			c-0.704-2.582-2.794-5.221-3.843-7.51c0.577-0.737,1.51-1.306,2.062-2.055c0.991-0.043,1.369,1.209,2.097,1.718
			c-0.016,1.002-0.981,1.556-1.27,2.429C294.723,134.579,296.99,137.952,295.524,139.765z M307.018,125.447
			c4.579-1.232,9.312,0.031,12.245,2.029c0.135,0.915,0.722,0.866,0.919,1.646c-2.16,0.212-3.198-1.95-5.099-2.287
			c-3.266-0.405-7.557-1.203-11.481,1.48c4.048,1.347,7.607,3.726,10.926,6.617c0.358-0.154,0.538,0.06,0.741,0.23
			c1.544-0.107,3.322-0.704,4.086,0.84c-0.56,0.448-1.193,0.162-1.957,0.043c-1.642-0.257-1.759-0.653-2.878,0.7
			c-3.54-3.363-7.455-5.933-11.877-7.428c-1.113,2.042,1.961,4.237,2.238,5.781c-3.089,0.776-3.198-4.507-4.843-6.165
			C302.35,128.004,303.89,126.285,307.018,125.447z M299.868,136.727c4.471,3.262,10.047,3.404,16.52,2.476
			c1.522,0.624,3.704-0.144,4.784,1.412c-0.698,0.844-2.771,0.25-3.771,0.035c-2.193,0.45-3.813-0.308-6.212,0.581
			c-2.967-0.39-7.022-0.476-9.943-2.034c-1.793-0.957-4.722-2.977-5.007-4.79l0.291-0.104
			C298.07,134.655,298.747,135.912,299.868,136.727z M328.997,95.849c-1.2,1.269-2.707,2.361-3.591,3.755
			c1.538,0.376,3.688-1.519,5.21-1.538c-0.113,1.768-2.393,2.522-4.396,2.893c-0.958,0.175-2.011-0.062-2.833,0.355
			c-0.667,0.339-1.045,1.446-1.864,2.148c-2.123,1.825-4.539,3.566-6.592,5.49c-0.317,0.294-0.437,0.842-0.758,1.096
			c-0.463,0.356-1.115,0.44-1.555,0.719c-1.822,1.164-3.195,2.693-5.061,3.789c3.164,0.824,8.631-0.595,12.732-2.587
			c0.632-0.306,1.326-1.246,2.095-0.585c-1.864,2.999-7.601,4.034-11.314,4.71c-2.536,0.126-5.312-1-7.919,0.861
			c-0.798-2.382-0.219-4.967,0.233-7.161c0.942-4.562,3.083-8.631,5.948-12.333c0.498-0.409,1.557-0.556,1.739-1.115l0.437-0.156
			c0.833,1.546-1.074,2.246-1.746,2.928c-2.621,2.667-3.557,6.398-5.077,9.717c0.168,2.139-1.135,3.583-0.702,5.849
			c2.281-0.111,4.547-2.281,5.748-3.707c-0.172-1.833,0.096-4.107,0.994-5.952c0.963-1.971,2.193-3.954,3.853-5.328
			c0.83-0.688,1.899-2.486,3.342-1.69c-0.708,1.562-2.767,2.488-3.882,3.86c-0.716,0.912-1.104,1.981-1.945,2.835
			c-0.154,1.906-1.434,3.281-1.007,5.463c0.901-0.32,2.223-1.441,2.594-2.41c3.487-1.907,5.35-4.582,8.475-6.66
			c1.037-3.026,0.513-7.428,3.868-8.953c0.44,1.072-0.753,1.64-1.123,2.376c-0.659,1.316-0.869,2.918-1.025,4.482
			c3.07-1.78,4.623-5.326,7.672-7.521C331.618,93.258,330.149,94.63,328.997,95.849z"/>
	</g>
	<rect fill="none" width="640" height="377.774"/>
</g>
</svg>
