<?xml version="1.0" encoding="utf-8"?>
<!-- Generator: Adobe Illustrator 16.0.0, SVG Export Plug-In . SVG Version: 6.00 Build 0)  -->
<!DOCTYPE svg PUBLIC "-//W3C//DTD SVG 1.1//EN" "http://www.w3.org/Graphics/SVG/1.1/DTD/svg11.dtd">
<svg version="1.1" id="图层_1" xmlns="http://www.w3.org/2000/svg" xmlns:xlink="http://www.w3.org/1999/xlink" x="0px" y="0px"
	 width="640px" height="77.258px" viewBox="0 0 640 77.258" enable-background="new 0 0 640 77.258" xml:space="preserve">
<g>
	<path fill="#231815" d="M161.122,16.717v2.244l3.95-0.088v-2.156H161.122z M161.122,19.41v2.336l3.95-0.092v-2.332L161.122,19.41z
		 M170.277,18.781c0.121,0,0.184,0.061,0.184,0.18s-0.062,0.211-0.184,0.27l-3.139,0.092l-0.094,2.244l4.044-0.092v-4.939
		l-3.95,0.092v2.154H170.277z M159.235,14.291c-0.718,0-1.494,0.061-2.332,0.18c0,0-0.062,0-0.182,0l-0.628-0.627l8.979-0.18
		l0.089-2.246c-1.916,0.182-4.012,0.33-6.283,0.447c-0.061,0.062-0.123,0.062-0.18,0c0-0.117,0.029-0.205,0.088-0.266
		c5.089-0.779,9.068-1.707,11.939-2.783l1.529,1.613c0.059,0.182,0,0.301-0.18,0.359c-0.538,0.061-1.436,0.15-2.692,0.27
		c-0.899,0.061-1.616,0.121-2.158,0.18l-0.086,2.336l6.282-0.092l1.259-1.256l1.524,1.438c0.121,0.119,0.09,0.18-0.086,0.18
		l-8.979,0.268v2.066l3.86-0.088l0.717-1.078l2.157,1.078c0.179,0.061,0.179,0.178,0,0.357l-0.452,0.537l-0.088,4.582l0.267,0.447
		c0.062,0.119,0,0.18-0.179,0.18c-0.897-0.121-3.022-0.121-6.376,0v2.516l4.311-0.182l1.08-1.076l1.524,1.258
		c0.061,0.18,0.031,0.266-0.087,0.266l-6.828,0.271v2.695l6.2-0.092l1.345-1.164l1.436,1.256c0.062,0.059,0.093,0.119,0.093,0.18
		c0,0.059-0.062,0.086-0.181,0.086l-16.702,0.449c-1.139,0.119-1.974,0.211-2.514,0.273l-0.628-0.723l8.887-0.178v-2.783l-3.41,0.09
		c-0.601,0-1.255,0.061-1.977,0.18c-0.18,0.062-0.327,0.088-0.446,0.088l-0.72-0.629l6.553-0.178l0.092-2.604
		c-0.421,0-1.018,0-1.796,0c-0.957,0.059-1.706,0.09-2.244,0.09c-0.419,0.539-0.865,0.957-1.345,1.256
		c-0.305,0.123-0.479,0.062-0.54-0.18l0.088-2.602v-3.414c0-0.838,0-1.436,0-1.795c-0.059-0.119-0.027-0.15,0.091-0.09l1.796,0.809
		l3.95-0.09v-2.066L159.235,14.291z"/>
	<path fill="#231815" d="M182.112,12.768c1.617,0.596,2.456,1.164,2.515,1.703c0,0.658-0.237,1.139-0.718,1.438
		c-0.479,0.182-0.746,0.092-0.807-0.268c-0.062-1.199-0.418-2.096-1.078-2.695C181.905,12.826,181.933,12.768,182.112,12.768
		 M185.435,9.982c0-0.182,0.062-0.238,0.179-0.182l2.156,1.35l3.95-0.092l0.09-2.781l2.604,0.539c0.062,0,0.117,0.027,0.18,0.088
		c0,0-0.031,0.062-0.088,0.182c-0.302,0.18-0.478,0.838-0.54,1.973l3.232-0.09l1.258-1.256l1.616,1.346
		c0.118,0.18,0.087,0.271-0.092,0.271l-12.569,0.361l-0.09,0.088l-0.09,6.014c0.359,5.746-2.334,9.969-8.079,12.66
		c-0.121,0-0.182-0.061-0.182-0.178c-0.06-0.062-0.028-0.119,0.088-0.182c4.492-2.395,6.68-6.555,6.555-12.482
		c-1.853,2.096-3.229,3.775-4.129,5.031c-0.299,0.418-0.597,0.598-0.897,0.541c-0.298-0.123-0.39-0.393-0.271-0.809
		c0.36-0.838,0.478-1.588,0.36-2.244c0.299,0.533,1.946-0.512,4.937-3.146v-3.857C185.613,12.045,185.557,11,185.435,9.982z
		 M190.644,20.664c-0.538,0-1.229,0.062-2.062,0.182c-0.242,0.061-0.393,0.092-0.449,0.092l-0.633-0.627l5.391-0.092
		c0-0.301,0-0.568,0-0.809v-1.617l-0.094-2.334l-1.883,0.09c-0.301,0.422-0.839,1.229-1.617,2.424
		c-0.479,0.658-0.84,1.17-1.078,1.527c-0.179,0.059-0.239,0-0.179-0.178c1.02-2.275,1.798-4.67,2.333-7.184l1.978,0.807
		c0.061,0,0.118,0.027,0.179,0.09c0,0-0.029,0.061-0.087,0.18l-0.273,0.359c-0.296,0.479-0.628,0.99-0.986,1.525l5.657-0.088
		l0.897-1.08l1.347,1.26c0,0.119-0.029,0.176-0.091,0.176l-5.388,0.092l1.438,0.449c0.18,0.062,0.211,0.182,0.092,0.359
		l-0.361,0.717l-0.09,2.064c0,0.42,0,0.809,0,1.17l4.22-0.088l1.078-0.988l1.257,1.168c0,0.119-0.027,0.176-0.089,0.176
		l-6.015,0.092c0.536,3.77,2.603,6.436,6.193,7.99c0.182,0.182,0.15,0.299-0.09,0.361c-0.836-0.062-1.793,0.357-2.873,1.256
		c-2.215-1.979-3.41-5.18-3.592-9.607h-0.09c0,4.607-3.472,7.99-10.414,10.145c-0.24-0.059-0.297-0.182-0.18-0.355
		c5.806-2.041,8.707-5.27,8.707-9.703H190.644z"/>
	<path fill="#231815" d="M208.76,13.756c1.86,1.016,2.726,1.793,2.604,2.334c-0.117,0.656-0.478,1.137-1.076,1.434
		c-0.538,0.062-0.838-0.117-0.895-0.539c-0.062-1.256-0.33-2.271-0.81-3.053C208.463,13.756,208.521,13.693,208.76,13.756
		 M209.298,12.855c-0.182,0-0.452,0.031-0.81,0.09c-0.838,0-1.378,0.059-1.616,0.182l-0.721-0.721l7.003-0.088v-0.092l-0.088-3.949
		l2.513,0.715c0.18,0,0.211,0.094,0.094,0.273c-0.184,0.18-0.331,0.479-0.448,0.896v2.156l4.217-0.092l1.437-1.346l1.617,1.613
		c0.119,0.062,0.088,0.154-0.088,0.273l-7.183,0.088v5.387h1.256c0.896-1.676,1.556-3.26,1.973-4.76c0-0.18,0.061-0.207,0.18-0.088
		l2.064,0.809c0.119,0.057,0.181,0.088,0.181,0.088c0,0.061-0.062,0.119-0.181,0.18l-0.446,0.449
		c-1.197,1.316-2.277,2.424-3.234,3.322h4.221l1.258-1.346l1.703,1.523c0.061,0.062,0.092,0.123,0.092,0.182
		c0,0.061-0.061,0.092-0.179,0.092l-7.904,0.088c0.659,2.637,3.443,5,8.353,7.096c0.18,0.057,0.18,0.178,0,0.355
		c-0.659-0.119-1.675,0.391-3.053,1.529c-3.233-2.277-5.058-5.268-5.479-8.98h-0.804l0.086,5.746v3.143
		c-0.24,1.08-0.87,2.006-1.884,2.783c-0.241-0.061-0.36-0.209-0.36-0.447l0.181-5.387l-0.093-3.232
		c-2.451,2.691-5.592,5.148-9.425,7.363c-0.121,0.057-0.211,0.057-0.271,0c0-0.062,0.029-0.15,0.092-0.273
		c3.172-2.395,6.134-5.623,8.887-9.695l-4.757,0.092c-1.018,0-1.796,0.059-2.336,0.176l-0.81-0.715l8.62-0.092v-5.387H209.298z"/>
	<path fill="#231815" d="M241.607,8.904c1.317,0.238,2.033,0.541,2.152,0.896c-0.059,0.361-0.299,0.811-0.718,1.35
		c-0.297,0.18-0.509,0.088-0.628-0.27c-0.241-0.42-0.569-1.049-0.986-1.889C241.365,8.873,241.428,8.844,241.607,8.904
		 M237.029,17.344c1.556,0.418,2.363,0.84,2.421,1.258c0,0.479-0.237,0.898-0.717,1.256c-0.359,0.18-0.569,0.123-0.628-0.18
		c-0.3-1.076-0.69-1.793-1.17-2.154C236.879,17.344,236.906,17.283,237.029,17.344z M244.566,21.207l1.258,1.168
		c0.123,0.057,0.092,0.148-0.088,0.268c-0.839,0.359-2.152,0.809-3.95,1.344c1.256,1.02,3.502,1.918,6.734,2.699
		c0.238,0.057,0.417,0.088,0.538,0.088c0.061,0,0.117,0.029,0.18,0.088c-0.062,0.061-0.119,0.123-0.18,0.18
		c-0.896,0.121-1.886,0.658-2.964,1.615c-2.573-0.775-4.608-2.902-6.105-6.373h0.181c0.417,0.539,0.897,1.049,1.438,1.529
		C242.625,23.029,243.611,22.164,244.566,21.207z M233.615,20.758c-0.599,0-1.317,0.057-2.158,0.18
		c-0.237,0.059-0.417,0.088-0.534,0.088l-0.809-0.627l14.634-0.361l1.168-1.164l1.524,1.346c0.123,0.119,0.094,0.18-0.088,0.18
		l-9.787,0.266l1.526,0.811c-0.12,0.062-0.296,0.18-0.538,0.359c-1.317,0.84-2.307,1.438-2.961,1.799l0.984,0.266
		c0.18,0.061,0.242,0.15,0.18,0.27l-0.718,3.412l4.759-1.076c0.182,0,0.211,0.088,0.088,0.27l-3.856,1.977
		c-0.36,0.236-0.87,0.506-1.528,0.807c-0.361,0.178-0.628,0.33-0.81,0.449c-0.118,0.119-0.181,0.18-0.181,0.18
		s-0.025-0.061-0.086-0.18l-1.35-1.529c0-0.119,0.031-0.18,0.092-0.176l1.438-0.359v-3.863c-2.036,1.139-4.371,2.127-7.004,2.963
		c-0.18-0.057-0.241-0.148-0.18-0.268c3.352-1.377,6.405-3.414,9.156-6.109L233.615,20.758z M233.349,12.318
		c-1.201,0.119-2.008,0.207-2.426,0.27l-0.721-0.631l5.657-0.178c0.18-1.076,0.27-2.275,0.27-3.594l2.064,0.807
		c0.181,0,0.21,0.123,0.092,0.361l-0.271,0.359c-0.059,0.66-0.177,1.346-0.356,2.066l7.361-0.18l1.076-1.258l1.525,1.35
		c0.062,0.119,0,0.205-0.18,0.266l-7.9,0.182l1.258,0.629c0.119,0.059,0.119,0.148,0,0.268l-0.18,0.447l-0.267,1.529
		c1.735-1.018,2.872-1.768,3.408-2.244l0.988,1.164c0.061,0.121,0,0.18-0.182,0.18c-1.076,0.602-2.511,1.229-4.309,1.889
		c0.062,0.236,0.272,0.355,0.628,0.355c0.542,0.061,1.35,0.092,2.426,0.092c0.959-0.061,1.617-0.123,1.977-0.18
		c0.417,0.057,0.807-0.389,1.17-1.348c0.057-0.119,0.117-0.18,0.176-0.18c0.12,0.061,0.179,0.148,0.179,0.271
		c-0.119,0.537,0.092,0.959,0.628,1.256c0.421,0.717,0.15,1.256-0.807,1.617c-1.676,0.418-3.652,0.48-5.924,0.18
		c-0.838-0.18-1.38-0.721-1.618-1.617c-0.421,0.119-1.078,0.33-1.975,0.629c-1.078,0.359-1.886,0.629-2.426,0.809
		c-0.118,0-0.181-0.031-0.181-0.092c0-0.059,0.031-0.119,0.094-0.182c1.672-0.652,3.141-1.287,4.398-1.883c0-0.18,0-0.33,0-0.449
		l0.179-1.705l0.092-1.436l-1.708,0.088c-0.84,3.295-3.771,5.957-8.801,7.992c-0.057,0.061-0.119,0.029-0.18-0.088
		c-0.057-0.062-0.057-0.123,0-0.182c4.073-1.977,6.468-4.52,7.185-7.631H233.349z"/>
	<path fill="#231815" d="M262.507,17.344c2.036,1.076,3.085,1.918,3.143,2.514c0,0.66-0.327,1.168-0.986,1.529
		c-0.6,0.238-0.898,0.119-0.898-0.361c-0.299-1.557-0.777-2.723-1.437-3.502c0,0,0-0.029,0-0.088
		C262.27,17.375,262.328,17.344,262.507,17.344 M255.686,12.768v5.117l2.244-0.092c0.3,0.123,0.3,0.299,0,0.541h-2.244v6.555
		l2.962-0.092l0.091-12.658l-2.872,0.088L255.686,12.768z M264.484,15.191c-0.839,0-1.646,0.057-2.426,0.176l-0.895-0.627
		l6.194-0.176l0.089-1.438c0-0.781-0.031-1.797-0.089-3.053c0-0.658,0-1.107,0-1.35c0-0.119,0-0.178,0-0.178
		c0.058-0.059,0.147-0.059,0.269,0l2.244,0.898c0.119,0,0.119,0.09,0,0.268l-0.268,0.717v4.041h0.987l1.166-1.344l1.527,1.344
		c0.117,0.182,0.088,0.301-0.093,0.361l-3.588,0.088l-0.093,7.094l0.093,3.863c0.117,1.734-0.928,3.109-3.146,4.129
		c-0.237,0.059-0.354,0-0.354-0.18c0.057-0.896-0.211-1.5-0.81-1.797c-0.122-0.238-0.061-0.359,0.18-0.359
		c1.437,0.121,2.064-0.059,1.886-0.539V15.012L264.484,15.191z M261.431,11.691c0.121,0.057,0.121,0.148,0,0.266l-0.54,0.719v8.262
		l0.092,3.951c-0.179,1.193-0.659,2.152-1.435,2.873c-0.242,0.238-0.422,0.33-0.542,0.268c-0.18-0.057-0.268-0.211-0.268-0.449
		c-0.118-0.957-0.298-1.703-0.54-2.244h-2.513v0.359c0,0.959-0.417,1.885-1.258,2.781c-0.117,0.123-0.241,0.18-0.358,0.18
		c-0.121-0.057-0.18-0.18-0.18-0.355l0.09-4.314l0.09-9.695c0-0.535-0.031-1.346-0.09-2.426c0-0.596,0-0.984,0-1.162
		c0-0.062,0.027-0.123,0.09-0.182c0,0,0.061,0.031,0.18,0.09l1.617,1.168l2.872-0.088l0.81-1.08L261.431,11.691z"/>
	<path fill="#231815" d="M279.641,30.541l-0.269-0.088c1.556-1.02,2.245-2.033,2.064-3.053h-0.361
		c-1.076-0.061-1.646-0.539-1.703-1.436c0.058-0.898,0.627-1.375,1.703-1.438c1.139,0,1.704,0.777,1.704,2.334
		C282.425,28.477,281.376,29.707,279.641,30.541"/>
	<path fill="#231815" d="M303.775,23.09c-0.841,0.062-1.647,0.15-2.426,0.27l-0.716-0.717l11.4-0.18l1.437-1.438l1.616,1.525
		c0.119,0.123,0.119,0.209,0,0.271L303.775,23.09z M316.883,17.523l0.99-1.256l2.062,1.256c0.121,0,0.121,0.062,0,0.182
		l-0.718,0.988c-0.419,4.309-1.078,7.303-1.975,8.977c-0.54,1.018-1.765,1.887-3.681,2.605c-0.123,0.061-0.211,0.092-0.271,0.092
		c-0.058-0.062-0.089-0.154-0.089-0.273c0.179-0.957-0.088-1.586-0.808-1.887c-0.062-0.059-0.09-0.146-0.09-0.266
		c0.059-0.061,0.121-0.061,0.178,0c0.659,0,1.199,0,1.616,0c1.318-0.123,2.246-3.414,2.784-9.877l-10.146,0.178
		c-0.3,0.838-0.959,1.465-1.973,1.889c-0.241,0.117-0.39,0.025-0.448-0.273l1.345-7.719c0.18-1.734,0.271-2.996,0.271-3.773
		l2.513,0.988c0.119,0.062,0.119,0.15,0,0.27l-0.272,0.359l-0.448,2.336l9.34-0.18l1.344-1.436l1.891,1.703
		c0.117,0.062,0.117,0.119,0,0.182l-12.662,0.268l-0.808,4.85L316.883,17.523z"/>
	<path fill="#231815" d="M334.733,22.014c1.497,0.537,2.273,1.047,2.336,1.525c0.059,0.539-0.18,1.02-0.722,1.436
		c-0.534,0.18-0.838,0.092-0.896-0.266c-0.117-1.139-0.421-1.949-0.899-2.426c-0.057-0.059-0.057-0.119,0-0.182
		C334.552,22.045,334.612,22.014,334.733,22.014 M327.82,23.09c0-0.119,0.027-0.18,0.089-0.18c0.061,0,0.117,0.031,0.18,0.092
		c0.839,2.035,1.076,3.502,0.718,4.398c-0.538,0.541-1.135,0.807-1.794,0.807c-0.36,0-0.571-0.086-0.627-0.266
		c-0.062-0.18,0.026-0.391,0.267-0.629C327.431,26.174,327.82,24.77,327.82,23.09z M340.75,15.549
		c2.273,1.316,3.56,2.275,3.858,2.871c0.123,0.541-0.209,1.107-0.984,1.711c-0.242,0.18-0.422,0.236-0.54,0.18
		c-0.182-0.062-0.299-0.273-0.36-0.633c-0.359-1.436-1.076-2.75-2.152-3.949C340.509,15.549,340.571,15.49,340.75,15.549z
		 M340.926,23.002c2.636,0.48,4.043,1.076,4.223,1.795c0,0.719-0.237,1.346-0.718,1.889c-0.421,0.299-0.779,0.176-1.08-0.361
		c-0.834-1.436-1.673-2.457-2.511-3.053c-0.121-0.062-0.152-0.119-0.09-0.182C340.75,23.029,340.809,23.002,340.926,23.002z
		 M334.913,14.74l1.616,0.9c0.118,0.057,0.179,0.119,0.179,0.18c0.061,0,0.031,0.059-0.091,0.18
		c-1.077,1.611-2.694,3.352-4.847,5.207c-0.242,0.061-0.299,0-0.18-0.182C333.146,19.172,334.254,17.076,334.913,14.74z
		 M339.85,19.143c0,1.436-0.866,2.66-2.601,3.68c-0.121,0.057-0.18,0.031-0.18-0.09c0-0.838-0.273-1.377-0.808-1.619
		c-0.124,0-0.124-0.088,0-0.268c1.076,0.119,1.554-0.088,1.436-0.627l0.089-4.67l-0.181-2.514c0-0.18,0.061-0.236,0.181-0.18
		l2.156,0.809c0.18,0,0.207,0.092,0.088,0.268l-0.269,0.633v2.332L339.85,19.143z M342.095,10.969l0.901-0.895l2.24,1.883
		c0.061,0.059,0.092,0.15,0.092,0.27c-0.062,0.061-0.148,0.092-0.27,0.092c-0.898,0.059-2.062,0.537-3.499,1.438
		c-0.182,0.057-0.242,0-0.182-0.182l0.717-2.062l-5.653,0.088c-0.841,1.018-2.277,2.332-4.311,3.949
		c-0.061,0.061-0.15,0.061-0.271,0c-0.058-0.059-0.058-0.119,0-0.182c1.978-2.213,3.412-4.578,4.31-7.09l2.064,0.988
		c0.123,0.057,0.092,0.15-0.088,0.27l-0.27,0.357c-0.121,0.119-0.271,0.33-0.452,0.629c-0.235,0.236-0.417,0.447-0.534,0.629
		L342.095,10.969z M324.048,18.873c-0.119,0.059-0.207,0.059-0.268,0c0-0.123,0.029-0.211,0.088-0.271
		c3.772-2.992,6.404-6.434,7.902-10.324l1.885,1.168c0.119,0.059,0.088,0.207-0.088,0.447c-0.9,1.318-1.828,2.484-2.784,3.502v7.27
		c-0.12,0.842-0.511,1.588-1.169,2.246c-0.18,0.119-0.299,0.18-0.357,0.18c-0.123-0.061-0.18-0.148-0.18-0.268l0.088-5.387
		l0.092-2.516C328.177,15.939,326.441,17.258,324.048,18.873z M331.143,22.643l1.616,0.809c0.119,0.057,0.088,0.15-0.092,0.27
		l-0.18,0.357c-0.237,0.779-0.329,1.525-0.269,2.246c0.118,0.537,0.54,0.896,1.255,1.076c1.439,0.119,2.874,0.092,4.312-0.088
		c0.598-0.123,0.868-0.42,0.808-0.9v-1.793c0-0.121,0.031-0.18,0.092-0.18c0.057,0,0.119,0.059,0.177,0.18
		c0.422,1.135,1.197,1.885,2.336,2.242c0.536,0.18,0.808,0.451,0.808,0.809c-0.061,0.359-0.358,0.688-0.899,0.986
		c-2.333,0.959-5.086,1.107-8.26,0.449c-1.137-0.418-1.796-1.164-1.978-2.244c-0.057-1.016-0.057-2.363,0-4.039
		C330.869,22.643,330.963,22.582,331.143,22.643z"/>
	<path fill="#231815" d="M360.484,23.721c3.232,0.838,5.477,1.646,6.733,2.422c0.418,0.898,0.391,1.738-0.089,2.514
		c-0.421,0.66-0.901,0.631-1.435-0.088c-1.561-2.094-3.326-3.623-5.3-4.582C360.273,23.93,360.303,23.838,360.484,23.721
		 M356.714,22.375l1.437,1.973c0.238,0.18,0.18,0.361-0.181,0.541c-2.215,1.973-5.358,3.861-9.429,5.652
		c-0.117,0.062-0.209,0.031-0.268-0.088c0-0.061,0.027-0.148,0.088-0.268c3.712-1.916,6.407-4.49,8.079-7.723
		c0-0.119,0.031-0.18,0.094-0.18C356.534,22.225,356.595,22.252,356.714,22.375z M356.89,14.74v6.646h4.311v-6.734L356.89,14.74z
		 M361.383,8.547l2.334,1.076c0.061,0.059,0.088,0.15,0.088,0.27l-0.356,0.719l-0.092,3.5h2.064l1.256-1.344l1.709,1.615
		c0.119,0.119,0.119,0.182,0,0.182l-5.029,0.088v6.643h3.772l1.345-1.346l1.706,1.525c0.123,0.062,0.092,0.15-0.088,0.271
		l-18.763,0.176c-0.901,0.062-1.741,0.15-2.52,0.271l-0.627-0.719l6.823-0.088l-0.09-6.555h-1.704c-1.08,0-1.914,0.057-2.517,0.18
		l-0.628-0.629l4.849-0.092v-2.152c0-0.539-0.031-1.23-0.086-2.064c0-0.479,0-0.809,0-0.988c0-0.062,0.055-0.094,0.176-0.094
		l2.336,0.99c0.118,0,0.118,0.061,0,0.18l-0.359,0.627l-0.089,3.502l4.311-0.088l0.088-2.785c0-0.359-0.031-0.957-0.088-1.795
		c0-0.537,0-0.867,0-0.986C361.204,8.574,361.261,8.547,361.383,8.547z"/>
	<path fill="#231815" d="M379.319,14.203c-0.181,0.057-0.298,0-0.356-0.182c0-0.178,0.09-0.266,0.269-0.266l5.928-0.092l1.076-1.17
		l1.435,1.262c0.062,0.057,0.09,0.119,0.09,0.176c0,0.062-0.059,0.09-0.176,0.09L379.319,14.203z M381.657,18.064v4.668l3.053-0.09
		l0.088-4.67L381.657,18.064z M385.426,16.447l1.978,0.988c0.119,0.059,0.119,0.119,0,0.176l-0.449,0.809l-0.091,4.223l0.179,0.359
		c0,0.119-0.031,0.182-0.088,0.182c-0.539,0-2.337,0-5.391,0c0,0.537-0.386,1.195-1.164,1.971c-0.181,0.119-0.302,0.15-0.36,0.092
		c-0.061,0-0.09-0.061-0.09-0.18l0.09-3.32l-0.09-2.697c0-0.957,0-1.705,0-2.244c0-0.178,0.061-0.207,0.18-0.088l1.614,0.895
		l2.967-0.176L385.426,16.447z M389.468,9.086l2.152,1.076c0.123,0.18,0.123,0.299,0,0.359l-0.628,0.896v11.766l0.094,3.229
		c0,1.438-0.99,2.637-2.968,3.594c-0.179,0-0.267-0.061-0.267-0.18c0.118-1.02-0.182-1.646-0.897-1.885
		c-0.061,0-0.091-0.031-0.091-0.092c0.06-0.119,0.118-0.18,0.179-0.18c1.076,0.121,1.618,0.061,1.618-0.178l-0.093-16.703
		l-10.505,0.092l0.093,15.805c-0.122,1.014-0.57,2.033-1.349,3.051c-0.18,0.178-0.329,0.238-0.448,0.178
		c-0.18,0-0.27-0.119-0.27-0.357l0.178-5.117V12.676l-0.088-3.141c0-0.182,0.061-0.213,0.18-0.09l1.885,0.984l10.324-0.088
		L389.468,9.086z"/>
	<path fill="#231815" d="M409.112,25.424c1.675,0.541,2.663,1.168,2.961,1.889c0,0.598-0.298,1.076-0.896,1.438
		c-0.54,0.355-0.838,0.236-0.896-0.361c-0.24-1.199-0.688-2.127-1.348-2.785C408.87,25.424,408.933,25.367,409.112,25.424
		 M401.033,8.547l2.064,0.807c0.119,0.062,0.177,0.092,0.177,0.092s-0.058,0.059-0.177,0.178l-0.36,0.719v3.414h0.36l0.984-1.168
		l1.437,1.256c0.061,0.119,0.031,0.209-0.087,0.268l-2.694,0.18l-0.09,3.863c0.239-0.119,0.6-0.27,1.08-0.449
		c0.478-0.242,0.834-0.393,1.076-0.447c0.18,0,0.211,0.055,0.088,0.178c-0.299,0.238-0.747,0.568-1.346,0.984
		c-0.421,0.242-0.719,0.453-0.898,0.629v2.697l0.09,4.396c0.118,1.557-0.688,2.875-2.424,3.951c-0.182,0.062-0.301,0.062-0.36,0
		c-0.057,0-0.057-0.088,0-0.268c0.06-0.721-0.18-1.258-0.716-1.619c-0.119-0.178-0.092-0.297,0.088-0.357
		c1.076,0.18,1.556-0.088,1.437-0.809l0.092-6.643c-1.199,0.896-2.064,1.646-2.604,2.244c-0.119,0.117-0.211,0.09-0.27-0.092
		l-0.807-2.332c0-0.119,0.029-0.182,0.088-0.182c1.02-0.238,2.213-0.627,3.593-1.164v-4.402h-0.722
		c-1.014,0.062-1.795,0.182-2.332,0.361l-0.721-0.721l3.774-0.268v-0.717c0.059-0.959,0.059-2.127,0-3.504c0-0.418,0-0.719,0-0.898
		C400.791,8.547,400.854,8.488,401.033,8.547z M407.584,11.691l-0.176,6.102l3.32-0.182c-0.061-0.236-0.092-0.596-0.092-1.076
		c-0.057-0.477-0.088-0.838-0.088-1.076c-0.061-1.318-0.091-2.691-0.091-4.129c-0.835,0.059-1.613,0.182-2.334,0.361v-0.273
		c3.115-1.014,5.088-1.883,5.927-2.602l1.437,1.795c0.119,0.178,0.061,0.297-0.18,0.357c-1.194,0-2.662,0.09-4.398,0.27l1.705,0.807
		c0.118,0.062,0.118,0.182,0,0.361l-0.449,0.539c0.119,1.795,0.207,3.352,0.27,4.666l1.528-0.088l1.164-1.346l1.616,1.527
		c0.119,0.057,0.119,0.148,0,0.268l-4.217,0.182c0.417,4.369,1.643,7.242,3.677,8.619c0,0,0.031,0.029,0.092,0.088
		c0.237,0.123,0.448,0.092,0.63-0.088l0.627-0.631c0.061-0.061,0.15-0.088,0.268-0.088c0.062,0.059,0.062,0.15,0,0.27
		c-0.417,0.717-0.386,1.525,0.094,2.426c0.18,0.479,0.088,0.834-0.273,1.076c-0.356,0.18-0.834,0.119-1.437-0.182
		c-3.05-1.734-4.845-5.566-5.385-11.49l-3.41,0.18l-0.182,6.732l3.41-2.156c0.182-0.119,0.242-0.057,0.182,0.18l-3.41,3.502
		c-0.9,0.84-1.437,1.438-1.616,1.797c-0.123,0.18-0.273,0.238-0.448,0.18l-1.528-0.988c-0.062,0-0.062-0.061,0-0.18l1.977-1.346
		l-0.094-11.672l-0.18-4.129c0.061-0.242,0.18-0.271,0.361-0.092L407.584,11.691z"/>
	<path fill="#231815" d="M430.281,11.512c0.062-0.182,0.123-0.242,0.182-0.182c1.616,0.957,2.573,1.766,2.872,2.426
		c0,0.654-0.33,1.133-0.983,1.436c-0.479,0.176-0.781,0-0.9-0.539C431.214,13.096,430.823,12.045,430.281,11.512 M425.616,8.547
		l1.973,0.627c0.182,0.061,0.211,0.148,0.092,0.271l-0.359,0.717v3.77l0.72-0.088l1.076-1.076l1.346,1.164
		c0.122,0.18,0.091,0.271-0.088,0.271l-3.054,0.18l-0.089,4.219c1.016-0.479,1.973-0.896,2.874-1.258
		c0.237-0.061,0.269,0,0.087,0.18c-1.076,0.779-2.064,1.5-2.961,2.154l-0.092,3.324l0.092,3.23c0.118,1.498-0.72,2.785-2.518,3.861
		c-0.116,0.062-0.179,0.092-0.179,0.092c-0.057-0.061-0.088-0.18-0.088-0.359c0-0.721-0.238-1.258-0.716-1.619
		c-0.123-0.178-0.094-0.297,0.088-0.357c1.137,0.123,1.647-0.119,1.524-0.719v-6.105c-0.178,0.119-0.448,0.33-0.809,0.629
		c-1.016,0.721-1.613,1.199-1.794,1.436c-0.121,0.119-0.18,0.15-0.18,0.094c0,0.057-0.031,0.025-0.091-0.094l-0.716-2.332
		c0-0.123,0.029-0.18,0.087-0.18c0.299-0.061,1.019-0.299,2.156-0.721c0.6-0.238,1.077-0.416,1.438-0.535v-4.852l-3.053,0.182
		c-0.182,0.061-0.299,0.029-0.361-0.088c0-0.182,0.092-0.305,0.273-0.361l3.141-0.182v-0.986c0-1.977-0.031-3.412-0.092-4.311
		c0-0.119,0.029-0.178,0.092-0.178C425.437,8.488,425.493,8.488,425.616,8.547z M439.353,10.611l1.707,1.434
		c0.118,0.062,0.06,0.182-0.182,0.361l-4.85,4.578l2.518-0.088l1.076-1.256l1.885,1.256c0.117,0,0.117,0.088,0,0.27l-0.629,0.719
		l-0.18,9.695l0.273,0.449c0.057,0.119,0.025,0.178-0.094,0.178c-0.238,0-0.688,0-1.344,0c-0.721-0.059-1.262-0.086-1.618-0.086
		l-7.989,0.18c-0.182-0.004-0.273-0.094-0.273-0.271c0-0.18,0.092-0.268,0.273-0.268l8.707-0.182v-5.297l-7.719,0.18
		c-0.182,0-0.273-0.088-0.273-0.27c0-0.18,0.062-0.271,0.182-0.271l7.811-0.176l0.092-4.402l-7.811,0.18
		c-0.182,0-0.273-0.061-0.273-0.18c-0.057-0.178,0-0.268,0.182-0.268l3.32-0.092v-4.758l-0.088-3.68l2.244,0.539
		c0.182,0.057,0.182,0.211,0,0.449l-0.18,0.627l-0.179,6.373C437.677,13.783,438.813,11.811,439.353,10.611z"/>
	<path fill="#231815" d="M459.446,23.271c-0.299,0.541-0.688,0.957-1.168,1.256c-0.238,0.119-0.448,0.031-0.628-0.268
		c-0.417-1.381-0.896-2.635-1.437-3.773c-1.438,2.273-3.26,4.402-5.475,6.375c-0.18,0.061-0.303,0.061-0.361,0
		c-0.061,0-0.061-0.088,0-0.27c2.395-2.451,4.101-4.967,5.12-7.543c-0.722-1.555-1.528-2.99-2.425-4.309l0.179-0.088
		c0.18,0.236,0.479,0.564,0.897,0.988c0.838,0.895,1.466,1.586,1.885,2.064c0.54-1.438,1.018-3.141,1.435-5.117l1.978,0.986
		c0.119,0.119,0.09,0.27-0.088,0.447l-0.361,0.449c-0.537,1.68-1.167,3.172-1.883,4.49c1.016,1.195,1.854,2.307,2.514,3.322
		C459.746,22.582,459.684,22.91,459.446,23.271 M450.207,9.086c0-0.182,0.06-0.242,0.179-0.182l1.886,0.896v0.453l8.171-0.18
		l0.809-1.35l2.064,1.076c0.18,0.062,0.211,0.182,0.088,0.361l-0.627,0.807c-0.778,9.219-0.088,14.516,2.064,15.893
		c0.18,0.123,0.329,0.092,0.452-0.088l0.536-0.988c0.119-0.059,0.211,0,0.27,0.18c-0.238,0.957-0.15,1.646,0.271,2.064
		c0.36,0.539,0.329,1.02-0.092,1.436c-0.479,0.242-1.107,0.211-1.885-0.088c-3.352-1.139-4.67-7.424-3.95-18.855l-8.171,0.268v5.479
		c0.119,5.686-2.332,10.475-7.362,14.365c-0.119,0-0.181-0.061-0.181-0.18c-0.057-0.061-0.027-0.117,0.091-0.178
		c3.89-3.533,5.748-8.354,5.566-14.455v-3.682L450.207,9.086z"/>
	<path fill="#231815" d="M481.964,16.355c1.617,0.66,2.396,1.256,2.334,1.799c0,0.596-0.298,1.018-0.896,1.256
		c-0.478,0.24-0.747,0.148-0.808-0.268c-0.181-1.139-0.479-2.008-0.896-2.607C481.697,16.355,481.785,16.297,481.964,16.355
		 M475.591,16.447c1.616,0.6,2.395,1.195,2.332,1.795c0,0.6-0.299,1.02-0.896,1.258c-0.539,0.119-0.808,0-0.808-0.357
		c-0.062-0.9-0.36-1.736-0.896-2.516c0-0.121,0-0.18,0-0.18C475.38,16.387,475.472,16.387,475.591,16.447z M481.964,20.846
		c1.68,0.779,2.545,1.498,2.605,2.156c-0.117,0.719-0.479,1.166-1.076,1.346c-0.54,0.242-0.808,0.119-0.808-0.361
		c-0.181-1.312-0.511-2.271-0.988-2.873C481.697,20.877,481.785,20.787,481.964,20.846z M475.591,21.113
		c1.677,0.781,2.514,1.529,2.514,2.246c-0.059,0.6-0.389,1.049-0.989,1.35c-0.536,0.119-0.836,0-0.896-0.361
		c-0.119-1.139-0.417-2.123-0.896-2.961c-0.061-0.119-0.061-0.211,0-0.273C475.38,21.057,475.472,21.057,475.591,21.113z
		 M473.706,10.969c-1.076,0.062-1.886,0.15-2.426,0.27l-0.716-0.809l15.978-0.176l1.438-1.438l1.615,1.705
		c0.123,0.059,0.094,0.15-0.087,0.268l-10.148,0.092l1.528,0.631c0.059,0,0.088,0.088,0.088,0.268l-0.088,0.988v1.885l4.13-0.088
		l0.896-1.082l2.156,1.258c0.119,0.061,0.119,0.18,0,0.359l-0.628,0.809l0.27,9.516c0.18,1.68-0.69,3.084-2.604,4.221
		c-0.238,0.062-0.357,0-0.357-0.18c0-0.777-0.272-1.316-0.809-1.615c-0.123,0-0.18-0.031-0.18-0.088c0-0.119,0.057-0.182,0.18-0.182
		c0.957,0.062,1.376-0.119,1.257-0.539L485.107,15.1l-4.22,0.18v7.184l0.088,4.223c-0.18,0.834-0.777,1.672-1.791,2.514
		c-0.242,0.057-0.361-0.094-0.361-0.449l0.088-5.84v-7.631l-4.398,0.18v11.762c-0.061,0.598-0.478,1.379-1.256,2.336
		c-0.241,0.238-0.421,0.33-0.539,0.27c-0.119,0-0.15-0.119-0.088-0.361l0.088-4.041v-7.539v-4.041l1.977,1.076l4.217-0.18v-1.346
		l-0.088-2.514L473.706,10.969z"/>
	<path fill="#231815" d="M185.259,46.775v2.246l3.949-0.088v-2.158H185.259z M185.259,49.471v2.336l3.949-0.092v-2.334
		L185.259,49.471z M194.414,48.842c0.117,0,0.18,0.062,0.18,0.18c0,0.119-0.062,0.211-0.18,0.268l-3.143,0.092l-0.09,2.246
		l4.04-0.092v-4.938l-3.95,0.092v2.152H194.414z M183.369,44.352c-0.716,0-1.495,0.062-2.333,0.182c0,0-0.061,0-0.18,0l-0.628-0.631
		l8.979-0.18l0.088-2.244c-1.916,0.18-4.01,0.33-6.283,0.449c-0.062,0.061-0.121,0.061-0.18,0c0-0.119,0.031-0.207,0.088-0.27
		c5.087-0.777,9.068-1.703,11.941-2.779l1.529,1.611c0.056,0.18,0,0.303-0.18,0.359c-0.542,0.062-1.439,0.15-2.694,0.27
		c-0.901,0.061-1.616,0.123-2.156,0.18l-0.09,2.336l6.283-0.092l1.262-1.254l1.524,1.434c0.117,0.119,0.086,0.18-0.09,0.18
		l-8.979,0.27v2.064l3.862-0.088l0.715-1.076l2.158,1.076c0.18,0.061,0.18,0.18,0,0.361l-0.452,0.535l-0.087,4.582l0.269,0.449
		c0.061,0.119,0,0.178-0.182,0.178c-0.896-0.121-3.023-0.121-6.373,0v2.514l4.309-0.18l1.08-1.076l1.524,1.256
		c0.062,0.18,0.031,0.27-0.088,0.27l-6.825,0.271V58l6.196-0.092l1.345-1.164L200.159,58c0.062,0.059,0.092,0.119,0.092,0.182
		c0,0.057-0.061,0.088-0.179,0.088l-16.703,0.449c-1.137,0.117-1.973,0.209-2.513,0.27l-0.628-0.719l8.887-0.18v-2.781l-3.408,0.088
		c-0.603,0-1.258,0.062-1.978,0.18c-0.179,0.061-0.329,0.088-0.447,0.088l-0.722-0.627l6.555-0.182l0.093-2.602
		c-0.421,0-1.02,0-1.797,0c-0.957,0.059-1.704,0.088-2.246,0.088c-0.417,0.541-0.865,0.959-1.344,1.258
		c-0.302,0.123-0.479,0.061-0.539-0.182l0.087-2.6v-3.414c0-0.838,0-1.436,0-1.795c-0.056-0.119-0.027-0.15,0.092-0.088l1.798,0.807
		l3.949-0.092v-2.064L183.369,44.352z"/>
	<path fill="#231815" d="M206.249,42.826c1.615,0.6,2.454,1.166,2.511,1.707c0,0.658-0.238,1.137-0.716,1.436
		c-0.478,0.18-0.746,0.092-0.809-0.27c-0.061-1.197-0.418-2.096-1.076-2.691C206.04,42.885,206.067,42.826,206.249,42.826
		 M209.568,40.043c0-0.18,0.061-0.238,0.182-0.18l2.156,1.348l3.95-0.092l0.086-2.783l2.606,0.543c0.061,0,0.119,0.025,0.181,0.088
		c0,0-0.031,0.061-0.089,0.178c-0.305,0.182-0.479,0.84-0.54,1.975l3.234-0.088l1.256-1.258l1.615,1.346
		c0.119,0.18,0.088,0.27-0.091,0.27l-12.569,0.361l-0.088,0.088l-0.094,6.016c0.36,5.746-2.332,9.967-8.079,12.66
		c-0.117,0-0.18-0.061-0.18-0.18c-0.061-0.061-0.031-0.119,0.09-0.18c4.488-2.395,6.676-6.555,6.555-12.48
		c-1.856,2.096-3.23,3.771-4.132,5.029c-0.298,0.418-0.596,0.598-0.895,0.541c-0.3-0.123-0.392-0.391-0.272-0.811
		c0.36-0.838,0.479-1.584,0.36-2.244c0.299,0.537,1.943-0.51,4.938-3.145v-3.857C209.75,42.107,209.691,41.061,209.568,40.043z
		 M214.778,50.727c-0.54,0-1.23,0.062-2.064,0.182c-0.242,0.061-0.391,0.092-0.449,0.092l-0.631-0.631l5.389-0.092
		c0-0.297,0-0.566,0-0.807v-1.617l-0.09-2.332l-1.886,0.088c-0.298,0.42-0.84,1.229-1.616,2.424
		c-0.479,0.66-0.838,1.168-1.076,1.529c-0.182,0.057-0.241,0-0.182-0.182c1.021-2.275,1.796-4.67,2.334-7.182l1.978,0.809
		c0.06,0,0.118,0.027,0.179,0.088c0,0-0.031,0.061-0.088,0.18l-0.271,0.359c-0.3,0.479-0.63,0.988-0.99,1.525l5.657-0.088
		l0.897-1.08l1.349,1.26c0,0.119-0.031,0.176-0.092,0.176l-5.387,0.094l1.438,0.447c0.182,0.061,0.212,0.18,0.092,0.359
		l-0.359,0.717l-0.094,2.064c0,0.422,0,0.809,0,1.168l4.224-0.088l1.076-0.988l1.255,1.168c0,0.119-0.027,0.178-0.088,0.178
		l-6.014,0.092c0.537,3.77,2.601,6.436,6.195,7.992c0.18,0.178,0.148,0.297-0.094,0.357c-0.834-0.061-1.793,0.357-2.871,1.258
		c-2.215-1.977-3.41-5.18-3.59-9.607h-0.094c0,4.609-3.47,7.992-10.41,10.145c-0.242-0.059-0.301-0.18-0.18-0.357
		c5.802-2.037,8.707-5.268,8.707-9.699H214.778z"/>
	<path fill="#231815" d="M233.435,54.498c1.678,0.719,2.725,1.406,3.143,2.068c0.18,0.297,0.031,0.834-0.448,1.615
		c-0.301,0.299-0.567,0.238-0.808-0.182c-0.599-1.734-1.289-2.842-2.066-3.32C233.196,54.498,233.255,54.438,233.435,54.498
		 M231.999,42.916c0-0.238,0.061-0.361,0.18-0.361l1.17,0.541c0.235,0,0.296,0.211,0.18,0.627c0.056,5.328-0.273,8.92-0.989,10.775
		c-0.54,1.975-2.064,3.982-4.581,6.016c-0.238,0.119-0.299,0.062-0.178-0.18c1.973-1.797,3.199-3.799,3.677-6.014
		C231.999,52.164,232.179,48.363,231.999,42.916z M239.722,51.895l-0.092,5.025l4.402-0.176l-0.094-4.938L239.722,51.895z
		 M243.851,51.266l0.897-1.076l1.977,1.164c0.18,0.062,0.211,0.15,0.088,0.273l-0.536,0.627l0.088,4.49l0.094,0.357
		c0.057,0.18,0.025,0.271-0.094,0.271c-0.359,0-0.747,0-1.168,0c-0.599-0.061-2.422-0.029-5.475,0.088
		c-0.061,0.777-0.479,1.586-1.258,2.424c-0.3,0.182-0.45,0.15-0.45-0.086l0.092-3.594v-5.748c0-0.117,0.059-0.148,0.18-0.088
		l1.437,0.984L243.851,51.266z M240.17,42.646c-0.957,0-1.767,0.061-2.425,0.18l-0.628-0.627l3.593-0.092l0.088-3.41l2.334,0.535
		c0.18,0.062,0.18,0.182,0,0.361l-0.18,0.719l-0.178,1.707h2.602l0.988-1.076l1.437,1.164c0.061,0.123,0.092,0.182,0.092,0.182
		c-0.062,0.061-0.121,0.092-0.179,0.092l-3.147,0.086l1.35,1.076c0.12,0.123,0.12,0.271,0,0.449l-1.884,4.133l2.692-0.092
		l1.076-1.078l1.348,1.258c0.12,0.119,0.12,0.211,0,0.27l-10.057,0.271c-0.898,0-1.708,0.059-2.423,0.18l-0.361-0.359
		c0,0.416,0.031,1.045,0.094,1.883c0,0.662,0,1.139,0,1.438c-0.242,0.896-0.721,1.617-1.438,2.152c-0.18,0.062-0.301,0-0.358-0.176
		V40.762l-3.232,0.182l-0.449,0.535l-0.182,10.598c-0.118,0.895-0.417,1.703-0.895,2.422c-0.125,0.119-0.211,0.182-0.272,0.182
		c-0.119,0-0.18-0.092-0.18-0.271l0.18-10.686c0-1.854-0.059-3.26-0.18-4.217c0-0.18,0.092-0.242,0.271-0.18l1.707,1.164
		c0,0,0.03,0,0.085,0l3.234-0.088l0.63-0.988l1.528,0.898c0.117,0.059,0.117,0.15,0,0.27l-0.448,0.717l-0.094,7.002l2.695-0.088
		c0-2.096-0.031-3.352-0.09-3.768c0-0.182,0.059-0.242,0.179-0.182l1.346,0.809c0,0.057,0.031,0.119,0.093,0.18
		c0.057,0.059,0.088,0.119,0.088,0.176l-0.088,2.785l2.065-0.088c1.016-3.053,1.466-4.91,1.343-5.57L240.17,42.646z"/>
	<path fill="#231815" d="M261.61,48.213c2.277,1.139,3.441,2.096,3.502,2.875c0,0.719-0.359,1.316-1.076,1.795
		c-0.539,0.182-0.87,0-0.987-0.541c-0.36-1.854-0.9-3.172-1.618-3.949c0,0,0-0.029,0-0.092
		C261.37,48.244,261.431,48.213,261.61,48.213 M251.735,51.627c-0.123,0.057-0.211,0.027-0.271-0.092
		c-0.058-0.059-0.058-0.119,0-0.182c3.65-4.068,6.286-8.469,7.902-13.197l2.064,1.17c0.121,0.057,0.09,0.18-0.092,0.355
		l-0.267,0.361c-0.78,1.377-1.618,2.691-2.515,3.949l0.09,13.65c-0.059,0.838-0.48,1.672-1.256,2.512
		c-0.121,0.119-0.238,0.18-0.363,0.18c-0.117,0-0.175-0.088-0.175-0.268l0.089-6.02l0.086-8.078
		C255.835,47.404,254.069,49.289,251.735,51.627z M263.049,45.428c-0.181,0-0.448,0.031-0.809,0.094
		c-0.778,0-1.318,0.061-1.616,0.178l-0.896-0.627l7.09-0.18v-1.705c0-2.037,0-3.506,0-4.402c-0.057-0.18,0-0.236,0.182-0.18
		l2.332,0.9c0.123,0.119,0.123,0.238,0,0.357l-0.27,0.627v4.309h0.99l1.166-1.342l1.527,1.342c0.179,0.182,0.149,0.305-0.088,0.361
		l-3.596,0.092l-0.088,6.824l0.088,3.768c0,1.799-1.045,3.234-3.141,4.311c-0.298,0.119-0.448,0.029-0.448-0.27
		c0.119-0.838-0.123-1.436-0.72-1.795c-0.119-0.059-0.148-0.119-0.09-0.182c0-0.057,0.059-0.088,0.182-0.088
		c1.495,0.059,2.154-0.119,1.973-0.539V45.34L263.049,45.428z"/>
	<path fill="#231815" d="M294.093,40.582c0.062,0.18,0,0.299-0.175,0.361c-3.533,0.299-6.884,0.504-10.057,0.627l-0.091-0.182
		c3.949-0.898,6.733-1.826,8.352-2.783L294.093,40.582z M285.927,50.908v5.564l6.014-0.088v-5.658L285.927,50.908z M281.255,40.135
		l2.066,1.254l-0.269,0.449v3.949l10.684-0.088l1.346-1.527l1.708,1.615c0.12,0.182,0.09,0.301-0.092,0.361l-13.646,0.18
		c0,3.473-0.509,6.076-1.528,7.812c-0.835,1.734-2.781,3.561-5.834,5.479c-0.121,0.057-0.211,0.057-0.269,0
		c0-0.123,0.027-0.211,0.089-0.273c2.395-1.734,3.893-3.441,4.488-5.117c0.718-1.736,1.076-4.609,1.076-8.619v-2.693
		c0-1.557-0.029-2.426-0.088-2.604C280.987,40.135,281.075,40.074,281.255,40.135z M291.853,50.277l0.983-1.256l2.066,1.256
		c0.062,0.062,0.092,0.15,0.092,0.27l-0.54,0.719l0.092,5.119l0.181,0.629c0.057,0.18,0.057,0.268,0,0.268
		c0,0.062-0.093,0.092-0.272,0.092c-1.854-0.18-4.367-0.271-7.543-0.271c-0.479,0-0.806,0-0.984,0v0.627
		c-0.18,0.902-0.751,1.617-1.709,2.156c-0.179,0-0.3-0.09-0.356-0.266l0.088-3.775v-3.41l-0.088-2.963
		c0.057-0.238,0.178-0.301,0.356-0.182l1.709,1.168L291.853,50.277z"/>
	<path fill="#231815" d="M303.775,60.604l-0.27-0.09c1.556-1.018,2.244-2.033,2.065-3.053h-0.359
		c-1.076-0.061-1.649-0.541-1.706-1.438c0.057-0.895,0.63-1.375,1.706-1.436c1.137,0,1.704,0.779,1.704,2.332
		C306.56,58.537,305.511,59.768,303.775,60.604"/>
	<path fill="#231815" d="M335.54,40.943l-0.089,4.037l5.299-0.088l0.09-4.043L335.54,40.943z M323.96,51.627
		c-0.062,0.057-0.119,0.057-0.18,0c-0.062-0.123-0.062-0.211,0-0.273c3.17-3.408,5.715-7.75,7.631-13.018l1.977,1.17
		c0.117,0.057,0.117,0.176,0,0.357l-0.362,0.357c-0.895,1.617-1.853,3.117-2.872,4.49l0.268,12.932
		c-0.117,0.658-0.565,1.436-1.344,2.332c-0.122,0.121-0.239,0.18-0.36,0.18c-0.061,0-0.117-0.088-0.179-0.27l0.179-6.014v-7.273
		C327.282,48.455,325.695,50.127,323.96,51.627z M341.647,39.506l1.703,1.076c0.123,0.059,0.123,0.15,0,0.268l-0.536,0.629
		l-0.091,3.502l0.179,0.271c0,0.119-0.029,0.176-0.088,0.176c-0.179,0-0.509,0-0.988,0c-2.456-0.057-4.608-0.025-6.465,0.094
		c-0.121,0.539-0.448,0.988-0.986,1.342c-0.18,0.123-0.303,0.154-0.358,0.092c-0.062,0-0.094-0.061-0.094-0.18v-3.053V42.02
		c0-1.258-0.025-2.008-0.086-2.246c0-0.119,0.086-0.119,0.267,0l1.616,0.717l5.03-0.088L341.647,39.506z M335.003,49.289
		c-1.316,0.062-2.217,0.182-2.695,0.361l-0.717-0.717l5.833-0.092v-0.988l-0.086-1.975c0-0.18,0.059-0.238,0.18-0.18l1.884,0.898
		c0.181,0,0.241,0.119,0.181,0.357l-0.181,0.811v0.988l3.413-0.092l1.164-1.258l1.528,1.35c0.059,0.18,0.031,0.268-0.09,0.268
		l-5.655,0.18c0.84,2.994,2.993,5.207,6.463,6.643c0.121,0.061,0.18,0.119,0.18,0.18c0,0.062-0.059,0.119-0.18,0.182
		c-0.597-0.119-1.493,0.299-2.694,1.256c-2.152-1.797-3.471-4.547-3.948-8.26h-0.181v5.119l0.09,3.141
		c-0.059,0.84-0.6,1.678-1.615,2.514c-0.179,0.121-0.327,0.148-0.452,0.092c-0.116-0.062-0.147-0.182-0.086-0.359l0.086-5.027
		v-2.873c-1.735,2.334-3.919,4.43-6.555,6.283c-0.116,0.061-0.206,0.061-0.267,0c0-0.119,0.029-0.211,0.092-0.27
		c2.452-2.215,4.517-5.057,6.195-8.531H335.003z"/>
	<path fill="#231815" d="M365.062,47.137l-5.747,0.18v1.885l4.942-0.18c0.178-0.062,0.268,0,0.268,0.18
		c0,0.119-0.09,0.18-0.268,0.18l-4.942,0.182v1.883l5.658-0.18L365.062,47.137z M360.484,41.838c-0.182,0-0.448,0.031-0.81,0.09
		c-0.84,0-1.374,0.061-1.615,0.18l-0.629-0.719l3.861-0.09l0.091-2.873l2.334,0.541c0.18,0.119,0.18,0.266,0,0.447l-0.269,0.721
		l-0.092,1.164l2.338-0.088l1.076-1.076l1.435,1.254c0.059,0.119,0.09,0.182,0.09,0.182c-0.059,0.057-0.119,0.088-0.18,0.088
		l-3.41,0.092l0.896,0.896c0.062,0.061,0.062,0.15,0,0.27c0.062-0.119,0.031-0.09-0.088,0.092l-1.078,1.525l3.053-0.088l0.986-0.988
		l1.438,1.166c0.061,0.119,0.092,0.176,0.092,0.176c-0.061,0.062-0.121,0.094-0.18,0.094l-10.777,0.18
		c-1.193,0.119-2.003,0.207-2.424,0.268l-0.63-0.717h3.502c0-0.9-0.027-1.588-0.086-2.068c0-0.119,0.059-0.15,0.179-0.088
		l1.344,0.629c0.123,0,0.182,0.092,0.182,0.27l-0.09,1.258l1.706-0.09c0.778-1.195,1.137-2.129,1.076-2.783L360.484,41.838z
		 M354.288,40.135l0.897-0.902l1.528,1.17c0.119,0.061,0.148,0.119,0.088,0.18c0,0.059-0.057,0.119-0.18,0.18l-0.448,0.537
		c-0.716,1.197-1.647,2.604-2.782,4.223c2.334,1.854,3.471,3.588,3.41,5.205c-0.119,1.379-0.988,2.363-2.602,2.965
		c-0.061,0.057-0.092,0.031-0.092-0.092c0.117-0.836-0.149-1.436-0.807-1.793c-0.121-0.061-0.09-0.123,0.09-0.18
		c0.959,0.119,1.407-0.062,1.346-0.539c0.298-1.855-0.27-3.713-1.705-5.566c0.479-1.438,0.927-2.994,1.346-4.672
		c0.059-0.117,0.09-0.209,0.09-0.268l-2.336,0.18l-0.088,11.492v4.398c0,1.318-0.392,2.455-1.168,3.414
		c-0.358,0.299-0.568,0.299-0.627,0l0.179-6.02l0.268-14.902l1.437,1.076L354.288,40.135z M359.314,51.895
		c-0.117,0.301-0.386,0.658-0.804,1.076c-0.122,0.062-0.241,0.094-0.36,0.094c-0.061-0.062-0.091-0.15-0.091-0.273v-4.578
		c0-0.896-0.027-1.465-0.09-1.703c0-0.062,0.062-0.092,0.181-0.092l1.164,0.445l5.57-0.174l0.716-0.811l1.705,0.984
		c0.123,0,0.15,0.062,0.092,0.182l-0.358,0.629v2.965c0,0.715-0.362,1.406-1.078,2.064c-0.298,0.361-0.54,0.387-0.72,0.088
		c-0.3-0.418-0.507-0.777-0.628-1.076l-2.873,0.092l1.349,0.357c0.18,0.061,0.211,0.209,0.086,0.447l-0.18,0.359v1.709l3.862-0.092
		l1.078-1.17l1.528,1.262c0.059,0.119,0.086,0.176,0.086,0.176c-0.057,0.062-0.117,0.092-0.179,0.092l-6.376,0.182l-0.088,3.32
		c0,0.598-0.39,1.289-1.167,2.064c-0.479,0.361-0.718,0.33-0.718-0.088l0.09-5.297l-2.602,0.088c-0.304,0-0.689,0.031-1.169,0.092
		c-0.597,0-1.019,0.027-1.256,0.088l-0.722-0.629l5.748-0.088v-0.633l-0.09-2.24L359.314,51.895z"/>
	<path fill="#231815" d="M391.894,46.328l1.437,1.438c0.057,0.117,0.025,0.209-0.092,0.268l-0.448,0.18
		c-1.498,0.6-2.812,1.139-3.95,1.617l-0.094-0.18C390.064,48.574,391.111,47.467,391.894,46.328 M372.229,51.535
		c-0.062,0.061-0.119,0.092-0.18,0.092c-0.062-0.062-0.094-0.15-0.094-0.273c3.176-3.83,5.51-8.107,7.007-12.836l1.794,1.076
		c0.121,0.061,0.092,0.15-0.09,0.27l-0.268,0.271c-0.539,1.312-1.261,2.631-2.156,3.949l-0.088,13.469
		c-0.122,0.836-0.51,1.643-1.169,2.422c-0.359,0.299-0.565,0.299-0.628,0l0.18-6.014l0.181-7.633
		C375.282,48.301,373.784,50.041,372.229,51.535z M382.733,43.188c-0.3,0-0.721,0.027-1.258,0.088c-0.656,0-1.076,0.031-1.257,0.09
		l-0.808-0.631l5.475-0.088l0.094-3.68l2.332,0.715c0.121,0,0.18,0.031,0.18,0.092c0.062,0.062,0.031,0.15-0.088,0.27l-0.271,0.627
		l-0.09,1.977l3.592-0.092l1.347-1.344l1.438,1.436c0.118,0.119,0.118,0.211,0,0.27l-7.9,0.18l1.704,0.807
		c0.238,0.119,0.238,0.27,0,0.449l-0.268,0.271c0.238,5.207,2.752,9.486,7.54,12.838c0.122,0.062,0.179,0.119,0.179,0.182
		c0,0-0.057,0-0.179,0c-1.139-0.062-2.153,0.357-3.054,1.254c-3.111-3.172-4.696-7.871-4.757-14.098l-0.09,0.094
		c-0.597,1.014-1.317,2.062-2.156,3.141l-0.269,8.711l3.143-1.889c0.18-0.057,0.241,0,0.18,0.182l-3.142,3.053
		c-0.36,0.299-0.84,0.775-1.437,1.438c0.479-0.48,0.448-0.42-0.092,0.18c-0.178,0.061-0.299,0.088-0.356,0.092l-1.528-1.262
		c-0.059-0.057-0.059-0.148,0-0.268c0.118-0.061,0.3-0.15,0.539-0.27c0.48-0.18,0.866-0.299,1.168-0.357l-0.09-7.453
		c-0.479,0.537-1.228,1.314-2.245,2.334c-0.659,0.658-1.139,1.168-1.438,1.523c-0.235-0.057-0.329-0.148-0.267-0.268
		c2.632-3.232,4.694-6.762,6.193-10.592H382.733z"/>
	<path fill="#231815" d="M413.603,41.211c1.195,0.297,1.885,0.717,2.064,1.256c0,0.541-0.24,0.928-0.72,1.168
		c-0.356,0.119-0.567,0.031-0.628-0.27c-0.119-0.898-0.388-1.557-0.809-1.977C413.452,41.273,413.483,41.211,413.603,41.211
		 M404.804,55.756c0.061-0.119,0.148-0.119,0.267,0c0.901,0.957,1.381,1.736,1.438,2.334c0,0.119-0.031,0.299-0.088,0.541
		c0.057-0.119,0.031-0.062-0.092,0.178c-0.182,0.238-0.448,0.449-0.81,0.629c-0.535,0.182-0.777-0.029-0.715-0.629
		C404.923,57.852,404.923,56.832,404.804,55.756z M408.845,55.664c-0.062-0.236,0-0.268,0.176-0.088
		c1.139,0.779,1.827,1.525,2.068,2.244c0.059,0.18,0,0.389-0.18,0.629c-0.122,0.359-0.329,0.598-0.629,0.717
		c-0.601,0.303-0.93,0.148-0.986-0.447C409.294,57.76,409.144,56.744,408.845,55.664z M401.033,55.756
		c0.599,0.957,0.655,1.973,0.177,3.053c-0.479,0.836-1.078,1.287-1.793,1.346c-0.422-0.479-0.391-1.107,0.088-1.885
		c0.777-0.418,1.198-1.227,1.257-2.426C400.762,55.664,400.854,55.637,401.033,55.756z M412.793,55.037
		c1.675,0.6,2.905,1.318,3.683,2.156c0.597,0.418,0.628,0.988,0.088,1.703c-0.237,0.361-0.509,0.6-0.809,0.723
		c-0.776,0.535-1.227,0.385-1.344-0.453c-0.479-1.916-1.051-3.23-1.71-3.949C412.646,55.037,412.676,54.979,412.793,55.037z
		 M412.255,47.404c0.72,2.514,2.753,4.461,6.106,5.84c0.061,0.057,0.088,0.117,0.088,0.174c0,0.062-0.059,0.094-0.178,0.094
		c-0.782,0-1.767,0.359-2.964,1.076c-1.916-1.855-2.992-4.219-3.234-7.09L412.255,47.404z M410.28,39.232
		c-0.061-0.117,0-0.146,0.178-0.088l1.889,0.629c0.119,0.119,0.119,0.238,0,0.361l-0.361,0.535l-0.091,3.414c0,0.119,0,0.33,0,0.627
		c-0.059,0.301-0.088,0.541-0.088,0.717l2.784-0.088l0.896-0.895l1.076,1.164c0.119,0.121,0.092,0.178-0.088,0.178l-4.759,0.092
		c-0.358,3.891-3.324,6.912-8.89,9.068c-0.119,0.059-0.18,0.031-0.18-0.092c-0.059-0.057-0.027-0.119,0.09-0.176
		c4.489-2.037,6.942-4.969,7.363-8.801c-0.601,0.059-1.23,0.119-1.883,0.182c-0.182,0.057-0.305,0.088-0.361,0.088l-0.809-0.627
		l3.141-0.094c0.062-0.176,0.092-0.479,0.092-0.895c0.059-0.361,0.09-0.631,0.09-0.811v-1.434c0-0.42-0.031-1.016-0.09-1.799
		C410.28,39.893,410.28,39.475,410.28,39.232z M403.728,38.967l1.343,1.168c0,0.059-0.029,0.148-0.087,0.268
		c-0.061,0.238-0.18,0.479-0.361,0.717l1.886-0.088l0.809-1.076l1.704,1.256c0.123,0.117,0.092,0.268-0.088,0.447l-0.715,0.541
		c-1.619,5.566-5.541,9.666-11.767,12.299c-0.119,0-0.148-0.061-0.088-0.178c5.387-2.992,8.77-7.275,10.145-12.842l-2.153,0.092
		c-0.122,0.119-0.272,0.33-0.447,0.629c-0.303,0.535-0.541,0.928-0.72,1.166c1.076,0.238,1.677,0.508,1.796,0.807
		c0.058,0.42-0.092,0.84-0.449,1.256c-0.36,0.242-0.627,0.213-0.807-0.088c-0.182-0.66-0.453-1.195-0.81-1.617
		c-0.421,0.66-0.957,1.318-1.616,1.977c0.957,0.48,1.585,0.898,1.886,1.256c0,0.48-0.182,0.898-0.54,1.258
		c-0.48,0.361-0.778,0.299-0.897-0.18c-0.118-0.777-0.36-1.467-0.717-2.064c-1.08,1.316-2.395,2.543-3.954,3.682
		c-0.18,0.061-0.238,0-0.18-0.18c3.232-3.053,5.447-6.525,6.646-10.416C403.546,38.879,403.604,38.848,403.728,38.967z"/>
	<path fill="#231815" d="M440.972,53.6l-8.353,0.18c-0.18,0.422-0.571,0.809-1.168,1.168c-0.18,0.059-0.3,0.059-0.36,0v-3.773
		l0.092-3.857l-0.092-2.783l1.889,0.807c0.057,0.062,0.057,0.15,0,0.27l-0.272,0.627v7.182l1.977-0.088l-0.092-8.979
		c0-1.375-0.027-2.301-0.087-2.781c-0.18,0.057-0.48,0.119-0.897,0.18c-1.497,0.301-2.573,0.508-3.232,0.631
		c-0.241,0-0.241-0.062,0-0.182c3.53-1.199,6.075-2.395,7.631-3.594l1.528,1.529c0.176,0.178,0.176,0.297,0,0.355l-0.634,0.18
		c-0.417,0.062-1.163,0.211-2.239,0.449c-0.604,0.123-1.05,0.209-1.35,0.27l1.526,0.539c0.121,0.123,0.121,0.242,0,0.361
		l-0.177,0.627l-0.092,3.145l3.501-0.182c0.24,0.182,0.24,0.33,0,0.449l-3.501,0.182l-0.088,6.734h1.883l1.258-1.168l1.438,1.254
		C441.119,53.393,441.088,53.48,440.972,53.6 M426.782,39.326l1.887,1.164c0,0-0.031,0.061-0.092,0.18l-0.627,0.809l-1.798,5.119
		h1.349l0.628-0.898l1.886,0.898c0.119,0.061,0.147,0.15,0.092,0.266l-0.629,0.902c-0.36,2.512-1.051,4.695-2.068,6.555
		c2.518,1.854,7.543,2.754,15.087,2.693c0.118,0,0.179,0.029,0.179,0.088c0,0.061-0.061,0.121-0.179,0.18
		c-1.076,0.062-2.215,0.957-3.414,2.693c-5.983-0.299-10.144-1.793-12.478-4.49c-1.26,1.617-2.784,2.996-4.582,4.135
		c-0.057,0.057-0.119,0.057-0.18,0c-0.058-0.062-0.058-0.15,0-0.273c1.858-1.375,3.173-2.99,3.952-4.848
		c-0.838-1.08-1.558-2.723-2.156-4.936h0.182c0.659,1.611,1.466,2.898,2.423,3.855c0.6-1.854,1.017-3.947,1.258-6.281l-1.528,0.088
		c-0.356,0.361-0.896,0.658-1.612,0.9c-0.242,0-0.361-0.123-0.361-0.359l2.153-7.004l-2.692,0.182c-0.238,0.057-0.389,0-0.449-0.182
		c0-0.18,0.119-0.271,0.361-0.271l2.601-0.27L426.782,39.326z"/>
	<path fill="#231815" d="M454.776,46.236c1.679,0.303,2.545,0.689,2.605,1.168c0.118,0.42-0.029,0.871-0.447,1.35
		c-0.36,0.297-0.629,0.236-0.809-0.18c-0.361-1.139-0.839-1.857-1.438-2.156C454.57,46.359,454.597,46.299,454.776,46.236
		 M453.612,48.754c1.794,0.479,2.751,0.957,2.874,1.436c0.117,0.48-0.062,0.93-0.542,1.346c-0.298,0.359-0.569,0.33-0.807-0.09
		c-0.418-1.199-0.958-2.006-1.617-2.424c-0.062-0.062-0.089-0.117-0.089-0.18C453.432,48.781,453.489,48.754,453.612,48.754z
		 M459.807,54.408c2.632,1.02,4.279,1.857,4.938,2.512c0.238,0.48,0.088,1.17-0.448,2.068c-0.242,0.238-0.39,0.357-0.452,0.357
		c-0.119,0-0.299-0.15-0.536-0.449c-0.958-1.734-2.157-3.172-3.594-4.309C459.597,54.525,459.628,54.469,459.807,54.408z
		 M453.521,53.961c0.119,0,0.211,0.029,0.268,0.086c0,0.062-0.025,0.123-0.088,0.182l-3.681,2.156
		c-1.437,0.777-2.365,1.344-2.786,1.705c-0.119,0.119-0.207,0.119-0.268,0l-1.169-2.246c0.122,0,0.272-0.031,0.452-0.088
		c0.957-0.119,1.793-0.297,2.513-0.539L453.521,53.961z M456.214,42.381c-0.897,0.055-1.675,0.146-2.334,0.266l-0.628-0.719
		l4.217-0.09v-0.627c0-1.199-0.024-2.125-0.087-2.785l2.513,0.629c0.181,0.061,0.181,0.209,0,0.451
		c-0.236,0.238-0.358,0.688-0.358,1.344l-0.09,0.9h2.334l0.988-1.168l1.437,1.346c0.119,0.061,0.092,0.148-0.088,0.271l-4.671,0.09
		v2.783l3.862-0.18l0.896-0.99l2.156,1.977c0.119,0.059,0.18,0.15,0.18,0.27c-0.061,0.061-0.152,0.088-0.271,0.088
		c-0.838,0-1.973,0.512-3.409,1.529c-0.18,0.059-0.242,0-0.18-0.18l0.628-2.158l-7.274,0.271c-1.076,0-1.973,0.088-2.694,0.27
		l-0.628-0.717l4.67-0.18l0.087-2.691H456.214z M458.37,45.969l2.513,0.807c0.182,0.062,0.182,0.211,0,0.449l-0.448,0.629
		l-0.271,2.965c0,0.535-0.059,1.016-0.175,1.436l3.407-0.178l1.17-1.438l1.796,1.615c0.119,0.059,0.088,0.15-0.092,0.27
		l-6.375,0.268c-0.478,3.533-4.367,6.105-11.673,7.723c-0.119,0-0.206-0.061-0.267-0.18c0-0.061,0.061-0.119,0.179-0.18
		c6.106-1.674,9.397-4.1,9.877-7.271l-2.873,0.088c-0.897,0.062-1.706,0.15-2.426,0.273l-0.536-0.721l5.923-0.182
		c0.061-0.178,0.092-0.416,0.092-0.715c0.059-0.299,0.088-0.508,0.088-0.627l0.092-1.799
		C458.489,47.646,458.489,46.566,458.37,45.969z M451.368,42.734l1.613,1.711c0.12,0.057,0.092,0.178-0.09,0.354
		c-2.094,2.699-3.86,4.732-5.297,6.109l5.565-0.451c0.123,0.062,0.123,0.15,0,0.27c-3.352,1.139-5.475,1.945-6.375,2.426
		c-0.119,0.119-0.207,0.148-0.267,0.092c-0.061,0-0.088-0.062-0.088-0.18L445.797,51c0.542,0.057,1.051-0.182,1.528-0.723
		c0.777-1.018,1.647-2.453,2.606-4.309c-0.123,0.061-0.329,0.119-0.63,0.18c-1.616,0.6-2.573,0.988-2.871,1.168
		c-0.242,0.119-0.393,0.088-0.453-0.092l-0.356-1.703c0.536,0.061,0.984-0.182,1.345-0.723c0.778-1.256,1.617-3.32,2.514-6.193
		l1.889,1.438c0.117,0.061,0.057,0.24-0.181,0.539c-0.901,1.375-2.188,2.961-3.862,4.758l2.961-0.088
		c0.123-0.303,0.301-0.719,0.541-1.26C451.125,43.338,451.306,42.916,451.368,42.734z"/>
	<rect fill="none" width="640" height="77.258"/>
</g>
</svg>
