<?xml version="1.0" encoding="utf-8"?>
<!-- Generator: Adobe Illustrator 16.0.0, SVG Export Plug-In . SVG Version: 6.00 Build 0)  -->
<!DOCTYPE svg PUBLIC "-//W3C//DTD SVG 1.1//EN" "http://www.w3.org/Graphics/SVG/1.1/DTD/svg11.dtd">
<svg version="1.1" id="图层_1" xmlns="http://www.w3.org/2000/svg" xmlns:xlink="http://www.w3.org/1999/xlink" x="0px" y="0px"
	 width="640px" height="146.096px" viewBox="0 0 640 146.096" enable-background="new 0 0 640 146.096" xml:space="preserve">
<g>
	<path fill-rule="evenodd" clip-rule="evenodd" fill="#A91F27" d="M70.343,71.026L97.369,44h448.095l27.026,27.026
		c-2.671,2.671-2.671,7.046,0,9.717l-27.026,27.025H97.369L70.343,80.743C73.016,78.072,73.016,73.697,70.343,71.026"/>
	<path fill="#FFFFFF" d="M129.634,73.842l0.155-10.135c0-0.955-0.419-1.38-1.265-1.271l-13.784,0.156v5.065l13.468-0.308
		c0.526,0.308,0.526,0.627,0,0.943l-13.468,0.163v5.541L129.634,73.842z M124.566,75.896l-0.636,1.111l-0.164,4.749l11.09-0.312
		l2.69-2.851l3.334,3.006c0.1,0.32,0,0.473-0.319,0.473l-16.795,0.479v3.646l0.164,5.697c-0.427,2.004-1.534,3.485-3.326,4.437
		c-0.526,0.211-0.844,0.047-0.951-0.479l0.315-6.492l0.156-6.652l-10.454,0.156c-1.898,0.109-3.381,0.32-4.434,0.636l-1.427-1.427
		l16.314-0.316v-2.371l-0.156-4.597H114.9c-0.426,1.053-1.27,2.008-2.535,2.851c-0.315,0.21-0.526,0.265-0.636,0.155
		c-0.099,0-0.153-0.155-0.153-0.472l0.153-6.652v-5.7l-0.153-5.069l3.479,1.899l14.578-0.156l1.736-1.899l3.806,2.371
		c0.107,0.109,0.154,0.266,0.154,0.476l-1.263,1.424v3.806l0.155,3.17c0.107,2.008-0.898,4.008-3.008,6.017
		c-0.425,0.425-0.79,0.315-1.107-0.32c-0.318-0.846-0.737-1.528-1.271-2.055l-7.439,0.156L124.566,75.896z"/>
	<path fill="#FFFFFF" d="M178.988,91.896c0,0.74-0.526,1.642-1.587,2.694c-0.846,0.635-1.427,0.472-1.739-0.473
		c-1.378-3.068-2.959-5.178-4.757-6.34c-0.102-0.109-0.156-0.211-0.156-0.315c0.109-0.211,0.211-0.266,0.32-0.156
		C176.345,89.204,178.988,90.737,178.988,91.896 M155.07,69.404c-0.215,0.842-0.581,1.587-1.107,2.215
		c-0.425,0.218-0.743,0.163-0.953-0.156c-1.479-2.534-3.115-4.434-4.911-5.701c-0.102-0.319-0.049-0.421,0.16-0.319
		c1.161,0.319,2.427,0.796,3.798,1.427l3.806-5.86l-9.982,0.472c-0.417-0.308-0.472-0.581-0.156-0.787l10.139-0.476l1.742-1.743
		l3.163,2.219c0.218,0,0.218,0.159,0,0.479l-1.735,0.943l-6.341,4.913c0.636,0.32,1.318,0.628,2.063,0.947
		C155.07,68.293,155.172,68.776,155.07,69.404z M168.371,71.619c-0.102-0.211,0-0.312,0.319-0.312l3.168,1.111
		c0.318,0.102,0.373,0.309,0.154,0.628l-0.472,0.951l-0.156,6.021c0.102,6.762-5.283,12.357-16.158,16.791
		c-0.211,0-0.318-0.109-0.318-0.32c-0.099-0.109-0.053-0.21,0.162-0.315c9.077-4.017,13.517-9.612,13.301-16.787l0.163-3.17
		c0-0.736-0.055-1.638-0.163-2.69C168.371,72.68,168.371,72.044,168.371,71.619z M155.227,74.473
		c-0.417,0.316-0.636,0.741-0.636,1.268l-0.156,8.867l0.156,4.753c-0.209,2.324-1.688,4.332-4.434,6.021
		c-0.315,0-0.472-0.156-0.472-0.472c0-1.271-0.526-2.172-1.587-2.698c-0.211-0.211-0.211-0.366,0-0.472
		c2.324,0.206,3.33-0.266,3.014-1.428v-16.95h-2.698c-1.688,0.109-3.115,0.266-4.277,0.48l-1.264-1.115l14.731-0.628l1.584-1.587
		l3.323,2.534c0.318,0.425,0.209,0.741-0.317,0.951c-1.162,0.211-2.745,1.002-4.751,2.379c-0.318,0.312-0.42,0.211-0.318-0.315
		l0.636-3.015l-5.385,0.16l2.694,0.947c0,0,0.047,0.055,0.156,0.164C155.336,74.317,155.336,74.368,155.227,74.473z M167.411,61.96
		c-1.581,0-3.17,0.102-4.751,0.32l-0.789-0.951l13.779-0.32l1.899-2.215l2.534,2.379c0.107,0.102,0.154,0.206,0.154,0.308
		c0,0.109-0.102,0.164-0.317,0.164l-10.139,0.156l2.534,0.635c0.219,0,0.219,0.105,0,0.316l-0.945,1.107
		c-0.953,1.481-2.115,3.01-3.487,4.597l6.024-0.163l1.263-1.579l3.015,1.898c0.208,0.211,0.208,0.371,0,0.472l-0.8,1.107
		l0.164,5.869l0.156,4.905c-0.211,2.117-1.003,3.906-2.375,5.385c-0.425,0.429-0.741,0.581-0.951,0.476
		c-0.211,0-0.318-0.266-0.318-0.792l-0.153-16.95l-7.924,0.32v13.78c0,1.368-0.688,2.748-2.059,4.121
		c-0.528,0.417-0.847,0.315-0.947-0.319l0.155-6.969v-8.235l-0.155-4.125c0-0.308,0.101-0.417,0.317-0.308l2.845,1.263l0.953-0.156
		c0.427-1.481,0.844-3.225,1.27-5.232c0.101-0.632,0.21-1.053,0.312-1.264H167.411z"/>
	<path fill="#FFFFFF" d="M193.019,60.853l1.587-1.587l2.69,2.063c0.317,0.206,0.263,0.472-0.156,0.787l-0.796,0.792
		c-1.263,2.219-2.9,4.804-4.907,7.763c4.226,3.381,6.231,6.442,6.022,9.188c-0.218,2.323-1.744,4.066-4.597,5.229
		c-0.209,0.102-0.316,0.047-0.316-0.16c0.316-1.372-0.155-2.374-1.427-3.006c-0.211-0.32-0.156-0.476,0.156-0.476
		c1.688,0.21,2.534-0.105,2.534-0.952c0.425-3.38-0.63-6.651-3.162-9.822c0.735-2.323,1.472-4.963,2.215-7.919
		c0.102-0.526,0.21-0.896,0.317-1.107l-4.277,0.315l-0.317,20.276l0.155,7.76c-0.21,2.64-0.947,4.648-2.217,6.021
		c-0.629,0.526-1,0.526-1.109,0l0.32-10.618l0.472-26.288l2.851,1.898L193.019,60.853z M201.573,66.238
		c-1.581,0-3.007,0.155-4.277,0.476l-1.264-1.271l8.867-0.156l0.315-6.812l3.962,0.955c0.317,0.207,0.37,0.472,0.156,0.788
		l-0.318,1.263l-0.474,3.806l6.341-0.159l1.898-2.219l2.851,2.378c0.102,0.32,0.055,0.526-0.16,0.636l-13.936,0.156l-0.164,7.128
		l6.34-0.16l1.581-2.055l3.645,2.055c0.214,0.109,0.159,0.262-0.156,0.479l-1.109,1.428l-0.634,13.46
		c-0.319,2.534-1.846,4.644-4.597,6.332c-0.211,0.109-0.365,0.109-0.473,0c-0.21-0.101-0.265-0.265-0.155-0.472
		c0-1.271-0.425-2.117-1.271-2.534c-0.208-0.109-0.263-0.211-0.156-0.32c0-0.104,0.102-0.155,0.318-0.155
		c1.792,0,2.638-0.632,2.536-1.903l0.628-15.363h-6.496c0.534,9.401-5.169,17.052-17.104,22.967
		c-0.208,0.105-0.372,0.051-0.474-0.155c-0.107-0.109-0.053-0.211,0.156-0.32c9.609-5.385,14.307-12.777,14.098-22.171l0.317-8.079
		H201.573z"/>
	<path fill="#FFFFFF" d="M225.904,86.514l0.634-0.635l7.122,4.589c1.589,1.478,1.69,2.96,0.32,4.441
		c-0.948,0.842-2.009,0.262-3.171-1.747L225.904,86.514z"/>
	<path fill="#FFFFFF" d="M287.774,73.842l0.156-10.135c0-0.955-0.422-1.38-1.266-1.271l-13.786,0.156v5.065l13.469-0.308
		c0.526,0.308,0.526,0.627,0,0.943l-13.469,0.163v5.541L287.774,73.842z M282.705,75.896l-0.636,1.111l-0.161,4.749l11.089-0.312
		l2.689-2.851l3.333,3.006c0.102,0.32,0,0.473-0.319,0.473l-16.792,0.479v3.646l0.161,5.697c-0.425,2.004-1.534,3.485-3.325,4.437
		c-0.526,0.211-0.845,0.047-0.952-0.479l0.318-6.492l0.153-6.652l-10.453,0.156c-1.899,0.109-3.379,0.32-4.434,0.636l-1.426-1.427
		l16.312-0.316v-2.371l-0.153-4.597h-5.069c-0.427,1.053-1.27,2.008-2.534,2.851c-0.318,0.21-0.526,0.265-0.636,0.155
		c-0.102,0-0.154-0.155-0.154-0.472l0.154-6.652v-5.7l-0.154-5.069l3.479,1.899l14.579-0.156l1.735-1.899l3.806,2.371
		c0.109,0.109,0.156,0.266,0.156,0.476l-1.264,1.424v3.806l0.154,3.17c0.106,2.008-0.899,4.008-3.007,6.017
		c-0.427,0.425-0.789,0.315-1.109-0.32c-0.315-0.846-0.737-1.528-1.271-2.055l-7.44,0.156L282.705,75.896z"/>
	<path fill="#FFFFFF" d="M325.566,61.009c3.478,1.162,5.385,2.324,5.702,3.486c0,1.162-0.688,2.164-2.061,3.01
		c-0.846,0.425-1.481,0.207-1.898-0.636c-0.109-2.429-0.8-4.227-2.063-5.389c-0.106-0.206-0.159-0.362-0.159-0.472
		C325.194,60.899,325.355,60.899,325.566,61.009 M327.31,77.487l-10.456,0.308c1.265,2.96,2.953,5.439,5.069,7.448
		C323.821,83.028,325.619,80.439,327.31,77.487z M316.854,58.003l5.223,1.898c0.211,0.109,0.211,0.262,0,0.472
		c0.109,0,0.109,0.055,0,0.164l-0.943,0.636c-0.427,3.061-1.162,6.277-2.225,9.654l12.671-0.156l2.534-2.694l3.17,3.015
		c0.109,0.102,0.162,0.156,0.162,0.156c0,0.104-0.107,0.21-0.317,0.315l-18.529,0.319c-0.636,1.688-1.381,3.432-2.223,5.226
		l11.089-0.156l1.743-2.219l3.642,2.375c0.211,0.214,0.156,0.37-0.161,0.479l-1.109,1.107c-2.215,3.271-4.643,6.067-7.284,8.392
		c3.062,2.218,7.502,3.906,13.307,5.068c0.317,0.211,0.372,0.476,0.153,0.792c-2.214,0.21-4.27,1.481-6.176,3.806
		c-3.798-2.223-7.069-4.757-9.818-7.604c-3.907,2.745-8.766,5.33-14.572,7.76c-0.208,0.104-0.37,0.054-0.472-0.156
		c0-0.109,0.102-0.219,0.316-0.32c6.017-3.17,10.45-6.281,13.3-9.346c-1.688-2.535-3.061-5.596-4.113-9.191h-0.156
		c-3.17,6.13-7.766,11.882-13.788,17.267c-0.208,0.109-0.364,0.109-0.472,0c-0.101-0.102-0.101-0.262,0-0.472
		c6.021-6.442,10.246-13.987,12.671-22.651h-6.015c-0.636,0.951-1.532,1.587-2.696,1.903c-0.636,0.101-0.953-0.055-0.953-0.48
		l0.797-3.957l1.426-8.552c0-0.315,0.155-0.479,0.476-0.479l3.486,1.907c0.21,0.102,0.21,0.362,0,0.791l-2.223,7.92h6.021
		C315.846,66.769,316.535,62.436,316.854,58.003z"/>
	<path fill="#FFFFFF" d="M342.13,62.592c-0.421-0.102-0.476-0.366-0.155-0.791l10.292-0.32l1.743-1.735l2.378,1.899
		c0.211,0.211,0.211,0.37,0,0.472l-5.858,0.164l-0.315,10.766l1.579-0.156l1.743-1.583l1.9,1.899
		c0.209,0.319,0.162,0.476-0.156,0.476l-5.066,0.16l-0.32,11.557l6.017-1.583c0.316-0.104,0.425,0,0.316,0.32l-7.92,4.277
		c-2,1.053-3.536,1.898-4.589,2.534c0,0-0.055,0-0.162,0c-0.209,0.211-0.364,0.211-0.474,0l-2.062-2.85
		c-0.101-0.211-0.155-0.32-0.155-0.32c0.102-0.109,0.208-0.156,0.317-0.156c1.475-0.214,3.217-0.635,5.226-1.271h0.472l0.164-12.354
		l-4.118,0.156c-0.215,0-0.37-0.102-0.479-0.312c0-0.215,0.109-0.371,0.319-0.48l4.278-0.155l0.153-10.771L342.13,62.592z
		 M373.664,62.28v9.502l0.159,5.857c-0.106,1.583-1.061,3.17-2.85,4.753c-0.528,0.526-0.899,0.472-1.109-0.156V63.224
		c0.104-1.264-0.581-1.845-2.062-1.743l-7.439,0.32l-0.164,15.839c-0.208,1.898-0.951,3.435-2.215,4.597
		c-0.21,0.211-0.427,0.316-0.635,0.316c-0.211,0-0.32-0.16-0.32-0.479l0.164-8.548l0.156-10.617l-0.156-3.798l3.326,1.742
		l8.237-0.315l1.898-2.062l3.798,1.898c0.217,0.109,0.318,0.164,0.318,0.164c0,0.102-0.102,0.211-0.318,0.315L373.664,62.28z
		 M363.038,64.814l3.488,1.424c0.317,0.104,0.364,0.312,0.154,0.631l-0.636,1.107c-0.102,2.851-0.309,5.439-0.628,7.764l3.008,1.583
		c0.209,0.109,0.209,0.266,0,0.472l-0.635,1.115l-1.582,9.975c-0.317,1.373,0.102,2.164,1.264,2.379
		c2.217,0.21,4.223,0.155,6.021-0.16c0.955-0.211,1.692-1.209,2.219-3.006c0.107-0.211,0.263-0.32,0.472-0.32
		c0.217,0.109,0.266,0.266,0.164,0.472c-0.211,1.373,0,2.434,0.634,3.17c1.156,1.482,0.736,2.645-1.27,3.49
		c-2.644,0.526-5.387,0.581-8.239,0.152c-2.534-0.632-3.642-2.586-3.324-5.857l0.79-10.609v-0.479
		c-0.628,6.972-6.333,13.25-17.104,18.849c-0.209,0.105-0.317,0.105-0.317,0c0-0.21,0.055-0.366,0.161-0.476
		c6.76-4.113,10.873-8.075,12.355-11.881C362.14,80.704,363.147,74.106,363.038,64.814z"/>
	<path fill="#FFFFFF" d="M384.044,86.514l0.636-0.635l7.122,4.589c1.589,1.478,1.689,2.96,0.317,4.441
		c-0.947,0.842-2.008,0.262-3.17-1.747L384.044,86.514z"/>
	<path fill="#FFFFFF" d="M445.913,73.842l0.156-10.135c0-0.955-0.419-1.38-1.264-1.271l-13.787,0.156v5.065l13.47-0.308
		c0.526,0.308,0.526,0.627,0,0.943l-13.47,0.163v5.541L445.913,73.842z M440.845,75.896l-0.636,1.111l-0.162,4.749l11.09-0.312
		l2.69-2.851l3.332,3.006c0.102,0.32,0,0.473-0.318,0.473l-16.794,0.479v3.646l0.162,5.697c-0.425,2.004-1.532,3.485-3.324,4.437
		c-0.526,0.211-0.845,0.047-0.953-0.479l0.317-6.492l0.156-6.652l-10.456,0.156c-1.897,0.109-3.379,0.32-4.434,0.636l-1.425-1.427
		l16.314-0.316v-2.371l-0.156-4.597h-5.069c-0.425,1.053-1.269,2.008-2.532,2.851c-0.317,0.21-0.528,0.265-0.636,0.155
		c-0.102,0-0.155-0.155-0.155-0.472l0.155-6.652v-5.7l-0.155-5.069l3.479,1.899l14.577-0.156l1.737-1.899l3.804,2.371
		c0.109,0.109,0.156,0.266,0.156,0.476l-1.264,1.424v3.806l0.156,3.17c0.107,2.008-0.898,4.008-3.008,6.017
		c-0.426,0.425-0.79,0.315-1.107-0.32c-0.318-0.846-0.737-1.528-1.271-2.055l-7.441,0.156L440.845,75.896z"/>
	<path fill="#FFFFFF" d="M461.842,70.512c3.277,1.372,4.913,2.796,4.913,4.277c-0.208,1.053-0.898,1.798-2.061,2.219
		c-1.055,0.105-1.636-0.266-1.743-1.111c-0.102-2.004-0.63-3.696-1.581-5.069c-0.109-0.102-0.109-0.206,0-0.315
		C461.478,70.41,461.634,70.41,461.842,70.512 M466.911,60.218c3.277,1.263,5.069,2.69,5.387,4.277
		c-0.104,1.267-0.846,2.164-2.217,2.69c-1.055,0.109-1.636-0.262-1.745-1.107c-0.317-2.426-0.891-4.277-1.734-5.541
		C466.492,60.218,466.602,60.112,466.911,60.218z M471.351,71.463l-3.643,16.786c-0.216,1.064-0.317,1.954-0.317,2.698
		c0,0.102,0.055,0.316,0.156,0.636c0,0.417,0.107,0.792,0.317,1.107c0.318,0.628,0.264,1.209-0.156,1.739
		c-0.742,0.741-1.641,1.162-2.696,1.268c-0.635,0.108-0.947-0.262-0.947-1.107c0.104-0.636,0.156-1.479,0.156-2.535
		c0.21-0.74-0.264-1.317-1.425-1.743c-0.211-0.315-0.156-0.472,0.155-0.472c0.954,0.211,1.587-0.108,1.905-0.955l6.015-17.578
		c0-0.214,0.108-0.269,0.317-0.159C471.298,71.147,471.351,71.252,471.351,71.463z M478.001,80.966v9.818h9.502l-0.155-10.135
		L478.001,80.966z M487.503,67.505c-0.102-0.21-0.102-0.374,0-0.476c0.107-0.105,0.264-0.105,0.479,0
		c4.007,2.43,6.122,4.063,6.333,4.909c0.208,0.316,0.208,0.788,0,1.423c0,0,0,0.055,0,0.164c-0.526,1.053-1.162,1.845-1.899,2.371
		c-1.162,0.526-1.797,0.374-1.898-0.472c-0.109-1.162-0.318-2.219-0.636-3.17c-7.812,1.271-13.098,2.323-15.841,3.17
		c-0.419,0.109-0.683,0-0.792-0.32l-0.633-2.687c-0.102-0.319-0.055-0.479,0.161-0.479c0.946-0.102,1.634-0.421,2.055-0.947
		c2.533-2.749,4.805-7.022,6.811-12.833c0.109-0.319,0.265-0.366,0.474-0.155c0-0.109,0.055-0.109,0.162,0l3.17,2.215
		c0.312,0.21,0.211,0.53-0.317,0.955c-2.217,3.268-5.231,6.804-9.029,10.609l13.462-0.163
		C488.929,69.51,488.246,68.141,487.503,67.505z M487.186,79.702l1.589-2.379l3.798,2.215c0.215,0.109,0.215,0.266,0,0.479
		l-0.947,1.428l0.155,9.187l0.318,1.107c0.107,0.105,0.107,0.156,0,0.156c0,0.104-0.156,0.159-0.474,0.159
		c-3.905-0.21-8.448-0.315-13.624-0.315v1.107c-0.209,1.162-0.899,2.27-2.062,3.326c-0.317,0.206-0.581,0.261-0.791,0.159
		c-0.209-0.104-0.316-0.37-0.316-0.791V83.185l-0.155-4.434c0-0.211,0.055-0.375,0.155-0.477c0.107,0,0.215,0.055,0.316,0.156
		l2.853,1.587L487.186,79.702z"/>
	<path fill="#FFFFFF" d="M503.122,65.606c2.85,1.053,4.33,2.051,4.432,3.006c0,1.162-0.418,2.009-1.264,2.535
		c-0.845,0.315-1.316,0.159-1.426-0.477c-0.108-2.113-0.736-3.696-1.898-4.749C502.757,65.708,502.804,65.606,503.122,65.606
		 M521.814,73.682l2.217,0.791l4.114-5.544l-7.92,0.319c-2,0.211-3.479,0.472-4.434,0.792l-1.425-1.428l14.096-0.636l1.899-1.583
		l3.332,2.854c0.102,0.102,0.155,0.262,0.155,0.472c-0.106,0.109-0.263,0.164-0.474,0.164c-1.479,0.308-4.332,1.953-8.555,4.905
		l1.589,0.472c0.209,0.109,0.264,0.273,0.154,0.479c0,0.102,0,0.156,0,0.156c-0.316,0.21-0.581,0.636-0.79,1.271v7.283l0.154,4.753
		c-0.209,2.641-2.006,4.859-5.385,6.648c-0.102,0.219-0.211,0.266-0.318,0.164c-0.102-0.109-0.155-0.319-0.155-0.636
		c0-1.481-0.581-2.589-1.743-3.326c-0.102-0.21-0.156-0.315-0.156-0.315c0.102-0.109,0.211-0.109,0.318,0
		c2.636,0,3.743-0.476,3.325-1.428v-9.183c0-2.753-0.108-5.178-0.319-7.287C521.495,73.627,521.604,73.572,521.814,73.682z
		 M508.98,60.693c0-0.32,0.107-0.422,0.317-0.32l3.804,2.219v0.16l7.124-0.16l0.318-4.909l4.595,0.955c0.209,0,0.209,0.156,0,0.473
		c-0.526,0.526-0.846,1.688-0.953,3.481l5.866-0.156l2.217-2.218l2.853,2.374c0.209,0.316,0.156,0.479-0.162,0.479l-22.175,0.636
		l-0.162,10.926c0.534,9.713-4.379,17.106-14.726,22.176c-0.208,0-0.317-0.109-0.317-0.32c-0.107-0.109-0.053-0.21,0.156-0.315
		c7.921-4.228,11.779-11.565,11.562-22.02c-3.271,3.696-5.696,6.656-7.285,8.875c-0.526,0.736-1.055,1.053-1.581,0.951
		c-0.526-0.215-0.688-0.69-0.48-1.427c0.636-1.479,0.845-2.796,0.636-3.958c0.526,0.943,3.434-0.9,8.711-5.549v-6.808
		C509.298,64.335,509.197,62.49,508.98,60.693z"/>
	<path fill-rule="evenodd" clip-rule="evenodd" fill="#A72027" d="M578.142,70.539c3.032,0,5.492,2.46,5.492,5.494
		c0,3.029-2.46,5.49-5.492,5.49c-3.033,0-5.492-2.461-5.492-5.49C572.649,72.999,575.108,70.539,578.142,70.539"/>
	<path fill-rule="evenodd" clip-rule="evenodd" fill="#A72027" d="M65.054,70.539c3.031,0,5.492,2.46,5.492,5.494
		c0,3.029-2.461,5.49-5.492,5.49c-3.032,0-5.492-2.461-5.492-5.49C59.562,72.999,62.021,70.539,65.054,70.539"/>
	<rect fill="none" width="640" height="146.096"/>
</g>
</svg>
