<svg xmlns="http://www.w3.org/2000/svg" width="640" height="77.258" viewBox="0 0 640 77.258"><path fill="#231815" d="M161.122 16.717v2.244l3.95-.088v-2.156h-3.95zm0 2.693v2.336l3.95-.092v-2.332l-3.95.088zm9.155-.629c.121 0 .184.061.184.18s-.062.211-.184.27l-3.139.092-.094 2.244 4.044-.092v-4.939l-3.95.092v2.154h3.139zm-11.042-4.49c-.718 0-1.494.061-2.332.18h-.182l-.628-.627 8.979-.18.089-2.246c-1.916.182-4.012.33-6.283.447-.061.062-.123.062-.18 0 0-.117.029-.205.088-.266 5.089-.779 9.068-1.707 11.939-2.783l1.529 1.613c.059.182 0 .301-.18.359-.538.061-1.436.15-2.692.27-.899.061-1.616.121-2.158.18l-.086 2.336 6.282-.092 1.259-1.256 1.524 1.438c.121.119.09.18-.086.18l-8.979.268v2.066l3.86-.088.717-1.078 2.157 1.078c.179.061.179.178 0 .357l-.452.537-.088 4.582.267.447c.062.119 0 .18-.179.18-.897-.121-3.022-.121-6.376 0v2.516l4.311-.182 1.08-1.076 1.524 1.258c.061.18.031.266-.087.266l-6.828.271v2.695l6.2-.092 1.345-1.164 1.436 1.256c.062.059.093.119.093.18 0 .059-.062.086-.181.086l-16.702.449c-1.139.119-1.974.211-2.514.273l-.628-.723 8.887-.178v-2.783l-3.41.09c-.601 0-1.255.061-1.977.18-.18.062-.327.088-.446.088l-.72-.629 6.553-.178.092-2.604h-1.796c-.957.059-1.706.09-2.244.09-.419.539-.865.957-1.345 1.256-.305.123-.479.062-.54-.18l.088-2.602v-5.209c-.059-.119-.027-.15.091-.09l1.796.809 3.95-.09v-2.066l-5.837.181zM182.112 12.768c1.617.596 2.456 1.164 2.515 1.703 0 .658-.237 1.139-.718 1.438-.479.182-.746.092-.807-.268-.062-1.199-.418-2.096-1.078-2.695-.119-.12-.091-.178.088-.178m3.323-2.786c0-.182.062-.238.179-.182l2.156 1.35 3.95-.092.09-2.781 2.604.539c.062 0 .117.027.18.088l-.088.182c-.302.18-.478.838-.54 1.973l3.232-.09 1.258-1.256 1.616 1.346c.118.18.087.271-.092.271l-12.569.361-.09.088-.09 6.014c.359 5.746-2.334 9.969-8.079 12.66-.121 0-.182-.061-.182-.178-.06-.062-.028-.119.088-.182 4.492-2.395 6.68-6.555 6.555-12.482-1.853 2.096-3.229 3.775-4.129 5.031-.299.418-.597.598-.897.541-.298-.123-.39-.393-.271-.809.36-.838.478-1.588.36-2.244.299.533 1.946-.512 4.937-3.146v-3.857c0-1.082-.056-2.127-.178-3.145zm5.209 10.682c-.538 0-1.229.062-2.062.182-.242.061-.393.092-.449.092l-.633-.627 5.391-.092v-2.426l-.094-2.334-1.883.09c-.301.422-.839 1.229-1.617 2.424-.479.658-.84 1.17-1.078 1.527-.179.059-.239 0-.179-.178 1.02-2.275 1.798-4.67 2.333-7.184l1.978.807c.061 0 .118.027.179.09l-.087.18-.273.359c-.296.479-.628.99-.986 1.525l5.657-.088.897-1.08 1.347 1.26c0 .119-.029.176-.091.176l-5.388.092 1.438.449c.18.062.211.182.092.359l-.361.717-.09 2.064v1.17l4.22-.088 1.078-.988 1.257 1.168c0 .119-.027.176-.089.176l-6.015.092c.536 3.77 2.603 6.436 6.193 7.99.182.182.15.299-.09.361-.836-.062-1.793.357-2.873 1.256-2.215-1.979-3.41-5.18-3.592-9.607h-.09c0 4.607-3.472 7.99-10.414 10.145-.24-.059-.297-.182-.18-.355 5.806-2.041 8.707-5.27 8.707-9.703h-2.153zM208.76 13.756c1.86 1.016 2.726 1.793 2.604 2.334-.117.656-.478 1.137-1.076 1.434-.538.062-.838-.117-.895-.539-.062-1.256-.33-2.271-.81-3.053-.12-.176-.062-.239.177-.176m.538-.901c-.182 0-.452.031-.81.09-.838 0-1.378.059-1.616.182l-.721-.721 7.003-.088v-.092l-.088-3.949 2.513.715c.18 0 .211.094.094.273-.184.18-.331.479-.448.896v2.156l4.217-.092 1.437-1.346 1.617 1.613c.119.062.088.154-.088.273l-7.183.088v5.387h1.256c.896-1.676 1.556-3.26 1.973-4.76 0-.18.061-.207.18-.088l2.064.809.181.088c0 .061-.062.119-.181.18l-.446.449c-1.197 1.316-2.277 2.424-3.234 3.322h4.221l1.258-1.346 1.703 1.523c.061.062.092.123.092.182 0 .061-.061.092-.179.092l-7.904.088c.659 2.637 3.443 5 8.353 7.096.18.057.18.178 0 .355-.659-.119-1.675.391-3.053 1.529-3.233-2.277-5.058-5.268-5.479-8.98h-.804l.086 5.746v3.143c-.24 1.08-.87 2.006-1.884 2.783-.241-.061-.36-.209-.36-.447l.181-5.387-.093-3.232c-2.451 2.691-5.592 5.148-9.425 7.363-.121.057-.211.057-.271 0 0-.062.029-.15.092-.273 3.172-2.395 6.134-5.623 8.887-9.695l-4.757.092c-1.018 0-1.796.059-2.336.176l-.81-.715 8.62-.092v-5.387h-3.858zM241.607 8.904c1.317.238 2.033.541 2.152.896-.059.361-.299.811-.718 1.35-.297.18-.509.088-.628-.27-.241-.42-.569-1.049-.986-1.889-.062-.118.001-.147.18-.087m-4.578 8.44c1.556.418 2.363.84 2.421 1.258 0 .479-.237.898-.717 1.256-.359.18-.569.123-.628-.18-.3-1.076-.69-1.793-1.17-2.154-.056-.18-.029-.241.094-.18zm7.537 3.863l1.258 1.168c.123.057.092.148-.088.268-.839.359-2.152.809-3.95 1.344 1.256 1.02 3.502 1.918 6.734 2.699.238.057.417.088.538.088.061 0 .117.029.18.088l-.18.18c-.896.121-1.886.658-2.964 1.615-2.573-.775-4.608-2.902-6.105-6.373h.181c.417.539.897 1.049 1.438 1.529 1.017-.784 2.003-1.649 2.958-2.606zm-10.951-.449c-.599 0-1.317.057-2.158.18-.237.059-.417.088-.534.088l-.809-.627 14.634-.361 1.168-1.164 1.524 1.346c.123.119.094.18-.088.18l-9.787.266 1.526.811c-.12.062-.296.18-.538.359-1.317.84-2.307 1.438-2.961 1.799l.984.266c.18.061.242.15.18.27l-.718 3.412 4.759-1.076c.182 0 .211.088.088.27l-3.856 1.977c-.36.236-.87.506-1.528.807-.361.178-.628.33-.81.449l-.181.18-.086-.18-1.35-1.529c0-.119.031-.18.092-.176l1.438-.359v-3.863c-2.036 1.139-4.371 2.127-7.004 2.963-.18-.057-.241-.148-.18-.268 3.352-1.377 6.405-3.414 9.156-6.109l-2.961.089zm-.266-8.44c-1.201.119-2.008.207-2.426.27l-.721-.631 5.657-.178c.18-1.076.27-2.275.27-3.594l2.064.807c.181 0 .21.123.092.361l-.271.359c-.059.66-.177 1.346-.356 2.066l7.361-.18 1.076-1.258 1.525 1.35c.062.119 0 .205-.18.266l-7.9.182 1.258.629c.119.059.119.148 0 .268l-.18.447-.267 1.529c1.735-1.018 2.872-1.768 3.408-2.244l.988 1.164c.061.121 0 .18-.182.18-1.076.602-2.511 1.229-4.309 1.889.062.236.272.355.628.355.542.061 1.35.092 2.426.092.959-.061 1.617-.123 1.977-.18.417.057.807-.389 1.17-1.348.057-.119.117-.18.176-.18.12.061.179.148.179.271-.119.537.092.959.628 1.256.421.717.15 1.256-.807 1.617-1.676.418-3.652.48-5.924.18-.838-.18-1.38-.721-1.618-1.617-.421.119-1.078.33-1.975.629l-2.426.809c-.118 0-.181-.031-.181-.092 0-.059.031-.119.094-.182 1.672-.652 3.141-1.287 4.398-1.883v-.449l.179-1.705.092-1.436-1.708.088c-.84 3.295-3.771 5.957-8.801 7.992-.057.061-.119.029-.18-.088-.057-.062-.057-.123 0-.182 4.073-1.977 6.468-4.52 7.185-7.631h-2.419zM262.507 17.344c2.036 1.076 3.085 1.918 3.143 2.514 0 .66-.327 1.168-.986 1.529-.6.238-.898.119-.898-.361-.299-1.557-.777-2.723-1.437-3.502v-.088c-.059-.061-.001-.092.178-.092m-6.821-4.576v5.117l2.244-.092c.3.123.3.299 0 .541h-2.244v6.555l2.962-.092.091-12.658-2.872.088-.181.541zm8.798 2.423c-.839 0-1.646.057-2.426.176l-.895-.627 6.194-.176.089-1.438c0-.781-.031-1.797-.089-3.053v-1.528c.058-.059.147-.059.269 0l2.244.898c.119 0 .119.09 0 .268l-.268.717v4.041h.987l1.166-1.344 1.527 1.344c.117.182.088.301-.093.361l-3.588.088-.093 7.094.093 3.863c.117 1.734-.928 3.109-3.146 4.129-.237.059-.354 0-.354-.18.057-.896-.211-1.5-.81-1.797-.122-.238-.061-.359.18-.359 1.437.121 2.064-.059 1.886-.539v-12.117l-2.873.179zm-3.053-3.5c.121.057.121.148 0 .266l-.54.719v8.262l.092 3.951c-.179 1.193-.659 2.152-1.435 2.873-.242.238-.422.33-.542.268-.18-.057-.268-.211-.268-.449-.118-.957-.298-1.703-.54-2.244h-2.513v.359c0 .959-.417 1.885-1.258 2.781-.117.123-.241.18-.358.18-.121-.057-.18-.18-.18-.355l.09-4.314.09-9.695c0-.535-.031-1.346-.09-2.426v-1.162c0-.062.027-.123.09-.182l.18.09 1.617 1.168 2.872-.088.81-1.08 1.883 1.078zM279.641 30.541l-.269-.088c1.556-1.02 2.245-2.033 2.064-3.053h-.361c-1.076-.061-1.646-.539-1.703-1.436.058-.898.627-1.375 1.703-1.438 1.139 0 1.704.777 1.704 2.334-.354 1.617-1.403 2.847-3.138 3.681"/><path fill="#231815" d="M303.775 23.09c-.841.062-1.647.15-2.426.27l-.716-.717 11.4-.18 1.437-1.438 1.616 1.525c.119.123.119.209 0 .271l-11.311.269zm13.108-5.567l.99-1.256 2.062 1.256c.121 0 .121.062 0 .182l-.718.988c-.419 4.309-1.078 7.303-1.975 8.977-.54 1.018-1.765 1.887-3.681 2.605-.123.061-.211.092-.271.092-.058-.062-.089-.154-.089-.273.179-.957-.088-1.586-.808-1.887-.062-.059-.09-.146-.09-.266.059-.061.121-.061.178 0h1.616c1.318-.123 2.246-3.414 2.784-9.877l-10.146.178c-.3.838-.959 1.465-1.973 1.889-.241.117-.39.025-.448-.273l1.345-7.719c.18-1.734.271-2.996.271-3.773l2.513.988c.119.062.119.15 0 .27l-.272.359-.448 2.336 9.34-.18 1.344-1.436 1.891 1.703c.117.062.117.119 0 .182l-12.662.268-.808 4.85 10.055-.183zM334.733 22.014c1.497.537 2.273 1.047 2.336 1.525.059.539-.18 1.02-.722 1.436-.534.18-.838.092-.896-.266-.117-1.139-.421-1.949-.899-2.426-.057-.059-.057-.119 0-.182 0-.056.06-.087.181-.087m-6.913 1.076c0-.119.027-.18.089-.18.061 0 .117.031.18.092.839 2.035 1.076 3.502.718 4.398-.538.541-1.135.807-1.794.807-.36 0-.571-.086-.627-.266-.062-.18.026-.391.267-.629.778-1.138 1.167-2.542 1.167-4.222zm12.93-7.541c2.273 1.316 3.56 2.275 3.858 2.871.123.541-.209 1.107-.984 1.711-.242.18-.422.236-.54.18-.182-.062-.299-.273-.36-.633-.359-1.436-1.076-2.75-2.152-3.949-.063-.18-.001-.239.178-.18zm.176 7.453c2.636.48 4.043 1.076 4.223 1.795 0 .719-.237 1.346-.718 1.889-.421.299-.779.176-1.08-.361-.834-1.436-1.673-2.457-2.511-3.053-.121-.062-.152-.119-.09-.182 0-.061.059-.088.176-.088zm-6.013-8.262l1.616.9c.118.057.179.119.179.18.061 0 .031.059-.091.18-1.077 1.611-2.694 3.352-4.847 5.207-.242.061-.299 0-.18-.182 1.556-1.853 2.664-3.949 3.323-6.285zm4.937 4.403c0 1.436-.866 2.66-2.601 3.68-.121.057-.18.031-.18-.09 0-.838-.273-1.377-.808-1.619-.124 0-.124-.088 0-.268 1.076.119 1.554-.088 1.436-.627l.089-4.67-.181-2.514c0-.18.061-.236.181-.18l2.156.809c.18 0 .207.092.088.268l-.269.633v2.332l.089 2.246zm2.245-8.174l.901-.895 2.24 1.883c.061.059.092.15.092.27-.062.061-.148.092-.27.092-.898.059-2.062.537-3.499 1.438-.182.057-.242 0-.182-.182l.717-2.062-5.653.088c-.841 1.018-2.277 2.332-4.311 3.949-.061.061-.15.061-.271 0-.058-.059-.058-.119 0-.182 1.978-2.213 3.412-4.578 4.31-7.09l2.064.988c.123.057.092.15-.088.27l-.27.357c-.121.119-.271.33-.452.629-.235.236-.417.447-.534.629l5.206-.182zm-18.047 7.904c-.119.059-.207.059-.268 0 0-.123.029-.211.088-.271 3.772-2.992 6.404-6.434 7.902-10.324l1.885 1.168c.119.059.088.207-.088.447-.9 1.318-1.828 2.484-2.784 3.502v7.27c-.12.842-.511 1.588-1.169 2.246-.18.119-.299.18-.357.18-.123-.061-.18-.148-.18-.268l.088-5.387.092-2.516c-1.08 1.019-2.816 2.338-5.209 3.953zm7.095 3.77l1.616.809c.119.057.088.15-.092.27l-.18.357c-.237.779-.329 1.525-.269 2.246.118.537.54.896 1.255 1.076 1.439.119 2.874.092 4.312-.088.598-.123.868-.42.808-.9v-1.793c0-.121.031-.18.092-.18.057 0 .119.059.177.18.422 1.135 1.197 1.885 2.336 2.242.536.18.808.451.808.809-.061.359-.358.688-.899.986-2.333.959-5.086 1.107-8.26.449-1.137-.418-1.796-1.164-1.978-2.244-.057-1.016-.057-2.363 0-4.039 0-.18.094-.241.274-.18zM360.484 23.721c3.232.838 5.477 1.646 6.733 2.422.418.898.391 1.738-.089 2.514-.421.66-.901.631-1.435-.088-1.561-2.094-3.326-3.623-5.3-4.582-.12-.057-.09-.149.091-.266m-3.77-1.346l1.437 1.973c.238.18.18.361-.181.541-2.215 1.973-5.358 3.861-9.429 5.652-.117.062-.209.031-.268-.088 0-.061.027-.148.088-.268 3.712-1.916 6.407-4.49 8.079-7.723 0-.119.031-.18.094-.18 0-.057.061-.03.18.093zm.176-7.635v6.646h4.311v-6.734l-4.311.088zm4.493-6.193l2.334 1.076c.061.059.088.15.088.27l-.356.719-.092 3.5h2.064l1.256-1.344 1.709 1.615c.119.119.119.182 0 .182l-5.029.088v6.643h3.772l1.345-1.346 1.706 1.525c.123.062.092.15-.088.271l-18.763.176c-.901.062-1.741.15-2.52.271l-.627-.719 6.823-.088-.09-6.555h-1.704c-1.08 0-1.914.057-2.517.18l-.628-.629 4.849-.092v-2.152c0-.539-.031-1.23-.086-2.064v-.988c0-.062.055-.094.176-.094l2.336.99c.118 0 .118.061 0 .18l-.359.627-.089 3.502 4.311-.088.088-2.785c0-.359-.031-.957-.088-1.795v-.986c0-.063.057-.09.179-.09zM379.319 14.203c-.181.057-.298 0-.356-.182 0-.178.09-.266.269-.266l5.928-.092 1.076-1.17 1.435 1.262c.062.057.09.119.09.176 0 .062-.059.09-.176.09l-8.266.182zm2.338 3.861v4.668l3.053-.09.088-4.67-3.141.092zm3.769-1.617l1.978.988c.119.059.119.119 0 .176l-.449.809-.091 4.223.179.359c0 .119-.031.182-.088.182h-5.391c0 .537-.386 1.195-1.164 1.971-.181.119-.302.15-.36.092-.061 0-.09-.061-.09-.18l.09-3.32-.09-2.697v-2.244c0-.178.061-.207.18-.088l1.614.895 2.967-.176.715-.99zm4.042-7.361l2.152 1.076c.123.18.123.299 0 .359l-.628.896v11.766l.094 3.229c0 1.438-.99 2.637-2.968 3.594-.179 0-.267-.061-.267-.18.118-1.02-.182-1.646-.897-1.885-.061 0-.091-.031-.091-.092.06-.119.118-.18.179-.18 1.076.121 1.618.061 1.618-.178l-.093-16.703-10.505.092.093 15.805c-.122 1.014-.57 2.033-1.349 3.051-.18.178-.329.238-.448.178-.18 0-.27-.119-.27-.357l.178-5.117v-11.764l-.088-3.141c0-.182.061-.213.18-.09l1.885.984 10.324-.088.901-1.255zM409.112 25.424c1.675.541 2.663 1.168 2.961 1.889 0 .598-.298 1.076-.896 1.438-.54.355-.838.236-.896-.361-.24-1.199-.688-2.127-1.348-2.785-.063-.181 0-.238.179-.181m-8.079-16.877l2.064.807.177.092-.177.178-.36.719v3.414h.36l.984-1.168 1.437 1.256c.061.119.031.209-.087.268l-2.694.18-.09 3.863c.239-.119.6-.27 1.08-.449.478-.242.834-.393 1.076-.447.18 0 .211.055.088.178-.299.238-.747.568-1.346.984-.421.242-.719.453-.898.629v2.697l.09 4.396c.118 1.557-.688 2.875-2.424 3.951-.182.062-.301.062-.36 0-.057 0-.057-.088 0-.268.06-.721-.18-1.258-.716-1.619-.119-.178-.092-.297.088-.357 1.076.18 1.556-.088 1.437-.809l.092-6.643c-1.199.896-2.064 1.646-2.604 2.244-.119.117-.211.09-.27-.092l-.807-2.332c0-.119.029-.182.088-.182 1.02-.238 2.213-.627 3.593-1.164v-4.402h-.722c-1.014.062-1.795.182-2.332.361l-.721-.721 3.774-.268v-.717c.059-.959.059-2.127 0-3.504v-.898c-.062-.177.001-.236.18-.177zm6.551 3.144l-.176 6.102 3.32-.182c-.061-.236-.092-.596-.092-1.076-.057-.477-.088-.838-.088-1.076-.061-1.318-.091-2.691-.091-4.129-.835.059-1.613.182-2.334.361v-.273c3.115-1.014 5.088-1.883 5.927-2.602l1.437 1.795c.119.178.061.297-.18.357-1.194 0-2.662.09-4.398.27l1.705.807c.118.062.118.182 0 .361l-.449.539c.119 1.795.207 3.352.27 4.666l1.528-.088 1.164-1.346 1.616 1.527c.119.057.119.148 0 .268l-4.217.182c.417 4.369 1.643 7.242 3.677 8.619l.092.088c.237.123.448.092.63-.088l.627-.631c.061-.061.15-.088.268-.088.062.059.062.15 0 .27-.417.717-.386 1.525.094 2.426.18.479.088.834-.273 1.076-.356.18-.834.119-1.437-.182-3.05-1.734-4.845-5.566-5.385-11.49l-3.41.18-.182 6.732 3.41-2.156c.182-.119.242-.057.182.18l-3.41 3.502c-.9.84-1.437 1.438-1.616 1.797-.123.18-.273.238-.448.18l-1.528-.988c-.062 0-.062-.061 0-.18l1.977-1.346-.094-11.672-.18-4.129c.061-.242.18-.271.361-.092l1.703 1.529zM430.281 11.512c.062-.182.123-.242.182-.182 1.616.957 2.573 1.766 2.872 2.426 0 .654-.33 1.133-.983 1.436-.479.176-.781 0-.9-.539-.238-1.557-.629-2.608-1.171-3.141m-4.665-2.965l1.973.627c.182.061.211.148.092.271l-.359.717v3.77l.72-.088 1.076-1.076 1.346 1.164c.122.18.091.271-.088.271l-3.054.18-.089 4.219c1.016-.479 1.973-.896 2.874-1.258.237-.061.269 0 .087.18-1.076.779-2.064 1.5-2.961 2.154l-.092 3.324.092 3.23c.118 1.498-.72 2.785-2.518 3.861l-.179.092c-.057-.061-.088-.18-.088-.359 0-.721-.238-1.258-.716-1.619-.123-.178-.094-.297.088-.357 1.137.123 1.647-.119 1.524-.719v-6.105c-.178.119-.448.33-.809.629-1.016.721-1.613 1.199-1.794 1.436-.121.119-.18.15-.18.094 0 .057-.031.025-.091-.094l-.716-2.332c0-.123.029-.18.087-.18.299-.061 1.019-.299 2.156-.721.6-.238 1.077-.416 1.438-.535v-4.852l-3.053.182c-.182.061-.299.029-.361-.088 0-.182.092-.305.273-.361l3.141-.182v-.986c0-1.977-.031-3.412-.092-4.311 0-.119.029-.178.092-.178.002-.059.058-.059.181 0zm13.737 2.064l1.707 1.434c.118.062.06.182-.182.361l-4.85 4.578 2.518-.088 1.076-1.256 1.885 1.256c.117 0 .117.088 0 .27l-.629.719-.18 9.695.273.449c.057.119.025.178-.094.178h-1.344c-.721-.059-1.262-.086-1.618-.086l-7.989.18c-.182-.004-.273-.094-.273-.271 0-.18.092-.268.273-.268l8.707-.182v-5.297l-7.719.18c-.182 0-.273-.088-.273-.27 0-.18.062-.271.182-.271l7.811-.176.092-4.402-7.811.18c-.182 0-.273-.061-.273-.18-.057-.178 0-.268.182-.268l3.32-.092v-4.758l-.088-3.68 2.244.539c.182.057.182.211 0 .449l-.18.627-.179 6.373c1.736-2.751 2.872-4.723 3.412-5.923zM459.446 23.271c-.299.541-.688.957-1.168 1.256-.238.119-.448.031-.628-.268-.417-1.381-.896-2.635-1.437-3.773-1.438 2.273-3.26 4.402-5.475 6.375-.18.061-.303.061-.361 0-.061 0-.061-.088 0-.27 2.395-2.451 4.101-4.967 5.12-7.543-.722-1.555-1.528-2.99-2.425-4.309l.179-.088c.18.236.479.564.897.988.838.895 1.466 1.586 1.885 2.064.54-1.438 1.018-3.141 1.435-5.117l1.978.986c.119.119.09.27-.088.447l-.361.449c-.537 1.68-1.167 3.172-1.883 4.49 1.016 1.195 1.854 2.307 2.514 3.322.118.302.056.63-.182.991m-9.239-14.185c0-.182.06-.242.179-.182l1.886.896v.453l8.171-.18.809-1.35 2.064 1.076c.18.062.211.182.088.361l-.627.807c-.778 9.219-.088 14.516 2.064 15.893.18.123.329.092.452-.088l.536-.988c.119-.059.211 0 .27.18-.238.957-.15 1.646.271 2.064.36.539.329 1.02-.092 1.436-.479.242-1.107.211-1.885-.088-3.352-1.139-4.67-7.424-3.95-18.855l-8.171.268v5.479c.119 5.686-2.332 10.475-7.362 14.365-.119 0-.181-.061-.181-.18-.057-.061-.027-.117.091-.178 3.89-3.533 5.748-8.354 5.566-14.455v-3.682l-.179-3.052zM481.964 16.355c1.617.66 2.396 1.256 2.334 1.799 0 .596-.298 1.018-.896 1.256-.478.24-.747.148-.808-.268-.181-1.139-.479-2.008-.896-2.607-.001-.18.087-.238.266-.18m-6.373.092c1.616.6 2.395 1.195 2.332 1.795 0 .6-.299 1.02-.896 1.258-.539.119-.808 0-.808-.357-.062-.9-.36-1.736-.896-2.516v-.18c.057-.06.149-.06.268 0zm6.373 4.399c1.68.779 2.545 1.498 2.605 2.156-.117.719-.479 1.166-1.076 1.346-.54.242-.808.119-.808-.361-.181-1.312-.511-2.271-.988-2.873 0-.237.088-.327.267-.268zm-6.373.267c1.677.781 2.514 1.529 2.514 2.246-.059.6-.389 1.049-.989 1.35-.536.119-.836 0-.896-.361-.119-1.139-.417-2.123-.896-2.961-.061-.119-.061-.211 0-.273.056-.057.148-.057.267-.001zm-1.885-10.144c-1.076.062-1.886.15-2.426.27l-.716-.809 15.978-.176 1.438-1.438 1.615 1.705c.123.059.094.15-.087.268l-10.148.092 1.528.631c.059 0 .088.088.088.268l-.088.988v1.885l4.13-.088.896-1.082 2.156 1.258c.119.061.119.18 0 .359l-.628.809.27 9.516c.18 1.68-.69 3.084-2.604 4.221-.238.062-.357 0-.357-.18 0-.777-.272-1.316-.809-1.615-.123 0-.18-.031-.18-.088 0-.119.057-.182.18-.182.957.062 1.376-.119 1.257-.539l-.092-11.942-4.22.18v7.184l.088 4.223c-.18.834-.777 1.672-1.791 2.514-.242.057-.361-.094-.361-.449l.088-5.84v-7.631l-4.398.18v11.762c-.061.598-.478 1.379-1.256 2.336-.241.238-.421.33-.539.27-.119 0-.15-.119-.088-.361l.088-4.041v-11.58l1.977 1.076 4.217-.18v-1.346l-.088-2.514-5.118.086zM185.259 46.775v2.246l3.949-.088v-2.158h-3.949zm0 2.696v2.336l3.949-.092v-2.334l-3.949.09zm9.155-.629c.117 0 .18.062.18.18 0 .119-.062.211-.18.268l-3.143.092-.09 2.246 4.04-.092v-4.938l-3.95.092v2.152h3.143zm-11.045-4.49c-.716 0-1.495.062-2.333.182h-.18l-.628-.631 8.979-.18.088-2.244c-1.916.18-4.01.33-6.283.449-.062.061-.121.061-.18 0 0-.119.031-.207.088-.27 5.087-.777 9.068-1.703 11.941-2.779l1.529 1.611c.056.18 0 .303-.18.359-.542.062-1.439.15-2.694.27-.901.061-1.616.123-2.156.18l-.09 2.336 6.283-.092 1.262-1.254 1.524 1.434c.117.119.086.18-.09.18l-8.979.27v2.064l3.862-.088.715-1.076 2.158 1.076c.18.061.18.18 0 .361l-.452.535-.087 4.582.269.449c.061.119 0 .178-.182.178-.896-.121-3.023-.121-6.373 0v2.514l4.309-.18 1.08-1.076 1.524 1.256c.062.18.031.27-.088.27l-6.825.271v2.691l6.196-.092 1.345-1.164 1.438 1.256c.062.059.092.119.092.182 0 .057-.061.088-.179.088l-16.703.449c-1.137.117-1.973.209-2.513.27l-.628-.719 8.887-.18v-2.781l-3.408.088c-.603 0-1.258.062-1.978.18-.179.061-.329.088-.447.088l-.722-.627 6.555-.182.093-2.602h-1.797c-.957.059-1.704.088-2.246.088-.417.541-.865.959-1.344 1.258-.302.123-.479.061-.539-.182l.087-2.6v-5.209c-.056-.119-.027-.15.092-.088l1.798.807 3.949-.092v-2.064l-5.839.18zM206.249 42.826c1.615.6 2.454 1.166 2.511 1.707 0 .658-.238 1.137-.716 1.436-.478.18-.746.092-.809-.27-.061-1.197-.418-2.096-1.076-2.691-.119-.123-.092-.182.09-.182m3.319-2.783c0-.18.061-.238.182-.18l2.156 1.348 3.95-.092.086-2.783 2.606.543c.061 0 .119.025.181.088l-.089.178c-.305.182-.479.84-.54 1.975l3.234-.088 1.256-1.258 1.615 1.346c.119.18.088.27-.091.27l-12.569.361-.088.088-.094 6.016c.36 5.746-2.332 9.967-8.079 12.66-.117 0-.18-.061-.18-.18-.061-.061-.031-.119.09-.18 4.488-2.395 6.676-6.555 6.555-12.48-1.856 2.096-3.23 3.771-4.132 5.029-.298.418-.596.598-.895.541-.3-.123-.392-.391-.272-.811.36-.838.479-1.584.36-2.244.299.537 1.943-.51 4.938-3.145v-3.857c.002-1.081-.057-2.127-.18-3.145zm5.21 10.684c-.54 0-1.23.062-2.064.182-.242.061-.391.092-.449.092l-.631-.631 5.389-.092v-2.424l-.09-2.332-1.886.088c-.298.42-.84 1.229-1.616 2.424-.479.66-.838 1.168-1.076 1.529-.182.057-.241 0-.182-.182 1.021-2.275 1.796-4.67 2.334-7.182l1.978.809c.06 0 .118.027.179.088l-.088.18-.271.359c-.3.479-.63.988-.99 1.525l5.657-.088.897-1.08 1.349 1.26c0 .119-.031.176-.092.176l-5.387.094 1.438.447c.182.061.212.18.092.359l-.359.717-.094 2.064v1.168l4.224-.088 1.076-.988 1.255 1.168c0 .119-.027.178-.088.178l-6.014.092c.537 3.77 2.601 6.436 6.195 7.992.18.178.148.297-.094.357-.834-.061-1.793.357-2.871 1.258-2.215-1.977-3.41-5.18-3.59-9.607h-.094c0 4.609-3.47 7.992-10.41 10.145-.242-.059-.301-.18-.18-.357 5.802-2.037 8.707-5.268 8.707-9.699h-2.154zM233.435 54.498c1.678.719 2.725 1.406 3.143 2.068.18.297.031.834-.448 1.615-.301.299-.567.238-.808-.182-.599-1.734-1.289-2.842-2.066-3.32-.06-.181-.001-.241.179-.181m-1.436-11.582c0-.238.061-.361.18-.361l1.17.541c.235 0 .296.211.18.627.056 5.328-.273 8.92-.989 10.775-.54 1.975-2.064 3.982-4.581 6.016-.238.119-.299.062-.178-.18 1.973-1.797 3.199-3.799 3.677-6.014.541-2.156.721-5.957.541-11.404zm7.723 8.979l-.092 5.025 4.402-.176-.094-4.938-4.216.089zm4.129-.629l.897-1.076 1.977 1.164c.18.062.211.15.088.273l-.536.627.088 4.49.094.357c.057.18.025.271-.094.271h-1.168c-.599-.061-2.422-.029-5.475.088-.061.777-.479 1.586-1.258 2.424-.3.182-.45.15-.45-.086l.092-3.594v-5.748c0-.117.059-.148.18-.088l1.437.984 4.128-.086zm-3.681-8.62c-.957 0-1.767.061-2.425.18l-.628-.627 3.593-.092.088-3.41 2.334.535c.18.062.18.182 0 .361l-.18.719-.178 1.707h2.602l.988-1.076 1.437 1.164.092.182c-.062.061-.121.092-.179.092l-3.147.086 1.35 1.076c.12.123.12.271 0 .449l-1.884 4.133 2.692-.092 1.076-1.078 1.348 1.258c.12.119.12.211 0 .27l-10.057.271c-.898 0-1.708.059-2.423.18l-.361-.359c0 .416.031 1.045.094 1.883v1.438c-.242.896-.721 1.617-1.438 2.152-.18.062-.301 0-.358-.176v-13.11l-3.232.182-.449.535-.182 10.598c-.118.895-.417 1.703-.895 2.422-.125.119-.211.182-.272.182-.119 0-.18-.092-.18-.271l.18-10.686c0-1.854-.059-3.26-.18-4.217 0-.18.092-.242.271-.18l1.707 1.164h.085l3.234-.088.63-.988 1.528.898c.117.059.117.15 0 .27l-.448.717-.094 7.002 2.695-.088c0-2.096-.031-3.352-.09-3.768 0-.182.059-.242.179-.182l1.346.809c0 .057.031.119.093.18.057.059.088.119.088.176l-.088 2.785 2.065-.088c1.016-3.053 1.466-4.91 1.343-5.57l-3.77.09zM261.61 48.213c2.277 1.139 3.441 2.096 3.502 2.875 0 .719-.359 1.316-1.076 1.795-.539.182-.87 0-.987-.541-.36-1.854-.9-3.172-1.618-3.949v-.092c-.061-.057 0-.088.179-.088m-9.875 3.414c-.123.057-.211.027-.271-.092-.058-.059-.058-.119 0-.182 3.65-4.068 6.286-8.469 7.902-13.197l2.064 1.17c.121.057.09.18-.092.355l-.267.361c-.78 1.377-1.618 2.691-2.515 3.949l.09 13.65c-.059.838-.48 1.672-1.256 2.512-.121.119-.238.18-.363.18-.117 0-.175-.088-.175-.268l.089-6.02.086-8.078c-1.192 1.437-2.958 3.322-5.292 5.66zm11.314-6.199c-.181 0-.448.031-.809.094-.778 0-1.318.061-1.616.178l-.896-.627 7.09-.18v-6.107c-.057-.18 0-.236.182-.18l2.332.9c.123.119.123.238 0 .357l-.27.627v4.309h.99l1.166-1.342 1.527 1.342c.179.182.149.305-.088.361l-3.596.092-.088 6.824.088 3.768c0 1.799-1.045 3.234-3.141 4.311-.298.119-.448.029-.448-.27.119-.838-.123-1.436-.72-1.795-.119-.059-.148-.119-.09-.182 0-.057.059-.088.182-.088 1.495.059 2.154-.119 1.973-.539v-11.941l-3.768.088zM294.093 40.582c.062.18 0 .299-.175.361-3.533.299-6.884.504-10.057.627l-.091-.182c3.949-.898 6.733-1.826 8.352-2.783l1.971 1.977zm-8.166 10.326v5.564l6.014-.088v-5.658l-6.014.182zm-4.672-10.773l2.066 1.254-.269.449v3.949l10.684-.088 1.346-1.527 1.708 1.615c.12.182.09.301-.092.361l-13.646.18c0 3.473-.509 6.076-1.528 7.812-.835 1.734-2.781 3.561-5.834 5.479-.121.057-.211.057-.269 0 0-.123.027-.211.089-.273 2.395-1.734 3.893-3.441 4.488-5.117.718-1.736 1.076-4.609 1.076-8.619v-2.693c0-1.557-.029-2.426-.088-2.604.001-.178.089-.239.269-.178zm10.598 10.142l.983-1.256 2.066 1.256c.062.062.092.15.092.27l-.54.719.092 5.119.181.629c.057.18.057.268 0 .268 0 .062-.093.092-.272.092-1.854-.18-4.367-.271-7.543-.271h-.984v.627c-.18.902-.751 1.617-1.709 2.156-.179 0-.3-.09-.356-.266l.088-3.775v-3.41l-.088-2.963c.057-.238.178-.301.356-.182l1.709 1.168 5.925-.181zM303.775 60.604l-.27-.09c1.556-1.018 2.244-2.033 2.065-3.053h-.359c-1.076-.061-1.649-.541-1.706-1.438.057-.895.63-1.375 1.706-1.436 1.137 0 1.704.779 1.704 2.332-.355 1.618-1.404 2.849-3.14 3.685"/><path fill="#231815" d="M335.54 40.943l-.089 4.037 5.299-.088.09-4.043-5.3.094zm-11.58 10.684c-.062.057-.119.057-.18 0-.062-.123-.062-.211 0-.273 3.17-3.408 5.715-7.75 7.631-13.018l1.977 1.17c.117.057.117.176 0 .357l-.362.357c-.895 1.617-1.853 3.117-2.872 4.49l.268 12.932c-.117.658-.565 1.436-1.344 2.332-.122.121-.239.18-.36.18-.061 0-.117-.088-.179-.27l.179-6.014v-7.273c-1.436 1.858-3.023 3.53-4.758 5.03zm17.687-12.121l1.703 1.076c.123.059.123.15 0 .268l-.536.629-.091 3.502.179.271c0 .119-.029.176-.088.176h-.988c-2.456-.057-4.608-.025-6.465.094-.121.539-.448.988-.986 1.342-.18.123-.303.154-.358.092-.062 0-.094-.061-.094-.18v-4.756c0-1.258-.025-2.008-.086-2.246 0-.119.086-.119.267 0l1.616.717 5.03-.088.897-.897zm-6.644 9.783c-1.316.062-2.217.182-2.695.361l-.717-.717 5.833-.092v-.988l-.086-1.975c0-.18.059-.238.18-.18l1.884.898c.181 0 .241.119.181.357l-.181.811v.988l3.413-.092 1.164-1.258 1.528 1.35c.059.18.031.268-.09.268l-5.655.18c.84 2.994 2.993 5.207 6.463 6.643.121.061.18.119.18.18 0 .062-.059.119-.18.182-.597-.119-1.493.299-2.694 1.256-2.152-1.797-3.471-4.547-3.948-8.26h-.181v5.119l.09 3.141c-.059.84-.6 1.678-1.615 2.514-.179.121-.327.148-.452.092-.116-.062-.147-.182-.086-.359l.086-5.027v-2.873c-1.735 2.334-3.919 4.43-6.555 6.283-.116.061-.206.061-.267 0 0-.119.029-.211.092-.27 2.452-2.215 4.517-5.057 6.195-8.531h-1.887zM365.062 47.137l-5.747.18v1.885l4.942-.18c.178-.062.268 0 .268.18 0 .119-.09.18-.268.18l-4.942.182v1.883l5.658-.18.089-4.13zm-4.578-5.299c-.182 0-.448.031-.81.09-.84 0-1.374.061-1.615.18l-.629-.719 3.861-.09.091-2.873 2.334.541c.18.119.18.266 0 .447l-.269.721-.092 1.164 2.338-.088 1.076-1.076 1.435 1.254.09.182c-.059.057-.119.088-.18.088l-3.41.092.896.896c.062.061.062.15 0 .27.062-.119.031-.09-.088.092l-1.078 1.525 3.053-.088.986-.988 1.438 1.166.092.176c-.061.062-.121.094-.18.094l-10.777.18c-1.193.119-2.003.207-2.424.268l-.63-.717h3.502c0-.9-.027-1.588-.086-2.068 0-.119.059-.15.179-.088l1.344.629c.123 0 .182.092.182.27l-.09 1.258 1.706-.09c.778-1.195 1.137-2.129 1.076-2.783l-3.321.085zm-6.196-1.703l.897-.902 1.528 1.17c.119.061.148.119.088.18 0 .059-.057.119-.18.18l-.448.537c-.716 1.197-1.647 2.604-2.782 4.223 2.334 1.854 3.471 3.588 3.41 5.205-.119 1.379-.988 2.363-2.602 2.965-.061.057-.092.031-.092-.092.117-.836-.149-1.436-.807-1.793-.121-.061-.09-.123.09-.18.959.119 1.407-.062 1.346-.539.298-1.855-.27-3.713-1.705-5.566.479-1.438.927-2.994 1.346-4.672.059-.117.09-.209.09-.268l-2.336.18-.088 11.492v4.398c0 1.318-.392 2.455-1.168 3.414-.358.299-.568.299-.627 0l.179-6.02.268-14.902 1.437 1.076 2.156-.086zm5.026 11.76c-.117.301-.386.658-.804 1.076-.122.062-.241.094-.36.094-.061-.062-.091-.15-.091-.273v-4.578c0-.896-.027-1.465-.09-1.703 0-.062.062-.092.181-.092l1.164.445 5.57-.174.716-.811 1.705.984c.123 0 .15.062.092.182l-.358.629v2.965c0 .715-.362 1.406-1.078 2.064-.298.361-.54.387-.72.088-.3-.418-.507-.777-.628-1.076l-2.873.092 1.349.357c.18.061.211.209.086.447l-.18.359v1.709l3.862-.092 1.078-1.17 1.528 1.262.086.176c-.057.062-.117.092-.179.092l-6.376.182-.088 3.32c0 .598-.39 1.289-1.167 2.064-.479.361-.718.33-.718-.088l.09-5.297-2.602.088c-.304 0-.689.031-1.169.092-.597 0-1.019.027-1.256.088l-.722-.629 5.748-.088v-.633l-.09-2.24-1.706.089zM391.894 46.328l1.437 1.438c.057.117.025.209-.092.268l-.448.18c-1.498.6-2.812 1.139-3.95 1.617l-.094-.18c1.317-1.077 2.364-2.184 3.147-3.323m-19.665 5.207c-.062.061-.119.092-.18.092-.062-.062-.094-.15-.094-.273 3.176-3.83 5.51-8.107 7.007-12.836l1.794 1.076c.121.061.092.15-.09.27l-.268.271c-.539 1.312-1.261 2.631-2.156 3.949l-.088 13.469c-.122.836-.51 1.643-1.169 2.422-.359.299-.565.299-.628 0l.18-6.014.181-7.633c-1.436 1.973-2.934 3.713-4.489 5.207zm10.504-8.347c-.3 0-.721.027-1.258.088-.656 0-1.076.031-1.257.09l-.808-.631 5.475-.088.094-3.68 2.332.715c.121 0 .18.031.18.092.062.062.031.15-.088.27l-.271.627-.09 1.977 3.592-.092 1.347-1.344 1.438 1.436c.118.119.118.211 0 .27l-7.9.18 1.704.807c.238.119.238.27 0 .449l-.268.271c.238 5.207 2.752 9.486 7.54 12.838.122.062.179.119.179.182h-.179c-1.139-.062-2.153.357-3.054 1.254-3.111-3.172-4.696-7.871-4.757-14.098l-.09.094c-.597 1.014-1.317 2.062-2.156 3.141l-.269 8.711 3.143-1.889c.18-.057.241 0 .18.182l-3.142 3.053c-.36.299-.84.775-1.437 1.438.479-.48.448-.42-.092.18-.178.061-.299.088-.356.092l-1.528-1.262c-.059-.057-.059-.148 0-.268l.539-.27c.48-.18.866-.299 1.168-.357l-.09-7.453c-.479.537-1.228 1.314-2.245 2.334-.659.658-1.139 1.168-1.438 1.523-.235-.057-.329-.148-.267-.268 2.632-3.232 4.694-6.762 6.193-10.592h-2.064zM413.603 41.211c1.195.297 1.885.717 2.064 1.256 0 .541-.24.928-.72 1.168-.356.119-.567.031-.628-.27-.119-.898-.388-1.557-.809-1.977-.058-.115-.027-.177.093-.177m-8.799 14.545c.061-.119.148-.119.267 0 .901.957 1.381 1.736 1.438 2.334 0 .119-.031.299-.088.541l-.092.178c-.182.238-.448.449-.81.629-.535.182-.777-.029-.715-.629.119-.957.119-1.977 0-3.053zm4.041-.092c-.062-.236 0-.268.176-.088 1.139.779 1.827 1.525 2.068 2.244.059.18 0 .389-.18.629-.122.359-.329.598-.629.717-.601.303-.93.148-.986-.447 0-.959-.15-1.975-.449-3.055zm-7.812.092c.599.957.655 1.973.177 3.053-.479.836-1.078 1.287-1.793 1.346-.422-.479-.391-1.107.088-1.885.777-.418 1.198-1.227 1.257-2.426 0-.18.092-.207.271-.088zm11.76-.719c1.675.6 2.905 1.318 3.683 2.156.597.418.628.988.088 1.703-.237.361-.509.6-.809.723-.776.535-1.227.385-1.344-.453-.479-1.916-1.051-3.23-1.71-3.949-.055-.18-.025-.238.092-.18zm-.538-7.633c.72 2.514 2.753 4.461 6.106 5.84.061.057.088.117.088.174 0 .062-.059.094-.178.094-.782 0-1.767.359-2.964 1.076-1.916-1.855-2.992-4.219-3.234-7.09l.182-.094zm-1.975-8.172c-.061-.117 0-.146.178-.088l1.889.629c.119.119.119.238 0 .361l-.361.535-.091 3.414v.627c-.059.301-.088.541-.088.717l2.784-.088.896-.895 1.076 1.164c.119.121.092.178-.088.178l-4.759.092c-.358 3.891-3.324 6.912-8.89 9.068-.119.059-.18.031-.18-.092-.059-.057-.027-.119.09-.176 4.489-2.037 6.942-4.969 7.363-8.801l-1.883.182c-.182.057-.305.088-.361.088l-.809-.627 3.141-.094c.062-.176.092-.479.092-.895.059-.361.09-.631.09-.811v-1.434c0-.42-.031-1.016-.09-1.799l.001-1.255zm-6.552-.265l1.343 1.168c0 .059-.029.148-.087.268-.061.238-.18.479-.361.717l1.886-.088.809-1.076 1.704 1.256c.123.117.092.268-.088.447l-.715.541c-1.619 5.566-5.541 9.666-11.767 12.299-.119 0-.148-.061-.088-.178 5.387-2.992 8.77-7.275 10.145-12.842l-2.153.092c-.122.119-.272.33-.447.629-.303.535-.541.928-.72 1.166 1.076.238 1.677.508 1.796.807.058.42-.092.84-.449 1.256-.36.242-.627.213-.807-.088-.182-.66-.453-1.195-.81-1.617-.421.66-.957 1.318-1.616 1.977.957.48 1.585.898 1.886 1.256 0 .48-.182.898-.54 1.258-.48.361-.778.299-.897-.18-.118-.777-.36-1.467-.717-2.064-1.08 1.316-2.395 2.543-3.954 3.682-.18.061-.238 0-.18-.18 3.232-3.053 5.447-6.525 6.646-10.416-.001-.178.057-.209.181-.09zM440.972 53.6l-8.353.18c-.18.422-.571.809-1.168 1.168-.18.059-.3.059-.36 0v-3.773l.092-3.857-.092-2.783 1.889.807c.057.062.057.15 0 .27l-.272.627v7.182l1.977-.088-.092-8.979c0-1.375-.027-2.301-.087-2.781-.18.057-.48.119-.897.18-1.497.301-2.573.508-3.232.631-.241 0-.241-.062 0-.182 3.53-1.199 6.075-2.395 7.631-3.594l1.528 1.529c.176.178.176.297 0 .355l-.634.18c-.417.062-1.163.211-2.239.449l-1.35.27 1.526.539c.121.123.121.242 0 .361l-.177.627-.092 3.145 3.501-.182c.24.182.24.33 0 .449l-3.501.182-.088 6.734h1.883l1.258-1.168 1.438 1.254c.058.061.027.148-.089.268m-14.19-14.274l1.887 1.164-.092.18-.627.809-1.798 5.119h1.349l.628-.898 1.886.898c.119.061.147.15.092.266l-.629.902c-.36 2.512-1.051 4.695-2.068 6.555 2.518 1.854 7.543 2.754 15.087 2.693.118 0 .179.029.179.088 0 .061-.061.121-.179.18-1.076.062-2.215.957-3.414 2.693-5.983-.299-10.144-1.793-12.478-4.49-1.26 1.617-2.784 2.996-4.582 4.135-.057.057-.119.057-.18 0-.058-.062-.058-.15 0-.273 1.858-1.375 3.173-2.99 3.952-4.848-.838-1.08-1.558-2.723-2.156-4.936h.182c.659 1.611 1.466 2.898 2.423 3.855.6-1.854 1.017-3.947 1.258-6.281l-1.528.088c-.356.361-.896.658-1.612.9-.242 0-.361-.123-.361-.359l2.153-7.004-2.692.182c-.238.057-.389 0-.449-.182 0-.18.119-.271.361-.271l2.601-.27.807-.895zM454.776 46.236c1.679.303 2.545.689 2.605 1.168.118.42-.029.871-.447 1.35-.36.297-.629.236-.809-.18-.361-1.139-.839-1.857-1.438-2.156-.117-.059-.09-.119.089-.182m-1.164 2.518c1.794.479 2.751.957 2.874 1.436.117.48-.062.93-.542 1.346-.298.359-.569.33-.807-.09-.418-1.199-.958-2.006-1.617-2.424-.062-.062-.089-.117-.089-.18.001-.061.058-.088.181-.088zm6.195 5.654c2.632 1.02 4.279 1.857 4.938 2.512.238.48.088 1.17-.448 2.068-.242.238-.39.357-.452.357-.119 0-.299-.15-.536-.449-.958-1.734-2.157-3.172-3.594-4.309-.118-.062-.087-.118.092-.179zm-6.286-.447c.119 0 .211.029.268.086 0 .062-.025.123-.088.182l-3.681 2.156c-1.437.777-2.365 1.344-2.786 1.705-.119.119-.207.119-.268 0l-1.169-2.246c.122 0 .272-.031.452-.088.957-.119 1.793-.297 2.513-.539l4.759-1.256zm2.693-11.58c-.897.055-1.675.146-2.334.266l-.628-.719 4.217-.09v-.627c0-1.199-.024-2.125-.087-2.785l2.513.629c.181.061.181.209 0 .451-.236.238-.358.688-.358 1.344l-.09.9h2.334l.988-1.168 1.437 1.346c.119.061.092.148-.088.271l-4.671.09v2.783l3.862-.18.896-.99 2.156 1.977c.119.059.18.15.18.27-.061.061-.152.088-.271.088-.838 0-1.973.512-3.409 1.529-.18.059-.242 0-.18-.18l.628-2.158-7.274.271c-1.076 0-1.973.088-2.694.27l-.628-.717 4.67-.18.087-2.691h-1.256zm2.156 3.588l2.513.807c.182.062.182.211 0 .449l-.448.629-.271 2.965c0 .535-.059 1.016-.175 1.436l3.407-.178 1.17-1.438 1.796 1.615c.119.059.088.15-.092.27l-6.375.268c-.478 3.533-4.367 6.105-11.673 7.723-.119 0-.206-.061-.267-.18 0-.061.061-.119.179-.18 6.106-1.674 9.397-4.1 9.877-7.271l-2.873.088c-.897.062-1.706.15-2.426.273l-.536-.721 5.923-.182c.061-.178.092-.416.092-.715.059-.299.088-.508.088-.627l.092-1.799c.118-1.555.118-2.635-.001-3.232zm-7.002-3.235l1.613 1.711c.12.057.092.178-.09.354-2.094 2.699-3.86 4.732-5.297 6.109l5.565-.451c.123.062.123.15 0 .27-3.352 1.139-5.475 1.945-6.375 2.426-.119.119-.207.148-.267.092-.061 0-.088-.062-.088-.18l-.632-2.065c.542.057 1.051-.182 1.528-.723.777-1.018 1.647-2.453 2.606-4.309-.123.061-.329.119-.63.18-1.616.6-2.573.988-2.871 1.168-.242.119-.393.088-.453-.092l-.356-1.703c.536.061.984-.182 1.345-.723.778-1.256 1.617-3.32 2.514-6.193l1.889 1.438c.117.061.057.24-.181.539-.901 1.375-2.188 2.961-3.862 4.758l2.961-.088c.123-.303.301-.719.541-1.26.297-.654.478-1.076.54-1.258z"/><path fill="none" d="M0 0h640v77.258h-640z"/></svg>