<svg xmlns="http://www.w3.org/2000/svg" width="640" height="377.962" viewBox="0 0 640 377.962"><path fill="#AE7B28" d="M506.805 221.236c-9.812-2.266-17.362-6.036-18.871-9.059-1.507-3.018-10.568-6.036-11.321 2.266-.754 8.302-8.682 19.056-13.209 21.325-4.529 2.258-8.682 1.318-9.436 3.583-.755 2.266-8.302 12.833-8.302 12.833s2.263-30.192 1.507-43.781c-.754-8.298-10.565-24.152-18.869-30.192-3.773-3.771-10.568-33.21-9.06-40.759 5.286-2.266 26.422-3.021 38.498-6.793 12.075-3.776 30.191-27.928 33.966-29.441 3.773-1.511 12.833-9.056 9.059-13.589-3.774-4.523-11.322-9.812-13.585 2.271-6.04 6.036-24.156 27.17-34.724 25.657-9.812-.751-40.006 0-40.006 0s-2.266-6.034-7.547-6.034h-5.288l-2.264-11.325s4.529-11.323-7.547-18.116-20.38 3.774-20.38 12.833c0 9.062 3.017 19.629 7.545 24.155 1.512 2.266 3.777 5.284.759 8.3-3.021 3.024-13.589 10.569-13.589 14.346s6.793 37.743 6.038 40.761c-.753 3.019-10.569 1.505-18.87.757-4.529-.757-7.549-12.08-16.605-6.04-.755-6.793-6.793-19.625-18.871-8.302-3.773 3.771-4.528 6.793-4.528 13.585 0 6.793 0 13.585 3.02 16.607-2.265 2.262-12.836-2.266-19.629-2.266 1.513-3.774-2.261-12.076 1.513-14.342 3.775-2.266 9.811-3.018 9.055-9.058-.749-6.04-3.774-6.04-6.034-10.567-2.264-4.535-9.06-28.683-11.325-31.705-1.51-1.509-5.28-24.156-3.771-30.191 1.51-6.04-3.02-17.36-9.062-21.139-6.036-3.771-21.889-5.283-21.136-16.603.758-11.324 18.874-41.516-8.3-43.781 0 0-17.363-5.284-16.606 19.625 1.509 9.811 3.02 9.811 3.02 18.116 0 7.547-6.042 9.811-11.325 10.566-5.284.753-12.076-.756-24.909 9.057-12.828 9.812-21.889 21.895-25.661 26.421-3.774 4.529-16.606 27.173-18.118 30.951-1.507 3.771-5.283 19.621-2.263 21.134 3.021 1.509 9.056 2.266 11.321-5.283 3.016 3.02 6.038 0 7.551-5.284 1.509-5.283-3.776-9.056 1.509-15.853 4.527-6.798 13.587-15.853 16.604-18.113 3.019-2.266 17.363-16.611 21.138-9.814 3.774 6.792-.752 33.214-2.266 38.497-1.509 5.283-4.528 17.359-.756 18.864 2.262 6.801-6.793 42.276-6.036 62.654.755 9.814-.757 62.653-1.513 70.202-.751 7.549-3.019 33.21-1.51 36.232 1.51 3.021 6.04 3.771 3.022 8.298-3.022 4.534-14.342 15.854 5.283 15.098 6.793 0 14.34-7.545 15.097-12.832 4.528-3.015 4.528-91.333 4.528-98.882 0-7.55 6.04-37.741 11.323-36.981 5.284.749 9.812 23.396 13.586 30.188 3.018 6.793 3.018 44.537 3.018 54.348 0 9.815-.752 39.251 5.285 44.534 3.021 3.021 0 10.571 1.512 12.832 1.509 2.27 5.285.757 8.301 3.779 3.019 3.014 11.324 5.283 15.097 1.509 2.267-3.778 1.509-8.31-4.527-12.837 5.285-2.262 3.774-9.054 5.285-14.338 1.509-5.287 4.527-46.046-1.511-54.352-5.285-6.793-7.549-19.625-7.549-23.399s-1.509-67.93-3.776-75.486c-2.262-7.545-4.527-33.961-4.527-41.514 5.284 7.553 12.833 26.42 20.382 34.726 7.545 8.305 6.793 12.832 3.774 15.85-3.022 3.022-6.042 17.364-5.284 20.382.753 3.019 19.626 10.563 20.382 16.607.749 6.036 1.505 18.868 6.036 24.908 2.266 4.527-.756 20.382-2.266 25.665-1.509 5.283-7.545 12.833-8.301 18.116-.755 5.279-.755 35.476 5.279 37.737 2.27 2.266 0 4.531-1.505 7.553-1.509 3.018 1.505 8.302 7.547 5.283 5.283-3.021 4.528-12.836 4.528-12.836s1.512.76 3.022-1.505c1.509-2.27 3.772-18.873 3.772-24.156s4.527-23.399 9.057-23.399c4.526 0 6.794 6.04 5.285 14.341-1.51 8.302-7.551 15.851-6.793 21.891.755 6.036-3.021 15.851.755 18.873 3.772 3.021 11.319 5.283 11.319-6.044 2.266-5.279-3.961-9.998 4.529-11.315 3.776-1.514 13.591-21.143 14.344-26.422.752-5.283-15.852-35.479-15.852-42.272 0-6.792-6.039-25.665.753-28.679 6.795-3.022 18.12-4.531 12.835-16.611 12.076.757 21.132 5.284 22.643 1.51 1.51-3.771 2.268-12.833 2.268-12.833s7.545 15.098 9.059 21.138c1.509 6.04-5.288 27.927-6.041 31.701-.756 3.774-12.832 40.764-9.058 46.8 3.772 6.04 14.342 34.723 18.87 34.723 4.527 0 14.34 20.382 15.097 24.156.755 3.771-1.511 17.363-3.021 20.381-1.507 3.019-9.811 7.542-6.794 9.055 3.022 1.513 14.771-1.217 19.272-11.585 3.771-5.287 10.165-3.509 6.395-11.059-3.774-7.549-15.853-30.948-14.346-35.479 3.776 0 4.531-8.301.757-11.319-3.774-3.021-11.325-22.647-6.791-36.984 4.527-14.338 8.304-18.873 8.304-18.873s2.262 26.418 6.791 33.971c4.528 7.541 13.587 12.072 24.908 3.771 9.812-8.302 26.988-22.081 22.46-34.91 6.038-5.283 13.211-19.816 21.511-17.547 6.039 0 15.285-2.27 23.21 1.692 5.282 4.528 2.264-8.87-7.55-11.135m-158.323-24.531c-5.097 3.4-13.589-1.699-15.287 1.696-.567-4.526 3.394-6.227 2.829-16.42 0 0 1.699 5.67 9.06 6.797 3.398 1.697 8.493 4.532 3.398 7.927zM346.062 90.438h-10.624v4.27h10.624v-4.27zm-10.624 9.907h10.624v-4.463h-10.624v4.463zm-1.334-11.116h4.268c.388-.842.718-1.681.995-2.524l1.419.376c-.331.737-.671 1.455-1.018 2.148h7.635v13.463h-1.34v-1.141h-10.624v1.141h-1.335v-13.463zM345.706 108.273h-2.477v9.959h2.477v-9.959zm-6.177 9.959h2.478v-9.959h-2.478v9.959zm-3.698 0h2.474v-9.959h-2.474v9.959zm-3.016 0h1.775v-11.179h4.05c.288-.788.563-1.665.822-2.624l1.436.292c-.24.729-.507 1.505-.8 2.332h6.848v11.179h1.822v1.238h-15.953v-1.238zM332.896 126.078l1.061-.324c.291.999.585 2.069.878 3.21l-1.174.343c-.217-1.131-.47-2.207-.765-3.229m3.409 3.521c0 4.009-.851 6.848-2.542 8.507-.252-.357-.552-.716-.899-1.074 1.162-1.205 1.862-2.931 2.103-5.175-.525.336-1.184.741-1.972 1.215l-.308-1.368c.998-.479 1.795-.899 2.394-1.254v-6.325h6.413c-.283-.44-.61-.912-.987-1.419l1.076-.616c.466.597.864 1.146 1.191 1.646l-.655.39h6.748v1.139h-12.562v4.334zm.633-2.753h11.569v1.143h-5.052c-.012.649-.035 1.248-.072 1.79h4.65v6.177c0 1.271-.655 1.914-1.972 1.922-.759.012-1.683.004-2.771-.014-.062-.38-.148-.809-.257-1.288.865.065 1.751.097 2.655.097.736 0 1.107-.323 1.107-.979v-4.806h-3.545l-.098.563c1.17 1.248 2.16 2.355 2.976 3.314l-.947.943c-.798-1.053-1.603-2.047-2.41-2.988-.501 1.212-1.493 2.345-2.982 3.397-.25-.315-.534-.658-.849-1.025 1.882-1.154 2.919-2.554 3.113-4.205h-3.392v7.188h-1.236v-8.298h4.774c.041-.53.07-1.131.08-1.79h-5.344v-1.141zM157.429 239.473h4.629v-1.368h-4.629v1.368zm10.465-1.369h-4.629v1.368h4.629v-1.368zm-4.629 3.65h4.629v-1.399h-4.629v1.399zm-5.836 0h4.629v-1.399h-4.629v1.399zm9.811 3.08h-9.144v1.404h9.144v-1.404zm-9.143 3.782h9.144v-1.403h-9.144v1.403zm-1.874-11.456h12.873v6.048h-1.202v-.507h-10.465v.507h-1.206v-6.048zm.637 6.695h11.619v6.488c0 1.271-.793 1.907-2.38 1.907-.847 0-1.448-.004-1.808-.016-.088-.444-.176-.874-.262-1.271.979.062 1.668.098 2.069.098.762 0 1.141-.331 1.141-.994v-.472h-9.144v2.799h-1.236v-8.539zM154.579 258.076l1.01-.405c.382.869.779 1.906 1.207 3.111l-1.125.44c-.35-1.15-.714-2.199-1.092-3.146m5.229 6.34h2.804v-1.517h-2.804v1.517zm6.028 0h2.839v-1.517h-2.839v1.517zm-4.937-4.464h6.652v-1.225h-6.652v1.225zm-2.117 2.004h4.823v3.763h-.994v-.358h-2.804v.44h-1.025v-3.845zm6.046 0h4.856v3.845h-1.01v-.44h-2.839v.358h-1.008v-3.763zm-4.725 6.356h3.585v-2.397h1.076v2.397h3.585v-1.906h1.044v3.618h-1.044v-.667h-9.289v-2.951h1.043v1.906zm-.342-10.559h8.896v3.567h-1.105v-.394h-6.652v.394h-1.139v-3.567zm2.672-3.179l1.076-.619c.337.476.701 1.057 1.092 1.742h5.996v1.076h-12.481v4.906c0 3.91-.756 6.753-2.265 8.523-.25-.358-.551-.718-.897-1.076 1.174-1.458 1.815-3.264 1.923-5.428-.673.425-1.35.842-2.021 1.256l-.31-1.369c.879-.413 1.677-.834 2.396-1.271l.016-.589v-6.028h6.176l-.701-1.123zM134.95 245.567h2.444v-2.999h-2.444v2.999zm2.445-7.135h-2.444v3.03h2.444v-3.03zm1.727 5.049h4.188v-4.886h-3.651v-1.174h8.571v1.174h-3.648v4.886h4.121v1.174h-4.121v7.643h-1.271v-7.643h-4.188v-1.174zm-5.381-6.161h4.856v13.234c0 1.119-.53 1.681-1.597 1.681-.616 0-1.145-.008-1.579-.02-.045-.421-.109-.835-.195-1.236.509.062.983.098 1.416.098.501 0 .752-.266.752-.8v-3.599h-2.462c-.041 2.41-.542 4.336-1.5 5.782-.28-.312-.602-.604-.963-.865.851-1.291 1.271-3.162 1.271-5.619v-8.656zM132.556 258.076l1.008-.405c.381.869.782 1.906 1.207 3.111l-1.127.44c-.347-1.15-.709-2.199-1.088-3.146m5.226 6.34h2.805v-1.517h-2.805v1.517zm6.031 0h2.836v-1.517h-2.836v1.517zm-4.937-4.464h6.648v-1.225h-6.648v1.225zm-2.119 2.004h4.826v3.763h-.996v-.358h-2.805v.44h-1.025v-3.845zm6.047 0h4.855v3.845h-1.01v-.44h-2.836v.358h-1.01v-3.763zm-4.727 6.356h3.588v-2.397h1.076v2.397h3.583v-1.906h1.043v3.618h-1.043v-.667h-9.288v-2.951h1.041v1.906zm-.341-10.559h8.896v3.567h-1.107v-.394h-6.648v.394h-1.14v-3.567zm2.673-3.179l1.076-.619c.335.476.701 1.057 1.09 1.742h5.997v1.076h-12.483v4.906c0 3.91-.753 6.753-2.262 8.523-.252-.358-.552-.718-.9-1.076 1.173-1.458 1.816-3.264 1.926-5.428-.675.425-1.35.842-2.021 1.256l-.311-1.369c.879-.413 1.677-.834 2.395-1.271.012-.183.018-.378.018-.589v-6.028h6.178c-.241-.378-.475-.752-.703-1.123zM112.958 247.264h4.66v-1.743h-4.66v1.743zm4.66-4.582h-4.66v1.747h4.66v-1.747zm3.178-.846h1.238v7.334h-1.238v-7.334zm3.357-.784h1.271v9.113c0 1.333-.628 2.008-1.891 2.02-.577.012-1.291.004-2.151-.016-.056-.448-.13-.9-.228-1.369.804.086 1.454.129 1.956.129.695 0 1.043-.351 1.043-1.061v-8.816zm-13.507-2.215h5.261c-.359-.565-.815-1.177-1.369-1.84l1.025-.702c.675.753 1.221 1.419 1.63 2.004l-.805.538h4.459l-.655-.358c.577-.702 1.076-1.442 1.501-2.215l1.24.718c-.501.683-1.004 1.302-1.51 1.855h5.159v1.143h-15.937v-1.143zm2.312 13.593h-1.24v-10.852h7.14v9.105c0 1.068-.548 1.587-1.646 1.567-.456 0-1.084-.012-1.875-.035-.064-.421-.148-.823-.246-1.205.667.055 1.277.082 1.841.082.456.012.687-.215.687-.671v-2.066h-4.66v4.075zM122.034 266.062h-1.254v-9.975h1.254v9.975zm2.345-11.78h1.307v13.46c0 1.381-.626 2.075-1.876 2.087-.597.008-1.481.004-2.655-.016-.055-.503-.141-.991-.261-1.471 1.121.098 1.943.148 2.478.148.673 0 1.008-.366 1.008-1.092v-13.116zm-11.095 8.539l.797-.912c.826.679 1.579 1.342 2.26 1.996.725-1.263 1.24-2.628 1.538-4.102h-3.665c-.854 1.957-1.903 3.716-3.146 5.279-.238-.554-.457-.986-.651-1.302 1.638-2.203 2.905-4.785 3.788-7.74h-3.25v-1.174h9.14v1.174h-4.547c-.253.896-.538 1.759-.854 2.589h4.522v1.193c-.893 4.453-3.232 7.892-7.025 10.313-.281-.323-.617-.659-1.011-.994 1.86-1.201 3.346-2.589 4.469-4.164-.621-.607-1.408-1.325-2.365-2.156zM114.652 273.747h-1.972v2.917h1.972v-2.917zm-1.971 6.926h1.972v-2.999h-1.972v2.999zm11.635-6.29h-6.063v1.563h6.063v-1.563zm-6.063 4.188h6.063v-1.579h-6.063v1.579zm-1.971 3.685v-1.076h3.765v1.139c-.556 1.836-1.708 3.381-3.454 4.628-.242-.401-.477-.748-.702-1.041 1.458-.912 2.46-2.129 3.014-3.649h-2.623zm-4.724-9.569h4.22v13.301c0 .889-.362 1.392-1.092 1.497-.403.066-1.041.066-1.925 0-.041-.378-.109-.76-.194-1.143.542.078 1.031.113 1.466.117.415-.004.62-.229.62-.687v-4.086h-1.972c.031 2.812-.405 4.854-1.321 6.126-.247-.328-.542-.632-.88-.913.739-1.228 1.098-2.928 1.078-5.1v-9.112zm5.572.62h2.527c.203-.554.386-1.115.534-1.692l1.241.344-.555 1.349h4.562v6.848h-1.123v-.507h-2.38v.538c.325.9.734 1.711 1.222 2.429.827-.687 1.587-1.423 2.281-2.219l.948.815c-.706.736-1.553 1.505-2.527 2.301.803.877 1.79 1.583 2.964 2.117-.312.315-.636.682-.96 1.107-1.836-1.088-3.146-2.5-3.928-4.235v3.26c0 .987-.379 1.568-1.141 1.743-.383.086-1.186.109-2.41.062-.059-.413-.133-.83-.23-1.256.761.055 1.354.082 1.774.082.579 0 .866-.296.866-.893v-5.853h-2.543v.569h-1.123v-6.909zM110.528 293.427l1.011-.409c.382.87.783 1.907 1.208 3.115l-1.127.441c-.347-1.154-.711-2.203-1.092-3.147m5.23 6.337h2.804v-1.513h-2.804v1.513zm6.032 0h2.835v-1.513h-2.835v1.513zm-4.936-4.461h6.648v-1.225h-6.648v1.225zm-2.122 2h4.827v3.767h-.998v-.358h-2.804v.44h-1.025v-3.849zm6.048 0h4.854v3.849h-1.01v-.44h-2.835v.358h-1.01v-3.767zm-4.726 6.36h3.584v-2.398h1.076v2.398h3.587v-1.911h1.041v3.619h-1.041v-.667h-9.29v-2.952h1.043v1.911zm-.343-10.559h8.898v3.567h-1.107v-.394h-6.648v.394h-1.143v-3.567zm2.675-3.182l1.076-.62c.336.479.7 1.061 1.088 1.743h5.997v1.076h-12.481v4.909c0 3.907-.752 6.749-2.266 8.52-.25-.358-.55-.718-.896-1.072 1.174-1.458 1.816-3.268 1.926-5.432-.674.429-1.351.847-2.023 1.26l-.309-1.373c.878-.409 1.678-.834 2.395-1.271l.016-.585v-6.032h6.179c-.242-.379-.476-.753-.702-1.123zM95.057 240.272h2.95v-1.548h-2.95v1.548zm-4.107 0h2.966v-1.548h-2.966v1.548zm11.16-1.547h-2.964v1.548h2.964v-1.548zm-7.315 8.032l-.487.409h3.778c.468-.476.948-1.014 1.438-1.599h-5.886c.382.371.767.769 1.157 1.19zm-5.019-9.012h4.447c.164-.425.322-.896.475-1.415l1.302.308-.472 1.107h7.756v3.896h-1.174v-.39h-11.16v.39h-1.174v-3.896zm-1.188 11.687h7.332v-1.322h-5.999v-.943h3.717c-.412-.437-.792-.807-1.139-1.107l.65-.491h-4.367v-.975h7.138v-1.193h-5.702v-.943h5.702v-1.025h1.271v1.025h5.733v.943h-5.733v1.193h7.171v.975h-4.287l.65.425c-.37.379-.775.772-1.22 1.174h3.716v.943h-6.03v1.322h7.432v.979h-7.432v1.954h-1.271v-1.954h-7.332v-.98zM89.841 260.408c1.238.694 2.416 1.364 3.539 2.004.184-.771.29-2.082.323-3.927h-4.757v-1.255h4.804c.023-.979.039-2.017.051-3.112h1.386c-.021 1.127-.05 2.164-.081 3.112h5.262v10.04c-.041.737.261 1.107.913 1.107h.654c.649 0 1.025-.319 1.123-.963.086-.565.176-1.474.262-2.722.421.176.877.343 1.368.503-.086.916-.194 1.79-.325 2.628-.154 1.205-.912 1.806-2.283 1.806h-1.045c-1.432 0-2.109-.753-2.035-2.262v-8.883h-3.942c-.055 2.258-.201 3.806-.44 4.645 1.021.585 1.988 1.15 2.9 1.696l-.75 1.221c-.835-.543-1.683-1.084-2.543-1.615-.844 2.324-2.411 4.208-4.692 5.639-.272-.335-.62-.694-1.041-1.072 2.246-1.38 3.757-3.154 4.53-5.314-1.261-.761-2.542-1.513-3.848-2.25l.667-1.026zM88.506 275.752l1.01-.41c.382.874.782 1.911 1.207 3.116l-1.125.44c-.349-1.15-.714-2.199-1.092-3.146m5.228 6.34h2.804v-1.517h-2.804v1.517zm6.029 0h2.839v-1.517h-2.839v1.517zm-4.937-4.465h6.652v-1.224h-6.652v1.224zm-2.117 2.001h4.825v3.767h-.996v-.359h-2.804v.441h-1.025v-3.849zm6.046 0h4.856v3.849h-1.01v-.441h-2.839v.359h-1.008v-3.767zm-4.726 6.359h3.585v-2.398h1.076v2.398h3.586v-1.907h1.043v3.619h-1.043v-.667h-9.291v-2.952h1.044v1.907zm-.341-10.559h8.896v3.568h-1.105v-.395h-6.652v.395h-1.139v-3.568zm2.672-3.182l1.076-.62c.338.479.7 1.061 1.09 1.747h5.998v1.076h-12.482v4.905c0 3.911-.754 6.754-2.266 8.521-.249-.359-.549-.718-.896-1.072 1.174-1.459 1.815-3.264 1.922-5.429-.672.426-1.349.843-2.02 1.256l-.31-1.372c.879-.41 1.679-.831 2.396-1.271l.016-.585v-6.028h6.177l-.701-1.128zM552.508 192.646l.979-.425c.513.924.919 1.773 1.223 2.558l-1.059.44c-.238-.608-.621-1.469-1.143-2.573m2.919-.506l1.025-.39c.425 1.029.762 1.953 1.012 2.768l-1.109.379c-.172-.621-.484-1.541-.928-2.757zm-3.064-.476l-.228-1.186c2.953-.078 5.763-.234 8.424-.472l.262 1.154c-2.979.207-5.797.379-8.458.504zm9.45-1.919h1.271v13.066c0 .718.382 1.076 1.141 1.076h.814c.859 0 1.344-.39 1.453-1.173.106-.815.177-1.747.21-2.804.435.198.866.37 1.289.522-.104 1.174-.229 2.164-.376 2.967-.229 1.15-1.038 1.728-2.428 1.728h-1.125c-.836 0-1.424-.168-1.761-.503-.323-.331-.489-.912-.489-1.747v-13.132zm-9.957 10.61c1.369-.16 2.737-.34 4.108-.53v-1.248l2.771-1.926h-6.274v-1.139h5.249c.672-1.299 1.253-2.582 1.742-3.849l1.172.476c-.487 1.076-1.053 2.199-1.687 3.373h1.571v1.224l-3.273 2.332v.577c1.162-.176 2.326-.362 3.488-.562-.066.507-.107.939-.131 1.303-1.127.163-2.244.327-3.357.503v2.266c0 .803-.136 1.349-.409 1.63-.313.335-.867.507-1.661.507-.629 0-1.238-.02-1.824-.051-.043-.358-.121-.804-.229-1.334.456.074 1.059.117 1.81.129.696.012 1.043-.358 1.043-1.111v-1.829c-1.305.203-2.597.418-3.88.644l-.229-1.385zM555.916 209.262h-1.974v2.916h1.974v-2.916zm-1.974 6.925h1.974v-2.999h-1.974v2.999zm11.638-6.291h-6.063v1.564h6.063v-1.564zm-6.063 4.189h6.063v-1.583h-6.063v1.583zm-1.971 3.681v-1.076h3.765v1.143c-.556 1.836-1.708 3.381-3.457 4.628-.239-.401-.474-.748-.702-1.045 1.459-.912 2.463-2.125 3.017-3.649h-2.623zm-4.727-9.566h4.22v13.301c0 .889-.362 1.389-1.09 1.497-.403.066-1.043.066-1.925 0-.043-.382-.109-.76-.194-1.143.542.078 1.031.113 1.466.117.413-.004.62-.229.62-.686v-4.091h-1.974c.033 2.812-.405 4.858-1.319 6.13-.248-.328-.544-.632-.88-.913.739-1.231 1.098-2.928 1.076-5.104v-9.108zm5.575.62h2.525c.204-.554.386-1.119.536-1.692l1.241.34-.557 1.353h4.563v6.844h-1.123v-.503h-2.38v.538c.325.9.732 1.708 1.222 2.425.827-.683 1.585-1.423 2.281-2.215l.946.815c-.706.736-1.551 1.505-2.525 2.297.803.881 1.79 1.587 2.963 2.121-.313.312-.635.682-.961 1.107-1.836-1.088-3.145-2.5-3.926-4.238v3.26c0 .986-.379 1.567-1.141 1.742-.383.086-1.186.109-2.412.066-.057-.413-.131-.83-.229-1.256.759.055 1.352.082 1.774.082.579 0 .866-.3.866-.896v-5.849h-2.543v.569h-1.123v-6.91zM551.792 228.94l1.01-.409c.383.87.782 1.907 1.207 3.115l-1.125.438c-.349-1.15-.711-2.199-1.092-3.144m5.229 6.337h2.804v-1.513h-2.804v1.513zm6.031 0h2.836v-1.513h-2.836v1.513zm-4.937-4.465h6.65v-1.221h-6.65v1.221zm-2.119 2.004h4.825v3.768h-.996v-.359h-2.804v.437h-1.025v-3.846zm6.046 0h4.856v3.845h-1.011v-.437h-2.836v.359h-1.01v-3.767zm-4.725 6.361h3.584v-2.398h1.078v2.398h3.583v-1.911h1.043v3.619h-1.043v-.667h-9.288v-2.952h1.043v1.911zm-.342-10.564h8.896v3.568h-1.105v-.391h-6.65v.391h-1.141v-3.568zm2.672-3.177l1.076-.62c.338.479.702 1.061 1.09 1.743h5.997v1.076h-12.481v4.905c0 3.911-.755 6.753-2.266 8.523-.25-.358-.55-.717-.896-1.072 1.174-1.458 1.814-3.268 1.924-5.432-.672.425-1.349.843-2.021 1.26l-.311-1.373c.88-.413 1.68-.834 2.396-1.271l.016-.585v-6.032h6.179c-.241-.378-.474-.752-.703-1.122zM529.816 203.381h7.562v-4.152h-5.769v-1.256h5.769v-3.763h-4.303c-.724 1.303-1.552 2.479-2.492 3.537-.228-.359-.522-.741-.881-1.143 1.532-1.716 2.745-3.813 3.634-6.29l1.336.359c-.287.791-.604 1.556-.951 2.28h3.657v-3.453h1.401v3.454h6.224v1.256h-6.224v3.763h5.768v1.256h-5.768v4.152h7.106v1.225h-16.07v-1.225zM543.458 212.599h-5.721v1.436h5.721v-1.436zm-5.721 3.915h5.721v-1.435h-5.721v1.435zm0 2.492h5.721v-1.436h-5.721v1.436zm0 2.526h5.721v-1.466h-5.721v1.466zm-6.142-5.263l.648-.866c.457.34.947.729 1.471 1.174.335-1.076.559-2.23.666-3.471h-2.053c-.425 1.696-1.027 3.256-1.809 4.68-.195-.262-.475-.608-.833-1.045 1.133-2.055 1.837-4.406 2.119-7.054h-1.808v-1.111h5.701v1.111h-2.753c-.086.803-.207 1.571-.358 2.312h2.916v1.092c-.388 4.349-1.91 7.729-4.561 10.154-.306-.347-.607-.655-.914-.916 1.445-1.291 2.535-2.827 3.275-4.609-.585-.524-1.155-1.007-1.707-1.451zm3.436 5.263h1.532v-10.021h3.438v-1.454h-4.041v-1.107h4.041v-1.595h1.191v1.595h4.336v1.107h-4.336v1.454h3.438v10.021h1.337v1.107h-10.936v-1.107zM535.749 236.696h-3.438v2.137h3.438v-2.137zm7.529 0h-3.488v2.137h3.488v-2.137zm-7.547-9.861h-3.438v2.219h3.438v-2.219zm7.53 0h-3.488v2.219h3.488v-2.219zm-12.108-1.006h5.719v4.741h-1.141v-.507h-3.438v.667h-1.141v-4.901zm7.479 0h5.77v4.804h-1.141v-.569h-3.488v.507h-1.141v-4.742zm-8.36 5.931h6.584c.17-.409.276-.881.327-1.419l1.174.164c-.066.456-.162.873-.286 1.255h3.552c-.435-.315-.893-.624-1.376-.928l.666-.737c.718.426 1.367.851 1.942 1.271l-.368.394h3.041v1.072h-6.291c1.253 1.232 3.481 1.813 6.679 1.747-.257.444-.483.862-.667 1.252l-.832-.07v4.976h-1.139v-.893h-3.488v.877h-1.141v-5.034h5.19c-3.107-.421-5.093-1.372-5.954-2.854h-.297c-.607 1.295-2.581 2.246-5.915 2.854h5.216v5.034h-1.141v-.877h-3.438v.893h-1.141v-4.952l-.898.16c-.162-.324-.373-.706-.634-1.154 3.626-.468 5.808-1.119 6.533-1.958h-5.899v-1.073zM541.779 248.438h-7.889v2.039h7.889v-2.039zm.62 5.786h-8.509v2.398h8.509v-2.398zm-11.962-9.534h7.391c-.332-.569-.671-1.104-1.018-1.595l1.123-.636c.368.479.775 1.072 1.225 1.789l-.769.441h6.86v2.967h-1.271v-1.84h-12.271v1.84h-1.271v-2.966zm13.215 8.442v5.525h-1.253v-.963h-8.509v.947h-1.271v-11.291h10.412v4.757h-1.253v-.538h-7.889v1.563h9.763zM536.387 270.074l.992-.702c.879.987 1.585 1.813 2.119 2.48l-1.094.814c-.499-.716-1.174-1.582-2.017-2.592m-5.461-6.222l.977-.687c.774.967 1.521 2.008 2.25 3.131l-1.094.815c-.726-1.22-1.438-2.308-2.133-3.259zm10.22 2.542c.91-1.088 1.681-2.18 2.312-3.279l1.141.737c-.685 1.029-1.5 2.133-2.445 3.307l-1.008-.765zm1.283 4.674l.98-.717c.803.967 1.663 2.027 2.575 3.178l-1.094.865c-.867-1.251-1.688-2.358-2.461-3.326zm-11.16-.634l1.301.44c-.445 1.337-.992 2.679-1.644 4.023-.466-.218-.87-.397-1.207-.538.643-1.313 1.158-2.624 1.55-3.925zm5.067-2.411h2.688v-5.756h-2.688v5.756zm-2.64 2.425h1.271v3.065c0 .803.405 1.205 1.221 1.205h3.244c.763 0 1.207-.359 1.337-1.076.119-.511.211-1.107.275-1.79.489.214.906.378 1.254.487-.115.694-.258 1.342-.422 1.938-.292 1.057-1.049 1.584-2.263 1.584h-3.716c-1.471 0-2.201-.71-2.201-2.122v-3.291zm-3.717-2.425h5.085v-5.756h-4.467v-1.143h14.406v1.143h-4.708v5.756h5.393v1.139h-15.709v-1.139zM530.551 281.687l1.076.245c-.196 1.314-.468 2.71-.814 4.188-.294-.109-.671-.211-1.127-.309.329-1.184.614-2.561.865-4.124m1.514-3.685h1.256v3.131l.7-.394c.565.881 1.049 1.708 1.448 2.479l-1.008.651c-.382-.804-.76-1.517-1.141-2.133v12.333h-1.256v-16.067zm2.543 14.197h5.279v-4.371h-4.203v-1.139h4.203v-3.942h-2.64c-.399 1.029-.867 2.055-1.401 3.08-.469-.382-.833-.632-1.09-.752 1.084-1.966 1.846-3.978 2.279-6.028l1.288.343c-.187.749-.403 1.485-.653 2.215h2.217v-3.583h1.287v3.583h4.285v1.143h-4.285v3.942h3.961v1.139h-3.961v4.371h4.792v1.139h-11.358v-1.14zM534.199 297.615h-2.134v2.967h2.134v-2.967zm-2.134 7.109h2.134v-3.034h-2.134v3.034zm5.77.128h2.496v-4.823h-2.496v4.823zm6.194-4.824h-2.496v4.823h2.496v-4.823zm-13.119-3.551h4.433v13.362c0 .925-.388 1.443-1.157 1.563-.328.055-.974.066-1.942.035-.041-.413-.107-.826-.193-1.239.633.066 1.092.097 1.385.097.513 0 .765-.265.765-.799v-3.665h-2.134c0 2.464-.471 4.44-1.417 5.931-.304-.324-.63-.628-.979-.912.837-1.334 1.252-3.163 1.24-5.475v-8.898zm5.751 2.409h3.67v-3.225h1.202v3.225h3.665v7.889h-1.169v-.78h-2.496v5.752h-1.202v-5.752h-2.496v.78h-1.174v-7.889zM529.913 317.018l1.013-.292c.292.979.587 2.109.879 3.392l-1.123.309c-.216-1.198-.474-2.333-.769-3.409m6.031 8.344h3.39v-1.415h-3.39v1.415zm7.937-1.415h-3.406v1.415h3.406v-1.415zm-7.937 3.779h3.39v-1.436h-3.39v1.436zm4.531 0h3.406v-1.436h-3.406v1.436zm-2.607-9.079c.575.667 1.168 1.408 1.774 2.234l-1.011.538-.243-.374c-2.184.694-3.41 1.17-3.683 1.415l-.735-.83c.337-.227.501-.554.491-.979v-3.275c1.749-.281 3.156-.597 4.221-.944l.604.882c-1.294.312-2.501.585-3.618.814v2.718l2.102-.683c-.273-.37-.55-.725-.83-1.072l.928-.444zm.536 3.342c1.63-.784 2.444-2.062 2.444-3.845h-1.253v-.979h5.899c-.057 1.1-.121 2.32-.195 3.665-.033.967-.707 1.451-2.021 1.451l-1.354-.031-.228-1.174c.532.031 1.033.055 1.499.066.577.035.873-.199.896-.702.062-.683.107-1.45.131-2.297h-2.234c-.012 2.098-.918 3.677-2.72 4.741-.247-.29-.539-.591-.864-.895zm-5.133-.616c0 3.463-.742 6.153-2.23 8.063-.251-.358-.551-.717-.898-1.072 1.055-1.294 1.681-3.1 1.876-5.412-.618.391-1.277.804-1.974 1.24l-.308-1.372c.814-.391 1.601-.808 2.36-1.256v-6.793h6.228c-.228-.335-.462-.674-.7-1.01l1.139-.538c.412.554.782 1.068 1.107 1.548h5.852v1.076h-12.451v5.526zm1.533 1.626h10.218v6.243h-1.141v-.569h-7.937v.569h-1.141v-6.243z"/><circle stroke="#AE7B28" stroke-width=".567" stroke-miterlimit="22.926" cx="319.665" cy="205.966" r="171.712" fill="none"/><path fill-rule="evenodd" clip-rule="evenodd" fill="#fff" d="M272.185 43.763l32.589-32.589c3.223 3.221 8.494 3.221 11.717 0l32.591 32.589c-3.223 3.223-3.223 8.494 0 11.717l-32.592 32.587c-3.223-3.221-8.494-3.221-11.717 0l-32.589-32.588c3.221-3.222 3.221-8.494.001-11.716z"/><path stroke="#AE7B28" stroke-width="2.835" stroke-miterlimit="22.926" d="M272.185 43.763l32.589-32.589c3.223 3.221 8.494 3.221 11.717 0l32.591 32.589c-3.223 3.223-3.223 8.494 0 11.717l-32.592 32.587c-3.223-3.221-8.494-3.221-11.717 0l-32.589-32.588c3.221-3.222 3.221-8.494.001-11.716z" fill="none"/><path fill="#AE7B28" d="M295.963 43.354l2.411.815c-1.135 2.812-2.329 5.307-3.581 7.482-.839-.534-1.575-.963-2.201-1.295 1.491-2.457 2.614-4.793 3.371-7.002m9.431-.532c1.55 1.679 3.055 3.41 4.521 5.196l-1.828 1.81c-1.569-2.022-3.065-3.899-4.484-5.641l1.791-1.365zm.161 5.674l2.071 1.562c-1.896 2.556-3.948 4.432-6.149 5.619-2.207 1.189-4.823 2.055-7.855 2.606-.532-1.16-.992-2.057-1.382-2.696 4.761-.815 8.087-2.031 9.971-3.651h-2.562v-10.956h2.731v10.832c1.128-.904 2.184-2.009 3.175-3.316zM318.067 40.945v7.798c0 4.103-1.524 7.286-4.573 9.556-.769-.92-1.476-1.644-2.127-2.162 2.716-1.833 4.078-4.535 4.078-8.101v-7.091h2.622zm8.546 10.494c.805.307 1.606.561 2.411.763-.241 2.511-.476 3.981-.695 4.414-.221.429-.554.749-.992.953-.441.201-1.015.307-1.717.307h-1.719c-1.915 0-2.874-1.006-2.874-3.015v-13.916h2.804v13.507c0 .546.266.808.797.8h.813c.47 0 .761-.145.875-.438.116-.288.215-1.415.297-3.375z"/><path fill-rule="evenodd" clip-rule="evenodd" fill="#fff" d="M83.683 162.131l40.571-40.574c4.011 4.011 10.575 4.011 14.588 0l40.571 40.574c-4.012 4.008-4.012 10.574 0 14.587l-40.571 40.572c-4.013-4.013-10.577-4.013-14.588 0l-40.571-40.572c4.007-4.013 4.007-10.579 0-14.587z"/><path stroke="#AE7B28" stroke-width="2.835" stroke-miterlimit="22.926" d="M83.683 162.131l40.571-40.574c4.011 4.011 10.575 4.011 14.588 0l40.571 40.574c-4.012 4.008-4.012 10.574 0 14.587l-40.571 40.572c-4.013-4.013-10.577-4.013-14.588 0l-40.571-40.572c4.007-4.013 4.007-10.579 0-14.587z" fill="none"/><path fill="#AE7B28" d="M125.853 167.617v-1.724h-4.501v1.724h4.501zm-12.006 0h4.502v-1.724h-4.502v1.724zm0-4.106h4.502v-1.724h-4.502v1.724zm12.006-1.724h-4.501v1.724h4.501v-1.724zm-5.186 18.319c-.281-1.295-.524-2.285-.729-2.979 1.794.148 3.361.223 4.703.223.38 0 .711-.094.986-.281.274-.19.456-.433.534-.736.084-.301.156-1.064.223-2.293h-7.131c-.934 3.08-3.906 5.221-8.915 6.422-.532-1.002-1.119-1.98-1.767-2.932 3.981-.812 6.398-1.978 7.261-3.49h-6.399v-2.585h6.949c.062-.464.113-.933.156-1.412h-5.65v-10.684h17.921v10.684h-9.058c-.031.464-.066.937-.109 1.412h9.963c-.234 3.583-.418 5.685-.547 6.301-.128.62-.463 1.146-1.01 1.583-.541.441-1.374.69-2.491.753-1.119.061-2.751.069-4.89.014zM133.18 162.802l1.876.222c-.191 2.426-.402 4.621-.64 6.578-.632-.249-1.236-.409-1.808-.487.28-2.278.47-4.384.572-6.313m5.365-4.279v3.034c.796.327 1.622.71 2.493 1.135l-1.126 2.409-1.367-.916v16.077h-2.956v-21.739h2.956zm1.63 18.007h6.095v-4.105h-4.991v-2.87h4.991v-3.927h-2.692c-.324 1.342-.677 2.555-1.062 3.643-.881-.515-1.747-1.002-2.603-1.459.912-2.354 1.573-5.018 1.986-7.989l2.714.199c-.139.959-.285 1.871-.44 2.741h2.098v-4.239h2.999v4.239h4.593v2.865h-4.593v3.927h4.507v2.87h-4.507v4.105h5.256v2.874h-14.35v-2.874z"/><path fill-rule="evenodd" clip-rule="evenodd" fill="#fff" d="M441.573 138.264l40.572-40.572c4.012 4.012 10.576 4.012 14.589 0l40.572 40.572c-4.011 4.012-4.011 10.576 0 14.587l-40.572 40.571c-4.013-4.008-10.577-4.008-14.589 0l-40.572-40.571c4.013-4.011 4.013-10.576 0-14.587z"/><path stroke="#AE7B28" stroke-width="2.835" stroke-miterlimit="22.926" d="M441.573 138.264l40.572-40.572c4.012 4.012 10.576 4.012 14.589 0l40.572 40.572c-4.011 4.012-4.011 10.576 0 14.587l-40.572 40.571c-4.013-4.008-10.577-4.008-14.589 0l-40.572-40.571c4.013-4.011 4.013-10.576 0-14.587z" fill="none"/><path fill="#AE7B28" d="M473.736 146.265l4.514 2.197c1.442-1.487 2.422-3.424 2.946-5.815h-5.795c-.546 1.243-1.099 2.448-1.665 3.618m-7.108-6.686h6.368c.56-1.519 1.113-3.18 1.667-4.989l3.62.839c-.517 1.427-1.047 2.812-1.589 4.15h11.608v3.067h-3.4c-.945 3.148-2.125 5.593-3.528 7.338l6.642 3.275-2.074 3.139c-2.554-1.487-4.942-2.832-7.165-4.041-2.454 1.752-5.901 3.133-10.339 4.15-.618-1.104-1.267-2.145-1.94-3.111 3.768-.679 6.742-1.622 8.928-2.835-2.268-1.195-4.324-2.221-6.17-3.084.848-1.299 1.682-2.909 2.515-4.831h-5.142v-3.067zM491.04 139.004l1.875.223c-.191 2.425-.403 4.616-.639 6.576-.635-.248-1.236-.412-1.81-.485.279-2.282.472-4.385.574-6.314m5.363-4.281v3.033c.795.332 1.624.714 2.493 1.139l-1.125 2.406-1.368-.914v16.074h-2.956v-21.738h2.956zm1.632 18.01h6.095v-4.105h-4.991v-2.87h4.991v-3.931h-2.694c-.324 1.342-.677 2.554-1.062 3.644-.881-.517-1.748-1.002-2.603-1.458.911-2.354 1.573-5.017 1.985-7.987l2.716.198c-.141.956-.287 1.868-.44 2.737h2.098v-4.238h2.998v4.238h4.592v2.866h-4.592v3.931h4.506v2.87h-4.506v4.105h5.254v2.87h-14.347v-2.87z"/><path fill="none" d="M0 0h640v377.679h-640z"/></svg>