<?xml version="1.0" encoding="utf-8"?>
<!-- Generator: Adobe Illustrator 16.0.0, SVG Export Plug-In . SVG Version: 6.00 Build 0)  -->
<!DOCTYPE svg PUBLIC "-//W3C//DTD SVG 1.1//EN" "http://www.w3.org/Graphics/SVG/1.1/DTD/svg11.dtd">
<svg version="1.1" id="图层_1" xmlns="http://www.w3.org/2000/svg" xmlns:xlink="http://www.w3.org/1999/xlink" x="0px" y="0px"
	 width="640px" height="377.962px" viewBox="0 0 640 377.962" enable-background="new 0 0 640 377.962" xml:space="preserve">
<g>
	<g>
		<path fill="#AE7B28" d="M506.805,221.236c-9.812-2.266-17.362-6.036-18.871-9.059c-1.507-3.018-10.568-6.036-11.321,2.266
			c-0.754,8.302-8.682,19.056-13.209,21.325c-4.529,2.258-8.682,1.318-9.436,3.583c-0.755,2.266-8.302,12.833-8.302,12.833
			s2.263-30.192,1.507-43.781c-0.754-8.298-10.565-24.152-18.869-30.192c-3.773-3.771-10.568-33.21-9.06-40.759
			c5.286-2.266,26.422-3.021,38.498-6.793c12.075-3.776,30.191-27.928,33.966-29.441c3.773-1.511,12.833-9.056,9.059-13.589
			c-3.774-4.523-11.322-9.812-13.585,2.271c-6.04,6.036-24.156,27.17-34.724,25.657c-9.812-0.751-40.006,0-40.006,0
			s-2.266-6.034-7.547-6.034h-5.288l-2.264-11.325c0,0,4.529-11.323-7.547-18.116s-20.38,3.774-20.38,12.833
			c0,9.062,3.017,19.629,7.545,24.155c1.512,2.266,3.777,5.284,0.759,8.3c-3.021,3.024-13.589,10.569-13.589,14.346
			s6.793,37.743,6.038,40.761c-0.753,3.019-10.569,1.505-18.87,0.757c-4.529-0.757-7.549-12.08-16.605-6.04
			c-0.755-6.793-6.793-19.625-18.871-8.302c-3.773,3.771-4.528,6.793-4.528,13.585c0,6.793,0,13.585,3.02,16.607
			c-2.265,2.262-12.836-2.266-19.629-2.266c1.513-3.774-2.261-12.076,1.513-14.342c3.775-2.266,9.811-3.018,9.055-9.058
			c-0.749-6.04-3.774-6.04-6.034-10.567c-2.264-4.535-9.06-28.683-11.325-31.705c-1.51-1.509-5.28-24.156-3.771-30.191
			c1.51-6.04-3.02-17.36-9.062-21.139c-6.036-3.771-21.889-5.283-21.136-16.603c0.758-11.324,18.874-41.516-8.3-43.781
			c0,0-17.363-5.284-16.606,19.625c1.509,9.811,3.02,9.811,3.02,18.116c0,7.547-6.042,9.811-11.325,10.566
			c-5.284,0.753-12.076-0.756-24.909,9.057c-12.828,9.812-21.889,21.895-25.661,26.421c-3.774,4.529-16.606,27.173-18.118,30.951
			c-1.507,3.771-5.283,19.621-2.263,21.134c3.021,1.509,9.056,2.266,11.321-5.283c3.016,3.02,6.038,0,7.551-5.284
			c1.509-5.283-3.776-9.056,1.509-15.853c4.527-6.798,13.587-15.853,16.604-18.113c3.019-2.266,17.363-16.611,21.138-9.814
			c3.774,6.792-0.752,33.214-2.266,38.497c-1.509,5.283-4.528,17.359-0.756,18.864c2.262,6.801-6.793,42.276-6.036,62.654
			c0.755,9.814-0.757,62.653-1.513,70.202c-0.751,7.549-3.019,33.21-1.51,36.232c1.51,3.021,6.04,3.771,3.022,8.298
			c-3.022,4.534-14.342,15.854,5.283,15.098c6.793,0,14.34-7.545,15.097-12.832c4.528-3.015,4.528-91.333,4.528-98.882
			c0-7.55,6.04-37.741,11.323-36.981c5.284,0.749,9.812,23.396,13.586,30.188c3.018,6.793,3.018,44.537,3.018,54.348
			c0,9.815-0.752,39.251,5.285,44.534c3.021,3.021,0,10.571,1.512,12.832c1.509,2.27,5.285,0.757,8.301,3.779
			c3.019,3.014,11.324,5.283,15.097,1.509c2.267-3.778,1.509-8.31-4.527-12.837c5.285-2.262,3.774-9.054,5.285-14.338
			c1.509-5.287,4.527-46.046-1.511-54.352c-5.285-6.793-7.549-19.625-7.549-23.399s-1.509-67.93-3.776-75.486
			c-2.262-7.545-4.527-33.961-4.527-41.514c5.284,7.553,12.833,26.42,20.382,34.726c7.545,8.305,6.793,12.832,3.774,15.85
			c-3.022,3.022-6.042,17.364-5.284,20.382c0.753,3.019,19.626,10.563,20.382,16.607c0.749,6.036,1.505,18.868,6.036,24.908
			c2.266,4.527-0.756,20.382-2.266,25.665c-1.509,5.283-7.545,12.833-8.301,18.116c-0.755,5.279-0.755,35.476,5.279,37.737
			c2.27,2.266,0,4.531-1.505,7.553c-1.509,3.018,1.505,8.302,7.547,5.283c5.283-3.021,4.528-12.836,4.528-12.836
			s1.512,0.76,3.022-1.505c1.509-2.27,3.772-18.873,3.772-24.156s4.527-23.399,9.057-23.399c4.526,0,6.794,6.04,5.285,14.341
			c-1.51,8.302-7.551,15.851-6.793,21.891c0.755,6.036-3.021,15.851,0.755,18.873c3.772,3.021,11.319,5.283,11.319-6.044
			c2.266-5.279-3.961-9.998,4.529-11.315c3.776-1.514,13.591-21.143,14.344-26.422c0.752-5.283-15.852-35.479-15.852-42.272
			c0-6.792-6.039-25.665,0.753-28.679c6.795-3.022,18.12-4.531,12.835-16.611c12.076,0.757,21.132,5.284,22.643,1.51
			c1.51-3.771,2.268-12.833,2.268-12.833s7.545,15.098,9.059,21.138c1.509,6.04-5.288,27.927-6.041,31.701
			c-0.756,3.774-12.832,40.764-9.058,46.8c3.772,6.04,14.342,34.723,18.87,34.723c4.527,0,14.34,20.382,15.097,24.156
			c0.755,3.771-1.511,17.363-3.021,20.381c-1.507,3.019-9.811,7.542-6.794,9.055c3.022,1.513,14.771-1.217,19.272-11.585
			c3.771-5.287,10.165-3.509,6.395-11.059c-3.774-7.549-15.853-30.948-14.346-35.479c3.776,0,4.531-8.301,0.757-11.319
			c-3.774-3.021-11.325-22.647-6.791-36.984c4.527-14.338,8.304-18.873,8.304-18.873s2.262,26.418,6.791,33.971
			c4.528,7.541,13.587,12.072,24.908,3.771c9.812-8.302,26.988-22.081,22.46-34.91c6.038-5.283,13.211-19.816,21.511-17.547
			c6.039,0,15.285-2.27,23.21,1.692C519.637,236.899,516.619,223.501,506.805,221.236 M348.482,196.705
			c-5.097,3.4-13.589-1.699-15.287,1.696c-0.567-4.526,3.394-6.227,2.829-16.42c0,0,1.699,5.67,9.06,6.797
			C348.482,190.475,353.577,193.31,348.482,196.705z"/>
		<path fill="#AE7B28" d="M346.062,90.438h-10.624v4.27h10.624V90.438z M335.438,100.345h10.624v-4.463h-10.624V100.345z
			 M334.104,89.229h4.268c0.388-0.842,0.718-1.681,0.995-2.524l1.419,0.376c-0.331,0.737-0.671,1.455-1.018,2.148h7.635v13.463
			h-1.34v-1.141h-10.624v1.141h-1.335V89.229z"/>
		<path fill="#AE7B28" d="M345.706,108.273h-2.477v9.959h2.477V108.273z M339.529,118.232h2.478v-9.959h-2.478V118.232z
			 M335.831,118.232h2.474v-9.959h-2.474V118.232z M332.815,118.232h1.775v-11.179h4.05c0.288-0.788,0.563-1.665,0.822-2.624
			l1.436,0.292c-0.24,0.729-0.507,1.505-0.8,2.332h6.848v11.179h1.822v1.238h-15.953V118.232z"/>
		<path fill="#AE7B28" d="M332.896,126.078l1.061-0.324c0.291,0.999,0.585,2.069,0.878,3.21l-1.174,0.343
			C333.444,128.176,333.191,127.1,332.896,126.078 M336.305,129.599c0,4.009-0.851,6.848-2.542,8.507
			c-0.252-0.357-0.552-0.716-0.899-1.074c1.162-1.205,1.862-2.931,2.103-5.175c-0.525,0.336-1.184,0.741-1.972,1.215l-0.308-1.368
			c0.998-0.479,1.795-0.899,2.394-1.254v-6.325h6.413c-0.283-0.44-0.61-0.912-0.987-1.419l1.076-0.616
			c0.466,0.597,0.864,1.146,1.191,1.646l-0.655,0.39h6.748v1.139h-12.562V129.599z M336.938,126.846h11.569v1.143h-5.052
			c-0.012,0.649-0.035,1.248-0.072,1.79h4.65v6.177c0,1.271-0.655,1.914-1.972,1.922c-0.759,0.012-1.683,0.004-2.771-0.014
			c-0.062-0.38-0.148-0.809-0.257-1.288c0.865,0.065,1.751,0.097,2.655,0.097c0.736,0,1.107-0.323,1.107-0.979v-4.806h-3.545
			c-0.027,0.195-0.061,0.38-0.098,0.563c1.17,1.248,2.16,2.355,2.976,3.314l-0.947,0.943c-0.798-1.053-1.603-2.047-2.41-2.988
			c-0.501,1.212-1.493,2.345-2.982,3.397c-0.25-0.315-0.534-0.658-0.849-1.025c1.882-1.154,2.919-2.554,3.113-4.205h-3.392v7.188
			h-1.236v-8.298h4.774c0.041-0.53,0.07-1.131,0.08-1.79h-5.344V126.846z"/>
		<path fill="#AE7B28" d="M157.429,239.473h4.629v-1.368h-4.629V239.473z M167.894,238.104h-4.629v1.368h4.629V238.104z
			 M163.265,241.754h4.629v-1.399h-4.629V241.754z M157.429,241.754h4.629v-1.399h-4.629V241.754z M167.24,244.834h-9.144v1.404
			h9.144V244.834z M158.097,248.616h9.144v-1.403h-9.144V248.616z M156.223,237.16h12.873v6.048h-1.202v-0.507h-10.465v0.507h-1.206
			V237.16z M156.86,243.855h11.619v6.488c0,1.271-0.793,1.907-2.38,1.907c-0.847,0-1.448-0.004-1.808-0.016
			c-0.088-0.444-0.176-0.874-0.262-1.271c0.979,0.062,1.668,0.098,2.069,0.098c0.762,0,1.141-0.331,1.141-0.994v-0.472h-9.144v2.799
			h-1.236V243.855z"/>
		<path fill="#AE7B28" d="M154.579,258.076l1.01-0.405c0.382,0.869,0.779,1.906,1.207,3.111l-1.125,0.44
			C155.321,260.072,154.957,259.023,154.579,258.076 M159.808,264.416h2.804v-1.517h-2.804V264.416z M165.836,264.416h2.839v-1.517
			h-2.839V264.416z M160.899,259.952h6.652v-1.225h-6.652V259.952z M158.782,261.956h4.823v3.763h-0.994v-0.358h-2.804v0.44h-1.025
			V261.956z M164.828,261.956h4.856v3.845h-1.01v-0.44h-2.839v0.358h-1.008V261.956z M160.103,268.312h3.585v-2.397h1.076v2.397
			h3.585v-1.906h1.044v3.618h-1.044v-0.667h-9.289v-2.951h1.043V268.312z M159.761,257.753h8.896v3.567h-1.105v-0.394h-6.652v0.394
			h-1.139V257.753z M162.433,254.574l1.076-0.619c0.337,0.476,0.701,1.057,1.092,1.742h5.996v1.076h-12.481v4.906
			c0,3.91-0.756,6.753-2.265,8.523c-0.25-0.358-0.551-0.718-0.897-1.076c1.174-1.458,1.815-3.264,1.923-5.428
			c-0.673,0.425-1.35,0.842-2.021,1.256l-0.31-1.369c0.879-0.413,1.677-0.834,2.396-1.271c0.01-0.183,0.016-0.378,0.016-0.589
			v-6.028h6.176C162.896,255.319,162.662,254.945,162.433,254.574z"/>
		<path fill="#AE7B28" d="M134.95,245.567h2.444v-2.999h-2.444V245.567z M137.395,238.432h-2.444v3.03h2.444V238.432z
			 M139.122,243.481h4.188v-4.886h-3.651v-1.174h8.571v1.174h-3.648v4.886h4.121v1.174h-4.121v7.643h-1.271v-7.643h-4.188V243.481z
			 M133.741,237.32h4.856v13.234c0,1.119-0.53,1.681-1.597,1.681c-0.616,0-1.145-0.008-1.579-0.02
			c-0.045-0.421-0.109-0.835-0.195-1.236c0.509,0.062,0.983,0.098,1.416,0.098c0.501,0,0.752-0.266,0.752-0.8v-3.599h-2.462
			c-0.041,2.41-0.542,4.336-1.5,5.782c-0.28-0.312-0.602-0.604-0.963-0.865c0.851-1.291,1.271-3.162,1.271-5.619V237.32z"/>
		<path fill="#AE7B28" d="M132.556,258.076l1.008-0.405c0.381,0.869,0.782,1.906,1.207,3.111l-1.127,0.44
			C133.297,260.072,132.935,259.023,132.556,258.076 M137.782,264.416h2.805v-1.517h-2.805V264.416z M143.813,264.416h2.836v-1.517
			h-2.836V264.416z M138.876,259.952h6.648v-1.225h-6.648V259.952z M136.757,261.956h4.826v3.763h-0.996v-0.358h-2.805v0.44h-1.025
			V261.956z M142.804,261.956h4.855v3.845h-1.01v-0.44h-2.836v0.358h-1.01V261.956z M138.077,268.312h3.588v-2.397h1.076v2.397
			h3.583v-1.906h1.043v3.618h-1.043v-0.667h-9.288v-2.951h1.041V268.312z M137.736,257.753h8.896v3.567h-1.107v-0.394h-6.648v0.394
			h-1.14V257.753z M140.409,254.574l1.076-0.619c0.335,0.476,0.701,1.057,1.09,1.742h5.997v1.076h-12.483v4.906
			c0,3.91-0.753,6.753-2.262,8.523c-0.252-0.358-0.552-0.718-0.9-1.076c1.173-1.458,1.816-3.264,1.926-5.428
			c-0.675,0.425-1.35,0.842-2.021,1.256l-0.311-1.369c0.879-0.413,1.677-0.834,2.395-1.271c0.012-0.183,0.018-0.378,0.018-0.589
			v-6.028h6.178C140.871,255.319,140.637,254.945,140.409,254.574z"/>
		<path fill="#AE7B28" d="M112.958,247.264h4.66v-1.743h-4.66V247.264z M117.618,242.682h-4.66v1.747h4.66V242.682z
			 M120.796,241.836h1.238v7.334h-1.238V241.836z M124.153,241.052h1.271v9.113c0,1.333-0.628,2.008-1.891,2.02
			c-0.577,0.012-1.291,0.004-2.151-0.016c-0.056-0.448-0.13-0.9-0.228-1.369c0.804,0.086,1.454,0.129,1.956,0.129
			c0.695,0,1.043-0.351,1.043-1.061V241.052z M110.646,238.837h5.261c-0.359-0.565-0.815-1.177-1.369-1.84l1.025-0.702
			c0.675,0.753,1.221,1.419,1.63,2.004l-0.805,0.538h4.459l-0.655-0.358c0.577-0.702,1.076-1.442,1.501-2.215l1.24,0.718
			c-0.501,0.683-1.004,1.302-1.51,1.855h5.159v1.143h-15.937V238.837z M112.958,252.43h-1.24v-10.852h7.14v9.105
			c0,1.068-0.548,1.587-1.646,1.567c-0.456,0-1.084-0.012-1.875-0.035c-0.064-0.421-0.148-0.823-0.246-1.205
			c0.667,0.055,1.277,0.082,1.841,0.082c0.456,0.012,0.687-0.215,0.687-0.671v-2.066h-4.66V252.43z"/>
		<path fill="#AE7B28" d="M122.034,266.062h-1.254v-9.975h1.254V266.062z M124.379,254.282h1.307v13.46
			c0,1.381-0.626,2.075-1.876,2.087c-0.597,0.008-1.481,0.004-2.655-0.016c-0.055-0.503-0.141-0.991-0.261-1.471
			c1.121,0.098,1.943,0.148,2.478,0.148c0.673,0,1.008-0.366,1.008-1.092V254.282z M113.284,262.821l0.797-0.912
			c0.826,0.679,1.579,1.342,2.26,1.996c0.725-1.263,1.24-2.628,1.538-4.102h-3.665c-0.854,1.957-1.903,3.716-3.146,5.279
			c-0.238-0.554-0.457-0.986-0.651-1.302c1.638-2.203,2.905-4.785,3.788-7.74h-3.25v-1.174h9.14v1.174h-4.547
			c-0.253,0.896-0.538,1.759-0.854,2.589h4.522v1.193c-0.893,4.453-3.232,7.892-7.025,10.313c-0.281-0.323-0.617-0.659-1.011-0.994
			c1.86-1.201,3.346-2.589,4.469-4.164C115.028,264.37,114.241,263.652,113.284,262.821z"/>
		<path fill="#AE7B28" d="M114.652,273.747h-1.972v2.917h1.972V273.747z M112.681,280.673h1.972v-2.999h-1.972V280.673z
			 M124.316,274.383h-6.063v1.563h6.063V274.383z M118.253,278.571h6.063v-1.579h-6.063V278.571z M116.282,282.256v-1.076h3.765
			v1.139c-0.556,1.836-1.708,3.381-3.454,4.628c-0.242-0.401-0.477-0.748-0.702-1.041c1.458-0.912,2.46-2.129,3.014-3.649H116.282z
			 M111.558,272.687h4.22v13.301c0,0.889-0.362,1.392-1.092,1.497c-0.403,0.066-1.041,0.066-1.925,0
			c-0.041-0.378-0.109-0.76-0.194-1.143c0.542,0.078,1.031,0.113,1.466,0.117c0.415-0.004,0.62-0.229,0.62-0.687v-4.086h-1.972
			c0.031,2.812-0.405,4.854-1.321,6.126c-0.247-0.328-0.542-0.632-0.88-0.913c0.739-1.228,1.098-2.928,1.078-5.1V272.687z
			 M117.13,273.307h2.527c0.203-0.554,0.386-1.115,0.534-1.692l1.241,0.344c-0.196,0.476-0.38,0.928-0.555,1.349h4.562v6.848h-1.123
			v-0.507h-2.38v0.538c0.325,0.9,0.734,1.711,1.222,2.429c0.827-0.687,1.587-1.423,2.281-2.219l0.948,0.815
			c-0.706,0.736-1.553,1.505-2.527,2.301c0.803,0.877,1.79,1.583,2.964,2.117c-0.312,0.315-0.636,0.682-0.96,1.107
			c-1.836-1.088-3.146-2.5-3.928-4.235v3.26c0,0.987-0.379,1.568-1.141,1.743c-0.383,0.086-1.186,0.109-2.41,0.062
			c-0.059-0.413-0.133-0.83-0.23-1.256c0.761,0.055,1.354,0.082,1.774,0.082c0.579,0,0.866-0.296,0.866-0.893v-5.853h-2.543v0.569
			h-1.123V273.307z"/>
		<path fill="#AE7B28" d="M110.528,293.427l1.011-0.409c0.382,0.87,0.783,1.907,1.208,3.115l-1.127,0.441
			C111.273,295.42,110.909,294.371,110.528,293.427 M115.758,299.764h2.804v-1.513h-2.804V299.764z M121.79,299.764h2.835v-1.513
			h-2.835V299.764z M116.854,295.303h6.648v-1.225h-6.648V295.303z M114.732,297.303h4.827v3.767h-0.998v-0.358h-2.804v0.44h-1.025
			V297.303z M120.78,297.303h4.854v3.849h-1.01v-0.44h-2.835v0.358h-1.01V297.303z M116.054,303.663h3.584v-2.398h1.076v2.398h3.587
			v-1.911h1.041v3.619h-1.041v-0.667h-9.29v-2.952h1.043V303.663z M115.711,293.104h8.898v3.567h-1.107v-0.394h-6.648v0.394h-1.143
			V293.104z M118.386,289.922l1.076-0.62c0.336,0.479,0.7,1.061,1.088,1.743h5.997v1.076h-12.481v4.909
			c0,3.907-0.752,6.749-2.266,8.52c-0.25-0.358-0.55-0.718-0.896-1.072c1.174-1.458,1.816-3.268,1.926-5.432
			c-0.674,0.429-1.351,0.847-2.023,1.26l-0.309-1.373c0.878-0.409,1.678-0.834,2.395-1.271c0.012-0.184,0.016-0.379,0.016-0.585
			v-6.032h6.179C118.846,290.666,118.612,290.292,118.386,289.922z"/>
		<path fill="#AE7B28" d="M95.057,240.272h2.95v-1.548h-2.95V240.272z M90.95,240.272h2.966v-1.548H90.95V240.272z M102.11,238.725
			h-2.964v1.548h2.964V238.725z M94.795,246.757l-0.487,0.409h3.778c0.468-0.476,0.948-1.014,1.438-1.599h-5.886
			C94.02,245.938,94.405,246.336,94.795,246.757z M89.776,237.745h4.447c0.164-0.425,0.322-0.896,0.475-1.415L96,236.638
			l-0.472,1.107h7.756v3.896h-1.174v-0.39H90.95v0.39h-1.174V237.745z M88.588,249.432h7.332v-1.322h-5.999v-0.943h3.717
			c-0.412-0.437-0.792-0.807-1.139-1.107l0.65-0.491h-4.367v-0.975h7.138v-1.193h-5.702v-0.943h5.702v-1.025h1.271v1.025h5.733
			v0.943h-5.733v1.193h7.171v0.975h-4.287l0.65,0.425c-0.37,0.379-0.775,0.772-1.22,1.174h3.716v0.943h-6.03v1.322h7.432v0.979
			h-7.432v1.954H95.92v-1.954h-7.332V249.432z"/>
		<path fill="#AE7B28" d="M89.841,260.408c1.238,0.694,2.416,1.364,3.539,2.004c0.184-0.771,0.29-2.082,0.323-3.927h-4.757v-1.255
			h4.804c0.023-0.979,0.039-2.017,0.051-3.112h1.386c-0.021,1.127-0.05,2.164-0.081,3.112h5.262v10.04
			c-0.041,0.737,0.261,1.107,0.913,1.107h0.654c0.649,0,1.025-0.319,1.123-0.963c0.086-0.565,0.176-1.474,0.262-2.722
			c0.421,0.176,0.877,0.343,1.368,0.503c-0.086,0.916-0.194,1.79-0.325,2.628c-0.154,1.205-0.912,1.806-2.283,1.806h-1.045
			c-1.432,0-2.109-0.753-2.035-2.262v-8.883h-3.942c-0.055,2.258-0.201,3.806-0.44,4.645c1.021,0.585,1.988,1.15,2.9,1.696
			l-0.75,1.221c-0.835-0.543-1.683-1.084-2.543-1.615c-0.844,2.324-2.411,4.208-4.692,5.639c-0.272-0.335-0.62-0.694-1.041-1.072
			c2.246-1.38,3.757-3.154,4.53-5.314c-1.261-0.761-2.542-1.513-3.848-2.25L89.841,260.408z"/>
		<path fill="#AE7B28" d="M88.506,275.752l1.01-0.41c0.382,0.874,0.782,1.911,1.207,3.116l-1.125,0.44
			C89.249,277.748,88.884,276.699,88.506,275.752 M93.734,282.092h2.804v-1.517h-2.804V282.092z M99.763,282.092h2.839v-1.517
			h-2.839V282.092z M94.826,277.627h6.652v-1.224h-6.652V277.627z M92.709,279.628h4.825v3.767h-0.996v-0.359h-2.804v0.441h-1.025
			V279.628z M98.755,279.628h4.856v3.849h-1.01v-0.441h-2.839v0.359h-1.008V279.628z M94.029,285.987h3.585v-2.398h1.076v2.398
			h3.586v-1.907h1.043v3.619h-1.043v-0.667h-9.291v-2.952h1.044V285.987z M93.688,275.428h8.896v3.568h-1.105v-0.395h-6.652v0.395
			h-1.139V275.428z M96.36,272.246l1.076-0.62c0.338,0.479,0.7,1.061,1.09,1.747h5.998v1.076H92.042v4.905
			c0,3.911-0.754,6.754-2.266,8.521c-0.249-0.359-0.549-0.718-0.896-1.072c1.174-1.459,1.815-3.264,1.922-5.429
			c-0.672,0.426-1.349,0.843-2.02,1.256l-0.31-1.372c0.879-0.41,1.679-0.831,2.396-1.271c0.01-0.184,0.016-0.374,0.016-0.585v-6.028
			h6.177C96.823,272.995,96.589,272.617,96.36,272.246z"/>
		<path fill="#AE7B28" d="M552.508,192.646l0.979-0.425c0.513,0.924,0.919,1.773,1.223,2.558l-1.059,0.44
			C553.413,194.611,553.03,193.75,552.508,192.646 M555.427,192.14l1.025-0.39c0.425,1.029,0.762,1.953,1.012,2.768l-1.109,0.379
			C556.183,194.276,555.871,193.356,555.427,192.14z M552.363,191.664c-0.065-0.336-0.142-0.729-0.228-1.186
			c2.953-0.078,5.763-0.234,8.424-0.472l0.262,1.154C557.842,191.367,555.024,191.539,552.363,191.664z M561.813,189.745h1.271
			v13.066c0,0.718,0.382,1.076,1.141,1.076h0.814c0.859,0,1.344-0.39,1.453-1.173c0.106-0.815,0.177-1.747,0.21-2.804
			c0.435,0.198,0.866,0.37,1.289,0.522c-0.104,1.174-0.229,2.164-0.376,2.967c-0.229,1.15-1.038,1.728-2.428,1.728h-1.125
			c-0.836,0-1.424-0.168-1.761-0.503c-0.323-0.331-0.489-0.912-0.489-1.747V189.745z M551.856,200.355
			c1.369-0.16,2.737-0.34,4.108-0.53v-1.248l2.771-1.926h-6.274v-1.139h5.249c0.672-1.299,1.253-2.582,1.742-3.849l1.172,0.476
			c-0.487,1.076-1.053,2.199-1.687,3.373h1.571v1.224l-3.273,2.332v0.577c1.162-0.176,2.326-0.362,3.488-0.562
			c-0.066,0.507-0.107,0.939-0.131,1.303c-1.127,0.163-2.244,0.327-3.357,0.503v2.266c0,0.803-0.136,1.349-0.409,1.63
			c-0.313,0.335-0.867,0.507-1.661,0.507c-0.629,0-1.238-0.02-1.824-0.051c-0.043-0.358-0.121-0.804-0.229-1.334
			c0.456,0.074,1.059,0.117,1.81,0.129c0.696,0.012,1.043-0.358,1.043-1.111v-1.829c-1.305,0.203-2.597,0.418-3.88,0.644
			L551.856,200.355z"/>
		<path fill="#AE7B28" d="M555.916,209.262h-1.974v2.916h1.974V209.262z M553.942,216.187h1.974v-2.999h-1.974V216.187z
			 M565.58,209.896h-6.063v1.564h6.063V209.896z M559.517,214.085h6.063v-1.583h-6.063V214.085z M557.546,217.766v-1.076h3.765
			v1.143c-0.556,1.836-1.708,3.381-3.457,4.628c-0.239-0.401-0.474-0.748-0.702-1.045c1.459-0.912,2.463-2.125,3.017-3.649H557.546z
			 M552.819,208.2h4.22v13.301c0,0.889-0.362,1.389-1.09,1.497c-0.403,0.066-1.043,0.066-1.925,0
			c-0.043-0.382-0.109-0.76-0.194-1.143c0.542,0.078,1.031,0.113,1.466,0.117c0.413-0.004,0.62-0.229,0.62-0.686v-4.091h-1.974
			c0.033,2.812-0.405,4.858-1.319,6.13c-0.248-0.328-0.544-0.632-0.88-0.913c0.739-1.231,1.098-2.928,1.076-5.104V208.2z
			 M558.394,208.82h2.525c0.204-0.554,0.386-1.119,0.536-1.692l1.241,0.34c-0.198,0.479-0.382,0.928-0.557,1.353h4.563v6.844h-1.123
			v-0.503h-2.38v0.538c0.325,0.9,0.732,1.708,1.222,2.425c0.827-0.683,1.585-1.423,2.281-2.215l0.946,0.815
			c-0.706,0.736-1.551,1.505-2.525,2.297c0.803,0.881,1.79,1.587,2.963,2.121c-0.313,0.312-0.635,0.682-0.961,1.107
			c-1.836-1.088-3.145-2.5-3.926-4.238v3.26c0,0.986-0.379,1.567-1.141,1.742c-0.383,0.086-1.186,0.109-2.412,0.066
			c-0.057-0.413-0.131-0.83-0.229-1.256c0.759,0.055,1.352,0.082,1.774,0.082c0.579,0,0.866-0.3,0.866-0.896v-5.849h-2.543v0.569
			h-1.123V208.82z"/>
		<path fill="#AE7B28" d="M551.792,228.94l1.01-0.409c0.383,0.87,0.782,1.907,1.207,3.115l-1.125,0.438
			C552.535,230.934,552.173,229.885,551.792,228.94 M557.021,235.277h2.804v-1.513h-2.804V235.277z M563.052,235.277h2.836v-1.513
			h-2.836V235.277z M558.115,230.812h6.65v-1.221h-6.65V230.812z M555.996,232.816h4.825v3.768h-0.996v-0.359h-2.804v0.437h-1.025
			V232.816z M562.042,232.816h4.856v3.845h-1.011v-0.437h-2.836v0.359h-1.01V232.816z M557.317,239.177h3.584v-2.398h1.078v2.398
			h3.583v-1.911h1.043v3.619h-1.043v-0.667h-9.288v-2.952h1.043V239.177z M556.975,228.613h8.896v3.568h-1.105v-0.391h-6.65v0.391
			h-1.141V228.613z M559.647,225.436l1.076-0.62c0.338,0.479,0.702,1.061,1.09,1.743h5.997v1.076h-12.481v4.905
			c0,3.911-0.755,6.753-2.266,8.523c-0.25-0.358-0.55-0.717-0.896-1.072c1.174-1.458,1.814-3.268,1.924-5.432
			c-0.672,0.425-1.349,0.843-2.021,1.26l-0.311-1.373c0.88-0.413,1.68-0.834,2.396-1.271c0.01-0.184,0.016-0.379,0.016-0.585v-6.032
			h6.179C560.109,226.18,559.876,225.806,559.647,225.436z"/>
		<path fill="#AE7B28" d="M529.816,203.381h7.562v-4.152h-5.769v-1.256h5.769v-3.763h-4.303c-0.724,1.303-1.552,2.479-2.492,3.537
			c-0.228-0.359-0.522-0.741-0.881-1.143c1.532-1.716,2.745-3.813,3.634-6.29l1.336,0.359c-0.287,0.791-0.604,1.556-0.951,2.28
			h3.657V189.5h1.401v3.454h6.224v1.256h-6.224v3.763h5.768v1.256h-5.768v4.152h7.106v1.225h-16.07V203.381z"/>
		<path fill="#AE7B28" d="M543.458,212.599h-5.721v1.436h5.721V212.599z M537.737,216.514h5.721v-1.435h-5.721V216.514z
			 M537.737,219.006h5.721v-1.436h-5.721V219.006z M537.737,221.532h5.721v-1.466h-5.721V221.532z M531.595,216.269l0.648-0.866
			c0.457,0.34,0.947,0.729,1.471,1.174c0.335-1.076,0.559-2.23,0.666-3.471h-2.053c-0.425,1.696-1.027,3.256-1.809,4.68
			c-0.195-0.262-0.475-0.608-0.833-1.045c1.133-2.055,1.837-4.406,2.119-7.054h-1.808v-1.111h5.701v1.111h-2.753
			c-0.086,0.803-0.207,1.571-0.358,2.312h2.916v1.092c-0.388,4.349-1.91,7.729-4.561,10.154c-0.306-0.347-0.607-0.655-0.914-0.916
			c1.445-1.291,2.535-2.827,3.275-4.609C532.717,217.196,532.147,216.713,531.595,216.269z M535.031,221.532h1.532v-10.021h3.438
			v-1.454h-4.041v-1.107h4.041v-1.595h1.191v1.595h4.336v1.107h-4.336v1.454h3.438v10.021h1.337v1.107h-10.936V221.532z"/>
		<path fill="#AE7B28" d="M535.749,236.696h-3.438v2.137h3.438V236.696z M543.278,236.696h-3.488v2.137h3.488V236.696z
			 M535.731,226.835h-3.438v2.219h3.438V226.835z M543.261,226.835h-3.488v2.219h3.488V226.835z M531.153,225.829h5.719v4.741
			h-1.141v-0.507h-3.438v0.667h-1.141V225.829z M538.632,225.829h5.77v4.804h-1.141v-0.569h-3.488v0.507h-1.141V225.829z
			 M530.272,231.76h6.584c0.17-0.409,0.276-0.881,0.327-1.419l1.174,0.164c-0.066,0.456-0.162,0.873-0.286,1.255h3.552
			c-0.435-0.315-0.893-0.624-1.376-0.928l0.666-0.737c0.718,0.426,1.367,0.851,1.942,1.271l-0.368,0.394h3.041v1.072h-6.291
			c1.253,1.232,3.481,1.813,6.679,1.747c-0.257,0.444-0.483,0.862-0.667,1.252c-0.286-0.02-0.564-0.043-0.832-0.07v4.976h-1.139
			v-0.893h-3.488v0.877h-1.141v-5.034h5.19c-3.107-0.421-5.093-1.372-5.954-2.854h-0.297c-0.607,1.295-2.581,2.246-5.915,2.854
			h5.216v5.034h-1.141v-0.877h-3.438v0.893h-1.141v-4.952c-0.288,0.055-0.587,0.109-0.898,0.16
			c-0.162-0.324-0.373-0.706-0.634-1.154c3.626-0.468,5.808-1.119,6.533-1.958h-5.899V231.76z"/>
		<path fill="#AE7B28" d="M541.779,248.438h-7.889v2.039h7.889V248.438z M542.399,254.224h-8.509v2.398h8.509V254.224z
			 M530.437,244.69h7.391c-0.332-0.569-0.671-1.104-1.018-1.595l1.123-0.636c0.368,0.479,0.775,1.072,1.225,1.789l-0.769,0.441h6.86
			v2.967h-1.271v-1.84h-12.271v1.84h-1.271V244.69z M543.652,253.132v5.525h-1.253v-0.963h-8.509v0.947h-1.271V247.35h10.412v4.757
			h-1.253v-0.538h-7.889v1.563H543.652z"/>
		<path fill="#AE7B28" d="M536.387,270.074l0.992-0.702c0.879,0.987,1.585,1.813,2.119,2.48l-1.094,0.814
			C537.905,271.95,537.23,271.084,536.387,270.074 M530.926,263.852l0.977-0.687c0.774,0.967,1.521,2.008,2.25,3.131l-1.094,0.815
			C532.333,265.891,531.621,264.803,530.926,263.852z M541.146,266.394c0.91-1.088,1.681-2.18,2.312-3.279l1.141,0.737
			c-0.685,1.029-1.5,2.133-2.445,3.307L541.146,266.394z M542.429,271.068l0.98-0.717c0.803,0.967,1.663,2.027,2.575,3.178
			l-1.094,0.865C544.023,273.143,543.202,272.036,542.429,271.068z M531.269,270.434l1.301,0.44
			c-0.445,1.337-0.992,2.679-1.644,4.023c-0.466-0.218-0.87-0.397-1.207-0.538C530.362,273.046,530.877,271.735,531.269,270.434z
			 M536.336,268.023h2.688v-5.756h-2.688V268.023z M533.696,270.448h1.271v3.065c0,0.803,0.405,1.205,1.221,1.205h3.244
			c0.763,0,1.207-0.359,1.337-1.076c0.119-0.511,0.211-1.107,0.275-1.79c0.489,0.214,0.906,0.378,1.254,0.487
			c-0.115,0.694-0.258,1.342-0.422,1.938c-0.292,1.057-1.049,1.584-2.263,1.584h-3.716c-1.471,0-2.201-0.71-2.201-2.122V270.448z
			 M529.979,268.023h5.085v-5.756h-4.467v-1.143h14.406v1.143h-4.708v5.756h5.393v1.139h-15.709V268.023z"/>
		<path fill="#AE7B28" d="M530.551,281.687l1.076,0.245c-0.196,1.314-0.468,2.71-0.814,4.188c-0.294-0.109-0.671-0.211-1.127-0.309
			C530.015,284.627,530.3,283.25,530.551,281.687 M532.065,278.002h1.256v3.131l0.7-0.394c0.565,0.881,1.049,1.708,1.448,2.479
			l-1.008,0.651c-0.382-0.804-0.76-1.517-1.141-2.133v12.333h-1.256V278.002z M534.608,292.199h5.279v-4.371h-4.203v-1.139h4.203
			v-3.942h-2.64c-0.399,1.029-0.867,2.055-1.401,3.08c-0.469-0.382-0.833-0.632-1.09-0.752c1.084-1.966,1.846-3.978,2.279-6.028
			l1.288,0.343c-0.187,0.749-0.403,1.485-0.653,2.215h2.217v-3.583h1.287v3.583h4.285v1.143h-4.285v3.942h3.961v1.139h-3.961v4.371
			h4.792v1.139h-11.358V292.199z"/>
		<path fill="#AE7B28" d="M534.199,297.615h-2.134v2.967h2.134V297.615z M532.065,304.724h2.134v-3.034h-2.134V304.724z
			 M537.835,304.852h2.496v-4.823h-2.496V304.852z M544.029,300.028h-2.496v4.823h2.496V300.028z M530.91,296.477h4.433v13.362
			c0,0.925-0.388,1.443-1.157,1.563c-0.328,0.055-0.974,0.066-1.942,0.035c-0.041-0.413-0.107-0.826-0.193-1.239
			c0.633,0.066,1.092,0.097,1.385,0.097c0.513,0,0.765-0.265,0.765-0.799v-3.665h-2.134c0,2.464-0.471,4.44-1.417,5.931
			c-0.304-0.324-0.63-0.628-0.979-0.912c0.837-1.334,1.252-3.163,1.24-5.475V296.477z M536.661,298.886h3.67v-3.225h1.202v3.225
			h3.665v7.889h-1.169v-0.78h-2.496v5.752h-1.202v-5.752h-2.496v0.78h-1.174V298.886z"/>
		<path fill="#AE7B28" d="M529.913,317.018l1.013-0.292c0.292,0.979,0.587,2.109,0.879,3.392l-1.123,0.309
			C530.466,319.229,530.208,318.094,529.913,317.018 M535.944,325.362h3.39v-1.415h-3.39V325.362z M543.881,323.947h-3.406v1.415
			h3.406V323.947z M535.944,327.726h3.39v-1.436h-3.39V327.726z M540.475,327.726h3.406v-1.436h-3.406V327.726z M537.868,318.647
			c0.575,0.667,1.168,1.408,1.774,2.234l-1.011,0.538l-0.243-0.374c-2.184,0.694-3.41,1.17-3.683,1.415l-0.735-0.83
			c0.337-0.227,0.501-0.554,0.491-0.979v-3.275c1.749-0.281,3.156-0.597,4.221-0.944l0.604,0.882
			c-1.294,0.312-2.501,0.585-3.618,0.814v2.718c0.694-0.226,1.396-0.456,2.102-0.683c-0.273-0.37-0.55-0.725-0.83-1.072
			L537.868,318.647z M538.404,321.989c1.63-0.784,2.444-2.062,2.444-3.845h-1.253v-0.979h5.899c-0.057,1.1-0.121,2.32-0.195,3.665
			c-0.033,0.967-0.707,1.451-2.021,1.451c-0.401-0.008-0.854-0.02-1.354-0.031c-0.055-0.293-0.13-0.687-0.228-1.174
			c0.532,0.031,1.033,0.055,1.499,0.066c0.577,0.035,0.873-0.199,0.896-0.702c0.062-0.683,0.107-1.45,0.131-2.297h-2.234
			c-0.012,2.098-0.918,3.677-2.72,4.741C539.021,322.594,538.729,322.293,538.404,321.989z M533.271,321.373
			c0,3.463-0.742,6.153-2.23,8.063c-0.251-0.358-0.551-0.717-0.898-1.072c1.055-1.294,1.681-3.1,1.876-5.412
			c-0.618,0.391-1.277,0.804-1.974,1.24l-0.308-1.372c0.814-0.391,1.601-0.808,2.36-1.256v-6.793h6.228
			c-0.228-0.335-0.462-0.674-0.7-1.01l1.139-0.538c0.412,0.554,0.782,1.068,1.107,1.548h5.852v1.076h-12.451V321.373z
			 M534.804,322.999h10.218v6.243h-1.141v-0.569h-7.937v0.569h-1.141V322.999z"/>
		<circle fill="none" stroke="#AE7B28" stroke-width="0.5669" stroke-miterlimit="22.9256" cx="319.665" cy="205.966" r="171.712"/>
		<path fill-rule="evenodd" clip-rule="evenodd" fill="#FFFFFF" d="M272.185,43.763l32.589-32.589c3.223,3.221,8.494,3.221,11.717,0
			l32.591,32.589c-3.223,3.223-3.223,8.494,0,11.717L316.49,88.067c-3.223-3.221-8.494-3.221-11.717,0l-32.589-32.588
			C275.405,52.257,275.405,46.985,272.185,43.763z"/>
		<path fill="none" stroke="#AE7B28" stroke-width="2.8346" stroke-miterlimit="22.9256" d="M272.185,43.763l32.589-32.589
			c3.223,3.221,8.494,3.221,11.717,0l32.591,32.589c-3.223,3.223-3.223,8.494,0,11.717L316.49,88.067
			c-3.223-3.221-8.494-3.221-11.717,0l-32.589-32.588C275.405,52.257,275.405,46.985,272.185,43.763z"/>
		<path fill="#AE7B28" d="M295.963,43.354l2.411,0.815c-1.135,2.812-2.329,5.307-3.581,7.482c-0.839-0.534-1.575-0.963-2.201-1.295
			C294.083,47.899,295.206,45.563,295.963,43.354 M305.394,42.822c1.55,1.679,3.055,3.41,4.521,5.196l-1.828,1.81
			c-1.569-2.022-3.065-3.899-4.484-5.641L305.394,42.822z M305.555,48.496l2.071,1.562c-1.896,2.556-3.948,4.432-6.149,5.619
			c-2.207,1.189-4.823,2.055-7.855,2.606c-0.532-1.16-0.992-2.057-1.382-2.696c4.761-0.815,8.087-2.031,9.971-3.651h-2.562V40.98
			h2.731v10.832C303.508,50.908,304.564,49.803,305.555,48.496z"/>
		<path fill="#AE7B28" d="M318.067,40.945v7.798c0,4.103-1.524,7.286-4.573,9.556c-0.769-0.92-1.476-1.644-2.127-2.162
			c2.716-1.833,4.078-4.535,4.078-8.101v-7.091H318.067z M326.613,51.439c0.805,0.307,1.606,0.561,2.411,0.763
			c-0.241,2.511-0.476,3.981-0.695,4.414c-0.221,0.429-0.554,0.749-0.992,0.953c-0.441,0.201-1.015,0.307-1.717,0.307h-1.719
			c-1.915,0-2.874-1.006-2.874-3.015V40.945h2.804v13.507c0,0.546,0.266,0.808,0.797,0.8h0.813c0.47,0,0.761-0.145,0.875-0.438
			C326.432,54.526,326.531,53.399,326.613,51.439z"/>
		<path fill-rule="evenodd" clip-rule="evenodd" fill="#FFFFFF" d="M83.683,162.131l40.571-40.574
			c4.011,4.011,10.575,4.011,14.588,0l40.571,40.574c-4.012,4.008-4.012,10.574,0,14.587l-40.571,40.572
			c-4.013-4.013-10.577-4.013-14.588,0l-40.571-40.572C87.69,172.705,87.69,166.139,83.683,162.131z"/>
		<path fill="none" stroke="#AE7B28" stroke-width="2.8346" stroke-miterlimit="22.9256" d="M83.683,162.131l40.571-40.574
			c4.011,4.011,10.575,4.011,14.588,0l40.571,40.574c-4.012,4.008-4.012,10.574,0,14.587l-40.571,40.572
			c-4.013-4.013-10.577-4.013-14.588,0l-40.571-40.572C87.69,172.705,87.69,166.139,83.683,162.131z"/>
		<path fill="#AE7B28" d="M125.853,167.617v-1.724h-4.501v1.724H125.853z M113.847,167.617h4.502v-1.724h-4.502V167.617z
			 M113.847,163.511h4.502v-1.724h-4.502V163.511z M125.853,161.787h-4.501v1.724h4.501V161.787z M120.667,180.106
			c-0.281-1.295-0.524-2.285-0.729-2.979c1.794,0.148,3.361,0.223,4.703,0.223c0.38,0,0.711-0.094,0.986-0.281
			c0.274-0.19,0.456-0.433,0.534-0.736c0.084-0.301,0.156-1.064,0.223-2.293h-7.131c-0.934,3.08-3.906,5.221-8.915,6.422
			c-0.532-1.002-1.119-1.98-1.767-2.932c3.981-0.812,6.398-1.978,7.261-3.49h-6.399v-2.585h6.949
			c0.062-0.464,0.113-0.933,0.156-1.412h-5.65v-10.684h17.921v10.684h-9.058c-0.031,0.464-0.066,0.937-0.109,1.412h9.963
			c-0.234,3.583-0.418,5.685-0.547,6.301c-0.128,0.62-0.463,1.146-1.01,1.583c-0.541,0.441-1.374,0.69-2.491,0.753
			C124.438,180.153,122.806,180.161,120.667,180.106z"/>
		<path fill="#AE7B28" d="M133.18,162.802l1.876,0.222c-0.191,2.426-0.402,4.621-0.64,6.578c-0.632-0.249-1.236-0.409-1.808-0.487
			C132.888,166.837,133.078,164.731,133.18,162.802 M138.545,158.523v3.034c0.796,0.327,1.622,0.71,2.493,1.135l-1.126,2.409
			l-1.367-0.916v16.077h-2.956v-21.739H138.545z M140.175,176.53h6.095v-4.105h-4.991v-2.87h4.991v-3.927h-2.692
			c-0.324,1.342-0.677,2.555-1.062,3.643c-0.881-0.515-1.747-1.002-2.603-1.459c0.912-2.354,1.573-5.018,1.986-7.989l2.714,0.199
			c-0.139,0.959-0.285,1.871-0.44,2.741h2.098v-4.239h2.999v4.239h4.593v2.865h-4.593v3.927h4.507v2.87h-4.507v4.105h5.256v2.874
			h-14.35V176.53z"/>
		<path fill-rule="evenodd" clip-rule="evenodd" fill="#FFFFFF" d="M441.573,138.264l40.572-40.572
			c4.012,4.012,10.576,4.012,14.589,0l40.572,40.572c-4.011,4.012-4.011,10.576,0,14.587l-40.572,40.571
			c-4.013-4.008-10.577-4.008-14.589,0l-40.572-40.571C445.586,148.84,445.586,142.275,441.573,138.264z"/>
		<path fill="none" stroke="#AE7B28" stroke-width="2.8346" stroke-miterlimit="22.9256" d="M441.573,138.264l40.572-40.572
			c4.012,4.012,10.576,4.012,14.589,0l40.572,40.572c-4.011,4.012-4.011,10.576,0,14.587l-40.572,40.571
			c-4.013-4.008-10.577-4.008-14.589,0l-40.572-40.571C445.586,148.84,445.586,142.275,441.573,138.264z"/>
		<path fill="#AE7B28" d="M473.736,146.265l4.514,2.197c1.442-1.487,2.422-3.424,2.946-5.815h-5.795
			C474.855,143.89,474.302,145.095,473.736,146.265 M466.628,139.579h6.368c0.56-1.519,1.113-3.18,1.667-4.989l3.62,0.839
			c-0.517,1.427-1.047,2.812-1.589,4.15h11.608v3.067h-3.4c-0.945,3.148-2.125,5.593-3.528,7.338l6.642,3.275l-2.074,3.139
			c-2.554-1.487-4.942-2.832-7.165-4.041c-2.454,1.752-5.901,3.133-10.339,4.15c-0.618-1.104-1.267-2.145-1.94-3.111
			c3.768-0.679,6.742-1.622,8.928-2.835c-2.268-1.195-4.324-2.221-6.17-3.084c0.848-1.299,1.682-2.909,2.515-4.831h-5.142V139.579z"
			/>
		<path fill="#AE7B28" d="M491.04,139.004l1.875,0.223c-0.191,2.425-0.403,4.616-0.639,6.576c-0.635-0.248-1.236-0.412-1.81-0.485
			C490.745,143.036,490.938,140.933,491.04,139.004 M496.403,134.723v3.033c0.795,0.332,1.624,0.714,2.493,1.139l-1.125,2.406
			l-1.368-0.914v16.074h-2.956v-21.738H496.403z M498.035,152.733h6.095v-4.105h-4.991v-2.87h4.991v-3.931h-2.694
			c-0.324,1.342-0.677,2.554-1.062,3.644c-0.881-0.517-1.748-1.002-2.603-1.458c0.911-2.354,1.573-5.017,1.985-7.987l2.716,0.198
			c-0.141,0.956-0.287,1.868-0.44,2.737h2.098v-4.238h2.998v4.238h4.592v2.866h-4.592v3.931h4.506v2.87h-4.506v4.105h5.254v2.87
			h-14.347V152.733z"/>
	</g>
	<rect fill="none" width="640" height="377.679"/>
</g>
</svg>
