<?xml version="1.0" encoding="utf-8"?>
<!-- Generator: Adobe Illustrator 16.0.0, SVG Export Plug-In . SVG Version: 6.00 Build 0)  -->
<!DOCTYPE svg PUBLIC "-//W3C//DTD SVG 1.1//EN" "http://www.w3.org/Graphics/SVG/1.1/DTD/svg11.dtd">
<svg version="1.1" id="图层_1" xmlns="http://www.w3.org/2000/svg" xmlns:xlink="http://www.w3.org/1999/xlink" x="0px" y="0px"
	 width="640px" height="186.547px" viewBox="0 0 640 186.547" enable-background="new 0 0 640 186.547" xml:space="preserve">
<g>
	<path fill="#AE7B28" d="M332.871,54.956h10.045v-1.033h3.285v1.033h9.951v2.769h-9.951v4.507h-3.285v-4.507h-10.045V54.956z
		 M338.434,47.918l1.432,2.133l-5.28,3.759l-1.384-2.815C334.513,50.304,336.26,49.278,338.434,47.918z M333.953,45.921l1.806-1.828
		c0.92,0.721,1.915,1.579,2.979,2.581l-1.901,1.922C335.759,47.52,334.798,46.627,333.953,45.921z M354.859,45.874l-3.096,2.559
		c1.23,0.729,2.563,1.56,4.015,2.487l-1.739,2.511c-1.502-1.247-3.054-2.429-4.646-3.544l1.172-1.606l-1.123-1.396
		c1.361-1.002,2.534-1.938,3.52-2.814L354.859,45.874z M333.34,41.062h9.412l-0.399-2.016l3.659-0.141
		c0.111,0.554,0.232,1.271,0.365,2.156h9.447v2.772h-10.341l-2.519,2.391l2.311-0.043c0.703-0.683,1.425-1.42,2.17-2.207l2.392,1.38
		c-1.783,1.739-3.893,3.619-6.336,5.639l2.876-0.191c-0.24-0.374-0.472-0.721-0.694-1.033l2.141-1.221
		c1.092,1.428,2.117,2.89,3.072,4.391l-2.347,1.314l-0.751-1.232c-3.355,0.234-6.015,0.464-7.981,0.69l-0.962-2.465
		c1.205-0.686,2.508-1.618,3.909-2.791c-1,0.077-1.889,0.163-2.663,0.257l-1.105-2.184c0.829-0.378,1.831-1.279,3.003-2.694h-8.658
		V41.062z M314.263,52.354h7.416v-1.247c1.358-0.862,2.495-1.61,3.4-2.25h-9.405v-2.796h14.008V48.9
		c-1.565,1.131-3.125,2.199-4.669,3.217v0.237h5.794v2.839h-5.794v3.728c0,0.956-0.262,1.661-0.782,2.126
		c-0.521,0.464-1.241,0.713-2.158,0.764c-0.92,0.047-2.351,0.09-4.289,0.141c-0.205-1.283-0.417-2.309-0.634-3.077
		c0.79,0.07,1.603,0.109,2.439,0.109c0.822,0,1.372-0.082,1.653-0.241c0.28-0.16,0.429-0.46,0.437-0.897v-2.651h-7.416V52.354z
		 M313.582,62.139h-3.168v-9.577c-0.698,0.745-1.424,1.442-2.184,2.09l-0.796-3.614c2.033-2.129,3.667-4.465,4.905-7.015h-4.79
		v-2.937h5.995c0.253-0.726,0.474-1.47,0.671-2.23l3.45,0.616c-0.171,0.542-0.354,1.084-0.554,1.614h13.554v2.937H315.94
		c-0.703,1.579-1.491,3.053-2.358,4.422V62.139z M282.934,57.868h9.881v-3.992h-6.946v-3.167h6.946v-3.895h-5.68
		c-1.025,2.02-2.176,3.902-3.448,5.657c-0.486-1.298-1.019-2.644-1.598-4.039c1.614-2.141,2.979-4.999,4.108-8.567l3.495,0.87
		c-0.343,0.994-0.711,1.961-1.103,2.912h4.225V39h3.519v4.647h7.791v3.167h-7.791v3.895h6.879v3.167h-6.879v3.992h8.638v3.26
		h-22.037V57.868z M263.387,54.137h4.55v-3.685h-4.55V54.137z M260.932,47.473h7.005v-3.1h-4.688
		C262.542,45.461,261.771,46.494,260.932,47.473z M278.007,47.473v2.979h-6.641v3.685h8.237v2.979h-8.237v4.952h-3.43v-4.952
		h-11.122v-2.979h3.285v-5.739c-0.422,0.448-0.858,0.881-1.314,1.302c-0.593-0.889-1.297-1.891-2.111-3.006
		c2.379-1.954,4.211-4.562,5.492-7.838l3.636,0.542c-0.272,0.683-0.565,1.346-0.877,1.996h13.975v2.979h-7.533v3.1H278.007z
		 M243.404,55.201c1.26,0.776,2.572,1.166,3.942,1.166c1.064,0,1.911-0.265,2.534-0.787c0.626-0.527,0.938-1.244,0.938-2.161
		c0-1.879-1.301-2.814-3.905-2.814c-0.786,0-1.778,0.069-2.983,0.21V40.782h9.916v3.119h-6.652v3.825
		c0.453-0.051,0.956-0.078,1.514-0.078c1.822,0,3.271,0.483,4.355,1.454c1.076,0.968,1.616,2.297,1.616,3.989
		c0,1.892-0.634,3.396-1.894,4.512c-1.264,1.115-2.943,1.673-5.04,1.673c-1.752,0-3.199-0.262-4.342-0.788V55.201z M232.116,48.811
		c1.127,1.345,2.338,2.979,3.634,4.901l-2.955,1.973c-1.189-1.957-2.322-3.622-3.4-4.995L232.116,48.811z M221.838,56.952h3.332
		v-4.013h-3.332V56.952z M225.17,45.854h-3.332v4.009h3.332V45.854z M222.001,39.047l3.498,0.538l-1.057,3.193h3.989v4.578
		c1.259-2.114,2.466-4.897,3.614-8.356l3.236,0.846c-0.343,1.037-0.708,2.056-1.1,3.05h6.056l-0.272,13.503
		c-0.035,1.458-0.16,2.476-0.365,3.057c-0.2,0.585-0.517,1.061-0.949,1.428c-0.429,0.366-1.029,0.62-1.802,0.752
		c-0.77,0.133-2.448,0.199-5.04,0.199c-0.231-1.376-0.532-2.558-0.893-3.544c1.162,0.093,2.393,0.14,3.696,0.14
		c0.377,0,0.702-0.043,0.974-0.128c0.276-0.09,0.503-0.215,0.678-0.395c0.176-0.175,0.297-0.37,0.355-0.593
		c0.066-0.218,0.117-1.182,0.151-2.885l0.109-4.801c0.031-1.493,0.043-2.706,0.043-3.634h-4.08
		c-0.517,1.092-1.064,2.156-1.642,3.189c-0.745-0.487-1.667-0.967-2.771-1.446v13.979h-3.262v-1.688h-3.332v1.829h-3.264V42.778
		h2.479C221.506,41.242,221.822,40.002,222.001,39.047z M198.84,58.527h10.957v-1.649H198.84V58.527z M209.797,52.683H198.84v1.642
		h10.957V52.683z M209.071,43.714h-5.422V45.5h3.404C207.75,44.935,208.424,44.342,209.071,43.714z M192.387,45.5h8.071v-1.786
		h-6.173v-2.769h6.173v-2.09h3.191v2.09h5.637v2.574c1.076-1.064,2.102-2.219,3.07-3.467l2.371,1.81
		c-1.109,1.325-2.271,2.534-3.484,3.638h4.328v2.769h-7.825c-0.956,0.659-1.942,1.256-2.96,1.782h8.204v12.088h-3.193v-0.987H198.84
		v0.987h-3.193v-8.47c-0.804,0.246-1.634,0.491-2.486,0.726c-0.22-0.847-0.54-1.825-0.961-2.933
		c4.301-0.784,7.834-1.849,10.595-3.193h-10.407V45.5z M182.486,55.989c1.296,0.768,2.322,1.321,3.07,1.669
		c-0.608,1.906-1.238,3.057-1.889,3.458c-0.651,0.402-1.512,0.597-2.594,0.601h-5.209c-2.332-0.004-3.498-1.006-3.498-3.006v-3.966
		h3.24v3.053c0,0.843,0.511,1.264,1.527,1.264h2.84c0.812,0,1.381-0.164,1.708-0.491C182.013,58.243,182.279,57.381,182.486,55.989z
		 M168.804,54.465l2.933,1.033c-1.019,2.546-1.774,4.375-2.275,5.467l-2.747-1.268C167.575,57.993,168.271,56.246,168.804,54.465z
		 M187.364,54.184c1.27,2.145,2.207,3.778,2.815,4.901l-2.792,1.501c-0.733-1.642-1.626-3.354-2.675-5.135L187.364,54.184z
		 M185.394,51.321v-1.313h-5.399v1.313H185.394z M171.383,51.321h5.422v-1.313h-5.422V51.321z M172.063,44.279h4.741v-1.313h-4.741
		V44.279z M184.736,44.279v-1.313h-4.742v1.313H184.736z M168.309,47.684h8.496v-1.08h-7.817v-5.962h7.817V39h3.189v1.642h7.818
		v5.962h-7.818v1.08h8.474v5.962h-8.474v0.558h-0.736c0.705,0.632,1.417,1.295,2.145,1.996l-2.297,2.184
		c-1.018-1.111-1.996-2.113-2.937-3.006l1.326-1.174h-0.69v-0.558h-8.496V47.684z M146.839,58.336h2.718v-7.646h2.96v7.646h2.628
		V48.76h-6.711v-2.765h15.297v2.765h-5.533v3.006h4.878v2.723h-4.878v3.848h6.337v2.815h-17.695V58.336z M152.329,39.659l3.729-0.87
		c0.399,0.905,0.765,1.79,1.094,2.651h7.425v2.862h-17.106v5.233c0,1.918-0.096,3.544-0.281,4.882
		c-0.187,1.337-0.536,2.694-1.045,4.062c-0.507,1.377-1.161,2.647-1.957,3.821c-0.846-0.736-1.716-1.462-2.608-2.184
		c1.354-1.696,2.229-3.813,2.616-6.359c-0.994,0.597-1.786,1.049-2.379,1.36l-0.634-3.002c0.665-0.281,1.747-0.827,3.251-1.63
		l-0.014-2.008l-1.667,0.682c-0.484-1.642-1.009-3.15-1.57-4.53l1.948-0.819c0.421,0.936,0.852,2.016,1.289,3.225V41.44h8.658
		C152.838,40.833,152.587,40.236,152.329,39.659z M127.147,53.505v-1.552h-2.043v1.552H127.147z M135.455,53.505v-1.552h-2.064
		v1.552H135.455z M133.577,47.398V46.3h-6.616v1.099H133.577z M122.618,50.265h7.018v4.948h-7.018V50.265z M130.9,50.265h7.04v4.948
		h-7.04V50.265z M123.907,44.354h12.722v4.972h-12.722V44.354z M134.938,61.998v-0.589H122.57v-4.976h2.959v2.538h3.168v-3.334
		h3.073v3.334h3.168v-2.538h2.959v5.564H134.938z M127.077,39.117l3.872-0.305c0.113,0.452,0.26,1.092,0.448,1.923h7.53v2.675
		h-16.87v6.359c0,5.022-1.034,9.167-3.101,12.442c-0.859-0.834-1.741-1.606-2.649-2.327c1.156-1.61,1.945-3.623,2.371-6.028
		c-0.642,0.405-1.396,0.865-2.256,1.38l-0.681-3.521c1.361-0.655,2.467-1.232,3.311-1.731v-1.642l-2.16,0.632
		c-0.374-2.57-0.702-4.484-0.986-5.752l2.09-0.608c0.483,2.176,0.838,3.88,1.057,5.112v-6.991h8.399
		C127.36,40.283,127.237,39.741,127.077,39.117z"/>
	<path fill="#AE7B28" d="M375.339,90.053c4.479-3.072,9.654-6.784,15.521-11.124h-38.049v-7.736h50.95v7.682L384.13,93.5v17.972
		c0,3.521-0.913,6.149-2.716,7.877c-1.813,1.739-4.49,2.612-8.051,2.632l-10.157,0.055c-0.511-2.741-1.186-5.58-1.992-8.513
		c3.54,0.34,6.492,0.503,8.866,0.503c2.191,0,3.607-0.448,4.27-1.349c0.655-0.9,0.989-2.059,0.989-3.494V90.053z M292.349,100.289
		h10.566v-5.506h7.403v5.506h9.73v6.784h-9.73v5.67l11.401-0.835l-0.446,7.288c-11.344,0.741-21.417,1.501-30.208,2.281l-0.55-7.568
		l12.399-0.663v-6.173h-10.566V100.289z M323.78,74.257h7.394v35.542h-7.394V74.257z M291.065,71.306h30.758v6.788h-13.897
		c-2.27,3.189-4.508,6.169-6.73,8.953c1.614-0.02,5.126-0.133,10.536-0.362c-1.111-1.774-2.049-3.237-2.808-4.367l5.619-3.112
		c2.524,3.482,5.393,7.736,8.619,12.739l-5.952,3.892l-1.747-2.972l-10.547,0.464c-4.839,0.25-7.678,0.43-8.534,0.554
		c-0.854,0.113-1.896,0.305-3.141,0.569l-2.336-6.398c2.125-1.072,4.937-4.395,8.419-9.959h-8.259V71.306z M335.18,68.802h7.613
		v45.392c0,2.745-0.569,4.835-1.718,6.259c-1.147,1.423-3.086,2.203-5.8,2.335c-2.716,0.133-5.516,0.199-8.384,0.199
		c-0.304-1.634-0.947-4.254-1.945-7.854c3.152,0.078,5.582,0.117,7.282,0.117c1.963,0,2.951-1.057,2.951-3.174V68.802z
		 M237.618,68.696c2.78,3.596,5.314,7.062,7.623,10.392l-6.684,4.512c-1.661-2.998-3.978-6.729-6.948-11.183L237.618,68.696z
		 M245.904,80.04h13.29c0.191-3.229,0.287-7.007,0.287-11.344h7.727c0,4.224-0.076,8.01-0.219,11.344h16.574v6.843h-17.077
		c-0.152,1.443-0.333,2.765-0.56,3.95c6.301,5.116,12.055,9.92,17.246,14.4l-5.731,6.512c-4.559-4.449-9.257-8.676-14.068-12.681
		c-2.117,4.005-6.161,8.496-12.133,13.46c-2.002-2.409-3.948-4.508-5.839-6.285c6.712-5.116,10.641-9.608,11.791-13.461
		c0.562-1.298,1.025-3.264,1.396-5.896h-12.684V80.04z M257.421,114.299c8.639,0.191,17.942,0.078,27.916-0.331
		c-0.957,2.562-1.867,5.115-2.722,7.682c-10.424,0.034-20.077-0.059-28.982-0.277c-5.705-0.304-10.195-2.23-13.461-5.79
		c-1.442,1.556-3.702,4.043-6.776,7.451l-3.342-8.231c1.109-1.186,3.207-3.15,6.281-5.896V94.942h-5.561v-7.338h13.015v21.922
		C247.016,112.599,251.562,114.193,257.421,114.299z M192.113,98.229h30.151v6.672h-11.068v9.959h13.402v6.672h-35.371v-4.079
		c-6.492,0.624-12.625,1.412-18.416,2.363l-1.166-7.795c6.048-0.448,12.739-1.225,20.078-2.336
		c-0.125,1.614-0.199,3.342-0.219,5.175h13.735v-9.959h-11.127V98.229z M220.204,70.756v6.168c-1.907,2.652-4.034,5.108-6.37,7.37
		c3.808,1.906,7.595,3.88,11.383,5.923l-4.451,6.34c-4.377-2.818-8.536-5.334-12.466-7.564c-4.707,3.514-10.08,6.399-16.128,8.676
		c-1.264-2.44-2.534-4.69-3.835-6.722c9.635-3.342,17.222-7.85,22.744-13.519h-19.127v-6.672H220.204z M177.657,85.433l4.669-0.191
		c1.377-2.172,2.784-4.52,4.227-7.034l6.672,3.334c-5.629,8.087-10.079,14.135-13.347,18.132c3.712-0.258,6.749-0.515,9.124-0.78
		c-0.297,2.64-0.446,4.897-0.446,6.789c-7.859,0.522-13.443,1.092-16.738,1.728l-1.727-6.399c2.45-2.296,5.08-5.4,7.899-9.312
		c-2.487,0.18-4.578,0.418-6.285,0.69l-2.562-6.34c3.455-4.157,6.863-10.197,10.232-18.132l7.35,2.612
		C183.648,76.242,180.618,81.206,177.657,85.433z M156.238,100.733c3.266,1.407,6.104,2.479,8.514,3.229
		c-0.873,4.461-1.603,7.869-2.184,10.204c-0.589,2.336-1.869,4.075-3.864,5.214c-1.992,1.139-4.688,1.708-8.077,1.708h-24.141
		c-7.937,0-11.902-4.149-11.902-12.455V84.824h8.228v5.393h26.925V78.484h-36.663v-7.623h44.949V97.84h-35.211v10.014
		c0,3.739,1.759,5.618,5.289,5.618h20.742c1.728,0,3.124-0.272,4.187-0.807c1.062-0.538,1.728-1.497,1.982-2.886
		C155.279,108.403,155.687,105.385,156.238,100.733z"/>
	<path fill="#AE7B28" d="M525.191,106.239c0,4.004,1.482,6.009,4.424,6.009c2.972,0,4.453-2.078,4.453-6.228
		c0-1.945-0.399-3.447-1.188-4.492c-0.787-1.053-1.831-1.575-3.15-1.575C526.71,99.953,525.191,102.051,525.191,106.239
		 M519.106,106.551c0-3.56,0.987-6.398,2.972-8.496c1.984-2.105,4.632-3.158,7.927-3.158c3.19,0,5.668,0.947,7.442,2.838
		c1.776,1.888,2.657,4.547,2.657,7.982c0,3.521-0.996,6.332-2.979,8.438c-1.984,2.109-4.604,3.154-7.87,3.154
		c-3.058,0-5.516-0.99-7.366-2.963C520.037,112.373,519.106,109.771,519.106,106.551z M533.708,73.621l-28.005,43.107h-6.987
		l27.958-43.107H533.708z M498.526,84.388c0,3.984,1.462,5.978,4.395,5.978c2.981,0,4.473-2.078,4.473-6.235
		c0-4.023-1.426-6.028-4.281-6.028C500.055,78.102,498.526,80.191,498.526,84.388z M492.402,84.691c0-3.524,0.979-6.352,2.935-8.469
		c1.965-2.125,4.604-3.189,7.944-3.189c3.19,0,5.668,0.967,7.444,2.893c1.764,1.931,2.647,4.586,2.647,7.986
		c0,3.481-0.977,6.273-2.942,8.371c-1.965,2.09-4.595,3.144-7.87,3.144c-3.085,0-5.543-0.987-7.386-2.952
		C493.335,90.51,492.402,87.916,492.402,84.691z M462.517,95.645c0,9.939,2.117,14.915,6.359,14.915
		c4.177,0,6.267-5.128,6.267-15.359c0-10.274-2.031-15.41-6.095-15.41C464.69,79.79,462.517,85.077,462.517,95.645z M453.422,95.871
		c0-7.46,1.366-13.145,4.111-17.075c2.743-3.931,6.711-5.896,11.902-5.896c9.902,0,14.849,7.318,14.849,21.965
		c0,7.217-1.339,12.777-4.025,16.7c-2.688,3.931-6.578,5.884-11.657,5.884C458.48,117.449,453.422,110.255,453.422,95.871z
		 M417.127,107.331c2.876,2.145,6.228,3.229,10.062,3.229c2.431,0,4.357-0.542,5.79-1.614c1.426-1.084,2.137-2.612,2.137-4.594
		c0-2.043-0.846-3.599-2.544-4.671c-1.69-1.072-4.073-1.614-7.13-1.614h-3.835v-6.922h3.53c5.783,0,8.679-1.945,8.679-5.849
		c0-3.661-2.221-5.506-6.645-5.506c-2.896,0-5.707,0.951-8.431,2.839v-7.424c2.962-1.537,6.455-2.305,10.479-2.305
		c4.083,0,7.395,0.939,9.93,2.819c2.544,1.879,3.815,4.487,3.815,7.829c0,5.643-2.856,9.183-8.57,10.626v0.141
		c3.008,0.331,5.41,1.423,7.203,3.295c1.796,1.859,2.696,4.129,2.696,6.796c0,4.103-1.489,7.3-4.489,9.597
		c-2.991,2.296-6.988,3.446-11.971,3.446c-4.434,0-8.002-0.729-10.708-2.191V107.331z"/>
	<rect fill="none" width="640" height="186.547"/>
</g>
</svg>
