<?xml version="1.0" encoding="utf-8"?>
<!-- Generator: Adobe Illustrator 16.0.0, SVG Export Plug-In . SVG Version: 6.00 Build 0)  -->
<!DOCTYPE svg PUBLIC "-//W3C//DTD SVG 1.1//EN" "http://www.w3.org/Graphics/SVG/1.1/DTD/svg11.dtd">
<svg version="1.1" id="图层_1" xmlns="http://www.w3.org/2000/svg" xmlns:xlink="http://www.w3.org/1999/xlink" x="0px" y="0px"
	 width="640px" height="101.344px" viewBox="0 0 640 101.344" enable-background="new 0 0 640 101.344" xml:space="preserve">
<g>
	<path fill="#AE7B28" d="M350.981,11.57h24.815l-14.829,48.516h-3.674l13.069-43.188c-2.017,0.045-3.512,0.059-4.506,0.035
		l-4.114-0.035l-5.293,0.035c-1.24-0.023-2.166,0.023-2.771,0.127c-0.589,0.115-1.1,0.312-1.517,0.602
		c-0.429,0.279-0.938,0.777-1.552,1.494c-0.614,0.707-1.088,1.345-1.438,1.912c-0.358,0.568-0.682,0.973-1.008,1.217
		c-0.312,0.254-0.601,0.312-0.855,0.174c-0.268-0.139-0.408-0.324-0.43-0.557c-0.023-0.243,0.15-0.822,0.51-1.748L350.981,11.57z"/>
	<path fill="#AE7B28" d="M380.545,60.444V58.88c2.965-2.607,5.178-4.635,6.648-6.094c1.474-1.459,3.268-3.383,5.389-5.758
		c2.107-2.375,3.683-4.24,4.714-5.607c1.031-1.378,1.878-2.594,2.525-3.672c0.66-1.078,1.192-2.154,1.599-3.254
		c0.405-1.102,0.707-2.213,0.881-3.326c0.186-1.123,0.276-2.27,0.276-3.451c-0.021-1.286-0.208-2.643-0.543-4.067
		c-0.348-1.424-0.892-2.618-1.635-3.567c-0.74-0.951-1.875-1.819-3.37-2.607c-1.506-0.799-3.081-1.205-4.703-1.227
		c-1.066,0-2.039,0.162-2.907,0.497c-0.869,0.325-1.773,0.87-2.699,1.622c-0.927,0.764-1.566,1.506-1.937,2.225l-1.794,3.197h-1.09
		c0.279-1.634,0.556-2.896,0.858-3.812c0.29-0.903,0.752-1.899,1.39-3.001c0.626-1.1,1.459-2.073,2.492-2.93
		c1.029-0.857,2.176-1.529,3.438-2.004c1.275-0.475,2.642-0.753,4.112-0.812c1.02-0.023,2.203,0.069,3.569,0.3
		c1.355,0.221,2.595,0.615,3.706,1.172c1.123,0.556,2.108,1.273,2.954,2.178c0.847,0.891,1.563,1.911,2.154,3.068
		c0.591,1.148,0.998,2.342,1.229,3.558c0.22,1.228,0.29,2.769,0.196,4.622c-0.079,1.193-0.22,2.144-0.382,2.826
		c-0.173,0.695-0.497,1.6-0.984,2.723c-0.485,1.113-0.938,2.051-1.343,2.793c-0.406,0.753-0.962,1.645-1.67,2.664
		c-0.693,1.031-1.898,2.595-3.614,4.691c-1.702,2.085-3.938,4.459-6.695,7.102l-6.659,6.452c5.778-0.023,9.625-0.023,11.547,0
		c1.925,0.023,3.177,0.035,3.744,0.023c0.578-0.012,1.319-0.081,2.213-0.208c0.891-0.129,1.805-0.383,2.732-0.776
		c0.927-0.405,1.473-0.753,1.623-1.077l1.296-1.969h1.252c-0.499,1.203-0.914,2.246-1.252,3.139
		c-0.347,0.903-0.659,1.795-0.949,2.699l-1.055,3.231H380.545z"/>
	<path fill="#AE7B28" d="M429.964,50.667c0.788,0,1.575,0.207,2.352,0.625c0.787,0.417,1.634,1.842,2.536,4.263
		c0,0.88-0.218,1.69-0.659,2.444c-0.452,0.742-1.043,1.333-1.807,1.761c-0.753,0.429-1.563,0.649-2.422,0.649
		c-0.881,0-1.702-0.221-2.468-0.649c-0.753-0.428-1.344-1.019-1.772-1.761c-0.438-0.754-0.649-1.564-0.649-2.434
		c0-0.867,0.211-1.69,0.649-2.455c0.452-0.799,1.066-1.401,1.843-1.818C428.354,50.875,429.142,50.667,429.964,50.667"/>
	<path fill="#AE7B28" d="M456.029,17.778l-0.138-1.019l12.569-5.631v42.249c0,1.876,0.07,3.094,0.209,3.648
		c0.138,0.557,0.429,0.985,0.857,1.298c0.429,0.302,0.996,0.464,1.702,0.487l2.792,0.173v1.46h-17.586v-1.331
		c0.684-0.047,1.252-0.094,1.728-0.164c0.485-0.068,1.02-0.184,1.622-0.357c0.59-0.174,1.053-0.383,1.366-0.65
		c0.323-0.254,0.603-0.637,0.835-1.146c0.241-0.51,0.358-1.551,0.358-3.104V21.473c0-1.042-0.059-1.888-0.186-2.56
		c-0.128-0.661-0.302-1.136-0.534-1.402c-0.218-0.277-0.705-0.439-1.446-0.475c-0.638-0.023-1.264,0.035-1.878,0.197L456.029,17.778
		z"/>
	<path fill="#AE7B28" d="M500.931,31.865c0.591,0.023,1.367-0.289,2.352-0.938c0.984-0.637,1.819-1.46,2.504-2.456
		c0.67-0.996,1.157-1.957,1.437-2.873c0.288-0.914,0.474-2.027,0.567-3.359c0.08-1.32,0.057-2.502-0.105-3.545
		c-0.254-1.425-0.683-2.502-1.285-3.221c-0.613-0.729-1.448-1.355-2.503-1.889s-2.293-0.811-3.718-0.833
		c-1.529,0-2.874,0.3-3.997,0.903c-1.135,0.602-1.969,1.251-2.513,1.97c-0.546,0.718-0.94,1.54-1.193,2.479
		c-0.244,0.938-0.314,1.945-0.199,3.035c0.094,1.112,0.338,2.178,0.743,3.208c0.405,1.031,0.926,1.911,1.552,2.642
		c0.614,0.741,1.426,1.541,2.422,2.41c0.996,0.88,1.842,1.505,2.548,1.888C500.238,31.667,500.7,31.865,500.931,31.865
		 M497.769,36.718c-1.02,0.857-1.818,1.6-2.41,2.201c-0.578,0.614-1.169,1.402-1.748,2.375c-0.567,0.974-0.984,1.992-1.229,3.059
		c-0.256,1.066-0.37,2.306-0.347,3.73c0,1.807,0.173,3.256,0.509,4.332c0.347,1.078,0.811,2.017,1.413,2.828
		c0.603,0.821,1.425,1.551,2.489,2.189c1.066,0.647,2.492,0.961,4.276,0.938c1.634,0,3.082-0.336,4.367-1.02
		c1.274-0.684,2.166-1.448,2.677-2.328c0.509-0.869,0.857-1.772,1.043-2.711c0.174-0.938,0.209-1.889,0.092-2.839
		c-0.15-1.054-0.509-2.097-1.064-3.116c-0.558-1.02-1.414-2.143-2.596-3.383c-1.182-1.228-2.329-2.281-3.464-3.174L497.769,36.718z
		 M496.344,35.665c-1.784-1.378-3.104-2.444-3.962-3.209c-0.869-0.753-1.575-1.471-2.131-2.131
		c-0.544-0.673-1.137-1.646-1.739-2.919c-0.614-1.287-0.926-3.001-0.938-5.168c-0.012-2.154,0.476-4.055,1.448-5.676
		c0.949-1.588,2.328-2.85,4.135-3.789c1.808-0.938,3.721-1.505,5.734-1.68c1.252-0.092,2.434-0.057,3.57,0.116
		c1.123,0.173,2.002,0.37,2.606,0.614c0.612,0.232,1.249,0.567,1.898,0.984c0.661,0.418,1.344,0.916,2.04,1.494
		c0.705,0.58,1.308,1.263,1.816,2.051c0.511,0.787,0.904,1.75,1.205,2.885c0.291,1.135,0.394,2.235,0.303,3.324
		c-0.115,1.02-0.418,2.098-0.927,3.221c-0.511,1.135-1.239,2.201-2.189,3.209c-0.951,1.008-1.912,1.795-2.886,2.363l-3.532,2.201
		c1.681,1.252,3.08,2.328,4.205,3.232c1.135,0.904,2.246,1.969,3.324,3.209c1.09,1.228,1.899,2.549,2.434,3.95
		c0.532,1.401,0.764,2.966,0.694,4.681c-0.068,1.309-0.324,2.582-0.788,3.822c-0.45,1.229-1.135,2.398-2.05,3.487
		c-0.916,1.101-2.2,2.097-3.846,2.987c-1.657,0.894-3.754,1.356-6.315,1.38c-1.563,0.023-3.033-0.161-4.436-0.556
		c-1.39-0.406-2.665-0.974-3.847-1.738c-1.182-0.752-2.189-1.656-3.023-2.711s-1.402-2.12-1.714-3.197
		c-0.302-1.065-0.429-2.246-0.382-3.545c0.023-0.672,0.127-1.494,0.335-2.444c0.197-0.949,0.544-1.853,1.02-2.711
		c0.474-0.856,1.088-1.691,1.843-2.479c0.764-0.787,1.749-1.68,2.977-2.676L496.344,35.665z"/>
	<path fill="#AE7B28" d="M557.442,60.781c0.405,0,0.891-0.162,1.47-0.476s1.043-0.996,1.379-2.016
		c0.337-1.03,0.546-2.248,0.613-3.649c0.059-1.402,0.105-3.209,0.129-5.422c0.023-2.201-0.082-4.136-0.337-5.78
		c-0.162-0.973-0.382-1.737-0.659-2.271c-0.29-0.545-0.673-0.996-1.17-1.367c-0.499-0.359-0.984-0.533-1.46-0.533
		c-0.382,0.012-0.8,0.174-1.264,0.452c-0.45,0.278-0.846,0.812-1.204,1.575c-0.348,0.777-0.615,1.83-0.81,3.197
		c-0.188,1.355-0.29,2.607-0.302,3.766c-0.012,1.146,0.035,2.57,0.149,4.24c0.094,1.899,0.221,3.324,0.37,4.273
		c0.162,0.95,0.406,1.75,0.753,2.398c0.337,0.638,0.731,1.077,1.182,1.309C556.734,60.699,557.117,60.803,557.442,60.781
		 M549.494,50.018c-0.045-1.448,0.081-2.931,0.372-4.46c0.3-1.529,0.787-2.896,1.46-4.113c0.683-1.204,1.54-2.166,2.583-2.896
		c1.042-0.718,2.234-1.089,3.602-1.089c1.31,0.022,2.515,0.405,3.626,1.158c1.113,0.742,1.992,1.795,2.63,3.14
		c0.649,1.343,1.111,2.652,1.391,3.938c0.29,1.275,0.429,2.688,0.429,4.217c-0.023,1.564-0.174,3-0.44,4.299
		c-0.277,1.297-0.729,2.605-1.355,3.915c-0.638,1.319-1.552,2.374-2.757,3.175c-1.193,0.811-2.444,1.204-3.729,1.204
		c-1.066,0.023-2.006-0.196-2.815-0.673c-0.811-0.475-1.577-1.182-2.271-2.119c-0.707-0.938-1.321-2.189-1.854-3.753
		C549.831,54.397,549.54,52.416,549.494,50.018z M527.576,62.471l27.283-51.956h2.409l-27.154,51.956H527.576z M527.369,34.982
		c0.403,0,0.832-0.129,1.273-0.383c0.44-0.268,0.846-0.799,1.216-1.6c0.383-0.799,0.649-1.771,0.8-2.895
		c0.162-1.137,0.244-2.896,0.256-5.271s-0.059-4.6-0.221-6.686c-0.162-1.76-0.429-3.022-0.812-3.799
		c-0.382-0.766-0.787-1.285-1.204-1.564c-0.418-0.266-0.835-0.417-1.24-0.44c-0.497,0-0.984,0.163-1.461,0.499
		c-0.474,0.324-0.902,0.881-1.272,1.656c-0.37,0.787-0.626,1.807-0.765,3.07c-0.141,1.273-0.209,2.872-0.221,4.818
		c-0.011,1.946,0.035,3.557,0.115,4.82c0.07,1.227,0.186,2.352,0.359,3.383c0.176,1.029,0.429,1.899,0.766,2.617
		c0.336,0.707,0.729,1.193,1.158,1.437C526.546,34.9,526.961,35.005,527.369,34.982z M527.369,10.548
		c0.752,0.023,1.632,0.244,2.651,0.649c1.008,0.405,1.866,1.031,2.538,1.876c0.683,0.847,1.203,1.785,1.564,2.805
		c0.358,1.02,0.646,2.107,0.867,3.254c0.209,1.16,0.337,2.55,0.36,4.194c0.021,1.646-0.163,3.44-0.546,5.41
		c-0.255,1.251-0.544,2.236-0.879,2.978c-0.35,0.729-0.788,1.46-1.346,2.166c-0.555,0.719-1.296,1.379-2.211,1.993
		c-0.916,0.601-1.971,0.915-3.176,0.915c-1.123,0.022-2.107-0.232-2.941-0.754c-0.847-0.521-1.529-1.123-2.072-1.83
		c-0.547-0.706-1.032-1.553-1.461-2.549s-0.787-2.096-1.066-3.301c-0.289-1.217-0.429-2.873-0.429-4.993s0.187-3.904,0.546-5.353
		c0.242-1.008,0.693-2.166,1.354-3.476c0.659-1.296,1.494-2.293,2.525-2.964C524.68,10.884,525.919,10.548,527.369,10.548z"/>
	<path fill="#AE7B28" d="M87.015,16.002c-0.109,1.117-0.22,2.114-0.321,2.989c-0.107,0.877-0.284,1.915-0.542,3.116
		c-0.252,1.207-0.708,2.501-1.371,3.894c-0.654,1.389-1.834,2.816-3.532,4.274s-3.521,2.599-5.467,3.423l-0.99,0.413
		c-0.092,0.044-0.182,0.058-0.258,0.035c-0.078-0.022-0.119-0.049-0.119-0.071c0-0.026,0-0.066,0-0.123
		c0-0.059,0.062-0.125,0.182-0.205l0.963-0.607c1.981-1.259,3.688-2.775,5.116-4.554c1.433-1.778,2.383-3.671,2.862-5.675
		c0.474-2.01,0.76-3.783,0.854-5.336c0.098-1.551,0.143-2.535,0.137-2.956c-0.004-0.417-0.008-0.835-0.016-1.237l-0.039-1.056
		l-0.145-1.13c0.023-0.015,0.051-0.031,0.076-0.05l0.323,0.089l3.056,0.74c0.121,0.035,0.208,0.076,0.267,0.121
		c0.057,0.039,0.084,0.092,0.08,0.154c-0.004,0.058-0.072,0.142-0.19,0.244l-0.741,0.652c0.191,1.543,0.403,2.987,0.644,4.336
		c0.237,1.353,0.722,2.838,1.45,4.455c0.726,1.623,1.626,3.18,2.708,4.675c1.078,1.489,2.143,2.66,3.201,3.507
		c1.055,0.843,1.845,1.384,2.365,1.613l1.014,0.471c0.111,0.059,0.168,0.143,0.168,0.244c-0.008,0.142-0.125,0.209-0.339,0.209
		h-0.897c-0.347,0-0.733,0.07-1.152,0.217c-0.427,0.142-0.736,0.283-0.926,0.42l-0.608,0.432c-0.137,0.092-0.227,0.146-0.262,0.158
		c-0.034,0.014-0.081-0.018-0.142-0.096l-0.64-0.688c-1.444-1.552-2.722-3.423-3.835-5.618c-1.113-2.194-1.778-4.119-1.996-5.772
		L87.015,16.002z"/>
	<path fill="#AE7B28" d="M114.638,22.33l-0.538-0.584c-0.084-0.085-0.125-0.161-0.115-0.218c0-0.079,0.076-0.12,0.22-0.12
		c0.312,0.018,0.89,0.208,1.722,0.568c0.839,0.359,1.438,0.802,1.806,1.334c0.368,0.536,0.554,1.028,0.554,1.49
		c-0.01,0.474-0.17,0.877-0.474,1.205c-0.307,0.334-0.671,0.493-1.088,0.483c-0.437,0-0.749-0.142-0.92-0.43
		c-0.176-0.284-0.268-0.607-0.285-0.962l-0.027-0.586C115.429,23.628,115.147,22.902,114.638,22.33 M121.688,16.939h-6.392
		c-0.216,0.424-0.561,1.09-1.037,2.004c-0.479,0.908-0.803,1.508-0.975,1.805l-0.56,0.896l-0.491,0.806
		c-0.1,0.147-0.191,0.21-0.29,0.196c-0.043,0-0.07-0.01-0.086-0.027c-0.02-0.018-0.031-0.044-0.041-0.07
		c-0.01-0.03,0.018-0.128,0.076-0.292l0.341-0.977c0.221-0.651,0.363-1.064,0.419-1.241c0.055-0.178,0.215-0.723,0.476-1.631
		c0.258-0.909,0.439-1.575,0.547-2.001l0.479-2.182c0.198-0.855,0.313-1.4,0.349-1.635l0.209-1.393
		c0.035-0.275,0.066-0.422,0.094-0.435c0.026-0.014,0.101,0.004,0.229,0.048l2.753,0.972c0.191,0.08,0.289,0.169,0.293,0.267
		c0.004,0.102-0.092,0.198-0.293,0.292l-0.62,0.302c-0.198,0.447-0.341,0.784-0.429,1.01l-0.612,1.481
		c-0.164,0.382-0.333,0.745-0.507,1.091h5.755l0.457-0.646c0.155-0.227,0.257-0.338,0.304-0.334c0.047,0.006,0.18,0.068,0.397,0.191
		l1.872,1.126c0.074,0.053,0.129,0.106,0.16,0.16c0.031,0.049,0.047,0.093,0.053,0.12c0.004,0.031,0,0.062-0.018,0.092
		c-0.02,0.031-0.086,0.094-0.195,0.187l-0.573,0.483c-0.008,0.63-0.012,1.109-0.008,1.428c0.004,0.319,0.008,0.537,0.008,0.652
		c-0.008,0.957-0.039,2.186-0.084,3.676c-0.049,1.489-0.107,2.811-0.17,3.973c-0.065,1.162-0.206,2.24-0.429,3.236
		c-0.222,0.994-0.599,1.744-1.135,2.24c-0.538,0.496-1.225,0.873-2.055,1.131c-0.832,0.253-1.381,0.371-1.647,0.354
		c-0.072,0-0.119-0.004-0.146-0.021c-0.023-0.018-0.045-0.049-0.062-0.093c-0.019-0.045-0.038-0.169-0.069-0.368
		c-0.031-0.204-0.135-0.51-0.303-0.908c-0.17-0.404-0.483-0.725-0.941-0.959l-1.014-0.506c-0.137-0.062-0.199-0.142-0.184-0.248
		c0.01-0.111,0.121-0.15,0.327-0.115l1.322,0.262c0.608,0.12,1.127,0.178,1.562,0.178c0.782,0.009,1.336-0.195,1.663-0.617
		c0.327-0.416,0.554-0.988,0.683-1.711c0.125-0.723,0.218-1.548,0.28-2.471c0.057-0.922,0.105-1.99,0.141-3.201
		c0.035-1.215,0.062-2.42,0.086-3.626c0.021-1.202,0.031-1.858,0.031-1.974V16.939z M109.308,22.202v-5.521h-4.531v5.521H109.308z
		 M109.308,29.087v-6.186h-4.531v6.186H109.308z M109.308,29.789h-4.531v2.531c0,0.182-0.086,0.381-0.254,0.599
		c-0.169,0.218-0.472,0.329-0.896,0.333c-0.429,0.004-0.696-0.041-0.794-0.124c-0.097-0.089-0.181-0.2-0.239-0.337l0.129-3.225
		V19.328l-0.115-4.27c0.049-0.026,0.104-0.044,0.146-0.049c0.048-0.004,0.222,0.066,0.515,0.203l1.509,0.754h0.673
		c0.106-0.717,0.19-1.334,0.251-1.84c0.068-0.504,0.129-1.037,0.191-1.592l0.129-1.36l0.041-0.511
		c0.024-0.018,0.052-0.026,0.079-0.035c0.021-0.009,0.141,0.018,0.352,0.089l2.323,0.856c0.199,0.079,0.324,0.141,0.371,0.19
		c0.045,0.049,0.076,0.11,0.086,0.187c0.008,0.08-0.129,0.164-0.406,0.261l-0.585,0.209c-0.261,0.465-0.448,0.812-0.558,1.037
		l-0.74,1.494l-0.558,1.015h2.636l0.663-0.921c0.07-0.106,0.132-0.159,0.194-0.165c0.061-0.004,0.18,0.049,0.363,0.165l1.649,1.051
		c0.104,0.07,0.171,0.124,0.202,0.167c0.027,0.045,0.047,0.09,0.051,0.129c0.004,0.045-0.045,0.117-0.148,0.209l-0.57,0.496v12.389
		l0.103,1.979c-0.085,0.293-0.308,0.515-0.656,0.67c-0.35,0.15-0.685,0.221-0.993,0.213c-0.276,0-0.448-0.049-0.515-0.152
		c-0.062-0.096-0.097-0.252-0.097-0.461V29.789z"/>
	<path fill="#AE7B28" d="M146.616,22.565l1.599-1.897c0.176-0.209,0.285-0.314,0.34-0.324c0.051-0.008,0.167,0.062,0.349,0.209
		l2.571,2.208c0.164,0.146,0.25,0.257,0.25,0.336c-0.01,0.111-0.133,0.17-0.379,0.17h-23.136c-0.129-0.027-0.221-0.062-0.279-0.116
		c-0.058-0.054-0.085-0.164-0.085-0.332c0-0.169,0.106-0.253,0.323-0.253H146.616z"/>
	<path fill="#AE7B28" d="M165.27,32.763v-7.25h-6.586c-0.182,0-0.278-0.11-0.292-0.336c-0.014-0.227,0.086-0.338,0.292-0.338h6.586
		v-6.057h-5.354c-0.248,0.581-0.46,1.055-0.628,1.424c-0.17,0.367-0.556,1.135-1.154,2.301c-0.603,1.162-0.988,1.885-1.158,2.154
		c-0.168,0.276-0.46,0.732-0.877,1.371l-0.558,0.855c-0.055,0.079-0.129,0.12-0.236,0.124c-0.101,0.005-0.149-0.031-0.146-0.114
		c0.004-0.086,0.014-0.146,0.031-0.188l0.456-1.068c0.229-0.562,0.528-1.308,0.887-2.238c0.358-0.932,0.665-1.934,0.918-3.007
		c0.248-1.077,0.483-2.129,0.702-3.157c0.215-1.033,0.358-1.761,0.429-2.182l0.182-1.25l0.041-0.533
		c0.031-0.025,0.062-0.035,0.088-0.029c0.025,0.004,0.194,0.07,0.505,0.198l2.429,1.069c0.156,0.075,0.246,0.129,0.268,0.158
		c0.021,0.031,0.031,0.059,0.027,0.08c-0.006,0.023-0.014,0.045-0.027,0.072c-0.014,0.025-0.102,0.084-0.268,0.182l-0.597,0.35
		c-0.239,0.674-0.425,1.18-0.559,1.508l-0.391,0.962l-0.104,0.271h5.093v-3.479l-0.129-3.601c0.088-0.023,0.352,0.014,0.792,0.119
		l2.338,0.572c0.173,0.048,0.294,0.102,0.349,0.146c0.062,0.048,0.1,0.106,0.109,0.179c0.008,0.07-0.086,0.176-0.277,0.323
		l-0.606,0.482v5.259h5.22l0.519-0.688c0.407-0.535,0.64-0.82,0.682-0.847c0.049-0.022,0.262,0.111,0.644,0.403l1.677,1.312
		c0.154,0.13,0.234,0.24,0.234,0.324c-0.008,0.124-0.137,0.182-0.39,0.182h-1.011h-7.574v6.057h4.26l0.96-1.17
		c0.14-0.164,0.243-0.248,0.315-0.254c0.066-0.004,0.211,0.08,0.437,0.254l1.782,1.387c0.113,0.098,0.184,0.17,0.205,0.218
		c0.027,0.049,0.045,0.098,0.049,0.156c0.004,0.057-0.141,0.083-0.434,0.083h-7.574v7.25h6.378l1.076-1.379
		c0.124-0.154,0.218-0.23,0.28-0.227c0.066,0.004,0.207,0.08,0.419,0.227l2.015,1.494c0.167,0.129,0.247,0.24,0.247,0.324
		c-0.01,0.062-0.045,0.119-0.102,0.178c-0.062,0.057-0.134,0.084-0.208,0.084h-2.651h-20.108c-0.227,0-0.338-0.115-0.338-0.351
		s0.111-0.351,0.338-0.351H165.27z"/>
	<path fill="#AE7B28" d="M195.77,17.342c-0.102-0.103-0.144-0.187-0.133-0.253c0.014-0.066,0.062-0.102,0.148-0.111
		c0.078,0,0.362,0.066,0.858,0.204c0.491,0.133,0.893,0.284,1.202,0.448c0.307,0.163,0.563,0.398,0.771,0.704
		c0.211,0.312,0.312,0.64,0.312,0.993c-0.01,0.391-0.128,0.706-0.368,0.945s-0.519,0.359-0.838,0.363
		c-0.32,0.004-0.571-0.075-0.755-0.239c-0.217-0.173-0.341-0.363-0.372-0.567c-0.025-0.205-0.049-0.541-0.061-1.021
		c-0.016-0.475-0.174-0.868-0.476-1.179L195.77,17.342z M187.773,20.371c-0.045-0.062-0.062-0.121-0.055-0.17
		c0.01-0.053,0.066-0.088,0.168-0.105c0.037,0,0.214,0.059,0.534,0.168c0.319,0.115,0.717,0.359,1.196,0.741
		c0.475,0.382,0.694,0.78,0.659,1.197c-0.035,0.416-0.171,0.71-0.421,0.878c-0.248,0.169-0.478,0.249-0.694,0.239
		c-0.538,0-0.83-0.284-0.883-0.847c-0.01-0.014-0.01-0.195-0.006-0.537c0-0.341-0.031-0.604-0.098-0.78
		c-0.07-0.177-0.145-0.341-0.22-0.487L187.773,20.371z M187.433,19.381v12.132l0.104,2.133c-0.104,0.252-0.333,0.443-0.688,0.572
		c-0.355,0.127-0.673,0.186-0.948,0.168c-0.253-0.01-0.417-0.053-0.497-0.137c-0.076-0.08-0.135-0.187-0.168-0.32l0.146-2.803
		V20.291l-0.107-2.559c0.045-0.045,0.076-0.066,0.098-0.071c0.021-0.004,0.135,0.018,0.334,0.071l1.984,0.559
		c0.302,0.089,0.472,0.16,0.493,0.213c0.025,0.059,0.045,0.094,0.049,0.111s-0.012,0.062-0.049,0.123
		c-0.031,0.067-0.07,0.116-0.115,0.151L187.433,19.381z M182.993,20.734c0-0.027-0.004-0.053-0.01-0.08
		c-0.004-0.026,0-0.053,0.01-0.089c0.007-0.035,0.038-0.053,0.097-0.057c0.055-0.005,0.115,0.035,0.188,0.119
		c0.191,0.288,0.421,0.784,0.694,1.49c0.272,0.704,0.405,1.308,0.396,1.813c-0.027,0.664-0.209,1.135-0.55,1.414
		c-0.345,0.275-0.7,0.416-1.068,0.422c-0.368,0.004-0.661-0.107-0.873-0.337c-0.217-0.231-0.334-0.51-0.346-0.843
		c-0.016-0.338,0.154-0.696,0.499-1.088l0.48-0.49c0.345-0.418,0.514-0.901,0.504-1.446L182.993,20.734z M200.178,15.679v-2.975
		h-3.25c-0.074,0.07-0.16,0.137-0.243,0.194v2.78H200.178z M194.733,15.679v-2.975h-3.271l-0.094,0.053v2.922H194.733z
		 M189.381,15.679v-2.975h-3.312v2.975H189.381z M200.178,16.38h-14.109v0.376c0,0.124-0.053,0.239-0.164,0.351
		c-0.105,0.115-0.3,0.208-0.585,0.279c-0.28,0.076-0.536,0.102-0.771,0.084c-0.248-0.004-0.422-0.053-0.505-0.133
		c-0.088-0.084-0.146-0.191-0.182-0.318l0.115-1.65v-2.652l-0.115-1.711c0.043-0.053,0.074-0.084,0.098-0.094
		c0.021-0.008,0.149,0.045,0.38,0.156l1.886,0.908h13.818l0.587-0.883c0.129-0.207,0.217-0.313,0.268-0.318
		c0.047-0.004,0.189,0.066,0.421,0.217l1.419,0.945c0.217,0.16,0.35,0.27,0.406,0.345c0.059,0.076,0.086,0.143,0.082,0.2
		c-0.006,0.062-0.098,0.178-0.281,0.342l-0.47,0.426v1.508l0.107,1.729c-0.07,0.208-0.174,0.367-0.303,0.479
		c-0.128,0.115-0.341,0.209-0.644,0.289c-0.296,0.075-0.578,0.109-0.852,0.102c-0.405,0-0.606-0.173-0.606-0.52V16.38z
		 M193.359,31.646h3.152v-3.117h-3.152V31.646z M196.511,25.048h-3.152v2.768h3.152V25.048z M193.359,21.683v2.66h3.152v-2.66
		H193.359z M201.124,20.991l0.468-0.647c0.277-0.39,0.441-0.598,0.48-0.625c0.045-0.021,0.177,0.049,0.403,0.222l1.327,1.064
		c0.225,0.19,0.344,0.327,0.359,0.403c0.008,0.08,0.016,0.124,0.016,0.128c-0.025,0.09-0.141,0.134-0.35,0.134h-0.873v0.014h-3.987
		c-0.181,0.209-0.327,0.362-0.442,0.466v2.194h1.951l0.453-0.621c0.233-0.332,0.37-0.51,0.411-0.532
		c0.041-0.026,0.182,0.059,0.435,0.257l1.271,1.043c0.148,0.129,0.241,0.217,0.28,0.27c0.039,0.054,0.062,0.094,0.066,0.125
		s-0.023,0.066-0.07,0.102c-0.054,0.041-0.12,0.062-0.194,0.062h-2.199h-2.404v2.768h2.146l0.546-0.666
		c0.217-0.258,0.349-0.391,0.401-0.395c0.049-0.004,0.174,0.07,0.363,0.226l1.146,0.962c0.206,0.183,0.288,0.324,0.241,0.432
		c-0.047,0.102-0.175,0.154-0.374,0.154h-4.471v3.117h2.913l0.544-0.688c0.245-0.307,0.392-0.457,0.448-0.461
		c0.059-0.004,0.16,0.049,0.319,0.16l1.428,1.21c0.156,0.138,0.245,0.231,0.257,0.284c0.02,0.053,0.023,0.102,0.016,0.15
		c-0.012,0.045-0.138,0.07-0.386,0.07h-10.705v1.22c0,0.098-0.084,0.235-0.244,0.417c-0.16,0.183-0.47,0.283-0.936,0.297
		c-0.46,0.018-0.737-0.008-0.815-0.084c-0.086-0.071-0.147-0.169-0.19-0.293l0.132-2.754v-7.754
		c-0.452,0.66-0.926,1.308-1.423,1.941c-0.501,0.639-0.828,1.051-0.994,1.242l-0.509,0.572c-0.076,0.084-0.143,0.133-0.201,0.137
		c-0.057,0.004-0.096-0.004-0.113-0.025c-0.023-0.023-0.041-0.062-0.051-0.125c-0.008-0.062,0.037-0.165,0.135-0.311l0.364-0.611
		c0.283-0.484,0.571-0.994,0.864-1.525c0.286-0.533,0.751-1.544,1.382-3.029c0.632-1.486,1.072-2.678,1.322-3.578l0.209-0.767
		c0.053-0.191,0.097-0.288,0.138-0.294c0.039-0.004,0.119,0.023,0.238,0.071l1.798,0.888c0.3,0.154,0.483,0.266,0.544,0.337
		c0.056,0.066,0.093,0.132,0.093,0.194c0.006,0.059-0.097,0.129-0.313,0.209l-0.519,0.195c-0.427,0.629-0.796,1.215-1.105,1.752
		l0.399,0.273l0.571,0.022H201.124z"/>
	<path fill="#AE7B28" d="M217.958,25.81c-0.034-0.049-0.03-0.105,0.01-0.168c0.039-0.057,0.102-0.094,0.186-0.102
		c0.053,0,0.139,0.021,0.262,0.07c0.119,0.049,0.319,0.107,0.591,0.174c0.272,0.07,0.787,0.266,1.548,0.585
		c0.756,0.323,1.131,0.803,1.121,1.437c-0.01,0.639-0.154,1.092-0.436,1.365c-0.28,0.271-0.602,0.4-0.967,0.381
		c-0.442-0.008-0.74-0.123-0.891-0.35s-0.24-0.47-0.268-0.74l-0.077-0.843c-0.086-0.554-0.299-1.024-0.636-1.405L217.958,25.81z
		 M225.949,26.867c-0.035-0.045-0.049-0.104-0.039-0.178c0.008-0.075,0.057-0.12,0.146-0.138c0.021,0,0.074,0.014,0.155,0.04
		l0.207,0.066c0.076,0.035,0.563,0.271,1.458,0.705c0.897,0.439,1.594,0.98,2.086,1.627c0.496,0.643,0.729,1.229,0.71,1.761
		c-0.023,0.528-0.179,0.917-0.468,1.166c-0.292,0.253-0.589,0.372-0.889,0.364c-0.41,0-0.72-0.125-0.932-0.382
		c-0.209-0.257-0.369-0.62-0.467-1.1c-0.102-0.475-0.222-0.988-0.372-1.543c-0.146-0.555-0.577-1.246-1.299-2.067L225.949,26.867z
		 M211.49,26.941c0.008-0.172,0.049-0.262,0.119-0.27c0.066-0.01,0.137,0.035,0.209,0.129c0.031,0.07,0.08,0.243,0.135,0.527
		c0.055,0.279,0.112,0.687,0.167,1.219c0.057,0.533,0.084,0.873,0.084,1.02c-0.01,0.098-0.021,0.289-0.049,0.572
		c-0.027,0.284-0.08,0.568-0.163,0.852c-0.082,0.279-0.281,0.635-0.601,1.064c-0.314,0.43-0.761,0.639-1.334,0.625
		c-0.577-0.014-0.953-0.178-1.127-0.496c-0.172-0.315-0.257-0.582-0.257-0.799c0-0.43,0.187-0.803,0.561-1.117l0.753-0.505
		c0.728-0.511,1.158-1.092,1.291-1.734C211.41,27.38,211.48,27.021,211.49,26.941z M216.335,26.981l0.016,3.716
		c0,0.311,0.05,0.559,0.153,0.745c0.107,0.187,0.616,0.298,1.534,0.333l2.102,0.093c0.551,0,1.18-0.065,1.899-0.194
		c0.718-0.134,1.213-0.347,1.489-0.645c0.27-0.301,0.679-1.17,1.213-2.607l0.129-0.35c0.027-0.07,0.078-0.102,0.156-0.102
		c0.12,0.01,0.187,0.058,0.194,0.155l-0.094,0.612L225,29.552c-0.043,0.254-0.057,0.443-0.047,0.572
		c0,0.254,0.057,0.484,0.175,0.701l0.33,0.497c0.084,0.137,0.146,0.261,0.185,0.376c0.039,0.111,0.062,0.218,0.066,0.324
		c0.004,0.102-0.012,0.209-0.043,0.311c-0.142,0.398-0.493,0.731-1.057,0.992c-0.562,0.267-1.435,0.436-2.624,0.516
		c-1.184,0.074-2.102,0.115-2.753,0.115c-2.448,0.008-3.907-0.24-4.377-0.746c-0.466-0.504-0.699-1.006-0.699-1.502v-4.115
		l-0.107-1.912c0.045-0.043,0.084-0.074,0.119-0.088c0.034-0.018,0.462,0.053,1.286,0.217l1.389,0.289
		c0.14,0.035,0.229,0.066,0.274,0.102s0.066,0.07,0.072,0.107c0.004,0.031-0.016,0.084-0.059,0.146
		c-0.045,0.066-0.117,0.124-0.209,0.178L216.335,26.981z M226.247,22.33v-2.403h-5.569v2.403H226.247z M225.301,16.277v-1.959
		h-4.624v1.959H225.301z M218.468,16.277v-1.959h-4.574v1.959H218.468z M218.468,22.33v-2.403h-5.572v2.403H218.468z
		 M218.468,16.992h-4.574v0.235c0,0.51-0.437,0.788-1.314,0.829c-0.222,0.018-0.421-0.018-0.588-0.104
		c-0.17-0.087-0.289-0.194-0.355-0.322l0.102-1.468v-1.703l-0.078-1.911c0.051-0.062,0.098-0.094,0.133-0.098
		c0.029-0.004,0.123,0.027,0.269,0.098l1.987,1.037h4.42v-1.01l-0.105-1.756c0.043-0.031,0.084-0.054,0.115-0.062
		c0.037-0.009,0.323,0.044,0.859,0.154l1.597,0.338c0.271,0.062,0.431,0.115,0.483,0.164c0.049,0.049,0.076,0.107,0.072,0.174
		c-0.006,0.07-0.09,0.158-0.254,0.274l-0.559,0.376v1.348h4.432l0.557-0.815c0.137-0.208,0.223-0.315,0.252-0.319
		c0.031-0.004,0.191,0.084,0.489,0.266l1.517,0.949c0.189,0.119,0.309,0.209,0.359,0.262c0.047,0.049,0.07,0.094,0.066,0.125
		c-0.004,0.026-0.076,0.092-0.205,0.199l-0.7,0.531v0.99l0.078,0.97c-0.035,0.169-0.098,0.294-0.18,0.377
		c-0.089,0.089-0.284,0.178-0.597,0.267c-0.304,0.094-0.584,0.133-0.836,0.125c-0.407-0.01-0.608-0.129-0.608-0.365v-0.154h-4.624
		v2.221h5.365l0.505-0.688c0.059-0.088,0.107-0.154,0.138-0.208c0.025-0.053,0.07-0.079,0.127-0.084
		c0.059-0.005,0.223,0.075,0.503,0.239l1.543,0.962c0.253,0.165,0.396,0.267,0.427,0.306c0.025,0.041,0.039,0.08,0.035,0.125
		c-0.004,0.04-0.098,0.129-0.281,0.258l-0.53,0.39v1.716l0.105,1.118c-0.08,0.292-0.292,0.514-0.644,0.659
		c-0.351,0.146-0.682,0.218-0.992,0.209c-0.279,0-0.474-0.053-0.587-0.164c-0.113-0.105-0.168-0.302-0.168-0.59v-0.416h-5.546v0.611
		l0.075,0.908c-0.065,0.245-0.261,0.427-0.577,0.547c-0.315,0.123-0.639,0.177-0.967,0.168c-0.078,0-0.206-0.021-0.39-0.062
		c-0.182-0.045-0.327-0.172-0.429-0.39l0.078-1.251v-0.531h-5.586l0.014,0.611c0,0.009-0.004,0.054-0.01,0.138
		c-0.004,0.08-0.049,0.229-0.139,0.438c-0.082,0.213-0.464,0.318-1.139,0.318c-0.397,0.01-0.644-0.033-0.727-0.136
		c-0.088-0.098-0.146-0.218-0.168-0.354l0.102-1.469l-0.014-3.016l-0.102-1.325c0.031-0.049,0.07-0.089,0.115-0.114l0.646,0.336
		l1.434,0.74h5.572V16.992z"/>
	<path fill="#AE7B28" d="M252.06,25.944v-2.768h-4.584v2.768H252.06z M252.06,22.472V19.98h-4.584v2.492H252.06z M245.19,22.472
		V19.98h-4.523v2.492H245.19z M245.19,25.944v-2.768h-4.523v2.768H245.19z M245.19,16.184v-2.31
		c-2.555,0.11-5.278,0.169-8.161,0.169h-1.088c-0.139,0-0.207-0.059-0.197-0.169c0-0.111,0.08-0.178,0.236-0.195l1.521-0.115
		c6.543-0.506,11.183-1.237,13.908-2.195l0.925-0.328c0.085-0.025,0.144-0.043,0.179-0.061c0.035-0.02,0.062-0.031,0.082-0.037
		c0.016-0.004,0.098,0.062,0.242,0.204l1.979,2.001c0.035,0.043,0.053,0.088,0.053,0.141c-0.008,0.106-0.066,0.155-0.172,0.155
		l-1.388,0.067l-2.728,0.154l-2.536,0.143c-0.031,0.164-0.074,0.293-0.129,0.385c-0.053,0.09-0.199,0.174-0.439,0.254v1.737h6.779
		l1.053-1.206l0.18-0.221c0.037,0,0.104,0.039,0.195,0.119l1.887,1.584c0.043,0.043,0.113,0.123,0.221,0.247
		c0.103,0.12-0.025,0.183-0.391,0.183h-9.924v2.363h4.402l0.587-0.834c0.074-0.103,0.137-0.169,0.186-0.199
		c0.049-0.031,0.154,0,0.319,0.097l2.154,1.339c0.045,0.031,0.076,0.066,0.098,0.098c0.023,0.031,0.031,0.062,0.027,0.103
		s-0.066,0.106-0.19,0.204l-0.62,0.466v4.651l0.074,1.414c-0.031,0.129-0.133,0.293-0.297,0.483
		c-0.164,0.187-0.546,0.288-1.135,0.302c-0.595,0.014-0.912-0.018-0.959-0.088c-0.039-0.076-0.062-0.191-0.062-0.348v-0.297h-4.584
		v2.519h4.896l1.002-1.157c0.074-0.094,0.137-0.141,0.181-0.141l0.154,0.141l1.886,1.535c0.076,0.07,0.114,0.123,0.114,0.168
		c-0.008,0.098-0.101,0.142-0.272,0.142h-1.845v0.014h-6.116v2.847h6.881l1.238-1.388c0.068-0.081,0.106-0.12,0.11-0.124
		c0.004-0.006,0.059,0.035,0.16,0.124l2.078,1.751c0.072,0.071,0.104,0.133,0.104,0.195c-0.018,0.088-0.107,0.129-0.271,0.129
		h-1.117v0.014H234.72c-0.209,0-0.328-0.117-0.359-0.351c-0.03-0.235,0.088-0.351,0.359-0.351h10.47v-2.847h-8.187
		c-0.217,0-0.342-0.115-0.381-0.351c-0.041-0.23,0.088-0.351,0.381-0.351h8.187v-2.519h-4.523v0.297
		c0,0.297-0.276,0.498-0.827,0.599c-0.549,0.103-0.889,0.151-1.033,0.143c-0.144-0.009-0.247-0.04-0.3-0.089
		c-0.059-0.054-0.09-0.164-0.098-0.336l0.102-2.498v-4.402l-0.053-2.168c0.025-0.018,0.053-0.031,0.072-0.041
		c0.021-0.008,0.251,0.099,0.683,0.324l1.454,0.781h4.523V16.89h-10.509c-0.211,0-0.33-0.12-0.36-0.352
		c-0.031-0.234,0.087-0.354,0.36-0.354H245.19z"/>
	<path fill="#AE7B28" d="M261.504,19.408c-0.158-0.018-0.266-0.053-0.328-0.102c-0.056-0.053-0.087-0.17-0.081-0.346
		c0.004-0.178,0.112-0.266,0.331-0.266h8.939c0.009-0.391,0.017-0.684,0.024-0.883l0.037-0.9c0.018-0.457,0.025-1.059,0.021-1.805
		c-0.004-0.745-0.014-1.295-0.021-1.649l-0.062-1.325l-0.066-1.064c0.061-0.066,0.142-0.115,0.247-0.143l0.491,0.09l2.418,0.443
		c0.3,0.062,0.491,0.119,0.563,0.176c0.076,0.054,0.111,0.103,0.107,0.134c-0.004,0.035-0.035,0.094-0.094,0.169
		c-0.055,0.08-0.125,0.146-0.199,0.195l-0.628,0.402c-0.046,1.605-0.087,2.781-0.112,3.535c-0.027,0.754-0.041,1.201-0.041,1.338
		l-0.025,1.287h7.04l0.961-1.273c0.227-0.297,0.378-0.443,0.452-0.447c0.082-0.004,0.268,0.102,0.56,0.319l1.913,1.454
		c0.241,0.19,0.362,0.342,0.362,0.451c-0.008,0.139-0.191,0.209-0.546,0.209h-10.018c0.201,0.848,0.488,1.889,0.866,3.127
		c0.376,1.231,1.405,2.882,3.09,4.938c1.687,2.062,3.782,3.485,6.296,4.261l0.662,0.209c0.217,0.071,0.324,0.16,0.324,0.275
		c-0.004,0.039-0.031,0.084-0.072,0.129c-0.035,0.044-0.084,0.07-0.133,0.079l-0.458,0.075c-0.718,0.129-1.201,0.289-1.454,0.475
		c-0.252,0.187-0.509,0.443-0.78,0.768c-0.265,0.323-0.452,0.492-0.55,0.506c-0.102,0.013-0.278-0.103-0.54-0.342l-1.078-0.768
		c-0.154-0.106-0.522-0.408-1.104-0.904s-1.096-0.984-1.538-1.464c-0.448-0.474-0.992-1.286-1.646-2.435
		c-0.647-1.148-1.1-2.186-1.357-3.117c-0.257-0.931-0.456-1.777-0.603-2.54c-0.147-0.763-0.261-1.499-0.337-2.208l-0.135-1.064
		h-0.179c-0.035,0.475-0.076,1.021-0.129,1.623c-0.055,0.607-0.191,1.517-0.417,2.723c-0.227,1.206-0.626,2.346-1.207,3.41
		s-1.458,2.07-2.638,3.016c-1.18,0.943-2.301,1.706-3.365,2.291c-1.064,0.586-2.125,1.078-3.184,1.473l-0.751,0.288
		c-0.15,0.058-0.251,0.083-0.304,0.075c-0.059-0.008-0.094-0.021-0.113-0.044c-0.016-0.022-0.031-0.062-0.035-0.115
		c-0.004-0.058,0.062-0.125,0.191-0.204l0.584-0.337l1.166-0.661c0.671-0.39,1.43-0.931,2.285-1.622
		c0.851-0.696,1.646-1.539,2.381-2.527c0.736-0.993,1.353-2.23,1.854-3.712c0.496-1.48,0.804-2.958,0.913-4.43l0.107-1.246h-8.756
		H261.504z"/>
	<path fill="#AE7B28" d="M299.125,11.525l-0.39-0.338c-0.086-0.07-0.129-0.15-0.125-0.234c0.004-0.09,0.09-0.133,0.253-0.143
		c0.53,0,1.25,0.164,2.158,0.493c0.911,0.327,1.363,0.939,1.363,1.831c-0.01,0.278-0.117,0.594-0.316,0.953
		c-0.202,0.359-0.588,0.536-1.153,0.528c-0.238,0-0.456-0.054-0.647-0.165c-0.189-0.105-0.344-0.262-0.46-0.466
		c-0.119-0.204-0.178-0.479-0.178-0.823v-0.715C299.59,12.091,299.417,11.782,299.125,11.525 M288.394,17.24l-0.311-0.519
		c-0.035-0.054-0.053-0.12-0.057-0.194c-0.006-0.08,0.047-0.121,0.16-0.121c0.137,0.01,0.483,0.155,1.027,0.436
		c0.544,0.283,0.98,0.656,1.305,1.117c0.323,0.466,0.483,0.904,0.474,1.32c-0.018,0.449-0.166,0.812-0.435,1.082
		c-0.275,0.275-0.573,0.408-0.892,0.4c-0.399,0-0.685-0.139-0.855-0.404c-0.172-0.271-0.266-0.555-0.275-0.855
		c-0.01-0.124,0.01-0.334,0.049-0.634c0.035-0.298,0.055-0.577,0.049-0.839C288.627,17.772,288.549,17.505,288.394,17.24z
		 M309.142,15.355v0.014h-14.876c-0.02,1.037-0.031,2.102-0.037,3.188c-0.01,1.088-0.031,2.16-0.062,3.215s-0.102,2.129-0.213,3.215
		c-0.11,1.087-0.31,2.04-0.589,2.852c-0.284,0.815-0.705,1.658-1.263,2.536c-0.554,0.874-1.54,1.907-2.94,3.104l-0.713,0.612
		c-0.082,0.066-0.156,0.106-0.236,0.106c-0.08,0.005-0.125-0.004-0.139-0.022c-0.012-0.022-0.021-0.049-0.025-0.08
		c-0.006-0.03-0.006-0.062,0-0.098c0.004-0.035,0.053-0.098,0.139-0.195l0.687-0.793c0.859-0.984,1.497-2.018,1.918-3.09
		c0.417-1.074,0.706-2.014,0.862-2.825c0.159-0.812,0.257-1.721,0.3-2.736l0.055-1.192c-0.534,0.373-1.025,0.71-1.481,1.012
		c-0.461,0.305-0.745,0.496-0.86,0.571l-1.245,0.909c-0.234,0.173-0.379,0.243-0.432,0.208l-0.076-0.284l-0.522-1.635l-0.167-0.445
		v-0.025c0-0.008,0-0.027,0-0.053c0-0.027,0.088-0.049,0.261-0.075l1.34-0.183c1.002-0.133,2.074-0.311,3.205-0.532
		c-0.01-0.669-0.01-1.446-0.004-2.327c0.004-0.883,0.004-1.509,0-1.876c-0.006-0.368-0.006-0.732,0-1.091
		c0.004-0.359-0.006-0.67-0.018-0.932l-0.133-1.831l-0.104-0.714c0.037-0.062,0.094-0.105,0.174-0.143
		c0.084-0.035,0.331,0.045,0.749,0.236l1.493,0.713h13.351l0.937-1.259c0.142-0.19,0.249-0.288,0.319-0.292
		c0.076-0.006,0.209,0.066,0.41,0.212l1.91,1.454c0.146,0.12,0.223,0.249,0.227,0.377c0.004,0.129-0.121,0.195-0.369,0.195H309.142z
		 M300.59,24.955c0.01-0.119,0.02-0.248,0.027-0.377c0.01-0.128,0.023-0.488,0.041-1.078c0.018-0.588,0.031-1.143,0.045-1.662
		c0.012-0.518,0.018-0.896,0.018-1.131v-0.283h-2.391c-0.173,0.221-0.56,0.75-1.161,1.574c-0.603,0.828-1.176,1.533-1.722,2.115
		l-0.585,0.62c-0.084,0.089-0.164,0.129-0.234,0.125c-0.066-0.005-0.107-0.019-0.117-0.04c-0.008-0.022-0.012-0.049-0.016-0.089
		s0.021-0.11,0.084-0.218l0.505-0.869c0.363-0.629,0.804-1.592,1.312-2.881c0.509-1.291,0.887-2.422,1.131-3.393l0.271-1.092
		l0.129-0.584c0.018-0.062,0.039-0.099,0.066-0.115l0.296,0.115l2.369,0.921c0.154,0.072,0.23,0.143,0.227,0.222
		c-0.006,0.08-0.088,0.156-0.254,0.236l-0.481,0.222c-0.72,1.272-1.189,2.075-1.415,2.411h7.264l0.983-1.285
		c0.079-0.103,0.155-0.16,0.229-0.173c0.072-0.014,0.199,0.044,0.382,0.173l1.856,1.418c0.201,0.156,0.304,0.271,0.304,0.352
		c-0.01,0.129-0.12,0.194-0.329,0.194h-1.817v0.04h-4c-0.146,0.187-0.328,0.359-0.532,0.506c-0.027,0.447-0.059,0.971-0.084,1.564
		c-0.031,0.596-0.057,1.047-0.08,1.357c-0.021,0.311-0.049,0.678-0.084,1.104h4.78l0.935-1.104c0.165-0.2,0.28-0.297,0.347-0.293
		c0.062,0.004,0.227,0.102,0.483,0.293l1.653,1.271c0.094,0.09,0.156,0.156,0.184,0.205c0.021,0.044,0.039,0.089,0.043,0.129
		c0.004,0.039-0.031,0.08-0.105,0.129c-0.072,0.047-0.18,0.07-0.316,0.07h-1.587h-6.246c0.119,0.227,0.247,0.439,0.376,0.639
		l0.739,1.192c0.744,1.152,1.7,2.142,2.862,2.972c1.155,0.824,2.491,1.374,3.998,1.641l0.431,0.078
		c0.154,0.035,0.23,0.104,0.23,0.209c-0.01,0.044-0.035,0.089-0.076,0.138c-0.045,0.044-0.098,0.075-0.154,0.085l-0.431,0.074
		c-0.626,0.119-1.07,0.333-1.339,0.639c-0.266,0.302-0.47,0.559-0.612,0.768c-0.137,0.203-0.227,0.305-0.27,0.297
		c-0.098,0-0.396-0.159-0.904-0.479c-0.507-0.324-1.025-0.719-1.552-1.184c-0.528-0.471-0.956-0.91-1.279-1.318
		c-0.327-0.411-0.679-1.015-1.059-1.812s-0.782-2.04-1.197-3.729c-0.068,0.427-0.138,0.808-0.208,1.145
		c-0.066,0.337-0.199,0.759-0.4,1.269c-0.198,0.505-0.563,1.086-1.09,1.746c-0.532,0.656-1.135,1.215-1.812,1.668
		c-0.679,0.455-1.579,0.936-2.696,1.449c-1.117,0.51-2.081,0.865-2.884,1.064l-0.926,0.234c-0.057,0.018-0.119,0.027-0.178,0.031
		c-0.062,0.004-0.115-0.004-0.16-0.027c-0.039-0.021-0.062-0.043-0.057-0.07c0.004-0.027,0.031-0.066,0.08-0.123
		c0.049-0.058,0.115-0.103,0.199-0.138l0.99-0.386c0.327-0.134,0.801-0.363,1.423-0.706c0.616-0.337,1.512-0.909,2.681-1.711
		c1.168-0.808,1.903-1.806,2.209-2.989c0.301-1.188,0.512-2.074,0.62-2.664h-5.884c-0.207,0-0.331-0.115-0.366-0.351
		c-0.041-0.235,0.082-0.351,0.366-0.351H300.59z"/>
	<path fill="#AE7B28" d="M325.496,11.613l-0.414-0.323c-0.09-0.062-0.132-0.107-0.138-0.138c-0.004-0.031-0.004-0.059,0.006-0.084
		c0-0.045,0.012-0.076,0.034-0.102c0.018-0.027,0.102-0.045,0.252-0.055c0.146,0,0.423,0.027,0.825,0.086
		c0.405,0.057,0.914,0.172,1.54,0.35c0.62,0.178,0.982,0.487,1.076,0.935c0.098,0.448,0.146,0.763,0.152,0.95
		c0.004,0.186-0.051,0.381-0.164,0.589c-0.121,0.227-0.293,0.413-0.521,0.559c-0.225,0.146-0.483,0.223-0.78,0.223
		c-0.216,0.009-0.421-0.036-0.612-0.129c-0.188-0.099-0.345-0.239-0.474-0.435c-0.125-0.195-0.195-0.492-0.214-0.891
		c-0.016-0.4-0.043-0.697-0.082-0.893C325.942,12.062,325.782,11.848,325.496,11.613 M315.193,16.992l-0.312-0.572
		c-0.025-0.045-0.043-0.098-0.047-0.168c-0.004-0.067,0.047-0.103,0.15-0.103c0.163,0.018,0.417,0.134,0.755,0.354
		c0.335,0.222,0.623,0.43,0.863,0.625c0.24,0.196,0.483,0.475,0.74,0.838c0.252,0.364,0.377,0.736,0.365,1.117
		c-0.014,0.382-0.139,0.711-0.375,0.994c-0.229,0.279-0.525,0.417-0.881,0.407c-0.536-0.008-0.842-0.198-0.912-0.576
		c-0.076-0.376-0.107-0.655-0.1-0.837l0.014-0.404c0-0.045,0-0.178,0-0.403c-0.008-0.274-0.027-0.501-0.049-0.675
		C315.384,17.417,315.314,17.217,315.193,16.992z M334.745,15.355v0.014h-13.979c-0.008,0.492-0.008,0.855,0,1.092l0.016,1.076
		c0,0.643,0,1.415,0,2.328c-0.02,1.756-0.086,3.166-0.204,4.234c-0.115,1.064-0.324,2.035-0.63,2.909
		c-0.301,0.872-0.69,1.676-1.174,2.403c-0.479,0.727-1.002,1.396-1.571,2.008c-0.567,0.607-1.01,1.056-1.334,1.344l-0.896,0.794
		c-0.102,0.093-0.191,0.138-0.266,0.133c-0.069-0.004-0.12-0.018-0.136-0.04c-0.02-0.018-0.027-0.062-0.031-0.12
		c-0.006-0.062,0.039-0.149,0.136-0.261l0.829-0.988c0.754-0.892,1.348-1.854,1.774-2.893c0.431-1.031,0.727-1.977,0.891-2.828
		c0.164-0.855,0.265-1.587,0.312-2.204l0.078-1.166c-0.417,0.364-0.842,0.728-1.28,1.091c-0.435,0.363-0.7,0.586-0.798,0.674
		l-1.131,1.038c-0.139,0.134-0.226,0.204-0.267,0.218s-0.107-0.129-0.201-0.426l-0.544-1.597l-0.133-0.363
		c0-0.018,0.004-0.035,0.014-0.054l0.377-0.075l1.3-0.323c0.061-0.01,0.956-0.293,2.69-0.848c-0.008-1.021-0.014-2.119-0.008-3.295
		c0.004-1.17-0.02-2.199-0.072-3.081l-0.076-1.3l-0.104-1.002c0.025-0.07,0.066-0.119,0.114-0.154
		c0.053-0.035,0.256,0.025,0.61,0.182l1.757,0.793h13.352l0.922-1.236c0.117-0.156,0.199-0.234,0.262-0.24
		c0.062-0.004,0.226,0.094,0.493,0.294l1.587,1.245c0.2,0.164,0.298,0.297,0.298,0.391c-0.01,0.061-0.047,0.115-0.104,0.164
		c-0.062,0.049-0.138,0.07-0.22,0.07H334.745z M333.927,18.109l0.908-1.064c0.119-0.146,0.213-0.221,0.271-0.227
		c0.062-0.004,0.182,0.062,0.362,0.201l1.587,1.271c0.113,0.098,0.184,0.168,0.211,0.223c0.021,0.053,0.039,0.115,0.043,0.193
		c0.004,0.076-0.137,0.116-0.421,0.116l-6.785,0.014c-0.102,0.138-0.216,0.261-0.335,0.362c-0.055,0.661-0.09,1.189-0.117,1.588
		c-0.025,0.395-0.039,0.611-0.039,0.648l-0.066,0.767h4.03l0.634-0.882c0.12-0.165,0.2-0.249,0.241-0.253
		c0.039-0.005,0.164,0.053,0.37,0.173l1.767,1.09c0.145,0.098,0.221,0.188,0.221,0.275c-0.01,0.066-0.084,0.173-0.221,0.311
		l-0.417,0.403v9.236c0,0.337-0.164,0.621-0.493,0.856c-0.327,0.234-0.595,0.389-0.794,0.461c-0.194,0.074-0.519,0.163-0.957,0.274
		c-0.442,0.106-0.705,0.155-0.781,0.146c-0.07,0-0.113-0.008-0.137-0.03s-0.039-0.049-0.059-0.084
		c-0.016-0.035-0.053-0.267-0.109-0.697c-0.059-0.425-0.448-0.774-1.176-1.041l-0.807-0.288c-0.129-0.045-0.213-0.089-0.252-0.129
		c-0.041-0.044-0.059-0.103-0.055-0.169c0.004-0.071,0.143-0.101,0.414-0.093l1.037,0.066c0.779,0.054,1.249,0.054,1.409,0.005
		c0.16-0.044,0.279-0.12,0.354-0.222c0.08-0.098,0.119-0.2,0.119-0.302v-8.394h-4.414c-0.027,0.146-0.043,0.257-0.043,0.323
		l-0.025,0.315l-0.114,0.775c1.185,0.443,2.168,0.993,2.939,1.649c0.776,0.661,1.162,1.356,1.154,2.093
		c-0.012,0.443-0.125,0.781-0.347,1.02c-0.223,0.24-0.487,0.359-0.8,0.359c-0.345,0.01-0.599-0.092-0.748-0.306
		c-0.15-0.214-0.275-0.487-0.367-0.825l-0.364-1.236c-0.135-0.395-0.283-0.771-0.462-1.126c-0.176-0.354-0.53-0.763-1.059-1.225
		c-0.156,0.607-0.352,1.176-0.587,1.703c-0.234,0.527-0.694,1.162-1.383,1.897c-0.688,0.736-1.294,1.281-1.822,1.637l-0.833,0.545
		c-0.165,0.111-0.271,0.137-0.31,0.076c-0.047-0.059-0.066-0.111-0.072-0.16s0.035-0.115,0.119-0.204l0.74-0.741
		c0.254-0.247,0.56-0.629,0.923-1.139c0.364-0.514,0.678-1.166,0.938-1.955c0.261-0.795,0.409-1.517,0.456-2.173
		c0.043-0.651,0.066-1.002,0.066-1.043v-0.261h-3.42v10.859c0,0.288-0.171,0.482-0.519,0.594c-0.347,0.105-0.671,0.154-0.963,0.146
		c-0.282,0-0.46-0.041-0.53-0.115c-0.072-0.08-0.121-0.182-0.156-0.311l0.129-2.914v-6.127l-0.129-3.588
		c0.053-0.043,0.098-0.074,0.143-0.092l0.599,0.247l1.415,0.586h3.432c-0.01-0.12-0.01-0.218,0-0.288l0.012-1.623l-0.012-1.454
		l-6.187-0.014l-0.181-0.089c-0.07-0.08-0.121-0.203-0.152-0.372s0.098-0.253,0.386-0.253H333.927z"/>
	<path fill="#AE7B28" d="M221.053,48.921l-0.536-0.585c-0.084-0.085-0.123-0.159-0.115-0.218c0-0.08,0.076-0.119,0.223-0.119
		c0.31,0.018,0.885,0.207,1.719,0.566c0.839,0.36,1.438,0.803,1.806,1.335c0.368,0.537,0.554,1.028,0.554,1.491
		c-0.008,0.473-0.168,0.877-0.476,1.205c-0.304,0.332-0.667,0.492-1.084,0.482c-0.44,0-0.751-0.141-0.924-0.43
		c-0.172-0.283-0.266-0.607-0.283-0.962l-0.027-0.585C221.848,50.22,221.564,49.494,221.053,48.921 M228.103,43.53h-6.387
		c-0.219,0.425-0.565,1.091-1.039,2.004c-0.479,0.909-0.802,1.509-0.976,1.805l-0.56,0.896l-0.491,0.807
		c-0.097,0.146-0.19,0.209-0.288,0.195c-0.045,0-0.07-0.008-0.09-0.025c-0.016-0.018-0.031-0.045-0.039-0.072
		c-0.008-0.031,0.018-0.128,0.074-0.292l0.343-0.976c0.223-0.652,0.363-1.064,0.421-1.242c0.053-0.176,0.213-0.723,0.475-1.631
		c0.257-0.909,0.438-1.574,0.546-2l0.478-2.182c0.2-0.855,0.315-1.4,0.351-1.636l0.209-1.392c0.037-0.276,0.068-0.423,0.094-0.436
		c0.024-0.014,0.101,0.005,0.229,0.049l2.755,0.971c0.189,0.08,0.287,0.169,0.293,0.267c0.003,0.101-0.094,0.2-0.293,0.292
		l-0.622,0.303c-0.198,0.447-0.341,0.784-0.431,1.01l-0.612,1.48c-0.164,0.383-0.331,0.746-0.503,1.092h5.755l0.457-0.646
		c0.153-0.229,0.257-0.338,0.3-0.334c0.051,0.005,0.184,0.067,0.399,0.191l1.87,1.125c0.078,0.055,0.129,0.107,0.16,0.16
		c0.031,0.049,0.051,0.094,0.055,0.12c0.004,0.031,0,0.062-0.018,0.093c-0.018,0.031-0.084,0.094-0.197,0.186l-0.571,0.484
		c-0.008,0.629-0.014,1.107-0.008,1.428c0.004,0.32,0.008,0.536,0.008,0.651c-0.008,0.958-0.039,2.187-0.084,3.677
		c-0.049,1.49-0.105,2.811-0.168,3.973c-0.065,1.162-0.208,2.238-0.431,3.237c-0.22,0.992-0.599,1.741-1.135,2.237
		c-0.536,0.498-1.224,0.875-2.053,1.131c-0.834,0.254-1.384,0.373-1.649,0.355c-0.07,0-0.121-0.004-0.146-0.021
		c-0.021-0.018-0.045-0.049-0.062-0.094s-0.04-0.168-0.071-0.368c-0.031-0.204-0.133-0.51-0.301-0.909
		c-0.167-0.402-0.483-0.722-0.939-0.957l-1.016-0.506c-0.139-0.061-0.201-0.143-0.182-0.248c0.008-0.11,0.119-0.151,0.327-0.115
		l1.322,0.262c0.608,0.119,1.125,0.177,1.56,0.177c0.78,0.009,1.336-0.194,1.663-0.616c0.33-0.417,0.556-0.988,0.685-1.711
		c0.123-0.723,0.216-1.549,0.276-2.47c0.059-0.923,0.109-1.991,0.145-3.202c0.035-1.215,0.062-2.421,0.082-3.627
		c0.023-1.201,0.031-1.857,0.031-1.973V43.53z M215.723,48.792v-5.52h-4.531v5.52H215.723z M215.723,55.679v-6.186h-4.531v6.186
		H215.723z M215.723,56.38h-4.531v2.531c0,0.182-0.084,0.381-0.254,0.598c-0.167,0.218-0.468,0.329-0.893,0.333
		c-0.431,0.005-0.698-0.04-0.796-0.124c-0.097-0.088-0.181-0.199-0.237-0.337l0.129-3.224V45.919l-0.117-4.27
		c0.051-0.027,0.102-0.045,0.148-0.049c0.046-0.004,0.22,0.065,0.513,0.203l1.507,0.754h0.675c0.105-0.718,0.19-1.334,0.253-1.84
		c0.066-0.505,0.129-1.037,0.191-1.592l0.129-1.361l0.039-0.51c0.026-0.018,0.052-0.027,0.079-0.035
		c0.021-0.01,0.143,0.018,0.35,0.088l2.324,0.855c0.198,0.08,0.323,0.143,0.374,0.191c0.043,0.049,0.074,0.11,0.082,0.187
		c0.01,0.08-0.129,0.163-0.401,0.261l-0.586,0.209c-0.263,0.466-0.448,0.811-0.559,1.037l-0.741,1.494l-0.56,1.016h2.64l0.659-0.922
		c0.072-0.105,0.135-0.16,0.195-0.164c0.062-0.004,0.183,0.049,0.364,0.164l1.649,1.051c0.107,0.071,0.174,0.124,0.205,0.168
		c0.026,0.045,0.042,0.089,0.046,0.129c0.006,0.045-0.042,0.115-0.144,0.209l-0.573,0.496v12.39l0.101,1.977
		c-0.081,0.292-0.304,0.515-0.654,0.67c-0.352,0.151-0.683,0.222-0.994,0.212c-0.273,0-0.447-0.049-0.514-0.149
		c-0.062-0.098-0.099-0.253-0.099-0.462V56.38z"/>
	<path fill="#AE7B28" d="M243.318,40.022c0,0.515,0,0.979-0.004,1.405c-0.006,0.427-0.006,1.361,0,2.82
		c0.004,1.454,0.004,2.334,0.004,2.635c-0.02,1.352-0.076,2.575-0.168,3.671c-0.099,1.095-0.343,2.195-0.74,3.295
		c-0.402,1.1-0.99,2.03-1.774,2.788c-0.784,0.764-1.634,1.438-2.542,2.022c-0.909,0.585-1.561,0.962-1.958,1.135l-0.795,0.354
		c-0.074,0.031-0.146,0.053-0.213,0.059c-0.066,0.004-0.107-0.01-0.115-0.041c-0.014-0.031-0.023-0.061-0.023-0.098
		c0-0.035,0-0.07,0-0.105c0-0.03,0.059-0.089,0.17-0.169l0.977-0.673c0.452-0.312,0.976-0.746,1.577-1.305
		c0.603-0.559,1.145-1.21,1.624-1.951c0.478-0.74,0.862-1.666,1.146-2.779c0.289-1.113,0.448-2.199,0.483-3.26
		c0.035-1.059,0.055-1.854,0.059-2.373c0.004-0.518-0.01-1.329-0.031-2.429c-0.027-1.1-0.059-2.031-0.094-2.793l-0.128-2.364
		l-0.141-1.44c0.047-0.071,0.092-0.106,0.119-0.116c0.031-0.008,0.149,0.027,0.358,0.116l2.119,0.896h4.948l0.729-0.807
		c0.137-0.156,0.23-0.236,0.269-0.24c0.043-0.004,0.209,0.094,0.495,0.293l1.753,1.246c0.174,0.133,0.275,0.217,0.307,0.257
		c0.031,0.035,0.043,0.08,0.039,0.12c-0.004,0.045-0.074,0.115-0.213,0.209l-0.745,0.51v15.572c0,0.199,0.107,0.367,0.314,0.5
		c0.21,0.134,0.865,0.209,1.975,0.227c0.98,0.027,1.726-0.106,2.234-0.395s0.953-0.988,1.326-2.098l0.633-1.911
		c0.045-0.146,0.125-0.22,0.234-0.22c0.055,0.008,0.1,0.043,0.131,0.104c0.035,0.059,0.045,0.134,0.025,0.222l-0.182,2.182
		c-0.01,0.094-0.014,0.244-0.018,0.453s0.031,0.381,0.111,0.522c0.045,0.093,0.195,0.271,0.452,0.532
		c0.262,0.258,0.386,0.497,0.376,0.715c-0.008,0.145-0.222,0.531-0.643,1.162c-0.418,0.629-1.942,0.93-4.562,0.916
		c-1.872,0-3.135-0.199-3.79-0.598c-0.651-0.398-0.98-0.932-0.98-1.601V40.022H243.318z"/>
	<path fill="#AE7B28" d="M281.796,44.572c-1.107,0.873-2.182,1.756-3.225,2.646c0.982,0.383,1.881,0.75,2.706,1.104
		c0.818,0.354,1.329,0.759,1.524,1.211c0.195,0.447,0.292,0.784,0.298,0.997c0.004,0.217-0.021,0.408-0.084,0.572
		c-0.067,0.182-0.214,0.359-0.427,0.536c-0.216,0.173-0.466,0.253-0.74,0.245c-0.15,0-0.311-0.031-0.488-0.1
		c-0.177-0.061-0.353-0.256-0.528-0.576l-0.491-1.299c-0.163-0.372-0.417-0.748-0.748-1.126c-0.334-0.377-0.622-0.655-0.866-0.839
		l-0.634-0.451c-0.181-0.121-0.271-0.19-0.267-0.208c0.006-0.019,0.076-0.133,0.214-0.351l0.687-1.037l0.692-1.117
		c0.258-0.408,0.411-0.666,0.466-0.768l0.417-0.82l0.182-0.426c0.045-0.025,0.084-0.031,0.123-0.014
		c0.041,0.014,0.191,0.115,0.462,0.297l1.521,1.064c0.139,0.107,0.201,0.182,0.191,0.234c-0.021,0.094-0.164,0.151-0.411,0.169
		L281.796,44.572z M264.234,43.832l-0.483-0.484c-0.041-0.031-0.066-0.074-0.07-0.127c-0.006-0.055,0.012-0.09,0.047-0.117
		c0.023-0.025,0.08-0.043,0.169-0.053c0.127,0,0.443,0.084,0.95,0.248c0.499,0.165,1.018,0.453,1.556,0.869
		c0.536,0.418,0.807,0.883,0.811,1.397c0.004,0.514-0.146,0.909-0.462,1.188c-0.265,0.244-0.579,0.363-0.934,0.363
		c-0.304,0.01-0.56-0.084-0.772-0.279c-0.214-0.195-0.347-0.465-0.394-0.811l-0.027-0.923c-0.01-0.218-0.051-0.452-0.121-0.71
		C264.436,44.14,264.343,43.951,264.234,43.832z M264.893,51.054l-1.038,0.688c-0.288,0.191-0.448,0.283-0.487,0.279
		c-0.038-0.004-0.097-0.098-0.171-0.279l-0.782-1.703l-0.133-0.234c0.01-0.023,0.053-0.049,0.133-0.076l0.376-0.053l1.322-0.248
		c0.098-0.014,0.698-0.146,1.798-0.395c1.1-0.249,1.669-0.377,1.716-0.395l1.306-0.352c0.16-0.035,0.24,0.005,0.246,0.12
		c0.004,0.12-0.062,0.214-0.191,0.28l-1.221,0.691C266.234,50.244,265.275,50.802,264.893,51.054z M273.17,41.854l1.154,0.536
		c0.156,0.075,0.23,0.164,0.227,0.258c-0.004,0.098-0.137,0.158-0.409,0.194l-0.505,0.08c-0.426,0.381-0.735,0.665-0.935,0.856
		l-1.193,1.117l-0.928,0.855l3.158,0.262c0.48-0.562,0.722-0.856,0.741-0.883l0.509-0.701l0.244-0.39
		c0.055-0.035,0.111-0.044,0.167-0.026l0.236,0.154l1.741,1.092c0.148,0.098,0.222,0.186,0.222,0.274
		c-0.008,0.12-0.108,0.195-0.3,0.218l-0.558,0.092c-1.62,1.256-3.593,2.67-5.925,4.249l5.667-0.129
		c-0.21-0.506-0.354-0.815-0.44-0.937c-0.078-0.123-0.216-0.305-0.407-0.545l-0.349-0.43c-0.062-0.062-0.09-0.129-0.086-0.199
		c0.004-0.076,0.062-0.111,0.177-0.111c0.205,0.009,0.884,0.275,2.03,0.799c1.15,0.523,1.703,1.338,1.669,2.447
		c-0.014,0.381-0.146,0.718-0.395,1.016c-0.249,0.291-0.569,0.439-0.967,0.439c-0.218,0.008-0.452-0.08-0.702-0.267
		c-0.253-0.187-0.376-0.471-0.376-0.853l-0.053-0.7l-4.704,0.856l2.757,0.545c0.084,0.026,0.155,0.066,0.204,0.111
		c0.055,0.049,0.08,0.098,0.086,0.15c0.002,0.053-0.094,0.143-0.29,0.275l-0.56,0.373v1.378h6.715l1.286-1.429
		c0.113-0.123,0.213-0.186,0.293-0.189c0.083-0.005,0.206,0.058,0.372,0.189l1.869,1.544c0.188,0.165,0.285,0.292,0.285,0.377
		c-0.008,0.155-0.168,0.235-0.479,0.235H274.08v3.52l0.09,2.055c-0.07,0.164-0.164,0.296-0.285,0.394
		c-0.123,0.103-0.335,0.19-0.638,0.267c-0.302,0.08-0.571,0.115-0.805,0.106c-0.364,0-0.591-0.058-0.681-0.169
		c-0.092-0.115-0.15-0.243-0.178-0.391l0.129-2.585v-3.196h-10.208c-0.133,0-0.225-0.058-0.287-0.169
		c-0.045-0.062-0.075-0.169-0.097-0.323c-0.021-0.155,0.106-0.235,0.384-0.235h10.208v-1.48l-0.074-1.286
		c-0.271,0.093-0.476,0.155-0.612,0.182l-0.56,0.088l-1.454,0.382l-0.195,0.049c-0.044,0-0.079-0.026-0.103-0.075l-0.051-0.195
		l-0.493-1.561l-0.094-0.223c0.01-0.025,0.041-0.049,0.094-0.074l0.31-0.026l0.714-0.209c0.235-0.071,0.573-0.267,1.021-0.585
		c0.446-0.319,1.351-1.135,2.722-2.443c-1.023,0.143-1.755,0.262-2.195,0.363l-0.988,0.248c-0.119,0.037-0.232,0.072-0.324,0.111
		c-0.098,0.041-0.173-0.035-0.235-0.226l-0.479-1.3l-0.133-0.262c0-0.01,0.02-0.027,0.055-0.053l0.323-0.129l0.444-0.27
		c0.199-0.125,0.391-0.271,0.571-0.447c0.182-0.18,0.415-0.498,0.704-0.959c0.293-0.457,0.507-0.816,0.644-1.078l0.362-0.74
		l0.135-0.261h-9.707c-0.207,0-0.328-0.115-0.363-0.351c-0.035-0.23,0.09-0.351,0.363-0.351h10.703
		c-0.38-0.11-0.632-0.288-0.762-0.523c-0.133-0.239-0.189-0.515-0.182-0.825l0.035-0.873c-0.039-0.363-0.203-0.678-0.478-0.949
		l-0.404-0.377c-0.044-0.031-0.065-0.062-0.069-0.083c-0.006-0.019-0.006-0.04,0.004-0.058c0.008-0.094,0.122-0.147,0.339-0.156
		c0.396,0,0.875,0.098,1.435,0.289c0.558,0.186,1.041,0.443,1.443,0.758c0.401,0.314,0.604,0.731,0.604,1.255
		c-0.008,0.354-0.132,0.674-0.362,0.954c-0.235,0.277-0.542,0.479-0.924,0.589h6.352l0.986-1.179
		c0.148-0.174,0.254-0.262,0.312-0.267c0.062-0.005,0.212,0.083,0.456,0.267l1.622,1.245c0.129,0.103,0.209,0.181,0.24,0.239
		c0.03,0.059,0.048,0.133,0.052,0.235c0.004,0.098-0.128,0.146-0.394,0.146h-1.614v0.014H273.17z"/>
	<path fill="#AE7B28" d="M303.373,47.258v-2.843h-7.783v2.843H303.373z M295.589,47.958v0.625c0,0.218-0.181,0.387-0.548,0.506
		c-0.37,0.125-0.701,0.188-0.998,0.191c-0.292,0.004-0.479-0.035-0.56-0.125c-0.076-0.088-0.129-0.199-0.154-0.336l0.133-2.12
		v-2.182l-0.107-1.856c0.062-0.076,0.119-0.121,0.17-0.131l0.207,0.104l2.195,1.055h7.275l0.728-0.82
		c0.131-0.146,0.229-0.221,0.285-0.227c0.06-0.004,0.177,0.045,0.354,0.146l1.556,1.002c0.279,0.183,0.417,0.328,0.417,0.443
		c-0.01,0.094-0.084,0.191-0.222,0.284l-0.571,0.378l-0.014,2.362l0.053,1.233c-0.088,0.297-0.32,0.51-0.7,0.646
		c-0.382,0.133-0.714,0.191-1.002,0.174c-0.182,0-0.345-0.045-0.493-0.139c-0.145-0.088-0.221-0.221-0.221-0.395v-0.82H295.589z
		 M292.176,51.337l0.014,8.395c0,0.266-0.084,0.506-0.248,0.714s-0.497,0.346-0.994,0.417c-0.499,0.065-0.812,0.053-0.936-0.041
		c-0.129-0.098-0.217-0.213-0.266-0.35l0.115-2.51l0.014-5.998l-0.129-2.417c0.043-0.054,0.07-0.085,0.088-0.094
		s0.15,0.044,0.403,0.155l2.262,1.028h4.792l9.46-0.014l0.634-0.868c0.115-0.156,0.212-0.231,0.292-0.218
		c0.084,0.014,0.182,0.054,0.293,0.11l2,1.225c0.123,0.084,0.191,0.146,0.209,0.186c0.018,0.041,0.027,0.071,0.031,0.099
		c0.004,0.026-0.004,0.075-0.035,0.142c-0.031,0.07-0.072,0.133-0.125,0.182l-0.651,0.611l0.012,7.676
		c0,0.599-0.47,1.042-1.409,1.326c-0.937,0.288-1.504,0.425-1.694,0.417c-0.084,0-0.15-0.014-0.186-0.041
		c-0.041-0.026-0.076-0.066-0.107-0.128c-0.031-0.062-0.089-0.311-0.171-0.746c-0.09-0.438-0.422-0.762-1.002-0.971l-0.796-0.27
		c-0.137-0.044-0.203-0.12-0.195-0.223c0-0.062,0.027-0.115,0.08-0.164c0.053-0.043,0.111-0.07,0.182-0.07h1.037
		c0.92,0,1.438-0.035,1.548-0.102c0.111-0.071,0.195-0.164,0.25-0.289c0.047-0.119,0.074-0.297,0.074-0.531l-0.012-6.639H292.176z
		 M301.803,56.65v-2.674h-4.927l-0.014,2.674H301.803z M296.863,57.341v0.998c0,0.164-0.164,0.314-0.501,0.448
		c-0.333,0.138-0.653,0.2-0.953,0.19c-0.182,0-0.324-0.027-0.429-0.08c-0.104-0.053-0.188-0.138-0.246-0.258l0.09-1.768v-2.924
		l-0.117-1.751c0.094-0.053,0.295-0.004,0.601,0.155l1.649,0.909h4.847l0.554-0.665c0.115-0.129,0.219-0.195,0.315-0.195
		c0.057,0.01,0.154,0.059,0.283,0.146l1.587,1.166c0.139,0.115,0.209,0.217,0.209,0.314c-0.008,0.094-0.07,0.178-0.182,0.244
		l-0.509,0.314l0.012,1.921l0.066,1.339c-0.146,0.537-0.671,0.803-1.56,0.793c-0.52,0-0.776-0.176-0.776-0.536v-0.763H296.863z
		 M307.399,40.674l1.104-1.286c0.146-0.172,0.257-0.262,0.323-0.266c0.07-0.005,0.209,0.075,0.417,0.238l1.573,1.326
		c0.217,0.191,0.324,0.346,0.324,0.466c-0.008,0.146-0.096,0.222-0.262,0.222h-22.93c-0.202,0-0.323-0.115-0.353-0.35
		c-0.031-0.235,0.088-0.351,0.353-0.351h10.536c-0.057-0.035-0.15-0.107-0.269-0.208c-0.121-0.104-0.227-0.334-0.312-0.688
		l-0.133-0.639c-0.049-0.191-0.14-0.395-0.269-0.612c-0.133-0.212-0.258-0.376-0.378-0.479l-0.638-0.492
		c-0.045-0.026-0.072-0.062-0.084-0.106c-0.014-0.04-0.023-0.076-0.027-0.098c-0.004-0.022,0.008-0.045,0.035-0.07
		c0.049-0.066,0.202-0.104,0.452-0.104c1.17,0.02,2.094,0.231,2.776,0.648c0.679,0.416,1.02,0.834,1.023,1.246
		c0.006,0.416-0.076,0.766-0.239,1.055c-0.119,0.199-0.301,0.381-0.547,0.546H307.399z"/>
	<path fill="#AE7B28" d="M316.285,39.375c-0.128-0.111-0.19-0.203-0.183-0.279c0.01-0.075,0.102-0.124,0.276-0.15
		c0.039,0,0.092,0.009,0.154,0.026c0.057,0.018,0.23,0.049,0.505,0.098c0.281,0.049,0.647,0.155,1.113,0.319
		c0.462,0.164,0.856,0.351,1.18,0.562c0.323,0.213,0.608,0.492,0.846,0.834c0.236,0.342,0.352,0.691,0.344,1.056
		c-0.02,0.36-0.17,0.7-0.462,1.028c-0.289,0.328-0.669,0.492-1.137,0.492c-0.297,0.009-0.554-0.066-0.78-0.227
		c-0.226-0.159-0.37-0.328-0.446-0.5c-0.076-0.173-0.135-0.502-0.182-0.984c-0.051-0.488-0.156-0.887-0.323-1.201
		C317.02,40.128,316.718,39.773,316.285,39.375 M329.667,48.531c-0.148-0.102-0.219-0.19-0.207-0.266
		c0.016-0.07,0.09-0.123,0.232-0.146c0.139-0.025,0.313,0.014,0.532,0.129c0.102,0.062,0.881,0.398,2.336,1.02
		c1.454,0.616,2.515,1.486,3.176,2.604c0.665,1.117,0.984,1.95,0.957,2.496c-0.018,0.258-0.125,0.616-0.319,1.068
		c-0.195,0.457-0.62,0.674-1.281,0.656c-0.438,0-0.766-0.138-0.98-0.422c-0.213-0.279-0.352-0.518-0.417-0.714
		c-0.061-0.194-0.207-0.788-0.434-1.777c-0.226-0.993-0.62-1.823-1.192-2.487c-0.571-0.67-1.186-1.251-1.833-1.742L329.667,48.531z
		 M318.075,48.013h-3.87c-0.19,0-0.302-0.12-0.337-0.355c-0.035-0.24,0.08-0.359,0.337-0.359h3.689l0.57-0.639
		c0.201-0.221,0.334-0.338,0.4-0.342c0.062-0.004,0.313,0.125,0.758,0.382l1.064,0.652c0.338,0.208,0.51,0.332,0.516,0.376
		c0.004,0.041,0.004,0.067,0.004,0.076v0.053c-0.004,0.036-0.143,0.16-0.4,0.377l-0.638,0.533v7.6
		c0.355,0.154,0.839,0.367,1.441,0.633c0.606,0.271,1.331,0.564,2.172,0.887c0.838,0.32,2.56,0.475,5.156,0.467
		c1.193,0,2.547-0.066,4.06-0.2c1.511-0.138,2.823-0.319,3.94-0.555l0.887-0.181c0.274-0.049,0.417-0.018,0.425,0.105
		c0.01,0.12-0.039,0.218-0.141,0.297l-0.479,0.364c-0.183,0.138-0.351,0.341-0.497,0.612c-0.146,0.266-0.255,0.576-0.337,0.926
		c-0.074,0.352-0.16,0.563-0.248,0.63c-0.083,0.071-0.216,0.111-0.396,0.124c-0.176,0.014-0.468,0.027-0.877,0.031
		c-0.402,0.01-0.628,0.014-0.675,0.014l-1.755,0.094c-0.372,0.018-0.838,0.021-1.399,0.012c-2.894-0.018-4.825-0.109-5.797-0.274
		c-0.967-0.163-1.694-0.351-2.174-0.559c-0.483-0.208-0.967-0.506-1.448-0.896l-1.301-1.078c-0.536-0.406-1.01-0.611-1.427-0.611
		c-0.683,0.008-1.334,0.244-1.95,0.697c-0.611,0.455-1.084,0.913-1.403,1.369l-0.456,0.639c-0.119,0.172-0.195,0.252-0.227,0.238
		c-0.031-0.012-0.07-0.084-0.122-0.213l-0.923-2.119c-0.111-0.234-0.16-0.367-0.148-0.402c0.016-0.035,0.121-0.09,0.33-0.17
		l0.832-0.27c1.047-0.354,1.997-0.611,2.843-0.768V48.013z M333.51,43.947l0.688-1.012c0.226-0.342,0.376-0.51,0.456-0.514
		c0.074-0.005,0.327,0.15,0.753,0.461l1.321,1.002c0.409,0.318,0.612,0.52,0.612,0.594c-0.018,0.116-0.105,0.168-0.271,0.168h-7.572
		c-0.025,0.427-0.076,1.166-0.146,2.217c-0.065,1.052-0.288,2.072-0.66,3.061c-0.373,0.984-1.047,1.996-2.025,3.023
		c-0.981,1.033-2.178,1.987-3.602,2.861l-0.775,0.479c-0.217,0.142-0.4,0.208-0.547,0.208c-0.132,0.009-0.188-0.035-0.181-0.128
		c0-0.09,0.167-0.275,0.505-0.559l0.688-0.586c0.261-0.217,0.686-0.643,1.286-1.277c0.597-0.638,1.139-1.396,1.622-2.283
		c0.487-0.883,0.829-1.906,1.027-3.068c0.201-1.166,0.311-2.186,0.338-3.06l0.027-0.888h-5.521l-0.223-0.114
		c-0.078-0.103-0.114-0.226-0.108-0.372c0.004-0.143,0.097-0.213,0.278-0.213h5.602c0-0.417-0.006-0.799-0.01-1.149
		c-0.006-0.35-0.006-0.815,0-1.397c0.004-0.579-0.01-1.107-0.045-1.586l-0.156-2.076c-0.008-0.07,0.01-0.109,0.055-0.119
		c0.039-0.01,0.23,0.018,0.567,0.08l2.303,0.443c0.272,0.057,0.45,0.115,0.53,0.174c0.08,0.057,0.12,0.114,0.124,0.181
		c0.004,0.067-0.12,0.194-0.374,0.386l-0.53,0.398c0.008,0.79,0.014,1.38,0.014,1.77l-0.014,0.781v1.064l-0.014,1.051H333.51z"/>
</g>
</svg>
