<?xml version="1.0" encoding="utf-8"?>
<!-- Generator: Adobe Illustrator 17.0.0, SVG Export Plug-In . SVG Version: 6.00 Build 0)  -->
<!DOCTYPE svg PUBLIC "-//W3C//DTD SVG 1.1//EN" "http://www.w3.org/Graphics/SVG/1.1/DTD/svg11.dtd">
<svg version="1.1" id="Layer_1" xmlns="http://www.w3.org/2000/svg" xmlns:xlink="http://www.w3.org/1999/xlink" x="0px" y="0px"
	 width="640px" height="287.3px" viewBox="0 0 640 287.3" style="enable-background:new 0 0 640 287.3;" xml:space="preserve">
<style type="text/css">
	.st0{fill:#AE7B28;}
	.st1{fill:none;stroke:#D9B766;stroke-width:0.216;stroke-miterlimit:22.926;}
	.st2{fill:#A91F26;}
	.st3{fill:#D9B766;}
	.st4{fill:#FFFFFF;}
	.st5{fill:none;}
</style>
<g>
	<path class="st0" d="M337.1,54.3V48h4.5v6.3H337.1z M328.2,48h4.5v6.3h-4.5V48z M337.1,46.4v-5.5h4.5v5.5H337.1z M328.2,40.9h4.5
		v5.5h-4.5V40.9z M330,33h9.8v-5H330V33z M316.6,30.2c-1.6,4.4-4.3,8.4-8,12h1.1c1.6-1.3,3-2.5,4.2-3.6v19.5h4.5V36.5
		c0.9,1.5,1.9,2.9,3.1,4.4c1-0.5,1.8-1.4,2.2-2.5v19.7h4.5v-2.2h13.4v2.2h4.5V37.8h-4.5v1.6h-13.4v-1.6h-4.5
		c-1.5-0.6-3.2-1.5-5.1-2.5v-0.8c1.8-2.7,2.9-5.3,3.4-7.7h-4.7l-0.2,1.9h-8v1.6L316.6,30.2L316.6,30.2z M325.5,36.2v-11h4.5v1.3h9.8
		v-1.3h4.5v11h-4.5v-1.6H330v1.6H325.5z M347.4,20.4V22h-25v-1.6H347.4z M313.4,19l0.2-0.2c1.9,0.9,4.1,2.1,6.5,3.5
		c-0.3,1.3-0.9,2.4-1.8,3.5C316.3,24.2,314.6,21.9,313.4,19z"/>
	<path class="st1" d="M337.1,54.3V48h4.5v6.3H337.1z M328.2,48h4.5v6.3h-4.5V48z M337.1,46.4v-5.5h4.5v5.5H337.1z M328.2,40.9h4.5
		v5.5h-4.5V40.9z M330,33h9.8v-5H330V33z M316.6,30.2c-1.6,4.4-4.3,8.4-8,12h1.1c1.6-1.3,3-2.5,4.2-3.6v19.5h4.5V36.5
		c0.9,1.5,1.9,2.9,3.1,4.4c1-0.5,1.8-1.4,2.2-2.5v19.7h4.5v-2.2h13.4v2.2h4.5V37.8h-4.5v1.6h-13.4v-1.6h-4.5
		c-1.5-0.6-3.2-1.5-5.1-2.5v-0.8c1.8-2.7,2.9-5.3,3.4-7.7h-4.7l-0.2,1.9h-8v1.6L316.6,30.2L316.6,30.2z M325.5,36.2v-11h4.5v1.3h9.8
		v-1.3h4.5v11h-4.5v-1.6H330v1.6H325.5z M347.4,20.4V22h-25v-1.6H347.4z M313.4,19l0.2-0.2c1.9,0.9,4.1,2.1,6.5,3.5
		c-0.3,1.3-0.9,2.4-1.8,3.5C316.3,24.2,314.6,21.9,313.4,19z"/>
	<path class="st0" d="M324.2,82.1c1.9,4.7,3.2,7.4,3.8,7.9c0.9-0.5,1.7-1.5,2.5-3c-1.8-1.7-3.8-3.4-6-5L324.2,82.1L324.2,82.1z
		 M338.4,81c-0.4,10,2.4,16.3,8.5,19.1c0.1,0,0.1-0.4,0-1.1c-0.2-1.9,0.3-3.3,1.3-4.1c-3.3-1-5.4-2.8-6.5-5.2l3.8-7.4l-1.8-0.6
		l-2.9,6c-0.7-1.3-1.3-3-1.8-5.4c-0.2-0.5-0.2-0.9-0.2-1.3L338.4,81L338.4,81z M308.5,74.7h8.9c-0.7,4.5-3.6,9.6-8.5,15.1h1.3
		c0.4-0.4,1.2-1.2,2.2-2.2c0.9-0.9,1.6-1.7,2.2-2.2v17.5h4.5v-20c1.3,2.4,2.5,4.2,3.6,5.4c0.4-0.2,0.9-1.3,1.3-3.1
		c-0.4-0.3-1.9-1.7-4.5-4.1c1.9-3.3,3-6.3,3.1-9.1h-5.4v1.3h-8.9V74.7L308.5,74.7z M338.9,67.8h-14.7v-1.6h14.7v-1.9h4.5v8.8
		c-0.3,2.1-1.6,3.9-4,5.4h8v1.6h-9.8v18.8c0.3,2.3-2.2,3.8-7.6,4.4c-0.2-0.4-0.9-0.5-2.2-0.3l-2.5,0.5l-0.4-0.6
		c6.2-1.1,9-2.4,8.3-3.9v-9.3c-2.5,5-6,8.3-10.3,9.6c0.7-2.1,0.4-3.7-0.9-4.9c6-0.9,9.7-2.9,11.2-6v-8.2h-10.3v-1.6h15
		c0.9-1.5,1.3-3,1.1-4.7h-13.4v-1.6h13.4L338.9,67.8L338.9,67.8z M313.7,64.6v-0.2c2.4,0.7,4.7,1.7,6.9,3c-0.7,1.4-1.5,2.4-2.2,3.1
		C316.9,69.2,315.3,67.2,313.7,64.6z"/>
	<path class="st1" d="M324.2,82.1c1.9,4.7,3.2,7.4,3.8,7.9c0.9-0.5,1.7-1.5,2.5-3c-1.8-1.7-3.8-3.4-6-5L324.2,82.1L324.2,82.1z
		 M338.4,81c-0.4,10,2.4,16.3,8.5,19.1c0.1,0,0.1-0.4,0-1.1c-0.2-1.9,0.3-3.3,1.3-4.1c-3.3-1-5.4-2.8-6.5-5.2l3.8-7.4l-1.8-0.6
		l-2.9,6c-0.7-1.3-1.3-3-1.8-5.4c-0.2-0.5-0.2-0.9-0.2-1.3L338.4,81L338.4,81z M308.5,74.7h8.9c-0.7,4.5-3.6,9.6-8.5,15.1h1.3
		c0.4-0.4,1.2-1.2,2.2-2.2c0.9-0.9,1.6-1.7,2.2-2.2v17.5h4.5v-20c1.3,2.4,2.5,4.2,3.6,5.4c0.4-0.2,0.9-1.3,1.3-3.1
		c-0.4-0.3-1.9-1.7-4.5-4.1c1.9-3.3,3-6.3,3.1-9.1h-5.4v1.3h-8.9V74.7L308.5,74.7z M338.9,67.8h-14.7v-1.6h14.7v-1.9h4.5v8.8
		c-0.3,2.1-1.6,3.9-4,5.4h8v1.6h-9.8v18.8c0.3,2.3-2.2,3.8-7.6,4.4c-0.2-0.4-0.9-0.5-2.2-0.3l-2.5,0.5l-0.4-0.6
		c6.2-1.1,9-2.4,8.3-3.9v-9.3c-2.5,5-6,8.3-10.3,9.6c0.7-2.1,0.4-3.7-0.9-4.9c6-0.9,9.7-2.9,11.2-6v-8.2h-10.3v-1.6h15
		c0.9-1.5,1.3-3,1.1-4.7h-13.4v-1.6h13.4L338.9,67.8L338.9,67.8z M313.7,64.6v-0.2c2.4,0.7,4.7,1.7,6.9,3c-0.7,1.4-1.5,2.4-2.2,3.1
		C316.9,69.2,315.3,67.2,313.7,64.6z"/>
	<path class="st2" d="M329.3,149.2l-0.6,2h0.9v-2H329.3z M331,148.9v0.9h0.6l0.3-1.7h-0.3L331,148.9z M333.4,159.9v0.6h0.3
		c2.9-1.9,4.4-3.3,4.4-4.1l-0.3-1.2c0-1.2,0.9-3.8,2.6-7.8l0.6-1.5h-0.6c-2.9,0-4.7,3.6-5.5,10.7L333.4,159.9L333.4,159.9z
		 M343.2,153.5l1.1,5.2c-1.5,1.5-3.4,2.6-5.5,3.2l-0.9-0.3l-2.9,0.6c2.1,3.5,4.5,5.2,7,5.2h0.9c2.1-8.7,3.2-14.8,3.2-18.3v-2.3
		c0-1.2-0.4-1.8-1.2-2C344.6,144.8,344,147.7,343.2,153.5L343.2,153.5z M319.4,150c5.6-3.3,10.2-5.6,13.9-7l0.9-3.2l-0.6-1.2h-0.3
		c-5,1-9.1,3.4-12.2,7.2C320,147.7,319.4,149.1,319.4,150L319.4,150z M304.6,126v1.4l-0.6,2.6c-3.1,7.7-5.7,15.3-7.8,22.6
		c-3.9,0.6-5.8,1.3-5.8,2.3v0.3l0.3,0.3c-0.8,0-1.2,0.9-1.4,2.6c1,1.5,1.5,3.1,1.7,4.6l-1.2,3.2l3.5,6.1c4.5-1,6.7-2.1,6.7-3.5V166
		l-0.3-4.4l4.4-3.5l9-10.7v-0.6l-0.3-0.3c1.4-1.5,2.4-3,3.2-4.3v-0.6h-0.3c-4.1,3.3-6.9,4.9-8.4,4.9l-6.7,3.8H300l2.3-4.9
		c2.7-0.2,5.2-1.2,7.5-2.9l-4.9-14.5l0.6-0.3V126L304.6,126L304.6,126z M329.6,125.1l-0.3,3.8h0.6l2-3.8v-0.3L329.6,125.1
		L329.6,125.1z M303.2,108.6v0.3c1.7,1.5,2.6,3.6,2.6,6.1l-0.3,1.7l0.6,1.7l-1.2,6.7h0.9c0-1.2,0.5-2,1.4-2.6h1.2l0.6,1.2
		c1.2,0,1.9,0.2,2.3,0.6h0.3l3.5-3.8v-1.7C310.4,111.9,306.5,108.6,303.2,108.6L303.2,108.6z M347.9,99.9h0.3
		c2.5,2.5,3.8,4.6,3.8,6.4v1.4c0,3.5-4,9.8-11.9,18.8v0.6c0.8,0,1.2,0.2,1.2,0.6l1.7-0.3c3.5,1.7,5.2,2.9,5.2,3.5v0.3
		c0,0.8-0.5,1.2-1.4,1.2v0.6l0.3,0.6v0.3c-1.1,0.8-3.6,1.5-7.3,2.3c0,0.4-0.7,0.6-2,0.6l-0.6,1.2l0.9,2.3l-0.3,2
		c3.9-0.8,6.5-1.7,7.8-2.9l7.3,3.2l0.6,1.5c-1.2,20.1-3.5,30.2-7,30.2c-1.9,0-4.8-1.8-8.7-5.5l-2.9-2.9c-0.8,0-1.4-1.2-1.7-3.5h-1.7
		v-0.6h0.6v-0.6c0-0.6-0.4-0.9-1.2-0.9l-0.9-1.4l0.3-4.9l-0.3-0.3h-0.3c-1.3,1.4-2,3.3-2,5.8c-0.8,0.8-1.9,1.4-3.5,1.7
		c-1-1.4-1.4-2.3-1.4-2.9c0-1,0.9-3.5,2.6-7.6c-3.9,2.1-5.8,4.8-5.8,8.1l-2,4.6h0.6v2.3c-1,3.1-2.5,4.6-4.6,4.6h-0.6
		c-0.8-0.4-1.5-1.4-2-3.2l0.9-3.5l-1.4-3.8h0.6l-0.6-0.6v-1.2c4.8-3.7,8-7.5,9.6-11.3l2.6-3.2h-0.9v-0.9h0.9v-0.3h-0.6l-3.5,1.2
		l-1.7-2.6l2-6.4l5.8-0.9v-0.9l-1.7-2l0.3-3.5v-0.3h-1.7l-1.7-2v-1.7c3.9,0,5.8-1.2,5.8-3.8l2.3-11.3h0.6c0.4,0,1,4,1.7,11.9
		l1.2-0.3v0.3c4.8-1.2,8.1-3.4,9.9-6.7c3.9-5.4,5.8-8.7,5.8-9.9v-0.9h-1.2v-0.6L347.9,99.9L347.9,99.9z"/>
	<path class="st0" d="M310.5,226.5h16.4v-8h-12V216h12v-5.8h4.9v5.8h11.6v2.4h-11.6v8h16v2.4h-37.3L310.5,226.5L310.5,226.5z
		 M336.7,205.6h-15.1v-7.6h15.1V205.6z M321.6,210.3v-2.2h15.1v2.2h4.4v-16.4h-4.4v1.8h-15.1v-1.8h-4.4v16.4L321.6,210.3
		L321.6,210.3z M321.6,187.6h5.8v-12.4h4.4v12.4h2.2l6.2-10.7l2,1.3l-5.6,9.3h6.7v-1.8h4.4v9.8c-0.3,0-0.6-0.1-0.9-0.2
		c-0.3-0.4-0.6-0.7-0.9-0.7c-0.9,0-1.6,0.9-2.2,2.7h-0.4v-7.3h-28v5.1h-4.4v-9.8h4.4v2.2h4.9c-0.7-1.3-2.2-5-4.4-10.9l0.2-0.2
		c2.1,1.5,4.4,3.3,7.1,5.3C323,183.2,322.5,185.1,321.6,187.6L321.6,187.6z"/>
	<path class="st1" d="M310.5,226.5h16.4v-8h-12V216h12v-5.8h4.9v5.8h11.6v2.4h-11.6v8h16v2.4h-37.3L310.5,226.5L310.5,226.5z
		 M336.7,205.6h-15.1v-7.6h15.1V205.6z M321.6,210.3v-2.2h15.1v2.2h4.4v-16.4h-4.4v1.8h-15.1v-1.8h-4.4v16.4L321.6,210.3
		L321.6,210.3z M321.6,187.6h5.8v-12.4h4.4v12.4h2.2l6.2-10.7l2,1.3l-5.6,9.3h6.7v-1.8h4.4v9.8c-0.3,0-0.6-0.1-0.9-0.2
		c-0.3-0.4-0.6-0.7-0.9-0.7c-0.9,0-1.6,0.9-2.2,2.7h-0.4v-7.3h-28v5.1h-4.4v-9.8h4.4v2.2h4.9c-0.7-1.3-2.2-5-4.4-10.9l0.2-0.2
		c2.1,1.5,4.4,3.3,7.1,5.3C323,183.2,322.5,185.1,321.6,187.6L321.6,187.6z"/>
	<path class="st0" d="M371.9,106.2c0-0.5-0.3-1-1-1.4c-0.7-0.4-1.7-0.6-3.2-0.6c-0.9,0-1.8,0.2-2.7,0.5c-0.8,0.3-1.3,0.9-1.3,1.6
		c0,0.4,0.1,0.7,0.2,0.9c0.2,0.2,0.4,0.3,0.7,0.4h1.7c0.2,0,0.4-0.1,0.5-0.2c0.1-0.1,0.1-0.3,0.1-0.5v-0.3h0.3v2.5H367v-0.3
		c0-0.2-0.1-0.3-0.1-0.4c-0.1-0.1-0.2-0.2-0.4-0.2h-2.5l0.1-0.2l0-0.2l0-0.2c0-0.1-0.1-0.1-0.1-0.2c-0.2-0.2-0.3-0.4-0.4-0.6
		c-0.1-0.2-0.1-0.5-0.1-0.7c0-1,0.4-1.8,1.3-2.2c0.9-0.5,1.9-0.7,3-0.7c1.2,0,2.3,0.3,3.2,0.8c0.9,0.6,1.3,1.3,1.3,2.1
		c0,0.2-0.1,0.4-0.2,0.7c-0.1,0.3-0.2,0.4-0.2,0.5c0,0.1,0,0.2,0.1,0.3c0,0.1,0.1,0.2,0.2,0.3l-2.3,0.4l-0.1-0.3
		c0.7-0.2,1.2-0.5,1.5-0.8C371.7,107,371.9,106.6,371.9,106.2L371.9,106.2z M365.5,100.3v0.1h5.9c0.1,0,0.2,0,0.3-0.1
		c0.1-0.1,0.1-0.2,0.1-0.4v-0.4h0.3v2h-0.3v-0.4c0-0.1,0-0.2-0.1-0.3c-0.1-0.1-0.2-0.1-0.3-0.1h-7.9v-0.3v0l7.5-3.9v-0.1h-6.8
		c-0.1,0-0.2,0-0.3,0.1c-0.1,0.1-0.1,0.2-0.1,0.3v0.4h-0.3v-2h0.3v0.4c0,0.2,0,0.3,0.1,0.4c0.1,0.1,0.2,0.1,0.3,0.1h7.2
		c0.1,0,0.2,0,0.3-0.1c0.1-0.1,0.1-0.2,0.1-0.4v-0.3h0.3v1.6L365.5,100.3L365.5,100.3z M371.2,90.4L371.2,90.4l-4.2-1.1v2.1
		L371.2,90.4L371.2,90.4z M366.7,91.5v-2.2l-1.9-0.5c-0.3-0.1-0.5-0.1-0.7,0c-0.2,0.1-0.3,0.2-0.3,0.5v0.2h-0.3v-1.9h0.3v0.2
		c0,0.1,0,0.3,0.1,0.4c0.1,0.1,0.2,0.2,0.4,0.2l7.7,2l0.3,0.8l-8,1.9c-0.2,0.1-0.3,0.2-0.4,0.3c-0.1,0.1-0.1,0.2-0.1,0.4v0.2h-0.3
		v-2.2h0.3v0.2c0,0.2,0.1,0.3,0.2,0.4c0.1,0.1,0.3,0,0.5,0L366.7,91.5L366.7,91.5z M363.5,84.1v-2.6h0.3V82c0,0.2,0,0.3,0.1,0.4
		c0.1,0.1,0.2,0.1,0.3,0.1h7.1c0.3,0,0.4,0,0.5,0c0,0,0-0.2,0-0.4c0-0.5-0.1-0.8-0.3-1c-0.2-0.2-0.6-0.4-1.4-0.7l0.1-0.3l1.9,0.5
		v4.8l-1.9,0.4l-0.1-0.3c0.7-0.3,1.2-0.5,1.3-0.6c0.2-0.1,0.3-0.5,0.3-0.9c0-0.3,0-0.5,0-0.6c0,0-0.2,0-0.5,0h-7
		c-0.1,0-0.2,0-0.3,0.1c-0.1,0.1-0.1,0.2-0.1,0.3v0.5L363.5,84.1L363.5,84.1z M365.5,77v0.1h5.9c0.1,0,0.2,0,0.3-0.1
		c0.1-0.1,0.1-0.2,0.1-0.4v-0.4h0.3v2h-0.3v-0.4c0-0.1,0-0.2-0.1-0.3c-0.1-0.1-0.2-0.1-0.3-0.1h-7.9v-0.3v0l7.5-3.9v-0.1h-6.8
		c-0.1,0-0.2,0-0.3,0.1c-0.1,0.1-0.1,0.2-0.1,0.3V74h-0.3v-2h0.3v0.4c0,0.2,0,0.3,0.1,0.4c0.1,0.1,0.2,0.1,0.3,0.1h7.2
		c0.1,0,0.2,0,0.3-0.1c0.1-0.1,0.1-0.2,0.1-0.4V72h0.3v1.6L365.5,77L365.5,77z M371.2,67.2L371.2,67.2l-4.2-1.1v2.1L371.2,67.2
		L371.2,67.2z M366.7,68.2V66l-1.9-0.5c-0.3-0.1-0.5-0.1-0.7,0c-0.2,0.1-0.3,0.2-0.3,0.5v0.2h-0.3v-1.9h0.3v0.1c0,0.1,0,0.3,0.1,0.4
		c0.1,0.1,0.2,0.2,0.4,0.2l7.7,2l0.3,0.8l-8,1.9c-0.2,0.1-0.3,0.2-0.4,0.3c-0.1,0.1-0.1,0.2-0.1,0.4v0.2h-0.3v-2.2h0.3v0.2
		c0,0.2,0.1,0.3,0.2,0.4c0.1,0.1,0.3,0,0.5,0L366.7,68.2L366.7,68.2z M364.2,62c-0.1,0-0.2,0-0.3,0.1c-0.1,0.1-0.1,0.2-0.1,0.3v0.2
		h-0.3v-2.2h0.3v0.3c0,0.2,0,0.3,0.1,0.4c0.1,0.1,0.2,0.1,0.3,0.1h6.6v-0.1l-7.3-1.7v-0.3l7.2-1.6v-0.1h-6.5c-0.1,0-0.2,0-0.3,0.1
		c-0.1,0.1-0.1,0.2-0.1,0.3v0.2h-0.3v-1.5h0.3v0.1c0,0.2,0,0.3,0.1,0.4c0.1,0.1,0.2,0.1,0.3,0.1h7.2c0.1,0,0.2,0,0.3-0.1
		c0.1-0.1,0.1-0.2,0.1-0.3v-0.2h0.3v1.4l-6.6,1.4v0.1l6.6,1.6v1.6h-0.3v-0.2c0-0.1,0-0.2-0.1-0.3c-0.1-0.1-0.2-0.1-0.3-0.1L364.2,62
		L364.2,62z M363.8,46.7c0,0.5,0.2,0.9,0.5,1.3c0.3,0.4,0.8,0.5,1.3,0.5h5.9c0.1,0,0.2,0,0.3-0.1c0.1-0.1,0.1-0.2,0.1-0.4v-0.3h0.3
		v1.8h-0.3v-0.3c0-0.1,0-0.2-0.1-0.3c-0.1-0.1-0.2-0.1-0.3-0.1h-5.9c-0.7,0-1.2-0.2-1.6-0.7c-0.4-0.5-0.6-1-0.6-1.5
		c0-0.6,0.2-1.1,0.5-1.6c0.3-0.5,0.9-0.7,1.6-0.7h5.9c0.1,0,0.2,0,0.3-0.1c0.1-0.1,0.1-0.2,0.1-0.4v-0.3h0.3v2.2h-0.3v-0.3
		c0-0.1,0-0.2-0.1-0.3c-0.1-0.1-0.2-0.1-0.3-0.1h-5.9c-0.7,0-1.1,0.1-1.4,0.4C363.9,45.9,363.8,46.3,363.8,46.7z M364.2,37.7
		c-0.1,0-0.2,0-0.3,0.1c-0.1,0.1-0.1,0.2-0.1,0.3v1.4c0,0.5,0.1,0.9,0.4,1.2c0.3,0.3,0.7,0.6,1.3,0.8l-0.1,0.3l-2-0.5v-5.2h0.3v0.4
		c0,0.2,0,0.3,0.1,0.4s0.2,0.1,0.3,0.1h7.2c0.1,0,0.2,0,0.3-0.1c0.1-0.1,0.1-0.2,0.1-0.4v-0.3h0.3v2.4h-0.3v-0.4
		c0-0.1,0-0.2-0.1-0.3c-0.1-0.1-0.2-0.1-0.3-0.1L364.2,37.7L364.2,37.7z M363.8,31.2c0,0.5,0.2,0.9,0.5,1.3c0.3,0.4,0.8,0.5,1.3,0.5
		h5.9c0.1,0,0.2,0,0.3-0.1c0.1-0.1,0.1-0.2,0.1-0.4v-0.3h0.3v1.8h-0.3v-0.3c0-0.1,0-0.2-0.1-0.3c-0.1-0.1-0.2-0.1-0.3-0.1h-5.9
		c-0.7,0-1.2-0.2-1.6-0.7c-0.4-0.5-0.6-1-0.6-1.5c0-0.6,0.2-1.1,0.5-1.6c0.3-0.5,0.9-0.7,1.6-0.7h5.9c0.1,0,0.2,0,0.3-0.1
		c0.1-0.1,0.1-0.2,0.1-0.4v-0.3h0.3v2.2h-0.3v-0.3c0-0.1,0-0.2-0.1-0.3c-0.1-0.1-0.2-0.1-0.3-0.1h-5.9c-0.7,0-1.1,0.1-1.4,0.4
		C363.9,30.4,363.8,30.8,363.8,31.2z M363.8,22.9h-0.3v-2.4h0.3v0.4c0,0.2,0,0.3,0.1,0.4c0.1,0.1,0.2,0.1,0.3,0.1h7.2
		c0.1,0,0.2,0,0.3-0.1c0.1-0.1,0.1-0.2,0.1-0.4v-0.3h0.3v5.3l-1.8,0.6l-0.1-0.3c0.5-0.3,0.9-0.6,1.2-1c0.3-0.4,0.4-0.8,0.4-1.2v-1.4
		c0-0.1,0-0.2-0.1-0.3c-0.1-0.1-0.2-0.1-0.3-0.1h-3.2v1.7c0,0.3,0.1,0.6,0.2,0.7c0.1,0.1,0.4,0.2,0.7,0.2h0.3V25h-2.9v-0.3h0.2
		c0.4,0,0.7-0.1,0.9-0.2c0.2-0.2,0.3-0.4,0.3-0.7v-1.7h-3.7c-0.1,0-0.2,0-0.3,0.1c-0.1,0.1-0.1,0.2-0.1,0.3L363.8,22.9L363.8,22.9z"
		/>
	<path class="st1" d="M371.9,106.2c0-0.5-0.3-1-1-1.4c-0.7-0.4-1.7-0.6-3.2-0.6c-0.9,0-1.8,0.2-2.7,0.5c-0.8,0.3-1.3,0.9-1.3,1.6
		c0,0.4,0.1,0.7,0.2,0.9c0.2,0.2,0.4,0.3,0.7,0.4h1.7c0.2,0,0.4-0.1,0.5-0.2c0.1-0.1,0.1-0.3,0.1-0.5v-0.3h0.3v2.5H367v-0.3
		c0-0.2-0.1-0.3-0.1-0.4c-0.1-0.1-0.2-0.2-0.4-0.2h-2.5l0.1-0.2l0-0.2l0-0.2c0-0.1-0.1-0.1-0.1-0.2c-0.2-0.2-0.3-0.4-0.4-0.6
		c-0.1-0.2-0.1-0.5-0.1-0.7c0-1,0.4-1.8,1.3-2.2c0.9-0.5,1.9-0.7,3-0.7c1.2,0,2.3,0.3,3.2,0.8c0.9,0.6,1.3,1.3,1.3,2.1
		c0,0.2-0.1,0.4-0.2,0.7c-0.1,0.3-0.2,0.4-0.2,0.5c0,0.1,0,0.2,0.1,0.3c0,0.1,0.1,0.2,0.2,0.3l-2.3,0.4l-0.1-0.3
		c0.7-0.2,1.2-0.5,1.5-0.8C371.7,107,371.9,106.6,371.9,106.2L371.9,106.2z M365.5,100.3v0.1h5.9c0.1,0,0.2,0,0.3-0.1
		c0.1-0.1,0.1-0.2,0.1-0.4v-0.4h0.3v2h-0.3v-0.4c0-0.1,0-0.2-0.1-0.3c-0.1-0.1-0.2-0.1-0.3-0.1h-7.9v-0.3v0l7.5-3.9v-0.1h-6.8
		c-0.1,0-0.2,0-0.3,0.1c-0.1,0.1-0.1,0.2-0.1,0.3v0.4h-0.3v-2h0.3v0.4c0,0.2,0,0.3,0.1,0.4c0.1,0.1,0.2,0.1,0.3,0.1h7.2
		c0.1,0,0.2,0,0.3-0.1c0.1-0.1,0.1-0.2,0.1-0.4v-0.3h0.3v1.6L365.5,100.3L365.5,100.3z M371.2,90.4L371.2,90.4l-4.2-1.1v2.1
		L371.2,90.4L371.2,90.4z M366.7,91.5v-2.2l-1.9-0.5c-0.3-0.1-0.5-0.1-0.7,0c-0.2,0.1-0.3,0.2-0.3,0.5v0.2h-0.3v-1.9h0.3v0.2
		c0,0.1,0,0.3,0.1,0.4c0.1,0.1,0.2,0.2,0.4,0.2l7.7,2l0.3,0.8l-8,1.9c-0.2,0.1-0.3,0.2-0.4,0.3c-0.1,0.1-0.1,0.2-0.1,0.4v0.2h-0.3
		v-2.2h0.3v0.2c0,0.2,0.1,0.3,0.2,0.4c0.1,0.1,0.3,0,0.5,0L366.7,91.5L366.7,91.5z M363.5,84.1v-2.6h0.3V82c0,0.2,0,0.3,0.1,0.4
		c0.1,0.1,0.2,0.1,0.3,0.1h7.1c0.3,0,0.4,0,0.5,0c0,0,0-0.2,0-0.4c0-0.5-0.1-0.8-0.3-1c-0.2-0.2-0.6-0.4-1.4-0.7l0.1-0.3l1.9,0.5
		v4.8l-1.9,0.4l-0.1-0.3c0.7-0.3,1.2-0.5,1.3-0.6c0.2-0.1,0.3-0.5,0.3-0.9c0-0.3,0-0.5,0-0.6c0,0-0.2,0-0.5,0h-7
		c-0.1,0-0.2,0-0.3,0.1c-0.1,0.1-0.1,0.2-0.1,0.3v0.5L363.5,84.1L363.5,84.1z M365.5,77v0.1h5.9c0.1,0,0.2,0,0.3-0.1
		c0.1-0.1,0.1-0.2,0.1-0.4v-0.4h0.3v2h-0.3v-0.4c0-0.1,0-0.2-0.1-0.3c-0.1-0.1-0.2-0.1-0.3-0.1h-7.9v-0.3v0l7.5-3.9v-0.1h-6.8
		c-0.1,0-0.2,0-0.3,0.1c-0.1,0.1-0.1,0.2-0.1,0.3V74h-0.3v-2h0.3v0.4c0,0.2,0,0.3,0.1,0.4c0.1,0.1,0.2,0.1,0.3,0.1h7.2
		c0.1,0,0.2,0,0.3-0.1c0.1-0.1,0.1-0.2,0.1-0.4V72h0.3v1.6L365.5,77L365.5,77z M371.2,67.2L371.2,67.2l-4.2-1.1v2.1L371.2,67.2
		L371.2,67.2z M366.7,68.2V66l-1.9-0.5c-0.3-0.1-0.5-0.1-0.7,0c-0.2,0.1-0.3,0.2-0.3,0.5v0.2h-0.3v-1.9h0.3v0.1c0,0.1,0,0.3,0.1,0.4
		c0.1,0.1,0.2,0.2,0.4,0.2l7.7,2l0.3,0.8l-8,1.9c-0.2,0.1-0.3,0.2-0.4,0.3c-0.1,0.1-0.1,0.2-0.1,0.4v0.2h-0.3v-2.2h0.3v0.2
		c0,0.2,0.1,0.3,0.2,0.4c0.1,0.1,0.3,0,0.5,0L366.7,68.2L366.7,68.2z M364.2,62c-0.1,0-0.2,0-0.3,0.1c-0.1,0.1-0.1,0.2-0.1,0.3v0.2
		h-0.3v-2.2h0.3v0.3c0,0.2,0,0.3,0.1,0.4c0.1,0.1,0.2,0.1,0.3,0.1h6.6v-0.1l-7.3-1.7v-0.3l7.2-1.6v-0.1h-6.5c-0.1,0-0.2,0-0.3,0.1
		c-0.1,0.1-0.1,0.2-0.1,0.3v0.2h-0.3v-1.5h0.3v0.1c0,0.2,0,0.3,0.1,0.4c0.1,0.1,0.2,0.1,0.3,0.1h7.2c0.1,0,0.2,0,0.3-0.1
		c0.1-0.1,0.1-0.2,0.1-0.3v-0.2h0.3v1.4l-6.6,1.4v0.1l6.6,1.6v1.6h-0.3v-0.2c0-0.1,0-0.2-0.1-0.3c-0.1-0.1-0.2-0.1-0.3-0.1L364.2,62
		L364.2,62z M363.8,46.7c0,0.5,0.2,0.9,0.5,1.3c0.3,0.4,0.8,0.5,1.3,0.5h5.9c0.1,0,0.2,0,0.3-0.1c0.1-0.1,0.1-0.2,0.1-0.4v-0.3h0.3
		v1.8h-0.3v-0.3c0-0.1,0-0.2-0.1-0.3c-0.1-0.1-0.2-0.1-0.3-0.1h-5.9c-0.7,0-1.2-0.2-1.6-0.7c-0.4-0.5-0.6-1-0.6-1.5
		c0-0.6,0.2-1.1,0.5-1.6c0.3-0.5,0.9-0.7,1.6-0.7h5.9c0.1,0,0.2,0,0.3-0.1c0.1-0.1,0.1-0.2,0.1-0.4v-0.3h0.3v2.2h-0.3v-0.3
		c0-0.1,0-0.2-0.1-0.3c-0.1-0.1-0.2-0.1-0.3-0.1h-5.9c-0.7,0-1.1,0.1-1.4,0.4C363.9,45.9,363.8,46.3,363.8,46.7z M364.2,37.7
		c-0.1,0-0.2,0-0.3,0.1c-0.1,0.1-0.1,0.2-0.1,0.3v1.4c0,0.5,0.1,0.9,0.4,1.2c0.3,0.3,0.7,0.6,1.3,0.8l-0.1,0.3l-2-0.5v-5.2h0.3v0.4
		c0,0.2,0,0.3,0.1,0.4s0.2,0.1,0.3,0.1h7.2c0.1,0,0.2,0,0.3-0.1c0.1-0.1,0.1-0.2,0.1-0.4v-0.3h0.3v2.4h-0.3v-0.4
		c0-0.1,0-0.2-0.1-0.3c-0.1-0.1-0.2-0.1-0.3-0.1L364.2,37.7L364.2,37.7z M363.8,31.2c0,0.5,0.2,0.9,0.5,1.3c0.3,0.4,0.8,0.5,1.3,0.5
		h5.9c0.1,0,0.2,0,0.3-0.1c0.1-0.1,0.1-0.2,0.1-0.4v-0.3h0.3v1.8h-0.3v-0.3c0-0.1,0-0.2-0.1-0.3c-0.1-0.1-0.2-0.1-0.3-0.1h-5.9
		c-0.7,0-1.2-0.2-1.6-0.7c-0.4-0.5-0.6-1-0.6-1.5c0-0.6,0.2-1.1,0.5-1.6c0.3-0.5,0.9-0.7,1.6-0.7h5.9c0.1,0,0.2,0,0.3-0.1
		c0.1-0.1,0.1-0.2,0.1-0.4v-0.3h0.3v2.2h-0.3v-0.3c0-0.1,0-0.2-0.1-0.3c-0.1-0.1-0.2-0.1-0.3-0.1h-5.9c-0.7,0-1.1,0.1-1.4,0.4
		C363.9,30.4,363.8,30.8,363.8,31.2z M363.8,22.9h-0.3v-2.4h0.3v0.4c0,0.2,0,0.3,0.1,0.4c0.1,0.1,0.2,0.1,0.3,0.1h7.2
		c0.1,0,0.2,0,0.3-0.1c0.1-0.1,0.1-0.2,0.1-0.4v-0.3h0.3v5.3l-1.8,0.6l-0.1-0.3c0.5-0.3,0.9-0.6,1.2-1c0.3-0.4,0.4-0.8,0.4-1.2v-1.4
		c0-0.1,0-0.2-0.1-0.3c-0.1-0.1-0.2-0.1-0.3-0.1h-3.2v1.7c0,0.3,0.1,0.6,0.2,0.7c0.1,0.1,0.4,0.2,0.7,0.2h0.3V25h-2.9v-0.3h0.2
		c0.4,0,0.7-0.1,0.9-0.2c0.2-0.2,0.3-0.4,0.3-0.7v-1.7h-3.7c-0.1,0-0.2,0-0.3,0.1c-0.1,0.1-0.1,0.2-0.1,0.3L363.8,22.9L363.8,22.9z"
		/>
	<path class="st3" d="M329.3,241.4c7.5,0,13.5,6,13.5,13.5c0,7.5-6,13.5-13.5,13.5s-13.5-6-13.5-13.5
		C315.8,247.4,321.9,241.4,329.3,241.4"/>
	<path class="st4" d="M325.8,257.1c2.4-1.4,4.1-2.7,5.1-3.7c1-1,1.5-1.6,1.7-1.7c0.1-0.1,0.2-0.3,0.2-0.3c0-0.1-0.1-0.1-0.3-0.1H324
		c-0.3,0-0.5-0.1-0.6-0.3c-0.2-0.2-0.2-0.4-0.3-0.7c0-0.2,0.1-0.5,0.2-0.7c0.2-0.2,0.4-0.3,0.7-0.3h5c-0.1-0.2-0.3-0.5-0.6-0.8
		c-0.3-0.4-0.4-0.6-0.5-0.8c-0.1-0.2-0.1-0.3-0.1-0.4c0-0.1,0-0.3,0.1-0.4c0.2-0.5,0.5-0.7,1-0.7c0.6,0,1.1,0.4,1.4,1.1
		c0.4,0.7,0.6,1.1,0.6,1.3c0,0.2,0,0.3-0.1,0.5c-0.1,0.1-0.3,0.2-0.5,0.3h2.7c1.1,0,1.9,0.1,2.1,0.4c0.3,0.3,0.4,0.6,0.5,0.8
		c0,0.3,0,0.5-0.1,0.6c-0.1,0.4-0.9,1.3-2.2,2.6c-1.3,1.3-3.4,2.8-6.2,4.7c0.6,0.4,1,0.6,1.4,0.7c0.3,0.1,0.8,0.2,1.5,0.2
		c0.7,0.1,1.3,0.1,1.8,0.1c1.6,0,2.7-0.1,3.3-0.1c0.6,0,0.9-0.1,1-0.1c0.8,0,1.2,0.2,1.3,0.7c0.1,0.4,0,0.7-0.1,0.9
		c-0.1,0.2-0.3,0.3-0.5,0.4c-0.2,0.1-0.6,0.2-1.2,0.2c-0.5,0-1.5,0.1-3,0.1c-0.6,0-1.1,0-1.6,0c-0.5,0-1.1-0.1-1.9-0.2
		c-0.8-0.1-1.5-0.3-2-0.7c-0.5-0.4-0.9-0.7-1.1-0.9c-0.2-0.3-0.4-0.4-0.5-0.5c-0.1-0.1-0.2-0.1-0.4,0.1c-0.1,0.1-0.2,0.2-0.3,0.4
		c-0.1,0.2-0.3,0.4-0.5,0.7c-0.2,0.2-0.4,0.4-0.5,0.5c-0.2,0.1-0.3,0.1-0.5,0.1c-0.3,0-0.6-0.1-0.7-0.3c-0.2-0.2-0.3-0.4-0.3-0.6
		c0-0.2,0-0.4,0.1-0.6c0-0.1,0.2-0.2,0.4-0.5c0.3-0.3,0.6-0.8,1-1.5c0.4-0.7,0.7-1.1,0.9-1.1c0.2,0,0.4,0,0.5,0.2
		C325.4,256.7,325.5,256.8,325.8,257.1"/>
</g>
<path class="st5" d="M0,0h640v287.3H0V0z"/>
</svg>
