<?xml version="1.0" encoding="utf-8"?>
<!-- Generator: Adobe Illustrator 17.0.0, SVG Export Plug-In . SVG Version: 6.00 Build 0)  -->
<!DOCTYPE svg PUBLIC "-//W3C//DTD SVG 1.1//EN" "http://www.w3.org/Graphics/SVG/1.1/DTD/svg11.dtd">
<svg version="1.1" id="Layer_1" xmlns="http://www.w3.org/2000/svg" xmlns:xlink="http://www.w3.org/1999/xlink" x="0px" y="0px"
	 width="640px" height="146.1px" viewBox="0 0 640 146.1" style="enable-background:new 0 0 640 146.1;" xml:space="preserve">
<style type="text/css">
	.st0{fill-rule:evenodd;clip-rule:evenodd;fill:#AB192A;}
	.st1{fill:#FFFFFF;}
	.st2{fill-rule:evenodd;clip-rule:evenodd;fill:#AA192A;}
	.st3{fill:none;}
</style>
<g>
	<path class="st0" d="M68.3,68.2l27.1-27.1h448.9l27.1,27.1c-2.7,2.7-2.7,7.1,0,9.7L544.3,105H95.4L68.3,77.9
		C71,75.2,71,70.9,68.3,68.2"/>
	<path class="st1" d="M129.2,73.2v-5.8h-16.7v5.8H129.2z M129.2,66.3v-5.6h-16.7v5.6H129.2z M112.5,74.3v1.8c0,0.3-0.1,0.6-0.3,0.9
		c-0.2,0.3-0.7,0.5-1.6,0.5c-0.9,0-1.4,0-1.5-0.2c-0.1-0.2-0.2-0.4-0.3-0.6l0.2-3.6V61.4l-0.2-3.7c0.1-0.1,0.1-0.1,0.2-0.1
		c0,0,0.2,0.1,0.5,0.2l3.2,1.8h16.4l1.3-1.6c0.3-0.4,0.5-0.5,0.5-0.5c0.1,0,0.2,0.1,0.4,0.2l3,2c0.3,0.2,0.4,0.4,0.4,0.5
		c0,0.1-0.1,0.3-0.2,0.4l-1.2,1.1v10l0.2,3.7c0,0.3-0.1,0.5-0.1,0.6c-0.1,0.2-0.3,0.3-0.8,0.5c-0.4,0.2-1,0.3-1.9,0.4
		c-0.9,0-1.4-0.3-1.4-1.1v-1.7h-9.4l3.9,1c0.2,0.1,0.3,0.1,0.4,0.2c0,0.1,0.1,0.1,0.1,0.2c0,0-0.1,0.2-0.3,0.3l-1,1v3.9h10.5
		l1.8-2.4c0.3-0.4,0.5-0.6,0.6-0.6c0.1,0,0.3,0.1,0.6,0.4l3.2,2.9c0.2,0.2,0.3,0.4,0.3,0.6c0,0.2-0.1,0.3-0.4,0.3h-16.6v8l0.2,3.6
		c0,0.2-0.1,0.5-0.2,0.8c-0.1,0.3-0.8,0.5-1.8,0.5c-1.1,0-1.7,0-1.8-0.2c-0.1-0.2-0.2-0.4-0.2-0.6l0.2-3.8V82h-16.2h-0.1
		c-0.2,0-0.3-0.1-0.4-0.2c-0.1-0.1-0.1-0.3-0.1-0.5c0-0.3,0.2-0.4,0.6-0.4H119v-3.7l-0.1-2.8H112.5z"/>
	<path class="st1" d="M170.2,74.1c0,1.3,0,2.4-0.1,3.1c0,0.7,0,1.5,0,2.2c0,0.7-0.1,1.6-0.1,2.7c0,1.1-0.1,1.9-0.2,2.2l-0.3,1.9
		c3.5,0.7,5.9,1.5,7.3,2.3c1.4,0.8,2.2,1.5,2.5,2.2c0.3,0.7,0.4,1.2,0.4,1.5c0,0.4-0.2,0.8-0.5,1.3c-0.3,0.5-0.8,0.8-1.5,0.8
		c-0.4,0-0.7-0.1-1-0.3c-0.3-0.2-0.5-0.5-0.8-0.9l-0.6-1.1c-0.8-1.4-1.5-2.3-2.3-2.9c-0.7-0.6-2-1.3-3.7-2.2
		c-0.2,0.5-0.5,0.9-0.8,1.5c-0.3,0.5-1.2,1.3-2.7,2.5c-1.5,1.1-3.8,2.2-7.1,3.1l-1.4,0.4c-0.1,0-0.3,0.1-0.3,0.1c-0.1,0-0.1,0-0.2,0
		c-0.1,0-0.1-0.1-0.1-0.2c0-0.1,0.1-0.2,0.5-0.4l1.5-0.7c2.1-0.9,3.7-2,4.9-3.1c1.2-1.2,2-2.2,2.4-3.2c0.4-0.9,0.6-1.9,0.7-2.8
		c0.1-0.9,0.1-2,0.2-3.1c0-1.1,0-2,0-2.6l0-2.9v-1.9l-0.1-1.3c0.1-0.1,0.1-0.2,0.2-0.2l0.3,0.1l3.4,0.6c0.2,0.1,0.4,0.1,0.5,0.2
		c0.1,0,0.1,0.1,0.1,0.3c0,0.1-0.1,0.3-0.3,0.4L170.2,74.1z M153.5,62.5h-10c-0.3,0-0.5-0.2-0.6-0.6c-0.1-0.4,0.1-0.6,0.6-0.6h10.1
		l0.8-1.1c0.2-0.3,0.4-0.4,0.5-0.4c0.1,0,0.3,0.1,0.6,0.3l3.1,2.3c0.2,0.2,0.3,0.4,0.3,0.6c0,0.2-0.2,0.4-0.5,0.5l-1,0.2
		c-0.4,0.1-1.1,0.5-1.9,1c-0.8,0.6-2,1.5-3.6,2.7c0.3,0.3,0.5,0.6,0.8,0.9c0.3,0.4,0.4,0.8,0.4,1.4c0,0.5-0.2,1-0.5,1.4
		c-0.4,0.4-0.8,0.7-1.5,0.7c-0.6,0-1.1-0.2-1.3-0.6c-0.3-0.4-0.4-0.9-0.6-1.4c-0.1-0.5-0.3-1-0.4-1.4c-0.1-0.4-0.3-0.7-0.5-0.9
		c-0.2-0.2-0.5-0.5-0.8-0.8l-0.8-0.7c-0.1,0-0.1-0.1-0.1-0.2c0-0.1,0.1-0.2,0.3-0.2c0.1,0,0.5,0.1,1.3,0.3c0.8,0.2,1.7,0.6,2.8,1.1
		C152.4,64.7,153.2,63.2,153.5,62.5z M173.9,69.5h-10.3v16.2c0,0.2-0.1,0.3-0.2,0.5c-0.1,0.2-0.5,0.4-1,0.5
		c-0.5,0.2-0.9,0.2-1.2,0.2c-0.4,0-0.6-0.1-0.7-0.3c-0.1-0.1-0.2-0.3-0.2-0.5l0.2-5v-9.5l-0.3-4.7c0.1-0.1,0.2-0.1,0.3,0l0.9,0.5
		l2.2,1h2.4c0.1-0.7,0.2-1.5,0.3-2.4c0.1-0.9,0.3-2.2,0.5-3.8h-6.8l-0.3-0.1c-0.1-0.1-0.2-0.3-0.2-0.6c0-0.3,0.2-0.4,0.6-0.4h14.3
		l1.4-1.9c0.2-0.3,0.4-0.5,0.5-0.5c0.1,0,0.3,0.1,0.8,0.4l2.6,2c0.2,0.2,0.4,0.3,0.4,0.5c0.1,0.1,0.1,0.2,0.1,0.4
		c0,0.1-0.2,0.2-0.8,0.2h-8l-1.1,1c-0.5,1.1-0.8,2-1.1,2.5l-1,2.2l-0.2,0.4h5.8l0.8-1.2c0.2-0.3,0.3-0.4,0.4-0.4
		c0.1,0,0.3,0.1,0.6,0.3l2.7,1.7c0.2,0.1,0.4,0.3,0.4,0.4c0,0.1-0.1,0.3-0.4,0.4l-0.9,0.8v10.8l0.2,3.2c-0.1,0.3-0.2,0.6-0.5,0.9
		c-0.2,0.3-0.8,0.5-1.5,0.5c-0.8,0-1.2-0.1-1.4-0.2c-0.2-0.2-0.2-0.3-0.2-0.5V69.5z M153,73.2l-0.2,0.4v18.1c0,0.5-0.3,0.9-0.7,1.3
		c-0.5,0.4-1.1,0.7-1.9,0.9c-0.8,0.2-1.3,0.3-1.6,0.3c-0.1,0-0.2,0-0.2-0.1c0,0,0-0.1,0-0.1c0,0,0-0.4,0-1c0-0.6-0.6-1.2-1.7-1.6
		l-1.1-0.4c-0.1,0-0.2-0.1-0.2-0.1c-0.1-0.1-0.1-0.1-0.1-0.2c0-0.1,0-0.1,0.1-0.2c0.1-0.1,0.2-0.1,0.3-0.1l1.5,0.1
		c0.9,0.1,1.4,0.1,1.5,0.1c0.7,0,1-0.2,1-0.6V73.2h-6.9c-0.4,0-0.6-0.2-0.6-0.5v-0.2c0-0.1,0.1-0.2,0.1-0.2l0.2-0.1l0.2-0.1h12.7
		l0.8-1.1c0.2-0.3,0.4-0.4,0.5-0.4c0.1,0,0.4,0.1,0.7,0.4l2.1,1.8c0.4,0.3,0.5,0.6,0.5,0.8c0,0.2-0.1,0.3-0.3,0.4
		c-0.2,0.1-0.4,0.2-0.9,0.2c-0.4,0.1-0.8,0.2-1,0.3c-0.3,0.1-0.6,0.4-1,0.9c-0.4,0.5-0.7,0.8-0.9,1.1l-1,1.4
		c-0.1,0.2-0.3,0.2-0.4,0.2c-0.1,0-0.1,0-0.1-0.1c0,0,0-0.1,0-0.2c0-0.1,0-0.2,0-0.2l1-4.4H153z"/>
	<path class="st1" d="M203.6,59.6l-0.7-0.9c-0.1-0.1-0.2-0.2-0.2-0.4c0-0.1,0.1-0.2,0.4-0.2c0.2,0,0.9,0.1,2,0.3
		c1.1,0.2,2,0.7,2.8,1.5c0.8,0.8,1.2,1.6,1.2,2.4c0,0.8-0.3,1.5-0.8,2c-0.5,0.5-1.1,0.8-1.8,0.8c-0.6,0-1.2-0.2-1.5-0.6
		c-0.4-0.4-0.6-1-0.6-1.7l0-1.3c0-0.6,0-1-0.2-1.2C204.1,60.2,203.9,59.9,203.6,59.6 M192.9,61.1h-4.7v26.9l0.2,4.9
		c-0.2,0.5-0.5,0.9-1,1.1c-0.5,0.2-0.9,0.3-1.4,0.3c-0.5,0-0.8-0.1-1-0.2c-0.2-0.2-0.3-0.3-0.4-0.6l0.2-6.8V64l-0.2-5.6
		c0.1,0,0.1-0.1,0.2-0.1c0.1,0,0.3,0.1,0.8,0.4l2.2,1.2h5.1l0.8-1.2c0.1-0.1,0.2-0.2,0.3-0.3c0.1,0,0.3,0.1,0.6,0.3l3.2,2
		c0.3,0.2,0.5,0.4,0.5,0.5c0,0.2-0.3,0.3-0.7,0.5l-1.1,0.5c-1.3,2-2.1,3.2-2.3,3.6l-2.2,3.8c1.1,1.1,2.4,2.4,3.7,4
		c1.3,1.6,2,3.5,2,5.8c0,1.2-0.3,2.2-0.9,3.1c-0.6,0.9-1.3,1.6-2.3,2l-2.1,0.7c-0.2,0.1-0.3,0.1-0.3,0.1c-0.2,0-0.3-0.2-0.4-0.5
		l-0.2-1c-0.1-0.3-0.3-0.6-0.5-0.9c-0.3-0.3-0.6-0.5-0.9-0.6L189,82c-0.2-0.1-0.3-0.2-0.2-0.4c0-0.2,0.1-0.3,0.2-0.3h1.4
		c0.5,0,1.1-0.1,1.8-0.3c0.7-0.2,1.2-0.7,1.3-1.5c0.2-0.8,0.2-1.5,0.2-1.9c0-0.5-0.1-1.2-0.3-1.9c-0.2-0.7-0.4-1.5-0.8-2.3
		c-0.4-0.8-0.7-1.5-1.1-2l-0.8-1.2l-0.3-0.4l0.1-0.3l0.5-1.8c0.4-1.4,0.7-2.7,1-3.7l0.6-2.6L192.9,61.1z M202.3,66.9h-7.4
		c-0.3,0-0.5-0.2-0.5-0.5c0-0.4,0.2-0.5,0.5-0.5h18.9l2-2.4c0.4-0.5,0.6-0.7,0.8-0.7c0.1,0,0.3,0.1,0.6,0.4l3,2.8
		c0.1,0.1,0.2,0.2,0.3,0.3c0.1,0.1,0.1,0.2,0.1,0.3c0,0.1,0,0.1-0.1,0.2c-0.1,0.1-0.2,0.1-0.4,0.1h-14.3l1.4,0.5
		c0.3,0.1,0.4,0.2,0.4,0.2c0,0.1,0,0.1,0,0.1c0,0.2-0.1,0.4-0.3,0.5l-0.9,0.6c-0.1,1-0.1,2-0.2,2.9c-0.1,0.9-0.1,1.3-0.1,1.4l0,0.5
		h6.6l1-1.2c0.2-0.2,0.4-0.4,0.5-0.4c0.1,0,0.3,0.1,0.6,0.3l2.9,2c0.2,0.1,0.3,0.3,0.3,0.3c0,0.1,0.1,0.1,0.1,0.2c0,0.1,0,0.1,0,0.1
		c0,0-0.1,0.1-0.1,0.2c-0.1,0.1-0.2,0.2-0.3,0.2l-1.2,0.6c-0.1,1.3-0.2,2.5-0.3,3.6c-0.1,1.2-0.3,2.6-0.5,4.4
		c-0.2,1.8-0.5,3.4-0.9,4.8c-0.4,1.4-0.9,2.5-1.5,3.2c-0.6,0.7-1.4,1.3-2.5,1.8c-1.1,0.5-1.9,0.8-2.4,0.8c-0.1,0-0.2,0-0.2,0
		c0,0-0.1-0.1-0.1-0.1l-0.4-1.2c-0.1-0.2-0.3-0.5-0.6-0.9c-0.3-0.3-0.6-0.6-1-0.8l-1.6-0.7c-0.1-0.1-0.2-0.1-0.3-0.2
		c-0.1-0.1-0.1-0.2-0.1-0.2c0-0.2,0.2-0.3,0.6-0.3l2.1,0.2c0.5,0,1.1,0,1.8-0.1c0.7-0.1,1.3-0.3,1.8-0.7c0.5-0.4,0.9-1.5,1.3-3.4
		c0.4-1.9,0.6-3.5,0.8-4.8c0.1-1.4,0.3-2.7,0.4-3.9c0.1-1.2,0.1-2.1,0.2-2.7H206c0,0.2-0.1,0.4-0.1,0.5l-0.3,2.3
		c-0.2,1.1-0.4,2.3-0.7,3.4c-0.3,1.1-0.9,2.5-1.7,4.2c-0.9,1.7-2.1,3.2-3.9,4.5c-1.7,1.4-3.7,2.6-5.7,3.6l-1.4,0.7
		c-0.1,0.1-0.3,0.1-0.4,0.1c-0.1,0-0.2,0-0.2-0.1c0-0.1,0-0.2-0.1-0.3c0-0.1,0.1-0.3,0.3-0.4l1.1-0.8c0.6-0.5,1.7-1.4,3.3-2.8
		c1.5-1.4,2.7-3,3.5-4.7c0.8-1.7,1.4-3.3,1.7-4.7c0.3-1.4,0.6-3.2,0.8-5.3c0.2-2.1,0.3-4,0.3-5.7c0-0.7,0-1.3,0-1.7L202.3,66.9z"/>
	<path class="st1" d="M226,87.3c-0.1-0.2-0.2-0.4-0.1-0.6c0.1-0.1,0.3-0.2,0.6-0.2c0.2,0,0.6,0.1,1,0.3l1.4,0.6
		c0.9,0.4,1.7,0.9,2.6,1.4c0.9,0.6,1.5,1.2,2,1.8c0.5,0.6,0.7,1.3,0.8,2c0,0.7-0.1,1.3-0.5,1.8c-0.4,0.5-0.9,0.7-1.6,0.6
		c-0.4,0-0.8-0.2-1.1-0.6c-0.3-0.3-0.6-0.7-0.7-1l-0.3-1c-0.1-0.3-0.3-0.7-0.5-1.2c-0.2-0.5-0.5-0.9-0.7-1.2
		c-0.2-0.3-0.5-0.6-0.8-0.9l-1.5-1.3C226.2,87.5,226,87.3,226,87.3"/>
	<path class="st1" d="M289.9,73.2v-5.8h-16.7v5.8H289.9z M289.9,66.3v-5.6h-16.7v5.6H289.9z M273.2,74.3v1.8c0,0.3-0.1,0.6-0.3,0.9
		c-0.2,0.3-0.7,0.5-1.6,0.5c-0.9,0-1.4,0-1.5-0.2c-0.1-0.2-0.2-0.4-0.3-0.6l0.2-3.6V61.4l-0.2-3.7c0.1-0.1,0.1-0.1,0.2-0.1
		c0,0,0.2,0.1,0.5,0.2l3.2,1.8h16.4l1.3-1.6c0.3-0.4,0.5-0.5,0.5-0.5c0.1,0,0.2,0.1,0.4,0.2l3,2c0.3,0.2,0.4,0.4,0.4,0.5
		c0,0.1-0.1,0.3-0.2,0.4l-1.2,1.1v10l0.2,3.7c0,0.3-0.1,0.5-0.1,0.6c-0.1,0.2-0.3,0.3-0.8,0.5c-0.4,0.2-1,0.3-1.9,0.4
		c-0.9,0-1.4-0.3-1.4-1.1v-1.7h-9.4l3.9,1c0.2,0.1,0.3,0.1,0.4,0.2c0,0.1,0.1,0.1,0.1,0.2c0,0-0.1,0.2-0.3,0.3l-1,1v3.9H294l1.8-2.4
		c0.3-0.4,0.5-0.6,0.6-0.6c0.1,0,0.3,0.1,0.6,0.4l3.2,2.9c0.2,0.2,0.3,0.4,0.3,0.6c0,0.2-0.1,0.3-0.4,0.3h-16.6v8l0.2,3.6
		c0,0.2-0.1,0.5-0.2,0.8c-0.1,0.3-0.8,0.5-1.8,0.5c-1.1,0-1.7,0-1.8-0.2c-0.1-0.2-0.2-0.4-0.2-0.6l0.2-3.8V82h-16.2h-0.1
		c-0.2,0-0.3-0.1-0.4-0.2c-0.1-0.1-0.1-0.3-0.1-0.5c0-0.3,0.2-0.4,0.6-0.4h16.2v-3.7l-0.1-2.8H273.2z"/>
	<path class="st1" d="M325.8,62l-1.2-0.7c-0.1-0.1-0.2-0.1-0.2-0.2c0-0.1-0.1-0.1-0.1-0.2c0-0.1,0-0.1,0.1-0.2
		c0.1-0.1,0.3-0.2,0.7-0.2c0.8,0,2,0.2,3.6,0.6c1.6,0.4,2.8,1,3.5,1.8c0.7,0.8,1.1,1.6,1,2.3c0,0.6-0.2,1.2-0.7,1.7
		c-0.4,0.6-1,0.8-1.8,0.8c-0.5,0-0.9-0.1-1.3-0.4c-0.4-0.3-0.6-0.6-0.7-1c-0.1-0.3-0.3-0.8-0.5-1.3c-0.2-0.5-0.5-1-0.8-1.6
		C327.1,63,326.5,62.5,325.8,62 M328.2,75.9h-9.1c0.1,0.4,0.4,1,0.7,2c0.3,0.9,0.9,2,1.7,3.1c0.8,1.2,1.7,2.2,2.7,3.2
		c1.1-1.7,1.8-2.9,2.1-3.7c0.3-0.7,0.7-1.6,1.1-2.6C327.8,77,328.1,76.3,328.2,75.9z M309.8,68.7h6.2c0-0.3,0.1-1.1,0.3-2.4
		c0.2-1.3,0.4-2.5,0.4-3.6l0.3-3.6l0.1-1.9c0.1,0,0.1-0.1,0.2-0.1c0,0,0.3,0,0.6,0.1l4.4,1.2c0.4,0.1,0.5,0.2,0.5,0.4
		c0,0.2-0.2,0.4-0.6,0.6l-0.9,0.5c-0.2,1.2-0.3,2.3-0.5,3.5c-0.2,1.2-0.3,2.2-0.5,3c-0.1,0.8-0.3,1.6-0.5,2.3h13.3l1.9-2.4
		c0.3-0.4,0.5-0.6,0.6-0.6c0.1,0,0.3,0.2,0.7,0.5l2.7,2.3c0.5,0.5,0.8,0.8,0.7,1c0,0.1-0.1,0.2-0.2,0.2c-0.1,0.1-0.2,0.1-0.4,0.1h-4
		h-15.6c-0.4,1.6-0.6,2.5-0.7,2.8l-0.5,1.8l-0.1,0.5h9.8l1-1.3c0.2-0.3,0.4-0.4,0.6-0.4c0.1,0,0.3,0.1,0.5,0.2l3.3,2.5
		c0.2,0.1,0.3,0.2,0.3,0.3c0,0.1,0.1,0.2,0.1,0.3c0,0.1-0.1,0.2-0.4,0.3l-1.3,0.5c-0.8,1.8-1.6,3.4-2.4,4.6
		c-0.7,1.3-1.7,2.7-2.9,4.2c1.9,1,3.5,1.8,4.6,2.2c1.2,0.5,2.5,0.9,4.1,1.3c1.6,0.4,2.8,0.7,3.6,0.7l1.2,0.1c0.2,0,0.4,0.1,0.4,0.4
		c0,0.2-0.1,0.4-0.4,0.4l-1.3,0.4c-0.5,0.1-0.8,0.3-1.1,0.6c-0.3,0.2-0.6,0.6-1,1c-0.4,0.4-0.6,0.8-0.8,1.1
		c-0.2,0.3-0.4,0.4-0.5,0.4c-0.3,0-1.6-0.5-3.9-1.5c-2.3-1-4.8-2.6-7.5-4.7c-0.9,0.7-1.9,1.4-3,2.2c-1.1,0.7-2.9,1.6-5.4,2.5
		c-2.5,0.9-4.7,1.5-6.4,1.9l-1.4,0.2c0,0-0.1,0-0.2,0c-0.1,0-0.2,0-0.3-0.1c-0.1,0-0.1-0.1-0.1-0.3c0-0.1,0.2-0.2,0.5-0.4l1.4-0.5
		c3.1-1.1,5.6-2.3,7.6-3.6c1.9-1.3,3.7-2.7,5.2-4.3c-0.9-1.3-1.6-2.4-2.1-3.3c-0.4-0.9-0.8-1.7-0.9-2.3c-0.2-0.6-0.4-1.5-0.6-2.6
		c-0.2-1.1-0.4-1.8-0.5-2.3h-0.2c-0.9,2.3-2.3,4.9-4.3,7.9c-2,3-4.8,5.7-8.5,8.2l-1.3,0.9c-0.3,0.2-0.5,0.2-0.5,0.1
		c-0.1-0.1-0.1-0.2-0.1-0.3c0-0.1,0.1-0.2,0.2-0.3l1.3-1.4c1.1-1.1,2.4-2.6,4.1-4.4c1.7-1.8,3.1-4.4,4.2-7.7
		c1.2-3.3,1.9-5.6,2.2-6.9l0.4-1.8l0.1-0.4h-6.3l-1.2,1.4l-0.3,0.4c-0.1,0.1-0.1,0.1-0.2,0.2c-0.1,0-0.3-0.2-0.8-0.5l-1.9-1.5
		c-0.3-0.2-0.4-0.3-0.4-0.4c0-0.1,0.1-0.2,0.3-0.3l0.8-0.6c0.2-0.1,0.4-0.4,0.6-0.9c0.2-0.4,0.6-1.3,1-2.7c0.4-1.3,0.6-2.2,0.7-2.6
		l0.5-1.9l0.2-1.1c0.1,0,0.3,0,0.8,0.2l3.6,1.5c0.3,0.2,0.5,0.3,0.5,0.5c0,0.1-0.1,0.3-0.4,0.4l-1.1,0.6L309.8,68.7z"/>
	<path class="st1" d="M369.4,66.1c0,0.9-0.1,2-0.1,3.2c0,1.2,0,2.1-0.1,2.6c0,0.5-0.1,1.3-0.2,2.4c-0.1,1.1-0.2,1.8-0.2,2.2
		l-0.1,0.9l2.9,1.1c0.5,0.2,0.7,0.3,0.8,0.4c0,0.1,0.1,0.1,0.1,0.1c0,0,0,0.1-0.1,0.1c0,0.1-0.1,0.1-0.1,0.2l-0.7,0.6v10
		c0,0.2,0,0.3,0.1,0.5c0.1,0.2,0.6,0.3,1.4,0.3c1.9,0.1,3.1,0,3.6-0.3c0.5-0.3,0.9-0.7,1.3-1.1c0.4-0.5,0.8-1.5,1.3-3l0.6-1.9
		c0.1-0.3,0.2-0.4,0.4-0.4c0.2,0,0.2,0.1,0.3,0.2c0,0.1,0,0.2,0,0.2l-0.1,1c-0.1,0.6-0.2,1.2-0.2,1.7c-0.1,0.5-0.1,0.9-0.1,1.2
		c0,0.4,0,0.7,0.1,1c0.1,0.2,0.3,0.5,0.5,1c0.2,0.4,0.4,0.8,0.4,1.1c0,0.3-0.1,0.6-0.3,1c-0.2,0.3-0.5,0.6-0.8,0.8
		c-0.3,0.2-1,0.4-2,0.6c-1,0.2-2.2,0.3-3.6,0.3c-2.4,0-4.1-0.3-4.9-0.8c-0.8-0.5-1.3-1.4-1.3-2.5V80.1c-0.3,0.9-0.6,1.7-1,2.4
		c-0.3,0.8-0.9,1.8-1.8,3.1c-0.9,1.3-2.7,2.7-5.4,4.2c-2.7,1.5-5.5,2.7-8.5,3.6l-1.2,0.3c0,0-0.1,0-0.2,0c0,0-0.1,0-0.2-0.1
		c-0.1,0-0.1-0.1-0.1-0.3c0-0.1,0.1-0.2,0.4-0.4l1.5-0.6c0.4-0.2,1.1-0.5,2.2-1.1c1.1-0.6,2.1-1.2,3-1.7c0.9-0.6,2.2-1.6,3.8-3.2
		c1.6-1.5,2.8-3.3,3.4-5.3c0.7-2,1.1-3.9,1.2-5.8c0.1-1.9,0.2-3.7,0.2-5.5c0-0.2,0-0.6,0-1c0-0.5,0-1.3,0-2.5V65l-0.1-1.4
		c0,0,0.1,0,0.1-0.1l1.1,0.3l3.1,0.8c0.4,0.1,0.6,0.2,0.6,0.4c0,0.1-0.1,0.3-0.4,0.5L369.4,66.1z M362.4,61.1v18.2l0,1.4
		c-0.2,0.9-0.9,1.3-2.2,1.3c-0.6,0-0.9-0.1-1.1-0.2c-0.2-0.2-0.3-0.3-0.3-0.6l0.2-3.5V62.1l-0.2-3.8c0.1,0,0.1-0.1,0.1-0.1
		c0,0,0.3,0.1,0.9,0.4l2.7,1.3h10.5l1-1.3c0.2-0.3,0.4-0.5,0.4-0.5c0,0,0.2,0.1,0.4,0.2l3,2.1c0.2,0.1,0.3,0.3,0.3,0.4
		c0,0.1-0.1,0.3-0.3,0.4l-1.1,1V77l0.2,3.5c-0.1,0.5-0.5,0.8-1,1c-0.5,0.2-1.1,0.3-1.7,0.3c-0.4,0-0.7,0-0.9-0.1
		c-0.2-0.1-0.3-0.2-0.3-0.4l0-1.5V61.1H362.4z M351.7,71.9h1.6l1-1.4c0.3-0.4,0.5-0.6,0.5-0.5c0.1,0,0.3,0.1,0.5,0.3l2.2,2.1
		c0.2,0.2,0.3,0.4,0.3,0.5c0,0.1-0.2,0.2-0.4,0.2h-5.8v9c1.3-0.3,2.9-0.8,4.8-1.4l1.1-0.3c0.2-0.1,0.4,0,0.4,0.2
		c0,0.2-0.1,0.3-0.2,0.4l-0.9,0.5c-0.5,0.3-1.4,0.8-2.9,1.6c-1.5,0.8-2.6,1.4-3.3,1.7l-3.7,1.9l-1.4,0.8c-0.8,0.4-1.2,0.6-1.3,0.6
		c-0.1,0-0.1-0.1-0.2-0.3l-1.4-3.1l-0.3-0.6c0-0.1,0-0.1,0.1-0.1c0,0,0.3-0.1,0.9-0.2l1.3-0.2c1-0.1,2.1-0.4,3.5-0.8v-9.7h-4.9
		c-0.3,0-0.4-0.2-0.5-0.6c0-0.4,0.1-0.6,0.5-0.6h4.9v-8.8h-5.5c-0.2,0-0.4-0.2-0.4-0.6c0-0.4,0.1-0.6,0.6-0.6h10.2l1.1-1.5
		c0.3-0.5,0.5-0.7,0.6-0.8c0,0,0.2,0.1,0.5,0.3l2.8,2.5c0.1,0.1,0.2,0.2,0.2,0.4c0,0.1-0.1,0.2-0.4,0.2h-5.2l-0.9,0.8V71.9z"/>
	<path class="st1" d="M386.7,87.3c-0.1-0.2-0.2-0.4-0.1-0.6c0.1-0.1,0.3-0.2,0.6-0.2c0.2,0,0.6,0.1,1,0.3l1.4,0.6
		c0.9,0.4,1.7,0.9,2.6,1.4c0.9,0.6,1.5,1.2,2,1.8c0.5,0.6,0.7,1.3,0.8,2c0,0.7-0.1,1.3-0.5,1.8c-0.4,0.5-0.9,0.7-1.6,0.6
		c-0.4,0-0.8-0.2-1.1-0.6c-0.3-0.3-0.6-0.7-0.7-1l-0.3-1c-0.1-0.3-0.3-0.7-0.5-1.2c-0.2-0.5-0.5-0.9-0.7-1.2
		c-0.2-0.3-0.5-0.6-0.8-0.9l-1.5-1.3C386.9,87.5,386.7,87.3,386.7,87.3"/>
	<path class="st1" d="M450.6,73.2v-5.8h-16.7v5.8H450.6z M450.6,66.3v-5.6h-16.7v5.6H450.6z M433.9,74.3v1.8c0,0.3-0.1,0.6-0.3,0.9
		c-0.2,0.3-0.7,0.5-1.6,0.5c-0.9,0-1.4,0-1.5-0.2c-0.1-0.2-0.2-0.4-0.3-0.6l0.2-3.6V61.4l-0.2-3.7c0.1-0.1,0.1-0.1,0.2-0.1
		c0,0,0.2,0.1,0.5,0.2l3.2,1.8h16.4l1.3-1.6c0.3-0.4,0.5-0.5,0.5-0.5c0.1,0,0.2,0.1,0.4,0.2l3,2c0.3,0.2,0.4,0.4,0.4,0.5
		c0,0.1-0.1,0.3-0.2,0.4l-1.2,1.1v10l0.2,3.7c0,0.3-0.1,0.5-0.1,0.6c-0.1,0.2-0.3,0.3-0.8,0.5c-0.4,0.2-1,0.3-1.9,0.4
		c-0.9,0-1.4-0.3-1.4-1.1v-1.7h-9.4l3.9,1c0.2,0.1,0.3,0.1,0.4,0.2c0,0.1,0.1,0.1,0.1,0.2c0,0-0.1,0.2-0.3,0.3l-1.1,1v3.9h10.5
		l1.8-2.4c0.3-0.4,0.5-0.6,0.6-0.6c0.1,0,0.3,0.1,0.6,0.4l3.2,2.9c0.2,0.2,0.3,0.4,0.3,0.6c0,0.2-0.1,0.3-0.4,0.3h-16.6v8l0.2,3.6
		c0,0.2-0.1,0.5-0.2,0.8c-0.1,0.3-0.8,0.5-1.8,0.5c-1.1,0-1.7,0-1.8-0.2c-0.1-0.2-0.2-0.4-0.2-0.6l0.2-3.8V82h-16.2h-0.1
		c-0.2,0-0.3-0.1-0.4-0.2c-0.1-0.1-0.1-0.3-0.1-0.5c0-0.3,0.2-0.4,0.6-0.4h16.2v-3.7l-0.1-2.8H433.9z"/>
	<path class="st1" d="M464.5,69c0,0-0.1-0.1-0.1-0.2c0-0.1,0.2-0.2,0.5-0.3c0,0,0.1,0,0.3,0l1.2,0.1c0.8,0.1,1.7,0.3,2.8,0.8
		c1.1,0.4,1.7,1,1.7,1.9c0,0.8-0.2,1.5-0.5,2.1c-0.4,0.6-0.9,0.8-1.5,0.8c-0.4,0-0.8-0.1-1.1-0.4c-0.3-0.3-0.6-0.6-0.8-1.1l-0.3-1.1
		c-0.3-0.8-0.8-1.6-1.5-2.1L464.5,69z M468.7,59.9c-0.1,0-0.1-0.1,0-0.3c0-0.1,0.2-0.2,0.4-0.3c0.6,0,1.8,0.2,3.5,0.7
		c1.8,0.5,2.7,1.5,2.6,3c0,0.3-0.1,0.5-0.2,0.9c-0.1,0.3-0.3,0.6-0.7,1c-0.3,0.4-0.8,0.6-1.4,0.6c-0.6,0-1-0.2-1.4-0.5
		c-0.4-0.4-0.6-0.8-0.7-1.2l-0.1-1c-0.2-1.2-0.7-2.1-1.7-2.7L468.7,59.9z M481.4,71.1c4.8,0.1,9.6,0.1,14.4,0.2
		c-0.4-0.7-0.8-1.3-1-1.7c-0.3-0.4-0.7-0.8-1.2-1.3c-0.5-0.5-0.9-0.8-1.2-1.1l-0.6-0.4l-0.6-0.4c-0.1-0.1-0.2-0.2-0.2-0.3
		c0-0.1,0.1-0.2,0.3-0.2c0.3,0,1.5,0.4,3.6,1.1c2.1,0.7,3.6,1.7,4.5,2.8c0.9,1.2,1.4,2.2,1.4,3c0,0.4-0.1,0.8-0.3,1.2
		c-0.2,0.5-0.6,0.9-1.4,1.2c-0.7,0.3-1.4,0.2-2-0.3c-0.4-0.3-0.7-0.7-0.7-1l-0.4-1.8c-8.5,1.1-13.9,1.9-16.4,2.5l-1.1,0.2l-0.7,0.2
		c-0.1,0-0.2-0.2-0.4-0.6l-1.3-3c-0.1-0.3-0.2-0.5-0.2-0.6c0,0,0-0.1,0.1-0.1c0,0,0.1-0.1,0.3-0.1c0.2,0,0.5-0.1,0.9-0.2
		c0.4-0.1,1.1-0.4,1.9-0.8c0.8-0.4,1.8-1.6,3-3.7s1.9-3.5,2.4-4.4c0.4-0.9,0.7-1.6,0.9-2l0.2-0.8l0.1-0.6c0.1,0,0.3,0,0.6,0.1l4.1,2
		c0.5,0.2,0.7,0.4,0.7,0.6c0,0.2-0.2,0.3-0.6,0.5l-1.1,0.4c-1.4,1.8-2.5,3.1-3.4,4.1C485.4,66.8,483.8,68.5,481.4,71.1z M465.4,84.3
		l-0.9-0.3c-0.1-0.1-0.2-0.1-0.2-0.2c0,0,0-0.1,0-0.2c0-0.1,0-0.2,0.1-0.2c0-0.1,0.2-0.1,0.4-0.1l0.7,0.1c0.6,0.1,1.1,0.2,1.4,0.2
		c0.3,0,0.5-0.1,0.7-0.2c0.2-0.1,0.6-0.6,1-1.3c0.5-0.8,1.9-3.7,4.3-8.7c2.4-5.1,3.8-8.1,4.2-9.1c0.5-1,0.7-1.6,0.8-1.8l0.3-0.7
		c0.1-0.1,0.2-0.2,0.3-0.2c0.1,0,0.2,0,0.2,0.1c0,0.1,0,0.1,0,0.2c0,0,0,0.1,0,0.1l-0.4,0.9c-0.1,0.1-0.3,0.8-0.6,1.9
		c-0.4,1.1-0.9,2.7-1.7,4.8c-0.8,2.1-1.5,4.2-2.3,6.3c-0.7,2.1-1.3,3.9-1.7,5.4c-0.4,1.5-0.7,2.8-0.6,3.9c0,0.6,0.1,1.3,0.3,2
		l0.9,3.1c0.2,0.6,0.2,1.1,0.2,1.4c0,0.7-0.3,1.2-0.8,1.6c-0.5,0.4-1,0.6-1.6,0.6c-0.7,0-1.3-0.2-1.7-0.6c-0.4-0.4-0.7-0.9-0.8-1.5
		l0.2-3.8c0-0.1-0.1-0.5-0.3-1.2c-0.2-0.7-0.4-1.2-0.8-1.5C466.5,84.8,466,84.5,465.4,84.3z M493.5,79.5H482v10.1h11.5V79.5z
		 M482.2,78.4H493l0.6-0.9c0.3-0.5,0.5-0.7,0.6-0.8c0.1,0,0.4,0.2,0.9,0.5l2.5,1.5c0.6,0.4,0.9,0.6,0.9,0.6c0,0,0,0.1,0,0.1
		c0,0-0.1,0.2-0.4,0.4l-1,0.8v8.8l0.2,3.2c-0.1,0.3-0.2,0.5-0.4,0.7c-0.2,0.2-0.5,0.4-0.9,0.5c-0.5,0.2-0.8,0.3-1.1,0.2
		c-0.8,0-1.3-0.3-1.5-0.8l0-1.1v-1.6H482V93c0,0.3-0.1,0.6-0.3,0.8c-0.2,0.2-0.5,0.4-0.9,0.5c-0.4,0.1-0.9,0.2-1.4,0.2
		c-0.5,0-0.8-0.1-1-0.3c-0.1-0.2-0.2-0.4-0.2-0.7l0.2-3.3v-9.9l-0.2-3.4c0.1-0.1,0.1-0.1,0.2-0.1c0,0,0.2,0.1,0.6,0.2L482.2,78.4z"
		/>
	<path class="st1" d="M506.2,66.7l-0.6-0.9c-0.1-0.1-0.1-0.2-0.1-0.3c0-0.1,0.1-0.2,0.3-0.2c0.4,0,1,0.3,2.1,1
		c1,0.6,1.8,1.2,2.3,1.8c0.5,0.6,0.8,1.2,0.8,2.1c0,0.7-0.3,1.2-0.7,1.7c-0.4,0.4-0.9,0.6-1.5,0.6c-0.5,0-0.9-0.1-1.2-0.5
		c-0.3-0.3-0.5-0.7-0.6-1c-0.1-0.3-0.1-0.8-0.1-1.4c0-0.6,0-1.2-0.2-1.6C506.7,67.5,506.5,67.1,506.2,66.7 M532.1,70.9h-15
		c-0.5,0-0.6-0.2-0.5-0.6l0.1-0.3c0.1-0.2,0.3-0.3,0.5-0.3h15l1.4-1.6c0.2-0.2,0.4-0.4,0.4-0.4c0.1,0,0.3,0.1,0.6,0.3l3.9,2.5
		c0.4,0.3,0.6,0.5,0.6,0.7c0,0.3-0.6,0.5-1.9,0.7c-1.2,0.2-2.1,0.4-2.5,0.5c-0.5,0.1-1.8,1-4.1,2.6l0.8,0.3c0.2,0.1,0.4,0.2,0.4,0.3
		c0,0.1-0.1,0.3-0.4,0.4l-1,0.5l0,15.5c0,0.6-0.3,1-0.9,1.4c-0.6,0.4-1.3,0.7-2.3,1c-0.9,0.3-1.6,0.4-1.8,0.4c-0.1,0-0.2,0-0.2,0
		c0,0,0,0,0-0.1c0,0,0-0.2-0.1-0.6c0-0.4-0.2-0.7-0.5-1.1c-0.3-0.4-0.6-0.6-0.9-0.8c-0.3-0.2-0.7-0.3-1.1-0.5l-1.6-0.5
		c-0.2-0.1-0.4-0.2-0.4-0.3c0-0.2,0.1-0.2,0.4-0.2l1.8,0.1c0.2,0,1,0,2.4,0c0.5,0,0.9,0,1,0c0.1,0,0.2-0.1,0.3-0.2
		c0.1-0.1,0.1-0.3,0.1-0.7V79.1l-0.2-5.2c0.1,0,0.1-0.1,0.2-0.1l0.7,0.2l1.7,0.5L532.1,70.9z M524.8,63.3c-0.3-0.1-0.5-0.3-0.6-0.4
		c-0.1-0.1-0.2-0.3-0.3-0.5c-0.1-0.2-0.2-0.6-0.2-1.2v-1.1c-0.1-0.6-0.3-1.1-0.8-1.5l-0.6-0.5c-0.1-0.1-0.2-0.2-0.2-0.4
		c0-0.1,0.1-0.2,0.4-0.2c0.8,0,1.9,0.2,3.4,0.8c1.5,0.5,2.2,1.5,2.2,2.9c0,1-0.5,1.7-1.4,2.1h9.1l1.5-1.8c0.2-0.3,0.4-0.4,0.5-0.4
		c0.1,0,0.2,0,0.3,0.1l3.2,2.5c0.1,0.1,0.2,0.2,0.2,0.3c0,0.1,0,0.1,0.1,0.2c0,0.1-0.1,0.1-0.2,0.2c-0.1,0.1-0.3,0.1-0.6,0.1h-24.7
		c0,2,0,3.9,0,5.7c0,1.8,0,3.5-0.1,5c-0.1,1.5-0.2,3.1-0.4,4.8c-0.2,1.6-0.6,3.2-1.1,4.6c-0.5,1.4-1.2,2.8-2.1,4
		c-0.9,1.3-1.8,2.3-2.6,3.2c-0.8,0.9-1.4,1.5-1.8,1.9l-1.1,1c-0.2,0.2-0.4,0.3-0.5,0.2c-0.1-0.1-0.1-0.1-0.1-0.2
		c0-0.1,0-0.2,0.2-0.4l1.1-1.4c1.3-1.7,2.2-3.2,2.8-4.8c0.6-1.5,1.1-3.2,1.4-4.9c0.3-1.7,0.5-3.2,0.6-4.4l0.1-2.3
		c-1.4,1.3-3,2.7-4.8,4.2l-1.3,1.1c-0.3,0.3-0.5,0.4-0.6,0.4c-0.1,0-0.1-0.1-0.3-0.4l-1.5-2.8c-0.1-0.3-0.2-0.4-0.2-0.5
		c0,0,0-0.1,0.1-0.1l0.6-0.1l1.4-0.4c2.1-0.5,4.3-1.3,6.6-2.4c0-0.9,0-1.6,0-2c0-0.4,0-0.8,0-0.9c0-0.6,0-1.8-0.1-3.5
		c0-1.8-0.1-3.1-0.1-4l-0.1-2.1l-0.2-1.6c0,0,0.1-0.1,0.1-0.1c0,0,0.3,0.1,0.9,0.4l3.2,1.6H524.8z"/>
	<path class="st2" d="M577,67.7c3,0,5.5,2.5,5.5,5.5c0,3-2.5,5.5-5.5,5.5c-3,0-5.5-2.5-5.5-5.5C571.5,70.2,574,67.7,577,67.7"/>
	<path class="st2" d="M63,67.7c3,0,5.5,2.5,5.5,5.5c0,3-2.5,5.5-5.5,5.5c-3,0-5.5-2.5-5.5-5.5C57.5,70.2,60,67.7,63,67.7"/>
</g>
<path class="st3" d="M0,0h640v146.1H0V0z"/>
</svg>
