<?xml version="1.0" encoding="utf-8"?>
<!-- Generator: Adobe Illustrator 16.0.0, SVG Export Plug-In . SVG Version: 6.00 Build 0)  -->
<!DOCTYPE svg PUBLIC "-//W3C//DTD SVG 1.1//EN" "http://www.w3.org/Graphics/SVG/1.1/DTD/svg11.dtd">
<svg version="1.1" id="图层_1" xmlns="http://www.w3.org/2000/svg" xmlns:xlink="http://www.w3.org/1999/xlink" x="0px" y="0px"
	 width="640.43px" height="103.562px" viewBox="0 0 640.43 103.562" enable-background="new 0 0 640.43 103.562"
	 xml:space="preserve">
<g>
	<g>
		<path fill-rule="evenodd" clip-rule="evenodd" fill="#A72027" d="M102.691,50.852L123.2,26.313h404.26l20.51,24.538
			c-2.028,2.426-2.028,6.397,0,8.822l-20.51,24.539H123.2l-20.509-24.539C104.719,57.247,104.719,53.277,102.691,50.852"/>
		<path fill-rule="evenodd" clip-rule="evenodd" fill="#A72027" d="M552.361,51.536c2.302,0,4.168,1.866,4.168,4.168
			c0,2.3-1.866,4.166-4.168,4.166s-4.168-1.866-4.168-4.166C548.193,53.402,550.06,51.536,552.361,51.536"/>
		<path fill-rule="evenodd" clip-rule="evenodd" fill="#A72027" d="M98.677,51.536c2.302,0,4.166,1.866,4.166,4.168
			c0,2.3-1.864,4.166-4.166,4.166s-4.168-1.866-4.168-4.166C94.509,53.402,96.375,51.536,98.677,51.536"/>
		<path fill="#FFFFFF" d="M130.599,38.24h9.496v1.165h-9.496V38.24z M137.55,42.438h-4.423v2.769h4.423V42.438z M131.93,41.27h6.82
			v5.102h-5.623v0.843h-1.197V41.27z M129.692,49.921h-1.246V35.066h13.803v12.975c0,1.201-0.633,1.796-1.894,1.796
			c-0.79,0-1.689-0.021-2.691-0.062c-0.053-0.38-0.13-0.812-0.228-1.299c1.07,0.098,1.956,0.148,2.658,0.148
			c0.605,0,0.907-0.302,0.907-0.907V36.263h-11.31V49.921z"/>
		<path fill="#FFFFFF" d="M152.486,40.46c0.865,1.576,1.518,2.833,1.961,3.773c-0.28,0.13-0.712,0.346-1.296,0.647
			c-0.422-1.025-1.025-2.306-1.815-3.837L152.486,40.46z M148.859,36.862h-3.03v4.098h3.03V36.862z M145.829,46.325h3.03v-4.197
			h-3.03V46.325z M150.673,37.707h5.752v-3.581h1.296v3.581h2.3v1.196h-2.3v8.718c0,1.445-0.693,2.17-2.074,2.17
			c-0.627,0-1.545-0.016-2.754-0.049c-0.057-0.388-0.142-0.845-0.259-1.362c1.133,0.087,2.02,0.132,2.656,0.132
			c0.755,0,1.135-0.385,1.135-1.151v-8.457h-5.752V37.707z M144.549,35.663h5.591v13.205h-1.28v-1.347h-3.03v1.539h-1.28V35.663z"/>
		<path fill="#FFFFFF" d="M163.539,37.674h1.163v3.255c0,2.094-0.144,3.719-0.438,4.875l0.469-0.437
			c1.105,1.145,2.07,2.188,2.901,3.127l-1.021,0.86c-0.767-0.984-1.607-1.982-2.526-2.999c-0.389,1.232-1.323,2.489-2.802,3.775
			c-0.239-0.334-0.525-0.663-0.86-0.988c1.266-0.938,2.1-1.946,2.513-3.012c0.398-0.929,0.602-2.509,0.602-4.73V37.674z
			 M171.166,41.756l1.119-0.327c0.494,1.558,0.975,3.189,1.44,4.896l-1.213,0.355c-0.089-0.325-0.169-0.655-0.245-0.99
			c-1.144,0.078-2.17,0.169-3.078,0.276c-0.475,0.053-0.953,0.143-1.441,0.261l-0.505-1.055c0.382-0.237,0.662-0.561,0.845-0.973
			c0.596-1.435,1.156-3.162,1.686-5.185l1.231,0.295c-0.649,1.996-1.29,3.837-1.929,5.523c0.917-0.057,1.89-0.118,2.915-0.196
			C171.732,43.69,171.458,42.727,171.166,41.756z M161.381,35.08h5.478v4.65c1.078-1.654,1.884-3.515,2.413-5.589l1.28,0.29
			c-0.261,0.778-0.529,1.52-0.81,2.221h6.188c-0.066,5.248-0.132,8.742-0.194,10.482c-0.1,1.749-0.996,2.623-2.689,2.623
			c-0.93,0-1.917-0.021-2.966-0.062c-0.065-0.436-0.151-0.878-0.258-1.331c1.049,0.118,2.006,0.185,2.883,0.194
			c1.135-0.01,1.734-0.574,1.797-1.686c0.077-1.834,0.132-4.849,0.163-9.038h-5.409c-0.401,0.938-0.817,1.798-1.25,2.574
			c-0.314-0.204-0.694-0.402-1.147-0.599v5.313h-1.168v-8.861h-3.143v8.957h-1.167V35.08z"/>
		<path fill="#FFFFFF" d="M180.238,37.899l0.665-0.874c1.304,0.755,2.538,1.537,3.693,2.349l-0.763,1.02
			C182.721,39.541,181.522,38.709,180.238,37.899 M178.619,40.507l0.681-0.874c1.413,0.821,2.693,1.643,3.838,2.464l-0.761,1.004
			C181.125,42.16,179.872,41.295,178.619,40.507z M177.953,36.36v-1.168h14.435v1.037c-0.571,1.405-1.155,2.6-1.751,3.581
			c-0.518-0.248-0.928-0.421-1.229-0.518c0.551-0.876,1.055-1.854,1.506-2.933H177.953z M177.611,48.996
			c3.717-0.745,6.18-2.129,7.391-4.146h-7.714v-1.165h8.249c0.344-0.821,0.523-3.038,0.533-6.646h1.298
			c-0.045,3.489-0.209,5.705-0.487,6.646h6.106v1.165h-6.513c-0.088,0.195-0.183,0.382-0.29,0.566
			c1.771,0.841,3.964,2.047,6.577,3.611l-0.731,1.15c-2.429-1.576-4.595-2.851-6.493-3.822c-1.438,1.76-3.793,3.052-7.064,3.873
			C178.288,49.915,178.004,49.504,177.611,48.996z"/>
		<path fill="#FFFFFF" d="M201.3,40.166c1.845-1.133,3.563-2.294,5.149-3.482h-12.166v-1.346h14.403v1.605
			c-1.934,1.33-3.909,2.623-5.931,3.887v5.964c0,1.066-0.204,1.808-0.615,2.22c-0.4,0.433-1.14,0.652-2.218,0.664
			c-0.596,0-1.478-0.018-2.641-0.051c-0.068-0.539-0.154-1.062-0.261-1.57c1.08,0.119,2.008,0.183,2.788,0.194
			c0.992,0.012,1.49-0.48,1.49-1.475V40.166z"/>
		<path fill="#FFFFFF" d="M222.868,35.153l-0.945,3.905h-1.437l1.28-3.905H222.868z M225.639,35.153l-0.945,3.905h-1.436l1.28-3.905
			H225.639z"/>
		<path fill="#FFFFFF" d="M523.3,35.153l-1.278,3.905h-1.102l0.945-3.905H523.3z M526.088,35.153l-1.28,3.905h-1.104l0.948-3.905
			H526.088z"/>
		<path fill="#FFFFFF" d="M232.79,46.841l1.524-1.263c0.712,0.777,1.521,1.63,2.43,2.561l-1.784,1.455
			C234.335,48.754,233.611,47.837,232.79,46.841 M227.153,37.835h6.366c0.102-1.08,0.152-2.29,0.148-3.629h2.492
			c-0.018,1.165-0.063,2.376-0.146,3.629h6.659v2.233h-6.367c1.125,3.701,3.376,6.239,6.756,7.617
			c-0.572,0.657-1.214,1.451-1.928,2.379c-2.879-1.78-4.926-4.471-6.14-8.067c-0.79,2.754-2.892,5.478-6.301,8.167
			c-0.778-0.973-1.405-1.697-1.882-2.174c3.762-2.181,5.893-4.821,6.4-7.922h-6.06V37.835z"/>
		<path fill="#FFFFFF" d="M258.711,38.516c-1.144,1.372-2.354,2.721-3.627,4.048l-1.654-1.345c1.254-1.296,2.379-2.629,3.371-3.998
			L258.711,38.516z M244.584,38.353l1.701-1.149c1.037,1.208,2.113,2.549,3.225,4.016l-1.96,1.298
			C246.46,40.863,245.47,39.476,244.584,38.353z M243.646,42.84h6.593v-5.944h-5.881v-2.139h14.321v2.139h-5.978v5.944h6.688v2.139
			h-6.688v5.039h-2.463v-5.039h-6.593V42.84z"/>
		<path fill="#FFFFFF" d="M269.191,40.863l1.752-0.631c0.518,1.265,0.984,2.533,1.393,3.809l-1.879,0.646
			C270.099,43.436,269.678,42.16,269.191,40.863 M263.831,47.588h-0.584c-0.14-0.973-0.247-1.648-0.323-2.027
			c0.237,0.045,0.442,0.065,0.613,0.065c0.521,0,0.78-0.383,0.78-1.149c0-0.94-0.465-2.084-1.394-3.433l1.28-4.277h-1.426v13.364
			h-2.023V34.79h5.358v1.813l-1.376,4.066c0.974,1.49,1.458,2.89,1.458,4.197C266.195,46.681,265.407,47.588,263.831,47.588z
			 M269.501,37.123h3.271v-2.854h2.027v2.854h1.358v2.137H274.8v8.085c0,0.745-0.13,1.321-0.392,1.724
			c-0.258,0.405-0.612,0.646-1.064,0.723c-0.451,0.075-1.309,0.114-2.58,0.114c-0.095-0.726-0.241-1.423-0.436-2.092
			c0.539,0.033,1.031,0.047,1.473,0.047c0.648,0,0.972-0.3,0.972-0.905V39.26h-3.271V37.123z M268.042,34.093l1.977,0.192
			c-0.308,0.907-0.659,1.812-1.053,2.707v13.105h-1.992V40.84c-0.259,0.438-0.529,0.873-0.81,1.303
			c-0.304-0.624-0.639-1.246-1.006-1.863C266.541,38.121,267.503,36.059,268.042,34.093z"/>
		<path fill="#FFFFFF" d="M289.814,37.609h-2.203v8.618h2.203V37.609z M285.439,49.775V35.486h6.546v14.191h-2.171v-1.329h-2.203
			v1.427H285.439z M280.193,49.775c-0.163-0.76-0.352-1.568-0.567-2.431c0.669,0.042,1.22,0.062,1.649,0.062
			c0.261,0,0.463-0.054,0.607-0.165c0.14-0.11,0.229-0.263,0.263-0.455c0.033-0.194,0.068-1.016,0.112-2.458
			c0.045-1.447,0.072-3.249,0.088-5.409h-1.568c-0.062,5.133-1.031,8.889-2.919,11.276c-0.377-0.733-0.804-1.508-1.28-2.317
			c1.351-1.917,2.051-4.901,2.1-8.959h-1.854V36.8h1.903c0.016-0.931,0.023-1.823,0.023-2.674h2.107l-0.041,2.674h3.67l-0.107,6.544
			l-0.104,3.799c-0.025,0.77-0.188,1.357-0.49,1.759c-0.298,0.396-0.656,0.644-1.068,0.735
			C282.303,49.727,281.463,49.775,280.193,49.775z"/>
		<path fill="#FFFFFF" d="M297.349,45.675h7.791v-0.712h-7.791V45.675z M297.349,41.689h7.791V40.96h-7.791V41.689z M305.14,38.97
			h-7.791v0.728h7.791V38.97z M297.349,43.7h7.791v-0.745h-7.791V43.7z M299.325,47.28l0.856,1.57
			c-1.835,0.453-3.648,0.897-5.44,1.327c-0.315-0.67-0.611-1.274-0.894-1.813C295.706,48.053,297.531,47.689,299.325,47.28z
			 M303.034,47.345c1.503,0.249,3.401,0.571,5.702,0.973l-0.68,1.894c-1.998-0.453-3.933-0.884-5.801-1.296L303.034,47.345z
			 M293.363,45.675h1.798v-8.196h4.942v-0.779h-6.561v-1.554h6.561v-1.053h2.236v1.053h6.56v1.554h-6.56v0.779h4.987v8.196h1.864
			v1.539h-15.828V45.675z"/>
		<path fill="#FFFFFF" d="M314.375,45.796c-0.648,0.881-1.392,1.702-2.23,2.463c1.53-0.249,2.919-0.563,4.165-0.947
			C315.612,46.863,314.969,46.355,314.375,45.796 M318.66,46.438c0.992-0.443,1.865-0.945,2.615-1.506h-5.103
			C316.9,45.525,317.729,46.025,318.66,46.438z M310.131,40.993h4.399c0.107-0.302,0.207-0.611,0.296-0.925h2.188
			c-0.078,0.313-0.164,0.623-0.259,0.925h8.961v1.7h-9.582c-0.12,0.283-0.247,0.559-0.381,0.827h8.585v1.394
			c-0.938,0.89-2,1.682-3.184,2.372c1.409,0.347,2.983,0.545,4.721,0.592c-0.396,0.712-0.755,1.41-1.066,2.09
			c-2.323-0.21-4.382-0.69-6.182-1.44c-1.684,0.703-3.567,1.248-5.646,1.637c-0.331-0.596-0.683-1.162-1.062-1.703
			c-0.322,0.293-0.661,0.572-1.012,0.843c-0.357-0.714-0.731-1.345-1.132-1.897c1.731-1.273,3.074-2.844,4.023-4.713h-3.668V40.993z
			 M314.009,36.4c0.321,0.476,0.67,1.019,1.047,1.629h2.16c-0.192-0.385-0.412-0.776-0.653-1.183l1.506-0.525L314.009,36.4z
			 M318.609,36.313c0.33,0.543,0.653,1.114,0.965,1.716h1.215c0.439-0.539,0.873-1.136,1.305-1.792L318.609,36.313z M310.323,34.757
			c3.779,0.021,8.6-0.076,14.452-0.292l0.504,1.701l-2.253,0.058l1.165,0.688c-0.305,0.354-0.644,0.727-1.002,1.117h2.04v2.561
			h-2.238V39.73h-10.188v0.859h-2.236v-2.561h2.083c-0.217-0.379-0.419-0.702-0.609-0.973l1.541-0.648l-2.721,0.047
			C310.742,35.994,310.561,35.424,310.323,34.757z"/>
		<path fill="#FFFFFF" d="M344.768,44.914c0.562,0.617,1.053,1.205,1.473,1.767l-1.455,1.133c-0.4-0.572-0.876-1.188-1.429-1.847
			L344.768,44.914z M338.694,45.061l1.86,0.518c-0.237,0.881-0.482,1.708-0.728,2.488c0.69,0.029,1.094-0.014,1.214-0.137
			c0.119-0.122,0.18-0.279,0.18-0.473v-2.641h-3.437v-1.749h8.425v1.749h-2.883v3.322c0,0.502-0.098,0.902-0.296,1.202
			c-0.199,0.302-0.479,0.494-0.849,0.588c-0.366,0.091-1.199,0.136-2.503,0.136c-0.073-0.346-0.151-0.661-0.226-0.945l-1.798-0.643
			C338.033,47.537,338.379,46.398,338.694,45.061z M345.466,42.24h-7.18v-1.716h7.18V42.24z M348.379,39.764h1.96
			c-0.012,0.708-0.031,1.35-0.072,1.934c0.403,2.97,1.602,5.052,3.605,6.246c-0.315,0.487-0.724,1.209-1.233,2.172
			c-1.537-1.194-2.617-2.769-3.238-4.723c-0.496,1.711-1.584,3.33-3.255,4.852c-0.477-0.65-0.952-1.264-1.427-1.847
			c1.382-1.109,2.339-2.308,2.866-3.606C348.116,43.496,348.379,41.82,348.379,39.764z M353.532,36.329v1.878l-0.715,3.127
			l-1.91-0.405l0.599-2.609h-3.094c-0.347,1.092-0.696,2.032-1.055,2.819c-0.679-0.355-1.284-0.649-1.813-0.875
			c0.79-1.695,1.429-3.758,1.911-6.188l1.992,0.355c-0.155,0.664-0.312,1.298-0.469,1.897H353.532z M345.493,39.713h-7.383v-1.717
			h2.834v-1.053h-3.16v-1.751h3.16v-1.149h2.136v1.149h3.065v1.751h-3.065v1.053h2.413V39.713z"/>
		<path fill="#FFFFFF" d="M359.883,46.551h-3.096v1.247h3.096V46.551z M366.264,40.119c-0.463,0.896-1.078,1.809-1.847,2.738h3.66
			C367.432,42.024,366.824,41.111,366.264,40.119z M367.447,44.737h-2.544v2.444h2.544V44.737z M367.951,34.108
			c0.938,1.22,1.813,2.442,2.625,3.66l-1.672,1.201c-0.81-1.448-1.631-2.76-2.46-3.937L367.951,34.108z M356.869,34.318l2.267-0.26
			c0.064,0.346,0.158,0.779,0.278,1.297h2.686v2.431c0.906-1.122,1.682-2.323,2.317-3.598l1.621,0.778
			c-0.743,1.426-1.648,2.858-2.705,4.293c-0.4-0.356-0.888-0.76-1.459-1.215l0.179-0.21h-1.572v-0.778h-4.244v0.81h-1.621v-2.511
			h2.528C357.046,34.957,356.955,34.612,356.869,34.318z M354.554,42.63h2.817v-0.712h-2.139v-1.524h2.139v-0.71h-2.494v-1.59h2.494
			v-0.648h1.845v0.648h2.514v1.59h-2.514v0.71h2.141v1.524h-2.141v0.712h2.691c1.512-1.166,2.651-2.825,3.417-4.974h2.22
			l-0.261,0.551c0.856,1.846,1.968,3.278,3.339,4.294c-0.249,0.572-0.533,1.269-0.857,2.088c-0.162-0.128-0.315-0.265-0.454-0.404
			v5.896h-1.863v-1.02h-2.544v1.02h-1.862v-5.783c-0.151,0.141-0.307,0.276-0.471,0.407c-0.171-0.51-0.387-1.059-0.646-1.654v1.135
			h-2.708v0.747h2.448v5.086h-1.781v-0.601h-3.096v0.601h-1.782v-5.086h2.366v-0.747h-2.817V42.63z"/>
		<path fill="#FFFFFF" d="M378.934,45.124h2.153v1.701c0,0.69,0.308,1.035,0.923,1.035h1.313c0.788,0,1.212-0.245,1.263-0.743
			c0.045-0.292,0.098-1.025,0.163-2.203c0.81,0.282,1.544,0.52,2.203,0.712c-0.151,1.286-0.298,2.182-0.438,2.691
			c-0.228,1.014-1.215,1.52-2.964,1.52h-2.431c-1.457,0-2.187-0.788-2.187-2.362V45.124z M377.896,40.507h-3.044v2.253h2.59
			C377.636,42.122,377.787,41.373,377.896,40.507z M374.835,38.676h4.505l1.31-1.473h-4.454
			C375.775,37.713,375.321,38.201,374.835,38.676z M383.096,42.76v-2.253h-3.076c-0.096,0.854-0.221,1.604-0.372,2.253H383.096z
			 M383.403,35.371v1.783l-1.378,1.521h3.323v5.913h-6.188c-1.211,2.258-3.446,4.134-6.71,5.622
			c-0.387-0.551-0.912-1.215-1.57-1.992c2.777-1.026,4.669-2.234,5.673-3.63h-1.701v0.698H372.6v-4.684
			c-0.218,0.152-0.429,0.304-0.631,0.456c-0.334-0.684-0.714-1.368-1.134-2.06c2.006-1.293,3.621-2.932,4.841-4.907l2.527,0.176
			c-0.206,0.379-0.426,0.747-0.663,1.103H383.403z"/>
		<path fill="#FFFFFF" d="M400.188,36.716h-5.185v2.203h5.185V36.716z M392.849,34.79h9.493v6.058h-3.66v1.459h4.73v1.847h-3.719
			c0.858,1.161,2.162,2.137,3.914,2.931c-0.541,0.865-0.97,1.568-1.281,2.107c-1.57-0.99-2.788-2.229-3.645-3.719v4.643h-2.3v-4.537
			c-1.076,1.518-2.345,2.786-3.806,3.806c-0.347-0.636-0.76-1.284-1.234-1.944c1.464-0.842,2.748-1.936,3.848-3.286h-3.392v-1.847
			h4.584v-1.459h-3.533V34.79z M390.305,34.108l2.174,0.648c-0.38,1.364-0.806,2.656-1.28,3.872v11.486h-2.043v-7.211
			c-0.36,0.622-0.739,1.216-1.135,1.782c-0.119-1.047-0.296-2.072-0.533-3.076C388.622,39.654,389.56,37.154,390.305,34.108z"/>
		<path fill="#FFFFFF" d="M411.301,44.768h2.072c-0.035,0.594-0.128,1.131-0.272,1.611c1.997,0.553,4.254,1.236,6.77,2.052
			l-0.988,1.765c-2.002-0.755-4.197-1.516-6.583-2.277c-0.957,1.184-3.208,1.931-6.75,2.246c-0.237-0.596-0.527-1.243-0.874-1.945
			c2.343-0.131,4.024-0.417,5.042-0.854C410.736,46.924,411.264,46.059,411.301,44.768 M416.195,42.354
			c0.809,0.027,1.261,0.014,1.354-0.045c0.098-0.055,0.166-0.152,0.213-0.286c0.044-0.136,0.069-0.333,0.069-0.594h-2.496v1.234
			h-2.009v-1.234h-2.898c-0.401,0.674-0.806,1.168-1.217,1.491h7.161L416.195,42.354z M407.203,39.033l-0.18,0.907h1.896
			c0.082-0.269,0.154-0.572,0.21-0.907H407.203z M410.985,39.94h2.341v-0.907h-2.163C411.116,39.356,411.054,39.66,410.985,39.94z
			 M417.247,37.543v-0.906h-1.912v0.906H417.247z M411.283,37.543h2.043v-0.906h-2.025
			C411.301,36.829,411.295,37.135,411.283,37.543z M406.652,47.168v-2.732c-0.48,0.204-1.006,0.402-1.572,0.592
			c-0.261-0.518-0.596-1.084-1.004-1.701c1.949-0.48,3.282-1.111,4-1.897h-3.173l0.612-3.886h3.762
			c0.01-0.249,0.016-0.551,0.016-0.906h-4.326v-1.491h4.326v-1.069h2.008v1.069h2.025v-1.069h2.009v1.069h3.823v3.888h-3.823v0.907
			h4.44c-0.023,0.849-0.062,1.572-0.119,2.176c-0.057,0.603-0.22,1.043-0.486,1.319c-0.267,0.278-0.669,0.428-1.212,0.449v2.956
			h-2.04V44.33h-7.225v2.838H406.652z"/>
		<path fill="#FFFFFF" d="M424.406,43.797h3.24v-0.924h-3.24V43.797z M433.091,43.797v-0.924h-3.304v0.924H433.091z M424.406,41.707
			h3.24v-0.924h-3.24V41.707z M433.091,40.783h-3.304v0.924h3.304V40.783z M420.697,48.121h6.949v-0.827h-5.898v-1.36h5.898v-0.792
			h-5.328V39.44h5.328v-0.794h-6.902v-1.459h6.902v-0.812l-5.507,0.097c-0.088-0.475-0.188-0.959-0.308-1.457
			c4.588-0.055,9.071-0.178,13.446-0.374c0.01,0.033,0.112,0.543,0.306,1.524l-5.797,0.155v0.866h6.997v1.459h-6.997v0.794h5.394
			v5.701h-5.394v0.792h5.993v1.36h-5.993v0.827h6.997v1.459h-16.087V48.121z"/>
		<path fill="#FFFFFF" d="M437.561,38.256h6.4c0.075-1.178,0.108-2.538,0.097-4.083h2.464c-0.033,1.604-0.078,2.966-0.131,4.083
			h6.692v2.233h-6.505c0.928,3.609,3.169,6.034,6.73,7.275c-0.769,0.876-1.382,1.619-1.847,2.236
			c-2.944-1.382-4.993-3.61-6.149-6.683c-0.895,2.812-2.967,5.079-6.211,6.797c-0.432-0.551-1.043-1.241-1.831-2.074
			c3.931-1.784,6.083-4.301,6.456-7.552h-6.166V38.256z"/>
		<path fill="#FFFFFF" d="M455.155,37.413c0.365,1.025,0.739,2.165,1.117,3.417l-1.474,0.553c-0.304-1.068-0.649-2.219-1.037-3.45
			L455.155,37.413z M460.088,42.955h2.746c0.046-0.574,0.083-1.211,0.104-1.911h-1.611C460.933,41.77,460.52,42.41,460.088,42.955z
			 M458.379,37.576c0,2.376-0.002,3.744-0.007,4.105c0.873-1.144,1.608-2.514,2.2-4.105H458.379z M468.891,41.044h-3.79
			c-0.021,0.706-0.049,1.343-0.088,1.911h4.446v1.941h-4.164c1.125,1.433,2.689,2.458,4.699,3.08
			c-0.52,0.701-1.014,1.413-1.49,2.139c-1.987-0.902-3.493-2.203-4.521-3.896c-0.9,1.704-2.44,3.024-4.617,3.958
			c-0.582-0.798-1.111-1.434-1.586-1.911c2.425-0.755,3.968-1.88,4.633-3.37h-3.664v-1.941h1.226
			c-0.61-0.427-1.147-0.775-1.61-1.047c-0.098,3.412-1.003,6.172-2.707,8.27c-0.681-0.691-1.247-1.209-1.701-1.553
			c1.076-1.372,1.777-2.937,2.105-4.689c-0.7,0.436-1.341,0.812-1.912,1.125l-0.356-2.123c0.86-0.368,1.689-0.742,2.488-1.125
			c0.006-0.21,0.008-2.25,0.008-6.116h5.402l-0.559-1.231l2.607-0.422l0.625,1.653h5.319v1.88h-8.891l1.829,0.6
			c-0.124,0.318-0.249,0.625-0.373,0.924h6.641V41.044z"/>
		<path fill="#FFFFFF" d="M481.496,43.475c0.8,0.601,1.604,1.243,2.413,1.918v-2.292h-2.308
			C481.568,43.225,481.535,43.35,481.496,43.475 M479.355,43.101h-1.91v2.841C478.336,45.241,478.975,44.291,479.355,43.101z
			 M477.445,50.033h-2.009v-8.65h4.268c0.051-0.411,0.078-0.837,0.084-1.279h-4.415v-1.848h10.887v1.848h-4.317
			c-0.012,0.431-0.037,0.856-0.072,1.279h4.049v6.351c0,0.652-0.167,1.168-0.5,1.546c-0.33,0.379-0.821,0.61-1.465,0.696
			c-0.645,0.087-1.609,0.122-2.896,0.104c-0.206-0.949-0.378-1.659-0.52-2.137c0.449,0.031,1.016,0.047,1.701,0.047l0.447,0.01
			c0.416,0,0.722-0.084,0.918-0.247c0.197-0.165,0.3-0.42,0.304-0.767v-1.035l-1.149,1.199c-0.588-0.654-1.236-1.336-1.944-2.044
			c-0.514,0.952-1.198,1.8-2.057,2.544c-0.454-0.458-0.894-0.878-1.313-1.264V50.033z M478.206,34.222l2.674-0.21l0.31,1.326h5.327
			v1.915h-11.774v4.211c0,2.605-0.284,4.606-0.849,5.995c-0.563,1.392-1.031,2.299-1.404,2.719c-0.735-0.798-1.327-1.366-1.78-1.701
			c0.912-1.047,1.506-2.426,1.788-4.139c-0.561,0.356-1.109,0.695-1.645,1.012l-0.471-2.43c0.696-0.317,1.463-0.725,2.292-1.223
			l-0.006-1.1l-1.492,0.429c-0.28-1.847-0.506-3.172-0.682-3.97l1.444-0.42c0.329,1.467,0.572,2.654,0.729,3.555v-4.854h5.824
			L478.206,34.222z"/>
		<path fill="#FFFFFF" d="M499.722,36.716h-5.184v2.203h5.184V36.716z M492.382,34.79h9.494v6.058h-3.661v1.459h4.73v1.847h-3.718
			c0.857,1.161,2.161,2.137,3.913,2.931c-0.541,0.865-0.97,1.568-1.28,2.107c-1.57-0.99-2.789-2.229-3.646-3.719v4.643h-2.3v-4.537
			c-1.076,1.518-2.345,2.786-3.808,3.806c-0.345-0.636-0.757-1.284-1.234-1.944c1.468-0.842,2.75-1.936,3.85-3.286h-3.392v-1.847
			h4.584v-1.459h-3.533V34.79z M489.838,34.108l2.172,0.648c-0.377,1.364-0.804,2.656-1.278,3.872v11.486h-2.043v-7.211
			c-0.36,0.622-0.739,1.216-1.135,1.782c-0.118-1.047-0.296-2.072-0.533-3.076C488.155,39.654,489.095,37.154,489.838,34.108z"/>
		<path fill="#FFFFFF" d="M514.317,36.488c-0.69,0.939-1.411,1.812-2.154,2.611h4.229C515.604,38.29,514.913,37.419,514.317,36.488
			 M514.48,41.593c0.397,1.576,0.744,3.031,1.037,4.358l-1.896,0.436c-0.271-1.467-0.596-2.93-0.974-4.39L514.48,41.593z
			 M511.467,42.128c0.408,1.353,0.829,2.86,1.263,4.535l-1.913,0.551c-0.334-1.553-0.726-3.082-1.179-4.584L511.467,42.128z
			 M509.003,47.604h6.157c0.669-1.942,1.187-3.84,1.555-5.686l2.154,0.52c-0.518,1.728-1.068,3.449-1.65,5.166h2.152v1.977h-10.368
			V47.604z M517.462,41.044h-6.515V40.25c-0.356,0.302-0.728,0.598-1.117,0.889c-0.323-0.679-0.696-1.365-1.117-2.057
			c1.803-1.243,3.357-2.878,4.665-4.909h2.366l-0.292,0.537c1.284,1.899,2.741,3.292,4.372,4.176
			c-0.356,0.584-0.749,1.259-1.183,2.027c-0.409-0.261-0.804-0.539-1.18-0.845V41.044z M508.081,40.848
			c0.876,1.047,1.312,2.288,1.312,3.726c0,0.907-0.208,1.57-0.633,1.993c-0.43,0.432-1.177,0.647-2.233,0.647
			c-0.066-0.669-0.196-1.42-0.39-2.251c0.249,0.053,0.454,0.082,0.615,0.082c0.443,0,0.665-0.335,0.665-1.004
			c0-1.059-0.412-2.063-1.231-3.015c0.443-1.405,0.825-2.837,1.15-4.293h-1.217v13.364h-1.893V34.869h5.248v1.539
			C508.997,38.051,508.534,39.531,508.081,40.848z"/>
		<path fill="#FFFFFF" d="M330.257,42.483v3.442h1.588c0.678,0,1.207-0.155,1.584-0.471c0.382-0.312,0.572-0.745,0.572-1.302
			c0-0.531-0.19-0.94-0.564-1.233c-0.381-0.29-0.916-0.437-1.613-0.437H330.257z M330.257,37.366v3.102h1.272
			c0.611,0,1.094-0.146,1.444-0.439c0.351-0.29,0.525-0.697,0.525-1.223c0-0.961-0.702-1.439-2.107-1.439H330.257z M327.584,47.918
			V35.371h4.458c1.365,0,2.418,0.262,3.157,0.779c0.74,0.52,1.111,1.235,1.111,2.153c0,0.682-0.229,1.276-0.688,1.79
			c-0.459,0.512-1.037,0.866-1.733,1.062v0.031c0.873,0.107,1.582,0.434,2.117,0.973c0.536,0.539,0.805,1.217,0.805,2.032
			c0,1.138-0.404,2.045-1.214,2.718c-0.81,0.672-1.915,1.008-3.319,1.008H327.584z"/>
		<path fill="#FFFFFF" d="M128.949,60.313l0.906-0.81c1.168,1.092,2.252,2.232,3.258,3.421l-1.086,0.923
			C131.12,62.658,130.093,61.481,128.949,60.313 M141.908,60.38c-1.156,1.306-2.306,2.485-3.45,3.532l-0.971-0.874
			c1.102-0.994,2.206-2.176,3.319-3.55L141.908,60.38z M127.96,72.546h12.831v-2.787h-11.842v-1.149h11.842v-2.738H128.43v-1.15
			h6.271v-6.01h1.342v6.01h6.091v9.948h-1.343v-0.974H127.96V72.546z"/>
		<path fill="#FFFFFF" d="M156.988,67.267h-5.078c0.455,1.434,1.233,2.625,2.335,3.57C155.428,69.87,156.343,68.681,156.988,67.267
			 M158.223,63.717h1.813c-0.107,0.39-0.198,0.784-0.276,1.182h-1.717c-1.241,0-1.863-0.592-1.863-1.78v-2.544h-3.593v0.6
			c0.008,2.086-0.817,3.639-2.482,4.664c-0.269-0.355-0.561-0.685-0.872-0.986c1.425-0.776,2.137-2.004,2.137-3.678v-1.734h6.028
			v3.499C157.397,63.458,157.67,63.717,158.223,63.717z M143.9,67.346c0.756-0.206,1.545-0.434,2.364-0.688v-3.572h-2.153V61.95
			h2.153v-3.143h1.217v3.143h1.961v1.135h-1.961v3.193c0.557-0.18,1.128-0.368,1.718-0.568c-0.012,0.344,0,0.767,0.033,1.263
			c-0.59,0.185-1.171,0.369-1.751,0.561v5.092c0,1.18-0.525,1.768-1.57,1.768h-1.574c-0.043-0.378-0.113-0.837-0.208-1.376
			c0.604,0.064,1.095,0.095,1.473,0.095c0.443,0,0.663-0.259,0.663-0.776v-4.407c-0.737,0.249-1.473,0.504-2.2,0.763L143.9,67.346z
			 M150.009,67.267v-1.135h8.328v1.117c-0.737,1.71-1.769,3.152-3.104,4.317c1.288,0.81,2.911,1.374,4.869,1.693
			c-0.304,0.398-0.574,0.81-0.813,1.229c-2.017-0.441-3.703-1.157-5.052-2.145c-1.457,1.02-3.207,1.777-5.248,2.275
			c-0.239-0.442-0.477-0.821-0.714-1.135c1.961-0.41,3.627-1.061,5.005-1.952c-1.188-1.138-2.036-2.562-2.542-4.267H150.009z"/>
		<path fill="#FFFFFF" d="M173.918,60.557h-6.577v3.322h6.577V60.557z M160.425,66.618c1.448-2.162,2.571-4.781,3.37-7.857
			l1.199,0.356c-0.441,1.424-0.922,2.759-1.443,4.001v11.438h-1.166v-8.99c-0.461,0.851-0.947,1.645-1.457,2.38
			C160.775,67.492,160.608,67.051,160.425,66.618z M166.111,59.473h9.04v6.108h-1.233v-0.616h-2.721v2.187h5.348v1.102h-4.405
			c0.992,1.652,2.504,2.956,4.533,3.903c-0.334,0.465-0.603,0.866-0.81,1.201c-2.031-1.232-3.584-2.896-4.666-4.991v6.271h-1.183
			v-6.336c-1.304,2.353-2.942,4.148-4.907,5.378c-0.25-0.302-0.549-0.63-0.907-0.988c1.923-1.057,3.481-2.537,4.682-4.438h-4.246
			v-1.102h5.379v-2.187h-2.674v0.729h-1.229V59.473z"/>
		<path fill="#FFFFFF" d="M177.096,73.227c4.709-2.721,7.197-7.495,7.468-14.321h1.427c-0.061,1.155-0.176,2.259-0.341,3.306
			c1.339,5.399,3.854,8.953,7.548,10.659c-0.451,0.496-0.852,0.968-1.198,1.409c-3.207-1.813-5.495-5.024-6.861-9.63
			c-1.183,4.448-3.522,7.719-7.021,9.807C177.823,74.06,177.482,73.648,177.096,73.227"/>
		<path fill="#FFFFFF" d="M203.842,59.732l0.712-0.907c1.059,0.669,2.074,1.364,3.047,2.09l-0.875,1.053
			C205.787,61.168,204.824,60.423,203.842,59.732 M206.336,66.683h-5.855c0.487,1.494,1.45,2.782,2.893,3.862
			C204.771,69.39,205.76,68.104,206.336,66.683z M195.871,62.309h3.425c0.267-1.129,0.49-2.362,0.673-3.693l1.378,0.175
			c-0.183,1.228-0.406,2.401-0.673,3.519h8.951v1.198h-9.259c-0.194,0.712-0.409,1.397-0.641,2.059h8.039v1.117
			c-0.714,1.767-1.825,3.29-3.333,4.575c1.518,0.918,3.286,1.566,5.306,1.936c-0.484,0.541-0.864,0.994-1.132,1.362
			c-1.73-0.572-3.468-1.409-5.215-2.512c-1.405,0.922-3.416,1.8-6.029,2.625c-0.299-0.435-0.626-0.831-0.973-1.199
			c2.658-0.69,4.643-1.424,5.955-2.195c-1.421-1.214-2.433-2.745-3.038-4.592c-1.183,2.958-2.792,5.388-4.827,7.289
			c-0.292-0.41-0.578-0.778-0.86-1.102c2.437-2.198,4.227-5.319,5.372-9.363h-4.497v-1.216c0.444-1.025,0.849-2.057,1.215-3.094
			l1.313,0.357C196.642,60.504,196.259,61.423,195.871,62.309z"/>
		<path fill="#FFFFFF" d="M210.337,72.399h7.519v-4.131h-5.736v-1.247h5.736v-3.742h-4.276c-0.721,1.296-1.546,2.468-2.479,3.517
			c-0.226-0.356-0.52-0.736-0.876-1.135c1.524-1.705,2.729-3.791,3.614-6.254l1.326,0.358c-0.285,0.787-0.601,1.544-0.945,2.267
			h3.637v-3.435h1.394v3.435h6.188v1.247h-6.188v3.742h5.732v1.247h-5.732v4.131h7.063v1.217h-15.976V72.399z"/>
		<path fill="#FFFFFF" d="M229.939,66.263h4.375v-1.378h-4.375V66.263z M239.904,64.885h-4.423v1.378h4.423V64.885z M229.939,68.512
			h4.375v-1.394h-4.375V68.512z M235.481,68.512h4.423v-1.394h-4.423V68.512z M226.893,72.966h7.422V71.77h-6.155v-0.958h6.155
			v-1.36h-4.375v0.584h-1.133v-6.091h5.508v-1.167h-7.292v-1.002h7.292v-1.273c-1.962,0.059-3.989,0.111-6.091,0.152
			c-0.064-0.345-0.141-0.712-0.228-1.1c5.474-0.066,9.91-0.21,13.302-0.438l0.192,1.102c-1.921,0.091-3.925,0.175-6.009,0.251v1.306
			h7.354v1.002h-7.354v1.167h5.558v6.075h-1.135v-0.568h-4.423v1.36h6.171v0.958h-6.171v1.196h7.354v1.006h-15.942V72.966z"/>
		<path fill="#FFFFFF" d="M243.417,62.599l1.021-0.421c0.391,0.866,0.788,1.897,1.2,3.094l-1.134,0.454
			C244.172,64.591,243.808,63.55,243.417,62.599 M251.259,59.021l1.2-0.521c0.341,0.59,0.668,1.227,0.979,1.911h5.809v1.167h-12.07
			v4.797c0,3.521-0.906,6.285-2.72,8.294c-0.249-0.325-0.562-0.639-0.942-0.94c1.354-1.566,2.146-3.423,2.368-5.565
			c-0.562,0.353-1.274,0.78-2.14,1.288l-0.306-1.359c1.079-0.514,1.914-0.948,2.51-1.304v-6.377h6.091
			C251.81,59.99,251.551,59.525,251.259,59.021z M246.771,73.536c3.07-0.866,4.903-2.333,5.491-4.407h-4.615v-1.133h4.817
			c0.088-0.8,0.137-1.757,0.146-2.87h-2.536c-0.375,0.745-0.776,1.415-1.196,2.01c-0.282-0.228-0.633-0.453-1.053-0.681
			c0.918-1.251,1.684-2.775,2.3-4.567l1.184,0.354c-0.224,0.623-0.456,1.204-0.697,1.749h7.53v1.135h-4.284
			c-0.02,1.141-0.074,2.096-0.159,2.87h5.271v1.133h-4.983c1.213,2.127,3.052,3.492,5.517,4.098c-0.278,0.432-0.533,0.86-0.761,1.28
			c-2.576-0.821-4.409-2.29-5.499-4.407c-0.825,2.176-2.733,3.699-5.725,4.569C247.301,74.312,247.054,73.933,246.771,73.536z"/>
		<path fill="#FFFFFF" d="M271.43,59.504l0.679-0.84c0.874,0.506,1.761,1.072,2.656,1.7l-0.776,0.971
			C273.179,60.711,272.324,60.1,271.43,59.504 M266.113,65.451h-3.498v2.658h3.498V65.451z M260.058,72.207
			c2.062-0.272,4.748-0.692,8.067-1.265c0.012,0.465,0.023,0.873,0.047,1.229c-2.43,0.368-5.027,0.812-7.791,1.331L260.058,72.207z
			 M261.451,64.314h5.83v5.67h-1.168v-0.743h-3.498v1.135h-1.164V64.314z M266.715,73.695c1.349-0.922,2.531-1.98,3.547-3.174
			c-0.692-1.912-1.102-4.502-1.229-7.777h-8.733v-1.196h8.683c-0.043-0.905-0.079-1.841-0.112-2.82h1.328
			c0.006,0.979,0.021,1.915,0.049,2.82h5.732v1.196h-5.709c0.07,2.686,0.374,4.884,0.907,6.595c1.043-1.464,1.866-3.104,2.471-4.923
			l1.28,0.533c-0.881,2.196-1.953,4.125-3.218,5.783c0.486,1.037,1.068,1.771,1.743,2.204c0.65,0.421,1.047,0.243,1.199-0.537
			c0.163-0.81,0.283-1.639,0.373-2.494c0.443,0.194,0.856,0.352,1.247,0.471c-0.204,1.241-0.4,2.182-0.583,2.817
			c-0.229,0.843-0.719,1.274-1.474,1.296c-0.626,0-1.237-0.226-1.831-0.679c-0.605-0.506-1.127-1.176-1.564-2.003
			c-0.953,1.086-2.01,2.036-3.166,2.846C267.405,74.371,267.094,74.054,266.715,73.695z"/>
		<path fill="#FFFFFF" d="M280.273,65.548h8.344v-1.523h-8.344V65.548z M288.617,61.466h-8.344v1.521h8.344V61.466z M280.273,68.122
			h8.344v-1.537h-8.344V68.122z M276.76,68.122h2.233V60.38h3.703c0.253-0.638,0.461-1.231,0.622-1.782l1.362,0.34
			c-0.206,0.464-0.424,0.946-0.655,1.442h5.872v6.887c0.705-0.529,1.388-1.088,2.042-1.672l0.809,0.894
			c-0.912,0.782-1.863,1.521-2.851,2.218v3.24c0,1.631-0.714,2.452-2.138,2.464c-0.888,0.021-1.783,0.011-2.689-0.033
			c-0.066-0.38-0.152-0.827-0.261-1.345c0.79,0.075,1.638,0.114,2.545,0.114c0.841,0,1.263-0.443,1.263-1.331v-2.249
			c-3.294,2.117-7.015,3.791-11.161,5.021c-0.208-0.421-0.449-0.829-0.729-1.229c3.817-0.983,7.234-2.364,10.254-4.149H276.76
			V68.122z"/>
		<path fill="#FFFFFF" d="M306.541,62.875h-3.466c0.185,2.527,0.753,4.629,1.709,6.3C305.763,67.531,306.349,65.43,306.541,62.875
			 M299.146,71.719v-3.903h-4.017v3.903H299.146z M293.898,66.649h2.641v-3.514h-3.321v-1.201h3.321v-3.257h1.263v3.257h3.24v1.201
			h-3.24v3.514h2.578v6.203h-5.25v1.07h-1.231V66.649z M303.065,58.551l1.298,0.21c-0.249,1.049-0.547,2.04-0.898,2.979h5.758v1.135
			h-1.409c-0.265,3.145-0.998,5.648-2.203,7.517c1.001,1.253,2.285,2.251,3.857,2.998c-0.368,0.487-0.67,0.917-0.907,1.296
			c-1.557-0.92-2.823-1.977-3.798-3.177c-1.088,1.247-2.394,2.341-3.913,3.274c-0.24-0.315-0.547-0.655-0.925-1.02
			c1.713-1.061,3.054-2.191,4.026-3.396c-0.946-1.566-1.555-3.462-1.831-5.688c-0.345,0.622-0.72,1.214-1.127,1.774
			c-0.228-0.323-0.5-0.67-0.827-1.037C301.614,63.355,302.583,61.066,303.065,58.551z"/>
		<path fill="#FFFFFF" d="M318.376,64.981c0.863,1.576,1.518,2.834,1.959,3.773c-0.278,0.131-0.71,0.347-1.294,0.648
			c-0.424-1.027-1.025-2.307-1.817-3.838L318.376,64.981z M314.748,61.384h-3.031v4.099h3.031V61.384z M311.717,70.847h3.031v-4.197
			h-3.031V70.847z M316.562,62.229h5.75v-3.58h1.298v3.58h2.3v1.196h-2.3v8.718c0,1.446-0.693,2.17-2.074,2.17
			c-0.627,0-1.546-0.016-2.756-0.049c-0.055-0.387-0.14-0.845-0.259-1.362c1.135,0.088,2.021,0.131,2.656,0.131
			c0.755,0,1.135-0.384,1.135-1.15v-8.457h-5.75V62.229z M310.437,60.186h5.593V73.39h-1.281v-1.346h-3.031v1.539h-1.28V60.186z"/>
		<polygon fill="#FFFFFF" points="335.289,70.431 333.919,74.75 332.785,74.75 333.783,70.431 		"/>
		<path fill="#FFFFFF" d="M355.558,59.65l0.872-0.6c1.049,1.341,1.945,2.566,2.69,3.678l-0.877,0.794
			C357.371,62.129,356.476,60.841,355.558,59.65 M353.094,59.148l0.938,0.52c-0.983,1.661-1.948,3.043-2.899,4.146
			c-0.172-0.249-0.415-0.561-0.73-0.939C351.321,61.882,352.219,60.639,353.094,59.148z M348.883,70.44h-4.117v2.202h4.117V70.44z
			 M343.275,60.462h3.257c-0.194-0.52-0.416-0.999-0.663-1.44l0.939-0.406c0.237,0.43,0.471,0.916,0.697,1.455l-0.923,0.392h3.868
			v2.123h-0.973v-1.119h-5.23v1.119h-0.973V60.462z M357.013,69.111h-4.211v3.354h4.211V69.111z M343.729,69.436h6.189v5.007h-1.035
			v-0.794h-4.117v0.794h-1.037V69.436z M343.178,67.185h3.129V66.02h-2.625v-0.94h2.625v-1.151h-2.693v-0.94h2.693v-0.986h1.035
			v0.986H350v0.94h-2.658v1.151h2.576v0.94h-2.576v1.165h3.061v0.274c1.807-1.286,3.143-3.023,4.019-5.217h1.409l-0.241,0.455
			c0.916,1.997,2.139,3.493,3.662,4.487c-0.249,0.42-0.446,0.8-0.584,1.135c-1.533-1.168-2.782-2.652-3.744-4.458
			c-1.025,1.772-2.323,3.337-3.888,4.701c-0.185-0.38-0.395-0.724-0.633-1.037v0.597h-3.061v1.053h-1.035v-1.053h-3.129V67.185z
			 M351.701,68.01h6.413v6.563h-1.102v-1.006h-4.211v0.955h-1.101V68.01z"/>
		<path fill="#FFFFFF" d="M367.493,69.451h1.249v2.397c0,0.477,0.08,0.788,0.242,0.94c0.175,0.171,0.516,0.261,1.021,0.261h2.786
			c0.776,0,1.22-0.323,1.327-0.974c0.131-0.702,0.218-1.49,0.259-2.364c0.424,0.172,0.839,0.329,1.249,0.472
			c-0.075,0.838-0.171,1.608-0.292,2.298c-0.173,1.177-0.998,1.765-2.479,1.765h-3.225c-0.819,0-1.384-0.165-1.683-0.5
			c-0.302-0.282-0.456-0.839-0.456-1.67V69.451z M369.844,61.481h-5.522c-0.542,0.649-1.097,1.257-1.669,1.831h5.394L369.844,61.481
			z M362.73,67.492h3.615c0.259-0.874,0.414-1.892,0.469-3.047h-4.084V67.492z M372.372,64.445h-4.295
			c-0.074,1.136-0.22,2.151-0.436,3.047h4.73V64.445z M359.653,73.601c3.145-1.025,5.24-2.686,6.287-4.976h-3.21v0.616h-1.246v-4.86
			c-0.367,0.313-0.739,0.612-1.117,0.891c-0.13-0.183-0.42-0.539-0.875-1.066c1.934-1.31,3.721-3.16,5.362-5.557l1.23,0.453
			c-0.29,0.43-0.584,0.845-0.874,1.245h6.334v1.152l-1.813,1.813h3.888v5.929h-1.247v-0.616h-5.069
			c-1.008,2.755-3.275,4.812-6.807,6.174C360.192,74.258,359.912,73.859,359.653,73.601z"/>
		<path fill="#FFFFFF" d="M378.266,63.976h1.915v-1.278h-1.915V63.976z M383.177,63.976v-1.278h-1.91v1.278H383.177z
			 M389.902,61.627h-3.064c0.305,1.189,0.838,2.182,1.603,2.981C389.144,63.775,389.63,62.783,389.902,61.627z M384.617,67.057
			c1.188-0.454,2.188-1.009,2.996-1.654c-0.646-0.724-1.147-1.588-1.506-2.59c-0.257,0.463-0.521,0.91-0.794,1.343l-0.969-0.68
			c1.023-1.372,1.808-2.981,2.347-4.827l1.137,0.338c-0.209,0.551-0.419,1.084-0.635,1.605h4.942v1.035h-1.07
			c-0.354,1.479-0.932,2.717-1.735,3.711c0.792,0.539,1.778,0.965,2.968,1.28c-0.271,0.347-0.541,0.749-0.81,1.215
			c-1.201-0.444-2.209-0.983-3.03-1.621c-0.833,0.724-1.864,1.349-3.094,1.88C385.148,67.776,384.899,67.432,384.617,67.057z
			 M375.966,67.249c1.382-0.572,2.643-1.36,3.777-2.364h-1.478v0.404h-1.051v-3.5h2.966v-0.988h-3.631v-0.974h3.631v-1.1h1.086v1.1
			h3.514v0.974h-3.514v0.988h2.965v3.5h-1.055v-0.404h-1.91v0.971l0.404-0.535c0.962,0.455,1.88,0.915,2.752,1.378l-0.549,0.892
			c-0.907-0.539-1.778-0.993-2.607-1.36v1.749h-1.086v-2.397c-0.992,0.98-2.172,1.847-3.53,2.59
			C376.452,67.9,376.227,67.594,375.966,67.249z M376.26,73.05h2.917v-2.917h1.163v2.917h3.403v-3.66h-6.413v-1.037h13.607v1.037
			h-6.026v1.247h5.314v1.035h-5.314v1.378h7.207v1.037H376.26V73.05z"/>
		<path fill="#FFFFFF" d="M401.822,59.021l-0.243,0.37c1.75,2.884,4.18,4.946,7.291,6.189c-0.334,0.527-0.622,1.016-0.859,1.458
			c-3.174-1.666-5.577-3.807-7.208-6.432c-1.598,2.495-4.023,4.713-7.273,6.659c-0.237-0.392-0.516-0.817-0.829-1.28
			c3.372-1.87,5.877-4.191,7.519-6.965H401.822z M400.04,64.591h1.476V74.62h-1.476V64.591z"/>
		<path fill="#FFFFFF" d="M409.94,60.705h7.32c-0.316-0.482-0.69-0.996-1.116-1.541l1.134-0.727c0.487,0.592,0.929,1.18,1.327,1.764
			l-0.825,0.504h7.016v2.771H423.5v-1.574h-12.266v1.574h-1.294V60.705z M409.585,72.983c3.259-0.934,5.856-2.458,7.789-4.577
			c-0.151-0.311-0.325-0.612-0.523-0.898c-1.609,1.662-3.833,2.942-6.671,3.839c-0.159-0.365-0.352-0.733-0.579-1.102
			c2.778-0.767,4.944-1.984,6.485-3.652c-0.175-0.179-0.374-0.354-0.582-0.527c-1.43,1.014-3.189,1.847-5.273,2.497
			c-0.204-0.356-0.447-0.741-0.729-1.15c2.576-0.572,4.639-1.535,6.189-2.884h-4.082v-1.167h11.568v1.167h-5.883
			c-0.276,0.29-0.572,0.572-0.893,0.841c0.85,0.685,1.508,1.453,1.977,2.3c1.693-0.823,3.193-1.673,4.505-2.543l0.763,1.035
			c-0.882,0.531-1.819,1.055-2.812,1.574c0.955,2.074,2.508,3.521,4.658,4.341c-0.356,0.411-0.69,0.831-1.006,1.264
			c-2.109-1.078-3.678-2.771-4.697-5.071c-0.308,0.151-0.623,0.308-0.94,0.463c0.617,2.294,0.52,3.966-0.29,5.015
			c-0.391,0.465-1.134,0.696-2.237,0.696c-0.432,0-1.111-0.016-2.041-0.05c-0.066-0.421-0.146-0.868-0.241-1.343
			c0.842,0.097,1.592,0.144,2.249,0.144c1.168,0.066,1.733-0.636,1.703-2.105c-0.016-0.484-0.076-0.953-0.18-1.4
			c-1.91,1.885-4.46,3.356-7.646,4.415C410.005,73.746,409.811,73.372,409.585,72.983z"/>
		<path fill="#FFFFFF" d="M433.947,70.148h3.127v-2.576h-2.851v-1.1h2.851v-2.262c-0.8,0.088-1.674,0.182-2.623,0.284
			c-0.078-0.312-0.17-0.681-0.276-1.101c2.01-0.174,4.18-0.435,6.513-0.778l0.274,1.085c-0.739,0.113-1.641,0.235-2.705,0.364v2.407
			h2.818v1.1h-2.818v2.576h3.095v1.102h-7.404V70.148z M433.414,59.117l1.134-0.537c0.458,0.788,0.806,1.428,1.045,1.914h6.114
			v1.133h-13.218v6.155c0,2.99-0.564,5.24-1.686,6.74c-0.313-0.345-0.625-0.663-0.939-0.955c0.928-1.242,1.393-3.209,1.393-5.898
			v-7.175h6.951C433.883,59.899,433.618,59.439,433.414,59.117z M430.513,68.609c0.222,0.685,0.51,1.29,0.86,1.817
			c0.432-0.827,0.7-1.715,0.807-2.658h-2.623v-0.94l2.203-2.739h-2.477v-1.068h3.87v1.102l-2.09,2.576h2.253v1.004
			c-0.157,1.349-0.539,2.57-1.143,3.66c1.022,0.957,2.39,1.456,4.106,1.49c1.598,0.055,3.52,0.033,5.768-0.063
			c-0.152,0.391-0.292,0.8-0.421,1.231c-1.986,0.043-3.845,0.043-5.572,0c-1.853-0.049-3.363-0.598-4.528-1.645
			c-0.609,0.825-1.37,1.568-2.276,2.227c-0.323-0.333-0.621-0.625-0.89-0.874c0.963-0.685,1.749-1.434,2.354-2.243
			c-0.518-0.688-0.941-1.511-1.271-2.47L430.513,68.609z"/>
		<path fill="#FFFFFF" d="M451.086,65.759l0.991-0.73c1.196,1.417,2.151,2.641,2.866,3.678l-1.199,0.843
			C452.978,68.296,452.092,67.033,451.086,65.759 M448.123,62.552h-3.645v3.937h3.645V62.552z M444.479,71.752h3.645v-4.097h-3.645
			V71.752z M449.662,64.659c1.016-1.609,1.876-3.614,2.574-6.011l1.362,0.338c-0.274,0.817-0.559,1.582-0.843,2.303h5.217
			c-0.128,5.551-0.237,9.042-0.325,10.48c-0.075,1.694-0.965,2.543-2.671,2.543c-0.985,0-1.983-0.033-2.997-0.096
			c-0.066-0.543-0.151-1.023-0.261-1.443h0.051c1.078,0.151,2.068,0.226,2.963,0.226c0.983,0,1.513-0.518,1.588-1.553
			c0.119-1.609,0.205-4.593,0.259-8.945h-4.343c-0.469,1.043-0.953,1.961-1.457,2.753C450.489,65.05,450.115,64.852,449.662,64.659z
			 M443.182,61.335h1.637c0.399-0.982,0.73-1.878,0.986-2.687l1.36,0.385c-0.338,0.827-0.669,1.594-0.986,2.302h3.24V74.23h-1.296
			v-1.265h-3.645v1.38h-1.297V61.335z"/>
		<path fill="#FFFFFF" d="M472.521,60.557h-6.579v3.322h6.579V60.557z M459.027,66.618c1.445-2.162,2.568-4.781,3.366-7.857
			l1.201,0.356c-0.442,1.424-0.925,2.759-1.444,4.001v11.438h-1.165v-8.99c-0.464,0.851-0.95,1.645-1.458,2.38
			C459.376,67.492,459.208,67.051,459.027,66.618z M464.711,59.473h9.041v6.108h-1.231v-0.616h-2.723v2.187h5.348v1.102h-4.408
			c0.995,1.652,2.507,2.956,4.536,3.903c-0.335,0.465-0.604,0.866-0.812,1.201c-2.029-1.232-3.582-2.896-4.664-4.991v6.271h-1.184
			v-6.336c-1.304,2.353-2.939,4.148-4.907,5.378c-0.249-0.302-0.551-0.63-0.906-0.988c1.922-1.057,3.48-2.537,4.682-4.438h-4.244
			v-1.102h5.376v-2.187h-2.673v0.729h-1.23V59.473z"/>
		<path fill="#FFFFFF" d="M489.334,61.061h-2.735v1.411h2.735V61.061z M482.547,62.472h2.884v-1.411h-2.833
			C482.598,61.567,482.58,62.038,482.547,62.472z M478.318,64.869h2.709c0.115-0.38,0.21-0.866,0.272-1.462h-2.786L478.318,64.869z
			 M482.257,64.869h3.174v-1.462h-2.947C482.429,63.979,482.353,64.468,482.257,64.869z M483.294,69.549h1.15
			c0,0.69-0.078,1.302-0.228,1.831c2.462,0.724,4.697,1.444,6.707,2.156l-0.599,1.163c-2.182-0.81-4.352-1.57-6.515-2.282
			c-0.67,1.092-2.885,1.856-6.642,2.3c-0.204-0.518-0.39-0.906-0.549-1.167c2.492-0.237,4.368-0.652,5.62-1.247
			C482.966,71.946,483.315,71.027,483.294,69.549z M487.73,66.859c0.605,0.066,1.109,0.1,1.509,0.1c0.43,0,0.679-0.163,0.745-0.486
			c0.041-0.237,0.07-0.459,0.08-0.664h-3.466v1.586h-1.168v-1.586h-3.482c-0.29,0.658-0.8,1.258-1.522,1.796h7.533
			C487.906,67.4,487.828,67.151,487.73,66.859z M476.797,60.121h4.65c0.021-0.486,0.031-0.939,0.031-1.36h1.166
			c0,0.421-0.008,0.874-0.031,1.36h2.817v-1.36h1.168v1.36h3.903v3.693h-1.168v-0.407h-2.735v1.462h4.633
			c-0.021,0.776-0.08,1.439-0.179,1.99c-0.117,0.757-0.604,1.137-1.458,1.137c-0.13,0-0.292,0-0.486,0v3.95h-1.167v-3.304h-8.132
			v3.5h-1.166v-3.5c-0.657,0.289-1.41,0.56-2.251,0.809c-0.141-0.311-0.374-0.685-0.697-1.116c2.462-0.529,4.087-1.37,4.875-2.526
			h-3.563l0.52-3.337h3.854c0.033-0.424,0.051-0.894,0.051-1.411h-4.634V60.121z"/>
		<path fill="#FFFFFF" d="M495.16,73.154c0.204,0,0.396-0.079,0.576-0.235c0.175-0.157,0.267-0.359,0.267-0.606
			c0-0.278-0.088-0.497-0.259-0.662c-0.175-0.163-0.386-0.247-0.633-0.247c-0.233,0-0.432,0.084-0.601,0.247
			c-0.166,0.165-0.249,0.384-0.249,0.652c0,0.267,0.097,0.473,0.295,0.626C494.754,73.077,494.956,73.154,495.16,73.154
			 M495.186,70.205c0.527,0,0.986,0.206,1.376,0.616c0.387,0.409,0.584,0.888,0.584,1.435c0,0.614-0.199,1.114-0.592,1.502
			c-0.396,0.386-0.872,0.578-1.427,0.58c-0.557-0.002-1.035-0.198-1.438-0.592c-0.401-0.395-0.604-0.888-0.604-1.477
			c0-0.598,0.214-1.092,0.639-1.481C494.154,70.401,494.637,70.205,495.186,70.205z"/>
	</g>
	<rect fill-rule="evenodd" clip-rule="evenodd" fill="none" width="640.43" height="103.562"/>
</g>
</svg>
